<?xml version="1.0" encoding="UTF-8"?>
<svg width="90px" height="90px" viewBox="0 0 90 90" version="1.1" xmlns="http://www.w3.org/2000/svg" xmlns:xlink="http://www.w3.org/1999/xlink">
    <!-- Generator: Sketch 63.1 (92452) - https://sketch.com -->
    <title>1</title>
    <desc>Created with Sketch.</desc>
    <g id="Page-1" stroke="none" stroke-width="1" fill="none" fill-rule="evenodd">
        <g id="FAQs---What's-Google-My-Business" transform="translate(-248.000000, -4528.000000)">
            <g id="1" transform="translate(248.000000, 4528.000000)">
                <circle id="Oval" fill="#FF5254" cx="45" cy="45" r="45"></circle>
                <path d="M58.07,66 L58.07,60.45 L50.27,60.45 L50.27,22.56 L44.18,22.56 L30.95,33.81 L33.29,37.02 C33.45,37.24 33.695,37.435 34.025,37.605 C34.355,37.775 34.72,37.86 35.12,37.86 C35.38,37.86 35.645,37.82 35.915,37.74 C36.185,37.66 36.45,37.51 36.71,37.29 L36.71,37.29 L42.95,32.07 C42.89,33.15 42.86,34.18 42.86,35.16 L42.86,35.16 L42.86,60.45 L34.07,60.45 L34.07,66 L58.07,66 Z" fill="#FFFFFF" fill-rule="nonzero"></path>
            </g>
        </g>
    </g>
</svg>