<?xml version="1.0" encoding="UTF-8"?>
<svg width="90px" height="90px" viewBox="0 0 90 90" version="1.1" xmlns="http://www.w3.org/2000/svg" xmlns:xlink="http://www.w3.org/1999/xlink">
    <!-- Generator: Sketch 63.1 (92452) - https://sketch.com -->
    <title>2</title>
    <desc>Created with Sketch.</desc>
    <g id="Page-1" stroke="none" stroke-width="1" fill="none" fill-rule="evenodd">
        <g id="FAQs---What's-Google-My-Business" transform="translate(-248.000000, -4715.000000)">
            <g id="2" transform="translate(248.000000, 4715.000000)">
                <circle id="Oval" fill="#FF5254" cx="45" cy="45" r="45"></circle>
                <path d="M58.28,66 L58.28,61.56 C58.28,60.82 58.045,60.225 57.575,59.775 C57.105,59.325 56.47,59.1 55.67,59.1 L55.67,59.1 L44.54,59.1 C43.7,59.1 42.82,59.175 41.9,59.325 C40.98,59.475 40.04,59.69 39.08,59.97 L39.08,59.97 L48.86,49.98 C50.02,48.78 51.13,47.6 52.19,46.44 C53.25,45.28 54.175,44.08 54.965,42.84 C55.755,41.6 56.385,40.3 56.855,38.94 C57.325,37.58 57.56,36.1 57.56,34.5 C57.56,32.64 57.23,30.95 56.57,29.43 C55.91,27.91 54.99,26.61 53.81,25.53 C52.63,24.45 51.21,23.615 49.55,23.025 C47.89,22.435 46.06,22.14 44.06,22.14 C42.14,22.14 40.345,22.405 38.675,22.935 C37.005,23.465 35.525,24.255 34.235,25.305 C32.945,26.355 31.87,27.665 31.01,29.235 C30.15,30.805 29.57,32.63 29.27,34.71 L29.27,34.71 L33.17,35.4 C33.53,35.46 33.86,35.49 34.16,35.49 C34.84,35.49 35.4,35.325 35.84,34.995 C36.28,34.665 36.61,34.12 36.83,33.36 C37.29,31.84 38.095,30.63 39.245,29.73 C40.395,28.83 41.86,28.38 43.64,28.38 C44.6,28.38 45.465,28.515 46.235,28.785 C47.005,29.055 47.67,29.46 48.23,30 C48.79,30.54 49.22,31.205 49.52,31.995 C49.82,32.785 49.97,33.7 49.97,34.74 C49.97,35.88 49.815,36.965 49.505,37.995 C49.195,39.025 48.745,40.04 48.155,41.04 C47.565,42.04 46.835,43.05 45.965,44.07 C45.095,45.09 44.11,46.16 43.01,47.28 L43.01,47.28 L29.84,60.48 C29.38,60.94 29.045,61.44 28.835,61.98 C28.625,62.52 28.52,63.04 28.52,63.54 L28.52,63.54 L28.52,66 L58.28,66 Z" fill="#FFFFFF" fill-rule="nonzero"></path>
            </g>
        </g>
    </g>
</svg>