<?xml version="1.0" encoding="UTF-8"?>
<svg width="90px" height="90px" viewBox="0 0 90 90" version="1.1" xmlns="http://www.w3.org/2000/svg" xmlns:xlink="http://www.w3.org/1999/xlink">
    <!-- Generator: Sketch 63.1 (92452) - https://sketch.com -->
    <title>3</title>
    <desc>Created with Sketch.</desc>
    <g id="Page-1" stroke="none" stroke-width="1" fill="none" fill-rule="evenodd">
        <g id="FAQs---What's-Google-My-Business" transform="translate(-248.000000, -4879.000000)">
            <g id="3" transform="translate(248.000000, 4879.000000)">
                <circle id="Oval" fill="#FF5254" cx="45" cy="45" r="45"></circle>
                <path d="M43.85,66.48 C45.85,66.48 47.745,66.19 49.535,65.61 C51.325,65.03 52.9,64.175 54.26,63.045 C55.62,61.915 56.7,60.52 57.5,58.86 C58.3,57.2 58.7,55.29 58.7,53.13 C58.7,50.59 58.06,48.48 56.78,46.8 C55.5,45.12 53.56,43.87 50.96,43.05 C52.04,42.69 53.005,42.24 53.855,41.7 C54.705,41.16 55.425,40.5 56.015,39.72 C56.605,38.94 57.055,38.025 57.365,36.975 C57.675,35.925 57.83,34.71 57.83,33.33 C57.83,31.75 57.525,30.28 56.915,28.92 C56.305,27.56 55.43,26.375 54.29,25.365 C53.15,24.355 51.775,23.565 50.165,22.995 C48.555,22.425 46.75,22.14 44.75,22.14 C42.83,22.14 41.035,22.405 39.365,22.935 C37.695,23.465 36.215,24.255 34.925,25.305 C33.635,26.355 32.56,27.665 31.7,29.235 C30.84,30.805 30.26,32.63 29.96,34.71 L29.96,34.71 L33.86,35.4 C34.22,35.46 34.56,35.49 34.88,35.49 C35.56,35.49 36.11,35.325 36.53,34.995 C36.95,34.665 37.28,34.12 37.52,33.36 C37.98,31.9 38.79,30.705 39.95,29.775 C41.11,28.845 42.57,28.38 44.33,28.38 C46.27,28.38 47.8,28.905 48.92,29.955 C50.04,31.005 50.6,32.56 50.6,34.62 C50.6,35.58 50.46,36.46 50.18,37.26 C49.9,38.06 49.405,38.745 48.695,39.315 C47.985,39.885 47.03,40.33 45.83,40.65 C44.63,40.97 43.12,41.14 41.3,41.16 L41.3,41.16 L41.3,46.44 C43.5,46.44 45.255,46.61 46.565,46.95 C47.875,47.29 48.88,47.76 49.58,48.36 C50.28,48.96 50.74,49.685 50.96,50.535 C51.18,51.385 51.29,52.33 51.29,53.37 C51.29,54.19 51.135,55.005 50.825,55.815 C50.515,56.625 50.045,57.36 49.415,58.02 C48.785,58.68 48,59.215 47.06,59.625 C46.12,60.035 45.02,60.24 43.76,60.24 C42.64,60.24 41.675,60.075 40.865,59.745 C40.055,59.415 39.35,58.985 38.75,58.455 C38.15,57.925 37.635,57.32 37.205,56.64 C36.775,55.96 36.38,55.27 36.02,54.57 C35.8,54.15 35.485,53.83 35.075,53.61 C34.665,53.39 34.2,53.28 33.68,53.28 C33.1,53.28 32.53,53.4 31.97,53.64 L31.97,53.64 L28.7,54.99 C29.3,56.85 30.02,58.49 30.86,59.91 C31.7,61.33 32.72,62.53 33.92,63.51 C35.12,64.49 36.53,65.23 38.15,65.73 C39.77,66.23 41.67,66.48 43.85,66.48 Z" fill="#FFFFFF" fill-rule="nonzero"></path>
            </g>
        </g>
    </g>
</svg>