<?xml version="1.0" encoding="UTF-8"?>
<svg width="90px" height="90px" viewBox="0 0 90 90" version="1.1" xmlns="http://www.w3.org/2000/svg" xmlns:xlink="http://www.w3.org/1999/xlink">
    <!-- Generator: Sketch 63.1 (92452) - https://sketch.com -->
    <title>5</title>
    <desc>Created with Sketch.</desc>
    <g id="Page-1" stroke="none" stroke-width="1" fill="none" fill-rule="evenodd">
        <g id="FAQs---What's-Google-My-Business" transform="translate(-248.000000, -5207.000000)">
            <g id="5" transform="translate(248.000000, 5207.000000)">
                <circle id="Oval" fill="#FF5254" cx="45" cy="45" r="45"></circle>
                <path d="M44,66.48 C46.32,66.48 48.465,66.11 50.435,65.37 C52.405,64.63 54.11,63.585 55.55,62.235 C56.99,60.885 58.115,59.26 58.925,57.36 C59.735,55.46 60.14,53.36 60.14,51.06 C60.14,49.2 59.84,47.465 59.24,45.855 C58.64,44.245 57.75,42.84 56.57,41.64 C55.39,40.44 53.935,39.5 52.205,38.82 C50.475,38.14 48.47,37.8 46.19,37.8 C44.57,37.8 42.78,38 40.82,38.4 L40.82,38.4 L42.38,29.34 L54.32,29.34 C55.88,29.34 56.995,29.01 57.665,28.35 C58.335,27.69 58.67,26.83 58.67,25.77 L58.67,25.77 L58.67,22.62 L37.25,22.62 L33.65,43.68 L38.27,45 C40.39,44.24 42.5,43.86 44.6,43.86 C47.26,43.86 49.275,44.525 50.645,45.855 C52.015,47.185 52.7,49.03 52.7,51.39 C52.7,52.67 52.525,53.855 52.175,54.945 C51.825,56.035 51.305,56.975 50.615,57.765 C49.925,58.555 49.06,59.17 48.02,59.61 C46.98,60.05 45.78,60.27 44.42,60.27 C43.14,60.27 42.05,60.11 41.15,59.79 C40.25,59.47 39.46,59.12 38.78,58.74 C38.1,58.36 37.505,58.01 36.995,57.69 C36.485,57.37 35.98,57.21 35.48,57.21 C34.68,57.21 34.04,57.55 33.56,58.23 L33.56,58.23 L31.28,61.38 C32,62.06 32.815,62.705 33.725,63.315 C34.635,63.925 35.625,64.465 36.695,64.935 C37.765,65.405 38.91,65.78 40.13,66.06 C41.35,66.34 42.64,66.48 44,66.48 Z" fill="#FFFFFF" fill-rule="nonzero"></path>
            </g>
        </g>
    </g>
</svg>