<?xml version="1.0" encoding="UTF-8"?>
<svg width="90px" height="90px" viewBox="0 0 90 90" version="1.1" xmlns="http://www.w3.org/2000/svg" xmlns:xlink="http://www.w3.org/1999/xlink">
    <!-- Generator: Sketch 63.1 (92452) - https://sketch.com -->
    <title>6</title>
    <desc>Created with Sketch.</desc>
    <g id="Page-1" stroke="none" stroke-width="1" fill="none" fill-rule="evenodd">
        <g id="FAQs---What's-Google-My-Business" transform="translate(-248.000000, -5371.000000)">
            <g id="6" transform="translate(248.000000, 5371.000000)">
                <circle id="Oval" fill="#FF5254" cx="45" cy="45" r="45"></circle>
                <path d="M43.58,66.48 C45.86,66.48 47.945,66.1 49.835,65.34 C51.725,64.58 53.34,63.54 54.68,62.22 C56.02,60.9 57.06,59.355 57.8,57.585 C58.54,55.815 58.91,53.92 58.91,51.9 C58.91,49.74 58.55,47.85 57.83,46.23 C57.11,44.61 56.16,43.255 54.98,42.165 C53.8,41.075 52.435,40.26 50.885,39.72 C49.335,39.18 47.74,38.91 46.1,38.91 C44.96,38.91 43.905,39.03 42.935,39.27 C41.965,39.51 41.06,39.84 40.22,40.26 C40.46,39.94 40.705,39.63 40.955,39.33 C41.205,39.03 41.47,38.71 41.75,38.37 L41.75,38.37 L54.62,22.62 L48.02,22.62 C47.12,22.62 46.325,22.79 45.635,23.13 C44.945,23.47 44.42,23.88 44.06,24.36 L44.06,24.36 L33.71,38.25 C31.97,40.57 30.685,42.805 29.855,44.955 C29.025,47.105 28.61,49.2 28.61,51.24 C28.61,53.52 28.955,55.595 29.645,57.465 C30.335,59.335 31.33,60.935 32.63,62.265 C33.93,63.595 35.5,64.63 37.34,65.37 C39.18,66.11 41.26,66.48 43.58,66.48 Z M43.43,60.42 C42.17,60.42 41.06,60.225 40.1,59.835 C39.14,59.445 38.335,58.9 37.685,58.2 C37.035,57.5 36.545,56.655 36.215,55.665 C35.885,54.675 35.72,53.58 35.72,52.38 C35.72,51.26 35.905,50.215 36.275,49.245 C36.645,48.275 37.175,47.435 37.865,46.725 C38.555,46.015 39.38,45.46 40.34,45.06 C41.3,44.66 42.37,44.46 43.55,44.46 C44.73,44.46 45.81,44.64 46.79,45 C47.77,45.36 48.61,45.885 49.31,46.575 C50.01,47.265 50.55,48.105 50.93,49.095 C51.31,50.085 51.5,51.2 51.5,52.44 C51.5,53.58 51.3,54.635 50.9,55.605 C50.5,56.575 49.945,57.42 49.235,58.14 C48.525,58.86 47.675,59.42 46.685,59.82 C45.695,60.22 44.61,60.42 43.43,60.42 Z" fill="#FFFFFF" fill-rule="nonzero"></path>
            </g>
        </g>
    </g>
</svg>