<?xml version="1.0" encoding="UTF-8"?>
<svg width="90px" height="90px" viewBox="0 0 90 90" version="1.1" xmlns="http://www.w3.org/2000/svg" xmlns:xlink="http://www.w3.org/1999/xlink">
    <!-- Generator: Sketch 63.1 (92452) - https://sketch.com -->
    <title>7</title>
    <desc>Created with Sketch.</desc>
    <g id="Page-1" stroke="none" stroke-width="1" fill="none" fill-rule="evenodd">
        <g id="FAQs---What's-Google-My-Business" transform="translate(-248.000000, -5525.000000)">
            <g id="7" transform="translate(248.000000, 5525.000000)">
                <circle id="Oval" fill="#FF5254" cx="45" cy="45" r="45"></circle>
                <path d="M40.58,66 C41.64,66 42.48,65.755 43.1,65.265 C43.72,64.775 44.2,64.18 44.54,63.48 L44.54,63.48 L60.95,29.64 C61.15,29.24 61.355,28.745 61.565,28.155 C61.775,27.565 61.88,26.79 61.88,25.83 L61.88,25.83 L61.88,22.62 L31.88,22.62 L31.88,27.63 C31.88,28.09 32.05,28.49 32.39,28.83 C32.73,29.17 33.13,29.34 33.59,29.34 L33.59,29.34 L54.35,29.34 C53.49,30.32 52.71,31.49 52.01,32.85 L52.01,32.85 L35.21,66 L40.58,66 Z" fill="#FFFFFF" fill-rule="nonzero"></path>
            </g>
        </g>
    </g>
</svg>