<?xml version="1.0" encoding="UTF-8"?>
<svg width="90px" height="90px" viewBox="0 0 90 90" version="1.1" xmlns="http://www.w3.org/2000/svg" xmlns:xlink="http://www.w3.org/1999/xlink">
    <!-- Generator: Sketch 63.1 (92452) - https://sketch.com -->
    <title>Group</title>
    <desc>Created with Sketch.</desc>
    <g id="Page-1" stroke="none" stroke-width="1" fill="none" fill-rule="evenodd">
        <g id="FAQs---What's-Google-My-Business" transform="translate(-248.000000, -5066.000000)">
            <g id="Group" transform="translate(248.000000, 5066.000000)">
                <circle id="Oval" fill="#FF5254" cx="45" cy="45" r="45"></circle>
                <path d="M54.26,66 L54.26,55.41 L58.19,55.41 C58.69,55.41 59.07,55.265 59.33,54.975 C59.59,54.685 59.72,54.34 59.72,53.94 L59.72,53.94 L59.72,49.65 L54.26,49.65 L54.26,22.59 L47.24,22.59 L26.69,50.04 L27.44,53.79 C27.54,54.25 27.78,54.635 28.16,54.945 C28.54,55.255 28.98,55.41 29.48,55.41 L29.48,55.41 L47.78,55.41 L47.78,66 L54.26,66 Z M47.78,49.65 L34.58,49.65 L48.05,31.08 C47.95,31.88 47.88,32.65 47.84,33.39 C47.8,34.13 47.78,34.82 47.78,35.46 L47.78,35.46 L47.78,49.65 Z" id="4" fill="#FFFFFF" fill-rule="nonzero"></path>
            </g>
        </g>
    </g>
</svg>