<?xml version="1.0" encoding="UTF-8"?>
<svg width="49px" height="37px" viewBox="0 0 49 37" version="1.1" xmlns="http://www.w3.org/2000/svg" xmlns:xlink="http://www.w3.org/1999/xlink">
    <!-- Generator: sketchtool 59.1 (101010) - https://sketch.com -->
    <title>958AC854-F59B-4FCB-AA24-73AEC869982E</title>
    <desc>Created with sketchtool.</desc>
    <g id="Page-1" stroke="none" stroke-width="1" fill="none" fill-rule="evenodd">
        <g id="FAQs---Main-Page" transform="translate(-884.000000, -1145.000000)" fill-rule="nonzero" stroke="#FFFFFF" stroke-width="2">
            <g id="icn_faqs_other" transform="translate(885.000000, 1146.000000)">
                <path d="M34.1071429,31 C33.9982143,31 33.8910714,30.9799418 33.7857143,30.9398253 L10.5714286,21.822439 C10.2267857,21.6875017 10,21.3483349 10,20.9708752 L10,10.0300117 C10,9.6525519 10.2267857,9.31338513 10.5714286,9.17844782 L33.7857143,0.0610615959 C34.0625,-0.0483470387 34.3678571,-0.00823053936 34.6125,0.161352844 C34.8553571,0.330936228 35,0.611751724 35,0.912625469 L35,30.0882614 C35,30.3891351 34.8553571,30.6699506 34.6125,30.839534 C34.4607143,30.9452957 34.2857143,31 34.1071429,31 Z M11.7857143,20.343599 L33.2142857,28.7607699 L33.2142857,2.2401169 L11.7857143,10.6572879 L11.7857143,20.343599 Z" id="Shape"></path>
                <path d="M10.0833333,22 L3.66666667,22 C1.6445,22 0,20.4622857 0,18.5714286 L0,13.4285714 C0,11.5377143 1.6445,10 3.66666667,10 L10.0833333,10 C10.5893333,10 11,10.384 11,10.8571429 L11,21.1428571 C11,21.616 10.5893333,22 10.0833333,22 Z M3.66666667,11.7142857 C2.65466667,11.7142857 1.83333333,12.4822857 1.83333333,13.4285714 L1.83333333,18.5714286 C1.83333333,19.5177143 2.65466667,20.2857143 3.66666667,20.2857143 L9.16666667,20.2857143 L9.16666667,11.7142857 L3.66666667,11.7142857 Z" id="Shape"></path>
                <path d="M13.1013537,35 L7.70054101,35 C7.25227356,35 6.8724164,34.656833 6.80940692,34.1936514 L5.00913601,21.0670465 C4.93892545,20.555109 5.28097692,20.080676 5.77425115,20.007542 C6.25672375,19.9437842 6.72119364,20.2907016 6.79140421,20.8045145 L8.48185859,33.1247707 L12.093202,33.1247707 L10.8906211,21.9596557 C10.8366129,21.4458429 11.1912663,20.9826612 11.6845405,20.9226539 C12.1616123,20.8682722 12.6224817,21.2358172 12.6800903,21.74963 L13.9942881,33.9573725 C14.0230924,34.2236551 13.9420802,34.4880624 13.7710545,34.6868367 C13.601829,34.885611 13.3587925,35 13.1013537,35 L13.1013537,35 Z" id="Path"></path>
                <path d="M40.8748827,11 C40.5931201,11 40.3166077,10.843986 40.1468501,10.5539599 C39.8790882,10.0959188 39.987593,9.47386286 40.390111,9.16783536 L45.6403457,5.16747589 C46.0393635,4.86344857 46.5836378,4.98345935 46.8531499,5.44550087 C47.1209118,5.90354203 47.012407,6.52559793 46.609889,6.83162543 L41.3596543,10.8319849 C41.2108977,10.9459951 41.0428902,11 40.8748827,11 Z" id="Path"></path>
                <path d="M46.1254576,28 C45.9574283,28 45.789399,27.9459905 45.6406231,27.8319703 L40.389708,23.8312639 C39.9888881,23.5252098 39.8786189,22.9031 40.1464156,22.4450191 C40.4159625,21.9849378 40.9620577,21.8629163 41.3593769,22.16697 L46.610292,26.1676764 C47.0111119,26.4737305 47.1213811,27.0958403 46.8535844,27.5539212 C46.6838049,27.8439724 46.4072567,28 46.1254576,28 L46.1254576,28 Z" id="Path"></path>
                <path d="M46.125,17 L40.875,17 C40.392,17 40,16.776 40,16.5 C40,16.224 40.392,16 40.875,16 L46.125,16 C46.608,16 47,16.224 47,16.5 C47,16.776 46.608,17 46.125,17 Z" id="Path"></path>
            </g>
        </g>
    </g>
</svg>