<?xml version="1.0" encoding="UTF-8"?>
<svg width="35px" height="35px" viewBox="0 0 35 35" version="1.1" xmlns="http://www.w3.org/2000/svg" xmlns:xlink="http://www.w3.org/1999/xlink">
    <!-- Generator: sketchtool 59.1 (101010) - https://sketch.com -->
    <title>1DAC0094-2F80-47E0-A3E1-7923BF53F794</title>
    <desc>Created with sketchtool.</desc>
    <g id="Page-1" stroke="none" stroke-width="1" fill="none" fill-rule="evenodd">
        <g id="FAQs---Main-Page" transform="translate(-885.000000, -563.000000)" fill="#FFFFFF" fill-rule="nonzero">
            <path d="M912.5,582.999948 C910.019057,582.999948 907.832786,584.224629 906.466793,586.086036 L899.641257,582.672476 C899.852604,581.980155 900.00001,581.260399 900.00001,580.499927 C900.00001,579.739455 899.852604,579.019555 899.641257,578.327378 L906.466793,574.913819 C907.832786,576.775226 910.019057,577.999907 912.5,577.999907 C916.635714,577.999907 920,574.635627 920,570.499917 C920,566.364207 916.635786,563 912.5,563 C908.364203,563 904.99999,566.364279 904.99999,570.49999 C904.99999,571.260462 905.147541,571.980217 905.358888,572.672393 L898.533134,576.086098 C897.167141,574.224691 894.98087,573.00001 892.499933,573.00001 C888.364214,573.00001 885,576.364217 885,580.5 C885,584.635783 888.364214,587.99999 892.5,587.99999 C894.980943,587.99999 897.167214,586.775309 898.533207,584.913902 L905.358743,588.327607 C905.147396,589.01971 904.99999,589.739466 904.99999,590.50001 C904.99999,594.635721 908.364203,598 912.5,598 C916.635786,598 920,594.635721 920,590.50001 C920,586.3643 916.635714,582.999948 912.5,582.999948 Z M912.499995,565.500021 C915.2576,565.500021 917.499974,567.743696 917.499974,570.49999 C917.499974,573.256356 915.257528,575.499959 912.499995,575.499959 C909.742389,575.499959 907.500016,573.256283 907.500016,570.49999 C907.500016,567.743696 909.742462,565.500021 912.499995,565.500021 Z M892.500005,585.499969 C889.7424,585.499969 887.500026,583.256294 887.500026,580.5 C887.500026,577.743634 889.742472,575.500031 892.500005,575.500031 C895.257611,575.500031 897.499984,577.743706 897.499984,580.5 C897.499984,583.256294 895.257611,585.499969 892.500005,585.499969 Z M912.499995,595.499907 C909.742389,595.499907 907.500016,593.256231 907.500016,590.499938 C907.500016,587.743644 909.742462,585.499969 912.499995,585.499969 C915.2576,585.499969 917.499974,587.743644 917.499974,590.499938 C917.499974,593.256304 915.2576,595.499907 912.499995,595.499907 Z" id="icn_faqs_social"></path>
        </g>
    </g>
</svg>