<?xml version="1.0" encoding="UTF-8"?>
<svg width="44px" height="44px" viewBox="0 0 44 44" version="1.1" xmlns="http://www.w3.org/2000/svg" xmlns:xlink="http://www.w3.org/1999/xlink">
    <!-- Generator: sketchtool 59.1 (101010) - https://sketch.com -->
    <title>1D132A94-1481-4045-BEE1-D197D7A2B516</title>
    <desc>Created with sketchtool.</desc>
    <g id="Page-1" stroke="none" stroke-width="1" fill="none" fill-rule="evenodd">
        <g id="FAQs---Main-Page" transform="translate(-236.000000, -641.000000)" fill="#427FE0" fill-rule="nonzero">
            <g id="icn_faqs" transform="translate(236.000000, 641.000000)">
                <circle id="Oval" cx="22.5" cy="32.5" r="2.5"></circle>
                <path d="M22,0 C9.84121875,0 0,9.83958594 0,22 C0,34.1587813 9.83958594,44 22,44 C34.1587813,44 44,34.1604141 44,22 C44,9.84121875 34.1604141,0 22,0 Z M22,40.5625 C11.7410391,40.5625 3.4375,32.2603359 3.4375,22 C3.4375,11.7410391 11.7396641,3.4375 22,3.4375 C32.2589609,3.4375 40.5625,11.7396641 40.5625,22 C40.5625,32.2589609 32.2603359,40.5625 22,40.5625 Z" id="Shape"></path>
                <path d="M23,10 C19.1402,10 16,12.905219 16,16.4761905 C16,17.3703905 16.783475,18.0952381 17.75,18.0952381 C18.716525,18.0952381 19.5,17.3703905 19.5,16.4761905 C19.5,14.6907048 21.0701,13.2380952 23,13.2380952 C24.9299,13.2380952 26.5,14.6907048 26.5,16.4761905 C26.5,18.2616762 24.9299,19.7142857 23,19.7142857 C22.033475,19.7142857 21.25,20.4391333 21.25,21.3333333 L21.25,25.3809524 C21.25,26.2751524 22.033475,27 23,27 C23.966525,27 24.75,26.2751524 24.75,25.3809524 L24.75,22.7474905 C27.765775,22.0267714 30,19.4883476 30,16.4761905 C30,12.905219 26.8598,10 23,10 Z" id="Path"></path>
            </g>
        </g>
    </g>
</svg>