<?xml version="1.0" encoding="UTF-8"?>
<svg width="34px" height="34px" viewBox="0 0 34 34" version="1.1" xmlns="http://www.w3.org/2000/svg" xmlns:xlink="http://www.w3.org/1999/xlink">
    <!-- Generator: sketchtool 59.1 (101010) - https://sketch.com -->
    <title>795DE4D5-5706-44D9-B99F-115BBD1B5FDF</title>
    <desc>Created with sketchtool.</desc>
    <g id="Page-1" stroke="none" stroke-width="1" fill="none" fill-rule="evenodd">
        <g id="FAQs---Main-Page" transform="translate(-404.000000, -563.000000)" fill="#FFFFFF" fill-rule="nonzero">
            <g id="Group-7" transform="translate(220.000000, 543.000000)">
                <g id="Group-4">
                    <g id="Group" transform="translate(184.000000, 12.000000)">
                        <g id="icn_faqs_seo" transform="translate(0.000000, 8.000000)">
                            <path d="M23.6869187,20.175549 C27.8498794,14.4123629 26.4575848,6.43204135 20.5791181,2.35169384 C14.7006514,-1.72865367 6.56070067,-0.364638026 2.39873442,5.39952323 C-1.76323182,11.1627096 -0.371931671,19.1420559 5.50752946,23.2224034 C9.70330845,26.1347089 15.250608,26.3589575 19.6761157,23.7966748 L29.2918987,33.1673366 C30.3301529,34.2388545 32.0575926,34.2817542 33.1505437,33.263861 C34.243495,32.2469428 34.2872528,30.5533792 33.2499935,29.4818616 C33.217175,29.4477368 33.1853511,29.416537 33.1505437,29.384362 L23.6869187,20.175549 Z M13.0348706,21.0491433 C8.38957912,21.0501183 4.62342221,17.3607431 4.62043846,12.8065486 C4.61944422,8.25235418 8.38261758,4.56005394 13.0289035,4.5581033 C17.6682279,4.55615396 21.4323959,8.23967933 21.4413589,12.7880237 C21.4493023,17.3431931 17.6881181,21.0413432 13.0408375,21.0491433 C13.0388486,21.0491433 13.0378539,21.0491433 13.0348706,21.0491433 Z" id="icn_research"></path>
                        </g>
                    </g>
                </g>
            </g>
        </g>
    </g>
</svg>