<?xml version="1.0" encoding="UTF-8"?>
<svg width="44px" height="44px" viewBox="0 0 44 44" version="1.1" xmlns="http://www.w3.org/2000/svg" xmlns:xlink="http://www.w3.org/1999/xlink">
    <!-- Generator: sketchtool 59.1 (101010) - https://sketch.com -->
    <title>120612B2-6C23-466A-BB70-F23D48F535D3</title>
    <desc>Created with sketchtool.</desc>
    <g id="Page-1" stroke="none" stroke-width="1" fill="none" fill-rule="evenodd">
        <g id="FAQs---Main-Page---Search-Results" transform="translate(-237.000000, -553.000000)" fill="#427FE0" fill-rule="nonzero">
            <g id="icn_search_results" transform="translate(237.000000, 553.000000)">
                <path d="M30.6536595,26.109534 C36.0410204,18.6512932 34.2392274,8.32381822 26.6317999,3.0433685 C19.0243725,-2.23708122 8.49031852,-0.471884505 3.10424455,6.9876183 C-2.28182942,14.4458594 -0.481323339,24.7720724 7.12739106,30.0525221 C12.5572227,33.821388 19.7360809,34.1115921 25.4632085,30.7956968 L37.907163,42.9224356 C39.2507861,44.3091058 41.4862963,44.364623 42.9007036,43.0473495 C44.3151112,41.7313377 44.3717389,39.5396672 43.0294034,38.1529974 C42.9869323,38.1088358 42.9457485,38.0684596 42.9007036,38.0268214 L30.6536595,26.109534 Z M16.8686561,27.2400678 C10.8571024,27.2413296 5.98325227,22.466844 5.97939095,16.5731806 C5.97810429,10.6795172 10.8480933,5.90124627 16.860934,5.89872192 C22.8647655,5.89619925 27.7360418,10.6631144 27.747641,16.5492071 C27.7579206,22.4441322 22.8905057,27.2299735 16.8763779,27.2400678 C16.8738041,27.2400678 16.8725168,27.2400678 16.8686561,27.2400678 Z" id="icn_research"></path>
            </g>
        </g>
    </g>
</svg>