<?xml version="1.0" encoding="UTF-8"?>
<svg width="349px" height="527px" viewBox="0 0 349 527" version="1.1" xmlns="http://www.w3.org/2000/svg" xmlns:xlink="http://www.w3.org/1999/xlink">
    <!-- Generator: Sketch 63.1 (92452) - https://sketch.com -->
    <title>img_hide_ads</title>
    <desc>Created with Sketch.</desc>
    <g id="Page-1" stroke="none" stroke-width="1" fill="none" fill-rule="evenodd">
        <g id="FAQs---How-Does-PPC-Bidding-Work" transform="translate(-256.000000, -5920.000000)">
            <g id="img_hide_ads" transform="translate(431.000000, 6183.500000) rotate(-9.000000) translate(-431.000000, -6183.500000) translate(287.000000, 5932.000000)">
                <g id="img_my_business_provider">
                    <g id="Group-32" transform="translate(143.714286, 251.375000) rotate(-270.000000) translate(-143.714286, -251.375000) translate(-107.285714, 107.875000)">
                        <path d="M0.501572056,239.118322 C0.501572056,265.466557 21.8651463,286.823753 48.2212504,286.823753 L453.83606,286.823753 C480.192164,286.823753 501.555739,265.466557 501.555739,239.118322 L501.555739,48.2982326 C501.555739,21.9499971 480.192164,0.592801045 453.83606,0.592801045 L48.2212504,0.592801045 C21.8651463,0.592801045 0.501572056,21.9499971 0.501572056,48.2982326 L0.501572056,239.118322 Z" id="Fill-24" fill="#58585B"></path>
                        <polygon id="Fill-26" fill="#FEFEFE" points="71.6740289 263.315199 429.228196 263.315199 429.228196 23.7913892 71.6740289 23.7913892"></polygon>
                        <path d="M465.827264,131.719576 C459.22396,131.719576 453.869752,137.081779 453.869752,143.694944 C453.869752,150.311397 459.22396,155.671957 465.827264,155.671957 C472.43221,155.671957 477.786418,150.311397 477.786418,143.694944 C477.786418,137.081779 472.43221,131.719576 465.827264,131.719576" id="Fill-28" fill="#A6A8AB"></path>
                    </g>
                </g>
                <rect id="Rectangle" fill="#CCDEFB" opacity="0.860653832" x="40" y="105" width="207" height="185"></rect>
                <path d="M125.116962,174.542857 L119.981965,174.542857 L119.981965,162.504762 L107.134997,162.504762 L107.134997,174.542857 L102,174.542857 L102,147 L107.134997,147 L107.134997,158.847619 L119.981965,158.847619 L119.981965,147 L125.116962,147 L125.116962,174.542857 Z M135.338533,174.542857 L130.222484,174.542857 L130.222484,147 L135.338533,147 L135.338533,174.542857 Z M164.773711,160.771429 C164.773711,162.790486 164.43896,164.644436 163.769449,166.333333 C163.099938,168.022231 162.158847,169.476184 160.946148,170.695238 C159.733449,171.914292 158.274442,172.860314 156.569084,173.533333 C154.863726,174.206353 152.975228,174.542857 150.903533,174.542857 L140.444056,174.542857 L140.444056,147 L150.903533,147 C152.975228,147 154.863726,147.339679 156.569084,148.019048 C158.274442,148.698416 159.733449,149.644438 160.946148,150.857143 C162.158847,152.069847 163.099938,153.520626 163.769449,155.209524 C164.43896,156.898421 164.773711,158.752371 164.773711,160.771429 Z M159.56292,160.771429 C159.56292,159.26031 159.360807,157.904768 158.956574,156.704762 C158.552341,155.504756 157.97758,154.488893 157.232276,153.657143 C156.486971,152.825393 155.580618,152.187304 154.51319,151.742857 C153.445762,151.29841 152.242555,151.07619 150.903533,151.07619 L145.579053,151.07619 L145.579053,170.466667 L150.903533,170.466667 C152.242555,170.466667 153.445762,170.244447 154.51319,169.8 C155.580618,169.355553 156.486971,168.717464 157.232276,167.885714 C157.97758,167.053964 158.552341,166.038101 158.956574,164.838095 C159.360807,163.638089 159.56292,162.282547 159.56292,160.771429 Z M185,147 L185,151.07619 L172.854121,151.07619 L172.854121,158.714286 L182.423027,158.714286 L182.423027,162.657143 L172.854121,162.657143 L172.854121,170.447619 L185,170.447619 L185,174.542857 L167.719123,174.542857 L167.719123,147 L185,147 Z M124.880108,185.095238 L124.880108,189.304762 L116.637585,189.304762 L116.637585,212.638095 L111.540484,212.638095 L111.540484,189.304762 L103.260064,189.304762 L103.260064,185.095238 L124.880108,185.095238 Z M150.18455,212.638095 L145.049552,212.638095 L145.049552,200.6 L132.202585,200.6 L132.202585,212.638095 L127.067587,212.638095 L127.067587,185.095238 L132.202585,185.095238 L132.202585,196.942857 L145.049552,196.942857 L145.049552,185.095238 L150.18455,185.095238 L150.18455,212.638095 Z M160.406121,212.638095 L155.290072,212.638095 L155.290072,185.095238 L160.406121,185.095238 L160.406121,212.638095 Z M180.196598,190.104762 C180.057643,190.384128 179.896584,190.580952 179.713416,190.695238 C179.530248,190.809524 179.312344,190.866667 179.059699,190.866667 C178.807053,190.866667 178.522831,190.768255 178.207024,190.571429 L177.800772,190.324571 C177.584003,190.19581 177.346771,190.059048 177.089072,189.914286 C176.659575,189.673015 176.157449,189.453969 175.58268,189.257143 C175.007911,189.060316 174.328936,188.961905 173.545735,188.961905 C172.838327,188.961905 172.222512,189.047618 171.698273,189.219048 C171.174033,189.390477 170.73191,189.62857 170.37189,189.933333 C170.011869,190.238097 169.743437,190.603172 169.566585,191.028571 C169.389734,191.45397 169.301309,191.920632 169.301309,192.428571 C169.301309,193.076194 169.481316,193.615871 169.841336,194.047619 C170.201356,194.479367 170.678218,194.847618 171.271935,195.152381 C171.865652,195.457144 172.541469,195.730158 173.299406,195.971429 C174.057343,196.2127 174.831059,196.46984 175.620577,196.742857 C176.410095,197.015874 177.18381,197.333332 177.941747,197.695238 C178.699684,198.057145 179.375501,198.514283 179.969218,199.066667 C180.562936,199.61905 181.039797,200.295234 181.399817,201.095238 C181.759837,201.895242 181.939845,202.866661 181.939845,204.009524 C181.939845,205.253974 181.728257,206.419042 181.305076,207.504762 C180.881894,208.590482 180.262922,209.536504 179.448139,210.342857 C178.633357,211.14921 177.63858,211.784125 176.463777,212.247619 C175.288975,212.711113 173.943657,212.942857 172.427783,212.942857 C171.556156,212.942857 170.697173,212.857144 169.85081,212.685714 C169.004447,212.514285 168.192835,212.269843 167.41595,211.952381 C166.639065,211.634919 165.912719,211.25397 165.236892,210.809524 C164.561065,210.365077 163.957883,209.869844 163.427327,209.32381 L164.905296,206.866667 C165.044252,206.688888 165.211627,206.539683 165.407427,206.419048 C165.603228,206.298412 165.821131,206.238095 166.061145,206.238095 C166.376952,206.238095 166.718018,206.368253 167.084354,206.628571 L167.555789,206.954667 C167.807422,207.124571 168.08293,207.304761 168.382315,207.495238 C168.88129,207.8127 169.468682,208.101586 170.14451,208.361905 C170.820337,208.622224 171.631949,208.752381 172.57937,208.752381 C174.032082,208.752381 175.156339,208.406353 175.952173,207.714286 C176.748006,207.022219 177.145917,206.028578 177.145917,204.733333 C177.145917,204.00952 176.96591,203.41905 176.60589,202.961905 C176.24587,202.50476 175.769008,202.120636 175.175291,201.809524 C174.581574,201.498411 173.905757,201.234922 173.14782,201.019048 C172.389883,200.803174 171.619325,200.568255 170.836124,200.314286 C170.052922,200.060316 169.282364,199.755557 168.524427,199.4 C167.76649,199.044443 167.090673,198.580955 166.496956,198.009524 C165.903239,197.438092 165.426377,196.723814 165.066357,195.866667 C164.706337,195.00952 164.52633,193.952387 164.52633,192.695238 C164.52633,191.692058 164.725285,190.71429 165.123202,189.761905 C165.521119,188.809519 166.102195,187.965083 166.866449,187.228571 C167.630702,186.49206 168.568635,185.90159 169.680275,185.457143 C170.791916,185.012696 172.061442,184.790476 173.48889,184.790476 C175.105822,184.790476 176.596409,185.044442 177.960696,185.552381 C179.324982,186.060317 180.487135,186.771424 181.447188,187.685714 L180.196598,190.104762 Z M135.258529,250.733333 L131.317277,250.733333 C130.875147,250.733333 130.511974,250.622223 130.227748,250.4 C129.943521,250.177777 129.73825,249.901589 129.611927,249.571429 L127.565507,243.952381 L116.215458,243.952381 L114.169038,249.571429 C114.06798,249.863494 113.869025,250.130158 113.572166,250.371429 C113.275307,250.6127 112.912135,250.733333 112.482637,250.733333 L108.522436,250.733333 L119.285087,223.190476 L124.495878,223.190476 L135.258529,250.733333 Z M117.522893,240.333333 L126.258073,240.333333 L122.923167,231.171429 C122.771579,230.765077 122.604204,230.285717 122.421036,229.733333 C122.237868,229.18095 122.057861,228.580956 121.881009,227.933333 C121.704157,228.580956 121.530465,229.184124 121.359929,229.742857 C121.189394,230.30159 121.022018,230.790474 120.857799,231.209524 L117.522893,240.333333 Z M161.358801,236.961905 C161.358801,238.980962 161.02405,240.834912 160.354539,242.52381 C159.685028,244.212707 158.743937,245.666661 157.531238,246.885714 C156.318539,248.104768 154.859532,249.05079 153.154174,249.72381 C151.448816,250.396829 149.560318,250.733333 147.488623,250.733333 L137.029145,250.733333 L137.029145,223.190476 L147.488623,223.190476 C149.560318,223.190476 151.448816,223.530155 153.154174,224.209524 C154.859532,224.888892 156.318539,225.834915 157.531238,227.047619 C158.743937,228.260324 159.685028,229.711103 160.354539,231.4 C161.02405,233.088897 161.358801,234.942847 161.358801,236.961905 Z M156.14801,236.961905 C156.14801,235.450786 155.945897,234.095244 155.541663,232.895238 C155.13743,231.695232 154.56267,230.679369 153.817365,229.847619 C153.072061,229.015869 152.165708,228.37778 151.09828,227.933333 C150.030852,227.488887 148.827645,227.266667 147.488623,227.266667 L142.164143,227.266667 L142.164143,246.657143 L147.488623,246.657143 C148.827645,246.657143 150.030852,246.434923 151.09828,245.990476 C152.165708,245.54603 153.072061,244.907941 153.817365,244.07619 C154.56267,243.24444 155.13743,242.228577 155.541663,241.028571 C155.945897,239.828565 156.14801,238.473023 156.14801,236.961905 Z M162.238845,225.685714 C162.668343,225.30476 163.138888,224.942859 163.650496,224.6 C164.162103,224.257141 164.714757,223.958731 165.308475,223.704762 C165.902192,223.450792 166.546429,223.250794 167.241204,223.104762 C167.93598,222.958729 168.687589,222.885714 169.496056,222.885714 C170.595064,222.885714 171.596158,223.038094 172.499366,223.342857 C173.402574,223.647621 174.17629,224.082537 174.820536,224.647619 C175.464783,225.212701 175.96375,225.895234 176.317454,226.695238 C176.671158,227.495242 176.848008,228.390471 176.848008,229.380952 C176.848008,230.346037 176.709054,231.180949 176.431144,231.885714 C176.153234,232.59048 175.802693,233.203172 175.379512,233.72381 C174.95633,234.244447 174.498417,234.695236 174.005758,235.07619 L172.603582,236.152381 L172.603582,236.152381 C172.161452,236.488891 171.779331,236.819046 171.457208,237.142857 C171.135085,237.466668 170.942445,237.831744 170.879284,238.238095 L170.443472,241.019048 L167.241204,241.019048 L166.919083,237.914286 C166.90645,237.850793 166.900134,237.796826 166.900134,237.752381 L166.900134,237.590476 C166.900134,237.031743 167.039087,236.546034 167.316998,236.133333 C167.594908,235.720633 167.94229,235.333335 168.359156,234.971429 C168.776021,234.609522 169.22446,234.257145 169.704487,233.914286 C170.184514,233.571427 170.632953,233.200002 171.049819,232.8 C171.466684,232.399998 171.814067,231.946034 172.091977,231.438095 C172.369887,230.930156 172.50884,230.333337 172.50884,229.647619 C172.50884,229.190474 172.423573,228.780954 172.253038,228.419048 C172.082502,228.057141 171.84565,227.746033 171.542475,227.485714 C171.2393,227.225396 170.876128,227.025398 170.452946,226.885714 C170.029765,226.746031 169.571851,226.67619 169.079192,226.67619 C168.359152,226.67619 167.749654,226.755555 167.250679,226.914286 C166.751703,227.073017 166.328528,227.250793 165.98114,227.447619 L165.590047,227.674667 C165.407385,227.783619 165.244051,227.885714 165.100043,227.980952 C164.86003,228.139683 164.645284,228.219048 164.4558,228.219048 C164.001038,228.219048 163.672603,228.028573 163.470487,227.647619 L162.238845,225.685714 Z M165.82008,248.142857 C165.82008,247.749204 165.892714,247.374605 166.037985,247.019048 C166.183257,246.66349 166.38537,246.358731 166.644332,246.104762 C166.903294,245.850792 167.209622,245.64762 167.563326,245.495238 C167.91703,245.342856 168.295993,245.266667 168.700226,245.266667 C169.091827,245.266667 169.464473,245.342856 169.818177,245.495238 C170.171881,245.64762 170.475051,245.850792 170.727697,246.104762 C170.980343,246.358731 171.182456,246.66349 171.334044,247.019048 C171.485631,247.374605 171.561424,247.749204 171.561424,248.142857 C171.561424,248.549208 171.485631,248.926982 171.334044,249.27619 C171.182456,249.625399 170.980343,249.926983 170.727697,250.180952 C170.475051,250.434922 170.171881,250.63492 169.818177,250.780952 C169.464473,250.926985 169.091827,251 168.700226,251 C168.295993,251 167.91703,250.926985 167.563326,250.780952 C167.209622,250.63492 166.903294,250.434922 166.644332,250.180952 C166.38537,249.926983 166.183257,249.625399 166.037985,249.27619 C165.892714,248.926982 165.82008,248.549208 165.82008,248.142857 Z" id="HIDETHISAD?" fill="#427FE0" fill-rule="nonzero"></path>
                <path d="M209.9,115.9 C211.501626,114.298374 214.098374,114.298374 215.7,115.9 L233.1,133.3 C234.701626,134.901626 234.701626,137.498374 233.1,139.1 C231.498374,140.701626 228.901626,140.701626 227.3,139.1 L209.9,121.7 C208.298374,120.098374 208.298374,117.501626 209.9,115.9 Z" id="Rectangle" fill="#427FE0"></path>
                <path d="M209.9,139.1 C208.298374,137.498374 208.298374,134.901626 209.9,133.3 L227.3,115.9 C228.901626,114.298374 231.498374,114.298374 233.1,115.9 C234.701626,117.501626 234.701626,120.098374 233.1,121.7 L215.7,139.1 C214.098374,140.701626 211.501626,140.701626 209.9,139.1 Z" id="Rectangle" fill="#427FE0"></path>
                <rect id="Rectangle" fill="#D8D8D8" x="40" y="313" width="207" height="16"></rect>
                <rect id="Rectangle" fill="#D8D8D8" x="40" y="342" width="207" height="16"></rect>
                <rect id="Rectangle" fill="#D8D8D8" x="40" y="372" width="207" height="16"></rect>
            </g>
        </g>
    </g>
</svg>