<?xml version="1.0" encoding="UTF-8"?>
<svg width="130px" height="424px" viewBox="0 0 130 424" version="1.1" xmlns="http://www.w3.org/2000/svg" xmlns:xlink="http://www.w3.org/1999/xlink">
    <!-- Generator: Sketch 63.1 (92452) - https://sketch.com -->
    <title>img_insufficient_website_traffic_mob</title>
    <desc>Created with Sketch.</desc>
    <g id="Page-1" stroke="none" stroke-width="1" fill="none" fill-rule="evenodd">
        <g id="FAQs---Why-Isn't-My-Website-Converting---Mobile" transform="translate(-121.000000, -1554.000000)">
            <g id="img_insufficient_website_traffic_mob" transform="translate(121.000000, 1554.000000)">
                <g id="Group-4" opacity="0.302780878" transform="translate(0.000000, 291.000000)">
                    <path d="M65,133 C29.1579167,133 0,103.166438 0,66.5 C0,29.8335625 29.1579167,0 65,0 C100.839375,0 130,29.8335625 130,66.5 C130,103.166438 100.839375,133 65,133" id="Fill-8" fill="#CCDEFB"></path>
                    <path d="M57.7005348,51.2604167 L55.0742721,51.2604167 C55.0742721,45.3185185 50.9510398,40.4849537 45.8823529,40.4849537 C40.8136661,40.4849537 36.6904337,45.3185185 36.6904337,51.2604167 L34.0641711,51.2604167 C34.0641711,43.6221528 39.3665954,37.40625 45.8823529,37.40625 C52.3981105,37.40625 57.7005348,43.6221528 57.7005348,51.2604167" id="Fill-10" fill="#34495E"></path>
                    <path d="M95.9358289,51.2604167 L93.3095663,51.2604167 C93.3095663,45.3185185 89.1863339,40.4849537 84.1176471,40.4849537 C79.0489602,40.4849537 74.9257279,45.3185185 74.9257279,51.2604167 L72.2994652,51.2604167 C72.2994652,43.6221528 77.6018895,37.40625 84.1176471,37.40625 C90.6334046,37.40625 95.9358289,43.6221528 95.9358289,51.2604167" id="Fill-12" fill="#34495E"></path>
                    <path d="M65.3462281,103.90625 C80.7048635,103.90625 93.1550802,91.4998179 93.1550802,76.1979167 L37.540107,76.1979167 C37.540107,91.4998179 49.9875927,103.90625 65.3462281,103.90625" id="Fill-14" fill="#34495E"></path>
                </g>
                <g id="Group-4" opacity="0.302780878" transform="translate(0.000000, 143.000000)">
                    <path d="M65,133 C29.1579167,133 0,103.166438 0,66.5 C0,29.8335625 29.1579167,0 65,0 C100.839375,0 130,29.8335625 130,66.5 C130,103.166438 100.839375,133 65,133" id="Fill-8" fill="#CCDEFB"></path>
                    <path d="M57.7005348,51.2604167 L55.0742721,51.2604167 C55.0742721,45.3185185 50.9510398,40.4849537 45.8823529,40.4849537 C40.8136661,40.4849537 36.6904337,45.3185185 36.6904337,51.2604167 L34.0641711,51.2604167 C34.0641711,43.6221528 39.3665954,37.40625 45.8823529,37.40625 C52.3981105,37.40625 57.7005348,43.6221528 57.7005348,51.2604167" id="Fill-10" fill="#34495E"></path>
                    <path d="M95.9358289,51.2604167 L93.3095663,51.2604167 C93.3095663,45.3185185 89.1863339,40.4849537 84.1176471,40.4849537 C79.0489602,40.4849537 74.9257279,45.3185185 74.9257279,51.2604167 L72.2994652,51.2604167 C72.2994652,43.6221528 77.6018895,37.40625 84.1176471,37.40625 C90.6334046,37.40625 95.9358289,43.6221528 95.9358289,51.2604167" id="Fill-12" fill="#34495E"></path>
                </g>
                <g id="Group-4">
                    <path d="M65,133 C29.1579167,133 0,103.166438 0,66.5 C0,29.8335625 29.1579167,0 65,0 C100.839375,0 130,29.8335625 130,66.5 C130,103.166438 100.839375,133 65,133" id="Fill-8" fill="#FF5254"></path>
                    <path d="M57.7005348,56.109375 L55.0742721,56.109375 C55.0742721,51.9500463 50.9510398,48.5665509 45.8823529,48.5665509 C40.8136661,48.5665509 36.6904337,51.9500463 36.6904337,56.109375 L34.0641711,56.109375 C34.0641711,50.7625903 39.3665954,46.4114583 45.8823529,46.4114583 C52.3981105,46.4114583 57.7005348,50.7625903 57.7005348,56.109375" id="Fill-10" fill="#34495E" transform="translate(45.882353, 51.260417) scale(1, -1) translate(-45.882353, -51.260417) "></path>
                    <path d="M95.9358289,56.109375 L93.3095663,56.109375 C93.3095663,51.9500463 89.1863339,48.5665509 84.1176471,48.5665509 C79.0489602,48.5665509 74.9257279,51.9500463 74.9257279,56.109375 L72.2994652,56.109375 C72.2994652,50.7625903 77.6018895,46.4114583 84.1176471,46.4114583 C90.6334046,46.4114583 95.9358289,50.7625903 95.9358289,56.109375" id="Fill-12" fill="#34495E" transform="translate(84.117647, 51.260417) scale(1, -1) translate(-84.117647, -51.260417) "></path>
                    <path d="M65.3462281,103.90625 C80.7048635,103.90625 93.1550802,91.4998179 93.1550802,76.1979167 L37.540107,76.1979167 C37.540107,91.4998179 49.9875927,103.90625 65.3462281,103.90625" id="Fill-14" fill="#34495E" transform="translate(65.347594, 90.052083) rotate(-180.000000) translate(-65.347594, -90.052083) "></path>
                </g>
                <rect id="Rectangle" fill="#34495E" opacity="0.302780878" x="29" y="228" width="72" height="8" rx="2"></rect>
            </g>
        </g>
    </g>
</svg>