<?xml version="1.0" encoding="UTF-8"?>
<svg width="313px" height="315px" viewBox="0 0 313 315" version="1.1" xmlns="http://www.w3.org/2000/svg" xmlns:xlink="http://www.w3.org/1999/xlink">
    <!-- Generator: Sketch 63.1 (92452) - https://sketch.com -->
    <title>img_too_many_choices</title>
    <desc>Created with Sketch.</desc>
    <defs>
        <polygon id="path-1" points="0.439887892 0.250987765 114.602399 0.250987765 114.602399 26.4744075 0.439887892 26.4744075"></polygon>
        <path d="M5.61775862,0.461 C4.83413793,0.4725 2.51844828,0.51 1.66913793,1.6815 L1.66913793,1.6815 C0.819310345,2.8535 -0.716896552,9.9795 1.01689655,12.0455 L1.01689655,12.0455 C2.75017241,14.1115 15.1665517,11.4055 14.5758621,9.287 L14.5758621,9.287 C13.9867241,7.1745 8.21224138,0.461 5.63948276,0.4605 L5.63948276,0.4605 C5.63172414,0.4605 5.625,0.4605 5.61775862,0.461" id="path-3"></path>
        <polygon id="path-5" points="0.0267915563 0.364117949 11.4227899 0.364117949 11.4227899 267.646633 0.0267915563 267.646633"></polygon>
        <polygon id="path-7" points="0.0267915563 0.364117949 5.19802831 0.364117949 5.19802831 267.646633 0.0267915563 267.646633"></polygon>
        <polygon id="path-9" points="0 0.0669189744 50.1792376 0.0669189744 50.1792376 40.5648113 0 40.5648113"></polygon>
    </defs>
    <g id="Page-1" stroke="none" stroke-width="1" fill="none" fill-rule="evenodd">
        <g id="FAQs---Why-Isn't-My-Website-Converting---Mobile" transform="translate(-31.000000, -6438.000000)">
            <g id="img_too_many_choices" transform="translate(31.000000, 6438.000000)">
                <g id="Group-22" transform="translate(56.000000, 112.000000)">
                    <g id="Group-3" transform="translate(0.000000, 175.976944)">
                        <mask id="mask-2" fill="white">
                            <use xlink:href="#path-1"></use>
                        </mask>
                        <g id="Clip-2"></g>
                        <path d="M114.602399,13.363087 C114.602399,20.604097 89.0460987,26.474667 57.5211435,26.474667 C25.9961883,26.474667 0.439887892,20.604097 0.439887892,13.363087 C0.439887892,6.12155785 25.9961883,0.250987765 57.5211435,0.250987765 C89.0460987,0.250987765 114.602399,6.12155785 114.602399,13.363087" id="Fill-1" fill="#DDDDDD" mask="url(#mask-2)"></path>
                    </g>
                    <path d="M83.9044126,111.44625 C83.9044126,111.44625 71.3291883,110.804116 68.7001749,114.679762 C67.2969686,116.74788 68.0828879,118.941103 69.707843,119.803858 C70.9192108,123.996158 72.3435605,128.348343 74.9333812,129.240686 C80.3084709,131.092337 84.9347713,129.240686 85.0214081,126.72406 C85.08587,124.831919 83.5021704,123.534153 81.5724395,125.714918 C80.1522152,127.319475 79.9469686,124.326309 79.9572825,124.244291 C79.9572825,124.244291 85.6448834,123.354543 86.0558924,118.933317 C85.2771928,113.823756 83.9044126,111.44625 83.9044126,111.44625" id="Fill-4" fill="#FFC88B"></path>
                    <path d="M72.3183946,83.2563533 C105.260996,92.6324464 112.395637,101.594812 86.6052108,120.104057 L81.5328341,111.059672 C97.6235516,103.231034 93.6423857,94.4711199 73.2652108,89.4508455 L72.3183946,83.2563533 Z" id="Fill-6" fill="#427FE0"></path>
                    <path d="M80.7488229,119.498467 C74.570796,114.355165 42.0278587,116.580053 33.9128812,119.517155 C33.5168274,129.067149 45.1761771,133.034157 58.6420067,133.199752 C72.1078363,133.364828 81.4682175,127.083126 80.7488229,119.498467" id="Fill-8" fill="#22416D"></path>
                    <path d="M33.9129843,119.517259 C42.9912803,122.100331 73.9654731,123.204988 80.748926,119.498571 C80.9423117,102.721584 73.8783206,88.2219139 71.9398229,81.5887771 C63.1044193,78.7227927 43.470361,76.4709107 38.2969081,80.4389572 C34.997491,96.2166659 34.9356076,104.613725 33.9129843,119.517259" id="Fill-10" fill="#427FE0"></path>
                    <path d="M82.4328767,179.16929 C86.6022713,178.657971 102.021038,184.684792 102.20772,187.421 C102.484648,191.490791 80.1761951,191.854684 78.2892668,185.91092 C77.8354552,184.48234 80.3241996,179.427805 82.4328767,179.16929" id="Fill-12" fill="#2A343E"></path>
                    <path d="M38.2294036,82.8883071 C51.0609283,84.1424673 64.7459283,82.7497058 71.4241794,80.9260863 C97.8690224,56.195356 84.4037085,24.3746755 75.9803453,17.3792027 C67.5564664,10.3837298 29.7183722,15.8971549 27.4121839,22.2748916 C25.1059955,28.6526283 32.9094933,70.5735548 38.2294036,82.8883071" id="Fill-14" fill="#FFC88B"></path>
                    <path d="M34.560852,21.8974496 C34.3169283,19.4436354 62.5316368,24.2225255 66.9346413,8.59068568 C71.3376457,-7.04115418 46.7781839,3.25116106 32.0684978,11.9757761 C25.7032735,10.6697053 10.7161435,13.4791072 28.0502018,47.2282665 C32.1788565,36.8554899 35.3070628,29.3974935 34.560852,21.8974496" id="Fill-16" fill="#230C02"></path>
                    <path d="M75.0366233,33.5575573 C75.2449641,35.6521502 76.2938879,37.2613789 77.379426,37.1518475 C78.4649641,37.0423161 79.1761076,35.2555532 78.9682825,33.1609603 C78.759426,31.0668866 77.7105022,29.4576579 76.6249641,29.5671893 C75.539426,29.6762016 74.8282825,31.4629645 75.0366233,33.5575573" id="Fill-18" fill="#2A0000"></path>
                    <path d="M48.0414821,36.6019585 C48.2441502,38.641007 49.2652265,40.2071498 50.3218857,40.1007331 C51.3785448,39.9943164 52.0711233,38.2553112 51.8679395,36.2162627 C51.6652713,34.1777333 50.6441951,32.6110713 49.5875359,32.7174881 C48.5308767,32.8239048 47.8382982,34.5634291 48.0414821,36.6019585" id="Fill-20" fill="#2A0000"></path>
                </g>
                <g id="Group-25" transform="translate(120.000000, 147.000000)">
                    <mask id="mask-4" fill="white">
                        <use xlink:href="#path-3"></use>
                    </mask>
                    <g id="Clip-24"></g>
                    <path d="M5.61775862,0.461 C4.83413793,0.4725 2.51844828,0.51 1.66913793,1.6815 L1.66913793,1.6815 C0.819310345,2.8535 -0.716896552,9.9795 1.01689655,12.0455 L1.01689655,12.0455 C2.75017241,14.1115 15.1665517,11.4055 14.5758621,9.287 L14.5758621,9.287 C13.9867241,7.1745 8.21224138,0.461 5.63948276,0.4605 L5.63948276,0.4605 C5.63172414,0.4605 5.625,0.4605 5.61775862,0.461" id="Fill-23" mask="url(#mask-4)"></path>
                </g>
                <g id="Group-101">
                    <path d="M79.6690197,142.749671 C82.1211985,144.197855 84.6904932,145.306266 87.3701671,146.268096 C87.844331,146.438502 88.3210859,146.608389 88.7993955,146.77724 C87.6090627,150.45623 85.9792863,154.446507 84.1541439,158.999794 C80.3629055,151.670302 78.1112747,145.804532 76.9727631,141.124348 C77.8609783,141.676481 78.7616306,142.213594 79.6690197,142.749671" id="Fill-26" fill="#2D1906"></path>
                    <path d="M87.9449677,157.584033 C87.9449677,157.584033 82.7177641,150.36331 77.1511316,156.240992 C70.7128667,163.040623 80.1096035,179.700443 89.4581465,172.715905 C88.679274,166.680248 87.9449677,157.584033 87.9449677,157.584033" id="Fill-28" fill="#FFC88B"></path>
                    <path d="M86.4085212,160.635321 C86.4085212,160.635321 81.3279715,156.125023 79.7137414,161.24909 C77.8098308,167.290444 82.808503,171.675397 87.4542728,169.256577 C87.0179384,165.879551 86.4085212,160.635321 86.4085212,160.635321" id="Fill-30" fill="#FF9A7C"></path>
                    <path d="M123.341744,114.986584 C123.898822,116.260737 123.909186,118.047143 123.228255,120.448353 C121.010308,128.265235 113.004971,133.183158 92.4500949,132.972871 C116.215294,128.325835 120.72581,122.538276 123.341744,114.986584" id="Fill-32" fill="#2D1906"></path>
                    <path d="M138.268165,113.16791 C134.473817,107.334254 122.762227,107.373618 120.636522,121.242731 C119.558641,128.275438 112.831732,131.981362 117.246898,134.041244 C124.023555,137.202803 146.076064,125.172408 138.268165,113.16791" id="Fill-34" fill="#230C02"></path>
                    <path d="M138.756787,122.997334 C134.842732,130.753616 122.110265,136.31017 117.246846,134.041554 C114.95635,132.973026 115.6663,131.45958 117.028679,129.270211 C116.403197,132.868918 128.973464,133.035698 138.756787,122.997334" id="Fill-36" fill="#2D1906"></path>
                    <path d="M126.911809,156.291181 L127.169879,156.265284 C129.51427,156.022884 131.713561,155.400827 133.772417,154.413617 C134.064689,154.914991 134.270937,155.350068 134.359033,155.676894 C134.950831,157.871961 122.511154,160.674581 120.774107,158.534935 C120.277142,157.922202 120.049129,156.879053 119.996271,155.674822 C122.211109,156.416007 124.516116,156.622668 126.911809,156.291181" id="Fill-38" fill="#E0736A"></path>
                    <path d="M135.89294,137.903535 C130.589559,136.984176 128.266415,134.024617 126.248498,133.753212 C125.817346,133.695202 125.521447,134.170161 125.748424,134.502166 C127.774114,137.465351 132.611622,138.618305 135.890349,138.310643 C136.432917,138.259884 136.431362,137.996766 135.89294,137.903535" id="Fill-40" fill="#230C02"></path>
                    <path d="M125.533521,171.945508 C127.623988,171.163405 127.283005,179.925544 121.947495,181.902036 C116.611985,183.878528 121.582155,173.424251 125.533521,171.945508" id="Fill-42" fill="#D83536"></path>
                    <path d="M108.166841,133.407368 C103.676016,133.436383 99.2411584,136.596906 98.5011518,142.139475 C98.4187561,142.755316 98.7395293,143.072819 98.9716882,142.43885 C99.7640343,140.274342 101.117086,138.562004 103.046389,137.291993 C104.827483,136.119357 107.004491,135.667706 108.713036,134.417896 C109.106877,134.129916 108.641523,133.40427 108.166841,133.407368" id="Fill-44" fill="#230C02"></path>
                    <path d="M132.086104,238.182758 C134.822781,247.780348 141.459521,274.13565 145.793845,291.873322 C142.10314,293.12883 135.797019,293.896948 135.797019,293.896948 C134.732612,294.175086 126.452104,253.15303 124.078693,241.167178 C127.414941,238.666004 132.086104,238.182758 132.086104,238.182758" id="Fill-46" fill="#22416D"></path>
                    <path d="M97.9521581,291.454561 C93.7624147,290.944381 78.2678783,296.957766 78.0808038,299.687873 C77.8020058,303.748591 100.219853,304.111673 102.115991,298.181678 C102.572017,296.755766 100.070608,291.712499 97.9521581,291.454561" id="Fill-48" fill="#2A343E"></path>
                    <path d="M94.5837806,238.481148 C93.5810406,255.708641 92.9446763,280.128369 91.9035886,293.367656 C95.2227359,295.026646 102.013385,296.272312 102.013385,296.272312 C103.30166,285.346702 103.252948,252.296394 102.849261,241.14962 C99.5124942,238.648964 94.5837806,238.481148 94.5837806,238.481148" id="Fill-50" fill="#22416D"></path>
                    <path d="M129.151884,191.918387 C122.236346,193.776787 106.917483,194.337726 92.4417517,191.903885 L91.6504421,195.361192 L111.381879,201.233695 L117.740339,195.554905 L123.016773,201.368879 L130.185717,194.474464 L129.151884,191.918387 Z" id="Fill-52" fill="#FFFFEF"></path>
                    <path d="M121.828617,196.319449 C120.70617,194.456906 113.294185,194.700859 113.294185,196.723967 C113.294185,198.747075 115.68366,201.578183 118.073135,201.174183 C120.463128,200.769665 122.682112,197.735003 121.828617,196.319449" id="Fill-54" fill="#FF5254"></path>
                    <path d="M117.776822,202.221216 C119.804067,202.221216 123.342418,220.275354 122.745956,222.643416 C122.149494,225.010959 119.016384,227.971036 117.379353,227.971036 C115.741803,227.971036 113.006163,224.418944 112.807687,221.459385 C112.608694,218.499826 115.987954,202.221216 117.776822,202.221216" id="Fill-56" fill="#FF5254"></path>
                    <path d="M94.4509629,197.107974 C69.4835126,190.229097 57.0541997,179.169338 66.6836136,153.84061 L57.0541997,145.481954 C40.5817974,180.689 58.5746334,199.43201 93.0393536,202.978405 L94.4509629,197.107974 Z" id="Fill-58" fill="#427FE0"></path>
                    <path d="M57.6341306,151.145878 C54.1973492,146.643868 58.9959916,138.710966 60.8511902,134.790612 C63.2318558,129.757186 66.4255959,127.103735 71.3574187,127.832489 C77.7236522,128.773602 79.5291025,132.269237 78.3408425,134.952212 C77.2588161,137.39434 75.1009816,137.036437 72.6342929,135.132976 C70.1681224,133.229514 67.4754932,134.079986 66.8261737,135.93994 C70.2536273,135.945637 74.9232349,138.480996 75.4248641,144.349355 C75.7300909,147.919576 71.6046058,153.51653 70.0002217,151.606853 C69.4985925,154.179504 63.6215512,158.989176 57.6341306,151.145878" id="Fill-60" fill="#FFC88B"></path>
                    <path d="M68.7979182,147.413747 C70.0436997,148.052378 70.4131848,149.537337 70.2836318,150.834281 C70.2665308,151.004168 70.0162344,151.034209 69.9799596,150.857588 C69.7389911,149.675111 69.0658338,148.692045 68.5673139,147.618337 C68.4958007,147.465542 68.6616285,147.343824 68.7979182,147.413747" id="Fill-62" fill="#DD8B66"></path>
                    <path d="M73.0061099,141.780019 C74.8167424,143.557619 75.5526033,145.877511 74.862345,148.335696 C74.8058599,148.535624 74.5078881,148.470363 74.5130702,148.271988 C74.593393,144.966439 71.957249,139.853768 67.9115685,140.972019 C67.739004,141.01967 67.6410619,140.784004 67.7623235,140.673681 C69.4812325,139.113101 71.6204113,140.419886 73.0061099,141.780019" id="Fill-64" fill="#DD8B66"></path>
                    <g id="Group-68" transform="translate(224.903974, 0.000000)">
                        <mask id="mask-6" fill="white">
                            <use xlink:href="#path-5"></use>
                        </mask>
                        <g id="Clip-67"></g>
                        <polygon id="Fill-66" fill="#427FE0" mask="url(#mask-6)" points="1.9804505 267.646633 9.79456805 267.646633 11.4227899 0.363858974 0.0267915563 0.363858974"></polygon>
                    </g>
                    <g id="Group-71" transform="translate(224.903974, 0.000000)">
                        <mask id="mask-8" fill="white">
                            <use xlink:href="#path-7"></use>
                        </mask>
                        <g id="Clip-70"></g>
                        <polygon id="Fill-69" fill="#22416D" mask="url(#mask-8)" points="1.9804505 267.646633 5.19802831 267.646633 5.19802831 0.363858974 0.0267915563 0.363858974"></polygon>
                    </g>
                    <polygon id="Fill-72" fill="#DBDBDB" points="141.6325 92.1816641 146.958682 95.1189513 244.995568 56.2292897 240.146659 54.0798026 164.448334 62.5581051"></polygon>
                    <polygon id="Fill-74" fill="#F4F4F4" points="146.95863 95.1191067 175.497079 107.757055 247.36219 84.6099272 244.995516 56.2294451 170.76425 65.7773118"></polygon>
                    <polygon id="Fill-76" fill="#DBDBDB" points="272.733068 90.631081 265.096697 89.8106503 203.549704 111.570712 202.929923 141.26264 210.763732 144.966491"></polygon>
                    <polygon id="Fill-78" fill="#F4F4F4" points="290.303665 105.640717 272.733172 90.631081 209.2035 114.21743 210.763836 144.966491 277.207414 129.090327"></polygon>
                    <polygon id="Fill-80" fill="#DBDBDB" points="175.018458 153.278843 182.675558 150.099674 248.950199 151.028356 249.803175 178.327361 247.20227 180.829571"></polygon>
                    <polygon id="Fill-82" fill="#F4F4F4" points="157.460247 176.487659 175.018303 153.278895 243.729576 153.430136 247.202632 180.829623 180.779783 190.472274"></polygon>
                    <polygon id="Fill-84" fill="#DBDBDB" points="312.76696 51.4126774 308.314483 54.0536979 210.198829 8.82538 213.465119 8.08315949 292.251987 18.7062877"></polygon>
                    <polygon id="Fill-86" fill="#F4F4F4" points="308.314587 54.0537497 278.324108 64.1532318 208.245274 36.123401 210.198933 8.82543179 288.064938 21.7948677"></polygon>
                    <path d="M99.553122,61.4347779 C99.553122,47.1942959 87.108781,35.6502549 71.7583075,35.6502549 C56.4078339,35.6502549 43.9640111,47.1942959 43.9640111,61.4347779 C43.9640111,75.3898703 55.9160508,86.7479677 70.8410724,87.1980651 L79.2770442,99.4838087 L80.0092776,86.0637574 C91.3311717,82.8032703 99.553122,73.0098959 99.553122,61.4347779" id="Fill-88" fill="#F4F4F4"></path>
                    <path d="M63.0087656,57.3091092 L65.697249,57.3091092 C66.8041497,57.3091092 67.7768334,56.5404733 67.993446,55.4558887 C68.3354659,53.7471759 69.3257689,51.4744169 72.1754162,51.4744169 C75.1204146,51.4744169 77.070446,52.908099 76.6600222,55.9215246 C76.2983103,58.5775656 68.2986728,60.5421451 66.6569775,68.1275041 C66.3413864,69.5876015 67.4607242,70.966899 68.9557656,70.966899 L72.2350106,70.966899 C73.375595,70.966899 74.3674526,70.1500938 74.5483086,69.0240733 C75.6562457,62.1130836 82.6914907,62.1327656 83.589552,57.0822477 C84.8726447,49.8656682 80.9357887,46.6647451 73.0672589,46.1359195 C63.5803533,45.4988426 61.2323351,51.1077092 60.6851033,54.6137041 C60.4633086,56.0323656 61.5728003,57.3091092 63.0087656,57.3091092" id="Fill-90" fill="#FF5254"></path>
                    <path d="M71.7313604,78.4547282 L68.8568389,78.4547282 C67.3265591,78.4547282 66.0859598,77.214759 66.0859598,75.6852564 C66.0859598,74.1562718 67.3265591,72.9163026 68.8568389,72.9163026 L71.7313604,72.9163026 C73.2616402,72.9163026 74.5022396,74.1562718 74.5022396,75.6852564 C74.5022396,77.214759 73.2616402,78.4547282 71.7313604,78.4547282" id="Fill-92" fill="#FF5254"></path>
                    <g id="Group-96" transform="translate(0.000000, 103.071795)">
                        <mask id="mask-10" fill="white">
                            <use xlink:href="#path-9"></use>
                        </mask>
                        <g id="Clip-95"></g>
                        <path d="M50.1792376,31.6617908 L42.3951763,27.1007344 C43.2082508,24.9797344 43.6549495,22.6966164 43.6549495,20.3161241 C43.6549495,9.13309333 33.8825091,0.0669189744 21.8273452,0.0669189744 C9.77218129,0.0669189744 -0.00025910596,9.13309333 -0.00025910596,20.3161241 C-0.00025910596,31.4991549 9.77218129,40.5648113 21.8273452,40.5648113 C29.1263601,40.5648113 35.5832806,37.2385446 39.5465654,32.13416 L50.1792376,31.6617908 Z" id="Fill-94" fill="#F4F4F4" mask="url(#mask-10)"></path>
                    </g>
                    <path d="M16.0430637,119.759377 L17.9987955,119.759377 C18.8040969,119.759377 19.5114561,119.199993 19.6695108,118.410639 C19.9182525,117.16808 20.6385671,115.514788 22.7119329,115.514788 C24.854221,115.514788 26.2730853,116.557418 25.9745952,118.749895 C25.7108253,120.681844 19.8913055,122.111383 18.6973452,127.629608 C18.4672591,128.691921 19.2818882,129.695188 20.3696151,129.695188 L22.7549445,129.695188 C23.58512,129.695188 24.306471,129.100583 24.4380969,128.281706 C25.2439164,123.253977 30.3622955,123.26848 31.0157608,119.594152 C31.9490604,114.344224 29.0849031,112.015526 23.3602161,111.631208 C16.4591879,111.167644 14.7506432,115.248044 14.3526565,117.798424 C14.1914925,118.830695 14.9983485,119.759377 16.0430637,119.759377" id="Fill-97" fill="#FF5254"></path>
                    <path d="M22.3886205,135.142299 L20.2976354,135.142299 C19.1845162,135.142299 18.2817911,134.24055 18.2817911,133.127478 C18.2817911,132.014925 19.1845162,131.113176 20.2976354,131.113176 L22.3886205,131.113176 C23.5017397,131.113176 24.4044649,132.014925 24.4044649,133.127478 C24.4044649,134.24055 23.5017397,135.142299 22.3886205,135.142299" id="Fill-99" fill="#FF5254"></path>
                </g>
            </g>
        </g>
    </g>
</svg>