<?xml version="1.0" encoding="UTF-8"?>
<svg width="530px" height="377px" viewBox="0 0 530 377" version="1.1" xmlns="http://www.w3.org/2000/svg" xmlns:xlink="http://www.w3.org/1999/xlink">
    <!-- Generator: Sketch 63.1 (92452) - https://sketch.com -->
    <title>img_too_many_options</title>
    <desc>Created with Sketch.</desc>
    <defs>
        <rect id="path-1" x="0" y="0" width="229" height="77" rx="4"></rect>
        <filter x="-14.4%" y="-27.3%" width="128.8%" height="185.7%" filterUnits="objectBoundingBox" id="filter-2">
            <feOffset dx="0" dy="12" in="SourceAlpha" result="shadowOffsetOuter1"></feOffset>
            <feGaussianBlur stdDeviation="9" in="shadowOffsetOuter1" result="shadowBlurOuter1"></feGaussianBlur>
            <feColorMatrix values="0 0 0 0 0   0 0 0 0 0   0 0 0 0 0  0 0 0 0.25 0" type="matrix" in="shadowBlurOuter1"></feColorMatrix>
        </filter>
        <rect id="path-3" x="0" y="0" width="227" height="76" rx="4"></rect>
        <filter x="-14.5%" y="-27.6%" width="129.1%" height="186.8%" filterUnits="objectBoundingBox" id="filter-4">
            <feOffset dx="0" dy="12" in="SourceAlpha" result="shadowOffsetOuter1"></feOffset>
            <feGaussianBlur stdDeviation="9" in="shadowOffsetOuter1" result="shadowBlurOuter1"></feGaussianBlur>
            <feColorMatrix values="0 0 0 0 0   0 0 0 0 0   0 0 0 0 0  0 0 0 0.25 0" type="matrix" in="shadowBlurOuter1"></feColorMatrix>
        </filter>
        <rect id="path-5" x="0" y="0" width="227" height="77" rx="4"></rect>
        <filter x="-14.5%" y="-27.3%" width="129.1%" height="185.7%" filterUnits="objectBoundingBox" id="filter-6">
            <feOffset dx="0" dy="12" in="SourceAlpha" result="shadowOffsetOuter1"></feOffset>
            <feGaussianBlur stdDeviation="9" in="shadowOffsetOuter1" result="shadowBlurOuter1"></feGaussianBlur>
            <feColorMatrix values="0 0 0 0 0   0 0 0 0 0   0 0 0 0 0  0 0 0 0.25 0" type="matrix" in="shadowBlurOuter1"></feColorMatrix>
        </filter>
        <rect id="path-7" x="0" y="0" width="227" height="76" rx="4"></rect>
        <filter x="-14.5%" y="-27.6%" width="129.1%" height="186.8%" filterUnits="objectBoundingBox" id="filter-8">
            <feOffset dx="0" dy="12" in="SourceAlpha" result="shadowOffsetOuter1"></feOffset>
            <feGaussianBlur stdDeviation="9" in="shadowOffsetOuter1" result="shadowBlurOuter1"></feGaussianBlur>
            <feColorMatrix values="0 0 0 0 0   0 0 0 0 0   0 0 0 0 0  0 0 0 0.25 0" type="matrix" in="shadowBlurOuter1"></feColorMatrix>
        </filter>
        <rect id="path-9" x="0" y="0" width="228" height="76" rx="4"></rect>
        <filter x="-14.5%" y="-27.6%" width="128.9%" height="186.8%" filterUnits="objectBoundingBox" id="filter-10">
            <feOffset dx="0" dy="12" in="SourceAlpha" result="shadowOffsetOuter1"></feOffset>
            <feGaussianBlur stdDeviation="9" in="shadowOffsetOuter1" result="shadowBlurOuter1"></feGaussianBlur>
            <feColorMatrix values="0 0 0 0 0   0 0 0 0 0   0 0 0 0 0  0 0 0 0.25 0" type="matrix" in="shadowBlurOuter1"></feColorMatrix>
        </filter>
        <rect id="path-11" x="0" y="0" width="227" height="77" rx="4"></rect>
        <filter x="-14.5%" y="-27.3%" width="129.1%" height="185.7%" filterUnits="objectBoundingBox" id="filter-12">
            <feOffset dx="0" dy="12" in="SourceAlpha" result="shadowOffsetOuter1"></feOffset>
            <feGaussianBlur stdDeviation="9" in="shadowOffsetOuter1" result="shadowBlurOuter1"></feGaussianBlur>
            <feColorMatrix values="0 0 0 0 0   0 0 0 0 0   0 0 0 0 0  0 0 0 0.25 0" type="matrix" in="shadowBlurOuter1"></feColorMatrix>
        </filter>
        <rect id="path-13" x="97" y="118" width="226" height="75" rx="4"></rect>
        <filter x="-14.6%" y="-28.0%" width="129.2%" height="188.0%" filterUnits="objectBoundingBox" id="filter-14">
            <feOffset dx="0" dy="12" in="SourceAlpha" result="shadowOffsetOuter1"></feOffset>
            <feGaussianBlur stdDeviation="9" in="shadowOffsetOuter1" result="shadowBlurOuter1"></feGaussianBlur>
            <feColorMatrix values="0 0 0 0 0   0 0 0 0 0   0 0 0 0 0  0 0 0 0.25 0" type="matrix" in="shadowBlurOuter1"></feColorMatrix>
        </filter>
    </defs>
    <g id="Page-1" stroke="none" stroke-width="1" fill="none" fill-rule="evenodd">
        <g id="FAQs---Why-Isn't-My-Website-Converting" transform="translate(-797.000000, -3353.000000)">
            <g id="img_too_many_options" transform="translate(815.000000, 3359.000000)">
                <g id="btn---claim-your-copy-5" transform="translate(0.000000, 58.000000)">
                    <g id="btn---claim-your">
                        <g id="Rectangle-4">
                            <use fill="black" fill-opacity="1" filter="url(#filter-2)" xlink:href="#path-1"></use>
                            <use fill="#427FE0" fill-rule="evenodd" xlink:href="#path-1"></use>
                        </g>
                        <path d="M77.495,41.6725 C77.5550003,41.6725 77.6149997,41.6837499 77.675,41.70625 C77.7350003,41.7287501 77.7924997,41.7674997 77.8475,41.8225 L78.8525,42.88 C78.4124978,43.4550029 77.8612533,43.8887485 77.19875,44.18125 C76.5362467,44.4737515 75.7525045,44.62 74.8475,44.62 C74.0174958,44.62 73.2737533,44.4787514 72.61625,44.19625 C71.9587467,43.9137486 71.4012523,43.5237525 70.94375,43.02625 C70.4862477,42.5287475 70.1350012,41.9387534 69.89,41.25625 C69.6449988,40.5737466 69.5225,39.832504 69.5225,39.0325 C69.5225,38.2174959 69.6624986,37.4687534 69.9425,36.78625 C70.2225014,36.1037466 70.6137475,35.5150025 71.11625,35.02 C71.6187525,34.5249975 72.2199965,34.1400014 72.92,33.865 C73.6200035,33.5899986 74.3924958,33.4525 75.2375,33.4525 C75.647502,33.4525 76.0337482,33.4887496 76.39625,33.56125 C76.7587518,33.6337504 77.0974984,33.7337494 77.4125,33.86125 C77.7275016,33.9887506 78.0174987,34.1412491 78.2825,34.31875 C78.5475013,34.4962509 78.782499,34.6924989 78.9875,34.9075 L78.1325,36.055 C78.0774997,36.1250004 78.0125004,36.1887497 77.9375,36.24625 C77.8624996,36.3037503 77.7575007,36.3325 77.6225,36.3325 C77.5324995,36.3325 77.4475004,36.3125002 77.3675,36.2725 C77.2874996,36.2324998 77.2025004,36.1837503 77.1125,36.12625 L76.81625,35.93875 L76.81625,35.93875 C76.7087495,35.8712497 76.5812507,35.8087503 76.43375,35.75125 C76.2862493,35.6937497 76.113751,35.6450002 75.91625,35.605 C75.718749,35.5649998 75.4875013,35.545 75.2225,35.545 C74.7624977,35.545 74.3425019,35.6262492 73.9625,35.78875 C73.5824981,35.9512508 73.2562514,36.1837485 72.98375,36.48625 C72.7112486,36.7887515 72.4987508,37.1549979 72.34625,37.585 C72.1937492,38.0150022 72.1175,38.4974973 72.1175,39.0325 C72.1175,39.5925028 72.1937492,40.0899978 72.34625,40.525 C72.4987508,40.9600022 72.7062487,41.3262485 72.96875,41.62375 C73.2312513,41.9212515 73.5374982,42.1474992 73.8875,42.3025 C74.2375017,42.4575008 74.612498,42.535 75.0125,42.535 C75.2425011,42.535 75.452499,42.5237501 75.6425,42.50125 C75.8325009,42.4787499 76.0087492,42.4400003 76.17125,42.385 C76.3337508,42.3299997 76.4887493,42.2587504 76.63625,42.17125 C76.7837507,42.0837496 76.9324992,41.9750007 77.0825,41.845 C77.1425003,41.7949998 77.2074996,41.7537502 77.2775,41.72125 C77.3475003,41.6887498 77.4199996,41.6725 77.495,41.6725 Z M90.5225,33.5725 L90.5225,35.5825 L87.4475,35.5825 L87.4475,44.5 L84.9125,44.5 L84.9125,35.5825 L81.8375,35.5825 L81.8375,33.5725 L90.5225,33.5725 Z M103.1225,44.5 L101.1575,44.5 C100.937499,44.5 100.756251,44.4487505 100.61375,44.34625 C100.471249,44.2437495 100.3725,44.1125008 100.3175,43.9525 L99.6725,42.0475 L95.5175,42.0475 L94.8725,43.9525 C94.8224997,44.0925007 94.7250007,44.2187494 94.58,44.33125 C94.4349993,44.4437506 94.257501,44.5 94.0475,44.5 L92.0675,44.5 L96.2975,33.5725 L98.8925,33.5725 L103.1225,44.5 Z M96.1025,40.3225 L99.0875,40.3225 L97.85375,36.65875 L97.85375,36.65875 C97.7662496,36.4012487 97.6800004,36.1225015 97.595,35.8225 C97.5149996,36.1275015 97.4325004,36.4099987 97.3475,36.67 L97.22375,37.0337501 C97.1837501,37.1462499 97.1450002,37.2499995 97.1075,37.345 L96.1025,40.3225 Z M121.6025,44.5 L119.0525,44.5 L119.0525,39.88 L114.6125,39.88 L114.6125,44.5 L112.0625,44.5 L112.0625,33.5725 L114.6125,33.5725 L114.6125,38.14 L119.0525,38.14 L119.0525,33.5725 L121.6025,33.5725 L121.6025,44.5 Z M133.0175,33.5725 L133.0175,35.5225 L128.5325,35.5225 L128.5325,38.0725 L131.9675,38.0725 L131.9675,39.9475 L128.5325,39.9475 L128.5325,42.55 L133.0175,42.55 L133.0175,44.5 L125.9825,44.5 L125.9825,33.5725 L133.0175,33.5725 Z M139.5725,40.4575 L139.5725,44.5 L137.0375,44.5 L137.0375,33.5725 L140.5925,33.5725 C141.382504,33.5725 142.056247,33.6537492 142.61375,33.81625 C143.171253,33.9787508 143.626248,34.2049986 143.97875,34.495 C144.331252,34.7850015 144.587499,35.127498 144.7475,35.5225 C144.907501,35.917502 144.9875,36.3474977 144.9875,36.8125 C144.9875,37.1675018 144.94,37.5024984 144.845,37.8175 C144.75,38.1325016 144.608751,38.4237487 144.42125,38.69125 C144.233749,38.9587513 144.003751,39.197499 143.73125,39.4075 C143.458749,39.6175011 143.145002,39.7899993 142.79,39.925 C142.960001,40.0100004 143.118749,40.1149994 143.26625,40.24 C143.413751,40.3650006 143.542499,40.5174991 143.6525,40.6975 L145.9775,44.5 L143.6825,44.5 C143.257498,44.5 142.952501,44.3400016 142.7675,44.02 L140.9525,40.8475 C140.8725,40.7074993 140.778751,40.6075003 140.67125,40.5475 C140.563749,40.4874997 140.412501,40.4575 140.2175,40.4575 L139.5725,40.4575 Z M139.5725,38.71 L140.5925,38.71 C140.937502,38.71 141.231249,38.6662504 141.47375,38.57875 C141.716251,38.4912496 141.914999,38.3700008 142.07,38.215 C142.225001,38.0599992 142.3375,37.878751 142.4075,37.67125 C142.4775,37.463749 142.5125,37.2400012 142.5125,37 C142.5125,36.5199976 142.356252,36.1450014 142.04375,35.875 C141.731248,35.6049987 141.247503,35.47 140.5925,35.47 L139.5725,35.47 L139.5725,38.71 Z M156.6275,33.5725 L156.6275,35.5225 L152.1425,35.5225 L152.1425,38.0725 L155.5775,38.0725 L155.5775,39.9475 L152.1425,39.9475 L152.1425,42.55 L156.6275,42.55 L156.6275,44.5 L149.5925,44.5 L149.5925,33.5725 L156.6275,33.5725 Z" id="CTAHERE" fill="#FFFFFF" fill-rule="nonzero"></path>
                    </g>
                </g>
                <g id="btn---claim-your-copy-5" transform="translate(142.000000, 0.000000)">
                    <g id="btn---claim-your">
                        <g id="Rectangle-4">
                            <use fill="black" fill-opacity="1" filter="url(#filter-4)" xlink:href="#path-3"></use>
                            <use fill="#427FE0" fill-rule="evenodd" xlink:href="#path-3"></use>
                        </g>
                        <path d="M76.495,41.1725 C76.5550003,41.1725 76.6149997,41.1837499 76.675,41.20625 C76.7350003,41.2287501 76.7924997,41.2674997 76.8475,41.3225 L77.8525,42.38 C77.4124978,42.9550029 76.8612533,43.3887485 76.19875,43.68125 C75.5362467,43.9737515 74.7525045,44.12 73.8475,44.12 C73.0174959,44.12 72.2737533,43.9787514 71.61625,43.69625 C70.9587467,43.4137486 70.4012523,43.0237525 69.94375,42.52625 C69.4862477,42.0287475 69.1350012,41.4387534 68.89,40.75625 C68.6449988,40.0737466 68.5225,39.332504 68.5225,38.5325 C68.5225,37.7174959 68.6624986,36.9687534 68.9425,36.28625 C69.2225014,35.6037466 69.6137475,35.0150025 70.11625,34.52 C70.6187525,34.0249975 71.2199965,33.6400014 71.92,33.365 C72.6200035,33.0899986 73.3924958,32.9525 74.2375,32.9525 C74.6475021,32.9525 75.0337482,32.9887496 75.39625,33.06125 C75.7587518,33.1337504 76.0974984,33.2337494 76.4125,33.36125 C76.7275016,33.4887506 77.0174987,33.6412491 77.2825,33.81875 C77.5475013,33.9962509 77.782499,34.1924989 77.9875,34.4075 L77.1325,35.555 C77.0774997,35.6250004 77.0125004,35.6887497 76.9375,35.74625 C76.8624996,35.8037503 76.7575007,35.8325 76.6225,35.8325 C76.5324996,35.8325 76.4475004,35.8125002 76.3675,35.7725 C76.2874996,35.7324998 76.2025005,35.6837503 76.1125,35.62625 L75.81625,35.43875 L75.81625,35.43875 C75.7087495,35.3712497 75.5812507,35.3087503 75.43375,35.25125 C75.2862493,35.1937497 75.113751,35.1450002 74.91625,35.105 C74.718749,35.0649998 74.4875013,35.045 74.2225,35.045 C73.7624977,35.045 73.3425019,35.1262492 72.9625,35.28875 C72.5824981,35.4512508 72.2562514,35.6837485 71.98375,35.98625 C71.7112486,36.2887515 71.4987508,36.6549979 71.34625,37.085 C71.1937492,37.5150022 71.1175,37.9974973 71.1175,38.5325 C71.1175,39.0925028 71.1937492,39.5899978 71.34625,40.025 C71.4987508,40.4600022 71.7062487,40.8262485 71.96875,41.12375 C72.2312513,41.4212515 72.5374983,41.6474992 72.8875,41.8025 C73.2375018,41.9575008 73.612498,42.035 74.0125,42.035 C74.2425012,42.035 74.4524991,42.0237501 74.6425,42.00125 C74.832501,41.9787499 75.0087492,41.9400003 75.17125,41.885 C75.3337508,41.8299997 75.4887493,41.7587504 75.63625,41.67125 C75.7837507,41.5837496 75.9324993,41.4750006 76.0825,41.345 C76.1425003,41.2949998 76.2074997,41.2537502 76.2775,41.22125 C76.3475004,41.1887498 76.4199996,41.1725 76.495,41.1725 Z M89.5225,33.0725 L89.5225,35.0825 L86.4475,35.0825 L86.4475,44 L83.9125,44 L83.9125,35.0825 L80.8375,35.0825 L80.8375,33.0725 L89.5225,33.0725 Z M102.1225,44 L100.1575,44 C99.9374989,44 99.7562507,43.9487505 99.61375,43.84625 C99.4712493,43.7437495 99.3725003,43.6125008 99.3175,43.4525 L98.6725,41.5475 L94.5175,41.5475 L93.8725,43.4525 C93.8224998,43.5925007 93.7250007,43.7187494 93.58,43.83125 C93.4349993,43.9437506 93.2575011,44 93.0475,44 L91.0675,44 L95.2975,33.0725 L97.8925,33.0725 L102.1225,44 Z M95.1025,39.8225 L98.0875,39.8225 L96.85375,36.15875 L96.85375,36.15875 C96.7662496,35.9012487 96.6800004,35.6225015 96.595,35.3225 C96.5149996,35.6275015 96.4325004,35.9099987 96.3475,36.17 L96.22375,36.5337501 C96.1837501,36.6462499 96.1450002,36.7499995 96.1075,36.845 L95.1025,39.8225 Z M120.6025,44 L118.0525,44 L118.0525,39.38 L113.6125,39.38 L113.6125,44 L111.0625,44 L111.0625,33.0725 L113.6125,33.0725 L113.6125,37.64 L118.0525,37.64 L118.0525,33.0725 L120.6025,33.0725 L120.6025,44 Z M132.0175,33.0725 L132.0175,35.0225 L127.5325,35.0225 L127.5325,37.5725 L130.9675,37.5725 L130.9675,39.4475 L127.5325,39.4475 L127.5325,42.05 L132.0175,42.05 L132.0175,44 L124.9825,44 L124.9825,33.0725 L132.0175,33.0725 Z M138.5725,39.9575 L138.5725,44 L136.0375,44 L136.0375,33.0725 L139.5925,33.0725 C140.382504,33.0725 141.056247,33.1537492 141.61375,33.31625 C142.171253,33.4787508 142.626248,33.7049985 142.97875,33.995 C143.331252,34.2850014 143.587499,34.627498 143.7475,35.0225 C143.907501,35.417502 143.9875,35.8474977 143.9875,36.3125 C143.9875,36.6675018 143.94,37.0024984 143.845,37.3175 C143.75,37.6325016 143.608751,37.9237487 143.42125,38.19125 C143.233749,38.4587513 143.003751,38.6974989 142.73125,38.9075 C142.458749,39.1175011 142.145002,39.2899993 141.79,39.425 C141.960001,39.5100004 142.118749,39.6149994 142.26625,39.74 C142.413751,39.8650006 142.542499,40.0174991 142.6525,40.1975 L144.9775,44 L142.6825,44 C142.257498,44 141.952501,43.8400016 141.7675,43.52 L139.9525,40.3475 C139.8725,40.2074993 139.778751,40.1075003 139.67125,40.0475 C139.563749,39.9874997 139.412501,39.9575 139.2175,39.9575 L138.5725,39.9575 Z M138.5725,38.21 L139.5925,38.21 C139.937502,38.21 140.231249,38.1662504 140.47375,38.07875 C140.716251,37.9912496 140.914999,37.8700008 141.07,37.715 C141.225001,37.5599992 141.3375,37.378751 141.4075,37.17125 C141.4775,36.963749 141.5125,36.7400012 141.5125,36.5 C141.5125,36.0199976 141.356252,35.6450014 141.04375,35.375 C140.731248,35.1049986 140.247503,34.97 139.5925,34.97 L138.5725,34.97 L138.5725,38.21 Z M155.6275,33.0725 L155.6275,35.0225 L151.1425,35.0225 L151.1425,37.5725 L154.5775,37.5725 L154.5775,39.4475 L151.1425,39.4475 L151.1425,42.05 L155.6275,42.05 L155.6275,44 L148.5925,44 L148.5925,33.0725 L155.6275,33.0725 Z" id="CTAHERE" fill="#FFFFFF" fill-rule="nonzero"></path>
                    </g>
                </g>
                <g id="btn---claim-your-copy-5" transform="translate(250.000000, 88.000000)">
                    <g id="btn---claim-your">
                        <g id="Rectangle-4">
                            <use fill="black" fill-opacity="1" filter="url(#filter-6)" xlink:href="#path-5"></use>
                            <use fill="#427FE0" fill-rule="evenodd" xlink:href="#path-5"></use>
                        </g>
                        <path d="M76.495,41.6725 C76.5550003,41.6725 76.6149997,41.6837499 76.675,41.70625 C76.7350003,41.7287501 76.7924997,41.7674997 76.8475,41.8225 L77.8525,42.88 C77.4124978,43.4550029 76.8612533,43.8887485 76.19875,44.18125 C75.5362467,44.4737515 74.7525045,44.62 73.8475,44.62 C73.0174958,44.62 72.2737533,44.4787514 71.61625,44.19625 C70.9587467,43.9137486 70.4012523,43.5237525 69.94375,43.02625 C69.4862477,42.5287475 69.1350012,41.9387534 68.89,41.25625 C68.6449988,40.5737466 68.5225,39.832504 68.5225,39.0325 C68.5225,38.2174959 68.6624986,37.4687534 68.9425,36.78625 C69.2225014,36.1037466 69.6137475,35.5150025 70.11625,35.02 C70.6187525,34.5249975 71.2199965,34.1400014 71.92,33.865 C72.6200035,33.5899986 73.3924958,33.4525 74.2375,33.4525 C74.647502,33.4525 75.0337482,33.4887496 75.39625,33.56125 C75.7587518,33.6337504 76.0974984,33.7337494 76.4125,33.86125 C76.7275016,33.9887506 77.0174987,34.1412491 77.2825,34.31875 C77.5475013,34.4962509 77.782499,34.6924989 77.9875,34.9075 L77.1325,36.055 C77.0774997,36.1250004 77.0125004,36.1887497 76.9375,36.24625 C76.8624996,36.3037503 76.7575007,36.3325 76.6225,36.3325 C76.5324995,36.3325 76.4475004,36.3125002 76.3675,36.2725 C76.2874996,36.2324998 76.2025004,36.1837503 76.1125,36.12625 L75.81625,35.93875 L75.81625,35.93875 C75.7087495,35.8712497 75.5812507,35.8087503 75.43375,35.75125 C75.2862493,35.6937497 75.113751,35.6450002 74.91625,35.605 C74.718749,35.5649998 74.4875013,35.545 74.2225,35.545 C73.7624977,35.545 73.3425019,35.6262492 72.9625,35.78875 C72.5824981,35.9512508 72.2562514,36.1837485 71.98375,36.48625 C71.7112486,36.7887515 71.4987508,37.1549979 71.34625,37.585 C71.1937492,38.0150022 71.1175,38.4974973 71.1175,39.0325 C71.1175,39.5925028 71.1937492,40.0899978 71.34625,40.525 C71.4987508,40.9600022 71.7062487,41.3262485 71.96875,41.62375 C72.2312513,41.9212515 72.5374982,42.1474992 72.8875,42.3025 C73.2375017,42.4575008 73.612498,42.535 74.0125,42.535 C74.2425011,42.535 74.452499,42.5237501 74.6425,42.50125 C74.8325009,42.4787499 75.0087492,42.4400003 75.17125,42.385 C75.3337508,42.3299997 75.4887493,42.2587504 75.63625,42.17125 C75.7837507,42.0837496 75.9324992,41.9750007 76.0825,41.845 C76.1425003,41.7949998 76.2074996,41.7537502 76.2775,41.72125 C76.3475003,41.6887498 76.4199996,41.6725 76.495,41.6725 Z M89.5225,33.5725 L89.5225,35.5825 L86.4475,35.5825 L86.4475,44.5 L83.9125,44.5 L83.9125,35.5825 L80.8375,35.5825 L80.8375,33.5725 L89.5225,33.5725 Z M102.1225,44.5 L100.1575,44.5 C99.9374989,44.5 99.7562507,44.4487505 99.61375,44.34625 C99.4712493,44.2437495 99.3725003,44.1125008 99.3175,43.9525 L98.6725,42.0475 L94.5175,42.0475 L93.8725,43.9525 C93.8224997,44.0925007 93.7250007,44.2187494 93.58,44.33125 C93.4349993,44.4437506 93.257501,44.5 93.0475,44.5 L91.0675,44.5 L95.2975,33.5725 L97.8925,33.5725 L102.1225,44.5 Z M95.1025,40.3225 L98.0875,40.3225 L96.85375,36.65875 L96.85375,36.65875 C96.7662496,36.4012487 96.6800004,36.1225015 96.595,35.8225 C96.5149996,36.1275015 96.4325004,36.4099987 96.3475,36.67 L96.22375,37.0337501 C96.1837501,37.1462499 96.1450002,37.2499995 96.1075,37.345 L95.1025,40.3225 Z M120.6025,44.5 L118.0525,44.5 L118.0525,39.88 L113.6125,39.88 L113.6125,44.5 L111.0625,44.5 L111.0625,33.5725 L113.6125,33.5725 L113.6125,38.14 L118.0525,38.14 L118.0525,33.5725 L120.6025,33.5725 L120.6025,44.5 Z M132.0175,33.5725 L132.0175,35.5225 L127.5325,35.5225 L127.5325,38.0725 L130.9675,38.0725 L130.9675,39.9475 L127.5325,39.9475 L127.5325,42.55 L132.0175,42.55 L132.0175,44.5 L124.9825,44.5 L124.9825,33.5725 L132.0175,33.5725 Z M138.5725,40.4575 L138.5725,44.5 L136.0375,44.5 L136.0375,33.5725 L139.5925,33.5725 C140.382504,33.5725 141.056247,33.6537492 141.61375,33.81625 C142.171253,33.9787508 142.626248,34.2049986 142.97875,34.495 C143.331252,34.7850015 143.587499,35.127498 143.7475,35.5225 C143.907501,35.917502 143.9875,36.3474977 143.9875,36.8125 C143.9875,37.1675018 143.94,37.5024984 143.845,37.8175 C143.75,38.1325016 143.608751,38.4237487 143.42125,38.69125 C143.233749,38.9587513 143.003751,39.197499 142.73125,39.4075 C142.458749,39.6175011 142.145002,39.7899993 141.79,39.925 C141.960001,40.0100004 142.118749,40.1149994 142.26625,40.24 C142.413751,40.3650006 142.542499,40.5174991 142.6525,40.6975 L144.9775,44.5 L142.6825,44.5 C142.257498,44.5 141.952501,44.3400016 141.7675,44.02 L139.9525,40.8475 C139.8725,40.7074993 139.778751,40.6075003 139.67125,40.5475 C139.563749,40.4874997 139.412501,40.4575 139.2175,40.4575 L138.5725,40.4575 Z M138.5725,38.71 L139.5925,38.71 C139.937502,38.71 140.231249,38.6662504 140.47375,38.57875 C140.716251,38.4912496 140.914999,38.3700008 141.07,38.215 C141.225001,38.0599992 141.3375,37.878751 141.4075,37.67125 C141.4775,37.463749 141.5125,37.2400012 141.5125,37 C141.5125,36.5199976 141.356252,36.1450014 141.04375,35.875 C140.731248,35.6049987 140.247503,35.47 139.5925,35.47 L138.5725,35.47 L138.5725,38.71 Z M155.6275,33.5725 L155.6275,35.5225 L151.1425,35.5225 L151.1425,38.0725 L154.5775,38.0725 L154.5775,39.9475 L151.1425,39.9475 L151.1425,42.55 L155.6275,42.55 L155.6275,44.5 L148.5925,44.5 L148.5925,33.5725 L155.6275,33.5725 Z" id="CTAHERE" fill="#FFFFFF" fill-rule="nonzero"></path>
                    </g>
                </g>
                <g id="btn---claim-your-copy-5" transform="translate(174.000000, 265.000000)">
                    <g id="btn---claim-your">
                        <g id="Rectangle-4">
                            <use fill="black" fill-opacity="1" filter="url(#filter-8)" xlink:href="#path-7"></use>
                            <use fill="#427FE0" fill-rule="evenodd" xlink:href="#path-7"></use>
                        </g>
                        <path d="M76.495,41.1725 C76.5550003,41.1725 76.6149997,41.1837499 76.675,41.20625 C76.7350003,41.2287501 76.7924997,41.2674997 76.8475,41.3225 L77.8525,42.38 C77.4124978,42.9550029 76.8612533,43.3887485 76.19875,43.68125 C75.5362467,43.9737515 74.7525045,44.12 73.8475,44.12 C73.0174958,44.12 72.2737533,43.9787514 71.61625,43.69625 C70.9587467,43.4137486 70.4012523,43.0237525 69.94375,42.52625 C69.4862477,42.0287475 69.1350012,41.4387534 68.89,40.75625 C68.6449988,40.0737466 68.5225,39.332504 68.5225,38.5325 C68.5225,37.7174959 68.6624986,36.9687534 68.9425,36.28625 C69.2225014,35.6037466 69.6137475,35.0150025 70.11625,34.52 C70.6187525,34.0249975 71.2199965,33.6400014 71.92,33.365 C72.6200035,33.0899986 73.3924958,32.9525 74.2375,32.9525 C74.647502,32.9525 75.0337482,32.9887496 75.39625,33.06125 C75.7587518,33.1337504 76.0974984,33.2337494 76.4125,33.36125 C76.7275016,33.4887506 77.0174987,33.6412491 77.2825,33.81875 C77.5475013,33.9962509 77.782499,34.1924989 77.9875,34.4075 L77.1325,35.555 C77.0774997,35.6250004 77.0125004,35.6887497 76.9375,35.74625 C76.8624996,35.8037503 76.7575007,35.8325 76.6225,35.8325 C76.5324995,35.8325 76.4475004,35.8125002 76.3675,35.7725 C76.2874996,35.7324998 76.2025004,35.6837503 76.1125,35.62625 L75.81625,35.43875 L75.81625,35.43875 C75.7087495,35.3712497 75.5812507,35.3087503 75.43375,35.25125 C75.2862493,35.1937497 75.113751,35.1450002 74.91625,35.105 C74.718749,35.0649998 74.4875013,35.045 74.2225,35.045 C73.7624977,35.045 73.3425019,35.1262492 72.9625,35.28875 C72.5824981,35.4512508 72.2562514,35.6837485 71.98375,35.98625 C71.7112486,36.2887515 71.4987508,36.6549979 71.34625,37.085 C71.1937492,37.5150022 71.1175,37.9974973 71.1175,38.5325 C71.1175,39.0925028 71.1937492,39.5899978 71.34625,40.025 C71.4987508,40.4600022 71.7062487,40.8262485 71.96875,41.12375 C72.2312513,41.4212515 72.5374982,41.6474992 72.8875,41.8025 C73.2375017,41.9575008 73.612498,42.035 74.0125,42.035 C74.2425011,42.035 74.452499,42.0237501 74.6425,42.00125 C74.8325009,41.9787499 75.0087492,41.9400003 75.17125,41.885 C75.3337508,41.8299997 75.4887493,41.7587504 75.63625,41.67125 C75.7837507,41.5837496 75.9324992,41.4750006 76.0825,41.345 C76.1425003,41.2949998 76.2074996,41.2537502 76.2775,41.22125 C76.3475003,41.1887498 76.4199996,41.1725 76.495,41.1725 Z M89.5225,33.0725 L89.5225,35.0825 L86.4475,35.0825 L86.4475,44 L83.9125,44 L83.9125,35.0825 L80.8375,35.0825 L80.8375,33.0725 L89.5225,33.0725 Z M102.1225,44 L100.1575,44 C99.9374989,44 99.7562507,43.9487505 99.61375,43.84625 C99.4712493,43.7437495 99.3725003,43.6125008 99.3175,43.4525 L98.6725,41.5475 L94.5175,41.5475 L93.8725,43.4525 C93.8224997,43.5925007 93.7250007,43.7187494 93.58,43.83125 C93.4349993,43.9437506 93.257501,44 93.0475,44 L91.0675,44 L95.2975,33.0725 L97.8925,33.0725 L102.1225,44 Z M95.1025,39.8225 L98.0875,39.8225 L96.85375,36.15875 L96.85375,36.15875 C96.7662496,35.9012487 96.6800004,35.6225015 96.595,35.3225 C96.5149996,35.6275015 96.4325004,35.9099987 96.3475,36.17 L96.22375,36.5337501 C96.1837501,36.6462499 96.1450002,36.7499995 96.1075,36.845 L95.1025,39.8225 Z M120.6025,44 L118.0525,44 L118.0525,39.38 L113.6125,39.38 L113.6125,44 L111.0625,44 L111.0625,33.0725 L113.6125,33.0725 L113.6125,37.64 L118.0525,37.64 L118.0525,33.0725 L120.6025,33.0725 L120.6025,44 Z M132.0175,33.0725 L132.0175,35.0225 L127.5325,35.0225 L127.5325,37.5725 L130.9675,37.5725 L130.9675,39.4475 L127.5325,39.4475 L127.5325,42.05 L132.0175,42.05 L132.0175,44 L124.9825,44 L124.9825,33.0725 L132.0175,33.0725 Z M138.5725,39.9575 L138.5725,44 L136.0375,44 L136.0375,33.0725 L139.5925,33.0725 C140.382504,33.0725 141.056247,33.1537492 141.61375,33.31625 C142.171253,33.4787508 142.626248,33.7049985 142.97875,33.995 C143.331252,34.2850014 143.587499,34.627498 143.7475,35.0225 C143.907501,35.417502 143.9875,35.8474977 143.9875,36.3125 C143.9875,36.6675018 143.94,37.0024984 143.845,37.3175 C143.75,37.6325016 143.608751,37.9237487 143.42125,38.19125 C143.233749,38.4587513 143.003751,38.6974989 142.73125,38.9075 C142.458749,39.1175011 142.145002,39.2899993 141.79,39.425 C141.960001,39.5100004 142.118749,39.6149994 142.26625,39.74 C142.413751,39.8650006 142.542499,40.0174991 142.6525,40.1975 L144.9775,44 L142.6825,44 C142.257498,44 141.952501,43.8400016 141.7675,43.52 L139.9525,40.3475 C139.8725,40.2074993 139.778751,40.1075003 139.67125,40.0475 C139.563749,39.9874997 139.412501,39.9575 139.2175,39.9575 L138.5725,39.9575 Z M138.5725,38.21 L139.5925,38.21 C139.937502,38.21 140.231249,38.1662504 140.47375,38.07875 C140.716251,37.9912496 140.914999,37.8700008 141.07,37.715 C141.225001,37.5599992 141.3375,37.378751 141.4075,37.17125 C141.4775,36.963749 141.5125,36.7400012 141.5125,36.5 C141.5125,36.0199976 141.356252,35.6450014 141.04375,35.375 C140.731248,35.1049986 140.247503,34.97 139.5925,34.97 L138.5725,34.97 L138.5725,38.21 Z M155.6275,33.0725 L155.6275,35.0225 L151.1425,35.0225 L151.1425,37.5725 L154.5775,37.5725 L154.5775,39.4475 L151.1425,39.4475 L151.1425,42.05 L155.6275,42.05 L155.6275,44 L148.5925,44 L148.5925,33.0725 L155.6275,33.0725 Z" id="CTAHERE" fill="#FFFFFF" fill-rule="nonzero"></path>
                    </g>
                </g>
                <g id="btn---claim-your-copy-5" transform="translate(14.000000, 184.000000)">
                    <g id="btn---claim-your">
                        <g id="Rectangle-4">
                            <use fill="black" fill-opacity="1" filter="url(#filter-10)" xlink:href="#path-9"></use>
                            <use fill="#427FE0" fill-rule="evenodd" xlink:href="#path-9"></use>
                        </g>
                        <path d="M76.995,41.1725 C77.0550003,41.1725 77.1149997,41.1837499 77.175,41.20625 C77.2350003,41.2287501 77.2924997,41.2674997 77.3475,41.3225 L78.3525,42.38 C77.9124978,42.9550029 77.3612533,43.3887485 76.69875,43.68125 C76.0362467,43.9737515 75.2525045,44.12 74.3475,44.12 C73.5174958,44.12 72.7737533,43.9787514 72.11625,43.69625 C71.4587467,43.4137486 70.9012523,43.0237525 70.44375,42.52625 C69.9862477,42.0287475 69.6350012,41.4387534 69.39,40.75625 C69.1449988,40.0737466 69.0225,39.332504 69.0225,38.5325 C69.0225,37.7174959 69.1624986,36.9687534 69.4425,36.28625 C69.7225014,35.6037466 70.1137475,35.0150025 70.61625,34.52 C71.1187525,34.0249975 71.7199965,33.6400014 72.42,33.365 C73.1200035,33.0899986 73.8924958,32.9525 74.7375,32.9525 C75.147502,32.9525 75.5337482,32.9887496 75.89625,33.06125 C76.2587518,33.1337504 76.5974984,33.2337494 76.9125,33.36125 C77.2275016,33.4887506 77.5174987,33.6412491 77.7825,33.81875 C78.0475013,33.9962509 78.282499,34.1924989 78.4875,34.4075 L77.6325,35.555 C77.5774997,35.6250004 77.5125004,35.6887497 77.4375,35.74625 C77.3624996,35.8037503 77.2575007,35.8325 77.1225,35.8325 C77.0324995,35.8325 76.9475004,35.8125002 76.8675,35.7725 C76.7874996,35.7324998 76.7025004,35.6837503 76.6125,35.62625 L76.31625,35.43875 L76.31625,35.43875 C76.2087495,35.3712497 76.0812507,35.3087503 75.93375,35.25125 C75.7862493,35.1937497 75.613751,35.1450002 75.41625,35.105 C75.218749,35.0649998 74.9875013,35.045 74.7225,35.045 C74.2624977,35.045 73.8425019,35.1262492 73.4625,35.28875 C73.0824981,35.4512508 72.7562514,35.6837485 72.48375,35.98625 C72.2112486,36.2887515 71.9987508,36.6549979 71.84625,37.085 C71.6937492,37.5150022 71.6175,37.9974973 71.6175,38.5325 C71.6175,39.0925028 71.6937492,39.5899978 71.84625,40.025 C71.9987508,40.4600022 72.2062487,40.8262485 72.46875,41.12375 C72.7312513,41.4212515 73.0374982,41.6474992 73.3875,41.8025 C73.7375017,41.9575008 74.112498,42.035 74.5125,42.035 C74.7425011,42.035 74.952499,42.0237501 75.1425,42.00125 C75.3325009,41.9787499 75.5087492,41.9400003 75.67125,41.885 C75.8337508,41.8299997 75.9887493,41.7587504 76.13625,41.67125 C76.2837507,41.5837496 76.4324992,41.4750006 76.5825,41.345 C76.6425003,41.2949998 76.7074996,41.2537502 76.7775,41.22125 C76.8475003,41.1887498 76.9199996,41.1725 76.995,41.1725 Z M90.0225,33.0725 L90.0225,35.0825 L86.9475,35.0825 L86.9475,44 L84.4125,44 L84.4125,35.0825 L81.3375,35.0825 L81.3375,33.0725 L90.0225,33.0725 Z M102.6225,44 L100.6575,44 C100.437499,44 100.256251,43.9487505 100.11375,43.84625 C99.9712493,43.7437495 99.8725003,43.6125008 99.8175,43.4525 L99.1725,41.5475 L95.0175,41.5475 L94.3725,43.4525 C94.3224997,43.5925007 94.2250007,43.7187494 94.08,43.83125 C93.9349993,43.9437506 93.757501,44 93.5475,44 L91.5675,44 L95.7975,33.0725 L98.3925,33.0725 L102.6225,44 Z M95.6025,39.8225 L98.5875,39.8225 L97.35375,36.15875 L97.35375,36.15875 C97.2662496,35.9012487 97.1800004,35.6225015 97.095,35.3225 C97.0149996,35.6275015 96.9325004,35.9099987 96.8475,36.17 L96.72375,36.5337501 C96.6837501,36.6462499 96.6450002,36.7499995 96.6075,36.845 L95.6025,39.8225 Z M121.1025,44 L118.5525,44 L118.5525,39.38 L114.1125,39.38 L114.1125,44 L111.5625,44 L111.5625,33.0725 L114.1125,33.0725 L114.1125,37.64 L118.5525,37.64 L118.5525,33.0725 L121.1025,33.0725 L121.1025,44 Z M132.5175,33.0725 L132.5175,35.0225 L128.0325,35.0225 L128.0325,37.5725 L131.4675,37.5725 L131.4675,39.4475 L128.0325,39.4475 L128.0325,42.05 L132.5175,42.05 L132.5175,44 L125.4825,44 L125.4825,33.0725 L132.5175,33.0725 Z M139.0725,39.9575 L139.0725,44 L136.5375,44 L136.5375,33.0725 L140.0925,33.0725 C140.882504,33.0725 141.556247,33.1537492 142.11375,33.31625 C142.671253,33.4787508 143.126248,33.7049985 143.47875,33.995 C143.831252,34.2850014 144.087499,34.627498 144.2475,35.0225 C144.407501,35.417502 144.4875,35.8474977 144.4875,36.3125 C144.4875,36.6675018 144.44,37.0024984 144.345,37.3175 C144.25,37.6325016 144.108751,37.9237487 143.92125,38.19125 C143.733749,38.4587513 143.503751,38.6974989 143.23125,38.9075 C142.958749,39.1175011 142.645002,39.2899993 142.29,39.425 C142.460001,39.5100004 142.618749,39.6149994 142.76625,39.74 C142.913751,39.8650006 143.042499,40.0174991 143.1525,40.1975 L145.4775,44 L143.1825,44 C142.757498,44 142.452501,43.8400016 142.2675,43.52 L140.4525,40.3475 C140.3725,40.2074993 140.278751,40.1075003 140.17125,40.0475 C140.063749,39.9874997 139.912501,39.9575 139.7175,39.9575 L139.0725,39.9575 Z M139.0725,38.21 L140.0925,38.21 C140.437502,38.21 140.731249,38.1662504 140.97375,38.07875 C141.216251,37.9912496 141.414999,37.8700008 141.57,37.715 C141.725001,37.5599992 141.8375,37.378751 141.9075,37.17125 C141.9775,36.963749 142.0125,36.7400012 142.0125,36.5 C142.0125,36.0199976 141.856252,35.6450014 141.54375,35.375 C141.231248,35.1049986 140.747503,34.97 140.0925,34.97 L139.0725,34.97 L139.0725,38.21 Z M156.1275,33.0725 L156.1275,35.0225 L151.6425,35.0225 L151.6425,37.5725 L155.0775,37.5725 L155.0775,39.4475 L151.6425,39.4475 L151.6425,42.05 L156.1275,42.05 L156.1275,44 L149.0925,44 L149.0925,33.0725 L156.1275,33.0725 Z" id="CTAHERE" fill="#FFFFFF" fill-rule="nonzero"></path>
                    </g>
                </g>
                <g id="btn---claim-your-copy-5" transform="translate(97.000000, 118.000000)">
                    <g id="btn---claim-your"></g>
                </g>
                <g id="btn---claim-your-copy-5" transform="translate(267.000000, 176.000000)">
                    <g id="btn---claim-your">
                        <g id="Rectangle-4">
                            <use fill="black" fill-opacity="1" filter="url(#filter-12)" xlink:href="#path-11"></use>
                            <use fill="#427FE0" fill-rule="evenodd" xlink:href="#path-11"></use>
                        </g>
                        <path d="M76.495,41.6725 C76.5550003,41.6725 76.6149997,41.6837499 76.675,41.70625 C76.7350003,41.7287501 76.7924997,41.7674997 76.8475,41.8225 L77.8525,42.88 C77.4124978,43.4550029 76.8612533,43.8887485 76.19875,44.18125 C75.5362467,44.4737515 74.7525045,44.62 73.8475,44.62 C73.0174958,44.62 72.2737533,44.4787514 71.61625,44.19625 C70.9587467,43.9137486 70.4012523,43.5237525 69.94375,43.02625 C69.4862477,42.5287475 69.1350012,41.9387534 68.89,41.25625 C68.6449988,40.5737466 68.5225,39.832504 68.5225,39.0325 C68.5225,38.2174959 68.6624986,37.4687534 68.9425,36.78625 C69.2225014,36.1037466 69.6137475,35.5150025 70.11625,35.02 C70.6187525,34.5249975 71.2199965,34.1400014 71.92,33.865 C72.6200035,33.5899986 73.3924958,33.4525 74.2375,33.4525 C74.647502,33.4525 75.0337482,33.4887496 75.39625,33.56125 C75.7587518,33.6337504 76.0974984,33.7337494 76.4125,33.86125 C76.7275016,33.9887506 77.0174987,34.1412491 77.2825,34.31875 C77.5475013,34.4962509 77.782499,34.6924989 77.9875,34.9075 L77.1325,36.055 C77.0774997,36.1250004 77.0125004,36.1887497 76.9375,36.24625 C76.8624996,36.3037503 76.7575007,36.3325 76.6225,36.3325 C76.5324995,36.3325 76.4475004,36.3125002 76.3675,36.2725 C76.2874996,36.2324998 76.2025004,36.1837503 76.1125,36.12625 L75.81625,35.93875 L75.81625,35.93875 C75.7087495,35.8712497 75.5812507,35.8087503 75.43375,35.75125 C75.2862493,35.6937497 75.113751,35.6450002 74.91625,35.605 C74.718749,35.5649998 74.4875013,35.545 74.2225,35.545 C73.7624977,35.545 73.3425019,35.6262492 72.9625,35.78875 C72.5824981,35.9512508 72.2562514,36.1837485 71.98375,36.48625 C71.7112486,36.7887515 71.4987508,37.1549979 71.34625,37.585 C71.1937492,38.0150022 71.1175,38.4974973 71.1175,39.0325 C71.1175,39.5925028 71.1937492,40.0899978 71.34625,40.525 C71.4987508,40.9600022 71.7062487,41.3262485 71.96875,41.62375 C72.2312513,41.9212515 72.5374982,42.1474992 72.8875,42.3025 C73.2375017,42.4575008 73.612498,42.535 74.0125,42.535 C74.2425011,42.535 74.452499,42.5237501 74.6425,42.50125 C74.8325009,42.4787499 75.0087492,42.4400003 75.17125,42.385 C75.3337508,42.3299997 75.4887493,42.2587504 75.63625,42.17125 C75.7837507,42.0837496 75.9324992,41.9750007 76.0825,41.845 C76.1425003,41.7949998 76.2074996,41.7537502 76.2775,41.72125 C76.3475003,41.6887498 76.4199996,41.6725 76.495,41.6725 Z M89.5225,33.5725 L89.5225,35.5825 L86.4475,35.5825 L86.4475,44.5 L83.9125,44.5 L83.9125,35.5825 L80.8375,35.5825 L80.8375,33.5725 L89.5225,33.5725 Z M102.1225,44.5 L100.1575,44.5 C99.9374989,44.5 99.7562507,44.4487505 99.61375,44.34625 C99.4712493,44.2437495 99.3725003,44.1125008 99.3175,43.9525 L98.6725,42.0475 L94.5175,42.0475 L93.8725,43.9525 C93.8224997,44.0925007 93.7250007,44.2187494 93.58,44.33125 C93.4349993,44.4437506 93.257501,44.5 93.0475,44.5 L91.0675,44.5 L95.2975,33.5725 L97.8925,33.5725 L102.1225,44.5 Z M95.1025,40.3225 L98.0875,40.3225 L96.85375,36.65875 L96.85375,36.65875 C96.7662496,36.4012487 96.6800004,36.1225015 96.595,35.8225 C96.5149996,36.1275015 96.4325004,36.4099987 96.3475,36.67 L96.22375,37.0337501 C96.1837501,37.1462499 96.1450002,37.2499995 96.1075,37.345 L95.1025,40.3225 Z M120.6025,44.5 L118.0525,44.5 L118.0525,39.88 L113.6125,39.88 L113.6125,44.5 L111.0625,44.5 L111.0625,33.5725 L113.6125,33.5725 L113.6125,38.14 L118.0525,38.14 L118.0525,33.5725 L120.6025,33.5725 L120.6025,44.5 Z M132.0175,33.5725 L132.0175,35.5225 L127.5325,35.5225 L127.5325,38.0725 L130.9675,38.0725 L130.9675,39.9475 L127.5325,39.9475 L127.5325,42.55 L132.0175,42.55 L132.0175,44.5 L124.9825,44.5 L124.9825,33.5725 L132.0175,33.5725 Z M138.5725,40.4575 L138.5725,44.5 L136.0375,44.5 L136.0375,33.5725 L139.5925,33.5725 C140.382504,33.5725 141.056247,33.6537492 141.61375,33.81625 C142.171253,33.9787508 142.626248,34.2049986 142.97875,34.495 C143.331252,34.7850015 143.587499,35.127498 143.7475,35.5225 C143.907501,35.917502 143.9875,36.3474977 143.9875,36.8125 C143.9875,37.1675018 143.94,37.5024984 143.845,37.8175 C143.75,38.1325016 143.608751,38.4237487 143.42125,38.69125 C143.233749,38.9587513 143.003751,39.197499 142.73125,39.4075 C142.458749,39.6175011 142.145002,39.7899993 141.79,39.925 C141.960001,40.0100004 142.118749,40.1149994 142.26625,40.24 C142.413751,40.3650006 142.542499,40.5174991 142.6525,40.6975 L144.9775,44.5 L142.6825,44.5 C142.257498,44.5 141.952501,44.3400016 141.7675,44.02 L139.9525,40.8475 C139.8725,40.7074993 139.778751,40.6075003 139.67125,40.5475 C139.563749,40.4874997 139.412501,40.4575 139.2175,40.4575 L138.5725,40.4575 Z M138.5725,38.71 L139.5925,38.71 C139.937502,38.71 140.231249,38.6662504 140.47375,38.57875 C140.716251,38.4912496 140.914999,38.3700008 141.07,38.215 C141.225001,38.0599992 141.3375,37.878751 141.4075,37.67125 C141.4775,37.463749 141.5125,37.2400012 141.5125,37 C141.5125,36.5199976 141.356252,36.1450014 141.04375,35.875 C140.731248,35.6049987 140.247503,35.47 139.5925,35.47 L138.5725,35.47 L138.5725,38.71 Z M155.6275,33.5725 L155.6275,35.5225 L151.1425,35.5225 L151.1425,38.0725 L154.5775,38.0725 L154.5775,39.9475 L151.1425,39.9475 L151.1425,42.55 L155.6275,42.55 L155.6275,44.5 L148.5925,44.5 L148.5925,33.5725 L155.6275,33.5725 Z" id="CTAHERE" fill="#FFFFFF" fill-rule="nonzero"></path>
                    </g>
                </g>
                <g id="Rectangle-4">
                    <use fill="black" fill-opacity="1" filter="url(#filter-14)" xlink:href="#path-13"></use>
                    <use fill="#427FE0" fill-rule="evenodd" xlink:href="#path-13"></use>
                </g>
                <path d="M172.995,158.6725 C173.055,158.6725 173.115,158.68375 173.175,158.70625 C173.235,158.72875 173.2925,158.7675 173.3475,158.8225 L174.3525,159.88 C173.912498,160.455003 173.361253,160.888749 172.69875,161.18125 C172.036247,161.473751 171.252505,161.62 170.3475,161.62 C169.517496,161.62 168.773753,161.478751 168.11625,161.19625 C167.458747,160.913749 166.901252,160.523752 166.44375,160.02625 C165.986248,159.528748 165.635001,158.938753 165.39,158.25625 C165.144999,157.573747 165.0225,156.832504 165.0225,156.0325 C165.0225,155.217496 165.162499,154.468753 165.4425,153.78625 C165.722501,153.103747 166.113747,152.515002 166.61625,152.02 C167.118753,151.524998 167.719997,151.140001 168.42,150.865 C169.120004,150.589999 169.892496,150.4525 170.7375,150.4525 C171.147502,150.4525 171.533748,150.48875 171.89625,150.56125 C172.258752,150.63375 172.597498,150.733749 172.9125,150.86125 C173.227502,150.988751 173.517499,151.141249 173.7825,151.31875 C174.047501,151.496251 174.282499,151.692499 174.4875,151.9075 L173.6325,153.055 C173.5775,153.125 173.5125,153.18875 173.4375,153.24625 C173.3625,153.30375 173.257501,153.3325 173.1225,153.3325 C173.0325,153.3325 172.9475,153.3125 172.8675,153.2725 C172.7875,153.2325 172.7025,153.18375 172.6125,153.12625 L172.31625,152.93875 L172.31625,152.93875 C172.208749,152.87125 172.081251,152.80875 171.93375,152.75125 C171.786249,152.69375 171.613751,152.645 171.41625,152.605 C171.218749,152.565 170.987501,152.545 170.7225,152.545 C170.262498,152.545 169.842502,152.626249 169.4625,152.78875 C169.082498,152.951251 168.756251,153.183748 168.48375,153.48625 C168.211249,153.788752 167.998751,154.154998 167.84625,154.585 C167.693749,155.015002 167.6175,155.497497 167.6175,156.0325 C167.6175,156.592503 167.693749,157.089998 167.84625,157.525 C167.998751,157.960002 168.206249,158.326249 168.46875,158.62375 C168.731251,158.921251 169.037498,159.147499 169.3875,159.3025 C169.737502,159.457501 170.112498,159.535 170.5125,159.535 C170.742501,159.535 170.952499,159.52375 171.1425,159.50125 C171.332501,159.47875 171.508749,159.44 171.67125,159.385 C171.833751,159.33 171.988749,159.25875 172.13625,159.17125 C172.283751,159.08375 172.432499,158.975001 172.5825,158.845 C172.6425,158.795 172.7075,158.75375 172.7775,158.72125 C172.8475,158.68875 172.92,158.6725 172.995,158.6725 Z M186.0225,150.5725 L186.0225,152.5825 L182.9475,152.5825 L182.9475,161.5 L180.4125,161.5 L180.4125,152.5825 L177.3375,152.5825 L177.3375,150.5725 L186.0225,150.5725 Z M198.6225,161.5 L196.6575,161.5 C196.437499,161.5 196.256251,161.448751 196.11375,161.34625 C195.971249,161.243749 195.8725,161.112501 195.8175,160.9525 L195.1725,159.0475 L191.0175,159.0475 L190.3725,160.9525 C190.3225,161.092501 190.225001,161.218749 190.08,161.33125 C189.934999,161.443751 189.757501,161.5 189.5475,161.5 L187.5675,161.5 L191.7975,150.5725 L194.3925,150.5725 L198.6225,161.5 Z M191.6025,157.3225 L194.5875,157.3225 L193.35375,153.65875 L193.35375,153.65875 C193.26625,153.401249 193.18,153.122501 193.095,152.8225 C193.015,153.127502 192.9325,153.409999 192.8475,153.67 L192.72375,154.03375 C192.68375,154.14625 192.645,154.25 192.6075,154.345 L191.6025,157.3225 Z M217.1025,161.5 L214.5525,161.5 L214.5525,156.88 L210.1125,156.88 L210.1125,161.5 L207.5625,161.5 L207.5625,150.5725 L210.1125,150.5725 L210.1125,155.14 L214.5525,155.14 L214.5525,150.5725 L217.1025,150.5725 L217.1025,161.5 Z M228.5175,150.5725 L228.5175,152.5225 L224.0325,152.5225 L224.0325,155.0725 L227.4675,155.0725 L227.4675,156.9475 L224.0325,156.9475 L224.0325,159.55 L228.5175,159.55 L228.5175,161.5 L221.4825,161.5 L221.4825,150.5725 L228.5175,150.5725 Z M235.0725,157.4575 L235.0725,161.5 L232.5375,161.5 L232.5375,150.5725 L236.0925,150.5725 C236.882504,150.5725 237.556247,150.653749 238.11375,150.81625 C238.671253,150.978751 239.126248,151.204999 239.47875,151.495 C239.831252,151.785001 240.087499,152.127498 240.2475,152.5225 C240.407501,152.917502 240.4875,153.347498 240.4875,153.8125 C240.4875,154.167502 240.44,154.502498 240.345,154.8175 C240.25,155.132502 240.108751,155.423749 239.92125,155.69125 C239.733749,155.958751 239.503751,156.197499 239.23125,156.4075 C238.958749,156.617501 238.645002,156.789999 238.29,156.925 C238.460001,157.01 238.618749,157.114999 238.76625,157.24 C238.913751,157.365001 239.042499,157.517499 239.1525,157.6975 L241.4775,161.5 L239.1825,161.5 C238.757498,161.5 238.452501,161.340002 238.2675,161.02 L236.4525,157.8475 C236.3725,157.707499 236.278751,157.6075 236.17125,157.5475 C236.063749,157.4875 235.912501,157.4575 235.7175,157.4575 L235.0725,157.4575 Z M235.0725,155.71 L236.0925,155.71 C236.437502,155.71 236.731249,155.66625 236.97375,155.57875 C237.216251,155.49125 237.414999,155.370001 237.57,155.215 C237.725001,155.059999 237.8375,154.878751 237.9075,154.67125 C237.9775,154.463749 238.0125,154.240001 238.0125,154 C238.0125,153.519998 237.856252,153.145001 237.54375,152.875 C237.231248,152.604999 236.747503,152.47 236.0925,152.47 L235.0725,152.47 L235.0725,155.71 Z M252.1275,150.5725 L252.1275,152.5225 L247.6425,152.5225 L247.6425,155.0725 L251.0775,155.0725 L251.0775,156.9475 L247.6425,156.9475 L247.6425,159.55 L252.1275,159.55 L252.1275,161.5 L245.0925,161.5 L245.0925,150.5725 L252.1275,150.5725 Z" id="CTAHERE" fill="#FFFFFF" fill-rule="nonzero"></path>
            </g>
        </g>
    </g>
</svg>