<?xml version="1.0" encoding="UTF-8"?>
<svg width="482px" height="498px" viewBox="0 0 482 498" version="1.1" xmlns="http://www.w3.org/2000/svg" xmlns:xlink="http://www.w3.org/1999/xlink">
    <!-- Generator: Sketch 63.1 (92452) - https://sketch.com -->
    <title>img_generate_leads</title>
    <desc>Created with Sketch.</desc>
    <defs>
        <filter x="-4.8%" y="-99.0%" width="109.5%" height="298.1%" filterUnits="objectBoundingBox" id="filter-1">
            <feGaussianBlur stdDeviation="2.64107143" in="SourceGraphic"></feGaussianBlur>
        </filter>
        <filter x="-4.8%" y="-42.3%" width="109.6%" height="184.5%" filterUnits="objectBoundingBox" id="filter-2">
            <feGaussianBlur stdDeviation="2.11285714" in="SourceGraphic"></feGaussianBlur>
        </filter>
        <filter x="-4.8%" y="-90.0%" width="109.6%" height="280.1%" filterUnits="objectBoundingBox" id="filter-3">
            <feGaussianBlur stdDeviation="3.30133929" in="SourceGraphic"></feGaussianBlur>
        </filter>
        <linearGradient x1="82.2130558%" y1="3.36130428%" x2="34.9128406%" y2="105.628734%" id="linearGradient-4">
            <stop stop-color="#FACF00" offset="0%"></stop>
            <stop stop-color="#F2A100" offset="100%"></stop>
        </linearGradient>
        <linearGradient x1="50%" y1="0%" x2="50%" y2="100%" id="linearGradient-5">
            <stop stop-color="#FFF400" offset="0%"></stop>
            <stop stop-color="#FFE600" offset="100%"></stop>
        </linearGradient>
        <linearGradient x1="50%" y1="0%" x2="62.8818251%" y2="91.7903857%" id="linearGradient-6">
            <stop stop-color="#FCE141" offset="0%"></stop>
            <stop stop-color="#EFBE23" offset="100%"></stop>
        </linearGradient>
        <path d="M20.0323944,23.9421969 C2.29642555,43.4476063 -4.78883541,65.914937 4.20996318,74.1242126 L4.20996318,74.1242126 C13.2057196,82.3334882 34.4402071,72.7712362 52.176176,53.2627795 L52.176176,53.2627795 C69.9121448,33.7573701 77.4293967,11.6861811 68.4366825,3.47995276 L68.4366825,3.47995276 C66.1976306,1.43525197 63.1736935,0.469275591 59.6204154,0.469275591 L59.6204154,0.469275591 C48.8966949,0.469275591 33.3541452,9.28495276 20.0323944,23.9421969 L20.0323944,23.9421969 Z" id="path-7"></path>
        <path d="M20.0323944,23.9421969 C2.29642555,43.4476063 -4.78883541,65.914937 4.20996318,74.1242126 L4.20996318,74.1242126 C13.2057196,82.3334882 34.4402071,72.7712362 52.176176,53.2627795 L52.176176,53.2627795 C69.9121448,33.7573701 77.4293967,11.6861811 68.4366825,3.47995276 L68.4366825,3.47995276 C66.1976306,1.43525197 63.1736935,0.469275591 59.6204154,0.469275591 L59.6204154,0.469275591 C48.8966949,0.469275591 33.3541452,9.28495276 20.0323944,23.9421969 L20.0323944,23.9421969 Z" id="path-9"></path>
        <linearGradient x1="0%" y1="41.4583515%" x2="91.3469267%" y2="61.3880792%" id="linearGradient-11">
            <stop stop-color="#FACF00" offset="0%"></stop>
            <stop stop-color="#F2A100" offset="100%"></stop>
        </linearGradient>
        <linearGradient x1="50%" y1="42.0264758%" x2="64.6055751%" y2="56.664333%" id="linearGradient-12">
            <stop stop-color="#FDE765" offset="0%"></stop>
            <stop stop-color="#F9CA35" offset="100%"></stop>
        </linearGradient>
        <linearGradient x1="16.8145502%" y1="42.0412132%" x2="64.6055751%" y2="56.6520154%" id="linearGradient-13">
            <stop stop-color="#FCE141" offset="0%"></stop>
            <stop stop-color="#EFBE23" offset="100%"></stop>
        </linearGradient>
        <path d="M0.315531686,4.06197638 C-1.36984168,9.31847244 15.0762385,19.0269921 36.9435016,26.0600315 L36.9435016,26.0600315 C58.8107647,33.0930709 77.8244534,34.7873386 79.5098268,29.5338898 L79.5098268,29.5338898 C81.1952002,24.2773937 64.8343013,14.3129055 42.9609538,7.27986614 L42.9609538,7.27986614 C29.9738439,3.09904724 17.963277,0.895889764 9.99882307,0.895889764 L9.99882307,0.895889764 C4.55330263,0.895889764 1.00002448,1.92585827 0.315531686,4.06197638 L0.315531686,4.06197638 Z" id="path-14"></path>
        <path d="M0.315531686,4.06197638 C-1.36984168,9.31847244 15.0762385,19.0269921 36.9435016,26.0600315 L36.9435016,26.0600315 C58.8107647,33.0930709 77.8244534,34.7873386 79.5098268,29.5338898 L79.5098268,29.5338898 C81.1952002,24.2773937 64.8343013,14.3129055 42.9609538,7.27986614 L42.9609538,7.27986614 C29.9738439,3.09904724 17.963277,0.895889764 9.99882307,0.895889764 L9.99882307,0.895889764 C4.55330263,0.895889764 1.00002448,1.92585827 0.315531686,4.06197638 L0.315531686,4.06197638 Z" id="path-16"></path>
        <linearGradient x1="0%" y1="42.9426979%" x2="91.3469267%" y2="59.4090872%" id="linearGradient-18">
            <stop stop-color="#FACF00" offset="0%"></stop>
            <stop stop-color="#F2A100" offset="100%"></stop>
        </linearGradient>
        <polygon id="path-19" points="0 0.817459041 108.502742 0.817459041 108.502742 38.6324268 0 38.6324268"></polygon>
        <linearGradient x1="50%" y1="43.9269023%" x2="64.6055751%" y2="55.0759419%" id="linearGradient-21">
            <stop stop-color="#FDE765" offset="0%"></stop>
            <stop stop-color="#F9CA35" offset="100%"></stop>
        </linearGradient>
        <linearGradient x1="12.7339944%" y1="50%" x2="113.113027%" y2="51.9129851%" id="linearGradient-22">
            <stop stop-color="#FCE141" offset="0%"></stop>
            <stop stop-color="#EFBE23" offset="100%"></stop>
        </linearGradient>
        <path d="M38.4619826,4.50027559 C16.2053191,10.1772913 -0.736638074,19.1179055 0.623220943,24.4688661 L0.623220943,24.4688661 C1.98307996,29.8198268 21.0636969,29.2926535 43.3203603,23.6156378 L43.3203603,23.6156378 C65.5770238,17.938622 82.5859091,9.25702362 81.2290923,3.90911024 L81.2290923,3.90911024 C80.5750214,1.33723622 75.8139938,0.0604409449 68.5735811,0.0634827475 L68.5735811,0.0634827475 C60.7460257,0.0634827475 50.0223053,1.55054331 38.4619826,4.50027559 L38.4619826,4.50027559 Z" id="path-23"></path>
        <path d="M38.4619826,4.50027559 C16.2053191,10.1772913 -0.736638074,19.1179055 0.623220943,24.4688661 L0.623220943,24.4688661 C1.98307996,29.8198268 21.0636969,29.2926535 43.3203603,23.6156378 L43.3203603,23.6156378 C65.5770238,17.938622 82.5859091,9.25702362 81.2290923,3.90911024 L81.2290923,3.90911024 C80.5750214,1.33723622 75.8139938,0.0604409449 68.5735811,0.0634827475 L68.5735811,0.0634827475 C60.7460257,0.0634827475 50.0223053,1.55054331 38.4619826,4.50027559 L38.4619826,4.50027559 Z" id="path-25"></path>
        <linearGradient x1="19.2593657%" y1="6.28594562%" x2="67.9034713%" y2="98.9603652%" id="linearGradient-27">
            <stop stop-color="#FDE765" offset="0%"></stop>
            <stop stop-color="#F9CA35" offset="100%"></stop>
        </linearGradient>
        <linearGradient x1="50%" y1="1.331026%" x2="64.6055751%" y2="90.6779039%" id="linearGradient-28">
            <stop stop-color="#FCE141" offset="0%"></stop>
            <stop stop-color="#EFBE23" offset="100%"></stop>
        </linearGradient>
        <path d="M0.446773912,56.5356648 C0.446773912,87.6084128 25.5996024,111.294641 56.6208158,111.294641 L56.6208158,111.294641 C87.6450714,111.294641 112.794858,87.6084128 112.794858,56.5356648 L112.794858,56.5356648 C112.794858,25.4598695 87.6450714,0.265255343 56.6208158,0.265255343 L56.6208158,0.265255343 C25.5996024,0.265255343 0.446773912,25.4598695 0.446773912,56.5356648 L0.446773912,56.5356648 Z" id="path-29"></path>
        <path d="M0.0760547548,56.3156142 C0.0760547548,87.3883622 25.2288833,111.074591 56.2500967,111.074591 L56.2500967,111.074591 C87.2743523,111.074591 112.424139,87.3883622 112.424139,56.3156142 L112.424139,56.3156142 C112.424139,25.2398189 87.2743523,0.0452047244 56.2500967,0.0452047244 L56.2500967,0.0452047244 C25.2288833,0.0452047244 0.0760547548,25.2398189 0.0760547548,56.3156142 L0.0760547548,56.3156142 Z" id="path-31"></path>
        <linearGradient x1="0%" y1="37.0864511%" x2="91.3469267%" y2="67.2168776%" id="linearGradient-33">
            <stop stop-color="#FACF00" offset="0%"></stop>
            <stop stop-color="#F2A100" offset="100%"></stop>
        </linearGradient>
        <linearGradient x1="0%" y1="36.0178874%" x2="91.2186557%" y2="63.9821126%" id="linearGradient-34">
            <stop stop-color="#DB8F00" offset="0%"></stop>
            <stop stop-color="#C98300" offset="100%"></stop>
        </linearGradient>
    </defs>
    <g id="Page-1" stroke="none" stroke-width="1" fill="none" fill-rule="evenodd">
        <g id="FAQs---What's-Google-My-Business" transform="translate(-789.000000, -2661.000000)">
            <g id="img_generate_leads" transform="translate(793.000000, 2661.000000)">
                <ellipse id="Oval-4-Copy" fill="#000000" opacity="0.1" filter="url(#filter-1)" cx="389" cy="479" rx="83" ry="4"></ellipse>
                <ellipse id="Oval-4-Copy-3" fill-opacity="0.6" fill="#000000" opacity="0.1" filter="url(#filter-2)" cx="66" cy="485.5" rx="66" ry="7.5"></ellipse>
                <ellipse id="Oval-4-Copy-2" fill="#000000" opacity="0.1" filter="url(#filter-3)" cx="220.5" cy="459.5" rx="103.5" ry="5.5"></ellipse>
                <g id="Group-17">
                    <g id="Group-5" transform="translate(344.917868, 241.104120)">
                        <path d="M88.6410845,7.42064882 C74.2089342,7.01536535 52.8892653,18.9179008 34.7060946,38.9169638 C16.525966,58.9160268 6.68448068,81.2888929 8.43374004,95.6444598 L5.39154985,98.9903339 L21.4634406,113.653672 C33.4405434,124.578043 61.7755029,112.291554 85.9700415,85.6769244 C110.16458,59.0653417 119.73531,29.6594362 107.755165,18.7350661 L91.6832747,4.07172756 L88.6410845,7.42064882 Z" id="Fill-21" fill="url(#linearGradient-4)"></path>
                        <path d="M83.9500272,18.6186614 C93.0309649,26.9010709 85.4407004,49.1764252 67.5404533,68.8677165 C49.6402062,88.5559606 28.2079763,98.2065827 19.1239964,89.921126 C10.0461008,81.6387165 17.1952478,58.961126 35.0924527,39.2698346 C52.995742,19.5815906 74.8690895,10.3332047 83.9500272,18.6186614" id="Fill-23" fill="#FFC30D"></path>
                        <path d="M69.8975423,71.0154142 C45.7030037,97.6269969 17.3680442,109.916532 5.39094141,98.9921622 C-6.67742708,87.9824693 2.85679698,57.7355244 26.6467243,31.5657921 C50.4396938,5.39605984 79.6112556,-6.93613701 91.6826662,4.07355591 C103.659769,14.997926 94.0890387,44.4038315 69.8975423,71.0154142" id="Fill-25" fill="url(#linearGradient-5)"></path>
                        <path d="M29.6956073,34.3457929 C9.19732978,56.892352 0.980374071,82.9554307 11.3785802,92.4415016 C21.6398877,101.796541 46.0017467,91.1647063 66.8498761,68.2372417 C87.6949633,45.3067299 95.991016,20.0146039 85.7327507,10.6565173 C75.3315024,1.17044646 50.1938848,11.7961866 29.6956073,34.3457929" id="Fill-27" fill="#F0A700"></path>
                        <path d="M30.6137403,35.1819567 C10.6204664,57.1739173 2.6042952,82.5940276 12.7469573,91.8424134 C22.7527208,100.968909 46.5183106,90.602185 66.8492677,68.2354134 C87.1832669,45.871689 95.2724507,21.204248 85.2666871,12.077752 C75.124025,2.8263189 50.6039721,13.1899961 30.6137403,35.1819567" id="Fill-29" fill="url(#linearGradient-6)"></path>
                        <g id="Group-34" opacity="0.326004464" style="mix-blend-mode: multiply;" transform="translate(12.168761, 12.688724)">
                            <mask id="mask-8" fill="white">
                                <use xlink:href="#path-7"></use>
                            </mask>
                            <g id="Clip-33"></g>
                            <polygon id="Fill-32" fill="#FFDD00" mask="url(#mask-8)" points="16.5761621 85.0942913 8.4474299 88.5315827 39.9401828 -11.3570787 48.068915 -14.7913228"></polygon>
                        </g>
                        <g id="Group-37" opacity="0.326004464" style="mix-blend-mode: multiply;" transform="translate(12.168761, 12.688724)">
                            <mask id="mask-10" fill="white">
                                <use xlink:href="#path-9"></use>
                            </mask>
                            <g id="Clip-36"></g>
                            <polygon id="Fill-35" fill="#FFDD00" mask="url(#mask-10)" points="38.3497257 83.1108402 19.272151 91.1768953 53.2655843 -16.662026 72.3492433 -5.7925063"></polygon>
                        </g>
                    </g>
                    <g id="Group-4" transform="translate(285.965878, 15.236220)">
                        <path d="M109.907335,158.537213 C103.603917,151.296961 85.4694208,141.765181 63.0484791,134.552354 C40.6305796,127.342575 20.3422132,124.514732 11.0087737,126.730079 L7.25775314,125.52337 L0.917828781,145.296937 C-1.32426539,152.29341 20.2844116,165.289906 50.1191708,174.885677 C79.9508878,184.481449 105.076337,186.517008 107.318431,179.517488 L113.658355,159.743921 L109.907335,158.537213 Z" id="Fill-39" fill="url(#linearGradient-11)"></path>
                        <path d="M99.8598931,157.239696 C98.1593088,162.544948 78.9722152,160.835444 56.8980832,153.735365 C34.8269933,146.635287 18.2288036,136.838397 19.9324301,131.530098 C21.6299723,126.224846 40.9022471,127.681428 62.9763792,134.77846 C85.047469,141.878539 101.56352,151.934444 99.8598931,157.239696" id="Fill-41" fill="#FFC30D"></path>
                        <path d="M56.4578783,155.11211 C26.623119,145.516339 5.0144421,132.519843 7.25653627,125.52337 C9.51384139,118.472047 35.2233907,120.410095 64.5561886,129.844362 C93.8920286,139.281677 115.920528,152.692599 113.66018,159.743921 C111.415044,166.740394 86.2895953,164.704835 56.4578783,155.11211" id="Fill-43" fill="url(#linearGradient-12)"></path>
                        <path d="M63.9863863,131.625476 C38.708828,123.495429 16.5616834,121.825539 14.6146817,127.898697 C12.6920175,133.892626 31.3223902,145.063823 57.0288974,153.330996 C82.7323623,161.598169 104.371461,163.380807 106.294125,157.386878 C108.244169,151.310673 89.2639446,139.752476 63.9863863,131.625476" id="Fill-45" fill="#F0A700"></path>
                        <path d="M63.8138941,132.161182 C39.1599848,124.232253 17.5604345,122.601977 15.6621078,128.528867 C13.7881186,134.373481 31.9560784,145.267379 57.02981,153.330387 C82.1004994,161.396442 103.204173,163.133371 105.078162,157.288757 C106.976489,151.361867 88.4678035,140.090111 63.8138941,132.161182" id="Fill-47" fill="url(#linearGradient-13)"></path>
                        <g id="Group-52" opacity="0.401841518" style="mix-blend-mode: multiply;" transform="translate(20.553893, 125.808592)">
                            <mask id="mask-15" fill="white">
                                <use xlink:href="#path-14"></use>
                            </mask>
                            <g id="Clip-51"></g>
                            <polygon id="Fill-50" fill="#FFDD00" mask="url(#mask-15)" points="-1.78145001 11.2565197 -7.92058982 7.52059843 76.9717275 13.9259055 83.1047829 17.6618268"></polygon>
                        </g>
                        <g id="Group-55" opacity="0.401841518" style="mix-blend-mode: multiply;" transform="translate(20.553893, 125.808592)">
                            <mask id="mask-17" fill="white">
                                <use xlink:href="#path-16"></use>
                            </mask>
                            <g id="Clip-54"></g>
                            <polygon id="Fill-53" fill="#FFDD00" mask="url(#mask-17)" points="9.56135612 21.9413764 -4.84341444 13.1683606 86.8025651 20.0856047 101.207336 28.8555732"></polygon>
                        </g>
                        <path d="M51.1462142,76.6635537 C50.3217806,76.6635537 49.6585832,74.6219001 49.6585832,72.1048765 L49.6585832,4.74554578 C49.6585832,2.22852216 50.3217806,0.186868616 51.1462142,0.186868616 C51.9706477,0.186868616 52.6368874,2.22852216 52.6368874,4.74554578 L52.6368874,72.1048765 C52.6368874,74.6219001 51.9706477,76.6635537 51.1462142,76.6635537" id="Fill-93" fill="#EFF1F4"></path>
                        <path d="M67.6434032,69.1776938 C66.8189696,69.1776938 66.15273,67.8917568 66.15273,66.3041426 L66.15273,26.8819458 C66.15273,25.2943316 66.8189696,24.0053474 67.6434032,24.0053474 C68.4678367,24.0053474 69.1340764,25.2943316 69.1340764,26.8819458 L69.1340764,66.3041426 C69.1340764,67.8917568 68.4678367,69.1776938 67.6434032,69.1776938" id="Fill-95" fill="#EFF1F4"></path>
                    </g>
                    <g id="Group-14" transform="translate(0.000000, 71.610236)">
                        <path d="M104.58046,129.710588 C95.3991296,126.928454 74.979949,128.50388 52.1604804,134.324116 C29.3410118,140.144352 10.6558796,148.545604 3.9204705,155.386667 L0.10252181,156.358738 L5.21948571,176.488832 C7.02958888,183.607195 32.2341346,183.119636 62.5982349,175.373541 C92.9592931,167.627447 115.328518,155.983927 113.518414,148.862517 L108.398408,128.73547 L104.58046,129.710588 Z" id="Fill-97" fill="url(#linearGradient-18)"></path>
                        <path d="M95.3827018,133.956923 C96.7547296,139.353592 79.5906925,148.114419 57.1241179,153.846285 C34.6605855,159.578151 15.4004794,160.108372 14.0284516,154.708655 C12.6564239,149.305891 29.7535327,140.283002 52.2201073,134.554183 C74.6836397,128.822317 94.0076318,128.557206 95.3827018,133.956923" id="Fill-99" fill="#FFC30D"></path>
                        <g id="Group-103" transform="translate(0.000000, 122.761348)">
                            <mask id="mask-20" fill="white">
                                <use xlink:href="#path-19"></use>
                            </mask>
                            <g id="Clip-102"></g>
                            <path d="M57.4800542,32.4875835 C27.1159538,40.2306307 1.9114081,40.7181898 0.101304933,33.5967803 C-1.72096699,26.4205205 21.0863329,14.3869535 50.9423874,6.77189055 C80.8014842,-0.843172441 106.57492,-1.20274724 108.400234,5.9735126 C110.210337,13.0979693 87.8441545,24.741489 57.4800542,32.4875835" id="Fill-101" fill="url(#linearGradient-21)" mask="url(#mask-20)"></path>
                        </g>
                        <path d="M51.402975,131.344216 C25.6751726,137.904932 6.02566612,148.274704 7.59847845,154.457562 C9.14695325,160.558145 30.8560225,160.107153 57.0188581,153.436736 C83.1816938,146.763271 102.463095,136.756121 100.911578,130.655539 C99.3387659,124.47268 77.1307775,124.780452 51.402975,131.344216" id="Fill-104" fill="#F0A700"></path>
                        <path d="M51.5410905,131.888758 C26.4491058,138.291018 7.28330754,148.401774 8.8165714,154.43227 C10.3285399,160.383538 31.5021837,159.944735 57.020075,153.435821 C82.5349242,146.929955 101.341744,137.166585 99.8267332,131.218365 C98.2934694,125.187869 76.6330752,125.486499 51.5410905,131.888758" id="Fill-106" fill="url(#linearGradient-22)"></path>
                        <g id="Group-111" opacity="0.398549107" style="mix-blend-mode: multiply;" transform="translate(13.319137, 128.332214)">
                            <mask id="mask-24" fill="white">
                                <use xlink:href="#path-23"></use>
                            </mask>
                            <g id="Clip-110"></g>
                            <polygon id="Fill-109" fill="#FFDD00" mask="url(#mask-24)" points="2.66209681 31.6810835 -4.51747205 31.7785953 70.7980306 -7.96660945 77.9775994 -8.06412126"></polygon>
                        </g>
                        <g id="Group-114" opacity="0.398549107" style="mix-blend-mode: multiply;" transform="translate(13.319137, 128.332214)">
                            <mask id="mask-26" fill="white">
                                <use xlink:href="#path-25"></use>
                            </mask>
                            <g id="Clip-113"></g>
                            <polygon id="Fill-112" fill="#FFDD00" mask="url(#mask-26)" points="17.9384549 34.695722 1.081679 34.9303598 82.3933385 -7.97788425 99.2501143 -8.21252205"></polygon>
                        </g>
                        <path d="M50.6454697,76.7616749 C49.8210361,76.7616749 49.1547965,74.7200214 49.1547965,72.2029978 L49.1547965,4.84366704 C49.1547965,2.32664342 49.8210361,0.284989876 50.6454697,0.284989876 C51.4699032,0.284989876 52.1361429,2.32664342 52.1361429,4.84366704 L52.1361429,72.2029978 C52.1361429,74.7200214 51.4699032,76.7616749 50.6454697,76.7616749" id="Fill-116" fill="#EFF1F4"></path>
                        <path d="M67.1429629,69.2742915 C66.3185293,69.2742915 65.6522897,67.9883544 65.6522897,66.4007403 L65.6522897,26.9754962 C65.6522897,25.3909292 66.3185293,24.1049922 67.1429629,24.1049922 C67.9673964,24.1049922 68.6336361,25.3909292 68.6336361,26.9754962 L68.6336361,66.4007403 C68.6336361,67.9883544 67.9673964,69.2742915 67.1429629,69.2742915" id="Fill-118" fill="#EFF1F4"></path>
                    </g>
                    <g id="Group-8" transform="translate(139.940749, 0.000000)">
                        <path d="M132.723761,283.542784 C132.723761,314.908067 107.336684,338.813697 76.0234203,338.813697 C44.7131988,338.813697 19.3291638,314.908067 19.3291638,283.542784 C19.3291638,252.1775 44.7131988,226.748248 76.0234203,226.748248 C107.336684,226.748248 132.723761,252.1775 132.723761,283.542784" id="Fill-1" fill="#FFC30D"></path>
                        <path d="M76.0243329,346.94862 C33.701383,346.94862 0.550636425,314.544226 0.550636425,273.177888 C0.550636425,231.491588 34.4071711,197.575762 76.0243329,197.575762 C117.641495,197.575762 151.501072,231.491588 151.501072,273.177888 C151.501072,314.544226 118.347283,346.94862 76.0243329,346.94862" id="Fill-3" fill="url(#linearGradient-27)"></path>
                        <path d="M76.0243329,208.099724 C40.1660371,208.099724 10.9944754,237.322795 10.9944754,273.240661 C10.9944754,308.670968 39.5575991,336.425267 76.0243329,336.425267 C112.491067,336.425267 141.057233,308.670968 141.057233,273.240661 C141.057233,237.322795 111.885671,208.099724 76.0243329,208.099724" id="Fill-5" fill="#F0A700"></path>
                        <path d="M76.0243329,211.268858 C41.0513145,211.268858 12.5977096,239.769732 12.5977096,274.80085 C12.5977096,309.353551 40.4580874,336.425267 76.0243329,336.425267 C111.590578,336.425267 139.453998,309.353551 139.453998,274.80085 C139.453998,239.769732 111.000394,211.268858 76.0243329,211.268858" id="Fill-7" fill="url(#linearGradient-28)"></path>
                        <g id="Group-12" opacity="0.445145089" style="mix-blend-mode: multiply;" transform="translate(19.403517, 216.482242)">
                            <mask id="mask-30" fill="white">
                                <use xlink:href="#path-29"></use>
                            </mask>
                            <g id="Clip-11"></g>
                            <polygon id="Fill-10" fill="#FFDD00" mask="url(#mask-30)" points="0.714486649 98.7143987 -8.71630295 89.2648947 103.093313 -22.7304675 112.527145 -13.2840108"></polygon>
                        </g>
                        <g id="Group-15" opacity="0.445145089" style="mix-blend-mode: multiply;" transform="translate(19.774236, 216.702293)">
                            <mask id="mask-32" fill="white">
                                <use xlink:href="#path-31"></use>
                            </mask>
                            <g id="Clip-14"></g>
                            <polygon id="Fill-13" fill="#FFDD00" mask="url(#mask-32)" points="19.3367693 136.200946 -2.80733311 114.020057 117.906774 -6.89154173 140.050876 15.2863008"></polygon>
                        </g>
                        <path d="M44.2982441,153.606467 C43.1848024,153.606467 42.2843142,150.851758 42.2843142,147.451034 L42.2843142,6.22650641 C42.2843142,2.825782 43.1848024,0.0710733408 44.2982441,0.0710733408 C45.4086435,0.0710733408 46.312174,2.825782 46.312174,6.22650641 L46.312174,147.451034 C46.312174,150.851758 45.4086435,153.606467 44.2982441,153.606467" id="Fill-195" fill="#EFF1F4"></path>
                        <path d="M63.8376232,145.080583 C62.7272238,145.080583 61.8236933,143.343654 61.8236933,141.201441 L61.8236933,96.6781576 C61.8236933,94.535945 62.7272238,92.7990159 63.8376232,92.7990159 C64.9510648,92.7990159 65.8515531,94.535945 65.8515531,96.6781576 L65.8515531,141.201441 C65.8515531,143.343654 64.9510648,145.080583 63.8376232,145.080583" id="Fill-197" fill="#EFF1F4"></path>
                        <path d="M83.3788277,153.606467 C82.2653861,153.606467 81.3648978,151.869538 81.3648978,149.727325 L81.3648978,73.9423647 C81.3648978,71.8001521 82.2653861,70.0632229 83.3788277,70.0632229 C84.4892271,70.0632229 85.3927576,71.8001521 85.3927576,73.9423647 L85.3927576,149.727325 C85.3927576,151.869538 84.4892271,153.606467 83.3788277,153.606467" id="Fill-199" fill="#EFF1F4"></path>
                    </g>
                    <g id="Group-9" transform="translate(30.051183, 329.474199)">
                        <path d="M3.06609967,19.3609701 C6.88404836,25.7327575 19.3174797,34.7160331 35.2737672,42.0446551 C51.2300548,49.3763244 66.1398289,52.9507417 73.450212,51.6922299 L76.121255,52.9202693 L82.9418454,38.0192457 C85.527707,32.3757496 70.9191097,20.3117102 49.6907066,10.5605291 C28.4592612,0.806300787 9.80150876,-2.41158898 7.21868928,3.23495433 L0.398098868,18.135978 L3.06609967,19.3609701 Z" id="Fill-249" fill="url(#linearGradient-33)"></path>
                        <path d="M10.4634893,21.0482291 C12.4226598,16.7668512 26.6509834,19.3539614 42.3578113,26.5698354 C58.0676815,33.7857094 69.3085742,42.8969693 67.3494038,47.1783472 C65.3902333,51.456678 51.0645597,49.0767803 35.3577317,41.8639535 C19.6509037,34.6480795 8.50127667,25.3265598 10.4634893,21.0482291" id="Fill-251" fill="#FFC30D"></path>
                        <path d="M42.8685951,25.4585055 C64.1000404,35.2127339 78.7055955,47.273726 76.1197339,52.9202693 C73.5156191,58.609474 54.4106647,55.4342457 33.5351555,45.8445685 C12.6566043,36.2548913 -2.20753703,23.8251827 0.396577773,18.135978 C2.98243944,12.4894346 21.6371497,15.7073244 42.8685951,25.4585055" id="Fill-253" fill="#F2A500"></path>
                        <path d="M34.1919644,44.4087071 C52.180435,52.6728331 68.6417262,55.406211 70.8868625,50.5031953 C73.101577,45.6672189 60.5038674,35.3004945 42.2111778,26.8961953 C23.9154459,18.4918961 7.85268172,15.6975732 5.63796726,20.5335496 C3.39283089,25.4335181 16.2034938,36.1445811 34.1919644,44.4087071" id="Fill-255" fill="url(#linearGradient-34)"></path>
                    </g>
                </g>
            </g>
        </g>
    </g>
</svg>