<?xml version="1.0" encoding="UTF-8"?>
<svg width="334px" height="268px" viewBox="0 0 334 268" version="1.1" xmlns="http://www.w3.org/2000/svg" xmlns:xlink="http://www.w3.org/1999/xlink">
    <!-- Generator: Sketch 63.1 (92452) - https://sketch.com -->
    <title>img_backlink_source_mob</title>
    <desc>Created with Sketch.</desc>
    <defs>
        <filter x="-9.4%" y="-13.7%" width="118.8%" height="127.3%" filterUnits="objectBoundingBox" id="filter-1">
            <feOffset dx="0" dy="5" in="SourceAlpha" result="shadowOffsetOuter1"></feOffset>
            <feGaussianBlur stdDeviation="5" in="shadowOffsetOuter1" result="shadowBlurOuter1"></feGaussianBlur>
            <feColorMatrix values="0 0 0 0 0   0 0 0 0 0   0 0 0 0 0  0 0 0 0.25 0" type="matrix" in="shadowBlurOuter1" result="shadowMatrixOuter1"></feColorMatrix>
            <feMerge>
                <feMergeNode in="shadowMatrixOuter1"></feMergeNode>
                <feMergeNode in="SourceGraphic"></feMergeNode>
            </feMerge>
        </filter>
        <linearGradient x1="0%" y1="30.7990907%" x2="100%" y2="69.2009093%" id="linearGradient-2">
            <stop stop-color="#ADDBFF" offset="0%"></stop>
            <stop stop-color="#AAD9FF" offset="0.0642956149%"></stop>
            <stop stop-color="#74B5FF" offset="100%"></stop>
        </linearGradient>
        <filter x="-43.4%" y="-39.3%" width="186.8%" height="178.7%" filterUnits="objectBoundingBox" id="filter-3">
            <feOffset dx="0" dy="5" in="SourceAlpha" result="shadowOffsetOuter1"></feOffset>
            <feGaussianBlur stdDeviation="5" in="shadowOffsetOuter1" result="shadowBlurOuter1"></feGaussianBlur>
            <feColorMatrix values="0 0 0 0 0   0 0 0 0 0   0 0 0 0 0  0 0 0 0.25 0" type="matrix" in="shadowBlurOuter1" result="shadowMatrixOuter1"></feColorMatrix>
            <feMerge>
                <feMergeNode in="shadowMatrixOuter1"></feMergeNode>
                <feMergeNode in="SourceGraphic"></feMergeNode>
            </feMerge>
        </filter>
        <polygon id="path-4" points="0 0.0137845593 67.3693203 0.0137845593 67.3693203 74.6887821 0 74.6887821"></polygon>
        <linearGradient x1="31.2331814%" y1="100%" x2="68.8702343%" y2="11.9473853%" id="linearGradient-6">
            <stop stop-color="#427FDF" offset="0%"></stop>
            <stop stop-color="#396BB1" offset="100%"></stop>
        </linearGradient>
        <filter x="-11.4%" y="-11.4%" width="122.9%" height="122.9%" filterUnits="objectBoundingBox" id="filter-7">
            <feOffset dx="0" dy="2" in="SourceAlpha" result="shadowOffsetOuter1"></feOffset>
            <feGaussianBlur stdDeviation="4.5" in="shadowOffsetOuter1" result="shadowBlurOuter1"></feGaussianBlur>
            <feColorMatrix values="0 0 0 0 0   0 0 0 0 0   0 0 0 0 0  0 0 0 0.3 0" type="matrix" in="shadowBlurOuter1" result="shadowMatrixOuter1"></feColorMatrix>
            <feMerge>
                <feMergeNode in="shadowMatrixOuter1"></feMergeNode>
                <feMergeNode in="SourceGraphic"></feMergeNode>
            </feMerge>
        </filter>
        <polygon id="path-8" points="22.8069877 14.9974367 15.3469947 22.426965 0.428696431 7.56958939 7.88868944 0.140061153"></polygon>
        <linearGradient x1="16.6709495%" y1="16.9425888%" x2="83.3336043%" y2="83.0618875%" id="linearGradient-10">
            <stop stop-color="#C5C6C8" offset="0%"></stop>
            <stop stop-color="#F1F1F2" offset="100%"></stop>
        </linearGradient>
        <polygon id="path-11" points="0.447262025 15.2355755 52.6587742 67.2355496 67.5770725 52.378174 15.3655603 0.378199967"></polygon>
        <linearGradient x1="74.1460738%" y1="99.5949521%" x2="24.1234557%" y2="8.56738804%" id="linearGradient-13">
            <stop stop-color="#427FDF" offset="0%"></stop>
            <stop stop-color="#396BB1" offset="100%"></stop>
        </linearGradient>
        <linearGradient x1="50%" y1="0%" x2="50%" y2="100%" id="linearGradient-14">
            <stop stop-color="#DA3E3F" offset="0%"></stop>
            <stop stop-color="#FF5254" offset="100%"></stop>
        </linearGradient>
        <linearGradient x1="50%" y1="0%" x2="50%" y2="100%" id="linearGradient-15">
            <stop stop-color="#DA3E3F" offset="0%"></stop>
            <stop stop-color="#FF5254" offset="100%"></stop>
        </linearGradient>
        <linearGradient x1="14.6447917%" y1="14.9330809%" x2="85.3554053%" y2="85.0666486%" id="linearGradient-16">
            <stop stop-color="#FEFEFE" offset="0%"></stop>
            <stop stop-color="#C5C6C8" offset="100%"></stop>
        </linearGradient>
        <path d="M108.951341,19.1105844 C133.874807,43.9322684 133.874807,84.1777875 108.951341,108.999472 C84.0278761,133.821156 43.6173302,133.821156 18.6938648,108.999472 C-6.23128828,84.1777875 -6.23128828,43.9322684 18.6938648,19.1105844 C43.6173302,-5.71109964 84.0278761,-5.71109964 108.951341,19.1105844" id="path-17"></path>
        <linearGradient x1="165.997457%" y1="217.873755%" x2="30.915411%" y2="3.51617322%" id="linearGradient-19">
            <stop stop-color="#427FDF" offset="0%"></stop>
            <stop stop-color="#396BB1" offset="100%"></stop>
        </linearGradient>
    </defs>
    <g id="Page-1" stroke="none" stroke-width="1" fill="none" fill-rule="evenodd">
        <g id="FAQs---What-is-a-Backlink---Mobile" transform="translate(-21.000000, -7727.000000)">
            <g id="img_backlink_source_mob" transform="translate(31.000000, 7732.000000)">
                <g id="img_analyse_website">
                    <g id="img_blogs" filter="url(#filter-1)">
                        <rect id="Rectangle" fill="#FFFFFF" x="0" y="0" width="313.444248" height="215.992021" rx="13"></rect>
                        <path d="M13,0 L301,0 C308.179702,-1.31888981e-15 314,5.82029825 314,13 L314,36.6464612 L314,36.6464612 L0,36.6464612 L0,13 C-8.79259876e-16,5.82029825 5.82029825,3.09524665e-15 13,0 Z" id="Rectangle-2" fill="#FF5254"></path>
                        <polygon id="Fill-5" fill="#E9ECED" points="0 56.0801906 313.444248 56.0801906 313.444248 36.6464612 0 36.6464612"></polygon>
                        <path d="M55.5752212,19.9897449 C55.5752212,22.749223 53.336195,24.9862235 50.5742181,24.9862235 C47.8122412,24.9862235 45.5716814,22.749223 45.5716814,19.9897449 C45.5716814,17.2302669 47.8122412,14.9917341 50.5742181,14.9917341 C53.336195,14.9917341 55.5752212,17.2302669 55.5752212,19.9897449" id="Fill-6" fill="#FFFFFF"></path>
                        <path d="M41.1256637,19.9897449 C41.1256637,22.749223 38.8851039,24.9862235 36.123127,24.9862235 C33.3611501,24.9862235 31.1221239,22.749223 31.1221239,19.9897449 C31.1221239,17.2302669 33.3611501,14.9917341 36.123127,14.9917341 C38.8851039,14.9917341 41.1256637,17.2302669 41.1256637,19.9897449" id="Fill-7" fill="#FFFFFF"></path>
                        <path d="M27.2318584,19.9897449 C27.2318584,22.749223 24.9928322,24.9862235 22.2293217,24.9862235 C19.4673448,24.9862235 17.2283186,22.749223 17.2283186,19.9897449 C17.2283186,17.2302669 19.4673448,14.9917341 22.2293217,14.9917341 C24.9928322,14.9917341 27.2318584,17.2302669 27.2318584,19.9897449" id="Fill-8" fill="#FFFFFF"></path>
                        <path d="M68.0787611,16.1022329 L264.816814,16.1022329 C266.197526,16.1022329 267.316814,17.2215211 267.316814,18.6022329 L267.316814,19.1547271 C267.316814,20.5354389 266.197526,21.6547271 264.816814,21.6547271 L68.0787611,21.6547271 C66.6980492,21.6547271 65.5787611,20.5354389 65.5787611,19.1547271 L65.5787611,18.6022329 C65.5787611,17.2215211 66.6980492,16.1022329 68.0787611,16.1022329 Z" id="Rectangle-3" fill="#FFFFFF"></path>
                        <polygon id="Fill-10" fill="#FFFFFF" points="286.488652 12.7707365 287.603858 16.1640825 291.214159 16.1640825 288.292995 18.261381 289.409816 21.6547271 286.488652 19.5574285 283.569101 21.6547271 284.684308 18.261381 281.766372 16.1640825 285.375059 16.1640825"></polygon>
                        <g id="Group-7" transform="translate(123.376991, 82.176913)" fill="#DADFE1">
                            <polygon id="Fill-16" points="0 38.8674588 89.3845705 38.8674588 89.3845705 32.0656535 0 32.0656535"></polygon>
                            <polygon id="Fill-17" points="0 22.3487888 126.868423 22.3487888 126.868423 15.5469835 0 15.5469835"></polygon>
                            <polygon id="Fill-18" points="0 6.8018053 163.39115 6.8018053 163.39115 0 0 0"></polygon>
                        </g>
                        <g id="Group-7-Copy" transform="translate(123.376991, 148.806842)" fill="#DADFE1">
                            <polygon id="Fill-16" points="0 38.8674588 89.3845705 38.8674588 89.3845705 32.0656535 0 32.0656535"></polygon>
                            <polygon id="Fill-17" points="0 22.3487888 126.868423 22.3487888 126.868423 15.5469835 0 15.5469835"></polygon>
                            <polygon id="Fill-18" points="0 6.8018053 163.39115 6.8018053 163.39115 0 0 0"></polygon>
                        </g>
                        <rect id="Rectangle-4" fill="url(#linearGradient-2)" x="20.0070796" y="74.4034212" width="87.8088496" height="54.4144424"></rect>
                        <g id="img_thumbs_up_mob" filter="url(#filter-3)" transform="translate(24.257511, 103.622340)">
                            <g id="Group-5">
                                <mask id="mask-5" fill="white">
                                    <use xlink:href="#path-4"></use>
                                </mask>
                                <g id="Clip-4"></g>
                                <path d="M39.637296,0.0137369029 C37.7213965,0.0137369029 36.0385285,0.764960703 34.8990381,2.12904587 C32.9422257,4.47215246 33.403311,7.41827143 33.7083678,9.36773611 C33.7583031,9.68655746 33.8438621,10.2333353 33.8676631,10.5307113 C33.2930177,12.5049573 29.6567597,20.6688172 26.649905,23.8811766 C23.0446038,27.7321318 21.6271244,32.3835558 20.9459191,34.6188001 C20.9028285,34.7595453 20.8306478,34.9963977 20.7707565,35.1860702 C20.7209767,35.246435 20.6620187,35.3156956 20.594816,35.3927401 L19.8650755,35.5018733 L2.81534257,38.0499024 L-1.55561833e-05,38.4705496 L0.159590888,41.3715539 L0.232704952,42.7037092 C0.886220229,54.5909641 6.3056835,65.6636121 15.1013053,73.0824436 L15.6997517,73.5876015 L17.00476,74.6887821 L18.6190251,74.1680565 L19.3599662,73.9289802 C23.8633258,72.4762541 27.977003,71.6429024 30.6465997,71.6429024 C30.8698309,71.6429024 31.0846618,71.6489389 31.2848699,71.6606941 C34.1481411,71.8279681 36.1233097,72.0344792 37.7105071,72.2006412 L37.7232632,72.2019121 C39.3389284,72.3707746 40.7343181,72.5162855 42.2116889,72.5162855 L42.2204003,72.5162855 L42.2294229,72.5162855 L42.4682104,72.5148558 L42.4775441,72.5148558 L42.4868778,72.5146969 C45.6175597,72.4773661 50.8576602,72.4146185 56.4930433,70.8761109 L56.5980476,70.847517 L56.8387017,70.7822277 L57.0661331,70.6784956 L57.1692706,70.6314746 C58.4906129,70.0302097 60.4356025,69.037209 62.0486232,67.3693937 C63.9831902,65.3694132 64.9641631,62.9301996 64.9641631,60.1192659 C64.9641631,59.7515173 64.9445624,59.3917115 64.9055163,59.0403249 C66.4930249,57.3211995 67.3694603,54.9236058 67.3694603,52.1608051 C67.3694603,50.805457 67.3694603,48.9509874 66.7329012,47.1832525 C67.3694603,45.4725464 67.3694603,43.6840015 67.3694603,42.3739269 L67.3694603,42.3022835 C67.3694603,41.4808459 67.3694603,39.9515518 66.953799,38.3637993 C66.6073628,37.040222 66.0670966,36.0281589 65.4583831,35.255172 C65.6627914,34.469159 65.7657733,33.7044325 65.7657733,32.9670291 C65.7657733,30.1977154 64.6675067,27.7391214 62.6736707,26.0439831 C60.8178179,24.4662384 58.3067388,23.6324102 55.4115774,23.6324102 C55.235637,23.6324102 55.0777417,23.6393998 54.9612259,23.644642 L54.8163978,23.6505196 L54.7040822,23.6551264 L54.5925444,23.6678348 L54.5398089,23.6738712 C53.0493709,23.8425749 51.6373361,24.0911825 50.6064279,24.2725945 L50.5561814,24.2814904 C50.2624806,24.3329593 49.7995286,24.4141341 49.5731861,24.4484467 L47.5625494,24.4484467 C48.159129,21.6854872 48.7147959,19.6133867 49.1295238,18.6424668 C50.6114058,15.1754634 50.1328976,9.70228407 47.9915889,5.62924998 C46.4001913,2.60243283 43.989294,0.660434321 41.2027148,0.160518631 C40.6582484,0.0631407095 40.1318271,0.0137369029 39.637296,0.0137369029 M26.971918,67.3528728 C28.4214432,67.3528728 31.1149964,67.0313509 31.5188349,67.0313509 C31.529102,67.0313509 31.5378134,67.0316687 31.5449693,67.0319864 C37.4217844,67.3757479 39.6950095,67.8802704 42.2118444,67.8802704 C42.2854252,67.8802704 42.3594726,67.8802704 42.4338312,67.8788407 C45.4873545,67.842463 50.3270388,67.7606528 55.3201071,66.3975208 C58.8541609,64.7897525 60.4242465,62.8504545 60.4242465,60.1192659 C60.4242465,58.6388991 59.8424452,57.681482 58.8466939,57.1102405 C61.5884713,56.9213623 62.8297039,54.7912798 62.8297039,52.1854276 C62.8297039,49.771313 62.8382551,47.5710168 60.3716666,47.1076376 C62.854278,46.6969983 62.8297039,44.7349841 62.8297039,42.3022835 C62.8297039,39.5725246 62.4692624,37.1951054 59.5409664,37.1951054 C59.526188,37.1951054 61.2258566,34.884564 61.2258566,32.9670291 C61.2258566,30.238541 59.2086863,28.2682664 55.4115774,28.2682664 C55.2879058,28.2682664 55.1673453,28.2766857 55.0446071,28.2811336 C52.6127089,28.5562699 50.2996599,29.0843029 49.7505266,29.0843029 L42.0306149,29.0843029 C42.0306149,29.0843029 43.5865444,20.0238672 44.9685558,16.7886327 C46.3516561,13.5527628 44.6813886,5.49136411 40.4175942,4.72663766 C40.1259158,4.67437447 39.8670609,4.649752 39.637296,4.649752 C36.5097253,4.649752 38.8265078,9.23811069 38.3436438,11.3747062 C37.8250006,13.6699975 33.6764776,23.0838849 29.9313264,27.0844813 C26.1866418,31.0844422 25.3798981,36.2627872 24.8036971,37.3803299 C24.3427674,38.2745229 21.3340459,41.5434346 18.7038063,42.8722541 C18.7038063,42.8722541 21.5235202,63.5614881 26.0849044,67.2391329 C26.1871085,67.3215785 26.5186108,67.3528728 26.971918,67.3528728 M39.637296,3.19083058 C39.9526199,3.19083058 40.2981227,3.22419006 40.6646264,3.28979705 C42.5179901,3.6222799 44.1036319,4.95094048 45.2504338,7.13201529 C46.9219457,10.3114918 47.3732306,14.8094622 46.2779197,17.3719471 C45.3311704,19.5882876 44.2637051,24.8832319 43.7486398,27.6255403 L49.7505266,27.6255403 C49.9115331,27.6187096 50.561626,27.5040165 51.1348714,27.4036204 C52.1290671,27.2285625 53.4906999,26.9893273 54.8871785,26.8311081 L54.9399139,26.8252305 L55.0931424,26.8188763 C55.1989244,26.8139518 55.3043953,26.809345 55.4115774,26.809345 C59.8114884,26.809345 62.6545366,29.2266367 62.6545366,32.9670291 C62.6545366,34.0670978 62.2724767,35.2032265 61.7781012,36.2132246 C64.2582235,37.4661115 64.2582235,40.8527345 64.2582235,42.3022835 L64.2582235,42.3737681 C64.2582235,43.9214892 64.2582235,45.8461726 63.2134702,47.1527524 C64.2582235,48.5297048 64.2582235,50.5427113 64.2582235,52.1608051 C64.2582235,54.7925507 63.1899804,56.823349 61.3996192,57.8473263 C61.6760526,58.4541511 61.8529264,59.2012447 61.8529264,60.1192659 C61.8529264,64.5142985 58.4563893,66.5674953 55.9015972,67.7301527 L55.7984597,67.7771737 L55.6894109,67.8067207 C50.4311097,69.2422904 45.4352413,69.3020198 42.4504763,69.3377621 L42.2116889,69.3391918 C40.8895688,69.3391918 39.6267178,69.2070247 38.0276977,69.0400684 C36.4075212,68.8705705 34.390662,68.6596115 31.4634549,68.4886838 C31.2046,68.4735926 30.9295667,68.4658087 30.6465997,68.4658087 C26.5739908,68.4658087 21.239931,69.990496 18.4228617,70.8994625 L17.6817651,71.1385388 L17.0826964,70.6329043 C8.95350153,63.7761008 3.94425482,53.5314033 3.33896371,42.5256331 L3.26569409,41.1934778 L20.3155825,38.6454486 L20.2535134,40.088008 C21.9094691,38.7305947 23.3246151,37.1031285 23.5400683,36.6996376 C23.6142713,36.5546033 23.7818114,36.0046484 23.9165279,35.5628735 C24.5742434,33.4049915 25.7983595,29.3881919 28.8988624,26.0763895 C32.4900075,22.2400489 36.4887245,13.094467 36.9515209,11.0466713 C37.052325,10.600925 36.9079636,9.68020327 36.7808696,8.86750271 C36.5154811,7.17188781 36.2407589,5.41860867 37.266067,4.19097967 C37.6471935,3.73474902 38.3677559,3.19083058 39.637296,3.19083058" id="Fill-3" fill="url(#linearGradient-6)" mask="url(#mask-5)"></path>
                            </g>
                            <path d="M62.5925285,52.3678986 C62.5925285,54.9740674 61.3583887,57.1045385 58.6322887,57.2936101 C59.6223463,57.8647969 60.2008209,58.8225477 60.2008209,60.3028668 C60.2008209,63.0348715 58.639713,64.9745233 55.1260214,66.582585 C50.1613486,67.9459657 45.3494921,68.0277908 42.313274,68.0641752 C39.7195735,68.0951575 37.5009535,67.5710003 31.4868289,67.2171663 C31.1054069,67.1949226 26.4927683,67.7769135 26.0578297,67.4241918 C21.5225273,63.7458759 18.7189365,43.0530257 18.7189365,43.0530257 C21.3341364,41.7239638 24.3256542,38.4542968 24.7839483,37.5600995 C25.3568547,36.4423529 26.1589854,31.263063 29.8824127,27.2622133 C33.6059946,23.260887 37.7307966,13.8452818 38.2464742,11.5495717 C38.7618424,9.25576817 36.0693063,4.13637745 40.3085658,4.90044902 C44.54798,5.665315 46.2086969,13.7280257 44.8335051,16.964486 C43.4593961,20.2004697 41.9123633,29.2625587 41.9123633,29.2625587 L49.5881329,29.2625587 C50.1341263,29.2625587 52.4339493,28.7344294 54.851942,28.4592429 C54.9739785,28.4546353 55.0940042,28.4462144 55.2168141,28.4462144 C58.9922112,28.4462144 60.9978475,30.4170075 60.9978475,33.1459934 C60.9978475,35.0638781 59.3078975,37.3748411 59.3225913,37.3748411 C62.2341435,37.3748411 62.5925285,39.7526941 62.5925285,42.4827922 C62.5925285,44.9160956 62.6169575,46.8783089 60.1485416,47.2890232 C62.6010263,47.7526458 62.5925285,49.9533435 62.5925285,52.3678986 L62.5925285,52.3678986 Z M64.0128755,42.4827922 C64.0128755,41.0331376 64.0128755,37.6458967 61.5469343,36.3927812 C62.038483,35.3825988 62.4183582,34.245945 62.4183582,33.1459934 C62.4183582,29.4047596 59.5915665,26.9871857 55.2168141,26.9871857 C55.1102448,26.9871857 55.005377,26.9917933 54.9003544,26.9965598 L54.7478475,27.0027563 L54.6954136,27.0091116 C53.30692,27.167042 51.953073,27.4064797 50.9645621,27.5814106 C50.3945945,27.681984 49.7482188,27.796698 49.5881329,27.80353 L43.6205647,27.80353 C44.1326848,25.0607212 45.1940464,19.7646518 46.1353822,17.5480658 C47.2244302,14.9849544 46.7757257,10.4863222 45.1137714,7.30610666 C43.9735269,5.12479276 42.3969518,3.79588975 40.5541855,3.46334623 C40.1897775,3.39772727 39.8462502,3.3643617 39.5327294,3.3643617 C38.2704484,3.3643617 37.5540061,3.90837939 37.1750589,4.36469329 C36.1556135,5.59254628 36.4287648,7.34598646 36.6926358,9.04206963 C36.8190031,9.8547596 36.9625391,10.7758082 36.8623114,11.2216358 C36.4021612,13.2696463 32.4263087,22.4170558 28.8556977,26.2540964 C25.7729233,29.5663443 24.5558066,33.5837179 23.9018519,35.7421525 C23.7679057,36.1841669 23.6013236,36.7342222 23.5276996,36.879283 C23.3133237,37.2828475 21.9062694,38.9106107 20.2597823,40.2682716 L20.3214966,38.825449 L3.36909871,41.3739431 L3.44194938,42.7061826 C4.04377946,53.713961 9.02438351,63.9606867 17.107096,70.8187414 L17.7027392,71.3244681 L18.4395982,71.0853482 C21.2405597,70.1762158 26.5442742,68.6510915 30.5934414,68.6510915 C30.8749451,68.6510915 31.1482511,68.6588768 31.4056259,68.6741296 C34.31625,68.8450884 36.3214222,69.0559271 37.9323346,69.2256148 C39.5222116,69.3924427 40.7778417,69.5246339 42.0924019,69.5246339 L42.329824,69.5233628 C45.2976768,69.487614 50.2648244,69.4278737 55.4930589,67.992042 L55.6014842,67.9623308 L55.7040319,67.9153012 C58.2442158,66.7525905 61.6213317,64.6988602 61.6213317,60.3028668 C61.6213317,59.3849959 61.4454692,58.637766 61.1706165,58.0308303 C62.9507404,57.0065073 64.0128755,54.9754974 64.0128755,52.3432716 C64.0128755,50.7247237 64.0128755,48.7113498 62.974096,47.3339873 C64.0128755,46.0274869 64.0128755,44.1024523 64.0128755,42.5542899 L64.0128755,42.4827922 Z" id="Fill-1" fill="#FFFFFF"></path>
                        </g>
                    </g>
                    <g id="Group" filter="url(#filter-7)" transform="translate(126.004292, 65.268617)">
                        <g id="Group-3" transform="translate(109.705780, 110.402466)">
                            <mask id="mask-9" fill="white">
                                <use xlink:href="#path-8"></use>
                            </mask>
                            <g id="Clip-2"></g>
                            <polygon id="Fill-1" fill="url(#linearGradient-10)" mask="url(#mask-9)" points="22.8069877 14.9974367 15.3469947 22.426965 0.428696431 7.56958939 7.88868944 0.140061153"></polygon>
                        </g>
                        <g id="Group-6" transform="translate(119.832467, 119.970632)">
                            <mask id="mask-12" fill="white">
                                <use xlink:href="#path-11"></use>
                            </mask>
                            <g id="Clip-5"></g>
                            <polygon id="Fill-4" fill="url(#linearGradient-13)" mask="url(#mask-12)" points="0.447262025 15.2355755 52.6587742 67.2355496 67.5770725 52.378174 15.3655603 0.378199967"></polygon>
                        </g>
                        <polygon id="Fill-7" fill="url(#linearGradient-14)" points="138.479411 123.617489 123.561113 138.474864 120.280067 135.207216 135.198365 120.349841"></polygon>
                        <polygon id="Fill-8" fill="url(#linearGradient-15)" points="169.21087 183.937021 172.491916 187.20635 187.410215 172.348975 184.129168 169.079646"></polygon>
                        <g id="Group-18" transform="translate(0.000000, 0.067236)">
                            <g id="SEO-AUDIT" transform="translate(5.063344, 5.042666)">
                                <mask id="mask-18" fill="white">
                                    <use xlink:href="#path-17"></use>
                                </mask>
                                <use id="Mask" fill-opacity="0.3" fill="url(#linearGradient-16)" style="mix-blend-mode: multiply;" xlink:href="#path-17"></use>
                            </g>
                            <path d="M68.8856092,10.5785612 C53.1909316,10.5785612 38.4346604,16.6667402 27.3374988,27.7185837 C16.2386495,38.7704272 10.1271937,53.4664374 10.1271937,69.0970218 C10.1271937,84.7292871 16.2386495,99.4236165 27.3358111,110.477141 C50.2457534,133.291844 87.5237773,133.291844 110.435407,110.477141 C133.343662,87.6590762 133.343662,50.5349675 110.435407,27.7185837 C99.3365581,16.6667402 84.5802869,10.5785612 68.8856092,10.5785612 M68.8856092,137.668878 C51.2449199,137.668878 33.6059183,130.982303 20.1762431,117.607471 C7.16513763,104.6495 0.000506334367,87.4220709 0.000506334367,69.0970218 C0.000506334367,50.7719728 7.16513763,33.5445441 20.1762431,20.5865728 C33.1873486,7.63028238 50.4854183,0.493228786 68.8856092,0.493228786 C87.2858002,0.493228786 104.58387,7.63028238 117.594975,20.5882537 C144.452638,47.3362362 144.452638,90.8594884 117.594975,117.607471 C104.1653,130.982303 86.5262986,137.668878 68.8856092,137.668878" id="Fill-12" fill="url(#linearGradient-19)"></path>
                        </g>
                    </g>
                </g>
                <g id="link" transform="translate(159.000000, 98.000000)" fill="#FF5254" fill-rule="nonzero">
                    <path d="M67.3803344,5.68032118 C59.8874231,-1.89344039 47.6971955,-1.89344039 40.2041419,5.68032118 L29.0386953,16.9662457 C27.0903022,18.9356624 25.5115816,21.448312 24.4940574,24.5159882 C24.4769824,24.5217413 24.4604766,24.5305147 24.4434017,24.5362677 C22.1291779,31.5732687 23.8843396,39.2255596 29.0386953,44.435532 C30.5787128,45.9921666 32.3906487,47.2739487 34.3531286,48.2201835 L35.0778176,47.4876749 C37.5841344,44.9543143 37.5841344,40.8646068 35.0778176,38.3311023 C30.9108204,34.1191422 30.9108204,27.282204 35.0778176,23.0703877 L46.2432642,11.7844632 C50.4102614,7.57250309 57.1740726,7.57250309 61.3410698,11.7844632 C65.508067,15.9964233 65.508067,22.8332177 61.3410698,27.0451778 L52.8630767,35.6146505 C53.9935802,39.1477494 54.2330562,42.8891091 53.6859466,46.5306532 C54.5788238,45.9015559 55.4379779,45.2206811 56.2147455,44.435532 L67.3801921,33.1496075 C74.8732456,25.575846 74.8732456,13.2539389 67.3803344,5.68032118 Z" id="Path"></path>
                    <path d="M43.9644392,28.5342284 C42.4252841,26.9775491 40.6146471,25.6955864 38.6229749,24.7798165 L37.9286983,25.4819978 C35.423927,28.0152873 35.4237848,32.1052561 37.9286983,34.6388333 C42.0933624,38.8509144 42.0933624,45.6880489 37.9286983,49.8999861 C34.4035595,53.4652606 30.102799,57.8157067 26.7417722,61.2150007 C22.5771081,65.4270817 15.817084,65.4270817 11.65242,61.2150007 C7.48775594,57.0029197 7.48775594,50.165929 11.65242,45.9538479 L20.1533974,37.3553631 C19.0235269,33.8221628 18.7843272,30.0805519 19.3311304,26.4389032 C18.438611,27.0683062 17.5799379,27.7490568 16.8034631,28.5342284 L5.6165369,39.849243 C-1.87217897,47.423222 -1.87217897,59.745339 5.6165369,67.3194618 C13.1052528,74.8935846 25.288655,74.8934408 32.7775131,67.3194618 L43.9644392,56.0044472 C45.9117414,54.03483 47.4895781,51.5222521 48.5065326,48.4544879 C48.523598,48.4487347 48.5400945,48.439961 48.5571599,48.4342078 C50.8700879,41.396861 49.1159089,33.7443504 43.9644392,28.5342284 Z" id="Path"></path>
                    <path d="M62.3217956,58.6009174 L59.2706961,55.5498626 C58.4274419,54.7066207 57.0627071,54.7066207 56.2195966,55.5498626 C55.3763424,56.3931045 55.3763424,57.7578193 56.2195966,58.6009174 L59.2706961,61.6519722 C60.1139504,62.4952141 61.4786851,62.4952141 62.3217956,61.6519722 C63.1649061,60.8087303 63.1649061,59.4441593 62.3217956,58.6009174 Z" id="Path"></path>
                    <path d="M16.780425,13.7293578 L13.7292859,10.678303 C12.8860605,9.83506108 11.5213723,9.83506108 10.6782906,10.678303 C9.8350652,11.5215449 9.8350652,12.8862597 10.6782906,13.7293578 L13.7292859,16.7804126 C14.5725114,17.6236545 15.9371995,17.6236545 16.780425,16.7804126 C17.6236504,15.9371707 17.6236504,14.5724559 16.780425,13.7293578 Z" id="Path"></path>
                    <path d="M70.1461559,43.3674493 L66.1972635,42.2657156 C65.1062889,41.9616473 63.9857585,42.634425 63.6936061,43.7698968 C63.4013175,44.9123147 64.0552213,46.0738698 65.1388411,46.3758117 L69.0877334,47.4774037 C70.178708,47.781472 71.2992384,47.1086943 71.5913908,45.9732225 C71.8805467,44.8377506 71.2369943,43.6657056 70.1461559,43.3674493 Z" id="Path"></path>
                    <path d="M7.8615662,26.62433 L3.91281998,25.5225963 C2.82188571,25.218528 1.7013968,25.8913057 1.40925522,27.0267775 C1.11684126,28.1689119 1.77072084,29.3306088 2.85443669,29.6325507 L6.8031829,30.7342844 C7.89411717,31.0383527 9.01460608,30.365575 9.30674766,29.2301032 C9.59739107,28.0932138 8.94827837,26.9208852 7.8615662,26.62433 Z" id="Path"></path>
                    <path d="M47.4773919,69.0875547 L46.3757728,65.1393122 C46.0702794,64.0442956 44.9054353,63.4022108 43.7699356,63.6943151 C42.6344358,63.9864194 41.9616416,65.1067654 42.2657174,66.1975605 L43.3674782,70.145803 C43.6694276,71.2293806 44.8311529,71.8830406 45.9733154,71.5908001 C47.1088152,71.2986958 47.7814676,70.1783498 47.4773919,69.0875547 Z" id="Path"></path>
                    <path d="M30.734285,6.80295549 L29.6325512,2.85414667 C29.3299004,1.75897295 28.1622497,1.11965626 27.0267777,1.4089423 C25.8913058,1.7010885 25.218528,2.82159518 25.5225963,3.91254674 L26.6243302,7.86135556 C26.7241269,8.21983053 26.918192,8.53036356 27.1736378,8.77592981 C27.6936017,9.27550663 28.4691531,9.50132407 29.2299619,9.30655993 C30.3655756,9.01454993 31.0383533,7.89390705 30.734285,6.80295549 Z" id="Path"></path>
                </g>
            </g>
        </g>
    </g>
</svg>