<?xml version="1.0" encoding="UTF-8"?>
<svg width="339px" height="387px" viewBox="0 0 339 387" version="1.1" xmlns="http://www.w3.org/2000/svg" xmlns:xlink="http://www.w3.org/1999/xlink">
    <!-- Generator: Sketch 63.1 (92452) - https://sketch.com -->
    <title>img_93_percent</title>
    <desc>Created with Sketch.</desc>
    <defs>
        <linearGradient x1="46.7253484%" y1="-48.5963542%" x2="50.8200787%" y2="29.7356771%" id="linearGradient-1">
            <stop stop-color="#80C3F3" offset="0%"></stop>
            <stop stop-color="#4A90E2" offset="100%"></stop>
        </linearGradient>
    </defs>
    <g id="Page-1" stroke="none" stroke-width="1" fill="none" fill-rule="evenodd">
        <g id="FAQs---What-is-included-within-an-SEO-campaign" transform="translate(-231.000000, -1044.000000)">
            <g id="img_93_percent" transform="translate(231.000000, 1044.000000)">
                <ellipse id="Oval-2" fill="url(#linearGradient-1)" cx="169.5" cy="170" rx="169.5" ry="170"></ellipse>
                <ellipse id="Oval-4" fill="#000000" opacity="0.05" cx="170.5" cy="373.5" rx="154.5" ry="13.5"></ellipse>
                <path d="M68.2180034,229.626 C68.2180034,230.258003 68.1090045,230.845997 67.8910034,231.39 C67.6730023,231.934003 67.3660054,232.406998 66.9700034,232.809 C66.5740014,233.211002 66.0970062,233.525999 65.5390034,233.754 C64.9810006,233.982001 64.3620068,234.096 63.6820034,234.096 C63.002,234.096 62.3820062,233.982001 61.8220034,233.754 C61.2620006,233.525999 60.7830054,233.211002 60.3850034,232.809 C59.9870014,232.406998 59.6790045,231.934003 59.4610034,231.39 C59.2430023,230.845997 59.1340034,230.258003 59.1340034,229.626 C59.1340034,228.993997 59.2430023,228.406003 59.4610034,227.862 C59.6790045,227.317997 59.9870014,226.846002 60.3850034,226.446 C60.7830054,226.045998 61.2620006,225.732001 61.8220034,225.504 C62.3820062,225.275999 63.002,225.162 63.6820034,225.162 C64.3620068,225.162 64.9810006,225.276999 65.5390034,225.507 C66.0970062,225.737001 66.5740014,226.051998 66.9700034,226.452 C67.3660054,226.852002 67.6730023,227.323997 67.8910034,227.868 C68.1090045,228.412003 68.2180034,228.997997 68.2180034,229.626 Z M66.1420034,229.626 C66.1420034,229.193998 66.086004,228.805002 65.9740034,228.459 C65.8620028,228.112998 65.7010044,227.820001 65.4910034,227.58 C65.2810023,227.339999 65.0240049,227.156001 64.7200034,227.028 C64.4160019,226.899999 64.0700053,226.836 63.6820034,226.836 C63.2900014,226.836 62.9410049,226.899999 62.6350034,227.028 C62.3290019,227.156001 62.0710044,227.339999 61.8610034,227.58 C61.6510023,227.820001 61.490004,228.112998 61.3780034,228.459 C61.2660028,228.805002 61.2100034,229.193998 61.2100034,229.626 C61.2100034,230.062002 61.2660028,230.452998 61.3780034,230.799 C61.490004,231.145002 61.6510023,231.437999 61.8610034,231.678 C62.0710044,231.918001 62.3290019,232.100999 62.6350034,232.227 C62.9410049,232.353001 63.2900014,232.416 63.6820034,232.416 C64.0700053,232.416 64.4160019,232.353001 64.7200034,232.227 C65.0240049,232.100999 65.2810023,231.918001 65.4910034,231.678 C65.7010044,231.437999 65.8620028,231.145002 65.9740034,230.799 C66.086004,230.452998 66.1420034,230.062002 66.1420034,229.626 Z M76.8820031,225.258 L76.8820031,226.818 L73.2940031,226.818 L73.2940031,229.032 L76.2820031,229.032 L76.2820031,230.598 L73.2940031,230.598 L73.2940031,234 L71.2540031,234 L71.2540031,225.258 L76.8820031,225.258 Z M93.0100026,229.626 C93.0100026,230.258003 92.9010037,230.845997 92.6830026,231.39 C92.4650016,231.934003 92.1580046,232.406998 91.7620026,232.809 C91.3660007,233.211002 90.8890054,233.525999 90.3310026,233.754 C89.7729999,233.982001 89.154006,234.096 88.4740026,234.096 C87.7939992,234.096 87.1740054,233.982001 86.6140026,233.754 C86.0539998,233.525999 85.5750046,233.211002 85.1770026,232.809 C84.7790007,232.406998 84.4710037,231.934003 84.2530026,231.39 C84.0350016,230.845997 83.9260026,230.258003 83.9260026,229.626 C83.9260026,228.993997 84.0350016,228.406003 84.2530026,227.862 C84.4710037,227.317997 84.7790007,226.846002 85.1770026,226.446 C85.5750046,226.045998 86.0539998,225.732001 86.6140026,225.504 C87.1740054,225.275999 87.7939992,225.162 88.4740026,225.162 C89.154006,225.162 89.7729999,225.276999 90.3310026,225.507 C90.8890054,225.737001 91.3660007,226.051998 91.7620026,226.452 C92.1580046,226.852002 92.4650016,227.323997 92.6830026,227.868 C92.9010037,228.412003 93.0100026,228.997997 93.0100026,229.626 Z M90.9340026,229.626 C90.9340026,229.193998 90.8780032,228.805002 90.7660026,228.459 C90.6540021,228.112998 90.4930037,227.820001 90.2830026,227.58 C90.0730016,227.339999 89.8160042,227.156001 89.5120026,227.028 C89.2080011,226.899999 88.8620046,226.836 88.4740026,226.836 C88.0820007,226.836 87.7330042,226.899999 87.4270026,227.028 C87.1210011,227.156001 86.8630037,227.339999 86.6530026,227.58 C86.4430016,227.820001 86.2820032,228.112998 86.1700026,228.459 C86.0580021,228.805002 86.0020026,229.193998 86.0020026,229.626 C86.0020026,230.062002 86.0580021,230.452998 86.1700026,230.799 C86.2820032,231.145002 86.4430016,231.437999 86.6530026,231.678 C86.8630037,231.918001 87.1210011,232.100999 87.4270026,232.227 C87.7330042,232.353001 88.0820007,232.416 88.4740026,232.416 C88.8620046,232.416 89.2080011,232.353001 89.5120026,232.227 C89.8160042,232.100999 90.0730016,231.918001 90.2830026,231.678 C90.4930037,231.437999 90.6540021,231.145002 90.7660026,230.799 C90.8780032,230.452998 90.9340026,230.062002 90.9340026,229.626 Z M96.0460024,225.258 L97.1140024,225.258 C97.2020028,225.258 97.2760021,225.262 97.3360024,225.27 C97.3960027,225.278 97.4500022,225.293 97.4980024,225.315 C97.5460024,225.337 97.5920022,225.368 97.6360024,225.408 C97.6800026,225.448 97.7300021,225.502 97.7860024,225.57 L101.938002,230.82 C101.922002,230.651999 101.910002,230.489001 101.902002,230.331 C101.894002,230.172999 101.890002,230.024001 101.890002,229.884 L101.890002,225.258 L103.678002,225.258 L103.678002,234 L102.622002,234 C102.466002,234 102.334003,233.976 102.226002,233.928 C102.118002,233.88 102.014003,233.792001 101.914002,233.664 L97.7920024,228.456 L97.8220024,228.903 L97.8220024,228.903 C97.8300024,229.049001 97.8340024,229.185999 97.8340024,229.314 L97.8340024,234 L96.0460024,234 L96.0460024,225.258 Z M109.210002,232.38 L112.450002,232.38 L112.450002,234 L107.182002,234 L107.182002,225.258 L109.210002,225.258 L109.210002,232.38 Z M117.694002,234 L115.654002,234 L115.654002,225.258 L117.694002,225.258 L117.694002,234 Z M121.378002,225.258 L122.446002,225.258 C122.534002,225.258 122.608001,225.262 122.668002,225.27 C122.728002,225.278 122.782001,225.293 122.830002,225.315 C122.878002,225.337 122.924001,225.368 122.968002,225.408 C123.012002,225.448 123.062001,225.502 123.118002,225.57 L127.270002,230.82 C127.254002,230.651999 127.242002,230.489001 127.234002,230.331 C127.226002,230.172999 127.222002,230.024001 127.222002,229.884 L127.222002,225.258 L129.010002,225.258 L129.010002,234 L127.954002,234 C127.798001,234 127.666002,233.976 127.558002,233.928 C127.450001,233.88 127.346002,233.792001 127.246002,233.664 L123.124002,228.456 L123.154002,228.903 L123.154002,228.903 C123.162002,229.049001 123.166002,229.185999 123.166002,229.314 L123.166002,234 L121.378002,234 L121.378002,225.258 Z M138.142001,225.258 L138.142001,226.818 L134.554001,226.818 L134.554001,228.858 L137.302001,228.858 L137.302001,230.358 L134.554001,230.358 L134.554001,232.44 L138.142001,232.44 L138.142001,234 L132.514001,234 L132.514001,225.258 L138.142001,225.258 Z M151.366001,225.258 L151.366001,226.818 L147.778001,226.818 L147.778001,228.858 L150.526001,228.858 L150.526001,230.358 L147.778001,230.358 L147.778001,232.44 L151.366001,232.44 L151.366001,234 L145.738001,234 L145.738001,225.258 L151.366001,225.258 Z M156.736001,229.506 L154.030001,225.258 L156.058001,225.258 C156.190001,225.258 156.287,225.275 156.349001,225.309 C156.411001,225.343 156.466,225.4 156.514001,225.48 L158.254001,228.426 C158.274001,228.374 158.297,228.324 158.323001,228.276 C158.349001,228.228 158.378,228.178 158.410001,228.126 L159.934001,225.51 C160.034001,225.341999 160.17,225.258 160.342001,225.258 L162.286001,225.258 L159.544001,229.416 L162.346001,234 L160.318001,234 C160.186,234 160.079001,233.968 159.997001,233.904 C159.915,233.84 159.850001,233.764 159.802001,233.676 L158.050001,230.616 C158.018,230.704 157.982001,230.78 157.942001,230.844 L156.310001,233.676 C156.262,233.76 156.198001,233.835 156.118001,233.901 C156.038,233.967 155.938001,234 155.818001,234 L153.922001,234 L156.736001,229.506 Z M167.218,231.078 L167.218,234 L165.19,234 L165.19,225.258 L168.274,225.258 C168.890003,225.258 169.418998,225.330999 169.861,225.477 C170.303003,225.623001 170.666999,225.823999 170.953,226.08 C171.239002,226.336001 171.45,226.637998 171.586,226.986 C171.722001,227.334002 171.79,227.709998 171.79,228.114 C171.79,228.550002 171.720001,228.949998 171.58,229.314 C171.44,229.678002 171.226002,229.989999 170.938,230.25 C170.649999,230.510001 170.285003,230.712999 169.843,230.859 C169.400998,231.005001 168.878003,231.078 168.274,231.078 L167.218,231.078 Z M167.218,229.548 L168.274,229.548 C168.802003,229.548 169.181999,229.422001 169.414,229.17 C169.646002,228.917999 169.762,228.566002 169.762,228.114 C169.762,227.913999 169.732001,227.732001 169.672,227.568 C169.612,227.403999 169.521001,227.263001 169.399,227.145 C169.277,227.026999 169.123001,226.936 168.937,226.872 C168.750999,226.808 168.530002,226.776 168.274,226.776 L167.218,226.776 L167.218,229.548 Z M180.538,225.258 L180.538,226.818 L176.95,226.818 L176.95,228.858 L179.698,228.858 L179.698,230.358 L176.95,230.358 L176.95,232.44 L180.538,232.44 L180.538,234 L174.91,234 L174.91,225.258 L180.538,225.258 Z M185.782,230.766 L185.782,234 L183.754,234 L183.754,225.258 L186.598,225.258 C187.230003,225.258 187.768998,225.322999 188.215,225.453 C188.661002,225.583001 189.024998,225.763999 189.307,225.996 C189.589001,226.228001 189.793999,226.501998 189.922,226.818 C190.050001,227.134002 190.114,227.477998 190.114,227.85 C190.114,228.134001 190.076,228.401999 190,228.654 C189.923999,228.906001 189.811001,229.138999 189.661,229.353 C189.510999,229.567001 189.327001,229.758 189.109,229.926 C188.890999,230.094001 188.640001,230.231999 188.356,230.34 C188.492001,230.408 188.618999,230.491999 188.737,230.592 C188.855,230.692001 188.957999,230.813999 189.046,230.958 L190.906,234 L189.07,234 C188.729998,234 188.486001,233.872001 188.338,233.616 L186.886,231.078 C186.822,230.965999 186.747,230.886 186.661,230.838 C186.574999,230.79 186.454001,230.766 186.298,230.766 L185.782,230.766 Z M185.782,229.368 L186.598,229.368 C186.874001,229.368 187.108999,229.333 187.303,229.263 C187.497001,229.193 187.655999,229.096001 187.78,228.972 C187.904,228.847999 187.994,228.703001 188.05,228.537 C188.106,228.370999 188.134,228.192001 188.134,228 C188.134,227.615998 188.009001,227.316001 187.759,227.1 C187.508999,226.883999 187.122002,226.776 186.598,226.776 L185.782,226.776 L185.782,229.368 Z M196.018,234 L193.978,234 L193.978,225.258 L196.018,225.258 L196.018,234 Z M205.329999,225.258 L205.329999,226.818 L201.741999,226.818 L201.741999,228.858 L204.489999,228.858 L204.489999,230.358 L201.741999,230.358 L201.741999,232.44 L205.329999,232.44 L205.329999,234 L199.701999,234 L199.701999,225.258 L205.329999,225.258 Z M208.545999,225.258 L209.613999,225.258 C209.702,225.258 209.775999,225.262 209.835999,225.27 C209.895999,225.278 209.949999,225.293 209.997999,225.315 C210.045999,225.337 210.091999,225.368 210.135999,225.408 C210.179999,225.448 210.229999,225.502 210.285999,225.57 L214.437999,230.82 C214.421999,230.651999 214.409999,230.489001 214.401999,230.331 C214.393999,230.172999 214.389999,230.024001 214.389999,229.884 L214.389999,225.258 L216.177999,225.258 L216.177999,234 L215.121999,234 C214.965998,234 214.834,233.976 214.725999,233.928 C214.617999,233.88 214.514,233.792001 214.413999,233.664 L210.291999,228.456 C210.303999,228.608001 210.313999,228.756999 210.321999,228.903 C210.329999,229.049001 210.333999,229.185999 210.333999,229.314 L210.333999,234 L208.545999,234 L208.545999,225.258 Z M225.555999,231.738 C225.603999,231.738 225.651999,231.747 225.699999,231.765 C225.747999,231.783 225.793999,231.814 225.837999,231.858 L226.641999,232.704 C226.289997,233.164002 225.849002,233.510999 225.318999,233.745 C224.788996,233.979001 224.162002,234.096 223.437999,234.096 C222.773996,234.096 222.179001,233.983001 221.652999,233.757 C221.126996,233.530999 220.681001,233.219002 220.314999,232.821 C219.948997,232.422998 219.668,231.951003 219.471999,231.405 C219.275998,230.858997 219.177999,230.266003 219.177999,229.626 C219.177999,228.973997 219.289998,228.375003 219.513999,227.829 C219.738,227.282997 220.050997,226.812002 220.452999,226.416 C220.855001,226.019998 221.335996,225.712001 221.895999,225.492 C222.456002,225.271999 223.073995,225.162 223.749999,225.162 C224.078001,225.162 224.386997,225.191 224.676999,225.249 C224.967,225.307 225.237998,225.386999 225.489999,225.489 C225.742,225.591001 225.973998,225.712999 226.185999,225.855 C226.398,225.997001 226.585998,226.153999 226.749999,226.326 L226.065999,227.244 C226.021999,227.3 225.969999,227.351 225.909999,227.397 C225.849999,227.443 225.765999,227.466 225.657999,227.466 C225.585999,227.466 225.517999,227.45 225.453999,227.418 C225.389999,227.386 225.321999,227.347 225.249999,227.301 L225.012999,227.151 L225.012999,227.151 C224.926998,227.097 224.824999,227.047 224.706999,227.001 C224.588998,226.955 224.451,226.916 224.292999,226.884 C224.134998,226.852 223.95,226.836 223.737999,226.836 C223.369997,226.836 223.034,226.900999 222.729999,227.031 C222.425997,227.161001 222.165,227.346999 221.946999,227.589 C221.728998,227.831001 221.558999,228.123998 221.436999,228.468 C221.314998,228.812002 221.253999,229.197998 221.253999,229.626 C221.253999,230.074002 221.314998,230.471998 221.436999,230.82 C221.558999,231.168002 221.724998,231.460999 221.934999,231.699 C222.145,231.937001 222.389997,232.117999 222.669999,232.242 C222.95,232.366001 223.249997,232.428 223.569999,232.428 C223.754,232.428 223.921998,232.419 224.073999,232.401 C224.226,232.383 224.366998,232.352 224.496999,232.308 C224.627,232.264 224.750998,232.207 224.868999,232.137 C224.986999,232.067 225.105998,231.980001 225.225999,231.876 C225.273999,231.836 225.325999,231.803 225.381999,231.777 C225.437999,231.751 225.495999,231.738 225.555999,231.738 Z M235.257999,225.258 L235.257999,226.818 L231.669999,226.818 L231.669999,228.858 L234.417999,228.858 L234.417999,230.358 L231.669999,230.358 L231.669999,232.44 L235.257999,232.44 L235.257999,234 L229.629999,234 L229.629999,225.258 L235.257999,225.258 Z M243.345998,227.034 C243.285998,227.13 243.222999,227.202 243.156998,227.25 C243.090998,227.298 243.005999,227.322 242.901998,227.322 C242.809998,227.322 242.710999,227.293 242.604998,227.235 L242.244998,227.04 L242.244998,227.04 C242.110998,226.968 241.957999,226.903 241.785998,226.845 C241.613998,226.787 241.417999,226.758 241.197998,226.758 C240.817996,226.758 240.534999,226.838999 240.348998,227.001 C240.162997,227.163001 240.069998,227.381999 240.069998,227.658 C240.069998,227.834001 240.125998,227.979999 240.237998,228.096 C240.349999,228.212001 240.496997,228.312 240.678998,228.396 C240.860999,228.48 241.068997,228.557 241.302998,228.627 C241.537,228.697 241.775997,228.775 242.019998,228.861 C242.264,228.947 242.502997,229.047999 242.736998,229.164 C242.971,229.280001 243.178997,229.427999 243.360998,229.608 C243.542999,229.788001 243.689998,230.006999 243.801998,230.265 C243.913999,230.523001 243.969998,230.833998 243.969998,231.198 C243.969998,231.602002 243.899999,231.979998 243.759998,232.332 C243.619998,232.684002 243.417,232.990999 243.150998,233.253 C242.884997,233.515001 242.557,233.720999 242.166998,233.871 C241.776996,234.021001 241.334001,234.096 240.837998,234.096 C240.565997,234.096 240.289,234.068 240.006998,234.012 C239.724997,233.956 239.452,233.877001 239.187998,233.775 C238.923997,233.672999 238.676,233.552001 238.443998,233.412 C238.211997,233.271999 238.009999,233.116001 237.837998,232.944 L238.437998,231.996 C238.481999,231.924 238.543998,231.866 238.623998,231.822 C238.703999,231.778 238.789998,231.756 238.881998,231.756 C239.001999,231.756 239.122998,231.794 239.244998,231.87 L239.658998,232.122 L239.658998,232.122 C239.812999,232.214 239.989997,232.298 240.189998,232.374 C240.389999,232.45 240.625997,232.488 240.897998,232.488 C241.266,232.488 241.551997,232.407001 241.755998,232.245 C241.959999,232.082999 242.061998,231.826002 242.061998,231.474 C242.061998,231.269999 242.005999,231.104001 241.893998,230.976 C241.781998,230.847999 241.634999,230.742 241.452998,230.658 C241.331664,230.602 241.199221,230.550444 241.055665,230.503333 L240.831998,230.436 C240.599997,230.372 240.362,230.301 240.117998,230.223 C239.873997,230.145 239.636,230.049001 239.403998,229.935 C239.171997,229.820999 238.964999,229.671001 238.782998,229.485 C238.600997,229.298999 238.453999,229.067001 238.341998,228.789 C238.229998,228.510999 238.173998,228.168002 238.173998,227.76 C238.173998,227.431998 238.239998,227.112002 238.371998,226.8 C238.503999,226.487998 238.697997,226.210001 238.953998,225.966 C239.21,225.721999 239.523997,225.527001 239.895998,225.381 C240.268,225.234999 240.693996,225.162 241.173998,225.162 C241.442,225.162 241.702997,225.183 241.956998,225.225 C242.211,225.267 242.451997,225.329 242.679998,225.411 C242.908,225.493 243.120997,225.590999 243.318998,225.705 C243.516999,225.819001 243.693998,225.947999 243.849998,226.092 L243.345998,227.034 Z M251.421998,234 L251.421998,225.258 L254.637998,225.258 C255.242001,225.258 255.755996,225.313999 256.179998,225.426 C256.604,225.538001 256.949997,225.695999 257.217998,225.9 C257.485999,226.104001 257.680997,226.351999 257.802998,226.644 C257.924998,226.936001 257.985998,227.261998 257.985998,227.622 C257.985998,227.818001 257.957998,228.006999 257.901998,228.189 C257.845998,228.371001 257.757998,228.541999 257.637998,228.702 C257.517997,228.862001 257.363999,229.006999 257.175998,229.137 C256.987997,229.267001 256.761999,229.38 256.497998,229.476 C257.074001,229.616001 257.499996,229.842998 257.775998,230.157 C258.051999,230.471002 258.189998,230.873998 258.189998,231.366 C258.189998,231.738002 258.117999,232.083998 257.973998,232.404 C257.829997,232.724002 257.618999,233.002999 257.340998,233.241 C257.062996,233.479001 256.72,233.664999 256.311998,233.799 C255.903996,233.933001 255.438,234 254.913998,234 L251.421998,234 Z M253.449998,230.292 L253.449998,232.47 L254.877998,232.47 C255.145999,232.47 255.364997,232.436 255.534998,232.368 C255.704999,232.3 255.837997,232.212001 255.933998,232.104 C256.029998,231.995999 256.095998,231.874001 256.131998,231.738 C256.167998,231.601999 256.185998,231.464001 256.185998,231.324 C256.185998,231.163999 256.164998,231.020001 256.122998,230.892 C256.080998,230.763999 256.008998,230.656 255.906998,230.568 C255.804997,230.48 255.669999,230.412 255.501998,230.364 C255.333997,230.316 255.121999,230.292 254.865998,230.292 L253.449998,230.292 Z M253.449998,228.936 L254.505998,228.936 C254.729999,228.936 254.931997,228.92 255.111998,228.888 C255.291999,228.856 255.444997,228.8 255.570998,228.72 C255.696998,228.64 255.792998,228.530001 255.858998,228.39 C255.924998,228.249999 255.957998,228.074001 255.957998,227.862 C255.957998,227.653999 255.931998,227.481001 255.879998,227.343 C255.827998,227.204999 255.747998,227.094 255.639998,227.01 C255.531997,226.926 255.394999,226.866 255.228998,226.83 C255.062997,226.794 254.865999,226.776 254.637998,226.776 L253.449998,226.776 L253.449998,228.936 Z M266.985998,225.258 L266.985998,226.818 L263.397998,226.818 L263.397998,228.858 L266.145998,228.858 L266.145998,230.358 L263.397998,230.358 L263.397998,232.44 L266.985998,232.44 L266.985998,234 L261.357998,234 L261.357998,225.258 L266.985998,225.258 Z M274.317997,232.536 C274.597999,232.536 274.845996,232.512 275.061997,232.464 C275.277998,232.416 275.481996,232.352 275.673997,232.272 L275.673997,230.946 L274.809997,230.946 C274.681997,230.946 274.581998,230.912 274.509997,230.844 C274.437997,230.776 274.401997,230.690001 274.401997,230.586 L274.401997,229.47 L277.509997,229.47 L277.509997,233.16 C277.285996,233.324001 277.052999,233.464999 276.810997,233.583 C276.568996,233.701001 276.310999,233.798 276.036997,233.874 C275.762996,233.95 275.470999,234.006 275.160997,234.042 C274.850996,234.078 274.517999,234.096 274.161997,234.096 C273.521994,234.096 272.93,233.983001 272.385997,233.757 C271.841995,233.530999 271.370999,233.219002 270.972997,232.821 C270.574995,232.422998 270.262998,231.951003 270.036997,231.405 C269.810996,230.858997 269.697997,230.266003 269.697997,229.626 C269.697997,228.973997 269.805996,228.375003 270.021997,227.829 C270.237998,227.282997 270.546995,226.812002 270.948997,226.416 C271.350999,226.019998 271.836995,225.712001 272.406997,225.492 C272.977,225.271999 273.613994,225.162 274.317997,225.162 C274.681999,225.162 275.023996,225.192 275.343997,225.252 C275.663999,225.312 275.958996,225.393999 276.228997,225.498 C276.498999,225.602001 276.745996,225.725999 276.969997,225.87 C277.193998,226.014001 277.393996,226.169999 277.569997,226.338 L276.981997,227.232 C276.925997,227.316 276.858998,227.382 276.780997,227.43 C276.702997,227.478 276.617998,227.502 276.525997,227.502 C276.405997,227.502 276.281998,227.462 276.153997,227.382 C275.993997,227.286 275.842998,227.203 275.700997,227.133 C275.558997,227.063 275.413998,227.006 275.265997,226.962 C275.117997,226.918 274.961998,226.886 274.797997,226.866 C274.633997,226.846 274.449998,226.836 274.245997,226.836 C273.865995,226.836 273.523999,226.902999 273.219997,227.037 C272.915996,227.171001 272.656998,227.359999 272.442997,227.604 C272.228996,227.848001 272.063998,228.140998 271.947997,228.483 C271.831997,228.825002 271.773997,229.205998 271.773997,229.626 C271.773997,230.090002 271.837997,230.501998 271.965997,230.862 C272.093998,231.222002 272.270996,231.525999 272.496997,231.774 C272.722998,232.022001 272.990996,232.210999 273.300997,232.341 C273.610999,232.471001 273.949996,232.536 274.317997,232.536 Z M283.029997,234 L280.989997,234 L280.989997,225.258 L283.029997,225.258 L283.029997,234 Z M286.713997,225.258 L287.781997,225.258 C287.869997,225.258 287.943997,225.262 288.003997,225.27 C288.063997,225.278 288.117997,225.293 288.165997,225.315 C288.213997,225.337 288.259997,225.368 288.303997,225.408 C288.347997,225.448 288.397997,225.502 288.453997,225.57 L292.605997,230.82 C292.589997,230.651999 292.577997,230.489001 292.569997,230.331 C292.561997,230.172999 292.557997,230.024001 292.557997,229.884 L292.557997,225.258 L294.345997,225.258 L294.345997,234 L293.289997,234 C293.133996,234 293.001997,233.976 292.893997,233.928 C292.785996,233.88 292.681997,233.792001 292.581997,233.664 L288.459997,228.456 C288.471997,228.608001 288.481997,228.756999 288.489997,228.903 C288.497997,229.049001 288.501997,229.185999 288.501997,229.314 L288.501997,234 L286.713997,234 L286.713997,225.258 Z M87.6220025,240.258 L89.3260025,240.258 C89.5020034,240.258 89.6490019,240.298 89.7670025,240.378 C89.8850031,240.458 89.9620023,240.563999 89.9980025,240.696 L91.1980025,245.256 C91.2380027,245.404001 91.2780023,245.561999 91.3180025,245.73 C91.3580027,245.898001 91.3880024,246.073999 91.4080025,246.258 C91.4346693,246.132666 91.4631136,246.012222 91.4933358,245.896667 L91.5400025,245.727 C91.5880028,245.560999 91.6340023,245.404001 91.6780025,245.256 L93.0940025,240.696 C93.1300027,240.583999 93.2070019,240.483 93.3250025,240.393 C93.4430031,240.303 93.5860017,240.258 93.7540025,240.258 L94.3540025,240.258 C94.5300034,240.258 94.6750019,240.297 94.7890025,240.375 C94.9030031,240.453 94.9820023,240.559999 95.0260025,240.696 L96.5680025,245.703 L96.5680025,245.703 C96.6160028,245.861001 96.6580023,246.029999 96.6940025,246.21 L96.7427525,245.952 L96.7427525,245.952 L96.7930025,245.706 C96.8270027,245.545999 96.8620023,245.396001 96.8980025,245.256 L98.0980025,240.696 C98.1300027,240.579999 98.2060019,240.478 98.3260025,240.39 C98.4460031,240.302 98.5900017,240.258 98.7580025,240.258 L100.354003,240.258 L97.6540025,249 L95.8180025,249 L94.1740025,243.582 L94.0870025,243.306 L94.0870025,243.306 C94.0570024,243.205999 94.0280027,243.100001 94.0000025,242.988 C93.9720024,243.100001 93.9430027,243.205999 93.9130025,243.306 L93.8260025,243.582 L93.8260025,243.582 L92.1580025,249 L90.3220025,249 L87.6220025,240.258 Z M105.418002,249 L103.378002,249 L103.378002,240.258 L105.418002,240.258 L105.418002,249 Z M115.450002,240.258 L115.450002,241.866 L112.990002,241.866 L112.990002,249 L110.962002,249 L110.962002,241.866 L108.502002,241.866 L108.502002,240.258 L115.450002,240.258 Z M125.986002,249 L123.946002,249 L123.946002,245.304 L120.394002,245.304 L120.394002,249 L118.354002,249 L118.354002,240.258 L120.394002,240.258 L120.394002,243.912 L123.946002,243.912 L123.946002,240.258 L125.986002,240.258 L125.986002,249 Z M142.006001,249 L140.434001,249 C140.258,249 140.113002,248.959 139.999001,248.877 C139.885001,248.795 139.806001,248.690001 139.762001,248.562 L139.246001,247.038 L135.922001,247.038 L135.406001,248.562 C135.366001,248.674001 135.288002,248.775 135.172001,248.865 C135.056001,248.955 134.914002,249 134.746001,249 L133.162001,249 L136.546001,240.258 L138.622001,240.258 L142.006001,249 Z M136.390001,245.658 L138.778001,245.658 L137.791001,242.727 C137.721001,242.520999 137.652002,242.298001 137.584001,242.058 C137.520001,242.302001 137.454002,242.527999 137.386001,242.736 C137.318001,242.944001 137.254002,243.123999 137.194001,243.276 L136.390001,245.658 Z M154.030001,242.034 C153.97,242.13 153.907001,242.202 153.841001,242.25 C153.775,242.298 153.690001,242.322 153.586001,242.322 C153.494,242.322 153.395001,242.293 153.289001,242.235 L152.929001,242.04 L152.929001,242.04 C152.795,241.968 152.642002,241.903 152.470001,241.845 C152.298,241.787 152.102002,241.758 151.882001,241.758 C151.501999,241.758 151.219002,241.838999 151.033001,242.001 C150.847,242.163001 150.754001,242.381999 150.754001,242.658 C150.754001,242.834001 150.81,242.979999 150.922001,243.096 C151.034001,243.212001 151.181,243.312 151.363001,243.396 C151.545002,243.48 151.753,243.557 151.987001,243.627 C152.221002,243.697 152.46,243.775 152.704001,243.861 C152.948002,243.947 153.187,244.047999 153.421001,244.164 C153.655002,244.280001 153.863,244.427999 154.045001,244.608 C154.227002,244.788001 154.374,245.006999 154.486001,245.265 C154.598001,245.523001 154.654001,245.833998 154.654001,246.198 C154.654001,246.602002 154.584001,246.979998 154.444001,247.332 C154.304,247.684002 154.101002,247.990999 153.835001,248.253 C153.568999,248.515001 153.241003,248.720999 152.851001,248.871 C152.460999,249.021001 152.018003,249.096 151.522001,249.096 C151.249999,249.096 150.973002,249.068 150.691001,249.012 C150.408999,248.956 150.136002,248.877001 149.872001,248.775 C149.607999,248.672999 149.360002,248.552001 149.128001,248.412 C148.896,248.271999 148.694002,248.116001 148.522001,247.944 L149.122001,246.996 C149.166001,246.924 149.228,246.866 149.308001,246.822 C149.388001,246.778 149.474,246.756 149.566001,246.756 C149.686001,246.756 149.807,246.794 149.929001,246.87 L150.343001,247.122 L150.343001,247.122 C150.497002,247.214 150.674,247.298 150.874001,247.374 C151.074002,247.45 151.309999,247.488 151.582001,247.488 C151.950003,247.488 152.236,247.407001 152.440001,247.245 C152.644002,247.082999 152.746001,246.826002 152.746001,246.474 C152.746001,246.269999 152.690001,246.104001 152.578001,245.976 C152.466,245.847999 152.319002,245.742 152.137001,245.658 C151.955,245.574 151.748002,245.5 151.516001,245.436 C151.284,245.372 151.046002,245.301 150.802001,245.223 C150.558,245.145 150.320002,245.049001 150.088001,244.935 C149.856,244.820999 149.649002,244.671001 149.467001,244.485 C149.285,244.298999 149.138001,244.067001 149.026001,243.789 C148.914,243.510999 148.858001,243.168002 148.858001,242.76 C148.858001,242.431998 148.924,242.112002 149.056001,241.8 C149.188001,241.487998 149.381999,241.210001 149.638001,240.966 C149.894002,240.721999 150.207999,240.527001 150.580001,240.381 C150.952003,240.234999 151.377998,240.162 151.858001,240.162 C152.126002,240.162 152.386999,240.183 152.641001,240.225 C152.895002,240.267 153.136,240.329 153.364001,240.411 C153.592002,240.493 153.805,240.590999 154.003001,240.705 C154.201002,240.819001 154.378,240.947999 154.534001,241.092 L154.030001,242.034 Z M163.354001,240.258 L163.354001,241.818 L159.766001,241.818 L159.766001,243.858 L162.514001,243.858 L162.514001,245.358 L159.766001,245.358 L159.766001,247.44 L163.354001,247.44 L163.354001,249 L157.726001,249 L157.726001,240.258 L163.354001,240.258 Z M174.706,249 L173.134,249 C172.957999,249 172.813001,248.959 172.699,248.877 C172.585,248.795 172.506,248.690001 172.462,248.562 L171.946,247.038 L168.622,247.038 L168.106,248.562 C168.066,248.674001 167.988001,248.775 167.872,248.865 C167.756,248.955 167.614001,249 167.446,249 L165.862,249 L169.246,240.258 L171.322,240.258 L174.706,249 Z M169.09,245.658 L171.478,245.658 L170.491,242.727 C170.421,242.520999 170.352001,242.298001 170.284,242.058 C170.22,242.302001 170.154001,242.527999 170.086,242.736 C170.018,242.944001 169.954001,243.123999 169.894,243.276 L169.09,245.658 Z M179.506,245.766 L179.506,249 L177.478,249 L177.478,240.258 L180.322,240.258 C180.954003,240.258 181.492998,240.322999 181.939,240.453 C182.385002,240.583001 182.748999,240.763999 183.031,240.996 C183.313001,241.228001 183.517999,241.501998 183.646,241.818 C183.774001,242.134002 183.838,242.477998 183.838,242.85 C183.838,243.134001 183.8,243.401999 183.724,243.654 C183.648,243.906001 183.535001,244.138999 183.385,244.353 C183.234999,244.567001 183.051001,244.758 182.833,244.926 C182.614999,245.094001 182.364001,245.231999 182.08,245.34 C182.216001,245.408 182.342999,245.491999 182.461,245.592 C182.579001,245.692001 182.682,245.813999 182.77,245.958 L184.63,249 L182.794,249 C182.453998,249 182.210001,248.872001 182.062,248.616 L180.61,246.078 C180.546,245.965999 180.471,245.886 180.385,245.838 C180.299,245.79 180.178001,245.766 180.022,245.766 L179.506,245.766 Z M179.506,244.368 L180.322,244.368 C180.598001,244.368 180.832999,244.333 181.027,244.263 C181.221001,244.193 181.379999,244.096001 181.504,243.972 C181.628001,243.847999 181.718,243.703001 181.774,243.537 C181.83,243.370999 181.858,243.192001 181.858,243 C181.858,242.615998 181.733001,242.316001 181.483,242.1 C181.232999,241.883999 180.846003,241.776 180.322,241.776 L179.506,241.776 L179.506,244.368 Z M193.096,246.738 C193.144,246.738 193.192,246.747 193.24,246.765 C193.288,246.783 193.334,246.814 193.378,246.858 L194.182,247.704 C193.829998,248.164002 193.389002,248.510999 192.859,248.745 C192.328997,248.979001 191.702003,249.096 190.978,249.096 C190.313996,249.096 189.719002,248.983001 189.193,248.757 C188.666997,248.530999 188.221002,248.219002 187.855,247.821 C187.488998,247.422998 187.208001,246.951003 187.012,246.405 C186.815999,245.858997 186.718,245.266003 186.718,244.626 C186.718,243.973997 186.829999,243.375003 187.054,242.829 C187.278001,242.282997 187.590998,241.812002 187.993,241.416 C188.395002,241.019998 188.875997,240.712001 189.436,240.492 C189.996003,240.271999 190.613996,240.162 191.29,240.162 C191.618001,240.162 191.926998,240.191 192.217,240.249 C192.507001,240.307 192.777998,240.386999 193.03,240.489 C193.282001,240.591001 193.513999,240.712999 193.726,240.855 C193.938001,240.997001 194.125999,241.153999 194.29,241.326 L193.606,242.244 C193.562,242.3 193.51,242.351 193.45,242.397 C193.389999,242.443 193.306,242.466 193.198,242.466 C193.125999,242.466 193.058,242.45 192.994,242.418 C192.929999,242.386 192.862,242.347 192.79,242.301 L192.553,242.151 L192.553,242.151 C192.466999,242.097 192.365,242.047 192.247,242.001 C192.128999,241.955 191.991001,241.916 191.833,241.884 C191.674999,241.852 191.490001,241.836 191.278,241.836 C190.909998,241.836 190.574001,241.900999 190.27,242.031 C189.965998,242.161001 189.705001,242.346999 189.487,242.589 C189.268999,242.831001 189.099,243.123998 188.977,243.468 C188.854999,243.812002 188.794,244.197998 188.794,244.626 C188.794,245.074002 188.854999,245.471998 188.977,245.82 C189.099,246.168002 189.264999,246.460999 189.475,246.699 C189.685001,246.937001 189.929998,247.117999 190.21,247.242 C190.490001,247.366001 190.789998,247.428 191.11,247.428 C191.294001,247.428 191.461999,247.419 191.614,247.401 C191.766001,247.383 191.906999,247.352 192.037,247.308 C192.167,247.264 192.290999,247.207 192.409,247.137 C192.527,247.067 192.645999,246.980001 192.766,246.876 C192.814,246.836 192.865999,246.803 192.922,246.777 C192.978,246.751 193.035999,246.738 193.096,246.738 Z M204.801999,249 L202.761999,249 L202.761999,245.304 L199.209999,245.304 L199.209999,249 L197.169999,249 L197.169999,240.258 L199.209999,240.258 L199.209999,243.912 L202.761999,243.912 L202.761999,240.258 L204.801999,240.258 L204.801999,249 Z M218.313999,240.258 L218.313999,241.818 L214.725999,241.818 L214.725999,243.858 L217.473999,243.858 L217.473999,245.358 L214.725999,245.358 L214.725999,247.44 L218.313999,247.44 L218.313999,249 L212.685999,249 L212.685999,240.258 L218.313999,240.258 Z M221.529999,240.258 L222.597999,240.258 C222.685999,240.258 222.759998,240.262 222.819999,240.27 C222.879999,240.278 222.933999,240.293 222.981999,240.315 C223.029999,240.337 223.075999,240.368 223.119999,240.408 C223.163999,240.448 223.213998,240.502 223.269999,240.57 L227.421999,245.82 C227.405999,245.651999 227.393999,245.489001 227.385999,245.331 C227.377999,245.172999 227.373999,245.024001 227.373999,244.884 L227.373999,240.258 L229.161999,240.258 L229.161999,249 L228.105999,249 C227.949998,249 227.817999,248.976 227.709999,248.928 C227.601998,248.88 227.497999,248.792001 227.397999,248.664 L223.275999,243.456 C223.287999,243.608001 223.297999,243.756999 223.305999,243.903 C223.313999,244.049001 223.317999,244.185999 223.317999,244.314 L223.317999,249 L221.529999,249 L221.529999,240.258 Z M236.781998,247.536 C237.062,247.536 237.309997,247.512 237.525998,247.464 C237.742,247.416 237.945998,247.352 238.137998,247.272 L238.137998,245.946 L237.273998,245.946 C237.145998,245.946 237.045999,245.912 236.973998,245.844 C236.901998,245.776 236.865998,245.690001 236.865998,245.586 L236.865998,244.47 L239.973998,244.47 L239.973998,248.16 C239.749997,248.324001 239.517,248.464999 239.274998,248.583 C239.032997,248.701001 238.775,248.798 238.500998,248.874 C238.226997,248.95 237.935,249.006 237.624998,249.042 C237.314997,249.078 236.982,249.096 236.625998,249.096 C235.985995,249.096 235.394001,248.983001 234.849998,248.757 C234.305996,248.530999 233.835,248.219002 233.436998,247.821 C233.038996,247.422998 232.727,246.951003 232.500998,246.405 C232.274997,245.858997 232.161998,245.266003 232.161998,244.626 C232.161998,243.973997 232.269997,243.375003 232.485998,242.829 C232.702,242.282997 233.010996,241.812002 233.412998,241.416 C233.815,241.019998 234.300996,240.712001 234.870998,240.492 C235.441001,240.271999 236.077995,240.162 236.781998,240.162 C237.146,240.162 237.487997,240.192 237.807998,240.252 C238.128,240.312 238.422997,240.393999 238.692998,240.498 C238.963,240.602001 239.209997,240.725999 239.433998,240.87 C239.658,241.014001 239.857998,241.169999 240.033998,241.338 L239.445998,242.232 C239.389998,242.316 239.322999,242.382 239.244998,242.43 C239.166998,242.478 239.081999,242.502 238.989998,242.502 C238.869998,242.502 238.745999,242.462 238.617998,242.382 C238.457998,242.286 238.306999,242.203 238.164998,242.133 C238.022998,242.063 237.877999,242.006 237.729998,241.962 C237.581998,241.918 237.425999,241.886 237.261998,241.866 C237.097998,241.846 236.914,241.836 236.709998,241.836 C236.329997,241.836 235.988,241.902999 235.683998,242.037 C235.379997,242.171001 235.121,242.359999 234.906998,242.604 C234.692997,242.848001 234.527999,243.140998 234.411998,243.483 C234.295998,243.825002 234.237998,244.205998 234.237998,244.626 C234.237998,245.090002 234.301998,245.501998 234.429998,245.862 C234.557999,246.222002 234.734997,246.525999 234.960998,246.774 C235.187,247.022001 235.454997,247.210999 235.764998,247.341 C236.075,247.471001 236.413997,247.536 236.781998,247.536 Z M245.493998,249 L243.453998,249 L243.453998,240.258 L245.493998,240.258 L245.493998,249 Z M249.177998,240.258 L250.245998,240.258 C250.333998,240.258 250.407998,240.262 250.467998,240.27 C250.527998,240.278 250.581998,240.293 250.629998,240.315 C250.677998,240.337 250.723998,240.368 250.767998,240.408 C250.811998,240.448 250.861998,240.502 250.917998,240.57 L255.069998,245.82 C255.053998,245.651999 255.041998,245.489001 255.033998,245.331 C255.025998,245.172999 255.021998,245.024001 255.021998,244.884 L255.021998,240.258 L256.809998,240.258 L256.809998,249 L255.753998,249 C255.597997,249 255.465999,248.976 255.357998,248.928 C255.249997,248.88 255.145998,248.792001 255.045998,248.664 L250.923998,243.456 C250.935998,243.608001 250.945998,243.756999 250.953998,243.903 C250.961998,244.049001 250.965998,244.185999 250.965998,244.314 L250.965998,249 L249.177998,249 L249.177998,240.258 Z M265.941998,240.258 L265.941998,241.818 L262.353998,241.818 L262.353998,243.858 L265.101998,243.858 L265.101998,245.358 L262.353998,245.358 L262.353998,247.44 L265.941998,247.44 L265.941998,249 L260.313998,249 L260.313998,240.258 L265.941998,240.258 Z" id="OFONLINEEXPERIENCESBEGINWITHASEARCHENGINE" fill="#FFFFFF" fill-rule="nonzero"></path>
                <path d="M94.94,166.76 C91.1533144,166.76 87.3666856,166.080007 83.58,164.72 C79.7933144,163.36 76.366682,161.293347 73.3,158.52 C70.233318,155.746653 67.7400096,152.253354 65.82,148.04 C63.8999904,143.826646 62.94,138.840029 62.94,133.08 C62.94,127.799974 63.9133236,122.813357 65.86,118.12 C67.8066764,113.426643 70.579982,109.320018 74.18,105.8 C77.780018,102.279982 82.0866416,99.4933436 87.1,97.44 C92.1133584,95.3866564 97.7133024,94.36 103.9,94.36 C110.193365,94.36 115.819975,95.3199904 120.78,97.24 C125.740025,99.1600096 129.939983,101.853316 133.38,105.32 C136.820017,108.786684 139.459991,112.906643 141.3,117.68 C143.140009,122.453357 144.06,127.719971 144.06,133.48 C144.06,137.320019 143.753336,140.919983 143.14,144.28 C142.526664,147.640017 141.673339,150.853318 140.58,153.92 C139.486661,156.986682 138.166674,159.919986 136.62,162.72 C135.073326,165.520014 133.34001,168.279986 131.42,171 L106.3,206.68 C105.233328,208.226674 103.553345,209.533328 101.26,210.6 C98.9666552,211.666672 96.3800144,212.2 93.5,212.2 L70.62,212.2 L107.58,168.04 L108.8808,166.4512 C109.160266,166.107735 109.433332,165.770668 109.7,165.44 C110.36667,164.613329 111.019997,163.773338 111.66,162.92 C109.259988,164.200006 106.646681,165.159997 103.82,165.8 C100.993319,166.440003 98.0333488,166.76 94.94,166.76 Z M120.38,131.24 C120.38,128.413319 119.966671,125.920011 119.14,123.76 C118.313329,121.599989 117.166674,119.800007 115.7,118.36 C114.233326,116.919993 112.46001,115.82667 110.38,115.08 C108.29999,114.33333 106.033346,113.96 103.58,113.96 C101.073321,113.96 98.8466764,114.399996 96.9,115.28 C94.9533236,116.160004 93.3000068,117.373326 91.94,118.92 C90.5799932,120.466674 89.5400036,122.293323 88.82,124.4 C88.0999964,126.506677 87.74,128.786654 87.74,131.24 C87.74,142.866725 93.1266128,148.68 103.9,148.68 C109.180026,148.68 113.246652,147.093349 116.1,143.92 C118.953348,140.746651 120.38,136.520026 120.38,131.24 Z M193.18,94.36 C198.940029,94.36 204.059978,95.1733252 208.54,96.8 C213.020022,98.4266748 216.806651,100.626653 219.9,103.4 C222.993349,106.173347 225.339992,109.386648 226.94,113.04 C228.540008,116.693352 229.34,120.546646 229.34,124.6 C229.34,128.280018 228.96667,131.519986 228.22,134.32 C227.47333,137.120014 226.366674,139.546656 224.9,141.6 C223.433326,143.653344 221.620011,145.399993 219.46,146.84 C217.299989,148.280007 214.833347,149.479995 212.06,150.44 C224.966731,154.920022 231.42,163.693268 231.42,176.76 C231.42,182.946698 230.300011,188.33331 228.06,192.92 C225.819989,197.50669 222.820019,201.319985 219.06,204.36 C215.299981,207.400015 210.940025,209.679992 205.98,211.2 C201.019975,212.720008 195.846694,213.48 190.46,213.48 C184.913306,213.48 179.980022,212.880006 175.66,211.68 C171.339978,210.479994 167.500017,208.613346 164.14,206.08 C160.779983,203.546654 157.833346,200.306686 155.3,196.36 C152.766654,192.413314 150.566676,187.720027 148.7,182.28 L159.74,177.8 C160.7,177.373331 161.646662,177.080001 162.58,176.92 C163.513338,176.759999 164.433329,176.68 165.34,176.68 C167.046675,176.68 168.579993,177.01333 169.94,177.68 C171.300007,178.34667 172.326663,179.319994 173.02,180.6 C175.420012,185.026689 177.966653,188.23999 180.66,190.24 C183.353347,192.24001 186.513315,193.24 190.14,193.24 C192.913347,193.24 195.326656,192.773338 197.38,191.84 C199.433344,190.906662 201.139993,189.706674 202.5,188.24 C203.860007,186.773326 204.886663,185.106676 205.58,183.24 C206.273337,181.373324 206.62,179.48001 206.62,177.56 C206.62,175.053321 206.446668,172.80001 206.1,170.8 C205.753332,168.79999 204.780008,167.080007 203.18,165.64 C201.579992,164.199993 199.166683,163.093337 195.94,162.32 C192.713317,161.546663 188.220029,161.16 182.46,161.16 L182.46,144.04 C187.313358,144.04 191.233318,143.66667 194.22,142.92 C197.206682,142.17333 199.513325,141.146673 201.14,139.84 C202.766675,138.533327 203.846664,136.946676 204.38,135.08 C204.913336,133.213324 205.18,131.160011 205.18,128.92 C205.18,124.33331 204.073344,120.800012 201.86,118.32 C199.646656,115.839988 196.273356,114.6 191.74,114.6 C189.873324,114.6 188.166674,114.866664 186.62,115.4 C185.073326,115.933336 183.686673,116.653329 182.46,117.56 C181.233327,118.466671 180.180004,119.533327 179.3,120.76 C178.419996,121.986673 177.713336,123.319993 177.18,124.76 C176.326662,127.160012 175.246673,128.893328 173.94,129.96 C172.633327,131.026672 170.860011,131.56 168.62,131.56 C168.086664,131.56 167.513336,131.533334 166.9,131.48 C166.286664,131.426666 165.660003,131.346667 165.02,131.24 L151.9,128.92 C152.753338,123.106638 154.393321,118.040022 156.82,113.72 C159.246679,109.399978 162.259982,105.800014 165.86,102.92 C169.460018,100.039986 173.579977,97.8933404 178.22,96.48 C182.860023,95.0666596 187.84664,94.36 193.18,94.36 Z M261.5,168.04 C261.5,170.173344 261.113337,172.119991 260.34,173.88 C259.566663,175.640009 258.540006,177.153327 257.26,178.42 C255.979994,179.686673 254.493342,180.666663 252.8,181.36 C251.106658,182.053337 249.340009,182.4 247.5,182.4 C245.473323,182.4 243.613342,182.053337 241.92,181.36 C240.226658,180.666663 238.760006,179.686673 237.52,178.42 C236.279994,177.153327 235.313337,175.640009 234.62,173.88 C233.926663,172.119991 233.58,170.173344 233.58,168.04 C233.58,165.826656 233.926663,163.820009 234.62,162.02 C235.313337,160.219991 236.279994,158.680006 237.52,157.4 C238.760006,156.119994 240.226658,155.12667 241.92,154.42 C243.613342,153.71333 245.473323,153.36 247.5,153.36 C249.526677,153.36 251.399991,153.71333 253.12,154.42 C254.840009,155.12667 256.319994,156.119994 257.56,157.4 C258.800006,158.680006 259.766663,160.219991 260.46,162.02 C261.153337,163.820009 261.5,165.826656 261.5,168.04 Z M251.98,168.04 C251.98,166.679993 251.866668,165.553338 251.64,164.66 C251.413332,163.766662 251.100002,163.053336 250.7,162.52 C250.299998,161.986664 249.826669,161.613334 249.28,161.4 C248.733331,161.186666 248.140003,161.08 247.5,161.08 C246.859997,161.08 246.273336,161.186666 245.74,161.4 C245.206664,161.613334 244.753335,161.986664 244.38,162.52 C244.006665,163.053336 243.713334,163.766662 243.5,164.66 C243.286666,165.553338 243.18,166.679993 243.18,168.04 C243.18,169.320006 243.286666,170.386662 243.5,171.24 C243.713334,172.093338 244.006665,172.773331 244.38,173.28 C244.753335,173.786669 245.206664,174.146666 245.74,174.36 C246.273336,174.573334 246.859997,174.68 247.5,174.68 C248.140003,174.68 248.733331,174.573334 249.28,174.36 C249.826669,174.146666 250.299998,173.786669 250.7,173.28 C251.100002,172.773331 251.413332,172.093338 251.64,171.24 C251.866668,170.386662 251.98,169.320006 251.98,168.04 Z M279.82,155.76 C280.220002,155.306664 280.71333,154.886669 281.3,154.5 C281.88667,154.113331 282.699995,153.92 283.74,153.92 L292.78,153.92 L248.86,210.44 C248.459998,210.946669 247.960003,211.366665 247.36,211.7 C246.759997,212.033335 246.033338,212.2 245.18,212.2 L235.9,212.2 L279.82,155.76 Z M281.02,183.84 C283.046677,183.84 284.919991,184.19333 286.64,184.9 C288.360009,185.60667 289.839994,186.599994 291.08,187.88 C292.320006,189.160006 293.286663,190.699991 293.98,192.5 C294.673337,194.300009 295.02,196.306656 295.02,198.52 C295.02,200.653344 294.633337,202.606658 293.86,204.38 C293.086663,206.153342 292.060006,207.673327 290.78,208.94 C289.499994,210.206673 288.013342,211.186663 286.32,211.88 C284.626658,212.573337 282.860009,212.92 281.02,212.92 C278.993323,212.92 277.133342,212.573337 275.44,211.88 C273.746658,211.186663 272.280006,210.206673 271.04,208.94 C269.799994,207.673327 268.833337,206.153342 268.14,204.38 C267.446663,202.606658 267.1,200.653344 267.1,198.52 C267.1,196.306656 267.446663,194.300009 268.14,192.5 C268.833337,190.699991 269.799994,189.160006 271.04,187.88 C272.280006,186.599994 273.746658,185.60667 275.44,184.9 C277.133342,184.19333 278.993323,183.84 281.02,183.84 Z M281.02,191.6 C280.379997,191.6 279.793336,191.706666 279.26,191.92 C278.726664,192.133334 278.273335,192.506664 277.9,193.04 C277.526665,193.573336 277.233334,194.286662 277.02,195.18 C276.806666,196.073338 276.7,197.18666 276.7,198.52 C276.7,199.800006 276.806666,200.866662 277.02,201.72 C277.233334,202.573338 277.526665,203.253331 277.9,203.76 C278.273335,204.266669 278.726664,204.626666 279.26,204.84 C279.793336,205.053334 280.379997,205.16 281.02,205.16 C281.660003,205.16 282.253331,205.053334 282.8,204.84 C283.346669,204.626666 283.819998,204.266669 284.22,203.76 C284.620002,203.253331 284.933332,202.573338 285.16,201.72 C285.386668,200.866662 285.5,199.800006 285.5,198.52 C285.5,197.18666 285.386668,196.073338 285.16,195.18 C284.933332,194.286662 284.620002,193.573336 284.22,193.04 C283.819998,192.506664 283.346669,192.133334 282.8,191.92 C282.253331,191.706666 281.660003,191.6 281.02,191.6 Z" id="93%" fill="#FFFFFF" fill-rule="nonzero"></path>
            </g>
        </g>
    </g>
</svg>