<?xml version="1.0" encoding="UTF-8"?>
<svg width="333px" height="235px" viewBox="0 0 333 235" version="1.1" xmlns="http://www.w3.org/2000/svg" xmlns:xlink="http://www.w3.org/1999/xlink">
    <!-- Generator: Sketch 63.1 (92452) - https://sketch.com -->
    <title>img_natural_backlinks_mob</title>
    <desc>Created with Sketch.</desc>
    <defs>
        <filter x="-9.4%" y="-13.7%" width="118.8%" height="127.4%" filterUnits="objectBoundingBox" id="filter-1">
            <feOffset dx="0" dy="5" in="SourceAlpha" result="shadowOffsetOuter1"></feOffset>
            <feGaussianBlur stdDeviation="5" in="shadowOffsetOuter1" result="shadowBlurOuter1"></feGaussianBlur>
            <feColorMatrix values="0 0 0 0 0   0 0 0 0 0   0 0 0 0 0  0 0 0 0.25 0" type="matrix" in="shadowBlurOuter1" result="shadowMatrixOuter1"></feColorMatrix>
            <feMerge>
                <feMergeNode in="shadowMatrixOuter1"></feMergeNode>
                <feMergeNode in="SourceGraphic"></feMergeNode>
            </feMerge>
        </filter>
    </defs>
    <g id="Page-1" stroke="none" stroke-width="1" fill="none" fill-rule="evenodd">
        <g id="FAQs---What-is-a-Backlink---Mobile" transform="translate(-21.000000, -3158.000000)">
            <g id="img_natural_backlinks_mob" transform="translate(31.000000, 3163.000000)">
                <g id="img_google_my_business_listing">
                    <g id="img_blogs" filter="url(#filter-1)">
                        <rect id="Rectangle" fill="#FFFFFF" x="0" y="0" width="312.446018" height="215" rx="13"></rect>
                        <path d="M13,0 L300,0 C307.179702,-3.09524665e-15 313,5.82029825 313,13 L313,36.4781491 L313,36.4781491 L0,36.4781491 L0,13 C-2.65561672e-15,5.82029825 5.82029825,-4.57467025e-16 13,0 Z" id="Rectangle-2" fill="#FF5254"></path>
                        <polygon id="Fill-5" fill="#E9ECED" points="0 55.8226221 312.446018 55.8226221 312.446018 36.4781491 0 36.4781491"></polygon>
                        <path d="M55.3982301,19.8979348 C55.3982301,22.644739 53.1663345,24.8714653 50.4131537,24.8714653 C47.6599729,24.8714653 45.4265487,22.644739 45.4265487,19.8979348 C45.4265487,17.1511306 47.6599729,14.9228792 50.4131537,14.9228792 C53.1663345,14.9228792 55.3982301,17.1511306 55.3982301,19.8979348" id="Fill-6" fill="#FFFFFF"></path>
                        <path d="M40.9946903,19.8979348 C40.9946903,22.644739 38.761266,24.8714653 36.0080852,24.8714653 C33.2549044,24.8714653 31.0230088,22.644739 31.0230088,19.8979348 C31.0230088,17.1511306 33.2549044,14.9228792 36.0080852,14.9228792 C38.761266,14.9228792 40.9946903,17.1511306 40.9946903,19.8979348" id="Fill-7" fill="#FFFFFF"></path>
                        <path d="M27.1451327,19.8979348 C27.1451327,22.644739 24.9132372,24.8714653 22.1585277,24.8714653 C19.4053469,24.8714653 17.1734513,22.644739 17.1734513,19.8979348 C17.1734513,17.1511306 19.4053469,14.9228792 22.1585277,14.9228792 C24.9132372,14.9228792 27.1451327,17.1511306 27.1451327,19.8979348" id="Fill-8" fill="#FFFFFF"></path>
                        <path d="M67.8699115,16.0282776 L263.965487,16.0282776 C265.346199,16.0282776 266.465487,17.1475658 266.465487,18.5282776 L266.465487,19.0552699 C266.465487,20.4359818 265.346199,21.5552699 263.965487,21.5552699 L67.8699115,21.5552699 C66.4891996,21.5552699 65.3699115,20.4359818 65.3699115,19.0552699 L65.3699115,18.5282776 C65.3699115,17.1475658 66.4891996,16.0282776 67.8699115,16.0282776 Z" id="Rectangle-3" fill="#FFFFFF"></path>
                        <polygon id="Fill-10" fill="#FFFFFF" points="285.576267 12.7120823 286.687923 16.0898431 290.286726 16.0898431 287.374864 18.1775091 288.488129 21.5552699 285.576267 19.467604 282.666015 21.5552699 283.77767 18.1775091 280.869027 16.0898431 284.466221 16.0898431"></polygon>
                        <g id="Group-7" transform="translate(133.204479, 81.161504)" fill="#DADFE1">
                            <polygon id="Fill-16" points="0.299602673 39.4171313 170.213888 39.4171313 170.213888 32.3993272 0.299602673 32.3993272"></polygon>
                            <polygon id="Fill-16" points="0.299602673 56.0046684 170.213888 56.0046684 170.213888 48.9868643 0.299602673 48.9868643"></polygon>
                            <polygon id="Fill-17" points="0.299602673 22.8295943 170.213888 22.8295943 170.213888 15.8117901 0.299602673 15.8117901"></polygon>
                            <polygon id="Fill-18" points="0.299602673 7.51802156 170.213888 7.51802156 170.213888 0.500217403 0.299602673 0.500217403"></polygon>
                        </g>
                        <g id="Group-7-Copy" transform="translate(20.141214, 152.477745)" fill="#DADFE1">
                            <polygon id="Fill-16" points="0.299602673 38.9169139 257.087358 38.9169139 257.087358 31.8991098 0.299602673 31.8991098"></polygon>
                            <polygon id="Fill-17" points="1.57715369 23.6053412 283.277154 23.6053412 283.277154 15.3115727 1.57715369 15.3115727"></polygon>
                            <polygon id="Fill-18" points="0.299602673 7.01780415 147.856746 7.01780415 147.856746 0 0.299602673 0"></polygon>
                        </g>
                        <rect id="Rectangle-4-Copy" fill="#427FE0" x="19.9433628" y="71.4540059" width="104.759184" height="70.8160237"></rect>
                        <path d="M52.4739751,97.9050965 L52.4739751,103.267569 L49.9040485,103.267569 L49.9040485,97.9050965 L44.8692851,89.4701757 L47.1334956,89.4701757 C47.3564148,89.4701757 47.5331552,89.5242451 47.6637221,89.6323857 C47.794289,89.7405262 47.9041547,89.8772902 47.9933224,90.0426816 L50.5250345,94.6513544 C50.6715242,94.9248864 50.7989047,95.1841018 50.9071797,95.4290083 C51.0154547,95.6739149 51.1141746,95.9140469 51.2033422,96.1494117 C51.2861408,95.9076857 51.3800839,95.6643731 51.4851743,95.4194666 C51.5902648,95.17456 51.716053,94.9185252 51.8625428,94.6513544 L54.3751476,90.0426816 C54.4452079,89.902735 54.5502968,89.7723322 54.6904174,89.6514692 C54.830538,89.5306062 55.0088707,89.4701757 55.2254207,89.4701757 L57.4991848,89.4701757 L52.4739751,97.9050965 Z M72.0875788,96.3688723 C72.0875788,97.3803045 71.9187997,98.3169785 71.5812364,99.1789223 C71.2436731,100.040866 70.7691808,100.786707 70.1577454,101.416466 C69.5463131,102.046226 68.8106878,102.537622 67.9508567,102.890669 C67.0910257,103.243716 66.1388567,103.420237 65.0943212,103.420237 C64.0497857,103.420237 63.0960244,103.243716 62.2330088,102.890669 C61.3699932,102.537622 60.6311865,102.046226 60.0165665,101.416466 C59.4019465,100.786707 58.925862,100.040866 58.5882987,99.1789223 C58.2507354,98.3169785 58.0819563,97.3803045 58.0819563,96.3688723 C58.0819563,95.35744 58.2507354,94.4207661 58.5882987,93.5588223 C58.925862,92.6968785 59.4019465,91.9510379 60.0165665,91.3212782 C60.6311865,90.6915185 61.3699932,90.2001225 62.2330088,89.8470754 C63.0960244,89.4940283 64.0497857,89.3175074 65.0943212,89.3175074 C66.1388567,89.3175074 67.0910257,89.4956186 67.9508567,89.8518463 C68.8106878,90.208074 69.5463131,90.69947 70.1577454,91.3260491 C70.7691808,91.9526282 71.2436731,92.6968785 71.5812364,93.5588223 C71.9187997,94.4207661 72.0875788,95.35744 72.0875788,96.3688723 Z M69.4507768,96.3688723 C69.4507768,95.6118884 69.3504646,94.9328395 69.1498374,94.3317053 C68.9492101,93.730571 68.6610118,93.2200917 68.2852338,92.8002519 C67.9094558,92.3804121 67.4524784,92.0591759 66.9142878,91.8365336 C66.3760973,91.6138912 65.7694478,91.5025718 65.0943212,91.5025718 C64.4191946,91.5025718 63.8109528,91.6138912 63.2695777,91.8365336 C62.7282026,92.0591759 62.2680407,92.3804121 61.8890781,92.8002519 C61.5101155,93.2200917 61.2187327,93.730571 61.0149209,94.3317053 C60.8111091,94.9328395 60.7092047,95.6118884 60.7092047,96.3688723 C60.7092047,97.1258561 60.8111091,97.804905 61.0149209,98.4060392 C61.2187327,99.0071735 61.5101155,99.5160626 61.8890781,99.9327218 C62.2680407,100.349381 62.7282026,100.669027 63.2695777,100.891669 C63.8109528,101.114312 64.4191946,101.225631 65.0943212,101.225631 C65.7694478,101.225631 66.3760973,101.114312 66.9142878,100.891669 C67.4524784,100.669027 67.9094558,100.349381 68.2852338,99.9327218 C68.6610118,99.5160626 68.9492101,99.0071735 69.1498374,98.4060392 C69.3504646,97.804905 69.4507768,97.1258561 69.4507768,96.3688723 Z M79.6731615,101.197006 C80.1699528,101.197006 80.6141922,101.114311 81.005893,100.94892 C81.3975938,100.783528 81.728783,100.551348 81.9994706,100.252371 C82.2701581,99.9533941 82.4771514,99.5908106 82.6204566,99.1646096 C82.7637618,98.7384086 82.8354133,98.2613251 82.8354133,97.7333448 L82.8354133,89.4701757 L85.4053399,89.4701757 L85.4053399,97.7333448 C85.4053399,98.5539407 85.2731827,99.3125035 85.0088642,100.009056 C84.7445458,100.705608 84.3639967,101.306733 83.8672054,101.81245 C83.3704141,102.318166 82.7685414,102.712555 82.0615692,102.995629 C81.354597,103.278702 80.5584691,103.420237 79.6731615,103.420237 C78.787854,103.420237 77.9917261,103.278702 77.2847539,102.995629 C76.5777817,102.712555 75.9775012,102.318166 75.4838945,101.81245 C74.9902878,101.306733 74.6113309,100.705608 74.3470125,100.009056 C74.082694,99.3125035 73.9505368,98.5539407 73.9505368,97.7333448 L73.9505368,89.4701757 L76.5204634,89.4701757 L76.5204634,97.723803 C76.5204634,98.2517833 76.5921149,98.7288668 76.7354201,99.1550678 C76.8787253,99.5812688 77.0841263,99.9454426 77.3516293,100.2476 C77.6191323,100.549757 77.9487292,100.783528 78.3404301,100.94892 C78.7321309,101.114311 79.1763703,101.197006 79.6731615,101.197006 Z M90.678944,97.8764712 L90.678944,103.267569 L88.1090174,103.267569 L88.1090174,89.4701757 L92.3221685,89.4701757 C93.2647981,89.4701757 94.0720718,89.5671827 94.7440139,89.7611995 C95.4159559,89.9552164 95.9668764,90.227154 96.396792,90.5770205 C96.8267075,90.926887 97.1419741,91.3451302 97.3426014,91.8317627 C97.5432286,92.3183952 97.6435407,92.854319 97.6435407,93.4395502 C97.6435407,93.9039185 97.5750737,94.3428353 97.4381377,94.7563139 C97.3012016,95.1697924 97.1037619,95.5450981 96.8458126,95.8822422 C96.5878633,96.2193863 96.2694121,96.5151781 95.8904495,96.7696264 C95.511487,97.0240748 95.0799856,97.2276304 94.5959326,97.3802994 C94.9207576,97.5647745 95.2009947,97.8287607 95.4366521,98.172266 L98.8950664,103.267569 L96.5830877,103.267569 C96.3601686,103.267569 96.1706901,103.223041 96.0146467,103.133984 C95.8586033,103.044927 95.7264461,102.917705 95.6181711,102.752314 L92.7138673,98.334476 C92.6055923,98.1690846 92.4861731,98.051404 92.3556062,97.9814307 C92.2250393,97.9114574 92.0323763,97.8764712 91.7776115,97.8764712 L90.678944,97.8764712 Z M90.678944,96.0349105 L92.283954,96.0349105 C92.768007,96.0349105 93.1899548,95.9744799 93.54981,95.8536169 C93.9096652,95.7327539 94.2058248,95.5657747 94.4382977,95.3526742 C94.6707705,95.1395737 94.8443264,94.8867195 94.9589705,94.5941038 C95.0736147,94.3014882 95.1309359,93.980252 95.1309359,93.6303855 C95.1309359,92.9306525 94.9000588,92.3931384 94.4382977,92.0178271 C93.9765365,91.6425158 93.2711672,91.4548629 92.3221685,91.4548629 L90.678944,91.4548629 L90.678944,96.0349105 Z M30.0372736,121.311048 L30.0372736,126.167807 L27.4673469,126.167807 L27.4673469,112.370413 L31.967107,112.370413 C32.8906292,112.370413 33.6899416,112.478552 34.3650683,112.694833 C35.0401949,112.911114 35.5974844,113.213267 36.0369536,113.601301 C36.4764228,113.989335 36.801243,114.453696 37.0114239,114.994399 C37.2216049,115.535102 37.3266938,116.126685 37.3266938,116.769167 C37.3266938,117.437094 37.2152358,118.049351 36.9923167,118.605957 C36.7693975,119.162563 36.4350238,119.641237 35.9891855,120.041993 C35.5433471,120.442749 34.9860576,120.754444 34.3173001,120.977086 C33.6485426,121.199728 32.8651527,121.311048 31.967107,121.311048 L30.0372736,121.311048 Z M30.0372736,119.307277 L31.967107,119.307277 C32.4384218,119.307277 32.8492238,119.248437 33.1995253,119.130754 C33.5498269,119.013072 33.8396174,118.844502 34.0689057,118.625041 C34.298194,118.405579 34.4701576,118.138412 34.5848018,117.823532 C34.6994459,117.508653 34.7567671,117.157201 34.7567671,116.769167 C34.7567671,116.400217 34.6994459,116.066259 34.5848018,115.767282 C34.4701576,115.468305 34.298194,115.213861 34.0689057,115.003941 C33.8396174,114.794021 33.5498269,114.633403 33.1995253,114.522081 C32.8492238,114.41076 32.4384218,114.355101 31.967107,114.355101 L30.0372736,114.355101 L30.0372736,119.307277 Z M41.9793119,120.776709 L41.9793119,126.167807 L39.4093852,126.167807 L39.4093852,112.370413 L43.6225363,112.370413 C44.5651659,112.370413 45.3724397,112.46742 46.0443817,112.661437 C46.7163238,112.855454 47.2672443,113.127392 47.6971598,113.477258 C48.1270753,113.827125 48.442342,114.245368 48.6429692,114.732 C48.8435965,115.218633 48.9439086,115.754557 48.9439086,116.339788 C48.9439086,116.804156 48.8754416,117.243073 48.7385055,117.656552 C48.6015695,118.07003 48.4041298,118.445336 48.1461804,118.78248 C47.8882311,119.119624 47.56978,119.415416 47.1908174,119.669864 C46.8118548,119.924312 46.3803535,120.127868 45.8963004,120.280537 C46.2211255,120.465012 46.5013625,120.728998 46.7370199,121.072504 L50.1954342,126.167807 L47.8834556,126.167807 C47.6605364,126.167807 47.471058,126.123279 47.3150146,126.034222 C47.1589712,125.945165 47.0268139,125.817943 46.9185389,125.652551 L44.0142352,121.234714 C43.9059602,121.069322 43.786541,120.951642 43.655974,120.881668 C43.5254071,120.811695 43.3327441,120.776709 43.0779794,120.776709 L41.9793119,120.776709 Z M41.9793119,118.935148 L43.5843218,118.935148 C44.0683749,118.935148 44.4903227,118.874718 44.8501779,118.753855 C45.2100331,118.632992 45.5061927,118.466012 45.7386655,118.252912 C45.9711384,118.039811 46.1446943,117.786957 46.2593384,117.494342 C46.3739825,117.201726 46.4313037,116.88049 46.4313037,116.530623 C46.4313037,115.83089 46.2004266,115.293376 45.7386655,114.918065 C45.2769044,114.542753 44.5715351,114.355101 43.6225363,114.355101 L41.9793119,114.355101 L41.9793119,118.935148 Z M65.0895444,119.26911 C65.0895444,120.280542 64.9207652,121.217216 64.5832019,122.07916 C64.2456386,122.941104 63.7711464,123.686944 63.159711,124.316704 C62.5482786,124.946464 61.8126534,125.43786 60.9528223,125.790907 C60.0929912,126.143954 59.1408223,126.320475 58.0962867,126.320475 C57.0517512,126.320475 56.09799,126.143954 55.2349744,125.790907 C54.3719588,125.43786 53.633152,124.946464 53.0185321,124.316704 C52.4039121,123.686944 51.9278276,122.941104 51.5902643,122.07916 C51.252701,121.217216 51.0839219,120.280542 51.0839219,119.26911 C51.0839219,118.257678 51.252701,117.321004 51.5902643,116.45906 C51.9278276,115.597116 52.4039121,114.851276 53.0185321,114.221516 C53.633152,113.591756 54.3719588,113.10036 55.2349744,112.747313 C56.09799,112.394266 57.0517512,112.217745 58.0962867,112.217745 C59.1408223,112.217745 60.0929912,112.395856 60.9528223,112.752084 C61.8126534,113.108312 62.5482786,113.599708 63.159711,114.226287 C63.7711464,114.852866 64.2456386,115.597116 64.5832019,116.45906 C64.9207652,117.321004 65.0895444,118.257678 65.0895444,119.26911 Z M62.4527423,119.26911 C62.4527423,118.512126 62.3524302,117.833077 62.1518029,117.231943 C61.9511757,116.630809 61.6629774,116.120329 61.2871994,115.70049 C60.9114214,115.28065 60.4544439,114.959414 59.9162534,114.736771 C59.3780628,114.514129 58.7714134,114.402809 58.0962867,114.402809 C57.4211601,114.402809 56.8129184,114.514129 56.2715433,114.736771 C55.7301682,114.959414 55.2700062,115.28065 54.8910437,115.70049 C54.5120811,116.120329 54.2206983,116.630809 54.0168865,117.231943 C53.8130747,117.833077 53.7111703,118.512126 53.7111703,119.26911 C53.7111703,120.026094 53.8130747,120.705143 54.0168865,121.306277 C54.2206983,121.907411 54.5120811,122.4163 54.8910437,122.832959 C55.2700062,123.249619 55.7301682,123.569265 56.2715433,123.791907 C56.8129184,124.014549 57.4211601,124.125869 58.0962867,124.125869 C58.7714134,124.125869 59.3780628,124.014549 59.9162534,123.791907 C60.4544439,123.569265 60.9114214,123.249619 61.2871994,122.832959 C61.6629774,122.4163 61.9511757,121.907411 62.1518029,121.306277 C62.3524302,120.705143 62.4527423,120.026094 62.4527423,119.26911 Z M79.3817758,119.26911 C79.3817758,120.280542 79.2129967,121.209265 78.8754334,122.055306 C78.5378701,122.901346 78.0633778,123.629694 77.4519424,124.24037 C76.840507,124.851046 76.1048848,125.324949 75.2450537,125.662093 C74.3852227,125.999237 73.4330537,126.167807 72.3885182,126.167807 L67.1149141,126.167807 L67.1149141,112.370413 L72.3885182,112.370413 C73.4330537,112.370413 74.3852227,112.540573 75.2450537,112.880898 C76.1048848,113.221222 76.840507,113.695125 77.4519424,114.302621 C78.0633778,114.910116 78.5378701,115.636874 78.8754334,116.482914 C79.2129967,117.328955 79.3817758,118.257678 79.3817758,119.26911 Z M76.7545274,119.26911 C76.7545274,118.512126 76.652623,117.833077 76.4488112,117.231943 C76.2449994,116.630809 75.9552088,116.12192 75.5794308,115.70526 C75.2036528,115.288601 74.7466754,114.968955 74.2084848,114.746313 C73.6702943,114.523671 73.0636448,114.412351 72.3885182,114.412351 L69.703948,114.412351 L69.703948,124.125869 L72.3885182,124.125869 C73.0636448,124.125869 73.6702943,124.014549 74.2084848,123.791907 C74.7466754,123.569265 75.2036528,123.249619 75.5794308,122.832959 C75.9552088,122.4163 76.2449994,121.907411 76.4488112,121.306277 C76.652623,120.705143 76.7545274,120.026094 76.7545274,119.26911 Z M86.9578049,124.097243 C87.4545962,124.097243 87.8988355,124.014549 88.2905364,123.849157 C88.6822372,123.683766 89.0134264,123.451585 89.2841139,123.152609 C89.5548015,122.853632 89.7617948,122.491048 89.9050999,122.064847 C90.0484051,121.638646 90.1200566,121.161563 90.1200566,120.633582 L90.1200566,112.370413 L92.6899833,112.370413 L92.6899833,120.633582 C92.6899833,121.454178 92.557826,122.212741 92.2935076,122.909294 C92.0291892,123.605846 91.64864,124.206971 91.1518487,124.712687 C90.6550575,125.218403 90.0531847,125.612792 89.3462125,125.895866 C88.6392403,126.17894 87.8431124,126.320475 86.9578049,126.320475 C86.0724974,126.320475 85.2763694,126.17894 84.5693972,125.895866 C83.862425,125.612792 83.2621446,125.218403 82.7685379,124.712687 C82.2749311,124.206971 81.8959742,123.605846 81.6316558,122.909294 C81.3673374,122.212741 81.2351801,121.454178 81.2351801,120.633582 L81.2351801,112.370413 L83.8051068,112.370413 L83.8051068,120.624041 C83.8051068,121.152021 83.8767583,121.629105 84.0200635,122.055306 C84.1633686,122.481507 84.3687696,122.84568 84.6362726,123.147838 C84.9037756,123.449995 85.2333726,123.683766 85.6250734,123.849157 C86.0167742,124.014549 86.4610136,124.097243 86.9578049,124.097243 Z M104.803987,122.914064 C104.944108,122.914064 105.065119,122.968134 105.167025,123.076274 L106.17971,124.173577 C105.619227,124.866949 104.92978,125.398102 104.111349,125.767052 C103.292917,126.136002 102.310495,126.320475 101.164054,126.320475 C100.138625,126.320475 99.2167094,126.145544 98.3982776,125.795678 C97.5798458,125.445811 96.8808455,124.959186 96.3012556,124.335788 C95.7216658,123.712389 95.2774264,122.968139 94.9685242,122.103014 C94.6596219,121.23789 94.5051731,120.293265 94.5051731,119.26911 C94.5051731,118.232233 94.6771367,117.282837 95.0210691,116.420893 C95.3650016,115.558949 95.8490473,114.816289 96.473221,114.192891 C97.0973947,113.569492 97.8441626,113.084457 98.7135474,112.737771 C99.5829321,112.391085 100.543062,112.217745 101.593967,112.217745 C102.619395,112.217745 103.515835,112.381544 104.283314,112.709146 C105.050793,113.036748 105.708395,113.470894 106.256139,114.011597 L105.396312,115.204318 C105.345359,115.280652 105.280077,115.347444 105.200463,115.404695 C105.120849,115.461946 105.010983,115.490571 104.870862,115.490571 C104.724373,115.490571 104.574701,115.433321 104.421842,115.318819 C104.268983,115.204317 104.074728,115.080275 103.83907,114.94669 C103.603413,114.813105 103.305661,114.689063 102.945806,114.574561 C102.585951,114.460059 102.128973,114.402809 101.57486,114.402809 C100.92521,114.402809 100.328114,114.515719 99.783554,114.741542 C99.2389943,114.967365 98.7708711,115.290192 98.3791703,115.710031 C97.9874695,116.129871 97.6817564,116.64035 97.4620218,117.241485 C97.2422872,117.842619 97.1324215,118.518487 97.1324215,119.26911 C97.1324215,120.045177 97.2422872,120.735358 97.4620218,121.339673 C97.6817564,121.943988 97.9795082,122.452877 98.3552862,122.866356 C98.7310642,123.279834 99.1737114,123.5963 99.6832409,123.815761 C100.19277,124.035223 100.740506,124.144952 101.326465,124.144952 C101.676767,124.144952 101.993626,124.125869 102.277052,124.087702 C102.560477,124.049534 102.821607,123.989104 103.060449,123.906408 C103.299291,123.823712 103.525392,123.717164 103.738757,123.586759 C103.898781,123.488955 104.057908,123.374157 104.21614,123.242361 L104.374074,123.1049 C104.437765,123.047649 104.504639,123.001531 104.5747,122.966544 C104.64476,122.931557 104.721188,122.914064 104.803987,122.914064 Z M117.854246,112.370413 L117.854246,114.479144 L113.698417,114.479144 L113.698417,126.167807 L111.12849,126.167807 L111.12849,114.479144 L106.953554,114.479144 L106.953554,112.370413 L117.854246,112.370413 Z" id="YOURPRODUCT" fill="#FFFFFF" fill-rule="nonzero"></path>
                        <path d="M173.606408,151.035905 L174.858408,151.035905 C174.977647,151.035905 175.077721,151.063551 175.158633,151.118843 C175.239545,151.174135 175.290646,151.244312 175.311939,151.329377 L176.250939,154.825519 C176.302041,155.016915 176.343561,155.204054 176.3755,155.386944 L176.468122,155.935608 L176.468122,155.935608 C176.514966,155.752719 176.565003,155.569833 176.618235,155.386944 L176.700477,155.109421 L176.700477,155.109421 L177.873429,151.316617 C177.89898,151.231552 177.950081,151.161375 178.026735,151.106083 C178.103388,151.050791 178.192816,151.023145 178.29502,151.023145 L178.991286,151.023145 C179.106266,151.023145 179.202081,151.050791 179.278735,151.106083 C179.355388,151.161375 179.40649,151.231552 179.432041,151.316617 L180.505184,154.889318 L180.608807,155.248005 C180.624895,155.306605 180.640391,155.364614 180.655296,155.422033 L180.786245,155.941988 L180.786245,155.941988 C180.816055,155.759099 180.849058,155.576213 180.885255,155.393323 C180.921453,155.210434 180.967231,155.021168 181.022592,154.825519 L181.993531,151.329377 C182.014823,151.244312 182.065925,151.174135 182.146837,151.118843 C182.227749,151.063551 182.321435,151.035905 182.427898,151.035905 L183.622408,151.035905 L181.546388,157.581602 L180.275224,157.581602 C180.138952,157.581602 180.041007,157.488033 179.981388,157.30089 L178.799653,153.517656 C178.761326,153.394312 178.726194,153.269907 178.694255,153.144436 C178.662316,153.018966 178.635701,152.89456 178.614408,152.771217 C178.588857,152.898814 178.561177,153.025346 178.531367,153.150816 C178.501558,153.276286 178.46749,153.402818 178.429163,153.530415 L177.234653,157.30089 C177.175034,157.488033 177.060055,157.581602 176.889714,157.581602 L175.682429,157.581602 L173.606408,151.035905 Z M183.711837,151.035905 L184.963837,151.035905 C185.083075,151.035905 185.183149,151.063551 185.264061,151.118843 C185.344973,151.174135 185.396075,151.244312 185.417367,151.329377 L186.356367,154.825519 C186.40747,155.016915 186.44899,155.204054 186.480929,155.386944 L186.573551,155.935608 L186.573551,155.935608 C186.620395,155.752719 186.670432,155.569833 186.723663,155.386944 L186.805906,155.109421 L186.805906,155.109421 L187.978857,151.316617 C188.004408,151.231552 188.05551,151.161375 188.132163,151.106083 C188.208817,151.050791 188.298244,151.023145 188.400449,151.023145 L189.096714,151.023145 C189.211694,151.023145 189.30751,151.050791 189.384163,151.106083 C189.460816,151.161375 189.511918,151.231552 189.537469,151.316617 L190.610612,154.889318 L190.714236,155.248005 C190.730323,155.306605 190.74582,155.364614 190.760724,155.422033 L190.891673,155.941988 L190.891673,155.941988 C190.921483,155.759099 190.954486,155.576213 190.990684,155.393323 C191.026881,155.210434 191.07266,155.021168 191.12802,154.825519 L192.098959,151.329377 C192.120252,151.244312 192.171353,151.174135 192.252265,151.118843 C192.333177,151.063551 192.426863,151.035905 192.533327,151.035905 L193.727837,151.035905 L191.651816,157.581602 L190.380653,157.581602 C190.24438,157.581602 190.146436,157.488033 190.086816,157.30089 L188.905082,153.517656 C188.866755,153.394312 188.831623,153.269907 188.799684,153.144436 C188.767745,153.018966 188.741129,152.89456 188.719837,152.771217 C188.694286,152.898814 188.666606,153.025346 188.636796,153.150816 C188.606986,153.276286 188.572919,153.402818 188.534592,153.530415 L187.340082,157.30089 C187.280462,157.488033 187.165484,157.581602 186.995143,157.581602 L185.787857,157.581602 L183.711837,151.035905 Z M193.817265,151.035905 L195.069265,151.035905 C195.188504,151.035905 195.288578,151.063551 195.36949,151.118843 C195.450402,151.174135 195.501503,151.244312 195.522796,151.329377 L196.461796,154.825519 C196.512898,155.016915 196.554418,155.204054 196.586357,155.386944 L196.67898,155.935608 L196.67898,155.935608 C196.725823,155.752719 196.77586,155.569833 196.829092,155.386944 L196.911334,155.109421 L196.911334,155.109421 L198.084286,151.316617 C198.109837,151.231552 198.160938,151.161375 198.237592,151.106083 C198.314245,151.050791 198.403673,151.023145 198.505878,151.023145 L199.202143,151.023145 C199.317123,151.023145 199.412938,151.050791 199.489592,151.106083 C199.566245,151.161375 199.617347,151.231552 199.642898,151.316617 L200.716041,154.889318 L200.819664,155.248005 C200.835752,155.306605 200.851248,155.364614 200.866153,155.422033 L200.997102,155.941988 L200.997102,155.941988 C201.026912,155.759099 201.059915,155.576213 201.096112,155.393323 C201.13231,155.210434 201.178088,155.021168 201.233449,154.825519 L202.204388,151.329377 C202.22568,151.244312 202.276782,151.174135 202.357694,151.118843 C202.438606,151.063551 202.532292,151.035905 202.638755,151.035905 L203.833265,151.035905 L201.757245,157.581602 L200.486082,157.581602 C200.349809,157.581602 200.251864,157.488033 200.192245,157.30089 L199.01051,153.517656 C198.972183,153.394312 198.937051,153.269907 198.905112,153.144436 C198.873173,153.018966 198.846558,152.89456 198.825265,152.771217 C198.799714,152.898814 198.772034,153.025346 198.742224,153.150816 C198.712415,153.276286 198.678347,153.402818 198.64002,153.530415 L197.44551,157.30089 C197.385891,157.488033 197.270912,157.581602 197.100571,157.581602 L195.893286,157.581602 L193.817265,151.035905 Z M204.344286,156.713947 C204.344286,156.582096 204.368772,156.456628 204.417745,156.337537 C204.466718,156.218446 204.534853,156.11637 204.622153,156.031306 C204.709453,155.946241 204.81272,155.87819 204.931959,155.827151 C205.051198,155.776113 205.178952,155.750593 205.315224,155.750593 C205.447239,155.750593 205.572863,155.776113 205.692102,155.827151 C205.811341,155.87819 205.913544,155.946241 205.998714,156.031306 C206.083885,156.11637 206.15202,156.218446 206.203122,156.337537 C206.254225,156.456628 206.279776,156.582096 206.279776,156.713947 C206.279776,156.85005 206.254225,156.976582 206.203122,157.093546 C206.15202,157.21051 206.083885,157.311523 205.998714,157.396588 C205.913544,157.481652 205.811341,157.54864 205.692102,157.597552 C205.572863,157.646464 205.447239,157.67092 205.315224,157.67092 C205.178952,157.67092 205.051198,157.646464 204.931959,157.597552 C204.81272,157.54864 204.709453,157.481652 204.622153,157.396588 C204.534853,157.311523 204.466718,157.21051 204.417745,157.093546 C204.368772,156.976582 204.344286,156.85005 204.344286,156.713947 Z M209.920796,159.380712 C209.873952,159.491296 209.813269,159.575296 209.738745,159.632715 C209.664221,159.690134 209.550307,159.718843 209.397,159.718843 L208.221653,159.718843 L209.448102,157.096736 L206.797184,151.035905 L208.176939,151.035905 C208.304695,151.035905 208.402639,151.065677 208.470776,151.125223 C208.538912,151.184768 208.590013,151.252819 208.624082,151.329377 L210.023,154.723442 C210.069844,154.834026 210.110299,154.948862 210.144367,155.067953 C210.178436,155.187043 210.208245,155.306132 210.233796,155.425223 C210.267864,155.301879 210.305126,155.182789 210.345582,155.067953 L210.408661,154.894102 L210.408661,154.894102 L211.792408,151.329377 C211.826476,151.244312 211.882901,151.174135 211.961684,151.118843 C212.040466,151.063551 212.128829,151.035905 212.226776,151.035905 L213.491551,151.035905 L209.920796,159.380712 Z M217.209224,150.933828 C217.698955,150.933828 218.142899,151.012512 218.541071,151.169881 C218.939243,151.327251 219.278856,151.550543 219.559918,151.839763 C219.840981,152.128983 220.058162,152.481996 220.211469,152.898813 C220.364776,153.31563 220.441429,153.781353 220.441429,154.295994 C220.441429,154.814889 220.364776,155.282738 220.211469,155.699555 C220.058162,156.116372 219.840981,156.471512 219.559918,156.764985 C219.278856,157.058458 218.939243,157.283877 218.541071,157.441246 C218.142899,157.598616 217.698955,157.6773 217.209224,157.6773 C216.719494,157.6773 216.274485,157.598616 215.874184,157.441246 C215.473882,157.283877 215.132141,157.058458 214.848949,156.764985 C214.565757,156.471512 214.346446,156.116372 214.19101,155.699555 C214.035574,155.282738 213.957857,154.814889 213.957857,154.295994 C213.957857,153.781353 214.035574,153.31563 214.19101,152.898813 C214.346446,152.481996 214.565757,152.128983 214.848949,151.839763 C215.132141,151.550543 215.473882,151.327251 215.874184,151.169881 C216.274485,151.012512 216.719494,150.933828 217.209224,150.933828 Z M217.209224,156.465134 C217.754316,156.465134 218.157805,156.282247 218.419704,155.916469 C218.681603,155.550691 218.812551,155.014791 218.812551,154.308754 C218.812551,153.602717 218.681603,153.06469 218.419704,152.694659 C218.157805,152.324627 217.754316,152.139614 217.209224,152.139614 C216.655616,152.139614 216.246804,152.325691 215.982776,152.697849 C215.718747,153.070007 215.586735,153.60697 215.586735,154.308754 C215.586735,155.010534 215.718747,155.545374 215.982776,155.913279 C216.246804,156.281184 216.655616,156.465134 217.209224,156.465134 Z M223.117898,151.035905 L223.117898,155.195549 C223.117898,155.595353 223.210519,155.904771 223.395765,156.123813 C223.581011,156.342855 223.858876,156.452374 224.229367,156.452374 C224.501913,156.452374 224.757421,156.391766 224.995898,156.270549 C225.234375,156.149332 225.460074,155.982395 225.673,155.769733 L225.673,151.035905 L227.250776,151.035905 L227.250776,157.581602 L226.286224,157.581602 C226.081815,157.581602 225.947674,157.485906 225.883796,157.29451 L225.775204,156.771365 C225.638931,156.907469 225.498402,157.031874 225.353612,157.144585 C225.208822,157.257295 225.054453,157.352992 224.8905,157.431677 C224.726547,157.510361 224.549821,157.572032 224.360316,157.616691 C224.170812,157.66135 223.96747,157.68368 223.750286,157.68368 C223.39257,157.68368 223.076379,157.623072 222.801704,157.501855 C222.527029,157.380637 222.296008,157.209447 222.108633,156.988279 C221.921258,156.767111 221.779664,156.504477 221.683847,156.200371 C221.58803,155.896265 221.540122,155.561327 221.540122,155.195549 L221.540122,151.035905 L223.117898,151.035905 Z M228.937143,157.581602 L228.937143,151.035905 L229.863367,151.035905 C230.025191,151.035905 230.13804,151.065677 230.201918,151.125223 C230.265796,151.184768 230.308381,151.286844 230.329673,151.431454 L230.42549,152.222552 C230.659709,151.818495 230.934379,151.499507 231.24951,151.265579 C231.564641,151.031651 231.918093,150.914688 232.309878,150.914688 C232.633525,150.914688 232.901808,150.989119 233.114735,151.137982 L232.910327,152.318249 C232.897551,152.394808 232.869871,152.449035 232.827286,152.480935 C232.7847,152.512834 232.727211,152.528783 232.654816,152.528783 C232.606908,152.528783 232.545825,152.52041 232.471568,152.503663 L232.392918,152.484125 C232.282197,152.454352 232.13528,152.439466 231.952163,152.439466 C231.624257,152.439466 231.343198,152.529846 231.10898,152.710608 C230.874761,152.891371 230.676742,153.156131 230.514918,153.504896 L230.514918,157.581602 L228.937143,157.581602 Z M233.357469,151.035905 L234.609469,151.035905 C234.728708,151.035905 234.828782,151.063551 234.909694,151.118843 C234.990606,151.174135 235.041707,151.244312 235.063,151.329377 L236.002,154.825519 C236.053102,155.016915 236.094622,155.204054 236.126561,155.386944 L236.219184,155.935608 L236.219184,155.935608 C236.266027,155.752719 236.316064,155.569833 236.369296,155.386944 L236.451538,155.109421 L236.451538,155.109421 L237.62449,151.316617 C237.650041,151.231552 237.701142,151.161375 237.777796,151.106083 C237.854449,151.050791 237.943877,151.023145 238.046082,151.023145 L238.742347,151.023145 C238.857327,151.023145 238.953142,151.050791 239.029796,151.106083 C239.106449,151.161375 239.157551,151.231552 239.183102,151.316617 L240.256245,154.889318 L240.359868,155.248005 C240.375956,155.306605 240.391452,155.364614 240.406357,155.422033 L240.537306,155.941988 L240.537306,155.941988 C240.567116,155.759099 240.600119,155.576213 240.636316,155.393323 C240.672514,155.210434 240.718292,155.021168 240.773653,154.825519 L241.744592,151.329377 C241.765884,151.244312 241.816986,151.174135 241.897898,151.118843 C241.97881,151.063551 242.072496,151.035905 242.178959,151.035905 L243.373469,151.035905 L241.297449,157.581602 L240.026286,157.581602 C239.890013,157.581602 239.792068,157.488033 239.732449,157.30089 L238.550714,153.517656 C238.512388,153.394312 238.477255,153.269907 238.445316,153.144436 C238.413377,153.018966 238.386762,152.89456 238.365469,152.771217 C238.339918,152.898814 238.312238,153.025346 238.282429,153.150816 C238.252619,153.276286 238.218551,153.402818 238.180224,153.530415 L236.985714,157.30089 C236.926095,157.488033 236.811116,157.581602 236.640776,157.581602 L235.43349,157.581602 L233.357469,151.035905 Z M246.969776,150.933828 C247.382852,150.933828 247.76292,150.999752 248.10999,151.131602 C248.45706,151.263453 248.756216,151.455909 249.007469,151.708976 C249.258722,151.962044 249.454612,152.272525 249.595143,152.64043 C249.735674,153.008335 249.805939,153.428336 249.805939,153.900445 C249.805939,154.019536 249.800616,154.118422 249.789969,154.197107 C249.779323,154.275792 249.76016,154.337463 249.73248,154.382122 C249.704799,154.426781 249.667538,154.458679 249.620694,154.477819 C249.57385,154.496959 249.514232,154.506528 249.441837,154.506528 L245.392,154.506528 C245.438844,155.178539 245.619828,155.671907 245.934959,155.986647 C246.25009,156.301386 246.667419,156.458754 247.186959,156.458754 C247.442471,156.458754 247.662846,156.428982 247.848092,156.369436 C248.033338,156.309891 248.195159,156.243967 248.333561,156.171662 L248.587652,156.035559 C248.626215,156.014293 248.662885,155.993736 248.697663,155.973887 C248.801997,155.914342 248.903136,155.88457 249.001082,155.88457 C249.06496,155.88457 249.120319,155.897329 249.167163,155.922849 C249.214007,155.948368 249.254462,155.98452 249.288531,156.031306 L249.748449,156.60549 C249.573849,156.809645 249.37796,156.980835 249.160776,157.119065 C248.943591,157.257295 248.716828,157.367878 248.48048,157.450816 C248.244131,157.533754 248.003528,157.592235 247.758663,157.626261 C247.513798,157.660287 247.276389,157.6773 247.046429,157.6773 C246.590766,157.6773 246.16705,157.601806 245.775265,157.450816 C245.383481,157.299826 245.042804,157.076535 244.753224,156.780935 C244.463645,156.485335 244.235817,156.119562 244.069735,155.683605 C243.903652,155.247649 243.820612,154.742584 243.820612,154.168398 C243.820612,153.721808 243.893006,153.301807 244.037796,152.908383 C244.182586,152.514958 244.390186,152.172578 244.660602,151.881231 C244.931018,151.589885 245.261049,151.35915 245.650704,151.189021 C246.040359,151.018891 246.480045,150.933828 246.969776,150.933828 Z M247.001714,152.063056 C246.541794,152.063056 246.181954,152.192778 245.922184,152.452226 C245.662414,152.711673 245.496334,153.079572 245.423939,153.555935 L248.387857,153.555935 C248.387857,153.351779 248.360177,153.159323 248.304816,152.978561 C248.249456,152.797798 248.164286,152.639368 248.049306,152.503264 C247.934326,152.367161 247.789538,152.259768 247.614939,152.181083 C247.440339,152.102398 247.235933,152.063056 247.001714,152.063056 Z M251.109041,157.581602 L251.109041,148.101187 L252.686816,148.101187 L252.686816,151.839763 C252.946586,151.563302 253.24042,151.343201 253.568327,151.179451 C253.896233,151.015701 254.279494,150.933828 254.718122,150.933828 C255.075839,150.933828 255.402675,151.007195 255.698643,151.153932 C255.99461,151.300668 256.250118,151.51439 256.465173,151.795104 C256.680229,152.075817 256.846309,152.422451 256.963418,152.835015 C257.080528,153.247579 257.139082,153.721807 257.139082,154.257715 C257.139082,154.746837 257.073075,155.1998 256.941061,155.616617 C256.809047,156.033434 256.62061,156.394955 256.375745,156.701187 C256.13088,157.00742 255.834917,157.246661 255.487847,157.418917 C255.140777,157.591173 254.752193,157.6773 254.322082,157.6773 C254.121931,157.6773 253.938817,157.657097 253.772735,157.616691 C253.606652,157.576286 253.455477,157.519931 253.319204,157.447626 C253.182931,157.375321 253.056242,157.287068 252.939133,157.182864 C252.822023,157.078659 252.710239,156.96276 252.603776,156.835163 L252.53351,157.275371 C252.507959,157.385955 252.46431,157.464639 252.402561,157.511424 C252.340813,157.55821 252.256708,157.581602 252.150245,157.581602 L251.109041,157.581602 Z M254.175163,152.158754 C253.847257,152.158754 253.567263,152.227868 253.335173,152.366098 C253.103084,152.504328 252.886967,152.698911 252.686816,152.949852 L252.686816,155.88457 C252.865674,156.105738 253.060499,156.259915 253.271296,156.347107 C253.482093,156.434298 253.710985,156.477893 253.95798,156.477893 C254.196457,156.477893 254.411509,156.433235 254.603143,156.343917 C254.794776,156.254599 254.957663,156.118497 255.091806,155.935608 C255.22595,155.752719 255.329217,155.521985 255.401612,155.243398 C255.474007,154.964811 255.510204,154.636253 255.510204,154.257715 C255.510204,153.874924 255.47933,153.55062 255.417582,153.284792 C255.355833,153.018965 255.26747,152.803117 255.15249,152.63724 C255.03751,152.471364 254.898045,152.350149 254.734092,152.273591 C254.570139,152.197032 254.383831,152.158754 254.175163,152.158754 Z M262.262061,152.311869 C262.219476,152.379921 262.174762,152.427769 262.127918,152.455415 C262.081075,152.483061 262.021456,152.496884 261.949061,152.496884 C261.872408,152.496884 261.790432,152.475618 261.703133,152.433086 L261.399714,152.28954 L261.399714,152.28954 C261.284734,152.236375 261.153786,152.188526 261.006867,152.145994 C260.859948,152.103462 260.686416,152.082196 260.486265,152.082196 C260.175393,152.082196 259.930532,152.14812 259.751673,152.27997 C259.572815,152.411821 259.483388,152.584074 259.483388,152.796736 C259.483388,152.937093 259.529166,153.055118 259.620724,153.150816 C259.712283,153.246514 259.833649,153.330514 259.984827,153.402819 C260.09821,153.457048 260.22297,153.507089 260.359109,153.552944 L260.499041,153.597404 C260.690674,153.654822 260.886564,153.717557 261.086714,153.785608 C261.286865,153.85366 261.482754,153.93128 261.674388,154.018472 C261.866021,154.105663 262.037424,154.216246 262.188602,154.350223 C262.33978,154.484199 262.461146,154.644757 262.552704,154.831899 C262.644262,155.019041 262.690041,155.24446 262.690041,155.50816 C262.690041,155.8229 262.632552,156.113179 262.517571,156.379006 C262.402591,156.644833 262.234382,156.874504 262.012939,157.068027 C261.791495,157.261549 261.517889,157.412537 261.192112,157.520994 C260.866335,157.629452 260.492655,157.68368 260.071061,157.68368 C259.845359,157.68368 259.624984,157.663477 259.409929,157.623071 C259.194873,157.582665 258.988338,157.526311 258.790316,157.454006 C258.592295,157.381701 258.409181,157.296637 258.240969,157.198813 C258.072758,157.100989 257.924776,156.994659 257.79702,156.879822 L258.161122,156.280119 C258.207966,156.207814 258.263326,156.152522 258.327204,156.114243 C258.391082,156.075964 258.471993,156.056825 258.569939,156.056825 C258.667885,156.056825 258.760506,156.084471 258.847806,156.139763 C258.935106,156.195055 259.036244,156.254599 259.151224,156.318398 C259.266205,156.382196 259.401411,156.441741 259.556847,156.497033 C259.712283,156.552325 259.909237,156.57997 260.147714,156.57997 C260.335089,156.57997 260.495846,156.557641 260.62999,156.512982 C260.764133,156.468323 260.874853,156.409842 260.962153,156.337537 C261.049453,156.265232 261.11333,156.181232 261.153786,156.085534 C261.194242,155.989836 261.214469,155.89095 261.214469,155.788872 C261.214469,155.635756 261.168691,155.510287 261.077133,155.412463 C260.985574,155.314638 260.864208,155.229575 260.713031,155.15727 C260.599647,155.103041 260.474289,155.053 260.336952,155.007145 L260.195622,154.962685 C260.00186,154.905267 259.803841,154.842532 259.601561,154.774481 C259.399281,154.706429 259.201263,154.626682 259.0075,154.535237 C258.813737,154.443793 258.641269,154.327894 258.490092,154.187537 C258.338914,154.04718 258.217548,153.874927 258.12599,153.670772 C258.034432,153.466616 257.988653,153.219932 257.988653,152.930712 C257.988653,152.662758 258.041884,152.407568 258.148347,152.165134 C258.25481,151.922699 258.411308,151.711104 258.617847,151.530341 C258.824385,151.349579 259.082022,151.204971 259.390765,151.096513 C259.699508,150.988056 260.056154,150.933828 260.460714,150.933828 C260.912118,150.933828 261.323059,151.008258 261.693551,151.157122 C262.064043,151.305985 262.372781,151.501631 262.619776,151.744065 L262.262061,152.311869 Z M265.634796,151.035905 L265.634796,157.581602 L264.05702,157.581602 L264.05702,151.035905 L265.634796,151.035905 Z M265.871143,149.128338 C265.871143,149.264442 265.843463,149.392037 265.788102,149.511128 C265.732741,149.630218 265.659283,149.734421 265.567724,149.823739 C265.476166,149.913057 265.36864,149.984297 265.245143,150.037463 C265.121646,150.090628 264.989633,150.117211 264.849102,150.117211 C264.712829,150.117211 264.584011,150.090628 264.462643,150.037463 C264.341275,149.984297 264.235878,149.913057 264.146449,149.823739 C264.05702,149.734421 263.985691,149.630218 263.932459,149.511128 C263.879228,149.392037 263.852612,149.264442 263.852612,149.128338 C263.852612,148.987981 263.879228,148.856133 263.932459,148.732789 C263.985691,148.609445 264.05702,148.503116 264.146449,148.413798 C264.235878,148.32448 264.341275,148.25324 264.462643,148.200074 C264.584011,148.146909 264.712829,148.120326 264.849102,148.120326 C264.989633,148.120326 265.121646,148.146909 265.245143,148.200074 C265.36864,148.25324 265.476166,148.32448 265.567724,148.413798 C265.659283,148.503116 265.732741,148.609445 265.788102,148.732789 C265.843463,148.856133 265.871143,148.987981 265.871143,149.128338 Z M269.569653,157.68368 C269.003269,157.68368 268.566777,157.523122 268.260163,157.202003 C267.953549,156.880884 267.800245,156.43749 267.800245,155.87181 L267.800245,152.216172 L267.135918,152.216172 C267.050748,152.216172 266.977289,152.188526 266.915541,152.133234 C266.853792,152.077942 266.822918,151.995005 266.822918,151.884421 L266.822918,151.259199 L267.876898,151.086944 L268.209061,149.300593 C268.226095,149.215529 268.265486,149.149605 268.327235,149.102819 C268.388983,149.056033 268.4667,149.032641 268.560388,149.032641 L269.37802,149.032641 L269.37802,151.093323 L271.102714,151.093323 L271.102714,152.216172 L269.37802,152.216172 L269.37802,155.763353 C269.37802,155.967508 269.429122,156.127002 269.531327,156.24184 C269.633531,156.356677 269.769802,156.414095 269.940143,156.414095 C270.038089,156.414095 270.120064,156.402399 270.186071,156.379006 C270.252079,156.355613 270.309568,156.331157 270.358541,156.305638 L270.48949,156.23227 L270.48949,156.23227 C270.527817,156.208877 270.566143,156.197181 270.604469,156.197181 C270.651313,156.197181 270.689639,156.208877 270.719449,156.23227 C270.749259,156.255663 270.781197,156.290751 270.815265,156.337537 L271.287959,157.103116 C271.057999,157.294511 270.793974,157.439119 270.495878,157.536944 C270.197781,157.634768 269.889042,157.68368 269.569653,157.68368 Z M275.06951,150.933828 C275.482587,150.933828 275.862655,150.999752 276.209724,151.131602 C276.556794,151.263453 276.855951,151.455909 277.107204,151.708976 C277.358457,151.962044 277.554346,152.272525 277.694878,152.64043 C277.835409,153.008335 277.905673,153.428336 277.905673,153.900445 C277.905673,154.019536 277.90035,154.118422 277.889704,154.197107 C277.879058,154.275792 277.859895,154.337463 277.832214,154.382122 C277.804534,154.426781 277.767272,154.458679 277.720429,154.477819 C277.673585,154.496959 277.613966,154.506528 277.541571,154.506528 L273.491735,154.506528 C273.538578,155.178539 273.719563,155.671907 274.034694,155.986647 C274.349825,156.301386 274.767154,156.458754 275.286694,156.458754 C275.542205,156.458754 275.762581,156.428982 275.947827,156.369436 C276.133072,156.309891 276.294894,156.243967 276.433296,156.171662 L276.687387,156.035559 C276.72595,156.014293 276.76262,155.993736 276.797398,155.973887 C276.901732,155.914342 277.00287,155.88457 277.100816,155.88457 C277.164694,155.88457 277.220054,155.897329 277.266898,155.922849 C277.313742,155.948368 277.354197,155.98452 277.388265,156.031306 L277.848184,156.60549 C277.673584,156.809645 277.477695,156.980835 277.26051,157.119065 C277.043325,157.257295 276.816562,157.367878 276.580214,157.450816 C276.343866,157.533754 276.103263,157.592235 275.858398,157.626261 C275.613533,157.660287 275.376124,157.6773 275.146163,157.6773 C274.690501,157.6773 274.266784,157.601806 273.875,157.450816 C273.483216,157.299826 273.142539,157.076535 272.852959,156.780935 C272.56338,156.485335 272.335552,156.119562 272.169469,155.683605 C272.003387,155.247649 271.920347,154.742584 271.920347,154.168398 C271.920347,153.721808 271.992741,153.301807 272.137531,152.908383 C272.28232,152.514958 272.48992,152.172578 272.760337,151.881231 C273.030753,151.589885 273.360784,151.35915 273.750439,151.189021 C274.140094,151.018891 274.57978,150.933828 275.06951,150.933828 Z M275.101449,152.063056 C274.641528,152.063056 274.281688,152.192778 274.021918,152.452226 C273.762148,152.711673 273.596068,153.079572 273.523673,153.555935 L276.487592,153.555935 C276.487592,153.351779 276.459912,153.159323 276.404551,152.978561 C276.34919,152.797798 276.264021,152.639368 276.149041,152.503264 C276.034061,152.367161 275.889273,152.259768 275.714673,152.181083 C275.540074,152.102398 275.335668,152.063056 275.101449,152.063056 Z M278.812735,156.713947 C278.812735,156.582096 278.837221,156.456628 278.886194,156.337537 C278.935167,156.218446 279.003302,156.11637 279.090602,156.031306 C279.177902,155.946241 279.281169,155.87819 279.400408,155.827151 C279.519647,155.776113 279.647401,155.750593 279.783673,155.750593 C279.915688,155.750593 280.041312,155.776113 280.160551,155.827151 C280.27979,155.87819 280.381993,155.946241 280.467163,156.031306 C280.552334,156.11637 280.620469,156.218446 280.671571,156.337537 C280.722674,156.456628 280.748224,156.582096 280.748224,156.713947 C280.748224,156.85005 280.722674,156.976582 280.671571,157.093546 C280.620469,157.21051 280.552334,157.311523 280.467163,157.396588 C280.381993,157.481652 280.27979,157.54864 280.160551,157.597552 C280.041312,157.646464 279.915688,157.67092 279.783673,157.67092 C279.647401,157.67092 279.519647,157.646464 279.400408,157.597552 C279.281169,157.54864 279.177902,157.481652 279.090602,157.396588 C279.003302,157.311523 278.935167,157.21051 278.886194,157.093546 C278.837221,156.976582 278.812735,156.85005 278.812735,156.713947 Z M286.669673,152.420326 C286.62283,152.479872 286.577051,152.526657 286.532337,152.560682 C286.487622,152.594708 286.422681,152.611721 286.33751,152.611721 C286.256598,152.611721 286.177817,152.587265 286.101163,152.538353 C286.02451,152.489441 285.932953,152.43415 285.82649,152.372478 C285.720027,152.310806 285.593337,152.255515 285.446418,152.206602 C285.299499,152.15769 285.11745,152.133234 284.900265,152.133234 C284.623461,152.133234 284.380729,152.183209 284.172061,152.28316 C283.963394,152.383111 283.789861,152.526656 283.651459,152.713798 C283.513057,152.900941 283.409789,153.127422 283.341653,153.393249 C283.273517,153.659077 283.239449,153.959988 283.239449,154.295994 C283.239449,154.644759 283.276711,154.955241 283.351235,155.227448 C283.425759,155.499655 283.533285,155.728263 283.673816,155.913279 C283.814348,156.098295 283.984686,156.238649 284.184837,156.334347 C284.384987,156.430045 284.610686,156.477893 284.861939,156.477893 C285.113192,156.477893 285.316533,156.447058 285.471969,156.385386 C285.627406,156.323714 285.758353,156.255663 285.864816,156.181231 L286.059288,156.040875 C286.088624,156.018901 286.116423,155.997634 286.142684,155.977077 C286.221466,155.915405 286.309829,155.88457 286.407776,155.88457 C286.514239,155.88457 286.598521,155.918536 286.660624,155.986469 L287.148755,156.60549 C286.974156,156.809645 286.784654,156.980835 286.580245,157.119065 C286.375836,157.257295 286.163977,157.367878 285.944663,157.450816 C285.725349,157.533754 285.498586,157.592235 285.264367,157.626261 C285.030148,157.660287 284.798062,157.6773 284.568102,157.6773 C284.163542,157.6773 283.78241,157.601806 283.424694,157.450816 C283.066978,157.299826 282.755046,157.079724 282.488888,156.790504 C282.22273,156.501284 282.011936,156.147208 281.8565,155.728264 C281.701064,155.30932 281.623347,154.831902 281.623347,154.295994 C281.623347,153.815378 281.692547,153.369859 281.830949,152.959421 C281.969351,152.548984 282.172693,152.193844 282.44098,151.893991 C282.709267,151.594138 283.041427,151.35915 283.437469,151.189021 C283.833512,151.018891 284.289167,150.933828 284.804449,150.933828 C285.294179,150.933828 285.723219,151.012512 286.091582,151.169881 C286.459944,151.327251 286.791039,151.552669 287.084878,151.846142 L286.669673,152.420326 Z M290.955857,150.933828 C291.445587,150.933828 291.889532,151.012512 292.287704,151.169881 C292.685876,151.327251 293.025488,151.550543 293.306551,151.839763 C293.587614,152.128983 293.804795,152.481996 293.958102,152.898813 C294.111409,153.31563 294.188061,153.781353 294.188061,154.295994 C294.188061,154.814889 294.111409,155.282738 293.958102,155.699555 C293.804795,156.116372 293.587614,156.471512 293.306551,156.764985 C293.025488,157.058458 292.685876,157.283877 292.287704,157.441246 C291.889532,157.598616 291.445587,157.6773 290.955857,157.6773 C290.466127,157.6773 290.021118,157.598616 289.620816,157.441246 C289.220515,157.283877 288.878774,157.058458 288.595582,156.764985 C288.31239,156.471512 288.093079,156.116372 287.937643,155.699555 C287.782207,155.282738 287.70449,154.814889 287.70449,154.295994 C287.70449,153.781353 287.782207,153.31563 287.937643,152.898813 C288.093079,152.481996 288.31239,152.128983 288.595582,151.839763 C288.878774,151.550543 289.220515,151.327251 289.620816,151.169881 C290.021118,151.012512 290.466127,150.933828 290.955857,150.933828 Z M290.955857,156.465134 C291.500948,156.465134 291.904437,156.282247 292.166337,155.916469 C292.428236,155.550691 292.559184,155.014791 292.559184,154.308754 C292.559184,153.602717 292.428236,153.06469 292.166337,152.694659 C291.904437,152.324627 291.500948,152.139614 290.955857,152.139614 C290.402249,152.139614 289.993437,152.325691 289.729408,152.697849 C289.46538,153.070007 289.333367,153.60697 289.333367,154.308754 C289.333367,155.010534 289.46538,155.545374 289.729408,155.913279 C289.993437,156.281184 290.402249,156.465134 290.955857,156.465134 Z M295.420898,157.581602 L295.420898,151.035905 L296.385449,151.035905 C296.589858,151.035905 296.724,151.131601 296.787878,151.322997 L296.890082,151.807864 C297.005062,151.680266 297.125363,151.563304 297.25099,151.456973 C297.376616,151.350642 297.510758,151.259199 297.653418,151.182641 C297.796079,151.106083 297.949384,151.045475 298.113337,151.000816 C298.27729,150.956157 298.45721,150.933828 298.653102,150.933828 C299.066179,150.933828 299.405791,151.045474 299.671949,151.268769 C299.938107,151.492063 300.13719,151.788722 300.269204,152.158754 C300.371409,151.941839 300.499162,151.755762 300.652469,151.600519 C300.805776,151.445276 300.973985,151.318744 301.157102,151.22092 C301.340219,151.123095 301.535043,151.050792 301.741582,151.004006 C301.94812,150.95722 302.15572,150.933828 302.364388,150.933828 C302.726362,150.933828 303.047876,150.989119 303.328939,151.099703 C303.610001,151.210287 303.846346,151.371908 304.03798,151.58457 C304.229613,151.797232 304.375465,152.056675 304.475541,152.362908 C304.575616,152.669141 304.625653,153.020028 304.625653,153.415579 L304.625653,157.581602 L303.047878,157.581602 L303.047878,153.415579 C303.047878,152.998762 302.956321,152.68509 302.773204,152.474555 C302.590088,152.26402 302.321804,152.158754 301.968347,152.158754 C301.806523,152.158754 301.656412,152.186399 301.51801,152.241691 C301.379608,152.296983 301.258242,152.37673 301.153908,152.480935 C301.049574,152.585139 300.967599,152.715924 300.90798,152.873294 C300.84836,153.030663 300.818551,153.211423 300.818551,153.415579 L300.818551,157.581602 L299.234388,157.581602 L299.234388,153.415579 C299.234388,152.977495 299.146025,152.658507 298.969296,152.458605 C298.792567,152.258703 298.531736,152.158754 298.186796,152.158754 C297.961094,152.158754 297.749236,152.215108 297.551214,152.327819 C297.353193,152.44053 297.169014,152.594707 296.998673,152.790356 L296.998673,157.581602 L295.420898,157.581602 Z" id="www.yourwebsite.com" fill="#427FE0" fill-rule="nonzero"></path>
                    </g>
                </g>
            </g>
        </g>
    </g>
</svg>