<?xml version="1.0" encoding="UTF-8"?>
<svg width="492px" height="395px" viewBox="0 0 492 395" version="1.1" xmlns="http://www.w3.org/2000/svg" xmlns:xlink="http://www.w3.org/1999/xlink">
    <!-- Generator: Sketch 63.1 (92452) - https://sketch.com -->
    <title>img_analyse_website</title>
    <desc>Created with Sketch.</desc>
    <defs>
        <filter x="-6.2%" y="-9.1%" width="112.5%" height="118.2%" filterUnits="objectBoundingBox" id="filter-1">
            <feOffset dx="0" dy="5" in="SourceAlpha" result="shadowOffsetOuter1"></feOffset>
            <feGaussianBlur stdDeviation="5" in="shadowOffsetOuter1" result="shadowBlurOuter1"></feGaussianBlur>
            <feColorMatrix values="0 0 0 0 0   0 0 0 0 0   0 0 0 0 0  0 0 0 0.25 0" type="matrix" in="shadowBlurOuter1" result="shadowMatrixOuter1"></feColorMatrix>
            <feMerge>
                <feMergeNode in="shadowMatrixOuter1"></feMergeNode>
                <feMergeNode in="SourceGraphic"></feMergeNode>
            </feMerge>
        </filter>
        <linearGradient x1="0%" y1="30.7607384%" x2="100%" y2="69.2392616%" id="linearGradient-2">
            <stop stop-color="#ADDBFF" offset="0%"></stop>
            <stop stop-color="#AAD9FF" offset="0.0642956149%"></stop>
            <stop stop-color="#74B5FF" offset="100%"></stop>
        </linearGradient>
        <linearGradient x1="0%" y1="30.7607384%" x2="100%" y2="69.2392616%" id="linearGradient-3">
            <stop stop-color="#ADDBFF" offset="0%"></stop>
            <stop stop-color="#74B5FF" offset="100%"></stop>
        </linearGradient>
        <filter x="-7.6%" y="-7.6%" width="115.2%" height="115.2%" filterUnits="objectBoundingBox" id="filter-4">
            <feOffset dx="0" dy="2" in="SourceAlpha" result="shadowOffsetOuter1"></feOffset>
            <feGaussianBlur stdDeviation="4.5" in="shadowOffsetOuter1" result="shadowBlurOuter1"></feGaussianBlur>
            <feColorMatrix values="0 0 0 0 0   0 0 0 0 0   0 0 0 0 0  0 0 0 0.3 0" type="matrix" in="shadowBlurOuter1" result="shadowMatrixOuter1"></feColorMatrix>
            <feMerge>
                <feMergeNode in="shadowMatrixOuter1"></feMergeNode>
                <feMergeNode in="SourceGraphic"></feMergeNode>
            </feMerge>
        </filter>
        <polygon id="path-5" points="34.3325791 22.6082317 23.1026524 33.8080452 0.645339679 11.410952 11.8752664 0.211138414"></polygon>
        <linearGradient x1="16.6709495%" y1="16.8494338%" x2="83.3336043%" y2="83.1550551%" id="linearGradient-7">
            <stop stop-color="#C5C6C8" offset="0%"></stop>
            <stop stop-color="#F1F1F2" offset="100%"></stop>
        </linearGradient>
        <polygon id="path-8" points="0.673287461 22.9672195 79.2700708 101.355779 101.727384 78.9586856 23.1306002 0.570126256"></polygon>
        <linearGradient x1="74.1460738%" y1="99.7347095%" x2="24.1234557%" y2="8.45063194%" id="linearGradient-10">
            <stop stop-color="#427FDF" offset="0%"></stop>
            <stop stop-color="#396BB1" offset="100%"></stop>
        </linearGradient>
        <linearGradient x1="50%" y1="0%" x2="50%" y2="100%" id="linearGradient-11">
            <stop stop-color="#DA3E3F" offset="0%"></stop>
            <stop stop-color="#FF5254" offset="100%"></stop>
        </linearGradient>
        <linearGradient x1="50%" y1="0%" x2="50%" y2="100%" id="linearGradient-12">
            <stop stop-color="#DA3E3F" offset="0%"></stop>
            <stop stop-color="#FF5254" offset="100%"></stop>
        </linearGradient>
        <linearGradient x1="14.6447917%" y1="14.8342632%" x2="85.3554053%" y2="85.1654656%" id="linearGradient-13">
            <stop stop-color="#FEFEFE" offset="0%"></stop>
            <stop stop-color="#C5C6C8" offset="100%"></stop>
        </linearGradient>
        <path d="M164.010285,28.8086909 C201.528911,66.2267106 201.528911,126.895746 164.010285,164.313766 C126.491659,201.731785 65.6595013,201.731785 28.1408751,164.313766 C-9.38029172,126.895746 -9.38029172,66.2267106 28.1408751,28.8086909 C65.6595013,-8.60932878 126.491659,-8.60932878 164.010285,28.8086909" id="path-14"></path>
        <linearGradient x1="165.997457%" y1="218.346819%" x2="30.915411%" y2="3.38518291%" id="linearGradient-16">
            <stop stop-color="#427FDF" offset="0%"></stop>
            <stop stop-color="#396BB1" offset="100%"></stop>
        </linearGradient>
    </defs>
    <g id="Page-1" stroke="none" stroke-width="1" fill="none" fill-rule="evenodd">
        <g id="FAQs---How-Does-PPC-Work" transform="translate(-126.000000, -2084.000000)">
            <g id="img_analyse_website" transform="translate(136.000000, 2089.000000)">
                <g id="img_blogs" filter="url(#filter-1)">
                    <rect id="Rectangle" fill="#FFFFFF" x="0" y="0" width="471.164602" height="325" rx="13"></rect>
                    <path d="M13,0 L459,0 C466.179702,3.05653909e-14 472,5.82029825 472,13 L472,55.1413882 L472,55.1413882 L0,55.1413882 L0,13 C-8.79259876e-16,5.82029825 5.82029825,1.31888981e-15 13,0 Z" id="Rectangle-2" fill="#FF5254"></path>
                    <polygon id="Fill-5" fill="#E9ECED" points="0 84.3830334 471.164602 84.3830334 471.164602 55.1413882 0 55.1413882"></polygon>
                    <path d="M83.539823,30.0782736 C83.539823,34.2304194 80.174153,37.596401 76.0223916,37.596401 C71.8706301,37.596401 68.5026549,34.2304194 68.5026549,30.0782736 C68.5026549,25.9261277 71.8706301,22.5578406 76.0223916,22.5578406 C80.174153,22.5578406 83.539823,25.9261277 83.539823,30.0782736" id="Fill-6" fill="#FFFFFF"></path>
                    <path d="M61.819469,30.0782736 C61.819469,34.2304194 58.4514938,37.596401 54.2997323,37.596401 C50.1479709,37.596401 46.7823009,34.2304194 46.7823009,30.0782736 C46.7823009,25.9261277 50.1479709,22.5578406 54.2997323,22.5578406 C58.4514938,22.5578406 61.819469,25.9261277 61.819469,30.0782736" id="Fill-7" fill="#FFFFFF"></path>
                    <path d="M40.9345133,30.0782736 C40.9345133,34.2304194 37.5688433,37.596401 33.4147766,37.596401 C29.2630151,37.596401 25.8973451,34.2304194 25.8973451,30.0782736 C25.8973451,25.9261277 29.2630151,22.5578406 33.4147766,22.5578406 C37.5688433,22.5578406 40.9345133,25.9261277 40.9345133,30.0782736" id="Fill-8" fill="#FFFFFF"></path>
                    <path d="M101.076991,24.2287918 L399.326549,24.2287918 C400.707261,24.2287918 401.826549,25.3480799 401.826549,26.7287918 L401.826549,30.0835476 C401.826549,31.4642594 400.707261,32.5835476 399.326549,32.5835476 L101.076991,32.5835476 C99.6962793,32.5835476 98.5769912,31.4642594 98.5769912,30.0835476 L98.5769912,26.7287918 C98.5769912,25.3480799 99.6962793,24.2287918 101.076991,24.2287918 Z" id="Rectangle-3" fill="#FFFFFF"></path>
                    <polygon id="Fill-10" fill="#FFFFFF" points="430.645362 19.2159383 432.321724 24.3218559 437.748673 24.3218559 433.357623 27.47763 435.036411 32.5835476 430.645362 29.4277735 426.256738 32.5835476 427.9331 27.47763 423.546903 24.3218559 428.971426 24.3218559"></polygon>
                    <g id="Group-7" transform="translate(185.458407, 123.650386)" fill="#DADFE1">
                        <polygon id="Fill-16" points="0 58.4832905 134.36152 58.4832905 134.36152 48.2487147 0 48.2487147"></polygon>
                        <polygon id="Fill-17" points="0 33.627892 190.706674 33.627892 190.706674 23.3933162 0 23.3933162"></polygon>
                        <polygon id="Fill-18" points="0 10.2345758 245.60708 10.2345758 245.60708 0 0 0"></polygon>
                    </g>
                    <g id="Group-7-Copy" transform="translate(185.458407, 223.907455)" fill="#DADFE1">
                        <polygon id="Fill-16" points="0 58.4832905 134.36152 58.4832905 134.36152 48.2487147 0 48.2487147"></polygon>
                        <polygon id="Fill-17" points="0 33.627892 190.706674 33.627892 190.706674 23.3933162 0 23.3933162"></polygon>
                        <polygon id="Fill-18" points="0 10.2345758 245.60708 10.2345758 245.60708 0 0 0"></polygon>
                    </g>
                    <rect id="Rectangle-4" fill="url(#linearGradient-2)" x="30.0743363" y="111.953728" width="131.99292" height="81.8766067"></rect>
                    <rect id="Rectangle-4-Copy" fill="url(#linearGradient-3)" x="30.0743363" y="211.375321" width="131.99292" height="81.8766067"></rect>
                </g>
                <g id="Group" filter="url(#filter-4)" transform="translate(189.000000, 98.000000)">
                    <g id="Group-3" transform="translate(165.145981, 166.428742)">
                        <mask id="mask-6" fill="white">
                            <use xlink:href="#path-5"></use>
                        </mask>
                        <g id="Clip-2"></g>
                        <polygon id="Fill-1" fill="url(#linearGradient-7)" mask="url(#mask-6)" points="34.3325791 22.6082317 23.1026524 33.8080452 0.645339679 11.410952 11.8752664 0.211138414"></polygon>
                    </g>
                    <g id="Group-6" transform="translate(180.390225, 180.852495)">
                        <mask id="mask-9" fill="white">
                            <use xlink:href="#path-8"></use>
                        </mask>
                        <g id="Clip-5"></g>
                        <polygon id="Fill-4" fill="url(#linearGradient-10)" mask="url(#mask-9)" points="0.673287461 22.9672195 79.2700708 101.355779 101.727384 78.9586856 23.1306002 0.570126256"></polygon>
                    </g>
                    <polygon id="Fill-7" fill="url(#linearGradient-11)" points="208.460469 186.350032 186.003156 208.747125 181.064021 203.821235 203.521334 181.424141"></polygon>
                    <polygon id="Fill-8" fill="url(#linearGradient-12)" points="254.722177 277.280102 259.661312 282.208527 282.118625 259.811434 277.17949 254.883009"></polygon>
                    <g id="Group-18" transform="translate(0.000000, 0.101356)">
                        <g id="SEO-AUDIT" transform="translate(7.622122, 7.601683)">
                            <mask id="mask-15" fill="white">
                                <use xlink:href="#path-14"></use>
                            </mask>
                            <use id="Mask" fill-opacity="0.3" fill="url(#linearGradient-13)" style="mix-blend-mode: multiply;" xlink:href="#path-14"></use>
                        </g>
                        <path d="M103.697194,15.9468959 C80.0711559,15.9468959 57.8577511,25.1246617 41.1525999,41.7850179 C24.4449081,58.445374 15.2450066,80.5992134 15.2450066,104.161898 C15.2450066,127.727117 24.4449081,149.878422 41.1500592,166.541312 C75.6376215,200.933862 131.754226,200.933862 166.244329,166.541312 C200.72935,132.143695 200.72935,76.1801014 166.244329,41.7850179 C149.536637,25.1246617 127.323232,15.9468959 103.697194,15.9468959 M103.697194,207.532123 C77.1417203,207.532123 50.5887872,197.452291 30.3723785,177.290093 C10.7860651,157.7563 0.000762212219,131.786416 0.000762212219,104.161898 C0.000762212219,76.5373806 10.7860651,50.5674961 30.3723785,31.0337036 C49.9586918,11.502445 75.9984019,0.743529101 103.697194,0.743529101 C131.395986,0.743529101 157.435696,11.502445 177.02201,31.0362375 C217.452286,71.3581003 217.452286,136.96823 177.02201,177.290093 C156.805601,197.452291 130.252668,207.532123 103.697194,207.532123" id="Fill-12" fill="url(#linearGradient-16)"></path>
                    </g>
                </g>
            </g>
        </g>
    </g>
</svg>