<?xml version="1.0" encoding="UTF-8"?>
<svg width="294px" height="352px" viewBox="0 0 294 352" version="1.1" xmlns="http://www.w3.org/2000/svg" xmlns:xlink="http://www.w3.org/1999/xlink">
    <!-- Generator: Sketch 63.1 (92452) - https://sketch.com -->
    <title>img_timing</title>
    <desc>Created with Sketch.</desc>
    <g id="Page-1" stroke="none" stroke-width="1" fill="none" fill-rule="evenodd">
        <g id="FAQs---Why-Isn't-My-Website-Showing-On-Google" transform="translate(-256.000000, -1996.000000)">
            <g id="img_timing" transform="translate(256.000000, 1996.000000)">
                <g id="OIHEI91">
                    <path d="M75.5229358,281.412844 C71.9002957,279.442776 68.5970617,278.715596 65.6921631,278.715596 C65.4199672,278.715596 65.1514596,278.721935 64.8859026,278.734035 C65.1514596,278.721935 65.4207049,278.715596 65.6929008,278.715596 C68.596324,278.715596 71.9010333,279.443352 75.5229358,281.412844 M64.733945,278.742102 C64.7346826,278.742102 64.7354203,278.741526 64.7368956,278.741526 C64.7361579,278.741526 64.7346826,278.742102 64.733945,278.742102 M64.755337,278.74095 C64.7560747,278.74095 64.7582877,278.740373 64.7590253,278.740373 C64.7582877,278.740373 64.7560747,278.74095 64.755337,278.74095 M64.7767291,278.739797 C64.7789421,278.739221 64.7804174,278.739221 64.7826304,278.739221 C64.7804174,278.739221 64.7789421,278.739221 64.7767291,278.739797 M64.7981212,278.738645 C64.8010719,278.738069 64.8032848,278.738069 64.8062355,278.738069 C64.8040225,278.738069 64.8003342,278.738069 64.7981212,278.738645 M64.820251,278.737492 C64.8239393,278.736916 64.8276276,278.736916 64.8313159,278.736916 C64.8276276,278.736916 64.8239393,278.736916 64.820251,278.737492 M64.8416431,278.73634 C64.8468067,278.735764 64.8519703,278.735764 64.8571339,278.735764 C64.8519703,278.735764 64.8468067,278.735764 64.8416431,278.73634 M64.8637728,278.735188 C64.8704117,278.734611 64.8770507,278.734611 64.8836896,278.734035 C64.8770507,278.734611 64.8704117,278.734611 64.8637728,278.735188" id="Fill-9" fill="#9CB9A6"></path>
                    <path d="M81.3624312,286.402257 L81.3614312,286.401257 C81.3624312,286.401257 81.3624312,286.402257 81.3624312,286.402257 M81.3344312,286.370257 C81.3334312,286.369257 81.3334312,286.369257 81.3324312,286.368257 C81.3334312,286.369257 81.3344312,286.369257 81.3344312,286.370257 M81.3064312,286.338257 C81.3064312,286.337257 81.3044312,286.335257 81.3034312,286.334257 C81.3044312,286.335257 81.3064312,286.337257 81.3064312,286.338257 M81.2784312,286.306257 C81.2764312,286.304257 81.2764312,286.303257 81.2744312,286.301257 C81.2764312,286.303257 81.2774312,286.304257 81.2784312,286.306257 M81.2504312,286.274257 C81.2484312,286.272257 81.2464312,286.270257 81.2454312,286.268257 C81.2464312,286.270257 81.2494312,286.272257 81.2504312,286.274257 M81.2224312,286.242257 C81.2204312,286.240257 81.2174312,286.237257 81.2154312,286.235257 C81.2184312,286.238257 81.2194312,286.240257 81.2224312,286.242257 M81.1944312,286.211257 C81.1914312,286.208257 81.1894312,286.205257 81.1864312,286.202257 C81.1894312,286.205257 81.1914312,286.208257 81.1944312,286.211257 M81.1654312,286.179257 C81.1624312,286.175257 81.1594312,286.172257 81.1574312,286.169257 C81.1594312,286.172257 81.1624312,286.175257 81.1654312,286.179257 M81.1364312,286.146257 C81.1334312,286.143257 81.1304312,286.140257 81.1274312,286.137257 C81.1304312,286.140257 81.1334312,286.143257 81.1364312,286.146257 M81.1064312,286.113257 C81.1034312,286.110257 81.1014312,286.107257 81.0984312,286.104257 C81.1014312,286.107257 81.1034312,286.110257 81.1064312,286.113257 M81.0774312,286.081257 C81.0754312,286.079257 81.0704312,286.074257 81.0684312,286.072257 C81.0714312,286.074257 81.0744312,286.078257 81.0774312,286.081257 M81.0474312,286.048257 C81.0444312,286.045257 81.0414312,286.042257 81.0384312,286.039257 C81.0414312,286.042257 81.0444312,286.045257 81.0474312,286.048257 M81.0174312,286.016257 C81.0144312,286.013257 81.0114312,286.009257 81.0084312,286.006257 C81.0114312,286.010257 81.0144312,286.013257 81.0174312,286.016257 M80.9864312,285.982257 C80.9834312,285.979257 80.9814312,285.977257 80.9784312,285.974257 C80.9814312,285.976257 80.9834312,285.979257 80.9864312,285.982257 M80.9554312,285.949257 C80.9534312,285.947257 80.9504312,285.943257 80.9484312,285.941257 C80.9504312,285.944257 80.9534312,285.946257 80.9554312,285.949257 M80.9244312,285.915257 C80.9214312,285.912257 80.9204312,285.911257 80.9174312,285.908257 C80.9204312,285.911257 80.9214312,285.912257 80.9244312,285.915257" id="Fill-10" fill="#93AE9D"></path>
                    <path d="M50.3486239,276.917431 L50.3486239,276.917431 L44.952796,253.369107 L50.3486239,276.917431 M37.8724032,265.750015 L37.8724032,265.750015 L26.0733945,231.06422 L37.8724032,265.750015" id="Fill-12" fill="#9CB9A6"></path>
                    <path d="M294,147 C294,228.185559 228.185717,294 147.000354,294 C65.8142826,294 0,228.185559 0,147 C0,65.8144413 65.8142826,0 147.000354,0 C228.185717,0 294,65.8144413 294,147" id="Fill-28" fill="#E23739"></path>
                    <path d="M284.110092,147.449896 C284.110092,222.92517 222.92517,284.110092 147.449896,284.110092 C71.9739122,284.110092 10.7889908,222.92517 10.7889908,147.449896 C10.7889908,71.9739122 71.9739122,10.7889908 147.449896,10.7889908 C222.92517,10.7889908 284.110092,71.9739122 284.110092,147.449896" id="Fill-29" fill="#FF5254"></path>
                    <path d="M258.93578,147.899083 C258.93578,209.222709 209.223261,258.93578 147.899438,258.93578 C86.574904,258.93578 36.8623853,209.222709 36.8623853,147.899083 C36.8623853,86.5754563 86.574904,36.8623853 147.899438,36.8623853 C209.223261,36.8623853 258.93578,86.5754563 258.93578,147.899083" id="Fill-30" fill="#F8F7F5"></path>
                    <path d="M258.93578,147.449541 C258.93578,87.7337819 211.478781,39.0649664 152.10239,36.8623853 C211.478781,39.0649664 258.93578,87.7330727 258.93578,147.449541 M36.8623853,147.449541 C36.8623853,87.7330727 84.3193838,39.0649664 143.695775,36.8623853 C84.3193838,39.0649664 36.8623853,87.7337819 36.8623853,147.449541" id="Fill-31" fill="#B35635"></path>
                    <path d="M258.81411,151.944954 C256.290346,93.2516142 207.607398,46.4322205 147.899438,46.4322205 C88.1907672,46.4322205 39.5085303,93.2516142 36.9840553,151.944954 C36.9157494,150.356107 36.8623853,148.76514 36.8623853,147.160037 C36.8623853,87.6425882 84.3193838,39.1353979 143.695775,36.9401314 C145.090355,36.8885363 146.492051,36.8623853 147.899438,36.8623853 C149.306826,36.8623853 150.70781,36.8885363 152.10239,36.9401314 C211.478781,39.1353979 258.93578,87.6425882 258.93578,147.160037 C258.93578,148.76514 258.882416,150.356107 258.81411,151.944954" id="Fill-32" fill="#E9E9E4"></path>
                    <path d="M148.348983,151.045872 C146.362719,151.045872 144.752294,149.452339 144.752294,147.484443 L144.752294,61.1027132 C144.752294,59.1355291 146.362719,57.5412844 148.348983,57.5412844 C150.33381,57.5412844 151.944954,59.1355291 151.944954,61.1027132 L151.944954,147.484443 C151.944954,149.452339 150.33381,151.045872 148.348983,151.045872" id="Fill-33" fill="#463828"></path>
                    <path d="M114.186988,188.807339 C112.345081,188.807339 110.504612,188.104949 109.099097,186.700889 C106.288068,183.889891 106.288068,179.333343 109.099097,176.523783 L143.257052,142.36477 C146.0688,139.553772 150.622523,139.55521 153.433552,142.363332 C156.243862,145.174329 156.243862,149.730159 153.433552,152.540437 L119.274878,186.699451 C117.869364,188.104949 116.027457,188.807339 114.186988,188.807339" id="Fill-34" fill="#463828"></path>
                    <path d="M160.036697,147.449541 C160.036697,154.400731 154.401277,160.036697 147.449893,160.036697 C140.497806,160.036697 134.862385,154.400731 134.862385,147.449541 C134.862385,140.497648 140.497806,134.862385 147.449893,134.862385 C154.401277,134.862385 160.036697,140.497648 160.036697,147.449541" id="Fill-35" fill="#FF5254"></path>
                </g>
                <ellipse id="Oval-4" fill="#000000" opacity="0.05" cx="147" cy="336.5" rx="108" ry="15.5"></ellipse>
            </g>
        </g>
    </g>
</svg>