<?xml version="1.0" encoding="UTF-8"?>
<svg width="261px" height="312px" viewBox="0 0 261 312" version="1.1" xmlns="http://www.w3.org/2000/svg" xmlns:xlink="http://www.w3.org/1999/xlink">
    <!-- Generator: Sketch 63.1 (92452) - https://sketch.com -->
    <title>img_timing_mob</title>
    <desc>Created with Sketch.</desc>
    <g id="Page-1" stroke="none" stroke-width="1" fill="none" fill-rule="evenodd">
        <g id="FAQs---Why-Isn't-My-Website-Showing-On-Google---Mobile" transform="translate(-58.000000, -2735.000000)">
            <g id="img_timing_mob" transform="translate(58.000000, 2735.000000)">
                <g id="OIHEI91">
                    <path d="M67.0458716,249.825688 C63.8298543,248.07675 60.8973915,247.431193 58.318553,247.431193 C58.0769097,247.431193 57.8385406,247.43682 57.6027911,247.447562 C57.8385406,247.43682 58.0775645,247.431193 58.3192078,247.431193 C60.8967366,247.431193 63.8305092,248.077261 67.0458716,249.825688 M57.4678899,247.454723 C57.4685448,247.454723 57.4691996,247.454212 57.4705093,247.454212 C57.4698545,247.454212 57.4685448,247.454723 57.4678899,247.454723 M57.4868808,247.4537 C57.4875357,247.4537 57.4895003,247.453189 57.4901551,247.453189 C57.4895003,247.453189 57.4875357,247.4537 57.4868808,247.4537 M57.5058718,247.452677 C57.5078364,247.452166 57.5091461,247.452166 57.5111107,247.452166 C57.5091461,247.452166 57.5078364,247.452166 57.5058718,247.452677 M57.5248627,247.451654 C57.5274822,247.451143 57.5294467,247.451143 57.5320662,247.451143 C57.5301016,247.451143 57.5268273,247.451143 57.5248627,247.451654 M57.5445085,247.450631 C57.5477828,247.450119 57.5510571,247.450119 57.5543314,247.450119 C57.5510571,247.450119 57.5477828,247.450119 57.5445085,247.450631 M57.5634995,247.449608 C57.5680835,247.449096 57.5726675,247.449096 57.5772515,247.449096 C57.5726675,247.449096 57.5680835,247.449096 57.5634995,247.449608 M57.5831453,247.448585 C57.589039,247.448073 57.5949327,247.448073 57.6008265,247.447562 C57.5949327,247.448073 57.589039,247.448073 57.5831453,247.448585" id="Fill-9" fill="#9CB9A6"></path>
                    <path d="M72.2798624,254.310514 L72.2788624,254.309514 C72.2798624,254.309514 72.2798624,254.310514 72.2798624,254.310514 M72.2518624,254.278514 C72.2508624,254.277514 72.2508624,254.277514 72.2498624,254.276514 C72.2508624,254.277514 72.2518624,254.277514 72.2518624,254.278514 M72.2238624,254.246514 C72.2238624,254.245514 72.2218624,254.243514 72.2208624,254.242514 C72.2218624,254.243514 72.2238624,254.245514 72.2238624,254.246514 M72.1958624,254.214514 C72.1938624,254.212514 72.1938624,254.211514 72.1918624,254.209514 C72.1938624,254.211514 72.1948624,254.212514 72.1958624,254.214514 M72.1678624,254.182514 C72.1658624,254.180514 72.1638624,254.178514 72.1628624,254.176514 C72.1638624,254.178514 72.1668624,254.180514 72.1678624,254.182514 M72.1398624,254.150514 C72.1378624,254.148514 72.1348624,254.145514 72.1328624,254.143514 C72.1358624,254.146514 72.1368624,254.148514 72.1398624,254.150514 M72.1118624,254.119514 C72.1088624,254.116514 72.1068624,254.113514 72.1038624,254.110514 C72.1068624,254.113514 72.1088624,254.116514 72.1118624,254.119514 M72.0828624,254.087514 C72.0798624,254.083514 72.0768624,254.080514 72.0748624,254.077514 C72.0768624,254.080514 72.0798624,254.083514 72.0828624,254.087514 M72.0538624,254.054514 C72.0508624,254.051514 72.0478624,254.048514 72.0448624,254.045514 C72.0478624,254.048514 72.0508624,254.051514 72.0538624,254.054514 M72.0238624,254.021514 C72.0208624,254.018514 72.0188624,254.015514 72.0158624,254.012514 C72.0188624,254.015514 72.0208624,254.018514 72.0238624,254.021514 M71.9948624,253.989514 C71.9928624,253.987514 71.9878624,253.982514 71.9858624,253.980514 C71.9888624,253.982514 71.9918624,253.986514 71.9948624,253.989514 M71.9648624,253.956514 C71.9618624,253.953514 71.9588624,253.950514 71.9558624,253.947514 C71.9588624,253.950514 71.9618624,253.953514 71.9648624,253.956514 M71.9348624,253.924514 C71.9318624,253.921514 71.9288624,253.917514 71.9258624,253.914514 C71.9288624,253.918514 71.9318624,253.921514 71.9348624,253.924514 M71.9038624,253.890514 C71.9008624,253.887514 71.8988624,253.885514 71.8958624,253.882514 C71.8988624,253.884514 71.9008624,253.887514 71.9038624,253.890514 M71.8728624,253.857514 C71.8708624,253.855514 71.8678624,253.851514 71.8658624,253.849514 C71.8678624,253.852514 71.8708624,253.854514 71.8728624,253.857514 M71.8418624,253.823514 C71.8388624,253.820514 71.8378624,253.819514 71.8348624,253.816514 C71.8378624,253.819514 71.8388624,253.820514 71.8418624,253.823514" id="Fill-10" fill="#93AE9D"></path>
                    <path d="M44.6972477,245.834862 L44.6972477,245.834862 L39.907074,224.929717 L44.6972477,245.834862 M33.6214191,235.920932 L33.6214191,235.920932 L23.146789,205.12844 L33.6214191,235.920932" id="Fill-12" fill="#9CB9A6"></path>
                    <path d="M261,130.5 C261,202.572894 202.573035,261 130.500315,261 C58.4269652,261 0,202.572894 0,130.5 C0,58.4271061 58.4269652,0 130.500315,0 C202.573035,0 261,58.4271061 261,130.5" id="Fill-28" fill="#E23739"></path>
                    <path d="M252.220183,130.899398 C252.220183,197.902957 197.902957,252.220183 130.899398,252.220183 C63.8952078,252.220183 9.57798165,197.902957 9.57798165,130.899398 C9.57798165,63.8952078 63.8952078,9.57798165 130.899398,9.57798165 C197.902957,9.57798165 252.220183,63.8952078 252.220183,130.899398" id="Fill-29" fill="#FF5254"></path>
                    <path d="M229.87156,131.298165 C229.87156,185.738527 185.739018,229.87156 131.298481,229.87156 C76.8573128,229.87156 32.7247706,185.738527 32.7247706,131.298165 C32.7247706,76.857803 76.8573128,32.7247706 131.298481,32.7247706 C185.739018,32.7247706 229.87156,76.857803 229.87156,131.298165" id="Fill-30" fill="#F8F7F5"></path>
                    <path d="M229.87156,130.899083 C229.87156,77.8861125 187.741367,34.6801232 135.029673,32.7247706 C187.741367,34.6801232 229.87156,77.8854829 229.87156,130.899083 M32.7247706,130.899083 C32.7247706,77.8854829 74.8549632,34.6801232 127.566657,32.7247706 C74.8549632,34.6801232 32.7247706,77.8861125 32.7247706,130.899083" id="Fill-31" fill="#B35635"></path>
                    <path d="M229.763546,134.889908 C227.523063,82.7845963 184.304527,41.2204406 131.298481,41.2204406 C78.2918036,41.2204406 35.0738993,82.7845963 32.8327838,134.889908 C32.7721448,133.479401 32.7247706,132.067012 32.7247706,130.642073 C32.7247706,77.8051549 74.8549632,34.7426491 127.566657,32.7937901 C128.804703,32.7479863 130.049065,32.7247706 131.298481,32.7247706 C132.547897,32.7247706 133.791627,32.7479863 135.029673,32.7937901 C187.741367,34.7426491 229.87156,77.8051549 229.87156,130.642073 C229.87156,132.067012 229.824185,133.479401 229.763546,134.889908" id="Fill-32" fill="#E9E9E4"></path>
                    <path d="M131.697567,134.091743 C129.934251,134.091743 128.504587,132.677076 128.504587,130.930067 L128.504587,54.2442454 C128.504587,52.4978677 129.934251,51.0825688 131.697567,51.0825688 C133.459607,51.0825688 134.889908,52.4978677 134.889908,54.2442454 L134.889908,130.930067 C134.889908,132.677076 133.459607,134.091743 131.697567,134.091743" id="Fill-33" fill="#463828"></path>
                    <path d="M101.370081,167.614679 C99.7349187,167.614679 98.1010329,166.991129 96.8532803,165.744666 C94.3577751,163.249189 94.3577751,159.20409 96.8532803,156.709889 L127.177179,126.38505 C129.673323,123.889573 133.715913,123.890849 136.211419,126.383774 C138.706286,128.879252 138.706286,132.923712 136.211419,135.418551 L105.886882,165.74339 C104.639129,166.991129 103.003967,167.614679 101.370081,167.614679" id="Fill-34" fill="#463828"></path>
                    <path d="M142.073394,130.899083 C142.073394,137.070037 137.070521,142.073394 130.899395,142.073394 C124.727644,142.073394 119.724771,137.070037 119.724771,130.899083 C119.724771,124.727504 124.727644,119.724771 130.899395,119.724771 C137.070521,119.724771 142.073394,124.727504 142.073394,130.899083" id="Fill-35" fill="#FF5254"></path>
                </g>
                <ellipse id="Oval-4" fill="#000000" opacity="0.05" cx="131" cy="298.5" rx="96" ry="13.5"></ellipse>
            </g>
        </g>
    </g>
</svg>