<?xml version="1.0" encoding="UTF-8"?>
<svg width="493px" height="397px" viewBox="0 0 493 397" version="1.1" xmlns="http://www.w3.org/2000/svg" xmlns:xlink="http://www.w3.org/1999/xlink">
    <!-- Generator: Sketch 63.1 (92452) - https://sketch.com -->
    <title>img_decrease_site_traffic</title>
    <desc>Created with Sketch.</desc>
    <defs>
        <polygon id="path-1" points="0 0.0689289674 492.010707 0.0689289674 492.010707 43.9593556 0 43.9593556"></polygon>
        <polygon id="path-3" points="1.3051249e-12 442.429776 573.50446 442.429776 573.50446 1.50467873e-13 1.3051249e-12 1.50467873e-13"></polygon>
    </defs>
    <g id="Page-1" stroke="none" stroke-width="1" fill="none" fill-rule="evenodd">
        <g id="FAQs---Why-Is-My-Website-Traffic-Going-Down" transform="translate(-817.000000, -2384.000000)">
            <g id="img_decrease_site_traffic" transform="translate(817.000000, 2332.000000)">
                <g id="img_technical_issues">
                    <polygon id="Fill-1" fill="#FFFFFF" points="20.5 324.820144 471.5 324.820144 471.5 65.8273381 20.5 65.8273381"></polygon>
                    <g id="Group-54">
                        <g id="Group-4" transform="translate(0.000000, 344.967484)">
                            <mask id="mask-2" fill="white">
                                <use xlink:href="#path-1"></use>
                            </mask>
                            <g id="Clip-3"></g>
                            <path d="M492.010707,36.0584187 C492.010707,40.4214687 488.469664,43.9593556 484.102722,43.9593556 L7.90777914,43.9593556 C3.54083669,43.9593556 -0.00020647482,40.4214687 -0.00020647482,36.0584187 L-0.00020647482,0.0689289674 L492.010707,0.0689289674 L492.010707,36.0584187 Z" id="Fill-2" fill="#4E5B6B" mask="url(#mask-2)"></path>
                        </g>
                        <path d="M298.609873,434.030875 C294.876808,430.299075 293.778362,389.042981 293.778362,389.042981 L198.232139,389.042981 C198.232139,389.042981 197.133693,430.299075 193.398563,434.030875 C189.675822,437.750298 174.070455,440.394946 174.070455,440.394946 L245.454995,440.394946 L246.555506,440.394946 L317.940045,440.394946 C317.940045,440.394946 302.334678,437.750298 298.609873,434.030875" id="Fill-5" fill="#4E5B6B"></path>
                        <polygon id="Fill-7" fill="#303D4D" points="174.070662 448.95395 317.940252 448.95395 317.940252 440.394946 174.070662 440.394946"></polygon>
                        <path d="M246.00525,360.056238 C242.183401,360.056238 239.075955,363.162978 239.075955,366.98142 C239.075955,370.797799 242.183401,373.904539 246.00525,373.904539 C249.829164,373.904539 252.93661,370.797799 252.93661,366.98142 C252.93661,363.162978 249.829164,360.056238 246.00525,360.056238 M246.00525,375.222737 C241.45661,375.222737 237.756581,371.528069 237.756581,366.98142 C237.756581,362.436834 241.45661,358.740103 246.00525,358.740103 C250.553891,358.740103 254.253919,362.436834 254.253919,366.98142 C254.253919,371.528069 250.553891,375.222737 246.00525,375.222737" id="Fill-9" fill="#FFFFFF"></path>
                        <polygon id="Fill-10" fill="#303D4D" points="295.137792 414.719376 293.779188 389.044425 198.2309 389.044425"></polygon>
                        <path d="M20.2076906,325.724089 L470.92364,325.724089 L470.92364,72.0380006 L20.2076906,72.0380006 L20.2076906,325.724089 Z M7.90592086,52.7271205 C3.54104317,52.7271205 0,56.2629445 0,60.6259946 L0,345.034969 L492.010914,345.034969 L492.010914,60.6259946 C492.010914,56.2629445 488.469871,52.7271205 484.102928,52.7271205 L7.90592086,52.7271205 Z" id="Fill-11" fill="#303D4D"></path>
                        <mask id="mask-4" fill="white">
                            <use xlink:href="#path-3"></use>
                        </mask>
                        <g id="Clip-8"></g>
                    </g>
                </g>
                <g id="img_increase_mob" transform="translate(248.000000, 224.500000) rotate(-180.000000) translate(-248.000000, -224.500000) translate(42.000000, 69.000000)" fill-rule="nonzero">
                    <g id="Group" transform="translate(7.549738, 50.753472)" fill="#427FE0">
                        <polygon id="Path" points="38.8449542 241.771247 0.866938274 241.771247 0.212144895 217.539388 38.1901608 217.539388"></polygon>
                        <polygon id="Path" points="87.9544576 241.771247 49.9764416 241.771247 49.3216483 201.16651 87.2996642 201.16651"></polygon>
                        <polygon id="Path" points="136.409168 241.771247 98.4311516 241.771247 98.4311516 181.519057 135.754374 181.519057"></polygon>
                        <polygon id="Path" points="185.518671 241.771247 147.540655 241.771247 146.885862 145.498725 184.863878 145.498725"></polygon>
                        <polygon id="Path" points="233.973381 241.771247 196.650158 241.771247 195.995365 114.717715 233.973381 114.717715"></polygon>
                        <polygon id="Path" points="283.082884 241.771247 245.104868 241.771247 244.450075 72.803148 282.428091 72.803148"></polygon>
                        <polygon id="Path" points="332.192388 241.771247 294.214372 241.771247 293.559578 58.3950156 331.537594 58.3950156"></polygon>
                        <polygon id="Path" points="380.647098 241.771247 342.669082 241.771247 342.669082 0.107570598 380.647098 0.107570598"></polygon>
                    </g>
                    <path d="M90.6669737,310.830781 C159.524051,310.830781 211.986586,285.460559 210.675022,286.111078 C271.006937,261.391375 325.436817,223.661302 368.062627,174.221896 L374.620444,179.426044 L396.917021,195.689006 C398.884366,196.990043 400.851711,196.990043 402.819056,196.990043 L402.819056,196.990043 C403.474838,196.990043 404.13062,196.990043 404.786401,196.339525 C408.721092,194.387969 412,190.484858 411.344218,185.931229 L412,90.9555276 C411.344218,86.4018981 408.06531,83.1493056 404.13062,83.1493056 C403.474838,83.1493056 402.163275,83.1493056 401.507493,83.1493056 L309.698057,109.170046 C307.730712,109.170046 306.419148,110.471083 305.107585,111.77212 C302.484458,113.723675 301.172895,116.976268 301.828677,120.22886 L301.828677,120.22886 C302.484458,122.180416 303.14024,125.433008 307.07493,127.384564 L325.436817,141.045452 L337.240888,150.152711 C300.517113,198.29108 251.333487,239.924264 216.577057,260.090338 C170.672339,286.111078 137.227473,297.820411 83.4533751,303.675077 C76.2397766,304.325596 69.026178,304.976114 69.026178,308.228707 C69.026178,310.180262 83.4533751,311.481299 90.6669737,310.830781 Z" id="Path" fill="#000000" opacity="0.3"></path>
                    <path d="M21.1038792,227.681475 C90.0760098,227.681475 142.626205,202.311254 141.31245,202.961772 C201.745174,178.242069 256.266001,140.511996 298.963034,91.0725901 L305.531808,96.2767381 L327.865641,112.539701 C329.836273,113.840738 331.806906,113.840738 333.777538,113.840738 L333.777538,113.840738 C334.434415,113.840738 335.091293,113.840738 335.74817,113.190219 C339.689435,111.238664 342.973822,107.335553 342.316945,102.781923 L342.973822,7.80622201 C342.316945,3.2525925 339.032557,0 335.091293,0 C334.434415,0 333.777538,0 332.463783,0 L240.500942,26.02074 C238.53031,26.6712585 237.216555,27.321777 235.9028,28.622814 C233.27529,30.5743695 231.961536,33.826962 232.618413,37.0795546 L232.618413,37.0795546 C233.27529,39.0311101 233.932168,42.2837026 237.873433,44.2352581 L256.266001,57.8961466 L268.089794,67.0034056 C231.304658,115.141775 182.695728,156.774959 147.881224,176.941032 C101.899804,202.961772 68.3990545,214.671105 14.5351049,220.525772 C7.3094531,221.17629 0.0838013231,221.826809 0.0838013231,225.079401 C-1.22995355,227.030957 13.22135,228.331994 21.1038792,227.681475 Z" id="Path" fill="#FF5254"></path>
                </g>
            </g>
        </g>
    </g>
</svg>