<?xml version="1.0" encoding="UTF-8"?>
<svg width="472px" height="317px" viewBox="0 0 472 317" version="1.1" xmlns="http://www.w3.org/2000/svg" xmlns:xlink="http://www.w3.org/1999/xlink">
    <!-- Generator: Sketch 63.1 (92452) - https://sketch.com -->
    <title>img_flag_hong_kong</title>
    <desc>Created with Sketch.</desc>
    <defs>
        <filter x="-2.6%" y="-3.9%" width="105.2%" height="107.8%" filterUnits="objectBoundingBox" id="filter-1">
            <feOffset dx="0" dy="2" in="SourceAlpha" result="shadowOffsetOuter1"></feOffset>
            <feGaussianBlur stdDeviation="2" in="shadowOffsetOuter1" result="shadowBlurOuter1"></feGaussianBlur>
            <feColorMatrix values="0 0 0 0 0   0 0 0 0 0   0 0 0 0 0  0 0 0 0.5 0" type="matrix" in="shadowBlurOuter1" result="shadowMatrixOuter1"></feColorMatrix>
            <feMerge>
                <feMergeNode in="shadowMatrixOuter1"></feMergeNode>
                <feMergeNode in="SourceGraphic"></feMergeNode>
            </feMerge>
        </filter>
    </defs>
    <g id="Page-1" stroke="none" stroke-width="1" fill="none" fill-rule="evenodd">
        <g id="FAQs---How-&amp;-Where-To-Sell-in-Hong-Kong" transform="translate(-820.000000, -579.000000)" fill-rule="nonzero">
            <g id="img_flag_hong_kong" filter="url(#filter-1)" transform="translate(824.000000, 581.000000)">
                <rect id="Rectangle" fill="#D80027" x="0" y="0" width="464" height="309"></rect>
                <g id="Group" transform="translate(157.000000, 75.000000)" fill="#F0F0F0">
                    <path d="M90.2997368,42.0947368 C86.7845906,56.7173099 80.5374561,53.9291228 77.4719006,66.6817251 C59.4148538,62.3408187 48.292924,44.181345 52.6347368,26.1215789 C56.9747368,8.06453216 75.135117,-3.05739766 93.1930702,1.28350877 C87.0610526,26.7896199 93.444152,29.0158187 90.2997368,42.0947368 Z" id="Path"></path>
                    <path d="M43.439883,52.9302339 C56.2613743,60.7926316 51.6775439,65.8722807 62.8583918,72.728538 C53.1486842,88.5611988 32.4430409,93.525731 16.6094737,83.8160234 C0.776812865,74.1072222 -4.18862573,53.3997661 5.52108187,37.5671053 C27.8836842,51.2805263 31.9716959,45.8981287 43.439883,52.9302339 Z" id="Path"></path>
                    <path d="M39.2648538,100.845175 C50.7049415,91.0810819 54.1185673,97.009152 64.0947661,88.4941228 C76.1530409,102.620877 74.4752339,123.847719 60.349386,135.905994 C46.2217251,147.964269 24.994883,146.285556 12.9375146,132.159708 C32.8890058,115.131462 29.0330409,109.578655 39.2648538,100.845175 Z" id="Path"></path>
                    <path d="M83.5459064,119.622836 C77.7927778,105.726316 84.4858772,104.309561 79.4723977,92.191462 C96.6338889,85.0895614 116.304386,93.2438304 123.408099,110.405322 C130.51,127.566813 122.354825,147.23731 105.193333,154.340117 C95.1609357,130.102105 88.6899123,132.053655 83.5459064,119.622836 Z" id="Path"></path>
                    <path d="M115.087047,83.3120468 C100.092836,84.4885965 100.81345,77.6840058 87.7390643,78.7100877 C86.2869591,60.194386 100.120936,44.0064035 118.637544,42.5524854 C137.153246,41.1030994 153.341228,54.937076 154.793333,73.4527778 C128.641842,75.5031287 128.495906,82.2614912 115.087047,83.3120468 Z" id="Path"></path>
                </g>
            </g>
        </g>
    </g>
</svg>