<?xml version="1.0" encoding="UTF-8"?>
<svg width="395px" height="394px" viewBox="0 0 395 394" version="1.1" xmlns="http://www.w3.org/2000/svg" xmlns:xlink="http://www.w3.org/1999/xlink">
    <!-- Generator: Sketch 63.1 (92452) - https://sketch.com -->
    <title>img_question</title>
    <desc>Created with Sketch.</desc>
    <defs>
        <linearGradient x1="46.7060004%" y1="-48.097764%" x2="50.824924%" y2="29.8381514%" id="linearGradient-1">
            <stop stop-color="#80C3F3" offset="0%"></stop>
            <stop stop-color="#4A90E2" offset="100%"></stop>
        </linearGradient>
    </defs>
    <g id="Page-1" stroke="none" stroke-width="1" fill="none" fill-rule="evenodd">
        <g id="FAQs---What-is-a-Backlink" transform="translate(-856.000000, -1654.000000)" fill-rule="nonzero">
            <g id="img_question" transform="translate(856.000000, 1654.000000)">
                <path d="M197.5,0 C88.48,0 0,88.256 0,197 C0,305.744 88.48,394 197.5,394 C306.52,394 395,305.744 395,197 C395,88.256 306.52,0 197.5,0 Z" id="Path" fill="url(#linearGradient-1)"></path>
                <g id="Group" transform="translate(120.000000, 73.000000)" fill="#FFFFFF">
                    <path d="M80.413099,0.589915966 C48.5217726,0.589915966 22.5000155,18.4840336 0.195652309,46.9966387 L37.5652433,81.8016807 C48.5217726,67.6436975 59.6739543,55.6487395 73.3696159,55.6487395 C84.5217975,55.6487395 97.0435453,64.1042017 97.0435453,77.6722689 C97.0435453,97.1394958 46.1739449,115.426891 46.1739449,147.872269 L46.1739449,176.188235 L105.652247,176.188235 L105.652247,156.721008 C105.652247,135.484034 156.521847,124.27563 156.521847,78.4588235 C156.326195,30.6756303 122.86965,0.589915966 80.413099,0.589915966 Z" id="Path"></path>
                    <path d="M75.1304867,189.756303 C55.9565604,189.756303 40.500028,205.290756 40.500028,224.561345 C40.500028,243.831933 55.9565604,259.366387 75.1304867,259.366387 C94.304413,259.366387 109.760945,243.831933 109.760945,224.561345 C109.760945,205.290756 94.1087606,189.756303 75.1304867,189.756303 Z" id="Path"></path>
                </g>
            </g>
        </g>
    </g>
</svg>