<?xml version="1.0" encoding="UTF-8"?>
<svg width="322px" height="332px" viewBox="0 0 322 332" version="1.1" xmlns="http://www.w3.org/2000/svg" xmlns:xlink="http://www.w3.org/1999/xlink">
    <!-- Generator: Sketch 63.1 (92452) - https://sketch.com -->
    <title>img_know_your_budget_mob</title>
    <desc>Created with Sketch.</desc>
    <defs>
        <filter x="-7.2%" y="-158.5%" width="114.4%" height="416.9%" filterUnits="objectBoundingBox" id="filter-1">
            <feGaussianBlur stdDeviation="2.64107143" in="SourceGraphic"></feGaussianBlur>
        </filter>
        <filter x="-7.2%" y="-63.4%" width="114.4%" height="226.8%" filterUnits="objectBoundingBox" id="filter-2">
            <feGaussianBlur stdDeviation="2.11285714" in="SourceGraphic"></feGaussianBlur>
        </filter>
        <filter x="-7.2%" y="-141.5%" width="114.5%" height="383.0%" filterUnits="objectBoundingBox" id="filter-3">
            <feGaussianBlur stdDeviation="3.30133929" in="SourceGraphic"></feGaussianBlur>
        </filter>
        <linearGradient x1="82.2658281%" y1="3.36130428%" x2="34.8881244%" y2="105.628734%" id="linearGradient-4">
            <stop stop-color="#FACF00" offset="0%"></stop>
            <stop stop-color="#F2A100" offset="100%"></stop>
        </linearGradient>
        <linearGradient x1="50%" y1="0%" x2="50%" y2="100%" id="linearGradient-5">
            <stop stop-color="#FFF400" offset="0%"></stop>
            <stop stop-color="#FFE600" offset="100%"></stop>
        </linearGradient>
        <linearGradient x1="50%" y1="0%" x2="62.9029284%" y2="91.7903857%" id="linearGradient-6">
            <stop stop-color="#FCE141" offset="0%"></stop>
            <stop stop-color="#EFBE23" offset="100%"></stop>
        </linearGradient>
        <path d="M13.2966111,15.8787627 C1.52426499,28.8149928 -3.17861564,43.7156059 2.79438604,49.1600995 L2.79438604,49.1600995 C8.76536846,54.6045932 22.8598755,48.2627888 34.6322216,35.3245377 L34.6322216,35.3245377 C46.4045677,22.3883076 51.3941847,7.75042063 45.4252216,2.30794794 L45.4252216,2.30794794 C43.9390386,0.951876953 41.9318839,0.311229407 39.5733761,0.311229407 L39.5733761,0.311229407 C32.4554482,0.311229407 22.138996,6.15789613 13.2966111,15.8787627 L13.2966111,15.8787627 Z" id="path-7"></path>
        <path d="M13.2966111,15.8787627 C1.52426499,28.8149928 -3.17861564,43.7156059 2.79438604,49.1600995 L2.79438604,49.1600995 C8.76536846,54.6045932 22.8598755,48.2627888 34.6322216,35.3245377 L34.6322216,35.3245377 C46.4045677,22.3883076 51.3941847,7.75042063 45.4252216,2.30794794 L45.4252216,2.30794794 C43.9390386,0.951876953 41.9318839,0.311229407 39.5733761,0.311229407 L39.5733761,0.311229407 C32.4554482,0.311229407 22.138996,6.15789613 13.2966111,15.8787627 L13.2966111,15.8787627 Z" id="path-9"></path>
        <linearGradient x1="0%" y1="41.4723217%" x2="91.3469267%" y2="61.3694535%" id="linearGradient-11">
            <stop stop-color="#FACF00" offset="0%"></stop>
            <stop stop-color="#F2A100" offset="100%"></stop>
        </linearGradient>
        <linearGradient x1="50%" y1="42.0395169%" x2="64.6055751%" y2="56.6534332%" id="linearGradient-12">
            <stop stop-color="#FDE765" offset="0%"></stop>
            <stop stop-color="#F9CA35" offset="100%"></stop>
        </linearGradient>
        <linearGradient x1="16.8145502%" y1="42.0542302%" x2="64.6055751%" y2="56.6411357%" id="linearGradient-13">
            <stop stop-color="#FCE141" offset="0%"></stop>
            <stop stop-color="#EFBE23" offset="100%"></stop>
        </linearGradient>
        <path d="M0.209435879,2.69395325 C-0.909239893,6.1801268 10.0069356,12.6189378 24.5214509,17.283337 L24.5214509,17.283337 C39.0359661,21.9477361 51.6564058,23.0713955 52.7750815,19.587243 L52.7750815,19.587243 C53.8937573,16.1010694 43.0341214,9.49249692 28.5155676,4.82809775 L28.5155676,4.82809775 C19.8953025,2.05532667 11.9232232,0.594165232 6.63677339,0.594165232 L6.63677339,0.594165232 C3.02227947,0.594165232 0.663771707,1.27725315 0.209435879,2.69395325 L0.209435879,2.69395325 Z" id="path-14"></path>
        <path d="M0.209435879,2.69395325 C-0.909239893,6.1801268 10.0069356,12.6189378 24.5214509,17.283337 L24.5214509,17.283337 C39.0359661,21.9477361 51.6564058,23.0713955 52.7750815,19.587243 L52.7750815,19.587243 C53.8937573,16.1010694 43.0341214,9.49249692 28.5155676,4.82809775 L28.5155676,4.82809775 C19.8953025,2.05532667 11.9232232,0.594165232 6.63677339,0.594165232 L6.63677339,0.594165232 C3.02227947,0.594165232 0.663771707,1.27725315 0.209435879,2.69395325 L0.209435879,2.69395325 Z" id="path-16"></path>
        <linearGradient x1="0%" y1="42.9542404%" x2="91.3469267%" y2="59.3936982%" id="linearGradient-18">
            <stop stop-color="#FACF00" offset="0%"></stop>
            <stop stop-color="#F2A100" offset="100%"></stop>
        </linearGradient>
        <polygon id="path-19" points="0 0.542149001 72.0192872 0.542149001 72.0192872 25.6215059 0 25.6215059"></polygon>
        <linearGradient x1="50%" y1="43.9368351%" x2="64.6055751%" y2="55.06764%" id="linearGradient-21">
            <stop stop-color="#FDE765" offset="0%"></stop>
            <stop stop-color="#F9CA35" offset="100%"></stop>
        </linearGradient>
        <linearGradient x1="12.7339944%" y1="50%" x2="113.113027%" y2="51.9098564%" id="linearGradient-22">
            <stop stop-color="#FCE141" offset="0%"></stop>
            <stop stop-color="#EFBE23" offset="100%"></stop>
        </linearGradient>
        <path d="M25.5293509,2.98463873 C10.756369,6.74970617 -0.488947542,12.6792327 0.413666303,16.2280563 L0.413666303,16.2280563 C1.31628015,19.7768799 13.9811438,19.4272521 28.7541256,15.6621847 L28.7541256,15.6621847 C43.5271075,11.8971172 54.816848,6.13937318 53.9162534,2.59257052 L53.9162534,2.59257052 C53.4821103,0.88687169 50.3219522,0.0400851862 45.5160888,0.0421025476 L45.5160888,0.0421025476 C40.3205062,0.0421025476 33.2025782,1.0283396 25.5293509,2.98463873 L25.5293509,2.98463873 Z" id="path-23"></path>
        <path d="M25.5293509,2.98463873 C10.756369,6.74970617 -0.488947542,12.6792327 0.413666303,16.2280563 L0.413666303,16.2280563 C1.31628015,19.7768799 13.9811438,19.4272521 28.7541256,15.6621847 L28.7541256,15.6621847 C43.5271075,11.8971172 54.816848,6.13937318 53.9162534,2.59257052 L53.9162534,2.59257052 C53.4821103,0.88687169 50.3219522,0.0400851862 45.5160888,0.0421025476 L45.5160888,0.0421025476 C40.3205062,0.0421025476 33.2025782,1.0283396 25.5293509,2.98463873 L25.5293509,2.98463873 Z" id="path-25"></path>
        <linearGradient x1="19.2593657%" y1="6.35744195%" x2="67.9034713%" y2="98.8802882%" id="linearGradient-27">
            <stop stop-color="#FDE765" offset="0%"></stop>
            <stop stop-color="#F9CA35" offset="100%"></stop>
        </linearGradient>
        <linearGradient x1="50%" y1="1.41062632%" x2="64.6055751%" y2="90.6113733%" id="linearGradient-28">
            <stop stop-color="#FCE141" offset="0%"></stop>
            <stop stop-color="#EFBE23" offset="100%"></stop>
        </linearGradient>
        <path d="M0.296548622,37.4951559 C0.296548622,58.1029888 16.9918758,73.81199 37.5823756,73.81199 L37.5823756,73.81199 C58.1748946,73.81199 74.8682025,58.1029888 74.8682025,37.4951559 L74.8682025,37.4951559 C74.8682025,16.8853021 58.1748946,0.175920642 37.5823756,0.175920642 L37.5823756,0.175920642 C16.9918758,0.175920642 0.296548622,16.8853021 0.296548622,37.4951559 L0.296548622,37.4951559 Z" id="path-29"></path>
        <path d="M0.0504817587,37.3492156 C0.0504817587,57.9570485 16.745809,73.6660497 37.3363087,73.6660497 L37.3363087,73.6660497 C57.9288277,73.6660497 74.6221357,57.9570485 74.6221357,37.3492156 L74.6221357,37.3492156 C74.6221357,16.7393618 57.9288277,0.0299803354 37.3363087,0.0299803354 L37.3363087,0.0299803354 C16.745809,0.0299803354 0.0504817587,16.7393618 0.0504817587,37.3492156 L0.0504817587,37.3492156 Z" id="path-31"></path>
        <linearGradient x1="0%" y1="37.1075718%" x2="91.3469267%" y2="67.1887186%" id="linearGradient-33">
            <stop stop-color="#FACF00" offset="0%"></stop>
            <stop stop-color="#F2A100" offset="100%"></stop>
        </linearGradient>
        <linearGradient x1="0%" y1="36.0407558%" x2="91.2186557%" y2="63.9592442%" id="linearGradient-34">
            <stop stop-color="#DB8F00" offset="0%"></stop>
            <stop stop-color="#C98300" offset="100%"></stop>
        </linearGradient>
    </defs>
    <g id="Page-1" stroke="none" stroke-width="1" fill="none" fill-rule="evenodd">
        <g id="FAQs---How-To-Pick-The-Best-SEO-Agency---Mobile" transform="translate(-27.000000, -3014.000000)">
            <g id="img_know_your_budget_mob" transform="translate(31.000000, 3014.000000)">
                <ellipse id="Oval-4-Copy" fill="#000000" opacity="0.1" filter="url(#filter-1)" cx="258" cy="317.5" rx="55" ry="2.5"></ellipse>
                <ellipse id="Oval-4-Copy-3" fill-opacity="0.6" fill="#000000" opacity="0.1" filter="url(#filter-2)" cx="44" cy="322" rx="44" ry="5"></ellipse>
                <ellipse id="Oval-4-Copy-2" fill="#000000" opacity="0.1" filter="url(#filter-3)" cx="146.5" cy="304.5" rx="68.5" ry="3.5"></ellipse>
                <g id="Group-17">
                    <g id="Group-5" transform="translate(228.941117, 159.903250)">
                        <path d="M58.8360037,4.92146657 C49.2565852,4.65267754 35.1055386,12.5465871 23.0363597,25.8102143 C10.9692001,39.0738416 4.43686054,53.9118046 5.59794099,63.4325951 L3.57867064,65.6516204 L14.2464759,75.3765289 C22.1963432,82.621707 41.0038272,74.4731552 57.0630843,56.8220017 C73.1223414,39.1728691 79.4749659,19.6705069 71.5230793,12.4253288 L60.855274,2.70042035 L58.8360037,4.92146657 Z" id="Fill-21" fill="url(#linearGradient-4)"></path>
                        <path d="M55.7222888,12.3481278 C61.7498108,17.8411247 56.7117313,32.6144167 44.8303446,45.673926 C32.9489578,58.7314143 18.7231982,65.1318269 12.693657,59.6368089 C6.66815427,54.143812 11.4134396,39.1037519 23.292807,26.0442427 C35.176213,12.9867544 49.6947668,6.85310987 55.7222888,12.3481278" id="Fill-23" fill="#FFC30D"></path>
                        <path d="M46.3948752,47.0983058 C30.3356182,64.7474383 11.5281341,72.898011 3.57826679,65.652833 C-4.43217867,58.3510677 1.89621459,38.2909177 17.6869087,20.9348259 C33.4796221,3.57873399 52.8424054,-4.60013232 60.8548702,2.70163293 C68.8047375,9.94681102 62.452113,29.4491732 46.3948752,47.0983058" id="Fill-25" fill="url(#linearGradient-5)"></path>
                        <path d="M19.7106214,22.778557 C6.10477785,37.7317153 0.650728641,55.0170732 7.55259469,61.3083534 C14.3635936,67.5127318 30.5339105,60.4615669 44.3719702,45.2557873 C58.2080106,30.0479867 63.7145608,13.2739342 56.9055812,7.0675348 C50.0016959,0.776254645 33.316465,7.82337765 19.7106214,22.778557" id="Fill-27" fill="#F0A700"></path>
                        <path d="M20.3200372,23.3331112 C7.04939252,37.9184529 1.72861515,54.7773862 8.46086249,60.9110306 C15.1022427,66.9638363 30.8767826,60.0884958 44.3715663,45.2545747 C57.8683693,30.4226746 63.2376092,14.062921 56.596229,8.0101153 C49.8639817,1.87444984 33.5886627,8.74776941 20.3200372,23.3331112" id="Fill-29" fill="url(#linearGradient-6)"></path>
                        <g id="Group-34" opacity="0.326004464" style="mix-blend-mode: multiply;" transform="translate(8.077081, 8.415320)">
                            <mask id="mask-8" fill="white">
                                <use xlink:href="#path-7"></use>
                            </mask>
                            <g id="Clip-33"></g>
                            <polygon id="Fill-32" fill="#FFDD00" mask="url(#mask-8)" points="11.0025181 56.4355922 5.60702771 58.7152465 26.5105143 -7.53215585 31.9060047 -9.80978924"></polygon>
                        </g>
                        <g id="Group-37" opacity="0.326004464" style="mix-blend-mode: multiply;" transform="translate(8.077081, 8.415320)">
                            <mask id="mask-10" fill="white">
                                <use xlink:href="#path-9"></use>
                            </mask>
                            <g id="Clip-36"></g>
                            <polygon id="Fill-35" fill="#FFDD00" mask="url(#mask-10)" points="25.4548398 55.1201427 12.7919955 60.4696508 35.3553223 -11.0504628 48.0222052 -3.84166221"></polygon>
                        </g>
                    </g>
                    <g id="Group-4" transform="translate(189.811413, 10.104851)">
                        <path d="M72.9515933,105.143851 C68.7676651,100.342026 56.7307946,94.0204311 41.8487722,89.2367947 C26.968769,84.4551792 13.502255,82.5797189 7.3071336,84.0489642 L4.81737327,83.24866 L0.609213864,96.3627355 C-0.878988382,101.002883 13.4638889,109.622321 33.2668732,115.986356 C53.0678382,122.350391 69.744992,123.700399 71.2331942,119.058231 L75.4413536,105.944155 L72.9515933,105.143851 Z" id="Fill-39" fill="url(#linearGradient-11)"></path>
                        <path d="M66.2825491,104.283322 C65.153777,107.801831 52.4182389,106.668067 37.7664133,101.959206 C23.1166069,97.2503456 12.0994679,90.7529265 13.2302593,87.2323964 C14.3570122,83.7138874 27.1490898,84.6799111 41.8009154,89.3867506 C56.4507218,94.0956112 67.4133405,100.764813 66.2825491,104.283322" id="Fill-41" fill="#FFC30D"></path>
                        <path d="M37.4742249,102.87228 C17.6712406,96.5082454 3.32836331,87.8888075 4.81656556,83.24866 C6.31486415,78.572135 23.3797179,79.8574721 42.8495225,86.1143957 C62.3213465,92.3733404 76.9428831,101.26763 75.4425652,105.944155 C73.9523437,110.584303 57.2751899,109.234295 37.4742249,102.87228" id="Fill-43" fill="url(#linearGradient-12)"></path>
                        <path d="M42.4713132,87.2956528 C25.6931959,81.9037044 10.9929078,80.7962127 9.70057474,84.8240063 C8.42439589,88.7992546 20.7904075,96.2081313 37.8532419,101.691023 C54.9140571,107.173915 69.277127,108.356183 70.5533059,104.380935 C71.8476582,100.35112 59.2494305,92.6855803 42.4713132,87.2956528" id="Fill-45" fill="#F0A700"></path>
                        <path d="M42.3568206,87.6509394 C25.9926537,82.392375 11.6558342,81.3111559 10.3958095,85.2419429 C9.15193899,89.1181637 21.2110215,96.3431321 37.8538477,101.690619 C54.4946546,107.040127 68.502333,108.19208 69.7462035,104.315859 C71.0062282,100.385072 58.7209875,92.9095038 42.3568206,87.6509394" id="Fill-47" fill="url(#linearGradient-13)"></path>
                        <g id="Group-52" opacity="0.401841518" style="mix-blend-mode: multiply;" transform="translate(13.642759, 83.437823)">
                            <mask id="mask-15" fill="white">
                                <use xlink:href="#path-14"></use>
                            </mask>
                            <g id="Clip-51"></g>
                            <polygon id="Fill-50" fill="#FFDD00" mask="url(#mask-15)" points="-1.18244717 7.46546383 -5.25733473 4.9877544 51.0904043 9.23583371 55.1612533 11.7135431"></polygon>
                        </g>
                        <g id="Group-55" opacity="0.401841518" style="mix-blend-mode: multiply;" transform="translate(13.642759, 83.437823)">
                            <mask id="mask-17" fill="white">
                                <use xlink:href="#path-16"></use>
                            </mask>
                            <g id="Clip-54"></g>
                            <polygon id="Fill-53" fill="#FFDD00" mask="url(#mask-17)" points="6.34640232 14.5517937 -3.21484277 8.73342052 57.6156764 13.3210228 67.1769215 19.137375"></polygon>
                        </g>
                        <path d="M33.9485788,50.8442221 C33.4013566,50.8442221 32.9611556,49.4901721 32.9611556,47.8208507 L32.9611556,3.14730497 C32.9611556,1.47798361 33.4013566,0.12393359 33.9485788,0.12393359 C34.4958011,0.12393359 34.9380213,1.47798361 34.9380213,3.14730497 L34.9380213,47.8208507 C34.9380213,49.4901721 34.4958011,50.8442221 33.9485788,50.8442221" id="Fill-93" fill="#EFF1F4"></path>
                        <path d="M44.8986781,45.8795068 C44.3514558,45.8795068 43.9092356,45.0266574 43.9092356,43.9737319 L43.9092356,17.8284407 C43.9092356,16.7755153 44.3514558,15.9206449 44.8986781,15.9206449 C45.4459003,15.9206449 45.8881206,16.7755153 45.8881206,17.8284407 L45.8881206,43.9737319 C45.8881206,45.0266574 45.4459003,45.8795068 44.8986781,45.8795068" id="Fill-95" fill="#EFF1F4"></path>
                    </g>
                    <g id="Group-14" transform="translate(0.000000, 47.492799)">
                        <path d="M69.4158509,86.0256751 C63.321693,84.1805294 49.7683504,85.225371 34.6218036,89.085424 C19.4752567,92.945477 7.07289824,98.5172918 2.6022337,103.05437 L0.0680494107,103.699059 L3.46446213,117.049588 C4.66592799,121.770575 21.3955828,121.447219 41.5499201,116.309913 C61.7022382,111.172607 76.5499331,103.45048 75.3484672,98.7274727 L71.9500352,85.3789647 L69.4158509,86.0256751 Z" id="Fill-97" fill="url(#linearGradient-18)"></path>
                        <path d="M63.310789,88.8418971 C64.2214799,92.4210353 52.8287566,98.2313245 37.9164451,102.032769 C23.0061528,105.834214 10.2221523,106.185863 9.31146135,102.604704 C8.40077042,99.0215239 19.7490698,93.0374312 34.6613813,89.2380072 C49.5716735,85.4365623 62.3980788,85.2607379 63.310789,88.8418971" id="Fill-99" fill="#FFC30D"></path>
                        <g id="Group-103" transform="translate(0.000000, 81.416853)">
                            <mask id="mask-20" fill="white">
                                <use xlink:href="#path-19"></use>
                            </mask>
                            <g id="Clip-102"></g>
                            <path d="M38.1526997,21.5461693 C17.9983624,26.6814546 1.26870756,27.0048098 0.0672417025,22.2818025 C-1.14230124,17.5224177 13.9961686,9.5416065 33.8132877,4.49120202 C53.6324262,-0.559202448 70.7396846,-0.797676929 71.9512468,3.96170784 C73.1527126,8.68673611 58.307037,16.4088632 38.1526997,21.5461693" id="Fill-101" fill="url(#linearGradient-21)" mask="url(#mask-20)"></path>
                        </g>
                        <path d="M34.1190053,87.1091173 C17.0420359,91.460266 3.99956878,98.3376276 5.04353154,102.438176 C6.07134015,106.484158 20.4808533,106.185055 37.8465783,101.761151 C55.2123033,97.3352263 68.0104388,90.6983603 66.9806109,86.652378 C65.9366481,82.5518295 51.1959746,82.7559475 34.1190053,87.1091173" id="Fill-104" fill="#F0A700"></path>
                        <path d="M34.2106801,87.4702646 C17.5557383,91.716323 4.83433514,98.421902 5.85204739,102.421402 C6.85562475,106.368357 20.9097464,106.077337 37.847386,101.760545 C54.7830064,97.4457734 67.2661357,90.970585 66.2605391,87.0256512 C65.2428268,83.0261512 50.865622,83.2242063 34.2106801,87.4702646" id="Fill-106" fill="url(#linearGradient-22)"></path>
                        <g id="Group-111" opacity="0.398549107" style="mix-blend-mode: multiply;" transform="translate(8.840650, 85.111520)">
                            <mask id="mask-24" fill="white">
                                <use xlink:href="#path-23"></use>
                            </mask>
                            <g id="Clip-110"></g>
                            <polygon id="Fill-109" fill="#FFDD00" mask="url(#mask-24)" points="1.76698129 21.0112885 -2.99849673 21.0759596 46.9925792 -5.28355445 51.7580573 -5.3482255"></polygon>
                        </g>
                        <g id="Group-114" opacity="0.398549107" style="mix-blend-mode: multiply;" transform="translate(8.840650, 85.111520)">
                            <mask id="mask-26" fill="white">
                                <use xlink:href="#path-25"></use>
                            </mask>
                            <g id="Clip-113"></g>
                            <polygon id="Fill-112" fill="#FFDD00" mask="url(#mask-26)" points="11.9067473 23.0106343 0.717970344 23.166249 54.6890282 -5.29103204 65.8778052 -5.44664675"></polygon>
                        </g>
                        <path d="M33.6162069,50.9092974 C33.0689847,50.9092974 32.6267645,49.5552473 32.6267645,47.885926 L32.6267645,3.21238021 C32.6267645,1.54305885 33.0689847,0.18900883 33.6162069,0.18900883 C34.1634292,0.18900883 34.6056494,1.54305885 34.6056494,3.21238021 L34.6056494,47.885926 C34.6056494,49.5552473 34.1634292,50.9092974 33.6162069,50.9092974" id="Fill-116" fill="#EFF1F4"></path>
                        <path d="M44.5665081,45.9435715 C44.0192858,45.9435715 43.5770656,45.0907221 43.5770656,44.0377967 L43.5770656,17.8904845 C43.5770656,16.83958 44.0192858,15.9867306 44.5665081,15.9867306 C45.1137304,15.9867306 45.5559506,16.83958 45.5559506,17.8904845 L45.5559506,44.0377967 C45.5559506,45.0907221 45.1137304,45.9435715 44.5665081,45.9435715" id="Fill-118" fill="#EFF1F4"></path>
                    </g>
                    <g id="Group-8" transform="translate(92.886436, 0.000000)">
                        <path d="M88.0961209,188.0491 C88.0961209,208.850946 71.2453099,224.705457 50.4609602,224.705457 C29.6786298,224.705457 12.829838,208.850946 12.829838,188.0491 C12.829838,167.247254 29.6786298,150.382258 50.4609602,150.382258 C71.2453099,150.382258 88.0961209,167.247254 88.0961209,188.0491" id="Fill-1" fill="#FFC30D"></path>
                        <path d="M50.461566,230.100639 C22.3694769,230.100639 0.365487933,208.609642 0.365487933,181.174972 C0.365487933,153.5281 22.8379476,131.034702 50.461566,131.034702 C78.0851843,131.034702 100.559663,153.5281 100.559663,181.174972 C100.559663,208.609642 78.553655,230.100639 50.461566,230.100639" id="Fill-3" fill="url(#linearGradient-27)"></path>
                        <path d="M50.461566,138.014325 C26.6604264,138.014325 7.29764303,157.395429 7.29764303,181.216604 C7.29764303,204.714424 26.2565723,223.121421 50.461566,223.121421 C74.6665596,223.121421 93.6275082,204.714424 93.6275082,181.216604 C93.6275082,157.395429 74.2647248,138.014325 50.461566,138.014325" id="Fill-5" fill="#F0A700"></path>
                        <path d="M50.461566,140.116134 C27.2480341,140.116134 8.3617985,159.018268 8.3617985,182.251341 C8.3617985,205.167122 26.8542763,223.121421 50.461566,223.121421 C74.0688556,223.121421 92.5633527,205.167122 92.5633527,182.251341 C92.5633527,159.018268 73.6771171,140.116134 50.461566,140.116134" id="Fill-7" fill="url(#linearGradient-28)"></path>
                        <g id="Group-12" opacity="0.445145089" style="mix-blend-mode: multiply;" transform="translate(12.879190, 143.573715)">
                            <mask id="mask-30" fill="white">
                                <use xlink:href="#path-29"></use>
                            </mask>
                            <g id="Clip-11"></g>
                            <polygon id="Fill-10" fill="#FFDD00" mask="url(#mask-30)" points="0.474244413 65.4686167 -5.78549366 59.2015882 68.4287494 -15.0751287 74.6905067 -8.81012115"></polygon>
                        </g>
                        <g id="Group-15" opacity="0.445145089" style="mix-blend-mode: multiply;" transform="translate(13.125257, 143.719655)">
                            <mask id="mask-32" fill="white">
                                <use xlink:href="#path-31"></use>
                            </mask>
                            <g id="Clip-14"></g>
                            <polygon id="Fill-13" fill="#FFDD00" mask="url(#mask-32)" points="12.8348862 90.3301614 -1.86338268 75.6195195 78.2612647 -4.57055617 92.9595335 10.1380648"></polygon>
                        </g>
                        <path d="M29.4032013,101.873719 C28.6641483,101.873719 28.0664443,100.046762 28.0664443,97.7913593 L28.0664443,4.12949648 C28.0664443,1.87409376 28.6641483,0.0471367235 29.4032013,0.0471367235 C30.140235,0.0471367235 30.7399583,1.87409376 30.7399583,4.12949648 L30.7399583,97.7913593 C30.7399583,100.046762 30.140235,101.873719 29.4032013,101.873719" id="Fill-195" fill="#EFF1F4"></path>
                        <path d="M42.3725709,96.2192466 C41.6355372,96.2192466 41.0358139,95.0672936 41.0358139,93.6465516 L41.0358139,64.1181563 C41.0358139,62.6974143 41.6355372,61.5454613 42.3725709,61.5454613 C43.1116238,61.5454613 43.7093278,62.6974143 43.7093278,64.1181563 L43.7093278,93.6465516 C43.7093278,95.0672936 43.1116238,96.2192466 42.3725709,96.2192466" id="Fill-197" fill="#EFF1F4"></path>
                        <path d="M55.343152,101.873719 C54.6040991,101.873719 54.0063951,100.721766 54.0063951,99.301024 L54.0063951,49.0394957 C54.0063951,47.6187537 54.6040991,46.4668007 55.343152,46.4668007 C56.0801857,46.4668007 56.679909,47.6187537 56.679909,49.0394957 L56.679909,99.301024 C56.679909,100.721766 56.0801857,101.873719 55.343152,101.873719" id="Fill-199" fill="#EFF1F4"></path>
                    </g>
                    <g id="Group-9" transform="translate(19.946637, 218.511386)">
                        <path d="M2.03514039,12.8404361 C4.56932468,17.0662848 12.8220826,23.0241048 23.4131555,27.8845381 C34.0042285,32.7469924 43.9006725,35.1175904 48.7529791,34.2829297 L50.5258985,35.0973807 L55.0531026,25.2148365 C56.7694824,21.4719997 47.0729462,13.4709788 32.9824777,7.00387424 C18.88999,0.534748709 6.50580494,-1.5993958 4.79144441,2.14546194 L0.264240297,12.0280061 L2.03514039,12.8404361 Z" id="Fill-249" fill="url(#linearGradient-33)"></path>
                        <path d="M6.94519817,13.9594473 C8.24560827,11.1199842 17.6897357,12.8357879 28.1152285,17.6214453 C38.5427405,22.4071026 46.0039445,28.4498035 44.7035344,31.2892666 C43.4031243,34.1267087 33.8943802,32.548331 23.4688874,27.7646946 C13.0433946,22.9790372 5.64276879,16.7968894 6.94519817,13.9594473" id="Fill-251" fill="#FFC30D"></path>
                        <path d="M28.454264,16.8843974 C42.5467517,23.353523 52.2412687,31.3525229 50.5248889,35.0973807 C48.7963934,38.870532 36.1153757,36.7646811 22.2591425,30.4046879 C8.40089016,24.0446948 -1.46526475,15.8011574 0.263230662,12.0280061 C1.97961046,8.28314837 14.3617762,10.4172929 28.454264,16.8843974" id="Fill-253" fill="#F2A500"></path>
                        <path d="M22.695103,29.4524068 C34.6350486,34.9332779 45.5613204,36.7460881 47.0515419,33.4943471 C48.5215707,30.2870675 40.1597722,23.4117269 28.0178996,17.8378912 C15.8740078,12.2640554 5.21226035,10.4108258 3.74223154,13.6181054 C2.25201003,16.8678255 10.7551575,23.9715357 22.695103,29.4524068" id="Fill-255" fill="url(#linearGradient-34)"></path>
                    </g>
                </g>
            </g>
        </g>
    </g>
</svg>