<?xml version="1.0" encoding="UTF-8"?>
<svg width="403px" height="391px" viewBox="0 0 403 391" version="1.1" xmlns="http://www.w3.org/2000/svg" xmlns:xlink="http://www.w3.org/1999/xlink">
    <!-- Generator: Sketch 63.1 (92452) - https://sketch.com -->
    <title>img_aquire_new_backlinks</title>
    <desc>Created with Sketch.</desc>
    <defs>
        <polygon id="path-1" points="9.99048094e-05 0.311719147 402.292291 0.311719147 402.292291 30.2596366 9.99048094e-05 30.2596366"></polygon>
    </defs>
    <g id="Page-1" stroke="none" stroke-width="1" fill="none" fill-rule="evenodd">
        <g id="FAQs---What-is-a-Backlink" transform="translate(-835.000000, -584.000000)">
            <g id="img_aquire_new_backlinks" transform="translate(835.000000, 584.000000)">
                <g id="img_secure_site">
                    <g id="Group-117">
                        <polygon id="Fill-1" fill="#FEFEFE" points="0 382.225225 402.056206 382.225225 402.056206 32.9504505 0 32.9504505"></polygon>
                        <g id="Group-116">
                            <g id="Group-4">
                                <mask id="mask-2" fill="white">
                                    <use xlink:href="#path-1"></use>
                                </mask>
                                <g id="Clip-3"></g>
                                <path d="M402.292291,30.2596366 L9.99048094e-05,30.2596366 L9.99048094e-05,7.66149713 C9.99048094e-05,3.60215452 3.2904648,0.311619237 7.34909769,0.311619237 L394.942793,0.311619237 C399.001926,0.311619237 402.292291,3.60215452 402.292291,7.66149713 L402.292291,30.2596366 Z" id="Fill-2" fill="#FF5254" mask="url(#mask-2)"></path>
                            </g>
                            <path d="M23.4525541,15.285578 C23.4525541,17.7768334 21.4329784,19.7965137 18.941852,19.7965137 C16.450226,19.7965137 14.4306503,17.7768334 14.4306503,15.285578 C14.4306503,12.7943225 16.450226,10.7746422 18.941852,10.7746422 C21.4329784,10.7746422 23.4525541,12.7943225 23.4525541,15.285578" id="Fill-5" fill="#FFFFFF"></path>
                            <path d="M39.0334085,15.285578 C39.0334085,17.7768334 37.0138327,19.7965137 34.5227063,19.7965137 C32.0310804,19.7965137 30.0115047,17.7768334 30.0115047,15.285578 C30.0115047,12.7943225 32.0310804,10.7746422 34.5227063,10.7746422 C37.0138327,10.7746422 39.0334085,12.7943225 39.0334085,15.285578" id="Fill-7" fill="#FFFFFF"></path>
                            <path d="M55.1443078,15.285578 C55.1443078,17.7768334 53.1247321,19.7965137 50.6336057,19.7965137 C48.1419797,19.7965137 46.122404,17.7768334 46.122404,15.285578 C46.122404,12.7943225 48.1419797,10.7746422 50.6336057,10.7746422 C53.1247321,10.7746422 55.1443078,12.7943225 55.1443078,15.285578" id="Fill-9" fill="#FFFFFF"></path>
                            <path d="M286.472945,133.092986 L26.9886848,133.092986 C23.6918261,133.092986 20.9943963,130.395416 20.9943963,127.098387 L20.9943963,53.9572855 C20.9943963,50.660256 23.6918261,47.9626865 26.9886848,47.9626865 L286.472945,47.9626865 C289.770303,47.9626865 292.467233,50.660256 292.467233,53.9572855 L292.467233,127.098387 C292.467233,130.395416 289.770303,133.092986 286.472945,133.092986" id="Fill-11" fill="#427FE0"></path>
                            <path d="M378.400006,271.473707 L260.543801,271.473707 C258.474772,271.473707 256.79737,269.796218 256.79737,267.727083 C256.79737,265.657447 258.474772,263.980458 260.543801,263.980458 L378.400006,263.980458 C380.469034,263.980458 382.146436,265.657447 382.146436,267.727083 C382.146436,269.796218 380.469034,271.473707 378.400006,271.473707" id="Fill-29" fill="#DADFE1"></path>
                            <path d="M242.624125,271.473707 L174.471561,271.473707 C172.402533,271.473707 170.725131,269.796218 170.725131,267.727083 C170.725131,265.657447 172.402533,263.980458 174.471561,263.980458 L242.624125,263.980458 C244.693153,263.980458 246.370555,265.657447 246.370555,267.727083 C246.370555,269.796218 244.693153,271.473707 242.624125,271.473707" id="Fill-31" fill="#DADFE1"></path>
                            <path d="M156.551336,271.473707 L88.399272,271.473707 C86.3302434,271.473707 84.6528417,269.796218 84.6528417,267.727083 C84.6528417,265.657447 86.3302434,263.980458 88.399272,263.980458 L156.551336,263.980458 C158.620364,263.980458 160.297766,265.657447 160.297766,267.727083 C160.297766,269.796218 158.620364,271.473707 156.551336,271.473707" id="Fill-33" fill="#DADFE1"></path>
                            <path d="M70.4787969,271.473707 L25.6894727,271.473707 C23.6204441,271.473707 21.9430424,269.796218 21.9430424,267.727083 C21.9430424,265.657447 23.6204441,263.980458 25.6894727,263.980458 L70.4787969,263.980458 C72.5478255,263.980458 74.2252273,265.657447 74.2252273,267.727083 C74.2252273,269.796218 72.5478255,271.473707 70.4787969,271.473707" id="Fill-35" fill="#DADFE1"></path>
                            <path d="M143.545178,298.012296 L25.6894727,298.012296 C23.6204441,298.012296 21.9430424,296.334808 21.9430424,294.265672 C21.9430424,292.196037 23.6204441,290.519048 25.6894727,290.519048 L143.545178,290.519048 C145.614207,290.519048 147.291609,292.196037 147.291609,294.265672 C147.291609,296.334808 145.614207,298.012296 143.545178,298.012296" id="Fill-37" fill="#DADFE1"></path>
                            <path d="M229.617967,298.012296 L161.465404,298.012296 C159.396375,298.012296 157.718973,296.334808 157.718973,294.265672 C157.718973,292.196037 159.396375,290.519048 161.465404,290.519048 L229.617967,290.519048 C231.686996,290.519048 233.364397,292.196037 233.364397,294.265672 C233.364397,296.334808 231.686996,298.012296 229.617967,298.012296" id="Fill-39" fill="#DADFE1"></path>
                            <path d="M315.690256,298.012296 L247.537693,298.012296 C245.469164,298.012296 243.791263,296.334808 243.791263,294.265672 C243.791263,292.196037 245.469164,290.519048 247.537693,290.519048 L315.690256,290.519048 C317.759285,290.519048 319.436687,292.196037 319.436687,294.265672 C319.436687,296.334808 317.759285,298.012296 315.690256,298.012296" id="Fill-41" fill="#DADFE1"></path>
                            <path d="M378.400006,298.012296 L333.610681,298.012296 C331.541153,298.012296 329.864251,296.334808 329.864251,294.265672 C329.864251,292.196037 331.541153,290.519048 333.610681,290.519048 L378.400006,290.519048 C380.469034,290.519048 382.146436,292.196037 382.146436,294.265672 C382.146436,296.334808 380.469034,298.012296 378.400006,298.012296" id="Fill-43" fill="#DADFE1"></path>
                            <path d="M378.400006,327.956018 L260.543801,327.956018 C258.474772,327.956018 256.79737,326.279028 256.79737,324.209393 C256.79737,322.140257 258.474772,320.462769 260.543801,320.462769 L378.400006,320.462769 C380.469034,320.462769 382.146436,322.140257 382.146436,324.209393 C382.146436,326.279028 380.469034,327.956018 378.400006,327.956018" id="Fill-45" fill="#DADFE1"></path>
                            <path d="M242.624125,327.956018 L174.471561,327.956018 C172.402533,327.956018 170.725131,326.279028 170.725131,324.209393 C170.725131,322.140257 172.402533,320.462769 174.471561,320.462769 L242.624125,320.462769 C244.693153,320.462769 246.370555,322.140257 246.370555,324.209393 C246.370555,326.279028 244.693153,327.956018 242.624125,327.956018" id="Fill-47" fill="#DADFE1"></path>
                            <path d="M156.551336,327.956018 L88.399272,327.956018 C86.3302434,327.956018 84.6528417,326.279028 84.6528417,324.209393 C84.6528417,322.140257 86.3302434,320.462769 88.399272,320.462769 L156.551336,320.462769 C158.620364,320.462769 160.297766,322.140257 160.297766,324.209393 C160.297766,326.279028 158.620364,327.956018 156.551336,327.956018" id="Fill-49" fill="#DADFE1"></path>
                            <path d="M70.4787969,327.956018 L25.6894727,327.956018 C23.6204441,327.956018 21.9430424,326.279028 21.9430424,324.209393 C21.9430424,322.140257 23.6204441,320.462769 25.6894727,320.462769 L70.4787969,320.462769 C72.5478255,320.462769 74.2252273,322.140257 74.2252273,324.209393 C74.2252273,326.279028 72.5478255,327.956018 70.4787969,327.956018" id="Fill-51" fill="#DADFE1"></path>
                            <path d="M143.545178,354.494607 L25.6894727,354.494607 C23.6204441,354.494607 21.9430424,352.817118 21.9430424,350.747982 C21.9430424,348.678847 23.6204441,347.001358 25.6894727,347.001358 L143.545178,347.001358 C145.614207,347.001358 147.291609,348.678847 147.291609,350.747982 C147.291609,352.817118 145.614207,354.494607 143.545178,354.494607" id="Fill-53" fill="#DADFE1"></path>
                            <path d="M229.617967,354.494607 L161.465404,354.494607 C159.396375,354.494607 157.718973,352.817118 157.718973,350.747982 C157.718973,348.678847 159.396375,347.001358 161.465404,347.001358 L229.617967,347.001358 C231.686996,347.001358 233.364397,348.678847 233.364397,350.747982 C233.364397,352.817118 231.686996,354.494607 229.617967,354.494607" id="Fill-55" fill="#DADFE1"></path>
                            <path d="M315.690256,354.494607 L247.537693,354.494607 C245.469164,354.494607 243.791263,352.817118 243.791263,350.747982 C243.791263,348.678847 245.469164,347.001358 247.537693,347.001358 L315.690256,347.001358 C317.759285,347.001358 319.436687,348.678847 319.436687,350.747982 C319.436687,352.817118 317.759285,354.494607 315.690256,354.494607" id="Fill-57" fill="#DADFE1"></path>
                            <path d="M378.400006,354.494607 L333.610681,354.494607 C331.541153,354.494607 329.864251,352.817118 329.864251,350.747982 C329.864251,348.678847 331.541153,347.001358 333.610681,347.001358 L378.400006,347.001358 C380.469034,347.001358 382.146436,348.678847 382.146436,350.747982 C382.146436,352.817118 380.469034,354.494607 378.400006,354.494607" id="Fill-59" fill="#DADFE1"></path>
                            <path d="M378.400006,160.67998 L260.543801,160.67998 C258.474772,160.67998 256.79737,159.002492 256.79737,156.933356 C256.79737,154.86422 258.474772,153.186732 260.543801,153.186732 L378.400006,153.186732 C380.469034,153.186732 382.146436,154.86422 382.146436,156.933356 C382.146436,159.002492 380.469034,160.67998 378.400006,160.67998" id="Fill-61" fill="#DADFE1"></path>
                            <path d="M242.624125,160.67998 L174.471561,160.67998 C172.402533,160.67998 170.725131,159.002492 170.725131,156.933356 C170.725131,154.86422 172.402533,153.186732 174.471561,153.186732 L242.624125,153.186732 C244.693153,153.186732 246.370555,154.86422 246.370555,156.933356 C246.370555,159.002492 244.693153,160.67998 242.624125,160.67998" id="Fill-63" fill="#DADFE1"></path>
                            <path d="M156.551336,160.67998 L88.399272,160.67998 C86.3302434,160.67998 84.6528417,159.002492 84.6528417,156.933356 C84.6528417,154.86422 86.3302434,153.186732 88.399272,153.186732 L156.551336,153.186732 C158.620364,153.186732 160.297766,154.86422 160.297766,156.933356 C160.297766,159.002492 158.620364,160.67998 156.551336,160.67998" id="Fill-65" fill="#DADFE1"></path>
                            <path d="M70.4787969,160.67998 L25.6894727,160.67998 C23.6204441,160.67998 21.9430424,159.002492 21.9430424,156.933356 C21.9430424,154.86422 23.6204441,153.186732 25.6894727,153.186732 L70.4787969,153.186732 C72.5478255,153.186732 74.2252273,154.86422 74.2252273,156.933356 C74.2252273,159.002492 72.5478255,160.67998 70.4787969,160.67998" id="Fill-67" fill="#DADFE1"></path>
                            <path d="M143.545178,187.21832 L25.6894727,187.21832 C23.6204441,187.21832 21.9430424,185.540831 21.9430424,183.471695 C21.9430424,181.40256 23.6204441,179.725071 25.6894727,179.725071 L143.545178,179.725071 C145.614207,179.725071 147.291609,181.40256 147.291609,183.471695 C147.291609,185.540831 145.614207,187.21832 143.545178,187.21832" id="Fill-69" fill="#DADFE1"></path>
                            <path d="M229.617967,187.21832 L161.465404,187.21832 C159.396375,187.21832 157.718973,185.540831 157.718973,183.471695 C157.718973,181.40256 159.396375,179.725071 161.465404,179.725071 L229.617967,179.725071 C231.686996,179.725071 233.364397,181.40256 233.364397,183.471695 C233.364397,185.540831 231.686996,187.21832 229.617967,187.21832" id="Fill-71" fill="#DADFE1"></path>
                            <path d="M315.690256,187.21832 L247.537693,187.21832 C245.469164,187.21832 243.791263,185.540831 243.791263,183.471695 C243.791263,181.40256 245.469164,179.725071 247.537693,179.725071 L315.690256,179.725071 C317.759285,179.725071 319.436687,181.40256 319.436687,183.471695 C319.436687,185.540831 317.759285,187.21832 315.690256,187.21832" id="Fill-73" fill="#DADFE1"></path>
                            <path d="M378.400006,187.21832 L333.610681,187.21832 C331.541153,187.21832 329.864251,185.540831 329.864251,183.471695 C329.864251,181.40256 331.541153,179.725071 333.610681,179.725071 L378.400006,179.725071 C380.469034,179.725071 382.146436,181.40256 382.146436,183.471695 C382.146436,185.540831 380.469034,187.21832 378.400006,187.21832" id="Fill-75" fill="#DADFE1"></path>
                            <path d="M378.400006,217.162291 L260.543801,217.162291 C258.474772,217.162291 256.79737,215.485302 256.79737,213.415666 C256.79737,211.346531 258.474772,209.669042 260.543801,209.669042 L378.400006,209.669042 C380.469034,209.669042 382.146436,211.346531 382.146436,213.415666 C382.146436,215.485302 380.469034,217.162291 378.400006,217.162291" id="Fill-77" fill="#DADFE1"></path>
                            <path d="M242.624125,217.162291 L174.471561,217.162291 C172.402533,217.162291 170.725131,215.485302 170.725131,213.415666 C170.725131,211.346531 172.402533,209.669042 174.471561,209.669042 L242.624125,209.669042 C244.693153,209.669042 246.370555,211.346531 246.370555,213.415666 C246.370555,215.485302 244.693153,217.162291 242.624125,217.162291" id="Fill-79" fill="#DADFE1"></path>
                            <path d="M156.551336,217.162291 L88.399272,217.162291 C86.3302434,217.162291 84.6528417,215.485302 84.6528417,213.415666 C84.6528417,211.346531 86.3302434,209.669042 88.399272,209.669042 L156.551336,209.669042 C158.620364,209.669042 160.297766,211.346531 160.297766,213.415666 C160.297766,215.485302 158.620364,217.162291 156.551336,217.162291" id="Fill-81" fill="#DADFE1"></path>
                            <path d="M70.4787969,217.162291 L25.6894727,217.162291 C23.6204441,217.162291 21.9430424,215.485302 21.9430424,213.415666 C21.9430424,211.346531 23.6204441,209.669042 25.6894727,209.669042 L70.4787969,209.669042 C72.5478255,209.669042 74.2252273,211.346531 74.2252273,213.415666 C74.2252273,215.485302 72.5478255,217.162291 70.4787969,217.162291" id="Fill-83" fill="#DADFE1"></path>
                            <path d="M143.545178,243.70088 L25.6894727,243.70088 C23.6204441,243.70088 21.9430424,242.023391 21.9430424,239.954256 C21.9430424,237.88462 23.6204441,236.207631 25.6894727,236.207631 L143.545178,236.207631 C145.614207,236.207631 147.291609,237.88462 147.291609,239.954256 C147.291609,242.023391 145.614207,243.70088 143.545178,243.70088" id="Fill-85" fill="#DADFE1"></path>
                            <path d="M229.617967,243.70088 L161.465404,243.70088 C159.396375,243.70088 157.718973,242.023391 157.718973,239.954256 C157.718973,237.88462 159.396375,236.207631 161.465404,236.207631 L229.617967,236.207631 C231.686996,236.207631 233.364397,237.88462 233.364397,239.954256 C233.364397,242.023391 231.686996,243.70088 229.617967,243.70088" id="Fill-87" fill="#DADFE1"></path>
                            <path d="M315.690256,243.70088 L247.537693,243.70088 C245.469164,243.70088 243.791263,242.023391 243.791263,239.954256 C243.791263,237.88462 245.469164,236.207631 247.537693,236.207631 L315.690256,236.207631 C317.759285,236.207631 319.436687,237.88462 319.436687,239.954256 C319.436687,242.023391 317.759285,243.70088 315.690256,243.70088" id="Fill-89" fill="#DADFE1"></path>
                            <path d="M378.400006,243.70088 L333.610681,243.70088 C331.541153,243.70088 329.864251,242.023391 329.864251,239.954256 C329.864251,237.88462 331.541153,236.207631 333.610681,236.207631 L378.400006,236.207631 C380.469034,236.207631 382.146436,237.88462 382.146436,239.954256 C382.146436,242.023391 380.469034,243.70088 378.400006,243.70088" id="Fill-91" fill="#DADFE1"></path>
                            <rect id="Rectangle" fill="#FFFFFF" x="152" y="255" width="33" height="15"></rect>
                            <path d="M211.988764,307.112997 C211.988764,301.124392 207.13439,296.269766 201.146095,296.269766 C195.157801,296.269766 190.303426,301.124392 190.303426,307.112997 C190.303426,311.597956 193.025833,315.445989 196.908133,317.096002 L196.908133,327.515115 C196.908133,329.846514 198.814817,331.753296 201.146095,331.753296 C203.476875,331.753296 205.384057,329.846514 205.384057,327.515115 L205.384057,317.096002 C209.266358,315.445989 211.988764,311.597956 211.988764,307.112997" id="Fill-106" fill="#FEFEFE"></path>
                            <path d="M374.634094,133.092986 L317.230788,133.092986 C313.93393,133.092986 311.2365,130.395416 311.2365,127.098387 L311.2365,53.9572855 C311.2365,50.660256 313.93393,47.9626865 317.230788,47.9626865 L374.634094,47.9626865 C377.930953,47.9626865 380.628382,50.660256 380.628382,53.9572855 L380.628382,127.098387 C380.628382,130.395416 377.930953,133.092986 374.634094,133.092986" id="Fill-108" fill="#427FE0"></path>
                            <path d="M342.310392,78.0290972 C336.048858,78.0290972 330.954712,83.1235072 330.954712,89.3858649 C330.954712,95.6482227 336.048858,100.742633 342.310392,100.742633 C348.571926,100.742633 353.666572,95.6482227 353.666572,89.3858649 C353.666572,83.1235072 348.571926,78.0290972 342.310392,78.0290972 M342.310392,104.739032 C333.845458,104.739032 326.95852,97.8517373 326.95852,89.3858649 C326.95852,80.9199925 333.845458,74.0326979 342.310392,74.0326979 C350.775826,74.0326979 357.662764,80.9199925 357.662764,89.3858649 C357.662764,97.8517373 350.775826,104.739032 342.310392,104.739032" id="Fill-110" fill="#FEFEFE"></path>
                            <path d="M349.87983,91.0093522 C349.328355,91.0093522 348.880782,90.5617555 348.880782,90.0102524 C348.880782,86.318079 345.877144,83.3147849 342.185661,83.3147849 C341.633687,83.3147849 341.186613,82.8671882 341.186613,82.315685 C341.186613,81.7636824 341.633687,81.3165852 342.185661,81.3165852 C346.979094,81.3165852 350.878878,85.2165714 350.878878,90.0102524 C350.878878,90.5617555 350.431305,91.0093522 349.87983,91.0093522" id="Fill-112" fill="#FEFEFE"></path>
                            <path d="M366.431909,109.937348 C366.003317,109.937348 365.571229,109.799972 365.207076,109.516228 L353.074136,100.07923 C352.202966,99.4018407 352.045616,98.1464718 352.723471,97.2752567 C353.400825,96.4040417 354.656129,96.2476826 355.527299,96.9250723 L367.660239,106.36207 C368.531409,107.039459 368.688259,108.294828 368.010405,109.166043 C367.61678,109.672587 367.027342,109.937348 366.431909,109.937348" id="Fill-114" fill="#FEFEFE"></path>
                        </g>
                    </g>
                </g>
                <g id="Copy" transform="translate(52.000000, 65.000000)" fill="#FFFFFF" fill-rule="nonzero">
                    <path d="M0,45.6979681 L0,0 L7.62303665,0 L7.62303665,17.5595826 C8.85754268,16.3909881 10.215479,15.447926 11.6968862,14.7303679 C13.1782934,14.0128099 14.9168634,13.6540362 16.9126481,13.6540362 C18.6409566,13.6540362 20.1737786,13.9461805 21.5111601,14.5304778 C22.8485416,15.114775 23.9647241,15.9348291 24.859741,16.9906645 C25.7547579,18.0464999 26.433726,19.307333 26.8966657,20.7732015 C27.3596055,22.2390701 27.5910719,23.8535515 27.5910719,25.6166941 L27.5910719,45.6979681 L19.9680353,45.6979681 L19.9680353,25.6166941 C19.9680353,23.6895382 19.5205335,22.198065 18.6255167,21.1422295 C17.7304998,20.0863941 16.3879946,19.5584843 14.5979609,19.5584843 C13.2811544,19.5584843 12.0466669,19.8557539 10.8944613,20.450302 C9.74225565,21.0448501 8.65179168,21.8546535 7.62303665,22.8797364 L7.62303665,45.6979681 L0,45.6979681 Z M45.4913199,46.1900055 C42.7548315,46.1900055 40.6459154,45.4160795 39.1645081,43.8682043 C37.6831009,42.3203291 36.9424084,40.1830632 36.9424084,37.4563427 L36.9424084,19.8352554 L33.7327087,19.8352554 C33.3212067,19.8352554 32.9662916,19.7019966 32.6679526,19.435475 C32.3696136,19.1689535 32.2204464,18.7691771 32.2204464,18.236134 L32.2204464,15.2224053 L37.3127583,14.3920923 L38.9176082,5.78143877 C38.9999086,5.3714056 39.1902254,5.05363466 39.4885643,4.82811642 C39.7869033,4.60259818 40.1623933,4.48984075 40.6150455,4.48984075 L44.565445,4.48984075 L44.565445,14.4228446 L52.8983191,14.4228446 L52.8983191,19.8352554 L44.565445,19.8352554 L44.565445,36.933553 C44.565445,37.9176326 44.8123425,38.6864333 45.3061449,39.239978 C45.7999474,39.7935228 46.4583407,40.070291 47.2813447,40.070291 C47.754572,40.070291 48.1506368,40.0139123 48.4695508,39.9011532 C48.7884649,39.7883941 49.0662246,39.6705113 49.3028382,39.5475014 C49.5394519,39.4244914 49.7503435,39.3066087 49.9355194,39.1938495 C50.1206953,39.0810904 50.3058685,39.0247117 50.4910444,39.0247117 C50.7173705,39.0247117 50.9025436,39.0810904 51.0465693,39.1938495 C51.190595,39.3066087 51.3449059,39.4757448 51.5095068,39.701263 L53.7933315,43.3915431 C52.6822761,44.3141177 51.406639,45.0111637 49.9663819,45.4827018 C48.5261249,45.95424 47.0344525,46.1900055 45.4913199,46.1900055 Z M69.3788923,46.1900055 C66.6424039,46.1900055 64.5334877,45.4160795 63.0520805,43.8682043 C61.5706732,42.3203291 60.8299807,40.1830632 60.8299807,37.4563427 L60.8299807,19.8352554 L57.6202811,19.8352554 C57.2087791,19.8352554 56.8538639,19.7019966 56.5555249,19.435475 C56.257186,19.1689535 56.1080187,18.7691771 56.1080187,18.236134 L56.1080187,15.2224053 L61.2003307,14.3920923 L62.8051805,5.78143877 C62.8874809,5.3714056 63.0777977,5.05363466 63.3761367,4.82811642 C63.6744756,4.60259818 64.0499656,4.48984075 64.5026178,4.48984075 L68.4530174,4.48984075 L68.4530174,14.4228446 L76.7858914,14.4228446 L76.7858914,19.8352554 L68.4530174,19.8352554 L68.4530174,36.933553 C68.4530174,37.9176326 68.6999149,38.6864333 69.1937173,39.239978 C69.6875197,39.7935228 70.345913,40.070291 71.1689171,40.070291 C71.6421444,40.070291 72.0382091,40.0139123 72.3571232,39.9011532 C72.6760372,39.7883941 72.9537969,39.6705113 73.1904106,39.5475014 C73.4270242,39.4244914 73.6379159,39.3066087 73.8230918,39.1938495 C74.0082677,39.0810904 74.1934408,39.0247117 74.3786167,39.0247117 C74.6049428,39.0247117 74.7901159,39.0810904 74.9341416,39.1938495 C75.0781673,39.3066087 75.2324783,39.4757448 75.3970791,39.701263 L77.6809038,43.3915431 C76.5698484,44.3141177 75.2942113,45.0111637 73.8539543,45.4827018 C72.4136972,45.95424 70.9220248,46.1900055 69.3788923,46.1900055 Z M100.303114,13.5617792 C102.031422,13.5617792 103.610538,13.9205529 105.040507,14.6381109 C106.470477,15.355669 107.704964,16.3961125 108.744007,17.7594728 C109.783049,19.1228331 110.585466,20.8039439 111.151281,22.8028556 C111.717097,24.8017673 112,27.0927932 112,29.6760022 C112,32.0336929 111.681091,34.2170868 111.043263,36.2262493 C110.405434,38.2354118 109.495,39.9780267 108.311932,41.4541461 C107.128863,42.9302655 105.698915,44.0834665 104.022045,44.9137836 C102.345174,45.7441008 100.467724,46.1592532 98.389639,46.1592532 C96.5996053,46.1592532 95.0822144,45.8876103 93.8374208,45.3443163 C92.5926272,44.8010224 91.4764447,44.0475977 90.4888399,43.0840198 L90.4888399,56 L82.8658033,56 L82.8658033,14.1460736 L87.5260402,14.1460736 C88.0198426,14.1460736 88.4416259,14.258831 88.7914026,14.4843493 C89.1411793,14.7098675 89.367502,15.0583905 89.4703775,15.5299286 L90.0876274,18.4514003 C91.3632837,16.9957826 92.8292376,15.8169549 94.4855332,14.9148819 C96.1418288,14.012809 98.0810029,13.5617792 100.303114,13.5617792 Z M97.6798016,19.5584843 C96.0955189,19.5584843 94.7427263,19.8916313 93.6213833,20.5579352 C92.5000403,21.2242391 91.4558696,22.1621759 90.4888399,23.3717738 L90.4888399,23.3717738 L90.4888399,37.5178473 C91.3529941,38.5839336 92.2942909,39.3271075 93.3127583,39.7473915 C94.3312258,40.1676755 95.4268335,40.3778144 96.5996142,40.3778144 C97.7518199,40.3778144 98.7959905,40.1625502 99.7321576,39.7320154 C100.668325,39.3014805 101.460454,38.6454373 102.10857,37.763866 C102.756686,36.8822947 103.255624,35.7700964 103.605401,34.4272378 C103.955178,33.0843792 104.130063,31.5006498 104.130063,29.6760022 C104.130063,27.8308529 103.980896,26.2676249 103.682557,24.9862713 C103.384218,23.7049176 102.957291,22.6644741 102.401764,21.8649094 C101.846236,21.0653447 101.172411,20.4810562 100.38027,20.1120264 C99.5881287,19.7429965 98.6879815,19.5584843 97.6798016,19.5584843 Z" id="http"></path>
                    <path d="M135.900783,19.7372401 C135.691905,20.069945 135.472586,20.3038746 135.24282,20.4390359 C135.013054,20.5741973 134.720628,20.6417769 134.365535,20.6417769 C133.989554,20.6417769 133.58747,20.5378082 133.159269,20.3298677 L132.466058,19.9984642 C132.218017,19.8814985 131.953004,19.7580347 131.671018,19.6280718 C131.107047,19.3681461 130.464756,19.1342165 129.744125,18.926276 C129.023495,18.7183354 128.172329,18.6143667 127.190601,18.6143667 C125.665789,18.6143667 124.464756,18.9366697 123.587467,19.5812854 C122.710178,20.2259011 122.27154,21.0680477 122.27154,22.1077505 C122.27154,22.7939543 122.496081,23.3709806 122.94517,23.8388469 C123.394258,24.3067131 123.989552,24.7173895 124.73107,25.0708885 C125.324285,25.3536876 125.98099,25.6131944 126.7012,25.8494136 L127.253264,26.0222117 C128.193216,26.3029315 129.154042,26.6096392 130.13577,26.942344 C131.117498,27.2750489 132.078324,27.6545347 133.018277,28.0808129 C133.958229,28.507091 134.798952,29.0477283 135.54047,29.702741 C136.281988,30.3577537 136.877282,31.1427175 137.326371,32.057656 C137.775459,32.9725944 138,34.0746627 138,35.3638941 C138,36.9026542 137.718018,38.3218272 137.154047,39.6214556 C136.590076,40.921084 135.765018,42.0439461 134.678851,42.9900756 C133.592684,43.9362051 132.250661,44.674383 130.652742,45.2046314 C129.054822,45.7348798 127.221942,46 125.154047,46 C124.046992,46 122.966063,45.9012297 121.911227,45.7036862 C120.856392,45.5061427 119.843347,45.2306256 118.872063,44.8771267 C117.900778,44.5236277 117.002615,44.1077529 116.177546,43.6294896 C115.352476,43.1512263 114.626635,42.6313828 114,42.0699433 L115.785901,39.1379962 C116.015667,38.7844973 116.287205,38.5141786 116.600522,38.3270321 C116.91384,38.1398856 117.310703,38.0463138 117.791123,38.0463138 C118.271543,38.0463138 118.725846,38.1814731 119.154047,38.4517958 C119.582248,38.7221186 120.078326,39.013231 120.642298,39.3251418 C121.206269,39.6370526 121.869448,39.928165 122.631854,40.1984877 C123.39426,40.4688104 124.360307,40.6039698 125.530026,40.6039698 C126.449091,40.6039698 127.237595,40.4948026 127.895561,40.276465 C128.553528,40.0581275 129.096604,39.7722135 129.524804,39.4187146 C129.953005,39.0652156 130.266318,38.6545392 130.464752,38.186673 C130.663186,37.7188067 130.762402,37.2353522 130.762402,36.7362949 C130.762402,35.9877089 130.537861,35.3742935 130.088773,34.8960302 C129.639684,34.417767 129.04439,34.0018921 128.302872,33.6483932 C127.561354,33.2948943 126.715409,32.9777897 125.765013,32.6970699 C124.814617,32.4163502 123.843347,32.1096425 122.851175,31.7769376 C121.859003,31.4442327 120.887733,31.0543501 119.937337,30.6072779 C118.98694,30.1602057 118.140996,29.5935762 117.399478,28.9073724 C116.65796,28.2211686 116.062665,27.379022 115.613577,26.3809074 C115.164489,25.3827927 114.939948,24.1767557 114.939948,22.7627599 C114.939948,21.4527345 115.201042,20.2051099 115.723238,19.0198488 C116.245433,17.8345876 117.01305,16.8000989 118.02611,15.9163516 C119.03917,15.0326043 120.302864,14.325617 121.817232,13.7953686 C123.3316,13.2651202 125.08093,13 127.065274,13 C129.279384,13 131.29503,13.3638905 133.112272,14.0916824 C134.929513,14.8194743 136.443858,15.7759865 137.655352,16.9612476 L135.900783,19.7372401 Z" id="s"></path>
                    <path d="M144,41.8406072 C144,41.2000811 144.117621,40.5905574 144.352867,40.0120177 C144.588113,39.433478 144.915407,38.9375943 145.334759,38.5243517 C145.75411,38.111109 146.250165,37.7805199 146.822938,37.5325743 C147.39571,37.2846287 148.009386,37.1606578 148.663984,37.1606578 C149.298125,37.1606578 149.901573,37.2846287 150.474346,37.5325743 C151.047119,37.7805199 151.53806,38.111109 151.947183,38.5243517 C152.356307,38.9375943 152.6836,39.433478 152.929074,40.0120177 C153.174549,40.5905574 153.297284,41.2000811 153.297284,41.8406072 C153.297284,42.5017954 153.174549,43.1164846 152.929074,43.6846932 C152.6836,44.2529019 152.356307,44.7436201 151.947183,45.1568627 C151.53806,45.5701054 151.047119,45.8955291 150.474346,46.1331436 C149.901573,46.3707581 149.298125,46.4895636 148.663984,46.4895636 C148.009386,46.4895636 147.39571,46.3707581 146.822938,46.1331436 C146.250165,45.8955291 145.75411,45.5701054 145.334759,45.1568627 C144.915407,44.7436201 144.588113,44.2529019 144.352867,43.6846932 C144.117621,43.1164846 144,42.5017954 144,41.8406072 Z M144,19.742568 C144,19.1020419 144.117621,18.4925182 144.352867,17.9139785 C144.588113,17.3354388 144.915407,16.8395551 145.334759,16.4263125 C145.75411,16.0130698 146.250165,15.6824807 146.822938,15.4345351 C147.39571,15.1865895 148.009386,15.0626186 148.663984,15.0626186 C149.298125,15.0626186 149.901573,15.1865895 150.474346,15.4345351 C151.047119,15.6824807 151.53806,16.0130698 151.947183,16.4263125 C152.356307,16.8395551 152.6836,17.3354388 152.929074,17.9139785 C153.174549,18.4925182 153.297284,19.1020419 153.297284,19.742568 C153.297284,20.4037562 153.174549,21.0184454 152.929074,21.586654 C152.6836,22.1548626 152.356307,22.6455809 151.947183,23.0588235 C151.53806,23.4720662 151.047119,23.7974899 150.474346,24.0351044 C149.901573,24.2727189 149.298125,24.3915244 148.663984,24.3915244 C148.009386,24.3915244 147.39571,24.2727189 146.822938,24.0351044 C146.250165,23.7974899 145.75411,23.4720662 145.334759,23.0588235 C144.915407,22.6455809 144.588113,22.1548626 144.352867,21.586654 C144.117621,21.0184454 144,20.4037562 144,19.742568 Z M163.484406,46.1486401 C163.300301,46.6238691 163.065058,47.0371056 162.778672,47.3883618 C162.492286,47.739618 162.164992,48.034049 161.796781,48.2716635 C161.42857,48.509278 161.039908,48.690069 160.630785,48.8140417 C160.221661,48.9380145 159.822772,49 159.434105,49 L156.242958,49 L174.162475,2.69639469 C174.51023,1.82858516 175.011398,1.16224141 175.665996,0.697343454 C176.320593,0.232445493 177.108144,0 178.028672,0 L181.250503,0 L163.484406,46.1486401 Z M187.233903,46.1486401 C187.049798,46.6238691 186.814555,47.0371056 186.528169,47.3883618 C186.241783,47.739618 185.914489,48.034049 185.546278,48.2716635 C185.178067,48.509278 184.789405,48.690069 184.380282,48.8140417 C183.971158,48.9380145 183.572269,49 183.183602,49 L179.992455,49 L197.911972,2.69639469 C198.259727,1.82858516 198.760895,1.16224141 199.415493,0.697343454 C200.07009,0.232445493 200.857641,0 201.778169,0 L205,0 L187.233903,46.1486401 Z" id="://"></path>
                </g>
                <g id="link" transform="translate(181.000000, 231.000000)" fill="#FF5254" fill-rule="nonzero">
                    <path d="M147.640273,12.3689642 C131.160584,-4.12298807 104.349756,-4.12298807 87.8697538,12.3689642 L63.3127988,36.9441936 C59.0275603,41.2326211 55.5553685,46.7039443 53.3174556,53.3838442 C53.2799015,53.3963715 53.2435992,53.4154758 53.2060451,53.4280031 C48.1162094,68.751153 51.9764604,85.4141037 63.3127988,96.7588782 C66.6998679,100.148468 70.6849864,102.939563 75.0012072,105 L76.5950668,103.404954 C82.1073864,97.8885326 82.1073864,88.9831477 76.5950668,83.4664129 C67.4302957,74.2948217 67.4302957,59.4073106 76.5950668,50.2360326 L101.152022,25.6608032 C110.316793,16.4892119 125.192921,16.4892119 134.357692,25.6608032 C143.522463,34.8323944 143.522463,49.7195923 134.357692,58.8911835 L115.711443,77.5513081 C118.197839,85.2446712 118.724536,93.3915246 117.521239,101.321028 C119.485007,99.9511619 121.374605,98.4685493 123.083005,96.7588782 L147.63996,72.1836488 C164.119961,55.6916965 164.119961,28.8606033 147.640273,12.3689642 Z" id="Path"></path>
                    <path d="M96.6940952,63.1752747 C93.3089226,59.7855878 89.326661,56.9940993 84.9462357,55 L83.4192642,56.5290078 C77.9103438,62.0452746 77.910031,70.9512284 83.4192642,76.4681216 C92.5789039,85.6399762 92.5789039,100.527915 83.4192642,109.699456 C75.6661773,117.462882 66.2072112,126.936028 58.8150676,134.338029 C49.6554279,143.509884 34.7876297,143.509884 25.62799,134.338029 C16.4683503,125.166175 16.4683503,110.27855 25.62799,101.106695 L44.3247898,82.3833962 C41.8397859,74.6898122 41.313697,66.5424117 42.51632,58.6126803 C40.553339,59.9832125 38.6647986,61.4655546 36.9570427,63.1752747 L12.3528462,87.8138482 C-4.11761538,104.306274 -4.11761538,131.137824 12.3528462,147.630563 C28.8233077,164.123302 55.6191244,164.122989 72.0898987,147.630563 L96.6940952,122.99199 C100.976934,118.703126 104.447182,113.231959 106.683842,106.551867 C106.721375,106.539339 106.757657,106.520235 106.79519,106.507707 C111.882176,91.183804 108.024086,74.5203749 96.6940952,63.1752747 Z" id="Path"></path>
                    <path d="M136.626664,129 L130.000117,122.37355 C128.168691,120.54215 125.204684,120.54215 123.37357,122.37355 C121.542143,124.204949 121.542143,127.168913 123.37357,129 L130.000117,135.62645 C131.831544,137.45785 134.79555,137.45785 136.626664,135.62645 C138.457779,133.795051 138.457779,130.8314 136.626664,129 Z" id="Path"></path>
                    <path d="M36.6264771,30 L29.9998439,23.3735497 C28.16848,21.5421501 25.2045745,21.5421501 23.3735229,23.3735497 C21.542159,25.2049493 21.542159,28.1689127 23.3735229,30 L29.9998439,36.6264503 C31.8312077,38.4578499 34.7951132,38.4578499 36.6264771,36.6264503 C38.457841,34.7950507 38.457841,31.8310873 36.6264771,30 Z" id="Path"></path>
                    <path d="M153.608171,94.6312049 L144.763734,92.1636233 C142.32025,91.4825936 139.810569,92.9894313 139.156227,95.5325771 C138.501581,98.0912802 139.966146,100.692845 142.393158,101.369113 L151.237595,103.836377 C153.681079,104.517406 156.19076,103.010569 156.845101,100.467423 C157.492731,97.9242771 156.05135,95.2992173 153.608171,94.6312049 Z" id="Path"></path>
                    <path d="M17.6077544,58.6312049 L8.76364475,56.1636233 C6.32025088,55.4825936 3.81066269,56.9894313 3.15634561,59.5325771 C2.50141843,62.0906452 3.96592954,64.6925278 6.39315614,65.3687951 L15.2372658,67.8363767 C17.6806597,68.5174064 20.1902479,67.0105687 20.844565,64.4674229 C21.4955266,61.9211022 20.041692,59.2954073 17.6077544,58.6312049 Z" id="Path"></path>
                    <path d="M103.83635,151.237194 L101.369025,142.394213 C100.684804,139.941676 98.0758723,138.503582 95.5326639,139.157815 C92.9894556,139.812049 91.4825809,142.321317 92.1636273,144.764399 L94.6312696,153.607381 C95.3075535,156.034298 97.9095001,157.498317 100.467631,156.843778 C103.010839,156.189545 104.517397,153.680277 103.83635,151.237194 Z" id="Path"></path>
                    <path d="M67.8363781,15.2367565 L65.3687961,6.39250658 C64.6909413,3.93961749 62.0757236,2.50772327 59.5325775,3.15564473 C56.9894314,3.80997219 55.4825935,6.31960016 56.1636233,8.76303277 L58.6312052,17.6072827 C58.8547227,18.4101684 59.2893752,19.1056773 59.8615037,19.6556784 C61.0260805,20.7745936 62.7631033,21.2803628 64.4671064,20.8441445 C67.01057,20.1901221 68.5174078,17.6801891 67.8363781,15.2367565 Z" id="Path"></path>
                </g>
            </g>
        </g>
    </g>
</svg>