<?xml version="1.0" encoding="UTF-8"?>
<svg width="297px" height="216px" viewBox="0 0 297 216" version="1.1" xmlns="http://www.w3.org/2000/svg" xmlns:xlink="http://www.w3.org/1999/xlink">
    <!-- Generator: Sketch 63.1 (92452) - https://sketch.com -->
    <title>img_too_many_options_mob</title>
    <desc>Created with Sketch.</desc>
    <defs>
        <rect id="path-1" x="0" y="0" width="121" height="41" rx="4"></rect>
        <filter x="-27.3%" y="-51.2%" width="154.5%" height="261.0%" filterUnits="objectBoundingBox" id="filter-2">
            <feOffset dx="0" dy="12" in="SourceAlpha" result="shadowOffsetOuter1"></feOffset>
            <feGaussianBlur stdDeviation="9" in="shadowOffsetOuter1" result="shadowBlurOuter1"></feGaussianBlur>
            <feColorMatrix values="0 0 0 0 0   0 0 0 0 0   0 0 0 0 0  0 0 0 0.25 0" type="matrix" in="shadowBlurOuter1"></feColorMatrix>
        </filter>
        <rect id="path-3" x="0" y="0" width="120" height="40" rx="4"></rect>
        <filter x="-27.5%" y="-52.5%" width="155.0%" height="265.0%" filterUnits="objectBoundingBox" id="filter-4">
            <feOffset dx="0" dy="12" in="SourceAlpha" result="shadowOffsetOuter1"></feOffset>
            <feGaussianBlur stdDeviation="9" in="shadowOffsetOuter1" result="shadowBlurOuter1"></feGaussianBlur>
            <feColorMatrix values="0 0 0 0 0   0 0 0 0 0   0 0 0 0 0  0 0 0 0.25 0" type="matrix" in="shadowBlurOuter1"></feColorMatrix>
        </filter>
        <rect id="path-5" x="0" y="0" width="120" height="41" rx="4"></rect>
        <filter x="-27.5%" y="-51.2%" width="155.0%" height="261.0%" filterUnits="objectBoundingBox" id="filter-6">
            <feOffset dx="0" dy="12" in="SourceAlpha" result="shadowOffsetOuter1"></feOffset>
            <feGaussianBlur stdDeviation="9" in="shadowOffsetOuter1" result="shadowBlurOuter1"></feGaussianBlur>
            <feColorMatrix values="0 0 0 0 0   0 0 0 0 0   0 0 0 0 0  0 0 0 0.25 0" type="matrix" in="shadowBlurOuter1"></feColorMatrix>
        </filter>
        <rect id="path-7" x="0" y="0" width="120" height="40" rx="4"></rect>
        <filter x="-27.5%" y="-52.5%" width="155.0%" height="265.0%" filterUnits="objectBoundingBox" id="filter-8">
            <feOffset dx="0" dy="12" in="SourceAlpha" result="shadowOffsetOuter1"></feOffset>
            <feGaussianBlur stdDeviation="9" in="shadowOffsetOuter1" result="shadowBlurOuter1"></feGaussianBlur>
            <feColorMatrix values="0 0 0 0 0   0 0 0 0 0   0 0 0 0 0  0 0 0 0.25 0" type="matrix" in="shadowBlurOuter1"></feColorMatrix>
        </filter>
        <rect id="path-9" x="0" y="0" width="120" height="40" rx="4"></rect>
        <filter x="-27.5%" y="-52.5%" width="155.0%" height="265.0%" filterUnits="objectBoundingBox" id="filter-10">
            <feOffset dx="0" dy="12" in="SourceAlpha" result="shadowOffsetOuter1"></feOffset>
            <feGaussianBlur stdDeviation="9" in="shadowOffsetOuter1" result="shadowBlurOuter1"></feGaussianBlur>
            <feColorMatrix values="0 0 0 0 0   0 0 0 0 0   0 0 0 0 0  0 0 0 0.25 0" type="matrix" in="shadowBlurOuter1"></feColorMatrix>
        </filter>
        <rect id="path-11" x="0" y="0" width="120" height="41" rx="4"></rect>
        <filter x="-27.5%" y="-51.2%" width="155.0%" height="261.0%" filterUnits="objectBoundingBox" id="filter-12">
            <feOffset dx="0" dy="12" in="SourceAlpha" result="shadowOffsetOuter1"></feOffset>
            <feGaussianBlur stdDeviation="9" in="shadowOffsetOuter1" result="shadowBlurOuter1"></feGaussianBlur>
            <feColorMatrix values="0 0 0 0 0   0 0 0 0 0   0 0 0 0 0  0 0 0 0.25 0" type="matrix" in="shadowBlurOuter1"></feColorMatrix>
        </filter>
        <rect id="path-13" x="51" y="62" width="120" height="39" rx="4"></rect>
        <filter x="-27.5%" y="-53.8%" width="155.0%" height="269.2%" filterUnits="objectBoundingBox" id="filter-14">
            <feOffset dx="0" dy="12" in="SourceAlpha" result="shadowOffsetOuter1"></feOffset>
            <feGaussianBlur stdDeviation="9" in="shadowOffsetOuter1" result="shadowBlurOuter1"></feGaussianBlur>
            <feColorMatrix values="0 0 0 0 0   0 0 0 0 0   0 0 0 0 0  0 0 0 0.25 0" type="matrix" in="shadowBlurOuter1"></feColorMatrix>
        </filter>
    </defs>
    <g id="Page-1" stroke="none" stroke-width="1" fill="none" fill-rule="evenodd">
        <g id="FAQs---Why-Isn't-My-Website-Converting---Mobile" transform="translate(-40.000000, -4375.000000)">
            <g id="img_too_many_options_mob" transform="translate(58.000000, 4381.000000)">
                <g id="btn---claim-your-copy-5" transform="translate(0.000000, 30.000000)">
                    <g id="btn---claim-your">
                        <g id="Rectangle-4">
                            <use fill="black" fill-opacity="1" filter="url(#filter-2)" xlink:href="#path-1"></use>
                            <use fill="#427FE0" fill-rule="evenodd" xlink:href="#path-1"></use>
                        </g>
                        <path d="M40.9471397,22.1892532 C40.978843,22.1892532 41.0105457,22.1952434 41.0422489,22.207224 C41.0739521,22.2192046 41.1043339,22.2398375 41.1333952,22.2691234 L41.6644214,22.8322078 C41.4319312,23.1383782 41.1406622,23.3693336 40.7906059,23.5250812 C40.4405496,23.6808287 40.0264325,23.7587013 39.5482424,23.7587013 C39.1096812,23.7587013 38.7166993,23.683491 38.3692849,23.5330682 C38.0218705,23.3826454 37.7272992,23.1749851 37.4855622,22.9100812 C37.2438252,22.6451772 37.0582321,22.3310245 36.9287773,21.9676136 C36.7993225,21.6042027 36.7345961,21.2095151 36.7345961,20.783539 C36.7345961,20.3495758 36.8085691,19.9508947 36.9565175,19.5874838 C37.1044658,19.2240729 37.3111941,18.9105857 37.5767085,18.647013 C37.8422229,18.3834402 38.1599108,18.1784423 38.5297817,18.032013 C38.8996525,17.8855837 39.3078253,17.8123701 39.7543122,17.8123701 C39.9709509,17.8123701 40.1750373,17.8316719 40.3665775,17.870276 C40.5581178,17.9088801 40.7371062,17.9621263 40.903548,18.0300162 C41.0699899,18.0979062 41.2232198,18.1791067 41.3632424,18.2736201 C41.5032649,18.3681336 41.627434,18.4726293 41.7357533,18.5871104 L41.2839847,19.1981169 C41.2549234,19.2353898 41.2205788,19.2693343 41.1809498,19.2999513 C41.1413208,19.3305683 41.085841,19.3458766 41.0145087,19.3458766 C40.9669539,19.3458766 40.9220417,19.3352274 40.8797707,19.3139286 C40.8374998,19.2926298 40.7925876,19.2666722 40.7450328,19.2360552 L40.5884989,19.1362175 L40.5884989,19.1362175 C40.5316973,19.1002758 40.464329,19.0669969 40.3863919,19.0363799 C40.3084549,19.0057628 40.2173095,18.9798053 40.1129531,18.9585065 C40.0085966,18.9372077 39.886409,18.9265584 39.7463865,18.9265584 C39.5033285,18.9265584 39.2814093,18.969821 39.0806223,19.0563474 C38.8798352,19.1428738 38.7074516,19.2666713 38.5634662,19.4277435 C38.4194807,19.5888157 38.3072002,19.78383 38.2266212,20.0127922 C38.1460422,20.2417544 38.1057533,20.4986674 38.1057533,20.783539 C38.1057533,21.0817223 38.1460422,21.3466222 38.2266212,21.5782468 C38.3072002,21.8098713 38.4168388,22.0048856 38.5555404,22.1632955 C38.694242,22.3217053 38.856058,22.4421749 39.0409934,22.5247078 C39.2259289,22.6072407 39.424071,22.6485065 39.6354258,22.6485065 C39.7569548,22.6485065 39.8679143,22.6425163 39.9683079,22.6305357 C40.0687014,22.6185551 40.1618282,22.5979222 40.247691,22.5686364 C40.3335539,22.5393505 40.4154527,22.5014126 40.4933897,22.4548214 C40.5713268,22.4082303 40.6499232,22.350325 40.7291812,22.2811039 C40.7608844,22.2544804 40.7952291,22.2325163 40.8322162,22.215211 C40.8692032,22.1979058 40.9075107,22.1892532 40.9471397,22.1892532 Z M47.8306659,17.8762662 L47.8306659,18.946526 L46.2058843,18.946526 L46.2058843,23.6948052 L44.8664301,23.6948052 L44.8664301,18.946526 L43.2416485,18.946526 L43.2416485,17.8762662 L47.8306659,17.8762662 Z M54.4883079,23.6948052 L53.4500328,23.6948052 C53.3337876,23.6948052 53.2380189,23.6675165 53.1627238,23.6129383 C53.0874287,23.5583601 53.0352512,23.4884745 53.00619,23.4032792 L52.6653821,22.3889286 L50.4699454,22.3889286 L50.1291376,23.4032792 C50.1027182,23.477825 50.0512013,23.5450484 49.9745852,23.6049513 C49.897969,23.6648542 49.8041818,23.6948052 49.6932205,23.6948052 L48.6470197,23.6948052 L50.8820852,17.8762662 L52.2532424,17.8762662 L54.4883079,23.6948052 Z M50.7790502,21.4704221 L52.3562773,21.4704221 L51.7043832,19.5195942 L51.7043832,19.5195942 C51.6581493,19.3824831 51.6125766,19.2340592 51.5676638,19.0743182 C51.5253928,19.2367216 51.4818015,19.3871422 51.4368886,19.5255844 L51.3715011,19.7192696 C51.3503658,19.779172 51.3298909,19.8344153 51.3100764,19.885 L50.7790502,21.4704221 Z M64.2528493,23.6948052 L62.9054694,23.6948052 L62.9054694,21.2348052 L60.5594432,21.2348052 L60.5594432,23.6948052 L59.2120633,23.6948052 L59.2120633,17.8762662 L60.5594432,17.8762662 L60.5594432,20.3083117 L62.9054694,20.3083117 L62.9054694,17.8762662 L64.2528493,17.8762662 L64.2528493,23.6948052 Z M70.2843559,17.8762662 L70.2843559,18.9145779 L67.9145524,18.9145779 L67.9145524,20.2723701 L69.7295524,20.2723701 L69.7295524,21.2707468 L67.9145524,21.2707468 L67.9145524,22.6564935 L70.2843559,22.6564935 L70.2843559,23.6948052 L66.5671725,23.6948052 L66.5671725,17.8762662 L70.2843559,17.8762662 Z M73.7479148,21.5423052 L73.7479148,23.6948052 L72.4084607,23.6948052 L72.4084607,17.8762662 L74.2868668,17.8762662 C74.7042925,17.8762662 75.0602878,17.9195288 75.3548635,18.0060552 C75.6494392,18.0925816 75.8898517,18.2130512 76.0761081,18.3674675 C76.2623645,18.5218839 76.3977616,18.7042522 76.4823035,18.9145779 C76.5668454,19.1249036 76.6091157,19.3538624 76.6091157,19.601461 C76.6091157,19.790488 76.5840177,19.9688628 76.533821,20.1365909 C76.4836242,20.304319 76.4089907,20.4593986 76.3099181,20.6018344 C76.2108456,20.7442702 76.0893184,20.8713955 75.945333,20.9832143 C75.8013475,21.095033 75.6355686,21.1868828 75.4479913,21.2587662 C75.537817,21.3040262 75.6216972,21.3599347 75.6996343,21.4264935 C75.7775714,21.4930523 75.8456001,21.5742528 75.9037227,21.6700974 L77.1322162,23.6948052 L75.9195742,23.6948052 C75.6950098,23.6948052 75.5338542,23.6096112 75.4361026,23.4392208 L74.4770852,21.7499675 C74.4348142,21.6754217 74.3852787,21.6221755 74.3284771,21.5902273 C74.2716755,21.5582791 74.1917582,21.5423052 74.0887227,21.5423052 L73.7479148,21.5423052 Z M73.7479148,20.6118182 L74.2868668,20.6118182 C74.4691603,20.6118182 74.6243716,20.588523 74.7525055,20.5419318 C74.8806393,20.4953407 74.9856546,20.4307796 75.0675546,20.3482468 C75.1494546,20.2657139 75.2088972,20.1692051 75.2458843,20.0587175 C75.2828714,19.94823 75.3013646,19.8290915 75.3013646,19.7012987 C75.3013646,19.445713 75.2188054,19.2460397 75.0536845,19.1022727 C74.8885636,18.9585058 74.6329602,18.8866234 74.2868668,18.8866234 L73.7479148,18.8866234 L73.7479148,20.6118182 Z M82.7595087,17.8762662 L82.7595087,18.9145779 L80.3897052,18.9145779 L80.3897052,20.2723701 L82.2047052,20.2723701 L82.2047052,21.2707468 L80.3897052,21.2707468 L80.3897052,22.6564935 L82.7595087,22.6564935 L82.7595087,23.6948052 L79.0423253,23.6948052 L79.0423253,17.8762662 L82.7595087,17.8762662 Z" id="CTAHERE" fill="#FFFFFF" fill-rule="nonzero"></path>
                    </g>
                </g>
                <g id="btn---claim-your-copy-5" transform="translate(75.000000, 0.000000)">
                    <g id="btn---claim-your">
                        <g id="Rectangle-4">
                            <use fill="black" fill-opacity="1" filter="url(#filter-4)" xlink:href="#path-3"></use>
                            <use fill="#427FE0" fill-rule="evenodd" xlink:href="#path-3"></use>
                        </g>
                        <path d="M40.4378855,21.6697368 C40.4696037,21.6697368 40.5013214,21.6756578 40.5330396,21.6875 C40.5647579,21.6993422 40.595154,21.7197367 40.6242291,21.7486842 L41.1555066,22.3052632 C40.9229063,22.6078962 40.6314995,22.8361834 40.2812775,22.9901316 C39.9310555,23.1440797 39.5167425,23.2210526 39.038326,23.2210526 C38.5995573,23.2210526 38.2063894,23.1467113 37.8588106,22.9980263 C37.5112317,22.8493414 37.216521,22.6440803 36.9746696,22.3822368 C36.7328182,22.1203934 36.5471372,21.8098702 36.4176211,21.4506579 C36.2881051,21.0914456 36.223348,20.7013179 36.223348,20.2802632 C36.223348,19.8513136 36.2973561,19.4572386 36.4453744,19.0980263 C36.5933928,18.738814 36.8002189,18.4289487 37.065859,18.1684211 C37.3314991,17.9078934 37.6493374,17.7052639 38.0193833,17.5605263 C38.3894292,17.4157887 38.7977951,17.3434211 39.2444934,17.3434211 C39.4612346,17.3434211 39.6654175,17.3624998 39.8570485,17.4006579 C40.0486794,17.438816 40.2277525,17.491447 40.3942731,17.5585526 C40.5607938,17.6256582 40.7140962,17.7059206 40.854185,17.7993421 C40.9942738,17.8927636 41.1185017,17.9960521 41.2268722,18.1092105 L40.7748899,18.7131579 C40.7458148,18.7500002 40.7114539,18.7835525 40.6718062,18.8138158 C40.6321584,18.8440791 40.5766523,18.8592105 40.5052863,18.8592105 C40.457709,18.8592105 40.4127755,18.8486843 40.3704846,18.8276316 C40.3281936,18.8065788 40.2832601,18.7809212 40.2356828,18.7506579 L40.0790749,18.6519737 L40.0790749,18.6519737 C40.0222464,18.6164472 39.9548462,18.5835528 39.8768722,18.5532895 C39.7988983,18.5230262 39.7077098,18.4973685 39.603304,18.4763158 C39.4988982,18.4552631 39.3766527,18.4447368 39.2365639,18.4447368 C38.9933909,18.4447368 38.7713666,18.4874996 38.5704846,18.5730263 C38.3696025,18.6585531 38.1971373,18.7809203 38.0530837,18.9401316 C37.9090301,19.0993429 37.7966964,19.2921041 37.7160793,19.5184211 C37.6354622,19.744738 37.5951542,19.9986828 37.5951542,20.2802632 C37.5951542,20.5750015 37.6354622,20.836841 37.7160793,21.0657895 C37.7966964,21.294738 37.906387,21.4874992 38.0451542,21.6440789 C38.1839214,21.8006587 38.3458141,21.9197364 38.530837,22.0013158 C38.71586,22.0828951 38.9140959,22.1236842 39.1255507,22.1236842 C39.2471372,22.1236842 39.3581493,22.1177632 39.4585903,22.1059211 C39.5590313,22.0940789 39.6522022,22.0736844 39.7381057,22.0447368 C39.8240092,22.0157893 39.9059467,21.9782897 39.9839207,21.9322368 C40.0618947,21.886184 40.1405282,21.8289477 40.2198238,21.7605263 C40.251542,21.7342104 40.2859029,21.7125001 40.3229075,21.6953947 C40.3599121,21.6782894 40.3982377,21.6697368 40.4378855,21.6697368 Z M47.3246696,17.4065789 L47.3246696,18.4644737 L45.6991189,18.4644737 L45.6991189,23.1578947 L44.3590308,23.1578947 L44.3590308,18.4644737 L42.7334802,18.4644737 L42.7334802,17.4065789 L47.3246696,17.4065789 Z M53.9854626,23.1578947 L52.946696,23.1578947 C52.8303959,23.1578947 52.7345819,23.1309213 52.6592511,23.0769737 C52.5839203,23.023026 52.5317182,22.9539478 52.5026432,22.8697368 L52.161674,21.8671053 L49.9651982,21.8671053 L49.6242291,22.8697368 C49.5977972,22.9434214 49.5462559,23.0098681 49.4696035,23.0690789 C49.3929512,23.1282898 49.2991195,23.1578947 49.1881057,23.1578947 L48.1414097,23.1578947 L50.377533,17.4065789 L51.7493392,17.4065789 L53.9854626,23.1578947 Z M50.2744493,20.9592105 L51.8524229,20.9592105 L51.2002203,19.0309211 L51.2002203,19.0309211 C51.1539645,18.8953941 51.1083703,18.748685 51.0634361,18.5907895 C51.0211452,18.7513166 50.9775333,18.8999993 50.9325991,19.0368421 L50.8671806,19.2282895 C50.8460353,19.2874999 50.8255508,19.342105 50.8057269,19.3921053 L50.2744493,20.9592105 Z M63.7546256,23.1578947 L62.4066079,23.1578947 L62.4066079,20.7263158 L60.0594714,20.7263158 L60.0594714,23.1578947 L58.7114537,23.1578947 L58.7114537,17.4065789 L60.0594714,17.4065789 L60.0594714,19.8105263 L62.4066079,19.8105263 L62.4066079,17.4065789 L63.7546256,17.4065789 L63.7546256,23.1578947 Z M69.7889868,17.4065789 L69.7889868,18.4328947 L67.4180617,18.4328947 L67.4180617,19.775 L69.2339207,19.775 L69.2339207,20.7618421 L67.4180617,20.7618421 L67.4180617,22.1315789 L69.7889868,22.1315789 L69.7889868,23.1578947 L66.0700441,23.1578947 L66.0700441,17.4065789 L69.7889868,17.4065789 Z M73.254185,21.0302632 L73.254185,23.1578947 L71.9140969,23.1578947 L71.9140969,17.4065789 L73.7933921,17.4065789 C74.2110153,17.4065789 74.5671791,17.4493417 74.8618943,17.5348684 C75.1566094,17.6203952 75.3971356,17.7394729 75.5834802,17.8921053 C75.7698247,18.0447376 75.9052859,18.224999 75.9898678,18.4328947 C76.0744498,18.6407905 76.1167401,18.867104 76.1167401,19.1118421 C76.1167401,19.2986851 76.0916302,19.4749992 76.0414097,19.6407895 C75.9911892,19.8065798 75.9165203,19.9598677 75.8174009,20.1006579 C75.7182814,20.2414481 75.5966968,20.3671047 75.4526432,20.4776316 C75.3085896,20.5881584 75.1427322,20.678947 74.9550661,20.75 C75.0449344,20.7947371 75.1288542,20.8499997 75.2068282,20.9157895 C75.2848022,20.9815793 75.3528631,21.0618416 75.4110132,21.1565789 L76.6400881,23.1578947 L75.4268722,23.1578947 C75.2022015,23.1578947 75.0409697,23.0736851 74.9431718,22.9052632 L73.9837004,21.2355263 C73.9414095,21.1618417 73.8918505,21.1092107 73.835022,21.0776316 C73.7781935,21.0460525 73.6982384,21.0302632 73.5951542,21.0302632 L73.254185,21.0302632 Z M73.254185,20.1105263 L73.7933921,20.1105263 C73.9757718,20.1105263 74.1310566,20.0875002 74.2592511,20.0414474 C74.3874456,19.9953945 74.4925106,19.9315794 74.5744493,19.85 C74.6563881,19.7684206 74.7158588,19.6730269 74.7528634,19.5638158 C74.789868,19.4546047 74.80837,19.3368427 74.80837,19.2105263 C74.80837,18.9578935 74.7257718,18.760527 74.5605727,18.6184211 C74.3953736,18.4763151 74.1396493,18.4052632 73.7933921,18.4052632 L73.254185,18.4052632 L73.254185,20.1105263 Z M82.2700441,17.4065789 L82.2700441,18.4328947 L79.8991189,18.4328947 L79.8991189,19.775 L81.714978,19.775 L81.714978,20.7618421 L79.8991189,20.7618421 L79.8991189,22.1315789 L82.2700441,22.1315789 L82.2700441,23.1578947 L78.5511013,23.1578947 L78.5511013,17.4065789 L82.2700441,17.4065789 Z" id="CTAHERE" fill="#FFFFFF" fill-rule="nonzero"></path>
                    </g>
                </g>
                <g id="btn---claim-your-copy-5" transform="translate(132.000000, 47.000000)">
                    <g id="btn---claim-your">
                        <g id="Rectangle-4">
                            <use fill="black" fill-opacity="1" filter="url(#filter-6)" xlink:href="#path-5"></use>
                            <use fill="#427FE0" fill-rule="evenodd" xlink:href="#path-5"></use>
                        </g>
                        <path d="M40.4378855,22.1892532 C40.4696037,22.1892532 40.5013214,22.1952434 40.5330396,22.207224 C40.5647579,22.2192046 40.595154,22.2398375 40.6242291,22.2691234 L41.1555066,22.8322078 C40.9229063,23.1383782 40.6314995,23.3693336 40.2812775,23.5250812 C39.9310555,23.6808287 39.5167425,23.7587013 39.038326,23.7587013 C38.5995573,23.7587013 38.2063894,23.683491 37.8588106,23.5330682 C37.5112317,23.3826454 37.216521,23.1749851 36.9746696,22.9100812 C36.7328182,22.6451772 36.5471372,22.3310245 36.4176211,21.9676136 C36.2881051,21.6042027 36.223348,21.2095151 36.223348,20.783539 C36.223348,20.3495758 36.2973561,19.9508947 36.4453744,19.5874838 C36.5933928,19.2240729 36.8002189,18.9105857 37.065859,18.647013 C37.3314991,18.3834402 37.6493374,18.1784423 38.0193833,18.032013 C38.3894292,17.8855837 38.7977951,17.8123701 39.2444934,17.8123701 C39.4612346,17.8123701 39.6654175,17.8316719 39.8570485,17.870276 C40.0486794,17.9088801 40.2277525,17.9621263 40.3942731,18.0300162 C40.5607938,18.0979062 40.7140962,18.1791067 40.854185,18.2736201 C40.9942738,18.3681336 41.1185017,18.4726293 41.2268722,18.5871104 L40.7748899,19.1981169 C40.7458148,19.2353898 40.7114539,19.2693343 40.6718062,19.2999513 C40.6321584,19.3305683 40.5766523,19.3458766 40.5052863,19.3458766 C40.457709,19.3458766 40.4127755,19.3352274 40.3704846,19.3139286 C40.3281936,19.2926298 40.2832601,19.2666722 40.2356828,19.2360552 L40.0790749,19.1362175 L40.0790749,19.1362175 C40.0222464,19.1002758 39.9548462,19.0669969 39.8768722,19.0363799 C39.7988983,19.0057628 39.7077098,18.9798053 39.603304,18.9585065 C39.4988982,18.9372077 39.3766527,18.9265584 39.2365639,18.9265584 C38.9933909,18.9265584 38.7713666,18.969821 38.5704846,19.0563474 C38.3696025,19.1428738 38.1971373,19.2666713 38.0530837,19.4277435 C37.9090301,19.5888157 37.7966964,19.78383 37.7160793,20.0127922 C37.6354622,20.2417544 37.5951542,20.4986674 37.5951542,20.783539 C37.5951542,21.0817223 37.6354622,21.3466222 37.7160793,21.5782468 C37.7966964,21.8098713 37.906387,22.0048856 38.0451542,22.1632955 C38.1839214,22.3217053 38.3458141,22.4421749 38.530837,22.5247078 C38.71586,22.6072407 38.9140959,22.6485065 39.1255507,22.6485065 C39.2471372,22.6485065 39.3581493,22.6425163 39.4585903,22.6305357 C39.5590313,22.6185551 39.6522022,22.5979222 39.7381057,22.5686364 C39.8240092,22.5393505 39.9059467,22.5014126 39.9839207,22.4548214 C40.0618947,22.4082303 40.1405282,22.350325 40.2198238,22.2811039 C40.251542,22.2544804 40.2859029,22.2325163 40.3229075,22.215211 C40.3599121,22.1979058 40.3982377,22.1892532 40.4378855,22.1892532 Z M47.3246696,17.8762662 L47.3246696,18.946526 L45.6991189,18.946526 L45.6991189,23.6948052 L44.3590308,23.6948052 L44.3590308,18.946526 L42.7334802,18.946526 L42.7334802,17.8762662 L47.3246696,17.8762662 Z M53.9854626,23.6948052 L52.946696,23.6948052 C52.8303959,23.6948052 52.7345819,23.6675165 52.6592511,23.6129383 C52.5839203,23.5583601 52.5317182,23.4884745 52.5026432,23.4032792 L52.161674,22.3889286 L49.9651982,22.3889286 L49.6242291,23.4032792 C49.5977972,23.477825 49.5462559,23.5450484 49.4696035,23.6049513 C49.3929512,23.6648542 49.2991195,23.6948052 49.1881057,23.6948052 L48.1414097,23.6948052 L50.377533,17.8762662 L51.7493392,17.8762662 L53.9854626,23.6948052 Z M50.2744493,21.4704221 L51.8524229,21.4704221 L51.2002203,19.5195942 L51.2002203,19.5195942 C51.1539645,19.3824831 51.1083703,19.2340592 51.0634361,19.0743182 C51.0211452,19.2367216 50.9775333,19.3871422 50.9325991,19.5255844 L50.8671806,19.7192696 C50.8460353,19.779172 50.8255508,19.8344153 50.8057269,19.885 L50.2744493,21.4704221 Z M63.7546256,23.6948052 L62.4066079,23.6948052 L62.4066079,21.2348052 L60.0594714,21.2348052 L60.0594714,23.6948052 L58.7114537,23.6948052 L58.7114537,17.8762662 L60.0594714,17.8762662 L60.0594714,20.3083117 L62.4066079,20.3083117 L62.4066079,17.8762662 L63.7546256,17.8762662 L63.7546256,23.6948052 Z M69.7889868,17.8762662 L69.7889868,18.9145779 L67.4180617,18.9145779 L67.4180617,20.2723701 L69.2339207,20.2723701 L69.2339207,21.2707468 L67.4180617,21.2707468 L67.4180617,22.6564935 L69.7889868,22.6564935 L69.7889868,23.6948052 L66.0700441,23.6948052 L66.0700441,17.8762662 L69.7889868,17.8762662 Z M73.254185,21.5423052 L73.254185,23.6948052 L71.9140969,23.6948052 L71.9140969,17.8762662 L73.7933921,17.8762662 C74.2110153,17.8762662 74.5671791,17.9195288 74.8618943,18.0060552 C75.1566094,18.0925816 75.3971356,18.2130512 75.5834802,18.3674675 C75.7698247,18.5218839 75.9052859,18.7042522 75.9898678,18.9145779 C76.0744498,19.1249036 76.1167401,19.3538624 76.1167401,19.601461 C76.1167401,19.790488 76.0916302,19.9688628 76.0414097,20.1365909 C75.9911892,20.304319 75.9165203,20.4593986 75.8174009,20.6018344 C75.7182814,20.7442702 75.5966968,20.8713955 75.4526432,20.9832143 C75.3085896,21.095033 75.1427322,21.1868828 74.9550661,21.2587662 C75.0449344,21.3040262 75.1288542,21.3599347 75.2068282,21.4264935 C75.2848022,21.4930523 75.3528631,21.5742528 75.4110132,21.6700974 L76.6400881,23.6948052 L75.4268722,23.6948052 C75.2022015,23.6948052 75.0409697,23.6096112 74.9431718,23.4392208 L73.9837004,21.7499675 C73.9414095,21.6754217 73.8918505,21.6221755 73.835022,21.5902273 C73.7781935,21.5582791 73.6982384,21.5423052 73.5951542,21.5423052 L73.254185,21.5423052 Z M73.254185,20.6118182 L73.7933921,20.6118182 C73.9757718,20.6118182 74.1310566,20.588523 74.2592511,20.5419318 C74.3874456,20.4953407 74.4925106,20.4307796 74.5744493,20.3482468 C74.6563881,20.2657139 74.7158588,20.1692051 74.7528634,20.0587175 C74.789868,19.94823 74.80837,19.8290915 74.80837,19.7012987 C74.80837,19.445713 74.7257718,19.2460397 74.5605727,19.1022727 C74.3953736,18.9585058 74.1396493,18.8866234 73.7933921,18.8866234 L73.254185,18.8866234 L73.254185,20.6118182 Z M82.2700441,17.8762662 L82.2700441,18.9145779 L79.8991189,18.9145779 L79.8991189,20.2723701 L81.714978,20.2723701 L81.714978,21.2707468 L79.8991189,21.2707468 L79.8991189,22.6564935 L82.2700441,22.6564935 L82.2700441,23.6948052 L78.5511013,23.6948052 L78.5511013,17.8762662 L82.2700441,17.8762662 Z" id="CTAHERE" fill="#FFFFFF" fill-rule="nonzero"></path>
                    </g>
                </g>
                <g id="btn---claim-your-copy-5" transform="translate(92.000000, 140.000000)">
                    <g id="btn---claim-your">
                        <g id="Rectangle-4">
                            <use fill="black" fill-opacity="1" filter="url(#filter-8)" xlink:href="#path-7"></use>
                            <use fill="#427FE0" fill-rule="evenodd" xlink:href="#path-7"></use>
                        </g>
                        <path d="M40.4378855,21.6697368 C40.4696037,21.6697368 40.5013214,21.6756578 40.5330396,21.6875 C40.5647579,21.6993422 40.595154,21.7197367 40.6242291,21.7486842 L41.1555066,22.3052632 C40.9229063,22.6078962 40.6314995,22.8361834 40.2812775,22.9901316 C39.9310555,23.1440797 39.5167425,23.2210526 39.038326,23.2210526 C38.5995573,23.2210526 38.2063894,23.1467113 37.8588106,22.9980263 C37.5112317,22.8493414 37.216521,22.6440803 36.9746696,22.3822368 C36.7328182,22.1203934 36.5471372,21.8098702 36.4176211,21.4506579 C36.2881051,21.0914456 36.223348,20.7013179 36.223348,20.2802632 C36.223348,19.8513136 36.2973561,19.4572386 36.4453744,19.0980263 C36.5933928,18.738814 36.8002189,18.4289487 37.065859,18.1684211 C37.3314991,17.9078934 37.6493374,17.7052639 38.0193833,17.5605263 C38.3894292,17.4157887 38.7977951,17.3434211 39.2444934,17.3434211 C39.4612346,17.3434211 39.6654175,17.3624998 39.8570485,17.4006579 C40.0486794,17.438816 40.2277525,17.491447 40.3942731,17.5585526 C40.5607938,17.6256582 40.7140962,17.7059206 40.854185,17.7993421 C40.9942738,17.8927636 41.1185017,17.9960521 41.2268722,18.1092105 L40.7748899,18.7131579 C40.7458148,18.7500002 40.7114539,18.7835525 40.6718062,18.8138158 C40.6321584,18.8440791 40.5766523,18.8592105 40.5052863,18.8592105 C40.457709,18.8592105 40.4127755,18.8486843 40.3704846,18.8276316 C40.3281936,18.8065788 40.2832601,18.7809212 40.2356828,18.7506579 L40.0790749,18.6519737 L40.0790749,18.6519737 C40.0222464,18.6164472 39.9548462,18.5835528 39.8768722,18.5532895 C39.7988983,18.5230262 39.7077098,18.4973685 39.603304,18.4763158 C39.4988982,18.4552631 39.3766527,18.4447368 39.2365639,18.4447368 C38.9933909,18.4447368 38.7713666,18.4874996 38.5704846,18.5730263 C38.3696025,18.6585531 38.1971373,18.7809203 38.0530837,18.9401316 C37.9090301,19.0993429 37.7966964,19.2921041 37.7160793,19.5184211 C37.6354622,19.744738 37.5951542,19.9986828 37.5951542,20.2802632 C37.5951542,20.5750015 37.6354622,20.836841 37.7160793,21.0657895 C37.7966964,21.294738 37.906387,21.4874992 38.0451542,21.6440789 C38.1839214,21.8006587 38.3458141,21.9197364 38.530837,22.0013158 C38.71586,22.0828951 38.9140959,22.1236842 39.1255507,22.1236842 C39.2471372,22.1236842 39.3581493,22.1177632 39.4585903,22.1059211 C39.5590313,22.0940789 39.6522022,22.0736844 39.7381057,22.0447368 C39.8240092,22.0157893 39.9059467,21.9782897 39.9839207,21.9322368 C40.0618947,21.886184 40.1405282,21.8289477 40.2198238,21.7605263 C40.251542,21.7342104 40.2859029,21.7125001 40.3229075,21.6953947 C40.3599121,21.6782894 40.3982377,21.6697368 40.4378855,21.6697368 Z M47.3246696,17.4065789 L47.3246696,18.4644737 L45.6991189,18.4644737 L45.6991189,23.1578947 L44.3590308,23.1578947 L44.3590308,18.4644737 L42.7334802,18.4644737 L42.7334802,17.4065789 L47.3246696,17.4065789 Z M53.9854626,23.1578947 L52.946696,23.1578947 C52.8303959,23.1578947 52.7345819,23.1309213 52.6592511,23.0769737 C52.5839203,23.023026 52.5317182,22.9539478 52.5026432,22.8697368 L52.161674,21.8671053 L49.9651982,21.8671053 L49.6242291,22.8697368 C49.5977972,22.9434214 49.5462559,23.0098681 49.4696035,23.0690789 C49.3929512,23.1282898 49.2991195,23.1578947 49.1881057,23.1578947 L48.1414097,23.1578947 L50.377533,17.4065789 L51.7493392,17.4065789 L53.9854626,23.1578947 Z M50.2744493,20.9592105 L51.8524229,20.9592105 L51.2002203,19.0309211 L51.2002203,19.0309211 C51.1539645,18.8953941 51.1083703,18.748685 51.0634361,18.5907895 C51.0211452,18.7513166 50.9775333,18.8999993 50.9325991,19.0368421 L50.8671806,19.2282895 C50.8460353,19.2874999 50.8255508,19.342105 50.8057269,19.3921053 L50.2744493,20.9592105 Z M63.7546256,23.1578947 L62.4066079,23.1578947 L62.4066079,20.7263158 L60.0594714,20.7263158 L60.0594714,23.1578947 L58.7114537,23.1578947 L58.7114537,17.4065789 L60.0594714,17.4065789 L60.0594714,19.8105263 L62.4066079,19.8105263 L62.4066079,17.4065789 L63.7546256,17.4065789 L63.7546256,23.1578947 Z M69.7889868,17.4065789 L69.7889868,18.4328947 L67.4180617,18.4328947 L67.4180617,19.775 L69.2339207,19.775 L69.2339207,20.7618421 L67.4180617,20.7618421 L67.4180617,22.1315789 L69.7889868,22.1315789 L69.7889868,23.1578947 L66.0700441,23.1578947 L66.0700441,17.4065789 L69.7889868,17.4065789 Z M73.254185,21.0302632 L73.254185,23.1578947 L71.9140969,23.1578947 L71.9140969,17.4065789 L73.7933921,17.4065789 C74.2110153,17.4065789 74.5671791,17.4493417 74.8618943,17.5348684 C75.1566094,17.6203952 75.3971356,17.7394729 75.5834802,17.8921053 C75.7698247,18.0447376 75.9052859,18.224999 75.9898678,18.4328947 C76.0744498,18.6407905 76.1167401,18.867104 76.1167401,19.1118421 C76.1167401,19.2986851 76.0916302,19.4749992 76.0414097,19.6407895 C75.9911892,19.8065798 75.9165203,19.9598677 75.8174009,20.1006579 C75.7182814,20.2414481 75.5966968,20.3671047 75.4526432,20.4776316 C75.3085896,20.5881584 75.1427322,20.678947 74.9550661,20.75 C75.0449344,20.7947371 75.1288542,20.8499997 75.2068282,20.9157895 C75.2848022,20.9815793 75.3528631,21.0618416 75.4110132,21.1565789 L76.6400881,23.1578947 L75.4268722,23.1578947 C75.2022015,23.1578947 75.0409697,23.0736851 74.9431718,22.9052632 L73.9837004,21.2355263 C73.9414095,21.1618417 73.8918505,21.1092107 73.835022,21.0776316 C73.7781935,21.0460525 73.6982384,21.0302632 73.5951542,21.0302632 L73.254185,21.0302632 Z M73.254185,20.1105263 L73.7933921,20.1105263 C73.9757718,20.1105263 74.1310566,20.0875002 74.2592511,20.0414474 C74.3874456,19.9953945 74.4925106,19.9315794 74.5744493,19.85 C74.6563881,19.7684206 74.7158588,19.6730269 74.7528634,19.5638158 C74.789868,19.4546047 74.80837,19.3368427 74.80837,19.2105263 C74.80837,18.9578935 74.7257718,18.760527 74.5605727,18.6184211 C74.3953736,18.4763151 74.1396493,18.4052632 73.7933921,18.4052632 L73.254185,18.4052632 L73.254185,20.1105263 Z M82.2700441,17.4065789 L82.2700441,18.4328947 L79.8991189,18.4328947 L79.8991189,19.775 L81.714978,19.775 L81.714978,20.7618421 L79.8991189,20.7618421 L79.8991189,22.1315789 L82.2700441,22.1315789 L82.2700441,23.1578947 L78.5511013,23.1578947 L78.5511013,17.4065789 L82.2700441,17.4065789 Z" id="CTAHERE" fill="#FFFFFF" fill-rule="nonzero"></path>
                    </g>
                </g>
                <g id="btn---claim-your-copy-5" transform="translate(8.000000, 97.000000)">
                    <g id="btn---claim-your">
                        <g id="Rectangle-4">
                            <use fill="black" fill-opacity="1" filter="url(#filter-10)" xlink:href="#path-9"></use>
                            <use fill="#427FE0" fill-rule="evenodd" xlink:href="#path-9"></use>
                        </g>
                        <path d="M40.5236842,21.6697368 C40.5552633,21.6697368 40.5868419,21.6756578 40.6184211,21.6875 C40.6500002,21.6993422 40.680263,21.7197367 40.7092105,21.7486842 L41.2381579,22.3052632 C41.0065778,22.6078962 40.7164491,22.8361834 40.3677632,22.9901316 C40.0190772,23.1440797 39.6065813,23.2210526 39.1302632,23.2210526 C38.6934189,23.2210526 38.3019754,23.1467113 37.9559211,22.9980263 C37.6098667,22.8493414 37.3164486,22.6440803 37.0756579,22.3822368 C36.8348672,22.1203934 36.6500006,21.8098702 36.5210526,21.4506579 C36.3921046,21.0914456 36.3276316,20.7013179 36.3276316,20.2802632 C36.3276316,19.8513136 36.4013151,19.4572386 36.5486842,19.0980263 C36.6960534,18.738814 36.9019724,18.4289487 37.1664474,18.1684211 C37.4309224,17.9078934 37.7473666,17.7052639 38.1157895,17.5605263 C38.4842124,17.4157887 38.8907873,17.3434211 39.3355263,17.3434211 C39.5513169,17.3434211 39.7546043,17.3624998 39.9453947,17.4006579 C40.1361852,17.438816 40.3144729,17.491447 40.4802632,17.5585526 C40.6460535,17.6256582 40.7986835,17.7059206 40.9381579,17.7993421 C41.0776323,17.8927636 41.2013153,17.9960521 41.3092105,18.1092105 L40.8592105,18.7131579 C40.830263,18.7500002 40.7960528,18.7835525 40.7565789,18.8138158 C40.7171051,18.8440791 40.6618425,18.8592105 40.5907895,18.8592105 C40.5434208,18.8592105 40.4986844,18.8486843 40.4565789,18.8276316 C40.4144735,18.8065788 40.3697371,18.7809212 40.3223684,18.7506579 L40.1664474,18.6519737 L40.1664474,18.6519737 C40.1098681,18.6164472 40.0427635,18.5835528 39.9651316,18.5532895 C39.8874996,18.5230262 39.796711,18.4973685 39.6927632,18.4763158 C39.5888153,18.4552631 39.467106,18.4447368 39.3276316,18.4447368 C39.0855251,18.4447368 38.8644747,18.4874996 38.6644737,18.5730263 C38.4644727,18.6585531 38.2927639,18.7809203 38.1493421,18.9401316 C38.0059203,19.0993429 37.8940793,19.2921041 37.8138158,19.5184211 C37.7335522,19.744738 37.6934211,19.9986828 37.6934211,20.2802632 C37.6934211,20.5750015 37.7335522,20.836841 37.8138158,21.0657895 C37.8940793,21.294738 38.0032888,21.4874992 38.1414474,21.6440789 C38.279606,21.8006587 38.4407886,21.9197364 38.625,22.0013158 C38.8092114,22.0828951 39.0065779,22.1236842 39.2171053,22.1236842 C39.3381585,22.1236842 39.4486837,22.1177632 39.5486842,22.1059211 C39.6486847,22.0940789 39.7414469,22.0736844 39.8269737,22.0447368 C39.9125004,22.0157893 39.9940786,21.9782897 40.0717105,21.9322368 C40.1493425,21.886184 40.2276312,21.8289477 40.3065789,21.7605263 C40.3381581,21.7342104 40.3723682,21.7125001 40.4092105,21.6953947 C40.4460528,21.6782894 40.4842103,21.6697368 40.5236842,21.6697368 Z M47.3802632,17.4065789 L47.3802632,18.4644737 L45.7618421,18.4644737 L45.7618421,23.1578947 L44.4276316,23.1578947 L44.4276316,18.4644737 L42.8092105,18.4644737 L42.8092105,17.4065789 L47.3802632,17.4065789 Z M54.0118421,23.1578947 L52.9776316,23.1578947 C52.8618415,23.1578947 52.7664477,23.1309213 52.6914474,23.0769737 C52.616447,23.023026 52.5644738,22.9539478 52.5355263,22.8697368 L52.1960526,21.8671053 L50.0092105,21.8671053 L49.6697368,22.8697368 C49.6434209,22.9434214 49.5921056,23.0098681 49.5157895,23.0690789 C49.4394733,23.1282898 49.3460532,23.1578947 49.2355263,23.1578947 L48.1934211,23.1578947 L50.4197368,17.4065789 L51.7855263,17.4065789 L54.0118421,23.1578947 Z M50.3171053,20.9592105 L51.8881579,20.9592105 L51.2388158,19.0309211 L51.2388158,19.0309211 C51.1927629,18.8953941 51.1473686,18.748685 51.1026316,18.5907895 C51.0605261,18.7513166 51.0171055,18.8999993 50.9723684,19.0368421 L50.9072368,19.2282895 C50.8861843,19.2874999 50.8657896,19.342105 50.8460526,19.3921053 L50.3171053,20.9592105 Z M63.7381579,23.1578947 L62.3960526,23.1578947 L62.3960526,20.7263158 L60.0592105,20.7263158 L60.0592105,23.1578947 L58.7171053,23.1578947 L58.7171053,17.4065789 L60.0592105,17.4065789 L60.0592105,19.8105263 L62.3960526,19.8105263 L62.3960526,17.4065789 L63.7381579,17.4065789 L63.7381579,23.1578947 Z M69.7460526,17.4065789 L69.7460526,18.4328947 L67.3855263,18.4328947 L67.3855263,19.775 L69.1934211,19.775 L69.1934211,20.7618421 L67.3855263,20.7618421 L67.3855263,22.1315789 L69.7460526,22.1315789 L69.7460526,23.1578947 L66.0434211,23.1578947 L66.0434211,17.4065789 L69.7460526,17.4065789 Z M73.1960526,21.0302632 L73.1960526,23.1578947 L71.8618421,23.1578947 L71.8618421,17.4065789 L73.7328947,17.4065789 C74.1486863,17.4065789 74.503288,17.4493417 74.7967105,17.5348684 C75.090133,17.6203952 75.3296043,17.7394729 75.5151316,17.8921053 C75.7006588,18.0447376 75.8355259,18.224999 75.9197368,18.4328947 C76.0039478,18.6407905 76.0460526,18.867104 76.0460526,19.1118421 C76.0460526,19.2986851 76.0210529,19.4749992 75.9710526,19.6407895 C75.9210524,19.8065798 75.846711,19.9598677 75.7480263,20.1006579 C75.6493416,20.2414481 75.5282902,20.3671047 75.3848684,20.4776316 C75.2414467,20.5881584 75.0763167,20.678947 74.8894737,20.75 C74.9789478,20.7947371 75.0624996,20.8499997 75.1401316,20.9157895 C75.2177635,20.9815793 75.285526,21.0618416 75.3434211,21.1565789 L76.5671053,23.1578947 L75.3592105,23.1578947 C75.1355252,23.1578947 74.9750005,23.0736851 74.8776316,22.9052632 L73.9223684,21.2355263 C73.8802629,21.1618417 73.8309213,21.1092107 73.7743421,21.0776316 C73.7177629,21.0460525 73.6381584,21.0302632 73.5355263,21.0302632 L73.1960526,21.0302632 Z M73.1960526,20.1105263 L73.7328947,20.1105263 C73.9144746,20.1105263 74.0690783,20.0875002 74.1967105,20.0414474 C74.3243427,19.9953945 74.428947,19.9315794 74.5105263,19.85 C74.5921057,19.7684206 74.6513156,19.6730269 74.6881579,19.5638158 C74.7250002,19.4546047 74.7434211,19.3368427 74.7434211,19.2105263 C74.7434211,18.9578935 74.661185,18.760527 74.4967105,18.6184211 C74.332236,18.4763151 74.0776333,18.4052632 73.7328947,18.4052632 L73.1960526,18.4052632 L73.1960526,20.1105263 Z M82.1723684,17.4065789 L82.1723684,18.4328947 L79.8118421,18.4328947 L79.8118421,19.775 L81.6197368,19.775 L81.6197368,20.7618421 L79.8118421,20.7618421 L79.8118421,22.1315789 L82.1723684,22.1315789 L82.1723684,23.1578947 L78.4697368,23.1578947 L78.4697368,17.4065789 L82.1723684,17.4065789 Z" id="CTAHERE" fill="#FFFFFF" fill-rule="nonzero"></path>
                    </g>
                </g>
                <g id="btn---claim-your-copy-5" transform="translate(51.000000, 62.000000)">
                    <g id="btn---claim-your"></g>
                </g>
                <g id="btn---claim-your-copy-5" transform="translate(141.000000, 92.000000)">
                    <g id="btn---claim-your">
                        <g id="Rectangle-4">
                            <use fill="black" fill-opacity="1" filter="url(#filter-12)" xlink:href="#path-11"></use>
                            <use fill="#427FE0" fill-rule="evenodd" xlink:href="#path-11"></use>
                        </g>
                        <path d="M40.4378855,22.1892532 C40.4696037,22.1892532 40.5013214,22.1952434 40.5330396,22.207224 C40.5647579,22.2192046 40.595154,22.2398375 40.6242291,22.2691234 L41.1555066,22.8322078 C40.9229063,23.1383782 40.6314995,23.3693336 40.2812775,23.5250812 C39.9310555,23.6808287 39.5167425,23.7587013 39.038326,23.7587013 C38.5995573,23.7587013 38.2063894,23.683491 37.8588106,23.5330682 C37.5112317,23.3826454 37.216521,23.1749851 36.9746696,22.9100812 C36.7328182,22.6451772 36.5471372,22.3310245 36.4176211,21.9676136 C36.2881051,21.6042027 36.223348,21.2095151 36.223348,20.783539 C36.223348,20.3495758 36.2973561,19.9508947 36.4453744,19.5874838 C36.5933928,19.2240729 36.8002189,18.9105857 37.065859,18.647013 C37.3314991,18.3834402 37.6493374,18.1784423 38.0193833,18.032013 C38.3894292,17.8855837 38.7977951,17.8123701 39.2444934,17.8123701 C39.4612346,17.8123701 39.6654175,17.8316719 39.8570485,17.870276 C40.0486794,17.9088801 40.2277525,17.9621263 40.3942731,18.0300162 C40.5607938,18.0979062 40.7140962,18.1791067 40.854185,18.2736201 C40.9942738,18.3681336 41.1185017,18.4726293 41.2268722,18.5871104 L40.7748899,19.1981169 C40.7458148,19.2353898 40.7114539,19.2693343 40.6718062,19.2999513 C40.6321584,19.3305683 40.5766523,19.3458766 40.5052863,19.3458766 C40.457709,19.3458766 40.4127755,19.3352274 40.3704846,19.3139286 C40.3281936,19.2926298 40.2832601,19.2666722 40.2356828,19.2360552 L40.0790749,19.1362175 L40.0790749,19.1362175 C40.0222464,19.1002758 39.9548462,19.0669969 39.8768722,19.0363799 C39.7988983,19.0057628 39.7077098,18.9798053 39.603304,18.9585065 C39.4988982,18.9372077 39.3766527,18.9265584 39.2365639,18.9265584 C38.9933909,18.9265584 38.7713666,18.969821 38.5704846,19.0563474 C38.3696025,19.1428738 38.1971373,19.2666713 38.0530837,19.4277435 C37.9090301,19.5888157 37.7966964,19.78383 37.7160793,20.0127922 C37.6354622,20.2417544 37.5951542,20.4986674 37.5951542,20.783539 C37.5951542,21.0817223 37.6354622,21.3466222 37.7160793,21.5782468 C37.7966964,21.8098713 37.906387,22.0048856 38.0451542,22.1632955 C38.1839214,22.3217053 38.3458141,22.4421749 38.530837,22.5247078 C38.71586,22.6072407 38.9140959,22.6485065 39.1255507,22.6485065 C39.2471372,22.6485065 39.3581493,22.6425163 39.4585903,22.6305357 C39.5590313,22.6185551 39.6522022,22.5979222 39.7381057,22.5686364 C39.8240092,22.5393505 39.9059467,22.5014126 39.9839207,22.4548214 C40.0618947,22.4082303 40.1405282,22.350325 40.2198238,22.2811039 C40.251542,22.2544804 40.2859029,22.2325163 40.3229075,22.215211 C40.3599121,22.1979058 40.3982377,22.1892532 40.4378855,22.1892532 Z M47.3246696,17.8762662 L47.3246696,18.946526 L45.6991189,18.946526 L45.6991189,23.6948052 L44.3590308,23.6948052 L44.3590308,18.946526 L42.7334802,18.946526 L42.7334802,17.8762662 L47.3246696,17.8762662 Z M53.9854626,23.6948052 L52.946696,23.6948052 C52.8303959,23.6948052 52.7345819,23.6675165 52.6592511,23.6129383 C52.5839203,23.5583601 52.5317182,23.4884745 52.5026432,23.4032792 L52.161674,22.3889286 L49.9651982,22.3889286 L49.6242291,23.4032792 C49.5977972,23.477825 49.5462559,23.5450484 49.4696035,23.6049513 C49.3929512,23.6648542 49.2991195,23.6948052 49.1881057,23.6948052 L48.1414097,23.6948052 L50.377533,17.8762662 L51.7493392,17.8762662 L53.9854626,23.6948052 Z M50.2744493,21.4704221 L51.8524229,21.4704221 L51.2002203,19.5195942 L51.2002203,19.5195942 C51.1539645,19.3824831 51.1083703,19.2340592 51.0634361,19.0743182 C51.0211452,19.2367216 50.9775333,19.3871422 50.9325991,19.5255844 L50.8671806,19.7192696 C50.8460353,19.779172 50.8255508,19.8344153 50.8057269,19.885 L50.2744493,21.4704221 Z M63.7546256,23.6948052 L62.4066079,23.6948052 L62.4066079,21.2348052 L60.0594714,21.2348052 L60.0594714,23.6948052 L58.7114537,23.6948052 L58.7114537,17.8762662 L60.0594714,17.8762662 L60.0594714,20.3083117 L62.4066079,20.3083117 L62.4066079,17.8762662 L63.7546256,17.8762662 L63.7546256,23.6948052 Z M69.7889868,17.8762662 L69.7889868,18.9145779 L67.4180617,18.9145779 L67.4180617,20.2723701 L69.2339207,20.2723701 L69.2339207,21.2707468 L67.4180617,21.2707468 L67.4180617,22.6564935 L69.7889868,22.6564935 L69.7889868,23.6948052 L66.0700441,23.6948052 L66.0700441,17.8762662 L69.7889868,17.8762662 Z M73.254185,21.5423052 L73.254185,23.6948052 L71.9140969,23.6948052 L71.9140969,17.8762662 L73.7933921,17.8762662 C74.2110153,17.8762662 74.5671791,17.9195288 74.8618943,18.0060552 C75.1566094,18.0925816 75.3971356,18.2130512 75.5834802,18.3674675 C75.7698247,18.5218839 75.9052859,18.7042522 75.9898678,18.9145779 C76.0744498,19.1249036 76.1167401,19.3538624 76.1167401,19.601461 C76.1167401,19.790488 76.0916302,19.9688628 76.0414097,20.1365909 C75.9911892,20.304319 75.9165203,20.4593986 75.8174009,20.6018344 C75.7182814,20.7442702 75.5966968,20.8713955 75.4526432,20.9832143 C75.3085896,21.095033 75.1427322,21.1868828 74.9550661,21.2587662 C75.0449344,21.3040262 75.1288542,21.3599347 75.2068282,21.4264935 C75.2848022,21.4930523 75.3528631,21.5742528 75.4110132,21.6700974 L76.6400881,23.6948052 L75.4268722,23.6948052 C75.2022015,23.6948052 75.0409697,23.6096112 74.9431718,23.4392208 L73.9837004,21.7499675 C73.9414095,21.6754217 73.8918505,21.6221755 73.835022,21.5902273 C73.7781935,21.5582791 73.6982384,21.5423052 73.5951542,21.5423052 L73.254185,21.5423052 Z M73.254185,20.6118182 L73.7933921,20.6118182 C73.9757718,20.6118182 74.1310566,20.588523 74.2592511,20.5419318 C74.3874456,20.4953407 74.4925106,20.4307796 74.5744493,20.3482468 C74.6563881,20.2657139 74.7158588,20.1692051 74.7528634,20.0587175 C74.789868,19.94823 74.80837,19.8290915 74.80837,19.7012987 C74.80837,19.445713 74.7257718,19.2460397 74.5605727,19.1022727 C74.3953736,18.9585058 74.1396493,18.8866234 73.7933921,18.8866234 L73.254185,18.8866234 L73.254185,20.6118182 Z M82.2700441,17.8762662 L82.2700441,18.9145779 L79.8991189,18.9145779 L79.8991189,20.2723701 L81.714978,20.2723701 L81.714978,21.2707468 L79.8991189,21.2707468 L79.8991189,22.6564935 L82.2700441,22.6564935 L82.2700441,23.6948052 L78.5511013,23.6948052 L78.5511013,17.8762662 L82.2700441,17.8762662 Z" id="CTAHERE" fill="#FFFFFF" fill-rule="nonzero"></path>
                    </g>
                </g>
                <g id="Rectangle-4">
                    <use fill="black" fill-opacity="1" filter="url(#filter-14)" xlink:href="#path-13"></use>
                    <use fill="#427FE0" fill-rule="evenodd" xlink:href="#path-13"></use>
                </g>
                <path d="M91.2102635,83.6803224 C91.2419495,83.6803224 91.2736351,83.6853593 91.3053212,83.6954332 C91.3370072,83.7055071 91.3673726,83.7228564 91.3964181,83.7474815 L91.9271569,84.2209537 C91.6947925,84.4783984 91.4036812,84.6725984 91.0538144,84.8035594 C90.7039475,84.9345205 90.2900546,85 89.8121233,85 C89.3737995,85 88.9810304,84.9367591 88.633804,84.8102754 C88.2865777,84.6837916 87.9921658,84.5091795 87.7505597,84.2864338 C87.5089535,84.0636882 87.3234608,83.7995314 87.1940761,83.4939557 C87.0646914,83.1883799 87,82.856505 87,82.498321 C87,82.1334211 87.073933,81.7981882 87.2218013,81.4926125 C87.3696695,81.1870368 87.5762859,80.9234397 87.8416566,80.7018133 C88.1070273,80.4801869 88.4245432,80.3078135 88.7942139,80.1846877 C89.1638845,80.061562 89.5718364,80 90.0180816,80 C90.234603,80 90.4385789,80.01623 90.6300155,80.0486904 C90.8214521,80.0811508 91.0003436,80.1259232 91.1666954,80.1830087 C91.3330472,80.2400943 91.4861941,80.3083721 91.6261409,80.3878442 C91.7660876,80.4673163 91.8901895,80.555182 91.9984501,80.6514439 L91.5469261,81.1652116 C91.5178806,81.1965527 91.4835545,81.225095 91.443947,81.2508395 C91.4043394,81.276584 91.3488896,81.289456 91.277596,81.289456 C91.2300669,81.289456 91.185179,81.2805015 91.1429309,81.2625923 C91.1006829,81.2446831 91.055795,81.2228566 91.0082659,81.1971122 L90.8518168,81.1131632 L90.8518168,81.1131632 C90.7950459,81.0829414 90.7277141,81.0549587 90.6498192,81.0292142 C90.5719243,81.0034698 90.4808283,80.9816433 90.3765283,80.963734 C90.2722284,80.9458248 90.1501069,80.9368704 90.0101602,80.9368704 C89.7672337,80.9368704 89.5454347,80.9732479 89.3447563,81.046004 C89.144078,81.1187602 88.9717876,81.2228558 88.8278801,81.3582942 C88.6839726,81.4937325 88.5717529,81.6577111 88.4912175,81.8502351 C88.4106821,82.042759 88.370415,82.2587855 88.370415,82.498321 C88.370415,82.7490498 88.4106821,82.9717922 88.4912175,83.1665547 C88.5717529,83.3613173 88.6813322,83.525296 88.8199587,83.6584956 C88.9585852,83.7916953 89.1203136,83.8929927 89.305149,83.9623909 C89.4899843,84.031789 89.6880191,84.0664876 89.8992595,84.0664876 C90.0207227,84.0664876 90.1316223,84.0614507 90.2319614,84.0513768 C90.3323006,84.0413028 90.425377,84.0239536 90.5111934,83.9993284 C90.5970098,83.9747033 90.6788642,83.942803 90.7567591,83.9036266 C90.834654,83.8644502 90.9132078,83.8157603 90.9924229,83.7575554 C91.024109,83.7351689 91.058435,83.7167003 91.0954021,83.7021491 C91.1323692,83.6875979 91.1706559,83.6803224 91.2102635,83.6803224 Z M98.0900637,80.0537273 L98.0900637,80.9536602 L96.4661615,80.9536602 L96.4661615,84.9462727 L95.1274324,84.9462727 L95.1274324,80.9536602 L93.5035302,80.9536602 L93.5035302,80.0537273 L98.0900637,80.0537273 Z M104.744102,84.9462727 L103.706389,84.9462727 C103.590207,84.9462727 103.49449,84.9233268 103.419235,84.8774345 C103.343981,84.8315422 103.291832,84.7727785 103.262786,84.7011417 L102.922163,83.8482203 L100.727915,83.8482203 L100.387291,84.7011417 C100.360886,84.7638239 100.309397,84.820349 100.232822,84.8707186 C100.156248,84.9210882 100.062511,84.9462727 99.9516101,84.9462727 L98.9059755,84.9462727 L101.139831,80.0537273 L102.510246,80.0537273 L104.744102,84.9462727 Z M101.036852,83.0758899 L102.613225,83.0758899 L101.961684,81.4355272 L101.961684,81.4355272 C101.915475,81.3202367 101.869927,81.1954338 101.825039,81.0611148 C101.782791,81.1976725 101.739223,81.3241543 101.694334,81.4405641 L101.628982,81.6034252 C101.607858,81.6537944 101.587395,81.700246 101.567591,81.7427804 L101.036852,83.0758899 Z M114.503358,84.9462727 L113.156707,84.9462727 L113.156707,82.8777703 L110.811951,82.8777703 L110.811951,84.9462727 L109.4653,84.9462727 L109.4653,80.0537273 L110.811951,80.0537273 L110.811951,82.098724 L113.156707,82.098724 L113.156707,80.0537273 L114.503358,80.0537273 L114.503358,84.9462727 Z M120.5316,80.0537273 L120.5316,80.9267965 L118.163079,80.9267965 L118.163079,82.0685024 L119.977097,82.0685024 L119.977097,82.9079919 L118.163079,82.9079919 L118.163079,84.0732035 L120.5316,84.0732035 L120.5316,84.9462727 L116.816428,84.9462727 L116.816428,80.0537273 L120.5316,80.0537273 Z M123.993284,83.1363331 L123.993284,84.9462727 L122.654555,84.9462727 L122.654555,80.0537273 L124.531944,80.0537273 C124.949144,80.0537273 125.304947,80.0901049 125.599363,80.162861 C125.893779,80.2356171 126.134061,80.3369145 126.320217,80.4667562 C126.506373,80.5965979 126.641696,80.7499431 126.726193,80.9267965 C126.810689,81.1036499 126.852936,81.2961709 126.852936,81.5043653 C126.852936,81.6633095 126.827852,81.8132968 126.777682,81.9543318 C126.727513,82.0953667 126.652919,82.2257661 126.5539,82.3455339 C126.454882,82.4653017 126.33342,82.5721956 126.189513,82.6662189 C126.045605,82.7602422 125.879916,82.8374745 125.69244,82.8979181 C125.782217,82.9359751 125.866052,82.9829861 125.943947,83.0389523 C126.021842,83.0949186 126.089834,83.1631964 126.147925,83.2437878 L127.375753,84.9462727 L126.163768,84.9462727 C125.939325,84.9462727 125.778257,84.8746369 125.680558,84.7313633 L124.72206,83.3109469 C124.679812,83.2482647 124.630303,83.2034924 124.573532,83.1766286 C124.516761,83.1497648 124.436887,83.1363331 124.333907,83.1363331 L123.993284,83.1363331 Z M123.993284,82.3539288 L124.531944,82.3539288 C124.714139,82.3539288 124.869266,82.3343409 124.997331,82.2951645 C125.125395,82.2559882 125.230354,82.2017017 125.312209,82.1323036 C125.394065,82.0629054 125.453476,81.9817556 125.490443,81.8888516 C125.52741,81.7959476 125.545893,81.6957695 125.545893,81.5883143 C125.545893,81.3734039 125.463378,81.2055077 125.298347,81.0846206 C125.133315,80.9637334 124.87785,80.9032908 124.531944,80.9032908 L123.993284,80.9032908 L123.993284,82.3539288 Z M133,80.0537273 L133,80.9267965 L130.631479,80.9267965 L130.631479,82.0685024 L132.445497,82.0685024 L132.445497,82.9079919 L130.631479,82.9079919 L130.631479,84.0732035 L133,84.0732035 L133,84.9462727 L129.284829,84.9462727 L129.284829,80.0537273 L133,80.0537273 Z" id="CTAHERE" fill="#FFFFFF" fill-rule="nonzero"></path>
            </g>
        </g>
    </g>
</svg>