<?xml version="1.0" encoding="UTF-8"?>
<svg width="297px" height="275px" viewBox="0 0 297 275" version="1.1" xmlns="http://www.w3.org/2000/svg" xmlns:xlink="http://www.w3.org/1999/xlink">
    <!-- Generator: Sketch 63.1 (92452) - https://sketch.com -->
    <title>img_calendar_mob</title>
    <desc>Created with Sketch.</desc>
    <defs>
        <filter x="-28.2%" y="-38.3%" width="157.5%" height="160.3%" filterUnits="objectBoundingBox" id="filter-1">
            <feOffset dx="0" dy="9" in="SourceAlpha" result="shadowOffsetOuter1"></feOffset>
            <feGaussianBlur stdDeviation="9" in="shadowOffsetOuter1" result="shadowBlurOuter1"></feGaussianBlur>
            <feColorMatrix values="0 0 0 0 0   0 0 0 0 0   0 0 0 0 0  0 0 0 0.2 0" type="matrix" in="shadowBlurOuter1" result="shadowMatrixOuter1"></feColorMatrix>
            <feMerge>
                <feMergeNode in="shadowMatrixOuter1"></feMergeNode>
                <feMergeNode in="SourceGraphic"></feMergeNode>
            </feMerge>
        </filter>
        <filter x="-23.1%" y="-201.9%" width="146.3%" height="503.8%" filterUnits="objectBoundingBox" id="filter-2">
            <feOffset dx="0" dy="9" in="SourceAlpha" result="shadowOffsetOuter1"></feOffset>
            <feGaussianBlur stdDeviation="9" in="shadowOffsetOuter1" result="shadowBlurOuter1"></feGaussianBlur>
            <feColorMatrix values="0 0 0 0 0   0 0 0 0 0   0 0 0 0 0  0 0 0 0.5 0" type="matrix" in="shadowBlurOuter1" result="shadowMatrixOuter1"></feColorMatrix>
            <feMerge>
                <feMergeNode in="shadowMatrixOuter1"></feMergeNode>
                <feMergeNode in="SourceGraphic"></feMergeNode>
            </feMerge>
        </filter>
    </defs>
    <g id="Page-1" stroke="none" stroke-width="1" fill="none" fill-rule="evenodd">
        <g id="FAQs---How-Much-Does-It-Cost-To-Advertise-On-Facebook---Mobile" transform="translate(-40.000000, -8142.000000)" fill-rule="nonzero">
            <g id="img_calendar_mob" transform="translate(58.000000, 8151.000000)">
                <rect id="Rectangle" fill="#222222" opacity="0.15" x="0" y="214" width="261" height="35"></rect>
                <g id="Group" filter="url(#filter-1)">
                    <g>
                        <rect id="Rectangle" fill="#FFFFFF" x="0.133846154" y="24.8936514" width="260.732308" height="214.09875"></rect>
                        <rect id="Rectangle" fill="#FF5254" x="0.133846154" y="11.47911" width="260.732308" height="37.8410197"></rect>
                        <g opacity="0.3" transform="translate(0.000000, 46.049918)" fill="#222222" id="Rectangle">
                            <rect x="0.133846154" y="0" width="260.732308" height="7.47476931"></rect>
                        </g>
                        <rect id="Rectangle" fill="#FF5254" x="0.133846154" y="44.1144868" width="260.732308" height="7.20781327"></rect>
                        <g filter="url(#filter-2)" transform="translate(18.069231, 0.000000)">
                            <g>
                                <g opacity="0.6" transform="translate(0.000000, 13.347802)" fill="#222222" id="Oval">
                                    <ellipse cx="6.55846154" cy="5.87303303" rx="6.02307692" ry="5.53933797"></ellipse>
                                </g>
                                <path d="M11.5776923,17.6858381 C11.5776923,20.3553986 9.36923077,22.491047 6.75923077,22.491047 L6.42461538,22.491047 C3.74769231,22.491047 1.60615385,20.2886596 1.60615385,17.6858381 L1.60615385,4.80520884 C1.60615385,2.13564838 3.81461538,0 6.42461538,0 L6.75923077,0 C9.43615385,0 11.5776923,2.20238739 11.5776923,4.80520884 L11.5776923,17.6858381 Z" id="Path" fill="#FFFFFF"></path>
                                <g opacity="0.6" transform="translate(30.784615, 13.347802)" fill="#222222" id="Oval">
                                    <ellipse cx="6.02307692" cy="6.00651106" rx="6.02307692" ry="5.53933797"></ellipse>
                                </g>
                                <path d="M41.8269231,17.8193161 C41.8269231,20.4888766 39.6184615,22.624525 37.0084615,22.624525 L36.6738462,22.624525 C33.9969231,22.624525 31.8553846,20.4221376 31.8553846,17.8193161 L31.8553846,4.93868687 C31.8553846,2.2691264 34.0638462,0.133478023 36.6738462,0.133478023 L37.0084615,0.133478023 C39.6853846,0.133478023 41.8269231,2.33586541 41.8269231,4.93868687 L41.8269231,17.8193161 Z" id="Path" fill="#FFFFFF"></path>
                                <g opacity="0.6" transform="translate(60.900000, 13.347802)" fill="#222222" id="Oval">
                                    <ellipse cx="6.29076923" cy="6.00651106" rx="6.02307692" ry="5.53933797"></ellipse>
                                </g>
                                <path d="M72.1430769,17.8193161 C72.1430769,20.4888766 69.9346154,22.624525 67.3246154,22.624525 L66.99,22.624525 C64.3130769,22.624525 62.1715385,20.4221376 62.1715385,17.8193161 L62.1715385,4.93868687 C62.1715385,2.2691264 64.38,0.133478023 66.99,0.133478023 L67.3246154,0.133478023 C70.0015385,0.133478023 72.1430769,2.33586541 72.1430769,4.93868687 L72.1430769,17.8193161 Z" id="Path" fill="#FFFFFF"></path>
                            </g>
                            <g transform="translate(91.015385, 0.000000)">
                                <g opacity="0.6" transform="translate(0.000000, 13.347802)" fill="#222222" id="Oval">
                                    <ellipse cx="6.29076923" cy="5.87303303" rx="6.02307692" ry="5.53933797"></ellipse>
                                </g>
                                <path d="M11.31,17.6858381 C11.31,20.3553986 9.10153846,22.491047 6.49153846,22.491047 L6.15692308,22.491047 C3.48,22.491047 1.33846154,20.2886596 1.33846154,17.6858381 L1.33846154,4.80520884 C1.33846154,2.13564838 3.54692308,0 6.15692308,0 L6.49153846,0 C9.16846154,0 11.31,2.20238739 11.31,4.80520884 L11.31,17.6858381 Z" id="Path" fill="#FFFFFF"></path>
                                <g opacity="0.6" transform="translate(30.115385, 13.347802)" fill="#222222" id="Oval">
                                    <ellipse cx="6.42461538" cy="6.00651106" rx="6.02307692" ry="5.53933797"></ellipse>
                                </g>
                                <path d="M41.5592308,17.8193161 C41.5592308,20.4888766 39.3507692,22.624525 36.7407692,22.624525 L36.4061538,22.624525 C33.7292308,22.624525 31.5876923,20.4221376 31.5876923,17.8193161 L31.5876923,4.93868687 C31.5876923,2.2691264 33.7961538,0.133478023 36.4061538,0.133478023 L36.7407692,0.133478023 C39.4176923,0.133478023 41.5592308,2.33586541 41.5592308,4.93868687 L41.5592308,17.8193161 Z" id="Path" fill="#FFFFFF"></path>
                                <g opacity="0.6" transform="translate(60.900000, 13.347802)" fill="#222222" id="Oval">
                                    <ellipse cx="6.02307692" cy="6.00651106" rx="6.02307692" ry="5.53933797"></ellipse>
                                </g>
                                <path d="M71.8753846,17.8193161 C71.8753846,20.4888766 69.6669231,22.624525 67.0569231,22.624525 L66.7223077,22.624525 C64.0453846,22.624525 61.9038462,20.4221376 61.9038462,17.8193161 L61.9038462,4.93868687 C61.9038462,2.2691264 64.1123077,0.133478023 66.7223077,0.133478023 L67.0569231,0.133478023 C69.7338462,0.133478023 71.8753846,2.33586541 71.8753846,4.93868687 L71.8753846,17.8193161 Z" id="Path" fill="#FFFFFF"></path>
                            </g>
                            <g transform="translate(182.030769, 0.000000)">
                                <g opacity="0.6" transform="translate(0.000000, 13.347802)" fill="#222222" id="Oval">
                                    <ellipse cx="6.02307692" cy="6.00651106" rx="6.02307692" ry="5.53933797"></ellipse>
                                </g>
                                <path d="M10.9753846,17.8193161 C10.9753846,20.4888766 8.76692308,22.624525 6.15692308,22.624525 L5.82230769,22.624525 C3.14538462,22.624525 1.00384615,20.4221376 1.00384615,17.8193161 L1.00384615,4.93868687 C1.00384615,2.2691264 3.21230769,0.133478023 5.82230769,0.133478023 L6.15692308,0.133478023 C8.83384615,0.133478023 10.9753846,2.33586541 10.9753846,4.93868687 L10.9753846,17.8193161 Z" id="Path" fill="#FFFFFF"></path>
                                <g opacity="0.6" transform="translate(30.115385, 13.940854)" fill="#222222" id="Oval">
                                    <ellipse cx="6.15692308" cy="5.54693697" rx="6.02307692" ry="5.53933797"></ellipse>
                                </g>
                                <path d="M41.2246154,17.8860551 C41.2246154,20.5556156 39.0161538,22.691264 36.4061538,22.691264 L36.0715385,22.691264 C33.3946154,22.691264 31.2530769,20.4888766 31.2530769,17.8860551 L31.2530769,5.00542588 C31.2530769,2.33586541 33.4615385,0.200217035 36.0715385,0.200217035 L36.4061538,0.200217035 C39.0830769,0.200217035 41.2246154,2.40260442 41.2246154,5.00542588 L41.2246154,17.8860551 Z" id="Path" fill="#FFFFFF"></path>
                            </g>
                        </g>
                    </g>
                    <g transform="translate(12.046154, 73.412913)" id="Path">
                        <g opacity="0.2" transform="translate(36.138462, 0.000000)" fill="#222222">
                            <path d="M20.8130769,16.818231 C20.8130769,19.0206183 19.0061538,20.8225717 16.7976923,20.8225717 L4.01538462,20.8225717 C1.80692308,20.8225717 0,19.0206183 0,16.818231 L0,4.07107972 C0,1.86869233 1.80692308,0.0667390117 4.01538462,0.0667390117 L16.7976923,0.0667390117 C19.0061538,0.0667390117 20.8130769,1.86869233 20.8130769,4.07107972 L20.8130769,16.818231 Z"></path>
                        </g>
                        <g opacity="0.2" transform="translate(71.607692, 0.000000)" fill="#222222">
                            <path d="M21.3484615,16.818231 C21.3484615,19.0206183 19.5415385,20.8225717 17.3330769,20.8225717 L4.55076923,20.8225717 C2.34230769,20.8225717 0.535384615,19.0206183 0.535384615,16.818231 L0.535384615,4.07107972 C0.535384615,1.86869233 2.34230769,0.0667390117 4.55076923,0.0667390117 L17.3330769,0.0667390117 C19.5415385,0.0667390117 21.3484615,1.86869233 21.3484615,4.07107972 L21.3484615,16.818231 Z"></path>
                        </g>
                        <g opacity="0.2" transform="translate(107.746154, 0.000000)" fill="#222222">
                            <path d="M21.1476923,16.818231 C21.1476923,19.0206183 19.3407692,20.8225717 17.1323077,20.8225717 L4.35,20.8225717 C2.14153846,20.8225717 0.334615385,19.0206183 0.334615385,16.818231 L0.334615385,4.07107972 C0.334615385,1.86869233 2.14153846,0.0667390117 4.35,0.0667390117 L17.1323077,0.0667390117 C19.3407692,0.0667390117 21.1476923,1.86869233 21.1476923,4.07107972 L21.1476923,16.818231 Z"></path>
                        </g>
                        <g opacity="0.2" transform="translate(143.884615, 0.000000)" fill="#222222">
                            <path d="M20.9469231,16.818231 C20.9469231,19.0206183 19.14,20.8225717 16.9315385,20.8225717 L4.14923077,20.8225717 C1.94076923,20.8225717 0.133846154,19.0206183 0.133846154,16.818231 L0.133846154,4.07107972 C0.133846154,1.86869233 1.94076923,0.0667390117 4.14923077,0.0667390117 L16.9315385,0.0667390117 C19.14,0.0667390117 20.9469231,1.86869233 20.9469231,4.07107972 L20.9469231,16.818231 Z"></path>
                        </g>
                        <g opacity="0.3" transform="translate(179.948379, 0.000000)" fill="#222222">
                            <path d="M20.8208516,16.818231 C20.8208516,19.0206183 19.0139285,20.8225717 16.805467,20.8225717 L4.02315928,20.8225717 C1.81469774,20.8225717 0.0077746627,19.0206183 0.0077746627,16.818231 L0.0077746627,4.07107972 C0.0077746627,1.86869233 1.81469774,0.0667390117 4.02315928,0.0667390117 L16.805467,0.0667390117 C19.0139285,0.0667390117 20.8208516,1.86869233 20.8208516,4.07107972 L20.8208516,16.818231 Z"></path>
                        </g>
                        <g opacity="0.7" transform="translate(215.492308, 0.000000)" fill="#E2392B">
                            <path d="M21.2146154,16.818231 C21.2146154,19.0206183 19.4076923,20.8225717 17.1992308,20.8225717 L4.41692308,20.8225717 C2.20846154,20.8225717 0.401538462,19.0206183 0.401538462,16.818231 L0.401538462,4.07107972 C0.401538462,1.86869233 2.20846154,0.0667390117 4.41692308,0.0667390117 L17.1992308,0.0667390117 C19.4076923,0.0667390117 21.2146154,1.86869233 21.2146154,4.07107972 L21.2146154,16.818231 Z"></path>
                        </g>
                        <g opacity="0.2" transform="translate(0.000000, 30.699945)" fill="#222222">
                            <path d="M21.0138462,17.018448 C21.0138462,19.2208354 19.2069231,21.0227887 16.9984615,21.0227887 L4.21615385,21.0227887 C2.00769231,21.0227887 0.200769231,19.2208354 0.200769231,17.018448 L0.200769231,4.27129675 C0.200769231,2.06890936 2.00769231,0.266956047 4.21615385,0.266956047 L16.9984615,0.266956047 C19.2069231,0.266956047 21.0138462,2.06890936 21.0138462,4.27129675 L21.0138462,17.018448 Z"></path>
                        </g>
                        <g opacity="0.2" transform="translate(36.138462, 30.699945)" fill="#222222">
                            <path d="M20.8130769,17.018448 C20.8130769,19.2208354 19.0061538,21.0227887 16.7976923,21.0227887 L4.01538462,21.0227887 C1.80692308,21.0227887 0,19.2208354 0,17.018448 L0,4.27129675 C0,2.06890936 1.80692308,0.266956047 4.01538462,0.266956047 L16.7976923,0.266956047 C19.0061538,0.266956047 20.8130769,2.06890936 20.8130769,4.27129675 L20.8130769,17.018448 Z"></path>
                        </g>
                        <g transform="translate(71.607692, 30.699945)" fill="#427FE0">
                            <path d="M21.3484615,17.018448 C21.3484615,19.2208354 19.5415385,21.0227887 17.3330769,21.0227887 L4.55076923,21.0227887 C2.34230769,21.0227887 0.535384615,19.2208354 0.535384615,17.018448 L0.535384615,4.27129675 C0.535384615,2.06890936 2.34230769,0.266956047 4.55076923,0.266956047 L17.3330769,0.266956047 C19.5415385,0.266956047 21.3484615,2.06890936 21.3484615,4.27129675 L21.3484615,17.018448 Z"></path>
                        </g>
                        <g opacity="0.2" transform="translate(107.746154, 30.699945)" fill="#222222">
                            <path d="M21.1476923,17.018448 C21.1476923,19.2208354 19.3407692,21.0227887 17.1323077,21.0227887 L4.35,21.0227887 C2.14153846,21.0227887 0.334615385,19.2208354 0.334615385,17.018448 L0.334615385,4.27129675 C0.334615385,2.06890936 2.14153846,0.266956047 4.35,0.266956047 L17.1323077,0.266956047 C19.3407692,0.266956047 21.1476923,2.06890936 21.1476923,4.27129675 L21.1476923,17.018448 Z"></path>
                        </g>
                        <g opacity="0.2" transform="translate(143.884615, 30.699945)" fill="#222222">
                            <path d="M20.9469231,17.018448 C20.9469231,19.2208354 19.14,21.0227887 16.9315385,21.0227887 L4.14923077,21.0227887 C1.94076923,21.0227887 0.133846154,19.2208354 0.133846154,17.018448 L0.133846154,4.27129675 C0.133846154,2.06890936 1.94076923,0.266956047 4.14923077,0.266956047 L16.9315385,0.266956047 C19.14,0.266956047 20.9469231,2.06890936 20.9469231,4.27129675 L20.9469231,17.018448 Z"></path>
                        </g>
                        <g opacity="0.3" transform="translate(179.948379, 30.699945)" fill="#222222">
                            <path d="M20.8208516,17.018448 C20.8208516,19.2208354 19.0139285,21.0227887 16.805467,21.0227887 L4.02315928,21.0227887 C1.81469774,21.0227887 0.0077746627,19.2208354 0.0077746627,17.018448 L0.0077746627,4.27129675 C0.0077746627,2.06890936 1.81469774,0.266956047 4.02315928,0.266956047 L16.805467,0.266956047 C19.0139285,0.266956047 20.8208516,2.06890936 20.8208516,4.27129675 L20.8208516,17.018448 Z"></path>
                        </g>
                        <g opacity="0.7" transform="translate(215.492308, 30.699945)" fill="#E2392B">
                            <path d="M21.2146154,17.018448 C21.2146154,19.2208354 19.4076923,21.0227887 17.1992308,21.0227887 L4.41692308,21.0227887 C2.20846154,21.0227887 0.401538462,19.2208354 0.401538462,17.018448 L0.401538462,4.27129675 C0.401538462,2.06890936 2.20846154,0.266956047 4.41692308,0.266956047 L17.1992308,0.266956047 C19.4076923,0.266956047 21.2146154,2.06890936 21.2146154,4.27129675 L21.2146154,17.018448 Z"></path>
                        </g>
                        <g opacity="0.2" transform="translate(0.000000, 61.399891)" fill="#222222">
                            <path d="M21.0138462,17.151926 C21.0138462,19.3543134 19.2069231,21.1562667 16.9984615,21.1562667 L4.21615385,21.1562667 C2.00769231,21.1562667 0.200769231,19.3543134 0.200769231,17.151926 L0.200769231,4.40477477 C0.200769231,2.20238739 2.00769231,0.40043407 4.21615385,0.40043407 L16.9984615,0.40043407 C19.2069231,0.40043407 21.0138462,2.20238739 21.0138462,4.40477477 L21.0138462,17.151926 Z"></path>
                        </g>
                        <g opacity="0.2" transform="translate(36.138462, 61.399891)" fill="#222222">
                            <path d="M20.8130769,17.151926 C20.8130769,19.3543134 19.0061538,21.1562667 16.7976923,21.1562667 L4.01538462,21.1562667 C1.80692308,21.1562667 0,19.3543134 0,17.151926 L0,4.40477477 C0,2.20238739 1.80692308,0.40043407 4.01538462,0.40043407 L16.7976923,0.40043407 C19.0061538,0.40043407 20.8130769,2.20238739 20.8130769,4.40477477 L20.8130769,17.151926 Z"></path>
                        </g>
                        <g opacity="0.2" transform="translate(71.607692, 61.399891)" fill="#222222">
                            <path d="M21.3484615,17.151926 C21.3484615,19.3543134 19.5415385,21.1562667 17.3330769,21.1562667 L4.55076923,21.1562667 C2.34230769,21.1562667 0.535384615,19.3543134 0.535384615,17.151926 L0.535384615,4.40477477 C0.535384615,2.20238739 2.34230769,0.40043407 4.55076923,0.40043407 L17.3330769,0.40043407 C19.5415385,0.40043407 21.3484615,2.20238739 21.3484615,4.40477477 L21.3484615,17.151926 Z"></path>
                        </g>
                        <g opacity="0.2" transform="translate(107.746154, 61.399891)" fill="#222222">
                            <path d="M21.1476923,17.151926 C21.1476923,19.3543134 19.3407692,21.1562667 17.1323077,21.1562667 L4.35,21.1562667 C2.14153846,21.1562667 0.334615385,19.3543134 0.334615385,17.151926 L0.334615385,4.40477477 C0.334615385,2.20238739 2.14153846,0.40043407 4.35,0.40043407 L17.1323077,0.40043407 C19.3407692,0.40043407 21.1476923,2.20238739 21.1476923,4.40477477 L21.1476923,17.151926 Z"></path>
                        </g>
                        <g opacity="0.2" transform="translate(143.884615, 61.399891)" fill="#222222">
                            <path d="M20.9469231,17.151926 C20.9469231,19.3543134 19.14,21.1562667 16.9315385,21.1562667 L4.14923077,21.1562667 C1.94076923,21.1562667 0.133846154,19.3543134 0.133846154,17.151926 L0.133846154,4.40477477 C0.133846154,2.20238739 1.94076923,0.40043407 4.14923077,0.40043407 L16.9315385,0.40043407 C19.14,0.40043407 20.9469231,2.20238739 20.9469231,4.40477477 L20.9469231,17.151926 Z"></path>
                        </g>
                        <g opacity="0.3" transform="translate(179.948379, 61.399891)" fill="#222222">
                            <path d="M20.8208516,17.151926 C20.8208516,19.3543134 19.0139285,21.1562667 16.805467,21.1562667 L4.02315928,21.1562667 C1.81469774,21.1562667 0.0077746627,19.3543134 0.0077746627,17.151926 L0.0077746627,4.40477477 C0.0077746627,2.20238739 1.81469774,0.40043407 4.02315928,0.40043407 L16.805467,0.40043407 C19.0139285,0.40043407 20.8208516,2.20238739 20.8208516,4.40477477 L20.8208516,17.151926 Z"></path>
                        </g>
                        <g opacity="0.7" transform="translate(215.492308, 61.399891)" fill="#E2392B">
                            <path d="M21.2146154,17.151926 C21.2146154,19.3543134 19.4076923,21.1562667 17.1992308,21.1562667 L4.41692308,21.1562667 C2.20846154,21.1562667 0.401538462,19.3543134 0.401538462,17.151926 L0.401538462,4.40477477 C0.401538462,2.20238739 2.20846154,0.40043407 4.41692308,0.40043407 L17.1992308,0.40043407 C19.4076923,0.40043407 21.2146154,2.20238739 21.2146154,4.40477477 L21.2146154,17.151926 Z"></path>
                        </g>
                        <g transform="translate(0.000000, 92.099836)" fill="#427FE0">
                            <path d="M21.0138462,17.285404 C21.0138462,19.4877914 19.2069231,21.2897447 16.9984615,21.2897447 L4.21615385,21.2897447 C2.00769231,21.2897447 0.200769231,19.4877914 0.200769231,17.285404 L0.200769231,4.5382528 C0.200769231,2.33586541 2.00769231,0.533912094 4.21615385,0.533912094 L16.9984615,0.533912094 C19.2069231,0.533912094 21.0138462,2.33586541 21.0138462,4.5382528 L21.0138462,17.285404 Z"></path>
                        </g>
                        <g opacity="0.2" transform="translate(36.138462, 92.099836)" fill="#222222">
                            <path d="M20.8130769,17.285404 C20.8130769,19.4877914 19.0061538,21.2897447 16.7976923,21.2897447 L4.01538462,21.2897447 C1.80692308,21.2897447 0,19.4877914 0,17.285404 L0,4.5382528 C0,2.33586541 1.80692308,0.533912094 4.01538462,0.533912094 L16.7976923,0.533912094 C19.0061538,0.533912094 20.8130769,2.33586541 20.8130769,4.5382528 L20.8130769,17.285404 Z"></path>
                        </g>
                        <g opacity="0.2" transform="translate(71.607692, 92.099836)" fill="#222222">
                            <path d="M21.3484615,17.285404 C21.3484615,19.4877914 19.5415385,21.2897447 17.3330769,21.2897447 L4.55076923,21.2897447 C2.34230769,21.2897447 0.535384615,19.4877914 0.535384615,17.285404 L0.535384615,4.5382528 C0.535384615,2.33586541 2.34230769,0.533912094 4.55076923,0.533912094 L17.3330769,0.533912094 C19.5415385,0.533912094 21.3484615,2.33586541 21.3484615,4.5382528 L21.3484615,17.285404 Z"></path>
                        </g>
                        <g opacity="0.2" transform="translate(107.746154, 92.099836)" fill="#222222">
                            <path d="M21.1476923,17.285404 C21.1476923,19.4877914 19.3407692,21.2897447 17.1323077,21.2897447 L4.35,21.2897447 C2.14153846,21.2897447 0.334615385,19.4877914 0.334615385,17.285404 L0.334615385,4.5382528 C0.334615385,2.33586541 2.14153846,0.533912094 4.35,0.533912094 L17.1323077,0.533912094 C19.3407692,0.533912094 21.1476923,2.33586541 21.1476923,4.5382528 L21.1476923,17.285404 Z"></path>
                        </g>
                        <g transform="translate(143.884615, 92.099836)" fill="#427FE0">
                            <path d="M20.9469231,17.285404 C20.9469231,19.4877914 19.14,21.2897447 16.9315385,21.2897447 L4.14923077,21.2897447 C1.94076923,21.2897447 0.133846154,19.4877914 0.133846154,17.285404 L0.133846154,4.5382528 C0.133846154,2.33586541 1.94076923,0.533912094 4.14923077,0.533912094 L16.9315385,0.533912094 C19.14,0.533912094 20.9469231,2.33586541 20.9469231,4.5382528 L20.9469231,17.285404 Z"></path>
                        </g>
                        <g opacity="0.3" transform="translate(179.948379, 92.099836)" fill="#222222">
                            <path d="M20.8208516,17.285404 C20.8208516,19.4877914 19.0139285,21.2897447 16.805467,21.2897447 L4.02315928,21.2897447 C1.81469774,21.2897447 0.0077746627,19.4877914 0.0077746627,17.285404 L0.0077746627,4.5382528 C0.0077746627,2.33586541 1.81469774,0.533912094 4.02315928,0.533912094 L16.805467,0.533912094 C19.0139285,0.533912094 20.8208516,2.33586541 20.8208516,4.5382528 L20.8208516,17.285404 Z"></path>
                        </g>
                        <g opacity="0.7" transform="translate(215.492308, 92.099836)" fill="#E2392B">
                            <path d="M21.2146154,17.285404 C21.2146154,19.4877914 19.4076923,21.2897447 17.1992308,21.2897447 L4.41692308,21.2897447 C2.20846154,21.2897447 0.401538462,19.4877914 0.401538462,17.285404 L0.401538462,4.5382528 C0.401538462,2.33586541 2.20846154,0.533912094 4.41692308,0.533912094 L17.1992308,0.533912094 C19.4076923,0.533912094 21.2146154,2.33586541 21.2146154,4.5382528 L21.2146154,17.285404 Z"></path>
                        </g>
                        <g opacity="0.2" transform="translate(0.000000, 123.467172)" fill="#222222">
                            <path d="M21.0138462,16.7514919 C21.0138462,18.9538793 19.2069231,20.7558326 16.9984615,20.7558326 L4.21615385,20.7558326 C2.00769231,20.7558326 0.200769231,18.9538793 0.200769231,16.7514919 L0.200769231,4.0043407 C0.200769231,1.80195332 2.00769231,0 4.21615385,0 L16.9984615,0 C19.2069231,0 21.0138462,1.80195332 21.0138462,4.0043407 L21.0138462,16.7514919 Z"></path>
                        </g>
                        <g opacity="0.2" transform="translate(36.138462, 123.467172)" fill="#222222">
                            <path d="M20.88,16.7514919 C20.88,18.9538793 19.0730769,20.7558326 16.8646154,20.7558326 L4.01538462,20.7558326 C1.80692308,20.7558326 0,18.9538793 0,16.7514919 L0,4.0043407 C0,1.80195332 1.80692308,0 4.01538462,0 L16.7976923,0 C19.0061538,0 20.8130769,1.80195332 20.8130769,4.0043407 L20.8130769,16.7514919 L20.88,16.7514919 Z"></path>
                        </g>
                        <g opacity="0.2" transform="translate(71.607692, 123.467172)" fill="#222222">
                            <path d="M21.3484615,16.7514919 C21.3484615,18.9538793 19.5415385,20.7558326 17.3330769,20.7558326 L4.55076923,20.7558326 C2.34230769,20.7558326 0.535384615,18.9538793 0.535384615,16.7514919 L0.535384615,4.0043407 C0.535384615,1.80195332 2.34230769,0 4.55076923,0 L17.3330769,0 C19.5415385,0 21.3484615,1.80195332 21.3484615,4.0043407 L21.3484615,16.7514919 Z"></path>
                        </g>
                        <g opacity="0.2" transform="translate(107.746154, 123.467172)" fill="#222222">
                            <path d="M21.1476923,16.7514919 C21.1476923,18.9538793 19.3407692,20.7558326 17.1323077,20.7558326 L4.35,20.7558326 C2.14153846,20.7558326 0.334615385,18.9538793 0.334615385,16.7514919 L0.334615385,4.0043407 C0.334615385,1.80195332 2.14153846,0 4.35,0 L17.1323077,0 C19.3407692,0 21.1476923,1.80195332 21.1476923,4.0043407 L21.1476923,16.7514919 Z"></path>
                        </g>
                    </g>
                </g>
            </g>
        </g>
    </g>
</svg>