<?xml version="1.0" encoding="UTF-8"?>
<svg width="333px" height="248px" viewBox="0 0 333 248" version="1.1" xmlns="http://www.w3.org/2000/svg" xmlns:xlink="http://www.w3.org/1999/xlink">
    <!-- Generator: Sketch 63.1 (92452) - https://sketch.com -->
    <title>img_link_juice_mob</title>
    <desc>Created with Sketch.</desc>
    <defs>
        <filter x="-13.7%" y="-19.8%" width="127.3%" height="139.6%" filterUnits="objectBoundingBox" id="filter-1">
            <feOffset dx="0" dy="5" in="SourceAlpha" result="shadowOffsetOuter1"></feOffset>
            <feGaussianBlur stdDeviation="5" in="shadowOffsetOuter1" result="shadowBlurOuter1"></feGaussianBlur>
            <feColorMatrix values="0 0 0 0 0   0 0 0 0 0   0 0 0 0 0  0 0 0 0.25 0" type="matrix" in="shadowBlurOuter1" result="shadowMatrixOuter1"></feColorMatrix>
            <feMerge>
                <feMergeNode in="shadowMatrixOuter1"></feMergeNode>
                <feMergeNode in="SourceGraphic"></feMergeNode>
            </feMerge>
        </filter>
        <filter x="-13.7%" y="-19.8%" width="127.3%" height="139.6%" filterUnits="objectBoundingBox" id="filter-2">
            <feOffset dx="0" dy="5" in="SourceAlpha" result="shadowOffsetOuter1"></feOffset>
            <feGaussianBlur stdDeviation="5" in="shadowOffsetOuter1" result="shadowBlurOuter1"></feGaussianBlur>
            <feColorMatrix values="0 0 0 0 0   0 0 0 0 0   0 0 0 0 0  0 0 0 0.25 0" type="matrix" in="shadowBlurOuter1" result="shadowMatrixOuter1"></feColorMatrix>
            <feMerge>
                <feMergeNode in="shadowMatrixOuter1"></feMergeNode>
                <feMergeNode in="SourceGraphic"></feMergeNode>
            </feMerge>
        </filter>
    </defs>
    <g id="Page-1" stroke="none" stroke-width="1" fill="none" fill-rule="evenodd">
        <g id="FAQs---What-is-a-Backlink---Mobile" transform="translate(-21.000000, -7424.000000)">
            <g id="img_link_juice_mob" transform="translate(31.000000, 7429.000000)">
                <g id="img_analyse_website">
                    <g id="img_blogs" filter="url(#filter-1)">
                        <rect id="Rectangle" fill="#FFFFFF" x="0" y="0" width="215.617699" height="149" rx="13"></rect>
                        <path d="M13,0 L203,0 C210.179702,-1.31888981e-15 216,5.82029825 216,13 L216,25.2802057 L216,25.2802057 L0,25.2802057 L0,13 C-8.79259876e-16,5.82029825 5.82029825,1.31888981e-15 13,0 Z" id="Rectangle-2" fill="#FF5254"></path>
                        <polygon id="Fill-5" fill="#E9ECED" points="0 38.6863753 215.617699 38.6863753 215.617699 25.2802057 0 25.2802057"></polygon>
                        <path d="M38.2300885,13.7897316 C38.2300885,15.6933307 36.6898666,17.2365039 34.789908,17.2365039 C32.8899494,17.2365039 31.3486726,15.6933307 31.3486726,13.7897316 C31.3486726,11.8861324 32.8899494,10.3419023 34.789908,10.3419023 C36.6898666,10.3419023 38.2300885,11.8861324 38.2300885,13.7897316" id="Fill-6" fill="#FFFFFF"></path>
                        <path d="M28.2902655,13.7897316 C28.2902655,15.6933307 26.7489887,17.2365039 24.84903,17.2365039 C22.9490714,17.2365039 21.4088496,15.6933307 21.4088496,13.7897316 C21.4088496,11.8861324 22.9490714,10.3419023 24.84903,10.3419023 C26.7489887,10.3419023 28.2902655,11.8861324 28.2902655,13.7897316" id="Fill-7" fill="#FFFFFF"></path>
                        <path d="M18.7327434,13.7897316 C18.7327434,15.6933307 17.1925215,17.2365039 15.2915079,17.2365039 C13.3915493,17.2365039 11.8513274,15.6933307 11.8513274,13.7897316 C11.8513274,11.8861324 13.3915493,10.3419023 15.2915079,10.3419023 C17.1925215,10.3419023 18.7327434,11.8861324 18.7327434,13.7897316" id="Fill-8" fill="#FFFFFF"></path>
                        <path d="M47.0266715,11.1079692 L181.971559,11.1079692 C183.029276,11.1079692 183.886726,11.9654187 183.886726,13.0231362 C183.886726,14.0808538 183.029276,14.9383033 181.971559,14.9383033 L47.0266715,14.9383033 C45.9689539,14.9383033 45.1115044,14.0808538 45.1115044,13.0231362 C45.1115044,11.9654187 45.9689539,11.1079692 47.0266715,11.1079692 Z" id="Rectangle-3" fill="#FFFFFF"></path>
                        <polygon id="Fill-10" fill="#FFFFFF" points="197.074996 8.80976864 197.842145 11.1506355 200.325664 11.1506355 198.3162 12.5974365 199.084459 14.9383033 197.074996 13.4915023 195.066643 14.9383033 195.833792 12.5974365 193.826549 11.1506355 196.308957 11.1506355"></polygon>
                        <g id="Group-7" transform="translate(84.870796, 56.688946)" fill="#DADFE1">
                            <polygon id="Fill-16" points="0 26.8123393 61.4874753 26.8123393 61.4874753 22.1201799 0 22.1201799"></polygon>
                            <polygon id="Fill-17" points="0 15.4170951 87.2725455 15.4170951 87.2725455 10.7249357 0 10.7249357"></polygon>
                            <polygon id="Fill-18" points="0 4.69215938 112.39646 4.69215938 112.39646 0 0 0"></polygon>
                        </g>
                        <g id="Group-7-Copy" transform="translate(84.870796, 102.652956)" fill="#DADFE1">
                            <polygon id="Fill-16" points="0 26.8123393 61.4874753 26.8123393 61.4874753 22.1201799 0 22.1201799"></polygon>
                            <polygon id="Fill-17" points="0 15.4170951 87.2725455 15.4170951 87.2725455 10.7249357 0 10.7249357"></polygon>
                            <polygon id="Fill-18" points="0 4.69215938 112.39646 4.69215938 112.39646 0 0 0"></polygon>
                        </g>
                        <rect id="Rectangle-4" fill="#FF5254" x="13.7628319" y="51.3264781" width="60.4035398" height="37.5372751"></rect>
                        <rect id="Rectangle-4-Copy" fill="#FF5254" x="13.7628319" y="96.907455" width="60.4035398" height="37.5372751"></rect>
                    </g>
                </g>
                <g id="img_analyse_website" transform="translate(97.000000, 79.000000)">
                    <g id="img_blogs" filter="url(#filter-2)">
                        <rect id="Rectangle" fill="#FFFFFF" x="0" y="0" width="215.617699" height="149" rx="13"></rect>
                        <path d="M13,0 L203,0 C210.179702,-1.31888981e-15 216,5.82029825 216,13 L216,25.2802057 L216,25.2802057 L0,25.2802057 L0,13 C-8.79259876e-16,5.82029825 5.82029825,1.31888981e-15 13,0 Z" id="Rectangle-2" fill="#FF5254"></path>
                        <polygon id="Fill-5" fill="#E9ECED" points="0 38.6863753 215.617699 38.6863753 215.617699 25.2802057 0 25.2802057"></polygon>
                        <path d="M38.2300885,13.7897316 C38.2300885,15.6933307 36.6898666,17.2365039 34.789908,17.2365039 C32.8899494,17.2365039 31.3486726,15.6933307 31.3486726,13.7897316 C31.3486726,11.8861324 32.8899494,10.3419023 34.789908,10.3419023 C36.6898666,10.3419023 38.2300885,11.8861324 38.2300885,13.7897316" id="Fill-6" fill="#FFFFFF"></path>
                        <path d="M28.2902655,13.7897316 C28.2902655,15.6933307 26.7489887,17.2365039 24.84903,17.2365039 C22.9490714,17.2365039 21.4088496,15.6933307 21.4088496,13.7897316 C21.4088496,11.8861324 22.9490714,10.3419023 24.84903,10.3419023 C26.7489887,10.3419023 28.2902655,11.8861324 28.2902655,13.7897316" id="Fill-7" fill="#FFFFFF"></path>
                        <path d="M18.7327434,13.7897316 C18.7327434,15.6933307 17.1925215,17.2365039 15.2915079,17.2365039 C13.3915493,17.2365039 11.8513274,15.6933307 11.8513274,13.7897316 C11.8513274,11.8861324 13.3915493,10.3419023 15.2915079,10.3419023 C17.1925215,10.3419023 18.7327434,11.8861324 18.7327434,13.7897316" id="Fill-8" fill="#FFFFFF"></path>
                        <path d="M47.0266715,11.1079692 L181.971559,11.1079692 C183.029276,11.1079692 183.886726,11.9654187 183.886726,13.0231362 C183.886726,14.0808538 183.029276,14.9383033 181.971559,14.9383033 L47.0266715,14.9383033 C45.9689539,14.9383033 45.1115044,14.0808538 45.1115044,13.0231362 C45.1115044,11.9654187 45.9689539,11.1079692 47.0266715,11.1079692 Z" id="Rectangle-3" fill="#FFFFFF"></path>
                        <polygon id="Fill-10" fill="#FFFFFF" points="197.074996 8.80976864 197.842145 11.1506355 200.325664 11.1506355 198.3162 12.5974365 199.084459 14.9383033 197.074996 13.4915023 195.066643 14.9383033 195.833792 12.5974365 193.826549 11.1506355 196.308957 11.1506355"></polygon>
                        <g id="Group-7" transform="translate(84.870796, 56.688946)" fill="#DADFE1">
                            <polygon id="Fill-16" points="0 26.8123393 61.4874753 26.8123393 61.4874753 22.1201799 0 22.1201799"></polygon>
                            <polygon id="Fill-17" points="0 15.4170951 87.2725455 15.4170951 87.2725455 10.7249357 0 10.7249357"></polygon>
                            <polygon id="Fill-18" points="0 4.69215938 112.39646 4.69215938 112.39646 0 0 0"></polygon>
                        </g>
                        <g id="Group-7-Copy" transform="translate(84.870796, 102.652956)" fill="#DADFE1">
                            <polygon id="Fill-16" points="0 26.8123393 61.4874753 26.8123393 61.4874753 22.1201799 0 22.1201799"></polygon>
                            <polygon id="Fill-17" points="0 15.4170951 87.2725455 15.4170951 87.2725455 10.7249357 0 10.7249357"></polygon>
                            <polygon id="Fill-18" points="0 4.69215938 112.39646 4.69215938 112.39646 0 0 0"></polygon>
                        </g>
                        <rect id="Rectangle-4" fill="#427FE0" x="13.7628319" y="51.3264781" width="60.4035398" height="37.5372751"></rect>
                        <rect id="Rectangle-4-Copy" fill="#427FE0" x="13.7628319" y="96.907455" width="60.4035398" height="37.5372751"></rect>
                    </g>
                </g>
                <g id="link" transform="translate(101.974802, 138.026501) rotate(-276.000000) translate(-101.974802, -138.026501) translate(78.474802, 114.526501)" fill="#FF5254" fill-rule="nonzero">
                    <path d="M42.9696566,4.01027508 C38.2724693,-0.730501427 30.6306089,-0.730501427 25.9333325,4.01027508 L18.933891,11.0746704 C17.7124743,12.3074217 16.7227993,13.8802082 16.0849295,15.8004122 C16.0742255,15.8040134 16.0638783,15.8095051 16.0531743,15.8131062 C14.6024241,20.2178987 15.7027072,25.0078305 18.933891,28.2689993 C19.8993035,29.2433707 21.0351774,30.0456989 22.265425,30.6379921 L22.719721,30.1794803 C24.2908913,28.5937297 24.2908913,26.0337878 22.719721,24.4479473 C20.1074965,21.8114817 20.1074965,17.5319179 22.719721,14.8955423 L29.7191624,7.83114703 C32.3313869,5.19468147 36.5715129,5.19468147 39.1837374,7.83114703 C41.7959619,10.4676126 41.7959619,14.7470864 39.1837374,17.383552 L33.869018,22.7475913 C34.5777126,24.9591254 34.7278364,27.3010198 34.3848621,29.5804349 C34.9445926,29.1866531 35.4831827,28.7604613 35.970126,28.2689993 L42.9695674,21.204604 C47.6668438,16.4638275 47.6668438,8.75096157 42.9696566,4.01027508 Z" id="Path"></path>
                    <path d="M27.9021481,18.5656056 C26.9372761,17.5912062 25.8022165,16.788765 24.5536688,16.2155412 L24.1184378,16.6550698 C22.5482364,18.2407758 22.5481472,20.8008812 24.1184378,22.3867673 C26.7291997,25.0233086 26.7291997,29.3029953 24.1184378,31.9394465 C21.9085841,34.1711209 19.2125056,36.8942714 17.1055312,39.0220507 C14.4947693,41.6585919 10.2570174,41.6585919 7.64625553,39.0220507 C5.03549367,36.3855094 5.03549367,32.1059128 7.64625553,29.4693715 L12.9753835,24.0871721 C12.2670856,21.8755745 12.1171351,19.5335228 12.4599174,17.2540423 C11.9004111,17.6480154 11.3621225,18.0741295 10.8753628,18.5656056 L3.86245613,25.6482098 C-0.832101114,30.3891224 -0.832101114,38.1021197 3.86245613,42.8431224 C8.55701337,47.584125 16.194595,47.584035 20.8892414,42.8431224 L27.9021481,35.7605182 C29.1228809,34.5276414 30.1120017,32.9548998 30.7495144,31.0346406 C30.7602124,31.0310394 30.7705538,31.0255476 30.7812518,31.0219463 C32.2311897,26.6169373 31.1315227,21.826868 27.9021481,18.5656056 Z" id="Path"></path>
                    <path d="M39.764616,37.2175091 L37.8441444,35.294354 C37.3133699,34.7628378 36.4543569,34.7628378 35.9236729,35.294354 C35.3928984,35.8258701 35.3928984,36.6860835 35.9236729,37.2175091 L37.8441444,39.1406642 C38.3749189,39.6721804 39.233932,39.6721804 39.764616,39.1406642 C40.2953,38.609148 40.2953,37.7490253 39.764616,37.2175091 Z" id="Path"></path>
                    <path d="M10.9104148,8.97932219 L8.98991832,7.05616706 C8.45916194,6.52465088 7.60017822,6.52465088 7.06951234,7.05616706 C6.53875596,7.58768324 6.53875596,8.44789663 7.06951234,8.97932219 L8.98991832,10.9024773 C9.5206747,11.4339935 10.3796584,11.4339935 10.9104148,10.9024773 C11.4411712,10.3709611 11.4411712,9.51074774 10.9104148,8.97932219 Z" id="Path"></path>
                    <path d="M44.3516436,27.7678579 L41.8453558,27.0994498 C41.1529347,26.9149754 40.4417551,27.3231412 40.2563315,28.0120177 C40.0708214,28.7051084 40.4858419,29.4098093 41.173595,29.5929938 L43.6798827,30.2613158 C44.3723038,30.4457903 45.0834834,30.0376244 45.268907,29.3487479 C45.4524289,28.6598713 45.0439782,27.9488062 44.3516436,27.7678579 Z" id="Path"></path>
                    <path d="M5.66073759,17.2606255 L3.15454256,16.5922175 C2.46214708,16.407743 1.75099382,16.8159089 1.56557705,17.5047854 C1.3799874,18.1977041 1.79499249,18.902491 2.48280657,19.0856754 L4.9890016,19.7540835 C5.68139709,19.9385579 6.39255035,19.5303921 6.57796711,18.8415155 C6.76243303,18.151779 6.35045339,17.4405419 5.66073759,17.2606255 Z" id="Path"></path>
                    <path d="M30.2419423,43.7181098 L29.5745462,41.2086962 C29.3894685,40.5127284 28.6837686,40.1046339 27.9958464,40.2902888 C27.3079242,40.4759437 26.9003239,41.1880102 27.0845428,41.8812949 L27.7520248,44.3907085 C27.9349554,45.0794059 28.6387659,45.4948574 29.3307246,45.309116 C30.0186467,45.1234611 30.4261611,44.4113945 30.2419423,43.7181098 Z" id="Path"></path>
                    <path d="M19.7495327,4.97256633 L19.0820671,2.46279277 C18.8987115,1.76672513 18.1913113,1.36038991 17.5034059,1.54425357 C16.8155006,1.72993509 16.4079103,2.44210378 16.5921246,3.13548792 L17.2595903,5.64526148 C17.3200504,5.87310006 17.4376212,6.07046783 17.5923785,6.22654418 C17.9073893,6.54406391 18.3772432,6.68758836 18.8381656,6.56380069 C19.5261568,6.37820573 19.9337471,5.66595047 19.7495327,4.97256633 Z" id="Path"></path>
                </g>
                <g id="link" transform="translate(216.045913, 58.156848) rotate(-276.000000) translate(-216.045913, -58.156848) translate(192.545913, 34.656848)" fill="#427FE0" fill-rule="nonzero">
                    <path d="M42.9696566,4.01027508 C38.2724693,-0.730501427 30.6306089,-0.730501427 25.9333325,4.01027508 L18.933891,11.0746704 C17.7124743,12.3074217 16.7227993,13.8802082 16.0849295,15.8004122 C16.0742255,15.8040134 16.0638783,15.8095051 16.0531743,15.8131062 C14.6024241,20.2178987 15.7027072,25.0078305 18.933891,28.2689993 C19.8993035,29.2433707 21.0351774,30.0456989 22.265425,30.6379921 L22.719721,30.1794803 C24.2908913,28.5937297 24.2908913,26.0337878 22.719721,24.4479473 C20.1074965,21.8114817 20.1074965,17.5319179 22.719721,14.8955423 L29.7191624,7.83114703 C32.3313869,5.19468147 36.5715129,5.19468147 39.1837374,7.83114703 C41.7959619,10.4676126 41.7959619,14.7470864 39.1837374,17.383552 L33.869018,22.7475913 C34.5777126,24.9591254 34.7278364,27.3010198 34.3848621,29.5804349 C34.9445926,29.1866531 35.4831827,28.7604613 35.970126,28.2689993 L42.9695674,21.204604 C47.6668438,16.4638275 47.6668438,8.75096157 42.9696566,4.01027508 Z" id="Path"></path>
                    <path d="M27.9021481,18.5656056 C26.9372761,17.5912062 25.8022165,16.788765 24.5536688,16.2155412 L24.1184378,16.6550698 C22.5482364,18.2407758 22.5481472,20.8008812 24.1184378,22.3867673 C26.7291997,25.0233086 26.7291997,29.3029953 24.1184378,31.9394465 C21.9085841,34.1711209 19.2125056,36.8942714 17.1055312,39.0220507 C14.4947693,41.6585919 10.2570174,41.6585919 7.64625553,39.0220507 C5.03549367,36.3855094 5.03549367,32.1059128 7.64625553,29.4693715 L12.9753835,24.0871721 C12.2670856,21.8755745 12.1171351,19.5335228 12.4599174,17.2540423 C11.9004111,17.6480154 11.3621225,18.0741295 10.8753628,18.5656056 L3.86245613,25.6482098 C-0.832101114,30.3891224 -0.832101114,38.1021197 3.86245613,42.8431224 C8.55701337,47.584125 16.194595,47.584035 20.8892414,42.8431224 L27.9021481,35.7605182 C29.1228809,34.5276414 30.1120017,32.9548998 30.7495144,31.0346406 C30.7602124,31.0310394 30.7705538,31.0255476 30.7812518,31.0219463 C32.2311897,26.6169373 31.1315227,21.826868 27.9021481,18.5656056 Z" id="Path"></path>
                    <path d="M39.764616,37.2175091 L37.8441444,35.294354 C37.3133699,34.7628378 36.4543569,34.7628378 35.9236729,35.294354 C35.3928984,35.8258701 35.3928984,36.6860835 35.9236729,37.2175091 L37.8441444,39.1406642 C38.3749189,39.6721804 39.233932,39.6721804 39.764616,39.1406642 C40.2953,38.609148 40.2953,37.7490253 39.764616,37.2175091 Z" id="Path"></path>
                    <path d="M10.9104148,8.97932219 L8.98991832,7.05616706 C8.45916194,6.52465088 7.60017822,6.52465088 7.06951234,7.05616706 C6.53875596,7.58768324 6.53875596,8.44789663 7.06951234,8.97932219 L8.98991832,10.9024773 C9.5206747,11.4339935 10.3796584,11.4339935 10.9104148,10.9024773 C11.4411712,10.3709611 11.4411712,9.51074774 10.9104148,8.97932219 Z" id="Path"></path>
                    <path d="M44.3516436,27.7678579 L41.8453558,27.0994498 C41.1529347,26.9149754 40.4417551,27.3231412 40.2563315,28.0120177 C40.0708214,28.7051084 40.4858419,29.4098093 41.173595,29.5929938 L43.6798827,30.2613158 C44.3723038,30.4457903 45.0834834,30.0376244 45.268907,29.3487479 C45.4524289,28.6598713 45.0439782,27.9488062 44.3516436,27.7678579 Z" id="Path"></path>
                    <path d="M5.66073759,17.2606255 L3.15454256,16.5922175 C2.46214708,16.407743 1.75099382,16.8159089 1.56557705,17.5047854 C1.3799874,18.1977041 1.79499249,18.902491 2.48280657,19.0856754 L4.9890016,19.7540835 C5.68139709,19.9385579 6.39255035,19.5303921 6.57796711,18.8415155 C6.76243303,18.151779 6.35045339,17.4405419 5.66073759,17.2606255 Z" id="Path"></path>
                    <path d="M30.2419423,43.7181098 L29.5745462,41.2086962 C29.3894685,40.5127284 28.6837686,40.1046339 27.9958464,40.2902888 C27.3079242,40.4759437 26.9003239,41.1880102 27.0845428,41.8812949 L27.7520248,44.3907085 C27.9349554,45.0794059 28.6387659,45.4948574 29.3307246,45.309116 C30.0186467,45.1234611 30.4261611,44.4113945 30.2419423,43.7181098 Z" id="Path"></path>
                    <path d="M19.7495327,4.97256633 L19.0820671,2.46279277 C18.8987115,1.76672513 18.1913113,1.36038991 17.5034059,1.54425357 C16.8155006,1.72993509 16.4079103,2.44210378 16.5921246,3.13548792 L17.2595903,5.64526148 C17.3200504,5.87310006 17.4376212,6.07046783 17.5923785,6.22654418 C17.9073893,6.54406391 18.3772432,6.68758836 18.8381656,6.56380069 C19.5261568,6.37820573 19.9337471,5.66595047 19.7495327,4.97256633 Z" id="Path"></path>
                </g>
            </g>
        </g>
    </g>
</svg>