<?xml version="1.0" encoding="UTF-8"?>
<svg width="313px" height="357px" viewBox="0 0 313 357" version="1.1" xmlns="http://www.w3.org/2000/svg" xmlns:xlink="http://www.w3.org/1999/xlink">
    <!-- Generator: Sketch 63.1 (92452) - https://sketch.com -->
    <title>img_93_percent_mob</title>
    <desc>Created with Sketch.</desc>
    <defs>
        <linearGradient x1="46.7269479%" y1="-48.5963542%" x2="50.8196781%" y2="29.7356771%" id="linearGradient-1">
            <stop stop-color="#80C3F3" offset="0%"></stop>
            <stop stop-color="#4A90E2" offset="100%"></stop>
        </linearGradient>
    </defs>
    <g id="Page-1" stroke="none" stroke-width="1" fill="none" fill-rule="evenodd">
        <g id="FAQs---What-is-included-within-an-SEO-campaign---Mobile" transform="translate(-31.000000, -1284.000000)">
            <g id="img_93_percent_mob" transform="translate(31.000000, 1284.000000)">
                <ellipse id="Oval-2" fill="url(#linearGradient-1)" cx="156.5" cy="157" rx="156.5" ry="157"></ellipse>
                <ellipse id="Oval-4" fill="#000000" opacity="0.05" cx="157.5" cy="344.5" rx="142.5" ry="12.5"></ellipse>
                <path d="M63.3806441,212.103284 C63.3806441,212.684218 63.2800847,213.224699 63.078963,213.724743 C62.8778413,214.224787 62.5946146,214.659562 62.2292742,215.02908 C61.8639339,215.398598 61.4238714,215.688141 60.9090737,215.897719 C60.3942759,216.107296 59.8232096,216.212083 59.1958575,216.212083 C58.5685054,216.212083 57.9965164,216.107296 57.4798735,215.897719 C56.9632306,215.688141 56.5213231,215.398598 56.1541376,215.02908 C55.7869521,214.659562 55.5028027,214.224787 55.301681,213.724743 C55.1005593,213.224699 55,212.684218 55,212.103284 C55,211.52235 55.1005593,210.981869 55.301681,210.481825 C55.5028027,209.981781 55.7869521,209.547925 56.1541376,209.180246 C56.5213231,208.812566 56.9632306,208.523942 57.4798735,208.314365 C57.9965164,208.104787 58.5685054,208 59.1958575,208 C59.8232096,208 60.3942759,208.105706 60.9090737,208.317122 C61.4238714,208.528538 61.8639339,208.818081 62.2292742,209.185761 C62.5946146,209.55344 62.8778413,209.987296 63.078963,210.48734 C63.2800847,210.987384 63.3806441,211.526027 63.3806441,212.103284 Z M61.4653846,212.103284 C61.4653846,211.70619 61.4137211,211.348627 61.3103925,211.030584 C61.2070639,210.712541 61.0585313,210.44322 60.8647902,210.222612 C60.6710491,210.002004 60.4339505,209.832874 60.1534872,209.715217 C59.8730239,209.597559 59.5538172,209.538732 59.1958575,209.538732 C58.8342074,209.538732 58.512233,209.597559 58.2299246,209.715217 C57.9476161,209.832874 57.7095949,210.002004 57.5158539,210.222612 C57.3221128,210.44322 57.1735802,210.712541 57.0702516,211.030584 C56.966923,211.348627 56.9152595,211.70619 56.9152595,212.103284 C56.9152595,212.504055 56.966923,212.863456 57.0702516,213.181499 C57.1735802,213.499542 57.3221128,213.768863 57.5158539,213.989471 C57.7095949,214.210079 57.9476161,214.37829 58.2299246,214.494109 C58.512233,214.609928 58.8342074,214.667837 59.1958575,214.667837 C59.5538172,214.667837 59.8730239,214.609928 60.1534872,214.494109 C60.4339505,214.37829 60.6710491,214.210079 60.8647902,213.989471 C61.0585313,213.768863 61.2070639,213.499542 61.3103925,213.181499 C61.4137211,212.863456 61.4653846,212.504055 61.4653846,212.103284 Z M71.3738077,208.088243 L71.3738077,209.522186 L68.0636193,209.522186 L68.0636193,211.557283 L70.8202645,211.557283 L70.8202645,212.996741 L68.0636193,212.996741 L68.0636193,216.123841 L66.1815724,216.123841 L66.1815724,208.088243 L71.3738077,208.088243 Z M86.2530485,212.103284 C86.2530485,212.684218 86.1524891,213.224699 85.9513674,213.724743 C85.7502457,214.224787 85.467019,214.659562 85.1016786,215.02908 C84.7363383,215.398598 84.2962758,215.688141 83.7814781,215.897719 C83.2666803,216.107296 82.695614,216.212083 82.0682619,216.212083 C81.4409098,216.212083 80.8689209,216.107296 80.352278,215.897719 C79.835635,215.688141 79.3937275,215.398598 79.026542,215.02908 C78.6593565,214.659562 78.3752072,214.224787 78.1740855,213.724743 C77.9729638,213.224699 77.8724044,212.684218 77.8724044,212.103284 C77.8724044,211.52235 77.9729638,210.981869 78.1740855,210.481825 C78.3752072,209.981781 78.6593565,209.547925 79.026542,209.180246 C79.3937275,208.812566 79.835635,208.523942 80.352278,208.314365 C80.8689209,208.104787 81.4409098,208 82.0682619,208 C82.695614,208 83.2666803,208.105706 83.7814781,208.317122 C84.2962758,208.528538 84.7363383,208.818081 85.1016786,209.185761 C85.467019,209.55344 85.7502457,209.987296 85.9513674,210.48734 C86.1524891,210.987384 86.2530485,211.526027 86.2530485,212.103284 Z M84.337789,212.103284 C84.337789,211.70619 84.2861255,211.348627 84.1827969,211.030584 C84.0794683,210.712541 83.9309357,210.44322 83.7371946,210.222612 C83.5434535,210.002004 83.3063549,209.832874 83.0258916,209.715217 C82.7454283,209.597559 82.4262216,209.538732 82.0682619,209.538732 C81.7066118,209.538732 81.3846374,209.597559 81.102329,209.715217 C80.8200205,209.832874 80.5819994,210.002004 80.3882583,210.222612 C80.1945172,210.44322 80.0459846,210.712541 79.942656,211.030584 C79.8393274,211.348627 79.7876639,211.70619 79.7876639,212.103284 C79.7876639,212.504055 79.8393274,212.863456 79.942656,213.181499 C80.0459846,213.499542 80.1945172,213.768863 80.3882583,213.989471 C80.5819994,214.210079 80.8200205,214.37829 81.102329,214.494109 C81.3846374,214.609928 81.7066118,214.667837 82.0682619,214.667837 C82.4262216,214.667837 82.7454283,214.609928 83.0258916,214.494109 C83.3063549,214.37829 83.5434535,214.210079 83.7371946,213.989471 C83.9309357,213.768863 84.0794683,213.499542 84.1827969,213.181499 C84.2861255,212.863456 84.337789,212.504055 84.337789,212.103284 Z M89.0539769,208.088243 L90.0392838,208.088243 C90.1204705,208.088243 90.1887401,208.091919 90.2440947,208.099273 C90.2994493,208.106627 90.3492677,208.120414 90.3935514,208.140637 C90.4378349,208.160859 90.480273,208.189354 90.5208663,208.226122 C90.5614597,208.26289 90.6075879,208.312526 90.6592521,208.375031 L94.4897711,213.200802 C94.4750099,213.046377 94.4639391,212.89655 94.4565585,212.751316 C94.4491779,212.606083 94.4454876,212.469124 94.4454876,212.340436 L94.4454876,208.088243 L96.0950464,208.088243 L96.0950464,216.123841 L95.1208104,216.123841 C94.9768884,216.123841 94.8551101,216.10178 94.7554718,216.057659 C94.6558336,216.013537 94.559887,215.932649 94.4676294,215.814991 L90.6647876,211.027827 L90.6924647,211.438706 L90.6924647,211.438706 C90.6998453,211.57291 90.7035356,211.698838 90.7035356,211.816495 L90.7035356,216.123841 L89.0539769,216.123841 L89.0539769,208.088243 Z M101.198714,214.634746 L104.187848,214.634746 L104.187848,216.123841 L99.3277385,216.123841 L99.3277385,208.088243 L101.198714,208.088243 L101.198714,214.634746 Z M109.025815,216.123841 L107.143768,216.123841 L107.143768,208.088243 L109.025815,208.088243 L109.025815,216.123841 Z M112.42457,208.088243 L113.409877,208.088243 C113.491064,208.088243 113.559333,208.091919 113.614688,208.099273 C113.670043,208.106627 113.719861,208.120414 113.764145,208.140637 C113.808428,208.160859 113.850866,208.189354 113.89146,208.226122 C113.932053,208.26289 113.978181,208.312526 114.029845,208.375031 L117.860364,213.200802 C117.845603,213.046377 117.834532,212.89655 117.827152,212.751316 C117.819771,212.606083 117.816081,212.469124 117.816081,212.340436 L117.816081,208.088243 L119.46564,208.088243 L119.46564,216.123841 L118.491404,216.123841 C118.347482,216.123841 118.225703,216.10178 118.126065,216.057659 C118.026427,216.013537 117.93048,215.932649 117.838223,215.814991 L114.035381,211.027827 L114.063058,211.438706 L114.063058,211.438706 C114.070439,211.57291 114.074129,211.698838 114.074129,211.816495 L114.074129,216.123841 L112.42457,216.123841 L112.42457,208.088243 Z M127.890567,208.088243 L127.890567,209.522186 L124.580379,209.522186 L124.580379,211.397343 L127.115606,211.397343 L127.115606,212.776134 L124.580379,212.776134 L124.580379,214.689897 L127.890567,214.689897 L127.890567,216.123841 L122.698332,216.123841 L122.698332,208.088243 L127.890567,208.088243 Z M140.090659,208.088243 L140.090659,209.522186 L136.78047,209.522186 L136.78047,211.397343 L139.315698,211.397343 L139.315698,212.776134 L136.78047,212.776134 L136.78047,214.689897 L140.090659,214.689897 L140.090659,216.123841 L134.898423,216.123841 L134.898423,208.088243 L140.090659,208.088243 Z M145.04487,211.992981 L142.54839,208.088243 L144.419366,208.088243 C144.541146,208.088243 144.630635,208.103869 144.687835,208.135122 C144.745034,208.166374 144.795775,208.218768 144.840059,208.292304 L146.445334,211.000251 C146.463786,210.952452 146.485005,210.906493 146.508992,210.862372 C146.532979,210.81825 146.559733,210.772291 146.589256,210.724492 L147.995255,208.31988 C148.087513,208.165454 148.212982,208.088243 148.371665,208.088243 L150.165145,208.088243 L147.635452,211.910253 L150.220499,216.123841 L148.349523,216.123841 C148.227743,216.123841 148.129029,216.094427 148.053377,216.035598 C147.977726,215.976769 147.91776,215.906911 147.873476,215.826022 L146.25713,213.013287 C146.227607,213.094176 146.194395,213.164034 146.157492,213.222863 L144.651854,215.826022 C144.607571,215.903234 144.548527,215.972173 144.474721,216.03284 C144.400914,216.093507 144.308658,216.123841 144.197949,216.123841 L142.448752,216.123841 L145.04487,211.992981 Z M154.71527,213.437954 L154.71527,216.123841 L152.844294,216.123841 L152.844294,208.088243 L155.689506,208.088243 C156.257813,208.088243 156.745849,208.155343 157.153627,208.289546 C157.561406,208.423749 157.897219,208.608506 158.161076,208.843821 C158.424933,209.079135 158.619594,209.356729 158.745064,209.676611 C158.870535,209.996492 158.933269,210.342106 158.933269,210.713462 C158.933269,211.114233 158.868689,211.481907 158.739529,211.816495 C158.610368,212.151084 158.41294,212.43787 158.147237,212.676861 C157.881535,212.915853 157.5448,213.102448 157.137021,213.236651 C156.729242,213.370854 156.246742,213.437954 155.689506,213.437954 L154.71527,213.437954 Z M154.71527,212.031587 L155.689506,212.031587 C156.176626,212.031587 156.5272,211.91577 156.741238,211.684131 C156.955276,211.452493 157.062293,211.12894 157.062293,210.713462 C157.062293,210.529622 157.034616,210.36233 156.979261,210.211582 C156.923907,210.060833 156.839954,209.931228 156.727399,209.822763 C156.614845,209.714297 156.47277,209.630651 156.301171,209.571823 C156.129572,209.512994 155.925685,209.48358 155.689506,209.48358 L154.71527,209.48358 L154.71527,212.031587 Z M167.003928,208.088243 L167.003928,209.522186 L163.69374,209.522186 L163.69374,211.397343 L166.228968,211.397343 L166.228968,212.776134 L163.69374,212.776134 L163.69374,214.689897 L167.003928,214.689897 L167.003928,216.123841 L161.811693,216.123841 L161.811693,208.088243 L167.003928,208.088243 Z M171.841896,213.151166 L171.841896,216.123841 L169.97092,216.123841 L169.97092,208.088243 L172.594715,208.088243 C173.177783,208.088243 173.675044,208.14799 174.086514,208.267486 C174.497983,208.386981 174.833796,208.553354 175.093962,208.766608 C175.354129,208.979862 175.543254,209.231719 175.661344,209.522186 C175.779434,209.812653 175.838478,210.128853 175.838478,210.470795 C175.838478,210.731847 175.80342,210.978189 175.733305,211.209827 C175.663189,211.441465 175.558939,211.655635 175.420553,211.852344 C175.282166,212.049053 175.112415,212.224618 174.911293,212.379042 C174.710171,212.533468 174.478608,212.660315 174.216596,212.759589 C174.342067,212.822094 174.459232,212.899306 174.568096,212.991226 C174.67696,213.083146 174.771984,213.195286 174.853171,213.327651 L176.569155,216.123841 L174.875313,216.123841 C174.561637,216.123841 174.336531,216.006185 174.19999,215.77087 L172.860415,213.437954 C172.80137,213.335004 172.732178,213.261469 172.652837,213.217348 C172.573495,213.173226 172.461865,213.151166 172.317943,213.151166 L171.841896,213.151166 Z M171.841896,211.866132 L172.594715,211.866132 C172.849346,211.866132 173.066148,211.83396 173.245128,211.769616 C173.424108,211.705273 173.570795,211.616112 173.685195,211.502131 C173.799594,211.38815 173.882625,211.254868 173.934289,211.102281 C173.985953,210.949694 174.011785,210.78516 174.011785,210.608674 C174.011785,210.255701 173.896465,209.979946 173.665821,209.781399 C173.435177,209.582852 173.078145,209.48358 172.594715,209.48358 L171.841896,209.48358 L171.841896,211.866132 Z M181.285343,216.123841 L179.403296,216.123841 L179.403296,208.088243 L181.285343,208.088243 L181.285343,216.123841 Z M189.876333,208.088243 L189.876333,209.522186 L186.566145,209.522186 L186.566145,211.397343 L189.101372,211.397343 L189.101372,212.776134 L186.566145,212.776134 L186.566145,214.689897 L189.876333,214.689897 L189.876333,216.123841 L184.684098,216.123841 L184.684098,208.088243 L189.876333,208.088243 Z M192.843324,208.088243 L193.828631,208.088243 C193.909818,208.088243 193.978087,208.091919 194.033442,208.099273 C194.088797,208.106627 194.138615,208.120414 194.182899,208.140637 C194.227182,208.160859 194.26962,208.189354 194.310214,208.226122 C194.350807,208.26289 194.396935,208.312526 194.448599,208.375031 L198.279118,213.200802 C198.264357,213.046377 198.253286,212.89655 198.245906,212.751316 C198.238525,212.606083 198.234835,212.469124 198.234835,212.340436 L198.234835,208.088243 L199.884394,208.088243 L199.884394,216.123841 L198.910158,216.123841 C198.766236,216.123841 198.644457,216.10178 198.544819,216.057659 C198.445181,216.013537 198.349234,215.932649 198.256977,215.814991 L194.454135,211.027827 C194.465206,211.167545 194.474431,211.304503 194.481812,211.438706 C194.489193,211.57291 194.492883,211.698838 194.492883,211.816495 L194.492883,216.123841 L192.843324,216.123841 L192.843324,208.088243 Z M208.536274,214.044623 C208.580557,214.044623 208.62484,214.052895 208.669124,214.069441 C208.713408,214.085987 208.755846,214.114481 208.796439,214.154926 L209.538187,214.932565 C209.21344,215.355396 208.80659,215.674353 208.317624,215.889446 C207.828659,216.104539 207.250212,216.212083 206.582266,216.212083 C205.969675,216.212083 205.420751,216.108215 204.935475,215.900476 C204.4502,215.692737 204.038737,215.405952 203.701074,215.04011 C203.363411,214.674269 203.104171,214.240414 202.923346,213.738531 C202.742521,213.236648 202.65211,212.691571 202.65211,212.103284 C202.65211,211.503966 202.755437,210.953374 202.962094,210.451492 C203.168751,209.949609 203.457513,209.516673 203.828389,209.15267 C204.199265,208.788667 204.643017,208.505558 205.15966,208.303334 C205.676303,208.10111 206.246447,208 206.870109,208 C207.172714,208 207.457786,208.026656 207.725333,208.07997 C207.99288,208.133283 208.242895,208.206818 208.475384,208.300577 C208.707873,208.394335 208.921908,208.506475 209.117494,208.637002 C209.31308,208.767528 209.486522,208.91184 209.637825,209.069942 L209.006785,209.913763 C208.966192,209.965238 208.918219,210.012116 208.862864,210.0544 C208.80751,210.096683 208.730014,210.117824 208.630376,210.117824 C208.563951,210.117824 208.501216,210.103117 208.442171,210.073703 C208.383127,210.044288 208.320392,210.00844 208.253967,209.966157 L208.035317,209.828278 L208.035317,209.828278 C207.955976,209.778641 207.861874,209.732682 207.75301,209.690399 C207.644146,209.648115 207.516832,209.612267 207.371065,209.582853 C207.225298,209.553438 207.054624,209.538732 206.859038,209.538732 C206.51953,209.538732 206.209549,209.598479 205.929085,209.717974 C205.648622,209.83747 205.407833,210.008439 205.206711,210.230885 C205.00559,210.453331 204.848754,210.722652 204.7362,211.038857 C204.623645,211.355061 204.567369,211.709867 204.567369,212.103284 C204.567369,212.515085 204.623645,212.880921 204.7362,213.200802 C204.848754,213.520683 205.001899,213.790005 205.195641,214.008774 C205.389382,214.227544 205.615409,214.393916 205.873731,214.507897 C206.132052,214.621877 206.408821,214.678867 206.704046,214.678867 C206.8738,214.678867 207.02879,214.670594 207.169022,214.654049 C207.309254,214.637503 207.439335,214.609008 207.55927,214.568564 C207.679205,214.528119 207.793603,214.475725 207.902467,214.411381 C208.011331,214.347037 208.121116,214.267068 208.231825,214.171472 C208.276109,214.134704 208.324082,214.10437 208.375746,214.080471 C208.427411,214.056572 208.480919,214.044623 208.536274,214.044623 Z M217.487067,208.088243 L217.487067,209.522186 L214.176879,209.522186 L214.176879,211.397343 L216.712107,211.397343 L216.712107,212.776134 L214.176879,212.776134 L214.176879,214.689897 L217.487067,214.689897 L217.487067,216.123841 L212.294832,216.123841 L212.294832,208.088243 L217.487067,208.088243 Z M224.948829,209.720732 C224.893475,209.808975 224.835353,209.875156 224.774463,209.919278 C224.713573,209.9634 224.635155,209.98546 224.539207,209.98546 C224.45433,209.98546 224.362996,209.958804 224.265203,209.90549 L223.933077,209.726247 L223.933077,209.726247 C223.809452,209.660065 223.6683,209.600318 223.509617,209.547004 C223.350934,209.493691 223.170111,209.467034 222.967145,209.467034 C222.616565,209.467034 222.35548,209.541488 222.183881,209.690399 C222.012282,209.839309 221.926483,210.04061 221.926483,210.294309 C221.926483,210.456088 221.978147,210.590289 222.081475,210.696917 C222.184804,210.803544 222.320421,210.895462 222.48833,210.972675 C222.656239,211.049888 222.848132,211.120665 223.064015,211.185009 C223.279898,211.249353 223.50039,211.321049 223.725499,211.4001 C223.950607,211.479151 224.1711,211.571989 224.386983,211.678616 C224.602866,211.785243 224.794759,211.921283 224.962668,212.086739 C225.130577,212.252194 225.266193,212.453496 225.369522,212.690649 C225.472851,212.927803 225.524514,213.213669 225.524514,213.548258 C225.524514,213.919614 225.459935,214.267066 225.330774,214.590624 C225.201613,214.914182 225.014333,215.196372 224.768928,215.437202 C224.523522,215.678032 224.220922,215.867385 223.861117,216.005264 C223.501312,216.143144 223.092617,216.212083 222.635019,216.212083 C222.384078,216.212083 222.128528,216.186346 221.868361,216.134871 C221.608195,216.083396 221.356335,216.01078 221.112775,215.917022 C220.869215,215.823264 220.640419,215.712042 220.426381,215.583354 C220.212343,215.454666 220.025986,215.311273 219.867303,215.153171 L220.420846,214.281775 C220.461439,214.215593 220.518638,214.16228 220.592444,214.121835 C220.66625,214.08139 220.745591,214.061168 220.830468,214.061168 C220.941177,214.061168 221.052807,214.096097 221.165361,214.165956 L221.547306,214.397593 L221.547306,214.397593 C221.689383,214.48216 221.852677,214.559371 222.037192,214.62923 C222.221707,214.69909 222.439432,214.734019 222.690373,214.734019 C223.029881,214.734019 223.293734,214.659565 223.48194,214.510654 C223.670145,214.361744 223.764247,214.125513 223.764247,213.801955 C223.764247,213.614439 223.712583,213.461854 223.609255,213.344197 C223.505926,213.226539 223.370309,213.129105 223.2024,213.051893 C223.090461,213.000418 222.968272,212.953028 222.835832,212.909724 L222.629483,212.847832 C222.415445,212.789003 222.195875,212.723741 221.970767,212.652043 C221.745658,212.580346 221.526088,212.492104 221.31205,212.387315 C221.098013,212.282526 220.907042,212.144649 220.739133,211.973678 C220.571224,211.802707 220.435608,211.589456 220.332279,211.333918 C220.22895,211.078381 220.177287,210.7631 220.177287,210.388067 C220.177287,210.08657 220.238176,209.792431 220.359956,209.505641 C220.481736,209.21885 220.660713,208.963317 220.896893,208.739032 C221.133073,208.514748 221.422757,208.335507 221.765956,208.201304 C222.109154,208.067101 222.502166,208 222.945003,208 C223.192253,208 223.433042,208.019303 223.667377,208.057909 C223.901711,208.096516 224.124049,208.153505 224.334396,208.228879 C224.544744,208.304254 224.74125,208.394334 224.92392,208.499123 C225.10659,208.603911 225.269884,208.722486 225.413806,208.854851 L224.948829,209.720732 Z M232.39952,216.123841 L232.39952,208.088243 L235.366512,208.088243 C235.923748,208.088243 236.397945,208.139717 236.789118,208.242667 C237.18029,208.345618 237.499497,208.490849 237.746748,208.678366 C237.993998,208.865882 238.173898,209.09384 238.286452,209.362246 C238.399007,209.630652 238.455283,209.930307 238.455283,210.261218 C238.455283,210.441381 238.429451,210.615107 238.377787,210.782402 C238.326123,210.949696 238.244937,211.106877 238.134228,211.253948 C238.023519,211.40102 237.881444,211.534302 237.708,211.653798 C237.534555,211.773294 237.326056,211.877162 237.082496,211.965405 C237.6139,212.094093 238.006912,212.302748 238.261543,212.591376 C238.516174,212.880005 238.643488,213.250436 238.643488,213.702682 C238.643488,214.044624 238.577063,214.362663 238.444212,214.656806 C238.311361,214.95095 238.1167,215.207403 237.860224,215.426172 C237.603748,215.644941 237.287309,215.81591 236.910897,215.939082 C236.534486,216.062255 236.104572,216.123841 235.621142,216.123841 L232.39952,216.123841 Z M234.270496,212.715468 L234.270496,214.717473 L235.587929,214.717473 C235.83518,214.717473 236.037221,214.686221 236.194059,214.623715 C236.350897,214.56121 236.473598,214.480321 236.562165,214.381048 C236.650732,214.281774 236.711622,214.169634 236.744834,214.044623 C236.778047,213.919612 236.794653,213.792764 236.794653,213.664076 C236.794653,213.517004 236.775279,213.384642 236.736531,213.266984 C236.697783,213.149327 236.631359,213.050055 236.537256,212.969165 C236.443153,212.888276 236.318607,212.825771 236.163614,212.78165 C236.008621,212.737528 235.813038,212.715468 235.576858,212.715468 L234.270496,212.715468 Z M234.270496,211.46904 L235.244732,211.46904 C235.451389,211.46904 235.637747,211.454333 235.803811,211.424919 C235.969875,211.395504 236.111027,211.34403 236.227272,211.270494 C236.343516,211.196958 236.432082,211.095848 236.492972,210.96716 C236.553862,210.838472 236.584307,210.676695 236.584307,210.481825 C236.584307,210.290632 236.56032,210.131613 236.512346,210.004763 C236.464372,209.877914 236.390567,209.775884 236.290929,209.698671 C236.191291,209.621459 236.0649,209.566308 235.911752,209.533216 C235.758604,209.500125 235.576859,209.48358 235.366512,209.48358 L234.270496,209.48358 L234.270496,211.46904 Z M246.758431,208.088243 L246.758431,209.522186 L243.448242,209.522186 L243.448242,211.397343 L245.98347,211.397343 L245.98347,212.776134 L243.448242,212.776134 L243.448242,214.689897 L246.758431,214.689897 L246.758431,216.123841 L241.566195,216.123841 L241.566195,208.088243 L246.758431,208.088243 Z M253.522728,214.77814 C253.78105,214.77814 254.009845,214.756079 254.209122,214.711958 C254.408399,214.667836 254.596601,214.609008 254.773736,214.535473 L254.773736,213.316621 L253.976634,213.316621 C253.858544,213.316621 253.766288,213.285368 253.699862,213.222863 C253.633437,213.160357 253.600224,213.081307 253.600224,212.985711 L253.600224,211.95989 L256.467578,211.95989 L256.467578,215.351717 C256.260921,215.502466 256.045964,215.632071 255.8227,215.740536 C255.599437,215.849002 255.361416,215.938163 255.10863,216.008022 C254.855844,216.077881 254.586455,216.129356 254.300457,216.162447 C254.014458,216.195538 253.707244,216.212083 253.378807,216.212083 C252.788358,216.212083 252.242201,216.108215 251.740319,215.900476 C251.238438,215.692737 250.803911,215.405952 250.436725,215.04011 C250.06954,214.674269 249.7817,214.240414 249.573198,213.738531 C249.364695,213.236648 249.260446,212.691571 249.260446,212.103284 C249.260446,211.503966 249.360083,210.953374 249.559359,210.451492 C249.758636,209.949609 250.043708,209.516673 250.414583,209.15267 C250.785459,208.788667 251.233825,208.505558 251.759693,208.303334 C252.285562,208.10111 252.873234,208 253.522728,208 C253.858546,208 254.174063,208.027576 254.469287,208.082728 C254.764512,208.137879 255.036668,208.213253 255.285763,208.308849 C255.534859,208.404446 255.762732,208.518425 255.969389,208.65079 C256.176046,208.783154 256.360559,208.926547 256.522933,209.080973 L255.98046,209.902733 C255.928796,209.979945 255.866984,210.040611 255.795023,210.084733 C255.723062,210.128855 255.644644,210.150915 255.559767,210.150915 C255.449058,210.150915 255.33466,210.114148 255.216571,210.040612 C255.068958,209.952369 254.929651,209.876076 254.798645,209.811732 C254.66764,209.747388 254.533868,209.694995 254.397327,209.65455 C254.260785,209.614105 254.116866,209.584691 253.965563,209.566307 C253.81426,209.547923 253.644509,209.538732 253.456303,209.538732 C253.105724,209.538732 252.790208,209.600317 252.509744,209.72349 C252.229281,209.846662 251.990337,210.020388 251.792906,210.244673 C251.595474,210.468957 251.443252,210.738279 251.336233,211.052645 C251.229214,211.367011 251.175705,211.71722 251.175705,212.103284 C251.175705,212.529792 251.234749,212.908497 251.352839,213.239408 C251.470929,213.57032 251.634222,213.849752 251.842725,214.077714 C252.051227,214.305675 252.298474,214.479401 252.584473,214.598897 C252.870471,214.718393 253.18322,214.77814 253.522728,214.77814 Z M261.560175,216.123841 L259.678129,216.123841 L259.678129,208.088243 L261.560175,208.088243 L261.560175,216.123841 Z M264.95893,208.088243 L265.944237,208.088243 C266.025424,208.088243 266.093694,208.091919 266.149048,208.099273 C266.204403,208.106627 266.254221,208.120414 266.298505,208.140637 C266.342788,208.160859 266.385227,208.189354 266.42582,208.226122 C266.466413,208.26289 266.512541,208.312526 266.564206,208.375031 L270.394725,213.200802 C270.379963,213.046377 270.368893,212.89655 270.361512,212.751316 C270.354132,212.606083 270.350441,212.469124 270.350441,212.340436 L270.350441,208.088243 L272,208.088243 L272,216.123841 L271.025764,216.123841 C270.881842,216.123841 270.760064,216.10178 270.660425,216.057659 C270.560787,216.013537 270.464841,215.932649 270.372583,215.814991 L266.569741,211.027827 C266.580812,211.167545 266.590038,211.304503 266.597418,211.438706 C266.604799,211.57291 266.608489,211.698838 266.608489,211.816495 L266.608489,216.123841 L264.95893,216.123841 L264.95893,208.088243 Z M81.2822304,221.876159 L82.8542931,221.876159 C83.0166666,221.876159 83.1522833,221.912927 83.2611474,221.986463 C83.3700114,222.059999 83.4410487,222.157432 83.4742615,222.278767 L84.5813479,226.470293 C84.618251,226.606335 84.6551535,226.751566 84.6920565,226.905991 C84.7289596,227.060417 84.7566365,227.222194 84.775088,227.391326 C84.7996901,227.27612 84.825932,227.165409 84.8538141,227.059191 L84.8968675,226.903234 C84.9411512,226.750647 84.9835891,226.606335 85.0241825,226.470293 L86.3305444,222.278767 C86.3637572,222.175816 86.4347945,222.082979 86.5436586,222.000251 C86.6525226,221.917523 86.7844491,221.876159 86.9394419,221.876159 L87.4929851,221.876159 C87.6553586,221.876159 87.7891302,221.912008 87.894304,221.983705 C87.9994777,222.055403 88.0723602,222.153756 88.1129535,222.278767 L89.5355596,226.881173 L89.5355596,226.881173 C89.5798432,227.026407 89.6185909,227.181749 89.6518036,227.347205 L89.696779,227.110053 L89.696779,227.110053 L89.7431383,226.883931 C89.7745059,226.736859 89.8067956,226.598981 89.8400083,226.470293 L90.9470947,222.278767 C90.9766172,222.17214 91.0467319,222.078383 91.1574411,221.997493 C91.2681503,221.916604 91.4009994,221.876159 91.5559922,221.876159 L93.0284172,221.876159 L90.5374728,229.911757 L88.8436306,229.911757 L87.3269222,224.931562 L87.2466584,224.677864 L87.2466584,224.677864 C87.2189811,224.585944 87.1922268,224.488511 87.1663947,224.38556 C87.1405625,224.488511 87.1138082,224.585944 87.0861309,224.677864 L87.0058671,224.931562 L87.0058671,224.931562 L85.467017,229.911757 L83.7731748,229.911757 L81.2822304,221.876159 Z M97.7003216,229.911757 L95.8182747,229.911757 L95.8182747,221.876159 L97.7003216,221.876159 L97.7003216,229.911757 Z M106.955564,221.876159 L106.955564,223.354224 L104.686037,223.354224 L104.686037,229.911757 L102.815061,229.911757 L102.815061,223.354224 L100.545533,223.354224 L100.545533,221.876159 L106.955564,221.876159 Z M116.675782,229.911757 L114.793735,229.911757 L114.793735,226.514415 L111.516759,226.514415 L111.516759,229.911757 L109.634713,229.911757 L109.634713,221.876159 L111.516759,221.876159 L111.516759,225.234896 L114.793735,225.234896 L114.793735,221.876159 L116.675782,221.876159 L116.675782,229.911757 Z M131.455385,229.911757 L130.005102,229.911757 C129.842728,229.911757 129.708957,229.874071 129.603783,229.798696 C129.498609,229.723322 129.425727,229.626808 129.385134,229.50915 L128.909086,228.108298 L125.842457,228.108298 L125.36641,229.50915 C125.329507,229.6121 125.257547,229.704938 125.150528,229.787666 C125.043509,229.870394 124.912505,229.911757 124.757512,229.911757 L123.296158,229.911757 L126.418142,221.876159 L128.333401,221.876159 L131.455385,229.911757 Z M126.274221,226.839809 L128.477323,226.839809 L127.566744,224.145651 C127.502164,223.956296 127.438507,223.751317 127.375772,223.530709 C127.316727,223.754994 127.255838,223.96273 127.193102,224.153923 C127.130367,224.345117 127.071323,224.51057 127.015969,224.650288 L126.274221,226.839809 Z M142.54839,223.508649 C142.493036,223.596892 142.434914,223.663073 142.374024,223.707195 C142.313134,223.751316 142.234716,223.773377 142.138768,223.773377 C142.053891,223.773377 141.962558,223.74672 141.864765,223.693407 L141.532639,223.514164 L141.532639,223.514164 C141.409013,223.447982 141.267861,223.388235 141.109178,223.334921 C140.950495,223.281607 140.769673,223.254951 140.566706,223.254951 C140.216127,223.254951 139.955041,223.329405 139.783442,223.478315 C139.611843,223.627226 139.526045,223.828527 139.526045,224.082226 C139.526045,224.244005 139.577708,224.378206 139.681037,224.484833 C139.784365,224.59146 139.919982,224.683379 140.087891,224.760592 C140.2558,224.837804 140.447693,224.908582 140.663576,224.972926 C140.879459,225.037269 141.099951,225.108966 141.32506,225.188017 C141.550169,225.267068 141.770661,225.359906 141.986544,225.466533 C142.202427,225.57316 142.39432,225.709199 142.562229,225.874655 C142.730138,226.040111 142.865755,226.241413 142.969083,226.478566 C143.072412,226.715719 143.124075,227.001586 143.124075,227.336174 C143.124075,227.707531 143.059496,228.054983 142.930335,228.378541 C142.801174,228.702099 142.613894,228.984289 142.368489,229.225119 C142.123083,229.465949 141.820483,229.655301 141.460678,229.793181 C141.100873,229.931061 140.692178,230 140.23458,230 C139.983639,230 139.728089,229.974263 139.467922,229.922788 C139.207756,229.871313 138.955896,229.798697 138.712336,229.704939 C138.468776,229.61118 138.23998,229.499959 138.025942,229.371271 C137.811905,229.242583 137.625547,229.09919 137.466864,228.941088 L138.020407,228.069692 C138.061,228.003509 138.118199,227.950197 138.192005,227.909752 C138.265812,227.869307 138.345152,227.849085 138.430029,227.849085 C138.540738,227.849085 138.652368,227.884014 138.764923,227.953873 L139.146867,228.18551 L139.146867,228.18551 C139.288944,228.270076 139.452238,228.347288 139.636753,228.417147 C139.821268,228.487006 140.038993,228.521935 140.289934,228.521935 C140.629442,228.521935 140.893295,228.447481 141.081501,228.298571 C141.269707,228.149661 141.363808,227.91343 141.363808,227.589872 C141.363808,227.402356 141.312144,227.249771 141.208816,227.132113 C141.105487,227.014456 140.969871,226.917022 140.801962,226.839809 C140.634053,226.762597 140.443082,226.694577 140.229044,226.635748 C140.015007,226.57692 139.795437,226.511657 139.570328,226.43996 C139.345219,226.368262 139.125649,226.280021 138.911612,226.175232 C138.697574,226.070443 138.506603,225.932565 138.338694,225.761594 C138.170785,225.590623 138.035169,225.377372 137.93184,225.121835 C137.828512,224.866298 137.776848,224.551017 137.776848,224.175984 C137.776848,223.874487 137.837737,223.580347 137.959517,223.293557 C138.081297,223.006767 138.260275,222.751234 138.496454,222.526949 C138.732634,222.302665 139.022318,222.123423 139.365517,221.98922 C139.708715,221.855017 140.101727,221.787917 140.544564,221.787917 C140.791815,221.787917 141.032603,221.80722 141.266938,221.845826 C141.501272,221.884432 141.72361,221.941422 141.933957,222.016796 C142.144305,222.092171 142.340811,222.182251 142.523481,222.287039 C142.706151,222.391828 142.869445,222.510403 143.013367,222.642768 L142.54839,223.508649 Z M151.150452,221.876159 L151.150452,223.310103 L147.840263,223.310103 L147.840263,225.185259 L150.375491,225.185259 L150.375491,226.564051 L147.840263,226.564051 L147.840263,228.477814 L151.150452,228.477814 L151.150452,229.911757 L145.958216,229.911757 L145.958216,221.876159 L151.150452,221.876159 Z M161.623489,229.911757 L160.173205,229.911757 C160.010832,229.911757 159.87706,229.874071 159.771887,229.798696 C159.666713,229.723322 159.59383,229.626808 159.553237,229.50915 L159.07719,228.108298 L156.010561,228.108298 L155.534513,229.50915 C155.49761,229.6121 155.42565,229.704938 155.318632,229.787666 C155.211613,229.870394 155.080609,229.911757 154.925616,229.911757 L153.464262,229.911757 L156.586246,221.876159 L158.501505,221.876159 L161.623489,229.911757 Z M156.442324,226.839809 L158.645426,226.839809 L157.734848,224.145651 C157.670267,223.956296 157.60661,223.751317 157.543875,223.530709 C157.48483,223.754994 157.423941,223.96273 157.361206,224.153923 C157.298471,224.345117 157.239427,224.51057 157.184072,224.650288 L156.442324,226.839809 Z M166.051834,226.939082 L166.051834,229.911757 L164.180858,229.911757 L164.180858,221.876159 L166.804653,221.876159 C167.387721,221.876159 167.884983,221.935906 168.296452,222.055402 C168.707921,222.174898 169.043734,222.341271 169.3039,222.554525 C169.564067,222.767779 169.753192,223.019636 169.871282,223.310103 C169.989372,223.60057 170.048416,223.916769 170.048416,224.258711 C170.048416,224.519764 170.013359,224.766106 169.943243,224.997744 C169.873127,225.229382 169.768877,225.443552 169.630491,225.640261 C169.492104,225.836969 169.322353,226.012534 169.121231,226.166959 C168.920109,226.321385 168.688546,226.448232 168.426534,226.547506 C168.552005,226.610011 168.66917,226.687223 168.778034,226.779143 C168.886898,226.871063 168.981922,226.983203 169.063109,227.115568 L170.779093,229.911757 L169.085251,229.911757 C168.771575,229.911757 168.546469,229.794102 168.409928,229.558787 L167.070354,227.225871 C167.011309,227.122921 166.942116,227.049386 166.862775,227.005264 C166.783433,226.961143 166.671803,226.939082 166.527881,226.939082 L166.051834,226.939082 Z M166.051834,225.654049 L166.804653,225.654049 C167.059284,225.654049 167.276086,225.621877 167.455066,225.557533 C167.634046,225.493189 167.780733,225.404028 167.895133,225.290048 C168.009532,225.176067 168.092563,225.042785 168.144227,224.890198 C168.195892,224.737611 168.221723,224.573077 168.221723,224.396591 C168.221723,224.043618 168.106403,223.767863 167.875759,223.569316 C167.645115,223.370769 167.288083,223.271497 166.804653,223.271497 L166.051834,223.271497 L166.051834,225.654049 Z M178.589587,227.832539 C178.633871,227.832539 178.678154,227.840812 178.722438,227.857358 C178.766721,227.873903 178.809159,227.902398 178.849753,227.942843 L179.591501,228.720481 C179.266754,229.143313 178.859903,229.46227 178.370938,229.677363 C177.881972,229.892455 177.303525,230 176.63558,230 C176.022989,230 175.474064,229.896132 174.988789,229.688393 C174.503514,229.480654 174.092051,229.193868 173.754387,228.828027 C173.416724,228.462186 173.157484,228.02833 172.976659,227.526448 C172.795834,227.024565 172.705423,226.479488 172.705423,225.891201 C172.705423,225.291883 172.80875,224.741291 173.015407,224.239408 C173.222064,223.737526 173.510827,223.304589 173.881702,222.940587 C174.252578,222.576584 174.696331,222.293475 175.212974,222.091251 C175.729617,221.889027 176.299761,221.787917 176.923422,221.787917 C177.226027,221.787917 177.511099,221.814573 177.778647,221.867887 C178.046194,221.9212 178.296208,221.994735 178.528698,222.088493 C178.761187,222.182252 178.975221,222.294392 179.170808,222.424919 C179.366394,222.555445 179.539836,222.699757 179.691138,222.857859 L179.060099,223.70168 C179.019506,223.753155 178.971532,223.800033 178.916178,223.842316 C178.860823,223.8846 178.783328,223.905741 178.68369,223.905741 C178.617264,223.905741 178.55453,223.891034 178.495485,223.861619 C178.43644,223.832205 178.373706,223.796357 178.30728,223.754074 L178.088631,223.616195 L178.088631,223.616195 C178.009289,223.566558 177.915188,223.520599 177.806324,223.478315 C177.69746,223.436032 177.570146,223.400184 177.424379,223.37077 C177.278612,223.341355 177.107938,223.326648 176.912351,223.326648 C176.572843,223.326648 176.262862,223.386395 175.982399,223.505891 C175.701936,223.625387 175.461147,223.796356 175.260025,224.018802 C175.058903,224.241248 174.902068,224.510569 174.789513,224.826774 C174.676959,225.142978 174.620683,225.497784 174.620683,225.891201 C174.620683,226.303002 174.676959,226.668838 174.789513,226.988719 C174.902068,227.3086 175.055213,227.577922 175.248954,227.796691 C175.442695,228.01546 175.668723,228.181833 175.927045,228.295813 C176.185366,228.409794 176.462135,228.466784 176.757359,228.466784 C176.927113,228.466784 177.082104,228.458511 177.222336,228.441965 C177.362567,228.42542 177.492649,228.396925 177.612584,228.35648 C177.732519,228.316036 177.846916,228.263642 177.95578,228.199298 C178.064644,228.134954 178.174429,228.054985 178.285139,227.959388 C178.329422,227.92262 178.377396,227.892287 178.42906,227.868388 C178.480724,227.844489 178.534233,227.832539 178.589587,227.832539 Z M189.389215,229.911757 L187.507168,229.911757 L187.507168,226.514415 L184.230192,226.514415 L184.230192,229.911757 L182.348145,229.911757 L182.348145,221.876159 L184.230192,221.876159 L184.230192,225.234896 L187.507168,225.234896 L187.507168,221.876159 L189.389215,221.876159 L189.389215,229.911757 Z M201.855007,221.876159 L201.855007,223.310103 L198.544819,223.310103 L198.544819,225.185259 L201.080047,225.185259 L201.080047,226.564051 L198.544819,226.564051 L198.544819,228.477814 L201.855007,228.477814 L201.855007,229.911757 L196.662772,229.911757 L196.662772,221.876159 L201.855007,221.876159 Z M204.821999,221.876159 L205.807306,221.876159 C205.888492,221.876159 205.956762,221.879836 206.012117,221.88719 C206.067471,221.894543 206.11729,221.908331 206.161573,221.928554 C206.205857,221.948776 206.248295,221.977271 206.288888,222.014039 C206.329482,222.050807 206.37561,222.100443 206.427274,222.162948 L210.257793,226.988719 C210.243032,226.834294 210.231961,226.684466 210.22458,226.539233 C210.2172,226.393999 210.21351,226.257041 210.21351,226.128353 L210.21351,221.876159 L211.863068,221.876159 L211.863068,229.911757 L210.888832,229.911757 C210.74491,229.911757 210.623132,229.889697 210.523494,229.845575 C210.423855,229.801454 210.327909,229.720565 210.235651,229.602908 L206.432809,224.815743 C206.44388,224.955462 206.453106,225.09242 206.460487,225.226623 C206.467867,225.360826 206.471557,225.486755 206.471557,225.604412 L206.471557,229.911757 L204.821999,229.911757 L204.821999,221.876159 Z M218.893067,228.566057 C219.151388,228.566057 219.380184,228.543996 219.57946,228.499875 C219.778737,228.455753 219.96694,228.396925 220.144074,228.323389 L220.144074,227.104537 L219.346972,227.104537 C219.228882,227.104537 219.136626,227.073285 219.070201,227.01078 C219.003775,226.948274 218.970563,226.869224 218.970563,226.773627 L218.970563,225.747806 L221.837917,225.747806 L221.837917,229.139634 C221.631259,229.290383 221.416302,229.419988 221.193039,229.528453 C220.969775,229.636919 220.731754,229.72608 220.478968,229.795939 C220.226182,229.865798 219.956794,229.917272 219.670795,229.950363 C219.384796,229.983455 219.077583,230 218.749145,230 C218.158696,230 217.612539,229.896132 217.110658,229.688393 C216.608776,229.480654 216.174249,229.193868 215.807063,228.828027 C215.439878,228.462186 215.152038,228.02833 214.943536,227.526448 C214.735034,227.024565 214.630784,226.479488 214.630784,225.891201 C214.630784,225.291883 214.730421,224.741291 214.929697,224.239408 C215.128974,223.737526 215.414046,223.304589 215.784922,222.940587 C216.155797,222.576584 216.604163,222.293475 217.130032,222.091251 C217.6559,221.889027 218.243573,221.787917 218.893067,221.787917 C219.228885,221.787917 219.544401,221.815492 219.839626,221.870644 C220.13485,221.925796 220.407006,222.001169 220.656102,222.096766 C220.905197,222.192363 221.133071,222.306342 221.339728,222.438706 C221.546385,222.571071 221.730897,222.714464 221.893271,222.868889 L221.350799,223.690649 C221.299134,223.767862 221.237323,223.828528 221.165362,223.87265 C221.093401,223.916771 221.014983,223.938832 220.930106,223.938832 C220.819397,223.938832 220.704999,223.902064 220.586909,223.828528 C220.439297,223.740285 220.29999,223.663993 220.168984,223.599649 C220.037978,223.535305 219.904206,223.482912 219.767665,223.442467 C219.631124,223.402022 219.487204,223.372608 219.335901,223.354224 C219.184599,223.33584 219.014847,223.326648 218.826642,223.326648 C218.476062,223.326648 218.160546,223.388234 217.880083,223.511406 C217.599619,223.634579 217.360676,223.808305 217.163244,224.03259 C216.965813,224.256874 216.81359,224.526195 216.706571,224.840562 C216.599552,225.154928 216.546044,225.505137 216.546044,225.891201 C216.546044,226.317709 216.605088,226.696413 216.723177,227.027325 C216.841267,227.358237 217.004561,227.637669 217.213063,227.86563 C217.421565,228.093592 217.668812,228.267318 217.954811,228.386814 C218.24081,228.50631 218.553559,228.566057 218.893067,228.566057 Z M226.930514,229.911757 L225.048467,229.911757 L225.048467,221.876159 L226.930514,221.876159 L226.930514,229.911757 Z M230.329269,221.876159 L231.314576,221.876159 C231.395762,221.876159 231.464032,221.879836 231.519387,221.88719 C231.574741,221.894543 231.62456,221.908331 231.668843,221.928554 C231.713127,221.948776 231.755565,221.977271 231.796158,222.014039 C231.836752,222.050807 231.88288,222.100443 231.934544,222.162948 L235.765063,226.988719 C235.750302,226.834294 235.739231,226.684466 235.73185,226.539233 C235.72447,226.393999 235.72078,226.257041 235.72078,226.128353 L235.72078,221.876159 L237.370338,221.876159 L237.370338,229.911757 L236.396102,229.911757 C236.25218,229.911757 236.130402,229.889697 236.030764,229.845575 C235.931126,229.801454 235.835179,229.720565 235.742921,229.602908 L231.94008,224.815743 C231.95115,224.955462 231.960376,225.09242 231.967757,225.226623 C231.975137,225.360826 231.978828,225.486755 231.978828,225.604412 L231.978828,229.911757 L230.329269,229.911757 L230.329269,221.876159 Z M245.795266,221.876159 L245.795266,223.310103 L242.485077,223.310103 L242.485077,225.185259 L245.020305,225.185259 L245.020305,226.564051 L242.485077,226.564051 L242.485077,228.477814 L245.795266,228.477814 L245.795266,229.911757 L240.60303,229.911757 L240.60303,221.876159 L245.795266,221.876159 Z" id="OFONLINEEXPERIENCESBEGINWITHASEARCHENGINE" fill="#FFFFFF" fill-rule="nonzero"></path>
                <path d="M87.5070665,153.856951 C84.0153795,153.856951 80.5237449,153.229019 77.0320579,151.973136 C73.5403709,150.71726 70.3806875,148.808833 67.5529128,146.247817 C64.7251381,143.686802 62.4260688,140.460955 60.655636,136.570181 C58.8852031,132.679407 58,128.074573 58,122.755541 C58,117.879761 58.8974976,113.274927 60.6925198,108.9409 C62.487542,104.606873 65.0447955,100.814657 68.3643571,97.564137 C71.6839187,94.3136171 75.6550384,91.7403274 80.2778352,89.8441907 C84.9006321,87.9480541 90.0643171,87 95.7690452,87 C101.572131,87 106.760405,87.8864921 111.334023,89.659503 C115.907641,91.4325139 119.780405,93.9196169 122.95243,97.1208865 C126.124456,100.322156 128.558764,104.126685 130.255429,108.534587 C131.952094,112.942489 132.800414,117.805883 132.800414,123.124916 C132.800414,126.670938 132.51764,129.995283 131.952085,133.098052 C131.386531,136.200821 130.599683,139.168108 129.59152,142 C128.583357,144.831892 127.366203,147.540618 125.940021,150.126259 C124.513839,152.7119 122.915555,155.260565 121.145122,157.77233 L97.9820751,190.720618 C96.9985013,192.148877 95.4493958,193.355491 93.3347122,194.340497 C91.2200285,195.325503 88.8348978,195.817999 86.1792485,195.817999 L65.081696,195.817999 L99.1623578,155.038952 L100.36182,153.571794 C100.619514,153.254624 100.871308,152.943364 101.117201,152.638012 C101.731935,151.874632 102.334365,151.098952 102.924509,150.310947 C100.711468,151.492954 98.3017481,152.379446 95.6952775,152.97045 C93.0888069,153.561454 90.3594306,153.856951 87.5070665,153.856951 Z M110.965184,121.056414 C110.965184,118.446148 110.584055,116.143731 109.821786,114.149093 C109.059516,112.154456 108.00219,110.492283 106.649776,109.162525 C105.297362,107.832767 103.662195,106.823151 101.744226,106.133647 C99.8262572,105.444143 97.7361942,105.099396 95.4739745,105.099396 C93.1625761,105.099396 91.1093965,105.505704 89.3143744,106.318334 C87.5193522,107.130964 85.9948356,108.251392 84.740779,109.679651 C83.4867224,111.10791 82.5277524,112.794707 81.8638401,114.740094 C81.1999277,116.685481 80.8679766,118.7909 80.8679766,121.056414 C80.8679766,131.79298 85.8349498,137.161182 95.7690452,137.161182 C100.637735,137.161182 104.387554,135.696007 107.018614,132.765615 C109.649674,129.835222 110.965184,125.932194 110.965184,121.056414 Z M178.093761,87 C183.405059,87 188.126143,87.7510558 192.257153,89.2531901 C196.388163,90.7553243 199.879797,92.7868688 202.732161,95.3478845 C205.584525,97.9089002 207.748355,100.876186 209.223716,104.249832 C210.699077,107.623478 211.436746,111.181759 211.436746,114.924782 C211.436746,118.323053 211.0925,121.314964 210.403999,123.900604 C209.715497,126.486245 208.695054,128.7271 207.34264,130.623237 C205.990226,132.519374 204.318176,134.132297 202.326439,135.462055 C200.334702,136.791813 198.060222,137.899928 195.50293,138.786434 C207.404173,142.923459 213.354705,151.025012 213.354705,163.091336 C213.354705,168.804372 212.321968,173.778577 210.256463,178.014103 C208.190958,182.249629 205.424698,185.770973 201.957601,188.57824 C198.490503,191.385508 194.470206,193.490926 189.896587,194.89456 C185.322969,196.298194 180.552708,197 175.58566,197 C170.471076,197 165.922116,196.445942 161.938642,195.337811 C157.955168,194.229679 154.414355,192.505944 151.316098,190.166555 C148.21784,187.827165 145.500759,184.835254 143.164771,181.190732 C140.828783,177.54621 138.800192,173.212248 137.078938,168.188717 L147.258876,164.051713 C148.144088,163.65771 149.017001,163.386838 149.877628,163.239087 C150.738255,163.091336 151.586575,163.017461 152.422613,163.017461 C153.996331,163.017461 155.410197,163.325271 156.664254,163.9409 C157.91831,164.556529 158.864986,165.455333 159.504309,166.63734 C161.71735,170.725116 164.065597,173.692402 166.549121,175.539288 C169.032645,177.386174 171.946439,178.309604 175.290589,178.309604 C177.847881,178.309604 180.073184,177.87867 181.966563,177.01679 C183.859943,176.15491 185.433637,175.046794 186.687694,173.692411 C187.94175,172.338028 188.888426,170.798979 189.527749,169.075218 C190.167072,167.351458 190.486729,165.603098 190.486729,163.830087 C190.486729,161.515323 190.3269,159.434529 190.007239,157.587643 C189.687577,155.740756 188.79008,154.152458 187.314719,152.8227 C185.839358,151.492942 183.614056,150.471013 180.638745,149.756884 C177.663435,149.042754 173.520192,148.685695 168.208893,148.685695 L168.208893,132.876427 C172.684154,132.876427 176.298734,132.53168 179.05274,131.842176 C181.806747,131.152672 183.933694,130.204618 185.433644,128.997985 C186.933594,127.791353 187.929447,126.326178 188.421234,124.602418 C188.913021,122.878657 189.158911,120.982549 189.158911,118.914036 C189.158911,114.67851 188.138468,111.415727 186.097553,109.125588 C184.056637,106.835449 180.946131,105.690396 176.765943,105.690396 C175.044689,105.690396 173.470994,105.936644 172.044812,106.429147 C170.61863,106.92165 169.340003,107.586519 168.208893,108.423774 C167.077784,109.261029 166.106519,110.246021 165.295071,111.378778 C164.483622,112.511535 163.832014,113.742774 163.340228,115.072532 C162.553368,117.288796 161.557515,118.889406 160.352637,119.874412 C159.147759,120.859418 157.512592,121.351914 155.447087,121.351914 C154.9553,121.351914 154.426637,121.327289 153.861082,121.278039 C153.295527,121.228789 152.717687,121.154914 152.127542,121.056414 L140.029645,118.914036 C140.816504,113.545753 142.328726,108.867045 144.566356,104.87777 C146.803987,100.888496 149.582541,97.5641503 152.902103,94.904634 C156.221664,92.2451177 160.020661,90.2628227 164.299207,88.9576897 C168.577753,87.6525567 173.175892,87 178.093761,87 Z M241.091348,155.038952 C241.091348,157.008964 240.734808,158.806573 240.021717,160.431833 C239.308626,162.057093 238.36195,163.45455 237.181661,164.624244 C236.001373,165.793939 234.630538,166.6989 233.069114,167.339154 C231.507691,167.979408 229.878671,168.29953 228.182006,168.29953 C226.313216,168.29953 224.598135,167.979408 223.036711,167.339154 C221.475288,166.6989 220.122894,165.793939 218.97949,164.624244 C217.836085,163.45455 216.944735,162.057093 216.305412,160.431833 C215.666089,158.806573 215.346432,157.008964 215.346432,155.038952 C215.346432,152.995065 215.666089,151.14205 216.305412,149.479852 C216.944735,147.817655 217.836085,146.395573 218.97949,145.213566 C220.122894,144.031559 221.475288,143.114286 223.036711,142.461719 C224.598135,141.809153 226.313216,141.482874 228.182006,141.482874 C230.050796,141.482874 231.778172,141.809153 233.364185,142.461719 C234.950198,143.114286 236.314886,144.031559 237.45829,145.213566 C238.601695,146.395573 239.493045,147.817655 240.132368,149.479852 C240.771691,151.14205 241.091348,152.995065 241.091348,155.038952 Z M232.312996,155.038952 C232.312996,153.78307 232.208492,152.742673 231.999483,151.91773 C231.790474,151.092787 231.501553,150.434075 231.132713,149.941572 C230.763873,149.449069 230.327418,149.104322 229.823337,148.90732 C229.319255,148.710319 228.77215,148.61182 228.182006,148.61182 C227.591862,148.61182 227.050904,148.710319 226.559118,148.90732 C226.067331,149.104322 225.649318,149.449069 225.305067,149.941572 C224.960816,150.434075 224.690338,151.092787 224.493623,151.91773 C224.296908,152.742673 224.198552,153.78307 224.198552,155.038952 C224.198552,156.22096 224.296908,157.205951 224.493623,157.993956 C224.690338,158.781961 224.960816,159.409892 225.305067,159.87777 C225.649318,160.345648 226.067331,160.678083 226.559118,160.875084 C227.050904,161.072085 227.591862,161.170584 228.182006,161.170584 C228.77215,161.170584 229.319255,161.072085 229.823337,160.875084 C230.327418,160.678083 230.763873,160.345648 231.132713,159.87777 C231.501553,159.409892 231.790474,158.781961 231.999483,157.993956 C232.208492,157.205951 232.312996,156.22096 232.312996,155.038952 Z M257.984143,143.699127 C258.352984,143.280499 258.80788,142.892659 259.348845,142.535594 C259.889811,142.17853 260.639775,142 261.598759,142 L269.934505,142 L229.436057,194.192747 C229.067216,194.660625 228.606173,195.048465 228.052913,195.356279 C227.499653,195.664094 226.829603,195.817999 226.042744,195.817999 L217.485695,195.817999 L257.984143,143.699127 Z M259.090658,169.629281 C260.959449,169.629281 262.686824,169.95556 264.272837,170.608126 C265.85885,171.260693 267.223538,172.177966 268.366942,173.359973 C269.510347,174.54198 270.401697,175.964062 271.04102,177.626259 C271.680343,179.288457 272,181.141472 272,183.185359 C272,185.155371 271.64346,186.959137 270.930369,188.596709 C270.217278,190.234282 269.270602,191.637894 268.090314,192.807589 C266.910025,193.977284 265.53919,194.882244 263.977766,195.522498 C262.416343,196.162752 260.787323,196.482874 259.090658,196.482874 C257.221868,196.482874 255.506787,196.162752 253.945364,195.522498 C252.38394,194.882244 251.031547,193.977284 249.888142,192.807589 C248.744737,191.637894 247.853387,190.234282 247.214064,188.596709 C246.574741,186.959137 246.255084,185.155371 246.255084,183.185359 C246.255084,181.141472 246.574741,179.288457 247.214064,177.626259 C247.853387,175.964062 248.744737,174.54198 249.888142,173.359973 C251.031547,172.177966 252.38394,171.260693 253.945364,170.608126 C255.506787,169.95556 257.221868,169.629281 259.090658,169.629281 Z M259.090658,176.795165 C258.500514,176.795165 257.959557,176.893664 257.46777,177.090665 C256.975983,177.287666 256.55797,177.632413 256.213719,178.124916 C255.869469,178.617419 255.59899,179.276132 255.402275,180.101075 C255.20556,180.926017 255.107204,181.954102 255.107204,183.185359 C255.107204,184.367367 255.20556,185.352358 255.402275,186.140363 C255.59899,186.928367 255.869469,187.556299 256.213719,188.024177 C256.55797,188.492055 256.975983,188.82449 257.46777,189.021491 C257.959557,189.218492 258.500514,189.316991 259.090658,189.316991 C259.680803,189.316991 260.227907,189.218492 260.731989,189.021491 C261.236071,188.82449 261.672525,188.492055 262.041365,188.024177 C262.410205,187.556299 262.699126,186.928367 262.908135,186.140363 C263.117145,185.352358 263.221648,184.367367 263.221648,183.185359 C263.221648,181.954102 263.117145,180.926017 262.908135,180.101075 C262.699126,179.276132 262.410205,178.617419 262.041365,178.124916 C261.672525,177.632413 261.236071,177.287666 260.731989,177.090665 C260.227907,176.893664 259.680803,176.795165 259.090658,176.795165 Z" id="93%" fill="#FFFFFF" fill-rule="nonzero"></path>
            </g>
        </g>
    </g>
</svg>