<?xml version="1.0" encoding="UTF-8"?>
<svg width="314px" height="304px" viewBox="0 0 314 304" version="1.1" xmlns="http://www.w3.org/2000/svg" xmlns:xlink="http://www.w3.org/1999/xlink">
    <!-- Generator: Sketch 63.1 (92452) - https://sketch.com -->
    <title>img_aquire_new_backlinks_mob</title>
    <desc>Created with Sketch.</desc>
    <defs>
        <polygon id="path-1" points="7.78414644e-05 0.241724769 313.448584 0.241724769 313.448584 23.4650446 7.78414644e-05 23.4650446"></polygon>
    </defs>
    <g id="Page-1" stroke="none" stroke-width="1" fill="none" fill-rule="evenodd">
        <g id="FAQs---What-is-a-Backlink---Mobile" transform="translate(-31.000000, -731.000000)">
            <g id="img_aquire_new_backlinks_mob" transform="translate(31.000000, 731.000000)">
                <g id="img_secure_site">
                    <g id="Group-117">
                        <polygon id="Fill-1" fill="#FEFEFE" points="0 296.399196 313.264637 296.399196 313.264637 25.5516548 0 25.5516548"></polygon>
                        <g id="Group-116">
                            <g id="Group-4">
                                <mask id="mask-2" fill="white">
                                    <use xlink:href="#path-1"></use>
                                </mask>
                                <g id="Clip-3"></g>
                                <path d="M313.448584,23.4650446 L7.78414644e-05,23.4650446 L7.78414644e-05,5.94116096 C7.78414644e-05,2.79331565 2.56378647,0.241647293 5.72609596,0.241647293 L307.722177,0.241647293 C310.884875,0.241647293 313.448584,2.79331565 313.448584,5.94116096 L313.448584,23.4650446 Z" id="Fill-2" fill="#FF5254" mask="url(#mask-2)"></path>
                            </g>
                            <path d="M18.2732059,11.8533072 C18.2732059,13.7851685 16.6996407,15.3513435 14.7586638,15.3513435 C12.8172977,15.3513435 11.2437325,13.7851685 11.2437325,11.8533072 C11.2437325,9.92144594 12.8172977,8.35527088 14.7586638,8.35527088 C16.6996407,8.35527088 18.2732059,9.92144594 18.2732059,11.8533072" id="Fill-5" fill="#FFFFFF"></path>
                            <path d="M30.4131272,11.8533072 C30.4131272,13.7851685 28.839562,15.3513435 26.8985851,15.3513435 C24.957219,15.3513435 23.3836537,13.7851685 23.3836537,11.8533072 C23.3836537,9.92144594 24.957219,8.35527088 26.8985851,8.35527088 C28.839562,8.35527088 30.4131272,9.92144594 30.4131272,11.8533072" id="Fill-7" fill="#FFFFFF"></path>
                            <path d="M42.9660363,11.8533072 C42.9660363,13.7851685 41.3924711,15.3513435 39.4514942,15.3513435 C37.5101281,15.3513435 35.9365629,13.7851685 35.9365629,11.8533072 C35.9365629,9.92144594 37.5101281,8.35527088 39.4514942,8.35527088 C41.3924711,8.35527088 42.9660363,9.92144594 42.9660363,11.8533072" id="Fill-9" fill="#FFFFFF"></path>
                            <path d="M223.207208,103.207877 L21.0284046,103.207877 C18.4596362,103.207877 16.3579167,101.116028 16.3579167,98.5593233 L16.3579167,41.8415503 C16.3579167,39.2848461 18.4596362,37.1929971 21.0284046,37.1929971 L223.207208,37.1929971 C225.776365,37.1929971 227.877696,39.2848461 227.877696,41.8415503 L227.877696,98.5593233 C227.877696,101.116028 225.776365,103.207877 223.207208,103.207877" id="Fill-11" fill="#427FE0"></path>
                            <path d="M294.832759,210.516164 L203.004351,210.516164 C201.392254,210.516164 200.085296,209.215344 200.085296,207.610819 C200.085296,206.005906 201.392254,204.705473 203.004351,204.705473 L294.832759,204.705473 C296.444855,204.705473 297.751814,206.005906 297.751814,207.610819 C297.751814,209.215344 296.444855,210.516164 294.832759,210.516164" id="Fill-29" fill="#DADFE1"></path>
                            <path d="M189.042122,210.516164 L135.940621,210.516164 C134.328524,210.516164 133.021566,209.215344 133.021566,207.610819 C133.021566,206.005906 134.328524,204.705473 135.940621,204.705473 L189.042122,204.705473 C190.654219,204.705473 191.961177,206.005906 191.961177,207.610819 C191.961177,209.215344 190.654219,210.516164 189.042122,210.516164" id="Fill-31" fill="#DADFE1"></path>
                            <path d="M121.977964,210.516164 L68.8768522,210.516164 C67.2647554,210.516164 65.9577972,209.215344 65.9577972,207.610819 C65.9577972,206.005906 67.2647554,204.705473 68.8768522,204.705473 L121.977964,204.705473 C123.590061,204.705473 124.897019,206.005906 124.897019,207.610819 C124.897019,209.215344 123.590061,210.516164 121.977964,210.516164" id="Fill-33" fill="#DADFE1"></path>
                            <path d="M54.9140006,210.516164 L20.0161152,210.516164 C18.4040185,210.516164 17.0970603,209.215344 17.0970603,207.610819 C17.0970603,206.005906 18.4040185,204.705473 20.0161152,204.705473 L54.9140006,204.705473 C56.5260973,204.705473 57.8330555,206.005906 57.8330555,207.610819 C57.8330555,209.215344 56.5260973,210.516164 54.9140006,210.516164" id="Fill-35" fill="#DADFE1"></path>
                            <path d="M111.844134,231.095697 L20.0161152,231.095697 C18.4040185,231.095697 17.0970603,229.794877 17.0970603,228.190351 C17.0970603,226.585438 18.4040185,225.285006 20.0161152,225.285006 L111.844134,225.285006 C113.456231,225.285006 114.763189,226.585438 114.763189,228.190351 C114.763189,229.794877 113.456231,231.095697 111.844134,231.095697" id="Fill-37" fill="#DADFE1"></path>
                            <path d="M178.908292,231.095697 L125.806791,231.095697 C124.194694,231.095697 122.887736,229.794877 122.887736,228.190351 C122.887736,226.585438 124.194694,225.285006 125.806791,225.285006 L178.908292,225.285006 C180.520389,225.285006 181.827347,226.585438 181.827347,228.190351 C181.827347,229.794877 180.520389,231.095697 178.908292,231.095697" id="Fill-39" fill="#DADFE1"></path>
                            <path d="M245.972061,231.095697 L192.87056,231.095697 C191.258852,231.095697 189.951505,229.794877 189.951505,228.190351 C189.951505,226.585438 191.258852,225.285006 192.87056,225.285006 L245.972061,225.285006 C247.584157,225.285006 248.891116,226.585438 248.891116,228.190351 C248.891116,229.794877 247.584157,231.095697 245.972061,231.095697" id="Fill-41" fill="#DADFE1"></path>
                            <path d="M294.832759,231.095697 L259.934873,231.095697 C258.322387,231.095697 257.015818,229.794877 257.015818,228.190351 C257.015818,226.585438 258.322387,225.285006 259.934873,225.285006 L294.832759,225.285006 C296.444855,225.285006 297.751814,226.585438 297.751814,228.190351 C297.751814,229.794877 296.444855,231.095697 294.832759,231.095697" id="Fill-43" fill="#DADFE1"></path>
                            <path d="M294.832759,254.315763 L203.004351,254.315763 C201.392254,254.315763 200.085296,253.01533 200.085296,251.410417 C200.085296,249.805892 201.392254,248.505071 203.004351,248.505071 L294.832759,248.505071 C296.444855,248.505071 297.751814,249.805892 297.751814,251.410417 C297.751814,253.01533 296.444855,254.315763 294.832759,254.315763" id="Fill-45" fill="#DADFE1"></path>
                            <path d="M189.042122,254.315763 L135.940621,254.315763 C134.328524,254.315763 133.021566,253.01533 133.021566,251.410417 C133.021566,249.805892 134.328524,248.505071 135.940621,248.505071 L189.042122,248.505071 C190.654219,248.505071 191.961177,249.805892 191.961177,251.410417 C191.961177,253.01533 190.654219,254.315763 189.042122,254.315763" id="Fill-47" fill="#DADFE1"></path>
                            <path d="M121.977964,254.315763 L68.8768522,254.315763 C67.2647554,254.315763 65.9577972,253.01533 65.9577972,251.410417 C65.9577972,249.805892 67.2647554,248.505071 68.8768522,248.505071 L121.977964,248.505071 C123.590061,248.505071 124.897019,249.805892 124.897019,251.410417 C124.897019,253.01533 123.590061,254.315763 121.977964,254.315763" id="Fill-49" fill="#DADFE1"></path>
                            <path d="M54.9140006,254.315763 L20.0161152,254.315763 C18.4040185,254.315763 17.0970603,253.01533 17.0970603,251.410417 C17.0970603,249.805892 18.4040185,248.505071 20.0161152,248.505071 L54.9140006,248.505071 C56.5260973,248.505071 57.8330555,249.805892 57.8330555,251.410417 C57.8330555,253.01533 56.5260973,254.315763 54.9140006,254.315763" id="Fill-51" fill="#DADFE1"></path>
                            <path d="M111.844134,274.895296 L20.0161152,274.895296 C18.4040185,274.895296 17.0970603,273.594475 17.0970603,271.98995 C17.0970603,270.385424 18.4040185,269.084604 20.0161152,269.084604 L111.844134,269.084604 C113.456231,269.084604 114.763189,270.385424 114.763189,271.98995 C114.763189,273.594475 113.456231,274.895296 111.844134,274.895296" id="Fill-53" fill="#DADFE1"></path>
                            <path d="M178.908292,274.895296 L125.806791,274.895296 C124.194694,274.895296 122.887736,273.594475 122.887736,271.98995 C122.887736,270.385424 124.194694,269.084604 125.806791,269.084604 L178.908292,269.084604 C180.520389,269.084604 181.827347,270.385424 181.827347,271.98995 C181.827347,273.594475 180.520389,274.895296 178.908292,274.895296" id="Fill-55" fill="#DADFE1"></path>
                            <path d="M245.972061,274.895296 L192.87056,274.895296 C191.258852,274.895296 189.951505,273.594475 189.951505,271.98995 C189.951505,270.385424 191.258852,269.084604 192.87056,269.084604 L245.972061,269.084604 C247.584157,269.084604 248.891116,270.385424 248.891116,271.98995 C248.891116,273.594475 247.584157,274.895296 245.972061,274.895296" id="Fill-57" fill="#DADFE1"></path>
                            <path d="M294.832759,274.895296 L259.934873,274.895296 C258.322387,274.895296 257.015818,273.594475 257.015818,271.98995 C257.015818,270.385424 258.322387,269.084604 259.934873,269.084604 L294.832759,269.084604 C296.444855,269.084604 297.751814,270.385424 297.751814,271.98995 C297.751814,273.594475 296.444855,274.895296 294.832759,274.895296" id="Fill-59" fill="#DADFE1"></path>
                            <path d="M294.832759,124.600402 L203.004351,124.600402 C201.392254,124.600402 200.085296,123.299582 200.085296,121.695057 C200.085296,120.090531 201.392254,118.789711 203.004351,118.789711 L294.832759,118.789711 C296.444855,118.789711 297.751814,120.090531 297.751814,121.695057 C297.751814,123.299582 296.444855,124.600402 294.832759,124.600402" id="Fill-61" fill="#DADFE1"></path>
                            <path d="M189.042122,124.600402 L135.940621,124.600402 C134.328524,124.600402 133.021566,123.299582 133.021566,121.695057 C133.021566,120.090531 134.328524,118.789711 135.940621,118.789711 L189.042122,118.789711 C190.654219,118.789711 191.961177,120.090531 191.961177,121.695057 C191.961177,123.299582 190.654219,124.600402 189.042122,124.600402" id="Fill-63" fill="#DADFE1"></path>
                            <path d="M121.977964,124.600402 L68.8768522,124.600402 C67.2647554,124.600402 65.9577972,123.299582 65.9577972,121.695057 C65.9577972,120.090531 67.2647554,118.789711 68.8768522,118.789711 L121.977964,118.789711 C123.590061,118.789711 124.897019,120.090531 124.897019,121.695057 C124.897019,123.299582 123.590061,124.600402 121.977964,124.600402" id="Fill-65" fill="#DADFE1"></path>
                            <path d="M54.9140006,124.600402 L20.0161152,124.600402 C18.4040185,124.600402 17.0970603,123.299582 17.0970603,121.695057 C17.0970603,120.090531 18.4040185,118.789711 20.0161152,118.789711 L54.9140006,118.789711 C56.5260973,118.789711 57.8330555,120.090531 57.8330555,121.695057 C57.8330555,123.299582 56.5260973,124.600402 54.9140006,124.600402" id="Fill-67" fill="#DADFE1"></path>
                            <path d="M111.844134,145.179741 L20.0161152,145.179741 C18.4040185,145.179741 17.0970603,143.878921 17.0970603,142.274396 C17.0970603,140.66987 18.4040185,139.36905 20.0161152,139.36905 L111.844134,139.36905 C113.456231,139.36905 114.763189,140.66987 114.763189,142.274396 C114.763189,143.878921 113.456231,145.179741 111.844134,145.179741" id="Fill-69" fill="#DADFE1"></path>
                            <path d="M178.908292,145.179741 L125.806791,145.179741 C124.194694,145.179741 122.887736,143.878921 122.887736,142.274396 C122.887736,140.66987 124.194694,139.36905 125.806791,139.36905 L178.908292,139.36905 C180.520389,139.36905 181.827347,140.66987 181.827347,142.274396 C181.827347,143.878921 180.520389,145.179741 178.908292,145.179741" id="Fill-71" fill="#DADFE1"></path>
                            <path d="M245.972061,145.179741 L192.87056,145.179741 C191.258852,145.179741 189.951505,143.878921 189.951505,142.274396 C189.951505,140.66987 191.258852,139.36905 192.87056,139.36905 L245.972061,139.36905 C247.584157,139.36905 248.891116,140.66987 248.891116,142.274396 C248.891116,143.878921 247.584157,145.179741 245.972061,145.179741" id="Fill-73" fill="#DADFE1"></path>
                            <path d="M294.832759,145.179741 L259.934873,145.179741 C258.322387,145.179741 257.015818,143.878921 257.015818,142.274396 C257.015818,140.66987 258.322387,139.36905 259.934873,139.36905 L294.832759,139.36905 C296.444855,139.36905 297.751814,140.66987 297.751814,142.274396 C297.751814,143.878921 296.444855,145.179741 294.832759,145.179741" id="Fill-75" fill="#DADFE1"></path>
                            <path d="M294.832759,168.400001 L203.004351,168.400001 C201.392254,168.400001 200.085296,167.099568 200.085296,165.494655 C200.085296,163.890129 201.392254,162.589309 203.004351,162.589309 L294.832759,162.589309 C296.444855,162.589309 297.751814,163.890129 297.751814,165.494655 C297.751814,167.099568 296.444855,168.400001 294.832759,168.400001" id="Fill-77" fill="#DADFE1"></path>
                            <path d="M189.042122,168.400001 L135.940621,168.400001 C134.328524,168.400001 133.021566,167.099568 133.021566,165.494655 C133.021566,163.890129 134.328524,162.589309 135.940621,162.589309 L189.042122,162.589309 C190.654219,162.589309 191.961177,163.890129 191.961177,165.494655 C191.961177,167.099568 190.654219,168.400001 189.042122,168.400001" id="Fill-79" fill="#DADFE1"></path>
                            <path d="M121.977964,168.400001 L68.8768522,168.400001 C67.2647554,168.400001 65.9577972,167.099568 65.9577972,165.494655 C65.9577972,163.890129 67.2647554,162.589309 68.8768522,162.589309 L121.977964,162.589309 C123.590061,162.589309 124.897019,163.890129 124.897019,165.494655 C124.897019,167.099568 123.590061,168.400001 121.977964,168.400001" id="Fill-81" fill="#DADFE1"></path>
                            <path d="M54.9140006,168.400001 L20.0161152,168.400001 C18.4040185,168.400001 17.0970603,167.099568 17.0970603,165.494655 C17.0970603,163.890129 18.4040185,162.589309 20.0161152,162.589309 L54.9140006,162.589309 C56.5260973,162.589309 57.8330555,163.890129 57.8330555,165.494655 C57.8330555,167.099568 56.5260973,168.400001 54.9140006,168.400001" id="Fill-83" fill="#DADFE1"></path>
                            <path d="M111.844134,188.979533 L20.0161152,188.979533 C18.4040185,188.979533 17.0970603,187.678713 17.0970603,186.074188 C17.0970603,184.469275 18.4040185,183.168842 20.0161152,183.168842 L111.844134,183.168842 C113.456231,183.168842 114.763189,184.469275 114.763189,186.074188 C114.763189,187.678713 113.456231,188.979533 111.844134,188.979533" id="Fill-85" fill="#DADFE1"></path>
                            <path d="M178.908292,188.979533 L125.806791,188.979533 C124.194694,188.979533 122.887736,187.678713 122.887736,186.074188 C122.887736,184.469275 124.194694,183.168842 125.806791,183.168842 L178.908292,183.168842 C180.520389,183.168842 181.827347,184.469275 181.827347,186.074188 C181.827347,187.678713 180.520389,188.979533 178.908292,188.979533" id="Fill-87" fill="#DADFE1"></path>
                            <path d="M245.972061,188.979533 L192.87056,188.979533 C191.258852,188.979533 189.951505,187.678713 189.951505,186.074188 C189.951505,184.469275 191.258852,183.168842 192.87056,183.168842 L245.972061,183.168842 C247.584157,183.168842 248.891116,184.469275 248.891116,186.074188 C248.891116,187.678713 247.584157,188.979533 245.972061,188.979533" id="Fill-89" fill="#DADFE1"></path>
                            <path d="M294.832759,188.979533 L259.934873,188.979533 C258.322387,188.979533 257.015818,187.678713 257.015818,186.074188 C257.015818,184.469275 258.322387,183.168842 259.934873,183.168842 L294.832759,183.168842 C296.444855,183.168842 297.751814,184.469275 297.751814,186.074188 C297.751814,187.678713 296.444855,188.979533 294.832759,188.979533" id="Fill-91" fill="#DADFE1"></path>
                            <rect id="Rectangle" fill="#FFFFFF" x="118.431762" y="197.741514" width="25.7121588" height="11.6318538"></rect>
                            <path d="M165.172387,238.152898 C165.172387,233.508994 161.39007,229.74444 156.724253,229.74444 C152.058436,229.74444 148.276119,233.508994 148.276119,238.152898 C148.276119,241.630791 150.397299,244.614775 153.422218,245.894289 L153.422218,253.973862 C153.422218,255.781762 154.907822,257.260389 156.724253,257.260389 C158.540294,257.260389 160.026288,255.781762 160.026288,253.973862 L160.026288,245.894289 C163.051207,244.614775 165.172387,241.630791 165.172387,238.152898" id="Fill-106" fill="#FEFEFE"></path>
                            <path d="M291.898525,103.207877 L247.172376,103.207877 C244.603608,103.207877 242.501888,101.116028 242.501888,98.5593233 L242.501888,41.8415503 C242.501888,39.2848461 244.603608,37.1929971 247.172376,37.1929971 L291.898525,37.1929971 C294.467293,37.1929971 296.569013,39.2848461 296.569013,41.8415503 L296.569013,98.5593233 C296.569013,101.116028 294.467293,103.207877 291.898525,103.207877" id="Fill-108" fill="#427FE0"></path>
                            <path d="M266.713308,60.5082033 C261.834594,60.5082033 257.865458,64.4586988 257.865458,69.3148874 C257.865458,74.1710761 261.834594,78.1215716 266.713308,78.1215716 C271.592022,78.1215716 275.561547,74.1710761 275.561547,69.3148874 C275.561547,64.4586988 271.592022,60.5082033 266.713308,60.5082033 M266.713308,81.2206071 C260.117801,81.2206071 254.751799,75.8798068 254.751799,69.3148874 C254.751799,62.7499681 260.117801,57.4091678 266.713308,57.4091678 C273.309205,57.4091678 278.675206,62.7499681 278.675206,69.3148874 C278.675206,75.8798068 273.309205,81.2206071 266.713308,81.2206071" id="Fill-110" fill="#FEFEFE"></path>
                            <path d="M272.611083,70.5738319 C272.181399,70.5738319 271.832669,70.2267399 271.832669,69.799073 C271.832669,66.9359516 269.492365,64.6070264 266.616123,64.6070264 C266.186049,64.6070264 265.837708,64.2599344 265.837708,63.8322675 C265.837708,63.4042132 266.186049,63.0575086 266.616123,63.0575086 C270.350957,63.0575086 273.389498,66.0817799 273.389498,69.799073 C273.389498,70.2267399 273.040768,70.5738319 272.611083,70.5738319" id="Fill-112" fill="#FEFEFE"></path>
                            <path d="M285.50774,85.2516775 C285.173801,85.2516775 284.837136,85.1451482 284.553404,84.9251166 L275.099947,77.6071317 C274.42117,77.0818452 274.29857,76.1083606 274.826724,75.4327709 C275.354489,74.7571812 276.332567,74.6359314 277.011345,75.1612179 L286.464801,82.4792029 C287.143579,83.0044894 287.26579,83.9779739 286.737636,84.6535636 C286.43094,85.0463664 285.971676,85.2516775 285.50774,85.2516775" id="Fill-114" fill="#FEFEFE"></path>
                        </g>
                    </g>
                </g>
                <g id="Copy" transform="translate(40.000000, 50.000000)" fill="#FFFFFF" fill-rule="nonzero">
                    <path d="M0,35.9055464 L0,0 L5.94968714,0 L5.94968714,13.7968149 C6.91320405,12.8786335 7.97305674,12.1376561 9.12927703,11.5738605 C10.2854973,11.0100649 11.6424299,10.7281713 13.2001156,10.7281713 C14.5490393,10.7281713 15.7453881,10.9577132 16.7891981,11.416804 C17.8330081,11.8758947 18.7041749,12.5202228 19.4027247,13.3498078 C20.1012744,14.1793928 20.6312008,15.1700473 20.9925196,16.3218012 C21.3538384,17.4735551 21.5344952,18.7420762 21.5344952,20.1274025 L21.5344952,35.9055464 L15.584808,35.9055464 L15.584808,20.1274025 C15.584808,18.6132086 15.2355384,17.4413367 14.5369886,16.6117518 C13.8384389,15.7821668 12.7906299,15.3673806 11.3935304,15.3673806 C10.3657791,15.3673806 9.40227662,15.6009495 8.50299417,16.0680945 C7.60371173,16.5352394 6.7526179,17.1715135 5.94968714,17.9769357 L5.94968714,35.9055464 L0,35.9055464 Z M35.5054204,36.2921472 C33.3696246,36.2921472 31.7236413,35.6840625 30.567421,34.4678748 C29.4112007,33.2516871 28.8330992,31.5724068 28.8330992,29.4299835 L28.8330992,15.5848435 L26.3279678,15.5848435 C26.0067955,15.5848435 25.7297885,15.4801402 25.4969386,15.2707304 C25.2640887,15.0613206 25.1476655,14.7472106 25.1476655,14.328391 L25.1476655,11.9604613 L29.1221528,11.3080725 L30.3747186,4.54255903 C30.438953,4.22039012 30.587493,3.97071295 30.8203429,3.79352004 C31.0531928,3.61632714 31.3462581,3.52773202 31.6995477,3.52773202 L34.7827864,3.52773202 L34.7827864,11.332235 L41.286493,11.332235 L41.286493,15.5848435 L34.7827864,15.5848435 L34.7827864,29.0192202 C34.7827864,29.7924256 34.9754869,30.3964833 35.3608936,30.8314113 C35.7463004,31.2663394 36.2601684,31.4838001 36.902513,31.4838001 C37.2718611,31.4838001 37.5809848,31.4395025 37.8298933,31.3509061 C38.0788019,31.2623096 38.2955899,31.1696875 38.480264,31.0730368 C38.6649381,30.9763861 38.8295364,30.8837639 38.9740639,30.7951675 C39.1185915,30.706571 39.2631168,30.6622735 39.4076444,30.6622735 C39.5842891,30.6622735 39.7288145,30.706571 39.8412248,30.7951675 C39.9536351,30.8837639 40.0740729,31.0166566 40.2025419,31.1938495 L41.9850392,34.0933553 C41.117874,34.8182354 40.1222548,35.3659143 38.9981517,35.7364086 C37.8740487,36.1069028 36.7098166,36.2921472 35.5054204,36.2921472 Z M54.1493793,36.2921472 C52.0135835,36.2921472 50.3676002,35.6840625 49.2113799,34.4678748 C48.0551596,33.2516871 47.4770581,31.5724068 47.4770581,29.4299835 L47.4770581,15.5848435 L44.9719267,15.5848435 C44.6507544,15.5848435 44.3737474,15.4801402 44.1408975,15.2707304 C43.9080476,15.0613206 43.7916244,14.7472106 43.7916244,14.328391 L43.7916244,11.9604613 L47.7661117,11.3080725 L49.0186775,4.54255903 C49.0829119,4.22039012 49.2314519,3.97071295 49.4643018,3.79352004 C49.6971517,3.61632714 49.990217,3.52773202 50.3435066,3.52773202 L53.4267453,3.52773202 L53.4267453,11.332235 L59.9304518,11.332235 L59.9304518,15.5848435 L53.4267453,15.5848435 L53.4267453,29.0192202 C53.4267453,29.7924256 53.6194457,30.3964833 54.0048525,30.8314113 C54.3902593,31.2663394 54.9041272,31.4838001 55.5464718,31.4838001 C55.91582,31.4838001 56.2249437,31.4395025 56.4738522,31.3509061 C56.7227608,31.2623096 56.9395488,31.1696875 57.1242229,31.0730368 C57.308897,30.9763861 57.4734953,30.8837639 57.6180228,30.7951675 C57.7625504,30.706571 57.9070757,30.6622735 58.0516033,30.6622735 C58.228248,30.6622735 58.3727734,30.706571 58.4851837,30.7951675 C58.597594,30.8837639 58.7180318,31.0166566 58.8465007,31.1938495 L60.6289981,34.0933553 C59.7618329,34.8182354 58.7662137,35.3659143 57.6421106,35.7364086 C56.5180076,36.1069028 55.3537755,36.2921472 54.1493793,36.2921472 Z M78.2853571,10.6556837 C79.6342808,10.6556837 80.866761,10.9375773 81.9828348,11.5013729 C83.0989085,12.0651685 84.062411,12.8826598 84.873371,13.9538715 C85.6843311,15.0250832 86.3106077,16.3459559 86.7522196,17.9165294 C87.1938315,19.4871029 87.4146341,21.2871947 87.4146341,23.3168589 C87.4146341,25.1693301 87.1657293,26.8848539 86.6679123,28.4634816 C86.1700952,30.0421093 85.4595122,31.4113067 84.5361418,32.5711148 C83.6127714,33.7309229 82.4967144,34.6370094 81.1879373,35.2894014 C79.8791602,35.9417935 78.4138335,36.2679846 76.7919134,36.2679846 C75.3948139,36.2679846 74.2105088,36.0545509 73.2389626,35.6276771 C72.2674163,35.2008033 71.3962495,34.6088268 70.625436,33.8517298 L70.625436,44 L64.6757489,44 L64.6757489,11.1147721 L68.313007,11.1147721 C68.6984138,11.1147721 69.0276104,11.2033672 69.3006069,11.3805601 C69.5736034,11.557753 69.7502455,11.8315925 69.8305385,12.2020868 L70.3122946,14.4975288 C71.3079287,13.3538292 72.4520879,12.4276074 73.7448064,11.7188358 C75.0375249,11.0100642 76.5510267,10.6556837 78.2853571,10.6556837 Z M76.2378939,15.3673806 C75.0013806,15.3673806 73.9455425,15.6291389 73.0703479,16.1526634 C72.1951534,16.6761879 71.3801909,17.4131382 70.625436,18.3635365 L70.625436,18.3635365 L70.625436,29.4783086 C71.2998979,30.3159478 72.0345685,30.8998702 72.8294699,31.2300934 C73.6243714,31.5603165 74.4794798,31.7254256 75.3948209,31.7254256 C76.2941033,31.7254256 77.1090658,31.5562894 77.8397328,31.2180121 C78.5703998,30.8797347 79.1886472,30.3642722 79.6944935,29.671609 C80.2003399,28.9789458 80.5897555,28.1050757 80.862752,27.0499725 C81.1357484,25.9948693 81.2722446,24.7505106 81.2722446,23.3168589 C81.2722446,21.8670987 81.1558214,20.6388482 80.9229715,19.6320703 C80.6901215,18.6252924 80.3569103,17.8078011 79.9233277,17.1795717 C79.4897451,16.5513423 78.9638333,16.0922585 78.3455766,15.8023064 C77.7273199,15.5123544 77.0247661,15.3673806 76.2378939,15.3673806 Z" id="http"></path>
                    <path d="M106.068904,15.5078315 C105.905877,15.7692425 105.734701,15.9530443 105.555372,16.0592425 C105.376042,16.1654407 105.147808,16.218539 104.870662,16.218539 C104.577213,16.218539 104.263391,16.1368493 103.929186,15.9734675 L103.388143,15.713079 C103.194549,15.6211774 102.98771,15.5241701 102.767624,15.4220564 C102.327451,15.2178291 101.826151,15.0340273 101.263708,14.8706454 C100.701264,14.7072636 100.036939,14.6255739 99.2707126,14.6255739 C98.0806156,14.6255739 97.1432245,14.8788119 96.4585111,15.3852957 C95.7737978,15.8917795 95.4314462,16.5534661 95.4314462,17.3703754 C95.4314462,17.9095355 95.6066976,18.3629134 95.9572056,18.7305225 C96.3077137,19.0981317 96.7723336,19.4208061 97.3510794,19.6985552 C97.8140761,19.9207546 98.3266266,20.1246527 98.8887411,20.3102536 L99.3196205,20.4460235 C100.053242,20.666589 100.803155,20.9075736 101.569382,21.1689846 C102.335608,21.4303956 103.085521,21.728563 103.819143,22.0634958 C104.552764,22.3984286 105.208938,22.8232151 105.787684,23.3378679 C106.36643,23.8525208 106.83105,24.4692781 107.181558,25.1881583 C107.532066,25.9070384 107.707317,26.7729493 107.707317,27.7859168 C107.707317,28.9949426 107.487234,30.110007 107.047061,31.1311437 C106.606888,32.1522803 105.962941,33.0345291 105.115201,33.7779166 C104.267461,34.521304 103.220028,35.1013009 101.972871,35.5179247 C100.725715,35.9345484 99.2951746,36.1428571 97.6812074,36.1428571 C96.8171644,36.1428571 95.9735124,36.0652519 95.1502261,35.9100392 C94.3269398,35.7548264 93.5362707,35.5383487 92.7781952,35.2605995 C92.0201198,34.9828504 91.3191142,34.6560915 90.6751576,34.2803133 C90.031201,33.904535 89.4646907,33.4960865 88.9756098,33.0549554 L90.3694835,30.7512827 C90.5488132,30.4735336 90.7607451,30.2611404 91.0052856,30.1140967 C91.2498261,29.967053 91.5595727,29.8935323 91.9345348,29.8935323 C92.3094969,29.8935323 92.6640753,29.9997289 92.9982806,30.2121253 C93.3324859,30.4245217 93.7196692,30.6532529 94.1598421,30.8983257 C94.6000149,31.1433985 95.1176179,31.3721296 95.7126664,31.5845261 C96.3077149,31.7969225 97.0617034,31.9031191 97.9746545,31.9031191 C98.6919733,31.9031191 99.3073909,31.8173449 99.8209259,31.645794 C100.334461,31.474243 100.758325,31.2495963 101.09253,30.9718472 C101.426735,30.694098 101.671272,30.3714237 101.826148,30.0038145 C101.981024,29.6362053 102.05846,29.2563482 102.05846,28.8642317 C102.05846,28.276057 101.883209,27.7940878 101.532701,27.4183095 C101.182193,27.0425312 100.717573,26.7157724 100.138827,26.4380232 C99.5600812,26.1602741 98.8998318,25.9111205 98.158059,25.690555 C97.4162862,25.4699894 96.658222,25.2290048 95.8838439,24.9675938 C95.1094657,24.7061829 94.3514015,24.3998465 93.6096287,24.0485755 C92.8678559,23.6973045 92.2076065,23.2520956 91.6288607,22.7129355 C91.0501149,22.1737753 90.585495,21.5120887 90.2349869,20.7278558 C89.8844789,19.9436229 89.7092275,18.9960223 89.7092275,17.8850257 C89.7092275,16.8557199 89.9130082,15.8754435 90.3205757,14.9441669 C90.7281432,14.0128903 91.3272584,13.2000777 92.1179392,12.5057048 C92.9086201,11.8113319 93.8949186,11.2558419 95.0768643,10.8392182 C96.25881,10.4225945 97.6241405,10.2142857 99.1728969,10.2142857 C100.900983,10.2142857 102.47417,10.5001997 103.892505,11.0720362 C105.310839,11.6438727 106.492767,12.395418 107.438324,13.3266946 L106.068904,15.5078315 Z" id="s"></path>
                    <path d="M112.390244,32.8747628 C112.390244,32.3714923 112.482046,31.8925808 112.665652,31.4380139 C112.849259,30.983447 113.104708,30.5938241 113.432007,30.2691335 C113.759305,29.9444428 114.14647,29.6846942 114.593512,29.4898798 C115.040554,29.2950654 115.519521,29.1976597 116.030426,29.1976597 C116.525366,29.1976597 116.99635,29.2950654 117.443392,29.4898798 C117.890434,29.6846942 118.273608,29.9444428 118.592923,30.2691335 C118.912239,30.5938241 119.167688,30.983447 119.359278,31.4380139 C119.550867,31.8925808 119.64666,32.3714923 119.64666,32.8747628 C119.64666,33.3942678 119.550867,33.8772379 119.359278,34.3236875 C119.167688,34.7701372 118.912239,35.1557015 118.592923,35.4803922 C118.273608,35.8050828 117.890434,36.0607728 117.443392,36.24747 C116.99635,36.4341671 116.525366,36.5275142 116.030426,36.5275142 C115.519521,36.5275142 115.040554,36.4341671 114.593512,36.24747 C114.14647,36.0607728 113.759305,35.8050828 113.432007,35.4803922 C113.104708,35.1557015 112.849259,34.7701372 112.665652,34.3236875 C112.482046,33.8772379 112.390244,33.3942678 112.390244,32.8747628 Z M112.390244,15.5120177 C112.390244,15.0087472 112.482046,14.5298357 112.665652,14.0752688 C112.849259,13.6207019 113.104708,13.231079 113.432007,12.9063884 C113.759305,12.5816977 114.14647,12.3219491 114.593512,12.1271347 C115.040554,11.9323203 115.519521,11.8349146 116.030426,11.8349146 C116.525366,11.8349146 116.99635,11.9323203 117.443392,12.1271347 C117.890434,12.3219491 118.273608,12.5816977 118.592923,12.9063884 C118.912239,13.231079 119.167688,13.6207019 119.359278,14.0752688 C119.550867,14.5298357 119.64666,15.0087472 119.64666,15.5120177 C119.64666,16.0315227 119.550867,16.5144928 119.359278,16.9609424 C119.167688,17.4073921 118.912239,17.7929564 118.592923,18.1176471 C118.273608,18.4423377 117.890434,18.6980277 117.443392,18.8847249 C116.99635,19.071422 116.525366,19.1647691 116.030426,19.1647691 C115.519521,19.1647691 115.040554,19.071422 114.593512,18.8847249 C114.14647,18.6980277 113.759305,18.4423377 113.432007,18.1176471 C113.104708,17.7929564 112.849259,17.4073921 112.665652,16.9609424 C112.482046,16.5144928 112.390244,16.0315227 112.390244,15.5120177 Z M127.597586,36.2596458 C127.453893,36.63304 127.27029,36.9577258 127.046768,37.2337128 C126.823247,37.5096999 126.567798,37.7410385 126.280414,37.9277356 C125.99303,38.1144327 125.689684,38.2564828 125.370369,38.3538899 C125.051053,38.4512971 124.739724,38.5 124.436374,38.5 L121.945723,38.5 L135.931688,2.11859583 C136.203106,1.43674548 136.594262,0.913189682 137.105168,0.547912713 C137.616073,0.182635745 138.230747,0 138.949207,0 L141.463807,0 L127.597586,36.2596458 Z M146.133778,36.2596458 C145.990086,36.63304 145.806482,36.9577258 145.582961,37.2337128 C145.35944,37.5096999 145.103991,37.7410385 144.816607,37.9277356 C144.529223,38.1144327 144.225877,38.2564828 143.906561,38.3538899 C143.587245,38.4512971 143.275917,38.5 142.972567,38.5 L140.481916,38.5 L154.46788,2.11859583 C154.739299,1.43674548 155.130455,0.913189682 155.64136,0.547912713 C156.152266,0.182635745 156.76694,0 157.4854,0 L160,0 L146.133778,36.2596458 Z" id="://"></path>
                </g>
                <g id="link" transform="translate(142.000000, 180.000000)" fill="#FF5254" fill-rule="nonzero">
                    <path d="M114.421211,9.58594727 C101.649453,-3.19531576 80.8710605,-3.19531576 68.0990592,9.58594727 L49.0674191,28.63175 C45.7463592,31.9552813 43.0554106,36.1955568 41.3210281,41.3724792 C41.2919237,41.3821879 41.2637894,41.3969937 41.2346849,41.4067024 C37.2900623,53.2821436 40.2817568,66.1959304 49.0674191,74.9881306 C51.6923976,77.6150626 54.7808645,79.7781613 58.1259356,81.375 L59.3611768,80.1388396 C63.6332244,75.8636128 63.6332244,68.9619395 59.3611768,64.68647 C52.2584791,57.5784868 52.2584791,46.0406657 59.3611768,38.9329252 L78.3928169,19.8871225 C85.4955145,12.7791392 97.0245134,12.7791392 104.127211,19.8871225 C111.229909,26.9951057 111.229909,38.532684 104.127211,45.6406672 L89.6763683,60.1022638 C91.6033252,66.0646202 92.011515,72.3784316 91.0789601,78.523797 C92.6008801,77.4621505 94.0653188,76.3131257 95.3893286,74.9881306 L114.420969,55.9423278 C127.19297,43.1610648 127.19297,22.3669676 114.421211,9.58594727 Z" id="Path"></path>
                    <path d="M74.9379238,48.9608379 C72.314415,46.3338305 69.2281622,44.170427 65.8333327,42.625 L64.6499297,43.8099811 C60.3805164,48.0850879 60.380274,54.987202 64.6499297,59.2627943 C71.7486505,66.3709815 71.7486505,77.9091338 64.6499297,85.0170784 C58.6412874,91.0337335 51.3105887,98.3754218 45.5816774,104.111973 C38.4829567,111.22016 26.960413,111.22016 19.8616922,104.111973 C12.7629715,97.0037856 12.7629715,85.465876 19.8616922,78.3576887 L34.3517121,63.8471321 C32.4258341,57.8846045 32.0181152,51.5703691 32.950148,45.4248272 C31.4288377,46.4869897 29.965219,47.6358048 28.6417081,48.9608379 L9.57345577,68.0557324 C-3.19115192,80.8373623 -3.19115192,101.631814 9.57345577,114.413687 C22.3380635,127.195559 43.1048214,127.195316 55.8696715,114.413687 L74.9379238,95.318792 C78.2571242,91.9949226 80.9465661,87.7547681 82.6799775,82.5776971 C82.7090656,82.5679881 82.7371842,82.5531819 82.7662723,82.5434729 C86.7086864,70.6674481 83.7186669,57.7532905 74.9379238,48.9608379 Z" id="Path"></path>
                    <path d="M105.885665,99.975 L100.750091,94.839501 C99.3307353,93.4201663 97.0336301,93.4201663 95.6145166,94.839501 C94.1951611,96.2588357 94.1951611,98.5559073 95.6145166,99.975 L100.750091,105.110499 C102.169446,106.529834 104.466551,106.529834 105.885665,105.110499 C107.304778,103.691164 107.304778,101.394335 105.885665,99.975 Z" id="Path"></path>
                    <path d="M28.3855198,23.25 L23.249879,18.114501 C21.830572,16.6951663 19.5335452,16.6951663 18.1144802,18.114501 C16.6951733,19.5338357 16.6951733,21.8309073 18.1144802,23.25 L23.249879,28.385499 C24.669186,29.8048337 26.9662128,29.8048337 28.3855198,28.385499 C29.8048267,26.9661643 29.8048267,24.6690927 28.3855198,23.25 Z" id="Path"></path>
                    <path d="M119.046333,73.3391838 L112.191894,71.426808 C110.298194,70.89901 108.353191,72.0668092 107.846076,74.0377472 C107.338725,76.0207422 108.473763,78.0369551 110.354697,78.5610622 L117.209136,80.473192 C119.102836,81.00099 121.047839,79.8331908 121.554954,77.8622528 C122.056867,75.8913148 120.939796,73.8568934 119.046333,73.3391838 Z" id="Path"></path>
                    <path d="M13.6460097,45.4391838 L6.79182468,43.526808 C4.89819443,42.99901 2.95326359,44.1668092 2.44616784,46.1377472 C1.93859929,48.12025 3.0735954,50.1367091 4.95469601,50.6608162 L11.808881,52.573192 C13.7025113,53.10099 15.6474421,51.9331908 16.1545378,49.9622528 C16.6590331,47.9888542 15.5323113,45.9539407 13.6460097,45.4391838 Z" id="Path"></path>
                    <path d="M80.4731715,117.208826 L78.5609947,110.355515 C78.0307231,108.454799 76.008801,107.340276 74.0378146,107.847307 C72.0668281,108.354338 70.8990002,110.299021 71.4268111,112.192409 L73.339234,119.04572 C73.863354,120.926581 75.8798626,122.061196 77.8624141,121.553928 C79.8334006,121.046897 81.0009824,119.102214 80.4731715,117.208826 Z" id="Path"></path>
                    <path d="M52.573193,11.8084863 L50.660817,4.9541926 C50.1354795,3.05320355 48.1086858,1.94348554 46.1377475,2.44562467 C44.1668093,2.95272845 42.99901,4.89769013 43.526808,6.7913504 L45.4391841,13.6456441 C45.6124101,14.2678805 45.9492658,14.8068999 46.3926654,15.2331508 C47.2952124,16.1003101 48.641405,16.4922812 49.9620074,16.154212 C51.9331917,15.6473446 53.1009911,13.7021465 52.573193,11.8084863 Z" id="Path"></path>
                </g>
            </g>
        </g>
    </g>
</svg>