<?xml version="1.0" encoding="UTF-8"?>
<svg width="553px" height="408px" viewBox="0 0 553 408" version="1.1" xmlns="http://www.w3.org/2000/svg" xmlns:xlink="http://www.w3.org/1999/xlink">
    <!-- Generator: Sketch 63.1 (92452) - https://sketch.com -->
    <title>img_link_juice</title>
    <desc>Created with Sketch.</desc>
    <defs>
        <filter x="-8.0%" y="-11.6%" width="116.0%" height="123.2%" filterUnits="objectBoundingBox" id="filter-1">
            <feOffset dx="0" dy="5" in="SourceAlpha" result="shadowOffsetOuter1"></feOffset>
            <feGaussianBlur stdDeviation="5" in="shadowOffsetOuter1" result="shadowBlurOuter1"></feGaussianBlur>
            <feColorMatrix values="0 0 0 0 0   0 0 0 0 0   0 0 0 0 0  0 0 0 0.25 0" type="matrix" in="shadowBlurOuter1" result="shadowMatrixOuter1"></feColorMatrix>
            <feMerge>
                <feMergeNode in="shadowMatrixOuter1"></feMergeNode>
                <feMergeNode in="SourceGraphic"></feMergeNode>
            </feMerge>
        </filter>
        <filter x="-8.0%" y="-11.6%" width="116.0%" height="123.2%" filterUnits="objectBoundingBox" id="filter-2">
            <feOffset dx="0" dy="5" in="SourceAlpha" result="shadowOffsetOuter1"></feOffset>
            <feGaussianBlur stdDeviation="5" in="shadowOffsetOuter1" result="shadowBlurOuter1"></feGaussianBlur>
            <feColorMatrix values="0 0 0 0 0   0 0 0 0 0   0 0 0 0 0  0 0 0 0.25 0" type="matrix" in="shadowBlurOuter1" result="shadowMatrixOuter1"></feColorMatrix>
            <feMerge>
                <feMergeNode in="shadowMatrixOuter1"></feMergeNode>
                <feMergeNode in="SourceGraphic"></feMergeNode>
            </feMerge>
        </filter>
    </defs>
    <g id="Page-1" stroke="none" stroke-width="1" fill="none" fill-rule="evenodd">
        <g id="FAQs---What-is-a-Backlink" transform="translate(-125.000000, -4767.000000)">
            <g id="img_link_juice" transform="translate(135.000000, 4772.000000)">
                <g id="img_analyse_website">
                    <g id="img_blogs" filter="url(#filter-1)">
                        <rect id="Rectangle" fill="#FFFFFF" x="0" y="0" width="367.348673" height="254" rx="13"></rect>
                        <path d="M13,0 L355,0 C362.179702,3.05653909e-14 368,5.82029825 368,13 L368,43.0951157 L368,43.0951157 L0,43.0951157 L0,13 C-4.43197356e-15,5.82029825 5.82029825,-2.23382386e-15 13,0 Z" id="Rectangle-2" fill="#FF5254"></path>
                        <polygon id="Fill-5" fill="#E9ECED" points="0 65.9485861 367.348673 65.9485861 367.348673 43.0951157 0 43.0951157"></polygon>
                        <path d="M65.1327434,23.5073276 C65.1327434,26.7523893 62.5086617,29.3830334 59.2716951,29.3830334 C56.0347286,29.3830334 53.4088496,26.7523893 53.4088496,23.5073276 C53.4088496,20.262266 56.0347286,17.6298201 59.2716951,17.6298201 C62.5086617,17.6298201 65.1327434,20.262266 65.1327434,23.5073276" id="Fill-6" fill="#FFFFFF"></path>
                        <path d="M48.1982301,23.5073276 C48.1982301,26.7523893 45.5723511,29.3830334 42.3353845,29.3830334 C39.098418,29.3830334 36.4743363,26.7523893 36.4743363,23.5073276 C36.4743363,20.262266 39.098418,17.6298201 42.3353845,17.6298201 C45.5723511,17.6298201 48.1982301,20.262266 48.1982301,23.5073276" id="Fill-7" fill="#FFFFFF"></path>
                        <path d="M31.9150442,23.5073276 C31.9150442,26.7523893 29.2909625,29.3830334 26.0521987,29.3830334 C22.8152321,29.3830334 20.1911504,26.7523893 20.1911504,23.5073276 C20.1911504,20.262266 22.8152321,17.6298201 26.0521987,17.6298201 C29.2909625,17.6298201 31.9150442,20.262266 31.9150442,23.5073276" id="Fill-8" fill="#FFFFFF"></path>
                        <path d="M79.3566372,18.9357326 L310.788496,18.9357326 C312.169207,18.9357326 313.288496,20.0550208 313.288496,21.4357326 L313.288496,22.9652956 C313.288496,24.3460075 312.169207,25.4652956 310.788496,25.4652956 L79.3566372,25.4652956 C77.9759253,25.4652956 76.8566372,24.3460075 76.8566372,22.9652956 L76.8566372,21.4357326 C76.8566372,20.0550208 77.9759253,18.9357326 79.3566372,18.9357326 Z" id="Rectangle-3" fill="#FFFFFF"></path>
                        <polygon id="Fill-10" fill="#FFFFFF" points="335.757401 15.0179949 337.064395 19.0084658 341.295575 19.0084658 337.872045 21.4748247 339.180931 25.4652956 335.757401 22.9989368 332.335762 25.4652956 333.642756 21.4748247 330.223009 19.0084658 334.452298 19.0084658"></polygon>
                        <g id="Group-7" transform="translate(144.594690, 96.637532)" fill="#DADFE1">
                            <polygon id="Fill-16" points="0 45.7069409 104.756439 45.7069409 104.756439 37.7082262 0 37.7082262"></polygon>
                            <polygon id="Fill-17" points="0 26.281491 148.686559 26.281491 148.686559 18.2827763 0 18.2827763"></polygon>
                            <polygon id="Fill-18" points="0 7.99871465 191.490265 7.99871465 191.490265 0 0 0"></polygon>
                        </g>
                        <g id="Group-7-Copy" transform="translate(144.594690, 174.992288)" fill="#DADFE1">
                            <polygon id="Fill-16" points="0 45.7069409 104.756439 45.7069409 104.756439 37.7082262 0 37.7082262"></polygon>
                            <polygon id="Fill-17" points="0 26.281491 148.686559 26.281491 148.686559 18.2827763 0 18.2827763"></polygon>
                            <polygon id="Fill-18" points="0 7.99871465 191.490265 7.99871465 191.490265 0 0 0"></polygon>
                        </g>
                        <rect id="Rectangle-4" fill="#FF5254" x="23.4477876" y="87.496144" width="102.909735" height="63.9897172"></rect>
                        <rect id="Rectangle-4-Copy" fill="#FF5254" x="23.4477876" y="165.197943" width="102.909735" height="63.9897172"></rect>
                    </g>
                </g>
                <g id="img_analyse_website" transform="translate(165.000000, 134.000000)">
                    <g id="img_blogs" filter="url(#filter-2)">
                        <rect id="Rectangle" fill="#FFFFFF" x="0" y="0" width="367.348673" height="254" rx="13"></rect>
                        <path d="M13,0 L355,0 C362.179702,3.05653909e-14 368,5.82029825 368,13 L368,43.0951157 L368,43.0951157 L0,43.0951157 L0,13 C-4.43197356e-15,5.82029825 5.82029825,-2.23382386e-15 13,0 Z" id="Rectangle-2" fill="#FF5254"></path>
                        <polygon id="Fill-5" fill="#E9ECED" points="0 65.9485861 367.348673 65.9485861 367.348673 43.0951157 0 43.0951157"></polygon>
                        <path d="M65.1327434,23.5073276 C65.1327434,26.7523893 62.5086617,29.3830334 59.2716951,29.3830334 C56.0347286,29.3830334 53.4088496,26.7523893 53.4088496,23.5073276 C53.4088496,20.262266 56.0347286,17.6298201 59.2716951,17.6298201 C62.5086617,17.6298201 65.1327434,20.262266 65.1327434,23.5073276" id="Fill-6" fill="#FFFFFF"></path>
                        <path d="M48.1982301,23.5073276 C48.1982301,26.7523893 45.5723511,29.3830334 42.3353845,29.3830334 C39.098418,29.3830334 36.4743363,26.7523893 36.4743363,23.5073276 C36.4743363,20.262266 39.098418,17.6298201 42.3353845,17.6298201 C45.5723511,17.6298201 48.1982301,20.262266 48.1982301,23.5073276" id="Fill-7" fill="#FFFFFF"></path>
                        <path d="M31.9150442,23.5073276 C31.9150442,26.7523893 29.2909625,29.3830334 26.0521987,29.3830334 C22.8152321,29.3830334 20.1911504,26.7523893 20.1911504,23.5073276 C20.1911504,20.262266 22.8152321,17.6298201 26.0521987,17.6298201 C29.2909625,17.6298201 31.9150442,20.262266 31.9150442,23.5073276" id="Fill-8" fill="#FFFFFF"></path>
                        <path d="M79.3566372,18.9357326 L310.788496,18.9357326 C312.169207,18.9357326 313.288496,20.0550208 313.288496,21.4357326 L313.288496,22.9652956 C313.288496,24.3460075 312.169207,25.4652956 310.788496,25.4652956 L79.3566372,25.4652956 C77.9759253,25.4652956 76.8566372,24.3460075 76.8566372,22.9652956 L76.8566372,21.4357326 C76.8566372,20.0550208 77.9759253,18.9357326 79.3566372,18.9357326 Z" id="Rectangle-3" fill="#FFFFFF"></path>
                        <polygon id="Fill-10" fill="#FFFFFF" points="335.757401 15.0179949 337.064395 19.0084658 341.295575 19.0084658 337.872045 21.4748247 339.180931 25.4652956 335.757401 22.9989368 332.335762 25.4652956 333.642756 21.4748247 330.223009 19.0084658 334.452298 19.0084658"></polygon>
                        <g id="Group-7" transform="translate(144.594690, 96.637532)" fill="#DADFE1">
                            <polygon id="Fill-16" points="0 45.7069409 104.756439 45.7069409 104.756439 37.7082262 0 37.7082262"></polygon>
                            <polygon id="Fill-17" points="0 26.281491 148.686559 26.281491 148.686559 18.2827763 0 18.2827763"></polygon>
                            <polygon id="Fill-18" points="0 7.99871465 191.490265 7.99871465 191.490265 0 0 0"></polygon>
                        </g>
                        <g id="Group-7-Copy" transform="translate(144.594690, 174.992288)" fill="#DADFE1">
                            <polygon id="Fill-16" points="0 45.7069409 104.756439 45.7069409 104.756439 37.7082262 0 37.7082262"></polygon>
                            <polygon id="Fill-17" points="0 26.281491 148.686559 26.281491 148.686559 18.2827763 0 18.2827763"></polygon>
                            <polygon id="Fill-18" points="0 7.99871465 191.490265 7.99871465 191.490265 0 0 0"></polygon>
                        </g>
                        <rect id="Rectangle-4" fill="#427FE0" x="23.4477876" y="87.496144" width="102.909735" height="63.9897172"></rect>
                        <rect id="Rectangle-4-Copy" fill="#427FE0" x="23.4477876" y="165.197943" width="102.909735" height="63.9897172"></rect>
                    </g>
                </g>
                <g id="link" transform="translate(174.137404, 234.818393) rotate(-276.000000) translate(-174.137404, -234.818393) translate(134.137404, 195.318393)" fill="#FF5254" fill-rule="nonzero">
                    <path d="M73.1719711,6.82450321 C65.1732465,-1.24313401 52.1601104,-1.24313401 44.1612339,6.82450321 L32.2420572,18.8463689 C30.1621367,20.9442089 28.4768436,23.6207053 27.3906308,26.8884208 C27.3724032,26.894549 27.3547832,26.9038946 27.3365556,26.9100228 C24.8661088,34.4058979 26.7397537,42.5571852 32.2420572,48.1068935 C33.8860345,49.7650343 35.8202861,51.1303998 37.9152444,52.1383374 L38.688854,51.3580629 C41.3643612,48.659505 41.3643612,44.3031126 38.688854,41.6044015 C34.2405612,37.1177846 34.2405612,29.8350181 38.688854,25.3485545 L50.6080306,13.3266888 C55.0563234,8.84007197 62.2767297,8.84007197 66.7250225,13.3266888 C71.1733153,17.8133056 71.1733153,25.095919 66.7250225,29.5825358 L57.6747175,38.7108132 C58.8815362,42.4743011 59.1371782,46.4596302 58.5531357,50.3386349 C59.5062871,49.668515 60.4234389,48.9432412 61.2526426,48.1068935 L73.1718192,36.0850278 C81.1706957,28.0173906 81.1706957,14.8919872 73.1719711,6.82450321 Z" id="Path"></path>
                    <path d="M47.5138815,31.5941008 C45.8708248,29.9359124 43.9379597,28.5703544 41.8118386,27.5948684 L41.0706944,28.342838 C38.396837,31.0413202 38.3966852,35.3979909 41.0706944,38.0967795 C45.5164966,42.5835251 45.5164966,49.8665007 41.0706944,54.3530932 C37.307589,58.1508548 32.7165031,62.7849882 29.1285882,66.4059459 C24.6827861,70.8926916 17.4664226,70.8926916 13.0206204,66.4059459 C8.5748183,61.9192003 8.5748183,54.6363779 13.0206204,50.1496322 L22.0954613,40.9904508 C20.8893183,37.2268549 20.6339712,33.2412581 21.2176867,29.3621421 C20.2649173,30.0325877 19.3482789,30.7577291 18.5193877,31.5941008 L6.57728152,43.6469535 C-1.41696452,51.7148224 -1.41696452,64.8404494 6.57728152,72.9084714 C14.5715276,80.9764934 27.5773775,80.9763402 35.5717753,72.9084714 L47.5138815,60.8556186 C49.5926375,58.7575652 51.276987,56.0811452 52.3625916,52.8133358 C52.380809,52.8072074 52.3984191,52.7978616 52.4166365,52.7917333 C54.8857001,45.2954898 53.0131042,37.1439684 47.5138815,31.5941008 Z" id="Path"></path>
                    <path d="M67.7141864,63.3350593 L64.4438626,60.0623216 C63.5400197,59.1578117 62.0772275,59.1578117 61.1735388,60.0623216 C60.2696959,60.9668316 60.2696959,62.4307035 61.1735388,63.3350593 L64.4438626,66.607797 C65.3477054,67.512307 66.8104976,67.512307 67.7141864,66.607797 C68.6178751,65.703287 68.6178751,64.2395693 67.7141864,63.3350593 Z" id="Path"></path>
                    <path d="M18.579077,15.2806009 L15.3087108,12.0078632 C14.4048988,11.1033533 12.9421565,11.1033533 12.0384986,12.0078632 C11.1346867,12.9123732 11.1346867,14.3762451 12.0384986,15.2806009 L15.3087108,18.5533386 C16.2125227,19.4578486 17.675265,19.4578486 18.579077,18.5533386 C19.4828889,17.6488286 19.4828889,16.1849567 18.579077,15.2806009 Z" id="Path"></path>
                    <path d="M75.5253228,47.2540739 L71.257427,46.1166076 C70.0783201,45.8026774 68.8672699,46.4972753 68.5515166,47.6695741 C68.235616,48.8490441 68.9423441,50.048272 70.113502,50.3600069 L74.3813977,51.4973269 C75.5605046,51.8112571 76.7715548,51.1166591 77.0873082,49.9443604 C77.399823,48.7720617 76.7042824,47.5620036 75.5253228,47.2540739 Z" id="Path"></path>
                    <path d="M9.63953079,29.3733452 L5.37179293,28.2358789 C4.1927297,27.9219487 2.9817243,28.6165466 2.66598265,29.7888453 C2.3499466,30.9680227 3.05664855,32.167397 4.22791024,32.4791318 L8.4956481,33.6165982 C9.67471133,33.9305284 10.8857167,33.2359304 11.2014584,32.0636317 C11.5155808,30.8898695 10.8140309,29.6795186 9.63953079,29.3733452 Z" id="Path"></path>
                    <path d="M51.4982596,74.3974852 L50.3617671,70.1270796 C50.0466029,68.9427133 48.8448838,68.2482366 47.6734381,68.5641756 C46.5019924,68.8801146 45.8078998,70.091877 46.1216016,71.2716773 L47.2582403,75.5420829 C47.5697483,76.7140768 48.7682499,77.4210732 49.9465693,77.1049869 C51.118015,76.7890478 51.8119613,75.5772854 51.4982596,74.3974852 Z" id="Path"></path>
                    <path d="M33.6309935,8.46208657 L32.4943826,4.1910684 C32.1821509,3.00653224 30.9775364,2.31504949 29.8061194,2.62794028 C28.6347023,2.94392462 27.9406268,4.15586083 28.2543209,5.33583032 L29.3909317,9.60684848 C29.4938878,9.99457379 29.6940962,10.3304453 29.9576285,10.5960489 C30.4940527,11.1363895 31.2941554,11.3806328 32.0790487,11.1699766 C33.250612,10.8541396 33.9446875,9.64205606 33.6309935,8.46208657 Z" id="Path"></path>
                </g>
                <g id="link" transform="translate(368.386293, 98.899859) rotate(-276.000000) translate(-368.386293, -98.899859) translate(328.386293, 59.399859)" fill="#427FE0" fill-rule="nonzero">
                    <path d="M73.1719711,6.82450321 C65.1732465,-1.24313401 52.1601104,-1.24313401 44.1612339,6.82450321 L32.2420572,18.8463689 C30.1621367,20.9442089 28.4768436,23.6207053 27.3906308,26.8884208 C27.3724032,26.894549 27.3547832,26.9038946 27.3365556,26.9100228 C24.8661088,34.4058979 26.7397537,42.5571852 32.2420572,48.1068935 C33.8860345,49.7650343 35.8202861,51.1303998 37.9152444,52.1383374 L38.688854,51.3580629 C41.3643612,48.659505 41.3643612,44.3031126 38.688854,41.6044015 C34.2405612,37.1177846 34.2405612,29.8350181 38.688854,25.3485545 L50.6080306,13.3266888 C55.0563234,8.84007197 62.2767297,8.84007197 66.7250225,13.3266888 C71.1733153,17.8133056 71.1733153,25.095919 66.7250225,29.5825358 L57.6747175,38.7108132 C58.8815362,42.4743011 59.1371782,46.4596302 58.5531357,50.3386349 C59.5062871,49.668515 60.4234389,48.9432412 61.2526426,48.1068935 L73.1718192,36.0850278 C81.1706957,28.0173906 81.1706957,14.8919872 73.1719711,6.82450321 Z" id="Path"></path>
                    <path d="M47.5138815,31.5941008 C45.8708248,29.9359124 43.9379597,28.5703544 41.8118386,27.5948684 L41.0706944,28.342838 C38.396837,31.0413202 38.3966852,35.3979909 41.0706944,38.0967795 C45.5164966,42.5835251 45.5164966,49.8665007 41.0706944,54.3530932 C37.307589,58.1508548 32.7165031,62.7849882 29.1285882,66.4059459 C24.6827861,70.8926916 17.4664226,70.8926916 13.0206204,66.4059459 C8.5748183,61.9192003 8.5748183,54.6363779 13.0206204,50.1496322 L22.0954613,40.9904508 C20.8893183,37.2268549 20.6339712,33.2412581 21.2176867,29.3621421 C20.2649173,30.0325877 19.3482789,30.7577291 18.5193877,31.5941008 L6.57728152,43.6469535 C-1.41696452,51.7148224 -1.41696452,64.8404494 6.57728152,72.9084714 C14.5715276,80.9764934 27.5773775,80.9763402 35.5717753,72.9084714 L47.5138815,60.8556186 C49.5926375,58.7575652 51.276987,56.0811452 52.3625916,52.8133358 C52.380809,52.8072074 52.3984191,52.7978616 52.4166365,52.7917333 C54.8857001,45.2954898 53.0131042,37.1439684 47.5138815,31.5941008 Z" id="Path"></path>
                    <path d="M67.7141864,63.3350593 L64.4438626,60.0623216 C63.5400197,59.1578117 62.0772275,59.1578117 61.1735388,60.0623216 C60.2696959,60.9668316 60.2696959,62.4307035 61.1735388,63.3350593 L64.4438626,66.607797 C65.3477054,67.512307 66.8104976,67.512307 67.7141864,66.607797 C68.6178751,65.703287 68.6178751,64.2395693 67.7141864,63.3350593 Z" id="Path"></path>
                    <path d="M18.579077,15.2806009 L15.3087108,12.0078632 C14.4048988,11.1033533 12.9421565,11.1033533 12.0384986,12.0078632 C11.1346867,12.9123732 11.1346867,14.3762451 12.0384986,15.2806009 L15.3087108,18.5533386 C16.2125227,19.4578486 17.675265,19.4578486 18.579077,18.5533386 C19.4828889,17.6488286 19.4828889,16.1849567 18.579077,15.2806009 Z" id="Path"></path>
                    <path d="M75.5253228,47.2540739 L71.257427,46.1166076 C70.0783201,45.8026774 68.8672699,46.4972753 68.5515166,47.6695741 C68.235616,48.8490441 68.9423441,50.048272 70.113502,50.3600069 L74.3813977,51.4973269 C75.5605046,51.8112571 76.7715548,51.1166591 77.0873082,49.9443604 C77.399823,48.7720617 76.7042824,47.5620036 75.5253228,47.2540739 Z" id="Path"></path>
                    <path d="M9.63953079,29.3733452 L5.37179293,28.2358789 C4.1927297,27.9219487 2.9817243,28.6165466 2.66598265,29.7888453 C2.3499466,30.9680227 3.05664855,32.167397 4.22791024,32.4791318 L8.4956481,33.6165982 C9.67471133,33.9305284 10.8857167,33.2359304 11.2014584,32.0636317 C11.5155808,30.8898695 10.8140309,29.6795186 9.63953079,29.3733452 Z" id="Path"></path>
                    <path d="M51.4982596,74.3974852 L50.3617671,70.1270796 C50.0466029,68.9427133 48.8448838,68.2482366 47.6734381,68.5641756 C46.5019924,68.8801146 45.8078998,70.091877 46.1216016,71.2716773 L47.2582403,75.5420829 C47.5697483,76.7140768 48.7682499,77.4210732 49.9465693,77.1049869 C51.118015,76.7890478 51.8119613,75.5772854 51.4982596,74.3974852 Z" id="Path"></path>
                    <path d="M33.6309935,8.46208657 L32.4943826,4.1910684 C32.1821509,3.00653224 30.9775364,2.31504949 29.8061194,2.62794028 C28.6347023,2.94392462 27.9406268,4.15586083 28.2543209,5.33583032 L29.3909317,9.60684848 C29.4938878,9.99457379 29.6940962,10.3304453 29.9576285,10.5960489 C30.4940527,11.1363895 31.2941554,11.3806328 32.0790487,11.1699766 C33.250612,10.8541396 33.9446875,9.64205606 33.6309935,8.46208657 Z" id="Path"></path>
                </g>
            </g>
        </g>
    </g>
</svg>