<?xml version="1.0" encoding="UTF-8"?>
<svg width="569px" height="398px" viewBox="0 0 569 398" version="1.1" xmlns="http://www.w3.org/2000/svg" xmlns:xlink="http://www.w3.org/1999/xlink">
    <!-- Generator: Sketch 63.1 (92452) - https://sketch.com -->
    <title>img_good_traffic</title>
    <desc>Created with Sketch.</desc>
    <defs>
        <filter x="-5.4%" y="-7.8%" width="110.7%" height="115.6%" filterUnits="objectBoundingBox" id="filter-1">
            <feOffset dx="0" dy="5" in="SourceAlpha" result="shadowOffsetOuter1"></feOffset>
            <feGaussianBlur stdDeviation="5" in="shadowOffsetOuter1" result="shadowBlurOuter1"></feGaussianBlur>
            <feColorMatrix values="0 0 0 0 0   0 0 0 0 0   0 0 0 0 0  0 0 0 0.25 0" type="matrix" in="shadowBlurOuter1" result="shadowMatrixOuter1"></feColorMatrix>
            <feMerge>
                <feMergeNode in="shadowMatrixOuter1"></feMergeNode>
                <feMergeNode in="SourceGraphic"></feMergeNode>
            </feMerge>
        </filter>
    </defs>
    <g id="Page-1" stroke="none" stroke-width="1" fill="none" fill-rule="evenodd">
        <g id="FAQs---What-is-a-Backlink" transform="translate(-123.000000, -5772.000000)">
            <g id="img_good_traffic" transform="translate(133.000000, 5777.000000)">
                <g id="img_analyse_website">
                    <g id="img_blogs" filter="url(#filter-1)">
                        <rect id="Rectangle" fill="#FFFFFF" x="0" y="0" width="548.028319" height="378" rx="13"></rect>
                        <g id="img_good_traffic" transform="translate(47.124464, 122.467290)">
                            <g id="img_insufficient_website_traffic">
                                <g id="Group-4" transform="translate(0.000000, 154.098910)">
                                    <path d="M34.1652361,70.445216 C15.3259555,70.445216 0,54.6434735 0,35.222608 C0,15.8017425 15.3259555,0 34.1652361,0 C53.0030931,0 68.3304721,15.8017425 68.3304721,35.222608 C68.3304721,54.6434735 53.0030931,70.445216 34.1652361,70.445216" id="Fill-8" fill="#B9FD98"></path>
                                    <path d="M30.3284983,27.1507603 L28.9480847,27.1507603 C28.9480847,24.0035551 26.7808354,21.4433933 24.1166372,21.4433933 C21.452439,21.4433933 19.2851897,24.0035551 19.2851897,27.1507603 L17.9047761,27.1507603 C17.9047761,23.1050524 20.6918311,19.812717 24.1166372,19.812717 C27.5414433,19.812717 30.3284983,23.1050524 30.3284983,27.1507603" id="Fill-10" fill="#6D6D6D"></path>
                                    <path d="M50.425696,27.1507603 L49.0452824,27.1507603 C49.0452824,24.0035551 46.8780331,21.4433933 44.2138349,21.4433933 C41.5496367,21.4433933 39.3823874,24.0035551 39.3823874,27.1507603 L38.0019738,27.1507603 C38.0019738,23.1050524 40.7890288,19.812717 44.2138349,19.812717 C47.638641,19.812717 50.425696,23.1050524 50.425696,27.1507603" id="Fill-12" fill="#6D6D6D"></path>
                                    <path d="M34.3472201,55.035325 C42.420011,55.035325 48.9640816,48.4640935 48.9640816,40.3592383 L19.7317941,40.3592383 C19.7317941,48.4640935 26.2744293,55.035325 34.3472201,55.035325" id="Fill-14" fill="#6D6D6D"></path>
                                </g>
                                <g id="Group-4" opacity="0.302780878" transform="translate(0.000000, 75.948749)">
                                    <path d="M34.1652361,70.445216 C15.3259555,70.445216 0,54.6434735 0,35.222608 C0,15.8017425 15.3259555,0 34.1652361,0 C53.0030931,0 68.3304721,15.8017425 68.3304721,35.222608 C68.3304721,54.6434735 53.0030931,70.445216 34.1652361,70.445216" id="Fill-8" fill="#FFEE31"></path>
                                    <path d="M30.3284983,27.1507603 L28.9480847,27.1507603 C28.9480847,24.0035551 26.7808354,21.4433933 24.1166372,21.4433933 C21.452439,21.4433933 19.2851897,24.0035551 19.2851897,27.1507603 L17.9047761,27.1507603 C17.9047761,23.1050524 20.6918311,19.812717 24.1166372,19.812717 C27.5414433,19.812717 30.3284983,23.1050524 30.3284983,27.1507603" id="Fill-10" fill="#6D6D6D"></path>
                                    <path d="M50.425696,27.1507603 L49.0452824,27.1507603 C49.0452824,24.0035551 46.8780331,21.4433933 44.2138349,21.4433933 C41.5496367,21.4433933 39.3823874,24.0035551 39.3823874,27.1507603 L38.0019738,27.1507603 C38.0019738,23.1050524 40.7890288,19.812717 44.2138349,19.812717 C47.638641,19.812717 50.425696,23.1050524 50.425696,27.1507603" id="Fill-12" fill="#6D6D6D"></path>
                                </g>
                                <g id="Group-4" opacity="0.3">
                                    <path d="M0,35.222608 C0,15.8017425 15.3259555,0 34.1652361,0 C53.0030931,0 68.3304721,15.8017425 68.3304721,35.222608 C68.3304721,54.6434735 53.0030931,70.445216 34.1652361,70.445216 C15.3259555,70.445216 0,54.6434735 0,35.222608 Z" id="Fill-8" fill="#FF5254"></path>
                                    <path d="M30.3284983,29.7190755 L28.9480847,29.7190755 C28.9480847,27.5160318 26.7808354,25.7239186 24.1166372,25.7239186 C21.452439,25.7239186 19.2851897,27.5160318 19.2851897,29.7190755 L17.9047761,29.7190755 C17.9047761,26.88708 20.6918311,24.5824452 24.1166372,24.5824452 C27.5414433,24.5824452 30.3284983,26.88708 30.3284983,29.7190755" id="Fill-10" fill="#6D6D6D" transform="translate(24.116637, 27.150760) scale(1, -1) translate(-24.116637, -27.150760) "></path>
                                    <path d="M50.425696,29.7190755 L49.0452824,29.7190755 C49.0452824,27.5160318 46.8780331,25.7239186 44.2138349,25.7239186 C41.5496367,25.7239186 39.3823874,27.5160318 39.3823874,29.7190755 L38.0019738,29.7190755 C38.0019738,26.88708 40.7890288,24.5824452 44.2138349,24.5824452 C47.638641,24.5824452 50.425696,26.88708 50.425696,29.7190755" id="Fill-12" fill="#6D6D6D" transform="translate(44.213835, 27.150760) scale(1, -1) translate(-44.213835, -27.150760) "></path>
                                    <path d="M34.3472201,55.035325 C42.420011,55.035325 48.9640816,48.4640935 48.9640816,40.3592383 L19.7317941,40.3592383 C19.7317941,48.4640935 26.2744293,55.035325 34.3472201,55.035325" id="Fill-14" fill="#6D6D6D" transform="translate(34.347938, 47.697282) rotate(-180.000000) translate(-34.347938, -47.697282) "></path>
                                </g>
                                <rect id="Rectangle" fill="#6D6D6D" opacity="0.302780878" x="15.346951" y="120.710813" width="38.0019738" height="4.03592383" rx="2"></rect>
                            </g>
                        </g>
                        <path d="M13,0 L536,0 C543.179702,-1.31888981e-15 549,5.82029825 549,13 L549,64.1336761 L549,64.1336761 L0,64.1336761 L0,13 C-8.79259876e-16,5.82029825 5.82029825,1.31888981e-15 13,0 Z" id="Rectangle-2" fill="#FF5254"></path>
                        <polygon id="Fill-5" fill="#E9ECED" points="0 98.1439589 548.028319 98.1439589 548.028319 64.1336761 0 64.1336761"></polygon>
                        <path d="M97.1681416,34.9833459 C97.1681416,39.8126109 93.253411,43.7275064 88.4243495,43.7275064 C83.595288,43.7275064 79.6778761,39.8126109 79.6778761,34.9833459 C79.6778761,30.1540809 83.595288,26.2365039 88.4243495,26.2365039 C93.253411,26.2365039 97.1681416,30.1540809 97.1681416,34.9833459" id="Fill-6" fill="#FFFFFF"></path>
                        <path d="M71.9044248,34.9833459 C71.9044248,39.8126109 67.9870129,43.7275064 63.1579514,43.7275064 C58.3288899,43.7275064 54.4141593,39.8126109 54.4141593,34.9833459 C54.4141593,30.1540809 58.3288899,26.2365039 63.1579514,26.2365039 C67.9870129,26.2365039 71.9044248,30.1540809 71.9044248,34.9833459" id="Fill-7" fill="#FFFFFF"></path>
                        <path d="M47.6123894,34.9833459 C47.6123894,39.8126109 43.6976588,43.7275064 38.865916,43.7275064 C34.0368545,43.7275064 30.1221239,39.8126109 30.1221239,34.9833459 C30.1221239,30.1540809 34.0368545,26.2365039 38.865916,26.2365039 C43.6976588,26.2365039 47.6123894,30.1540809 47.6123894,34.9833459" id="Fill-8" fill="#FFFFFF"></path>
                        <path d="M117.158407,28.1799486 L464.878761,28.1799486 C466.259473,28.1799486 467.378761,29.2992367 467.378761,30.6799486 L467.378761,35.3971722 C467.378761,36.7778841 466.259473,37.8971722 464.878761,37.8971722 L117.158407,37.8971722 C115.777695,37.8971722 114.658407,36.7778841 114.658407,35.3971722 L114.658407,30.6799486 C114.658407,29.2992367 115.777695,28.1799486 117.158407,28.1799486 Z" id="Rectangle-3" fill="#FFFFFF"></path>
                        <polygon id="Fill-10" fill="#FFFFFF" points="500.898948 22.3496144 502.848784 28.2881893 509.161062 28.2881893 504.053676 31.9585973 506.006334 37.8971722 500.898948 34.2267642 495.794384 37.8971722 497.74422 31.9585973 492.642478 28.2881893 498.951934 28.2881893"></polygon>
                        <g id="Group-7" transform="translate(144.907725, 142.874612)" fill="#DADFE1">
                            <polygon id="Fill-16" points="0 69.0880053 199.100858 69.0880053 199.100858 57.3123044 0 57.3123044"></polygon>
                            <polygon id="Fill-17" points="0 39.648753 281.56867 39.648753 281.56867 27.873052 0 27.873052"></polygon>
                            <polygon id="Fill-18" points="0 12.5646408 362.858369 12.5646408 362.858369 0.788939884 0 0.788939884"></polygon>
                        </g>
                        <g id="Group-7-Copy" transform="translate(144.907725, 259.481295)" fill="#DADFE1">
                            <polygon id="Fill-16" points="0 69.0607608 199.100858 69.0607608 199.100858 57.2850598 0 57.2850598"></polygon>
                            <polygon id="Fill-17" points="0 39.6215084 281.56867 39.6215084 281.56867 27.8458075 0 27.8458075"></polygon>
                            <polygon id="Fill-18" points="0 12.5373963 362.858369 12.5373963 362.858369 0.761695331 0 0.761695331"></polygon>
                        </g>
                    </g>
                </g>
                <g id="link" transform="translate(352.000000, 204.000000)" fill="#FF5254" fill-rule="nonzero">
                    <path d="M146.713347,12.3480221 C130.331092,-4.11600735 103.678778,-4.11600735 87.296212,12.3480221 L62.8844459,36.8816426 C58.6245431,41.1628092 55.1728801,46.6248688 52.9481985,53.2934588 C52.9108664,53.305965 52.8747787,53.3250369 52.8374466,53.337543 C47.7777038,68.6347489 51.6151317,85.2694872 62.8844459,96.5950536 C66.2514895,99.9789043 70.2130467,102.765274 74.5037484,104.822222 L76.0881847,103.229877 C81.5679136,97.7227954 81.5679136,88.8324884 76.0881847,83.3250941 C66.9775987,74.1690315 66.9775987,59.3067268 76.0881847,50.1509768 L100.499951,25.6173563 C109.610537,16.4612937 124.398712,16.4612937 133.509298,25.6173563 C142.619884,34.7734189 142.619884,49.6354109 133.509298,58.7914736 L114.973292,77.4200043 C117.444987,85.1003416 117.96857,93.2334014 116.772387,101.14948 C118.724545,99.7819325 120.602971,98.30183 122.30127,96.5950536 L146.713036,72.0614331 C163.095603,55.5974037 163.095603,28.8117388 146.713347,12.3480221 Z" id="Path"></path>
                    <path d="M96.1224074,62.3392107 C92.7572491,58.955263 88.7985319,56.1685008 84.4440052,54.1777778 L82.9260616,55.7041968 C77.4497118,61.2111239 77.4494009,70.1019988 82.9260616,75.6095513 C92.0315464,84.7658767 92.0315464,99.6286081 82.9260616,108.784621 C75.2188136,116.534902 65.815772,125.992009 58.4673333,133.381478 C49.3618484,142.537804 34.5819536,142.537804 25.4764687,133.381478 C16.3709839,124.225153 16.3709839,109.362734 25.4764687,100.206409 L44.0627268,81.5148106 C41.5924151,73.8342528 41.0694366,65.7006468 42.2649493,57.7843414 C40.3135741,59.1525531 38.4361994,60.6323854 36.7385403,62.3392107 L12.279812,86.9360681 C-4.09327067,103.40057 -4.09327067,130.186691 12.279812,146.651506 C28.6528947,163.116321 55.2902855,163.116008 71.6636791,146.651506 L96.1224074,122.054649 C100.379925,117.773047 103.829655,112.311143 106.053091,105.642361 C106.090403,105.629855 106.12647,105.610782 106.163781,105.598276 C111.220691,90.3003182 107.385412,73.6651023 96.1224074,62.3392107 Z" id="Path"></path>
                    <path d="M136.384701,127.2 L129.555676,120.371075 C127.66829,118.483716 124.613716,118.483716 122.726651,120.371075 C120.839264,122.258434 120.839264,125.312963 122.726651,127.2 L129.555676,134.028925 C131.443063,135.916284 134.497637,135.916284 136.384701,134.028925 C138.271766,132.141566 138.271766,129.087359 136.384701,127.2 Z" id="Path"></path>
                    <path d="M36.2733972,29.4444444 L29.4442835,22.6155193 C27.5569613,20.7281602 24.5024921,20.7281602 22.6154917,22.6155193 C20.7281694,24.5028783 20.7281694,27.5574072 22.6154917,29.4444444 L29.4442835,36.2733696 C31.3316058,38.1607286 34.386075,38.1607286 36.2733972,36.2733696 C38.1607194,34.3860106 38.1607194,31.3314817 36.2733972,29.4444444 Z" id="Path"></path>
                    <path d="M153.315427,94.4491456 L144.634776,92.0272599 C142.236541,91.3588419 139.773336,92.8377751 139.131112,95.3338257 C138.488589,97.8451454 139.926033,100.398533 142.308099,101.062277 L150.98875,103.483851 C153.386985,104.152269 155.85019,102.673336 156.492414,100.177285 C157.128051,97.681235 155.713362,95.1047873 153.315427,94.4491456 Z" id="Path"></path>
                    <path d="M16.692796,57.9380345 L8.01246614,55.5161488 C5.61432031,54.8477307 3.15120597,56.326664 2.50900587,58.8227145 C1.86620698,61.333411 3.30359751,63.8871107 5.68587547,64.5508544 L14.3662053,66.9727401 C16.7643512,67.6411581 19.2274655,66.1622249 19.8696656,63.6661743 C20.5085724,61.1670077 19.0816606,58.5899368 16.692796,57.9380345 Z" id="Path"></path>
                    <path d="M103.483825,150.988358 L101.062192,142.309135 C100.390641,139.902015 97.8300228,138.490552 95.3339109,139.132671 C92.837799,139.774789 91.3588294,142.237589 92.0272638,144.635429 L94.4492091,153.314651 C95.1129692,155.696625 97.6667316,157.133533 100.17749,156.491116 C102.673602,155.848998 104.15226,153.386197 103.483825,150.988358 Z" id="Path"></path>
                    <path d="M66.9727415,14.3657054 L64.5508555,5.68523794 C63.8855535,3.27777272 61.3187657,1.87239507 58.8227149,2.50831798 C56.3266641,3.15052826 54.8477307,5.61368164 55.5161488,8.0118655 L57.9380348,16.692333 C58.157413,17.4803504 58.5840164,18.1629796 59.14555,18.7027955 C60.2885605,19.80099 61.9934162,20.2973931 63.6658637,19.8692529 C66.1622261,19.2273421 67.6411595,16.7638893 66.9727415,14.3657054 Z" id="Path"></path>
                </g>
            </g>
        </g>
    </g>
</svg>