<?xml version="1.0" encoding="UTF-8"?>
<svg width="333px" height="267px" viewBox="0 0 333 267" version="1.1" xmlns="http://www.w3.org/2000/svg" xmlns:xlink="http://www.w3.org/1999/xlink">
    <!-- Generator: Sketch 63.1 (92452) - https://sketch.com -->
    <title>img_link_audit_mob</title>
    <desc>Created with Sketch.</desc>
    <defs>
        <filter x="-9.4%" y="-13.7%" width="118.8%" height="127.3%" filterUnits="objectBoundingBox" id="filter-1">
            <feOffset dx="0" dy="5" in="SourceAlpha" result="shadowOffsetOuter1"></feOffset>
            <feGaussianBlur stdDeviation="5" in="shadowOffsetOuter1" result="shadowBlurOuter1"></feGaussianBlur>
            <feColorMatrix values="0 0 0 0 0   0 0 0 0 0   0 0 0 0 0  0 0 0 0.25 0" type="matrix" in="shadowBlurOuter1" result="shadowMatrixOuter1"></feColorMatrix>
            <feMerge>
                <feMergeNode in="shadowMatrixOuter1"></feMergeNode>
                <feMergeNode in="SourceGraphic"></feMergeNode>
            </feMerge>
        </filter>
        <linearGradient x1="0%" y1="30.7341112%" x2="100%" y2="69.2658888%" id="linearGradient-2">
            <stop stop-color="#ADDBFF" offset="0%"></stop>
            <stop stop-color="#AAD9FF" offset="0.0642956149%"></stop>
            <stop stop-color="#74B5FF" offset="100%"></stop>
        </linearGradient>
        <linearGradient x1="0%" y1="30.7341112%" x2="100%" y2="69.2658888%" id="linearGradient-3">
            <stop stop-color="#ADDBFF" offset="0%"></stop>
            <stop stop-color="#74B5FF" offset="100%"></stop>
        </linearGradient>
        <filter x="-11.4%" y="-11.5%" width="122.9%" height="123.0%" filterUnits="objectBoundingBox" id="filter-4">
            <feOffset dx="0" dy="2" in="SourceAlpha" result="shadowOffsetOuter1"></feOffset>
            <feGaussianBlur stdDeviation="4.5" in="shadowOffsetOuter1" result="shadowBlurOuter1"></feGaussianBlur>
            <feColorMatrix values="0 0 0 0 0   0 0 0 0 0   0 0 0 0 0  0 0 0 0.3 0" type="matrix" in="shadowBlurOuter1" result="shadowMatrixOuter1"></feColorMatrix>
            <feMerge>
                <feMergeNode in="shadowMatrixOuter1"></feMergeNode>
                <feMergeNode in="SourceGraphic"></feMergeNode>
            </feMerge>
        </filter>
        <polygon id="path-5" points="22.6865927 14.9434891 15.26598 22.3462924 0.426433401 7.54236065 7.84704613 0.139557336"></polygon>
        <linearGradient x1="16.6709495%" y1="16.8307163%" x2="83.3336043%" y2="83.1737752%" id="linearGradient-7">
            <stop stop-color="#C5C6C8" offset="0%"></stop>
            <stop stop-color="#F1F1F2" offset="100%"></stop>
        </linearGradient>
        <polygon id="path-8" points="0.44490099 15.1807713 52.3807958 66.9936951 67.2203423 52.1897633 15.2844476 0.376839535"></polygon>
        <linearGradient x1="74.1460738%" y1="99.7627909%" x2="24.1234557%" y2="8.42717223%" id="linearGradient-10">
            <stop stop-color="#427FDF" offset="0%"></stop>
            <stop stop-color="#396BB1" offset="100%"></stop>
        </linearGradient>
        <linearGradient x1="50%" y1="0%" x2="50%" y2="100%" id="linearGradient-11">
            <stop stop-color="#DA3E3F" offset="0%"></stop>
            <stop stop-color="#FF5254" offset="100%"></stop>
        </linearGradient>
        <linearGradient x1="50%" y1="0%" x2="50%" y2="100%" id="linearGradient-12">
            <stop stop-color="#DA3E3F" offset="0%"></stop>
            <stop stop-color="#FF5254" offset="100%"></stop>
        </linearGradient>
        <linearGradient x1="14.6447917%" y1="14.8144078%" x2="85.3554053%" y2="85.1853208%" id="linearGradient-13">
            <stop stop-color="#FEFEFE" offset="0%"></stop>
            <stop stop-color="#C5C6C8" offset="100%"></stop>
        </linearGradient>
        <path d="M108.376202,19.0418413 C133.1681,43.7742387 133.1681,83.8749897 108.376202,108.607387 C83.5843044,133.339785 43.3870803,133.339785 18.5951825,108.607387 C-6.19839416,83.8749897 -6.19839416,43.7742387 18.5951825,19.0418413 C43.3870803,-5.69055612 83.5843044,-5.69055612 108.376202,19.0418413" id="path-14"></path>
        <linearGradient x1="165.997457%" y1="218.441871%" x2="30.915411%" y2="3.35886314%" id="linearGradient-16">
            <stop stop-color="#427FDF" offset="0%"></stop>
            <stop stop-color="#396BB1" offset="100%"></stop>
        </linearGradient>
    </defs>
    <g id="Page-1" stroke="none" stroke-width="1" fill="none" fill-rule="evenodd">
        <g id="FAQs---What-is-included-within-an-SEO-campaign---Mobile" transform="translate(-21.000000, -4987.000000)">
            <g id="img_link_audit_mob" transform="translate(31.000000, 4992.000000)">
                <g id="img_analyse_website">
                    <g id="img_blogs" filter="url(#filter-1)">
                        <rect id="Rectangle" fill="#FFFFFF" x="0" y="0" width="311.789619" height="215.215072" rx="13"></rect>
                        <path d="M13,0 L299.342437,0 C306.522139,-3.09524665e-15 312.342437,5.82029825 312.342437,13 L312.342437,36.5146394 L312.342437,36.5146394 L0,36.5146394 L0,13 C-2.65561672e-15,5.82029825 5.82029825,-4.57467025e-16 13,0 Z" id="Rectangle-2" fill="#FF5254"></path>
                        <polygon id="Fill-5" fill="#E9ECED" points="0 55.8784633 311.789619 55.8784633 311.789619 36.5146394 0 36.5146394"></polygon>
                        <path d="M55.2818473,19.9178394 C55.2818473,22.6673913 53.0546405,24.896345 50.3072437,24.896345 C47.559847,24.896345 45.3311147,22.6673913 45.3311147,19.9178394 C45.3311147,17.1682875 47.559847,14.937807 50.3072437,14.937807 C53.0546405,14.937807 55.2818473,17.1682875 55.2818473,19.9178394" id="Fill-6" fill="#FFFFFF"></path>
                        <path d="M40.908567,19.9178394 C40.908567,22.6673913 38.6798348,24.896345 35.932438,24.896345 C33.1850412,24.896345 30.9578345,22.6673913 30.9578345,19.9178394 C30.9578345,17.1682875 33.1850412,14.937807 35.932438,14.937807 C38.6798348,14.937807 40.908567,17.1682875 40.908567,19.9178394" id="Fill-7" fill="#FFFFFF"></path>
                        <path d="M27.0881052,19.9178394 C27.0881052,22.6673913 24.8608984,24.896345 22.1119762,24.896345 C19.3645794,24.896345 17.1373726,22.6673913 17.1373726,19.9178394 C17.1373726,17.1682875 19.3645794,14.937807 22.1119762,14.937807 C24.8608984,14.937807 27.0881052,17.1682875 27.0881052,19.9178394" id="Fill-8" fill="#FFFFFF"></path>
                        <path d="M67.7325798,16.0443112 L263.405685,16.0443112 C264.786397,16.0443112 265.905685,17.1635994 265.905685,18.5443112 L265.905685,19.0768324 C265.905685,20.4575442 264.786397,21.5768324 263.405685,21.5768324 L67.7325798,21.5768324 C66.3518679,21.5768324 65.2325798,20.4575442 65.2325798,19.0768324 L65.2325798,18.5443112 C65.2325798,17.1635994 66.3518679,16.0443112 67.7325798,16.0443112 Z" id="Rectangle-3" fill="#FFFFFF"></path>
                        <polygon id="Fill-10" fill="#FFFFFF" points="284.976317 12.7247986 286.085637 16.1059383 289.67688 16.1059383 286.771136 18.1956926 287.882061 21.5768324 284.976317 19.4870781 282.072179 21.5768324 283.181499 18.1956926 280.278966 16.1059383 283.868603 16.1059383"></polygon>
                        <g id="Group-7" transform="translate(122.725701, 81.881313)" fill="#DADFE1">
                            <polygon id="Fill-16" points="0 38.7276478 88.9127216 38.7276478 88.9127216 31.9503095 0 31.9503095"></polygon>
                            <polygon id="Fill-17" points="0 22.2683975 126.198702 22.2683975 126.198702 15.4910591 0 15.4910591"></polygon>
                            <polygon id="Fill-18" points="0 6.77733837 162.528631 6.77733837 162.528631 0 0 0"></polygon>
                        </g>
                        <g id="Group-7-Copy" transform="translate(122.725701, 148.271566)" fill="#DADFE1">
                            <polygon id="Fill-16" points="0 38.7276478 88.9127216 38.7276478 88.9127216 31.9503095 0 31.9503095"></polygon>
                            <polygon id="Fill-17" points="0 22.2683975 126.198702 22.2683975 126.198702 15.4910591 0 15.4910591"></polygon>
                            <polygon id="Fill-18" points="0 6.77733837 162.528631 6.77733837 162.528631 0 0 0"></polygon>
                        </g>
                        <rect id="Rectangle-4" fill="url(#linearGradient-2)" x="19.901465" y="74.135783" width="87.3453187" height="54.218707"></rect>
                        <rect id="Rectangle-4-Copy" fill="url(#linearGradient-3)" x="19.901465" y="139.972784" width="87.3453187" height="54.218707"></rect>
                    </g>
                    <g id="Group" filter="url(#filter-4)" transform="translate(125.339132, 65.033838)">
                        <g id="Group-3" transform="translate(109.126658, 110.005335)">
                            <mask id="mask-6" fill="white">
                                <use xlink:href="#path-5"></use>
                            </mask>
                            <g id="Clip-2"></g>
                            <polygon id="Fill-1" fill="url(#linearGradient-7)" mask="url(#mask-6)" points="22.6865927 14.9434891 15.26598 22.3462924 0.426433401 7.54236065 7.84704613 0.139557336"></polygon>
                        </g>
                        <g id="Group-6" transform="translate(119.199888, 119.539083)">
                            <mask id="mask-9" fill="white">
                                <use xlink:href="#path-8"></use>
                            </mask>
                            <g id="Clip-5"></g>
                            <polygon id="Fill-4" fill="url(#linearGradient-10)" mask="url(#mask-9)" points="0.44490099 15.1807713 52.3807958 66.9936951 67.2203423 52.1897633 15.2844476 0.376839535"></polygon>
                        </g>
                        <polygon id="Fill-7" fill="url(#linearGradient-11)" points="137.748398 123.172821 122.908851 137.976753 119.645125 134.72086 134.484671 119.916928"></polygon>
                        <polygon id="Fill-8" fill="url(#linearGradient-12)" points="168.317629 183.275378 171.581355 186.532946 186.420902 171.729014 183.157175 168.471446"></polygon>
                        <g id="Group-18" transform="translate(0.000000, 0.066994)">
                            <g id="SEO-AUDIT" transform="translate(5.036615, 5.024527)">
                                <mask id="mask-15" fill="white">
                                    <use xlink:href="#path-14"></use>
                                </mask>
                                <use id="Mask" fill-opacity="0.3" fill="url(#linearGradient-13)" style="mix-blend-mode: multiply;" xlink:href="#path-14"></use>
                            </g>
                            <path d="M68.5219715,10.5405089 C52.910144,10.5405089 38.2317691,16.6067879 27.1931879,27.6188766 C16.1529279,38.6309652 10.0737336,53.2741121 10.0737336,68.8484714 C10.0737336,84.4245055 16.1529279,99.0659776 27.191509,110.079741 C49.9805129,132.812377 87.0617513,132.812377 109.852434,110.079741 C132.639759,87.3437558 132.639759,50.353187 109.852434,27.6188766 C98.812174,16.6067879 84.1337991,10.5405089 68.5219715,10.5405089 M68.5219715,137.173666 C50.974405,137.173666 33.4285173,130.511143 20.0697355,117.184422 C7.12731385,104.273063 0.000503661497,87.107603 0.000503661497,68.8484714 C0.000503661497,50.5893398 7.12731385,33.4238803 20.0697355,20.5125204 C33.0121571,7.60283532 50.2189127,0.491454582 68.5219715,0.491454582 C86.8250304,0.491454582 104.031786,7.60283532 116.974208,20.5141952 C143.690092,47.165962 143.690092,90.5326557 116.974208,117.184422 C103.615426,130.511143 86.0695381,137.173666 68.5219715,137.173666" id="Fill-12" fill="url(#linearGradient-16)"></path>
                        </g>
                    </g>
                </g>
                <g id="link" transform="translate(158.000000, 98.000000)" fill="#FF5254" fill-rule="nonzero">
                    <path d="M67.3803344,5.68032118 C59.8874231,-1.89344039 47.6971955,-1.89344039 40.2041419,5.68032118 L29.0386953,16.9662457 C27.0903022,18.9356624 25.5115816,21.448312 24.4940574,24.5159882 C24.4769824,24.5217413 24.4604766,24.5305147 24.4434017,24.5362677 C22.1291779,31.5732687 23.8843396,39.2255596 29.0386953,44.435532 C30.5787128,45.9921666 32.3906487,47.2739487 34.3531286,48.2201835 L35.0778176,47.4876749 C37.5841344,44.9543143 37.5841344,40.8646068 35.0778176,38.3311023 C30.9108204,34.1191422 30.9108204,27.282204 35.0778176,23.0703877 L46.2432642,11.7844632 C50.4102614,7.57250309 57.1740726,7.57250309 61.3410698,11.7844632 C65.508067,15.9964233 65.508067,22.8332177 61.3410698,27.0451778 L52.8630767,35.6146505 C53.9935802,39.1477494 54.2330562,42.8891091 53.6859466,46.5306532 C54.5788238,45.9015559 55.4379779,45.2206811 56.2147455,44.435532 L67.3801921,33.1496075 C74.8732456,25.575846 74.8732456,13.2539389 67.3803344,5.68032118 Z" id="Path"></path>
                    <path d="M43.9644392,28.5342284 C42.4252841,26.9775491 40.6146471,25.6955864 38.6229749,24.7798165 L37.9286983,25.4819978 C35.423927,28.0152873 35.4237848,32.1052561 37.9286983,34.6388333 C42.0933624,38.8509144 42.0933624,45.6880489 37.9286983,49.8999861 C34.4035595,53.4652606 30.102799,57.8157067 26.7417722,61.2150007 C22.5771081,65.4270817 15.817084,65.4270817 11.65242,61.2150007 C7.48775594,57.0029197 7.48775594,50.165929 11.65242,45.9538479 L20.1533974,37.3553631 C19.0235269,33.8221628 18.7843272,30.0805519 19.3311304,26.4389032 C18.438611,27.0683062 17.5799379,27.7490568 16.8034631,28.5342284 L5.6165369,39.849243 C-1.87217897,47.423222 -1.87217897,59.745339 5.6165369,67.3194618 C13.1052528,74.8935846 25.288655,74.8934408 32.7775131,67.3194618 L43.9644392,56.0044472 C45.9117414,54.03483 47.4895781,51.5222521 48.5065326,48.4544879 C48.523598,48.4487347 48.5400945,48.439961 48.5571599,48.4342078 C50.8700879,41.396861 49.1159089,33.7443504 43.9644392,28.5342284 Z" id="Path"></path>
                    <path d="M62.3217956,58.6009174 L59.2706961,55.5498626 C58.4274419,54.7066207 57.0627071,54.7066207 56.2195966,55.5498626 C55.3763424,56.3931045 55.3763424,57.7578193 56.2195966,58.6009174 L59.2706961,61.6519722 C60.1139504,62.4952141 61.4786851,62.4952141 62.3217956,61.6519722 C63.1649061,60.8087303 63.1649061,59.4441593 62.3217956,58.6009174 Z" id="Path"></path>
                    <path d="M16.780425,13.7293578 L13.7292859,10.678303 C12.8860605,9.83506108 11.5213723,9.83506108 10.6782906,10.678303 C9.8350652,11.5215449 9.8350652,12.8862597 10.6782906,13.7293578 L13.7292859,16.7804126 C14.5725114,17.6236545 15.9371995,17.6236545 16.780425,16.7804126 C17.6236504,15.9371707 17.6236504,14.5724559 16.780425,13.7293578 Z" id="Path"></path>
                    <path d="M70.1461559,43.3674493 L66.1972635,42.2657156 C65.1062889,41.9616473 63.9857585,42.634425 63.6936061,43.7698968 C63.4013175,44.9123147 64.0552213,46.0738698 65.1388411,46.3758117 L69.0877334,47.4774037 C70.178708,47.781472 71.2992384,47.1086943 71.5913908,45.9732225 C71.8805467,44.8377506 71.2369943,43.6657056 70.1461559,43.3674493 Z" id="Path"></path>
                    <path d="M7.8615662,26.62433 L3.91281998,25.5225963 C2.82188571,25.218528 1.7013968,25.8913057 1.40925522,27.0267775 C1.11684126,28.1689119 1.77072084,29.3306088 2.85443669,29.6325507 L6.8031829,30.7342844 C7.89411717,31.0383527 9.01460608,30.365575 9.30674766,29.2301032 C9.59739107,28.0932138 8.94827837,26.9208852 7.8615662,26.62433 Z" id="Path"></path>
                    <path d="M47.4773919,69.0875547 L46.3757728,65.1393122 C46.0702794,64.0442956 44.9054353,63.4022108 43.7699356,63.6943151 C42.6344358,63.9864194 41.9616416,65.1067654 42.2657174,66.1975605 L43.3674782,70.145803 C43.6694276,71.2293806 44.8311529,71.8830406 45.9733154,71.5908001 C47.1088152,71.2986958 47.7814676,70.1783498 47.4773919,69.0875547 Z" id="Path"></path>
                    <path d="M30.734285,6.80295549 L29.6325512,2.85414667 C29.3299004,1.75897295 28.1622497,1.11965626 27.0267777,1.4089423 C25.8913058,1.7010885 25.218528,2.82159518 25.5225963,3.91254674 L26.6243302,7.86135556 C26.7241269,8.21983053 26.918192,8.53036356 27.1736378,8.77592981 C27.6936017,9.27550663 28.4691531,9.50132407 29.2299619,9.30655993 C30.3655756,9.01454993 31.0383533,7.89390705 30.734285,6.80295549 Z" id="Path"></path>
                </g>
            </g>
        </g>
    </g>
</svg>