<?xml version="1.0" encoding="UTF-8"?>
<svg width="509px" height="350px" viewBox="0 0 509 350" version="1.1" xmlns="http://www.w3.org/2000/svg" xmlns:xlink="http://www.w3.org/1999/xlink">
    <!-- Generator: Sketch 63.1 (92452) - https://sketch.com -->
    <title>img_well_performing_linking_sites</title>
    <desc>Created with Sketch.</desc>
    <defs>
        <filter x="-6.0%" y="-8.9%" width="112.1%" height="117.9%" filterUnits="objectBoundingBox" id="filter-1">
            <feOffset dx="0" dy="5" in="SourceAlpha" result="shadowOffsetOuter1"></feOffset>
            <feGaussianBlur stdDeviation="5" in="shadowOffsetOuter1" result="shadowBlurOuter1"></feGaussianBlur>
            <feColorMatrix values="0 0 0 0 0   0 0 0 0 0   0 0 0 0 0  0 0 0 0.25 0" type="matrix" in="shadowBlurOuter1" result="shadowMatrixOuter1"></feColorMatrix>
            <feMerge>
                <feMergeNode in="shadowMatrixOuter1"></feMergeNode>
                <feMergeNode in="SourceGraphic"></feMergeNode>
            </feMerge>
        </filter>
        <linearGradient x1="50%" y1="0%" x2="50%" y2="96.7779082%" id="linearGradient-2">
            <stop stop-color="#B8E986" offset="0%"></stop>
            <stop stop-color="#FFFFFF" stop-opacity="0" offset="100%"></stop>
        </linearGradient>
    </defs>
    <g id="Page-1" stroke="none" stroke-width="1" fill="none" fill-rule="evenodd">
        <g id="FAQs---What-is-a-Backlink" transform="translate(-123.000000, -3326.000000)">
            <g id="img_well_performing_linking_sites" transform="translate(133.000000, 3331.000000)">
                <g id="img-keyword_research">
                    <g id="lost-rankings-02">
                        <g id="content-blogs" filter="url(#filter-1)">
                            <rect id="Rectangle" fill="#FFFFFF" x="0" y="0" width="487.961783" height="330" rx="13"></rect>
                            <path d="M37.3004651,98.8482759 L37.3004651,93.7655172 L41.6471318,93.7655172 C42.5569038,93.7655172 43.2392225,93.9635996 43.6941085,94.3597701 C44.1489945,94.7559407 44.3764341,95.3923328 44.3764341,96.2689655 C44.3764341,97.1793149 44.1489945,97.8367796 43.6941085,98.2413793 C43.2392225,98.645979 42.5569038,98.8482759 41.6471318,98.8482759 L37.3004651,98.8482759 Z M33.3328682,90.6804598 L33.3328682,108.735632 L37.3004651,108.735632 L37.3004651,101.68046 L41.268062,101.68046 C42.2620722,101.68046 42.9780857,101.899615 43.416124,102.337931 C43.8541624,102.776247 44.1405678,103.467428 44.2753488,104.411494 C44.3764346,105.136402 44.4522478,105.895015 44.5027907,106.687356 C44.5533336,107.479697 44.6881126,108.162449 44.9071318,108.735632 L48.8747287,108.735632 C48.6894048,108.482757 48.5504139,108.175098 48.4577519,107.812644 C48.36509,107.45019 48.2977005,107.066669 48.2555814,106.662069 C48.227502,106.392336 48.2050387,106.126352 48.1881912,105.864113 L48.1165891,104.462069 L48.1165891,104.462069 C48.0828939,104.006894 48.0197162,103.551726 47.9270543,103.096552 C47.8343923,102.641377 47.6869778,102.22414 47.4848062,101.844828 C47.2826346,101.465515 47.0215003,101.136783 46.7013953,100.858621 C46.3812904,100.580458 45.9769533,100.373947 45.4883721,100.23908 L45.4883721,100.188506 C46.4992299,99.783906 47.2278789,99.1938736 47.6743411,98.4183908 C48.1208033,97.642908 48.344031,96.7241432 48.344031,95.662069 C48.344031,94.9708778 48.2218875,94.3260566 47.9775969,93.7275862 C47.7333063,93.1291158 47.3795114,92.6023011 46.9162016,92.1471264 C46.4528917,91.6919517 45.8969283,91.3337178 45.2482946,91.0724138 C44.5996608,90.8111098 43.8710118,90.6804598 43.0623256,90.6804598 L33.3328682,90.6804598 Z M59.9941085,100.795402 L54.1564341,100.795402 C54.1732817,100.542529 54.2280357,100.25594 54.3206977,99.9356322 C54.4133596,99.6153241 54.5734097,99.3118788 54.8008527,99.0252874 C55.0282957,98.7386959 55.3315485,98.4984684 55.7106202,98.3045977 C56.0896918,98.110727 56.5656302,98.0137931 57.1384496,98.0137931 C58.0145263,98.0137931 58.6673622,98.2498061 59.0969767,98.7218391 C59.5265913,99.1938721 59.8256322,99.8850529 59.9941085,100.795402 Z M54.1564341,103.071264 L63.5826357,103.071264 C63.6500262,102.059765 63.5657893,101.090426 63.3299225,100.163218 C63.0940557,99.2360107 62.7107778,98.4099653 62.1800775,97.6850575 C61.6493772,96.9601496 60.9712703,96.3827608 60.1457364,95.9528736 C59.3202026,95.5229864 58.3514784,95.308046 57.2395349,95.308046 C56.2455247,95.308046 55.3399782,95.4850557 54.5228682,95.8390805 C53.7057582,96.1931052 53.0023802,96.6777747 52.4127132,97.2931034 C51.8230461,97.9084322 51.368167,98.6375437 51.048062,99.4804598 C50.7279571,100.323376 50.567907,101.233712 50.567907,102.211494 C50.567907,103.222994 50.7237452,104.150187 51.0354264,104.993103 C51.3471075,105.83602 51.7893511,106.560917 52.3621705,107.167816 C52.9349899,107.774716 53.6341561,108.242527 54.4596899,108.571264 C55.2852238,108.900002 56.2118295,109.064368 57.2395349,109.064368 C58.7221263,109.064368 59.9856795,108.727206 61.0302326,108.052874 C62.0747856,107.378541 62.8497649,106.257479 63.3551938,104.689655 L60.1962791,104.689655 C60.0783457,105.094255 59.7582455,105.477776 59.235969,105.84023 C58.7136925,106.202684 58.0903395,106.383908 57.3658915,106.383908 C56.3550337,106.383908 55.5800544,106.122608 55.0409302,105.6 C54.5018061,105.077392 54.206977,104.234489 54.1564341,103.071264 Z M72.3012403,106.383908 C71.7284209,106.383908 71.239847,106.265902 70.8355039,106.029885 C70.4311628,105.793869 70.1068488,105.486209 69.8625581,105.106897 C69.6182675,104.727584 69.4413701,104.28506 69.3318605,103.77931 C69.2223509,103.273561 69.1675969,102.75939 69.1675969,102.236782 C69.1675969,101.697315 69.218139,101.174713 69.3192248,100.668966 C69.4203106,100.163216 69.5929962,99.716477 69.8372868,99.3287356 C70.0815774,98.9409942 70.4016776,98.6249054 70.7975969,98.3804598 C71.1935162,98.1360141 71.686302,98.0137931 72.275969,98.0137931 C72.8487884,98.0137931 73.3331505,98.1360141 73.7290698,98.3804598 C74.1249891,98.6249054 74.4493011,98.9452087 74.7020155,99.3413793 C74.9547299,99.7375499 75.1358392,100.188503 75.2453488,100.694253 C75.3548584,101.200003 75.4096124,101.714174 75.4096124,102.236782 C75.4096124,102.75939 75.3590703,103.273561 75.2579845,103.77931 C75.1568987,104.28506 74.9842131,104.727584 74.7399225,105.106897 C74.4956319,105.486209 74.1755317,105.793869 73.7796124,106.029885 C73.3836931,106.265902 72.8909073,106.383908 72.3012403,106.383908 Z M65.7054264,95.662069 L65.7054264,113.312644 L69.2939535,113.312644 L69.2939535,107.117241 L69.3444961,107.117241 C69.7825345,107.757858 70.3427098,108.242527 71.0250388,108.571264 C71.7073678,108.900002 72.4528642,109.064368 73.2615504,109.064368 C74.2218653,109.064368 75.0600223,108.878929 75.7760465,108.508046 C76.4920708,108.137163 77.0901526,107.63985 77.5703101,107.016092 C78.0504675,106.392334 78.4084743,105.675866 78.6443411,104.866667 C78.8802079,104.057467 78.9981395,103.214564 78.9981395,102.337931 C78.9981395,101.410723 78.8802079,100.52146 78.6443411,99.6701149 C78.4084743,98.8187697 78.0462557,98.0728001 77.5576744,97.4321839 C77.0690932,96.7915677 76.4541639,96.2773966 75.7128682,95.8896552 C74.9715725,95.5019138 74.0870852,95.308046 73.0593798,95.308046 C72.2506936,95.308046 71.5094091,95.4681976 70.8355039,95.7885057 C70.1615987,96.1088139 69.6056353,96.622985 69.1675969,97.3310345 L69.1170543,97.3310345 L69.1170543,95.662069 L65.7054264,95.662069 Z M93.4027907,108.735632 L93.4027907,95.662069 L89.8142636,95.662069 L89.8142636,102.514943 C89.8142636,103.84675 89.5952477,104.803445 89.1572093,105.385057 C88.7191709,105.96667 88.0115811,106.257471 87.0344186,106.257471 C86.1751895,106.257471 85.5771076,105.991957 85.240155,105.46092 C84.9032024,104.929882 84.7347287,104.12491 84.7347287,103.045977 L84.7347287,95.662069 L81.1462016,95.662069 L81.1462016,103.703448 C81.1462016,104.512644 81.2178029,105.250188 81.3610078,105.916092 C81.5042126,106.581996 81.7527114,107.146741 82.1065116,107.610345 C82.4603118,108.073949 82.9446739,108.432183 83.5596124,108.685057 C84.1745509,108.937931 84.9621657,109.064368 85.9224806,109.064368 C86.6806239,109.064368 87.4219085,108.895787 88.1463566,108.558621 C88.8708047,108.221454 89.4604628,107.673563 89.9153488,106.914943 L89.9911628,106.914943 L89.9911628,108.735632 L93.4027907,108.735632 Z M100.68093,95.662069 L100.68093,91.7425287 L97.0924031,91.7425287 L97.0924031,95.662069 L94.9190698,95.662069 L94.9190698,98.0643678 L97.0924031,98.0643678 L97.0924031,105.777011 C97.0924031,106.434486 97.201911,106.965515 97.4209302,107.370115 C97.6399494,107.774715 97.9389904,108.086589 98.318062,108.305747 C98.6971337,108.524905 99.1351655,108.672413 99.6321705,108.748276 C100.129176,108.824138 100.655656,108.862069 101.211628,108.862069 C101.565428,108.862069 101.927647,108.85364 102.298295,108.836782 C102.668942,108.819923 103.00589,108.786207 103.309147,108.735632 L103.309147,105.954023 C103.140671,105.98774 102.963774,106.013027 102.77845,106.029885 C102.593126,106.046743 102.399381,106.055172 102.197209,106.055172 C101.590695,106.055172 101.186358,105.954024 100.984186,105.751724 C100.782014,105.549424 100.68093,105.144831 100.68093,104.537931 L100.68093,98.0643678 L103.309147,98.0643678 L103.309147,95.662069 L100.68093,95.662069 Z M104.875969,99.6827586 C104.926512,98.8398425 105.137104,98.1402327 105.507752,97.583908 C105.8784,97.0275834 106.350126,96.5808446 106.922946,96.2436782 C107.495765,95.9065117 108.140177,95.6662842 108.856202,95.5229885 C109.572226,95.3796928 110.292451,95.308046 111.016899,95.308046 C111.673957,95.308046 112.339428,95.3544057 113.013333,95.4471264 C113.687239,95.5398472 114.302168,95.7210714 114.85814,95.9908046 C115.414111,96.2605377 115.86899,96.6356298 116.222791,97.116092 C116.576591,97.5965541 116.753488,98.2329462 116.753488,99.0252874 L116.753488,105.827586 C116.753488,106.417627 116.787183,106.982373 116.854574,107.521839 C116.921964,108.061305 117.039896,108.465899 117.208372,108.735632 L113.569302,108.735632 C113.501912,108.533332 113.447158,108.326821 113.405039,108.116092 C113.36292,107.905363 113.333437,107.690423 113.316589,107.471264 C112.74377,108.061306 112.069875,108.474328 111.294884,108.710345 C110.519893,108.946361 109.728066,109.064368 108.91938,109.064368 C108.296018,109.064368 107.714783,108.988507 107.175659,108.836782 C106.636535,108.685057 106.164808,108.449044 105.760465,108.128736 C105.356122,107.808428 105.040234,107.403834 104.812791,106.914943 C104.585348,106.426051 104.471628,105.844448 104.471628,105.170115 C104.471628,104.428349 104.602195,103.817244 104.863333,103.336782 C105.124472,102.856319 105.461419,102.472798 105.874186,102.186207 C106.286953,101.899615 106.75868,101.684675 107.28938,101.541379 C107.82008,101.398084 108.354984,101.284292 108.894109,101.2 C109.253525,101.143806 109.609193,101.095104 109.961119,101.053895 L110.486202,100.997701 C111.008478,100.947126 111.471781,100.871265 111.876124,100.770115 C112.280467,100.668965 112.600567,100.521457 112.836434,100.327586 C113.072301,100.133716 113.181809,99.8513429 113.164961,99.4804598 C113.164961,99.0927184 113.101784,98.7850586 112.975426,98.5574713 C112.849069,98.3298839 112.680595,98.1528742 112.47,98.0264368 C112.259405,97.8999994 112.015118,97.815709 111.737132,97.7735632 C111.459146,97.7314174 111.160105,97.7103448 110.84,97.7103448 C110.1324,97.7103448 109.576436,97.8620674 109.172093,98.1655172 C108.76775,98.4689655 108.531887,98.9747091 108.464496,99.6827586 L104.875969,99.6827586 Z M113.164961,102.337931 C113.013333,102.472798 112.8238,102.578161 112.596357,102.654023 C112.368914,102.729885 112.124627,102.793103 111.863488,102.843678 C111.689396,102.877395 111.50969,102.907365 111.324367,102.933589 L111.042171,102.970115 C110.755761,103.003832 110.469355,103.045977 110.182946,103.096552 C109.913384,103.147127 109.648037,103.214559 109.386899,103.298851 C109.125761,103.383142 108.898321,103.496934 108.704574,103.64023 C108.510826,103.783526 108.354988,103.96475 108.237054,104.183908 C108.119121,104.403066 108.060155,104.681224 108.060155,105.018391 C108.060155,105.338699 108.119121,105.608428 108.237054,105.827586 C108.354988,106.046744 108.515038,106.21954 108.717209,106.345977 C108.919381,106.472414 109.155244,106.560919 109.424806,106.611494 C109.694368,106.662069 109.97235,106.687356 110.25876,106.687356 C110.96636,106.687356 111.5139,106.56935 111.901395,106.333333 C112.288891,106.097317 112.575296,105.814944 112.76062,105.486207 C112.945944,105.15747 113.059664,104.824523 113.101783,104.487356 L113.142217,104.115126 C113.15738,103.945195 113.164961,103.799541 113.164961,103.678161 L113.164961,102.337931 Z M129.111163,102.211494 C129.111163,102.750961 129.052197,103.273561 128.934264,103.77931 C128.81633,104.28506 128.631009,104.731799 128.378295,105.11954 C128.12558,105.507282 127.809692,105.814941 127.43062,106.042529 C127.051548,106.270116 126.592457,106.383908 126.053333,106.383908 C125.531057,106.383908 125.076178,106.270116 124.688682,106.042529 C124.301187,105.814941 123.981087,105.507282 123.728372,105.11954 C123.475658,104.731799 123.290337,104.28506 123.172403,103.77931 C123.05447,103.273561 122.995504,102.750961 122.995504,102.211494 C122.995504,101.65517 123.05447,101.12414 123.172403,100.618391 C123.290337,100.112641 123.475658,99.6659023 123.728372,99.2781609 C123.981087,98.8904195 124.301187,98.5827598 124.688682,98.3551724 C125.076178,98.1275851 125.531057,98.0137931 126.053333,98.0137931 C126.592457,98.0137931 127.051548,98.1275851 127.43062,98.3551724 C127.809692,98.5827598 128.12558,98.8904195 128.378295,99.2781609 C128.631009,99.6659023 128.81633,100.112641 128.934264,100.618391 C129.052197,101.12414 129.111163,101.65517 129.111163,102.211494 Z M119.533333,90.6804598 L119.533333,108.735632 L122.944961,108.735632 L122.944961,107.066667 L122.995504,107.066667 C123.382999,107.791575 123.955814,108.305746 124.713953,108.609195 C125.472097,108.912645 126.331313,109.064368 127.291628,109.064368 C127.948685,109.064368 128.597309,108.929503 129.237519,108.65977 C129.877729,108.390037 130.454752,107.977014 130.968605,107.42069 C131.482457,106.864365 131.89943,106.152112 132.219535,105.283908 C132.53964,104.415704 132.69969,103.383148 132.69969,102.186207 C132.69969,100.989266 132.53964,99.9567093 132.219535,99.0885057 C131.89943,98.2203022 131.482457,97.5080488 130.968605,96.9517241 C130.454752,96.3953995 129.877729,95.9823768 129.237519,95.7126437 C128.597309,95.4429105 127.948685,95.308046 127.291628,95.308046 C126.482946,95.308046 125.703751,95.4639831 124.954031,95.7758621 C124.204311,96.087741 123.610441,96.5808395 123.172403,97.2551724 L123.12186,97.2551724 L123.12186,90.6804598 L119.533333,90.6804598 Z M135.075194,90.6804598 L135.075194,108.735632 L138.663721,108.735632 L138.663721,90.6804598 L135.075194,90.6804598 Z M150.288527,100.795402 L144.450853,100.795402 C144.4677,100.542529 144.522454,100.25594 144.615116,99.9356322 C144.707778,99.6153241 144.867828,99.3118788 145.095271,99.0252874 C145.322714,98.7386959 145.625967,98.4984684 146.005039,98.3045977 C146.38411,98.110727 146.860049,98.0137931 147.432868,98.0137931 C148.308945,98.0137931 148.961781,98.2498061 149.391395,98.7218391 C149.82101,99.1938721 150.120051,99.8850529 150.288527,100.795402 Z M144.450853,103.071264 L153.877054,103.071264 C153.944445,102.059765 153.860208,101.090426 153.624341,100.163218 C153.388474,99.2360107 153.005196,98.4099653 152.474496,97.6850575 C151.943796,96.9601496 151.265689,96.3827608 150.440155,95.9528736 C149.614621,95.5229864 148.645897,95.308046 147.533953,95.308046 C146.539943,95.308046 145.634397,95.4850557 144.817287,95.8390805 C144.000177,96.1931052 143.296799,96.6777747 142.707132,97.2931034 C142.117465,97.9084322 141.662586,98.6375437 141.342481,99.4804598 C141.022376,100.323376 140.862326,101.233712 140.862326,102.211494 C140.862326,103.222994 141.018164,104.150187 141.329845,104.993103 C141.641526,105.83602 142.08377,106.560917 142.656589,107.167816 C143.229409,107.774716 143.928575,108.242527 144.754109,108.571264 C145.579642,108.900002 146.506248,109.064368 147.533953,109.064368 C149.016545,109.064368 150.280098,108.727206 151.324651,108.052874 C152.369204,107.378541 153.144184,106.257479 153.649612,104.689655 L150.490698,104.689655 C150.372764,105.094255 150.052664,105.477776 149.530388,105.84023 C149.008111,106.202684 148.384758,106.383908 147.66031,106.383908 C146.649452,106.383908 145.874473,106.122608 145.335349,105.6 C144.796225,105.077392 144.501396,104.234489 144.450853,103.071264 Z M180.588837,108.735632 L185.44093,90.6804598 L181.549147,90.6804598 L178.592403,103.121839 L178.54186,103.121839 L175.45876,90.6804598 L171.743876,90.6804598 L168.610233,102.970115 L168.55969,102.970115 L165.704031,90.6804598 L161.736434,90.6804598 L166.512713,108.735632 L170.530853,108.735632 L173.53814,96.445977 L173.588682,96.445977 L176.646512,108.735632 L180.588837,108.735632 Z M195.675814,100.795402 L189.83814,100.795402 C189.854987,100.542529 189.909741,100.25594 190.002403,99.9356322 C190.095065,99.6153241 190.255115,99.3118788 190.482558,99.0252874 C190.710001,98.7386959 191.013254,98.4984684 191.392326,98.3045977 C191.771397,98.110727 192.247336,98.0137931 192.820155,98.0137931 C193.696232,98.0137931 194.349068,98.2498061 194.778682,98.7218391 C195.208297,99.1938721 195.507338,99.8850529 195.675814,100.795402 Z M189.83814,103.071264 L199.264341,103.071264 C199.331732,102.059765 199.247495,101.090426 199.011628,100.163218 C198.775761,99.2360107 198.392483,98.4099653 197.861783,97.6850575 C197.331083,96.9601496 196.652976,96.3827608 195.827442,95.9528736 C195.001908,95.5229864 194.033184,95.308046 192.92124,95.308046 C191.92723,95.308046 191.021684,95.4850557 190.204574,95.8390805 C189.387464,96.1931052 188.684086,96.6777747 188.094419,97.2931034 C187.504752,97.9084322 187.049872,98.6375437 186.729767,99.4804598 C186.409662,100.323376 186.249612,101.233712 186.249612,102.211494 C186.249612,103.222994 186.405451,104.150187 186.717132,104.993103 C187.028813,105.83602 187.471057,106.560917 188.043876,107.167816 C188.616695,107.774716 189.315862,108.242527 190.141395,108.571264 C190.966929,108.900002 191.893535,109.064368 192.92124,109.064368 C194.403832,109.064368 195.667385,108.727206 196.711938,108.052874 C197.756491,107.378541 198.53147,106.257479 199.036899,104.689655 L195.877984,104.689655 C195.760051,105.094255 195.439951,105.477776 194.917674,105.84023 C194.395398,106.202684 193.772045,106.383908 193.047597,106.383908 C192.036739,106.383908 191.26176,106.122608 190.722636,105.6 C190.183512,105.077392 189.888682,104.234489 189.83814,103.071264 Z M210.964961,102.211494 C210.964961,102.750961 210.905995,103.273561 210.788062,103.77931 C210.670129,104.28506 210.484807,104.731799 210.232093,105.11954 C209.979379,105.507282 209.66349,105.814941 209.284419,106.042529 C208.905347,106.270116 208.446256,106.383908 207.907132,106.383908 C207.384855,106.383908 206.929976,106.270116 206.542481,106.042529 C206.154985,105.814941 205.834885,105.507282 205.582171,105.11954 C205.329456,104.731799 205.144135,104.28506 205.026202,103.77931 C204.908268,103.273561 204.849302,102.750961 204.849302,102.211494 C204.849302,101.65517 204.908268,101.12414 205.026202,100.618391 C205.144135,100.112641 205.329456,99.6659023 205.582171,99.2781609 C205.834885,98.8904195 206.154985,98.5827598 206.542481,98.3551724 C206.929976,98.1275851 207.384855,98.0137931 207.907132,98.0137931 C208.446256,98.0137931 208.905347,98.1275851 209.284419,98.3551724 C209.66349,98.5827598 209.979379,98.8904195 210.232093,99.2781609 C210.484807,99.6659023 210.670129,100.112641 210.788062,100.618391 C210.905995,101.12414 210.964961,101.65517 210.964961,102.211494 Z M201.387132,90.6804598 L201.387132,108.735632 L204.79876,108.735632 L204.79876,107.066667 L204.849302,107.066667 C205.236798,107.791575 205.809612,108.305746 206.567752,108.609195 C207.325895,108.912645 208.185111,109.064368 209.145426,109.064368 C209.802484,109.064368 210.451108,108.929503 211.091318,108.65977 C211.731528,108.390037 212.30855,107.977014 212.822403,107.42069 C213.336256,106.864365 213.753228,106.152112 214.073333,105.283908 C214.393438,104.415704 214.553488,103.383148 214.553488,102.186207 C214.553488,100.989266 214.393438,99.9567093 214.073333,99.0885057 C213.753228,98.2203022 213.336256,97.5080488 212.822403,96.9517241 C212.30855,96.3953995 211.731528,95.9823768 211.091318,95.7126437 C210.451108,95.4429105 209.802484,95.308046 209.145426,95.308046 C208.336744,95.308046 207.557549,95.4639831 206.807829,95.7758621 C206.05811,96.087741 205.46424,96.5808395 205.026202,97.2551724 L204.975659,97.2551724 L204.975659,90.6804598 L201.387132,90.6804598 Z M219.607752,104.487356 L216.196124,104.487356 C216.229819,105.363989 216.427776,106.093101 216.79,106.674713 C217.152224,107.256325 217.615527,107.724136 218.179922,108.078161 C218.744318,108.432186 219.38873,108.685057 220.113178,108.836782 C220.837626,108.988507 221.578911,109.064368 222.337054,109.064368 C223.07835,109.064368 223.806999,108.992721 224.523023,108.849425 C225.239048,108.70613 225.875036,108.457473 226.431008,108.103448 C226.98698,107.749424 227.437647,107.281612 227.783023,106.7 C228.1284,106.118388 228.301085,105.397705 228.301085,104.537931 C228.301085,103.931031 228.183154,103.421075 227.947287,103.008046 C227.71142,102.595017 227.399744,102.249427 227.012248,101.971264 C226.624753,101.693102 226.182509,101.469733 225.685504,101.301149 C225.188499,101.132566 224.678866,100.989273 224.156589,100.871264 C223.65116,100.753256 223.154163,100.643679 222.665581,100.542529 C222.177,100.441379 221.74318,100.327587 221.364109,100.201149 C220.985037,100.074712 220.677572,99.9103458 220.441705,99.708046 C220.205839,99.5057461 220.087907,99.244446 220.087907,98.9241379 C220.087907,98.6544048 220.155296,98.4394644 220.290078,98.2793103 C220.424859,98.1191563 220.58912,97.9969353 220.782868,97.9126437 C220.976616,97.8283521 221.19142,97.7735633 221.427287,97.7482759 C221.663154,97.7229884 221.882171,97.7103448 222.084341,97.7103448 C222.724551,97.7103448 223.280514,97.8325658 223.752248,98.0770115 C224.223982,98.3214572 224.485116,98.7892686 224.535659,99.4804598 L227.947287,99.4804598 C227.879896,98.6712603 227.673516,98.0011521 227.32814,97.4701149 C226.982763,96.9390778 226.548943,96.5134116 226.026667,96.1931034 C225.50439,95.8727953 224.91052,95.6452114 224.245039,95.5103448 C223.579557,95.3754783 222.893027,95.308046 222.185426,95.308046 C221.477826,95.308046 220.787083,95.3712637 220.113178,95.4977011 C219.439273,95.6241386 218.832768,95.8432935 218.293643,96.1551724 C217.754519,96.4670514 217.320699,96.8927176 216.992171,97.4321839 C216.663642,97.9716502 216.49938,98.662831 216.49938,99.5057471 C216.49938,100.07893 216.617311,100.5636 216.853178,100.95977 C217.089045,101.355941 217.400722,101.684673 217.788217,101.945977 C218.175713,102.207281 218.617956,102.418007 219.114961,102.578161 C219.611966,102.738315 220.121599,102.877394 220.643876,102.995402 C221.924296,103.265135 222.922503,103.534865 223.638527,103.804598 C224.354551,104.074331 224.712558,104.478925 224.712558,105.018391 C224.712558,105.338699 224.636745,105.604214 224.485116,105.814943 C224.333488,106.025672 224.143955,106.194252 223.916512,106.32069 C223.689069,106.447127 223.436358,106.539846 223.158372,106.598851 C222.880386,106.657855 222.61504,106.687356 222.362326,106.687356 C222.008525,106.687356 221.667366,106.645211 221.338837,106.56092 C221.010308,106.476628 220.719691,106.345978 220.466977,106.168966 C220.214262,105.991953 220.007882,105.764369 219.847829,105.486207 C219.687777,105.208045 219.607752,104.875098 219.607752,104.487356 Z M234.088217,93.6390805 L234.088217,90.6804598 L230.49969,90.6804598 L230.49969,93.6390805 L234.088217,93.6390805 Z M230.49969,95.662069 L230.49969,108.735632 L234.088217,108.735632 L234.088217,95.662069 L230.49969,95.662069 Z M241.467442,95.662069 L241.467442,91.7425287 L237.878915,91.7425287 L237.878915,95.662069 L235.705581,95.662069 L235.705581,98.0643678 L237.878915,98.0643678 L237.878915,105.777011 C237.878915,106.434486 237.988423,106.965515 238.207442,107.370115 C238.426461,107.774715 238.725502,108.086589 239.104574,108.305747 C239.483645,108.524905 239.921677,108.672413 240.418682,108.748276 C240.915687,108.824138 241.442168,108.862069 241.99814,108.862069 C242.35194,108.862069 242.714158,108.85364 243.084806,108.836782 C243.455454,108.819923 243.792402,108.786207 244.095659,108.735632 L244.095659,105.954023 C243.927183,105.98774 243.750285,106.013027 243.564961,106.029885 C243.379637,106.046743 243.185892,106.055172 242.983721,106.055172 C242.377206,106.055172 241.972869,105.954024 241.770698,105.751724 C241.568526,105.549424 241.467442,105.144831 241.467442,104.537931 L241.467442,98.0643678 L244.095659,98.0643678 L244.095659,95.662069 L241.467442,95.662069 Z M248.770853,103.071264 C248.821396,104.234489 249.116225,105.077392 249.655349,105.6 C250.194473,106.122608 250.969452,106.383908 251.98031,106.383908 C252.704758,106.383908 253.328111,106.202684 253.850388,105.84023 C254.372664,105.477776 254.692764,105.094255 254.810698,104.689655 L257.969612,104.689655 C257.464184,106.257479 256.689204,107.378541 255.644651,108.052874 C254.600098,108.727206 253.336545,109.064368 251.853953,109.064368 C250.826248,109.064368 249.899642,108.900002 249.074109,108.571264 C248.248575,108.242527 247.549409,107.774716 246.976589,107.167816 C246.40377,106.560917 245.961526,105.83602 245.649845,104.993103 C245.338164,104.150187 245.182326,103.222994 245.182326,102.211494 C245.182326,101.233712 245.342376,100.323376 245.662481,99.4804598 C245.982586,98.6375437 246.437465,97.9084322 247.027132,97.2931034 C247.616799,96.6777747 248.320177,96.1931052 249.137287,95.8390805 C249.954397,95.4850557 250.859943,95.308046 251.853953,95.308046 C252.965897,95.308046 253.934621,95.5229864 254.760155,95.9528736 C255.585689,96.3827608 256.263796,96.9601496 256.794496,97.6850575 C257.325196,98.4099653 257.708474,99.2360107 257.944341,100.163218 C258.180208,101.090426 258.264445,102.059765 258.197054,103.071264 L248.770853,103.071264 Z" id="ReputableWebsite" fill="#427FE0" fill-rule="nonzero"></path>
                            <path d="M13,0 L476,0 C483.179702,4.57467025e-16 489,5.82029825 489,13 L489,43.3125 L489,43.3125 L0,43.3125 L0,13 C-2.65561672e-15,5.82029825 5.82029825,3.09524665e-15 13,0 Z" id="Rectangle-2" fill="#FF5254"></path>
                            <polygon id="Fill-5" fill="#E9ECED" points="0 66 487.961783 66 487.961783 43.3125 0 43.3125"></polygon>
                            <path d="M66.4458599,23.7196986 C66.4458599,27.1364355 63.657334,29.90625 60.2175155,29.90625 C56.7776969,29.90625 53.9872611,27.1364355 53.9872611,23.7196986 C53.9872611,20.3029616 56.7776969,17.53125 60.2175155,17.53125 C63.657334,17.53125 66.4458599,20.3029616 66.4458599,23.7196986" id="Fill-6" fill="#FFFFFF"></path>
                            <path d="M48.7961783,23.7196986 C48.7961783,27.1364355 46.0057425,29.90625 42.565924,29.90625 C39.1261055,29.90625 36.3375796,27.1364355 36.3375796,23.7196986 C36.3375796,20.3029616 39.1261055,17.53125 42.565924,17.53125 C46.0057425,17.53125 48.7961783,20.3029616 48.7961783,23.7196986" id="Fill-7" fill="#FFFFFF"></path>
                            <path d="M32.1847134,23.7196986 C32.1847134,27.1364355 29.3961875,29.90625 25.954459,29.90625 C22.5146405,29.90625 19.7261146,27.1364355 19.7261146,23.7196986 C19.7261146,20.3029616 22.5146405,17.53125 25.954459,17.53125 C29.3961875,17.53125 32.1847134,20.3029616 32.1847134,23.7196986" id="Fill-8" fill="#FFFFFF"></path>
                            <path d="M80.366242,19.59375 L428.359873,19.59375 C429.740584,19.59375 430.859873,20.7130381 430.859873,22.09375 L430.859873,23.28125 C430.859873,24.6619619 429.740584,25.78125 428.359873,25.78125 L80.366242,25.78125 C78.9855302,25.78125 77.866242,24.6619619 77.866242,23.28125 L77.866242,22.09375 C77.866242,20.7130381 78.9855302,19.59375 80.366242,19.59375 Z" id="Rectangle-3" fill="#FFFFFF"></path>
                            <g id="Group-7-Copy" transform="translate(32.184713, 175.312500)">
                                <polygon id="Fill-16" fill="#DADFE1" points="0 45.375 232.330542 45.375 232.330542 37.434375 0 37.434375"></polygon>
                                <polygon id="Fill-17" fill="#DADFE1" points="0 26.090625 329.759479 26.090625 329.759479 18.15 0 18.15"></polygon>
                                <polygon id="Fill-18" fill="#427FE0" points="0 7.940625 194.146497 7.940625 194.146497 0 0 0"></polygon>
                            </g>
                            <g id="Group-7-Copy-2" transform="translate(32.184713, 244.406250)">
                                <polygon id="Fill-16" fill="#DADFE1" points="0 45.375 232.330542 45.375 232.330542 37.434375 0 37.434375"></polygon>
                                <polygon id="Fill-17" fill="#DADFE1" points="0 26.090625 329.759479 26.090625 329.759479 18.15 0 18.15"></polygon>
                                <polygon id="Fill-18" fill="#427FE0" points="0 7.940625 194.146497 7.940625 194.146497 0 0 0"></polygon>
                            </g>
                            <path d="M389.671085,297.543678 L389.671085,293.485057 L391.983411,293.485057 C392.324575,293.485057 392.653099,293.510345 392.968992,293.56092 C393.284885,293.611495 393.562867,293.709482 393.802946,293.854885 C394.043024,294.000288 394.235716,294.205746 394.381027,294.471264 C394.526338,294.736783 394.598992,295.084481 394.598992,295.514368 C394.598992,295.944255 394.526338,296.291953 394.381027,296.557471 C394.235716,296.82299 394.043024,297.028448 393.802946,297.173851 C393.562867,297.319254 393.284885,297.417241 392.968992,297.467816 C392.653099,297.518391 392.324575,297.543678 391.983411,297.543678 L389.671085,297.543678 Z M386.695388,291.171264 L386.695388,304.712644 L389.671085,304.712644 L389.671085,299.857471 L392.798411,299.857471 C393.645,299.857471 394.36523,299.734197 394.959109,299.487644 C395.552987,299.241091 396.036297,298.915519 396.40905,298.51092 C396.781804,298.10632 397.053468,297.641669 397.22405,297.116954 C397.394633,296.592239 397.479922,296.058049 397.479922,295.514368 C397.479922,294.958043 397.394633,294.420692 397.22405,293.902299 C397.053468,293.383905 396.781804,292.922416 396.40905,292.517816 C396.036297,292.113216 395.552987,291.787645 394.959109,291.541092 C394.36523,291.294539 393.645,291.171264 392.798411,291.171264 L386.695388,291.171264 Z M398.939341,297.922989 C398.977248,297.290801 399.135192,296.766094 399.413178,296.348851 C399.691164,295.931607 400.044959,295.596553 400.474574,295.343678 C400.904188,295.090803 401.387497,294.910633 401.924516,294.803161 C402.461534,294.695689 403.001703,294.641954 403.545039,294.641954 C404.037832,294.641954 404.536935,294.676724 405.042364,294.746264 C405.547793,294.815805 406.00899,294.951723 406.425969,295.154023 C406.842948,295.356323 407.184107,295.637642 407.449457,295.997989 C407.714808,296.358335 407.847481,296.835629 407.847481,297.429885 L407.847481,302.531609 C407.847481,302.97414 407.872752,303.397699 407.923295,303.802299 C407.973837,304.206899 408.062286,304.510344 408.188643,304.712644 L405.459341,304.712644 C405.408798,304.560919 405.367733,304.406035 405.336143,304.247989 C405.304554,304.089942 405.282442,303.928736 405.269806,303.764368 C404.840192,304.206899 404.33477,304.516666 403.753527,304.693678 C403.172284,304.870691 402.578414,304.959195 401.971899,304.959195 C401.504378,304.959195 401.068452,304.902299 400.664109,304.788506 C400.259765,304.674712 399.905971,304.497702 399.602713,304.257471 C399.299456,304.01724 399.06254,303.713795 398.891957,303.347126 C398.721375,302.980458 398.636085,302.544255 398.636085,302.038506 C398.636085,301.482181 398.734011,301.023852 398.929864,300.663506 C399.125718,300.303159 399.378429,300.015518 399.688004,299.800575 C399.997579,299.585631 400.351374,299.424426 400.749399,299.316954 C401.147424,299.209482 401.548603,299.124138 401.952946,299.06092 C402.222508,299.018774 402.489259,298.982248 402.753204,298.951341 L403.147016,298.909195 C403.538723,298.871264 403.8862,298.814368 404.189457,298.738506 C404.492715,298.662643 404.73279,298.552012 404.90969,298.406609 C405.08659,298.261206 405.168721,298.049427 405.156085,297.771264 C405.156085,297.480458 405.108702,297.249713 405.013934,297.079023 C404.919166,296.908332 404.792811,296.775575 404.634864,296.680747 C404.476918,296.585919 404.293703,296.522701 404.085213,296.491092 C403.876724,296.459483 403.652443,296.443678 403.412364,296.443678 C402.881664,296.443678 402.464691,296.55747 402.161434,296.785057 C401.858177,297.012645 401.681279,297.391951 401.630736,297.922989 L398.939341,297.922989 Z M405.156085,299.914368 C405.042364,300.015518 404.900214,300.09454 404.729632,300.151437 C404.55905,300.208334 404.375834,300.255747 404.179981,300.293678 L403.879094,300.345833 L403.879094,300.345833 L403.563992,300.388506 C403.349185,300.413793 403.134381,300.445402 402.919574,300.483333 C402.717402,300.521265 402.518392,300.571839 402.322539,300.635057 C402.126685,300.698276 401.956105,300.78362 401.810795,300.891092 C401.665484,300.998564 401.548605,301.134482 401.460155,301.298851 C401.371705,301.463219 401.327481,301.671838 401.327481,301.924713 C401.327481,302.164944 401.371705,302.367241 401.460155,302.531609 C401.548605,302.695978 401.668643,302.825574 401.820271,302.920402 C401.9719,303.01523 402.148797,303.081609 402.350969,303.11954 C402.553141,303.157471 402.761627,303.176437 402.976434,303.176437 C403.507134,303.176437 403.917789,303.087932 404.208411,302.91092 C404.499032,302.733907 404.713837,302.522128 404.852829,302.275575 C404.991822,302.029022 405.077112,301.779312 405.108702,301.526437 L405.144239,301.185057 C405.152137,301.083908 405.156085,300.995403 405.156085,300.91954 L405.156085,299.914368 Z M414.500155,302.398851 C414.083176,302.398851 413.735699,302.310346 413.457713,302.133333 C413.179727,301.956321 412.955447,301.728736 412.784864,301.450575 C412.614282,301.172412 412.494245,300.859484 412.424748,300.511782 C412.355252,300.164079 412.320504,299.81322 412.320504,299.459195 C412.320504,299.092527 412.361569,298.741668 412.443702,298.406609 C412.525834,298.07155 412.658507,297.774427 412.841725,297.51523 C413.024943,297.256033 413.252382,297.050575 413.52405,296.898851 C413.795718,296.747126 414.121083,296.671264 414.500155,296.671264 C414.942405,296.671264 415.308836,296.753447 415.599457,296.917816 C415.890079,297.082185 416.123836,297.303448 416.300736,297.581609 C416.477637,297.859772 416.603992,298.179021 416.679806,298.539368 C416.755621,298.899714 416.793527,299.282182 416.793527,299.686782 C416.793527,300.040806 416.746144,300.379021 416.651376,300.701437 C416.556608,301.023852 416.414458,301.311493 416.224922,301.564368 C416.035387,301.817243 415.795312,302.019539 415.50469,302.171264 C415.214068,302.322989 414.879227,302.398851 414.500155,302.398851 Z M419.352248,304.086782 L419.352248,294.907471 L416.793527,294.907471 L416.793527,296.216092 L416.75562,296.216092 C416.427091,295.647124 416.019595,295.24253 415.53312,295.002299 C415.046645,294.762068 414.481205,294.641954 413.836783,294.641954 C413.154454,294.641954 412.551107,294.774711 412.026725,295.04023 C411.502342,295.305748 411.063258,295.662929 410.709457,296.111782 C410.355657,296.560634 410.087152,297.07902 409.903934,297.666954 C409.720716,298.254888 409.629109,298.864939 409.629109,299.497126 C409.629109,300.167245 409.708081,300.802583 409.866027,301.403161 C410.023974,302.003739 410.273525,302.528446 410.61469,302.977299 C410.955854,303.426152 411.39178,303.780171 411.922481,304.039368 C412.453181,304.298565 413.084958,304.428161 413.817829,304.428161 C414.411708,304.428161 414.977148,304.304886 415.514167,304.058333 C416.051185,303.81178 416.464999,303.429313 416.75562,302.91092 L416.793527,302.91092 L416.793527,304.200575 C416.806163,304.89598 416.638742,305.471262 416.29126,305.926437 C415.943777,306.381611 415.390973,306.609195 414.632829,306.609195 C414.152672,306.609195 413.729382,306.511208 413.362946,306.31523 C412.99651,306.119252 412.750117,305.768393 412.62376,305.262644 L409.951318,305.262644 C409.989225,305.818968 410.14401,306.296262 410.415678,306.69454 C410.687346,307.092818 411.028506,307.41839 411.439167,307.671264 C411.849828,307.924139 412.304707,308.110632 412.803818,308.230747 C413.302929,308.350863 413.792556,308.41092 414.272713,308.41092 C415.397292,308.41092 416.294415,308.259197 416.964109,307.955747 C417.633802,307.652297 418.145541,307.282473 418.499341,306.846264 C418.853141,306.410055 419.08374,305.939083 419.191143,305.433333 C419.298547,304.927584 419.352248,304.478738 419.352248,304.086782 Z M428.10876,298.757471 L423.730504,298.757471 C423.74314,298.567816 423.784205,298.352875 423.853702,298.112644 C423.923198,297.872413 424.043236,297.644829 424.213818,297.429885 C424.3844,297.214941 424.61184,297.034771 424.896143,296.889368 C425.180447,296.743965 425.537401,296.671264 425.967016,296.671264 C426.624073,296.671264 427.1137,296.848274 427.435911,297.202299 C427.758122,297.556324 427.982402,298.074709 428.10876,298.757471 Z M423.730504,300.464368 L430.800155,300.464368 C430.850698,299.705743 430.78752,298.978739 430.61062,298.283333 C430.43372,297.587928 430.146262,296.968394 429.748236,296.424713 C429.350211,295.881032 428.841631,295.44799 428.222481,295.125575 C427.60333,294.803159 426.876787,294.641954 426.042829,294.641954 C425.297322,294.641954 424.618162,294.774711 424.005329,295.04023 C423.392497,295.305748 422.864963,295.669251 422.422713,296.130747 C421.980463,296.592244 421.639304,297.139077 421.399225,297.771264 C421.159146,298.403451 421.039109,299.086203 421.039109,299.81954 C421.039109,300.578165 421.155987,301.27356 421.389748,301.905747 C421.623509,302.537934 421.955192,303.081607 422.384806,303.536782 C422.814421,303.991956 423.338795,304.342815 423.957946,304.589368 C424.577096,304.835921 425.27205,304.959195 426.042829,304.959195 C427.154773,304.959195 428.102438,304.706324 428.885853,304.200575 C429.669267,303.694825 430.250502,302.854029 430.629574,301.678161 L428.260388,301.678161 C428.171938,301.981611 427.931862,302.269252 427.540155,302.541092 C427.148448,302.812932 426.680933,302.948851 426.137597,302.948851 C425.379454,302.948851 424.798219,302.752876 424.393876,302.36092 C423.989533,301.968964 423.768411,301.336786 423.730504,300.464368 Z M444.067597,304.712644 L441.376202,304.712644 L441.376202,296.102299 L438.040388,296.102299 L438.040388,294.072989 C438.507909,294.085632 438.95963,294.050862 439.395562,293.968678 C439.831494,293.886494 440.223196,293.741093 440.570678,293.532471 C440.918161,293.32385 441.211937,293.048852 441.452016,292.707471 C441.692094,292.36609 441.850038,291.942531 441.925853,291.436782 L444.067597,291.436782 L444.067597,304.712644 Z" id="Page1" fill="#6B6B6B" fill-rule="nonzero"></path>
                            <g id="Group-7-Copy-3" transform="translate(31.589147, 120.114943)" fill="#DADFE1">
                                <polygon id="Fill-16" points="0 27.6738506 232.330542 27.6738506 232.330542 19.7332256 0 19.7332256"></polygon>
                                <polygon id="Fill-17" points="0 8.38947557 329.759479 8.38947557 329.759479 0.448850575 0 0.448850575"></polygon>
                            </g>
                        </g>
                    </g>
                    <path d="M254.608527,100.795402 L248.770853,100.795402 C248.7877,100.542529 248.842454,100.25594 248.935116,99.9356322 C249.027778,99.6153241 249.187828,99.3118788 249.415271,99.0252874 C249.642714,98.7386959 249.945967,98.4984684 250.325039,98.3045977 C250.70411,98.110727 251.180049,98.0137931 251.752868,98.0137931 C252.628945,98.0137931 253.281781,98.2498061 253.711395,98.7218391 C254.14101,99.1938721 254.440051,99.8850529 254.608527,100.795402 Z" id="Path" fill="#FFFFFF"></path>
                </g>
                <polygon id="Rectangle-4" fill="#B8E986" opacity="0.28828125" points="18 77 473 77 473 158 18 158"></polygon>
                <polygon id="Rectangle-32" fill="url(#linearGradient-2)" points="408 174 429 174 429 287 408 287"></polygon>
                <polygon id="Triangle" fill="#B8E986" points="417.5 139 443 177 392 177"></polygon>
            </g>
        </g>
    </g>
</svg>