<?xml version="1.0" encoding="UTF-8"?>
<svg width="270px" height="278px" viewBox="0 0 270 278" version="1.1" xmlns="http://www.w3.org/2000/svg" xmlns:xlink="http://www.w3.org/1999/xlink">
    <!-- Generator: Sketch 63.1 (92452) - https://sketch.com -->
    <title>img_cost_mob</title>
    <desc>Created with Sketch.</desc>
    <defs>
        <filter x="-8.6%" y="-158.5%" width="117.2%" height="416.9%" filterUnits="objectBoundingBox" id="filter-1">
            <feGaussianBlur stdDeviation="2.64107143" in="SourceGraphic"></feGaussianBlur>
        </filter>
        <filter x="-8.7%" y="-79.2%" width="117.4%" height="258.5%" filterUnits="objectBoundingBox" id="filter-2">
            <feGaussianBlur stdDeviation="2.11285714" in="SourceGraphic"></feGaussianBlur>
        </filter>
        <filter x="-8.7%" y="-165.1%" width="117.4%" height="430.1%" filterUnits="objectBoundingBox" id="filter-3">
            <feGaussianBlur stdDeviation="3.30133929" in="SourceGraphic"></feGaussianBlur>
        </filter>
        <linearGradient x1="81.9765144%" y1="3.36130428%" x2="35.023626%" y2="105.628734%" id="linearGradient-4">
            <stop stop-color="#FACF00" offset="0%"></stop>
            <stop stop-color="#F2A100" offset="100%"></stop>
        </linearGradient>
        <linearGradient x1="50%" y1="0%" x2="50%" y2="100%" id="linearGradient-5">
            <stop stop-color="#FFF400" offset="0%"></stop>
            <stop stop-color="#FFE600" offset="100%"></stop>
        </linearGradient>
        <linearGradient x1="50%" y1="0%" x2="62.7872335%" y2="91.7903857%" id="linearGradient-6">
            <stop stop-color="#FCE141" offset="0%"></stop>
            <stop stop-color="#EFBE23" offset="100%"></stop>
        </linearGradient>
        <path d="M11.0699911,13.2794109 C1.26901507,24.0979815 -2.64633196,36.5593658 2.32644456,41.1125964 L2.32644456,41.1125964 C7.29753996,45.6658271 19.0318132,40.3621754 28.8327892,29.5419146 L28.8327892,29.5419146 C38.6337652,18.723344 42.7878324,6.48167759 37.8184182,1.93013711 L37.8184182,1.93013711 C36.581108,0.796054796 34.9100668,0.260281186 32.9465093,0.260281186 L32.9465093,0.260281186 C27.0205332,0.260281186 18.4316505,5.14984918 11.0699911,13.2794109 L11.0699911,13.2794109 Z" id="path-7"></path>
        <path d="M11.0699911,13.2794109 C1.26901507,24.0979815 -2.64633196,36.5593658 2.32644456,41.1125964 L2.32644456,41.1125964 C7.29753996,45.6658271 19.0318132,40.3621754 28.8327892,29.5419146 L28.8327892,29.5419146 C38.6337652,18.723344 42.7878324,6.48167759 37.8184182,1.93013711 L37.8184182,1.93013711 C36.581108,0.796054796 34.9100668,0.260281186 32.9465093,0.260281186 L32.9465093,0.260281186 C27.0205332,0.260281186 18.4316505,5.14984918 11.0699911,13.2794109 L11.0699911,13.2794109 Z" id="path-9"></path>
        <linearGradient x1="0%" y1="41.3951659%" x2="91.3469267%" y2="61.4723208%" id="linearGradient-11">
            <stop stop-color="#FACF00" offset="0%"></stop>
            <stop stop-color="#F2A100" offset="100%"></stop>
        </linearGradient>
        <linearGradient x1="50%" y1="41.9674929%" x2="64.6055751%" y2="56.7136314%" id="linearGradient-12">
            <stop stop-color="#FDE765" offset="0%"></stop>
            <stop stop-color="#F9CA35" offset="100%"></stop>
        </linearGradient>
        <linearGradient x1="16.8145502%" y1="41.9823393%" x2="64.6055751%" y2="56.7012227%" id="linearGradient-13">
            <stop stop-color="#FCE141" offset="0%"></stop>
            <stop stop-color="#EFBE23" offset="100%"></stop>
        </linearGradient>
        <path d="M0.174364227,2.25295338 C-0.756980665,5.16844069 8.33119711,10.553219 20.4151449,14.4540565 L20.4151449,14.4540565 C32.4990927,18.354894 43.0061425,19.2946105 43.9374874,16.3808133 L43.9374874,16.3808133 C44.8688323,13.465326 35.8277261,7.93857618 23.740416,4.03773866 L23.740416,4.03773866 C16.5636808,1.71886991 9.92658755,0.496900446 5.52539454,0.496900446 L5.52539454,0.496900446 C2.51617548,0.496900446 0.552618019,1.06816695 0.174364227,2.25295338 L0.174364227,2.25295338 Z" id="path-14"></path>
        <path d="M0.174364227,2.25295338 C-0.756980665,5.16844069 8.33119711,10.553219 20.4151449,14.4540565 L20.4151449,14.4540565 C32.4990927,18.354894 43.0061425,19.2946105 43.9374874,16.3808133 L43.9374874,16.3808133 C44.8688323,13.465326 35.8277261,7.93857618 23.740416,4.03773866 L23.740416,4.03773866 C16.5636808,1.71886991 9.92658755,0.496900446 5.52539454,0.496900446 L5.52539454,0.496900446 C2.51617548,0.496900446 0.552618019,1.06816695 0.174364227,2.25295338 L0.174364227,2.25295338 Z" id="path-16"></path>
        <linearGradient x1="0%" y1="42.8904925%" x2="91.3469267%" y2="59.4786895%" id="linearGradient-18">
            <stop stop-color="#FACF00" offset="0%"></stop>
            <stop stop-color="#F2A100" offset="100%"></stop>
        </linearGradient>
        <polygon id="path-19" points="0 0.453399267 59.9591025 0.453399267 59.9591025 21.4272681 0 21.4272681"></polygon>
        <linearGradient x1="50%" y1="43.8819775%" x2="64.6055751%" y2="55.1134904%" id="linearGradient-21">
            <stop stop-color="#FDE765" offset="0%"></stop>
            <stop stop-color="#F9CA35" offset="100%"></stop>
        </linearGradient>
        <linearGradient x1="12.7339944%" y1="50%" x2="113.113027%" y2="51.9271362%" id="linearGradient-22">
            <stop stop-color="#FCE141" offset="0%"></stop>
            <stop stop-color="#EFBE23" offset="100%"></stop>
        </linearGradient>
        <path d="M21.2542643,2.49605369 C8.95513213,5.64477998 -0.407069508,10.6036436 0.344394692,13.5715252 L0.344394692,13.5715252 C1.09585889,16.5394068 11.6398935,16.247013 23.9390257,13.0982867 L23.9390257,13.0982867 C36.2381579,9.94956038 45.6373443,5.13435844 44.8875613,2.168167 L44.8875613,2.168167 C44.5261187,0.741690888 41.8951535,0.0335232455 37.8940689,0.035210365 L37.8940689,0.035210365 C33.5685267,0.035210365 27.6425506,0.860000518 21.2542643,2.49605369 L21.2542643,2.49605369 Z" id="path-23"></path>
        <path d="M21.2542643,2.49605369 C8.95513213,5.64477998 -0.407069508,10.6036436 0.344394692,13.5715252 L0.344394692,13.5715252 C1.09585889,16.5394068 11.6398935,16.247013 23.9390257,13.0982867 L23.9390257,13.0982867 C36.2381579,9.94956038 45.6373443,5.13435844 44.8875613,2.168167 L44.8875613,2.168167 C44.5261187,0.741690888 41.8951535,0.0335232455 37.8940689,0.035210365 L37.8940689,0.035210365 C33.5685267,0.035210365 27.6425506,0.860000518 21.2542643,2.49605369 L21.2542643,2.49605369 Z" id="path-25"></path>
        <linearGradient x1="19.2593657%" y1="5.96257754%" x2="67.9034713%" y2="99.322542%" id="linearGradient-27">
            <stop stop-color="#FDE765" offset="0%"></stop>
            <stop stop-color="#F9CA35" offset="100%"></stop>
        </linearGradient>
        <linearGradient x1="50%" y1="0.971004653%" x2="64.6055751%" y2="90.9788125%" id="linearGradient-28">
            <stop stop-color="#FCE141" offset="0%"></stop>
            <stop stop-color="#EFBE23" offset="100%"></stop>
        </linearGradient>
        <path d="M0.24688927,31.3572029 C0.24688927,48.5915357 14.1464553,61.728975 31.2889171,61.728975 L31.2889171,61.728975 C48.4330601,61.728975 62.330945,48.5915357 62.330945,31.3572029 L62.330945,31.3572029 C62.330945,14.1211799 48.4330601,0.147122451 31.2889171,0.147122451 L31.2889171,0.147122451 C14.1464553,0.147122451 0.24688927,14.1211799 0.24688927,31.3572029 L0.24688927,31.3572029 Z" id="path-29"></path>
        <path d="M0.0420281991,31.235153 C0.0420281991,48.4694858 13.9415942,61.6069251 31.0840561,61.6069251 L31.0840561,61.6069251 C48.2281991,61.6069251 62.1260839,48.4694858 62.1260839,31.235153 L62.1260839,31.235153 C62.1260839,13.99913 48.2281991,0.0250725576 31.0840561,0.0250725576 L31.0840561,0.0250725576 C13.9415942,0.0250725576 0.0420281991,13.99913 0.0420281991,31.235153 L0.0420281991,31.235153 Z" id="path-31"></path>
        <linearGradient x1="0%" y1="36.9909251%" x2="91.3469267%" y2="67.3442369%" id="linearGradient-33">
            <stop stop-color="#FACF00" offset="0%"></stop>
            <stop stop-color="#F2A100" offset="100%"></stop>
        </linearGradient>
        <linearGradient x1="0%" y1="35.9144568%" x2="91.2186557%" y2="64.0855432%" id="linearGradient-34">
            <stop stop-color="#DB8F00" offset="0%"></stop>
            <stop stop-color="#C98300" offset="100%"></stop>
        </linearGradient>
    </defs>
    <g id="Page-1" stroke="none" stroke-width="1" fill="none" fill-rule="evenodd">
        <g id="FAQs---How-Does-PPC-Work---Mobile" transform="translate(-54.000000, -3936.000000)">
            <g id="img_cost_mob" transform="translate(58.000000, 3936.000000)">
                <ellipse id="Oval-4-Copy" fill="#000000" opacity="0.1" filter="url(#filter-1)" cx="215" cy="265.5" rx="46" ry="2.5"></ellipse>
                <ellipse id="Oval-4-Copy-3" fill-opacity="0.6" fill="#000000" opacity="0.1" filter="url(#filter-2)" cx="36.5" cy="269" rx="36.5" ry="4"></ellipse>
                <ellipse id="Oval-4-Copy-2" fill="#000000" opacity="0.1" filter="url(#filter-3)" cx="122" cy="254" rx="57" ry="3"></ellipse>
                <g id="Group-17">
                    <g id="Group-5" transform="translate(190.603163, 133.727105)">
                        <path d="M48.9834614,4.11582302 C41.0081904,3.89103472 29.2268456,10.4927121 19.1787437,21.585085 C9.13232302,32.6774578 3.69387405,45.0864479 4.66052263,53.048686 L2.97939466,54.9044571 L11.8607937,63.037399 C18.4793947,69.0965422 34.1374204,62.2819076 47.5074311,47.520246 C60.8774418,32.7602746 66.1662704,16.450447 59.5459884,10.3913038 L50.6645894,2.25836182 L48.9834614,4.11582302 Z" id="Fill-21" fill="url(#linearGradient-4)"></path>
                        <path d="M46.3911621,10.3267406 C51.4093291,14.9205345 47.2149148,27.2754401 37.3231579,38.1971091 C27.4314009,49.117088 15.5878544,54.4697537 10.5680063,49.8742696 C5.55152045,45.2804757 9.50217117,32.7024719 19.392247,21.7808029 C29.2856851,10.860824 41.3729951,5.73125651 46.3911621,10.3267406" id="Fill-23" fill="#FFC30D"></path>
                        <path d="M38.6256958,39.3883181 C25.2556851,54.1482895 9.59765924,60.9646143 2.97905844,54.9054711 C-3.6899762,48.7990041 1.57867884,32.0226985 14.7250995,17.5077971 C27.8732013,2.99289561 43.9935374,-3.84709114 50.6642532,2.25937591 C57.282854,8.3185191 51.9940254,24.6283467 38.6256958,39.3883181" id="Fill-25" fill="url(#linearGradient-5)"></path>
                        <path d="M16.409926,19.0497096 C5.08248575,31.5550375 0.541759115,46.0107841 6.2878545,51.2721824 C11.9582991,56.4609047 25.4207719,50.5640148 36.9415418,37.8474197 C48.4606306,25.1291344 53.0450666,11.1009926 47.3763031,5.9105801 C41.6285266,0.649181841 27.7373662,6.54269155 16.409926,19.0497096" id="Fill-27" fill="#F0A700"></path>
                        <path d="M16.9172904,19.5134833 C5.86891741,31.7112062 1.43914522,45.8103338 7.04402586,50.9399013 C12.5732557,56.0018634 25.7062274,50.2520154 36.9412056,37.8464056 C48.1778649,25.4424859 52.6479842,11.7608223 47.1187543,6.69886027 C41.5138737,1.5676026 27.9639823,7.31576048 16.9172904,19.5134833" id="Fill-29" fill="url(#linearGradient-6)"></path>
                        <g id="Group-34" opacity="0.326004464" style="mix-blend-mode: multiply;" transform="translate(6.724512, 7.037733)">
                            <mask id="mask-8" fill="white">
                                <use xlink:href="#path-7"></use>
                            </mask>
                            <g id="Clip-33"></g>
                            <polygon id="Fill-32" fill="#FFDD00" mask="url(#mask-8)" points="9.16006163 47.1970917 4.66808771 49.1035669 22.0711244 -6.29914273 26.5630983 -8.20392777"></polygon>
                        </g>
                        <g id="Group-37" opacity="0.326004464" style="mix-blend-mode: multiply;" transform="translate(6.724512, 7.037733)">
                            <mask id="mask-10" fill="white">
                                <use xlink:href="#path-9"></use>
                            </mask>
                            <g id="Clip-36"></g>
                            <polygon id="Fill-35" fill="#FFDD00" mask="url(#mask-10)" points="21.1922307 46.0969812 10.6498772 50.5707753 29.4348011 -9.24150323 39.9805168 -3.21278251"></polygon>
                        </g>
                    </g>
                    <g id="Group-4" transform="translate(158.026029, 8.450688)">
                        <path d="M60.7352868,87.9318136 C57.2519896,83.9160467 47.2307858,78.6292964 34.8408727,74.6287408 C22.4526408,70.6298753 11.2411984,69.0614276 6.08349777,70.2901576 L4.01066699,69.6208632 L0.507196307,80.5881659 C-0.731795003,84.4687217 11.2092569,91.6771585 27.6960789,96.9994017 C44.1812197,102.321645 58.0656556,103.450657 59.3046469,99.5684108 L62.8081176,88.6011081 L60.7352868,87.9318136 Z" id="Fill-39" fill="url(#linearGradient-11)"></path>
                        <path d="M55.1830254,87.212153 C54.2432749,90.1546825 43.6404008,89.2065154 31.4421363,85.2684948 C19.2455529,81.3304743 10.0733188,75.896682 11.0147504,72.9524623 C11.9528198,70.0099328 22.6027655,70.8178186 34.80103,74.754149 C46.9976134,78.6921695 56.1244571,84.2696235 55.1830254,87.212153" id="Fill-41" fill="#FFC30D"></path>
                        <path d="M31.1988771,86.032099 C14.7120552,80.7098558 2.77100322,73.501419 4.00999453,69.6208632 C5.25739148,65.7098848 19.4646039,66.7848123 35.6740398,72.0174782 C51.8851567,77.2518343 64.0582043,84.6901298 62.8091262,88.6011081 C61.5684538,92.481664 47.6840179,91.3526521 31.1988771,86.032099" id="Fill-43" fill="url(#linearGradient-12)"></path>
                        <path d="M35.3591645,73.0053636 C21.3906722,68.4960766 9.15206064,67.5698812 8.07613874,70.9383254 C7.01366587,74.262826 17.3088935,80.4588703 31.5144248,85.0442136 C45.718275,89.6295568 57.6761382,90.6182873 58.7386111,87.2937867 C59.8162141,83.9236524 49.3276567,77.5129606 35.3591645,73.0053636" id="Fill-45" fill="#F0A700"></path>
                        <path d="M35.2638445,73.3024898 C21.6399835,68.9047519 9.70397495,68.0005283 8.6549511,71.2878458 C7.61937628,74.5295297 17.6590725,80.5717715 31.5149292,85.0438755 C45.3691047,89.5176697 57.0310894,90.4810481 58.0666642,87.2393642 C59.1156881,83.9520467 48.8877056,77.7002278 35.2638445,73.3024898" id="Fill-47" fill="url(#linearGradient-13)"></path>
                        <g id="Group-52" opacity="0.401841518" style="mix-blend-mode: multiply;" transform="translate(11.358174, 69.779060)">
                            <mask id="mask-15" fill="white">
                                <use xlink:href="#path-14"></use>
                            </mask>
                            <g id="Clip-51"></g>
                            <polygon id="Fill-50" fill="#FFDD00" mask="url(#mask-15)" points="-0.984437279 6.24336819 -4.37695351 4.17125953 42.5349223 7.7239287 45.9240763 9.79603737"></polygon>
                        </g>
                        <g id="Group-55" opacity="0.401841518" style="mix-blend-mode: multiply;" transform="translate(11.358174, 69.779060)">
                            <mask id="mask-17" fill="white">
                                <use xlink:href="#path-16"></use>
                            </mask>
                            <g id="Clip-54"></g>
                            <polygon id="Fill-53" fill="#FFDD00" mask="url(#mask-17)" points="5.28364834 12.1696666 -2.67649258 7.3037605 47.9674874 11.1403728 55.9276283 16.0045887"></polygon>
                        </g>
                        <path d="M28.2636277,42.5210283 C27.808042,42.5210283 27.4415561,41.3886361 27.4415561,39.9925825 L27.4415561,2.63209148 C27.4415561,1.23603785 27.808042,0.103645675 28.2636277,0.103645675 C28.7192134,0.103645675 29.0873804,1.23603785 29.0873804,2.63209148 L29.0873804,39.9925825 C29.0873804,41.3886361 28.7192134,42.5210283 28.2636277,42.5210283" id="Fill-93" fill="#EFF1F4"></path>
                        <path d="M37.3800484,38.3690364 C36.9244627,38.3690364 36.5562957,37.6557983 36.5562957,36.7752366 L36.5562957,14.9099269 C36.5562957,14.0293652 36.9244627,13.314437 37.3800484,13.314437 C37.8356341,13.314437 38.2038011,14.0293652 38.2038011,14.9099269 L38.2038011,36.7752366 C38.2038011,37.6557983 37.8356341,38.3690364 37.3800484,38.3690364" id="Fill-95" fill="#EFF1F4"></path>
                    </g>
                    <g id="Group-14" transform="translate(0.000000, 39.718233)">
                        <path d="M57.7916317,71.9432812 C52.7179875,70.4001856 41.4342566,71.2739867 28.8241157,74.5021495 C16.2139749,77.7303122 5.88848692,82.3900215 2.16646961,86.1843804 L0.0566540124,86.7235343 L2.88431125,97.8885831 C3.88458239,101.836744 17.8127276,101.566322 34.5920658,97.2699927 C51.3697229,92.973663 63.7310568,86.5156473 62.7307857,82.5657958 L59.9014473,71.4024372 L57.7916317,71.9432812 Z" id="Fill-97" fill="url(#linearGradient-18)"></path>
                        <path d="M52.7089094,74.2984879 C53.4670981,77.2917215 43.9821742,82.1508671 31.5670441,85.3300158 C19.1535952,88.5091646 8.5103741,88.8032485 7.75218538,85.8083248 C6.99399667,82.8117109 16.4419358,77.8072135 28.8570659,74.6297549 C41.2705147,71.4506061 51.9490396,71.3035641 52.7089094,74.2984879" id="Fill-99" fill="#FFC30D"></path>
                        <g id="Group-103" transform="translate(0.000000, 68.088922)">
                            <mask id="mask-20" fill="white">
                                <use xlink:href="#path-19"></use>
                            </mask>
                            <g id="Clip-102"></g>
                            <path d="M31.7637361,18.0190637 C14.9843979,22.3137033 1.0562527,22.5841253 0.0559815612,18.6342738 C-0.95101409,14.6539998 11.6524023,7.97964652 28.1509921,3.75599273 C44.6512631,-0.467661066 58.8937792,-0.6670973 59.902456,3.31317668 C60.9027271,7.26471833 48.5430743,13.722734 31.7637361,18.0190637" id="Fill-101" fill="url(#linearGradient-21)" mask="url(#mask-20)"></path>
                        </g>
                        <path d="M28.4055149,72.8493639 C14.1882157,76.4882301 3.32981016,82.2397683 4.19895332,85.6690574 C5.05464745,89.0527129 17.0511766,88.8025725 31.5088771,85.1028613 C45.9665776,81.4014601 56.6215666,75.8510483 55.7641914,72.4673929 C54.8950482,69.0381037 42.6228141,69.2088076 28.4055149,72.8493639" id="Fill-104" fill="#F0A700"></path>
                        <path d="M28.4818381,73.1513915 C14.6158946,76.7023706 4.02478846,82.310247 4.87207696,85.6550293 C5.70759755,88.955868 17.4082482,88.7124882 31.5095496,85.1023543 C45.6091698,81.4939106 56.0019029,76.0787098 55.1647012,72.7795613 C54.3174127,69.434779 42.3477815,69.6004125 28.4818381,73.1513915" id="Fill-106" fill="url(#linearGradient-22)"></path>
                        <g id="Group-111" opacity="0.398549107" style="mix-blend-mode: multiply;" transform="translate(7.360215, 71.178773)">
                            <mask id="mask-24" fill="white">
                                <use xlink:href="#path-23"></use>
                            </mask>
                            <g id="Clip-110"></g>
                            <polygon id="Fill-109" fill="#FFDD00" mask="url(#mask-24)" points="1.47108665 17.5717428 -2.49637534 17.6258272 39.1233097 -4.41863715 43.0907717 -4.47272155"></polygon>
                        </g>
                        <g id="Group-114" opacity="0.398549107" style="mix-blend-mode: multiply;" transform="translate(7.360215, 71.178773)">
                            <mask id="mask-26" fill="white">
                                <use xlink:href="#path-25"></use>
                            </mask>
                            <g id="Clip-113"></g>
                            <polygon id="Fill-112" fill="#FFDD00" mask="url(#mask-26)" points="9.91287073 19.2437959 0.597740677 19.3739365 45.5309289 -4.42489066 54.846059 -4.55503125"></polygon>
                        </g>
                        <path d="M27.986914,42.5754507 C27.5313283,42.5754507 27.1631613,41.4430586 27.1631613,40.0470049 L27.1631613,2.68651391 C27.1631613,1.29046028 27.5313283,0.158068104 27.986914,0.158068104 C28.4424997,0.158068104 28.8106667,1.29046028 28.8106667,2.68651391 L28.8106667,40.0470049 C28.8106667,41.4430586 28.4424997,42.5754507 27.986914,42.5754507" id="Fill-116" fill="#EFF1F4"></path>
                        <path d="M37.1035029,38.4226137 C36.6479172,38.4226137 36.2797502,37.7093757 36.2797502,36.828814 L36.2797502,14.9618141 C36.2797502,14.0829425 36.6479172,13.3697045 37.1035029,13.3697045 C37.5590885,13.3697045 37.9272556,14.0829425 37.9272556,14.9618141 L37.9272556,36.828814 C37.9272556,37.7093757 37.5590885,38.4226137 37.1035029,38.4226137" id="Fill-118" fill="#EFF1F4"></path>
                    </g>
                    <g id="Group-8" transform="translate(77.331886, 0.000000)">
                        <path d="M73.3437465,157.265482 C73.3437465,174.662068 59.3147336,187.921197 42.0108835,187.921197 C24.7087145,187.921197 10.6813828,174.662068 10.6813828,157.265482 C10.6813828,139.868896 24.7087145,125.764698 42.0108835,125.764698 C59.3147336,125.764698 73.3437465,139.868896 73.3437465,157.265482" id="Fill-1" fill="#FFC30D"></path>
                        <path d="M42.0113878,192.433189 C18.6235356,192.433189 0.304284162,174.460266 0.304284162,151.516648 C0.304284162,128.395566 19.0135573,109.584335 42.0113878,109.584335 C65.0092184,109.584335 83.7201727,128.395566 83.7201727,151.516648 C83.7201727,174.460266 65.3992401,192.433189 42.0113878,192.433189" id="Fill-3" fill="url(#linearGradient-27)"></path>
                        <path d="M42.0113878,115.421394 C22.1959325,115.421394 6.07559647,131.629813 6.07559647,151.551465 C6.07559647,171.202695 21.8597069,186.596468 42.0113878,186.596468 C62.1630688,186.596468 77.9488604,171.202695 77.9488604,151.551465 C77.9488604,131.629813 61.8285243,115.421394 42.0113878,115.421394" id="Fill-5" fill="#F0A700"></path>
                        <path d="M42.0113878,117.179137 C22.6851408,117.179137 6.9615509,132.986994 6.9615509,152.416815 C6.9615509,171.581285 22.3573208,186.596468 42.0113878,186.596468 C61.6654549,186.596468 77.0629059,171.581285 77.0629059,152.416815 C77.0629059,132.986994 61.3393161,117.179137 42.0113878,117.179137" id="Fill-7" fill="url(#linearGradient-28)"></path>
                        <g id="Group-12" opacity="0.445145089" style="mix-blend-mode: multiply;" transform="translate(10.722471, 120.070713)">
                            <mask id="mask-30" fill="white">
                                <use xlink:href="#path-29"></use>
                            </mask>
                            <g id="Clip-11"></g>
                            <polygon id="Fill-10" fill="#FFDD00" mask="url(#mask-30)" points="0.394828531 54.7514111 -4.81666816 49.5102945 56.9698279 -12.6073317 62.1830058 -7.36790525"></polygon>
                        </g>
                        <g id="Group-15" opacity="0.445145089" style="mix-blend-mode: multiply;" transform="translate(10.927332, 120.192763)">
                            <mask id="mask-32" fill="white">
                                <use xlink:href="#path-31"></use>
                            </mask>
                            <g id="Clip-14"></g>
                            <polygon id="Fill-13" fill="#FFDD00" mask="url(#mask-32)" points="10.6855856 75.5431235 -1.55134489 63.2406121 65.1558128 -3.82235661 77.3927432 8.47846464"></polygon>
                        </g>
                        <path d="M24.4794086,85.197002 C23.8641158,85.197002 23.3665019,83.6691176 23.3665019,81.7829241 L23.3665019,3.45349834 C23.3665019,1.56730481 23.8641158,0.0394204468 24.4794086,0.0394204468 C25.0930203,0.0394204468 25.5923153,1.56730481 25.5923153,3.45349834 L25.5923153,81.7829241 C25.5923153,83.6691176 25.0930203,85.197002 24.4794086,85.197002" id="Fill-195" fill="#EFF1F4"></path>
                        <path d="M35.2769573,80.4681661 C34.6633456,80.4681661 34.1640506,79.5047877 34.1640506,78.316621 L34.1640506,53.6220209 C34.1640506,52.4338542 34.6633456,51.4704758 35.2769573,51.4704758 C35.8922502,51.4704758 36.389864,52.4338542 36.389864,53.6220209 L36.389864,78.316621 C36.389864,79.5047877 35.8922502,80.4681661 35.2769573,80.4681661" id="Fill-197" fill="#EFF1F4"></path>
                        <path d="M46.0755147,85.197002 C45.4602219,85.197002 44.962608,84.2336236 44.962608,83.0454569 L44.962608,41.0117355 C44.962608,39.8235688 45.4602219,38.8601903 46.0755147,38.8601903 C46.6891264,38.8601903 47.1884214,39.8235688 47.1884214,41.0117355 L47.1884214,83.0454569 C47.1884214,84.2336236 46.6891264,85.197002 46.0755147,85.197002" id="Fill-199" fill="#EFF1F4"></path>
                    </g>
                    <g id="Group-9" transform="translate(16.606419, 182.741095)">
                        <path d="M1.69434045,10.7384581 C3.80415604,14.2725357 10.674926,19.2550613 19.4924422,23.3198422 C28.3099584,27.3863132 36.5491665,29.3688445 40.588917,28.6708177 L42.0649474,29.3519432 L45.8340363,21.0871704 C47.2629951,17.9570356 39.1902186,11.265781 27.4593076,5.85734077 C15.7267156,0.447210402 5.41635776,-1.33757487 3.98908012,1.79425005 L0.219991223,10.0590228 L1.69434045,10.7384581 Z" id="Fill-249" fill="url(#linearGradient-33)"></path>
                        <path d="M5.78217121,11.6742873 C6.86481762,9.29964396 14.7274531,10.7345708 23.4071168,14.7368165 C32.0884616,18.7390623 38.3002294,23.7925736 37.217583,26.1672169 C36.1349366,28.5401701 28.218505,27.2201726 19.5388413,23.219617 C10.8591777,19.2173712 4.69784367,14.0472404 5.78217121,11.6742873" id="Fill-251" fill="#FFC30D"></path>
                        <path d="M23.6893782,14.1204234 C35.4219702,19.5305537 43.4930656,26.2201182 42.0641068,29.3519432 C40.6250613,32.50743 30.0675777,30.7463067 18.5316776,25.4274437 C6.99409636,20.1085808 -1.21989488,13.2145096 0.219150659,10.0590228 C1.64810943,6.92719785 11.9567861,8.71198313 23.6893782,14.1204234" id="Fill-253" fill="#F2A500"></path>
                        <path d="M18.8946331,24.6310509 C28.8351428,29.214704 37.9317262,30.7307574 39.1723986,28.011326 C40.3962598,25.3290777 33.4347089,19.5792297 23.3260864,14.9178303 C13.2157828,10.2564308 4.33942719,8.70657469 3.11556603,11.388823 C1.87489359,14.1065642 8.95412345,20.0473978 18.8946331,24.6310509" id="Fill-255" fill="url(#linearGradient-34)"></path>
                    </g>
                </g>
            </g>
        </g>
    </g>
</svg>