<?xml version="1.0" encoding="UTF-8"?>
<svg width="189px" height="231px" viewBox="0 0 189 231" version="1.1" xmlns="http://www.w3.org/2000/svg" xmlns:xlink="http://www.w3.org/1999/xlink">
    <!-- Generator: Sketch 63.1 (92452) - https://sketch.com -->
    <title>img_instagram_landscape_mob</title>
    <desc>Created with Sketch.</desc>
    <defs>
        <filter x="-3.5%" y="-38.1%" width="106.9%" height="176.2%" filterUnits="objectBoundingBox" id="filter-1">
            <feGaussianBlur stdDeviation="1.65066964" in="SourceGraphic"></feGaussianBlur>
        </filter>
        <linearGradient x1="49.1958324%" y1="10.1619773%" x2="46.7668398%" y2="94.2950964%" id="linearGradient-2">
            <stop stop-color="#9F3FA9" offset="0%"></stop>
            <stop stop-color="#DB2E87" offset="21.7248618%"></stop>
            <stop stop-color="#F2554B" offset="76.0780392%"></stop>
            <stop stop-color="#FFB461" offset="100%"></stop>
        </linearGradient>
        <linearGradient x1="48.8346282%" y1="10.1619773%" x2="45.3146162%" y2="94.2950964%" id="linearGradient-3">
            <stop stop-color="#9F3FA9" offset="0%"></stop>
            <stop stop-color="#DB2E87" offset="21.7248618%"></stop>
            <stop stop-color="#F2554B" offset="76.0780392%"></stop>
            <stop stop-color="#FFB461" offset="100%"></stop>
        </linearGradient>
    </defs>
    <g id="Page-1" stroke="none" stroke-width="1" fill="none" fill-rule="evenodd">
        <g id="FAQs---How-Much-Does-It-Cost-To-Advertise-On-Instagram---Mobile" transform="translate(-92.000000, -994.000000)">
            <g id="img_instagram_landscape_mob" transform="translate(58.000000, 961.000000)">
                <ellipse id="Oval-4" fill="#000000" opacity="0.147860054" filter="url(#filter-1)" cx="134.5" cy="253.5" rx="71.5" ry="6.5"></ellipse>
                <path d="M125.807531,241.687224 C166.234656,241.696587 198.998147,202.111778 198.98684,153.272079 C198.975526,104.43238 166.187294,37.1847209 125.760169,37.175357 C85.3330432,37.1659931 52.5759545,104.39847 52.5872621,153.238169 C52.5985756,202.077869 85.380405,241.677859 125.807531,241.687224 Z" id="Oval-5" fill="url(#linearGradient-2)" opacity="0.265341938" transform="translate(125.787051, 139.431291) rotate(-415.000000) translate(-125.787051, -139.431291) "></path>
                <path d="M144.725881,214.117891 C189.045413,214.10843 224.98119,178.044962 224.990686,133.567878 C225.000179,89.0907938 189.085171,27.8646254 144.765639,27.8740841 C100.446107,27.8835428 64.5049553,89.1250469 64.4954587,133.602131 C64.4859659,178.079215 100.406349,214.127348 144.725881,214.117891 Z" id="Oval-5" fill="url(#linearGradient-3)" transform="translate(144.743073, 120.995988) rotate(-330.000000) translate(-144.743073, -120.995988) "></path>
                <g id="instagram" transform="translate(96.000000, 90.000000)" fill="#FFFFFF" fill-rule="nonzero">
                    <path d="M58.975947,0 L25.024053,0 C11.225732,0 0,11.2254566 0,25.0234391 L0,58.9745003 C0,72.7724828 11.225732,83.9979394 25.024053,83.9979394 L58.975947,83.9979394 C72.774268,83.9979394 84,72.7724828 84,58.9745003 L84,25.0234391 C84,11.2254566 72.7741156,0 58.975947,0 Z M75.5496031,58.9745003 C75.5496031,68.1275767 68.1292479,75.5477498 58.975947,75.5477498 L25.024053,75.5477498 C15.8707521,75.5477498 8.45039689,68.1275767 8.45039689,58.9745003 L8.45039689,25.0234391 C8.45039689,15.8702103 15.8707521,8.45018959 25.024053,8.45018959 L58.975947,8.45018959 C68.1292479,8.45018959 75.5496031,15.8702103 75.5496031,25.0234391 L75.5496031,58.9745003 L75.5496031,58.9745003 Z" id="Shape"></path>
                    <path d="M41.4084507,20.1121827 C29.6659417,20.1121827 20.1126761,29.6652475 20.1126761,41.4073602 C20.1126761,53.1494729 29.6659417,62.7026872 41.4084507,62.7026872 C53.1509597,62.7026872 62.7042254,53.1496223 62.7042254,41.4073602 C62.7042254,29.6650981 53.1509597,20.1121827 41.4084507,20.1121827 Z M41.4084507,54.4212002 C34.2209124,54.4212002 28.3943662,48.5947969 28.3943662,41.4074349 C28.3943662,34.220073 34.2210619,28.3936697 41.4084507,28.3936697 C48.595989,28.3936697 54.4225352,34.220073 54.4225352,41.4074349 C54.4225352,48.5946474 48.5958395,54.4212002 41.4084507,54.4212002 Z" id="Shape"></path>
                    <ellipse id="Oval" cx="63.2957746" cy="19.5206479" rx="5.32394366" ry="5.32381306"></ellipse>
                </g>
            </g>
        </g>
    </g>
</svg>