<?xml version="1.0" encoding="UTF-8"?>
<svg width="528px" height="390px" viewBox="0 0 528 390" version="1.1" xmlns="http://www.w3.org/2000/svg" xmlns:xlink="http://www.w3.org/1999/xlink">
    <!-- Generator: Sketch 63.1 (92452) - https://sketch.com -->
    <title>img_black_hat_seo@2x</title>
    <desc>Created with Sketch.</desc>
    <defs>
        <linearGradient x1="24.4169347%" y1="6.26148897%" x2="78.9464614%" y2="96.0190717%" id="linearGradient-1">
            <stop stop-color="#427FDF" offset="0%"></stop>
            <stop stop-color="#396BB1" offset="100%"></stop>
        </linearGradient>
        <path d="M401,203.50102 C401,299.87392 322.872794,378 226.49898,378 C130.127206,378 52,299.87392 52,203.50102 C52,107.128119 130.127206,29 226.49898,29 C322.872794,29 401,107.128119 401,203.50102" id="path-2"></path>
        <filter x="-4.6%" y="-4.0%" width="109.2%" height="109.2%" filterUnits="objectBoundingBox" id="filter-3">
            <feOffset dx="0" dy="2" in="SourceAlpha" result="shadowOffsetOuter1"></feOffset>
            <feGaussianBlur stdDeviation="5" in="shadowOffsetOuter1" result="shadowBlurOuter1"></feGaussianBlur>
            <feColorMatrix values="0 0 0 0 0   0 0 0 0 0   0 0 0 0 0  0 0 0 0.15 0" type="matrix" in="shadowBlurOuter1"></feColorMatrix>
        </filter>
        <polygon id="path-4" points="0 0.261584096 368.386562 0.261584096 368.386562 177.149694 0 177.149694"></polygon>
        <polygon id="path-6" points="0.0980102353 0.263416667 269.687545 0.263416667 269.687545 205.021675 0.0980102353 205.021675"></polygon>
        <polygon id="path-8" points="0.989563221 0.145711879 374.264773 0.145711879 374.264773 179.643836 0.989563221 179.643836"></polygon>
    </defs>
    <g id="Page-1" stroke="none" stroke-width="1" fill="none" fill-rule="evenodd">
        <g id="FAQs---What-is-a-Backlink" transform="translate(-137.000000, -3279.000000)">
            <g id="img_black_hat_seo" transform="translate(136.000000, 3279.000000)">
                <g id="Fill-1">
                    <use fill="black" fill-opacity="1" filter="url(#filter-3)" xlink:href="#path-2"></use>
                    <use fill="url(#linearGradient-1)" fill-rule="evenodd" xlink:href="#path-2"></use>
                </g>
                <g id="Group-2" transform="translate(324.974483, 273.070847) scale(-1, 1) rotate(13.000000) translate(-324.974483, -273.070847) translate(140.474483, 149.570847)">
                    <g id="Group-3" transform="translate(0.000000, 68.997000)">
                        <mask id="mask-5" fill="white">
                            <use xlink:href="#path-4"></use>
                        </mask>
                        <g id="Clip-2"></g>
                        <path d="M363.386785,30.1558719 C334.091105,79.4238719 277.285124,110.871507 213.301259,137.923945 C137.5698,169.942695 88.6929047,180.198914 37.414668,176.396403 C8.42355928,174.247059 2.68897932,169.385205 0.832002772,164.893497 C-9.35182026,140.258361 75.6815678,74.9287573 160.413794,39.2539656 C246.474542,3.02054896 357.035107,-12.5028677 367.567824,12.4672156 C370.023715,18.2884969 366.460911,24.9863198 363.386785,30.1558719" id="Fill-1" fill="#1E1C1D" mask="url(#mask-5)"></path>
                    </g>
                    <path d="M355.802275,101.677584 C327.74761,148.855282 273.352062,178.968803 212.082064,204.87447 C139.564516,235.535261 92.7593878,245.35548 43.6563367,241.715334 C15.8960147,239.656824 10.4046373,235.001616 8.62607655,230.699522 C-1.12589147,207.10897 80.3015072,144.550918 161.439109,110.389636 C243.848409,75.693574 349.719938,60.828699 359.804889,84.7394385 C362.157362,90.313199 358.745708,96.7283031 355.802275,101.677584" id="Fill-4" fill="#272D35"></path>
                    <g id="Group-8" transform="translate(30.684435, 0.872000)">
                        <mask id="mask-7" fill="white">
                            <use xlink:href="#path-6"></use>
                        </mask>
                        <g id="Clip-7"></g>
                        <path d="M269.687545,107.356939 L176.905768,9.48175104 C167.267446,-0.685905208 151.803628,-2.68537396 139.892385,4.69596979 L14.0691544,82.669574 C2.39656802,89.9033135 -2.74477953,104.220918 1.66355096,117.218032 L30.8546768,203.286022 C30.8546768,203.286022 129.021003,225.96597 269.687545,107.356939" id="Fill-6" fill="#272D35" mask="url(#mask-7)"></path>
                    </g>
                    <path d="M267.817499,73.8870125 C158.683192,162.710658 76.4443601,166.409846 48.041938,164.360419 L61.53968,204.157908 C61.53968,204.157908 159.706006,226.837856 300.371411,108.228825 L267.817499,73.8870125 Z" id="Fill-9" fill="#EEF1F8"></path>
                    <path d="M175.280403,25.7421667 C177.862441,30.1146563 167.597929,42.3726146 158.015294,49.5200625 C147.19278,57.5940104 142.827635,54.9984479 127.543377,63.3880417 C112.234117,71.7912604 112.879626,76.4441979 99.032991,83.1987917 C87.1433407,88.9985 69.2122661,94.0840313 66.6472746,89.7898854 C63.1560678,83.9481667 88.0229612,60.6028646 113.697878,45.4654896 C143.695891,27.7791042 171.26756,18.9489688 175.280403,25.7421667" id="Fill-11" fill="#22282D"></path>
                    <path d="M151.545651,144.667071 C151.545651,144.667071 182.005067,172.154373 256.931911,141.511748 C256.931911,141.511748 151.458144,219.146998 61.5391117,204.158363 L48.0413697,164.360873 C48.0413697,164.360873 120.097515,158.996029 151.545651,144.667071" id="Fill-13" fill="#D9DADD"></path>
                </g>
                <g id="Group">
                    <g id="Group-17" transform="translate(0.000000, 69.092384)">
                        <mask id="mask-9" fill="white">
                            <use xlink:href="#path-8"></use>
                        </mask>
                        <g id="Clip-16"></g>
                        <path d="M369.198523,30.4806699 C339.514432,80.4762315 281.955341,112.386889 217.12125,139.839423 C140.386023,172.329944 90.85875,182.737916 38.9007955,178.880122 C9.52579545,176.698245 3.71443182,171.764862 1.83261364,167.206684 C-8.48556818,142.207766 77.6757955,75.9135055 163.53375,39.7129986 C250.734886,2.94513562 362.763295,-12.8066726 373.436023,12.5310671 C375.923523,18.437711 372.313295,25.2357521 369.198523,30.4806699" id="Fill-15" fill="#E6E7EC" mask="url(#mask-9)"></path>
                    </g>
                    <path d="M361.513636,102.13457 C333.0875,150.008515 277.969318,180.566159 215.886364,206.854419 C142.406818,237.968049 94.9806818,247.933734 45.2261364,244.238529 C17.0965909,242.149885 11.5318182,237.425707 9.73068182,233.060816 C-0.151136364,209.122707 82.3568182,145.641351 164.570455,110.975775 C248.075,75.7678575 355.351136,60.6834603 365.569318,84.9467479 C367.952273,90.6021178 364.495455,97.1113644 361.513636,102.13457" id="Fill-18" fill="#EEF1F8"></path>
                    <path d="M305.347955,108.783325 L211.335455,9.46302329 C201.568409,-0.855127397 185.900227,-2.88351096 173.829773,4.60809178 L46.3365909,83.7321055 C34.5104545,91.072489 29.3013636,105.6009 33.7672727,118.789941 L63.3456818,206.127544 C63.3456818,206.127544 162.815,229.142421 305.347955,108.783325" id="Fill-20" fill="#EEF1F8"></path>
                    <path d="M272.36125,73.9342397 C161.778295,164.068829 78.44875,167.823158 49.6692045,165.742473 L63.3453409,206.128226 C63.3453409,206.128226 162.815795,229.143103 305.347614,108.78287 L272.36125,73.9342397 Z" id="Fill-22" fill="#272D35"></path>
                    <path d="M175.731477,22.2123918 C178.348523,26.6477753 167.94625,39.0886795 158.237159,46.3415151 C147.27125,54.5335014 142.848523,51.9002411 127.361023,60.4139945 C111.847386,68.9413918 112.501932,73.6621589 98.4723864,80.5159123 C86.4246591,86.4020904 68.2553409,91.5617342 65.6564773,87.2048027 C62.1189773,81.2765562 87.3155682,57.5863096 113.331477,42.2267616 C143.728068,24.2782959 171.665568,15.3188438 175.731477,22.2123918" id="Fill-24" fill="#E6E7EC"></path>
                    <path d="M154.546705,145.758688 C154.546705,145.758688 185.409205,173.652373 261.331932,142.558071 C261.331932,142.558071 154.458068,221.337578 63.3455682,206.128112 L49.6694318,165.742359 C49.6694318,165.742359 122.681932,160.299605 154.546705,145.758688" id="Fill-26" fill="#1E1C1D"></path>
                </g>
            </g>
        </g>
    </g>
</svg>