<?xml version="1.0" encoding="UTF-8"?>
<svg width="475px" height="439px" viewBox="0 0 475 439" version="1.1" xmlns="http://www.w3.org/2000/svg" xmlns:xlink="http://www.w3.org/1999/xlink">
    <!-- Generator: Sketch 63.1 (92452) - https://sketch.com -->
    <title>img_calendar</title>
    <desc>Created with Sketch.</desc>
    <defs>
        <filter x="-14.0%" y="-22.7%" width="128.2%" height="135.7%" filterUnits="objectBoundingBox" id="filter-1">
            <feOffset dx="0" dy="9" in="SourceAlpha" result="shadowOffsetOuter1"></feOffset>
            <feGaussianBlur stdDeviation="9" in="shadowOffsetOuter1" result="shadowBlurOuter1"></feGaussianBlur>
            <feColorMatrix values="0 0 0 0 0   0 0 0 0 0   0 0 0 0 0  0 0 0 0.2 0" type="matrix" in="shadowBlurOuter1" result="shadowMatrixOuter1"></feColorMatrix>
            <feMerge>
                <feMergeNode in="shadowMatrixOuter1"></feMergeNode>
                <feMergeNode in="SourceGraphic"></feMergeNode>
            </feMerge>
        </filter>
        <filter x="-13.9%" y="-122.1%" width="127.7%" height="344.2%" filterUnits="objectBoundingBox" id="filter-2">
            <feOffset dx="0" dy="9" in="SourceAlpha" result="shadowOffsetOuter1"></feOffset>
            <feGaussianBlur stdDeviation="9" in="shadowOffsetOuter1" result="shadowBlurOuter1"></feGaussianBlur>
            <feColorMatrix values="0 0 0 0 0   0 0 0 0 0   0 0 0 0 0  0 0 0 0.5 0" type="matrix" in="shadowBlurOuter1" result="shadowMatrixOuter1"></feColorMatrix>
            <feMerge>
                <feMergeNode in="shadowMatrixOuter1"></feMergeNode>
                <feMergeNode in="SourceGraphic"></feMergeNode>
            </feMerge>
        </filter>
    </defs>
    <g id="Page-1" stroke="none" stroke-width="1" fill="none" fill-rule="evenodd">
        <g id="FAQs---How-Much-Does-It-Cost-To-Advertise-On-Facebook" transform="translate(-805.000000, -5988.000000)" fill-rule="nonzero">
            <g id="img_calendar" transform="translate(823.000000, 5997.000000)">
                <rect id="Rectangle" fill="#222222" opacity="0.15" x="0" y="359" width="439" height="60"></rect>
                <g id="Group" filter="url(#filter-1)">
                    <g>
                        <rect id="Rectangle" fill="#FFFFFF" x="0.225128205" y="41.9754875" width="438.549744" height="361.011699"></rect>
                        <rect id="Rectangle" fill="#FF5254" x="0.225128205" y="19.3559889" width="438.549744" height="63.8072423"></rect>
                        <g opacity="0.3" transform="translate(0.000000, 77.649025)" fill="#222222" id="Rectangle">
                            <rect x="0.225128205" y="0" width="438.549744" height="12.6038997"></rect>
                        </g>
                        <rect id="Rectangle" fill="#FF5254" x="0.225128205" y="74.3855153" width="438.549744" height="12.1537604"></rect>
                        <g filter="url(#filter-2)" transform="translate(30.392308, 0.000000)">
                            <g>
                                <g opacity="0.6" transform="translate(0.000000, 22.506964)" fill="#222222" id="Oval">
                                    <ellipse cx="11.0312821" cy="9.90306407" rx="10.1307692" ry="9.34038997"></ellipse>
                                </g>
                                <path d="M19.4735897,29.821727 C19.4735897,34.3231198 15.7589744,37.924234 11.3689744,37.924234 L10.8061538,37.924234 C6.30358974,37.924234 2.70153846,34.210585 2.70153846,29.821727 L2.70153846,8.10250696 C2.70153846,3.60111421 6.41615385,0 10.8061538,0 L11.3689744,0 C15.8715385,0 19.4735897,3.71364903 19.4735897,8.10250696 L19.4735897,29.821727 Z" id="Path" fill="#FFFFFF"></path>
                                <g opacity="0.6" transform="translate(51.779487, 22.506964)" fill="#222222" id="Oval">
                                    <ellipse cx="10.1307692" cy="10.1281337" rx="10.1307692" ry="9.34038997"></ellipse>
                                </g>
                                <path d="M70.3525641,30.0467967 C70.3525641,34.5481894 66.6379487,38.1493036 62.2479487,38.1493036 L61.6851282,38.1493036 C57.1825641,38.1493036 53.5805128,34.4356546 53.5805128,30.0467967 L53.5805128,8.3275766 C53.5805128,3.82618384 57.2951282,0.225069638 61.6851282,0.225069638 L62.2479487,0.225069638 C66.7505128,0.225069638 70.3525641,3.93871866 70.3525641,8.3275766 L70.3525641,30.0467967 Z" id="Path" fill="#FFFFFF"></path>
                                <g opacity="0.6" transform="translate(102.433333, 22.506964)" fill="#222222" id="Oval">
                                    <ellipse cx="10.5810256" cy="10.1281337" rx="10.1307692" ry="9.34038997"></ellipse>
                                </g>
                                <path d="M121.344103,30.0467967 C121.344103,34.5481894 117.629487,38.1493036 113.239487,38.1493036 L112.676667,38.1493036 C108.174103,38.1493036 104.572051,34.4356546 104.572051,30.0467967 L104.572051,8.3275766 C104.572051,3.82618384 108.286667,0.225069638 112.676667,0.225069638 L113.239487,0.225069638 C117.742051,0.225069638 121.344103,3.93871866 121.344103,8.3275766 L121.344103,30.0467967 Z" id="Path" fill="#FFFFFF"></path>
                            </g>
                            <g transform="translate(153.087179, 0.000000)">
                                <g opacity="0.6" transform="translate(0.000000, 22.506964)" fill="#222222" id="Oval">
                                    <ellipse cx="10.5810256" cy="9.90306407" rx="10.1307692" ry="9.34038997"></ellipse>
                                </g>
                                <path d="M19.0233333,29.821727 C19.0233333,34.3231198 15.3087179,37.924234 10.9187179,37.924234 L10.3558974,37.924234 C5.85333333,37.924234 2.25128205,34.210585 2.25128205,29.821727 L2.25128205,8.10250696 C2.25128205,3.60111421 5.96589744,0 10.3558974,0 L10.9187179,0 C15.4212821,0 19.0233333,3.71364903 19.0233333,8.10250696 L19.0233333,29.821727 Z" id="Path" fill="#FFFFFF"></path>
                                <g opacity="0.6" transform="translate(50.653846, 22.506964)" fill="#222222" id="Oval">
                                    <ellipse cx="10.8061538" cy="10.1281337" rx="10.1307692" ry="9.34038997"></ellipse>
                                </g>
                                <path d="M69.9023077,30.0467967 C69.9023077,34.5481894 66.1876923,38.1493036 61.7976923,38.1493036 L61.2348718,38.1493036 C56.7323077,38.1493036 53.1302564,34.4356546 53.1302564,30.0467967 L53.1302564,8.3275766 C53.1302564,3.82618384 56.8448718,0.225069638 61.2348718,0.225069638 L61.7976923,0.225069638 C66.3002564,0.225069638 69.9023077,3.93871866 69.9023077,8.3275766 L69.9023077,30.0467967 Z" id="Path" fill="#FFFFFF"></path>
                                <g opacity="0.6" transform="translate(102.433333, 22.506964)" fill="#222222" id="Oval">
                                    <ellipse cx="10.1307692" cy="10.1281337" rx="10.1307692" ry="9.34038997"></ellipse>
                                </g>
                                <path d="M120.893846,30.0467967 C120.893846,34.5481894 117.179231,38.1493036 112.789231,38.1493036 L112.22641,38.1493036 C107.723846,38.1493036 104.121795,34.4356546 104.121795,30.0467967 L104.121795,8.3275766 C104.121795,3.82618384 107.83641,0.225069638 112.22641,0.225069638 L112.789231,0.225069638 C117.291795,0.225069638 120.893846,3.93871866 120.893846,8.3275766 L120.893846,30.0467967 Z" id="Path" fill="#FFFFFF"></path>
                            </g>
                            <g transform="translate(306.174359, 0.000000)">
                                <g opacity="0.6" transform="translate(0.000000, 22.506964)" fill="#222222" id="Oval">
                                    <ellipse cx="10.1307692" cy="10.1281337" rx="10.1307692" ry="9.34038997"></ellipse>
                                </g>
                                <path d="M18.4605128,30.0467967 C18.4605128,34.5481894 14.7458974,38.1493036 10.3558974,38.1493036 L9.79307692,38.1493036 C5.29051282,38.1493036 1.68846154,34.4356546 1.68846154,30.0467967 L1.68846154,8.3275766 C1.68846154,3.82618384 5.40307692,0.225069638 9.79307692,0.225069638 L10.3558974,0.225069638 C14.8584615,0.225069638 18.4605128,3.93871866 18.4605128,8.3275766 L18.4605128,30.0467967 Z" id="Path" fill="#FFFFFF"></path>
                                <g opacity="0.6" transform="translate(50.653846, 23.506964)" fill="#222222" id="Oval">
                                    <ellipse cx="10.3558974" cy="9.35320334" rx="10.1307692" ry="9.34038997"></ellipse>
                                </g>
                                <path d="M69.3394872,30.1593315 C69.3394872,34.6607242 65.6248718,38.2618384 61.2348718,38.2618384 L60.6720513,38.2618384 C56.1694872,38.2618384 52.5674359,34.5481894 52.5674359,30.1593315 L52.5674359,8.44011142 C52.5674359,3.93871866 56.2820513,0.337604457 60.6720513,0.337604457 L61.2348718,0.337604457 C65.7374359,0.337604457 69.3394872,4.05125348 69.3394872,8.44011142 L69.3394872,30.1593315 Z" id="Path" fill="#FFFFFF"></path>
                            </g>
                        </g>
                    </g>
                    <g transform="translate(20.261538, 123.788301)" id="Path">
                        <g opacity="0.2" transform="translate(60.784615, 0.000000)" fill="#222222">
                            <path d="M35.0074359,28.3587744 C35.0074359,32.0724234 31.9682051,35.1108635 28.2535897,35.1108635 L6.75384615,35.1108635 C3.03923077,35.1108635 0,32.0724234 0,28.3587744 L0,6.86462396 C0,3.15097493 3.03923077,0.112534819 6.75384615,0.112534819 L28.2535897,0.112534819 C31.9682051,0.112534819 35.0074359,3.15097493 35.0074359,6.86462396 L35.0074359,28.3587744 Z"></path>
                        </g>
                        <g opacity="0.2" transform="translate(120.443590, 0.000000)" fill="#222222">
                            <path d="M35.9079487,28.3587744 C35.9079487,32.0724234 32.8687179,35.1108635 29.1541026,35.1108635 L7.65435897,35.1108635 C3.93974359,35.1108635 0.900512821,32.0724234 0.900512821,28.3587744 L0.900512821,6.86462396 C0.900512821,3.15097493 3.93974359,0.112534819 7.65435897,0.112534819 L29.1541026,0.112534819 C32.8687179,0.112534819 35.9079487,3.15097493 35.9079487,6.86462396 L35.9079487,28.3587744 Z"></path>
                        </g>
                        <g opacity="0.2" transform="translate(181.228205, 0.000000)" fill="#222222">
                            <path d="M35.5702564,28.3587744 C35.5702564,32.0724234 32.5310256,35.1108635 28.8164103,35.1108635 L7.31666667,35.1108635 C3.60205128,35.1108635 0.562820513,32.0724234 0.562820513,28.3587744 L0.562820513,6.86462396 C0.562820513,3.15097493 3.60205128,0.112534819 7.31666667,0.112534819 L28.8164103,0.112534819 C32.5310256,0.112534819 35.5702564,3.15097493 35.5702564,6.86462396 L35.5702564,28.3587744 Z"></path>
                        </g>
                        <g opacity="0.2" transform="translate(242.012821, 0.000000)" fill="#222222">
                            <path d="M35.2325641,28.3587744 C35.2325641,32.0724234 32.1933333,35.1108635 28.4787179,35.1108635 L6.97897436,35.1108635 C3.26435897,35.1108635 0.225128205,32.0724234 0.225128205,28.3587744 L0.225128205,6.86462396 C0.225128205,3.15097493 3.26435897,0.112534819 6.97897436,0.112534819 L28.4787179,0.112534819 C32.1933333,0.112534819 35.2325641,3.15097493 35.2325641,6.86462396 L35.2325641,28.3587744 Z"></path>
                        </g>
                        <g opacity="0.3" transform="translate(302.671795, 0.000000)" fill="#222222">
                            <path d="M35.0205128,28.3587744 C35.0205128,32.0724234 31.9812821,35.1108635 28.2666667,35.1108635 L6.76692308,35.1108635 C3.05230769,35.1108635 0.0130769231,32.0724234 0.0130769231,28.3587744 L0.0130769231,6.86462396 C0.0130769231,3.15097493 3.05230769,0.112534819 6.76692308,0.112534819 L28.2666667,0.112534819 C31.9812821,0.112534819 35.0205128,3.15097493 35.0205128,6.86462396 L35.0205128,28.3587744 Z"></path>
                        </g>
                        <g opacity="0.7" transform="translate(362.456410, 0.000000)" fill="#E2392B">
                            <path d="M35.6828205,28.3587744 C35.6828205,32.0724234 32.6435897,35.1108635 28.9289744,35.1108635 L7.42923077,35.1108635 C3.71461538,35.1108635 0.675384615,32.0724234 0.675384615,28.3587744 L0.675384615,6.86462396 C0.675384615,3.15097493 3.71461538,0.112534819 7.42923077,0.112534819 L28.9289744,0.112534819 C32.6435897,0.112534819 35.6828205,3.15097493 35.6828205,6.86462396 L35.6828205,28.3587744 Z"></path>
                        </g>
                        <g opacity="0.2" transform="translate(0.000000, 51.766017)" fill="#222222">
                            <path d="M35.3451282,28.6963788 C35.3451282,32.4100279 32.3058974,35.448468 28.5912821,35.448468 L7.09153846,35.448468 C3.37692308,35.448468 0.337692308,32.4100279 0.337692308,28.6963788 L0.337692308,7.20222841 C0.337692308,3.48857939 3.37692308,0.450139276 7.09153846,0.450139276 L28.5912821,0.450139276 C32.3058974,0.450139276 35.3451282,3.48857939 35.3451282,7.20222841 L35.3451282,28.6963788 Z"></path>
                        </g>
                        <g opacity="0.2" transform="translate(60.784615, 51.766017)" fill="#222222">
                            <path d="M35.0074359,28.6963788 C35.0074359,32.4100279 31.9682051,35.448468 28.2535897,35.448468 L6.75384615,35.448468 C3.03923077,35.448468 0,32.4100279 0,28.6963788 L0,7.20222841 C0,3.48857939 3.03923077,0.450139276 6.75384615,0.450139276 L28.2535897,0.450139276 C31.9682051,0.450139276 35.0074359,3.48857939 35.0074359,7.20222841 L35.0074359,28.6963788 Z"></path>
                        </g>
                        <g transform="translate(120.443590, 51.766017)" fill="#427FE0">
                            <path d="M35.9079487,28.6963788 C35.9079487,32.4100279 32.8687179,35.448468 29.1541026,35.448468 L7.65435897,35.448468 C3.93974359,35.448468 0.900512821,32.4100279 0.900512821,28.6963788 L0.900512821,7.20222841 C0.900512821,3.48857939 3.93974359,0.450139276 7.65435897,0.450139276 L29.1541026,0.450139276 C32.8687179,0.450139276 35.9079487,3.48857939 35.9079487,7.20222841 L35.9079487,28.6963788 Z"></path>
                        </g>
                        <g opacity="0.2" transform="translate(181.228205, 51.766017)" fill="#222222">
                            <path d="M35.5702564,28.6963788 C35.5702564,32.4100279 32.5310256,35.448468 28.8164103,35.448468 L7.31666667,35.448468 C3.60205128,35.448468 0.562820513,32.4100279 0.562820513,28.6963788 L0.562820513,7.20222841 C0.562820513,3.48857939 3.60205128,0.450139276 7.31666667,0.450139276 L28.8164103,0.450139276 C32.5310256,0.450139276 35.5702564,3.48857939 35.5702564,7.20222841 L35.5702564,28.6963788 Z"></path>
                        </g>
                        <g opacity="0.2" transform="translate(242.012821, 51.766017)" fill="#222222">
                            <path d="M35.2325641,28.6963788 C35.2325641,32.4100279 32.1933333,35.448468 28.4787179,35.448468 L6.97897436,35.448468 C3.26435897,35.448468 0.225128205,32.4100279 0.225128205,28.6963788 L0.225128205,7.20222841 C0.225128205,3.48857939 3.26435897,0.450139276 6.97897436,0.450139276 L28.4787179,0.450139276 C32.1933333,0.450139276 35.2325641,3.48857939 35.2325641,7.20222841 L35.2325641,28.6963788 Z"></path>
                        </g>
                        <g opacity="0.3" transform="translate(302.671795, 51.766017)" fill="#222222">
                            <path d="M35.0205128,28.6963788 C35.0205128,32.4100279 31.9812821,35.448468 28.2666667,35.448468 L6.76692308,35.448468 C3.05230769,35.448468 0.0130769231,32.4100279 0.0130769231,28.6963788 L0.0130769231,7.20222841 C0.0130769231,3.48857939 3.05230769,0.450139276 6.76692308,0.450139276 L28.2666667,0.450139276 C31.9812821,0.450139276 35.0205128,3.48857939 35.0205128,7.20222841 L35.0205128,28.6963788 Z"></path>
                        </g>
                        <g opacity="0.7" transform="translate(362.456410, 51.766017)" fill="#E2392B">
                            <path d="M35.6828205,28.6963788 C35.6828205,32.4100279 32.6435897,35.448468 28.9289744,35.448468 L7.42923077,35.448468 C3.71461538,35.448468 0.675384615,32.4100279 0.675384615,28.6963788 L0.675384615,7.20222841 C0.675384615,3.48857939 3.71461538,0.450139276 7.42923077,0.450139276 L28.9289744,0.450139276 C32.6435897,0.450139276 35.6828205,3.48857939 35.6828205,7.20222841 L35.6828205,28.6963788 Z"></path>
                        </g>
                        <g opacity="0.2" transform="translate(0.000000, 103.532033)" fill="#222222">
                            <path d="M35.3451282,28.9214485 C35.3451282,32.6350975 32.3058974,35.6735376 28.5912821,35.6735376 L7.09153846,35.6735376 C3.37692308,35.6735376 0.337692308,32.6350975 0.337692308,28.9214485 L0.337692308,7.42729805 C0.337692308,3.71364903 3.37692308,0.675208914 7.09153846,0.675208914 L28.5912821,0.675208914 C32.3058974,0.675208914 35.3451282,3.71364903 35.3451282,7.42729805 L35.3451282,28.9214485 Z"></path>
                        </g>
                        <g opacity="0.2" transform="translate(60.784615, 103.532033)" fill="#222222">
                            <path d="M35.0074359,28.9214485 C35.0074359,32.6350975 31.9682051,35.6735376 28.2535897,35.6735376 L6.75384615,35.6735376 C3.03923077,35.6735376 0,32.6350975 0,28.9214485 L0,7.42729805 C0,3.71364903 3.03923077,0.675208914 6.75384615,0.675208914 L28.2535897,0.675208914 C31.9682051,0.675208914 35.0074359,3.71364903 35.0074359,7.42729805 L35.0074359,28.9214485 Z"></path>
                        </g>
                        <g opacity="0.2" transform="translate(120.443590, 103.532033)" fill="#222222">
                            <path d="M35.9079487,28.9214485 C35.9079487,32.6350975 32.8687179,35.6735376 29.1541026,35.6735376 L7.65435897,35.6735376 C3.93974359,35.6735376 0.900512821,32.6350975 0.900512821,28.9214485 L0.900512821,7.42729805 C0.900512821,3.71364903 3.93974359,0.675208914 7.65435897,0.675208914 L29.1541026,0.675208914 C32.8687179,0.675208914 35.9079487,3.71364903 35.9079487,7.42729805 L35.9079487,28.9214485 Z"></path>
                        </g>
                        <g opacity="0.2" transform="translate(181.228205, 103.532033)" fill="#222222">
                            <path d="M35.5702564,28.9214485 C35.5702564,32.6350975 32.5310256,35.6735376 28.8164103,35.6735376 L7.31666667,35.6735376 C3.60205128,35.6735376 0.562820513,32.6350975 0.562820513,28.9214485 L0.562820513,7.42729805 C0.562820513,3.71364903 3.60205128,0.675208914 7.31666667,0.675208914 L28.8164103,0.675208914 C32.5310256,0.675208914 35.5702564,3.71364903 35.5702564,7.42729805 L35.5702564,28.9214485 Z"></path>
                        </g>
                        <g opacity="0.2" transform="translate(242.012821, 103.532033)" fill="#222222">
                            <path d="M35.2325641,28.9214485 C35.2325641,32.6350975 32.1933333,35.6735376 28.4787179,35.6735376 L6.97897436,35.6735376 C3.26435897,35.6735376 0.225128205,32.6350975 0.225128205,28.9214485 L0.225128205,7.42729805 C0.225128205,3.71364903 3.26435897,0.675208914 6.97897436,0.675208914 L28.4787179,0.675208914 C32.1933333,0.675208914 35.2325641,3.71364903 35.2325641,7.42729805 L35.2325641,28.9214485 Z"></path>
                        </g>
                        <g opacity="0.3" transform="translate(302.671795, 103.532033)" fill="#222222">
                            <path d="M35.0205128,28.9214485 C35.0205128,32.6350975 31.9812821,35.6735376 28.2666667,35.6735376 L6.76692308,35.6735376 C3.05230769,35.6735376 0.0130769231,32.6350975 0.0130769231,28.9214485 L0.0130769231,7.42729805 C0.0130769231,3.71364903 3.05230769,0.675208914 6.76692308,0.675208914 L28.2666667,0.675208914 C31.9812821,0.675208914 35.0205128,3.71364903 35.0205128,7.42729805 L35.0205128,28.9214485 Z"></path>
                        </g>
                        <g opacity="0.7" transform="translate(362.456410, 103.532033)" fill="#E2392B">
                            <path d="M35.6828205,28.9214485 C35.6828205,32.6350975 32.6435897,35.6735376 28.9289744,35.6735376 L7.42923077,35.6735376 C3.71461538,35.6735376 0.675384615,32.6350975 0.675384615,28.9214485 L0.675384615,7.42729805 C0.675384615,3.71364903 3.71461538,0.675208914 7.42923077,0.675208914 L28.9289744,0.675208914 C32.6435897,0.675208914 35.6828205,3.71364903 35.6828205,7.42729805 L35.6828205,28.9214485 Z"></path>
                        </g>
                        <g transform="translate(0.000000, 155.298050)" fill="#427FE0">
                            <path d="M35.3451282,29.1465181 C35.3451282,32.8601671 32.3058974,35.8986072 28.5912821,35.8986072 L7.09153846,35.8986072 C3.37692308,35.8986072 0.337692308,32.8601671 0.337692308,29.1465181 L0.337692308,7.65236769 C0.337692308,3.93871866 3.37692308,0.900278552 7.09153846,0.900278552 L28.5912821,0.900278552 C32.3058974,0.900278552 35.3451282,3.93871866 35.3451282,7.65236769 L35.3451282,29.1465181 Z"></path>
                        </g>
                        <g opacity="0.2" transform="translate(60.784615, 155.298050)" fill="#222222">
                            <path d="M35.0074359,29.1465181 C35.0074359,32.8601671 31.9682051,35.8986072 28.2535897,35.8986072 L6.75384615,35.8986072 C3.03923077,35.8986072 0,32.8601671 0,29.1465181 L0,7.65236769 C0,3.93871866 3.03923077,0.900278552 6.75384615,0.900278552 L28.2535897,0.900278552 C31.9682051,0.900278552 35.0074359,3.93871866 35.0074359,7.65236769 L35.0074359,29.1465181 Z"></path>
                        </g>
                        <g opacity="0.2" transform="translate(120.443590, 155.298050)" fill="#222222">
                            <path d="M35.9079487,29.1465181 C35.9079487,32.8601671 32.8687179,35.8986072 29.1541026,35.8986072 L7.65435897,35.8986072 C3.93974359,35.8986072 0.900512821,32.8601671 0.900512821,29.1465181 L0.900512821,7.65236769 C0.900512821,3.93871866 3.93974359,0.900278552 7.65435897,0.900278552 L29.1541026,0.900278552 C32.8687179,0.900278552 35.9079487,3.93871866 35.9079487,7.65236769 L35.9079487,29.1465181 Z"></path>
                        </g>
                        <g opacity="0.2" transform="translate(181.228205, 155.298050)" fill="#222222">
                            <path d="M35.5702564,29.1465181 C35.5702564,32.8601671 32.5310256,35.8986072 28.8164103,35.8986072 L7.31666667,35.8986072 C3.60205128,35.8986072 0.562820513,32.8601671 0.562820513,29.1465181 L0.562820513,7.65236769 C0.562820513,3.93871866 3.60205128,0.900278552 7.31666667,0.900278552 L28.8164103,0.900278552 C32.5310256,0.900278552 35.5702564,3.93871866 35.5702564,7.65236769 L35.5702564,29.1465181 Z"></path>
                        </g>
                        <g transform="translate(242.012821, 155.298050)" fill="#427FE0">
                            <path d="M35.2325641,29.1465181 C35.2325641,32.8601671 32.1933333,35.8986072 28.4787179,35.8986072 L6.97897436,35.8986072 C3.26435897,35.8986072 0.225128205,32.8601671 0.225128205,29.1465181 L0.225128205,7.65236769 C0.225128205,3.93871866 3.26435897,0.900278552 6.97897436,0.900278552 L28.4787179,0.900278552 C32.1933333,0.900278552 35.2325641,3.93871866 35.2325641,7.65236769 L35.2325641,29.1465181 Z"></path>
                        </g>
                        <g opacity="0.3" transform="translate(302.671795, 155.298050)" fill="#222222">
                            <path d="M35.0205128,29.1465181 C35.0205128,32.8601671 31.9812821,35.8986072 28.2666667,35.8986072 L6.76692308,35.8986072 C3.05230769,35.8986072 0.0130769231,32.8601671 0.0130769231,29.1465181 L0.0130769231,7.65236769 C0.0130769231,3.93871866 3.05230769,0.900278552 6.76692308,0.900278552 L28.2666667,0.900278552 C31.9812821,0.900278552 35.0205128,3.93871866 35.0205128,7.65236769 L35.0205128,29.1465181 Z"></path>
                        </g>
                        <g opacity="0.7" transform="translate(362.456410, 155.298050)" fill="#E2392B">
                            <path d="M35.6828205,29.1465181 C35.6828205,32.8601671 32.6435897,35.8986072 28.9289744,35.8986072 L7.42923077,35.8986072 C3.71461538,35.8986072 0.675384615,32.8601671 0.675384615,29.1465181 L0.675384615,7.65236769 C0.675384615,3.93871866 3.71461538,0.900278552 7.42923077,0.900278552 L28.9289744,0.900278552 C32.6435897,0.900278552 35.6828205,3.93871866 35.6828205,7.65236769 L35.6828205,29.1465181 Z"></path>
                        </g>
                        <g opacity="0.2" transform="translate(0.000000, 208.189415)" fill="#222222">
                            <path d="M35.3451282,28.2462396 C35.3451282,31.9598886 32.3058974,34.9983287 28.5912821,34.9983287 L7.09153846,34.9983287 C3.37692308,34.9983287 0.337692308,31.9598886 0.337692308,28.2462396 L0.337692308,6.75208914 C0.337692308,3.03844011 3.37692308,0 7.09153846,0 L28.5912821,0 C32.3058974,0 35.3451282,3.03844011 35.3451282,6.75208914 L35.3451282,28.2462396 Z"></path>
                        </g>
                        <g opacity="0.2" transform="translate(60.784615, 208.189415)" fill="#222222">
                            <path d="M35.12,28.2462396 C35.12,31.9598886 32.0807692,34.9983287 28.3661538,34.9983287 L6.75384615,34.9983287 C3.03923077,34.9983287 0,31.9598886 0,28.2462396 L0,6.75208914 C0,3.03844011 3.03923077,0 6.75384615,0 L28.2535897,0 C31.9682051,0 35.0074359,3.03844011 35.0074359,6.75208914 L35.0074359,28.2462396 L35.12,28.2462396 Z"></path>
                        </g>
                        <g opacity="0.2" transform="translate(120.443590, 208.189415)" fill="#222222">
                            <path d="M35.9079487,28.2462396 C35.9079487,31.9598886 32.8687179,34.9983287 29.1541026,34.9983287 L7.65435897,34.9983287 C3.93974359,34.9983287 0.900512821,31.9598886 0.900512821,28.2462396 L0.900512821,6.75208914 C0.900512821,3.03844011 3.93974359,0 7.65435897,0 L29.1541026,0 C32.8687179,0 35.9079487,3.03844011 35.9079487,6.75208914 L35.9079487,28.2462396 Z"></path>
                        </g>
                        <g opacity="0.2" transform="translate(181.228205, 208.189415)" fill="#222222">
                            <path d="M35.5702564,28.2462396 C35.5702564,31.9598886 32.5310256,34.9983287 28.8164103,34.9983287 L7.31666667,34.9983287 C3.60205128,34.9983287 0.562820513,31.9598886 0.562820513,28.2462396 L0.562820513,6.75208914 C0.562820513,3.03844011 3.60205128,0 7.31666667,0 L28.8164103,0 C32.5310256,0 35.5702564,3.03844011 35.5702564,6.75208914 L35.5702564,28.2462396 Z"></path>
                        </g>
                    </g>
                </g>
            </g>
        </g>
    </g>
</svg>