<?xml version="1.0" encoding="UTF-8"?>
<svg width="307px" height="749px" viewBox="0 0 307 749" version="1.1" xmlns="http://www.w3.org/2000/svg" xmlns:xlink="http://www.w3.org/1999/xlink">
    <!-- Generator: Sketch 63.1 (92452) - https://sketch.com -->
    <title>img_competitive</title>
    <desc>Created with Sketch.</desc>
    <defs>
        <polygon id="path-1" points="0.822881947 0.270342136 362 0.270342136 362 285.999751 0.822881947 285.999751"></polygon>
        <polygon id="path-3" points="2.66453526e-13 0.270342136 361.177952 0.270342136 361.177952 285.999751 2.66453526e-13 285.999751"></polygon>
    </defs>
    <g id="Page-1" stroke="none" stroke-width="1" fill="none" fill-rule="evenodd">
        <g id="FAQs---Why-Is-My-Website-Traffic-Going-Down" transform="translate(-877.000000, -4520.000000)">
            <g id="img_competitive" transform="translate(1031.000000, 4894.500000) rotate(-90.000000) translate(-1031.000000, -4894.500000) translate(656.000000, 4741.000000)">
                <g id="Group-3" transform="translate(387.500000, 20.500000)">
                    <mask id="mask-2" fill="white">
                        <use xlink:href="#path-1"></use>
                    </mask>
                    <g id="Clip-2"></g>
                    <path d="M8.90469954,104.750323 C12.0475935,93.1601948 16.4583217,81.9171366 22.5756212,71.5868052 C67.3735382,-4.06272384 151.911382,30.1069622 151.911382,30.1069622 C151.914718,30.0285378 151.933068,29.9250843 151.939741,29.8383169 L151.941409,29.8383169 C151.971437,29.5179448 152.03316,29.1491831 152.128248,28.7353692 C152.335105,27.8426657 152.695437,26.7513983 153.220921,25.5149622 C153.254285,25.4348692 153.289317,25.3531076 153.324349,25.2713459 C153.452801,24.9760029 153.589594,24.6739855 153.738064,24.363625 C153.793114,24.2501599 153.849833,24.1366948 153.904884,24.021561 C153.90822,24.0148866 153.911557,24.0098808 153.913225,24.0032064 C154.060027,23.7061948 154.208497,23.4075145 154.370312,23.0988227 C154.435372,22.9736773 154.508773,22.8451948 154.578838,22.7167122 C154.924156,22.0793052 155.304506,21.4235436 155.723225,20.7494273 C155.781612,20.6559855 155.831658,20.5642122 155.891713,20.4707703 C156.050193,20.2204797 156.225354,19.9651831 156.393842,19.7098866 C156.555658,19.467939 156.714137,19.2293285 156.882626,18.9840436 C157.054451,18.7370901 157.236285,18.488468 157.416451,18.2398459 C157.604958,17.9812122 157.796801,17.7225785 157.995317,17.4622762 C158.178819,17.2186599 158.368994,16.9767122 158.562506,16.7330959 C158.784377,16.4561076 159.014589,16.1774506 159.248137,15.9004622 C159.439981,15.6701948 159.631824,15.4415959 159.832008,15.2113285 C160.118939,14.884282 160.419216,14.5589041 160.722829,14.2318576 C160.889649,14.0533169 161.048128,13.871439 161.223289,13.6912297 C161.68705,13.2073343 162.174165,12.7267762 162.677962,12.2495552 C162.878147,12.0610029 163.090008,11.8741192 163.296865,11.6872355 C163.630506,11.3818808 163.967483,11.0781948 164.317806,10.7795145 C164.5647,10.5692703 164.819935,10.3623634 165.073501,10.1537878 C165.407142,9.88180523 165.749124,9.60982267 166.097778,9.34284593 C166.369695,9.13593895 166.641612,8.93070058 166.920202,8.72713081 C167.285538,8.45848547 167.66422,8.19818314 168.046239,7.93788081 C168.32316,7.74932849 168.596746,7.55743895 168.878672,7.37389244 C169.357446,7.06520058 169.851234,6.76818895 170.350027,6.47284593 C182.004091,-0.421828488 199.73375,-3.42865407 225.128801,7.41894477 C263.32564,23.7328924 282.932027,66.2622878 290.982773,89.0804564 L290.987778,89.0938052 C291.248018,89.8329971 291.49658,90.5538343 291.733465,91.2496424 C291.975354,91.9571308 292.202229,92.6429273 292.419096,93.3020262 C292.677667,94.0912762 292.917888,94.8421483 293.143096,95.5579797 C293.463391,96.5825029 293.741981,97.5035727 293.995547,98.3629041 C294.055603,98.561468 294.108985,98.7466831 294.162368,98.9352355 C294.279142,99.3373692 294.390912,99.7194797 294.492672,100.079898 C294.571077,100.353549 294.64281,100.613852 294.712875,100.862474 C294.764589,101.049358 294.814635,101.229567 294.861345,101.401433 C294.943087,101.700113 295.016488,101.970427 295.081547,102.222387 C295.108239,102.324172 295.136598,102.425956 295.161621,102.521067 C295.215004,102.727974 295.263382,102.916526 295.306755,103.083387 L295.306755,103.085055 C295.463566,103.705776 295.548644,104.067863 295.548644,104.067863 C324.325142,108.534718 338.708386,113.370334 345.915022,117.173084 C345.911686,116.977858 345.920027,116.779294 345.915022,116.585735 C354.78152,120.964154 353.114985,124.104468 353.114985,124.104468 C353.288478,124.152858 353.445289,124.222939 353.613778,124.279672 L353.613778,124.284677 C367.763474,129.101939 359.727741,161.608026 359.727741,161.608026 C359.727741,161.608026 353.81563,198.882985 344.00493,236.049485 C334.854838,270.716416 324.762211,264.085381 324.762211,264.085381 C324.608736,264.419102 324.396875,264.721119 324.163326,265.009788 C324.15999,265.019799 324.158322,265.03148 324.154985,265.041491 C324.144976,265.051503 324.133299,265.059846 324.123289,265.071526 C324.056561,265.151619 323.971483,265.223369 323.898082,265.300125 C323.672875,265.543741 323.419308,265.77234 323.137382,265.982584 C323.114027,265.99927 323.089004,266.014288 323.063981,266.032642 C321.090497,267.462637 317.872534,268.106718 313.902211,268.191817 C313.920561,268.156776 313.937243,268.120067 313.953925,268.085026 C296.265971,268.462131 263.560856,258.236922 259.979225,257.098933 L259.979225,257.10227 C259.767363,257.033858 259.622229,256.983799 259.622229,256.983799 C257.752174,258.081741 255.902137,259.136299 254.068782,260.162491 C253.970359,260.215887 253.870266,260.275956 253.771842,260.33102 C253.311418,260.589654 252.850994,260.824927 252.392239,261.078555 C251.226165,261.719299 250.055087,262.368387 248.90069,262.984102 C248.904027,262.97409 248.907363,262.965747 248.9107,262.957404 C192.32693,292.76202 138.572432,290.202381 90.9402387,274.722735 C64.796165,266.227869 35.5692525,251.787765 24.0336304,237.509515 C24.0186166,237.496166 24.0036028,237.484485 23.9869207,237.471137 C-2.87948479,215.352113 -4.17734654,152.99302 8.90469954,104.750323" id="Fill-1" fill="#EADCD6" mask="url(#mask-2)"></path>
                </g>
                <path d="M385.64467,86.910211 C424.294177,6.86458798 512.63448,33.9233156 512.63448,33.9233156 C512.321488,26.6468935 528.770212,-13.5718153 584.597648,4.72797945 C627.209499,18.6931317 651.098441,64.4583899 660.023705,85.3430327 C662.790687,91.8209243 664.122567,95.9098651 664.122567,95.9098651 C724.946219,100.038649 723.993925,111.083604 723.993925,111.083604 C724.852988,191.887914 634.320076,247.994225 634.320076,247.994225 C632.430471,249.327322 633.464343,247.995885 631.60637,249.247635 C575.504234,287.110596 539.193842,290.253254 456.617252,272.795153 C429.33368,267.027804 416.828987,264.295203 401.507367,253.784816 C372.452394,233.849777 365.714743,171.185887 374.724915,121.482762 C376.889221,109.542988 380.365429,97.8422756 385.64467,86.910211" id="Fill-4" fill="#3091E2"></path>
                <path d="M520.713854,260.855161 C605.474842,237.986088 661.671346,129.803347 635.947629,43.5 C648.06635,59.1069905 656.109912,75.4475078 660.512019,85.7484874 C660.842302,86.5219341 661.149231,87.2571244 661.43948,87.9607114 C659.010732,107.928943 655.2792,126.095793 660.857315,145.007813 C664.497101,161.341677 691.798837,164.365604 704.53809,158.921537 C722.631933,149.899655 722.171538,128.539219 718.313231,105.884715 C724.807131,108.990145 724.606959,111.536698 724.606959,111.536698 C740.005158,114.480786 734.568831,148.788553 734.568831,148.788553 C734.568831,148.788553 731.838157,186.900348 725.154095,225.241682 C718.91875,261.003197 708.13117,255.193199 708.13117,255.193199 C703.53056,267.927624 641.604145,253.696205 641.604145,253.696205 C639.710855,255.033519 637.837583,256.325924 635.977655,257.581735 C579.76447,295.517217 523.444528,298.05878 472.482511,286.26247 C445.262512,279.96179 414.392718,267.919308 401.5,254.504581 C409.635307,258.672877 443.36255,281.726579 520.713854,260.855161" id="Fill-6" fill="#2B79CC"></path>
                <path d="M563,41 C546.309434,35.9237742 529.795611,33.8586733 513,30.8887515 C514.627372,25.2290894 519.599526,15.7754429 529.550505,9 C526.4625,25.1911825 546.241071,33.3559951 563,41" id="Fill-8" fill="#2B79CC"></path>
                <path d="M642.369637,253.10025 C642.156163,253.050324 642.008996,253.013712 642.008996,253.013712 C638.619295,255.486705 635.287815,257.806592 632,260 C633.180573,256.029232 634.336888,252.050143 635.373528,248.024456 C643.076363,218.113889 647.622378,187.243081 651.10426,156.542021 C652.855713,141.106617 654.322535,125.644586 655.318745,110.135957 C655.763481,103.196266 656.151615,96.2549112 656.319806,89.3019066 C656.421691,85.0349119 656.825997,80.3668464 656.361854,76 C660.66852,85.1530697 663.168747,92.1476792 664,94.5973735 C662.91646,110.272421 661.405974,125.91585 659.717592,141.532651 C656.38126,172.390145 652.286451,203.269274 646.42725,233.735683 C645.180371,240.211063 643.829989,246.671466 642.369637,253.10025" id="Fill-10" fill="#1562B7"></path>
                <path d="M698.476212,255.124551 C702.430327,242.765212 704.854525,229.818851 706.977812,217.041887 C709.341152,202.830912 711.292006,188.541108 712.777969,174.216082 C714.243645,160.092321 715.465888,145.935016 716.010234,131.745844 C716.255358,125.382521 716.444696,119.010811 716.282407,112.640779 C716.209714,109.786172 716.279026,106.564257 715.925708,103.5 C725.402735,107.174761 723.972559,110.515757 723.972559,110.515757 C724.155135,110.549301 724.320805,110.606326 724.5,110.649934 C724.286995,125.268471 722.961631,139.87359 721.626124,154.425038 C718.999064,183.071735 715.655226,211.872735 710.282769,240.152124 C709.251555,245.589629 708.1206,251.030489 706.734378,256.395874 C705.158818,258.727192 701.414327,259.975034 696.5,260.5 C697.233684,258.762413 697.881151,256.98122 698.476212,255.124551" id="Fill-12" fill="#1562B7"></path>
                <path d="M454.392755,48.7952931 C450.551619,46.7936851 434.46582,47.0184913 412.946463,68.5882319 C398.418106,83.1490142 393.196093,105.627971 389.834683,125.197769 C385.990215,147.59846 382.177396,172.889992 393.662493,193.813623 C397.042227,199.973314 402.687331,205.711701 409.709981,205.989794 C416.809253,206.271218 423.080666,200.692694 425.884062,194.166652 C431.820666,180.343568 428.322667,160.482354 430.106647,145.495273 C434.585751,107.877698 442.424601,76.7845002 452.650418,60.516856 C456.976277,53.6344551 456.603157,49.9476331 454.392755,48.7952931" id="Fill-14" fill="#43B6EF"></path>
                <path d="M578.062078,51.2773242 C581.958736,55.53944 585.507118,61.4246629 584.940117,67.4383331 C584.687743,70.1340587 582.505547,72.3009818 579.670543,71.9656842 C577.528727,71.7121259 576.265173,70.069001 575.280914,68.3391325 C572.183441,62.8909641 569.442656,58.0366562 564.403584,54.0481165 C561.654388,51.8728527 558.701609,49.9778377 555.632738,48.2796639 C558.437457,54.0097491 559.98367,61.6348494 557.215966,67.3048813 C555.632738,70.5477592 551.229649,71.441886 548.561212,68.9196477 C546.040835,66.5358655 547.110902,63.558223 547.67622,60.665656 C548.40474,56.9506924 548.118716,53.1106179 546.865257,49.5374468 C543.929304,41.1700211 535.580764,39.6353258 527.824463,37.5117746 C522.931767,36.1705844 517.981867,35.0445851 513,34.0753916 C513.008412,32.7675643 513.477829,30.6156546 514.500785,28 C515.015629,28.056717 515.532155,28.1117659 516.030173,28.1568058 C523.6687,28.8357417 531.28872,30.1202149 538.752267,31.8650968 C552.870082,35.1613554 568.054598,40.3276069 578.062078,51.2773242" id="Fill-16" fill="#1562B7"></path>
                <path d="M587.352246,17.362174 C588.616439,18.9582476 589.555602,20.8557323 589.497439,22.825056 C589.401641,25.9344322 586.739822,28.6455709 583.554535,29.7559508 C580.372669,30.8647691 576.792214,30.6086477 573.500865,29.8074874 C567.118316,28.2520185 551.788907,19.7031861 561.810074,13.1877076 C569.538929,8.16054441 581.949916,10.5437228 587.352246,17.362174" id="Fill-18" fill="#43B6EF"></path>
                <path d="M505.866723,45.5782216 C507.379599,46.9483885 508.632213,48.6649808 508.932773,50.6052737 C509.406281,53.6687307 507.322509,56.7352947 504.444519,58.312074 C501.566529,59.8888533 498.058873,60.187121 494.727524,59.9059416 C488.271356,59.3606711 471.886626,53.3316262 480.398022,45.4057856 C486.961653,39.2912995 499.40048,39.7216127 505.866723,45.5782216" id="Fill-20" fill="#43B6EF"></path>
                <path d="M709.18878,158.946042 C710.341883,146.213056 711.157292,133.276037 711.494986,121.908247 C711.587235,118.793012 710.448957,116.92188 704.535186,115.102171 C698.621415,113.284121 677.728835,110.893783 673.007702,111.640245 C668.288216,112.388366 666.392185,113.591 666.047902,116.936809 C664.82726,128.740864 663.301869,143.43124 661.562331,158.675657 C659.547695,176.338611 707.024241,182.847761 709.18878,158.946042" id="Fill-22" fill="#FFF9F3"></path>
                <path d="M660.603527,157.147444 C662.81765,163.020223 707.963119,168.96821 709.5,156.5 C707.287566,180.607495 703.779761,204.239217 700.018624,215.038132 C699.020496,217.900948 695.985577,219.511384 693.009769,219.5 C690.033962,219.488495 663.73809,217.132516 659.205134,215.481206 C654.668801,213.831531 653.057609,211.957866 653.601428,208.643801 C656.134749,193.160723 658.519449,174.759241 660.603527,157.147444" id="Fill-24" fill="#E0E0DF"></path>
                <g id="Group-28" transform="translate(0.500000, 20.500000)">
                    <mask id="mask-4" fill="white">
                        <use xlink:href="#path-3"></use>
                    </mask>
                    <g id="Clip-27"></g>
                    <path d="M353.096135,104.750323 C349.953241,93.1601948 345.542512,81.9171366 339.423545,71.5868052 C294.627296,-4.06272384 210.089453,30.1069622 210.089453,30.1069622 C210.086116,30.0285378 210.067766,29.9250843 210.059425,29.8383169 L210.059425,29.8383169 C210.029397,29.5179448 209.967674,29.1491831 209.872586,28.7353692 L209.870918,28.7353692 C209.665729,27.8426657 209.303729,26.7513983 208.779913,25.5149622 C208.744881,25.4348692 208.711517,25.3531076 208.674817,25.2713459 C208.546365,24.9760029 208.409572,24.6739855 208.261102,24.363625 C208.20772,24.2501599 208.151001,24.1366948 208.094282,24.021561 C208.092614,24.0148866 208.089277,24.0098808 208.085941,24.0032064 C207.940807,23.7061948 207.792337,23.4075145 207.628853,23.0988227 C207.563794,22.9736773 207.490393,22.8451948 207.421996,22.7167122 C207.07501,22.0793052 206.696328,21.4235436 206.277609,20.7494273 C206.219222,20.6559855 206.167508,20.5642122 206.107453,20.4707703 C205.948973,20.2204797 205.773812,19.9651831 205.605324,19.7098866 C205.445176,19.467939 205.286697,19.2293285 205.11654,18.9840436 C204.944715,18.7370901 204.764549,18.488468 204.582715,18.2398459 C204.395876,17.9812122 204.204033,17.7225785 204.005517,17.4622762 C203.820347,17.2186599 203.63184,16.9767122 203.43666,16.7330959 C203.214789,16.4561076 202.986245,16.1774506 202.751029,15.9004622 C202.559185,15.6701948 202.36901,15.4415959 202.167158,15.2113285 C201.881895,14.884282 201.57995,14.5589041 201.278006,14.2318576 C201.109517,14.0533169 200.951038,13.871439 200.777545,13.6912297 C200.312116,13.2073343 199.826669,12.7267762 199.322872,12.2495552 C199.122688,12.0610029 198.909158,11.8741192 198.703969,11.6872355 C198.36866,11.3818808 198.031683,11.0781948 197.68136,10.7795145 C197.434466,10.5692703 197.1809,10.3623634 196.925665,10.1537878 C196.592024,9.88180523 196.250042,9.60982267 195.901388,9.34284593 C195.631139,9.13593895 195.359222,8.93070058 195.080632,8.72713081 C194.713628,8.45848547 194.334946,8.19818314 193.952927,7.93788081 C193.677674,7.74932849 193.404088,7.55743895 193.120494,7.37389244 C192.643388,7.06520058 192.1496,6.76818895 191.649139,6.47284593 C179.996743,-0.421828488 162.267084,-3.42865407 136.870365,7.41894477 C98.6735263,23.7328924 79.0688074,66.2622878 71.0180608,89.0804564 C71.0163926,89.0854622 71.0147244,89.0887994 71.0130562,89.0938052 C70.7528166,89.8329971 70.5025862,90.5538343 70.2657014,91.2496424 C70.0254802,91.9571308 69.7969364,92.6429273 69.58007,93.3020262 C69.3214986,94.0912762 69.0829456,94.8421483 68.8577382,95.5579797 C68.5357751,96.5825029 68.2571853,97.5035727 68.0036184,98.3629041 C67.9452313,98.561468 67.8918488,98.7466831 67.8367982,98.9352355 C67.720024,99.3373692 67.6082544,99.7194797 67.506494,100.079898 C67.4297567,100.353549 67.3563558,100.613852 67.2862912,100.862474 C67.2362452,101.049358 67.1861991,101.229567 67.1378212,101.401433 C67.0577475,101.700113 66.9843465,101.970427 66.9176184,102.222387 C66.8909272,102.324172 66.8642359,102.425956 66.8392129,102.521067 C66.7858304,102.727974 66.7357843,102.916526 66.6940793,103.083387 L66.6940793,103.085055 C66.5356,103.705776 66.4505217,104.067863 66.4505217,104.067863 C37.674024,108.534718 23.2907797,113.370334 16.085812,117.173084 C16.0891484,116.977858 16.0791392,116.779294 16.0841438,116.585735 C7.21931429,120.964154 8.88584885,124.104468 8.88584885,124.104468 C8.71068756,124.152858 8.5555447,124.222939 8.38705622,124.279672 L8.38705622,124.284677 C-5.76430783,129.101939 2.27309309,161.608026 2.27309309,161.608026 C2.27309309,161.608026 8.18520369,198.882985 17.9959041,236.049485 C27.1443281,270.716416 37.2369548,264.085381 37.2369548,264.085381 C37.3904295,264.419102 37.6022912,264.721119 37.8358396,265.009788 C37.839176,265.019799 37.8425124,265.03148 37.8458488,265.041491 C37.8541899,265.051503 37.8675355,265.059846 37.8758765,265.071526 C37.9442728,265.151619 38.0276829,265.223369 38.1010839,265.300125 C38.3279594,265.543741 38.5815263,265.77234 38.8617843,265.982584 C38.8868074,265.99927 38.9118304,266.014288 38.9351853,266.032642 C40.9103373,267.462637 44.1283005,268.106718 48.0969548,268.191817 C48.0786046,268.156776 48.0635908,268.120067 48.0452406,268.085026 C65.7348627,268.462131 98.4383097,258.236922 102.021609,257.098933 L102.021609,257.10227 C102.231803,257.033858 102.378605,256.983799 102.378605,256.983799 C104.24866,258.081741 106.098697,259.136299 107.932052,260.162491 C108.028807,260.215887 108.130568,260.275956 108.227324,260.33102 C108.689416,260.589654 109.148171,260.824927 109.608595,261.078555 C110.774669,261.719299 111.944079,262.368387 113.098476,262.984102 C113.095139,262.97409 113.091803,262.965747 113.088466,262.957404 C169.672236,292.76202 223.426734,290.202381 271.060595,274.722735 C297.203001,266.227869 326.429913,251.787765 337.965535,237.509515 C337.980549,237.496166 337.997231,237.484485 338.013913,237.471137 C364.880319,215.352113 366.178181,152.99302 353.096135,104.750323" id="Fill-26" fill="#EADCD6" mask="url(#mask-4)"></path>
                </g>
                <path d="M237.363864,33.9233156 C237.678521,26.6468935 221.231463,-13.5718153 165.402366,4.72797945 C122.790518,18.6931317 98.9015778,64.4583899 89.9763143,85.3430327 C87.2093328,91.8209243 85.8791172,95.9098651 85.8791172,95.9098651 C25.0538042,100.038649 26.0060986,111.083604 26.0060986,111.083604 C25.1453709,191.887914 115.679941,247.994225 115.679941,247.994225 C117.567882,249.327322 116.535674,247.995885 118.393647,249.247635 C174.49578,287.110596 210.806169,290.253254 293.382754,272.795153 C320.664659,267.027804 333.171016,264.295203 348.492635,253.784816 C377.547606,233.849777 384.285256,171.185887 375.275085,121.482762 C373.11078,109.542988 369.634572,97.8422756 364.355331,86.910211 C325.705826,6.86458798 237.363864,33.9233156 237.363864,33.9233156 Z" id="Fill-29" fill="#E43D2F"></path>
                <path d="M229.287219,260.855161 C144.525807,237.986088 88.3306912,129.803347 114.0512,43.5 C101.934086,59.1069905 93.8904847,75.4475078 89.488356,85.7484874 C89.1580712,86.5219341 88.8511399,87.2571244 88.5608897,87.9607114 C90.9896503,107.928943 94.7212009,126.095793 89.1430583,145.007813 C85.5032535,161.341677 58.2013815,164.365604 45.4620647,158.921537 C27.3681315,149.899655 27.8285284,128.539219 31.6868549,105.884715 C25.1929227,108.990145 25.3930953,111.536698 25.3930953,111.536698 C9.99481947,114.480786 15.4311732,148.788553 15.4311732,148.788553 C15.4311732,148.788553 18.1618608,186.900348 24.8459569,225.241682 C31.0813328,261.003197 41.8689669,255.193199 41.8689669,255.193199 C46.4696001,267.927624 108.397993,253.696205 108.397993,253.696205 C110.289623,255.033519 112.164573,256.325924 114.022842,257.581735 C170.236307,295.517217 226.556531,298.05878 277.518803,286.26247 C304.738937,279.96179 335.608886,267.919308 348.5,254.504581 C340.366321,258.672877 306.638909,281.726579 229.287219,260.855161" id="Fill-31" fill="#CE2B23"></path>
                <path d="M185,41 C201.690566,35.9237742 218.204389,33.8586733 235,30.8887515 C233.372628,25.2290894 228.400474,15.7754429 218.449495,9 C221.5375,25.1911825 201.757261,33.3559951 185,41" id="Fill-33" fill="#CE2B23"></path>
                <path d="M107.631457,253.10025 C107.843324,253.050324 107.992116,253.013712 107.992116,253.013712 C111.381987,255.486705 114.712019,257.806592 118,260 C116.819367,256.029232 115.662994,252.050143 114.627919,248.024456 C106.924694,218.113889 102.376832,187.243081 98.8947741,156.542021 C97.1432326,141.106617 95.6779541,125.644586 94.6816941,110.135957 C94.2353179,103.196266 93.8471647,96.2549112 93.6805822,89.3019066 C93.5770747,85.0349119 93.1727484,80.3668464 93.636915,76 C89.3300313,85.1530697 86.8296775,92.1476792 86,94.5973735 C87.0819772,110.272421 88.5941575,125.91585 90.2826241,141.532651 C93.6175073,172.390145 97.7141413,203.269274 103.573638,233.735683 C104.818963,240.211063 106.169413,246.671466 107.631457,253.10025" id="Fill-35" fill="#B81918"></path>
                <path d="M51.5253593,255.124551 C47.5710059,242.765212 45.146661,229.818851 43.0215554,217.041887 C40.6597633,202.830912 38.7071006,188.541108 37.2227388,174.216082 C35.7569738,160.092321 34.5346577,145.935016 33.990279,131.745844 C33.7451395,125.382521 33.5557904,119.010811 33.7180896,112.640779 C33.7907861,109.786172 33.7197802,106.564257 34.0748098,103.5 C24.5972105,107.174761 26.0274725,110.515757 26.0274725,110.515757 C25.8448859,110.549301 25.6775148,110.606326 25.5,110.649934 C25.7130178,125.268471 27.0384615,139.87359 28.374049,154.425038 C31.0029586,183.071735 34.3453085,211.872735 39.716399,240.152124 C40.749366,245.589629 41.8803888,251.030489 43.2666948,256.395874 C44.8406593,258.727192 48.5870668,259.975034 53.5,260.5 C52.7679628,258.762413 52.1204565,256.98122 51.5253593,255.124551" id="Fill-37" fill="#B81918"></path>
                <path d="M293.607932,48.7952931 C297.447411,46.7936851 313.533244,47.0184913 335.054313,68.5882319 C349.5827,83.1490142 354.804724,105.627971 358.164476,125.197769 C362.010618,147.59846 365.821779,172.889992 354.338323,193.813623 C350.958583,199.973314 345.313466,205.711701 338.290802,205.989794 C331.191514,206.271218 324.920088,200.692694 322.116686,194.166652 C316.180069,180.343568 319.678075,160.482354 317.894092,145.495273 C313.413312,107.877698 305.576112,76.7845002 295.350273,60.516856 C291.024405,53.6344551 291.39586,49.9476331 293.607932,48.7952931" id="Fill-39" fill="#F56B5F"></path>
                <path d="M171.936424,51.2773242 C168.039676,55.53944 164.492895,61.4246629 165.059909,67.4383331 C165.312289,70.1340587 167.494535,72.3009818 170.327922,71.9656842 C172.47147,71.7121259 173.735052,70.069001 174.719334,68.3391325 C177.816879,62.8909641 180.557726,58.0366562 185.596915,54.0481165 C188.346174,51.8728527 191.299021,49.9778377 194.367962,48.2796639 C191.563179,54.0097491 190.01693,61.6348494 192.784698,67.3048813 C194.36628,70.5477592 198.771153,71.441886 201.437969,68.9196477 C203.960087,66.5358655 202.889995,63.558223 202.322982,60.665656 C201.594444,56.9506924 201.880475,53.1106179 203.133963,49.5374468 C206.069984,41.1700211 214.420398,39.6353258 222.175196,37.5117746 C227.069686,36.1705844 232.0197,35.0445851 237,34.0753916 C236.991587,32.7675643 236.52216,30.6156546 235.500863,28 C234.984325,28.056717 234.469469,28.1117659 233.969757,28.1568058 C226.331054,28.8357417 218.710859,30.1202149 211.24714,31.8650968 C197.129,35.1613554 181.945816,40.3276069 171.936424,51.2773242" id="Fill-41" fill="#B81918"></path>
                <path d="M160.646235,17.362174 C159.382017,18.9582476 158.442835,20.8557323 158.50271,22.825056 C158.596799,25.9344322 161.260382,28.6455709 164.444022,29.7559508 C167.627662,30.8647691 171.206477,30.6086477 174.499602,29.8074874 C180.882279,28.2520185 196.211992,19.7031861 186.188915,13.1877076 C178.459907,8.16054441 166.048672,10.5437228 160.646235,17.362174" id="Fill-43" fill="#F56B5F"></path>
                <path d="M244.134785,45.5782216 C242.621991,46.9483885 241.367766,48.6649808 241.067222,50.6052737 C240.593739,53.6687307 242.677399,56.7352947 245.556912,58.312074 C248.434746,59.8888533 251.942212,60.187121 255.273381,59.9059416 C261.729199,59.3606711 278.113043,53.3316262 269.602108,45.4057856 C263.038832,39.2912995 250.600678,39.7216127 244.134785,45.5782216" id="Fill-45" fill="#F56B5F"></path>
                <path d="M40.8758042,158.461179 C39.690422,145.831951 38.8482203,132.968939 38.5050398,121.687219 C38.4121986,118.63828 39.5594497,116.805346 45.509571,115.025987 C51.4613502,113.246628 72.488207,110.905537 77.2396831,111.637737 C81.9895014,112.368313 83.897718,113.545352 84.2458723,116.821581 C85.3964391,127.648721 86.8172398,140.959819 88.4320122,154.869991 C90.5375163,173.001269 43.0559127,181.66915 40.8758042,158.461179" id="Fill-47" fill="#FFF9F3"></path>
                <path d="M88.832989,157 C86.6189115,162.922195 41.5368501,170.043009 40,157.469885 C42.2140774,181.780233 45.7201222,205.610804 49.4811828,216.498939 C50.4792909,219.385844 53.5141476,221.01148 56.4915835,221 C59.4673306,220.988398 85.7609776,218.612595 90.2955298,216.94739 C94.8300819,215.283833 96.4412413,213.394402 95.8991216,210.050802 C93.3658523,194.43909 90.9170252,174.759991 88.832989,157" id="Fill-49" fill="#E8E3DE"></path>
            </g>
        </g>
    </g>
</svg>