<?xml version="1.0" encoding="UTF-8"?>
<svg width="334px" height="236px" viewBox="0 0 334 236" version="1.1" xmlns="http://www.w3.org/2000/svg" xmlns:xlink="http://www.w3.org/1999/xlink">
    <!-- Generator: Sketch 63.1 (92452) - https://sketch.com -->
    <title>img_good_traffic_mob</title>
    <desc>Created with Sketch.</desc>
    <defs>
        <filter x="-9.4%" y="-13.7%" width="118.8%" height="127.3%" filterUnits="objectBoundingBox" id="filter-1">
            <feOffset dx="0" dy="5" in="SourceAlpha" result="shadowOffsetOuter1"></feOffset>
            <feGaussianBlur stdDeviation="5" in="shadowOffsetOuter1" result="shadowBlurOuter1"></feGaussianBlur>
            <feColorMatrix values="0 0 0 0 0   0 0 0 0 0   0 0 0 0 0  0 0 0 0.25 0" type="matrix" in="shadowBlurOuter1" result="shadowMatrixOuter1"></feColorMatrix>
            <feMerge>
                <feMergeNode in="shadowMatrixOuter1"></feMergeNode>
                <feMergeNode in="SourceGraphic"></feMergeNode>
            </feMerge>
        </filter>
    </defs>
    <g id="Page-1" stroke="none" stroke-width="1" fill="none" fill-rule="evenodd">
        <g id="FAQs---What-is-a-Backlink---Mobile" transform="translate(-21.000000, -8348.000000)">
            <g id="img_good_traffic_mob" transform="translate(31.000000, 8353.000000)">
                <g id="img_analyse_website">
                    <g id="img_blogs" filter="url(#filter-1)">
                        <rect id="Rectangle" fill="#FFFFFF" x="0" y="0" width="313.444248" height="216" rx="13"></rect>
                        <g id="img_good_traffic" transform="translate(26.952790, 69.981308)">
                            <g id="img_insufficient_website_traffic">
                                <g id="Group-4" transform="translate(0.000000, 88.056520)">
                                    <path d="M19.5407725,40.2544092 C8.76566488,40.2544092 0,31.224842 0,20.1272046 C0,9.02956715 8.76566488,0 19.5407725,0 C30.315066,0 39.0815451,9.02956715 39.0815451,20.1272046 C39.0815451,31.224842 30.315066,40.2544092 19.5407725,40.2544092" id="Fill-8" fill="#B9FD98"></path>
                                    <path d="M17.3463542,15.5147202 L16.5568281,15.5147202 C16.5568281,13.7163172 15.317272,12.2533676 13.7934865,12.2533676 C12.269701,12.2533676 11.0301449,13.7163172 11.0301449,15.5147202 L10.2406188,15.5147202 C10.2406188,13.2028871 11.8346721,11.3215526 13.7934865,11.3215526 C15.7523009,11.3215526 17.3463542,13.2028871 17.3463542,15.5147202" id="Fill-10" fill="#6D6D6D"></path>
                                    <path d="M28.8409263,15.5147202 L28.0514001,15.5147202 C28.0514001,13.7163172 26.8118441,12.2533676 25.2880586,12.2533676 C23.7642731,12.2533676 22.524717,13.7163172 22.524717,15.5147202 L21.7351908,15.5147202 C21.7351908,13.2028871 23.3292442,11.3215526 25.2880586,11.3215526 C27.246873,11.3215526 28.8409263,13.2028871 28.8409263,15.5147202" id="Fill-12" fill="#6D6D6D"></path>
                                    <path d="M19.6448581,31.4487572 C24.2620828,31.4487572 28.0049574,27.6937677 28.0049574,23.0624219 L11.2855799,23.0624219 C11.2855799,27.6937677 15.0276335,31.4487572 19.6448581,31.4487572" id="Fill-14" fill="#6D6D6D"></path>
                                </g>
                                <g id="Group-4" opacity="0.302780878" transform="translate(0.000000, 43.399285)">
                                    <path d="M19.5407725,40.2544092 C8.76566488,40.2544092 0,31.224842 0,20.1272046 C0,9.02956715 8.76566488,0 19.5407725,0 C30.315066,0 39.0815451,9.02956715 39.0815451,20.1272046 C39.0815451,31.224842 30.315066,40.2544092 19.5407725,40.2544092" id="Fill-8" fill="#FFEE31"></path>
                                    <path d="M17.3463542,15.5147202 L16.5568281,15.5147202 C16.5568281,13.7163172 15.317272,12.2533676 13.7934865,12.2533676 C12.269701,12.2533676 11.0301449,13.7163172 11.0301449,15.5147202 L10.2406188,15.5147202 C10.2406188,13.2028871 11.8346721,11.3215526 13.7934865,11.3215526 C15.7523009,11.3215526 17.3463542,13.2028871 17.3463542,15.5147202" id="Fill-10" fill="#6D6D6D"></path>
                                    <path d="M28.8409263,15.5147202 L28.0514001,15.5147202 C28.0514001,13.7163172 26.8118441,12.2533676 25.2880586,12.2533676 C23.7642731,12.2533676 22.524717,13.7163172 22.524717,15.5147202 L21.7351908,15.5147202 C21.7351908,13.2028871 23.3292442,11.3215526 25.2880586,11.3215526 C27.246873,11.3215526 28.8409263,13.2028871 28.8409263,15.5147202" id="Fill-12" fill="#6D6D6D"></path>
                                </g>
                                <g id="Group-4" opacity="0.3">
                                    <path d="M0,20.1272046 C0,9.02956715 8.76566488,0 19.5407725,0 C30.315066,0 39.0815451,9.02956715 39.0815451,20.1272046 C39.0815451,31.224842 30.315066,40.2544092 19.5407725,40.2544092 C8.76566488,40.2544092 0,31.224842 0,20.1272046 Z" id="Fill-8" fill="#FF5254"></path>
                                    <path d="M17.3463542,16.9823289 L16.5568281,16.9823289 C16.5568281,15.7234468 15.317272,14.699382 13.7934865,14.699382 C12.269701,14.699382 11.0301449,15.7234468 11.0301449,16.9823289 L10.2406188,16.9823289 C10.2406188,15.3640457 11.8346721,14.0471115 13.7934865,14.0471115 C15.7523009,14.0471115 17.3463542,15.3640457 17.3463542,16.9823289" id="Fill-10" fill="#6D6D6D" transform="translate(13.793486, 15.514720) scale(1, -1) translate(-13.793486, -15.514720) "></path>
                                    <path d="M28.8409263,16.9823289 L28.0514001,16.9823289 C28.0514001,15.7234468 26.8118441,14.699382 25.2880586,14.699382 C23.7642731,14.699382 22.524717,15.7234468 22.524717,16.9823289 L21.7351908,16.9823289 C21.7351908,15.3640457 23.3292442,14.0471115 25.2880586,14.0471115 C27.246873,14.0471115 28.8409263,15.3640457 28.8409263,16.9823289" id="Fill-12" fill="#6D6D6D" transform="translate(25.288059, 15.514720) scale(1, -1) translate(-25.288059, -15.514720) "></path>
                                    <path d="M19.6448581,31.4487572 C24.2620828,31.4487572 28.0049574,27.6937677 28.0049574,23.0624219 L11.2855799,23.0624219 C11.2855799,27.6937677 15.0276335,31.4487572 19.6448581,31.4487572" id="Fill-14" fill="#6D6D6D" transform="translate(19.645269, 27.255590) rotate(-180.000000) translate(-19.645269, -27.255590) "></path>
                                </g>
                                <rect id="Rectangle" fill="#6D6D6D" opacity="0.302780878" x="8.77767322" y="68.9776073" width="21.7351908" height="2.30624219" rx="1.1531211"></rect>
                            </g>
                        </g>
                        <path d="M13,0 L301,0 C308.179702,-3.09524665e-15 314,5.82029825 314,13 L314,36.6478149 L314,36.6478149 L0,36.6478149 L0,13 C-8.79259876e-16,5.82029825 5.82029825,1.31888981e-15 13,0 Z" id="Rectangle-2" fill="#FF5254"></path>
                        <polygon id="Fill-5" fill="#E9ECED" points="0 56.0822622 313.444248 56.0822622 313.444248 36.6478149 0 36.6478149"></polygon>
                        <path d="M55.5752212,19.9904833 C55.5752212,22.7500634 53.336195,24.9871465 50.5742181,24.9871465 C47.8122412,24.9871465 45.5716814,22.7500634 45.5716814,19.9904833 C45.5716814,17.2309033 47.8122412,14.9922879 50.5742181,14.9922879 C53.336195,14.9922879 55.5752212,17.2309033 55.5752212,19.9904833" id="Fill-6" fill="#FFFFFF"></path>
                        <path d="M41.1256637,19.9904833 C41.1256637,22.7500634 38.8851039,24.9871465 36.123127,24.9871465 C33.3611501,24.9871465 31.1221239,22.7500634 31.1221239,19.9904833 C31.1221239,17.2309033 33.3611501,14.9922879 36.123127,14.9922879 C38.8851039,14.9922879 41.1256637,17.2309033 41.1256637,19.9904833" id="Fill-7" fill="#FFFFFF"></path>
                        <path d="M27.2318584,19.9904833 C27.2318584,22.7500634 24.9928322,24.9871465 22.2293217,24.9871465 C19.4673448,24.9871465 17.2283186,22.7500634 17.2283186,19.9904833 C17.2283186,17.2309033 19.4673448,14.9922879 22.2293217,14.9922879 C24.9928322,14.9922879 27.2318584,17.2309033 27.2318584,19.9904833" id="Fill-8" fill="#FFFFFF"></path>
                        <path d="M68.0787611,16.1028278 L264.816814,16.1028278 C266.197526,16.1028278 267.316814,17.2221159 267.316814,18.6028278 L267.316814,19.155527 C267.316814,20.5362389 266.197526,21.655527 264.816814,21.655527 L68.0787611,21.655527 C66.6980492,21.655527 65.5787611,20.5362389 65.5787611,19.155527 L65.5787611,18.6028278 C65.5787611,17.2221159 66.6980492,16.1028278 68.0787611,16.1028278 Z" id="Rectangle-3" fill="#FFFFFF"></path>
                        <polygon id="Fill-10" fill="#FFFFFF" points="286.488652 12.7712082 287.603858 16.1646796 291.214159 16.1646796 288.292995 18.2620556 289.409816 21.655527 286.488652 19.558151 283.569101 21.655527 284.684308 18.2620556 281.766372 16.1646796 285.375059 16.1646796"></polygon>
                        <g id="Group-7" transform="translate(82.879828, 81.642635)" fill="#DADFE1">
                            <polygon id="Fill-16" points="0 39.4788602 113.875536 39.4788602 113.875536 32.7498882 0 32.7498882"></polygon>
                            <polygon id="Fill-17" points="0 22.6564303 161.042918 22.6564303 161.042918 15.9274583 0 15.9274583"></polygon>
                            <polygon id="Fill-18" points="0 7.17979475 207.536481 7.17979475 207.536481 0.450822791 0 0.450822791"></polygon>
                        </g>
                        <g id="Group-7-Copy" transform="translate(82.879828, 148.275026)" fill="#DADFE1">
                            <polygon id="Fill-16" points="0 39.4632919 113.875536 39.4632919 113.875536 32.7343199 0 32.7343199"></polygon>
                            <polygon id="Fill-17" points="0 22.640862 161.042918 22.640862 161.042918 15.91189 0 15.91189"></polygon>
                            <polygon id="Fill-18" points="0 7.16422644 207.536481 7.16422644 207.536481 0.435254475 0 0.435254475"></polygon>
                        </g>
                    </g>
                </g>
                <g id="link" transform="translate(201.000000, 117.000000)" fill="#FF5254" fill-rule="nonzero">
                    <path d="M83.9680165,7.06710696 C74.5920087,-2.35570232 59.3381687,-2.35570232 49.961983,7.06710696 L35.990469,21.1083615 C33.5524115,23.5585889 31.5769314,26.6846733 30.3036859,30.5012878 C30.2823198,30.5084454 30.2616658,30.5193607 30.2402997,30.5265183 C27.344472,39.281523 29.5407358,48.8020336 35.990469,55.2839615 C37.9175192,57.2206308 40.1848255,58.8153454 42.6405101,59.9925926 L43.5473258,59.0812504 C46.6835229,55.9293986 46.6835229,50.8412355 43.5473258,47.6892048 C38.3330911,42.4489425 38.3330911,33.9428436 43.5473258,28.7027603 L57.5188397,14.6615058 C62.7330745,9.42124356 71.1967469,9.42124356 76.4109816,14.6615058 C81.6252164,19.9017681 81.6252164,28.407688 76.4109816,33.6479503 L65.8023242,44.3095622 C67.2169424,48.705227 67.5166029,53.359997 66.8319953,57.8905827 C67.9492677,57.1078985 69.024342,56.2607958 69.9963245,55.2839615 L83.9678384,41.242707 C93.3440242,31.8198977 93.3440242,16.4897373 83.9680165,7.06710696 Z" id="Path"></path>
                    <path d="M55.0134533,35.6784162 C53.0874822,33.7416914 50.8218013,32.146752 48.3295879,31.0074074 L47.4608277,31.8810183 C44.3265646,35.0327816 44.3263867,40.1212698 47.4608277,43.273391 C52.6721429,48.5138037 52.6721429,57.0201468 47.4608277,62.2603805 C43.0497612,66.6960763 37.6681463,72.1086343 33.462436,76.3378272 C28.2511208,81.5782399 19.7921873,81.5782399 14.580872,76.3378272 C9.36955683,71.0974145 9.36955683,62.5912504 14.580872,57.3508377 L25.2182902,46.6531306 C23.804464,42.2573396 23.5051493,37.602257 24.1893735,33.0715413 C23.0725487,33.8546059 21.9980764,34.7015539 21.0264602,35.6784162 L7.0280685,49.7558629 C-2.3426895,59.1789427 -2.3426895,74.5093643 7.0280685,83.932623 C16.3988265,93.3558818 31.6441257,93.3557028 41.0150616,83.932623 L55.0134533,69.8551763 C57.4501458,67.4046996 59.4245198,64.2787044 60.6970523,60.4619804 C60.7184065,60.4548226 60.7390489,60.4439069 60.7604031,60.4367491 C63.6546094,51.6813142 61.4595753,42.1605302 55.0134533,35.6784162 Z" id="Path"></path>
                    <path d="M78.056653,72.8 L74.1482172,68.8916214 C73.0680148,67.8114348 71.3197997,67.8114348 70.2397815,68.8916214 C69.159579,69.9718081 69.159579,71.7199976 70.2397815,72.8 L74.1482172,76.7083786 C75.2284196,77.7885652 76.9766347,77.7885652 78.056653,76.7083786 C79.1366712,75.6281919 79.1366712,73.8801866 78.056653,72.8 Z" id="Path"></path>
                    <path d="M20.7602462,16.8518519 L16.8517598,12.9434733 C15.7715942,11.8632867 14.0234389,11.8632867 12.9434575,12.9434733 C11.8632919,14.0236599 11.8632919,15.7718494 12.9434575,16.8518519 L16.8517598,20.7602304 C17.9319253,21.840417 19.6800807,21.840417 20.7602462,20.7602304 C21.8404118,19.6800438 21.8404118,17.9318543 20.7602462,16.8518519 Z" id="Path"></path>
                    <path d="M87.7465652,54.0558003 L82.7783938,52.6696896 C81.4058193,52.2871359 79.9960602,53.1335694 79.6284981,54.5621266 C79.2607647,55.9994228 80.0834526,57.4607958 81.4467738,57.8406743 L86.4149452,59.2266067 C87.7875197,59.6091604 89.1972788,58.7627269 89.5648409,57.3341697 C89.9286331,55.9056125 89.1189683,54.4310418 87.7465652,54.0558003 Z" id="Path"></path>
                    <path d="M9.5537386,33.159504 L4.58575106,31.7733933 C3.21322735,31.3908396 1.8035204,32.2372731 1.43597191,33.6658303 C1.06808073,35.1027698 1.8907382,36.5643212 3.2541803,36.9441997 L8.22216783,38.3303104 C9.59469155,38.7128641 11.0043985,37.8664306 11.371947,36.4378734 C11.7376106,35.0075327 10.9209504,33.5326053 9.5537386,33.159504 Z" id="Path"></path>
                    <path d="M59.2265918,86.4147203 L57.8406254,81.4473666 C57.4562788,80.0697067 55.9907678,79.2618885 54.5621754,79.6293901 C53.1335831,79.9968917 52.2871288,81.4064188 52.6696919,82.7787675 L54.0558366,87.7461212 C54.4357245,89.1093894 55.8973118,89.9317706 57.3342866,89.5640977 C58.7628789,89.1965961 59.6091549,87.787069 59.2265918,86.4147203 Z" id="Path"></path>
                    <path d="M38.3303111,8.22188172 L36.9442003,3.25381542 C36.56343,1.87595797 35.0943879,1.07162233 33.6658306,1.43557821 C32.2372732,1.80313253 31.3908396,3.21286182 31.7733933,4.5854073 L33.1595042,9.55347359 C33.2850603,10.0044773 33.529217,10.3951644 33.8505978,10.7041156 C34.5047736,11.3326421 35.4805086,11.616747 36.4376956,11.3717108 C37.8664313,11.0043278 38.7128649,9.59442719 38.3303111,8.22188172 Z" id="Path"></path>
                </g>
            </g>
        </g>
    </g>
</svg>