<?xml version="1.0" encoding="UTF-8"?>
<svg width="302px" height="392px" viewBox="0 0 302 392" version="1.1" xmlns="http://www.w3.org/2000/svg" xmlns:xlink="http://www.w3.org/1999/xlink">
    <!-- Generator: Sketch 63.1 (92452) - https://sketch.com -->
    <title>img_authority</title>
    <desc>Created with Sketch.</desc>
    <defs>
        <path d="M146.5,270 C190.331473,270 226,234.331473 226,190.5 C226,146.668527 190.331473,111 146.5,111 C102.668527,111 67,146.668527 67,190.5 C67,234.331473 102.668527,270 146.5,270 Z M110.072199,182.749314 L136.134025,208.831047 L184.927801,160 L201,176.084476 L136.134025,241 L94,198.833791 L110.072199,182.749314 Z" id="path-1"></path>
        <filter x="-4.4%" y="-3.1%" width="108.8%" height="108.8%" filterUnits="objectBoundingBox" id="filter-2">
            <feOffset dx="0" dy="2" in="SourceAlpha" result="shadowOffsetOuter1"></feOffset>
            <feGaussianBlur stdDeviation="2" in="shadowOffsetOuter1" result="shadowBlurOuter1"></feGaussianBlur>
            <feColorMatrix values="0 0 0 0 0   0 0 0 0 0   0 0 0 0 0  0 0 0 0.5 0" type="matrix" in="shadowBlurOuter1"></feColorMatrix>
        </filter>
        <path d="M147,384 C149.261538,382.113281 294,344.730469 294,192 L294,45 L256.201683,45 C178.311118,45 152.335817,3.00878925 147,0 C141.94982,2.84765625 115.282512,45 37.7983173,45 L0,45 L0,192 C0,344.724609 144.738462,382.113281 147,384 Z M147.5,90 C203.468909,90 249,136.112157 249,191.874539 C249,247.63692 203.468909,293 147.5,293 C91.531091,293 46,247.63692 46,191.874539 C46,136.112157 91.531091,90 147.5,90 Z" id="path-3"></path>
        <filter x="-2.4%" y="-1.3%" width="104.8%" height="103.6%" filterUnits="objectBoundingBox" id="filter-4">
            <feOffset dx="0" dy="2" in="SourceAlpha" result="shadowOffsetOuter1"></feOffset>
            <feGaussianBlur stdDeviation="2" in="shadowOffsetOuter1" result="shadowBlurOuter1"></feGaussianBlur>
            <feColorMatrix values="0 0 0 0 0   0 0 0 0 0   0 0 0 0 0  0 0 0 0.5 0" type="matrix" in="shadowBlurOuter1"></feColorMatrix>
        </filter>
    </defs>
    <g id="Page-1" stroke="none" stroke-width="1" fill="none" fill-rule="evenodd">
        <g id="FAQs---What-is-a-Backlink" transform="translate(-898.000000, -4232.000000)" fill-rule="nonzero">
            <g id="img_authority" transform="translate(902.000000, 4234.000000)">
                <g id="Shape">
                    <use fill="black" fill-opacity="1" filter="url(#filter-2)" xlink:href="#path-1"></use>
                    <use fill="#FF5254" xlink:href="#path-1"></use>
                </g>
                <g id="Shape">
                    <use fill="black" fill-opacity="1" filter="url(#filter-4)" xlink:href="#path-3"></use>
                    <use fill="#FF5254" xlink:href="#path-3"></use>
                </g>
            </g>
        </g>
    </g>
</svg>