<?xml version="1.0" encoding="UTF-8"?>
<svg width="510px" height="357px" viewBox="0 0 510 357" version="1.1" xmlns="http://www.w3.org/2000/svg" xmlns:xlink="http://www.w3.org/1999/xlink">
    <!-- Generator: Sketch 63.1 (92452) - https://sketch.com -->
    <title>img_natural_backlinks</title>
    <desc>Created with Sketch.</desc>
    <defs>
        <filter x="-6.0%" y="-8.8%" width="112.0%" height="117.5%" filterUnits="objectBoundingBox" id="filter-1">
            <feOffset dx="0" dy="5" in="SourceAlpha" result="shadowOffsetOuter1"></feOffset>
            <feGaussianBlur stdDeviation="5" in="shadowOffsetOuter1" result="shadowBlurOuter1"></feGaussianBlur>
            <feColorMatrix values="0 0 0 0 0   0 0 0 0 0   0 0 0 0 0  0 0 0 0.25 0" type="matrix" in="shadowBlurOuter1" result="shadowMatrixOuter1"></feColorMatrix>
            <feMerge>
                <feMergeNode in="shadowMatrixOuter1"></feMergeNode>
                <feMergeNode in="SourceGraphic"></feMergeNode>
            </feMerge>
        </filter>
    </defs>
    <g id="Page-1" stroke="none" stroke-width="1" fill="none" fill-rule="evenodd">
        <g id="FAQs---What-is-a-Backlink" transform="translate(-125.000000, -2342.000000)">
            <g id="img_natural_backlinks" transform="translate(135.000000, 2347.000000)">
                <g id="img_google_my_business_listing">
                    <g id="img_blogs" filter="url(#filter-1)">
                        <rect id="Rectangle" fill="#FFFFFF" x="0" y="0" width="489.132743" height="337" rx="13"></rect>
                        <path d="M13,0 L477,0 C484.179702,-3.32031706e-14 490,5.82029825 490,13 L490,57.1773779 L490,57.1773779 L0,57.1773779 L0,13 C-8.79259876e-16,5.82029825 5.82029825,1.31888981e-15 13,0 Z" id="Rectangle-2" fill="#FF5254"></path>
                        <polygon id="Fill-5" fill="#E9ECED" points="0 87.4987147 489.132743 87.4987147 489.132743 57.1773779 0 57.1773779"></polygon>
                        <path d="M86.7256637,31.188856 C86.7256637,35.4943118 83.2316419,38.9845758 78.9215506,38.9845758 C74.6114592,38.9845758 71.1150442,35.4943118 71.1150442,31.188856 C71.1150442,26.8834001 74.6114592,23.3907455 78.9215506,23.3907455 C83.2316419,23.3907455 86.7256637,26.8834001 86.7256637,31.188856" id="Fill-6" fill="#FFFFFF"></path>
                        <path d="M64.1769912,31.188856 C64.1769912,35.4943118 60.6805762,38.9845758 56.3704848,38.9845758 C52.0603935,38.9845758 48.5663717,35.4943118 48.5663717,31.188856 C48.5663717,26.8834001 52.0603935,23.3907455 56.3704848,23.3907455 C60.6805762,23.3907455 64.1769912,26.8834001 64.1769912,31.188856" id="Fill-7" fill="#FFFFFF"></path>
                        <path d="M42.4955752,31.188856 C42.4955752,35.4943118 39.0015534,38.9845758 34.6890689,38.9845758 C30.3789776,38.9845758 26.8849558,35.4943118 26.8849558,31.188856 C26.8849558,26.8834001 30.3789776,23.3907455 34.6890689,23.3907455 C39.0015534,23.3907455 42.4955752,26.8834001 42.4955752,31.188856" id="Fill-8" fill="#FFFFFF"></path>
                        <path d="M104.836283,25.1233933 L414.650442,25.1233933 C416.031154,25.1233933 417.150442,26.2426814 417.150442,27.6233933 L417.150442,31.2866324 C417.150442,32.6673443 416.031154,33.7866324 414.650442,33.7866324 L104.836283,33.7866324 C103.455571,33.7866324 102.336283,32.6673443 102.336283,31.2866324 L102.336283,27.6233933 C102.336283,26.2426814 103.455571,25.1233933 104.836283,25.1233933 Z" id="Rectangle-3" fill="#FFFFFF"></path>
                        <polygon id="Fill-10" fill="#FFFFFF" points="447.068278 19.9254499 448.808569 25.2198936 454.442478 25.2198936 449.883973 28.4921886 451.626783 33.7866324 447.068278 30.5143374 442.512292 33.7866324 444.252583 28.4921886 439.699115 25.2198936 445.330505 25.2198936"></polygon>
                        <g id="Group-7" transform="translate(208.530973, 127.215938)" fill="#DADFE1">
                            <polygon id="Fill-16" points="0.469026549 61.7840617 266.469027 61.7840617 266.469027 50.7840617 0.469026549 50.7840617"></polygon>
                            <polygon id="Fill-16" points="0.469026549 87.7840617 266.469027 87.7840617 266.469027 76.7840617 0.469026549 76.7840617"></polygon>
                            <polygon id="Fill-17" points="0.469026549 35.7840617 266.469027 35.7840617 266.469027 24.7840617 0.469026549 24.7840617"></polygon>
                            <polygon id="Fill-18" points="0.469026549 11.7840617 266.469027 11.7840617 266.469027 0.784061697 0.469026549 0.784061697"></polygon>
                        </g>
                        <g id="Group-7-Copy" transform="translate(31.530973, 239.000000)" fill="#DADFE1">
                            <polygon id="Fill-16" points="0.469026549 61 402.469027 61 402.469027 50 0.469026549 50"></polygon>
                            <polygon id="Fill-17" points="2.46902655 37 443.469027 37 443.469027 24 2.46902655 24"></polygon>
                            <polygon id="Fill-18" points="0.469026549 11 231.469027 11 231.469027 0 0.469026549 0"></polygon>
                        </g>
                        <rect id="Rectangle-4-Copy" fill="#427FE0" x="31.2212389" y="112" width="164" height="111"></rect>
                        <path d="M82.1477566,153.460547 L82.1477566,161.86591 L78.1245487,161.86591 L78.1245487,153.460547 L70.2426509,140.239299 L73.7872615,140.239299 C74.1362404,140.239299 74.4129266,140.324049 74.6173285,140.493553 C74.8217304,140.663057 74.9937246,140.877427 75.1333161,141.136668 L79.0966993,148.360495 C79.3260283,148.789241 79.5254418,149.195546 79.6949458,149.579422 C79.8644499,149.963299 80.0189953,150.339692 80.1585869,150.708613 C80.2882076,150.329721 80.4352751,149.948343 80.5997937,149.564466 C80.7643123,149.180589 80.9612332,148.77927 81.1905621,148.360495 L85.124033,141.136668 C85.2337121,140.91731 85.3982282,140.712911 85.6175864,140.523466 C85.8369445,140.33402 86.1161235,140.239299 86.4551315,140.239299 L90.0146983,140.239299 L82.1477566,153.460547 Z M112.852759,151.052604 C112.852759,152.637966 112.588536,154.106148 112.060083,155.457194 C111.531629,156.808241 110.788813,157.977303 109.831614,158.964415 C108.87442,159.951526 107.722802,160.721761 106.376741,161.275142 C105.030679,161.828523 103.540063,162.105209 101.904848,162.105209 C100.269633,162.105209 98.7765239,161.828523 97.4254771,161.275142 C96.0744302,160.721761 94.9178319,159.951526 93.9556472,158.964415 C92.9934626,157.977303 92.2481546,156.808241 91.7197009,155.457194 C91.1912471,154.106148 90.9270242,152.637966 90.9270242,151.052604 C90.9270242,149.467243 91.1912471,147.999061 91.7197009,146.648014 C92.2481546,145.296968 92.9934626,144.127906 93.9556472,143.140794 C94.9178319,142.153683 96.0744302,141.383448 97.4254771,140.830067 C98.7765239,140.276686 100.269633,140 101.904848,140 C103.540063,140 105.030679,140.279179 106.376741,140.837545 C107.722802,141.395911 108.87442,142.166146 109.831614,143.148272 C110.788813,144.130399 111.531629,145.296968 112.060083,146.648014 C112.588536,147.999061 112.852759,149.467243 112.852759,151.052604 Z M108.724858,151.052604 C108.724858,149.866076 108.56782,148.801707 108.253739,147.859464 C107.939658,146.917221 107.488485,146.117074 106.900206,145.458999 C106.311928,144.800925 105.596532,144.297406 104.753997,143.948427 C103.911462,143.599448 102.961755,143.424961 101.904848,143.424961 C100.84794,143.424961 99.8957409,143.599448 99.0482207,143.948427 C98.2007006,144.297406 97.4803193,144.800925 96.8870552,145.458999 C96.2937911,146.117074 95.8376327,146.917221 95.5185663,147.859464 C95.1994999,148.801707 95.0399691,149.866076 95.0399691,151.052604 C95.0399691,152.239133 95.1994999,153.303502 95.5185663,154.245745 C95.8376327,155.187988 96.2937911,155.985642 96.8870552,156.638731 C97.4803193,157.29182 98.2007006,157.792847 99.0482207,158.141826 C99.8957409,158.490805 100.84794,158.665291 101.904848,158.665291 C102.961755,158.665291 103.911462,158.490805 104.753997,158.141826 C105.596532,157.792847 106.311928,157.29182 106.900206,156.638731 C107.488485,155.985642 107.939658,155.187988 108.253739,154.245745 C108.56782,153.303502 108.724858,152.239133 108.724858,151.052604 Z M124.727953,158.620423 C125.505677,158.620423 126.201132,158.490804 126.814337,158.231563 C127.427543,157.972321 127.946018,157.608392 128.369778,157.139763 C128.793538,156.671134 129.117585,156.102805 129.341929,155.43476 C129.566272,154.766715 129.678442,154.018914 129.678442,153.191336 L129.678442,140.239299 L133.70165,140.239299 L133.70165,153.191336 C133.70165,154.477572 133.494759,155.666575 133.08097,156.758381 C132.66718,157.850186 132.071432,158.792415 131.293708,159.585095 C130.515984,160.377776 129.573755,160.995958 128.466993,161.43966 C127.360232,161.883361 126.113897,162.105209 124.727953,162.105209 C123.342008,162.105209 122.095673,161.883361 120.988912,161.43966 C119.88215,160.995958 118.942414,160.377776 118.169675,159.585095 C117.396936,158.792415 116.803681,157.850186 116.389892,156.758381 C115.976102,155.666575 115.769211,154.477572 115.769211,153.191336 L115.769211,140.239299 L119.792419,140.239299 L119.792419,153.17638 C119.792419,154.003958 119.904589,154.751759 120.128932,155.419804 C120.353276,156.087849 120.67483,156.65867 121.093605,157.132285 C121.51238,157.605899 122.028362,157.972321 122.641568,158.231563 C123.254774,158.490804 123.950228,158.620423 124.727953,158.620423 Z M141.957452,153.415678 L141.957452,161.86591 L137.934244,161.86591 L137.934244,140.239299 L144.529912,140.239299 C146.005594,140.239299 147.269378,140.391351 148.3213,140.695462 C149.373222,140.999572 150.235685,141.425818 150.908716,141.974214 C151.581747,142.522609 152.075295,143.178181 152.389376,143.940949 C152.703457,144.703717 152.860495,145.543746 152.860495,146.461062 C152.860495,147.188933 152.75331,147.876909 152.538938,148.525013 C152.324565,149.173117 152.015474,149.761386 151.611655,150.28984 C151.207837,150.818294 150.709303,151.28193 150.116039,151.680763 C149.522775,152.079596 148.847262,152.398658 148.089479,152.637958 C148.597991,152.927112 149.036701,153.340895 149.405621,153.879319 L154.819752,161.86591 L151.200361,161.86591 C150.851382,161.86591 150.554755,161.796116 150.310469,161.656524 C150.066184,161.516932 149.859293,161.317519 149.689789,161.058277 L145.143115,154.133574 C144.973611,153.874333 144.786661,153.689875 144.582259,153.580196 C144.377857,153.470517 144.076244,153.415678 143.677411,153.415678 L141.957452,153.415678 Z M141.957452,150.529139 L144.470088,150.529139 C145.22787,150.529139 145.888428,150.434417 146.451779,150.244972 C147.015131,150.055526 147.478767,149.793796 147.842702,149.459773 C148.206638,149.12575 148.478338,148.729416 148.657813,148.270758 C148.837288,147.8121 148.927024,147.308581 148.927024,146.760186 C148.927024,145.663395 148.565587,144.820873 147.842702,144.232594 C147.119818,143.644315 146.015565,143.350181 144.529912,143.350181 L141.957452,143.350181 L141.957452,150.529139 Z M47.0232078,190.148014 L47.0232078,197.760701 L43,197.760701 L43,176.13409 L50.0443528,176.13409 C51.4901224,176.13409 52.7414422,176.303591 53.7983497,176.642599 C54.8552571,176.981607 55.7276912,177.455214 56.4156782,178.063435 C57.1036651,178.671655 57.6121696,179.399514 57.9412068,180.247035 C58.270244,181.094555 58.4347602,182.021828 58.4347602,183.028881 C58.4347602,184.075818 58.2602734,185.035495 57.9112945,185.907942 C57.5623156,186.780389 57.0388551,187.530683 56.3408974,188.158845 C55.6429396,188.787007 54.7705055,189.27557 53.7235688,189.624549 C52.6766322,189.973528 51.4502391,190.148014 50.0443528,190.148014 L47.0232078,190.148014 Z M47.0232078,187.00722 L50.0443528,187.00722 C50.7821938,187.00722 51.4253024,186.914991 51.9736978,186.730531 C52.5220932,186.546071 52.9757589,186.281848 53.3347086,185.937855 C53.6936583,185.593861 53.9628666,185.175093 54.1423414,184.681537 C54.3218163,184.187981 54.4115523,183.637101 54.4115523,183.028881 C54.4115523,182.450573 54.3218163,181.927113 54.1423414,181.458484 C53.9628666,180.989855 53.6936583,180.591028 53.3347086,180.261991 C52.9757589,179.932953 52.5220932,179.681194 51.9736978,179.506704 C51.4253024,179.332215 50.7821938,179.244972 50.0443528,179.244972 L47.0232078,179.244972 L47.0232078,187.00722 Z M65.7184116,189.310469 L65.7184116,197.760701 L61.6952037,197.760701 L61.6952037,176.13409 L68.2908716,176.13409 C69.7665537,176.13409 71.0303368,176.286143 72.0822589,176.590253 C73.134181,176.894363 73.9966444,177.320609 74.6696751,177.869005 C75.3427058,178.4174 75.8362542,179.072972 76.1503352,179.83574 C76.4644162,180.598508 76.6214544,181.438538 76.6214544,182.355854 C76.6214544,183.083724 76.5142696,183.7717 76.2998969,184.419804 C76.0855241,185.067908 75.7764332,185.656178 75.3726147,186.184631 C74.9687963,186.713085 74.4702626,187.176721 73.8769985,187.575554 C73.2837344,187.974387 72.6082211,188.293449 71.8504384,188.532749 C72.3589505,188.821903 72.7976602,189.235686 73.1665807,189.77411 L78.5807117,197.760701 L74.9613203,197.760701 C74.6123414,197.760701 74.3157138,197.690907 74.0714286,197.551315 C73.8271434,197.411724 73.6202518,197.21231 73.4507478,196.953069 L68.9040743,190.028365 C68.7345702,189.769124 68.5476201,189.584666 68.3432182,189.474987 C68.1388162,189.365308 67.8372033,189.310469 67.4383703,189.310469 L65.7184116,189.310469 Z M65.7184116,186.42393 L68.2310469,186.42393 C68.9888296,186.42393 69.6493869,186.329208 70.2127385,186.139763 C70.7760901,185.950317 71.2397266,185.688587 71.6036617,185.354564 C71.9675968,185.020542 72.2392977,184.624207 72.4187726,184.165549 C72.5982474,183.706891 72.6879835,183.203372 72.6879835,182.654977 C72.6879835,181.558186 72.3265465,180.715664 71.6036617,180.127385 C70.8807769,179.539107 69.7765245,179.244972 68.2908716,179.244972 L65.7184116,179.244972 L65.7184116,186.42393 Z M101.89737,186.947396 C101.89737,188.532757 101.633147,190.000939 101.104693,191.351986 C100.576239,192.703032 99.8334241,193.872094 98.8762249,194.859206 C97.9190304,195.846317 96.7674126,196.616552 95.4213512,197.169933 C94.0752898,197.723314 92.5846738,198 90.9494585,198 C89.3142432,198 87.8211345,197.723314 86.4700877,197.169933 C85.1190409,196.616552 83.9624425,195.846317 83.0002579,194.859206 C82.0380732,193.872094 81.2927652,192.703032 80.7643115,191.351986 C80.2358578,190.000939 79.9716349,188.532757 79.9716349,186.947396 C79.9716349,185.362034 80.2358578,183.893852 80.7643115,182.542806 C81.2927652,181.191759 82.0380732,180.022697 83.0002579,179.035585 C83.9624425,178.048474 85.1190409,177.278239 86.4700877,176.724858 C87.8211345,176.171477 89.3142432,175.894791 90.9494585,175.894791 C92.5846738,175.894791 94.0752898,176.17397 95.4213512,176.732336 C96.7674126,177.290702 97.9190304,178.060937 98.8762249,179.043063 C99.8334241,180.02519 100.576239,181.191759 101.104693,182.542806 C101.633147,183.893852 101.89737,185.362034 101.89737,186.947396 Z M97.7694688,186.947396 C97.7694688,185.760867 97.6124307,184.696498 97.2983497,183.754255 C96.9842687,182.812012 96.5330956,182.011865 95.9448169,181.353791 C95.3565382,180.695716 94.6411423,180.192197 93.7986075,179.843218 C92.9560728,179.494239 92.006366,179.319752 90.9494585,179.319752 C89.892551,179.319752 88.9403515,179.494239 88.0928314,179.843218 C87.2453112,180.192197 86.5249299,180.695716 85.9316658,181.353791 C85.3384017,182.011865 84.8822433,182.812012 84.5631769,183.754255 C84.2441105,184.696498 84.0845797,185.760867 84.0845797,186.947396 C84.0845797,188.133924 84.2441105,189.198293 84.5631769,190.140536 C84.8822433,191.082779 85.3384017,191.880433 85.9316658,192.533522 C86.5249299,193.186611 87.2453112,193.687638 88.0928314,194.036617 C88.9403515,194.385596 89.892551,194.560083 90.9494585,194.560083 C92.006366,194.560083 92.9560728,194.385596 93.7986075,194.036617 C94.6411423,193.687638 95.3565382,193.186611 95.9448169,192.533522 C96.5330956,191.880433 96.9842687,191.082779 97.2983497,190.140536 C97.6124307,189.198293 97.7694688,188.133924 97.7694688,186.947396 Z M124.27179,186.947396 C124.27179,188.532757 124.007567,189.988475 123.479113,191.314595 C122.950659,192.640715 122.207844,193.782357 121.250645,194.739556 C120.293445,195.696756 119.141832,196.439571 117.795771,196.968025 C116.44971,197.496478 114.959094,197.760701 113.323878,197.760701 L105.068076,197.760701 L105.068076,176.13409 L113.323878,176.13409 C114.959094,176.13409 116.44971,176.400805 117.795771,176.934244 C119.141832,177.467684 120.293445,178.210499 121.250645,179.162713 C122.207844,180.114927 122.950659,181.254076 123.479113,182.580196 C124.007567,183.906316 124.27179,185.362034 124.27179,186.947396 Z M120.158845,186.947396 C120.158845,185.760867 119.999314,184.696498 119.680248,183.754255 C119.361181,182.812012 118.907515,182.014358 118.319237,181.361269 C117.730958,180.70818 117.015562,180.207153 116.173027,179.858174 C115.330493,179.509195 114.380786,179.334709 113.323878,179.334709 L109.121196,179.334709 L109.121196,194.560083 L113.323878,194.560083 C114.380786,194.560083 115.330493,194.385596 116.173027,194.036617 C117.015562,193.687638 117.730958,193.186611 118.319237,192.533522 C118.907515,191.880433 119.361181,191.082779 119.680248,190.140536 C119.999314,189.198293 120.158845,188.133924 120.158845,186.947396 Z M136.132027,194.515214 C136.909751,194.515214 137.605206,194.385595 138.218412,194.126354 C138.831617,193.867112 139.350092,193.503183 139.773853,193.034554 C140.197613,192.565925 140.52166,191.997597 140.746003,191.329551 C140.970347,190.661506 141.082517,189.913705 141.082517,189.086127 L141.082517,176.13409 L145.105725,176.13409 L145.105725,189.086127 C145.105725,190.372363 144.898833,191.561366 144.485044,192.653172 C144.071255,193.744977 143.475507,194.687206 142.697782,195.479887 C141.920058,196.272567 140.977829,196.890749 139.871068,197.334451 C138.764306,197.778152 137.517972,198 136.132027,198 C134.746082,198 133.499748,197.778152 132.392986,197.334451 C131.286224,196.890749 130.346488,196.272567 129.573749,195.479887 C128.80101,194.687206 128.207755,193.744977 127.793966,192.653172 C127.380177,191.561366 127.173285,190.372363 127.173285,189.086127 L127.173285,176.13409 L131.196493,176.13409 L131.196493,189.071171 C131.196493,189.898749 131.308663,190.64655 131.533007,191.314595 C131.75735,191.98264 132.078905,192.553462 132.497679,193.027076 C132.916454,193.50069 133.432436,193.867112 134.045642,194.126354 C134.658848,194.385595 135.354302,194.515214 136.132027,194.515214 Z M164.070139,192.66065 C164.289497,192.66065 164.47894,192.745401 164.638473,192.914905 L166.223827,194.634863 C165.346394,195.721683 164.267068,196.554235 162.985817,197.132543 C161.704566,197.71085 160.16659,198 158.371841,198 C156.766538,198 155.323283,197.725806 154.042032,197.177411 C152.760781,196.629016 151.666499,195.866259 150.759154,194.889118 C149.851809,193.911977 149.156354,192.745408 148.672769,191.389376 C148.189184,190.033344 147.947396,188.552698 147.947396,186.947396 C147.947396,185.322151 148.216604,183.834028 148.755028,182.482981 C149.293453,181.131934 150.051224,179.967858 151.028365,178.990717 C152.005506,178.013576 153.174568,177.253312 154.535585,176.709902 C155.896603,176.166492 157.399682,175.894791 159.044868,175.894791 C160.650171,175.894791 162.053544,176.151536 163.255028,176.665034 C164.456513,177.178531 165.485985,177.85903 166.343476,178.70655 L164.997421,180.57607 C164.917655,180.69572 164.815455,180.800412 164.69082,180.89015 C164.566185,180.979887 164.394191,181.024755 164.174832,181.024755 C163.945503,181.024755 163.711193,180.935019 163.471893,180.755544 C163.232593,180.576069 162.928487,180.38164 162.559567,180.172254 C162.190646,179.962866 161.724517,179.768438 161.161166,179.588963 C160.597814,179.409489 159.882418,179.319752 159.014956,179.319752 C157.997932,179.319752 157.063181,179.496732 156.210676,179.850696 C155.35817,180.204661 154.625325,180.710672 154.01212,181.368747 C153.398914,182.026821 152.920321,182.826968 152.576328,183.769211 C152.232335,184.711454 152.06034,185.770838 152.06034,186.947396 C152.06034,188.163836 152.232335,189.245655 152.576328,190.192883 C152.920321,191.140111 153.386451,191.937765 153.974729,192.585869 C154.563008,193.233973 155.25597,193.730014 156.053636,194.074007 C156.851302,194.418001 157.70878,194.589995 158.626096,194.589995 C159.174491,194.589995 159.670532,194.560083 160.114234,194.500258 C160.557936,194.440433 160.966734,194.345711 161.34064,194.216091 C161.714545,194.08647 162.068504,193.919461 162.402527,193.715059 C162.653044,193.561758 162.902156,193.381818 163.149867,193.175236 L163.397112,192.959773 C163.49682,192.870036 163.601512,192.797748 163.711191,192.742909 C163.82087,192.688069 163.940519,192.66065 164.070139,192.66065 Z M184.500258,176.13409 L184.500258,179.439402 L177.994327,179.439402 L177.994327,197.760701 L173.971119,197.760701 L173.971119,179.439402 L167.435276,179.439402 L167.435276,176.13409 L184.500258,176.13409 Z" id="YOURPRODUCT" fill="#FFFFFF" fill-rule="nonzero"></path>
                        <path d="M271.78,236.74 L273.74,236.74 C273.926668,236.74 274.083333,236.783333 274.21,236.87 C274.336667,236.956667 274.416666,237.066666 274.45,237.2 L275.92,242.68 C276,242.980002 276.065,243.273332 276.115,243.56 L276.26,244.42 L276.26,244.42 C276.333334,244.133332 276.411666,243.846668 276.495,243.56 L276.62375,243.125 L276.62375,243.125 L278.46,237.18 C278.5,237.046666 278.579999,236.936667 278.7,236.85 C278.820001,236.763333 278.959999,236.72 279.12,236.72 L280.21,236.72 C280.390001,236.72 280.539999,236.763333 280.66,236.85 C280.78,236.936667 280.86,237.046666 280.9,237.18 L282.58,242.78 L282.742222,243.342222 C282.767407,243.434074 282.791667,243.525 282.815,243.615 L283.02,244.43 L283.02,244.43 C283.066667,244.143332 283.118333,243.856668 283.175,243.57 C283.231667,243.283332 283.303333,242.986668 283.39,242.68 L284.91,237.2 C284.943333,237.066666 285.023333,236.956667 285.15,236.87 C285.276667,236.783333 285.423332,236.74 285.59,236.74 L287.46,236.74 L284.21,247 L282.22,247 C282.006666,247 281.853334,246.853335 281.76,246.56 L279.91,240.63 C279.85,240.436666 279.795,240.241668 279.745,240.045 C279.695,239.848332 279.653333,239.653334 279.62,239.46 C279.58,239.660001 279.536667,239.858332 279.49,240.055 C279.443333,240.251668 279.39,240.449999 279.33,240.65 L277.46,246.56 C277.366666,246.853335 277.186668,247 276.92,247 L275.03,247 L271.78,236.74 Z M287.6,236.74 L289.56,236.74 C289.746668,236.74 289.903333,236.783333 290.03,236.87 C290.156667,236.956667 290.236666,237.066666 290.27,237.2 L291.74,242.68 C291.82,242.980002 291.885,243.273332 291.935,243.56 L292.08,244.42 L292.08,244.42 C292.153334,244.133332 292.231666,243.846668 292.315,243.56 L292.44375,243.125 L292.44375,243.125 L294.28,237.18 C294.32,237.046666 294.399999,236.936667 294.52,236.85 C294.640001,236.763333 294.779999,236.72 294.94,236.72 L296.03,236.72 C296.210001,236.72 296.359999,236.763333 296.48,236.85 C296.6,236.936667 296.68,237.046666 296.72,237.18 L298.4,242.78 L298.562222,243.342222 C298.587407,243.434074 298.611667,243.525 298.635,243.615 L298.84,244.43 L298.84,244.43 C298.886667,244.143332 298.938333,243.856668 298.995,243.57 C299.051667,243.283332 299.123333,242.986668 299.21,242.68 L300.73,237.2 C300.763333,237.066666 300.843333,236.956667 300.97,236.87 C301.096667,236.783333 301.243332,236.74 301.41,236.74 L303.28,236.74 L300.03,247 L298.04,247 C297.826666,247 297.673334,246.853335 297.58,246.56 L295.73,240.63 C295.67,240.436666 295.615,240.241668 295.565,240.045 C295.515,239.848332 295.473333,239.653334 295.44,239.46 C295.4,239.660001 295.356667,239.858332 295.31,240.055 C295.263333,240.251668 295.21,240.449999 295.15,240.65 L293.28,246.56 C293.186666,246.853335 293.006668,247 292.74,247 L290.85,247 L287.6,236.74 Z M303.42,236.74 L305.38,236.74 C305.566668,236.74 305.723333,236.783333 305.85,236.87 C305.976667,236.956667 306.056666,237.066666 306.09,237.2 L307.56,242.68 C307.64,242.980002 307.705,243.273332 307.755,243.56 L307.9,244.42 L307.9,244.42 C307.973334,244.133332 308.051666,243.846668 308.135,243.56 L308.26375,243.125 L308.26375,243.125 L310.1,237.18 C310.14,237.046666 310.219999,236.936667 310.34,236.85 C310.460001,236.763333 310.599999,236.72 310.76,236.72 L311.85,236.72 C312.030001,236.72 312.179999,236.763333 312.3,236.85 C312.42,236.936667 312.5,237.046666 312.54,237.18 L314.22,242.78 L314.382222,243.342222 C314.407407,243.434074 314.431667,243.525 314.455,243.615 L314.66,244.43 L314.66,244.43 C314.706667,244.143332 314.758333,243.856668 314.815,243.57 C314.871667,243.283332 314.943333,242.986668 315.03,242.68 L316.55,237.2 C316.583333,237.066666 316.663333,236.956667 316.79,236.87 C316.916667,236.783333 317.063332,236.74 317.23,236.74 L319.1,236.74 L315.85,247 L313.86,247 C313.646666,247 313.493334,246.853335 313.4,246.56 L311.55,240.63 C311.49,240.436666 311.435,240.241668 311.385,240.045 C311.335,239.848332 311.293333,239.653334 311.26,239.46 C311.22,239.660001 311.176667,239.858332 311.13,240.055 C311.083333,240.251668 311.03,240.449999 310.97,240.65 L309.1,246.56 C309.006666,246.853335 308.826668,247 308.56,247 L306.67,247 L303.42,236.74 Z M319.9,245.64 C319.9,245.433332 319.938333,245.236668 320.015,245.05 C320.091667,244.863332 320.198333,244.703334 320.335,244.57 C320.471667,244.436666 320.633332,244.33 320.82,244.25 C321.006668,244.17 321.206666,244.13 321.42,244.13 C321.626668,244.13 321.823332,244.17 322.01,244.25 C322.196668,244.33 322.356666,244.436666 322.49,244.57 C322.623334,244.703334 322.73,244.863332 322.81,245.05 C322.89,245.236668 322.93,245.433332 322.93,245.64 C322.93,245.853334 322.89,246.051666 322.81,246.235 C322.73,246.418334 322.623334,246.576666 322.49,246.71 C322.356666,246.843334 322.196668,246.948333 322.01,247.025 C321.823332,247.101667 321.626668,247.14 321.42,247.14 C321.206666,247.14 321.006668,247.101667 320.82,247.025 C320.633332,246.948333 320.471667,246.843334 320.335,246.71 C320.198333,246.576666 320.091667,246.418334 320.015,246.235 C319.938333,246.051666 319.9,245.853334 319.9,245.64 Z M328.63,249.82 C328.556666,249.993334 328.461667,250.125 328.345,250.215 C328.228333,250.305 328.050001,250.35 327.81,250.35 L325.97,250.35 L327.89,246.24 L323.74,236.74 L325.9,236.74 C326.100001,236.74 326.253333,236.786666 326.36,236.88 C326.466667,236.973334 326.546666,237.079999 326.6,237.2 L328.79,242.52 C328.863334,242.693334 328.926666,242.873332 328.98,243.06 C329.033334,243.246668 329.08,243.433332 329.12,243.62 C329.173334,243.426666 329.231666,243.24 329.295,243.06 L329.39375,242.7875 L329.39375,242.7875 L331.56,237.2 C331.613334,237.066666 331.701666,236.956667 331.825,236.87 C331.948334,236.783333 332.086666,236.74 332.24,236.74 L334.22,236.74 L328.63,249.82 Z M340.04,236.58 C340.80667,236.58 341.501664,236.703332 342.125,236.95 C342.748336,237.196668 343.279998,237.546664 343.72,238 C344.160002,238.453336 344.499999,239.006663 344.74,239.66 C344.980001,240.313337 345.1,241.043329 345.1,241.85 C345.1,242.663337 344.980001,243.396663 344.74,244.05 C344.499999,244.703337 344.160002,245.259998 343.72,245.72 C343.279998,246.180002 342.748336,246.533332 342.125,246.78 C341.501664,247.026668 340.80667,247.15 340.04,247.15 C339.273329,247.15 338.57667,247.026668 337.95,246.78 C337.32333,246.533332 336.788336,246.180002 336.345,245.72 C335.901664,245.259998 335.558335,244.703337 335.315,244.05 C335.071665,243.396663 334.95,242.663337 334.95,241.85 C334.95,241.043329 335.071665,240.313337 335.315,239.66 C335.558335,239.006663 335.901664,238.453336 336.345,238 C336.788336,237.546664 337.32333,237.196668 337.95,236.95 C338.57667,236.703332 339.273329,236.58 340.04,236.58 Z M340.04,245.25 C340.893338,245.25 341.524998,244.963336 341.935,244.39 C342.345002,243.816664 342.55,242.976672 342.55,241.87 C342.55,240.763328 342.345002,239.920003 341.935,239.34 C341.524998,238.759997 340.893338,238.47 340.04,238.47 C339.173329,238.47 338.533335,238.761664 338.12,239.345 C337.706665,239.928336 337.5,240.769995 337.5,241.87 C337.5,242.97 337.706665,243.80833 338.12,244.385 C338.533335,244.96167 339.173329,245.25 340.04,245.25 Z M349.29,236.74 L349.29,243.26 C349.29,243.88667 349.434999,244.371665 349.725,244.715 C350.015001,245.058335 350.449997,245.23 351.03,245.23 C351.456669,245.23 351.856665,245.135001 352.23,244.945 C352.603335,244.754999 352.956665,244.493335 353.29,244.16 L353.29,236.74 L355.76,236.74 L355.76,247 L354.25,247 C353.929998,247 353.72,246.850002 353.62,246.55 L353.45,245.73 C353.236666,245.943334 353.016668,246.138332 352.79,246.315 C352.563332,246.491668 352.321668,246.641666 352.065,246.765 C351.808332,246.888334 351.531668,246.985 351.235,247.055 C350.938332,247.125 350.620002,247.16 350.28,247.16 C349.719997,247.16 349.225002,247.065001 348.795,246.875 C348.364998,246.684999 348.003335,246.416668 347.71,246.07 C347.416665,245.723332 347.195001,245.311669 347.045,244.835 C346.894999,244.358331 346.82,243.833336 346.82,243.26 L346.82,236.74 L349.29,236.74 Z M358.4,247 L358.4,236.74 L359.85,236.74 C360.103335,236.74 360.279999,236.786666 360.38,236.88 C360.48,236.973334 360.546666,237.133332 360.58,237.36 L360.73,238.6 C361.096668,237.966664 361.526664,237.466669 362.02,237.1 C362.513336,236.733332 363.066664,236.55 363.68,236.55 C364.186669,236.55 364.606665,236.666666 364.94,236.9 L364.62,238.75 C364.6,238.870001 364.556667,238.955 364.49,239.005 C364.423333,239.055 364.333334,239.08 364.22,239.08 C364.145,239.08 364.049375,239.066875 363.933125,239.040625 L363.81,239.01 C363.636666,238.963333 363.406668,238.94 363.12,238.94 C362.606664,238.94 362.166668,239.081665 361.8,239.365 C361.433331,239.648335 361.123335,240.063331 360.87,240.61 L360.87,247 L358.4,247 Z M365.32,236.74 L367.28,236.74 C367.466668,236.74 367.623333,236.783333 367.75,236.87 C367.876667,236.956667 367.956666,237.066666 367.99,237.2 L369.46,242.68 C369.54,242.980002 369.605,243.273332 369.655,243.56 L369.8,244.42 L369.8,244.42 C369.873334,244.133332 369.951666,243.846668 370.035,243.56 L370.16375,243.125 L370.16375,243.125 L372,237.18 C372.04,237.046666 372.119999,236.936667 372.24,236.85 C372.360001,236.763333 372.499999,236.72 372.66,236.72 L373.75,236.72 C373.930001,236.72 374.079999,236.763333 374.2,236.85 C374.32,236.936667 374.4,237.046666 374.44,237.18 L376.12,242.78 L376.282222,243.342222 C376.307407,243.434074 376.331667,243.525 376.355,243.615 L376.56,244.43 L376.56,244.43 C376.606667,244.143332 376.658333,243.856668 376.715,243.57 C376.771667,243.283332 376.843333,242.986668 376.93,242.68 L378.45,237.2 C378.483333,237.066666 378.563333,236.956667 378.69,236.87 C378.816667,236.783333 378.963332,236.74 379.13,236.74 L381,236.74 L377.75,247 L375.76,247 C375.546666,247 375.393334,246.853335 375.3,246.56 L373.45,240.63 C373.39,240.436666 373.335,240.241668 373.285,240.045 C373.235,239.848332 373.193333,239.653334 373.16,239.46 C373.12,239.660001 373.076667,239.858332 373.03,240.055 C372.983333,240.251668 372.93,240.449999 372.87,240.65 L371,246.56 C370.906666,246.853335 370.726668,247 370.46,247 L368.57,247 L365.32,236.74 Z M386.63,236.58 C387.27667,236.58 387.871664,236.683332 388.415,236.89 C388.958336,237.096668 389.426665,237.398331 389.82,237.795 C390.213335,238.191669 390.519999,238.67833 390.74,239.255 C390.960001,239.83167 391.07,240.489996 391.07,241.23 C391.07,241.416668 391.061667,241.571666 391.045,241.695 C391.028333,241.818334 390.998334,241.915 390.955,241.985 C390.911666,242.055 390.853334,242.105 390.78,242.135 C390.706666,242.165 390.613334,242.18 390.5,242.18 L384.16,242.18 C384.233334,243.233339 384.516664,244.006664 385.01,244.5 C385.503336,244.993336 386.156663,245.24 386.97,245.24 C387.370002,245.24 387.714999,245.193334 388.005,245.1 C388.295001,245.006666 388.548332,244.903334 388.765,244.79 L389.162778,244.576667 C389.223148,244.543333 389.280555,244.511111 389.335,244.48 C389.498334,244.386666 389.656666,244.34 389.81,244.34 C389.91,244.34 389.996666,244.36 390.07,244.4 C390.143334,244.44 390.206666,244.496666 390.26,244.57 L390.98,245.47 C390.706665,245.790002 390.400002,246.058332 390.06,246.275 C389.719998,246.491668 389.365002,246.664999 388.995,246.795 C388.624998,246.925001 388.248335,247.016666 387.865,247.07 C387.481665,247.123334 387.110002,247.15 386.75,247.15 C386.036663,247.15 385.373336,247.031668 384.76,246.795 C384.146664,246.558332 383.613336,246.208336 383.16,245.745 C382.706664,245.281664 382.350001,244.708337 382.09,244.025 C381.829999,243.341663 381.7,242.550005 381.7,241.65 C381.7,240.949997 381.813332,240.29167 382.04,239.675 C382.266668,239.05833 382.591665,238.521669 383.015,238.065 C383.438335,237.608331 383.954997,237.246668 384.565,236.98 C385.175003,236.713332 385.863329,236.58 386.63,236.58 Z M386.68,238.35 C385.959996,238.35 385.396669,238.553331 384.99,238.96 C384.583331,239.366669 384.323334,239.94333 384.21,240.69 L388.85,240.69 C388.85,240.369998 388.806667,240.068335 388.72,239.785 C388.633333,239.501665 388.500001,239.253334 388.32,239.04 C388.139999,238.826666 387.913335,238.658334 387.64,238.535 C387.366665,238.411666 387.046668,238.35 386.68,238.35 Z M393.11,247 L393.11,232.14 L395.58,232.14 L395.58,238 C395.986669,237.566665 396.446664,237.221668 396.96,236.965 C397.473336,236.708332 398.07333,236.58 398.76,236.58 C399.320003,236.58 399.831664,236.694999 400.295,236.925 C400.758336,237.155001 401.158332,237.489998 401.495,237.93 C401.831668,238.370002 402.091666,238.91333 402.275,239.56 C402.458334,240.20667 402.55,240.949996 402.55,241.79 C402.55,242.556671 402.446668,243.266663 402.24,243.92 C402.033332,244.573337 401.738335,245.14 401.355,245.62 C400.971665,246.100002 400.508336,246.474999 399.965,246.745 C399.421664,247.015001 398.813337,247.15 398.14,247.15 C397.826665,247.15 397.540001,247.118334 397.28,247.055 C397.019999,246.991666 396.783334,246.903334 396.57,246.79 C396.356666,246.676666 396.158334,246.538334 395.975,246.375 C395.791666,246.211666 395.616667,246.030001 395.45,245.83 L395.34,246.52 C395.3,246.693334 395.231667,246.816666 395.135,246.89 C395.038333,246.963334 394.906667,247 394.74,247 L393.11,247 Z M397.91,238.5 C397.396664,238.5 396.958335,238.608332 396.595,238.825 C396.231665,239.041668 395.893335,239.346665 395.58,239.74 L395.58,244.34 C395.860001,244.686668 396.164998,244.928333 396.495,245.065 C396.825002,245.201667 397.183331,245.27 397.57,245.27 C397.943335,245.27 398.279998,245.200001 398.58,245.06 C398.880001,244.919999 399.134999,244.706668 399.345,244.42 C399.555001,244.133332 399.716666,243.771669 399.83,243.335 C399.943334,242.898331 400,242.383336 400,241.79 C400,241.189997 399.951667,240.681669 399.855,240.265 C399.758333,239.848331 399.620001,239.510001 399.44,239.25 C399.259999,238.989999 399.041668,238.800001 398.785,238.68 C398.528332,238.559999 398.236668,238.5 397.91,238.5 Z M410.57,238.74 C410.503333,238.846667 410.433334,238.921666 410.36,238.965 C410.286666,239.008334 410.193334,239.03 410.08,239.03 C409.959999,239.03 409.831667,238.996667 409.695,238.93 L409.22,238.705 L409.22,238.705 C409.039999,238.621666 408.835001,238.546667 408.605,238.48 C408.374999,238.413333 408.103335,238.38 407.79,238.38 C407.303331,238.38 406.920001,238.483332 406.64,238.69 C406.359999,238.896668 406.22,239.166665 406.22,239.5 C406.22,239.720001 406.291666,239.904999 406.435,240.055 C406.578334,240.205001 406.768332,240.336666 407.005,240.45 C407.182501,240.535 407.377812,240.613437 407.590937,240.685312 L407.81,240.755 C408.110001,240.845 408.416665,240.943333 408.73,241.05 C409.043335,241.156667 409.349998,241.278333 409.65,241.415 C409.950001,241.551667 410.218332,241.724999 410.455,241.935 C410.691668,242.145001 410.881666,242.396665 411.025,242.69 C411.168334,242.983335 411.24,243.336665 411.24,243.75 C411.24,244.243336 411.150001,244.698331 410.97,245.115 C410.789999,245.531669 410.526668,245.891665 410.18,246.195 C409.833332,246.498335 409.405003,246.734999 408.895,246.905 C408.384997,247.075001 407.800003,247.16 407.14,247.16 C406.786665,247.16 406.441668,247.128334 406.105,247.065 C405.768332,247.001666 405.445002,246.913334 405.135,246.8 C404.824998,246.686666 404.538335,246.553334 404.275,246.4 C404.011665,246.246666 403.780001,246.08 403.58,245.9 L404.15,244.96 C404.223334,244.846666 404.309999,244.76 404.41,244.7 C404.51,244.64 404.636666,244.61 404.79,244.61 C404.943334,244.61 405.088333,244.653333 405.225,244.74 C405.361667,244.826667 405.519999,244.92 405.7,245.02 C405.880001,245.120001 406.091665,245.213333 406.335,245.3 C406.578335,245.386667 406.886665,245.43 407.26,245.43 C407.553335,245.43 407.804999,245.395 408.015,245.325 C408.225001,245.255 408.398333,245.163334 408.535,245.05 C408.671667,244.936666 408.771666,244.805001 408.835,244.655 C408.898334,244.504999 408.93,244.350001 408.93,244.19 C408.93,243.949999 408.858334,243.753334 408.715,243.6 C408.571666,243.446666 408.381668,243.313334 408.145,243.2 C407.967499,243.115 407.77125,243.036563 407.55625,242.964688 L407.335,242.895 C407.031665,242.805 406.721668,242.706667 406.405,242.6 C406.088332,242.493333 405.778335,242.368334 405.475,242.225 C405.171665,242.081666 404.901668,241.900001 404.665,241.68 C404.428332,241.459999 404.238334,241.190002 404.095,240.87 C403.951666,240.549998 403.88,240.163336 403.88,239.71 C403.88,239.289998 403.963332,238.890002 404.13,238.51 C404.296667,238.129998 404.541665,237.798335 404.865,237.515 C405.188335,237.231665 405.591664,237.005001 406.075,236.835 C406.558336,236.664999 407.116663,236.58 407.75,236.58 C408.45667,236.58 409.099997,236.696666 409.68,236.93 C410.260003,237.163335 410.743331,237.469998 411.13,237.85 L410.57,238.74 Z M415.85,236.74 L415.85,247 L413.38,247 L413.38,236.74 L415.85,236.74 Z M416.22,233.75 C416.22,233.963334 416.176667,234.163332 416.09,234.35 C416.003333,234.536668 415.888334,234.699999 415.745,234.84 C415.601666,234.980001 415.433334,235.091666 415.24,235.175 C415.046666,235.258334 414.840001,235.3 414.62,235.3 C414.406666,235.3 414.205001,235.258334 414.015,235.175 C413.824999,235.091666 413.660001,234.980001 413.52,234.84 C413.379999,234.699999 413.268334,234.536668 413.185,234.35 C413.101666,234.163332 413.06,233.963334 413.06,233.75 C413.06,233.529999 413.101666,233.323334 413.185,233.13 C413.268334,232.936666 413.379999,232.770001 413.52,232.63 C413.660001,232.489999 413.824999,232.378334 414.015,232.295 C414.205001,232.211666 414.406666,232.17 414.62,232.17 C414.840001,232.17 415.046666,232.211666 415.24,232.295 C415.433334,232.378334 415.601666,232.489999 415.745,232.63 C415.888334,232.770001 416.003333,232.936666 416.09,233.13 C416.176667,233.323334 416.22,233.529999 416.22,233.75 Z M422.01,247.16 C421.123329,247.16 420.440002,246.908336 419.96,246.405 C419.479998,245.901664 419.24,245.206671 419.24,244.32 L419.24,238.59 L418.2,238.59 C418.066666,238.59 417.951667,238.546667 417.855,238.46 C417.758333,238.373333 417.71,238.243334 417.71,238.07 L417.71,237.09 L419.36,236.82 L419.88,234.02 C419.906667,233.886666 419.968333,233.783334 420.065,233.71 C420.161667,233.636666 420.283333,233.6 420.43,233.6 L421.71,233.6 L421.71,236.83 L424.41,236.83 L424.41,238.59 L421.71,238.59 L421.71,244.15 C421.71,244.470002 421.789999,244.719999 421.95,244.9 C422.110001,245.080001 422.323332,245.17 422.59,245.17 C422.743334,245.17 422.871666,245.151667 422.975,245.115 C423.078334,245.078333 423.168333,245.04 423.245,245 L423.45,244.885 L423.45,244.885 C423.51,244.848333 423.57,244.83 423.63,244.83 C423.703334,244.83 423.763333,244.848333 423.81,244.885 C423.856667,244.921667 423.906666,244.976666 423.96,245.05 L424.7,246.25 C424.339998,246.550002 423.926669,246.776666 423.46,246.93 C422.993331,247.083334 422.510002,247.16 422.01,247.16 Z M430.62,236.58 C431.26667,236.58 431.861664,236.683332 432.405,236.89 C432.948336,237.096668 433.416665,237.398331 433.81,237.795 C434.203335,238.191669 434.509999,238.67833 434.73,239.255 C434.950001,239.83167 435.06,240.489996 435.06,241.23 C435.06,241.416668 435.051667,241.571666 435.035,241.695 C435.018333,241.818334 434.988334,241.915 434.945,241.985 C434.901666,242.055 434.843334,242.105 434.77,242.135 C434.696666,242.165 434.603334,242.18 434.49,242.18 L428.15,242.18 C428.223334,243.233339 428.506664,244.006664 429,244.5 C429.493336,244.993336 430.146663,245.24 430.96,245.24 C431.360002,245.24 431.704999,245.193334 431.995,245.1 C432.285001,245.006666 432.538332,244.903334 432.755,244.79 L433.152778,244.576667 C433.213148,244.543333 433.270555,244.511111 433.325,244.48 C433.488334,244.386666 433.646666,244.34 433.8,244.34 C433.9,244.34 433.986666,244.36 434.06,244.4 C434.133334,244.44 434.196666,244.496666 434.25,244.57 L434.97,245.47 C434.696665,245.790002 434.390002,246.058332 434.05,246.275 C433.709998,246.491668 433.355002,246.664999 432.985,246.795 C432.614998,246.925001 432.238335,247.016666 431.855,247.07 C431.471665,247.123334 431.100002,247.15 430.74,247.15 C430.026663,247.15 429.363336,247.031668 428.75,246.795 C428.136664,246.558332 427.603336,246.208336 427.15,245.745 C426.696664,245.281664 426.340001,244.708337 426.08,244.025 C425.819999,243.341663 425.69,242.550005 425.69,241.65 C425.69,240.949997 425.803332,240.29167 426.03,239.675 C426.256668,239.05833 426.581665,238.521669 427.005,238.065 C427.428335,237.608331 427.944997,237.246668 428.555,236.98 C429.165003,236.713332 429.853329,236.58 430.62,236.58 Z M430.67,238.35 C429.949996,238.35 429.386669,238.553331 428.98,238.96 C428.573331,239.366669 428.313334,239.94333 428.2,240.69 L432.84,240.69 C432.84,240.369998 432.796667,240.068335 432.71,239.785 C432.623333,239.501665 432.490001,239.253334 432.31,239.04 C432.129999,238.826666 431.903335,238.658334 431.63,238.535 C431.356665,238.411666 431.036668,238.35 430.67,238.35 Z M436.48,245.64 C436.48,245.433332 436.518333,245.236668 436.595,245.05 C436.671667,244.863332 436.778333,244.703334 436.915,244.57 C437.051667,244.436666 437.213332,244.33 437.4,244.25 C437.586668,244.17 437.786666,244.13 438,244.13 C438.206668,244.13 438.403332,244.17 438.59,244.25 C438.776668,244.33 438.936666,244.436666 439.07,244.57 C439.203334,244.703334 439.31,244.863332 439.39,245.05 C439.47,245.236668 439.51,245.433332 439.51,245.64 C439.51,245.853334 439.47,246.051666 439.39,246.235 C439.31,246.418334 439.203334,246.576666 439.07,246.71 C438.936666,246.843334 438.776668,246.948333 438.59,247.025 C438.403332,247.101667 438.206668,247.14 438,247.14 C437.786666,247.14 437.586668,247.101667 437.4,247.025 C437.213332,246.948333 437.051667,246.843334 436.915,246.71 C436.778333,246.576666 436.671667,246.418334 436.595,246.235 C436.518333,246.051666 436.48,245.853334 436.48,245.64 Z M448.78,238.91 C448.706666,239.003334 448.635,239.076666 448.565,239.13 C448.495,239.183334 448.393334,239.21 448.26,239.21 C448.133333,239.21 448.010001,239.171667 447.89,239.095 C447.769999,239.018333 447.626667,238.931667 447.46,238.835 C447.293332,238.738333 447.095001,238.651667 446.865,238.575 C446.634999,238.498333 446.350002,238.46 446.01,238.46 C445.576664,238.46 445.196668,238.538333 444.87,238.695 C444.543332,238.851667 444.271668,239.076665 444.055,239.37 C443.838332,239.663335 443.676667,240.018331 443.57,240.435 C443.463333,240.851669 443.41,241.323331 443.41,241.85 C443.41,242.396669 443.468333,242.883331 443.585,243.31 C443.701667,243.736669 443.869999,244.094999 444.09,244.385 C444.310001,244.675001 444.576665,244.894999 444.89,245.045 C445.203335,245.195001 445.556665,245.27 445.95,245.27 C446.343335,245.27 446.661665,245.221667 446.905,245.125 C447.148335,245.028333 447.353332,244.921667 447.52,244.805 L447.824444,244.585 C447.87037,244.550556 447.913889,244.517222 447.955,244.485 C448.078334,244.388333 448.216666,244.34 448.37,244.34 C448.536667,244.34 448.668611,244.39324 448.765833,244.499722 L449.53,245.47 C449.256665,245.790002 448.960002,246.058332 448.64,246.275 C448.319998,246.491668 447.988335,246.664999 447.645,246.795 C447.301665,246.925001 446.946668,247.016666 446.58,247.07 C446.213331,247.123334 445.850002,247.15 445.49,247.15 C444.856663,247.15 444.260003,247.031668 443.7,246.795 C443.139997,246.558332 442.651669,246.213336 442.235,245.76 C441.818331,245.306664 441.488335,244.75167 441.245,244.095 C441.001665,243.43833 440.88,242.690004 440.88,241.85 C440.88,241.096663 440.988332,240.398337 441.205,239.755 C441.421668,239.111663 441.739998,238.555002 442.16,238.085 C442.580002,237.614998 443.099997,237.246668 443.72,236.98 C444.340003,236.713332 445.053329,236.58 445.86,236.58 C446.62667,236.58 447.29833,236.703332 447.875,236.95 C448.45167,237.196668 448.969998,237.549998 449.43,238.01 L448.78,238.91 Z M455.49,236.58 C456.25667,236.58 456.951664,236.703332 457.575,236.95 C458.198336,237.196668 458.729998,237.546664 459.17,238 C459.610002,238.453336 459.949999,239.006663 460.19,239.66 C460.430001,240.313337 460.55,241.043329 460.55,241.85 C460.55,242.663337 460.430001,243.396663 460.19,244.05 C459.949999,244.703337 459.610002,245.259998 459.17,245.72 C458.729998,246.180002 458.198336,246.533332 457.575,246.78 C456.951664,247.026668 456.25667,247.15 455.49,247.15 C454.723329,247.15 454.02667,247.026668 453.4,246.78 C452.77333,246.533332 452.238336,246.180002 451.795,245.72 C451.351664,245.259998 451.008335,244.703337 450.765,244.05 C450.521665,243.396663 450.4,242.663337 450.4,241.85 C450.4,241.043329 450.521665,240.313337 450.765,239.66 C451.008335,239.006663 451.351664,238.453336 451.795,238 C452.238336,237.546664 452.77333,237.196668 453.4,236.95 C454.02667,236.703332 454.723329,236.58 455.49,236.58 Z M455.49,245.25 C456.343338,245.25 456.974998,244.963336 457.385,244.39 C457.795002,243.816664 458,242.976672 458,241.87 C458,240.763328 457.795002,239.920003 457.385,239.34 C456.974998,238.759997 456.343338,238.47 455.49,238.47 C454.623329,238.47 453.983335,238.761664 453.57,239.345 C453.156665,239.928336 452.95,240.769995 452.95,241.87 C452.95,242.97 453.156665,243.80833 453.57,244.385 C453.983335,244.96167 454.623329,245.25 455.49,245.25 Z M462.48,247 L462.48,236.74 L463.99,236.74 C464.310002,236.74 464.519999,236.889999 464.62,237.19 L464.78,237.95 C464.960001,237.749999 465.148332,237.566668 465.345,237.4 C465.541668,237.233333 465.751666,237.090001 465.975,236.97 C466.198334,236.849999 466.438332,236.755 466.695,236.685 C466.951668,236.615 467.233332,236.58 467.54,236.58 C468.18667,236.58 468.718331,236.754998 469.135,237.105 C469.551669,237.455002 469.863332,237.919997 470.07,238.5 C470.230001,238.159998 470.429999,237.868335 470.67,237.625 C470.910001,237.381665 471.173332,237.183334 471.46,237.03 C471.746668,236.876666 472.051665,236.763334 472.375,236.69 C472.698335,236.616666 473.023332,236.58 473.35,236.58 C473.916669,236.58 474.419998,236.666666 474.86,236.84 C475.300002,237.013334 475.669998,237.266665 475.97,237.6 C476.270001,237.933335 476.498333,238.339998 476.655,238.82 C476.811667,239.300002 476.89,239.849997 476.89,240.47 L476.89,247 L474.42,247 L474.42,240.47 C474.42,239.816663 474.276668,239.325002 473.99,238.995 C473.703332,238.664998 473.283336,238.5 472.73,238.5 C472.476665,238.5 472.241668,238.543333 472.025,238.63 C471.808332,238.716667 471.618334,238.841666 471.455,239.005 C471.291666,239.168334 471.163334,239.373332 471.07,239.62 C470.976666,239.866668 470.93,240.149998 470.93,240.47 L470.93,247 L468.45,247 L468.45,240.47 C468.45,239.78333 468.311668,239.283335 468.035,238.97 C467.758332,238.656665 467.350003,238.5 466.81,238.5 C466.456665,238.5 466.125002,238.588332 465.815,238.765 C465.504998,238.941668 465.216668,239.183332 464.95,239.49 L464.95,247 L462.48,247 Z" id="www.yourwebsite.com" fill="#427FE0" fill-rule="nonzero"></path>
                    </g>
                </g>
            </g>
        </g>
    </g>
</svg>