<?xml version="1.0" encoding="UTF-8"?>
<svg width="313px" height="313px" viewBox="0 0 313 313" version="1.1" xmlns="http://www.w3.org/2000/svg" xmlns:xlink="http://www.w3.org/1999/xlink">
    <!-- Generator: Sketch 63.1 (92452) - https://sketch.com -->
    <title>img_honesty_mob</title>
    <desc>Created with Sketch.</desc>
    <defs>
        <polygon id="path-1" points="0.000223571429 0.284966064 312.710475 0.284966064 312.710475 312.903913 0.000223571429 312.903913"></polygon>
    </defs>
    <g id="Page-1" stroke="none" stroke-width="1" fill="none" fill-rule="evenodd">
        <g id="FAQs---How-To-Pick-The-Best-SEO-Agency---Mobile" transform="translate(-31.000000, -3729.000000)">
            <g id="img_honesty_mob" transform="translate(31.000000, 3729.000000)">
                <g id="Group-26">
                    <g id="Group-3">
                        <mask id="mask-2" fill="white">
                            <use xlink:href="#path-1"></use>
                        </mask>
                        <g id="Clip-2"></g>
                        <path d="M312.710699,156.592763 C312.710699,242.925188 242.700424,312.903913 156.351549,312.903913 C70.0004379,312.903913 0.000223571429,242.925188 0.000223571429,156.592763 C0.000223571429,70.2648087 70.0004379,0.284966064 156.351549,0.284966064 C242.700424,0.284966064 312.710699,70.2648087 312.710699,156.592763" id="Fill-1" fill="#427FE0" mask="url(#mask-2)"></path>
                    </g>
                    <path d="M180.703428,311.000634 C255.374606,299.504059 312.600856,235.382972 313,157.864064 L251.982444,96.4851365 L199.114351,144.334815 L111.62697,124.747644 L93.7135796,105.529139 L35.6107784,166.460321 L180.703428,311.000634 Z" id="Fill-4" fill="#285398"></path>
                    <path d="M207.10479,211.116574 L203.210768,211.73537 L201.386815,213.21113 L188.468552,221.434655 C188.468552,221.434655 186.363645,221.670598 186.063586,222.603243 C185.75566,223.5025 170.098658,227.877473 170.098658,227.877473 L166.98344,229.50348 L137.757485,205.377135 L152.601969,173.213128 L172.428328,169.551551 L207.10479,211.116574 Z" id="Fill-6" fill="#C69463"></path>
                    <path d="M209.180895,129.326893 C214.678774,136.296975 219.589782,143.73463 223.949555,151.465774 C227.011975,156.881369 229.777061,162.469933 232.177999,168.197987 C233.551076,171.446451 234.798317,174.744016 235.900788,178.076175 C236.936443,181.18738 234.629048,183.584392 232.348381,185.504903 C231.583332,186.117547 228.460778,188.802468 224.544221,191.557692 C220.607619,194.319612 213.652028,198.731989 213.134201,198.90161 C215.983922,204.834995 208.977105,212.561675 202.862287,211.923365 C195.829857,205.70207 189.094761,199.445066 182.673701,192.611128 C179.586782,189.28678 176.514339,185.963549 173.444124,182.632506 C172.664599,181.78217 168.607727,178.177725 168.040901,178.942135 C167.489666,179.707661 171.307112,183.70268 171.875051,184.315324 C174.861746,187.579412 177.846213,190.808905 180.857408,194.039515 C187.28849,200.890192 194.022473,207.171746 201.054903,213.403084 C201.283192,219.658972 193.395512,222.532485 188.253987,221.648671 C184.691557,219.217065 180.958746,216.938342 177.498768,214.371709 C175.259304,212.70563 173.283764,210.547426 171.281499,208.6258 C167.58989,205.116208 163.96844,201.579835 160.339193,198.025607 C159.465012,197.167459 155.393664,194.167846 155.147556,194.549493 C154.884745,194.923329 155.562932,196.548119 156.750037,197.727654 C161.441665,202.420128 165.539739,206.348192 170.348296,210.921262 C175.200283,215.544549 180.306172,219.013966 185.870867,222.82151 C185.336336,225.728501 180.773887,228.771634 177.957574,229.077398 C175.28603,229.340757 172.65569,228.65223 170.050963,228.108773 C165.07982,224.623733 160.271263,221.069504 155.928195,216.836792 C153.934838,214.916282 150.261048,211.703527 147.784385,209.765161 C146.419103,208.693871 145.443583,208.005344 145.315518,208.133676 C144.968072,208.489656 146.156291,210.563049 146.707527,211.073028 C153.391398,217.602318 159.990634,223.823613 167.692342,229.263758 C162.865968,232.833609 154.731067,231.610553 150.354591,227.615534 L147.376805,224.861425 C146.885704,225.574503 89.1952792,180.812429 89.323344,180.523404 C85.6584625,177.821744 77.5324702,173.265413 74.9700599,171.395119 C81.7474737,157.208336 93.0639509,126.203413 96.5072246,116.618714 C102.666586,118.4254 113.947428,120.223159 120.318375,120.521111 C128.936582,120.932888 137.562584,121.374796 146.189699,121.816703 C151.526106,119.667427 157.124209,115.594293 162.950603,115.24166 C168.762519,114.89349 174.003155,118.850568 179.194792,120.932888 C183.853011,122.777516 188.543525,124.529522 193.250743,126.18221 C196.49134,127.312645 199.901205,128.821378 203.318866,129.323545 C205.373472,129.276677 207.458144,127.129633 209.180895,129.326893 C214.772317,136.402988 208.671976,128.655105 209.180895,129.326893" id="Fill-8" fill="#D0A072"></path>
                    <path d="M152.739044,119.422209 C145.255126,122.862604 138.008492,125.131513 138.008492,125.131513 C130.541284,125.601678 128.639669,138.550846 126.781501,144.320745 C125.432435,148.534274 123.981994,152.978958 123.717974,157.435985 C123.447269,161.833541 126.365975,163.23618 130.642659,163.23618 C136.658312,163.23618 140.570715,158.141794 143.64204,153.602852 C145.560365,150.76952 147.741596,147.782459 148.979261,144.5519 L158.550834,144.230976 L158.559746,144.239952 C163.736549,147.427872 166.55388,146.979027 170.566544,151.624569 C175.13287,156.910837 182.124396,166.151427 186.222838,171.792282 C188.4542,174.82535 191.323889,177.442114 193.937357,180.125083 C195.940346,182.176303 197.76398,184.382374 199.791478,186.407786 C203.508929,190.143296 209.033304,196.023161 212.970215,199.527515 C213.275454,199.511806 213.556184,199.425403 213.870335,199.323291 C214.479698,199.323291 225.843713,191.613262 227.268531,190.519203 C227.268531,190.519203 252.919722,173.432809 254.898204,170.159609 C249.211183,152.470641 234.302389,134.48768 222.830316,119.943991 C221.710736,120.383859 206.49559,127.080621 205.265723,127.080621 C202.295772,127.080621 197.448716,127.657387 194.692655,126.709202 C190.024954,125.093361 185.373963,123.384385 180.783128,121.576664 C176.108743,119.755476 171.535732,116.686501 166.680878,115.508284 C161.58094,114.259374 157.168347,117.349669 152.739044,119.422209 C145.255126,122.862604 153.443098,119.088942 152.739044,119.422209" id="Fill-10" fill="#FBD099"></path>
                    <path d="M144.759616,218.042743 C141.693449,215.361304 138.087842,214.669356 138.045225,214.68707 C137.965599,214.757925 137.87588,214.836531 137.794011,214.910708 C139.124104,213.242281 138.845973,207.547268 136.925973,205.60317 C134.757002,202.711379 128.759247,201.868862 125.889341,203.9591 L124.879996,204.875794 C124.80822,204.971006 124.879996,204.875794 124.879996,204.875794 C125.944295,203.446505 126.721491,200.39861 123.898688,196.791621 C121.430277,193.662907 116.714391,192.27126 113.177196,194.176609 C113.15813,194.259643 113.141308,194.329392 113.123364,194.40689 C113.118878,194.434568 113.122242,194.462246 113.117756,194.489924 C113.104299,194.582921 113.095327,194.671491 113.085233,194.761167 C113.071775,194.747882 113.059439,194.736811 113.047102,194.724633 C113.071775,194.626099 113.09757,194.51428 113.123364,194.40689 C113.87813,188.30335 106.97645,182.24631 101.414956,184.749503 L98.3566395,186.974809 L88.5839322,181.729286 C88.2418762,185.878763 87.3872971,193.65405 89.2579507,197.499069 C89.5573899,198.646043 91.3955201,201.751508 91.6500995,202.053751 C94.7678555,205.738238 99.2986953,206.338296 99.2886018,206.338296 C99.2773869,206.342725 100.107293,214.963849 109.598505,217.106122 C110.289346,217.262225 111.783177,216.66881 111.843738,216.633383 C111.849346,216.637811 111.313271,218.0671 112.245233,219.945878 C114.094579,223.675758 118.751026,228.90246 124.059062,226.350554 C122.185043,231.142159 131.358872,237.508085 135.900927,234.216624 L145.691578,227.251747 C148.365222,225.346398 146.870269,219.898272 144.759616,218.042743" id="Fill-12" fill="#FBD099"></path>
                    <path d="M100.272455,112.863926 C100.272455,112.863926 97.2065365,126.305677 74.0762728,175.172044 L57.1646707,170.811316 L84.6316474,106.789374 L100.272455,112.863926 Z" id="Fill-14" fill="#F9F5ED"></path>
                    <path d="M92.7754491,109.514745 C92.7754491,109.514745 81.0341549,142.871196 66.4163894,173.298546 L51.5419162,168.966715 L79.1643364,103.979128 L92.7754491,109.514745 Z" id="Fill-16" fill="#BFBFBF"></path>
                    <path d="M93.7125749,104.827998 C93.7125749,104.827998 80.9554152,139.113568 63.9537003,177.045542 L34.6736527,166.841423 L67.1074697,90.8646431 L93.7125749,104.827998 Z" id="Fill-18" fill="#FF5254"></path>
                    <path d="M218.350299,118.4888 C218.350299,118.4888 221.44094,131.926971 244.562132,180.792537 L261.458084,176.43076 L234.003007,112.409868 L218.350299,118.4888 Z" id="Fill-20" fill="#F9F5ED"></path>
                    <path d="M225.847305,114.201592 C225.847305,114.201592 237.585727,147.555296 252.207762,177.982291 L267.080838,173.65067 L239.462934,108.662872 L225.847305,114.201592 Z" id="Fill-22" fill="#BFBFBF"></path>
                    <path d="M224.91018,110.44816 C224.91018,110.44816 237.691375,144.733527 254.671819,182.666035 L283.949102,172.455155 L251.519586,96.4851365 L224.91018,110.44816 Z" id="Fill-24" fill="#FF5254"></path>
                </g>
            </g>
        </g>
    </g>
</svg>