<?xml version="1.0" encoding="UTF-8"?>
<svg width="453px" height="453px" viewBox="0 0 453 453" version="1.1" xmlns="http://www.w3.org/2000/svg" xmlns:xlink="http://www.w3.org/1999/xlink">
    <!-- Generator: Sketch 63.1 (92452) - https://sketch.com -->
    <title>img_insightful_analytics</title>
    <desc>Created with Sketch.</desc>
    <defs>
        <linearGradient x1="46.7060004%" y1="-5.73065807%" x2="50.824924%" y2="38.5457828%" id="linearGradient-1">
            <stop stop-color="#80C3F3" offset="0%"></stop>
            <stop stop-color="#4A90E2" offset="100%"></stop>
        </linearGradient>
    </defs>
    <g id="Page-1" stroke="none" stroke-width="1" fill="none" fill-rule="evenodd">
        <g id="FAQs---What's-Google-My-Business" transform="translate(-805.000000, -3795.000000)" fill-rule="nonzero">
            <g id="img_insightful_analytics" transform="translate(805.000000, 3795.000000)">
                <polygon id="Path" fill="#FF5254" points="0 0 453 0 453 42 0 42"></polygon>
                <path d="M0,416.333333 L188.75,416.333333 L188.75,431 C188.75,443.131533 198.910035,453 211.4,453 L241.6,453 C254.089965,453 264.25,443.131533 264.25,431 L264.25,416.333333 L453,416.333333 L453,387 L0,387 L0,416.333333 Z M249.15,416.333333 L249.15,431 C249.15,435.04624 245.762089,438.333333 241.6,438.333333 L211.4,438.333333 C207.237912,438.333333 203.85,435.04624 203.85,431 L203.85,416.333333 L249.15,416.333333 Z" id="Shape" fill="#FF5254"></path>
                <path d="M23,60 L23,369 L434,369 L434,60 L23,60 Z M137.166667,112.756098 L137.166667,157.97561 L169.458176,126.00029 C177.721939,134.183665 182.833333,145.488543 182.833333,157.97561 C182.833333,182.949743 162.387758,203.195122 137.166667,203.195122 C111.945576,203.195122 91.5,182.949743 91.5,157.97561 C91.5,133.001476 111.945576,112.756098 137.166667,112.756098 Z M68.6666667,346.390244 L53.4444444,346.390244 L53.4444444,331.317073 L68.6666667,331.317073 L68.6666667,346.390244 Z M53.4444444,157.97561 L68.6666667,157.97561 C68.6666667,195.378854 99.3972889,225.804878 137.166667,225.804878 C174.936044,225.804878 205.666667,195.378854 205.666667,157.97561 C205.666667,120.572366 174.936044,90.1463415 137.166667,90.1463415 L137.166667,75.0731707 C183.331328,75.0731707 220.888889,112.262979 220.888889,157.97561 C220.888889,203.688241 183.331328,240.878049 137.166667,240.878049 C91.002005,240.878049 53.4444444,203.688241 53.4444444,157.97561 Z M99.1111111,346.390244 L83.8888889,346.390244 L83.8888889,331.317073 L99.1111111,331.317073 L99.1111111,346.390244 Z M380.722222,293.634146 C379.015963,293.634146 377.403473,293.293267 375.872346,292.780402 L334.758189,328.398832 C334.945956,329.344146 335.055556,330.317496 335.055556,331.317073 C335.055556,339.641609 328.240186,346.390244 319.833333,346.390244 C311.426481,346.390244 304.611111,339.641609 304.611111,331.317073 C304.611111,330.716784 304.720711,330.146415 304.789516,329.564516 L264.923124,299.957718 C263.086792,300.735569 261.067868,301.170732 258.944444,301.170732 C257.236739,301.170732 255.622956,300.8294 254.090382,300.315631 L212.980868,335.937301 C213.168178,336.882088 213.277778,337.854533 213.277778,338.853659 C213.277778,347.178194 206.462408,353.926829 198.055556,353.926829 C192.435511,353.926829 187.581449,350.876622 184.944656,346.390244 L114.333333,346.390244 L114.333333,331.317073 L184.944656,331.317073 C187.581449,326.830695 192.435435,323.780488 198.055556,323.780488 C199.762271,323.780488 201.375218,324.12182 202.906802,324.634684 L244.019512,289.016254 C243.831822,288.07094 243.722222,287.097138 243.722222,286.097561 C243.722222,277.772573 250.537592,271.02439 258.944444,271.02439 C267.351297,271.02439 274.166667,277.772573 274.166667,286.097561 C274.166667,286.69785 274.057067,287.268219 273.988262,287.850119 L313.854653,317.456916 C315.690986,316.679065 317.709909,316.243902 319.833333,316.243902 C321.541038,316.243902 323.154822,316.585687 324.687396,317.099003 L365.796909,281.475449 C365.6096,280.531114 365.5,279.559196 365.5,278.560976 C365.5,270.235988 372.315369,263.487805 380.722222,263.487805 C389.129075,263.487805 395.944444,270.235988 395.944444,278.560976 C395.944444,286.885511 389.129075,293.634146 380.722222,293.634146 Z M395.944444,225.804878 L228.5,225.804878 L228.5,210.731707 L251.333333,210.731707 L251.333333,173.04878 L281.777778,173.04878 L281.777778,127.829268 L312.222222,127.829268 L312.222222,150.439024 L342.666667,150.439024 L342.666667,90.1463415 L373.111111,90.1463415 L373.111111,210.731707 L395.944444,210.731707 L395.944444,225.804878 Z" id="Shape" fill="url(#linearGradient-1)"></path>
            </g>
        </g>
    </g>
</svg>