<?xml version="1.0" encoding="UTF-8"?>
<svg width="477px" height="511px" viewBox="0 0 477 511" version="1.1" xmlns="http://www.w3.org/2000/svg" xmlns:xlink="http://www.w3.org/1999/xlink">
    <!-- Generator: Sketch 63.1 (92452) - https://sketch.com -->
    <title>img_audience</title>
    <desc>Created with Sketch.</desc>
    <g id="Page-1" stroke="none" stroke-width="1" fill="none" fill-rule="evenodd">
        <g id="FAQs---How-Much-Does-It-Cost-To-Advertise-On-Facebook" transform="translate(-793.000000, -2651.000000)">
            <g id="img_audience" transform="translate(793.000000, 2651.000000)">
                <path d="M37.6206413,29 L11.3793587,29 C5.08312685,29 0,34.0133068 0,40.2130332 L0,65.9389379 C0,71.6001741 4.23905216,76.3796791 9.76945782,77.1676408 L9.76945782,105.654894 C9.76945782,111.85462 14.861924,117 21.1536124,117 L27.8463876,117 C34.1428719,117 39.2257463,111.85462 39.2257463,105.654894 L39.2257463,77.1681383 C44.7548899,76.3816689 49,71.601169 49,65.9389379 L49,40.2130332 C49,34.0133068 43.9123297,29 37.6206413,29" id="Fill-1" fill="#427FE0"></path>
                <path d="M24.5704381,24 C31.3994602,24 37,18.6235372 37,11.9322565 C37,5.37671007 31.3994602,0 24.5704381,0 C17.6005398,0 12,5.37671007 12,11.9322565 C12,18.6235372 17.6005398,24 24.5704381,24" id="Fill-2" fill="#427FE0"></path>
                <path d="M98.6206413,29 L72.3793587,29 C66.0831269,29 61,34.0133068 61,40.2130332 L61,65.9389379 C61,71.6001741 65.2390522,76.3796791 70.7694578,77.1676408 L70.7694578,105.654894 C70.7694578,111.85462 75.861924,117 82.1536124,117 L88.8463876,117 C95.1428719,117 100.225746,111.85462 100.225746,105.654894 L100.225746,77.1681383 C105.75489,76.3816689 110,71.601169 110,65.9389379 L110,40.2130332 C110,34.0133068 104.91233,29 98.6206413,29" id="Fill-1" fill="#427FE0"></path>
                <path d="M86.0676206,24 C92.6234818,24 98,18.6235372 98,11.9322565 C98,5.37671007 92.6234818,0 86.0676206,0 C79.3765182,0 74,5.37671007 74,11.9322565 C74,18.6235372 79.3765182,24 86.0676206,24" id="Fill-2" fill="#427FE0"></path>
                <path d="M159.620641,29 L133.379359,29 C127.083127,29 122,34.0133068 122,40.2130332 L122,65.9389379 C122,71.6001741 126.239052,76.3796791 131.769458,77.1676408 L131.769458,105.654894 C131.769458,111.85462 136.861924,117 143.153612,117 L149.846388,117 C156.142872,117 161.225746,111.85462 161.225746,105.654894 L161.225746,77.1681383 C166.75489,76.3816689 171,71.601169 171,65.9389379 L171,40.2130332 C171,34.0133068 165.91233,29 159.620641,29" id="Fill-1" fill="#427FE0"></path>
                <path d="M147.570438,24 C154.39946,24 160,18.6235372 160,11.9322565 C160,5.37671007 154.39946,0 147.570438,0 C140.60054,0 135,5.37671007 135,11.9322565 C135,18.6235372 140.60054,24 147.570438,24" id="Fill-2" fill="#427FE0"></path>
                <path d="M220.620641,29 L194.379359,29 C188.083127,29 183,34.0133068 183,40.2130332 L183,65.9389379 C183,71.6001741 187.239052,76.3796791 192.769458,77.1676408 L192.769458,105.654894 C192.769458,111.85462 197.861924,117 204.153612,117 L210.846388,117 C217.142872,117 222.225746,111.85462 222.225746,105.654894 L222.225746,77.1681383 C227.75489,76.3816689 232,71.601169 232,65.9389379 L232,40.2130332 C232,34.0133068 226.91233,29 220.620641,29" id="Fill-1" fill="#427FE0"></path>
                <path d="M208.570438,24 C215.39946,24 221,18.6235372 221,11.9322565 C221,5.37671007 215.39946,0 208.570438,0 C201.60054,0 196,5.37671007 196,11.9322565 C196,18.6235372 201.60054,24 208.570438,24" id="Fill-2" fill="#427FE0"></path>
                <path d="M281.852873,29 L256.147127,29 C249.97939,29 245,34.0133068 245,40.2130332 L245,65.9389379 C245,71.6001741 249.152541,76.3796791 254.570081,77.1676408 L254.570081,105.654894 C254.570081,111.85462 259.558619,117 265.721906,117 L272.278094,117 C278.446079,117 283.425221,111.85462 283.425221,105.654894 L283.425221,77.1681383 C288.841525,76.3816689 293,71.601169 293,65.9389379 L293,40.2130332 C293,34.0133068 288.01616,29 281.852873,29" id="Fill-1" fill="#427FE0"></path>
                <path d="M269.570438,24 C276.39946,24 282,18.6235372 282,11.9322565 C282,5.37671007 276.39946,0 269.570438,0 C262.60054,0 257,5.37671007 257,11.9322565 C257,18.6235372 262.60054,24 269.570438,24" id="Fill-2" fill="#427FE0"></path>
                <path d="M342.852873,29 L317.147127,29 C310.97939,29 306,34.0133068 306,40.2130332 L306,65.9389379 C306,71.6001741 310.152541,76.3796791 315.570081,77.1676408 L315.570081,105.654894 C315.570081,111.85462 320.558619,117 326.721906,117 L333.278094,117 C339.446079,117 344.425221,111.85462 344.425221,105.654894 L344.425221,77.1681383 C349.841525,76.3816689 354,71.601169 354,65.9389379 L354,40.2130332 C354,34.0133068 349.01616,29 342.852873,29" id="Fill-1" fill="#427FE0"></path>
                <path d="M330.570438,24 C337.39946,24 343,18.6235372 343,11.9322565 C343,5.37671007 337.39946,0 330.570438,0 C323.60054,0 318,5.37671007 318,11.9322565 C318,18.6235372 323.60054,24 330.570438,24" id="Fill-2" fill="#427FE0"></path>
                <path d="M403.852873,29 L378.147127,29 C371.97939,29 367,34.0133068 367,40.2130332 L367,65.9389379 C367,71.6001741 371.152541,76.3796791 376.570081,77.1676408 L376.570081,105.654894 C376.570081,111.85462 381.558619,117 387.721906,117 L394.278094,117 C400.446079,117 405.425221,111.85462 405.425221,105.654894 L405.425221,77.1681383 C410.841525,76.3816689 415,71.601169 415,65.9389379 L415,40.2130332 C415,34.0133068 410.01616,29 403.852873,29" id="Fill-1" fill="#427FE0"></path>
                <path d="M391.570438,24 C398.39946,24 404,18.6235372 404,11.9322565 C404,5.37671007 398.39946,0 391.570438,0 C384.60054,0 379,5.37671007 379,11.9322565 C379,18.6235372 384.60054,24 391.570438,24" id="Fill-2" fill="#427FE0"></path>
                <path d="M465.620641,29 L439.379359,29 C433.083127,29 428,34.0133068 428,40.2130332 L428,65.9389379 C428,71.6001741 432.239052,76.3796791 437.769458,77.1676408 L437.769458,105.654894 C437.769458,111.85462 442.861924,117 449.153612,117 L455.846388,117 C462.142872,117 467.225746,111.85462 467.225746,105.654894 L467.225746,77.1681383 C472.75489,76.3816689 477,71.601169 477,65.9389379 L477,40.2130332 C477,34.0133068 471.91233,29 465.620641,29" id="Fill-1" fill="#427FE0"></path>
                <path d="M452.570438,24 C459.39946,24 465,18.6235372 465,11.9322565 C465,5.37671007 459.39946,0 452.570438,0 C445.60054,0 440,5.37671007 440,11.9322565 C440,18.6235372 445.60054,24 452.570438,24" id="Fill-2" fill="#427FE0"></path>
                <path d="M37.6206413,159 L11.3793587,159 C5.08312685,159 0,164.070276 0,170.340454 L0,196.358699 C0,202.084267 4.23905216,206.918085 9.76945782,207.715 L9.76945782,236.525972 C9.76945782,242.79615 14.861924,248 21.1536124,248 L27.8463876,248 C34.1428719,248 39.2257463,242.79615 39.2257463,236.525972 L39.2257463,207.715503 C44.7548899,206.920097 49,202.085273 49,196.358699 L49,170.340454 C49,164.070276 43.9123297,159 37.6206413,159" id="Fill-1" fill="#427FE0"></path>
                <path d="M24.5704381,155 C31.3994602,155 37,149.847556 37,143.435079 C37,137.15268 31.3994602,132 24.5704381,132 C17.6005398,132 12,137.15268 12,143.435079 C12,149.847556 17.6005398,155 24.5704381,155" id="Fill-2" fill="#427FE0"></path>
                <path d="M98.6206413,159 L72.3793587,159 C66.0831269,159 61,164.070276 61,170.340454 L61,196.358699 C61,202.084267 65.2390522,206.918085 70.7694578,207.715 L70.7694578,236.525972 C70.7694578,242.79615 75.861924,248 82.1536124,248 L88.8463876,248 C95.1428719,248 100.225746,242.79615 100.225746,236.525972 L100.225746,207.715503 C105.75489,206.920097 110,202.085273 110,196.358699 L110,170.340454 C110,164.070276 104.91233,159 98.6206413,159" id="Fill-1" fill="#427FE0"></path>
                <path d="M86.0676206,155 C92.6234818,155 98,149.847556 98,143.435079 C98,137.15268 92.6234818,132 86.0676206,132 C79.3765182,132 74,137.15268 74,143.435079 C74,149.847556 79.3765182,155 86.0676206,155" id="Fill-2" fill="#427FE0"></path>
                <path d="M159.620641,159 L133.379359,159 C127.083127,159 122,164.070276 122,170.340454 L122,196.358699 C122,202.084267 126.239052,206.918085 131.769458,207.715 L131.769458,236.525972 C131.769458,242.79615 136.861924,248 143.153612,248 L149.846388,248 C156.142872,248 161.225746,242.79615 161.225746,236.525972 L161.225746,207.715503 C166.75489,206.920097 171,202.085273 171,196.358699 L171,170.340454 C171,164.070276 165.91233,159 159.620641,159" id="Fill-1" fill="#FF5254"></path>
                <path d="M147.570438,155 C154.39946,155 160,149.847556 160,143.435079 C160,137.15268 154.39946,132 147.570438,132 C140.60054,132 135,137.15268 135,143.435079 C135,149.847556 140.60054,155 147.570438,155" id="Fill-2" fill="#FF5254"></path>
                <path d="M220.620641,159 L194.379359,159 C188.083127,159 183,164.070276 183,170.340454 L183,196.358699 C183,202.084267 187.239052,206.918085 192.769458,207.715 L192.769458,236.525972 C192.769458,242.79615 197.861924,248 204.153612,248 L210.846388,248 C217.142872,248 222.225746,242.79615 222.225746,236.525972 L222.225746,207.715503 C227.75489,206.920097 232,202.085273 232,196.358699 L232,170.340454 C232,164.070276 226.91233,159 220.620641,159" id="Fill-1" fill="#FF5254"></path>
                <path d="M208.570438,155 C215.39946,155 221,149.847556 221,143.435079 C221,137.15268 215.39946,132 208.570438,132 C201.60054,132 196,137.15268 196,143.435079 C196,149.847556 201.60054,155 208.570438,155" id="Fill-2" fill="#FF5254"></path>
                <path d="M281.852873,159 L256.147127,159 C249.97939,159 245,164.070276 245,170.340454 L245,196.358699 C245,202.084267 249.152541,206.918085 254.570081,207.715 L254.570081,236.525972 C254.570081,242.79615 259.558619,248 265.721906,248 L272.278094,248 C278.446079,248 283.425221,242.79615 283.425221,236.525972 L283.425221,207.715503 C288.841525,206.920097 293,202.085273 293,196.358699 L293,170.340454 C293,164.070276 288.01616,159 281.852873,159" id="Fill-1" fill="#FF5254"></path>
                <path d="M269.570438,155 C276.39946,155 282,149.847556 282,143.435079 C282,137.15268 276.39946,132 269.570438,132 C262.60054,132 257,137.15268 257,143.435079 C257,149.847556 262.60054,155 269.570438,155" id="Fill-2" fill="#FF5254"></path>
                <path d="M342.852873,159 L317.147127,159 C310.97939,159 306,164.070276 306,170.340454 L306,196.358699 C306,202.084267 310.152541,206.918085 315.570081,207.715 L315.570081,236.525972 C315.570081,242.79615 320.558619,248 326.721906,248 L333.278094,248 C339.446079,248 344.425221,242.79615 344.425221,236.525972 L344.425221,207.715503 C349.841525,206.920097 354,202.085273 354,196.358699 L354,170.340454 C354,164.070276 349.01616,159 342.852873,159" id="Fill-1" fill="#FF5254"></path>
                <path d="M330.570438,155 C337.39946,155 343,149.847556 343,143.435079 C343,137.15268 337.39946,132 330.570438,132 C323.60054,132 318,137.15268 318,143.435079 C318,149.847556 323.60054,155 330.570438,155" id="Fill-2" fill="#FF5254"></path>
                <path d="M403.852873,159 L378.147127,159 C371.97939,159 367,164.070276 367,170.340454 L367,196.358699 C367,202.084267 371.152541,206.918085 376.570081,207.715 L376.570081,236.525972 C376.570081,242.79615 381.558619,248 387.721906,248 L394.278094,248 C400.446079,248 405.425221,242.79615 405.425221,236.525972 L405.425221,207.715503 C410.841525,206.920097 415,202.085273 415,196.358699 L415,170.340454 C415,164.070276 410.01616,159 403.852873,159" id="Fill-1" fill="#427FE0"></path>
                <path d="M391.570438,155 C398.39946,155 404,149.847556 404,143.435079 C404,137.15268 398.39946,132 391.570438,132 C384.60054,132 379,137.15268 379,143.435079 C379,149.847556 384.60054,155 391.570438,155" id="Fill-2" fill="#427FE0"></path>
                <path d="M465.620641,159 L439.379359,159 C433.083127,159 428,164.070276 428,170.340454 L428,196.358699 C428,202.084267 432.239052,206.918085 437.769458,207.715 L437.769458,236.525972 C437.769458,242.79615 442.861924,248 449.153612,248 L455.846388,248 C462.142872,248 467.225746,242.79615 467.225746,236.525972 L467.225746,207.715503 C472.75489,206.920097 477,202.085273 477,196.358699 L477,170.340454 C477,164.070276 471.91233,159 465.620641,159" id="Fill-1" fill="#427FE0"></path>
                <path d="M452.570438,155 C459.39946,155 465,149.847556 465,143.435079 C465,137.15268 459.39946,132 452.570438,132 C445.60054,132 440,137.15268 440,143.435079 C440,149.847556 445.60054,155 452.570438,155" id="Fill-2" fill="#427FE0"></path>
                <path d="M37.6206413,291 L11.3793587,291 C5.08312685,291 0,296.013307 0,302.213033 L0,327.938938 C0,333.600174 4.23905216,338.379679 9.76945782,339.167641 L9.76945782,367.654894 C9.76945782,373.85462 14.861924,379 21.1536124,379 L27.8463876,379 C34.1428719,379 39.2257463,373.85462 39.2257463,367.654894 L39.2257463,339.168138 C44.7548899,338.381669 49,333.601169 49,327.938938 L49,302.213033 C49,296.013307 43.9123297,291 37.6206413,291" id="Fill-1" fill="#427FE0"></path>
                <path d="M24.5704381,287 C31.3994602,287 37,281.623537 37,274.932256 C37,268.37671 31.3994602,263 24.5704381,263 C17.6005398,263 12,268.37671 12,274.932256 C12,281.623537 17.6005398,287 24.5704381,287" id="Fill-2" fill="#427FE0"></path>
                <path d="M98.6206413,291 L72.3793587,291 C66.0831269,291 61,296.013307 61,302.213033 L61,327.938938 C61,333.600174 65.2390522,338.379679 70.7694578,339.167641 L70.7694578,367.654894 C70.7694578,373.85462 75.861924,379 82.1536124,379 L88.8463876,379 C95.1428719,379 100.225746,373.85462 100.225746,367.654894 L100.225746,339.168138 C105.75489,338.381669 110,333.601169 110,327.938938 L110,302.213033 C110,296.013307 104.91233,291 98.6206413,291" id="Fill-1" fill="#427FE0"></path>
                <path d="M86.0676206,287 C92.6234818,287 98,281.623537 98,274.932256 C98,268.37671 92.6234818,263 86.0676206,263 C79.3765182,263 74,268.37671 74,274.932256 C74,281.623537 79.3765182,287 86.0676206,287" id="Fill-2" fill="#427FE0"></path>
                <path d="M159.620641,291 L133.379359,291 C127.083127,291 122,296.013307 122,302.213033 L122,327.938938 C122,333.600174 126.239052,338.379679 131.769458,339.167641 L131.769458,367.654894 C131.769458,373.85462 136.861924,379 143.153612,379 L149.846388,379 C156.142872,379 161.225746,373.85462 161.225746,367.654894 L161.225746,339.168138 C166.75489,338.381669 171,333.601169 171,327.938938 L171,302.213033 C171,296.013307 165.91233,291 159.620641,291" id="Fill-1" fill="#FF5254"></path>
                <path d="M147.570438,287 C154.39946,287 160,281.623537 160,274.932256 C160,268.37671 154.39946,263 147.570438,263 C140.60054,263 135,268.37671 135,274.932256 C135,281.623537 140.60054,287 147.570438,287" id="Fill-2" fill="#FF5254"></path>
                <path d="M220.620641,291 L194.379359,291 C188.083127,291 183,296.013307 183,302.213033 L183,327.938938 C183,333.600174 187.239052,338.379679 192.769458,339.167641 L192.769458,367.654894 C192.769458,373.85462 197.861924,379 204.153612,379 L210.846388,379 C217.142872,379 222.225746,373.85462 222.225746,367.654894 L222.225746,339.168138 C227.75489,338.381669 232,333.601169 232,327.938938 L232,302.213033 C232,296.013307 226.91233,291 220.620641,291" id="Fill-1" fill="#FF5254"></path>
                <path d="M208.570438,287 C215.39946,287 221,281.623537 221,274.932256 C221,268.37671 215.39946,263 208.570438,263 C201.60054,263 196,268.37671 196,274.932256 C196,281.623537 201.60054,287 208.570438,287" id="Fill-2" fill="#FF5254"></path>
                <path d="M281.852873,291 L256.147127,291 C249.97939,291 245,296.013307 245,302.213033 L245,327.938938 C245,333.600174 249.152541,338.379679 254.570081,339.167641 L254.570081,367.654894 C254.570081,373.85462 259.558619,379 265.721906,379 L272.278094,379 C278.446079,379 283.425221,373.85462 283.425221,367.654894 L283.425221,339.168138 C288.841525,338.381669 293,333.601169 293,327.938938 L293,302.213033 C293,296.013307 288.01616,291 281.852873,291" id="Fill-1" fill="#FF5254"></path>
                <path d="M269.570438,287 C276.39946,287 282,281.623537 282,274.932256 C282,268.37671 276.39946,263 269.570438,263 C262.60054,263 257,268.37671 257,274.932256 C257,281.623537 262.60054,287 269.570438,287" id="Fill-2" fill="#FF5254"></path>
                <path d="M342.852873,291 L317.147127,291 C310.97939,291 306,296.013307 306,302.213033 L306,327.938938 C306,333.600174 310.152541,338.379679 315.570081,339.167641 L315.570081,367.654894 C315.570081,373.85462 320.558619,379 326.721906,379 L333.278094,379 C339.446079,379 344.425221,373.85462 344.425221,367.654894 L344.425221,339.168138 C349.841525,338.381669 354,333.601169 354,327.938938 L354,302.213033 C354,296.013307 349.01616,291 342.852873,291" id="Fill-1" fill="#FF5254"></path>
                <path d="M330.570438,287 C337.39946,287 343,281.623537 343,274.932256 C343,268.37671 337.39946,263 330.570438,263 C323.60054,263 318,268.37671 318,274.932256 C318,281.623537 323.60054,287 330.570438,287" id="Fill-2" fill="#FF5254"></path>
                <path d="M403.852873,291 L378.147127,291 C371.97939,291 367,296.013307 367,302.213033 L367,327.938938 C367,333.600174 371.152541,338.379679 376.570081,339.167641 L376.570081,367.654894 C376.570081,373.85462 381.558619,379 387.721906,379 L394.278094,379 C400.446079,379 405.425221,373.85462 405.425221,367.654894 L405.425221,339.168138 C410.841525,338.381669 415,333.601169 415,327.938938 L415,302.213033 C415,296.013307 410.01616,291 403.852873,291" id="Fill-1" fill="#427FE0"></path>
                <path d="M391.570438,287 C398.39946,287 404,281.623537 404,274.932256 C404,268.37671 398.39946,263 391.570438,263 C384.60054,263 379,268.37671 379,274.932256 C379,281.623537 384.60054,287 391.570438,287" id="Fill-2" fill="#427FE0"></path>
                <path d="M465.620641,291 L439.379359,291 C433.083127,291 428,296.013307 428,302.213033 L428,327.938938 C428,333.600174 432.239052,338.379679 437.769458,339.167641 L437.769458,367.654894 C437.769458,373.85462 442.861924,379 449.153612,379 L455.846388,379 C462.142872,379 467.225746,373.85462 467.225746,367.654894 L467.225746,339.168138 C472.75489,338.381669 477,333.601169 477,327.938938 L477,302.213033 C477,296.013307 471.91233,291 465.620641,291" id="Fill-1" fill="#427FE0"></path>
                <path d="M452.570438,287 C459.39946,287 465,281.623537 465,274.932256 C465,268.37671 459.39946,263 452.570438,263 C445.60054,263 440,268.37671 440,274.932256 C440,281.623537 445.60054,287 452.570438,287" id="Fill-2" fill="#427FE0"></path>
                <path d="M37.6206413,422 L11.3793587,422 C5.08312685,422 0,427.070276 0,433.340454 L0,459.358699 C0,465.084267 4.23905216,469.918085 9.76945782,470.715 L9.76945782,499.525972 C9.76945782,505.79615 14.861924,511 21.1536124,511 L27.8463876,511 C34.1428719,511 39.2257463,505.79615 39.2257463,499.525972 L39.2257463,470.715503 C44.7548899,469.920097 49,465.085273 49,459.358699 L49,433.340454 C49,427.070276 43.9123297,422 37.6206413,422" id="Fill-1" fill="#427FE0"></path>
                <path d="M24.5704381,418 C31.3994602,418 37,412.623537 37,405.932256 C37,399.37671 31.3994602,394 24.5704381,394 C17.6005398,394 12,399.37671 12,405.932256 C12,412.623537 17.6005398,418 24.5704381,418" id="Fill-2" fill="#427FE0"></path>
                <path d="M98.6206413,422 L72.3793587,422 C66.0831269,422 61,427.070276 61,433.340454 L61,459.358699 C61,465.084267 65.2390522,469.918085 70.7694578,470.715 L70.7694578,499.525972 C70.7694578,505.79615 75.861924,511 82.1536124,511 L88.8463876,511 C95.1428719,511 100.225746,505.79615 100.225746,499.525972 L100.225746,470.715503 C105.75489,469.920097 110,465.085273 110,459.358699 L110,433.340454 C110,427.070276 104.91233,422 98.6206413,422" id="Fill-1" fill="#427FE0"></path>
                <path d="M86.0676206,418 C92.6234818,418 98,412.623537 98,405.932256 C98,399.37671 92.6234818,394 86.0676206,394 C79.3765182,394 74,399.37671 74,405.932256 C74,412.623537 79.3765182,418 86.0676206,418" id="Fill-2" fill="#427FE0"></path>
                <path d="M159.620641,422 L133.379359,422 C127.083127,422 122,427.070276 122,433.340454 L122,459.358699 C122,465.084267 126.239052,469.918085 131.769458,470.715 L131.769458,499.525972 C131.769458,505.79615 136.861924,511 143.153612,511 L149.846388,511 C156.142872,511 161.225746,505.79615 161.225746,499.525972 L161.225746,470.715503 C166.75489,469.920097 171,465.085273 171,459.358699 L171,433.340454 C171,427.070276 165.91233,422 159.620641,422" id="Fill-1" fill="#427FE0"></path>
                <path d="M147.570438,418 C154.39946,418 160,412.623537 160,405.932256 C160,399.37671 154.39946,394 147.570438,394 C140.60054,394 135,399.37671 135,405.932256 C135,412.623537 140.60054,418 147.570438,418" id="Fill-2" fill="#427FE0"></path>
                <path d="M220.620641,422 L194.379359,422 C188.083127,422 183,427.070276 183,433.340454 L183,459.358699 C183,465.084267 187.239052,469.918085 192.769458,470.715 L192.769458,499.525972 C192.769458,505.79615 197.861924,511 204.153612,511 L210.846388,511 C217.142872,511 222.225746,505.79615 222.225746,499.525972 L222.225746,470.715503 C227.75489,469.920097 232,465.085273 232,459.358699 L232,433.340454 C232,427.070276 226.91233,422 220.620641,422" id="Fill-1" fill="#427FE0"></path>
                <path d="M208.570438,418 C215.39946,418 221,412.623537 221,405.932256 C221,399.37671 215.39946,394 208.570438,394 C201.60054,394 196,399.37671 196,405.932256 C196,412.623537 201.60054,418 208.570438,418" id="Fill-2" fill="#427FE0"></path>
                <path d="M281.852873,422 L256.147127,422 C249.97939,422 245,427.070276 245,433.340454 L245,459.358699 C245,465.084267 249.152541,469.918085 254.570081,470.715 L254.570081,499.525972 C254.570081,505.79615 259.558619,511 265.721906,511 L272.278094,511 C278.446079,511 283.425221,505.79615 283.425221,499.525972 L283.425221,470.715503 C288.841525,469.920097 293,465.085273 293,459.358699 L293,433.340454 C293,427.070276 288.01616,422 281.852873,422" id="Fill-1" fill="#427FE0"></path>
                <path d="M269.570438,418 C276.39946,418 282,412.623537 282,405.932256 C282,399.37671 276.39946,394 269.570438,394 C262.60054,394 257,399.37671 257,405.932256 C257,412.623537 262.60054,418 269.570438,418" id="Fill-2" fill="#427FE0"></path>
                <path d="M342.852873,422 L317.147127,422 C310.97939,422 306,427.070276 306,433.340454 L306,459.358699 C306,465.084267 310.152541,469.918085 315.570081,470.715 L315.570081,499.525972 C315.570081,505.79615 320.558619,511 326.721906,511 L333.278094,511 C339.446079,511 344.425221,505.79615 344.425221,499.525972 L344.425221,470.715503 C349.841525,469.920097 354,465.085273 354,459.358699 L354,433.340454 C354,427.070276 349.01616,422 342.852873,422" id="Fill-1" fill="#427FE0"></path>
                <path d="M330.570438,418 C337.39946,418 343,412.623537 343,405.932256 C343,399.37671 337.39946,394 330.570438,394 C323.60054,394 318,399.37671 318,405.932256 C318,412.623537 323.60054,418 330.570438,418" id="Fill-2" fill="#427FE0"></path>
                <path d="M403.852873,422 L378.147127,422 C371.97939,422 367,427.070276 367,433.340454 L367,459.358699 C367,465.084267 371.152541,469.918085 376.570081,470.715 L376.570081,499.525972 C376.570081,505.79615 381.558619,511 387.721906,511 L394.278094,511 C400.446079,511 405.425221,505.79615 405.425221,499.525972 L405.425221,470.715503 C410.841525,469.920097 415,465.085273 415,459.358699 L415,433.340454 C415,427.070276 410.01616,422 403.852873,422" id="Fill-1" fill="#427FE0"></path>
                <path d="M391.570438,418 C398.39946,418 404,412.623537 404,405.932256 C404,399.37671 398.39946,394 391.570438,394 C384.60054,394 379,399.37671 379,405.932256 C379,412.623537 384.60054,418 391.570438,418" id="Fill-2" fill="#427FE0"></path>
                <path d="M465.620641,422 L439.379359,422 C433.083127,422 428,427.070276 428,433.340454 L428,459.358699 C428,465.084267 432.239052,469.918085 437.769458,470.715 L437.769458,499.525972 C437.769458,505.79615 442.861924,511 449.153612,511 L455.846388,511 C462.142872,511 467.225746,505.79615 467.225746,499.525972 L467.225746,470.715503 C472.75489,469.920097 477,465.085273 477,459.358699 L477,433.340454 C477,427.070276 471.91233,422 465.620641,422" id="Fill-1" fill="#427FE0"></path>
                <path d="M452.570438,418 C459.39946,418 465,412.623537 465,405.932256 C465,399.37671 459.39946,394 452.570438,394 C445.60054,394 440,399.37671 440,405.932256 C440,412.623537 445.60054,418 452.570438,418" id="Fill-2" fill="#427FE0"></path>
            </g>
        </g>
    </g>
</svg>