<?xml version="1.0" encoding="UTF-8"?>
<svg width="261px" height="219px" viewBox="0 0 261 219" version="1.1" xmlns="http://www.w3.org/2000/svg" xmlns:xlink="http://www.w3.org/1999/xlink">
    <!-- Generator: Sketch 63.1 (92452) - https://sketch.com -->
    <title>img_increase_mob</title>
    <desc>Created with Sketch.</desc>
    <defs>
        <polygon id="path-1" points="0 0.036287542 260.476257 0.036287542 260.476257 23.1423308 0 23.1423308"></polygon>
    </defs>
    <g id="Page-1" stroke="none" stroke-width="1" fill="none" fill-rule="evenodd">
        <g id="FAQs---Why-Isn't-My-Website-Converting---Mobile" transform="translate(-58.000000, -6992.000000)">
            <g id="img_increase_mob" transform="translate(58.000000, 6992.000000)">
                <g id="img_technical_issues" transform="translate(0.000000, 10.000000)">
                    <polygon id="Fill-1" fill="#FFFFFF" points="10.8529412 143.625718 249.617647 143.625718 249.617647 7.27937952 10.8529412 7.27937952"></polygon>
                    <g id="Group-54">
                        <g id="Group-4" transform="translate(0.000000, 154.232252)">
                            <mask id="mask-2" fill="white">
                                <use xlink:href="#path-1"></use>
                            </mask>
                            <g id="Clip-3"></g>
                            <path d="M260.476257,18.9828955 C260.476257,21.279816 258.601587,23.1423308 256.289676,23.1423308 L4.18647131,23.1423308 C1.8745606,23.1423308 -0.000109310199,21.279816 -0.000109310199,18.9828955 L-0.000109310199,0.036287542 L260.476257,0.036287542 L260.476257,18.9828955 Z" id="Fill-2" fill="#4E5B6B" mask="url(#mask-2)"></path>
                        </g>
                        <path d="M158.08758,201.119529 C156.111251,199.154928 155.529721,177.435726 155.529721,177.435726 L104.946426,177.435726 C104.946426,177.435726 104.364896,199.154928 102.387475,201.119529 C100.416612,203.077613 92.154947,204.469883 92.154947,204.469883 L129.946762,204.469883 L130.529385,204.469883 L168.3212,204.469883 C168.3212,204.469883 160.059536,203.077613 158.08758,201.119529" id="Fill-5" fill="#4E5B6B"></path>
                        <polygon id="Fill-7" fill="#303D4D" points="92.1550563 208.975757 168.32131 208.975757 168.32131 204.469883 92.1550563 204.469883"></polygon>
                        <path d="M130.238074,162.175702 C128.214742,162.175702 126.569623,163.81124 126.569623,165.821453 C126.569623,167.83058 128.214742,169.466117 130.238074,169.466117 C132.262499,169.466117 133.907617,167.83058 133.907617,165.821453 C133.907617,163.81124 132.262499,162.175702 130.238074,162.175702 M130.238074,170.160081 C127.82997,170.160081 125.871131,168.215029 125.871131,165.821453 C125.871131,163.428963 127.82997,161.482825 130.238074,161.482825 C132.646177,161.482825 134.605016,163.428963 134.605016,165.821453 C134.605016,168.215029 132.646177,170.160081 130.238074,170.160081" id="Fill-9" fill="#FFFFFF"></path>
                        <polygon id="Fill-10" fill="#303D4D" points="156.249419 190.953022 155.530158 177.436486 104.945771 177.436486"></polygon>
                        <path d="M10.6981892,144.101598 L249.312515,144.101598 L249.312515,10.5489726 L10.6981892,10.5489726 L10.6981892,144.101598 Z M4.18548752,0.382791415 C1.87466991,0.382791415 0,2.24422017 0,4.54114071 L0,154.26778 L260.476366,154.26778 L260.476366,4.54114071 C260.476366,2.24422017 258.601696,0.382791415 256.289785,0.382791415 L4.18548752,0.382791415 Z" id="Fill-11" fill="#303D4D"></path>
                    </g>
                </g>
                <g transform="translate(22.000000, 0.000000)" fill-rule="nonzero">
                    <g id="Group" transform="translate(3.994764, 26.763889)" fill="#427FE0">
                        <polygon id="Path" points="20.5538835 127.493519 0.458719766 127.493519 0.112251425 114.715304 20.2074152 114.715304"></polygon>
                        <polygon id="Path" points="46.5390091 127.493519 26.4438453 127.493519 26.097377 106.081375 46.1925408 106.081375"></polygon>
                        <polygon id="Path" points="72.1776663 127.493519 52.0825026 127.493519 52.0825026 95.7206601 71.831198 95.7206601"></polygon>
                        <polygon id="Path" points="98.1627919 127.493519 78.0676281 127.493519 77.7211598 76.726016 97.8163236 76.726016"></polygon>
                        <polygon id="Path" points="123.801449 127.493519 104.052754 127.493519 103.706285 60.4942292 123.801449 60.4942292"></polygon>
                        <polygon id="Path" points="149.786575 127.493519 129.691411 127.493519 129.344943 38.3913707 149.440106 38.3913707"></polygon>
                        <polygon id="Path" points="175.7717 127.493519 155.676537 127.493519 155.330068 30.793513 175.425232 30.793513"></polygon>
                        <polygon id="Path" points="201.410358 127.493519 181.315194 127.493519 181.315194 0.0567253315 201.410358 0.0567253315"></polygon>
                    </g>
                    <path d="M47.9742725,163.910765 C84.4083569,163.910765 112.167659,150.532256 111.473677,150.875295 C143.396875,137.839825 172.197151,117.94358 194.751584,91.8726395 L198.221497,94.6169491 L210.019201,103.192916 C211.060174,103.878994 212.101148,103.878994 213.142122,103.878994 L213.142122,103.878994 C213.489113,103.878994 213.836105,103.878994 214.183096,103.535955 C216.265044,102.506839 218,100.448607 217.653009,98.047336 L218,47.9636866 C217.653009,45.5624157 215.918052,43.8472222 213.836105,43.8472222 C213.489113,43.8472222 212.795131,43.8472222 212.44814,43.8472222 L163.86936,57.56877 C162.828386,57.56877 162.134404,58.2548474 161.440421,58.9409248 C160.052456,59.9700409 159.358474,61.6852344 159.705465,63.4004278 L159.705465,63.4004278 C160.052456,64.4295439 160.399447,66.1447374 162.481395,67.1738535 L172.197151,74.3776661 L178.442994,79.1802078 C159.011482,104.565071 132.987136,126.519548 114.596598,137.153747 C90.3072087,150.875295 72.6106534,157.049992 44.1573684,160.13734 C40.3404643,160.480379 36.5235602,160.823417 36.5235602,162.538611 C36.5235602,163.567727 44.1573684,164.253804 47.9742725,163.910765 Z" id="Path" fill="#000000" opacity="0.3"></path>
                    <path d="M11.1666157,120.063543 C47.661578,120.063543 75.4672636,106.685034 74.7721214,107.028073 C106.74866,93.9926024 135.597059,74.0963581 158.189178,48.0254173 L161.664889,50.7697269 L173.482305,59.3456942 C174.525018,60.0317716 175.567732,60.0317716 176.610445,60.0317716 L176.610445,60.0317716 C176.958016,60.0317716 177.305587,60.0317716 177.653158,59.6887329 C179.738584,58.6596169 181.47644,56.6013847 181.128869,54.2001138 L181.47644,4.11646434 C181.128869,1.71519348 179.391013,0 177.305587,0 C176.958016,0 176.610445,0 175.915303,0 L127.255353,13.7215478 C126.21264,14.0645865 125.517498,14.4076252 124.822355,15.0937026 C123.432071,16.1228187 122.736929,17.8380121 123.0845,19.5532056 L123.0845,19.5532056 C123.432071,20.5823217 123.779642,22.2975152 125.865069,23.3266313 L135.597059,30.5304439 L141.853338,35.3329856 C122.389358,60.717849 96.6690988,82.6723255 78.2478321,93.3065251 C53.9178573,107.028073 36.1917327,113.202769 7.69090501,116.290118 C3.86762324,116.633156 0.0443414768,116.976195 0.0443414768,118.691388 C-0.650800662,119.720505 6.99576287,120.406582 11.1666157,120.063543 Z" id="Path" fill="#FF5254"></path>
                </g>
            </g>
        </g>
    </g>
</svg>