<?xml version="1.0" encoding="UTF-8"?>
<svg width="395px" height="395px" viewBox="0 0 395 395" version="1.1" xmlns="http://www.w3.org/2000/svg" xmlns:xlink="http://www.w3.org/1999/xlink">
    <!-- Generator: Sketch 63.1 (92452) - https://sketch.com -->
    <title>img_reach_out</title>
    <desc>Created with Sketch.</desc>
    <defs>
        <polygon id="path-1" points="0.000282142857 0.35962171 394.634625 0.35962171 394.634625 394.87874 0.000282142857 394.87874"></polygon>
    </defs>
    <g id="Page-1" stroke="none" stroke-width="1" fill="none" fill-rule="evenodd">
        <g id="FAQs---What-is-a-Backlink" transform="translate(-856.000000, -2784.000000)">
            <g id="img_reach_out" transform="translate(856.000000, 2784.000000)">
                <g id="Group-26">
                    <g id="Group-3">
                        <mask id="mask-2" fill="white">
                            <use xlink:href="#path-1"></use>
                        </mask>
                        <g id="Clip-2"></g>
                        <path d="M394.634907,197.617065 C394.634907,306.56693 306.283282,394.87874 197.312657,394.87874 C88.3392107,394.87874 0.000282142857,306.56693 0.000282142857,197.617065 C0.000282142857,88.6728416 88.3392107,0.35962171 197.312657,0.35962171 C306.283282,0.35962171 394.634907,88.6728416 394.634907,197.617065" id="Fill-1" fill="#427FE0" mask="url(#mask-2)"></path>
                    </g>
                    <path d="M228.044262,392.476839 C322.277857,377.968381 394.496288,297.048798 395,199.221423 L317.997013,121.762393 L251.278494,182.14777 L140.871096,157.429136 L118.264741,133.175751 L44.9401198,210.069735 L228.044262,392.476839 Z" id="Fill-4" fill="#285398"></path>
                    <path d="M261.362275,266.42507 L256.448094,267.205978 L254.1463,269.068359 L237.8437,279.446289 C237.8437,279.446289 235.187347,279.744046 234.808679,280.921026 C234.420083,282.05587 214.661246,287.577002 214.661246,287.577002 L210.729901,289.628992 L173.847305,259.182008 L192.580759,218.591647 L217.601245,213.970807 L261.362275,266.42507 Z" id="Fill-6" fill="#C69463"></path>
                    <path d="M263.98228,163.20806 C270.920498,172.00417 277.118096,181.390348 282.620045,191.146903 C286.48476,197.98128 289.974247,205.03394 293.004184,212.262636 C294.736982,216.362135 296.310975,220.523599 297.702272,224.728719 C299.009249,228.655001 296.097361,231.679984 293.219202,234.103631 C292.253726,234.876777 288.313122,238.265095 283.370502,241.742136 C278.402586,245.227626 269.624764,250.79596 268.971276,251.010018 C272.567569,258.497837 263.7251,268.248759 256.008318,267.443224 C247.133526,259.592069 238.633963,251.69585 230.530709,243.071551 C226.635076,238.876288 222.757712,234.682434 218.88316,230.478722 C217.899414,229.405613 212.77972,224.856873 212.064396,225.821544 C211.368748,226.787623 216.186291,231.829261 216.90302,232.602406 C220.672171,236.721622 224.438512,240.797181 228.238581,244.874148 C236.354484,253.519571 244.852641,261.446773 253.727433,269.310601 C254.01553,277.205412 244.061429,280.83173 237.572923,279.716373 C233.077205,276.647734 228.366468,273.772029 224.000043,270.532987 C221.173882,268.430427 218.680789,265.706816 216.153968,263.28176 C211.495229,258.852723 206.925028,254.389888 202.344989,249.90452 C201.241788,248.821553 196.103825,245.0361 195.793242,245.517731 C195.461579,245.989505 196.317438,248.039958 197.815542,249.528509 C203.736286,255.450321 208.907978,260.407463 214.976284,266.178589 C221.099398,272.013088 227.542933,276.391427 234.565472,281.196474 C233.890903,284.865041 228.13318,288.705417 224.579047,289.091285 C221.20761,289.423639 217.888171,288.554731 214.601055,287.868899 C208.327568,283.470845 202.259262,278.985477 196.778393,273.643875 C194.262815,271.220227 189.626562,267.165793 186.501061,264.719613 C184.778101,263.367665 183.547013,262.498757 183.385398,262.660709 C182.946928,263.10995 184.446438,265.726532 185.142087,266.370115 C193.577003,274.609955 201.905114,282.461109 211.624521,289.326468 C205.53373,293.831552 195.267641,292.288078 189.744611,287.24644 L185.986703,283.770808 C185.366943,284.670698 112.562733,228.181819 112.724348,227.817075 C108.099338,224.407632 97.8444912,218.65763 94.6107784,216.297354 C103.163745,198.393906 117.444922,159.266288 121.790267,147.170581 C129.563264,149.450585 143.79947,151.719322 151.839483,152.095332 C162.715495,152.614987 173.601344,153.172665 184.488598,153.730344 C191.223041,151.017999 198.28774,145.877781 205.640537,145.432765 C212.975064,144.993382 219.588646,149.987139 226.140392,152.614987 C232.018976,154.942872 237.938314,157.15387 243.878733,159.239531 C247.968305,160.666117 252.271489,162.57011 256.584512,163.203835 C259.177384,163.144688 261.808201,160.435159 263.98228,163.20806 C271.038547,172.137956 263.340034,162.360276 263.98228,163.20806" id="Fill-8" fill="#D0A072"></path>
                    <path d="M192.753746,150.708539 C183.309185,155.05025 174.164071,157.913571 174.164071,157.913571 C164.740598,158.50691 162.340797,174.848512 159.995824,182.130013 C158.293328,187.447406 156.4629,193.056512 156.129711,198.681196 C155.788087,204.230826 159.471438,206.000931 164.868531,206.000931 C172.46017,206.000931 177.397547,199.571912 181.273501,193.843855 C183.69439,190.268244 186.447062,186.49863 188.008972,182.421726 L200.088113,182.016726 L200.09936,182.028055 C206.632387,186.051148 210.187804,185.484715 215.251709,191.3473 C221.014325,198.018469 229.837497,209.679915 235.009652,216.798566 C237.825588,220.62624 241.447081,223.928546 244.745226,227.314402 C247.272961,229.903002 249.574352,232.687022 252.133016,235.243053 C256.824367,239.957194 263.796023,247.377471 268.764329,251.799899 C269.149534,251.780074 269.503811,251.671036 269.900263,251.542172 C270.669268,251.542172 285.010436,241.812263 286.80853,240.431582 C286.80853,240.431582 319.179841,218.86888 321.676647,214.738165 C314.499736,192.415027 295.685124,169.720874 281.207587,151.367018 C279.794699,151.922122 260.593476,160.373308 259.041407,160.373308 C255.293387,160.373308 249.176494,161.101175 245.698399,159.904584 C239.807849,157.865424 233.938388,155.708729 228.144842,153.427419 C222.245858,151.129116 216.474806,147.256128 210.348072,145.76924 C203.912049,144.193139 198.343442,148.093033 192.753746,150.708539 C183.309185,155.05025 193.642249,150.287962 192.753746,150.708539" id="Fill-10" fill="#FBD099"></path>
                    <path d="M182.68386,275.165762 C178.814416,271.781838 174.26421,270.908612 174.210428,270.930967 C174.109942,271.020385 173.996717,271.119583 173.8934,271.213193 C175.571952,269.107671 175.220956,261.920674 172.797954,259.467259 C170.060754,255.817874 162.491701,254.754635 158.869936,257.392475 L157.596161,258.549324 C157.505581,258.66948 157.596161,258.549324 157.596161,258.549324 C158.939286,256.745589 159.920092,252.899205 156.357769,248.347253 C153.242682,244.398876 147.291324,242.642644 142.827451,245.047159 C142.803391,245.151946 142.782162,245.239967 142.759517,245.337768 C142.753856,245.372697 142.758101,245.407626 142.75244,245.442555 C142.735457,245.559917 142.724134,245.67169 142.711396,245.78486 C142.694413,245.768094 142.678844,245.754122 142.663276,245.738753 C142.694413,245.614406 142.726965,245.473293 142.759517,245.337768 C143.712017,237.635219 135.002229,229.99135 127.983731,233.150331 L124.124194,235.958625 L111.791224,229.338876 C111.359556,234.575436 110.281094,244.387699 112.641823,249.240039 C113.019709,250.687498 115.339394,254.606536 115.660669,254.987961 C119.595217,259.637713 125.31305,260.394974 125.300312,260.394974 C125.286159,260.400563 126.333485,271.280257 138.311213,273.983764 C139.183041,274.180764 141.068227,273.431885 141.144654,273.387176 C141.15173,273.392765 140.475214,275.1965 141.651333,277.567482 C143.985171,282.274518 149.861518,288.870516 156.560158,285.65006 C154.195183,291.696973 165.772379,299.73065 171.504365,295.57689 L183.859979,286.787349 C187.234066,284.382835 185.347465,277.507404 182.68386,275.165762" id="Fill-12" fill="#FBD099"></path>
                    <path d="M126.541916,142.432111 C126.541916,142.432111 122.672786,159.395343 93.4828363,221.063762 L72.1407186,215.560606 L106.803517,134.766143 L126.541916,142.432111 Z" id="Fill-14" fill="#F9F5ED"></path>
                    <path d="M117.080838,138.205509 C117.080838,138.205509 102.26355,180.30071 83.8162103,218.699443 L65.0449102,213.232755 L99.9038751,131.219666 L117.080838,138.205509 Z" id="Fill-16" fill="#BFBFBF"></path>
                    <path d="M118.263473,132.290923 C118.263473,132.290923 102.164182,175.558656 80.7083438,223.42808 L43.757485,210.550678 L84.6883404,114.669438 L118.263473,132.290923 Z" id="Fill-18" fill="#FF5254"></path>
                    <path d="M275.553892,149.530595 C275.553892,149.530595 279.454221,166.489308 308.632722,228.156716 L329.95509,222.652238 L295.307309,141.859098 L275.553892,149.530595 Z" id="Fill-20" fill="#F9F5ED"></path>
                    <path d="M285.01497,144.12022 C285.01497,144.12022 299.828634,186.211956 318.281361,224.610239 L337.050898,219.143817 L302.197632,137.130462 L285.01497,144.12022 Z" id="Fill-22" fill="#BFBFBF"></path>
                    <path d="M283.832335,139.383461 C283.832335,139.383461 299.961959,182.650936 321.390954,230.521035 L358.338323,217.6351 L317.412897,121.762393 L283.832335,139.383461 Z" id="Fill-24" fill="#FF5254"></path>
                </g>
            </g>
        </g>
    </g>
</svg>