<?xml version="1.0" encoding="UTF-8"?>
<svg width="261px" height="261px" viewBox="0 0 261 261" version="1.1" xmlns="http://www.w3.org/2000/svg" xmlns:xlink="http://www.w3.org/1999/xlink">
    <!-- Generator: Sketch 63.1 (92452) - https://sketch.com -->
    <title>img_insightful_analytics_mob</title>
    <desc>Created with Sketch.</desc>
    <defs>
        <linearGradient x1="46.7060004%" y1="-5.61656582%" x2="50.824924%" y2="38.569232%" id="linearGradient-1">
            <stop stop-color="#80C3F3" offset="0%"></stop>
            <stop stop-color="#4A90E2" offset="100%"></stop>
        </linearGradient>
    </defs>
    <g id="Page-1" stroke="none" stroke-width="1" fill="none" fill-rule="evenodd">
        <g id="FAQs---What's-Google-My-Business---Mobile" transform="translate(-58.000000, -4660.000000)" fill-rule="nonzero">
            <g id="img_insightful_analytics_mob" transform="translate(58.000000, 4660.000000)">
                <polygon id="Path" fill="#FF5254" points="0 0 261 0 261 24 0 24"></polygon>
                <path d="M0,239.888889 L108.75,239.888889 L108.75,248.333333 C108.75,255.318156 114.603795,261 121.8,261 L139.2,261 C146.396205,261 152.25,255.318156 152.25,248.333333 L152.25,239.888889 L261,239.888889 L261,223 L0,223 L0,239.888889 Z M143.55,239.888889 L143.55,248.333333 C143.55,250.662987 141.598025,252.555556 139.2,252.555556 L121.8,252.555556 C119.401976,252.555556 117.45,250.662987 117.45,248.333333 L117.45,239.888889 L143.55,239.888889 Z" id="Shape" fill="#FF5254"></path>
                <path d="M13,34 L13,212 L250,212 L250,34 L13,34 Z M78.8333333,64.3902439 L78.8333333,90.4390244 L97.4539844,72.0195844 C102.219221,76.7336322 105.166667,83.2458273 105.166667,90.4390244 C105.166667,104.825419 93.3768822,116.487805 78.8333333,116.487805 C64.2897844,116.487805 52.5,104.825419 52.5,90.4390244 C52.5,76.0526302 64.2897844,64.3902439 78.8333333,64.3902439 Z M39.3333333,198.97561 L30.5555556,198.97561 L30.5555556,190.292683 L39.3333333,190.292683 L39.3333333,198.97561 Z M30.5555556,90.4390244 L39.3333333,90.4390244 C39.3333333,111.98523 57.0539111,129.512195 78.8333333,129.512195 C100.612756,129.512195 118.333333,111.98523 118.333333,90.4390244 C118.333333,68.892819 100.612756,51.3658537 78.8333333,51.3658537 L78.8333333,42.6829268 C105.453832,42.6829268 127.111111,64.106182 127.111111,90.4390244 C127.111111,116.771867 105.453832,138.195122 78.8333333,138.195122 C52.212835,138.195122 30.5555556,116.771867 30.5555556,90.4390244 Z M56.8888889,198.97561 L48.1111111,198.97561 L48.1111111,190.292683 L56.8888889,190.292683 L56.8888889,198.97561 Z M219.277778,168.585366 C218.293877,168.585366 217.364047,168.389001 216.481134,168.093565 L192.772971,188.611625 C192.881244,189.156175 192.944444,189.716875 192.944444,190.292683 C192.944444,195.088046 189.014414,198.97561 184.166667,198.97561 C179.318919,198.97561 175.388889,195.088046 175.388889,190.292683 C175.388889,189.946885 175.452089,189.618323 175.491764,189.283119 L152.503116,172.228071 C151.444208,172.676153 150.280012,172.926829 149.055556,172.926829 C148.070821,172.926829 147.140244,172.730204 146.256498,172.434247 L122.551012,192.954174 C122.659022,193.49842 122.722222,194.058599 122.722222,194.634146 C122.722222,199.42951 118.792192,203.317073 113.944444,203.317073 C110.703689,203.317073 107.904631,201.559996 106.384144,198.97561 L65.6666667,198.97561 L65.6666667,190.292683 L106.384144,190.292683 C107.904631,187.708297 110.703645,185.95122 113.944444,185.95122 C114.928609,185.95122 115.858702,186.147844 116.741878,186.443281 L140.449208,165.925221 C140.340978,165.380671 140.277778,164.819711 140.277778,164.243902 C140.277778,159.448279 144.207808,155.560976 149.055556,155.560976 C153.903303,155.560976 157.833333,159.448279 157.833333,164.243902 C157.833333,164.5897 157.770133,164.918262 157.730458,165.253466 L180.719107,182.308515 C181.778014,181.860432 182.942211,181.609756 184.166667,181.609756 C185.151402,181.609756 186.081978,181.806641 186.965724,182.102339 L210.671211,161.581326 C210.5632,161.037341 210.5,160.477466 210.5,159.902439 C210.5,155.106815 214.430031,151.219512 219.277778,151.219512 C224.125525,151.219512 228.055556,155.106815 228.055556,159.902439 C228.055556,164.697802 224.125525,168.585366 219.277778,168.585366 Z M228.055556,129.512195 L131.5,129.512195 L131.5,120.829268 L144.666667,120.829268 L144.666667,99.1219512 L162.222222,99.1219512 L162.222222,73.0731707 L179.777778,73.0731707 L179.777778,86.097561 L197.333333,86.097561 L197.333333,51.3658537 L214.888889,51.3658537 L214.888889,120.829268 L228.055556,120.829268 L228.055556,129.512195 Z" id="Shape" fill="url(#linearGradient-1)"></path>
            </g>
        </g>
    </g>
</svg>