<?xml version="1.0" encoding="UTF-8"?>
<svg width="247px" height="225px" viewBox="0 0 247 225" version="1.1" xmlns="http://www.w3.org/2000/svg" xmlns:xlink="http://www.w3.org/1999/xlink">
    <!-- Generator: sketchtool 63.1 (101010) - https://sketch.com -->
    <title>E21ED64A-76C6-4D85-8014-DA7D1E386538</title>
    <desc>Created with sketchtool.</desc>
    <defs>
        <linearGradient x1="67.4001736%" y1="100%" x2="67.4001753%" y2="0%" id="linearGradient-1">
            <stop stop-color="#427FDF" offset="0%"></stop>
            <stop stop-color="#396BB1" offset="100%"></stop>
        </linearGradient>
        <linearGradient x1="67.4001736%" y1="100%" x2="67.4001753%" y2="0%" id="linearGradient-2">
            <stop stop-color="#427FDF" offset="0%"></stop>
            <stop stop-color="#396BB1" offset="100%"></stop>
        </linearGradient>
    </defs>
    <g id="Page-1" stroke="none" stroke-width="1" fill="none" fill-rule="evenodd">
        <g id="FAQs---How-&amp;-Where-To-Sell-in-Hong-Kong---Mobile" transform="translate(-57.000000, -3710.000000)">
            <g id="img_linkedin" transform="translate(31.000000, 3669.000000)">
                <path d="M138.030069,271.043785 C183.520868,270.963662 242.660741,235.533425 242.766951,175.712079 C242.872399,115.890733 220.968728,-8.14801632 135.755674,19.2924595 C50.5426198,46.7329354 55.9591413,103.051107 55.8533124,162.872453 C55.7474835,222.693799 92.5392709,271.12371 138.030069,271.043785 Z" id="Oval-5" fill="url(#linearGradient-1)" opacity="0.31810462" transform="translate(149.291125, 143.214985) rotate(-434.000000) translate(-149.291125, -143.214985) "></path>
                <path d="M151.859764,265.719307 C204.520952,265.870825 272.820468,234.865602 272.668642,182.027126 C272.51631,129.188651 246.590585,19.5204578 148.071274,43.3408109 C49.5519624,67.1611641 56.0808049,116.932398 56.2328839,169.770873 C56.384963,222.609348 99.1985754,265.566676 151.859764,265.719307 Z" id="Oval-5" fill="url(#linearGradient-2)" transform="translate(164.381605, 152.861073) rotate(-330.000000) translate(-164.381605, -152.861073) "></path>
                <path d="M215,158.704553 L215,197 L192.700568,197 L192.700568,161.251559 C192.700568,152.263693 189.485293,146.155211 181.416547,146.155211 C175.245907,146.155211 171.605858,150.290873 169.980929,154.270963 C169.395859,155.704264 169.218163,157.711534 169.218163,159.693021 L169.218163,196.99545 L146.940698,196.99545 C146.940698,196.99545 147.239758,136.472254 146.940698,130.204083 L169.222731,130.204083 L169.222731,139.671016 C169.192498,139.748802 169.127466,139.813371 169.097017,139.899824 L169.222731,139.899824 L169.222731,139.671016 C172.199628,135.121073 177.473305,128.636878 189.316297,128.636878 C204.015039,128.636878 215,138.181814 215,158.704553 Z M123.61424,98 C115.992017,98 111,102.981775 111,109.552206 C111,115.945615 115.844771,121.095746 123.32823,121.095746 L123.462644,121.095746 C131.253862,121.095746 136.081233,115.945615 136.081233,109.552206 C135.929637,102.981775 131.25408,98 123.61424,98 Z M112.330436,196.999783 L134.616818,196.999783 L134.616818,130.199966 L112.330436,130.199966 L112.330436,196.999783 Z" id="LinkedIn_3_" fill="#FFFFFF" fill-rule="nonzero"></path>
            </g>
        </g>
    </g>
</svg>