<?xml version="1.0" encoding="UTF-8"?>
<svg width="200px" height="486px" viewBox="0 0 200 486" version="1.1" xmlns="http://www.w3.org/2000/svg" xmlns:xlink="http://www.w3.org/1999/xlink">
    <!-- Generator: Sketch 63.1 (92452) - https://sketch.com -->
    <title>img_competitive_mob</title>
    <desc>Created with Sketch.</desc>
    <defs>
        <polygon id="path-1" points="0.534191319 0.175816913 235 0.175816913 235 185.999838 0.534191319 185.999838"></polygon>
        <polygon id="path-3" points="1.72973974e-13 0.175816913 234.46635 0.175816913 234.46635 185.999838 1.72973974e-13 185.999838"></polygon>
    </defs>
    <g id="Page-1" stroke="none" stroke-width="1" fill="none" fill-rule="evenodd">
        <g id="FAQs---Why-Is-My-Website-Traffic-Going-Down---Mobile" transform="translate(-87.000000, -6566.000000)">
            <g id="img_competitive_mob" transform="translate(187.500000, 6809.000000) rotate(-90.000000) translate(-187.500000, -6809.000000) translate(-56.000000, 6709.000000)">
                <g id="Group-3" transform="translate(251.500000, 13.500000)">
                    <mask id="mask-2" fill="white">
                        <use xlink:href="#path-1"></use>
                    </mask>
                    <g id="Clip-2"></g>
                    <path d="M5.78067512,68.1243357 C7.82095161,60.5867001 10.6842696,53.2747812 14.6554447,46.5564538 C43.7369654,-2.64219103 98.6165046,19.5800523 98.6165046,19.5800523 C98.6186705,19.5290491 98.6305829,19.4617681 98.6349147,19.4053389 L98.6359977,19.4053389 C98.6554908,19.1969851 98.6955599,18.9571611 98.757288,18.6880373 C98.8915737,18.1074679 99.1254908,17.3977625 99.4666198,16.5936468 C99.4882788,16.5415583 99.5110207,16.4883846 99.5337627,16.435211 C99.6171498,16.2431348 99.7059516,16.0467178 99.8023341,15.844875 C99.8380714,15.771083 99.8748917,15.697291 99.910629,15.6224138 C99.9127949,15.6180731 99.9149608,15.6148176 99.9160438,15.6104769 C100.011343,15.4173155 100.107726,15.2230689 100.212772,15.0223112 C100.255007,14.940923 100.302657,14.8573644 100.348141,14.7738058 C100.572311,14.3592684 100.819224,13.9327941 101.091044,13.4943828 C101.128947,13.4336129 101.161435,13.3739282 101.200422,13.3131583 C101.303302,13.1503819 101.417012,12.9843499 101.526389,12.8183179 C101.631435,12.6609673 101.734316,12.5057871 101.843694,12.3462661 C101.955237,12.18566 102.073279,12.0239687 102.190237,11.8622774 C102.312611,11.6940751 102.43715,11.5258727 102.566021,11.3565852 C102.685145,11.1981494 102.808601,11.0407988 102.934224,10.8823631 C103.078256,10.7022238 103.227703,10.5209993 103.379316,10.34086 C103.503855,10.1911057 103.628394,10.0424365 103.758348,9.89268216 C103.944615,9.67998758 104.139546,9.46837817 104.336643,9.25568359 C104.444938,9.13956971 104.547818,9.02128547 104.661528,8.90408642 C104.962588,8.58938525 105.278809,8.27685443 105.605859,7.96649396 C105.735813,7.84386902 105.873348,7.72232926 106.007634,7.6007895 C106.224224,7.40220221 106.442979,7.20470009 106.670399,7.01045351 C106.830675,6.87372128 106.996366,6.7391594 107.160975,6.60351234 C107.377565,6.42662858 107.599569,6.24974482 107.825906,6.07611658 C108.002426,5.9415547 108.178947,5.808078 108.3598,5.67568647 C108.596965,5.50097306 108.842795,5.33168554 109.09079,5.16239801 C109.27056,5.03977307 109.448164,4.91497778 109.631182,4.79560837 C109.941988,4.59485073 110.262541,4.40168932 110.586343,4.20961309 C118.151827,-0.27433601 129.661412,-2.22982398 146.14715,4.82490814 C170.94344,15.4346783 183.671343,43.0936557 188.897657,57.9334437 L188.900906,57.9421251 C189.069846,58.4228582 189.231205,58.8916545 189.384984,59.3441731 C189.542012,59.8042879 189.689293,60.2502954 189.830076,60.6789401 C189.997933,61.1922286 190.153878,61.680558 190.300076,62.1460987 C190.508002,62.812397 190.688855,63.4114144 190.853463,63.9702803 C190.892449,64.0994163 190.927104,64.2198709 190.961758,64.3424958 C191.037565,64.6040233 191.110122,64.8525287 191.176182,65.0869268 C191.227081,65.2648958 191.273647,65.4341833 191.319131,65.5958746 C191.352703,65.7174144 191.385191,65.8346134 191.415514,65.9463866 C191.468578,66.1406332 191.516228,66.3164318 191.558463,66.4802934 C191.57579,66.5464892 191.5942,66.6126849 191.610445,66.67454 C191.645099,66.8091019 191.676505,66.9317268 191.704661,67.0402445 L191.704661,67.0413296 C191.806459,67.4450153 191.861689,67.6804986 191.861689,67.6804986 C210.542565,70.5855159 219.879753,73.7303573 224.558094,76.2034744 C224.555929,76.0765088 224.561343,75.9473728 224.558094,75.8214923 C230.31397,78.6689953 229.232104,80.7112974 229.232104,80.7112974 C229.34473,80.7427675 229.446528,80.7883449 229.555906,80.8252409 L229.555906,80.8284964 C238.741482,83.9614009 233.524915,105.101723 233.524915,105.101723 C233.524915,105.101723 229.686942,129.34348 223.318118,153.5147 C217.378141,176.060326 210.826297,171.747835 210.826297,171.747835 C210.726666,171.96487 210.589131,172.161287 210.437518,172.349023 C210.435353,172.355534 210.43427,172.36313 210.432104,172.369641 C210.425606,172.376152 210.418025,172.381578 210.411528,172.389174 C210.36821,172.441263 210.312979,172.487925 210.265329,172.537844 C210.119131,172.696279 209.954523,172.844948 209.771505,172.981681 C209.756343,172.992532 209.740099,173.002299 209.723855,173.014236 C208.442726,173.944232 206.353717,174.36311 203.776297,174.418454 C203.78821,174.395666 203.799039,174.371792 203.809869,174.349003 C192.327357,174.594253 171.096136,167.944292 168.771044,167.204201 L168.771044,167.206372 C168.633509,167.161879 168.539293,167.129324 168.539293,167.129324 C167.325306,167.84337 166.124316,168.529202 164.934154,169.196585 C164.87026,169.231311 164.805283,169.270377 164.741389,169.306188 C164.442495,169.47439 164.143601,169.6274 163.84579,169.792347 C163.088809,170.209055 162.328578,170.631189 161.579177,171.031619 C161.581343,171.025108 161.583509,171.019682 161.585675,171.014256 C124.853118,190.397678 89.9572419,188.733017 59.0357903,178.665835 C42.0638088,173.141202 23.0905369,163.750085 15.6019424,154.46423 C15.5921959,154.455548 15.5824493,154.447952 15.5716198,154.439271 C-1.8692788,140.054172 -2.71181336,99.4989573 5.78067512,68.1243357" id="Fill-1" fill="#EADCD6" mask="url(#mask-2)"></path>
                </g>
                <path d="M250.500367,56.1998891 C275.573276,4.43893851 332.881858,21.9362783 332.881858,21.9362783 C332.678813,17.2310301 343.349515,-8.77612084 379.56618,3.05731533 C407.209562,12.0877848 422.70692,41.6815737 428.496964,55.1864841 C430.291975,59.375368 431.156,62.0194534 431.156,62.0194534 C470.613836,64.6893034 469.996059,71.8314471 469.996059,71.8314471 C470.553355,124.082997 411.822372,160.363757 411.822372,160.363757 C410.596538,161.225795 411.267237,160.36483 410.061923,161.174266 C373.667053,185.658089 350.111586,187.690266 296.54207,176.401106 C278.842529,172.67169 270.730419,170.904672 260.790898,164.108202 C241.942205,151.217347 237.571321,110.696174 243.416446,78.5559907 C244.820486,70.8352184 247.07559,63.2690334 250.500367,56.1998891" id="Fill-4" fill="#3091E2"></path>
                <path d="M337.453312,169.538879 C392.522577,154.752049 429.033479,84.8025658 412.320765,29 C420.194306,39.0912669 425.420212,49.6568223 428.280264,56.3172951 C428.494849,56.8173952 428.694261,57.2927591 428.882836,57.7476889 C427.304877,70.658875 424.880498,82.4053119 428.504603,94.6335656 C430.869374,105.194819 448.607328,107.150049 456.884028,103.62999 C468.639609,97.7965642 468.34049,83.985198 465.833746,69.3371051 C470.052836,71.3450338 469.922785,72.9915999 469.922785,72.9915999 C479.927004,74.8952067 476.395019,97.0781409 476.395019,97.0781409 C476.395019,97.0781409 474.620899,121.720707 470.278259,146.51169 C466.227152,169.634597 459.218455,165.877932 459.218455,165.877932 C456.229435,174.111838 415.995806,164.909996 415.995806,164.909996 C414.765735,165.774685 413.548669,166.610336 412.340273,167.422327 C375.818533,191.950892 339.227433,193.594231 306.11738,185.966898 C288.43253,181.892965 268.376407,174.10646 260,165.432681 C265.285514,168.127844 287.198124,183.034053 337.453312,169.538879" id="Fill-6" fill="#2B79CC"></path>
                <path d="M365,26 C354.318038,22.8273589 343.749191,21.5366708 333,19.6804697 C334.041518,16.1431809 337.223697,10.2346518 343.592323,6 C341.616,16.1194891 354.274286,21.2224969 365,26" id="Fill-8" fill="#2B79CC"></path>
                <path d="M417.481023,162.57516 C417.347602,162.543142 417.255622,162.519663 417.255622,162.519663 C415.13706,164.105604 413.054885,165.593358 411,167 C411.737858,164.453529 412.460555,161.901722 413.108455,159.320032 C417.922727,140.138255 420.763986,120.340671 422.940163,100.651948 C424.034821,90.7531565 424.951584,80.8372888 425.574215,70.8915379 C425.852176,66.4410839 426.094759,61.9895626 426.199879,57.5305705 C426.263557,54.7941283 426.516248,51.8004776 426.226159,49 C428.917825,54.8699034 430.480467,59.3555769 431,60.9265765 C430.322788,70.9790529 429.378734,81.0112514 428.323495,91.0263739 C426.238288,110.815419 423.679032,130.618339 420.017031,150.156579 C419.237732,154.309269 418.393743,158.452353 417.481023,162.57516" id="Fill-10" fill="#1562B7"></path>
                <path d="M453.270422,165.50767 C455.812353,157.478036 457.370766,149.067024 458.735736,140.766067 C460.255026,131.533459 461.509147,122.249637 462.464409,112.942932 C463.406629,103.766986 464.192356,94.5692462 464.542293,85.3508034 C464.699873,81.2166695 464.82159,77.0770874 464.717261,72.938595 C464.670531,71.0840099 464.715088,68.9907914 464.487955,67 C470.58033,69.3874242 469.660931,71.5580079 469.660931,71.5580079 C469.778301,71.5798009 469.884803,71.616849 470,71.6451799 C469.863068,81.1425733 469.011049,90.6312495 468.152509,100.085057 C466.463684,118.696287 464.314074,137.407764 460.860351,155.780361 C460.197428,159.313007 459.470386,162.847834 458.579243,166.333625 C457.566383,167.848239 455.15921,168.658939 452,169 C452.471654,167.871122 452.887883,166.713913 453.270422,165.50767" id="Fill-12" fill="#1562B7"></path>
                <path d="M295.44381,31.0184506 C292.919635,29.7136048 282.348967,29.8601557 268.207675,43.9214423 C258.66047,53.4135978 255.228861,68.0676014 253.019934,80.8251278 C250.49357,95.42811 247.988003,111.915628 255.535353,125.555716 C257.75632,129.571211 261.46596,133.312058 266.080844,133.493347 C270.746081,133.676807 274.867295,130.040174 276.709527,125.785856 C280.610724,116.774604 278.312038,103.827104 279.484368,94.057045 C282.427779,69.5341959 287.579023,49.2645793 294.298846,38.6597226 C297.141553,34.1730942 296.89636,31.7696596 295.44381,31.0184506" id="Fill-14" fill="#43B6EF"></path>
                <path d="M374.971079,32.3128427 C377.51473,35.0250982 379.831035,38.77024 379.46091,42.597121 C379.296165,44.3125828 377.871676,45.6915339 376.021049,45.4781627 C374.622919,45.3168074 373.798099,44.2711825 373.155596,43.170357 C371.133635,39.7033408 369.344512,36.6142357 366.055117,34.0760742 C364.260503,32.6918154 362.332995,31.4858967 360.329704,30.4052407 C362.160562,34.0516585 363.169896,38.9039951 361.3632,42.5121972 C360.329704,44.5758468 357.455465,45.1448366 355.713569,43.5397758 C354.068323,42.0228235 354.766839,40.1279601 355.135866,38.2872356 C355.611428,35.9231679 355.424717,33.4794841 354.606487,31.205648 C352.689962,25.8809225 347.240221,24.9042983 342.17708,23.5529475 C338.983237,22.6994628 335.752052,21.9829178 332.5,21.3661583 C332.505491,20.5339046 332.811916,19.1645075 333.479679,17.5 C333.815758,17.5360926 334.152934,17.5711237 334.47803,17.5997855 C339.46429,18.0318356 344.43847,18.8492277 349.310508,19.959607 C358.526303,22.0572261 368.438418,25.3448407 374.971079,32.3128427" id="Fill-16" fill="#1562B7"></path>
                <path d="M381.614352,12.1173044 C382.42996,13.0749486 383.035872,14.2134394 382.998348,15.3950336 C382.936543,17.2606593 381.21924,18.8873425 379.164216,19.5535705 C377.111399,20.2188614 374.801429,20.0651886 372.677977,19.5844925 C368.560204,18.6512111 358.670263,13.5219116 365.135532,9.61262459 C370.121889,6.59632664 378.128978,8.02623365 381.614352,12.1173044" id="Fill-18" fill="#43B6EF"></path>
                <path d="M327.978531,29.8915084 C328.95458,30.7568769 329.762718,31.8410405 329.956628,33.0664887 C330.262117,35.0013036 328.917748,36.9380809 327.06098,37.9339415 C325.204212,38.9298021 322.941209,39.1181817 320.791951,38.9405947 C316.626682,38.5962133 306.055888,34.7883955 311.547111,29.7826015 C315.781711,25.9208207 323.806761,26.1925975 327.978531,29.8915084" id="Fill-20" fill="#43B6EF"></path>
                <path d="M461.520819,102.124471 C462.258805,94.0400354 462.780667,85.826055 462.996791,78.6084108 C463.05583,76.6304835 462.327333,75.4424633 458.542519,74.2870925 C454.757705,73.132775 441.386455,71.6151002 438.364929,72.0890444 C435.344458,72.5640419 434.130999,73.3276187 433.910657,75.4519422 C433.129446,82.9465804 432.153196,92.2738031 431.039892,101.952798 C429.750525,113.167372 460.135514,117.300166 461.520819,102.124471" id="Fill-22" fill="#FFF9F3"></path>
                <path d="M429.566553,102.411076 C430.989918,106.139824 460.012005,109.916324 461,102 C459.577721,117.306346 457.322704,132.310614 454.90483,139.167068 C454.263176,140.984729 452.312157,142.007228 450.399137,142 C448.486118,141.992695 431.581629,140.496836 428.667586,139.448385 C425.751372,138.400972 424.715606,137.211343 425.065204,135.107175 C426.693767,125.27665 428.226788,113.593169 429.566553,102.411076" id="Fill-24" fill="#E0E0DF"></path>
                <g id="Group-28" transform="translate(0.500000, 13.500000)">
                    <mask id="mask-4" fill="white">
                        <use xlink:href="#path-3"></use>
                    </mask>
                    <g id="Clip-27"></g>
                    <path d="M229.219866,68.1243357 C227.17959,60.5867001 224.316272,53.2747812 220.344014,46.5564538 C191.263576,-2.64219103 136.384037,19.5800523 136.384037,19.5800523 C136.381871,19.5290491 136.369959,19.4617681 136.364544,19.4053389 L136.364544,19.4053389 C136.345051,19.1969851 136.304982,18.9571611 136.243253,18.6880373 L136.242171,18.6880373 C136.108968,18.1074679 135.873968,17.3977625 135.533922,16.5936468 C135.51118,16.5415583 135.489521,16.4883846 135.465696,16.435211 C135.382309,16.2431348 135.293507,16.0467178 135.197124,15.844875 C135.16247,15.771083 135.12565,15.697291 135.088829,15.6224138 C135.087747,15.6180731 135.085581,15.6148176 135.083415,15.6104769 C134.989198,15.4173155 134.892816,15.2230689 134.786687,15.0223112 C134.744452,14.940923 134.696802,14.8573644 134.652401,14.7738058 C134.427147,14.3592684 134.181318,13.9327941 133.909498,13.4943828 C133.871594,13.4336129 133.838023,13.3739282 133.799037,13.3131583 C133.696157,13.1503819 133.582447,12.9843499 133.473069,12.8183179 C133.369106,12.6609673 133.266226,12.5057871 133.155765,12.3462661 C133.044221,12.18566 132.927263,12.0239687 132.809221,11.8622774 C132.687931,11.6940751 132.563392,11.5258727 132.434521,11.3565852 C132.314313,11.1981494 132.19194,11.0407988 132.065235,10.8823631 C131.921203,10.7022238 131.772839,10.5209993 131.620143,10.34086 C131.495604,10.1911057 131.372147,10.0424365 131.241111,9.89268216 C131.055926,9.67998758 130.859912,9.46837817 130.663899,9.25568359 C130.554521,9.13956971 130.451641,9.02128547 130.339014,8.90408642 C130.036871,8.58938525 129.721733,8.27685443 129.394682,7.96649396 C129.264728,7.84386902 129.126111,7.72232926 128.992908,7.6007895 C128.775235,7.40220221 128.556479,7.20470009 128.32906,7.01045351 C128.168783,6.87372128 128.004175,6.7391594 127.838484,6.60351234 C127.621894,6.42662858 127.399889,6.24974482 127.173553,6.07611658 C126.998115,5.9415547 126.821594,5.808078 126.640742,5.67568647 C126.402493,5.50097306 126.156664,5.33168554 125.908668,5.16239801 C125.729982,5.03977307 125.552378,4.91497778 125.368276,4.79560837 C125.058553,4.59485073 124.738,4.40168932 124.413115,4.20961309 C116.848714,-0.27433601 105.339129,-2.22982398 88.8523088,4.82490814 C64.0560184,15.4346783 51.3291982,43.0936557 46.1028848,57.9334437 C46.1018018,57.9366992 46.1007189,57.9388696 46.0996359,57.9421251 C45.9306959,58.4228582 45.7682535,58.8916545 45.6144747,59.3441731 C45.45853,59.8042879 45.3101659,60.2502954 45.1693825,60.6789401 C45.0015253,61.1922286 44.8466636,61.680558 44.7004654,62.1460987 C44.4914562,62.812397 44.3106037,63.4114144 44.1459954,63.9702803 C44.1080922,64.0994163 44.0734378,64.2198709 44.0377005,64.3424958 C43.961894,64.6040233 43.8893364,64.8525287 43.8232765,65.0869268 C43.7734608,65.2648958 43.7258111,65.4341833 43.6803272,65.5958746 C43.6478387,65.7174144 43.6153502,65.8346134 43.5839447,65.9463866 C43.5319631,66.1406332 43.4843134,66.3164318 43.4409954,66.4802934 C43.4236682,66.5464892 43.406341,66.6126849 43.3900968,66.67454 C43.3554424,66.8091019 43.3229539,66.9317268 43.2958802,67.0402445 L43.2958802,67.0413296 C43.193,67.4450153 43.1377696,67.6804986 43.1377696,67.6804986 C24.456894,70.5855159 15.1197051,73.7303573 10.442447,76.2034744 C10.4446129,76.0765088 10.4381152,75.9473728 10.4413641,75.8214923 C4.68657143,78.6689953 5.76843779,80.7112974 5.76843779,80.7112974 C5.65472811,80.7427675 5.55401382,80.7883449 5.44463594,80.8252409 L5.44463594,80.8284964 C-3.74202304,83.9614009 1.47562673,105.101723 1.47562673,105.101723 C1.47562673,105.101723 5.31359908,129.34348 11.682424,153.5147 C17.621318,176.060326 24.1731613,171.747835 24.1731613,171.747835 C24.2727926,171.96487 24.4103272,172.161287 24.5619401,172.349023 C24.564106,172.355534 24.5662719,172.36313 24.5684378,172.369641 C24.5738525,172.376152 24.5825161,172.381578 24.5879309,172.389174 C24.6323318,172.441263 24.6864793,172.487925 24.734129,172.537844 C24.8814101,172.696279 25.0460184,172.844948 25.2279539,172.981681 C25.2441982,172.992532 25.2604424,173.002299 25.2756037,173.014236 C26.5578157,173.944232 28.6468249,174.36311 31.2231613,174.418454 C31.2112488,174.395666 31.2015023,174.371792 31.1895899,174.349003 C42.6731843,174.594253 63.9033226,167.944292 66.2294977,167.204201 L66.2294977,167.206372 C66.3659493,167.161879 66.4612488,167.129324 66.4612488,167.129324 C67.675235,167.84337 68.8762258,168.529202 70.0663871,169.196585 C70.1291982,169.231311 70.1952581,169.270377 70.2580691,169.306188 C70.5580461,169.47439 70.8558571,169.6274 71.1547512,169.792347 C71.9117327,170.209055 72.6708802,170.631189 73.4202811,171.031619 C73.4181152,171.025108 73.4159493,171.019682 73.4137834,171.014256 C110.146341,190.397678 145.042217,188.733017 175.964751,178.665835 C192.93565,173.141202 211.908922,163.750085 219.397516,154.46423 C219.407263,154.455548 219.418092,154.447952 219.428922,154.439271 C236.86982,140.054172 237.712355,99.4989573 229.219866,68.1243357" id="Fill-26" fill="#EADCD6" mask="url(#mask-4)"></path>
                </g>
                <path d="M154.117068,21.9362783 C154.321194,17.2310301 143.651572,-8.77612084 107.43383,3.05731533 C79.7904491,12.0877848 64.2930916,41.6815737 58.5030481,55.1864841 C56.7080374,59.375368 55.845093,62.0194534 55.845093,62.0194534 C16.3861789,64.6893034 17.0039563,71.8314471 17.0039563,71.8314471 C16.4455806,124.082997 75.1776389,160.363757 75.1776389,160.363757 C76.4023935,161.225795 75.7327746,160.36483 76.9380886,161.174266 C113.332956,185.658089 136.888421,187.690266 190.457934,176.401106 C208.156394,172.67169 216.269583,170.904672 226.209103,164.108202 C245.057796,151.217347 249.428679,110.696174 243.583554,78.5559907 C242.179514,70.8352184 239.924411,63.2690334 236.499634,56.1998891 C211.426726,4.43893851 154.117068,21.9362783 154.117068,21.9362783 Z" id="Fill-29" fill="#E43D2F"></path>
                <path d="M149.547385,169.538879 C94.4778449,154.752049 57.9678443,84.8025658 74.6784742,29 C66.8059782,39.0912669 61.5800454,49.6568223 58.7199798,56.3172951 C58.5053936,56.8173952 58.3059801,57.2927591 58.1174044,57.7476889 C59.6953716,70.658875 62.1197623,82.4053119 58.4956397,94.6335656 C56.1308563,105.194819 38.3928137,107.150049 30.116072,103.62999 C18.3604327,97.7965642 18.6595529,83.985198 21.1663099,69.3371051 C16.9471983,71.3450338 17.0772505,72.9915999 17.0772505,72.9915999 C7.07298151,74.8952067 10.6049838,97.0781409 10.6049838,97.0781409 C10.6049838,97.0781409 12.3791132,121.720707 16.7217744,146.51169 C20.7729019,169.634597 27.7816342,165.877932 27.7816342,165.877932 C30.7706683,174.111838 71.005582,164.909996 71.005582,164.909996 C72.2345757,165.774685 73.4527317,166.610336 74.6600501,167.422327 C111.181972,191.950892 147.773255,193.594231 180.883473,185.966898 C198.568411,181.892965 218.624635,174.10646 227,165.432681 C221.715544,168.127844 199.802824,183.034053 149.547385,169.538879" id="Fill-31" fill="#CE2B23"></path>
                <path d="M120,26 C130.681962,22.8273589 141.250809,21.5366708 152,19.6804697 C150.958482,16.1431809 147.776303,10.2346518 141.407677,6 C143.384,16.1194891 130.724647,21.2224969 120,26" id="Fill-33" fill="#CE2B23"></path>
                <path d="M69.5196604,162.57516 C69.6520772,162.543142 69.7450723,162.519663 69.7450723,162.519663 C71.863742,164.105604 73.9450116,165.593358 76,167 C75.2621045,164.453529 74.5393713,161.901722 73.8924492,159.320032 C69.0779339,140.138255 66.2355201,120.340671 64.0592338,100.651948 C62.9645204,90.7531565 62.0487213,80.8372888 61.4260588,70.8915379 C61.1470737,66.4410839 60.9044779,61.9895626 60.8003639,57.5305705 C60.7356717,54.7941283 60.4829678,51.8004776 60.7730719,49 C58.0812696,54.8699034 56.5185485,59.3555769 56,60.9265765 C56.6762357,70.9790529 57.6213484,81.0112514 58.67664,91.0263739 C60.7609421,110.815419 63.3213383,130.618339 66.9835237,150.156579 C67.7618518,154.309269 68.6058829,158.452353 69.5196604,162.57516" id="Fill-35" fill="#B81918"></path>
                <path d="M33.7305881,165.50767 C31.1885038,157.478036 29.6299964,149.067024 28.263857,140.766067 C26.7455621,131.533459 25.490279,122.249637 24.5360464,112.942932 C23.5937689,103.766986 22.8079942,94.5692462 22.4580365,85.3508034 C22.3004468,81.2166695 22.1787224,77.0770874 22.2830576,72.938595 C22.3297911,71.0840099 22.2841444,68.9907914 22.5123777,67 C16.4196353,69.3874242 17.3390895,71.5580079 17.3390895,71.5580079 C17.2217124,71.5798009 17.1141167,71.616849 17,71.6451799 C17.13694,81.1425733 17.989011,90.6312495 18.8476029,100.085057 C20.5376162,118.696287 22.6862698,137.407764 26.1391136,155.780361 C26.8031639,159.313007 27.53025,162.847834 28.4214467,166.333625 C29.433281,167.848239 31.8416858,168.658939 35,169 C34.5294047,167.871122 34.1131506,166.713913 33.7305881,165.50767" id="Fill-37" fill="#B81918"></path>
                <path d="M190.556641,31.0184506 C193.079727,29.7136048 203.650417,29.8601557 217.792834,43.9214423 C227.34006,53.4135978 230.771676,68.0676014 232.979513,80.8251278 C235.506977,95.42811 238.011455,111.915628 230.465184,125.555716 C228.244211,129.571211 224.534564,133.312058 219.91967,133.493347 C215.254424,133.676807 211.133201,130.040174 209.290965,125.785856 C205.38976,116.774604 207.68845,103.827104 206.516118,94.057045 C203.571605,69.5341959 198.421445,49.2645793 191.701608,38.6597226 C188.858894,34.1730942 189.102993,31.7696596 190.556641,31.0184506" id="Fill-39" fill="#F56B5F"></path>
                <path d="M112.027943,32.3128427 C109.484233,35.0250982 107.168973,38.77024 107.539107,42.597121 C107.703855,44.3125828 109.128377,45.6915339 110.977949,45.4781627 C112.377209,45.3168074 113.202048,44.2711825 113.844566,43.170357 C115.866574,39.7033408 117.655738,36.6142357 120.945208,34.0760742 C122.739864,32.6918154 124.667417,31.4858967 126.670753,30.4052407 C124.839853,34.0516585 123.830496,38.9039951 125.637234,42.5121972 C126.669655,44.5758468 129.545058,45.1448366 131.285896,43.5397758 C132.932279,42.0228235 132.233747,40.1279601 131.863613,38.2872356 C131.38804,35.9231679 131.574755,33.4794841 132.393003,31.205648 C134.309573,25.8809225 139.760538,24.9042983 144.822697,23.5529475 C148.017712,22.6994628 151.248971,21.9829178 154.5,21.3661583 C154.494508,20.5339046 154.188077,19.1645075 153.521396,17.5 C153.184212,17.5360926 152.848126,17.5711237 152.521925,17.5997855 C147.535549,18.0318356 142.561255,18.8492277 137.689105,19.959607 C128.473097,22.0572261 118.561852,25.3448407 112.027943,32.3128427" id="Fill-41" fill="#B81918"></path>
                <path d="M103.384668,12.1173044 C102.569043,13.0749486 101.963119,14.2134394 102.001748,15.3950336 C102.062451,17.2606593 103.780891,18.8873425 105.834853,19.5535705 C107.888814,20.2188614 110.197727,20.0651886 112.322324,19.5844925 C116.44018,18.6512111 126.330318,13.5219116 119.863816,9.61262459 C114.877359,6.59632664 106.870111,8.02623365 103.384668,12.1173044" id="Fill-43" fill="#F56B5F"></path>
                <path d="M159.022442,29.8915084 C158.046446,30.7568769 157.237268,31.8410405 157.043369,33.0664887 C156.737896,35.0013036 158.082193,36.9380809 159.939943,37.9339415 C161.796611,38.9298021 164.059492,39.1181817 166.208633,38.9405947 C170.373677,38.5962133 180.943899,34.7883955 175.452973,29.7826015 C171.218601,25.9208207 163.193986,26.1925975 159.022442,29.8915084" id="Fill-45" fill="#F56B5F"></path>
                <path d="M27.0205147,102.52436 C26.2618701,94.449936 25.722861,86.226043 25.5032254,79.0131397 C25.4438071,77.0638186 26.1780478,75.8919424 29.9861254,74.7543195 C33.7952641,73.6166965 47.2524525,72.1199335 50.2933972,72.5880612 C53.3332809,73.0551509 54.5545396,73.8076843 54.7773582,75.9023222 C55.513721,82.8245919 56.4230335,91.3349665 57.4564878,100.228355 C58.8040104,111.820484 28.4157841,117.362244 27.0205147,102.52436" id="Fill-47" fill="#FFF9F3"></path>
                <path d="M57.3926358,101 C55.9693003,104.886441 26.987975,109.559475 26,101.308362 C27.4233355,117.262028 29.6772214,132.90084 32.0950461,140.046178 C32.736687,141.94071 34.6876663,143.007534 36.6017323,143 C38.5147125,142.992386 55.4177713,141.433266 58.3328406,140.340475 C61.2479098,139.248766 62.2836551,138.008827 61.9351496,135.814589 C60.3066193,125.569403 58.7323733,112.654994 57.3926358,101" id="Fill-49" fill="#E8E3DE"></path>
            </g>
        </g>
    </g>
</svg>