<?xml version="1.0" encoding="UTF-8"?>
<svg width="187px" height="612px" viewBox="0 0 187 612" version="1.1" xmlns="http://www.w3.org/2000/svg" xmlns:xlink="http://www.w3.org/1999/xlink">
    <!-- Generator: Sketch 63.1 (92452) - https://sketch.com -->
    <title>img_insufficient_website_traffic</title>
    <desc>Created with Sketch.</desc>
    <g id="Page-1" stroke="none" stroke-width="1" fill="none" fill-rule="evenodd">
        <g id="FAQs---Why-Isn't-My-Website-Converting" transform="translate(-297.000000, -1080.000000)">
            <g id="img_insufficient_website_traffic" transform="translate(297.000000, 1080.000000)">
                <g id="Group-4" opacity="0.302780878" transform="translate(0.000000, 420.000000)">
                    <path d="M93.5,192 C41.9425417,192 0,148.932 0,96 C0,43.068 41.9425417,0 93.5,0 C145.053563,0 187,43.068 187,96 C187,148.932 145.053563,192 93.5,192" id="Fill-8" fill="#CCDEFB"></path>
                    <path d="M83,74 L79.2222222,74 C79.2222222,65.4222222 73.2911111,58.4444444 66,58.4444444 C58.7088889,58.4444444 52.7777778,65.4222222 52.7777778,74 L49,74 C49,62.9733333 56.6273333,54 66,54 C75.3726667,54 83,62.9733333 83,74" id="Fill-10" fill="#34495E"></path>
                    <path d="M138,74 L134.222222,74 C134.222222,65.4222222 128.291111,58.4444444 121,58.4444444 C113.708889,58.4444444 107.777778,65.4222222 107.777778,74 L104,74 C104,62.9733333 111.627333,54 121,54 C130.372667,54 138,62.9733333 138,74" id="Fill-12" fill="#34495E"></path>
                    <path d="M93.9980358,150 C116.090842,150 134,132.089963 134,110 L54,110 C54,132.089963 71.9052296,150 93.9980358,150" id="Fill-14" fill="#34495E"></path>
                </g>
                <g id="Group-4" opacity="0.302780878" transform="translate(0.000000, 207.000000)">
                    <path d="M93.5,192 C41.9425417,192 0,148.932 0,96 C0,43.068 41.9425417,0 93.5,0 C145.053563,0 187,43.068 187,96 C187,148.932 145.053563,192 93.5,192" id="Fill-8" fill="#CCDEFB"></path>
                    <path d="M83,74 L79.2222222,74 C79.2222222,65.4222222 73.2911111,58.4444444 66,58.4444444 C58.7088889,58.4444444 52.7777778,65.4222222 52.7777778,74 L49,74 C49,62.9733333 56.6273333,54 66,54 C75.3726667,54 83,62.9733333 83,74" id="Fill-10" fill="#34495E"></path>
                    <path d="M138,74 L134.222222,74 C134.222222,65.4222222 128.291111,58.4444444 121,58.4444444 C113.708889,58.4444444 107.777778,65.4222222 107.777778,74 L104,74 C104,62.9733333 111.627333,54 121,54 C130.372667,54 138,62.9733333 138,74" id="Fill-12" fill="#34495E"></path>
                </g>
                <g id="Group-4">
                    <path d="M93.5,192 C41.9425417,192 0,148.932 0,96 C0,43.068 41.9425417,0 93.5,0 C145.053563,0 187,43.068 187,96 C187,148.932 145.053563,192 93.5,192" id="Fill-8" fill="#FF5254"></path>
                    <path d="M83,81 L79.2222222,81 C79.2222222,74.9955556 73.2911111,70.1111111 66,70.1111111 C58.7088889,70.1111111 52.7777778,74.9955556 52.7777778,81 L49,81 C49,73.2813333 56.6273333,67 66,67 C75.3726667,67 83,73.2813333 83,81" id="Fill-10" fill="#34495E" transform="translate(66.000000, 74.000000) scale(1, -1) translate(-66.000000, -74.000000) "></path>
                    <path d="M138,81 L134.222222,81 C134.222222,74.9955556 128.291111,70.1111111 121,70.1111111 C113.708889,70.1111111 107.777778,74.9955556 107.777778,81 L104,81 C104,73.2813333 111.627333,67 121,67 C130.372667,67 138,73.2813333 138,81" id="Fill-12" fill="#34495E" transform="translate(121.000000, 74.000000) scale(1, -1) translate(-121.000000, -74.000000) "></path>
                    <path d="M93.9980358,150 C116.090842,150 134,132.089963 134,110 L54,110 C54,132.089963 71.9052296,150 93.9980358,150" id="Fill-14" fill="#34495E" transform="translate(94.000000, 130.000000) rotate(-180.000000) translate(-94.000000, -130.000000) "></path>
                </g>
                <rect id="Rectangle" fill="#34495E" opacity="0.302780878" x="42" y="329" width="104" height="11" rx="2"></rect>
            </g>
        </g>
    </g>
</svg>