<?xml version="1.0" encoding="UTF-8"?>
<svg width="354px" height="411px" viewBox="0 0 354 411" version="1.1" xmlns="http://www.w3.org/2000/svg" xmlns:xlink="http://www.w3.org/1999/xlink">
    <!-- Generator: Sketch 63.1 (92452) - https://sketch.com -->
    <title>img_92percent_tc</title>
    <desc>Created with Sketch.</desc>
    <defs>
        <filter x="-7.3%" y="-145.6%" width="114.6%" height="391.3%" filterUnits="objectBoundingBox" id="filter-1">
            <feGaussianBlur stdDeviation="6.60267857" in="SourceGraphic"></feGaussianBlur>
        </filter>
        <linearGradient x1="100%" y1="50%" x2="-2.22044605e-14%" y2="50%" id="linearGradient-2">
            <stop stop-color="#DA3E3F" offset="0%"></stop>
            <stop stop-color="#FF5254" offset="100%"></stop>
        </linearGradient>
    </defs>
    <g id="Page-1" stroke="none" stroke-width="1" fill="none" fill-rule="evenodd">
        <g id="Chinese-Graphics" transform="translate(-2334.000000, -118.000000)">
            <g id="img_92percent_tc" transform="translate(2331.000000, 118.000000)">
                <g id="chinese-92percent">
                    <ellipse id="Oval-4" fill="#000000" opacity="0.2" filter="url(#filter-1)" cx="179" cy="387.6" rx="136" ry="6.8"></ellipse>
                    <circle id="Oval-2" fill="url(#linearGradient-2)" cx="179" cy="176" r="176"></circle>
                    <path d="M66.45,253.9 C67.85,253.74 69.33,253.42 70.89,252.94 L71.05,253.8 L72.59,253.42 C72.31,251.88 71.97,250.52 71.61,249.34 L70.13,249.82 C70.29,250.34 70.43,250.9 70.57,251.5 C69.91,251.66 69.25,251.8 68.59,251.92 C69.63,250.58 70.91,248.42 72.47,245.44 L70.67,244.76 C70.27,245.6 69.89,246.38 69.53,247.12 L68.05,247.36 C68.89,246.02 69.73,244.3 70.55,242.18 L68.65,241.42 C68.11,243.32 67.47,245.08 66.73,246.68 C66.49,247.04 66.21,247.28 65.89,247.42 L66.39,249.24 C67.15,249.12 67.89,249 68.61,248.88 C67.89,250.18 67.29,251.1 66.81,251.64 C66.57,251.88 66.29,252.06 65.95,252.18 L66.45,253.9 Z M74.75,259.92 L74.75,244.06 L81.89,244.06 L81.89,257.3 C81.89,257.76 81.71,258 81.37,258 L78.93,257.94 L79.45,259.78 L81.97,259.78 C83.19,259.78 83.81,259.1 83.81,257.74 L83.81,242.22 L72.85,242.22 L72.85,257.16 C72.55,256.06 72.21,255.02 71.81,254.04 L70.49,254.5 C70.83,255.52 71.15,256.7 71.43,258.04 L72.85,257.38 L72.85,259.92 L74.75,259.92 Z M81.51,249.02 L81.51,247.26 L80.15,247.26 C80.47,246.5 80.71,245.7 80.87,244.82 L79.19,244.58 C79.07,245.5 78.87,246.38 78.59,247.26 L77.03,247.26 L77.99,246.82 C77.71,246.06 77.39,245.34 77.03,244.66 L75.59,245.16 C75.91,245.76 76.23,246.46 76.51,247.26 L75.13,247.26 L75.13,249.02 L81.51,249.02 Z M81.05,256.5 L81.05,254.94 L77.73,254.94 L77.73,252.74 L81.41,252.74 L81.41,250.98 L79.31,250.98 C79.15,250.32 79.01,249.72 78.85,249.2 L77.11,249.48 C77.31,249.94 77.49,250.44 77.65,250.98 L75.25,250.98 L75.25,252.74 L76.09,252.74 L76.09,256.5 L81.05,256.5 Z M69.01,259.06 L70.67,258.68 C70.45,257.2 70.19,255.84 69.91,254.6 L68.47,254.92 C68.69,256.12 68.87,257.5 69.01,259.06 Z M67.43,259.82 C67.77,258.4 67.99,256.76 68.07,254.92 L66.45,254.7 C66.37,256.42 66.15,257.96 65.77,259.3 L67.43,259.82 Z M96.41,259.98 L96.41,258.78 L101.45,258.78 L101.45,259.96 L103.45,259.96 L103.45,250.18 L99.43,250.18 L99.43,246.88 L104.21,246.88 L104.21,244.84 L99.43,244.84 L99.43,241.56 L97.31,241.56 L97.31,250.18 L94.43,250.18 L94.43,259.98 L96.41,259.98 Z M94.25,246.68 L94.25,244.68 L91.17,244.68 C90.95,243.56 90.73,242.58 90.51,241.7 L88.39,242.04 C88.67,242.86 88.91,243.74 89.15,244.68 L86.21,244.68 L86.21,246.68 L94.25,246.68 Z M86.59,258.8 C89.15,258.38 91.57,257.88 93.83,257.28 L93.83,255.24 C93.31,255.38 92.77,255.52 92.21,255.68 C92.79,253.24 93.23,250.58 93.53,247.7 L91.51,247.42 C91.25,250.48 90.85,253.38 90.29,256.12 C88.91,256.4 87.51,256.64 86.09,256.8 L86.59,258.8 Z M87.93,255.74 L89.65,255.32 C89.29,252.38 88.87,249.76 88.41,247.46 L86.61,248.06 C87.13,250.52 87.57,253.08 87.93,255.74 Z M101.45,256.84 L96.41,256.84 L96.41,252 L101.45,252 L101.45,256.84 Z M122.31,250.9 L124.05,249.7 C123.31,248.46 122.25,247.02 120.85,245.38 L119.17,246.42 C119.53,246.86 119.89,247.32 120.25,247.8 C118.37,248.02 116.47,248.2 114.59,248.32 C115.17,247.6 115.83,246.58 116.57,245.26 L123.85,245.26 L123.85,243.38 L118.79,243.38 C118.55,242.62 118.29,241.94 118.05,241.34 L115.93,241.7 C116.19,242.22 116.43,242.78 116.67,243.38 L111.41,243.38 L111.41,245.26 L114.41,245.26 C113.39,246.92 112.55,247.96 111.89,248.36 C111.79,248.42 111.65,248.48 111.47,248.54 L111.93,250.3 C115.33,250.08 118.51,249.8 121.43,249.48 C121.75,249.96 122.03,250.44 122.31,250.9 Z M109.63,245.76 L111.11,244.28 C110.27,243.42 109.23,242.56 108.03,241.72 L106.53,243.16 C107.87,244.08 108.91,244.96 109.63,245.76 Z M109.21,250.88 L110.69,249.4 C109.85,248.44 108.79,247.46 107.55,246.5 L106.07,247.94 C107.43,249 108.47,249.98 109.21,250.88 Z M117.89,259.68 L117.89,250.88 L115.77,250.88 L115.77,259.68 L117.89,259.68 Z M111.31,260.08 C112.45,259.12 113.27,257.98 113.75,256.7 C114.19,255.46 114.45,253.52 114.53,250.88 L112.49,250.88 C112.41,253.16 112.21,254.8 111.87,255.76 C111.51,256.78 110.87,257.66 109.99,258.4 L111.31,260.08 Z M122.43,259.9 C123.33,259.82 123.91,259.58 124.17,259.18 C124.45,258.76 124.59,257.58 124.59,255.64 L122.77,254.96 C122.77,255.88 122.75,256.62 122.71,257.16 C122.69,257.68 122.57,257.96 122.33,258 L121.67,258 C121.51,257.96 121.43,257.84 121.43,257.64 L121.43,250.88 L119.45,250.88 L119.45,258.06 C119.45,259.28 120.17,259.9 121.61,259.9 L122.43,259.9 Z M108.33,259.82 C109.25,257.58 110.09,255.18 110.85,252.64 L109.01,251.92 C108.29,254.32 107.41,256.68 106.41,258.96 L108.33,259.82 Z M141.95,247 L141.95,241.86 L128.45,241.86 L128.45,247 L141.95,247 Z M139.95,243.86 L130.45,243.86 L130.45,243.04 L139.95,243.04 L139.95,243.86 Z M139.95,245.84 L130.45,245.84 L130.45,245.02 L139.95,245.02 L139.95,245.84 Z M144.19,249.24 L144.19,247.76 L126.15,247.76 L126.15,249.24 L144.19,249.24 Z M144.19,259.74 L144.19,258.18 L136.19,258.18 L136.19,257.34 L142.75,257.34 L142.75,256 L136.19,256 L136.19,255.22 L142.37,255.22 L142.37,249.98 L128.01,249.98 L128.01,255.22 L134.11,255.22 L134.11,256 L127.63,256 L127.63,257.34 L134.11,257.34 L134.11,258.18 L126.15,258.18 L126.15,259.74 L144.19,259.74 Z M134.11,252.04 L129.99,252.04 L129.99,251.2 L134.11,251.2 L134.11,252.04 Z M140.39,252.04 L136.19,252.04 L136.19,251.2 L140.39,251.2 L140.39,252.04 Z M140.39,254.02 L136.19,254.02 L136.19,253.16 L140.39,253.16 L140.39,254.02 Z M134.11,254.02 L129.99,254.02 L129.99,253.16 L134.11,253.16 L134.11,254.02 Z M156.23,260.04 L156.23,253.78 C158.23,256.04 160.59,257.84 163.29,259.18 L164.43,257.22 C160.99,255.62 158.25,253.48 156.23,250.78 L156.23,245.54 L163.37,245.54 L163.37,243.52 L156.23,243.52 L156.23,241.62 L154.11,241.62 L154.11,243.52 L146.99,243.52 L146.99,245.54 L154.11,245.54 L154.11,250.92 C152.17,253.54 149.47,255.68 145.99,257.36 L147.09,259.26 C149.93,257.78 152.27,255.96 154.11,253.8 L154.11,260.04 L156.23,260.04 Z M147.93,252.86 C148.69,252.22 149.37,251.46 149.95,250.6 C150.71,251.04 151.45,251.6 152.19,252.24 L153.31,250.5 C152.55,249.92 151.75,249.4 150.87,248.96 C151.23,248.16 151.53,247.26 151.77,246.3 L149.85,245.96 C149.29,248.2 148.23,249.96 146.63,251.28 L147.93,252.86 Z M162.61,252.48 L163.77,250.68 C162.91,249.96 161.97,249.34 160.97,248.8 C161.29,248.04 161.55,247.22 161.75,246.34 L159.81,246 C159.35,247.94 158.47,249.48 157.17,250.64 L158.47,252.28 C159.07,251.76 159.59,251.14 160.07,250.46 C160.91,251 161.77,251.68 162.61,252.48 Z M170.35,260.08 L170.35,259 L179.99,259 L179.99,260.08 L182.11,260.08 L182.11,243.76 L174.77,243.76 C175.11,243.16 175.39,242.52 175.59,241.82 L173.47,241.52 C173.27,242.28 172.95,243.04 172.55,243.76 L168.23,243.76 L168.23,260.08 L170.35,260.08 Z M179.99,248.1 L170.35,248.1 L170.35,245.76 L179.99,245.76 L179.99,248.1 Z M179.99,252.48 L170.35,252.48 L170.35,250.02 L179.99,250.02 L179.99,252.48 Z M179.99,257.02 L170.35,257.02 L170.35,254.4 L179.99,254.4 L179.99,257.02 Z M193.06,258.16 C193.653333,258.16 194.206667,258.128333 194.72,258.065 C195.233333,258.001667 195.715,257.906667 196.165,257.78 C196.615,257.653333 197.038333,257.491667 197.435,257.295 C197.831667,257.098333 198.213333,256.866667 198.58,256.6 L198.58,256.6 L198.58,250.75 L193.77,250.75 L193.77,252.27 C193.77,252.41 193.82,252.528333 193.92,252.625 C194.02,252.721667 194.156667,252.77 194.33,252.77 L194.33,252.77 L196.14,252.77 L196.14,255.4 C195.733333,255.593333 195.305,255.745 194.855,255.855 C194.405,255.965 193.876667,256.02 193.27,256.02 C192.583333,256.02 191.95,255.901667 191.37,255.665 C190.79,255.428333 190.29,255.086667 189.87,254.64 C189.45,254.193333 189.123333,253.645 188.89,252.995 C188.656667,252.345 188.54,251.603333 188.54,250.77 C188.54,249.996667 188.65,249.296667 188.87,248.67 C189.09,248.043333 189.403333,247.506667 189.81,247.06 C190.216667,246.613333 190.708333,246.27 191.285,246.03 C191.861667,245.79 192.506667,245.67 193.22,245.67 C193.66,245.67 194.048333,245.7 194.385,245.76 C194.721667,245.82 195.025,245.896667 195.295,245.99 C195.565,246.083333 195.811667,246.193333 196.035,246.32 C196.258333,246.446667 196.476667,246.573333 196.69,246.7 C196.856667,246.806667 197.02,246.86 197.18,246.86 C197.433333,246.86 197.636667,246.736667 197.79,246.49 L197.79,246.49 L198.57,245.27 C197.97,244.71 197.238333,244.255 196.375,243.905 C195.511667,243.555 194.49,243.38 193.31,243.38 C192.156667,243.38 191.116667,243.56 190.19,243.92 C189.263333,244.28 188.475,244.786667 187.825,245.44 C187.175,246.093333 186.673333,246.873333 186.32,247.78 C185.966667,248.686667 185.79,249.683333 185.79,250.77 C185.79,251.843333 185.971667,252.833333 186.335,253.74 C186.698333,254.646667 187.203333,255.426667 187.85,256.08 C188.496667,256.733333 189.263333,257.243333 190.15,257.61 C191.036667,257.976667 192.006667,258.16 193.06,258.16 Z M205.33,258.15 C206.096667,258.15 206.791667,258.026667 207.415,257.78 C208.038333,257.533333 208.57,257.18 209.01,256.72 C209.45,256.26 209.79,255.703333 210.03,255.05 C210.27,254.396667 210.39,253.663333 210.39,252.85 C210.39,252.043333 210.27,251.313333 210.03,250.66 C209.79,250.006667 209.45,249.453333 209.01,249 C208.57,248.546667 208.038333,248.196667 207.415,247.95 C206.791667,247.703333 206.096667,247.58 205.33,247.58 C204.563333,247.58 203.866667,247.703333 203.24,247.95 C202.613333,248.196667 202.078333,248.546667 201.635,249 C201.191667,249.453333 200.848333,250.006667 200.605,250.66 C200.361667,251.313333 200.24,252.043333 200.24,252.85 C200.24,253.663333 200.361667,254.396667 200.605,255.05 C200.848333,255.703333 201.191667,256.26 201.635,256.72 C202.078333,257.18 202.613333,257.533333 203.24,257.78 C203.866667,258.026667 204.563333,258.15 205.33,258.15 Z M205.33,256.25 C204.463333,256.25 203.823333,255.961667 203.41,255.385 C202.996667,254.808333 202.79,253.97 202.79,252.87 C202.79,251.77 202.996667,250.928333 203.41,250.345 C203.823333,249.761667 204.463333,249.47 205.33,249.47 C206.183333,249.47 206.815,249.76 207.225,250.34 C207.635,250.92 207.84,251.763333 207.84,252.87 C207.84,253.976667 207.635,254.816667 207.225,255.39 C206.815,255.963333 206.183333,256.25 205.33,256.25 Z M216.7,258.15 C217.466667,258.15 218.161667,258.026667 218.785,257.78 C219.408333,257.533333 219.94,257.18 220.38,256.72 C220.82,256.26 221.16,255.703333 221.4,255.05 C221.64,254.396667 221.76,253.663333 221.76,252.85 C221.76,252.043333 221.64,251.313333 221.4,250.66 C221.16,250.006667 220.82,249.453333 220.38,249 C219.94,248.546667 219.408333,248.196667 218.785,247.95 C218.161667,247.703333 217.466667,247.58 216.7,247.58 C215.933333,247.58 215.236667,247.703333 214.61,247.95 C213.983333,248.196667 213.448333,248.546667 213.005,249 C212.561667,249.453333 212.218333,250.006667 211.975,250.66 C211.731667,251.313333 211.61,252.043333 211.61,252.85 C211.61,253.663333 211.731667,254.396667 211.975,255.05 C212.218333,255.703333 212.561667,256.26 213.005,256.72 C213.448333,257.18 213.983333,257.533333 214.61,257.78 C215.236667,258.026667 215.933333,258.15 216.7,258.15 Z M216.7,256.25 C215.833333,256.25 215.193333,255.961667 214.78,255.385 C214.366667,254.808333 214.16,253.97 214.16,252.87 C214.16,251.77 214.366667,250.928333 214.78,250.345 C215.193333,249.761667 215.833333,249.47 216.7,249.47 C217.553333,249.47 218.185,249.76 218.595,250.34 C219.005,250.92 219.21,251.763333 219.21,252.87 C219.21,253.976667 219.005,254.816667 218.595,255.39 C218.185,255.963333 217.553333,256.25 216.7,256.25 Z M227.27,261.61 C228.056667,261.61 228.756667,261.508333 229.37,261.305 C229.983333,261.101667 230.501667,260.833333 230.925,260.5 C231.348333,260.166667 231.671667,259.786667 231.895,259.36 C232.118333,258.933333 232.23,258.493333 232.23,258.04 C232.23,257.553333 232.135,257.155 231.945,256.845 C231.755,256.535 231.505,256.29 231.195,256.11 C230.885,255.93 230.533333,255.798333 230.14,255.715 C229.746667,255.631667 229.343333,255.573333 228.93,255.54 C228.516667,255.506667 228.113333,255.485 227.72,255.475 C227.326667,255.465 226.975,255.44 226.665,255.4 C226.355,255.36 226.105,255.291667 225.915,255.195 C225.725,255.098333 225.63,254.946667 225.63,254.74 C225.63,254.5 225.79,254.283333 226.11,254.09 C226.476667,254.163333 226.853333,254.2 227.24,254.2 C227.813333,254.2 228.345,254.121667 228.835,253.965 C229.325,253.808333 229.748333,253.586667 230.105,253.3 C230.461667,253.013333 230.741667,252.665 230.945,252.255 C231.148333,251.845 231.25,251.386667 231.25,250.88 C231.25,250.666667 231.231667,250.463333 231.195,250.27 C231.158333,250.076667 231.106667,249.893333 231.04,249.72 L231.04,249.72 L231.96,249.55 C232.153333,249.516667 232.29,249.456667 232.37,249.37 C232.45,249.283333 232.49,249.163333 232.49,249.01 L232.49,249.01 L232.49,248.09 L229.54,248.09 C229.22,247.916667 228.866667,247.785 228.48,247.695 C228.093333,247.605 227.68,247.56 227.24,247.56 C226.653333,247.56 226.111667,247.636667 225.615,247.79 C225.118333,247.943333 224.688333,248.165 224.325,248.455 C223.961667,248.745 223.678333,249.095 223.475,249.505 C223.271667,249.915 223.17,250.373333 223.17,250.88 C223.17,251.506667 223.318333,252.053333 223.615,252.52 C223.911667,252.986667 224.32,253.36 224.84,253.64 C224.613333,253.753333 224.416667,253.881667 224.25,254.025 C224.083333,254.168333 223.945,254.32 223.835,254.48 C223.725,254.64 223.643333,254.801667 223.59,254.965 C223.536667,255.128333 223.51,255.286667 223.51,255.44 C223.51,255.813333 223.586667,256.116667 223.74,256.35 C223.893333,256.583333 224.096667,256.77 224.35,256.91 C223.83,257.103333 223.423333,257.363333 223.13,257.69 C222.836667,258.016667 222.69,258.42 222.69,258.9 C222.69,259.253333 222.783333,259.593333 222.97,259.92 C223.156667,260.246667 223.438333,260.535 223.815,260.785 C224.191667,261.035 224.666667,261.235 225.24,261.385 C225.813333,261.535 226.49,261.61 227.27,261.61 Z M227.24,252.62 C226.94,252.62 226.675,252.578333 226.445,252.495 C226.215,252.411667 226.025,252.295 225.875,252.145 C225.725,251.995 225.611667,251.816667 225.535,251.61 C225.458333,251.403333 225.42,251.18 225.42,250.94 C225.42,250.433333 225.571667,250.031667 225.875,249.735 C226.178333,249.438333 226.633333,249.29 227.24,249.29 C227.846667,249.29 228.301667,249.438333 228.605,249.735 C228.908333,250.031667 229.06,250.433333 229.06,250.94 C229.06,251.186667 229.021667,251.413333 228.945,251.62 C228.868333,251.826667 228.755,252.003333 228.605,252.15 C228.455,252.296667 228.266667,252.411667 228.04,252.495 C227.813333,252.578333 227.546667,252.62 227.24,252.62 Z M227.31,259.85 C226.856667,259.85 226.473333,259.818333 226.16,259.755 C225.846667,259.691667 225.591667,259.603333 225.395,259.49 C225.198333,259.376667 225.055,259.241667 224.965,259.085 C224.875,258.928333 224.83,258.76 224.83,258.58 C224.83,258.306667 224.915,258.065 225.085,257.855 C225.255,257.645 225.48,257.463333 225.76,257.31 C226.066667,257.35 226.385,257.378333 226.715,257.395 C227.045,257.411667 227.365,257.428333 227.675,257.445 C227.985,257.461667 228.278333,257.486667 228.555,257.52 C228.831667,257.553333 229.073333,257.605 229.28,257.675 C229.486667,257.745 229.65,257.843333 229.77,257.97 C229.89,258.096667 229.95,258.26 229.95,258.46 C229.95,258.66 229.9,258.845 229.8,259.015 C229.7,259.185 229.541667,259.331667 229.325,259.455 C229.108333,259.578333 228.833333,259.675 228.5,259.745 C228.166667,259.815 227.77,259.85 227.31,259.85 Z M236.67,258 L236.67,243.14 L234.2,243.14 L234.2,258 L236.67,258 Z M243.82,258.15 C244.18,258.15 244.551667,258.123333 244.935,258.07 C245.318333,258.016667 245.695,257.925 246.065,257.795 C246.435,257.665 246.79,257.491667 247.13,257.275 C247.47,257.058333 247.776667,256.79 248.05,256.47 L248.05,256.47 L247.33,255.57 C247.276667,255.496667 247.213333,255.44 247.14,255.4 C247.066667,255.36 246.98,255.34 246.88,255.34 C246.726667,255.34 246.568333,255.386667 246.405,255.48 C246.241667,255.573333 246.051667,255.676667 245.835,255.79 C245.618333,255.903333 245.365,256.006667 245.075,256.1 C244.785,256.193333 244.44,256.24 244.04,256.24 C243.226667,256.24 242.573333,255.993333 242.08,255.5 C241.586667,255.006667 241.303333,254.233333 241.23,253.18 L241.23,253.18 L247.57,253.18 C247.683333,253.18 247.776667,253.165 247.85,253.135 C247.923333,253.105 247.981667,253.055 248.025,252.985 C248.068333,252.915 248.098333,252.818333 248.115,252.695 C248.131667,252.571667 248.14,252.416667 248.14,252.23 C248.14,251.49 248.03,250.831667 247.81,250.255 C247.59,249.678333 247.283333,249.191667 246.89,248.795 C246.496667,248.398333 246.028333,248.096667 245.485,247.89 C244.941667,247.683333 244.346667,247.58 243.7,247.58 C242.933333,247.58 242.245,247.713333 241.635,247.98 C241.025,248.246667 240.508333,248.608333 240.085,249.065 C239.661667,249.521667 239.336667,250.058333 239.11,250.675 C238.883333,251.291667 238.77,251.95 238.77,252.65 C238.77,253.55 238.9,254.341667 239.16,255.025 C239.42,255.708333 239.776667,256.281667 240.23,256.745 C240.683333,257.208333 241.216667,257.558333 241.83,257.795 C242.443333,258.031667 243.106667,258.15 243.82,258.15 Z M245.92,251.69 L241.28,251.69 C241.393333,250.943333 241.653333,250.366667 242.06,249.96 C242.466667,249.553333 243.03,249.35 243.75,249.35 C244.116667,249.35 244.436667,249.411667 244.71,249.535 C244.983333,249.658333 245.21,249.826667 245.39,250.04 C245.57,250.253333 245.703333,250.501667 245.79,250.785 C245.876667,251.068333 245.92,251.37 245.92,251.69 L245.92,251.69 Z M254.01,260.12 L254.01,259.42 L263.65,259.42 L263.65,260.12 L265.73,260.12 L265.73,247.48 L259.51,247.48 C259.63,247 259.73,246.5 259.81,246 L267.77,246 L267.77,244 L263.09,244 C263.37,243.44 263.65,242.82 263.91,242.14 L261.85,241.4 C261.53,242.32 261.17,243.18 260.77,244 L256.81,244 C256.47,243.02 256.11,242.16 255.71,241.44 L253.67,242.22 C254.01,242.78 254.31,243.36 254.59,244 L249.89,244 L249.89,246 L257.59,246 C257.53,246.48 257.45,246.98 257.35,247.48 L251.93,247.48 L251.93,260.12 L254.01,260.12 Z M263.65,250.86 L254.01,250.86 L254.01,249.36 L263.65,249.36 L263.65,250.86 Z M263.65,254.18 L254.01,254.18 L254.01,252.66 L263.65,252.66 L263.65,254.18 Z M263.65,257.54 L254.01,257.54 L254.01,255.98 L263.65,255.98 L263.65,257.54 Z M270.49,260.2 C273.37,259.64 275.57,258.9 277.11,258.02 L276.13,256.76 L281.27,256.76 L280.49,257.92 C282.69,258.44 284.81,259.18 286.89,260.14 L287.99,258.44 C286.35,257.8 284.53,257.24 282.55,256.76 L285.85,256.76 L285.85,245.28 L279.41,245.28 C279.51,244.88 279.59,244.46 279.67,244.02 L287.53,244.02 L287.53,242.14 L270.19,242.14 L270.19,244.02 L277.59,244.02 C277.51,244.44 277.43,244.86 277.31,245.28 L272.09,245.28 L272.09,256.76 L275.73,256.76 C274.27,257.46 272.19,258.04 269.49,258.48 L270.49,260.2 Z M283.81,248.46 L274.13,248.46 L274.13,247.18 L283.81,247.18 L283.81,248.46 Z M283.81,251.62 L274.13,251.62 L274.13,250.22 L283.81,250.22 L283.81,251.62 Z M283.81,254.84 L274.13,254.84 L274.13,253.38 L283.81,253.38 L283.81,254.84 Z" id="網站流量來自Google首頁" fill="#FFFFFF" fill-rule="nonzero"></path>
                    <path d="M315.75935,126.279293 C291.340282,113.45509 263.538975,106.199219 234.042969,106.199219 C234.042969,158.731141 234.042969,217.397808 234.042969,282.199219 C234.042969,282.199219 261.281763,230.22591 315.75935,126.279293 Z" id="Oval-2" fill-opacity="0.25" fill="#9B9B9B" style="mix-blend-mode: multiply;" transform="translate(274.901159, 194.199219) rotate(-282.000000) translate(-274.901159, -194.199219) "></path>
                    <path d="M99.2,215.2 C102.08,215.2 104.666667,214.666667 106.96,213.6 C109.253333,212.533333 110.933333,211.226667 112,209.68 L112,209.68 L137.12,174 C139.04,171.28 140.773333,168.52 142.32,165.72 C143.866667,162.92 145.186667,159.986667 146.28,156.92 C147.373333,153.853333 148.226667,150.64 148.84,147.28 C149.453333,143.92 149.76,140.32 149.76,136.48 C149.76,130.72 148.84,125.453333 147,120.68 C145.16,115.906667 142.52,111.786667 139.08,108.32 C135.64,104.853333 131.44,102.16 126.48,100.24 C121.52,98.32 115.893333,97.36 109.6,97.36 C103.413333,97.36 97.8133333,98.3866667 92.8,100.44 C87.7866667,102.493333 83.48,105.28 79.88,108.8 C76.28,112.32 73.5066667,116.426667 71.56,121.12 C69.6133333,125.813333 68.64,130.8 68.64,136.08 C68.64,141.84 69.6,146.826667 71.52,151.04 C73.44,155.253333 75.9333333,158.746667 79,161.52 C82.0666667,164.293333 85.4933333,166.36 89.28,167.72 C93.0666667,169.08 96.8533333,169.76 100.64,169.76 C103.733333,169.76 106.693333,169.44 109.52,168.8 C112.346667,168.16 114.96,167.2 117.36,165.92 C116.72,166.773333 116.066667,167.613333 115.4,168.44 C114.733333,169.266667 114.026667,170.133333 113.28,171.04 L113.28,171.04 L76.32,215.2 L99.2,215.2 Z M109.6,151.68 C98.8266667,151.68 93.44,145.866667 93.44,134.24 C93.44,131.786667 93.8,129.506667 94.52,127.4 C95.24,125.293333 96.28,123.466667 97.64,121.92 C99,120.373333 100.653333,119.16 102.6,118.28 C104.546667,117.4 106.773333,116.96 109.28,116.96 C111.733333,116.96 114,117.333333 116.08,118.08 C118.16,118.826667 119.933333,119.92 121.4,121.36 C122.866667,122.8 124.013333,124.6 124.84,126.76 C125.666667,128.92 126.08,131.413333 126.08,134.24 C126.08,139.52 124.653333,143.746667 121.8,146.92 C118.946667,150.093333 114.88,151.68 109.6,151.68 Z M235.68,215.2 L235.68,200.8 C235.68,198.4 234.906667,196.466667 233.36,195 C231.813333,193.533333 229.706667,192.8 227.04,192.8 L227.04,192.8 L205.28,192.8 C202.773333,192.8 200.093333,193.053333 197.24,193.56 C194.386667,194.066667 191.493333,194.746667 188.56,195.6 L188.56,195.6 L211.36,172.24 C214.453333,169.093333 217.373333,165.986667 220.12,162.92 C222.866667,159.853333 225.28,156.68 227.36,153.4 C229.44,150.12 231.08,146.666667 232.28,143.04 C233.48,139.413333 234.08,135.466667 234.08,131.2 C234.08,126.24 233.213333,121.693333 231.48,117.56 C229.746667,113.426667 227.253333,109.866667 224,106.88 C220.746667,103.893333 216.813333,101.56 212.2,99.88 C207.586667,98.2 202.4,97.36 196.64,97.36 C191.306667,97.36 186.32,98.0666667 181.68,99.48 C177.04,100.893333 172.92,103.04 169.32,105.92 C165.72,108.8 162.706667,112.4 160.28,116.72 C157.853333,121.04 156.213333,126.106667 155.36,131.92 L155.36,131.92 L168.48,134.24 C169.12,134.346667 169.746667,134.426667 170.36,134.48 C170.973333,134.533333 171.546667,134.56 172.08,134.56 C174.32,134.56 176.093333,134.026667 177.4,132.96 C178.706667,131.893333 179.786667,130.16 180.64,127.76 C181.173333,126.32 181.88,124.986667 182.76,123.76 C183.64,122.533333 184.693333,121.466667 185.92,120.56 C187.146667,119.653333 188.533333,118.933333 190.08,118.4 C191.626667,117.866667 193.333333,117.6 195.2,117.6 C199.733333,117.6 203.106667,118.84 205.32,121.32 C207.533333,123.8 208.64,127.36 208.64,132 C208.64,134.826667 208.293333,137.506667 207.6,140.04 C206.906667,142.573333 205.866667,145.106667 204.48,147.64 C203.093333,150.173333 201.333333,152.746667 199.2,155.36 C197.066667,157.973333 194.56,160.72 191.68,163.6 L191.68,163.6 L158.08,197.44 C156.48,198.88 155.36,200.48 154.72,202.24 C154.08,204 153.76,205.653333 153.76,207.2 L153.76,207.2 L153.76,215.2 L235.68,215.2 Z M253.2,185.4 C255.04,185.4 256.806667,185.053333 258.5,184.36 C260.193333,183.666667 261.68,182.686667 262.96,181.42 C264.24,180.153333 265.266667,178.64 266.04,176.88 C266.813333,175.12 267.2,173.173333 267.2,171.04 C267.2,168.826667 266.853333,166.82 266.16,165.02 C265.466667,163.22 264.5,161.68 263.26,160.4 C262.02,159.12 260.54,158.126667 258.82,157.42 C257.1,156.713333 255.226667,156.36 253.2,156.36 C251.173333,156.36 249.313333,156.713333 247.62,157.42 C245.926667,158.126667 244.46,159.12 243.22,160.4 C241.98,161.68 241.013333,163.22 240.32,165.02 C239.626667,166.82 239.28,168.826667 239.28,171.04 C239.28,173.173333 239.626667,175.12 240.32,176.88 C241.013333,178.64 241.98,180.153333 243.22,181.42 C244.46,182.686667 245.926667,183.666667 247.62,184.36 C249.313333,185.053333 251.173333,185.4 253.2,185.4 Z M250.88,215.2 C251.733333,215.2 252.46,215.033333 253.06,214.7 C253.66,214.366667 254.16,213.946667 254.56,213.44 L254.56,213.44 L298.48,156.92 L289.44,156.92 C288.4,156.92 287.586667,157.113333 287,157.5 C286.413333,157.886667 285.92,158.306667 285.52,158.76 L285.52,158.76 L241.6,215.2 L250.88,215.2 Z M253.2,177.68 C252.56,177.68 251.973333,177.573333 251.44,177.36 C250.906667,177.146667 250.453333,176.786667 250.08,176.28 C249.706667,175.773333 249.413333,175.093333 249.2,174.24 C248.986667,173.386667 248.88,172.32 248.88,171.04 C248.88,169.68 248.986667,168.553333 249.2,167.66 C249.413333,166.766667 249.706667,166.053333 250.08,165.52 C250.453333,164.986667 250.906667,164.613333 251.44,164.4 C251.973333,164.186667 252.56,164.08 253.2,164.08 C253.84,164.08 254.433333,164.186667 254.98,164.4 C255.526667,164.613333 256,164.986667 256.4,165.52 C256.8,166.053333 257.113333,166.766667 257.34,167.66 C257.566667,168.553333 257.68,169.68 257.68,171.04 C257.68,172.32 257.566667,173.386667 257.34,174.24 C257.113333,175.093333 256.8,175.773333 256.4,176.28 C256,176.786667 255.526667,177.146667 254.98,177.36 C254.433333,177.573333 253.84,177.68 253.2,177.68 Z M286.72,215.92 C288.56,215.92 290.326667,215.573333 292.02,214.88 C293.713333,214.186667 295.2,213.206667 296.48,211.94 C297.76,210.673333 298.786667,209.153333 299.56,207.38 C300.333333,205.606667 300.72,203.653333 300.72,201.52 C300.72,199.306667 300.373333,197.3 299.68,195.5 C298.986667,193.7 298.02,192.16 296.78,190.88 C295.54,189.6 294.06,188.606667 292.34,187.9 C290.62,187.193333 288.746667,186.84 286.72,186.84 C284.693333,186.84 282.833333,187.193333 281.14,187.9 C279.446667,188.606667 277.98,189.6 276.74,190.88 C275.5,192.16 274.533333,193.7 273.84,195.5 C273.146667,197.3 272.8,199.306667 272.8,201.52 C272.8,203.653333 273.146667,205.606667 273.84,207.38 C274.533333,209.153333 275.5,210.673333 276.74,211.94 C277.98,213.206667 279.446667,214.186667 281.14,214.88 C282.833333,215.573333 284.693333,215.92 286.72,215.92 Z M286.72,208.16 C286.08,208.16 285.493333,208.053333 284.96,207.84 C284.426667,207.626667 283.973333,207.266667 283.6,206.76 C283.226667,206.253333 282.933333,205.573333 282.72,204.72 C282.506667,203.866667 282.4,202.8 282.4,201.52 C282.4,200.186667 282.506667,199.073333 282.72,198.18 C282.933333,197.286667 283.226667,196.573333 283.6,196.04 C283.973333,195.506667 284.426667,195.133333 284.96,194.92 C285.493333,194.706667 286.08,194.6 286.72,194.6 C287.36,194.6 287.953333,194.706667 288.5,194.92 C289.046667,195.133333 289.52,195.506667 289.92,196.04 C290.32,196.573333 290.633333,197.286667 290.86,198.18 C291.086667,199.073333 291.2,200.186667 291.2,201.52 C291.2,202.8 291.086667,203.866667 290.86,204.72 C290.633333,205.573333 290.32,206.253333 289.92,206.76 C289.52,207.266667 289.046667,207.626667 288.5,207.84 C287.953333,208.053333 287.36,208.16 286.72,208.16 Z" id="92%" fill="#FFFFFF" fill-rule="nonzero"></path>
                </g>
            </g>
        </g>
    </g>
</svg>