<?xml version="1.0" encoding="UTF-8"?>
<svg width="213px" height="245px" viewBox="0 0 213 245" version="1.1" xmlns="http://www.w3.org/2000/svg" xmlns:xlink="http://www.w3.org/1999/xlink">
    <!-- Generator: sketchtool 63.1 (101010) - https://sketch.com -->
    <title>550A2322-ED4A-4E21-8CEC-4B8DAB5E1BF1</title>
    <desc>Created with sketchtool.</desc>
    <defs>
        <filter x="-2.9%" y="-33.0%" width="105.8%" height="166.0%" filterUnits="objectBoundingBox" id="filter-1">
            <feGaussianBlur stdDeviation="1.65066964" in="SourceGraphic"></feGaussianBlur>
        </filter>
        <linearGradient x1="55.578725%" y1="93.9556918%" x2="57.9373666%" y2="0%" id="linearGradient-2">
            <stop stop-color="#0056FF" offset="0%"></stop>
            <stop stop-color="#BCD1FF" offset="100%"></stop>
        </linearGradient>
        <linearGradient x1="55.6463724%" y1="93.9556918%" x2="58.0336147%" y2="0%" id="linearGradient-3">
            <stop stop-color="#2952A4" offset="0%"></stop>
            <stop stop-color="#6D98F4" offset="100%"></stop>
        </linearGradient>
    </defs>
    <g id="Page-1" stroke="none" stroke-width="1" fill="none" fill-rule="evenodd">
        <g id="FAQs---How-Much-Does-It-Cost-To-Advertise-On-Facebook---Mobile" transform="translate(-74.000000, -593.000000)">
            <g id="img_facebook_landscape_mob" transform="translate(58.000000, 554.000000)">
                <ellipse id="Oval-4" fill="#000000" opacity="0.147860054" filter="url(#filter-1)" cx="121" cy="272.5" rx="85" ry="7.5"></ellipse>
                <path d="M151.694159,242.187684 C204.363116,242.277035 204.728906,184.493899 204.640031,131.994454 C204.551156,79.4950095 203.990958,22.4403128 151.322002,22.350775 C98.6530449,22.2614033 56.0787785,94.4675091 56.1675149,146.966954 C56.2565291,199.466399 99.0252023,242.098125 151.694159,242.187684 Z" id="Oval-5" fill="url(#linearGradient-2)" opacity="0.353713768" transform="translate(130.406499, 132.269229) rotate(-247.000000) translate(-130.406499, -132.269229) "></path>
                <path d="M151.420476,241.83605 C204.237997,241.728149 204.820685,184.105737 204.927683,131.753894 C205.034682,79.4020503 204.686043,22.5094954 151.868523,22.6170389 C99.051002,22.7248876 56.0866315,94.8876054 55.9794324,147.239449 C55.8726344,199.591292 98.6029553,241.943541 151.420476,241.83605 Z" id="Oval-5" fill="url(#linearGradient-3)" transform="translate(130.457244, 132.226544) rotate(-330.000000) translate(-130.457244, -132.226544) "></path>
                <g id="facebook-logo" transform="translate(98.000000, 100.000000)" fill="#FFFFFF" fill-rule="nonzero">
                    <path d="M46.8005191,0.0184767218 L35.1359492,0 C22.0312049,0 13.5623435,8.5778181 13.5623435,21.8542665 L13.5623435,31.9305468 L1.83414015,31.9305468 C0.82068414,31.9305468 0,32.7416749 0,33.7421893 L0,48.3415711 C0,49.3420856 0.821619926,50.1522898 1.83414015,50.1522898 L13.5623435,50.1522898 L13.5623435,86.9911777 C13.5623435,87.9916922 14.3830276,88.8018965 15.3964836,88.8018965 L30.6984529,88.8018965 C31.7119089,88.8018965 32.5325931,87.9907684 32.5325931,86.9911777 L32.5325931,50.1522898 L46.2455981,50.1522898 C47.2590541,50.1522898 48.0797382,49.3420856 48.0797382,48.3415711 L48.0853529,33.7421893 C48.0853529,33.2617946 47.8916453,32.8017242 47.5482119,32.4617525 C47.2047785,32.1217808 46.7368856,31.9305468 46.250277,31.9305468 L32.5325931,31.9305468 L32.5325931,23.3887583 C32.5325931,19.2832307 33.5235902,17.1990565 38.9408542,17.1990565 L46.7986475,17.196285 C47.8111677,17.196285 48.6318519,16.3851569 48.6318519,15.3855662 L48.6318519,1.82919546 C48.6318519,0.830528645 47.8121035,0.020324394 46.8005191,0.0184767218 Z" id="Shape"></path>
                </g>
            </g>
        </g>
    </g>
</svg>