<?xml version="1.0" encoding="UTF-8"?>
<svg width="486px" height="391px" viewBox="0 0 486 391" version="1.1" xmlns="http://www.w3.org/2000/svg" xmlns:xlink="http://www.w3.org/1999/xlink">
    <!-- Generator: Sketch 63.1 (92452) - https://sketch.com -->
    <title>img_poor_website_content</title>
    <desc>Created with Sketch.</desc>
    <defs>
        <filter x="-6.3%" y="-9.2%" width="112.7%" height="118.4%" filterUnits="objectBoundingBox" id="filter-1">
            <feOffset dx="0" dy="5" in="SourceAlpha" result="shadowOffsetOuter1"></feOffset>
            <feGaussianBlur stdDeviation="5" in="shadowOffsetOuter1" result="shadowBlurOuter1"></feGaussianBlur>
            <feColorMatrix values="0 0 0 0 0   0 0 0 0 0   0 0 0 0 0  0 0 0 0.25 0" type="matrix" in="shadowBlurOuter1" result="shadowMatrixOuter1"></feColorMatrix>
            <feMerge>
                <feMergeNode in="shadowMatrixOuter1"></feMergeNode>
                <feMergeNode in="SourceGraphic"></feMergeNode>
            </feMerge>
        </filter>
        <linearGradient x1="0%" y1="30.744983%" x2="100%" y2="69.255017%" id="linearGradient-2">
            <stop stop-color="#ADDBFF" offset="0%"></stop>
            <stop stop-color="#AAD9FF" offset="0.0642956149%"></stop>
            <stop stop-color="#74B5FF" offset="100%"></stop>
        </linearGradient>
        <linearGradient x1="0%" y1="30.744983%" x2="100%" y2="69.255017%" id="linearGradient-3">
            <stop stop-color="#ADDBFF" offset="0%"></stop>
            <stop stop-color="#74B5FF" offset="100%"></stop>
        </linearGradient>
        <filter x="-7.7%" y="-7.7%" width="115.4%" height="115.4%" filterUnits="objectBoundingBox" id="filter-4">
            <feOffset dx="0" dy="2" in="SourceAlpha" result="shadowOffsetOuter1"></feOffset>
            <feGaussianBlur stdDeviation="4.5" in="shadowOffsetOuter1" result="shadowBlurOuter1"></feGaussianBlur>
            <feColorMatrix values="0 0 0 0 0   0 0 0 0 0   0 0 0 0 0  0 0 0 0.3 0" type="matrix" in="shadowBlurOuter1" result="shadowMatrixOuter1"></feColorMatrix>
            <feMerge>
                <feMergeNode in="shadowMatrixOuter1"></feMergeNode>
                <feMergeNode in="SourceGraphic"></feMergeNode>
            </feMerge>
        </filter>
        <polygon id="path-5" points="33.8473129 22.2886807 22.7761131 33.330193 0.63621827 11.2496664 11.7074181 0.208154125"></polygon>
        <linearGradient x1="16.6709495%" y1="16.8494338%" x2="83.3336043%" y2="83.1550551%" id="linearGradient-7">
            <stop stop-color="#C5C6C8" offset="0%"></stop>
            <stop stop-color="#F1F1F2" offset="100%"></stop>
        </linearGradient>
        <polygon id="path-8" points="0.66377103 22.6425945 78.1496458 99.9231884 100.289541 77.8426618 22.8036659 0.562067935"></polygon>
        <linearGradient x1="74.1460738%" y1="99.7347095%" x2="24.1234557%" y2="8.45063194%" id="linearGradient-10">
            <stop stop-color="#427FDF" offset="0%"></stop>
            <stop stop-color="#396BB1" offset="100%"></stop>
        </linearGradient>
        <linearGradient x1="50%" y1="0%" x2="50%" y2="100%" id="linearGradient-11">
            <stop stop-color="#DA3E3F" offset="0%"></stop>
            <stop stop-color="#FF5254" offset="100%"></stop>
        </linearGradient>
        <linearGradient x1="50%" y1="0%" x2="50%" y2="100%" id="linearGradient-12">
            <stop stop-color="#DA3E3F" offset="0%"></stop>
            <stop stop-color="#FF5254" offset="100%"></stop>
        </linearGradient>
        <linearGradient x1="165.997457%" y1="218.346819%" x2="30.915411%" y2="3.38518291%" id="linearGradient-13">
            <stop stop-color="#427FDF" offset="0%"></stop>
            <stop stop-color="#396BB1" offset="100%"></stop>
        </linearGradient>
        <filter x="-27.1%" y="-24.2%" width="154.1%" height="148.4%" filterUnits="objectBoundingBox" id="filter-14">
            <feOffset dx="0" dy="5" in="SourceAlpha" result="shadowOffsetOuter1"></feOffset>
            <feGaussianBlur stdDeviation="5" in="shadowOffsetOuter1" result="shadowBlurOuter1"></feGaussianBlur>
            <feColorMatrix values="0 0 0 0 0   0 0 0 0 0   0 0 0 0 0  0 0 0 0.25 0" type="matrix" in="shadowBlurOuter1" result="shadowMatrixOuter1"></feColorMatrix>
            <feMerge>
                <feMergeNode in="shadowMatrixOuter1"></feMergeNode>
                <feMergeNode in="SourceGraphic"></feMergeNode>
            </feMerge>
        </filter>
        <polygon id="path-15" points="0 0.0223317419 108.97953 0.0223317419 108.97953 120.999923 0 120.999923"></polygon>
        <linearGradient x1="14.6447917%" y1="14.8342632%" x2="85.3554053%" y2="85.1654656%" id="linearGradient-17">
            <stop stop-color="#FEFEFE" offset="0%"></stop>
            <stop stop-color="#C5C6C8" offset="100%"></stop>
        </linearGradient>
        <path d="M161.692118,28.4015009 C198.680446,65.290644 198.680446,125.102166 161.692118,161.99131 C124.703791,198.880453 64.7314518,198.880453 27.7431243,161.99131 C-9.24770809,125.102166 -9.24770809,65.290644 27.7431243,28.4015009 C64.7314518,-8.48764216 124.703791,-8.48764216 161.692118,28.4015009" id="path-18"></path>
    </defs>
    <g id="Page-1" stroke="none" stroke-width="1" fill="none" fill-rule="evenodd">
        <g id="FAQs---Why-Isn't-My-Website-Showing-On-Google" transform="translate(-125.000000, -987.000000)">
            <g id="img_poor_website_content" transform="translate(135.000000, 992.000000)">
                <g id="img_analyse_website">
                    <g id="img_blogs" filter="url(#filter-1)">
                        <rect id="Rectangle" fill="#FFFFFF" x="0" y="0" width="465.175221" height="321" rx="13"></rect>
                        <path d="M13,0 L453,0 C460.179702,-3.09524665e-15 466,5.82029825 466,13 L466,54.4627249 L466,54.4627249 L0,54.4627249 L0,13 C-2.65561672e-15,5.82029825 5.82029825,-4.57467025e-16 13,0 Z" id="Rectangle-2" fill="#FF5254"></path>
                        <polygon id="Fill-5" fill="#E9ECED" points="0 83.344473 465.175221 83.344473 465.175221 54.4627249 0 54.4627249"></polygon>
                        <path d="M82.4778761,29.7080794 C82.4778761,33.8091219 79.15499,37.1336761 75.0560052,37.1336761 C70.9570204,37.1336761 67.6318584,33.8091219 67.6318584,29.7080794 C67.6318584,25.6070369 70.9570204,22.2802057 75.0560052,22.2802057 C79.15499,22.2802057 82.4778761,25.6070369 82.4778761,29.7080794" id="Fill-6" fill="#FFFFFF"></path>
                        <path d="M61.0336283,29.7080794 C61.0336283,33.8091219 57.7084663,37.1336761 53.6094815,37.1336761 C49.5104967,37.1336761 46.1876106,33.8091219 46.1876106,29.7080794 C46.1876106,25.6070369 49.5104967,22.2802057 53.6094815,22.2802057 C57.7084663,22.2802057 61.0336283,25.6070369 61.0336283,29.7080794" id="Fill-7" fill="#FFFFFF"></path>
                        <path d="M40.4141593,29.7080794 C40.4141593,33.8091219 37.0912732,37.1336761 32.9900125,37.1336761 C28.8910277,37.1336761 25.5681416,33.8091219 25.5681416,29.7080794 C25.5681416,25.6070369 28.8910277,22.2802057 32.9900125,22.2802057 C37.0912732,22.2802057 40.4141593,25.6070369 40.4141593,29.7080794" id="Fill-8" fill="#FFFFFF"></path>
                        <path d="M99.8238938,23.9305913 L394.218584,23.9305913 C395.599296,23.9305913 396.718584,25.0498794 396.718584,26.4305913 L396.718584,29.6825193 C396.718584,31.0632312 395.599296,32.1825193 394.218584,32.1825193 L99.8238938,32.1825193 C98.4431819,32.1825193 97.3238938,31.0632312 97.3238938,29.6825193 L97.3238938,26.4305913 C97.3238938,25.0498794 98.4431819,23.9305913 99.8238938,23.9305913 Z" id="Rectangle-3" fill="#FFFFFF"></path>
                        <polygon id="Fill-10" fill="#FFFFFF" points="425.171056 18.9794344 426.826108 24.02251 432.184071 24.02251 427.84884 27.1394438 429.506287 32.1825193 425.171056 29.0655855 420.83822 32.1825193 422.493273 27.1394438 418.162832 24.02251 423.518399 24.02251"></polygon>
                        <g id="Group-7" transform="translate(183.100885, 122.128535)" fill="#DADFE1">
                            <polygon id="Fill-16" points="0 57.7634961 132.653535 57.7634961 132.653535 47.6548843 0 47.6548843"></polygon>
                            <polygon id="Fill-17" points="0 33.2140103 188.282436 33.2140103 188.282436 23.1053985 0 23.1053985"></polygon>
                            <polygon id="Fill-18" points="0 10.1086118 242.484956 10.1086118 242.484956 0 0 0"></polygon>
                        </g>
                        <g id="Group-7-Copy" transform="translate(183.100885, 221.151671)" fill="#DADFE1">
                            <polygon id="Fill-16" points="0 57.7634961 132.653535 57.7634961 132.653535 47.6548843 0 47.6548843"></polygon>
                            <polygon id="Fill-17" points="0 33.2140103 188.282436 33.2140103 188.282436 23.1053985 0 23.1053985"></polygon>
                            <polygon id="Fill-18" points="0 10.1086118 242.484956 10.1086118 242.484956 0 0 0"></polygon>
                        </g>
                        <rect id="Rectangle-4" fill="url(#linearGradient-2)" x="29.6920354" y="110.575835" width="130.315044" height="80.8688946"></rect>
                        <rect id="Rectangle-4-Copy" fill="url(#linearGradient-3)" x="29.6920354" y="208.773779" width="130.315044" height="80.8688946"></rect>
                    </g>
                    <g id="Group" filter="url(#filter-4)" transform="translate(187.000000, 97.000000)">
                        <g id="Group-3" transform="translate(162.811762, 164.076393)">
                            <mask id="mask-6" fill="white">
                                <use xlink:href="#path-5"></use>
                            </mask>
                            <g id="Clip-2"></g>
                            <polygon id="Fill-1" fill="url(#linearGradient-7)" mask="url(#mask-6)" points="33.8473129 22.2886807 22.7761131 33.330193 0.63621827 11.2496664 11.7074181 0.208154125"></polygon>
                        </g>
                        <g id="Group-6" transform="translate(177.840540, 178.296276)">
                            <mask id="mask-9" fill="white">
                                <use xlink:href="#path-8"></use>
                            </mask>
                            <g id="Clip-5"></g>
                            <polygon id="Fill-4" fill="url(#linearGradient-10)" mask="url(#mask-9)" points="0.66377103 22.6425945 78.1496458 99.9231884 100.289541 77.8426618 22.8036659 0.562067935"></polygon>
                        </g>
                        <polygon id="Fill-7" fill="url(#linearGradient-11)" points="205.514031 183.71611 183.374136 205.796636 178.504812 200.940369 200.644707 178.859843"></polygon>
                        <polygon id="Fill-8" fill="url(#linearGradient-12)" points="251.121864 273.360949 255.991188 278.219714 278.131083 256.139187 273.261759 251.280422"></polygon>
                        <g id="Group-18" transform="translate(0.000000, 0.099923)" fill="url(#linearGradient-13)">
                            <path d="M102.231509,15.7214981 C78.9394081,15.7214981 57.0399737,24.7695428 40.5709378,41.1944169 C24.099397,57.619291 15.0295295,79.4600019 15.0295295,102.689645 C15.0295295,125.921786 24.099397,147.759999 40.568433,164.187371 C74.5685385,198.093807 129.891975,198.093807 163.894586,164.187371 C197.892186,130.275939 197.892186,75.1033509 163.894586,41.1944169 C147.423045,24.7695428 125.52361,15.7214981 102.231509,15.7214981 M102.231509,204.598807 C76.0513779,204.598807 49.8737514,194.661446 29.9430869,174.784226 C10.6336119,155.526529 0.000751438901,129.92371 0.000751438901,102.689645 C0.000751438901,75.4555801 10.6336119,49.8527612 29.9430869,30.5950647 C49.2525619,11.3398663 74.9242196,0.733019856 102.231509,0.733019856 C129.538799,0.733019856 155.210457,11.3398663 174.519932,30.5975628 C214.378756,70.3495052 214.378756,135.032283 174.519932,174.784226 C154.589267,194.661446 128.411641,204.598807 102.231509,204.598807" id="Fill-12"></path>
                        </g>
                    </g>
                </g>
                <g id="img_thumbs_down" filter="url(#filter-14)" transform="translate(289.500000, 207.000000) rotate(-180.000000) translate(-289.500000, -207.000000) translate(235.000000, 146.000000)">
                    <g id="Group-5" transform="translate(0.000000, -0.000000)">
                        <mask id="mask-16" fill="white">
                            <use xlink:href="#path-15"></use>
                        </mask>
                        <g id="Clip-4"></g>
                        <path d="M64.1190069,0.0222545359 C61.0197647,0.0222545359 58.2974846,1.23927829 56.4541955,3.44917107 C53.2887711,7.24513223 54.0346426,12.0180065 54.5281157,15.1762462 C54.6088932,15.6927543 54.7472972,16.5785643 54.7857987,17.0603297 C53.8562273,20.2587165 47.974059,33.4846173 43.1100405,38.6888157 C37.2779493,44.9275743 34.9849731,52.4631363 33.8830259,56.0843546 C33.8133207,56.3123696 33.6965581,56.6960834 33.5996753,57.0033632 C33.5191493,57.1011575 33.4237764,57.2133635 33.3150664,57.3381798 L32.1346065,57.5149816 L4.55422008,61.6429285 L-2.5164356e-05,62.3244 L0.258161133,67.024186 L0.376433609,69.1823507 C1.43358823,88.4403555 10.2003467,106.378652 24.4285256,118.397566 L25.3965984,119.21595 L27.5076362,120.999923 L30.1189415,120.156319 L31.3175198,119.769002 C38.6023494,117.415506 45.2568118,116.065431 49.575267,116.065431 C49.9363755,116.065431 50.2838953,116.07521 50.6077606,116.094254 C55.239512,116.365247 58.4346304,116.699807 61.0021497,116.968998 L61.0227844,116.971057 C63.6363545,117.244623 65.8935973,117.480359 68.2834562,117.480359 L68.2975483,117.480359 L68.3121436,117.480359 L68.6984165,117.478043 L68.7135151,117.478043 L68.7286137,117.477786 C73.7929404,117.417308 82.2695539,117.315653 91.3855937,114.823186 L91.5554531,114.776863 L91.9447457,114.67109 L92.3126486,114.503039 L92.4794883,114.426862 C94.6169487,113.45278 97.7632482,111.844064 100.37254,109.142112 C103.50198,105.902034 105.088844,101.950374 105.088844,97.3965076 C105.088844,96.8007347 105.057137,96.2178295 104.993974,95.648564 C107.561997,92.8634866 108.979757,88.9792533 108.979757,84.5033647 C108.979757,82.3076263 108.979757,79.3032839 107.950031,76.4394564 C108.979757,73.6680187 108.979757,70.7704779 108.979757,68.6480853 L108.979757,68.5320189 C108.979757,67.201245 108.979757,64.7237048 108.307365,62.1514586 C107.746955,60.0071909 106.872997,58.367593 105.888316,57.1153119 C106.218975,55.8419278 106.385563,54.603029 106.385563,53.408395 C106.385563,48.9219549 104.60896,44.9388979 101.383644,42.1926808 C98.3815365,39.6366479 94.319506,38.2858004 89.6361676,38.2858004 C89.3515588,38.2858004 89.0961406,38.2971239 88.9076595,38.3056166 L88.6733794,38.3151387 L88.4916927,38.3226019 L88.3112643,38.3431902 L88.2259571,38.3529696 C85.8149601,38.6262788 83.5307915,39.0290367 81.8631496,39.3229342 L81.7818687,39.337346 C81.3067656,39.4207284 80.5578744,39.552236 80.191733,39.6078243 L76.9392399,39.6078243 C77.904293,35.1316784 78.8031638,31.7747619 79.4740456,30.2018186 C81.8712022,24.5850828 81.0971466,15.7182322 77.6332729,9.11969366 C75.0589592,4.2160839 71.1589872,1.06993982 66.6512961,0.260048984 C65.7705436,0.102291412 64.9189818,0.0222545359 64.1190069,0.0222545359 M43.6309427,109.115347 C45.9757575,109.115347 50.3329658,108.594464 50.9862325,108.594464 C51.002841,108.594464 51.016933,108.594979 51.0285086,108.595494 C60.5350992,109.152406 64.2123666,109.96976 68.2837079,109.96976 C68.4027353,109.96976 68.5225176,109.96976 68.6428032,109.967444 C73.5823148,109.90851 81.4111977,109.775973 89.4882012,107.567625 C95.2050397,104.962952 97.7448782,101.821183 97.7448782,97.3965076 C97.7448782,94.9982322 96.8037313,93.4471639 95.1929608,92.5217214 C99.6281787,92.2157283 101.63605,88.764878 101.63605,84.5432544 C101.63605,80.6322564 101.649883,77.0676558 97.6598227,76.3169562 C101.675802,75.651698 101.63605,72.4731274 101.63605,68.5320189 C101.63605,64.1096598 101.052985,60.2581104 96.3160461,60.2581104 C96.2921399,60.2581104 99.0415975,56.5149066 99.0415975,53.408395 C99.0415975,48.9880947 95.7785354,45.7961417 89.6361676,45.7961417 C89.436111,45.7961417 89.2410872,45.8097815 89.0425405,45.8169873 C85.1085966,46.2627233 81.3669085,47.1181656 80.4786067,47.1181656 L67.9905431,47.1181656 C67.9905431,47.1181656 70.507482,32.4397629 72.7430835,27.1985056 C74.9804464,21.9562189 72.2785495,8.896311 65.381251,7.65741221 C64.9094193,7.57274298 64.4906844,7.53285322 64.1190069,7.53285322 C59.059713,7.53285322 62.8074406,14.9662459 62.026339,18.4276478 C61.1873593,22.1461456 54.4765287,37.3971595 48.4182099,43.8783449 C42.360646,50.358501 41.0556225,58.7477039 40.1235347,60.5581843 C39.3779148,62.006826 34.5108766,67.3026422 30.2560872,69.4554026 C30.2560872,69.4554026 34.8173785,102.973096 42.1960711,108.931082 C42.3614009,109.064649 42.8976534,109.115347 43.6309427,109.115347 M64.1190069,5.16932052 C64.6290884,5.16932052 65.1879887,5.22336471 65.780861,5.32965162 C68.7789424,5.86829208 71.3439453,8.02079507 73.1990616,11.5542559 C75.9029717,16.7051822 76.6329897,23.9921408 74.8611674,28.1435069 C73.3296646,31.7341001 71.6028865,40.3122003 70.7696946,44.7548903 L80.4786067,44.7548903 C80.7390578,44.7438241 81.7906762,44.558015 82.7179828,44.3953677 C84.3262368,44.1117644 86.5288729,43.7241903 88.7878772,43.4678664 L88.8731844,43.4583444 L89.1210533,43.4480502 C89.2921709,43.4400723 89.4627852,43.432609 89.6361676,43.432609 C96.7536542,43.432609 101.352692,47.3487542 101.352692,53.408395 C101.352692,55.1905666 100.734655,57.0311574 99.9349322,58.6674096 C103.946886,60.6971551 103.946886,66.1836701 103.946886,68.5320189 L103.946886,68.6478279 C103.946886,71.1552211 103.946886,74.2733137 102.256847,76.3900446 C103.946886,78.620783 103.946886,81.881964 103.946886,84.5033647 C103.946886,88.7669368 102.218849,92.0569414 99.3226834,93.7158407 C99.769854,94.6989303 100.055973,95.9092629 100.055973,97.3965076 C100.055973,104.516701 94.5615871,107.842993 90.4288449,109.726562 L90.2620052,109.802738 L90.0856031,109.850606 C81.5795473,112.176308 73.4980142,112.273072 68.6697291,112.330977 L68.2834562,112.333293 C66.1447376,112.333293 64.1018951,112.119175 61.5152509,111.848697 C58.8943832,111.574101 55.6318243,111.232336 50.8966474,110.955424 C50.4779125,110.930975 50.0330067,110.918365 49.575267,110.918365 C42.9872385,110.918365 34.3586323,113.388442 29.801619,114.861017 L28.602789,115.248334 L27.6337096,114.429178 C14.4835719,103.320781 6.38039743,86.7238089 5.40125232,68.8938577 L5.2827282,66.7356929 L32.8633662,62.607746 L32.7629604,64.9447713 C35.4417062,62.7456874 37.7309077,60.1091028 38.079434,59.4554254 C38.199468,59.2204619 38.4704881,58.3295047 38.6884115,57.6138052 C39.7523605,54.117918 41.7325437,47.6104825 46.7480516,42.2451809 C52.5572433,36.0300987 59.0257411,21.2137546 59.7743807,17.8962132 C59.9374457,17.1740799 59.7039205,15.6824601 59.4983277,14.3658407 C59.0690238,11.6188515 58.6246213,8.77844318 60.283204,6.78961689 C60.8997307,6.05049821 62.0653437,5.16932052 64.1190069,5.16932052" id="Fill-3" fill="#FF5254" mask="url(#mask-16)"></path>
                    </g>
                    <path d="M100.704727,84.3169603 C100.704727,88.5352964 98.7103643,91.9836698 94.3050021,92.2897004 C95.9049297,93.2142214 96.8397413,94.7644336 96.8397413,97.1604732 C96.8397413,101.582487 94.3169997,104.722001 88.638894,107.324804 C80.6160109,109.531567 72.840078,109.664009 67.9335668,109.722901 C63.7421615,109.773049 60.1568841,108.92465 50.4380927,108.351935 C49.8217169,108.315932 42.3677192,109.25794 41.6648608,108.687026 C34.3358379,102.733316 29.8052509,69.2399383 29.8052509,69.2399383 C34.0313992,67.0887232 38.865675,61.7964511 39.6062757,60.3491063 C40.5320891,58.5399254 41.8283279,50.1567442 47.8453652,43.6809824 C53.8626526,37.204449 60.5283092,21.9643822 61.3616413,18.2485534 C62.1944734,14.5358107 57.8433503,6.2495821 64.6939697,7.48630577 C71.544839,8.72431529 74.2285482,21.7745917 72.006246,27.0131156 C69.7856936,32.2508679 67.2856974,46.9187347 67.2856974,46.9187347 L79.6896976,46.9187347 C80.5720198,46.9187347 84.2885208,46.0639064 88.1959833,45.6184904 C88.3931935,45.6110325 88.5871544,45.5974026 88.7856144,45.5974026 C94.8866349,45.5974026 98.1277317,48.7873216 98.1277317,53.204449 C98.1277317,56.3087309 95.3967821,60.0492478 95.4205273,60.0492478 C100.125579,60.0492478 100.704727,63.8980327 100.704727,68.3169603 C100.704727,72.255497 100.744204,75.4315289 96.7552583,76.0963096 C100.71846,76.8467275 100.704727,80.4087694 100.704727,84.3169603 L100.704727,84.3169603 Z M103,68.3169603 C103,65.9705542 103,60.4879774 99.0150529,58.4596888 C99.8093928,56.824611 100.423269,54.9848271 100.423269,53.204449 C100.423269,47.1489006 95.8551897,43.2358236 88.7856144,43.2358236 C88.6133992,43.2358236 88.4439333,43.2432815 88.2742175,43.2509965 L88.0277672,43.2610261 L87.9430343,43.2713128 C85.6992364,43.5269384 83.5114274,43.9144914 81.9139993,44.197634 C80.9929349,44.3604218 79.9483954,44.5460975 79.6896976,44.5571557 L70.0461411,44.5571557 C70.8737243,40.1176546 72.5888786,31.5454545 74.110072,27.9576958 C75.8699674,23.8090523 75.1448635,16.5275813 72.4591548,11.3800952 C70.6165261,7.8494278 68.0687896,5.69846985 65.0908897,5.16021602 C64.5020084,5.0540054 63.9468703,5 63.4402224,5 C61.4003835,5 60.2426168,5.8805452 59.6302402,6.61913334 C57.9828222,8.60653208 58.4242333,11.4446445 58.8506473,14.189919 C59.0548562,15.5053362 59.2868094,16.9961425 59.1248421,17.7177575 C58.3812419,21.0326604 51.9562868,35.8386267 46.1861996,42.0492478 C41.2044536,47.410441 39.2376,53.9129484 38.180813,57.4065835 C37.9643566,58.1220265 37.6951608,59.0123441 37.5761848,59.247139 C37.2297546,59.9003472 34.9559629,62.5350392 32.2952491,64.7325447 L32.394979,62.3971969 L5,66.5221808 L5.11772627,68.6785393 C6.09028027,86.4956924 14.1389082,103.081008 27.2005259,114.181432 L28.1630819,115 L29.3538419,114.612961 C33.8801797,113.141443 42.4509524,110.672882 48.9943837,110.672882 C49.449292,110.672882 49.890953,110.685483 50.3068692,110.710171 C55.0104213,110.986884 58.2507682,111.328147 60.8539936,111.602803 C63.4232258,111.87283 65.4523169,112.086794 67.5766387,112.086794 L67.9603114,112.084737 C72.7563449,112.026874 80.7832272,111.930179 89.2320245,109.606146 L89.4072392,109.558056 L89.5729558,109.481934 C93.6778785,107.599974 99.1352786,104.275813 99.1352786,97.1604732 C99.1352786,95.6748103 98.8510859,94.4653465 98.4069254,93.4829626 C101.283596,91.8249968 103,88.5376109 103,84.2770991 C103,81.6573229 103,78.3984827 101.321338,76.1690883 C103,74.0543912 103,70.9385367 103,68.4326861 L103,68.3169603 Z" id="Fill-1" fill="#FFFFFF"></path>
                </g>
                <g id="SEO-AUDIT" transform="translate(194.514389, 104.594162)">
                    <mask id="mask-19" fill="white">
                        <use xlink:href="#path-18"></use>
                    </mask>
                    <use id="Mask" fill-opacity="0.3" fill="url(#linearGradient-17)" style="mix-blend-mode: multiply;" xlink:href="#path-18"></use>
                </g>
            </g>
        </g>
    </g>
</svg>