<?xml version="1.0" encoding="UTF-8"?>
<svg width="459px" height="362px" viewBox="0 0 459 362" version="1.1" xmlns="http://www.w3.org/2000/svg" xmlns:xlink="http://www.w3.org/1999/xlink">
    <!-- Generator: Sketch 63.1 (92452) - https://sketch.com -->
    <title>img_facebook_instagram</title>
    <desc>Created with Sketch.</desc>
    <defs>
        <linearGradient x1="55.5663862%" y1="93.9556918%" x2="57.919811%" y2="0%" id="linearGradient-1">
            <stop stop-color="#0056FF" offset="0%"></stop>
            <stop stop-color="#BCD1FF" offset="100%"></stop>
        </linearGradient>
        <linearGradient x1="55.6561864%" y1="93.9556918%" x2="58.0475781%" y2="0%" id="linearGradient-2">
            <stop stop-color="#2952A4" offset="0%"></stop>
            <stop stop-color="#6D98F4" offset="100%"></stop>
        </linearGradient>
        <linearGradient x1="49.1940416%" y1="10.1619773%" x2="46.7596397%" y2="94.2950964%" id="linearGradient-3">
            <stop stop-color="#9F3FA9" offset="0%"></stop>
            <stop stop-color="#DB2E87" offset="21.7248618%"></stop>
            <stop stop-color="#F2554B" offset="76.0780392%"></stop>
            <stop stop-color="#FFB461" offset="100%"></stop>
        </linearGradient>
        <linearGradient x1="48.8384085%" y1="10.1619773%" x2="45.329815%" y2="94.2950964%" id="linearGradient-4">
            <stop stop-color="#9F3FA9" offset="0%"></stop>
            <stop stop-color="#DB2E87" offset="21.7248618%"></stop>
            <stop stop-color="#F2554B" offset="76.0780392%"></stop>
            <stop stop-color="#FFB461" offset="100%"></stop>
        </linearGradient>
    </defs>
    <g id="Page-1" stroke="none" stroke-width="1" fill="none" fill-rule="evenodd">
        <g id="FAQs---How-&amp;-Where-To-Sell-in-Hong-Kong" transform="translate(-787.000000, -1477.000000)">
            <g id="img_social_marketing" transform="translate(761.000000, 1413.000000)">
                <g id="img_facebook_instagram">
                    <g>
                        <g id="img_facebook">
                            <path d="M247.561823,394.981486 C333.395999,395.174793 333.939831,300.905504 333.747481,215.255818 C333.55513,129.606133 332.590548,36.5244081 246.756373,36.3305652 C160.922198,36.1371991 91.6046688,153.898477 91.7966199,239.548162 C91.9893696,325.197848 161.727648,394.787584 247.561823,394.981486 Z" id="Oval-5" fill="url(#linearGradient-1)" opacity="0.353713768" transform="translate(212.779119, 215.656026) rotate(-247.000000) translate(-212.779119, -215.656026) "></path>
                            <path d="M246.970856,394.220242 C333.126565,393.986569 334.139823,300.065129 334.371397,214.734893 C334.602971,129.404657 334.09626,36.6738517 247.940551,36.9064969 C161.784842,37.1400192 91.623021,154.807393 91.3908714,240.137629 C91.1598732,325.467865 160.815147,394.452736 246.970856,394.220242 Z" id="Oval-5" fill="url(#linearGradient-2)" transform="translate(212.890658, 215.563369) rotate(-330.000000) translate(-212.890658, -215.563369) "></path>
                            <g id="facebook-logo" transform="translate(161.000000, 162.000000)" fill="#FFFFFF" fill-rule="nonzero">
                                <path d="M74.060689,0.0299804642 L55.6017894,0 C34.8638487,0 21.4620804,13.9184305 21.4620804,35.460893 L21.4620804,51.8107391 L2.90248241,51.8107391 C1.29871279,51.8107391 0,53.1268815 0,54.7503236 L0,78.4393874 C0,80.0628295 1.30019365,81.3774729 2.90248241,81.3774729 L21.4620804,81.3774729 L21.4620804,141.152522 C21.4620804,142.775964 22.7607932,144.090608 24.3645628,144.090608 L48.579559,144.090608 C50.1833286,144.090608 51.4820414,142.774465 51.4820414,141.152522 L51.4820414,81.3774729 L73.18254,81.3774729 C74.7863096,81.3774729 76.0850224,80.0628295 76.0850224,78.4393874 L76.0939076,54.7503236 C76.0939076,53.9708316 75.7873699,53.224318 75.2438948,52.6726775 C74.7004198,52.1210369 73.9599906,51.8107391 73.1899443,51.8107391 L51.4820414,51.8107391 L51.4820414,37.9507706 C51.4820414,31.2891114 53.0502704,27.9073151 61.6229595,27.9073151 L74.0577273,27.902818 C75.660016,27.902818 76.9587288,26.5866756 76.9587288,24.9647325 L76.9587288,2.96806595 C76.9587288,1.34762186 75.6614969,0.0329785106 74.060689,0.0299804642 Z" id="Shape"></path>
                            </g>
                        </g>
                        <g id="img_instagram" transform="translate(203.000000, 141.000000)">
                            <path d="M158.896663,304.572406 C209.818912,304.506416 251.164103,254.637549 251.243847,193.187107 C251.32336,131.736665 210.15235,47.1881965 159.2301,47.2540818 C108.307851,47.3200442 66.9175833,131.975397 66.8378394,193.425838 C66.7583259,254.87628 107.974413,304.638264 158.896663,304.572406 Z" id="Oval-5" fill="url(#linearGradient-3)" opacity="0.265341938" transform="translate(159.040843, 175.913244) rotate(-415.000000) translate(-159.040843, -175.913244) "></path>
                            <path d="M183.021496,269.983658 C238.770315,270.050176 283.909473,224.676403 283.842702,168.638427 C283.775783,112.60045 238.490408,35.3961689 182.74159,35.3295341 C126.992771,35.2629856 81.8914533,112.3593 81.9582239,168.397277 C82.0251429,224.435254 127.272678,269.916993 183.021496,269.983658 Z" id="Oval-5" fill="url(#linearGradient-4)" transform="translate(182.900463, 152.656596) rotate(-330.000000) translate(-182.900463, -152.656596) "></path>
                            <g id="instagram" transform="translate(122.000000, 112.000000)" fill="#FFFFFF" fill-rule="nonzero">
                                <path d="M74.2879322,0 L31.5210733,0 C14.1402802,0 0,14.1228005 0,31.482108 L0,74.1960999 C0,91.5554075 14.1402802,105.678208 31.5210733,105.678208 L74.2879322,105.678208 C91.6687252,105.678208 105.809005,91.5554075 105.809005,74.1960999 L105.809005,31.482108 C105.809005,14.1228005 91.6685332,0 74.2879322,0 Z M95.1646234,74.1960999 C95.1646234,85.7116289 85.8177139,95.0469841 74.2879322,95.0469841 L31.5210733,95.0469841 C19.9912916,95.0469841 10.644382,85.7116289 10.644382,74.1960999 L10.644382,31.482108 C10.644382,19.9663872 19.9912916,10.6312238 31.5210733,10.6312238 L74.2879322,10.6312238 C85.8177139,10.6312238 95.1646234,19.9663872 95.1646234,31.482108 L95.1646234,74.1960999 L95.1646234,74.1960999 Z" id="Shape"></path>
                                <path d="M52.1593689,25.3032329 C37.3681403,25.3032329 25.3345506,37.3219893 25.3345506,52.0947972 C25.3345506,66.8676052 37.3681403,78.8865496 52.1593689,78.8865496 C66.9505974,78.8865496 78.9841872,66.8677932 78.9841872,52.0947972 C78.9841872,37.3218013 66.9505974,25.3032329 52.1593689,25.3032329 Z M52.1593689,68.4675713 C43.1057227,68.4675713 35.7664244,61.1373456 35.7664244,52.0948912 C35.7664244,43.0524369 43.105911,35.7222111 52.1593689,35.7222111 C61.213015,35.7222111 68.5523134,43.0524369 68.5523134,52.0948912 C68.5523134,61.1371575 61.2128268,68.4675713 52.1593689,68.4675713 Z" id="Shape"></path>
                                <ellipse id="Oval" cx="79.729321" cy="24.5590202" rx="6.70620457" ry="6.69791459"></ellipse>
                            </g>
                        </g>
                    </g>
                </g>
            </g>
        </g>
    </g>
</svg>