<?xml version="1.0" encoding="UTF-8"?>
<svg width="504px" height="405px" viewBox="0 0 504 405" version="1.1" xmlns="http://www.w3.org/2000/svg" xmlns:xlink="http://www.w3.org/1999/xlink">
    <!-- Generator: Sketch 63.1 (92452) - https://sketch.com -->
    <title>img_link_audit</title>
    <desc>Created with Sketch.</desc>
    <defs>
        <filter x="-6.1%" y="-8.9%" width="112.2%" height="117.7%" filterUnits="objectBoundingBox" id="filter-1">
            <feOffset dx="0" dy="5" in="SourceAlpha" result="shadowOffsetOuter1"></feOffset>
            <feGaussianBlur stdDeviation="5" in="shadowOffsetOuter1" result="shadowBlurOuter1"></feGaussianBlur>
            <feColorMatrix values="0 0 0 0 0   0 0 0 0 0   0 0 0 0 0  0 0 0 0.25 0" type="matrix" in="shadowBlurOuter1" result="shadowMatrixOuter1"></feColorMatrix>
            <feMerge>
                <feMergeNode in="shadowMatrixOuter1"></feMergeNode>
                <feMergeNode in="SourceGraphic"></feMergeNode>
            </feMerge>
        </filter>
        <linearGradient x1="0%" y1="30.7950813%" x2="100%" y2="69.2049187%" id="linearGradient-2">
            <stop stop-color="#ADDBFF" offset="0%"></stop>
            <stop stop-color="#AAD9FF" offset="0.0642956149%"></stop>
            <stop stop-color="#74B5FF" offset="100%"></stop>
        </linearGradient>
        <linearGradient x1="0%" y1="30.7950813%" x2="100%" y2="69.2049187%" id="linearGradient-3">
            <stop stop-color="#ADDBFF" offset="0%"></stop>
            <stop stop-color="#74B5FF" offset="100%"></stop>
        </linearGradient>
        <filter x="-7.4%" y="-7.4%" width="114.8%" height="114.9%" filterUnits="objectBoundingBox" id="filter-4">
            <feOffset dx="0" dy="2" in="SourceAlpha" result="shadowOffsetOuter1"></feOffset>
            <feGaussianBlur stdDeviation="4.5" in="shadowOffsetOuter1" result="shadowBlurOuter1"></feGaussianBlur>
            <feColorMatrix values="0 0 0 0 0   0 0 0 0 0   0 0 0 0 0  0 0 0 0.3 0" type="matrix" in="shadowBlurOuter1" result="shadowMatrixOuter1"></feColorMatrix>
            <feMerge>
                <feMergeNode in="shadowMatrixOuter1"></feMergeNode>
                <feMergeNode in="SourceGraphic"></feMergeNode>
            </feMerge>
        </filter>
        <polygon id="path-5" points="35.1533466 23.1185784 23.654953 34.5712108 0.660767411 11.668537 12.1591609 0.215904545"></polygon>
        <linearGradient x1="16.6709495%" y1="16.935686%" x2="83.3336043%" y2="83.0687913%" id="linearGradient-7">
            <stop stop-color="#C5C6C8" offset="0%"></stop>
            <stop stop-color="#F1F1F2" offset="100%"></stop>
        </linearGradient>
        <polygon id="path-8" points="0.689383322 23.4856698 81.1651308 103.643733 104.159316 80.7410588 23.6835689 0.582995996"></polygon>
        <linearGradient x1="74.1460738%" y1="99.6053082%" x2="24.1234557%" y2="8.55873638%" id="linearGradient-10">
            <stop stop-color="#427FDF" offset="0%"></stop>
            <stop stop-color="#396BB1" offset="100%"></stop>
        </linearGradient>
        <linearGradient x1="50%" y1="0%" x2="50%" y2="100%" id="linearGradient-11">
            <stop stop-color="#DA3E3F" offset="0%"></stop>
            <stop stop-color="#FF5254" offset="100%"></stop>
        </linearGradient>
        <linearGradient x1="50%" y1="0%" x2="50%" y2="100%" id="linearGradient-12">
            <stop stop-color="#DA3E3F" offset="0%"></stop>
            <stop stop-color="#FF5254" offset="100%"></stop>
        </linearGradient>
        <linearGradient x1="14.6447917%" y1="14.9257585%" x2="85.3554053%" y2="85.073971%" id="linearGradient-13">
            <stop stop-color="#FEFEFE" offset="0%"></stop>
            <stop stop-color="#C5C6C8" offset="100%"></stop>
        </linearGradient>
        <path d="M167.931176,29.4590036 C206.346736,67.7216786 206.346736,129.760226 167.931176,168.022901 C129.515615,206.285576 67.2291819,206.285576 28.8136214,168.022901 C-9.60454048,129.760226 -9.60454048,67.7216786 28.8136214,29.4590036 C67.2291819,-8.80367139 129.515615,-8.80367139 167.931176,29.4590036" id="path-14"></path>
        <linearGradient x1="165.997457%" y1="217.908809%" x2="30.915411%" y2="3.5064668%" id="linearGradient-16">
            <stop stop-color="#427FDF" offset="0%"></stop>
            <stop stop-color="#396BB1" offset="100%"></stop>
        </linearGradient>
    </defs>
    <g id="Page-1" stroke="none" stroke-width="1" fill="none" fill-rule="evenodd">
        <g id="FAQs---What-is-included-within-an-SEO-campaign" transform="translate(-124.000000, -3977.000000)">
            <g id="img_link_audit" transform="translate(134.000000, 3982.000000)">
                <g id="img_analyse_website">
                    <g id="img_blogs" filter="url(#filter-1)">
                        <rect id="Rectangle" fill="#FFFFFF" x="0" y="0" width="483.124489" height="332.952128" rx="13"></rect>
                        <path d="M13,0 L470.981092,0 C478.160794,-1.31888981e-15 483.981092,5.82029825 483.981092,13 L483.981092,56.4905924 L483.981092,56.4905924 L0,56.4905924 L0,13 C-8.79259876e-16,5.82029825 5.82029825,1.31888981e-15 13,0 Z" id="Rectangle-2" fill="#FF5254"></path>
                        <polygon id="Fill-5" fill="#E9ECED" points="0 86.4477247 483.124489 86.4477247 483.124489 56.4905924 0 56.4905924"></polygon>
                        <path d="M85.6603703,30.8142313 C85.6603703,35.0679722 82.2092673,38.516313 77.9521189,38.516313 C73.6949705,38.516313 70.2415037,35.0679722 70.2415037,30.8142313 C70.2415037,26.5604904 73.6949705,23.1097878 77.9521189,23.1097878 C82.2092673,23.1097878 85.6603703,26.5604904 85.6603703,30.8142313" id="Fill-6" fill="#FFFFFF"></path>
                        <path d="M63.3886741,30.8142313 C63.3886741,35.0679722 59.9352072,38.516313 55.6780588,38.516313 C51.4209105,38.516313 47.9698074,35.0679722 47.9698074,30.8142313 C47.9698074,26.5604904 51.4209105,23.1097878 55.6780588,23.1097878 C59.9352072,23.1097878 63.3886741,26.5604904 63.3886741,30.8142313" id="Fill-7" fill="#FFFFFF"></path>
                        <path d="M41.9735815,30.8142313 C41.9735815,35.0679722 38.5224784,38.516313 34.2629663,38.516313 C30.0058179,38.516313 26.5547148,35.0679722 26.5547148,30.8142313 C26.5547148,26.5604904 30.0058179,23.1097878 34.2629663,23.1097878 C38.5224784,23.1097878 41.9735815,26.5604904 41.9735815,30.8142313" id="Fill-8" fill="#FFFFFF"></path>
                        <path d="M103.579237,24.8216239 L409.526381,24.8216239 C410.907093,24.8216239 412.026381,25.940912 412.026381,27.3216239 L412.026381,30.8808046 C412.026381,32.2615164 410.907093,33.3808046 409.526381,33.3808046 L103.579237,33.3808046 C102.198525,33.3808046 101.079237,32.2615164 101.079237,30.8808046 L101.079237,27.3216239 C101.079237,25.940912 102.198525,24.8216239 103.579237,24.8216239 Z" id="Rectangle-3" fill="#FFFFFF"></path>
                        <polygon id="Fill-10" fill="#FFFFFF" points="441.576722 19.6861155 443.295636 24.9169651 448.860341 24.9169651 444.35783 28.149955 446.079232 33.3808046 441.576722 30.1478147 437.076699 33.3808046 438.795613 28.149955 434.298078 24.9169651 439.860295 24.9169651"></polygon>
                        <g id="Group-7" transform="translate(190.166022, 126.675874)" fill="#DADFE1">
                            <polygon id="Fill-16" points="0 59.9142646 137.772109 59.9142646 137.772109 49.4292683 0 49.4292683"></polygon>
                            <polygon id="Fill-17" points="0 34.4507022 195.547509 34.4507022 195.547509 23.9657058 0 23.9657058"></polygon>
                            <polygon id="Fill-18" points="0 10.4849963 251.841489 10.4849963 251.841489 0 0 0"></polygon>
                        </g>
                        <g id="Group-7-Copy" transform="translate(190.166022, 229.386042)" fill="#DADFE1">
                            <polygon id="Fill-16" points="0 59.9142646 137.772109 59.9142646 137.772109 49.4292683 0 49.4292683"></polygon>
                            <polygon id="Fill-17" points="0 34.4507022 195.547509 34.4507022 195.547509 23.9657058 0 23.9657058"></polygon>
                            <polygon id="Fill-18" points="0 10.4849963 251.841489 10.4849963 251.841489 0 0 0"></polygon>
                        </g>
                        <rect id="Rectangle-4" fill="url(#linearGradient-2)" x="30.8377333" y="114.693021" width="135.343385" height="83.8799705"></rect>
                        <rect id="Rectangle-4-Copy" fill="url(#linearGradient-3)" x="30.8377333" y="216.547271" width="135.343385" height="83.8799705"></rect>
                    </g>
                    <g id="Group" filter="url(#filter-4)" transform="translate(194.215589, 100.611702)">
                        <g id="Group-3" transform="translate(169.094022, 170.185620)">
                            <mask id="mask-6" fill="white">
                                <use xlink:href="#path-5"></use>
                            </mask>
                            <g id="Clip-2"></g>
                            <polygon id="Fill-1" fill="url(#linearGradient-7)" mask="url(#mask-6)" points="35.1533466 23.1185784 23.654953 34.5712108 0.660767411 11.668537 12.1591609 0.215904545"></polygon>
                        </g>
                        <g id="Group-6" transform="translate(184.702701, 184.934967)">
                            <mask id="mask-9" fill="white">
                                <use xlink:href="#path-8"></use>
                            </mask>
                            <g id="Clip-5"></g>
                            <polygon id="Fill-4" fill="url(#linearGradient-10)" mask="url(#mask-9)" points="0.689383322 23.4856698 81.1651308 103.643733 104.159316 80.7410588 23.6835689 0.582995996"></polygon>
                        </g>
                        <polygon id="Fill-7" fill="url(#linearGradient-11)" points="213.444003 190.556603 190.449817 213.459277 185.392605 208.422191 208.386791 185.519518"></polygon>
                        <polygon id="Fill-8" fill="url(#linearGradient-12)" points="260.811661 283.539282 265.868873 288.578959 288.863058 265.676285 283.805846 260.636608"></polygon>
                        <g id="Group-18" transform="translate(0.000000, 0.103644)">
                            <g id="SEO-AUDIT" transform="translate(7.804339, 7.773280)">
                                <mask id="mask-15" fill="white">
                                    <use xlink:href="#path-14"></use>
                                </mask>
                                <use id="Mask" fill-opacity="0.3" fill="url(#linearGradient-13)" style="mix-blend-mode: multiply;" xlink:href="#path-14"></use>
                            </g>
                            <path d="M106.176218,16.306873 C81.9853669,16.306873 59.2409201,25.691813 42.1364094,42.7282516 C25.0292972,59.7646901 15.6094594,82.418619 15.6094594,106.513196 C15.6094594,130.610364 25.0292972,153.261701 42.1338079,170.300731 C77.4458427,205.469641 134.903992,205.469641 170.218628,170.300731 C205.528061,135.126639 205.528061,77.8997522 170.218628,42.7282516 C153.111516,25.691813 130.367069,16.306873 106.176218,16.306873 M106.176218,212.216848 C78.9858991,212.216848 51.7981817,201.909478 31.0984719,181.292149 C11.0439208,161.31741 0.000780433949,134.761295 0.000780433949,106.513196 C0.000780433949,78.2650964 11.0439208,51.708981 31.0984719,31.7342426 C51.153023,11.7620954 77.8152481,0.760313149 106.176218,0.760313149 C134.537188,0.760313149 161.199413,11.7620954 181.253964,31.7368337 C222.650782,72.9689017 222.650782,140.060081 181.253964,181.292149 C160.554254,201.909478 133.366537,212.216848 106.176218,212.216848" id="Fill-12" fill="url(#linearGradient-16)"></path>
                        </g>
                    </g>
                </g>
                <g id="link" transform="translate(245.000000, 152.000000)" fill="#FF5254" fill-rule="nonzero">
                    <path d="M104.301066,8.79282594 C92.7024495,-2.93094198 73.832645,-2.93094198 62.2338087,8.79282594 L44.9503092,26.2628186 C41.9343034,29.3113679 39.4905304,33.2008117 37.9154586,37.9494064 C37.8890276,37.9583118 37.8634775,37.9718926 37.8370465,37.980798 C34.2547549,48.8736899 36.971649,60.7190168 44.9503092,68.7837687 C47.3341718,71.1933538 50.1389493,73.1774822 53.1767607,74.6422018 L54.2985396,73.5083187 C58.1781807,69.5868153 58.1781807,63.2561721 54.2985396,59.3344461 C47.8482562,52.8145626 47.8482562,42.2313568 54.2985396,35.711696 L71.5820391,18.2417033 C78.0323224,11.7218199 88.5023316,11.7218199 94.9526149,18.2417033 C101.402898,24.7615868 101.402898,35.3445699 94.9526149,41.8644534 L81.8291462,55.1295275 C83.5791035,60.598571 83.9497994,66.3899908 83.1029037,72.0269015 C84.4850286,71.0530934 85.8149521,69.9991365 87.0173457,68.7837687 L104.300845,51.313776 C115.899682,39.5900081 115.899682,20.5163712 104.301066,8.79282594 Z" id="Path"></path>
                    <path d="M68.0545429,44.169422 C65.6720151,41.7597678 62.8692483,39.7753597 59.7862489,38.3577982 L58.7115468,39.4447364 C54.834298,43.3661297 54.8340779,49.6971773 58.7115468,53.6190159 C65.1582185,60.1390866 65.1582185,70.7225962 58.7115468,77.2424442 C53.2548249,82.7612938 46.5974834,89.4955461 41.394798,94.7574668 C34.9481263,101.277537 24.4839794,101.277537 18.0373077,94.7574668 C11.5906359,88.2373962 11.5906359,77.6541092 18.0373077,71.1340386 L31.1963548,57.8240552 C29.4473773,52.3548547 29.0771092,46.563046 29.9235307,40.9259735 C28.5419595,41.9002549 27.2127806,42.9540194 26.0108401,44.169422 L8.69409137,61.6844446 C-2.89803046,73.4085491 -2.89803046,92.482511 8.69409137,104.206838 C20.2862132,115.931165 39.1454522,115.930943 50.7377942,104.206838 L68.0545429,86.6918155 C71.06886,83.6429561 73.5112648,79.7536232 75.0854546,75.0048922 C75.1118709,74.9959865 75.1374066,74.9824054 75.1638229,74.9734997 C78.7441087,64.0800724 76.0287358,52.2344054 68.0545429,44.169422 Z" id="Path"></path>
                    <path d="M96.4707247,90.7110092 L91.7477899,85.9881435 C90.4424785,84.6828512 88.3299439,84.6828512 87.0248551,85.9881435 C85.7195437,87.2934358 85.7195437,89.4059395 87.0248551,90.7110092 L91.7477899,95.4338748 C93.0531013,96.7391671 95.1656359,96.7391671 96.4707247,95.4338748 C97.7758135,94.1285826 97.7758135,92.0163014 96.4707247,90.7110092 Z" id="Path"></path>
                    <path d="M25.9751783,21.2522936 L21.2521823,16.5294279 C19.9469155,15.2241356 17.834453,15.2241356 16.5294088,16.5294279 C15.224142,17.8347202 15.224142,19.9472239 16.5294088,21.2522936 L21.2521823,25.9751592 C22.5574491,27.2804515 24.6699116,27.2804515 25.9751783,25.9751592 C27.2804451,24.669867 27.2804451,22.5573633 25.9751783,21.2522936 Z" id="Path"></path>
                    <path d="M108.582406,67.1304352 L102.469737,65.4250118 C100.780968,64.9543307 99.0464481,65.9957537 98.5942122,67.7534019 C98.1417655,69.5218022 99.1539727,71.3198258 100.831357,71.7872154 L106.944026,73.4924194 C108.632795,73.9631005 110.367314,72.9216775 110.81955,71.1640293 C111.267148,69.4063811 110.270964,67.5921196 108.582406,67.1304352 Z" id="Path"></path>
                    <path d="M12.1692737,41.213004 L6.05683093,39.5075806 C4.36812446,39.0368995 2.63366902,40.0783225 2.18144987,41.8359707 C1.72880907,43.6039322 2.74097883,45.4021752 4.41851158,45.8695648 L10.5309544,47.5749882 C12.2196608,48.0456693 13.9541163,47.0042463 14.4063354,45.2465981 C14.8562355,43.4867556 13.8514446,41.6720552 12.1692737,41.213004 Z" id="Path"></path>
                    <path d="M73.4924011,106.943749 L71.7871552,100.832086 C71.3142682,99.1370603 69.5111533,98.1431482 67.7534619,98.5953097 C65.9957705,99.0474712 64.9543219,100.781705 65.4250146,102.470196 L67.1304799,108.581859 C67.597881,110.259178 69.3961683,111.271008 71.1641732,110.818636 C72.9218646,110.366474 73.9630937,108.63224 73.4924011,106.943749 Z" id="Path"></path>
                    <path d="M47.5749891,10.5306023 L45.8695655,4.41806265 C45.4010787,2.72279374 43.5936193,1.73316654 41.835971,2.18096547 C40.0783226,2.63319179 39.0368995,4.36767473 39.5075806,6.05640797 L41.2130042,12.1689476 C41.3674842,12.7238473 41.6678863,13.2045354 42.0633023,13.5846585 C42.868178,14.357976 44.0686891,14.707529 45.2463793,14.4060448 C47.0042471,13.9540293 48.0456703,12.2193356 47.5749891,10.5306023 Z" id="Path"></path>
                </g>
            </g>
        </g>
    </g>
</svg>