<?xml version="1.0" encoding="UTF-8"?>
<svg width="263px" height="309px" viewBox="0 0 263 309" version="1.1" xmlns="http://www.w3.org/2000/svg" xmlns:xlink="http://www.w3.org/1999/xlink">
    <!-- Generator: Sketch 63.1 (92452) - https://sketch.com -->
    <title>img_92percent_tc_mob</title>
    <desc>Created with Sketch.</desc>
    <defs>
        <filter x="-9.8%" y="-196.0%" width="119.6%" height="491.9%" filterUnits="objectBoundingBox" id="filter-1">
            <feGaussianBlur stdDeviation="6.60267857" in="SourceGraphic"></feGaussianBlur>
        </filter>
        <linearGradient x1="100%" y1="50%" x2="-2.22044605e-14%" y2="50%" id="linearGradient-2">
            <stop stop-color="#DA3E3F" offset="0%"></stop>
            <stop stop-color="#FF5254" offset="100%"></stop>
        </linearGradient>
    </defs>
    <g id="Page-1" stroke="none" stroke-width="1" fill="none" fill-rule="evenodd">
        <g id="Chinese-Graphics" transform="translate(-2738.000000, -219.000000)">
            <g id="img_92percent_tc_mob" transform="translate(2736.000000, 219.000000)">
                <g id="chinese-92percent">
                    <ellipse id="Oval-4" fill="#000000" opacity="0.2" filter="url(#filter-1)" cx="133.040541" cy="288.081081" rx="101.081081" ry="5.05405405"></ellipse>
                    <circle id="Oval-2" fill="url(#linearGradient-2)" cx="133.040541" cy="130.810811" r="130.810811"></circle>
                    <path d="M49.3885135,188.709459 C50.4290541,188.590541 51.5290541,188.352703 52.6885135,187.995946 L52.8074324,188.635135 L53.952027,188.352703 C53.7439189,187.208108 53.4912162,186.197297 53.2236486,185.32027 L52.1236486,185.677027 C52.2425676,186.063514 52.3466216,186.47973 52.4506757,186.925676 C51.9601351,187.044595 51.4695946,187.148649 50.9790541,187.237838 C51.752027,186.241892 52.7033784,184.636486 53.8628378,182.421622 L52.525,181.916216 C52.2277027,182.540541 51.9452703,183.12027 51.6777027,183.67027 L50.5777027,183.848649 C51.202027,182.852703 51.8263514,181.574324 52.4358108,179.998649 L51.0236486,179.433784 C50.6222973,180.845946 50.1466216,182.154054 49.5966216,183.343243 C49.4182432,183.610811 49.2101351,183.789189 48.9722973,183.893243 L49.3439189,185.245946 C49.9087838,185.156757 50.4587838,185.067568 50.9939189,184.978378 C50.4587838,185.944595 50.0128378,186.628378 49.6560811,187.02973 C49.4777027,187.208108 49.2695946,187.341892 49.0168919,187.431081 L49.3885135,188.709459 Z M55.5574324,193.183784 L55.5574324,181.395946 L60.8641892,181.395946 L60.8641892,191.236486 C60.8641892,191.578378 60.7304054,191.756757 60.4777027,191.756757 L58.6641892,191.712162 L59.0506757,193.07973 L60.9236486,193.07973 C61.8304054,193.07973 62.2912162,192.574324 62.2912162,191.563514 L62.2912162,180.028378 L54.1452703,180.028378 L54.1452703,191.132432 C53.9222973,190.314865 53.6695946,189.541892 53.3722973,188.813514 L52.3912162,189.155405 C52.6439189,189.913514 52.8817568,190.790541 53.0898649,191.786486 L54.1452703,191.295946 L54.1452703,193.183784 L55.5574324,193.183784 Z M60.5817568,185.082432 L60.5817568,183.774324 L59.5709459,183.774324 C59.8087838,183.209459 59.9871622,182.614865 60.1060811,181.960811 L58.8574324,181.782432 C58.7682432,182.466216 58.6195946,183.12027 58.4114865,183.774324 L57.252027,183.774324 L57.9655405,183.447297 C57.7574324,182.882432 57.5195946,182.347297 57.252027,181.841892 L56.1817568,182.213514 C56.4195946,182.659459 56.6574324,183.17973 56.8655405,183.774324 L55.8398649,183.774324 L55.8398649,185.082432 L60.5817568,185.082432 Z M60.2398649,190.641892 L60.2398649,189.482432 L57.7722973,189.482432 L57.7722973,187.847297 L60.5074324,187.847297 L60.5074324,186.539189 L58.9466216,186.539189 C58.8277027,186.048649 58.7236486,185.602703 58.6047297,185.216216 L57.3114865,185.424324 C57.4601351,185.766216 57.5939189,186.137838 57.7128378,186.539189 L55.9290541,186.539189 L55.9290541,187.847297 L56.5533784,187.847297 L56.5533784,190.641892 L60.2398649,190.641892 Z M51.2912162,192.544595 L52.525,192.262162 C52.3614865,191.162162 52.1682432,190.151351 51.9601351,189.22973 L50.8898649,189.467568 C51.0533784,190.359459 51.1871622,191.385135 51.2912162,192.544595 Z M50.1168919,193.109459 C50.3695946,192.054054 50.5331081,190.835135 50.5925676,189.467568 L49.3885135,189.304054 C49.3290541,190.582432 49.1655405,191.727027 48.8831081,192.722973 L50.1168919,193.109459 Z M71.6560811,193.228378 L71.6560811,192.336486 L75.402027,192.336486 L75.402027,193.213514 L76.8885135,193.213514 L76.8885135,185.944595 L73.9006757,185.944595 L73.9006757,183.491892 L77.4533784,183.491892 L77.4533784,181.975676 L73.9006757,181.975676 L73.9006757,179.537838 L72.325,179.537838 L72.325,185.944595 L70.1844595,185.944595 L70.1844595,193.228378 L71.6560811,193.228378 Z M70.0506757,183.343243 L70.0506757,181.856757 L67.7614865,181.856757 C67.597973,181.024324 67.4344595,180.295946 67.2709459,179.641892 L65.6952703,179.894595 C65.9033784,180.504054 66.0817568,181.158108 66.2601351,181.856757 L64.075,181.856757 L64.075,183.343243 L70.0506757,183.343243 Z M64.3574324,192.351351 C66.2601351,192.039189 68.0587838,191.667568 69.7385135,191.221622 L69.7385135,189.705405 C69.352027,189.809459 68.9506757,189.913514 68.5344595,190.032432 C68.9655405,188.218919 69.2925676,186.241892 69.5155405,184.101351 L68.0141892,183.893243 C67.8209459,186.167568 67.5236486,188.322973 67.1074324,190.359459 C66.0817568,190.567568 65.0412162,190.745946 63.9858108,190.864865 L64.3574324,192.351351 Z M65.3533784,190.077027 L66.6317568,189.764865 C66.3641892,187.57973 66.052027,185.632432 65.7101351,183.922973 L64.3722973,184.368919 C64.7587838,186.197297 65.0858108,188.1 65.3533784,190.077027 Z M75.402027,190.894595 L71.6560811,190.894595 L71.6560811,187.297297 L75.402027,187.297297 L75.402027,190.894595 Z M90.9060811,186.47973 L92.1993243,185.587838 C91.6493243,184.666216 90.8614865,183.595946 89.8209459,182.377027 L88.5722973,183.15 C88.8398649,183.477027 89.1074324,183.818919 89.375,184.175676 C87.9777027,184.339189 86.5655405,184.472973 85.1682432,184.562162 C85.5993243,184.027027 86.0898649,183.268919 86.6398649,182.287838 L92.0506757,182.287838 L92.0506757,180.890541 L88.2898649,180.890541 C88.1114865,180.325676 87.9182432,179.82027 87.7398649,179.374324 L86.1641892,179.641892 C86.3574324,180.028378 86.5358108,180.444595 86.7141892,180.890541 L82.8047297,180.890541 L82.8047297,182.287838 L85.0344595,182.287838 C84.2763514,183.521622 83.652027,184.294595 83.1614865,184.591892 C83.0871622,184.636486 82.9831081,184.681081 82.8493243,184.725676 L83.1912162,186.033784 C85.7182432,185.87027 88.0817568,185.662162 90.252027,185.424324 C90.4898649,185.781081 90.697973,186.137838 90.9060811,186.47973 Z M81.4817568,182.659459 L82.5817568,181.559459 C81.9574324,180.92027 81.1844595,180.281081 80.2925676,179.656757 L79.1777027,180.727027 C80.1736486,181.410811 80.9466216,182.064865 81.4817568,182.659459 Z M81.1695946,186.464865 L82.2695946,185.364865 C81.6452703,184.651351 80.8574324,183.922973 79.9358108,183.209459 L78.8358108,184.27973 C79.8466216,185.067568 80.6195946,185.795946 81.1695946,186.464865 Z M87.6209459,193.005405 L87.6209459,186.464865 L86.0452703,186.464865 L86.0452703,193.005405 L87.6209459,193.005405 Z M82.7304054,193.302703 C83.5777027,192.589189 84.1871622,191.741892 84.5439189,190.790541 C84.8709459,189.868919 85.0641892,188.427027 85.1236486,186.464865 L83.6074324,186.464865 C83.547973,188.159459 83.3993243,189.378378 83.1466216,190.091892 C82.8790541,190.85 82.4033784,191.504054 81.7493243,192.054054 L82.7304054,193.302703 Z M90.9952703,193.168919 C91.6641892,193.109459 92.0952703,192.931081 92.2885135,192.633784 C92.4966216,192.321622 92.6006757,191.444595 92.6006757,190.002703 L91.247973,189.497297 C91.247973,190.181081 91.2331081,190.731081 91.2033784,191.132432 C91.1885135,191.518919 91.0993243,191.727027 90.9209459,191.756757 L90.4304054,191.756757 C90.3114865,191.727027 90.252027,191.637838 90.252027,191.489189 L90.252027,186.464865 L88.7804054,186.464865 L88.7804054,191.801351 C88.7804054,192.708108 89.3155405,193.168919 90.3858108,193.168919 L90.9952703,193.168919 Z M80.5155405,193.109459 C81.1993243,191.444595 81.8236486,189.660811 82.3885135,187.772973 L81.0209459,187.237838 C80.4858108,189.021622 79.8317568,190.775676 79.0885135,192.47027 L80.5155405,193.109459 Z M105.503378,183.581081 L105.503378,179.760811 L95.4695946,179.760811 L95.4695946,183.581081 L105.503378,183.581081 Z M104.016892,181.247297 L96.9560811,181.247297 L96.9560811,180.637838 L104.016892,180.637838 L104.016892,181.247297 Z M104.016892,182.718919 L96.9560811,182.718919 L96.9560811,182.109459 L104.016892,182.109459 L104.016892,182.718919 Z M107.168243,185.245946 L107.168243,184.145946 L93.7601351,184.145946 L93.7601351,185.245946 L107.168243,185.245946 Z M107.168243,193.05 L107.168243,191.890541 L101.222297,191.890541 L101.222297,191.266216 L106.097973,191.266216 L106.097973,190.27027 L101.222297,190.27027 L101.222297,189.690541 L105.815541,189.690541 L105.815541,185.795946 L95.1425676,185.795946 L95.1425676,189.690541 L99.6763514,189.690541 L99.6763514,190.27027 L94.8601351,190.27027 L94.8601351,191.266216 L99.6763514,191.266216 L99.6763514,191.890541 L93.7601351,191.890541 L93.7601351,193.05 L107.168243,193.05 Z M99.6763514,187.327027 L96.6141892,187.327027 L96.6141892,186.702703 L99.6763514,186.702703 L99.6763514,187.327027 Z M104.343919,187.327027 L101.222297,187.327027 L101.222297,186.702703 L104.343919,186.702703 L104.343919,187.327027 Z M104.343919,188.798649 L101.222297,188.798649 L101.222297,188.159459 L104.343919,188.159459 L104.343919,188.798649 Z M99.6763514,188.798649 L96.6141892,188.798649 L96.6141892,188.159459 L99.6763514,188.159459 L99.6763514,188.798649 Z M116.116892,193.272973 L116.116892,188.62027 C117.603378,190.3 119.357432,191.637838 121.364189,192.633784 L122.211486,191.177027 C119.65473,189.987838 117.618243,188.397297 116.116892,186.390541 L116.116892,182.495946 L121.423649,182.495946 L121.423649,180.994595 L116.116892,180.994595 L116.116892,179.582432 L114.541216,179.582432 L114.541216,180.994595 L109.249324,180.994595 L109.249324,182.495946 L114.541216,182.495946 L114.541216,186.494595 C113.099324,188.441892 111.092568,190.032432 108.506081,191.281081 L109.323649,192.693243 C111.434459,191.593243 113.173649,190.240541 114.541216,188.635135 L114.541216,193.272973 L116.116892,193.272973 Z M109.947973,187.936486 C110.512838,187.460811 111.018243,186.895946 111.449324,186.256757 C112.014189,186.583784 112.564189,187 113.114189,187.475676 L113.946622,186.182432 C113.381757,185.751351 112.787162,185.364865 112.133108,185.037838 C112.400676,184.443243 112.623649,183.774324 112.802027,183.060811 L111.375,182.808108 C110.958784,184.472973 110.170946,185.781081 108.981757,186.762162 L109.947973,187.936486 Z M120.858784,187.654054 L121.720946,186.316216 C121.081757,185.781081 120.383108,185.32027 119.639865,184.918919 C119.877703,184.354054 120.070946,183.744595 120.219595,183.090541 L118.777703,182.837838 C118.435811,184.27973 117.781757,185.424324 116.815541,186.286486 L117.781757,187.505405 C118.227703,187.118919 118.614189,186.658108 118.970946,186.152703 C119.59527,186.554054 120.234459,187.059459 120.858784,187.654054 Z M126.611486,193.302703 L126.611486,192.5 L133.776351,192.5 L133.776351,193.302703 L135.352027,193.302703 L135.352027,181.172973 L129.896622,181.172973 C130.149324,180.727027 130.357432,180.251351 130.506081,179.731081 L128.930405,179.508108 C128.781757,180.072973 128.543919,180.637838 128.246622,181.172973 L125.035811,181.172973 L125.035811,193.302703 L126.611486,193.302703 Z M133.776351,184.398649 L126.611486,184.398649 L126.611486,182.659459 L133.776351,182.659459 L133.776351,184.398649 Z M133.776351,187.654054 L126.611486,187.654054 L126.611486,185.825676 L133.776351,185.825676 L133.776351,187.654054 Z M133.776351,191.028378 L126.611486,191.028378 L126.611486,189.081081 L133.776351,189.081081 L133.776351,191.028378 Z M143.490541,191.875676 C143.931532,191.875676 144.342793,191.85214 144.724324,191.805068 C145.105856,191.757995 145.463851,191.687387 145.798311,191.593243 C146.13277,191.499099 146.44741,191.378941 146.74223,191.23277 C147.03705,191.086599 147.320721,190.914414 147.593243,190.716216 L147.593243,190.716216 L147.593243,186.368243 L144.018243,186.368243 L144.018243,187.497973 C144.018243,187.602027 144.055405,187.689977 144.12973,187.761824 C144.204054,187.833671 144.305631,187.869595 144.434459,187.869595 L144.434459,187.869595 L145.77973,187.869595 L145.77973,189.824324 C145.477477,189.968018 145.159122,190.080743 144.824662,190.1625 C144.490203,190.244257 144.097523,190.285135 143.646622,190.285135 C143.136261,190.285135 142.665541,190.197185 142.234459,190.021284 C141.803378,189.845383 141.431757,189.591441 141.119595,189.259459 C140.807432,188.927477 140.56464,188.519932 140.391216,188.036824 C140.217793,187.553716 140.131081,187.002477 140.131081,186.383108 C140.131081,185.808333 140.212838,185.288063 140.376351,184.822297 C140.539865,184.356532 140.772748,183.957658 141.075,183.625676 C141.377252,183.293694 141.74268,183.038514 142.171284,182.860135 C142.599887,182.681757 143.079279,182.592568 143.609459,182.592568 C143.936486,182.592568 144.225113,182.614865 144.475338,182.659459 C144.725563,182.704054 144.951014,182.761036 145.151689,182.830405 C145.352365,182.899775 145.535698,182.981532 145.701689,183.075676 C145.86768,183.16982 146.029955,183.263964 146.188514,183.358108 C146.312387,183.437387 146.433784,183.477027 146.552703,183.477027 C146.740991,183.477027 146.892117,183.38536 147.006081,183.202027 L147.006081,183.202027 L147.585811,182.29527 C147.139865,181.879054 146.596059,181.540878 145.954392,181.280743 C145.312725,181.020608 144.553378,180.890541 143.676351,180.890541 C142.819144,180.890541 142.046171,181.024324 141.357432,181.291892 C140.668694,181.559459 140.08277,181.936036 139.599662,182.421622 C139.116554,182.907207 138.743694,183.486937 138.481081,184.160811 C138.218468,184.834685 138.087162,185.57545 138.087162,186.383108 C138.087162,187.180856 138.222185,187.916667 138.49223,188.590541 C138.762275,189.264414 139.137613,189.844144 139.618243,190.32973 C140.098874,190.815315 140.668694,191.194369 141.327703,191.466892 C141.986712,191.739414 142.707658,191.875676 143.490541,191.875676 Z M152.610135,191.868243 C153.179955,191.868243 153.696509,191.776577 154.159797,191.593243 C154.623086,191.40991 155.018243,191.147297 155.34527,190.805405 C155.672297,190.463514 155.925,190.049775 156.103378,189.564189 C156.281757,189.078604 156.370946,188.533559 156.370946,187.929054 C156.370946,187.329505 156.281757,186.786937 156.103378,186.301351 C155.925,185.815766 155.672297,185.404505 155.34527,185.067568 C155.018243,184.730631 154.623086,184.470495 154.159797,184.287162 C153.696509,184.103829 153.179955,184.012162 152.610135,184.012162 C152.040315,184.012162 151.522523,184.103829 151.056757,184.287162 C150.590991,184.470495 150.193356,184.730631 149.863851,185.067568 C149.534347,185.404505 149.279167,185.815766 149.098311,186.301351 C148.917455,186.786937 148.827027,187.329505 148.827027,187.929054 C148.827027,188.533559 148.917455,189.078604 149.098311,189.564189 C149.279167,190.049775 149.534347,190.463514 149.863851,190.805405 C150.193356,191.147297 150.590991,191.40991 151.056757,191.593243 C151.522523,191.776577 152.040315,191.868243 152.610135,191.868243 Z M152.610135,190.456081 C151.965991,190.456081 151.490315,190.241779 151.183108,189.813176 C150.875901,189.384572 150.722297,188.761486 150.722297,187.943919 C150.722297,187.126351 150.875901,186.500788 151.183108,186.06723 C151.490315,185.633671 151.965991,185.416892 152.610135,185.416892 C153.244369,185.416892 153.713851,185.632432 154.018581,186.063514 C154.323311,186.494595 154.475676,187.121396 154.475676,187.943919 C154.475676,188.766441 154.323311,189.390766 154.018581,189.816892 C153.713851,190.243018 153.244369,190.456081 152.610135,190.456081 Z M161.060811,191.868243 C161.630631,191.868243 162.147185,191.776577 162.610473,191.593243 C163.073761,191.40991 163.468919,191.147297 163.795946,190.805405 C164.122973,190.463514 164.375676,190.049775 164.554054,189.564189 C164.732432,189.078604 164.821622,188.533559 164.821622,187.929054 C164.821622,187.329505 164.732432,186.786937 164.554054,186.301351 C164.375676,185.815766 164.122973,185.404505 163.795946,185.067568 C163.468919,184.730631 163.073761,184.470495 162.610473,184.287162 C162.147185,184.103829 161.630631,184.012162 161.060811,184.012162 C160.490991,184.012162 159.973198,184.103829 159.507432,184.287162 C159.041667,184.470495 158.644032,184.730631 158.314527,185.067568 C157.985023,185.404505 157.729842,185.815766 157.548986,186.301351 C157.368131,186.786937 157.277703,187.329505 157.277703,187.929054 C157.277703,188.533559 157.368131,189.078604 157.548986,189.564189 C157.729842,190.049775 157.985023,190.463514 158.314527,190.805405 C158.644032,191.147297 159.041667,191.40991 159.507432,191.593243 C159.973198,191.776577 160.490991,191.868243 161.060811,191.868243 Z M161.060811,190.456081 C160.416667,190.456081 159.940991,190.241779 159.633784,189.813176 C159.326577,189.384572 159.172973,188.761486 159.172973,187.943919 C159.172973,187.126351 159.326577,186.500788 159.633784,186.06723 C159.940991,185.633671 160.416667,185.416892 161.060811,185.416892 C161.695045,185.416892 162.164527,185.632432 162.469257,186.063514 C162.773986,186.494595 162.926351,187.121396 162.926351,187.943919 C162.926351,188.766441 162.773986,189.390766 162.469257,189.816892 C162.164527,190.243018 161.695045,190.456081 161.060811,190.456081 Z M168.916892,194.439865 C169.501577,194.439865 170.021847,194.364302 170.477703,194.213176 C170.933559,194.06205 171.318806,193.862613 171.633446,193.614865 C171.948086,193.367117 172.188401,193.084685 172.354392,192.767568 C172.520383,192.45045 172.603378,192.123423 172.603378,191.786486 C172.603378,191.424775 172.53277,191.128716 172.391554,190.898311 C172.250338,190.667905 172.064527,190.485811 171.834122,190.352027 C171.603716,190.218243 171.342342,190.120383 171.05,190.058446 C170.757658,189.996509 170.457883,189.953153 170.150676,189.928378 C169.843468,189.903604 169.543694,189.8875 169.251351,189.880068 C168.959009,189.872635 168.697635,189.854054 168.46723,189.824324 C168.236824,189.794595 168.051014,189.743806 167.909797,189.671959 C167.768581,189.600113 167.697973,189.487387 167.697973,189.333784 C167.697973,189.155405 167.816892,188.994369 168.05473,188.850676 C168.327252,188.90518 168.607207,188.932432 168.894595,188.932432 C169.320721,188.932432 169.715878,188.874212 170.080068,188.75777 C170.444257,188.641329 170.758896,188.476577 171.023986,188.263514 C171.289077,188.05045 171.497185,187.791554 171.648311,187.486824 C171.799437,187.182095 171.875,186.841441 171.875,186.464865 C171.875,186.306306 171.861374,186.15518 171.834122,186.011486 C171.806869,185.867793 171.768468,185.731532 171.718919,185.602703 L171.718919,185.602703 L172.402703,185.476351 C172.546396,185.451577 172.647973,185.406982 172.707432,185.342568 C172.766892,185.278153 172.796622,185.188964 172.796622,185.075 L172.796622,185.075 L172.796622,184.391216 L170.604054,184.391216 C170.366216,184.262387 170.103604,184.164527 169.816216,184.097635 C169.528829,184.030743 169.221622,183.997297 168.894595,183.997297 C168.458559,183.997297 168.055968,184.054279 167.686824,184.168243 C167.31768,184.282207 166.998086,184.446959 166.728041,184.6625 C166.457995,184.878041 166.24741,185.138176 166.096284,185.442905 C165.945158,185.747635 165.869595,186.088288 165.869595,186.464865 C165.869595,186.930631 165.979842,187.336937 166.200338,187.683784 C166.420833,188.030631 166.724324,188.308108 167.110811,188.516216 C166.942342,188.60045 166.796171,188.695833 166.672297,188.802365 C166.548423,188.908896 166.445608,189.021622 166.363851,189.140541 C166.282095,189.259459 166.221396,189.379617 166.181757,189.501014 C166.142117,189.62241 166.122297,189.74009 166.122297,189.854054 C166.122297,190.131532 166.179279,190.356982 166.293243,190.530405 C166.407207,190.703829 166.558333,190.842568 166.746622,190.946622 C166.360135,191.090315 166.057883,191.283559 165.839865,191.526351 C165.621847,191.769144 165.512838,192.068919 165.512838,192.425676 C165.512838,192.688288 165.582207,192.940991 165.720946,193.183784 C165.859685,193.426577 166.069032,193.640878 166.348986,193.826689 C166.628941,194.0125 166.981982,194.161149 167.408108,194.272635 C167.834234,194.384122 168.337162,194.439865 168.916892,194.439865 Z M168.894595,187.758108 C168.671622,187.758108 168.474662,187.72714 168.303716,187.665203 C168.13277,187.603266 167.991554,187.516554 167.880068,187.405068 C167.768581,187.293581 167.684347,187.161036 167.627365,187.007432 C167.570383,186.853829 167.541892,186.687838 167.541892,186.509459 C167.541892,186.132883 167.654617,185.834347 167.880068,185.613851 C168.105518,185.393356 168.443694,185.283108 168.894595,185.283108 C169.345495,185.283108 169.683671,185.393356 169.909122,185.613851 C170.134572,185.834347 170.247297,186.132883 170.247297,186.509459 C170.247297,186.692793 170.218806,186.861261 170.161824,187.014865 C170.104842,187.168468 170.020608,187.299775 169.909122,187.408784 C169.797635,187.517793 169.657658,187.603266 169.489189,187.665203 C169.320721,187.72714 169.122523,187.758108 168.894595,187.758108 Z M168.946622,193.131757 C168.609685,193.131757 168.324775,193.108221 168.091892,193.061149 C167.859009,193.014077 167.669482,192.948423 167.523311,192.864189 C167.37714,192.779955 167.270608,192.679617 167.203716,192.563176 C167.136824,192.446734 167.103378,192.321622 167.103378,192.187838 C167.103378,191.984685 167.166554,191.805068 167.292905,191.648986 C167.419257,191.492905 167.586486,191.357883 167.794595,191.243919 C168.022523,191.273649 168.259122,191.294707 168.504392,191.307095 C168.749662,191.319482 168.9875,191.331869 169.217905,191.344257 C169.448311,191.356644 169.666329,191.375225 169.871959,191.4 C170.07759,191.424775 170.257207,191.463176 170.410811,191.515203 C170.564414,191.56723 170.685811,191.640315 170.775,191.734459 C170.864189,191.828604 170.908784,191.95 170.908784,192.098649 C170.908784,192.247297 170.871622,192.384797 170.797297,192.511149 C170.722973,192.6375 170.605293,192.746509 170.444257,192.838176 C170.283221,192.929842 170.078829,193.001689 169.831081,193.053716 C169.583333,193.105743 169.288514,193.131757 168.946622,193.131757 Z M175.903378,191.756757 L175.903378,180.712162 L174.067568,180.712162 L174.067568,191.756757 L175.903378,191.756757 Z M181.217568,191.868243 C181.485135,191.868243 181.761374,191.848423 182.046284,191.808784 C182.331194,191.769144 182.611149,191.701014 182.886149,191.604392 C183.161149,191.50777 183.425,191.378941 183.677703,191.217905 C183.930405,191.056869 184.158333,190.857432 184.361486,190.619595 L184.361486,190.619595 L183.826351,189.950676 C183.786712,189.896171 183.73964,189.854054 183.685135,189.824324 C183.630631,189.794595 183.566216,189.77973 183.491892,189.77973 C183.377928,189.77973 183.260248,189.814414 183.138851,189.883784 C183.017455,189.953153 182.876239,190.029955 182.715203,190.114189 C182.554167,190.198423 182.365878,190.275225 182.150338,190.344595 C181.934797,190.413964 181.678378,190.448649 181.381081,190.448649 C180.776577,190.448649 180.290991,190.265315 179.924324,189.898649 C179.557658,189.531982 179.347072,188.957207 179.292568,188.174324 L179.292568,188.174324 L184.00473,188.174324 C184.088964,188.174324 184.158333,188.163176 184.212838,188.140878 C184.267342,188.118581 184.310698,188.081419 184.342905,188.029392 C184.375113,187.977365 184.39741,187.905518 184.409797,187.813851 C184.422185,187.722185 184.428378,187.606982 184.428378,187.468243 C184.428378,186.918243 184.346622,186.428941 184.183108,186.000338 C184.019595,185.571734 183.791667,185.210023 183.499324,184.915203 C183.206982,184.620383 182.858896,184.396171 182.455068,184.242568 C182.051239,184.088964 181.609009,184.012162 181.128378,184.012162 C180.558559,184.012162 180.046959,184.111261 179.593581,184.309459 C179.140203,184.507658 178.756194,184.776464 178.441554,185.115878 C178.126914,185.455293 177.88536,185.854167 177.716892,186.3125 C177.548423,186.770833 177.464189,187.260135 177.464189,187.780405 C177.464189,188.449324 177.560811,189.037725 177.754054,189.545608 C177.947297,190.053491 178.212387,190.479617 178.549324,190.823986 C178.886261,191.168356 179.282658,191.428491 179.738514,191.604392 C180.194369,191.780293 180.687387,191.868243 181.217568,191.868243 Z M182.778378,187.066892 L179.32973,187.066892 C179.413964,186.511937 179.607207,186.083333 179.909459,185.781081 C180.211712,185.478829 180.630405,185.327703 181.165541,185.327703 C181.438063,185.327703 181.675901,185.373536 181.879054,185.465203 C182.082207,185.556869 182.250676,185.681982 182.384459,185.840541 C182.518243,185.999099 182.617342,186.183671 182.681757,186.394257 C182.746171,186.604842 182.778378,186.829054 182.778378,187.066892 L182.778378,187.066892 Z M188.791216,193.332432 L188.791216,192.812162 L195.956081,192.812162 L195.956081,193.332432 L197.502027,193.332432 L197.502027,183.937838 L192.879054,183.937838 C192.968243,183.581081 193.042568,183.209459 193.102027,182.837838 L199.018243,182.837838 L199.018243,181.351351 L195.539865,181.351351 C195.747973,180.935135 195.956081,180.474324 196.149324,179.968919 L194.618243,179.418919 C194.380405,180.102703 194.112838,180.741892 193.815541,181.351351 L190.872297,181.351351 C190.619595,180.622973 190.352027,179.983784 190.05473,179.448649 L188.538514,180.028378 C188.791216,180.444595 189.014189,180.875676 189.222297,181.351351 L185.729054,181.351351 L185.729054,182.837838 L191.452027,182.837838 C191.407432,183.194595 191.347973,183.566216 191.273649,183.937838 L187.24527,183.937838 L187.24527,193.332432 L188.791216,193.332432 Z M195.956081,186.45 L188.791216,186.45 L188.791216,185.335135 L195.956081,185.335135 L195.956081,186.45 Z M195.956081,188.917568 L188.791216,188.917568 L188.791216,187.787838 L195.956081,187.787838 L195.956081,188.917568 Z M195.956081,191.414865 L188.791216,191.414865 L188.791216,190.255405 L195.956081,190.255405 L195.956081,191.414865 Z M201.039865,193.391892 C203.180405,192.975676 204.815541,192.425676 205.960135,191.771622 L205.231757,190.835135 L209.052027,190.835135 L208.472297,191.697297 C210.107432,192.083784 211.683108,192.633784 213.229054,193.347297 L214.046622,192.083784 C212.827703,191.608108 211.475,191.191892 210.003378,190.835135 L212.456081,190.835135 L212.456081,182.302703 L207.669595,182.302703 C207.743919,182.005405 207.803378,181.693243 207.862838,181.366216 L213.70473,181.366216 L213.70473,179.968919 L200.816892,179.968919 L200.816892,181.366216 L206.316892,181.366216 C206.257432,181.678378 206.197973,181.990541 206.108784,182.302703 L202.229054,182.302703 L202.229054,190.835135 L204.934459,190.835135 C203.849324,191.355405 202.303378,191.786486 200.296622,192.113514 L201.039865,193.391892 Z M210.939865,184.666216 L203.74527,184.666216 L203.74527,183.714865 L210.939865,183.714865 L210.939865,184.666216 Z M210.939865,187.014865 L203.74527,187.014865 L203.74527,185.974324 L210.939865,185.974324 L210.939865,187.014865 Z M210.939865,189.408108 L203.74527,189.408108 L203.74527,188.322973 L210.939865,188.322973 L210.939865,189.408108 Z" id="網站流量來自Google首頁" fill="#FFFFFF" fill-rule="nonzero"></path>
                    <path d="M234.686003,93.856231 C216.536696,84.3247288 195.873562,78.9318518 173.950855,78.9318518 C173.950855,117.975848 173.950855,161.579452 173.950855,209.742663 C173.950855,209.742663 194.195905,171.113852 234.686003,93.856231 Z" id="Oval-2" fill-opacity="0.25" fill="#9B9B9B" style="mix-blend-mode: multiply;" transform="translate(204.318429, 144.337257) rotate(-282.000000) translate(-204.318429, -144.337257) "></path>
                    <path d="M73.7297297,159.945946 C75.8702703,159.945946 77.7927928,159.54955 79.4972973,158.756757 C81.2018018,157.963964 82.4504505,156.992793 83.2432432,155.843243 L83.2432432,155.843243 L101.913514,129.324324 C103.340541,127.302703 104.628829,125.251351 105.778378,123.17027 C106.927928,121.089189 107.909009,118.909009 108.721622,116.62973 C109.534234,114.35045 110.168468,111.962162 110.624324,109.464865 C111.08018,106.967568 111.308108,104.291892 111.308108,101.437838 C111.308108,97.1567568 110.624324,93.2423423 109.256757,89.6945946 C107.889189,86.1468468 105.927027,83.0846847 103.37027,80.5081081 C100.813514,77.9315315 97.6918919,75.9297297 94.0054054,74.5027027 C90.3189189,73.0756757 86.1369369,72.3621622 81.4594595,72.3621622 C76.8612613,72.3621622 72.6990991,73.1252252 68.972973,74.6513514 C65.2468468,76.1774775 62.0459459,78.2486486 59.3702703,80.8648649 C56.6945946,83.4810811 54.6333333,86.5333333 53.1864865,90.0216216 C51.7396396,93.5099099 51.0162162,97.2162162 51.0162162,101.140541 C51.0162162,105.421622 51.7297297,109.127928 53.1567568,112.259459 C54.5837838,115.390991 56.4369369,117.987387 58.7162162,120.048649 C60.9954955,122.10991 63.5423423,123.645946 66.3567568,124.656757 C69.1711712,125.667568 71.9855856,126.172973 74.8,126.172973 C77.0990991,126.172973 79.2990991,125.935135 81.4,125.459459 C83.5009009,124.983784 85.4432432,124.27027 87.227027,123.318919 C86.7513514,123.953153 86.2657658,124.577477 85.7702703,125.191892 C85.2747748,125.806306 84.7495495,126.45045 84.1945946,127.124324 L84.1945946,127.124324 L56.7243243,159.945946 L73.7297297,159.945946 Z M81.4594595,112.735135 C73.4522523,112.735135 69.4486486,108.414414 69.4486486,99.772973 C69.4486486,97.9495495 69.7162162,96.254955 70.2513514,94.6891892 C70.7864865,93.1234234 71.5594595,91.7657658 72.5702703,90.6162162 C73.5810811,89.4666667 74.8099099,88.5648649 76.2567568,87.9108108 C77.7036036,87.2567568 79.3585586,86.9297297 81.2216216,86.9297297 C83.045045,86.9297297 84.7297297,87.2072072 86.2756757,87.7621622 C87.8216216,88.3171171 89.1396396,89.1297297 90.2297297,90.2 C91.3198198,91.2702703 92.1720721,92.6081081 92.7864865,94.2135135 C93.4009009,95.8189189 93.7081081,97.6720721 93.7081081,99.772973 C93.7081081,103.697297 92.6477477,106.838739 90.527027,109.197297 C88.4063063,111.555856 85.3837838,112.735135 81.4594595,112.735135 Z M175.167568,159.945946 L175.167568,149.243243 C175.167568,147.459459 174.592793,146.022523 173.443243,144.932432 C172.293694,143.842342 170.727928,143.297297 168.745946,143.297297 L168.745946,143.297297 L152.572973,143.297297 C150.70991,143.297297 148.718018,143.485586 146.597297,143.862162 C144.476577,144.238739 142.326126,144.744144 140.145946,145.378378 L140.145946,145.378378 L157.091892,128.016216 C159.390991,125.677477 161.561261,123.368468 163.602703,121.089189 C165.644144,118.80991 167.437838,116.451351 168.983784,114.013514 C170.52973,111.575676 171.748649,109.009009 172.640541,106.313514 C173.532432,103.618018 173.978378,100.684685 173.978378,97.5135135 C173.978378,93.827027 173.334234,90.4477477 172.045946,87.3756757 C170.757658,84.3036036 168.904505,81.6576577 166.486486,79.4378378 C164.068468,77.218018 161.145045,75.4837838 157.716216,74.2351351 C154.287387,72.9864865 150.432432,72.3621622 146.151351,72.3621622 C142.187387,72.3621622 138.481081,72.8873874 135.032432,73.9378378 C131.583784,74.9882883 128.521622,76.5837838 125.845946,78.7243243 C123.17027,80.8648649 120.930631,83.5405405 119.127027,86.7513514 C117.323423,89.9621622 116.104505,93.7279279 115.47027,98.0486486 L115.47027,98.0486486 L125.221622,99.772973 C125.697297,99.8522523 126.163063,99.9117117 126.618919,99.9513514 C127.074775,99.990991 127.500901,100.010811 127.897297,100.010811 C129.562162,100.010811 130.88018,99.6144144 131.851351,98.8216216 C132.822523,98.0288288 133.625225,96.7405405 134.259459,94.9567568 C134.655856,93.8864865 135.181081,92.8954955 135.835135,91.9837838 C136.489189,91.0720721 137.272072,90.2792793 138.183784,89.6054054 C139.095495,88.9315315 140.126126,88.3963964 141.275676,88 C142.425225,87.6036036 143.693694,87.4054054 145.081081,87.4054054 C148.45045,87.4054054 150.957658,88.327027 152.602703,90.1702703 C154.247748,92.0135135 155.07027,94.6594595 155.07027,98.1081081 C155.07027,100.209009 154.812613,102.200901 154.297297,104.083784 C153.781982,105.966667 153.009009,107.84955 151.978378,109.732432 C150.947748,111.615315 149.63964,113.527928 148.054054,115.47027 C146.468468,117.412613 144.605405,119.454054 142.464865,121.594595 L142.464865,121.594595 L117.491892,146.745946 C116.302703,147.816216 115.47027,149.005405 114.994595,150.313514 C114.518919,151.621622 114.281081,152.85045 114.281081,154 L114.281081,154 L114.281081,159.945946 L175.167568,159.945946 Z M188.189189,137.797297 C189.556757,137.797297 190.86982,137.53964 192.128378,137.024324 C193.386937,136.509009 194.491892,135.780631 195.443243,134.839189 C196.394595,133.897748 197.157658,132.772973 197.732432,131.464865 C198.307207,130.156757 198.594595,128.70991 198.594595,127.124324 C198.594595,125.479279 198.336937,123.987838 197.821622,122.65 C197.306306,121.312162 196.587838,120.167568 195.666216,119.216216 C194.744595,118.264865 193.644595,117.526577 192.366216,117.001351 C191.087838,116.476126 189.695495,116.213514 188.189189,116.213514 C186.682883,116.213514 185.30045,116.476126 184.041892,117.001351 C182.783333,117.526577 181.693243,118.264865 180.771622,119.216216 C179.85,120.167568 179.131532,121.312162 178.616216,122.65 C178.100901,123.987838 177.843243,125.479279 177.843243,127.124324 C177.843243,128.70991 178.100901,130.156757 178.616216,131.464865 C179.131532,132.772973 179.85,133.897748 180.771622,134.839189 C181.693243,135.780631 182.783333,136.509009 184.041892,137.024324 C185.30045,137.53964 186.682883,137.797297 188.189189,137.797297 Z M186.464865,159.945946 C187.099099,159.945946 187.639189,159.822072 188.085135,159.574324 C188.531081,159.326577 188.902703,159.014414 189.2,158.637838 L189.2,158.637838 L221.843243,116.62973 L215.124324,116.62973 C214.351351,116.62973 213.746847,116.773423 213.310811,117.060811 C212.874775,117.348198 212.508108,117.66036 212.210811,117.997297 L212.210811,117.997297 L179.567568,159.945946 L186.464865,159.945946 Z M188.189189,132.059459 C187.713514,132.059459 187.277477,131.98018 186.881081,131.821622 C186.484685,131.663063 186.147748,131.395495 185.87027,131.018919 C185.592793,130.642342 185.374775,130.136937 185.216216,129.502703 C185.057658,128.868468 184.978378,128.075676 184.978378,127.124324 C184.978378,126.113514 185.057658,125.276126 185.216216,124.612162 C185.374775,123.948198 185.592793,123.418018 185.87027,123.021622 C186.147748,122.625225 186.484685,122.347748 186.881081,122.189189 C187.277477,122.030631 187.713514,121.951351 188.189189,121.951351 C188.664865,121.951351 189.105856,122.030631 189.512162,122.189189 C189.918468,122.347748 190.27027,122.625225 190.567568,123.021622 C190.864865,123.418018 191.097748,123.948198 191.266216,124.612162 C191.434685,125.276126 191.518919,126.113514 191.518919,127.124324 C191.518919,128.075676 191.434685,128.868468 191.266216,129.502703 C191.097748,130.136937 190.864865,130.642342 190.567568,131.018919 C190.27027,131.395495 189.918468,131.663063 189.512162,131.821622 C189.105856,131.98018 188.664865,132.059459 188.189189,132.059459 Z M213.102703,160.481081 C214.47027,160.481081 215.783333,160.223423 217.041892,159.708108 C218.30045,159.192793 219.405405,158.464414 220.356757,157.522973 C221.308108,156.581532 222.071171,155.451802 222.645946,154.133784 C223.220721,152.815766 223.508108,151.363964 223.508108,149.778378 C223.508108,148.133333 223.25045,146.641892 222.735135,145.304054 C222.21982,143.966216 221.501351,142.821622 220.57973,141.87027 C219.658108,140.918919 218.558108,140.180631 217.27973,139.655405 C216.001351,139.13018 214.609009,138.867568 213.102703,138.867568 C211.596396,138.867568 210.213964,139.13018 208.955405,139.655405 C207.696847,140.180631 206.606757,140.918919 205.685135,141.87027 C204.763514,142.821622 204.045045,143.966216 203.52973,145.304054 C203.014414,146.641892 202.756757,148.133333 202.756757,149.778378 C202.756757,151.363964 203.014414,152.815766 203.52973,154.133784 C204.045045,155.451802 204.763514,156.581532 205.685135,157.522973 C206.606757,158.464414 207.696847,159.192793 208.955405,159.708108 C210.213964,160.223423 211.596396,160.481081 213.102703,160.481081 Z M213.102703,154.713514 C212.627027,154.713514 212.190991,154.634234 211.794595,154.475676 C211.398198,154.317117 211.061261,154.04955 210.783784,153.672973 C210.506306,153.296396 210.288288,152.790991 210.12973,152.156757 C209.971171,151.522523 209.891892,150.72973 209.891892,149.778378 C209.891892,148.787387 209.971171,147.95991 210.12973,147.295946 C210.288288,146.631982 210.506306,146.101802 210.783784,145.705405 C211.061261,145.309009 211.398198,145.031532 211.794595,144.872973 C212.190991,144.714414 212.627027,144.635135 213.102703,144.635135 C213.578378,144.635135 214.019369,144.714414 214.425676,144.872973 C214.831982,145.031532 215.183784,145.309009 215.481081,145.705405 C215.778378,146.101802 216.011261,146.631982 216.17973,147.295946 C216.348198,147.95991 216.432432,148.787387 216.432432,149.778378 C216.432432,150.72973 216.348198,151.522523 216.17973,152.156757 C216.011261,152.790991 215.778378,153.296396 215.481081,153.672973 C215.183784,154.04955 214.831982,154.317117 214.425676,154.475676 C214.019369,154.634234 213.578378,154.713514 213.102703,154.713514 Z" id="92%" fill="#FFFFFF" fill-rule="nonzero"></path>
                </g>
            </g>
        </g>
    </g>
</svg>