<?xml version="1.0" encoding="UTF-8"?>
<svg width="492px" height="491px" viewBox="0 0 492 491" version="1.1" xmlns="http://www.w3.org/2000/svg" xmlns:xlink="http://www.w3.org/1999/xlink">
    <!-- Generator: Sketch 63.1 (92452) - https://sketch.com -->
    <title>img_questions_seo</title>
    <desc>Created with Sketch.</desc>
    <defs>
        <linearGradient x1="46.7060004%" y1="-48.1959633%" x2="50.824924%" y2="29.8179687%" id="linearGradient-1">
            <stop stop-color="#80C3F3" offset="0%"></stop>
            <stop stop-color="#4A90E2" offset="100%"></stop>
        </linearGradient>
    </defs>
    <g id="Page-1" stroke="none" stroke-width="1" fill="none" fill-rule="evenodd">
        <g id="FAQs---What-is-an-SEO-Agency" transform="translate(-817.000000, -2660.000000)" fill-rule="nonzero">
            <g id="img_questions_seo" transform="translate(817.000000, 2660.000000)">
                <path d="M246,0 C110.208,0 0,109.984 0,245.5 C0,381.016 110.208,491 246,491 C381.792,491 492,381.016 492,245.5 C492,109.984 381.792,0 246,0 Z" id="Path" fill="url(#linearGradient-1)"></path>
                <g id="Group" transform="translate(148.000000, 90.000000)" fill="#FFFFFF">
                    <path d="M100.388327,0.73512605 C60.5749518,0.73512605 28.0891914,23.0339496 0.244253838,58.565042 L46.8967369,101.937479 C60.5749518,84.2944538 74.4974206,69.3468908 91.5951893,69.3468908 C105.517658,69.3468908 121.149904,79.8836975 121.149904,96.7915966 C121.149904,121.050756 57.6439058,143.839664 57.6439058,184.271597 L57.6439058,219.557647 L131.897073,219.557647 L131.897073,195.298487 C131.897073,168.83395 195.40307,154.866555 195.40307,97.7717647 C195.158817,38.2265546 153.39141,0.73512605 100.388327,0.73512605 Z" id="Path"></path>
                    <path d="M93.7934738,236.465546 C69.8565977,236.465546 50.5605445,255.823866 50.5605445,279.837983 C50.5605445,303.852101 69.8565977,323.21042 93.7934738,323.21042 C117.73035,323.21042 137.026403,303.852101 137.026403,279.837983 C137.026403,255.823866 117.486096,236.465546 93.7934738,236.465546 Z" id="Path"></path>
                </g>
            </g>
        </g>
    </g>
</svg>