<?xml version="1.0" encoding="UTF-8"?>
<svg width="501px" height="387px" viewBox="0 0 501 387" version="1.1" xmlns="http://www.w3.org/2000/svg" xmlns:xlink="http://www.w3.org/1999/xlink">
    <!-- Generator: sketchtool 63.1 (101010) - https://sketch.com -->
    <title>7C91F473-BE67-485E-9ADD-8ABB75429478</title>
    <desc>Created with sketchtool.</desc>
    <defs>
        <polygon id="path-1" points="0 0.0601442975 429.437917 0.0601442975 429.437917 38.3569443 0 38.3569443"></polygon>
        <polygon id="path-3" points="0 386.087264 500.567482 386.087264 500.567482 0.0430641509 0 0.0430641509"></polygon>
        <polygon id="path-5" points="0.444251186 0.127284298 404.634111 0.127284298 447.238935 42.6828843 50.1333591 42.6828843"></polygon>
        <linearGradient x1="49.9999184%" y1="99.9987264%" x2="49.9999184%" y2="10.4566386%" id="linearGradient-7">
            <stop stop-color="#FFFFFF" offset="0%"></stop>
            <stop stop-color="#EBEBEB" offset="100%"></stop>
        </linearGradient>
        <polygon id="path-8" points="0.444251186 0.127284298 357.704107 0.127284298 357.704107 42.6828843 50.1333591 42.6828843"></polygon>
        <linearGradient x1="50.0000501%" y1="99.9987264%" x2="50.0000501%" y2="10.4566386%" id="linearGradient-10">
            <stop stop-color="#FFFFFF" offset="0%"></stop>
            <stop stop-color="#DBDBDB" offset="100%"></stop>
        </linearGradient>
        <polygon id="path-11" points="42.8192806 287.636264 0.214456835 245.080664 0.214456835 0.0448641509 42.8192806 42.5986642"></polygon>
        <linearGradient x1="-17.6000998%" y1="49.9997152%" x2="70.4827139%" y2="49.9997152%" id="linearGradient-13">
            <stop stop-color="#EBEBEB" offset="0%"></stop>
            <stop stop-color="#FFFFFF" offset="100%"></stop>
        </linearGradient>
    </defs>
    <g id="Page-1" stroke="none" stroke-width="1" fill="none" fill-rule="evenodd">
        <g id="FAQs---What-is-included-within-an-SEO-campaign" transform="translate(-808.000000, -1516.000000)">
            <g id="img_website_optimisation" transform="translate(808.000000, 1516.000000)">
                <polygon id="Fill-1" fill="#427FE0" points="18 278 412 278 412 52 18 52"></polygon>
                <g id="Group-54">
                    <g id="Group-4" transform="translate(0.000000, 295.353380)">
                        <mask id="mask-2" fill="white">
                            <use xlink:href="#path-1"></use>
                        </mask>
                        <g id="Clip-3"></g>
                        <path d="M429.437917,31.4629443 C429.437917,35.2699443 426.347215,38.3569443 422.535651,38.3569443 L6.90208597,38.3569443 C3.09052122,38.3569443 -0.000180215827,35.2699443 -0.000180215827,31.4629443 L-0.000180215827,0.0601442975 L429.437917,0.0601442975 L429.437917,31.4629443 Z" id="Fill-2" fill="#4E5B6B" mask="url(#mask-2)"></path>
                    </g>
                    <path d="M260.633356,373.066064 C257.375054,369.809864 256.416305,333.811664 256.416305,333.811664 L173.021431,333.811664 C173.021431,333.811664 172.062683,369.809864 168.802579,373.066064 C165.553287,376.311464 151.932575,378.619064 151.932575,378.619064 L214.238593,378.619064 L215.199144,378.619064 L277.505162,378.619064 C277.505162,378.619064 263.884449,376.311464 260.633356,373.066064" id="Fill-5" fill="#4E5B6B"></path>
                    <mask id="mask-4" fill="white">
                        <use xlink:href="#path-3"></use>
                    </mask>
                    <g id="Clip-8"></g>
                    <polygon id="Fill-7" fill="#303D4D" mask="url(#mask-4)" points="151.932755 386.087264 277.505342 386.087264 277.505342 378.619064 151.932755 378.619064"></polygon>
                    <path d="M214.718868,308.519144 C211.383073,308.519144 208.670825,311.229944 208.670825,314.561744 C208.670825,317.891744 211.383073,320.602544 214.718868,320.602544 C218.056465,320.602544 220.768714,317.891744 220.768714,314.561744 C220.768714,311.229944 218.056465,308.519144 214.718868,308.519144 M214.718868,321.752744 C210.748714,321.752744 207.519246,318.528944 207.519246,314.561744 C207.519246,310.596344 210.748714,307.370744 214.718868,307.370744 C218.689023,307.370744 221.918491,310.596344 221.918491,314.561744 C221.918491,318.528944 218.689023,321.752744 214.718868,321.752744" id="Fill-9" fill="#FFFFFF" mask="url(#mask-4)"></path>
                    <polygon id="Fill-10" fill="#303D4D" mask="url(#mask-4)" points="257.602846 356.215724 256.417026 333.812924 173.02035 333.812924"></polygon>
                    <path d="M17.637723,278.562464 L411.032655,278.562464 L411.032655,57.2074642 L17.637723,57.2074642 L17.637723,278.562464 Z M6.90046403,40.3576642 C3.09070144,40.3576642 0,43.4428642 0,47.2498642 L0,295.412264 L429.438097,295.412264 L429.438097,47.2498642 C429.438097,43.4428642 426.347396,40.3576642 422.535831,40.3576642 L6.90046403,40.3576642 Z" id="Fill-11" fill="#303D4D" mask="url(#mask-4)"></path>
                    <g id="Group-14" mask="url(#mask-4)">
                        <g transform="translate(53.328547, 244.953380)">
                            <mask id="mask-6" fill="white">
                                <use xlink:href="#path-5"></use>
                            </mask>
                            <g id="Clip-13" stroke="none" fill="none"></g>
                            <polygon id="Fill-12" stroke="none" fill="url(#linearGradient-7)" fill-rule="evenodd" mask="url(#mask-6)" points="0.444251186 0.127284298 50.1333591 42.6828843 447.238935 42.6828843 404.634111 0.127284298"></polygon>
                        </g>
                    </g>
                    <g id="Group-17" mask="url(#mask-4)">
                        <g transform="translate(53.328547, 244.953380)">
                            <mask id="mask-9" fill="white">
                                <use xlink:href="#path-8"></use>
                            </mask>
                            <g id="Clip-16" stroke="none" fill="none"></g>
                            <polygon id="Fill-15" stroke="none" fill="url(#linearGradient-10)" fill-rule="evenodd" mask="url(#mask-9)" points="0.444251186 0.127284298 50.1333591 42.6828843 357.704107 42.6828843 357.704107 0.127284298"></polygon>
                        </g>
                    </g>
                    <g id="Group-20" mask="url(#mask-4)">
                        <g transform="translate(457.748201, 0.000000)">
                            <mask id="mask-12" fill="white">
                                <use xlink:href="#path-11"></use>
                            </mask>
                            <g id="Clip-19" stroke="none" fill="none"></g>
                            <polygon id="Fill-18" stroke="none" fill="url(#linearGradient-13)" fill-rule="evenodd" mask="url(#mask-12)" points="0.214456835 0.0448641509 0.214456835 245.080664 42.8192806 287.636264 42.8192806 42.5986642"></polygon>
                        </g>
                    </g>
                    <polygon id="Fill-21" fill="#FFFFFF" mask="url(#mask-4)" points="53.7727986 245.080664 457.962658 245.080664 457.962658 17.6524642 53.7727986 17.6524642"></polygon>
                    <polygon id="Fill-22" fill="#FF5254" mask="url(#mask-4)" points="95.6369353 43.0414642 149.452986 43.0414642 149.452986 33.3196642 95.6369353 33.3196642"></polygon>
                    <polygon id="Fill-23" fill="#FF5254" mask="url(#mask-4)" points="159.831615 43.0414642 182.394637 43.0414642 182.394637 33.3196642 159.831615 33.3196642"></polygon>
                    <polygon id="Fill-24" fill="#FF5254" mask="url(#mask-4)" points="95.6369353 60.1324642 210.018119 60.1324642 210.018119 50.4106642 95.6369353 50.4106642"></polygon>
                    <polygon id="Fill-25" fill="#FF5254" mask="url(#mask-4)" points="95.6369353 77.2252642 129.281428 77.2252642 129.281428 67.5034642 95.6369353 67.5034642"></polygon>
                    <polygon id="Fill-26" fill="#FF5254" mask="url(#mask-4)" points="139.155453 77.2252642 191.511755 77.2252642 191.511755 67.5034642 139.155453 67.5034642"></polygon>
                    <polygon id="Fill-27" fill="#FF5254" mask="url(#mask-4)" points="95.6369353 196.869464 129.281428 196.869464 129.281428 187.147664 95.6369353 187.147664"></polygon>
                    <polygon id="Fill-28" fill="#427FE0" mask="url(#mask-4)" points="115.808493 111.409064 230.189676 111.409064 230.189676 101.687264 115.808493 101.687264"></polygon>
                    <polygon id="Fill-29" fill="#427FE0" mask="url(#mask-4)" points="115.808493 128.501864 172.850406 128.501864 172.850406 118.780064 115.808493 118.780064"></polygon>
                    <polygon id="Fill-30" fill="#427FE0" mask="url(#mask-4)" points="115.808493 213.962264 185.508766 213.962264 185.508766 204.240464 115.808493 204.240464"></polygon>
                    <polygon id="Fill-31" fill="#427FE0" mask="url(#mask-4)" points="115.808493 231.053264 230.189676 231.053264 230.189676 221.333264 115.808493 221.333264"></polygon>
                    <polygon id="Fill-32" fill="#FFCD49" mask="url(#mask-4)" points="135.981853 145.592864 292.580396 145.592864 292.580396 135.871064 135.981853 135.871064"></polygon>
                    <polygon id="Fill-33" fill="#FFCD49" mask="url(#mask-4)" points="302.957223 145.592864 347.513784 145.592864 347.513784 135.871064 302.957223 135.871064"></polygon>
                    <polygon id="Fill-34" fill="#FFCD49" mask="url(#mask-4)" points="357.890612 145.592864 428.88123 145.592864 428.88123 135.871064 357.890612 135.871064"></polygon>
                    <polygon id="Fill-35" fill="#FFCD49" mask="url(#mask-4)" points="135.981853 162.685664 321.36627 162.685664 321.36627 152.963864 135.981853 152.963864"></polygon>
                    <polygon id="Fill-36" fill="#FFCD49" mask="url(#mask-4)" points="331.744899 162.685664 378.851514 162.685664 378.851514 152.963864 331.744899 152.963864"></polygon>
                    <polygon id="Fill-37" fill="#78838F" mask="url(#mask-4)" points="76.7953705 41.7634642 83.9715647 41.7634642 83.9715647 34.5958642 76.7953705 34.5958642"></polygon>
                    <polygon id="Fill-38" fill="#78838F" mask="url(#mask-4)" points="76.7953705 58.8562642 83.9715647 58.8562642 83.9715647 51.6886642 76.7953705 51.6886642"></polygon>
                    <polygon id="Fill-39" fill="#78838F" mask="url(#mask-4)" points="76.7953705 75.9490642 83.9715647 75.9490642 83.9715647 68.7814642 76.7953705 68.7814642"></polygon>
                    <polygon id="Fill-40" fill="#78838F" mask="url(#mask-4)" points="76.7953705 93.0130642 83.9715647 93.0130642 83.9715647 85.8454642 76.7953705 85.8454642"></polygon>
                    <polygon id="Fill-41" fill="#78838F" mask="url(#mask-4)" points="76.7953705 110.105864 83.9715647 110.105864 83.9715647 102.938264 76.7953705 102.938264"></polygon>
                    <polygon id="Fill-42" fill="#78838F" mask="url(#mask-4)" points="76.7953705 127.238264 83.9715647 127.238264 83.9715647 120.070664 76.7953705 120.070664"></polygon>
                    <polygon id="Fill-43" fill="#78838F" mask="url(#mask-4)" points="76.7953705 144.329264 83.9715647 144.329264 83.9715647 137.161664 76.7953705 137.161664"></polygon>
                    <polygon id="Fill-44" fill="#78838F" mask="url(#mask-4)" points="76.7953705 161.395064 83.9715647 161.395064 83.9715647 154.227464 76.7953705 154.227464"></polygon>
                    <polygon id="Fill-45" fill="#78838F" mask="url(#mask-4)" points="76.7953705 178.487864 83.9715647 178.487864 83.9715647 171.320264 76.7953705 171.320264"></polygon>
                    <polygon id="Fill-46" fill="#78838F" mask="url(#mask-4)" points="76.7953705 195.580664 83.9715647 195.580664 83.9715647 188.413064 76.7953705 188.413064"></polygon>
                    <polygon id="Fill-47" fill="#78838F" mask="url(#mask-4)" points="76.7953705 212.711264 83.9715647 212.711264 83.9715647 205.543664 76.7953705 205.543664"></polygon>
                    <polygon id="Fill-48" fill="#78838F" mask="url(#mask-4)" points="76.7953705 229.804064 83.9715647 229.804064 83.9715647 222.636464 76.7953705 222.636464"></polygon>
                    <polygon id="Fill-49" fill="#C3C3C3" mask="url(#mask-4)" points="62.5258813 231.053264 68.4766079 231.053264 68.4766079 34.5958642 62.5258813 34.5958642"></polygon>
                    <polygon id="Fill-50" fill="#78838F" mask="url(#mask-4)" points="110.967896 93.0148642 120.64909 93.0148642 120.64909 83.3452642 110.967896 83.3452642"></polygon>
                    <polygon id="Fill-51" fill="#78838F" mask="url(#mask-4)" points="110.967896 179.751464 120.64909 179.751464 120.64909 170.081864 110.967896 170.081864"></polygon>
                    <polygon id="Fill-52" fill="#C3C3C3" mask="url(#mask-4)" points="53.7727986 17.6542642 457.962658 17.6542642 457.962658 0.0448641509 53.7727986 0.0448641509"></polygon>
                    <path d="M69.8572414,8.84812415 C69.8572414,6.44692415 67.9073061,4.49752415 65.5014248,4.49752415 C63.0955435,4.49752415 61.1456083,6.44692415 61.1456083,8.84812415 C61.1456083,11.2511242 63.0955435,13.1987242 65.5014248,13.1987242 C67.9073061,13.1987242 69.8572414,11.2511242 69.8572414,8.84812415" id="Fill-53" fill="#FFFFFF" mask="url(#mask-4)"></path>
                </g>
            </g>
        </g>
    </g>
</svg>