<?xml version="1.0" encoding="UTF-8"?>
<svg width="350px" height="318px" viewBox="0 0 350 318" version="1.1" xmlns="http://www.w3.org/2000/svg" xmlns:xlink="http://www.w3.org/1999/xlink">
    <!-- Generator: Sketch 63.1 (92452) - https://sketch.com -->
    <title>img_linkedin</title>
    <desc>Created with Sketch.</desc>
    <defs>
        <linearGradient x1="67.4001736%" y1="100%" x2="67.4001753%" y2="0%" id="linearGradient-1">
            <stop stop-color="#427FDF" offset="0%"></stop>
            <stop stop-color="#396BB1" offset="100%"></stop>
        </linearGradient>
        <linearGradient x1="67.4001736%" y1="100%" x2="67.4001753%" y2="0%" id="linearGradient-2">
            <stop stop-color="#427FDF" offset="0%"></stop>
            <stop stop-color="#396BB1" offset="100%"></stop>
        </linearGradient>
    </defs>
    <g id="Page-1" stroke="none" stroke-width="1" fill="none" fill-rule="evenodd">
        <g id="FAQs---How-&amp;-Where-To-Sell-in-Hong-Kong" transform="translate(-853.000000, -2571.000000)">
            <g id="img_linkedin" transform="translate(816.184257, 2513.682920)">
                <path d="M195.485104,383.323829 C259.921131,383.221382 343.681959,333.022535 343.81773,248.24118 C343.952621,163.459824 312.896661,-12.3385537 192.202182,26.53051 C71.5077031,65.3995737 79.1937257,145.217425 79.0583949,229.99878 C78.9230642,314.780135 131.049078,383.426047 195.485104,383.323829 Z" id="Oval-5" fill="url(#linearGradient-1)" opacity="0.31810462" transform="translate(211.408865, 202.161914) rotate(-434.000000) translate(-211.408865, -202.161914) "></path>
                <path d="M215.006981,375.708236 C289.632193,375.902061 386.430616,331.952151 386.236435,257.099997 C386.041668,182.247843 349.346424,26.8996479 209.726903,60.6833346 C70.1073832,94.4670213 79.3394812,164.97151 79.5339551,239.823664 C79.7284291,314.675818 140.381769,375.513125 215.006981,375.708236 Z" id="Oval-5" fill="url(#linearGradient-2)" transform="translate(232.791094, 215.826214) rotate(-330.000000) translate(-232.791094, -215.826214) "></path>
                <path d="M304.976597,224.405809 L304.976597,278.82951 L273.360635,278.82951 L273.360635,228.025495 C273.360635,215.252359 268.802043,206.571271 257.362238,206.571271 C248.613552,206.571271 243.452719,212.44868 241.148908,218.104999 C240.3194,220.141938 240.067464,222.994577 240.067464,225.810573 L240.067464,278.823043 L208.482648,278.823043 C208.482648,278.823043 208.906653,192.810304 208.482648,183.902273 L240.07394,183.902273 L240.07394,197.356236 C240.031077,197.466782 239.938875,197.558544 239.895704,197.681407 L240.07394,197.681407 L240.07394,197.356236 C244.294562,190.890069 251.771541,181.675034 268.562442,181.675034 C289.402204,181.675034 304.976597,195.239851 304.976597,224.405809 Z M175.410576,138.135334 C164.603849,138.135334 157.526205,145.2152 157.526205,154.55279 C157.526205,163.638803 164.395084,170.957929 175.005073,170.957929 L175.195644,170.957929 C186.241973,170.957929 193.086183,163.638803 193.086183,154.55279 C192.871251,145.2152 186.242282,138.135334 175.410576,138.135334 Z M159.412487,278.829202 L191.009947,278.829202 L191.009947,183.896422 L159.412487,183.896422 L159.412487,278.829202 Z" fill="#FFFFFF" fill-rule="nonzero"></path>
            </g>
        </g>
    </g>
</svg>