<?xml version="1.0" encoding="UTF-8"?>
<svg width="331px" height="266px" viewBox="0 0 331 266" version="1.1" xmlns="http://www.w3.org/2000/svg" xmlns:xlink="http://www.w3.org/1999/xlink">
    <!-- Generator: Sketch 63.1 (92452) - https://sketch.com -->
    <title>img_poor_website_content_mob</title>
    <desc>Created with Sketch.</desc>
    <defs>
        <filter x="-9.5%" y="-13.7%" width="119.0%" height="127.4%" filterUnits="objectBoundingBox" id="filter-1">
            <feOffset dx="0" dy="5" in="SourceAlpha" result="shadowOffsetOuter1"></feOffset>
            <feGaussianBlur stdDeviation="5" in="shadowOffsetOuter1" result="shadowBlurOuter1"></feGaussianBlur>
            <feColorMatrix values="0 0 0 0 0   0 0 0 0 0   0 0 0 0 0  0 0 0 0.25 0" type="matrix" in="shadowBlurOuter1" result="shadowMatrixOuter1"></feColorMatrix>
            <feMerge>
                <feMergeNode in="shadowMatrixOuter1"></feMergeNode>
                <feMergeNode in="SourceGraphic"></feMergeNode>
            </feMerge>
        </filter>
        <linearGradient x1="0%" y1="30.7476175%" x2="100%" y2="69.2523825%" id="linearGradient-2">
            <stop stop-color="#ADDBFF" offset="0%"></stop>
            <stop stop-color="#AAD9FF" offset="0.0642956149%"></stop>
            <stop stop-color="#74B5FF" offset="100%"></stop>
        </linearGradient>
        <linearGradient x1="0%" y1="30.7476175%" x2="100%" y2="69.2523825%" id="linearGradient-3">
            <stop stop-color="#ADDBFF" offset="0%"></stop>
            <stop stop-color="#74B5FF" offset="100%"></stop>
        </linearGradient>
        <filter x="-11.6%" y="-11.6%" width="123.1%" height="123.1%" filterUnits="objectBoundingBox" id="filter-4">
            <feOffset dx="0" dy="2" in="SourceAlpha" result="shadowOffsetOuter1"></feOffset>
            <feGaussianBlur stdDeviation="4.5" in="shadowOffsetOuter1" result="shadowBlurOuter1"></feGaussianBlur>
            <feColorMatrix values="0 0 0 0 0   0 0 0 0 0   0 0 0 0 0  0 0 0 0.3 0" type="matrix" in="shadowBlurOuter1" result="shadowMatrixOuter1"></feColorMatrix>
            <feMerge>
                <feMergeNode in="shadowMatrixOuter1"></feMergeNode>
                <feMergeNode in="SourceGraphic"></feMergeNode>
            </feMerge>
        </filter>
        <polygon id="path-5" points="22.5890865 14.8740461 15.2003673 22.2424482 0.424600605 7.50731096 7.8133198 0.138908807"></polygon>
        <linearGradient x1="16.6709495%" y1="16.8539696%" x2="83.3336043%" y2="83.1505188%" id="linearGradient-7">
            <stop stop-color="#C5C6C8" offset="0%"></stop>
            <stop stop-color="#F1F1F2" offset="100%"></stop>
        </linearGradient>
        <polygon id="path-8" points="0.442988821 15.1102256 52.1556649 66.6823724 66.9314316 51.9472352 15.2187556 0.375088345"></polygon>
        <linearGradient x1="74.1460738%" y1="99.7279047%" x2="24.1234557%" y2="8.45631682%" id="linearGradient-10">
            <stop stop-color="#427FDF" offset="0%"></stop>
            <stop stop-color="#396BB1" offset="100%"></stop>
        </linearGradient>
        <linearGradient x1="50%" y1="0%" x2="50%" y2="100%" id="linearGradient-11">
            <stop stop-color="#DA3E3F" offset="0%"></stop>
            <stop stop-color="#FF5254" offset="100%"></stop>
        </linearGradient>
        <linearGradient x1="50%" y1="0%" x2="50%" y2="100%" id="linearGradient-12">
            <stop stop-color="#DA3E3F" offset="0%"></stop>
            <stop stop-color="#FF5254" offset="100%"></stop>
        </linearGradient>
        <linearGradient x1="165.997457%" y1="218.323785%" x2="30.915411%" y2="3.39156086%" id="linearGradient-13">
            <stop stop-color="#427FDF" offset="0%"></stop>
            <stop stop-color="#396BB1" offset="100%"></stop>
        </linearGradient>
        <filter x="-41.0%" y="-36.4%" width="181.9%" height="172.8%" filterUnits="objectBoundingBox" id="filter-14">
            <feOffset dx="0" dy="5" in="SourceAlpha" result="shadowOffsetOuter1"></feOffset>
            <feGaussianBlur stdDeviation="5" in="shadowOffsetOuter1" result="shadowBlurOuter1"></feGaussianBlur>
            <feColorMatrix values="0 0 0 0 0   0 0 0 0 0   0 0 0 0 0  0 0 0 0.25 0" type="matrix" in="shadowBlurOuter1" result="shadowMatrixOuter1"></feColorMatrix>
            <feMerge>
                <feMergeNode in="shadowMatrixOuter1"></feMergeNode>
                <feMergeNode in="SourceGraphic"></feMergeNode>
            </feMerge>
        </filter>
        <polygon id="path-15" points="0 0.0148268123 71.9864788 0.0148268123 71.9864788 80.3360143 0 80.3360143"></polygon>
        <linearGradient x1="15.011291%" y1="14.6442063%" x2="84.988904%" y2="85.3555211%" id="linearGradient-17">
            <stop stop-color="#FEFEFE" offset="0%"></stop>
            <stop stop-color="#C5C6C8" offset="100%"></stop>
        </linearGradient>
        <path d="M107.227405,18.9841611 C131.756506,43.641641 131.756506,83.6209218 107.227405,108.278402 C82.6983032,132.935881 42.9271733,132.935881 18.3980719,108.278402 C-6.13269063,83.6209218 -6.13269063,43.641641 18.3980719,18.9841611 C42.9271733,-5.67331871 82.6983032,-5.67331871 107.227405,18.9841611" id="path-18"></path>
    </defs>
    <g id="Page-1" stroke="none" stroke-width="1" fill="none" fill-rule="evenodd">
        <g id="FAQs---Why-Isn't-My-Website-Showing-On-Google---Mobile" transform="translate(-22.000000, -1485.000000)">
            <g id="img_poor_website_content_mob" transform="translate(32.000000, 1490.000000)">
                <g id="img_analyse_website">
                    <g id="img_blogs" filter="url(#filter-1)">
                        <rect id="Rectangle" fill="#FFFFFF" x="0" y="0" width="310.449558" height="214.214958" rx="13"></rect>
                        <path d="M13,0 L298,0 C305.179702,-1.31888981e-15 311,5.82029825 311,13 L311,36.3449542 L311,36.3449542 L0,36.3449542 L0,13 C-8.79259876e-16,5.82029825 5.82029825,1.31888981e-15 13,0 Z" id="Rectangle-2" fill="#FF5254"></path>
                        <polygon id="Fill-5" fill="#E9ECED" points="0 55.6187936 310.449558 55.6187936 310.449558 36.3449542 0 36.3449542"></polygon>
                        <path d="M55.0442478,19.8252803 C55.0442478,22.5620549 52.8266135,24.7806506 50.091025,24.7806506 C47.3554364,24.7806506 45.1362832,22.5620549 45.1362832,19.8252803 C45.1362832,17.0885057 47.3554364,14.8683904 50.091025,14.8683904 C52.8266135,14.8683904 55.0442478,17.0885057 55.0442478,19.8252803" id="Fill-6" fill="#FFFFFF"></path>
                        <path d="M40.7327434,19.8252803 C40.7327434,22.5620549 38.5135902,24.7806506 35.7780016,24.7806506 C33.042413,24.7806506 30.8247788,22.5620549 30.8247788,19.8252803 C30.8247788,17.0885057 33.042413,14.8683904 35.7780016,14.8683904 C38.5135902,14.8683904 40.7327434,17.0885057 40.7327434,19.8252803" id="Fill-7" fill="#FFFFFF"></path>
                        <path d="M26.9716814,19.8252803 C26.9716814,22.5620549 24.7540471,24.7806506 22.0169397,24.7806506 C19.2813511,24.7806506 17.0637168,22.5620549 17.0637168,19.8252803 C17.0637168,17.0885057 19.2813511,14.8683904 22.0169397,14.8683904 C24.7540471,14.8683904 26.9716814,17.0885057 26.9716814,19.8252803" id="Fill-8" fill="#FFFFFF"></path>
                        <path d="M67.4522124,15.9697526 L262.262832,15.9697526 C263.643544,15.9697526 264.762832,17.0890407 264.762832,18.4697526 L264.762832,18.9765639 C264.762832,20.3572757 263.643544,21.4765639 262.262832,21.4765639 L67.4522124,21.4765639 C66.0715005,21.4765639 64.9522124,20.3572757 64.9522124,18.9765639 L64.9522124,18.4697526 C64.9522124,17.0890407 66.0715005,15.9697526 67.4522124,15.9697526 Z" id="Rectangle-3" fill="#FFFFFF"></path>
                        <polygon id="Fill-10" fill="#FFFFFF" points="283.751499 12.6656659 284.856051 16.0310933 288.431858 16.0310933 285.538603 18.1111364 286.644754 21.4765639 283.751499 19.3965208 280.859842 21.4765639 281.964394 18.1111364 279.074336 16.0310933 282.648545 16.0310933"></polygon>
                        <g id="Group-7" transform="translate(122.198230, 81.500806)" fill="#DADFE1">
                            <polygon id="Fill-16" points="0 38.5476787 88.5305778 38.5476787 88.5305778 31.801835 0 31.801835"></polygon>
                            <polygon id="Fill-17" points="0 22.1649153 125.656304 22.1649153 125.656304 15.4190715 0 15.4190715"></polygon>
                            <polygon id="Fill-18" points="0 6.74584378 161.830088 6.74584378 161.830088 0 0 0"></polygon>
                        </g>
                        <g id="Group-7-Copy" transform="translate(122.198230, 147.582541)" fill="#DADFE1">
                            <polygon id="Fill-16" points="0 38.5476787 88.5305778 38.5476787 88.5305778 31.801835 0 31.801835"></polygon>
                            <polygon id="Fill-17" points="0 22.1649153 125.656304 22.1649153 125.656304 15.4190715 0 15.4190715"></polygon>
                            <polygon id="Fill-18" points="0 6.74584378 161.830088 6.74584378 161.830088 0 0 0"></polygon>
                        </g>
                        <rect id="Rectangle-4" fill="url(#linearGradient-2)" x="19.8159292" y="73.7912707" width="86.9699115" height="53.9667502"></rect>
                        <rect id="Rectangle-4-Copy" fill="url(#linearGradient-3)" x="19.8159292" y="139.322325" width="86.9699115" height="53.9667502"></rect>
                    </g>
                    <g id="Group" filter="url(#filter-4)" transform="translate(124.800429, 64.731623)">
                        <g id="Group-3" transform="translate(108.657635, 109.494135)">
                            <mask id="mask-6" fill="white">
                                <use xlink:href="#path-5"></use>
                            </mask>
                            <g id="Clip-2"></g>
                            <polygon id="Fill-1" fill="url(#linearGradient-7)" mask="url(#mask-6)" points="22.5890865 14.8740461 15.2003673 22.2424482 0.424600605 7.50731096 7.8133198 0.138908807"></polygon>
                        </g>
                        <g id="Group-6" transform="translate(118.687571, 118.983580)">
                            <mask id="mask-9" fill="white">
                                <use xlink:href="#path-8"></use>
                            </mask>
                            <g id="Clip-5"></g>
                            <polygon id="Fill-4" fill="url(#linearGradient-10)" mask="url(#mask-9)" points="0.442988821 15.1102256 52.1556649 66.6823724 66.9314316 51.9472352 15.2187556 0.375088345"></polygon>
                        </g>
                        <polygon id="Fill-7" fill="url(#linearGradient-11)" points="137.15636 122.600432 122.380593 137.335569 119.130894 134.094806 133.906661 119.359668"></polygon>
                        <polygon id="Fill-8" fill="url(#linearGradient-12)" points="167.594205 182.423689 170.843904 185.666119 185.619671 170.930982 182.369972 167.688551"></polygon>
                        <g id="Group-18" transform="translate(0.000000, 0.066682)" fill="url(#linearGradient-13)">
                            <path d="M68.2274665,10.4915266 C52.682738,10.4915266 38.0674503,16.5296155 27.0763125,27.4905304 C16.0835032,38.4514454 10.0304371,53.026545 10.0304371,68.5285295 C10.0304371,84.0321811 16.0835032,98.6056136 27.0746409,109.568196 C49.7656984,132.195192 86.6875629,132.195192 109.380292,109.568196 C132.069678,86.9378655 132.069678,50.1191935 109.380292,27.4905304 C98.3874827,16.5296155 83.7721949,10.4915266 68.2274665,10.4915266 M68.2274665,136.536214 C50.7553187,136.536214 33.2848426,129.904652 19.9834764,116.639861 C7.0966809,103.788501 0.000501496777,86.7028101 0.000501496777,68.5285295 C0.000501496777,50.3542489 7.0966809,33.268558 19.9834764,20.4171978 C32.870272,7.56750461 50.0030736,0.489170771 68.2274665,0.489170771 C86.4518594,0.489170771 103.584661,7.56750461 116.471457,20.4188648 C143.072517,46.9467797 143.072517,90.1119464 116.471457,116.639861 C103.17009,129.904652 85.6996142,136.536214 68.2274665,136.536214" id="Fill-12"></path>
                        </g>
                    </g>
                </g>
                <g id="img_thumbs_down" filter="url(#filter-14)" transform="translate(193.000000, 137.500000) rotate(-180.000000) translate(-193.000000, -137.500000) translate(157.000000, 97.000000)">
                    <g id="Group-5" transform="translate(0.000000, -0.000000)">
                        <mask id="mask-16" fill="white">
                            <use xlink:href="#path-15"></use>
                        </mask>
                        <g id="Clip-4"></g>
                        <path d="M42.3538394,0.0147755525 C40.3066336,0.0147755525 38.5084302,0.822799519 37.2908447,2.29002341 C35.1999222,4.81029271 35.692608,7.97916826 36.0185718,10.0760323 C36.0719295,10.4189598 36.1633523,11.0070796 36.1887844,11.3269402 C35.5747557,13.4504593 31.6892867,22.2315901 28.4763571,25.6868366 C24.6239665,29.8289633 23.10934,34.8320823 22.3814483,37.2363338 C22.3354045,37.3877208 22.2582769,37.6424816 22.1942809,37.8464952 C22.1410895,37.9114242 22.0780909,37.9859217 22.0062824,38.0687915 L21.226529,38.1861763 L3.00829216,40.9268623 L-1.66223269e-05,41.3793148 L0.170528455,44.4996644 L0.248653393,45.9325443 C0.94695736,58.7185967 6.73784372,70.6284496 16.1362738,78.6082202 L16.7757347,79.1515732 L18.1701817,80.3360143 L19.8950806,79.7759165 L20.6868021,79.5187636 C25.4987996,77.9561966 29.8944078,77.0598351 32.7469654,77.0598351 C32.9854958,77.0598351 33.2150501,77.066328 33.4289795,77.0789721 C36.488485,77.2588937 38.5990219,77.4810191 40.2949979,77.6597446 L40.3086283,77.6611115 C42.0350232,77.8427418 43.5260459,77.9992548 45.1046683,77.9992548 L45.1139768,77.9992548 L45.1236178,77.9992548 L45.3787705,77.997717 L45.3887439,77.997717 L45.3987173,77.9975461 C48.7439607,77.9573927 54.3431916,77.8899007 60.3647958,76.2350663 L60.4769966,76.2043105 L60.734144,76.1340847 L60.9771624,76.0225093 L61.0873684,75.9719331 C62.4992689,75.3252064 64.5775585,74.2571248 66.3011276,72.4632056 C68.3682802,70.3120063 69.4164841,67.6883632 69.4164841,64.6648944 C69.4164841,64.2693403 69.39554,63.8823294 69.353818,63.5043745 C71.0501265,61.6552657 71.9866284,59.0763895 71.9866284,56.1046929 C71.9866284,54.6468667 71.9866284,52.6521803 71.3064427,50.7507866 C71.9866284,48.9107337 71.9866284,46.9869567 71.9866284,45.5778271 L71.9866284,45.5007667 C71.9866284,44.6172201 71.9866284,42.9722958 71.5424798,41.264493 C71.1723006,39.8408399 70.5950071,38.7522544 69.9445755,37.9208218 C70.1629929,37.0753783 70.2730327,36.2528307 70.2730327,35.4596721 C70.2730327,32.4809701 69.0994964,29.8364814 66.9690127,28.0131733 C64.985969,26.3161351 62.302793,25.4192609 59.2092117,25.4192609 C59.0212131,25.4192609 58.8524965,25.426779 58.7279953,25.4324176 L58.5732414,25.4387396 L58.4532282,25.4436947 L58.3340461,25.457364 L58.2776964,25.4638569 C56.6851113,25.6453163 55.1763026,25.9127211 54.074741,26.1078498 L54.0210509,26.1174182 C53.7072213,26.1727787 53.2125409,26.2600911 52.970686,26.2969981 L50.8222502,26.2969981 C51.4597165,23.3251307 52.053466,21.0963583 52.4966172,20.0520271 C54.0800601,16.3228829 53.5687574,10.4358755 51.280694,6.05487858 C49.5802299,2.79920324 47.0041017,0.710369878 44.0265442,0.172655473 C43.4447627,0.0679147899 42.8822632,0.0147755525 42.3538394,0.0147755525 M28.8204392,72.4454356 C30.3693077,72.4454356 33.2474636,72.0996034 33.6789793,72.0996034 C33.68995,72.0996034 33.6992585,72.0999451 33.7069048,72.1002869 C39.9864875,72.4700403 42.4155082,73.0127098 45.1048346,73.0127098 C45.1834582,73.0127098 45.2625804,73.0127098 45.3420352,73.011172 C48.6048318,72.9720437 53.776204,72.8840479 59.1114724,71.4178492 C62.8877327,69.6885173 64.5654242,67.6025886 64.5654242,64.6648944 C64.5654242,63.0725968 63.9437491,62.0427891 62.879754,61.428356 C65.8094391,61.2251967 67.1357396,58.9340583 67.1357396,56.1311771 C67.1357396,53.5345309 67.1448769,51.1678698 64.5092407,50.6694546 C67.1619979,50.2277667 67.1357396,48.1174042 67.1357396,45.5007667 C67.1357396,42.5646102 66.7505953,40.0074339 63.6216084,40.0074339 C63.6058172,40.0074339 65.4219727,37.5221921 65.4219727,35.4596721 C65.4219727,32.5248825 63.2665555,30.4056351 59.2092117,30.4056351 C59.0770642,30.4056351 58.9482411,30.414691 58.817091,30.4194752 C56.2185225,30.7154146 53.7469487,31.2833723 53.1601806,31.2833723 L44.9111844,31.2833723 C44.9111844,31.2833723 46.5737496,21.5378753 48.0504772,18.0580242 C49.5283683,14.5774896 47.743629,5.90656714 43.1876153,5.08401958 C42.8759467,5.02780476 42.5993512,5.00132058 42.3538394,5.00132058 C39.0119205,5.00132058 41.4874837,9.93660589 40.9715267,12.2347498 C40.4173383,14.7035885 35.984496,24.8292616 31.9826708,29.1323438 C27.9813442,33.4347425 27.1193103,39.0046231 26.5036193,40.2066634 C26.0110997,41.1684665 22.7961754,44.6845412 19.9856723,46.1138329 C19.9856723,46.1138329 22.9986353,68.3673836 27.8726341,72.3230957 C27.9818428,72.4117751 28.3360646,72.4454356 28.8204392,72.4454356 M42.3538394,3.43208985 C42.690774,3.43208985 43.0599559,3.46797165 43.4515779,3.53853919 C45.431962,3.89616113 47.1262758,5.32528197 48.3516737,7.67126824 C50.1377428,11.0911455 50.6199565,15.9292082 49.4495784,18.6854431 C48.4379436,21.0693615 47.2973195,26.7646576 46.7469543,29.7143124 L53.1601806,29.7143124 C53.3322216,29.7069652 54.0268687,29.5836001 54.6394015,29.475613 C55.7017344,29.287319 57.1566867,29.0299952 58.648873,28.859813 L58.7052227,28.8534909 L58.8689526,28.8466563 C58.9819844,28.8413595 59.0946838,28.8364044 59.2092117,28.8364044 C63.9106707,28.8364044 66.9485672,31.4364679 66.9485672,35.4596721 C66.9485672,36.6429171 66.5403229,37.8649487 66.0120653,38.951313 C68.6621629,40.2989308 68.6621629,43.941617 68.6621629,45.5007667 L68.6621629,45.5776562 C68.6621629,47.2424009 68.6621629,49.3126099 67.5458074,50.7179804 C68.6621629,52.1990444 68.6621629,54.3642548 68.6621629,56.1046929 C68.6621629,58.9354252 67.5207077,61.1197725 65.6076441,62.2211729 C65.9030228,62.87388 66.0920187,63.6774614 66.0920187,64.6648944 C66.0920187,69.3922361 62.4626998,71.6006755 59.732815,72.8512417 L59.6226089,72.9018179 L59.5060864,72.9335989 C53.8874074,74.4777124 48.549147,74.5419579 45.3598211,74.5804027 L45.1046683,74.5819405 C43.6919367,74.5819405 42.3425362,74.4397802 40.6339272,74.2602004 C38.9027118,74.0778866 36.7476271,73.850977 33.6198038,73.6671255 C33.3432082,73.6508932 33.0493255,73.6425208 32.7469654,73.6425208 C28.3952401,73.6425208 22.6956103,75.2824899 19.6854731,76.2601835 L18.8935854,76.5173364 L18.2534596,75.9734709 C9.56713004,68.5982232 4.21457445,57.5789223 3.5677997,45.7410039 L3.48950853,44.308124 L21.7079116,41.5674379 L21.6415885,43.1190695 C23.4110353,41.6590219 24.9231684,39.9085027 25.1533876,39.4745038 C25.2326761,39.3185034 25.4116986,38.7269663 25.5556479,38.2517887 C26.2584399,35.9307488 27.5664509,31.6102384 30.8794469,28.0480299 C34.7167111,23.9216229 38.9894804,14.084542 39.4839946,11.8819121 C39.5917073,11.4024629 39.4374521,10.4121252 39.3016477,9.53797618 C39.0180708,7.71415554 38.7245205,5.82831064 39.8200981,4.50786039 C40.2273451,4.01713406 40.9972913,3.43208985 42.3538394,3.43208985" id="Fill-3" fill="#FF5254" mask="url(#mask-16)"></path>
                    </g>
                    <path d="M66.5205538,55.9809326 C66.5205538,58.7816312 65.2031764,61.071125 62.2932124,61.2743093 C63.3500453,61.8881306 63.9675355,62.9173698 63.9675355,64.508183 C63.9675355,67.4441101 62.3011374,69.5285415 58.5504621,71.2566321 C53.250943,72.7217784 48.1145469,72.8097111 44.8735487,72.8488112 C42.104914,72.8821061 39.7366574,72.3188247 33.3169053,71.9385799 C32.909758,71.9146759 27.9860163,72.5401078 27.5217429,72.1610581 C22.6805535,68.2081853 19.6878722,45.9707787 19.6878722,45.9707787 C22.4794564,44.5425129 25.6727394,41.0287913 26.1619436,40.0678493 C26.7734901,38.8666718 27.6297212,33.3007892 31.604278,29.001308 C35.5789999,24.7013145 39.9820024,14.5829095 40.5324603,12.1158428 C41.082588,9.65082515 38.2084516,4.14931271 42.7336314,4.97041613 C47.2589762,5.79237327 49.0317015,14.4569011 47.5637589,17.9349374 C46.0969719,21.4124615 44.4455983,31.1509632 44.4455983,31.1509632 L52.6390663,31.1509632 C53.2218846,31.1509632 55.676821,30.5834133 58.2578972,30.2876863 C58.3881645,30.2827347 58.5162855,30.2736853 58.6473783,30.2736853 C62.6774102,30.2736853 64.8183182,32.3915824 64.8183182,35.3242653 C64.8183182,37.3853049 63.0143882,39.8687629 63.0300731,39.8687629 C66.1379972,39.8687629 66.5205538,42.4241037 66.5205538,45.3579818 C66.5205538,47.9729119 66.5466304,50.0815888 63.9117303,50.5229597 C66.5296247,51.021188 66.5205538,53.3861502 66.5205538,55.9809326 L66.5205538,55.9809326 Z M68.0366972,45.3579818 C68.0366972,43.800122 68.0366972,40.1600505 65.4044386,38.8134 C65.9291402,37.7278155 66.3346365,36.5063196 66.3346365,35.3242653 C66.3346365,31.3037783 63.3171895,28.7057517 58.6473783,28.7057517 C58.5336215,28.7057517 58.4216807,28.7107033 58.3095749,28.7158256 L58.146782,28.7224845 L58.0908116,28.7293143 C56.6086699,28.8990329 55.1635117,29.1563427 54.1083298,29.3443308 C53.4999203,29.4524112 52.8099493,29.5756877 52.6390663,29.5830296 L46.2690106,29.5830296 C46.8156711,26.635492 47.9486171,20.9441133 48.9534421,18.5620767 C50.1159417,15.8076495 49.6369741,10.9732302 47.8629279,7.55563695 C46.6457787,5.21150534 44.9628702,3.78341031 42.9958171,3.42604506 C42.6068312,3.35552818 42.2401345,3.31967213 41.905468,3.31967213 C40.5580515,3.31967213 39.7932882,3.9042964 39.3887825,4.3946705 C38.3005798,5.71417294 38.5921541,7.59849346 38.8738221,9.42117572 C39.0087123,10.2945265 39.1619292,11.2843241 39.0549415,11.7634292 C38.5637561,13.9643073 34.3197491,23.7944981 30.5083153,27.9179432 C27.2176207,31.477424 25.9184147,35.7946625 25.2203535,38.1142071 C25.0773732,38.5892143 24.8995558,39.1803268 24.8209661,39.3362152 C24.5921315,39.7699026 23.0901773,41.5191654 21.3326416,42.9781649 L21.3985182,41.4276471 L3.30275229,44.1663659 L3.38051644,45.5980466 C4.02293743,57.4274679 9.3394623,68.43903 17.9673198,75.8089838 L18.6031367,76.352459 L19.3896937,76.0954907 C22.3795682,75.1184989 28.0409961,73.4795361 32.3632626,73.4795361 C32.6637525,73.4795361 32.9554919,73.4879025 33.2302255,73.5042939 C36.337159,73.6880134 38.4775717,73.9145895 40.1971334,74.0969431 C41.8942409,74.2762233 43.2345579,74.4182815 44.6377797,74.4182815 L44.8912149,74.4169156 C48.059237,74.3784984 53.3613978,74.314299 58.9422547,72.7712939 L59.0579928,72.7393649 L59.167457,72.688825 C61.8789656,71.4393272 65.4838538,69.2323023 65.4838538,64.508183 C65.4838538,63.5218003 65.2961301,62.7187957 65.0027397,62.0665571 C66.9029256,60.9657766 68.0366972,58.7831679 68.0366972,55.9544675 C68.0366972,54.2151078 68.0366972,52.0514516 66.9278563,50.57128 C68.0366972,49.1672597 68.0366972,47.0985367 68.0366972,45.4348162 L68.0366972,45.3579818 Z" id="Fill-1" fill="#FFFFFF"></path>
                </g>
                <g id="SEO-AUDIT" transform="translate(130.000000, 70.000000)">
                    <mask id="mask-19" fill="white">
                        <use xlink:href="#path-18"></use>
                    </mask>
                    <use id="Mask" fill-opacity="0.3" fill="url(#linearGradient-17)" style="mix-blend-mode: multiply;" xlink:href="#path-18"></use>
                </g>
            </g>
        </g>
    </g>
</svg>