<?xml version="1.0" encoding="UTF-8"?>
<svg width="300px" height="344px" viewBox="0 0 300 344" version="1.1" xmlns="http://www.w3.org/2000/svg" xmlns:xlink="http://www.w3.org/1999/xlink">
    <!-- Generator: sketchtool 63.1 (101010) - https://sketch.com -->
    <title>B91F1351-C489-40B4-92DE-473D6D893C14</title>
    <desc>Created with sketchtool.</desc>
    <defs>
        <filter x="-2.1%" y="-22.5%" width="104.1%" height="145.0%" filterUnits="objectBoundingBox" id="filter-1">
            <feGaussianBlur stdDeviation="1.65066964" in="SourceGraphic"></feGaussianBlur>
        </filter>
        <linearGradient x1="55.5815202%" y1="93.9556918%" x2="57.9413436%" y2="0%" id="linearGradient-2">
            <stop stop-color="#0056FF" offset="0%"></stop>
            <stop stop-color="#BCD1FF" offset="100%"></stop>
        </linearGradient>
        <linearGradient x1="55.6441667%" y1="93.9556918%" x2="58.0304765%" y2="0%" id="linearGradient-3">
            <stop stop-color="#2952A4" offset="0%"></stop>
            <stop stop-color="#6D98F4" offset="100%"></stop>
        </linearGradient>
    </defs>
    <g id="Page-1" stroke="none" stroke-width="1" fill="none" fill-rule="evenodd">
        <g id="FAQs---How-Much-Does-It-Cost-To-Advertise-On-Facebook" transform="translate(-901.000000, -542.000000)">
            <g id="img_facebook_landscape" transform="translate(878.000000, 486.000000)">
                <ellipse id="Oval-4" fill="#000000" opacity="0.147860054" filter="url(#filter-1)" cx="171.5" cy="385" rx="120.5" ry="11"></ellipse>
                <path d="M214.459405,342.476525 C288.944382,342.593545 289.471924,260.895736 289.355538,186.66845 C289.239151,112.441165 288.457023,31.7734362 213.972046,31.6561899 C139.48707,31.5391451 79.2653022,133.636613 79.3815205,207.863899 C79.4980756,282.091184 139.974429,342.359254 214.459405,342.476525 Z" id="Oval-5" fill="url(#linearGradient-2)" opacity="0.353713768" transform="translate(184.371925, 187.066357) rotate(-247.000000) translate(-184.371925, -187.066357) "></path>
                <path d="M214.100801,342.016076 C288.780329,341.874794 289.591911,260.38746 289.732031,186.353466 C289.872151,112.319472 289.367069,31.8640766 214.687541,32.0049249 C140.008013,32.1461436 79.275384,134.186793 79.1350209,208.220787 C78.9951441,282.254781 139.421273,342.156861 214.100801,342.016076 Z" id="Oval-5" fill="url(#linearGradient-3)" transform="translate(184.438123, 187.010500) rotate(-330.000000) translate(-184.438123, -187.010500) "></path>
                <g id="facebook-logo" transform="translate(139.000000, 141.000000)" fill="#FFFFFF" fill-rule="nonzero">
                    <path d="M65.9027717,0.0261580556 L49.4771529,0 C31.0235334,0 19.0979939,12.1438773 19.0979939,30.9397481 L19.0979939,45.2050438 L2.58276879,45.2050438 C1.15565726,45.2050438 0,46.3533824 0,47.7698411 L0,68.4386287 C0,69.8550874 1.156975,71.0021182 2.58276879,71.0021182 L19.0979939,71.0021182 L19.0979939,123.156049 C19.0979939,124.572508 20.2536512,125.719539 21.6807627,125.719539 L43.2284337,125.719539 C44.6555452,125.719539 45.8112025,124.5712 45.8112025,123.156049 L45.8112025,71.0021182 L65.1213524,71.0021182 C66.5484639,71.0021182 67.7041212,69.8550874 67.7041212,68.4386287 L67.7120276,47.7698411 C67.7120276,47.0897317 67.4392556,46.4383961 66.9556453,45.9570878 C66.4720351,45.4757796 65.8131655,45.2050438 65.1279411,45.2050438 L45.8112025,45.2050438 L45.8112025,33.1121747 C45.8112025,27.2998547 47.2066883,24.349226 54.8350804,24.349226 L65.9001363,24.3453023 C67.32593,24.3453023 68.4815873,23.1969637 68.4815873,21.7818129 L68.4815873,2.5896475 C68.4815873,1.1758046 67.3272478,0.0287738611 65.9027717,0.0261580556 Z" id="Shape"></path>
                </g>
            </g>
        </g>
    </g>
</svg>