<?xml version="1.0" encoding="UTF-8"?>
<svg width="313px" height="299px" viewBox="0 0 313 299" version="1.1" xmlns="http://www.w3.org/2000/svg" xmlns:xlink="http://www.w3.org/1999/xlink">
    <!-- Generator: sketchtool 63.1 (101010) - https://sketch.com -->
    <title>0E3F1783-9083-4301-9830-219B4F1CBDC1</title>
    <desc>Created with sketchtool.</desc>
    <g id="Page-1" stroke="none" stroke-width="1" fill="none" fill-rule="evenodd">
        <g id="FAQs---What-is-included-within-an-SEO-campaign---Mobile" transform="translate(-31.000000, -5448.000000)" fill-rule="nonzero">
            <g id="img_reporting" transform="translate(31.000000, 5448.000000)">
                <g id="Group_5644">
                    <g id="Group_5628" transform="translate(0.000000, 15.046609)">
                        <g id="Group_5627">
                            <g id="Group_5619">
                                <rect id="Rectangle_1986" fill="#EDEDED" x="0" y="0" width="94.5602461" height="74.1562802"></rect>
                                <rect id="Rectangle_1987" fill="#427FE0" x="0" y="0" width="94.5602461" height="8.70218405"></rect>
                                <polygon id="Path_5883" fill="#FF5254" points="8.37619519 5.98428016 70.3989014 5.98428016 70.3989014 2.41523517 8.37619519 2.41523517"></polygon>
                                <polygon id="Path_5884" fill="#FDBE57" points="89.8753077 5.98428016 87.6967098 5.98428016 87.6967098 2.41523517 89.8753077 2.41523517"></polygon>
                                <polygon id="Path_5885" fill="#FDBE57" points="86.6077184 5.98428016 84.4266609 5.98428016 84.4266609 2.41523517 86.6046439 2.41523517"></polygon>
                                <polygon id="Path_5886" fill="#FDBE57" points="83.0197651 5.98428016 80.8411673 5.98428016 80.8411673 2.41523517 83.0197651 2.41523517"></polygon>
                            </g>
                            <g id="Group_5620" transform="translate(27.332394, 55.490487)" fill="#BBBDBF">
                                <rect id="Rectangle_1988" x="0" y="0" width="63.3010875" height="2.71729243"></rect>
                                <rect id="Rectangle_1989" x="0" y="5.09767485" width="63.3010875" height="2.71729243"></rect>
                                <rect id="Rectangle_1990" x="0" y="10.1941268" width="63.3010875" height="2.71729243"></rect>
                            </g>
                            <g id="Group_5621" transform="translate(27.171290, 12.828262)" fill="#FD8C8D">
                                <rect id="Rectangle_1991" x="0" y="0" width="63.4621918" height="38.2029059"></rect>
                            </g>
                            <g id="Group_5626" transform="translate(4.105701, 12.828262)" fill="#BBBDBF">
                                <g id="Group_5622">
                                    <rect id="Rectangle_1992" x="0" y="0" width="20.4073679" height="12.2859039"></rect>
                                </g>
                                <g id="Group_5623" transform="translate(0.000000, 14.527487)">
                                    <rect id="Rectangle_1993" x="0" y="0" width="20.4073679" height="12.2840695"></rect>
                                </g>
                                <g id="Group_5624" transform="translate(0.000000, 29.052528)">
                                    <rect id="Rectangle_1994" x="0" y="0" width="20.4073679" height="12.2840695"></rect>
                                </g>
                                <g id="Group_5625" transform="translate(0.000000, 43.578180)">
                                    <rect id="Rectangle_1995" x="0" y="0" width="20.4073679" height="12.2859039"></rect>
                                </g>
                            </g>
                        </g>
                        <polygon id="Path_5887" fill="#EDEDED" points="69.2121405 71.0910716 69.2121405 87.8320143 53.0309941 70.735818"></polygon>
                    </g>
                    <g id="Group_5635" transform="translate(144.310123, 0.000000)">
                        <g id="Group_5634">
                            <g id="Group_5629">
                                <rect id="Rectangle_1996" fill="#EDEDED" x="0" y="0" width="167.73297" height="131.53493"></rect>
                                <rect id="Rectangle_1997" fill="#427FE0" x="0" y="0" width="167.73297" height="15.4348814"></rect>
                                <polygon id="Path_5888" fill="#FF5254" points="152.870174 10.6123599 42.8642042 10.6123599 42.8642042 4.28750102 152.870174 4.28750102"></polygon>
                                <polygon id="Path_5889" fill="#FDBE57" points="8.31347518 10.6123599 12.1769045 10.6123599 12.1769045 4.28750102 8.31347518 4.28750102"></polygon>
                                <polygon id="Path_5890" fill="#FDBE57" points="14.1089266 10.6123599 17.9742007 10.6123599 17.9742007 4.28750102 14.1095415 4.28750102"></polygon>
                                <polygon id="Path_5891" fill="#FDBE57" points="20.4737773 10.6123599 24.3384365 10.6123599 24.3384365 4.28750102 20.4737773 4.28750102"></polygon>
                            </g>
                            <g id="Group_5630" transform="translate(112.933518, 45.662620)">
                                <path d="M39.0622651,6.66666053 C34.7764447,2.39115323 28.9525651,-0.00772625579 22.8817336,0.00180588761 L22.8817336,22.755184 L39.0622651,6.66666053 Z" id="Path_5893" fill="#2B61B9"></path>
                                <path d="M45.7665625,22.7533497 C45.7747241,16.7177602 43.3624655,10.9280325 39.0641098,6.66666053 L22.8817336,22.7533497 L45.7665625,22.7533497 Z" id="Path_5894" fill="#2B61B9"></path>
                                <path d="M22.8817336,22.7533497 L39.0622651,38.8430961 C43.3599211,34.5805081 45.7720094,28.7905293 45.7647136,22.7545726 L22.8817336,22.7533497 Z" id="Path_5895" fill="#427FE0"></path>
                                <path d="M22.8817336,45.5079443 C28.9523356,45.5163313 34.775788,43.1176278 39.0622651,38.8430961 L22.8817336,22.7545726 L22.8817336,45.5079443 Z" id="Path_5897" fill="#427FE0"></path>
                                <path d="M6.70058721,38.8430961 C10.9876777,43.11709 16.8110804,45.5156819 22.8817336,45.5079411 L22.8817336,22.7533497 L6.70058721,38.8430961 Z" id="Path_5898" fill="#6497E6"></path>
                                <rect id="Rectangle_1998" fill="#231F20" x="22.8817336" y="6.95140378e-14" width="1" height="22.7533497"></rect>
                                <path d="M22.8817336,-2.21786039e-05 C16.8109455,-0.00843642396 10.9872918,2.39025886 6.70058721,6.66482618 L22.8817336,22.7533497 L22.8817336,-2.21786039e-05 Z" id="Path_5899" fill="#88B0F0"></path>
                                <path d="M22.8841932,22.7533497 L-1.73265709e-05,22.7533497 C-0.00747602351,28.7895182 2.40462474,34.5797471 6.70243191,38.8424847 L22.8841932,22.7533497 Z" id="Path_5900" fill="#6497E6"></path>
                                <path d="M6.70058721,6.66421472 C2.40293121,10.9268028 -0.00915705311,16.7167816 -0.00186128339,22.7527382 L22.8841932,22.7527382 L6.70058721,6.66421472 Z" id="Path_5901" fill="#88B0F0"></path>
                            </g>
                            <rect id="Rectangle_1999" fill="#808184" x="11.9506206" y="22.0654663" width="82.7338357" height="4.82129857"></rect>
                            <g id="Group_5631" transform="translate(62.865122, 98.006575)" fill="#BBBDBF">
                                <rect id="Rectangle_2000" x="0" y="0" width="92.7327573" height="4.82129857"></rect>
                                <rect id="Rectangle_2001" x="0" y="9.04092843" width="92.7327573" height="4.82068712"></rect>
                                <rect id="Rectangle_2002" x="0" y="18.079411" width="92.7327573" height="4.82313292"></rect>
                            </g>
                            <rect id="Rectangle_2003" fill="#808184" x="11.9506206" y="30.2014458" width="52.1240136" height="4.82129857"></rect>
                            <g id="Group_5632" transform="translate(11.950621, 45.570902)" fill="#BBBDBF">
                                <rect id="Rectangle_2004" x="0" y="0" width="41.6682198" height="4.82252147"></rect>
                                <rect id="Rectangle_2005" x="0" y="9.94404294" width="41.6682198" height="4.82129857"></rect>
                                <rect id="Rectangle_2006" x="0" y="19.8893088" width="41.6682198" height="4.82129857"></rect>
                                <rect id="Rectangle_2007" x="0" y="29.8345746" width="41.6682198" height="4.82129857"></rect>
                                <rect id="Rectangle_2008" x="0" y="39.7786176" width="41.6682198" height="4.82252147"></rect>
                            </g>
                            <g id="Group_5633" transform="translate(62.865122, 45.570902)" fill="#BBBDBF">
                                <rect id="Rectangle_2009" x="0" y="0" width="41.6676049" height="4.82252147"></rect>
                                <rect id="Rectangle_2010" x="0" y="9.94404294" width="41.6676049" height="4.82129857"></rect>
                                <rect id="Rectangle_2011" x="0" y="19.8893088" width="41.6676049" height="4.82129857"></rect>
                                <rect id="Rectangle_2012" x="0" y="29.8345746" width="41.6676049" height="4.82129857"></rect>
                                <rect id="Rectangle_2013" x="0" y="39.7786176" width="41.6676049" height="4.82252147"></rect>
                            </g>
                        </g>
                        <polygon id="Path_5902" fill="#EDEDED" points="78.1897098 129.42053 78.1897098 150.100446 98.8264362 128.981507"></polygon>
                    </g>
                    <g id="Group_5636" transform="translate(32.216561, 36.536088)">
                        <path d="M30.3079052,11.0709489 C29.5767063,11.0732982 28.984539,11.6621429 28.9821765,12.3892393 L28.9821765,25.0670838 C28.9821765,25.7953244 29.5758631,26.38568 30.3082126,26.38568 C31.0405622,26.38568 31.6342488,25.7953244 31.6342488,25.0670838 L31.6342488,12.3880164 C31.6312102,11.6611599 31.0388664,11.0729589 30.3079052,11.0709489 Z" id="Path_5903" fill="#427FE0"></path>
                        <rect id="Rectangle_2014" fill="#FFFFFF" x="36.2275668" y="11.069726" width="2.65207237" height="15.3150368" rx="1.32603619"></rect>
                        <path d="M44.7993009,15.6030307 C44.0678628,15.6053817 43.4755973,16.1945974 43.4735721,16.9219325 L43.4735721,25.0658609 C43.4735721,25.7941015 44.0672588,26.3844571 44.7996083,26.3844571 C45.5319579,26.3844571 46.1256445,25.7941015 46.1256445,25.0658609 L46.1256445,16.922544 C46.1239554,16.1947323 45.5312183,15.6050476 44.7993009,15.6030307 Z" id="Path_5904" fill="#427FE0"></path>
                        <rect id="Rectangle_2015" fill="#427FE0" x="0" y="14.6876871" width="2.65207237" height="11.6970757" rx="1.32603619"></rect>
                        <path d="M8.57173403,10.0290348 C7.84005584,10.0310502 7.24741721,10.6203637 7.24539039,11.3479366 L7.24539039,25.0658609 C7.24539039,25.7942703 7.83921466,26.3847628 8.57173403,26.3847628 C9.30425339,26.3847628 9.89807766,25.7942703 9.89807766,25.0658609 L9.89807766,11.3479366 C9.89605084,10.6203637 9.30341221,10.0310502 8.57173403,10.0290348 Z" id="Path_5905" fill="#FFFFFF"></path>
                        <path d="M15.8171244,6.749818 C15.0859255,6.75216728 14.4937582,7.34101203 14.4913957,8.06810838 L14.4913957,25.0664724 C14.4913957,25.7947129 15.0850823,26.3850685 15.8174319,26.3850685 C16.5497814,26.3850685 17.1434681,25.7947129 17.1434681,25.0664724 L17.1434681,8.06810838 C17.1411037,7.34077427 16.5485635,6.75183178 15.8171244,6.749818 L15.8171244,6.749818 Z" id="Path_5906" fill="#427FE0"></path>
                        <path d="M23.0625148,0 C22.3308366,0.00201544902 21.738198,0.591328929 21.7361712,1.31890184 L21.7361712,25.0658609 C21.7361712,25.7942703 22.3299954,26.3847628 23.0625148,26.3847628 C23.7950342,26.3847628 24.3888584,25.7942703 24.3888584,25.0658609 L24.3888584,1.31890184 C24.3868316,0.591328929 23.794193,0.00201544902 23.0625148,0 Z" id="Path_5907" fill="#FFFFFF"></path>
                        <path d="M52.0446913,7.87488957 C51.3132532,7.87724063 50.7209877,8.46645629 50.7189625,9.19379141 L50.7189625,25.0658609 C50.7189625,25.7941015 51.3126492,26.3844571 52.0449987,26.3844571 C52.7773483,26.3844571 53.3710349,25.7941015 53.3710349,25.0658609 L53.3710349,9.19379141 C53.3690081,8.4662185 52.7763694,7.87690502 52.0446913,7.87488957 Z" id="Path_5908" fill="#FFFFFF"></path>
                    </g>
                    <g id="man" transform="translate(80.873757, 82.230503)">
                        <path d="M9.33667213,118.490215 C9.33667213,118.490215 8.54590814,115.574812 8.20525243,108.683137 C8.01155829,104.769845 11.1746142,97.8604376 11.1746142,97.8604376 L39.3162196,96.4865051 C39.3162196,96.4865051 47.8953325,137.938667 48.5723396,154.757875 C48.8262941,161.065002 44.9198217,209.610006 44.9198217,209.610006 L39.9643264,211.611288 C37.8164176,203.2771 36.2784179,194.799148 35.3623997,186.243982 C34.5630271,178.027902 34.5138349,170.106542 33.0313062,157.433589 C31.8390112,147.243742 29.7219036,135.440274 29.2767145,134.608088 C27.3963442,141.472247 26.2495519,154.332916 23.6731125,164.154057 C18.599556,183.494282 11.0676213,209.61184 11.0676213,209.61184 L5.97500284,211.613123 C5.97500284,211.613123 4.87494314,188.41647 7.42186727,174.553632 C7.42186727,174.553632 9.1761827,162.707362 9.85073021,151.665763 C10.8155115,135.872571 9.33667213,118.490215 9.33667213,118.490215 Z" id="Path_5909" fill="#427FE0"></path>
                        <path d="M49.2173718,49.6774131 C49.2173718,49.6774131 52.8754239,66.886728 59.670706,68.3077423 C63.7905495,69.1692781 68.4877859,68.0509325 72.1624403,66.2092393 C73.6615714,65.4577648 81.8778921,61.1598691 81.8778921,61.1598691 C82.0855457,60.1087545 82.5889853,59.1378457 83.3296758,58.3600307 C85.3164242,56.3966585 88.0810236,53.8811452 88.4856291,54.4198344 C88.8902346,54.9585235 86.5898862,57.5963272 86.5898862,57.5963272 C88.0333076,57.1287732 89.5066398,56.7580128 90.9999634,56.4865419 C92.6356028,56.2676421 94.5510225,56.339182 94.5393394,56.9842638 C94.5276563,57.6293456 91.1352419,58.3594192 91.1352419,58.3594192 C91.1352419,58.3594192 95.0989002,57.5645317 95.1205037,58.5428548 C95.1419434,59.5211779 90.9132623,59.9222904 90.9132623,59.9222904 C90.9132623,59.9222904 94.2952233,59.8385215 94.146417,60.8798241 C93.9976107,61.9211268 90.105281,61.6551452 90.105281,61.6551452 C90.105281,61.6551452 92.609162,62.0972249 92.4763432,63.0345808 C92.3779588,63.7261329 88.6079946,63.3714908 86.7651333,64.0471452 C85.086388,64.9767619 83.4643219,66.0041594 81.9074074,67.1239714 C81.3539956,67.7672188 75.9496218,72.9327648 74.0046868,74.5836851 C69.0787068,78.7623476 63.8975424,81.8544601 57.6243121,81.0956483 C43.7951659,79.4221043 35.6969064,52.7786973 35.6969064,52.7786973 L49.2173718,49.6774131 Z" id="Path_5910" fill="#F1F2F2"></path>
                        <path d="M15.336271,40.1656667 C16.6324845,40.066 17.4693661,40.0794519 17.4693661,40.0794519 L34.852646,39.9327035 C34.852646,39.9327035 35.3396483,39.9938487 36.0105064,40.0922924 C37.733164,46.4627233 39.0088746,52.9444178 39.828433,59.4906053 C41.5864379,72.9388793 41.8692928,86.5510225 42.5881132,99.8464335 C39.013073,100.492738 32.2682128,101.640434 25.6272711,102.389462 C24.9041463,90.8654274 25.3696271,78.6162106 24.0832521,67.0603804 C23.0022544,57.3144479 20.670546,48.0692945 15.336271,40.1656667 Z" id="Path_5911" fill="#D34445"></path>
                        <path d="M39.3912377,40.6939611 C46.9545324,42.6689509 48.7635741,46.8213211 48.7635741,46.8213211 C50.960619,49.4756339 52.2968011,55.8365685 52.2968011,55.8365685 L44.8515675,59.5566421 C44.8515675,59.5566421 44.515831,63.9315808 44.8331205,74.1091984 C45.1504099,84.286816 44.3491926,89.2579202 44.4205212,96.1012904 C44.4183661,98.9795845 44.6565364,101.853088 45.1325778,104.69219 C45.1325778,104.69219 39.8548738,105.487078 38.2229239,105.785466 C37.933305,100.42609 38.6742619,91.3503088 38.4725741,85.4797587 C38.2370666,78.6314969 38.9466635,66.9607137 38.3840282,59.9932188 C37.651065,50.925998 38.2370666,48.1506176 36.0111213,40.0892352 C37.0638336,40.2439325 38.5728031,40.4805644 39.3912377,40.6939611 Z" id="Path_5912" fill="#FF5254"></path>
                        <path d="M4.28648192,43.5806258 C7.73423749,41.0993538 12.5821249,40.3741718 15.336271,40.1638323 C20.8912958,48.3945869 23.3681211,58.8595869 24.5819377,69.8589959 C25.9168899,81.9498466 25.7268852,94.6839448 26.4266437,105.80809 C18.6505929,106.686135 9.37971527,108.249006 7.14454646,106.585857 C4.94196746,104.946554 4.86940902,95.2856135 3.73921913,85.5879857 C2.29542921,73.2073067 0.0983843217,60.1595337 0.0153725503,57.1145031 C-0.133433736,51.6872556 0.884229091,46.0313252 4.28648192,43.5806258 Z" id="Path_5913" fill="#FF5254"></path>
                        <g id="Group_5640" transform="translate(16.026191, 0.000000)">
                            <g id="Group_5637" fill="#2A4B80">
                                <path d="M0.677622016,12.3598896 C0.129129422,10.6331493 -0.0209066684,9.61569325 1.48191385,7.92135992 C3.24914222,5.92924949 4.90876275,6.3095726 6.84816369,6.67277505 C7.71383839,5.86013302 8.51863377,4.9856699 9.25611996,4.05637219 C9.82931783,3.40126057 10.4822312,2.81958516 11.1998252,2.32474029 C12.1762896,1.72612883 13.8697297,1.92668507 14.3099996,3.09761554 C15.6111322,1.6209591 17.1385488,-0.149805726 19.0053913,0.00978323108 C20.7418746,0.158366053 21.3616958,1.4644274 21.2891374,3.39661554 C21.8425492,2.92335174 24.059271,2.97960532 24.8045322,3.22968916 C26.0115848,3.63263599 26.5662265,5.01329448 26.9363975,6.25821063 C27.7296211,8.92475256 27.4756665,13.1988016 24.4767894,13.7466626 C26.1985151,15.2899673 25.270013,17.7724622 23.1510607,18.442002 C21.9827469,18.8088732 20.3637099,18.4707403 19.1695702,18.4701288 C18.5334317,18.4605902 17.9020751,18.3590441 17.2953488,18.168683 C14.878169,21.9376728 11.1770738,24.3174438 7.13286332,22.5032658 C5.08523963,21.5860879 3.06959084,19.1023701 1.56369581,17.2246012 C0.395381993,15.7626196 -0.780925553,14.2052515 0.677622016,12.3598896 Z" id="Path_5914"></path>
                            </g>
                            <g id="Group_5638" transform="translate(1.446864, 24.378589)" fill="#F1F2F2">
                                <path d="M2.45653353,15.5963047 L5.07909061,0 L14.6623384,5.87421881 L15.1776263,15.5963047 L17.3574792,15.5963047 C17.3574792,15.5963047 17.4281677,20.3393374 10.084393,20.4579591 C2.74061826,20.5765808 -3.49531325e-14,15.5963047 -3.49531325e-14,15.5963047 L2.45653353,15.5963047 Z" id="Path_5915"></path>
                            </g>
                            <g id="Group_5639" transform="translate(2.875282, 12.749996)" fill="#F1F2F2">
                                <path d="M1.09206597,8.0564908 C1.57037399,8.08223667 2.03867863,8.20281377 2.46944647,8.41113292 C2.30649744,6.6263047 2.23701351,5.29272802 2.23701351,5.29272802 C2.23701351,5.29272802 1.86807231,2.52040491 3.3020238,0.990552147 C3.95197522,0.294719836 4.97394236,-0.144302658 6.57022798,0.0495276074 C10.5135946,0.52890593 10.4084463,1.97437832 13.1300026,2.65737014 C14.4096137,2.97838241 17.7915748,3.51340286 17.7915748,3.51340286 C17.7915748,3.51340286 18.7047043,10.8642781 18.6106242,13.5913538 C18.5165442,16.3184294 18.0012564,21.1794724 13.2044058,21.7725808 C9.1971262,22.2913128 5.34471253,20.0476671 3.83944815,16.3184294 C3.39851027,15.0201871 3.09253527,13.6804264 2.92631867,12.3201452 C2.35556523,12.2108329 1.80819089,12.0039522 1.30851148,11.7086933 C0.450557344,11.2258894 -0.0561554983,10.2995186 0.00245960804,9.32097342 C0.0344345126,8.38056033 0.493151412,8.06015951 1.09206597,8.0564908 Z" id="Path_5916"></path>
                            </g>
                        </g>
                        <g id="Group_5641" transform="translate(39.797688, 209.613063)" fill="#2A4B80">
                            <path d="M0.166638445,2.00128221 L0,6.26493661 L15.8681613,6.26493661 C15.8681613,6.26493661 17.024792,5.13803067 15.9511731,4.13341513 C14.8775541,3.12879959 5.12213375,0.000611451943 5.12213375,0.000611451943 L0.166638445,2.00128221 Z" id="Path_5917"></path>
                            <path d="M0.166638445,2.00128221 L2.16138057,1.26387117 C2.29159796,1.50171857 2.40541201,1.74808971 2.50203628,2.00128221 C2.65576178,2.40973211 2.76767395,2.88421881 2.59242688,3.1324683 C2.09641968,3.5107797 1.51844802,3.76872719 0.904520857,3.8857771 C0.450108272,4.0129591 0.0848564774,4.0918364 0.0848564774,4.0918364 L0.166638445,2.00128221 Z" id="Path_5918"></path>
                        </g>
                        <g id="Group_5642" transform="translate(5.808364, 209.613063)" fill="#2A4B80">
                            <path d="M0.166023543,2.00128221 L3.49531325e-14,6.26493661 L16.3108907,6.26493661 C16.3108907,6.26493661 17.4994963,5.13803067 16.3939025,4.13341513 C15.2883087,3.12879959 5.25802709,0.000611451943 5.25802709,0.000611451943 L0.166023543,2.00128221 Z" id="Path_5919"></path>
                            <path d="M0.166023543,2.00128221 L2.16076566,1.26387117 C2.29096951,1.50172533 2.40478313,1.74809554 2.50142138,2.00128221 C2.65514688,2.40973211 2.76705905,2.88421881 2.59242688,3.1324683 C2.0961239,3.51067127 1.51798033,3.76860153 0.903905955,3.8857771 C0.44949337,4.0129591 0.0842415754,4.0918364 0.0842415754,4.0918364 L0.166023543,2.00128221 Z" id="Path_5920"></path>
                        </g>
                        <path d="M14.8265173,59.9198446 C14.8265173,59.9198446 13.5807258,78.0328855 19.4333631,82.9257239 C22.9801179,85.8906544 28.0733513,87.4571943 32.5406144,87.8460777 C34.363184,88.0050552 44.4377385,88.7186196 44.4377385,88.7186196 C45.186297,87.908233 46.160803,87.3381353 47.2367724,87.0811513 C50.1360354,86.455636 54.0621848,85.7720327 54.1820907,86.455636 C54.3019965,87.1392393 50.76631,88.1787076 50.76631,88.1787076 C52.3976313,88.5538238 54.0044732,89.0273521 55.5779182,89.5966646 C57.2658242,90.2894397 59.0791703,91.3833272 58.7458934,91.9348569 C58.4126165,92.4863865 54.7736264,91.2873292 54.7736264,91.2873292 C54.7736264,91.2873292 58.9973883,92.7370818 58.5300628,93.593726 C58.0627372,94.4503701 53.7793298,92.518182 53.7793298,92.518182 C53.7793298,92.518182 57.085043,94.2687689 56.4234085,95.0862802 C55.7617739,95.9037914 52.1350819,93.5778282 52.1350819,93.5778282 C52.1350819,93.5778282 54.3321267,95.3100716 53.7338271,96.0480941 C53.2941722,96.5922863 49.831044,94.2534826 47.7151662,93.8468671 C45.6413353,93.7454029 43.5634265,93.7590799 41.4911281,93.8878344 C40.6302652,94.1440327 32.8376121,95.6977321 30.1363475,96.074998 C23.2943329,97.0306973 16.6656892,97.0282515 11.0743852,92.8722127 C0.197998447,84.7937096 0.277927229,59.9198446 0.277927229,59.9198446 L14.8265173,59.9198446 Z" id="Path_5921" fill="#F1F2F2"></path>
                    </g>
                    <g id="Group_5643" transform="translate(139.374305, 56.209554)">
                        <polygon id="Rectangle_2016" fill="#A7A9AC" transform="translate(31.561953, 93.095481) rotate(-73.865795) translate(-31.561953, -93.095481) " points="11.3232744 88.5102756 51.7869812 88.5711957 51.8006309 97.6806863 11.3369241 97.6197663"></polygon>
                        <path d="M13.8961705,179.436687 C13.0918787,182.204119 9.55557724,183.61963 5.99898401,182.597282 L5.14857453,182.352701 C1.5913664,181.330354 -0.639498091,178.255973 0.164793739,175.489765 L18.7385239,111.593037 C19.5434306,108.824994 23.0791172,107.410094 26.6363253,108.432442 L27.4873497,108.677022 C31.043328,109.69937 33.2754223,112.773751 32.468056,115.540571 L13.8961705,179.436687 Z" id="Path_5922" fill="#D1D3D4"></path>
                        <path d="M58.177109,1.5102863 C43.2713475,-2.77400126 27.237949,2.29221011 17.5532694,14.3465517 C7.86858972,26.4008934 6.43986294,43.0694663 13.9333027,56.5797336 C21.4267425,70.090001 36.3666424,77.7813438 51.786544,76.0672976 C67.2064455,74.3532514 80.0696595,63.5713686 84.3780837,48.749229 C87.2033947,39.0299824 86.0301682,28.5927519 81.1165101,19.7336916 C76.2028519,10.8746312 67.9512793,4.31945776 58.177109,1.5102863 Z M78.9810887,47.1979755 C73.9593647,64.4733343 55.8050116,74.4297308 38.4321633,69.4362332 C21.0593149,64.4427357 11.0466868,46.3902717 16.0683087,29.1148835 C21.0899306,11.8394953 39.2442247,1.88299257 56.6171026,6.87638855 C73.9898956,11.8701116 84.0024893,29.9225136 78.9810887,47.1979755 L78.9810887,47.1979755 Z" id="Path_5923" fill="#A7A9AC"></path>
                    </g>
                </g>
            </g>
        </g>
    </g>
</svg>