<?xml version="1.0" encoding="UTF-8"?>
<svg width="228px" height="250px" viewBox="0 0 228 250" version="1.1" xmlns="http://www.w3.org/2000/svg" xmlns:xlink="http://www.w3.org/1999/xlink">
    <!-- Generator: Sketch 63.1 (92452) - https://sketch.com -->
    <title>img_thumbs_up_mob</title>
    <desc>Created with Sketch.</desc>
    <defs>
        <filter x="-14.2%" y="-12.8%" width="128.4%" height="125.5%" filterUnits="objectBoundingBox" id="filter-1">
            <feOffset dx="0" dy="5" in="SourceAlpha" result="shadowOffsetOuter1"></feOffset>
            <feGaussianBlur stdDeviation="5" in="shadowOffsetOuter1" result="shadowBlurOuter1"></feGaussianBlur>
            <feColorMatrix values="0 0 0 0 0   0 0 0 0 0   0 0 0 0 0  0 0 0 0.25 0" type="matrix" in="shadowBlurOuter1" result="shadowMatrixOuter1"></feColorMatrix>
            <feMerge>
                <feMergeNode in="shadowMatrixOuter1"></feMergeNode>
                <feMergeNode in="SourceGraphic"></feMergeNode>
            </feMerge>
        </filter>
        <polygon id="path-2" points="0 0.0426333255 207.960939 0.0426333255 207.960939 230.999853 0 230.999853"></polygon>
        <linearGradient x1="31.3053554%" y1="100%" x2="68.7976626%" y2="11.9473853%" id="linearGradient-4">
            <stop stop-color="#427FDF" offset="0%"></stop>
            <stop stop-color="#396BB1" offset="100%"></stop>
        </linearGradient>
    </defs>
    <g id="Page-1" stroke="none" stroke-width="1" fill="none" fill-rule="evenodd">
        <g id="FAQs---How-Much-Does-It-Cost-To-Advertise-On-Facebook---Mobile" transform="translate(-74.000000, -7394.000000)">
            <g id="img_thumbs_up_mob" filter="url(#filter-1)" transform="translate(84.000000, 7399.000000)">
                <g id="Group-5">
                    <mask id="mask-3" fill="white">
                        <use xlink:href="#path-2"></use>
                    </mask>
                    <g id="Clip-4"></g>
                    <path d="M122.355536,0.0424859322 C116.441386,0.0424859322 111.246576,2.36589491 107.729107,6.58478113 C101.688664,13.8316161 103.111979,22.943467 104.053652,28.9728337 C104.207796,29.9588945 104.471907,31.6499864 104.545377,32.5697203 C102.771516,38.6757315 91.5468282,63.9251784 82.2650315,73.8604663 C71.1359032,85.7708237 66.7603157,100.156897 64.6575174,107.070131 C64.5245018,107.505433 64.3016888,108.237977 64.1168116,108.824602 C63.9631474,109.011301 63.7811514,109.225512 63.5737047,109.463798 L61.3210839,109.801328 L8.6906218,117.681954 L-4.80200554e-05,118.982945 L0.492637759,127.955264 L0.718332024,132.075397 C2.7356546,168.840679 19.4648819,203.086518 46.615902,226.031717 L48.4632336,227.594086 L52.4916361,230.999853 L57.4746773,229.389336 L59.7618726,228.649913 C73.6631988,224.156875 86.3616225,221.579458 94.6023444,221.579458 C95.2914322,221.579458 95.9545892,221.598128 96.5726073,221.634485 C105.411179,222.151836 111.508285,222.79054 116.407772,223.304451 L116.447148,223.308381 C121.434511,223.830645 125.74191,224.280686 130.302375,224.280686 L130.329266,224.280686 L130.357118,224.280686 L131.094226,224.276264 L131.123038,224.276264 L131.15185,224.275772 C140.815886,224.160314 156.991442,223.966247 174.387188,219.207901 L174.711323,219.119465 L175.454194,218.917536 L176.156247,218.59671 L176.47462,218.451282 C180.553443,216.591671 186.557391,213.520487 191.536591,208.362214 C197.508365,202.176611 200.53651,194.632533 200.53651,185.938787 C200.53651,184.801403 200.476004,183.688584 200.355474,182.601804 C205.255921,177.284838 207.961371,169.869483 207.961371,161.324605 C207.961371,157.132741 207.961371,151.397178 205.99639,145.929871 C207.961371,140.638945 207.961371,135.107276 207.961371,131.055436 L207.961371,130.833854 C207.961371,128.293286 207.961371,123.563436 206.678275,118.652785 C205.608868,114.559183 203.941132,111.429041 202.062107,109.038323 C202.69309,106.607317 203.010983,104.242146 203.010983,101.961481 C203.010983,93.3964594 199.620767,85.7924414 193.466037,80.5496634 C187.737244,75.6699641 179.985846,73.0910735 171.048834,73.0910735 C170.505727,73.0910735 170.018323,73.1126912 169.658653,73.1289044 L169.211586,73.1470829 L168.864882,73.1613309 L168.520578,73.2006358 L168.35779,73.2193056 C163.756988,73.7410777 159.398208,74.5099792 156.215918,75.0710562 L156.060814,75.0985696 C155.154195,75.2577543 153.725118,75.5088142 153.026426,75.6149373 L146.819834,75.6149373 C148.661403,67.0695678 150.37668,60.6609091 151.656894,57.6580173 C156.231285,46.9351581 154.754188,30.0075343 148.144227,17.4103243 C143.231775,8.04888744 135.789627,2.04261238 127.187794,0.496457152 C125.507092,0.195283605 123.882094,0.0424859322 122.355536,0.0424859322 M83.2590467,208.311118 C87.7335555,208.311118 96.0482283,207.316705 97.294829,207.316705 C97.3265222,207.316705 97.3534134,207.317687 97.3755027,207.31867 C115.51652,208.381867 122.53369,209.94227 130.302855,209.94227 C130.52999,209.94227 130.758566,209.94227 130.988102,209.937848 C140.413958,209.825338 155.353478,209.572313 170.766476,205.356374 C181.675672,200.383817 186.522336,194.385895 186.522336,185.938787 C186.522336,181.360262 184.726386,178.399131 181.652623,176.632377 C190.116157,176.048209 193.947692,169.460222 193.947692,161.400758 C193.947692,153.934308 193.974089,147.129161 186.360029,145.696007 C194.023549,144.425969 193.947692,138.357789 193.947692,130.833854 C193.947692,122.391169 192.835053,115.038211 183.795758,115.038211 C183.750139,115.038211 188.99681,107.892094 188.99681,101.961481 C188.99681,93.5227262 182.770049,87.4289978 171.048834,87.4289978 C170.667074,87.4289978 170.294919,87.4550373 169.916041,87.468794 C162.409065,88.3197444 155.268963,89.9528616 153.573855,89.9528616 L129.743422,89.9528616 C129.743422,89.9528616 134.546388,61.9304564 138.81249,51.9244197 C143.081953,41.9164178 137.926039,16.9838664 124.764222,14.618696 C123.863846,14.4570548 123.064792,14.3809016 122.355536,14.3809016 C112.701104,14.3809016 119.852731,28.571924 118.362188,35.1800549 C116.761199,42.2790052 103.955211,71.3945771 92.3943822,83.7677494 C80.8349942,96.1389565 78.3446741,112.154707 76.5660112,115.611079 C75.1431769,118.376668 65.8556178,128.486862 57.7363867,132.596678 C57.7363867,132.596678 66.4405021,196.585002 80.520943,207.959339 C80.8364348,208.21433 81.8597422,208.311118 83.2590467,208.311118 M122.355536,9.86870281 C123.328903,9.86870281 124.395428,9.97187808 125.526781,10.1747895 C131.24789,11.2031031 136.142574,15.312427 139.682613,22.0581248 C144.842368,31.8917114 146.23543,45.8031779 142.854338,53.7285131 C139.931837,60.583282 136.636701,76.9596551 135.046757,85.4411542 L153.573855,85.4411542 C154.070863,85.4200278 156.077621,85.0653014 157.84716,84.7547929 C160.916122,84.2133684 165.119317,83.4734542 169.430078,82.9841086 L169.592866,82.9659301 L170.065863,82.9462777 C170.392399,82.9310471 170.717975,82.9167991 171.048834,82.9167991 C184.630826,82.9167991 193.406972,90.3930762 193.406972,101.961481 C193.406972,105.363809 192.227599,108.877664 190.701522,112.001418 C198.35736,115.876387 198.35736,126.350643 198.35736,130.833854 L198.35736,131.054944 C198.35736,135.841786 198.35736,141.794508 195.132333,145.83554 C198.35736,150.094222 198.35736,156.320113 198.35736,161.324605 C198.35736,169.464152 195.059822,175.74507 189.533194,178.91206 C190.38651,180.788867 190.932498,183.099502 190.932498,185.938787 C190.932498,199.531884 180.447799,205.882077 172.561465,209.477981 L172.243092,209.623409 L171.906472,209.714793 C155.674732,214.154769 140.253091,214.339502 131.039483,214.450047 L130.302375,214.454469 C126.221151,214.454469 122.322882,214.045698 117.386901,213.52933 C112.385612,213.005102 106.159812,212.352641 97.1238776,211.82399 C96.3248238,211.777316 95.4758292,211.753242 94.6023444,211.753242 C82.0306936,211.753242 65.5650965,216.468843 56.8691444,219.280124 L54.5814689,220.019547 L52.7322166,218.455704 C27.6383757,197.248763 12.1754373,165.563635 10.3069769,131.524637 L10.0808024,127.404505 L62.7117447,119.523879 L62.5201447,123.985472 C67.6318797,119.787221 72.0002642,114.753742 72.665342,113.505812 C72.8943977,113.057245 73.4115737,111.356327 73.8274274,109.989992 C75.8577154,103.316025 79.6364136,90.8927393 89.2072911,80.6498908 C100.292721,68.7847339 112.636277,40.4989861 114.064873,34.165498 C114.376043,32.7868797 113.930417,29.9392421 113.538093,27.4256958 C112.718871,22.1814439 111.870837,16.7588461 115.035839,12.9619959 C116.21233,11.5509511 118.436619,9.86870281 122.355536,9.86870281" id="Fill-3" fill="url(#linearGradient-4)" mask="url(#mask-3)"></path>
                </g>
                <path d="M193.620245,161.423288 C193.620245,169.476475 189.814675,176.059733 181.408524,176.643973 C184.461447,178.408968 186.245221,181.368464 186.245221,185.942722 C186.245221,194.384748 181.431418,200.378365 170.596665,205.347353 C155.287694,209.560265 140.449945,209.813109 131.08752,209.925538 C123.089635,210.021275 116.24834,208.401604 97.7032994,207.30824 C96.5271538,207.239506 82.303709,209.037886 80.9625406,207.947958 C66.9775682,196.581785 58.3324686,132.639882 58.3324686,132.639882 C66.3966495,128.533017 75.6212369,118.429588 77.034424,115.666476 C78.8010272,112.212585 81.2744624,96.2083299 92.7559521,83.8455118 C104.237919,71.4812208 116.95708,42.3865477 118.547213,35.2926929 C120.136393,28.2047296 111.83374,12.3855658 124.90584,14.7465837 C137.978417,17.1100565 143.099373,42.0242206 138.858857,52.0250389 C134.621681,62.0243843 129.85128,90.0266754 129.85128,90.0266754 L153.520137,90.0266754 C155.203752,90.0266754 162.295443,88.3947304 169.751519,87.5443908 C170.127828,87.530153 170.497938,87.5041322 170.876632,87.5041322 C182.518375,87.5041322 188.702917,93.5939776 188.702917,102.026675 C188.702917,107.953032 183.491819,115.094018 183.537129,115.094018 C192.515136,115.094018 193.620245,122.441699 193.620245,130.877833 C193.620245,138.396858 193.695574,144.460191 186.084013,145.729318 C193.646448,147.161934 193.620245,153.962196 193.620245,161.423288 L193.620245,161.423288 Z M198,130.877833 C198,126.398331 198,115.931593 190.39607,112.059406 C191.911801,108.937894 193.083177,105.425579 193.083177,102.026675 C193.083177,90.466083 184.366535,82.9956632 170.876632,82.9956632 C170.548017,82.9956632 170.224648,83.009901 169.900803,83.0246297 L169.430535,83.0437771 L169.268851,83.0634154 C164.987319,83.5514279 160.812622,84.2913019 157.764468,84.8318468 C156.006927,85.1426234 154.013775,85.4970952 153.520137,85.5182064 L135.118657,85.5182064 C136.697821,77.0427952 139.970615,60.677686 142.873301,53.8283283 C146.231468,45.9081908 144.847852,32.0072007 139.723081,22.1801817 C136.207045,15.4398167 131.345547,11.3334424 125.663228,10.305867 C124.539547,10.1031012 123.480252,10 122.513486,10 C118.62114,10 116.411932,11.6810408 115.243418,13.0910727 C112.099875,16.8851976 112.942159,22.3034122 113.755827,27.5443908 C114.145491,30.0556419 114.588096,32.9017265 114.279035,34.2793552 C112.860125,40.6078062 100.600261,68.8737419 89.5899932,80.7303821 C80.0840084,90.9653874 76.3309306,103.379265 74.3144084,110.048932 C73.9013743,111.414778 73.3877049,113.114475 73.1606792,113.56272 C72.4996339,114.809754 68.160868,119.83962 63.0837917,124.034858 L63.2740926,119.576467 L11,127.451436 L11.224641,131.56812 C13.0804328,165.582686 28.4385289,197.245561 53.3622279,218.43728 L55.1989419,220 L57.4711065,219.261108 C66.108098,216.451845 82.4625316,211.739138 94.9484668,211.739138 C95.8165062,211.739138 96.6592675,211.763195 97.4529034,211.810326 C106.428049,212.338597 112.61116,212.990099 117.578539,213.514442 C122.481053,214.029948 126.35289,214.438426 130.406443,214.438426 L131.138553,214.434498 C140.290168,214.324032 155.60677,214.139432 171.728455,209.702643 L172.062793,209.610834 L172.379007,209.46551 C180.21187,205.872678 190.625481,199.526553 190.625481,185.942722 C190.625481,183.106456 190.083195,180.79748 189.235664,178.922019 C194.72482,175.756812 198,169.480894 198,161.347189 C198,156.345798 198,150.124376 194.796839,145.86826 C198,141.83111 198,135.882661 198,131.098764 L198,130.877833 Z" id="Fill-1" fill="#FFFFFF"></path>
            </g>
        </g>
    </g>
</svg>