<?xml version="1.0" encoding="UTF-8"?>
<svg width="261px" height="312px" viewBox="0 0 261 312" version="1.1" xmlns="http://www.w3.org/2000/svg" xmlns:xlink="http://www.w3.org/1999/xlink">
    <!-- Generator: Sketch 63.1 (92452) - https://sketch.com -->
    <title>img_poor_design_mob</title>
    <desc>Created with Sketch.</desc>
    <defs>
        <filter x="-28.1%" y="-25.4%" width="156.2%" height="150.9%" filterUnits="objectBoundingBox" id="filter-1">
            <feOffset dx="0" dy="5" in="SourceAlpha" result="shadowOffsetOuter1"></feOffset>
            <feGaussianBlur stdDeviation="5" in="shadowOffsetOuter1" result="shadowBlurOuter1"></feGaussianBlur>
            <feColorMatrix values="0 0 0 0 0   0 0 0 0 0   0 0 0 0 0  0 0 0 0.25 0" type="matrix" in="shadowBlurOuter1" result="shadowMatrixOuter1"></feColorMatrix>
            <feMerge>
                <feMergeNode in="shadowMatrixOuter1"></feMergeNode>
                <feMergeNode in="SourceGraphic"></feMergeNode>
            </feMerge>
        </filter>
        <polygon id="path-2" points="0 0.0212844721 104.980282 0.0212844721 104.980282 115.325508 0 115.325508"></polygon>
    </defs>
    <g id="Page-1" stroke="none" stroke-width="1" fill="none" fill-rule="evenodd">
        <g id="FAQs---Why-Isn't-My-Website-Converting---Mobile" transform="translate(-58.000000, -4868.000000)">
            <g id="img_poor_design_mob" transform="translate(58.000000, 4872.000000)">
                <g id="Group-2" transform="translate(0.000000, 77.000000)" fill-rule="nonzero">
                    <path d="M220.058824,228.189159 C220.058824,229.745933 185.793251,231 143.55,231 C101.306749,231 67.0411765,229.745933 67.0411765,228.189159 C67.0411765,226.632386 101.306749,225.378319 143.55,225.378319 C185.793251,225.378319 220.058824,226.632386 220.058824,228.189159 Z" id="Path" fill="#A0A0A0" opacity="0.6"></path>
                    <path d="M244.771523,194.714602 L16.2284768,194.714602 C7.25,194.714602 0,187.494095 0,178.552142 L0,16.1624596 C0,7.22050709 7.25,0 16.2284768,0 L244.771523,0 C253.75,0 261,7.22050709 261,16.1624596 L261,178.552142 C261,187.494095 253.75,194.714602 244.771523,194.714602 Z" id="Path" fill="#6F6F6F"></path>
                    <rect id="Rectangle" fill="#EFF1EC" x="12.7941176" y="12.7765487" width="234.9" height="149.74115"></rect>
                    <g id="Group" transform="translate(56.805882, 22.486726)">
                        <rect id="Rectangle" fill="#427FE0" x="0.511764706" y="10.7323009" width="51.1764706" height="17.3761062"></rect>
                        <polygon id="Rectangle" fill="#FF5254" points="0 35.2632743 72.9264706 35.2632743 73.1823529 65.4159292 0 65.4159292"></polygon>
                        <polygon id="Rectangle" fill="#427FE0" points="106.447059 55.7057522 179.373529 55.7057522 179.629412 85.8584071 106.447059 85.8584071"></polygon>
                        <rect id="Rectangle" fill="#AAAAAA" x="0.511764706" y="71.0376106" width="43.5" height="30.1526549"></rect>
                        <rect id="Rectangle" fill="#AAAAAA" x="51.6882353" y="71.0376106" width="43.5" height="30.1526549"></rect>
                        <rect id="Rectangle" fill="#AAAAAA" x="102.864706" y="0" width="43.5" height="30.1526549"></rect>
                        <rect id="Rectangle" fill="#AAAAAA" x="0.511764706" y="106.300885" width="43.5" height="2.04424779"></rect>
                        <rect id="Rectangle" fill="#AAAAAA" x="51.6882353" y="106.300885" width="43.5" height="2.04424779"></rect>
                        <rect id="Rectangle" fill="#AAAAAA" x="102.864706" y="106.300885" width="39.9176471" height="2.04424779"></rect>
                        <rect id="Rectangle" fill="#AAAAAA" x="0.511764706" y="110.389381" width="43.5" height="2.04424779"></rect>
                        <rect id="Rectangle" fill="#AAAAAA" x="51.1764706" y="110.389381" width="17.9117647" height="2.04424779"></rect>
                        <rect id="Rectangle" fill="#AAAAAA" x="102.864706" y="110.389381" width="32.2411765" height="2.04424779"></rect>
                        <rect id="Rectangle" fill="#AAAAAA" x="0.511764706" y="114.477876" width="27.1235294" height="2.04424779"></rect>
                        <rect id="Rectangle" fill="#AAAAAA" x="51.6882353" y="114.477876" width="43.5" height="2.04424779"></rect>
                        <rect id="Rectangle" fill="#AAAAAA" x="102.864706" y="114.477876" width="43.5" height="2.04424779"></rect>
                        <rect id="Rectangle" fill="#AAAAAA" x="0.511764706" y="118.566372" width="34.2882353" height="2.04424779"></rect>
                        <rect id="Rectangle" fill="#AAAAAA" x="51.6882353" y="118.566372" width="36.8470588" height="2.04424779"></rect>
                        <rect id="Rectangle" fill="#AAAAAA" x="102.864706" y="118.566372" width="19.9588235" height="2.04424779"></rect>
                        <rect id="Rectangle" fill="#AAAAAA" x="51.6882353" y="122.654867" width="23.5411765" height="2.04424779"></rect>
                    </g>
                    <rect id="Rectangle" fill="#A0A0A0" x="96.2117647" y="194.714602" width="68.5764706" height="25.5530973"></rect>
                    <polygon id="Path" fill="#5B5B5B" points="164.788235 204.424779 96.2117647 195.225664 164.788235 195.225664"></polygon>
                    <path d="M244.771523,0 L16.2284768,0 C7.25,0 0,7.24856893 0,16.2252735 L0,83.0465183 L261,117.033186 L261,16.2252735 C261,7.2965727 253.75,0 244.771523,0 Z" id="Path" fill="#FFFFFF" opacity="0.3"></path>
                    <rect id="Rectangle" fill="#6F6F6F" x="67.0411765" y="220.267699" width="125.382353" height="8.17699115"></rect>
                </g>
                <g id="img_thumbs_down" filter="url(#filter-1)" transform="translate(150.500000, 58.000000) rotate(-180.000000) translate(-150.500000, -58.000000) translate(98.000000, 0.000000)">
                    <g id="Group-5" transform="translate(0.000000, -0.000000)">
                        <mask id="mask-3" fill="white">
                            <use xlink:href="#path-2"></use>
                        </mask>
                        <g id="Clip-4"></g>
                        <path d="M61.7660158,0.0212108867 C58.7805073,0.0212108867 56.1581274,1.18116107 54.3824819,3.28741867 C51.3332199,6.90536435 52.05172,11.4544098 52.5270839,14.4645406 C52.6048972,14.9568265 52.7382221,15.8010956 52.7753106,16.2602681 C51.879852,19.3086633 46.2135431,31.9143219 41.5280207,36.8744641 C35.9099511,42.8206499 33.7011209,50.0028239 32.6396121,53.4542215 C32.5724649,53.6715435 32.4599871,54.0372626 32.3666597,54.3301323 C32.2890888,54.4233403 32.1972158,54.5302844 32.0924952,54.6492473 L30.9553548,54.8177577 L4.38709273,58.7521204 L-2.42408934e-05,59.4016336 L0.24868733,63.8810183 L0.362619532,65.9379737 C1.38097948,84.2928546 9.82602209,101.389917 23.5320659,112.845191 L24.4646131,113.625196 L26.4981817,115.325508 L29.0136592,114.521465 L30.168253,114.152312 C37.1857494,111.909186 43.5960114,110.622424 47.7559912,110.622424 C48.103848,110.622424 48.4386147,110.631745 48.750595,110.649896 C53.212374,110.90818 56.2902403,111.22705 58.7635387,111.483617 L58.7834162,111.48558 C61.3010754,111.746317 63.4754836,111.970998 65.7776413,111.970998 L65.7912162,111.970998 L65.8052759,111.970998 L66.1773737,111.96879 L66.1919182,111.96879 L66.2064627,111.968545 C71.0849426,111.910903 79.2504877,111.814016 88.0319939,109.438436 L88.19562,109.394284 L88.5706266,109.293473 L88.9250285,109.133302 L89.0857456,109.060698 C91.1447671,108.132296 94.1756061,106.599023 96.6891444,104.023781 C99.7037419,100.93565 101.232373,97.1693073 101.232373,92.8289989 C101.232373,92.2611654 101.201829,91.7055961 101.140985,91.1630269 C103.614768,88.5085585 104.9805,84.8064803 104.9805,80.5404931 C104.9805,78.4477261 104.9805,75.5842754 103.988562,72.85475 C104.9805,70.2132817 104.9805,67.4516241 104.9805,65.4287632 L104.9805,65.3181399 C104.9805,64.049774 104.9805,61.6884206 104.332783,59.2368025 C103.792938,57.1930924 102.951052,55.6303851 102.002506,54.436831 C102.321031,53.2231635 102.481506,52.0423642 102.481506,50.9037537 C102.481506,46.6277098 100.770099,42.8314424 97.6631435,40.214012 C94.7712048,37.7778468 90.8582398,36.4903487 86.346767,36.4903487 C86.0726025,36.4903487 85.8265574,36.5011412 85.6449931,36.5092356 L85.4193104,36.5183111 L85.2442911,36.5254244 L85.0704839,36.5450471 L84.9883073,36.5543679 C82.6657873,36.81486 80.4654413,37.1987302 78.8589973,37.478845 L78.7806992,37.492581 C78.3230311,37.5720531 77.6016221,37.6973935 77.2489171,37.7503749 L74.1157816,37.7503749 C75.0454199,33.4841424 75.9113046,30.284652 76.5575668,28.7854734 C78.8667544,23.4321402 78.1211045,14.9811097 74.7843454,8.69201631 C72.304502,4.01836634 68.5476483,1.0197639 64.2053769,0.247853722 C63.3569456,0.0974943517 62.5366338,0.0212108867 61.7660158,0.0212108867 M42.0298072,103.998272 C44.2885737,103.998272 48.4858845,103.501816 49.1151781,103.501816 C49.1311771,103.501816 49.144752,103.502307 49.1559028,103.502797 C58.3136277,104.033593 61.8559495,104.812616 65.7778837,104.812616 C65.8925431,104.812616 66.0079298,104.812616 66.1238013,104.810409 C70.8820463,104.754238 78.4236308,104.627917 86.2042305,102.523131 C91.7112768,100.040607 94.1579102,97.0461745 94.1579102,92.8289989 C94.1579102,90.5431931 93.2513008,89.0648637 91.6996412,88.1828208 C95.9720987,87.8911776 97.906287,84.6021583 97.906287,80.5785122 C97.906287,76.8509243 97.9196121,73.4534894 94.075976,72.7379946 C97.9445803,72.1039343 97.906287,69.074426 97.906287,65.3181399 C97.906287,61.1031719 97.3446181,57.4322447 92.7815123,57.4322447 C92.7584834,57.4322447 95.4070435,53.8645824 95.4070435,50.9037537 C95.4070435,46.690748 92.2637268,43.6484849 86.346767,43.6484849 C86.1540519,43.6484849 85.966185,43.661485 85.7749243,43.6683529 C81.9853454,44.0931856 78.3809669,44.9085111 77.5252633,44.9085111 L65.4954773,44.9085111 C65.4954773,44.9085111 67.9200515,30.918467 70.0736125,25.9230039 C72.2288704,20.9265596 69.6261256,8.4791094 62.981939,7.29831005 C62.5274223,7.21761146 62.1240538,7.17959237 61.7660158,7.17959237 C56.8923841,7.17959237 60.5025804,14.2643885 59.750143,17.5634644 C58.9419516,21.1075795 52.4773901,35.6433815 46.6413949,41.8206251 C40.8061269,47.9968877 39.5489941,55.9926703 38.6511114,57.7182464 C37.9328537,59.0989526 33.2444224,64.1464161 29.1457721,66.1982205 C29.1457721,66.1982205 33.5396765,98.1440677 40.6475914,103.822648 C40.8068541,103.949951 41.3234276,103.998272 42.0298072,103.998272 M61.7660158,4.92689995 C62.2573787,4.92689995 62.795769,4.97840969 63.3668844,5.07971217 C66.2549445,5.59309253 68.7258188,7.64465169 70.5128575,11.0124072 C73.1175416,15.9217756 73.8207699,22.8670049 72.1139686,26.8236884 C70.6386678,30.2458971 68.9752576,38.4217185 68.1726416,42.656064 L77.5252633,42.656064 C77.7761566,42.6455168 78.7891835,42.4684214 79.6824605,42.3134016 C81.231696,42.0430981 83.3535014,41.6736997 85.5296065,41.4293964 L85.6117831,41.4203209 L85.8505559,41.4105095 C86.015394,41.4029057 86.1797472,41.3957925 86.346767,41.3957925 C93.2030614,41.3957925 97.6333272,45.128286 97.6333272,50.9037537 C97.6333272,52.6023486 97.0379708,54.356623 96.2675952,55.9161415 C100.132321,57.8507 100.132321,63.0799193 100.132321,65.3181399 L100.132321,65.4285179 C100.132321,67.8183243 100.132321,70.7901908 98.5043025,72.8076554 C100.132321,74.933781 100.132321,78.0420256 100.132321,80.5404931 C100.132321,84.6041206 98.4676988,87.7398371 95.6778143,89.3209406 C96.108575,90.2579273 96.3841939,91.4115 96.3841939,92.8289989 C96.3841939,99.6152839 91.0914372,102.785585 87.1103552,104.580822 L86.949638,104.653427 L86.7797094,104.699049 C78.5858024,106.915685 70.8008393,107.007912 66.149739,107.063101 L65.7776413,107.065309 C63.7174077,107.065309 61.749532,106.861232 59.2578105,106.603438 C56.7331214,106.341719 53.5902895,106.015982 49.0288805,105.752056 C48.625512,105.728754 48.196933,105.716735 47.7559912,105.716735 C41.4097251,105.716735 33.097765,108.070975 28.7079816,109.474492 L27.5531454,109.843646 L26.6196286,109.062905 C13.9520646,98.475447 6.1462544,82.6568073 5.20304122,65.6630098 L5.08886661,63.6060544 L31.6573711,59.6716918 L31.56065,61.8991199 C34.1410931,59.8031643 36.3462872,57.290225 36.6820236,56.6672025 C36.7976527,56.4432578 37.0587271,55.594083 37.2686532,54.911947 C38.2935582,51.580003 40.2010742,45.3777403 45.0325267,40.26405 C50.6285371,34.3404304 56.8596589,20.2189139 57.5808255,17.056952 C57.7379064,16.3686838 57.512951,14.9470152 57.3149028,13.6921399 C56.9013532,11.0739736 56.473259,8.36676912 58.0709763,6.47121087 C58.6648782,5.76675392 59.7877164,4.92689995 61.7660158,4.92689995" id="Fill-3" fill="#FF5254" mask="url(#mask-3)"></path>
                    </g>
                    <path d="M97.6587519,80.9108519 C97.6587519,84.9437629 95.7304045,88.2405564 91.4708644,88.5331349 C93.0178327,89.4170168 93.9217011,90.8990864 93.9217011,93.1898034 C93.9217011,97.4174389 91.4824649,100.418949 85.9923104,102.907341 C78.2349931,105.017102 70.7164517,105.143722 65.9723512,105.200025 C61.9196858,105.247969 58.4530848,104.436863 49.0559956,103.889323 C48.4600225,103.854902 41.2527598,104.755503 40.5731668,104.209684 C33.4867422,98.5176813 29.1061224,66.4965696 29.1061224,66.4965696 C33.1923808,64.4399153 37.8666369,59.3802753 38.582723,57.9965514 C39.477891,56.2668965 40.731223,48.2522143 46.5490901,42.0611071 C52.3671989,35.8692623 58.8122154,21.299102 59.6179633,17.7466097 C60.4232278,14.1970678 56.2161314,6.27507639 62.8399881,7.45743748 C69.4640865,8.64102789 72.0589621,21.1176542 69.9102205,26.1259086 C67.7631706,31.1334254 65.3459269,45.1565377 65.3459269,45.1565377 L77.3393417,45.1565377 C78.1924581,45.1565377 81.7859391,44.339285 85.5640605,43.9134482 C85.7547429,43.9063181 85.9422835,43.8932873 86.1341742,43.8932873 C92.0332445,43.8932873 95.1670577,46.9429873 95.1670577,51.1659513 C95.1670577,54.1337784 92.5265053,57.7098737 92.5494645,57.7098737 C97.0987742,57.7098737 97.6587519,61.3894778 97.6587519,65.6141629 C97.6587519,69.3795736 97.6969224,72.4159969 93.8400146,73.0515559 C97.6720297,73.7689877 97.6587519,77.1744532 97.6587519,80.9108519 L97.6587519,80.9108519 Z M99.8780488,65.6141629 C99.8780488,63.3708976 99.8780488,58.1293181 96.0250076,56.1901869 C96.793054,54.6269821 97.3866103,52.8680694 97.3866103,51.1659513 C97.3866103,45.3765862 92.9697392,41.6355161 86.1341742,41.6355161 C85.9676595,41.6355161 85.8038031,41.6426461 85.6397051,41.6500221 L85.4014125,41.6596108 L85.3194843,41.6694453 C83.1499586,41.9138344 81.0345683,42.2843518 79.4900167,42.5550483 C78.5994406,42.7106804 77.5894764,42.8881943 77.3393417,42.8987665 L68.014997,42.8987665 C68.8151864,38.6544123 70.4735673,30.4590198 71.9444076,27.0289679 C73.6460486,23.0626861 72.9449464,16.1012863 70.3481374,11.1800678 C68.5665017,7.80459778 66.1030979,5.74818934 63.2237697,5.2335955 C62.6543809,5.13205358 62.1176185,5.08042209 61.6277411,5.08042209 C59.655423,5.08042209 58.5359797,5.92226122 57.9438734,6.62838329 C56.3509866,8.52842208 56.7777865,11.2417797 57.1900858,13.8663804 C57.3875351,15.123976 57.6118105,16.5492509 57.4552044,17.2391459 C56.7362182,20.4083359 50.5239358,34.5634773 44.9448446,40.5010985 C40.1279996,45.6266302 38.2262509,51.8433073 37.2044446,55.1833729 C36.9951532,55.8673671 36.7348681,56.7185491 36.6198303,56.9430232 C36.2848673,57.5675183 34.0863404,60.0863974 31.5136991,62.1873072 L31.6101278,59.9546141 L5.12195122,63.8982764 L5.23578063,65.959848 C6.17614208,82.9938137 13.958352,98.8500898 26.5876165,109.462573 L27.5183109,110.245159 L28.6696555,109.875134 C33.0461668,108.468299 41.3332379,106.108248 47.6600748,106.108248 C48.0999252,106.108248 48.5269667,106.120295 48.9291157,106.143898 C53.4769753,106.408448 56.6100633,106.73471 59.1271192,106.997293 C61.6113072,107.25545 63.5732332,107.460009 65.6272378,107.460009 L65.9982105,107.458042 C70.6354902,107.402723 78.3966744,107.310278 86.5658076,105.088403 L86.7352225,105.042426 L86.8954537,104.96965 C90.8644992,103.170416 96.1412537,99.992375 96.1412537,93.1898034 C96.1412537,91.7694457 95.8664681,90.6131463 95.4370098,89.6739449 C98.2184592,88.0888582 99.8780488,84.9459757 99.8780488,80.872743 C99.8780488,78.3681241 99.8780488,75.2525325 98.2549523,73.1211355 C99.8780488,71.0993939 99.8780488,68.1205029 99.8780488,65.7248018 L99.8780488,65.6141629 Z" id="Fill-1" fill="#FFFFFF"></path>
                </g>
            </g>
        </g>
    </g>
</svg>