<?xml version="1.0" encoding="UTF-8"?>
<svg width="271px" height="279px" viewBox="0 0 271 279" version="1.1" xmlns="http://www.w3.org/2000/svg" xmlns:xlink="http://www.w3.org/1999/xlink">
    <!-- Generator: Sketch 63.1 (92452) - https://sketch.com -->
    <title>img_invest_in_instagram_mob</title>
    <desc>Created with Sketch.</desc>
    <defs>
        <filter x="-8.6%" y="-158.5%" width="117.2%" height="416.9%" filterUnits="objectBoundingBox" id="filter-1">
            <feGaussianBlur stdDeviation="2.64107143" in="SourceGraphic"></feGaussianBlur>
        </filter>
        <filter x="-8.7%" y="-79.2%" width="117.4%" height="258.5%" filterUnits="objectBoundingBox" id="filter-2">
            <feGaussianBlur stdDeviation="2.11285714" in="SourceGraphic"></feGaussianBlur>
        </filter>
        <filter x="-8.7%" y="-165.1%" width="117.4%" height="430.1%" filterUnits="objectBoundingBox" id="filter-3">
            <feGaussianBlur stdDeviation="3.30133929" in="SourceGraphic"></feGaussianBlur>
        </filter>
        <linearGradient x1="81.9296881%" y1="3.36130428%" x2="35.0455574%" y2="105.628734%" id="linearGradient-4">
            <stop stop-color="#FACF00" offset="0%"></stop>
            <stop stop-color="#F2A100" offset="100%"></stop>
        </linearGradient>
        <linearGradient x1="50%" y1="0%" x2="50%" y2="100%" id="linearGradient-5">
            <stop stop-color="#FFF400" offset="0%"></stop>
            <stop stop-color="#FFE600" offset="100%"></stop>
        </linearGradient>
        <linearGradient x1="50%" y1="0%" x2="62.7685079%" y2="91.7903857%" id="linearGradient-6">
            <stop stop-color="#FCE141" offset="0%"></stop>
            <stop stop-color="#EFBE23" offset="100%"></stop>
        </linearGradient>
        <path d="M11.1135738,13.3414642 C1.2740112,24.2105889 -2.65675059,36.730204 2.33560379,41.3047114 L2.33560379,41.3047114 C7.32627043,45.8792188 19.1067415,40.5507837 28.9463041,29.6799609 L28.9463041,29.6799609 C38.7858667,18.8108363 42.9562885,6.5119658 37.9673096,1.93915644 L37.9673096,1.93915644 C36.7251281,0.799774679 35.047508,0.261497453 33.07622,0.261497453 L33.07622,0.261497453 C27.1269133,0.261497453 18.504216,5.1739139 11.1135738,13.3414642 L11.1135738,13.3414642 Z" id="path-7"></path>
        <path d="M11.1135738,13.3414642 C1.2740112,24.2105889 -2.65675059,36.730204 2.33560379,41.3047114 L2.33560379,41.3047114 C7.32627043,45.8792188 19.1067415,40.5507837 28.9463041,29.6799609 L28.9463041,29.6799609 C38.7858667,18.8108363 42.9562885,6.5119658 37.9673096,1.93915644 L37.9673096,1.93915644 C36.7251281,0.799774679 35.047508,0.261497453 33.07622,0.261497453 L33.07622,0.261497453 C27.1269133,0.261497453 18.504216,5.1739139 11.1135738,13.3414642 L11.1135738,13.3414642 Z" id="path-9"></path>
        <linearGradient x1="0%" y1="41.3825465%" x2="91.3469267%" y2="61.4891455%" id="linearGradient-11">
            <stop stop-color="#FACF00" offset="0%"></stop>
            <stop stop-color="#F2A100" offset="100%"></stop>
        </linearGradient>
        <linearGradient x1="50%" y1="41.9557129%" x2="64.6055751%" y2="56.7234772%" id="linearGradient-12">
            <stop stop-color="#FDE765" offset="0%"></stop>
            <stop stop-color="#F9CA35" offset="100%"></stop>
        </linearGradient>
        <linearGradient x1="16.8145502%" y1="41.9705811%" x2="64.6055751%" y2="56.7110503%" id="linearGradient-13">
            <stop stop-color="#FCE141" offset="0%"></stop>
            <stop stop-color="#EFBE23" offset="100%"></stop>
        </linearGradient>
        <path d="M0.1750507,2.2634812 C-0.759960904,5.19259229 8.3639971,10.6025331 20.4955195,14.5215988 L20.4955195,14.5215988 C32.6270419,18.4406646 43.175458,19.3847723 44.1104696,16.4573592 L44.1104696,16.4573592 C45.0454812,13.5282481 35.9687801,7.97567233 23.8338822,4.0566066 L23.8338822,4.0566066 C16.6288921,1.72690201 9.96566861,0.499222411 5.54714806,0.499222411 L5.54714806,0.499222411 C2.52608168,0.499222411 0.554793681,1.07315838 0.1750507,2.2634812 L0.1750507,2.2634812 Z" id="path-14"></path>
        <path d="M0.1750507,2.2634812 C-0.759960904,5.19259229 8.3639971,10.6025331 20.4955195,14.5215988 L20.4955195,14.5215988 C32.6270419,18.4406646 43.175458,19.3847723 44.1104696,16.4573592 L44.1104696,16.4573592 C45.0454812,13.5282481 35.9687801,7.97567233 23.8338822,4.0566066 L23.8338822,4.0566066 C16.6288921,1.72690201 9.96566861,0.499222411 5.54714806,0.499222411 L5.54714806,0.499222411 C2.52608168,0.499222411 0.554793681,1.07315838 0.1750507,2.2634812 L0.1750507,2.2634812 Z" id="path-16"></path>
        <linearGradient x1="0%" y1="42.8800661%" x2="91.3469267%" y2="59.4925904%" id="linearGradient-18">
            <stop stop-color="#FACF00" offset="0%"></stop>
            <stop stop-color="#F2A100" offset="100%"></stop>
        </linearGradient>
        <polygon id="path-19" points="0 0.455517955 60.195162 0.455517955 60.195162 21.5273955 0 21.5273955"></polygon>
        <linearGradient x1="50%" y1="43.8730051%" x2="64.6055751%" y2="55.1209896%" id="linearGradient-21">
            <stop stop-color="#FDE765" offset="0%"></stop>
            <stop stop-color="#F9CA35" offset="100%"></stop>
        </linearGradient>
        <linearGradient x1="12.7339944%" y1="50%" x2="113.113027%" y2="51.9299624%" id="linearGradient-22">
            <stop stop-color="#FCE141" offset="0%"></stop>
            <stop stop-color="#EFBE23" offset="100%"></stop>
        </linearGradient>
        <path d="M21.3379425,2.50771749 C8.99038855,5.67115746 -0.408672144,10.6531934 0.345750577,13.6349435 L0.345750577,13.6349435 C1.1001733,16.6166937 11.6857198,16.3229336 24.0332738,13.1594936 L24.0332738,13.1594936 C36.3808278,9.99605365 45.8170189,5.15835077 45.0642839,2.17829862 L45.0642839,2.17829862 C44.7014184,0.745156733 42.060095,0.0336798962 38.0432582,0.0353748994 L38.0432582,0.0353748994 C33.7006862,0.0353748994 27.7513795,0.864019212 21.3379425,2.50771749 L21.3379425,2.50771749 Z" id="path-23"></path>
        <path d="M21.3379425,2.50771749 C8.99038855,5.67115746 -0.408672144,10.6531934 0.345750577,13.6349435 L0.345750577,13.6349435 C1.1001733,16.6166937 11.6857198,16.3229336 24.0332738,13.1594936 L24.0332738,13.1594936 C36.3808278,9.99605365 45.8170189,5.15835077 45.0642839,2.17829862 L45.0642839,2.17829862 C44.7014184,0.745156733 42.060095,0.0336798962 38.0432582,0.0353748994 L38.0432582,0.0353748994 C33.7006862,0.0353748994 27.7513795,0.864019212 21.3379425,2.50771749 L21.3379425,2.50771749 Z" id="path-25"></path>
        <linearGradient x1="19.2593657%" y1="5.89799471%" x2="67.9034713%" y2="99.3948757%" id="linearGradient-27">
            <stop stop-color="#FDE765" offset="0%"></stop>
            <stop stop-color="#F9CA35" offset="100%"></stop>
        </linearGradient>
        <linearGradient x1="50%" y1="0.899101461%" x2="64.6055751%" y2="91.0389098%" id="linearGradient-28">
            <stop stop-color="#FCE141" offset="0%"></stop>
            <stop stop-color="#EFBE23" offset="100%"></stop>
        </linearGradient>
        <path d="M0.247861275,31.5037318 C0.247861275,48.8185989 14.20215,62.0174282 31.4121019,62.0174282 L31.4121019,62.0174282 C48.6237415,62.0174282 62.5763424,48.8185989 62.5763424,31.5037318 L62.5763424,31.5037318 C62.5763424,14.1871667 48.6237415,0.14780994 31.4121019,0.14780994 L31.4121019,0.14780994 C14.20215,0.14780994 0.247861275,14.1871667 0.247861275,31.5037318 L0.247861275,31.5037318 Z" id="path-29"></path>
        <path d="M0.0421936645,31.3811116 C0.0421936645,48.6959787 13.9964824,61.894808 31.2064342,61.894808 L31.2064342,61.894808 C48.4180739,61.894808 62.3706748,48.6959787 62.3706748,31.3811116 L62.3706748,31.3811116 C62.3706748,14.0645465 48.4180739,0.0251897191 31.2064342,0.0251897191 L31.2064342,0.0251897191 C13.9964824,0.0251897191 0.0421936645,14.0645465 0.0421936645,31.3811116 L0.0421936645,31.3811116 Z" id="path-31"></path>
        <linearGradient x1="0%" y1="36.9718467%" x2="91.3469267%" y2="67.369673%" id="linearGradient-33">
            <stop stop-color="#FACF00" offset="0%"></stop>
            <stop stop-color="#F2A100" offset="100%"></stop>
        </linearGradient>
        <linearGradient x1="0%" y1="35.8937998%" x2="91.2186557%" y2="64.1062002%" id="linearGradient-34">
            <stop stop-color="#DB8F00" offset="0%"></stop>
            <stop stop-color="#C98300" offset="100%"></stop>
        </linearGradient>
    </defs>
    <g id="Page-1" stroke="none" stroke-width="1" fill="none" fill-rule="evenodd">
        <g id="FAQs---How-Much-Does-It-Cost-To-Advertise-On-Instagram---Mobile" transform="translate(-53.000000, -1702.000000)">
            <g id="img_invest_in_instagram_mob" transform="translate(57.000000, 1702.000000)">
                <ellipse id="Oval-4-Copy" fill="#000000" opacity="0.1" filter="url(#filter-1)" cx="216" cy="266.5" rx="46" ry="2.5"></ellipse>
                <ellipse id="Oval-4-Copy-3" fill-opacity="0.6" fill="#000000" opacity="0.1" filter="url(#filter-2)" cx="36.5" cy="270" rx="36.5" ry="4"></ellipse>
                <ellipse id="Oval-4-Copy-2" fill="#000000" opacity="0.1" filter="url(#filter-3)" cx="122" cy="255" rx="57" ry="3"></ellipse>
                <g id="Group-17">
                    <g id="Group-5" transform="translate(191.353569, 134.351998)">
                        <path d="M49.1763097,4.13505583 C41.1696399,3.90921712 29.3419119,10.5417434 19.2542506,21.6859498 C9.16827704,32.8301562 3.70841686,45.2971322 4.67887114,53.2965771 L2.99112456,55.1610199 L11.9074897,63.3319663 C18.552148,69.4194233 34.2718197,62.5729445 47.6944682,47.7423032 C61.1171167,32.91336 66.4267675,16.5273183 59.7804215,10.4398613 L50.8640563,2.26891492 L49.1763097,4.13505583 Z" id="Fill-21" fill="url(#linearGradient-4)"></path>
                        <path d="M46.5738045,10.3749964 C51.611728,14.9902566 47.4008003,27.4028955 37.4700994,38.3756003 C27.5393986,49.3466071 15.6492239,54.7242852 10.6096126,50.1073269 C5.57337683,45.4920667 9.53958129,32.8552872 19.4685944,21.8825823 C29.400983,10.9115756 41.5358809,5.75803808 46.5738045,10.3749964" id="Fill-23" fill="#FFC30D"></path>
                        <path d="M38.7777655,39.5723756 C25.3551169,54.4013189 9.6354453,61.2494957 2.99078702,55.1620388 C-3.70450366,49.0270368 1.58489412,32.1723373 14.7830724,17.5896092 C27.9829384,3.00688111 44.1667403,-3.8650682 50.8637187,2.26993374 C57.508377,8.35739069 52.1987263,24.7434324 38.7777655,39.5723756" id="Fill-25" fill="url(#linearGradient-5)"></path>
                        <path d="M16.474532,19.1387269 C5.10249553,31.7024909 0.543892025,46.2257878 6.31260983,51.511772 C12.005379,56.7247407 25.5208536,50.8002952 37.086981,38.0242768 C48.6514205,25.2465603 53.2539054,11.1528664 47.562824,5.93819964 C41.7924184,0.652215401 27.8465684,6.57326488 16.474532,19.1387269" id="Fill-27" fill="#F0A700"></path>
                        <path d="M16.9838939,19.6046678 C5.89202338,31.8593894 1.44481115,46.0244008 7.07175824,51.1779383 C12.6227567,56.2635543 25.807433,50.4868379 37.0866434,38.0232579 C48.3675415,25.5613761 52.8552597,11.8157794 47.3042612,6.73016335 C41.6773141,1.57492784 28.0740767,7.34994628 16.9838939,19.6046678" id="Fill-29" fill="url(#linearGradient-6)"></path>
                        <g id="Group-34" opacity="0.326004464" style="mix-blend-mode: multiply;" transform="translate(6.750986, 7.070619)">
                            <mask id="mask-8" fill="white">
                                <use xlink:href="#path-7"></use>
                            </mask>
                            <g id="Clip-33"></g>
                            <polygon id="Fill-32" fill="#FFDD00" mask="url(#mask-8)" points="9.19612486 47.4176389 4.686466 49.3330228 22.1580186 -6.32857798 26.6676774 -8.24226389"></polygon>
                        </g>
                        <g id="Group-37" opacity="0.326004464" style="mix-blend-mode: multiply;" transform="translate(6.750986, 7.070619)">
                            <mask id="mask-10" fill="white">
                                <use xlink:href="#path-9"></use>
                            </mask>
                            <g id="Clip-36"></g>
                            <polygon id="Fill-35" fill="#FFDD00" mask="url(#mask-10)" points="21.2756647 46.3123876 10.6918059 50.8070873 29.5506862 -9.28468782 40.1379204 -3.22779551"></polygon>
                        </g>
                    </g>
                    <g id="Group-4" transform="translate(158.648178, 8.490177)">
                        <path d="M60.9744021,88.3427099 C57.4773912,84.3081778 47.4167338,78.996723 34.9780415,74.9774732 C22.541037,70.9599214 11.285455,69.3841446 6.10744855,70.6186163 L4.02645701,69.9461943 L0.509193143,80.9647461 C-0.734676086,84.8634354 11.2533879,92.1055564 27.8051186,97.4526699 C44.3551615,102.799783 58.2942605,103.934071 59.5381297,100.033684 L63.0553936,89.015132 L60.9744021,88.3427099 Z" id="Fill-39" fill="url(#linearGradient-11)"></path>
                        <path d="M55.4002815,87.6196865 C54.4568311,90.5759661 43.8122134,89.6233682 31.5659243,85.6669457 C19.3213228,81.7105232 10.1129775,76.2513394 11.0581156,73.2933617 C11.9998782,70.337082 22.6917528,71.148743 34.9380419,75.1034674 C47.1826434,79.05989 56.3454195,84.6634068 55.4002815,87.6196865" id="Fill-41" fill="#FFC30D"></path>
                        <path d="M31.3217073,86.4341181 C14.7699766,81.0870046 2.78191269,73.8448836 4.02578191,69.9461943 C5.27808988,66.0169404 19.5412362,67.0968909 35.8144887,72.3540085 C52.089429,77.6128242 64.310402,85.085878 63.0564063,89.015132 C61.8108493,92.9138213 47.8717503,91.7795336 31.3217073,86.4341181" id="Fill-43" fill="url(#linearGradient-12)"></path>
                        <path d="M35.4983738,73.3465102 C21.4748875,68.8161517 9.18809238,67.8856283 8.10793457,71.2698129 C7.04127873,74.6098486 17.3770388,80.8348464 31.6384974,85.4416164 C45.8982682,90.0483865 57.9032096,91.0417372 58.9698655,87.7017016 C60.051711,84.315819 49.5218601,77.8751706 35.4983738,73.3465102" id="Fill-45" fill="#F0A700"></path>
                        <path d="M35.4026786,73.6450248 C21.7251803,69.2267367 9.74217958,68.3182877 8.68902571,71.6209666 C7.64937382,74.8777985 17.7285964,80.9482751 31.6390037,85.4412768 C45.5477233,89.9359766 57.2556213,90.9038567 58.2952732,87.6470248 C59.348427,84.344346 49.0801768,78.063313 35.4026786,73.6450248" id="Fill-47" fill="url(#linearGradient-13)"></path>
                        <g id="Group-52" opacity="0.401841518" style="mix-blend-mode: multiply;" transform="translate(11.402891, 70.105130)">
                            <mask id="mask-15" fill="white">
                                <use xlink:href="#path-14"></use>
                            </mask>
                            <g id="Clip-51"></g>
                            <polygon id="Fill-50" fill="#FFDD00" mask="url(#mask-15)" points="-0.988313016 6.27254281 -4.39418561 4.19075139 42.7023827 7.76002183 46.1048798 9.84181324"></polygon>
                        </g>
                        <g id="Group-55" opacity="0.401841518" style="mix-blend-mode: multiply;" transform="translate(11.402891, 70.105130)">
                            <mask id="mask-17" fill="white">
                                <use xlink:href="#path-16"></use>
                            </mask>
                            <g id="Clip-54"></g>
                            <polygon id="Fill-53" fill="#FFDD00" mask="url(#mask-17)" points="5.3044501 12.2265342 -2.68702995 7.33789023 48.1563357 11.1924306 56.1478158 16.0793765"></polygon>
                        </g>
                        <path d="M28.3749018,42.7197247 C27.9175225,42.7197247 27.5495937,41.582041 27.5495937,40.1794637 L27.5495937,2.64439098 C27.5495937,1.24181373 27.9175225,0.10413 28.3749018,0.10413 C28.8322811,0.10413 29.2018976,1.24181373 29.2018976,2.64439098 L29.2018976,40.1794637 C29.2018976,41.582041 28.8322811,42.7197247 28.3749018,42.7197247" id="Fill-93" fill="#EFF1F4"></path>
                        <path d="M37.527214,38.5483309 C37.0698346,38.5483309 36.7002181,37.83176 36.7002181,36.9470835 L36.7002181,14.9795994 C36.7002181,14.094923 37.0698346,13.376654 37.527214,13.376654 C37.9845933,13.376654 38.3542098,14.094923 38.3542098,14.9795994 L38.3542098,36.9470835 C38.3542098,37.83176 37.9845933,38.5483309 37.527214,38.5483309" id="Fill-95" fill="#EFF1F4"></path>
                    </g>
                    <g id="Group-14" transform="translate(0.000000, 39.903832)">
                        <path d="M58.0191578,72.2794648 C52.9255386,70.7291584 41.5973836,71.6070427 28.9375965,74.8502904 C16.2778094,78.093538 5.91166994,82.7750216 2.17499902,86.5871111 L0.0568770597,87.1287844 L2.89566681,98.3460063 C3.89987602,102.312617 17.8828564,102.040931 34.728255,97.7245254 C51.5719659,93.4081194 63.9819665,86.9199261 62.9777573,82.9516173 L60.1372798,71.7360934 L58.0191578,72.2794648 Z" id="Fill-97" fill="url(#linearGradient-18)"></path>
                        <path d="M52.9164248,74.6456771 C53.6775985,77.6528978 44.1553323,82.5347496 31.6913238,85.7287542 C19.2290031,88.9227588 8.54387951,89.218217 7.7827058,86.2092982 C7.02153209,83.1986815 16.5066679,78.1707986 28.9706764,74.978492 C41.4329971,71.7844874 52.1535634,71.6367584 52.9164248,74.6456771" id="Fill-99" fill="#FFC30D"></path>
                        <g id="Group-103" transform="translate(0.000000, 68.407095)">
                            <mask id="mask-20" fill="white">
                                <use xlink:href="#path-19"></use>
                            </mask>
                            <g id="Clip-102"></g>
                            <path d="M31.8887902,18.1032649 C15.0433916,22.4179729 1.06041118,22.6896586 0.0562019611,18.7213498 C-0.95475824,14.7224764 11.6982779,8.01693459 28.2618228,3.77354409 C44.8270555,-0.469846398 59.1256445,-0.670214577 60.1382924,3.32865882 C61.1425016,7.29866561 48.7341888,13.7868589 31.8887902,18.1032649" id="Fill-101" fill="url(#linearGradient-21)" mask="url(#mask-20)"></path>
                        </g>
                        <path d="M28.5173476,73.1897815 C14.2440748,76.8456518 3.34291965,82.6240663 4.21548463,86.0693801 C5.07454764,89.468847 17.1183072,89.2175378 31.6329278,85.5005383 C46.1475484,81.7818407 56.8444862,76.2054924 55.9837354,72.8060255 C55.1111705,69.3607117 42.7906204,69.5322133 28.5173476,73.1897815" id="Fill-104" fill="#F0A700"></path>
                        <path d="M28.5939713,73.4932205 C14.6734375,77.0607929 4.04063408,82.6948744 4.89125836,86.0552864 C5.73006841,89.3715496 17.4767846,89.1270325 31.6336029,85.5000289 C45.7887335,81.8747233 56.2223828,76.4342178 55.381885,73.1196527 C54.5312607,69.7592406 42.5145051,69.9256481 28.5939713,73.4932205" id="Fill-106" fill="url(#linearGradient-22)"></path>
                        <g id="Group-111" opacity="0.398549107" style="mix-blend-mode: multiply;" transform="translate(7.389192, 71.511385)">
                            <mask id="mask-24" fill="white">
                                <use xlink:href="#path-23"></use>
                            </mask>
                            <g id="Clip-110"></g>
                            <polygon id="Fill-109" fill="#FFDD00" mask="url(#mask-24)" points="1.47687833 17.6538537 -2.50620359 17.7081909 39.2773385 -4.43928498 43.2604204 -4.49362212"></polygon>
                        </g>
                        <g id="Group-114" opacity="0.398549107" style="mix-blend-mode: multiply;" transform="translate(7.389192, 71.511385)">
                            <mask id="mask-26" fill="white">
                                <use xlink:href="#path-25"></use>
                            </mask>
                            <g id="Clip-113"></g>
                            <polygon id="Fill-112" fill="#FFDD00" mask="url(#mask-26)" points="9.95189778 19.3337202 0.600093986 19.4644689 45.7101845 -4.44556771 55.0619883 -4.57631644"></polygon>
                        </g>
                        <path d="M28.0970987,42.7744015 C27.6397194,42.7744015 27.2701029,41.6367177 27.2701029,40.2341405 L27.2701029,2.69906772 C27.2701029,1.29649047 27.6397194,0.15880674 28.0970987,0.15880674 C28.554478,0.15880674 28.9240945,1.29649047 28.9240945,2.69906772 L28.9240945,40.2341405 C28.9240945,41.6367177 28.554478,42.7744015 28.0970987,42.7744015" id="Fill-116" fill="#EFF1F4"></path>
                        <path d="M37.2495796,38.6021586 C36.7922003,38.6021586 36.4225838,37.8855877 36.4225838,37.0009113 L36.4225838,15.0317291 C36.4225838,14.1487507 36.7922003,13.4321797 37.2495796,13.4321797 C37.706959,13.4321797 38.0765755,14.1487507 38.0765755,15.0317291 L38.0765755,37.0009113 C38.0765755,37.8855877 37.706959,38.6021586 37.2495796,38.6021586" id="Fill-118" fill="#EFF1F4"></path>
                    </g>
                    <g id="Group-8" transform="translate(77.636343, 0.000000)">
                        <path d="M73.6325014,158.000368 C73.6325014,175.478246 59.5482562,188.799334 42.1762807,188.799334 C24.8059929,188.799334 10.7234354,175.478246 10.7234354,158.000368 C10.7234354,140.522489 24.8059929,126.352384 42.1762807,126.352384 C59.5482562,126.352384 73.6325014,140.522489 73.6325014,158.000368" id="Fill-1" fill="#FFC30D"></path>
                        <path d="M42.176787,193.332409 C18.6968566,193.332409 0.305482131,175.275501 0.305482131,152.22467 C0.305482131,128.995546 19.0884138,110.096411 42.176787,110.096411 C65.2651602,110.096411 84.0497796,128.995546 84.0497796,152.22467 C84.0497796,175.275501 65.6567174,193.332409 42.176787,193.332409" id="Fill-3" fill="url(#linearGradient-27)"></path>
                        <path d="M42.176787,115.960746 C22.2833181,115.960746 6.09951614,132.244906 6.09951614,152.259649 C6.09951614,172.002707 21.9457688,187.468414 42.176787,187.468414 C62.4078053,187.468414 78.2557456,172.002707 78.2557456,152.259649 C78.2557456,132.244906 62.0719437,115.960746 42.176787,115.960746" id="Fill-5" fill="#F0A700"></path>
                        <path d="M42.176787,117.726703 C22.7744523,117.726703 6.98895858,133.608429 6.98895858,153.129044 C6.98895858,172.383067 22.4453418,187.468414 42.176787,187.468414 C61.9082323,187.468414 77.3663032,172.383067 77.3663032,153.129044 C77.3663032,133.608429 61.5808094,117.726703 42.176787,117.726703" id="Fill-7" fill="url(#linearGradient-28)"></path>
                        <g id="Group-12" opacity="0.445145089" style="mix-blend-mode: multiply;" transform="translate(10.764685, 120.631791)">
                            <mask id="mask-30" fill="white">
                                <use xlink:href="#path-29"></use>
                            </mask>
                            <g id="Clip-11"></g>
                            <polygon id="Fill-10" fill="#FFDD00" mask="url(#mask-30)" points="0.396382974 55.0072588 -4.83563142 49.741651 57.1941186 -12.6662445 62.4278207 -7.40233471"></polygon>
                        </g>
                        <g id="Group-15" opacity="0.445145089" style="mix-blend-mode: multiply;" transform="translate(10.970353, 120.754411)">
                            <mask id="mask-32" fill="white">
                                <use xlink:href="#path-31"></use>
                            </mask>
                            <g id="Clip-14"></g>
                            <polygon id="Fill-13" fill="#FFDD00" mask="url(#mask-32)" points="10.7276548 75.8961287 -1.55745254 63.536129 65.4123317 -3.84021809 77.6974391 8.51808363"></polygon>
                        </g>
                        <path d="M24.5757843,85.5951188 C23.958069,85.5951188 23.458496,84.0600948 23.458496,82.1650873 L23.458496,3.46963618 C23.458496,1.57462867 23.958069,0.0396046545 24.5757843,0.0396046545 C25.1918118,0.0396046545 25.6930725,1.57462867 25.6930725,3.46963618 L25.6930725,82.1650873 C25.6930725,84.0600948 25.1918118,85.5951188 24.5757843,85.5951188" id="Fill-195" fill="#EFF1F4"></path>
                        <path d="M35.415843,80.8441856 C34.7998155,80.8441856 34.2985548,79.8763054 34.2985548,78.6825865 L34.2985548,53.8725911 C34.2985548,52.6788722 34.7998155,51.710992 35.415843,51.710992 C36.0335582,51.710992 36.5331312,52.6788722 36.5331312,53.8725911 L36.5331312,78.6825865 C36.5331312,79.8763054 36.0335582,80.8441856 35.415843,80.8441856" id="Fill-197" fill="#EFF1F4"></path>
                        <path d="M46.2569144,85.5951188 C45.6391991,85.5951188 45.1396261,84.6272387 45.1396261,83.4335198 L45.1396261,41.2033791 C45.1396261,40.0096602 45.6391991,39.04178 46.2569144,39.04178 C46.8729419,39.04178 47.3742026,40.0096602 47.3742026,41.2033791 L47.3742026,83.4335198 C47.3742026,84.6272387 46.8729419,85.5951188 46.2569144,85.5951188" id="Fill-199" fill="#EFF1F4"></path>
                    </g>
                    <g id="Group-9" transform="translate(16.671798, 183.595025)">
                        <path d="M1.70101108,10.7886378 C3.81913304,14.3392298 10.7169533,19.3450382 19.5691841,23.4288134 C28.4214149,27.5142866 36.6930609,29.5060821 40.7487159,28.8047935 L42.2305574,29.4891018 L46.0144853,21.1857086 C47.4490698,18.040947 39.3445108,11.3184248 27.5674151,5.88471152 C15.7886318,0.44930017 5.43768201,-1.34382522 4.00478516,1.80263439 L0.22085733,10.1060276 L1.70101108,10.7886378 Z" id="Fill-249" fill="url(#linearGradient-33)"></path>
                        <path d="M5.80493566,11.72884 C6.89184446,9.34310024 14.7854352,10.7847323 23.4992708,14.8056802 C32.2147941,18.826628 38.4510177,23.9037539 37.3641089,26.2894936 C36.2772001,28.6735354 28.3296015,27.3473697 19.6157659,23.3281199 C10.9019303,19.307172 4.71633912,14.1128817 5.80493566,11.72884" id="Fill-251" fill="#FFC30D"></path>
                        <path d="M23.7826434,14.1864066 C35.5614268,19.621818 43.6642981,26.3426422 42.2297136,29.4891018 C40.7850025,32.6593339 30.185954,30.889981 18.6046369,25.5462635 C7.02163217,20.2025461 -1.22469761,13.2762597 0.220013457,10.1060276 C1.65459805,6.95956794 12.0038601,8.75269333 23.7826434,14.1864066" id="Fill-253" fill="#F2A500"></path>
                        <path d="M18.9690214,24.7461493 C28.9486669,29.3512213 38.0810637,30.8743591 39.3266207,28.1422201 C40.5553002,25.4474379 33.5663416,19.6707214 23.4179214,14.9875398 C13.2678135,10.3043581 4.35651155,8.74725962 3.12783204,11.4420418 C1.88227506,14.1724828 8.98937591,20.1410772 18.9690214,24.7461493" id="Fill-255" fill="url(#linearGradient-34)"></path>
                    </g>
                </g>
            </g>
        </g>
    </g>
</svg>