<?xml version="1.0" encoding="UTF-8"?>
<svg width="488px" height="491px" viewBox="0 0 488 491" version="1.1" xmlns="http://www.w3.org/2000/svg" xmlns:xlink="http://www.w3.org/1999/xlink">
    <!-- Generator: sketchtool 63.1 (101010) - https://sketch.com -->
    <title>9DBAD99A-39E3-499F-840F-7002CEB1ADA3</title>
    <desc>Created with sketchtool.</desc>
    <defs>
        <polygon id="path-1" points="0.688520179 0.390700166 179.377668 0.390700166 179.377668 41.2113929 0.688520179 41.2113929"></polygon>
        <path d="M8.61389655,0.744692308 C7.41234483,0.763269231 3.86162069,0.823846154 2.55934483,2.71626923 L2.55934483,2.71626923 C1.25627586,4.6095 -1.09924138,16.1207308 1.55924138,19.4581154 L1.55924138,19.4581154 C4.21693103,22.7955 23.2553793,18.4242692 22.3496552,15.0020769 L22.3496552,15.0020769 C21.4463103,11.5895769 12.5921034,0.744692308 8.6472069,0.743884615 L8.6472069,0.743884615 C8.63531034,0.743884615 8.625,0.743884615 8.61389655,0.744692308" id="path-3"></path>
        <polygon id="path-5" points="0.0417708609 0.568408547 17.8093338 0.568408547 17.8093338 417.811411 0.0417708609 417.811411"></polygon>
        <polygon id="path-7" points="0.0417708609 0.568408547 8.10427417 0.568408547 8.10427417 417.811411 0.0417708609 417.811411"></polygon>
        <polygon id="path-9" points="0 0.104464274 78.2347219 0.104464274 78.2347219 63.3239463 0 63.3239463"></polygon>
    </defs>
    <g id="Page-1" stroke="none" stroke-width="1" fill="none" fill-rule="evenodd">
        <g id="FAQs---Why-Isn't-My-Website-Converting" transform="translate(-168.000000, -4683.000000)">
            <g id="img_too_many_choices" transform="translate(168.000000, 4683.000000)">
                <g id="Group-22" transform="translate(87.000000, 175.000000)">
                    <g id="Group-3" transform="translate(0.000000, 273.934553)">
                        <mask id="mask-2" fill="white">
                            <use xlink:href="#path-1"></use>
                        </mask>
                        <g id="Clip-2"></g>
                        <path d="M179.377668,20.8016526 C179.377668,32.0733726 139.376502,41.211797 90.0330942,41.211797 C40.6896861,41.211797 0.688520179,32.0733726 0.688520179,20.8016526 C0.688520179,9.52912453 40.6896861,0.390700166 90.0330942,0.390700166 C139.376502,0.390700166 179.377668,9.52912453 179.377668,20.8016526" id="Fill-1" fill="#DDDDDD" mask="url(#mask-2)"></path>
                    </g>
                    <path d="M131.328646,173.482833 C131.328646,173.482833 111.645686,172.483255 107.530709,178.51628 C105.334386,181.735617 106.56452,185.149698 109.107928,186.492704 C111.003982,193.01865 113.233399,199.793479 117.287031,201.182546 C125.700215,204.064919 132.941381,201.182546 133.076987,197.265039 C133.177883,194.319637 130.699049,192.29947 127.678601,195.694158 C125.455641,198.191892 125.134386,193.53258 125.150529,193.404905 C125.150529,193.404905 134.052861,192.019879 134.696179,185.137577 C133.477345,177.183778 131.328646,173.482833 131.328646,173.482833" id="Fill-4" fill="#FFC88B"></path>
                    <path d="M113.194009,129.601023 C164.756341,144.19632 175.923605,158.147589 135.555982,186.960009 L127.61661,172.881066 C152.802081,160.694615 146.570691,147.058492 114.675982,139.243681 L113.194009,129.601023 Z" id="Fill-6" fill="#427FE0"></path>
                    <path d="M126.389462,186.017319 C116.719507,178.010996 65.7827354,181.474369 53.0810314,186.046409 C52.4611211,200.912409 70.7105381,207.087654 91.7874888,207.345427 C112.864439,207.602392 127.515471,197.823979 126.389462,186.017319" id="Fill-8" fill="#22416D"></path>
                    <path d="M53.0811928,186.046571 C67.2906996,190.06751 115.772045,191.787075 126.389623,186.01748 C126.692314,159.901578 115.635632,137.330664 112.601462,127.00519 C98.7721345,122.543855 68.040565,119.038462 59.9429865,125.215323 C54.7786816,149.775697 54.6818206,162.846981 53.0811928,186.046571" id="Fill-10" fill="#427FE0"></path>
                    <path d="M129.025372,278.90392 C135.551381,278.107974 159.685103,287.489627 159.9773,291.748945 C160.410753,298.084187 125.493175,298.650641 122.539722,289.39828 C121.829408,287.174481 125.724834,279.306337 129.025372,278.90392" id="Fill-12" fill="#2A343E"></path>
                    <path d="M59.8373274,129.028104 C79.9214529,130.980392 101.341453,128.81235 111.794368,125.973612 C153.186296,87.4765147 132.110152,37.9428446 118.925758,27.0533401 C105.740556,16.1638356 46.515713,24.7463102 42.9060269,34.6742155 C39.2963408,44.6021209 51.5105112,109.858341 59.8373274,129.028104" id="Fill-14" fill="#FFC88B"></path>
                    <path d="M54.0952466,34.0866704 C53.7134529,30.2669399 97.8756054,37.7060003 104.767265,13.372693 C111.658924,-10.9606144 73.2180269,5.06092067 50.1941704,18.6420948 C40.2312108,16.6089994 16.7730942,20.9822555 43.9046637,73.5178927 C50.3669058,57.3711074 55.2632287,45.7616156 54.0952466,34.0866704" id="Fill-16" fill="#230C02"></path>
                    <path d="M117.448628,52.2373799 C117.774726,55.4979283 119.41652,58.0029346 121.115623,57.8324325 C122.814726,57.6619305 123.927821,54.8805655 123.602529,51.6200171 C123.275623,48.3602767 121.63383,45.8552705 119.934726,46.0257725 C118.235623,46.1954665 117.122529,48.9768315 117.448628,52.2373799" id="Fill-18" fill="#2A0000"></path>
                    <path d="M75.1953632,56.9764477 C75.512583,60.150533 77.1107892,62.5884697 78.7646906,62.4228161 C80.4185919,62.2571624 81.5026278,59.5501396 81.1846009,56.3760542 C80.8673812,53.202777 79.2691749,50.7640322 77.6152735,50.9296858 C75.9613722,51.0953395 74.8773363,53.8031704 75.1953632,56.9764477" id="Fill-20" fill="#2A0000"></path>
                </g>
                <g id="Group-25" transform="translate(187.000000, 229.000000)">
                    <mask id="mask-4" fill="white">
                        <use xlink:href="#path-3"></use>
                    </mask>
                    <g id="Clip-24"></g>
                    <path d="M8.61389655,0.744692308 C7.41234483,0.763269231 3.86162069,0.823846154 2.55934483,2.71626923 L2.55934483,2.71626923 C1.25627586,4.6095 -1.09924138,16.1207308 1.55924138,19.4581154 L1.55924138,19.4581154 C4.21693103,22.7955 23.2553793,18.4242692 22.3496552,15.0020769 L22.3496552,15.0020769 C21.4463103,11.5895769 12.5921034,0.744692308 8.6472069,0.743884615 L8.6472069,0.743884615 C8.63531034,0.743884615 8.625,0.743884615 8.61389655,0.744692308" id="Fill-23" mask="url(#mask-4)"></path>
                </g>
                <g id="Group-101">
                    <path d="M124.212401,222.840245 C128.035607,225.100943 132.041408,226.831233 136.219302,228.332705 C136.958574,228.598717 137.701885,228.86392 138.44762,229.127507 C136.591766,234.870616 134.050772,241.099662 131.205183,248.207599 C125.294242,236.76585 121.783713,227.609055 120.008653,220.303025 C121.393474,221.164936 122.797686,222.003399 124.212401,222.840245" id="Fill-26" fill="#2D1906"></path>
                    <path d="M137.115477,245.997517 C137.115477,245.997517 128.965715,234.725563 120.286748,243.900954 C110.248815,254.515559 124.899318,280.522474 139.474682,269.619217 C138.260338,260.197219 137.115477,245.997517 137.115477,245.997517" id="Fill-28" fill="#FFC88B"></path>
                    <path d="M134.719995,250.760748 C134.719995,250.760748 126.798882,243.719921 124.282127,251.718876 C121.31373,261.149768 129.107187,267.994927 136.350432,264.219013 C135.67014,258.947286 134.719995,250.760748 134.719995,250.760748" id="Fill-30" fill="#FF9A7C"></path>
                    <path d="M192.302783,179.500508 C193.171326,181.489534 193.187485,184.278213 192.125842,188.026637 C188.667829,200.229228 176.186664,207.906382 144.139445,207.578112 C181.191895,200.323828 188.224266,191.289124 192.302783,179.500508" id="Fill-32" fill="#2D1906"></path>
                    <path d="M215.574646,176.661457 C209.658858,167.554792 191.399256,167.616242 188.085057,189.266705 C186.404527,200.245156 175.916567,206.03031 182.800275,209.245902 C193.365799,214.181273 227.747984,195.401151 215.574646,176.661457" id="Fill-34" fill="#230C02"></path>
                    <path d="M216.33646,192.005739 C210.234036,204.11373 190.382777,212.787823 182.800195,209.246387 C179.229069,207.578354 180.335956,205.21578 182.460049,201.798052 C181.484857,207.415836 201.083228,207.676189 216.33646,192.005739" id="Fill-36" fill="#2D1906"></path>
                    <path d="M197.868891,243.979302 L198.271249,243.938875 C201.926401,243.560475 205.355328,242.58941 208.565302,241.048319 C209.020984,241.830993 209.342547,242.510172 209.479898,243.020366 C210.402574,246.446988 191.007805,250.822036 188.299567,247.481928 C187.524746,246.525417 187.169249,244.897003 187.086838,243.017131 C190.540004,244.174162 194.133752,244.496772 197.868891,243.979302" id="Fill-38" fill="#E0736A"></path>
                    <path d="M211.871421,215.275156 C203.602891,213.839985 199.980865,209.219947 196.834719,208.796269 C196.162507,208.705711 195.70117,209.447149 196.05505,209.965428 C199.213315,214.591125 206.755501,216.390951 211.867381,215.910674 C212.713302,215.831436 212.710878,215.420694 211.871421,215.275156" id="Fill-40" fill="#230C02"></path>
                    <path d="M195.719995,268.416585 C198.979253,267.195679 198.447624,280.873868 190.129001,283.959284 C181.810379,287.044699 189.559399,270.724986 195.719995,268.416585" id="Fill-42" fill="#D83536"></path>
                    <path d="M168.643509,208.256386 C161.64184,208.301681 154.727429,213.235434 153.573681,221.887696 C153.445217,222.849058 153.945336,223.344698 154.307297,222.355036 C155.542648,218.976118 157.652197,216.303062 160.660184,214.320504 C163.437098,212.489954 166.831283,211.784901 169.495085,209.833877 C170.109125,209.384325 169.383588,208.251551 168.643509,208.256386" id="Fill-44" fill="#230C02"></path>
                    <path d="M205.936162,371.816649 C210.20293,386.799025 220.550307,427.941131 227.307976,455.630631 C221.553777,457.590549 211.72187,458.789625 211.72187,458.789625 C210.062347,459.223814 197.152162,395.186083 193.451764,376.475496 C198.653327,372.571023 205.936162,371.816649 205.936162,371.816649" id="Fill-46" fill="#22416D"></path>
                    <path d="M152.717742,454.976921 C146.18549,454.180502 122.027874,463.567733 121.736205,467.829584 C121.30153,474.168593 156.253318,474.735384 159.209596,465.47833 C159.920589,463.2524 156.020629,455.379578 152.717742,454.976921" id="Fill-48" fill="#2A343E"></path>
                    <path d="M147.466086,372.282452 C145.902709,399.175535 144.91055,437.2961 143.287384,457.96337 C148.462285,460.553146 159.049623,462.497702 159.049623,462.497702 C161.058179,445.442211 160.982232,393.848827 160.352841,376.448087 C155.15047,372.544422 147.466086,372.282452 147.466086,372.282452" id="Fill-50" fill="#22416D"></path>
                    <path d="M201.361404,299.59537 C190.579351,302.496437 166.695629,303.372093 144.126437,299.572731 L142.892702,304.969782 L173.656093,314.137088 L183.569603,305.272179 L191.796119,314.348119 L202.973258,303.58555 L201.361404,299.59537 Z" id="Fill-52" fill="#FFFFEF"></path>
                    <path d="M189.943658,306.465675 C188.193645,303.55814 176.637579,303.938965 176.637579,307.09715 C176.637579,310.255335 180.363023,314.674853 184.088466,314.044186 C187.814718,313.412711 191.274347,308.675434 189.943658,306.465675" id="Fill-54" fill="#FF5254"></path>
                    <path d="M183.626482,315.678664 C186.787171,315.678664 192.303833,343.862187 191.373886,347.558864 C190.443939,351.254732 185.559091,355.875578 183.006787,355.875578 C180.453674,355.875578 176.188522,350.330563 175.879078,345.710525 C175.568826,341.090488 180.837449,315.678664 183.626482,315.678664" id="Fill-56" fill="#FF5254"></path>
                    <path d="M147.259009,307.696607 C108.332122,296.958294 88.9535126,279.69339 103.966784,240.153824 L88.9535126,227.105492 C63.2713007,282.065667 91.3240291,311.324557 145.058162,316.860679 L147.259009,307.696607 Z" id="Fill-58" fill="#427FE0"></path>
                    <path d="M89.8576861,235.947196 C84.4993815,228.919306 91.9809709,216.5356 94.8734212,210.415708 C98.5851298,202.558248 103.564507,198.416061 111.253739,199.553687 C121.179368,201.022817 123.994256,206.479701 122.141633,210.667974 C120.45464,214.480273 117.090348,213.921567 113.244521,210.950157 C109.399501,207.978747 105.201408,209.306381 104.18905,212.209873 C109.532812,212.218767 116.813223,216.176605 117.595315,225.337443 C118.071196,230.910757 111.63913,239.647916 109.137726,236.666803 C108.355633,240.682856 99.192706,248.191024 89.8576861,235.947196" id="Fill-60" fill="#FFC88B"></path>
                    <path d="M107.263208,230.12113 C109.205513,231.118069 109.781579,233.436173 109.579592,235.460775 C109.55293,235.725978 109.162691,235.772874 109.106135,235.497159 C108.73044,233.651246 107.680917,232.116624 106.903672,230.440506 C106.792175,230.201985 107.050718,230.011976 107.263208,230.12113" id="Fill-62" fill="#DD8B66"></path>
                    <path d="M113.824223,221.326564 C116.647189,224.101498 117.794474,227.72298 116.718289,231.560344 C116.630223,231.872443 116.165653,231.770566 116.173732,231.460892 C116.298964,226.300745 112.188938,218.319578 105.881295,220.065231 C105.612249,220.139617 105.459547,219.771728 105.648607,219.599508 C108.328567,217.163356 111.663772,219.20332 113.824223,221.326564" id="Fill-64" fill="#DD8B66"></path>
                    <g id="Group-68" transform="translate(350.649007, 0.000000)">
                        <mask id="mask-6" fill="white">
                            <use xlink:href="#path-5"></use>
                        </mask>
                        <g id="Clip-67"></g>
                        <polygon id="Fill-66" fill="#427FE0" mask="url(#mask-6)" points="3.08773113 417.811411 15.2707642 417.811411 17.8093338 0.568004274 0.0417708609 0.568004274"></polygon>
                    </g>
                    <g id="Group-71" transform="translate(350.649007, 0.000000)">
                        <mask id="mask-8" fill="white">
                            <use xlink:href="#path-7"></use>
                        </mask>
                        <g id="Clip-70"></g>
                        <polygon id="Fill-69" fill="#22416D" mask="url(#mask-8)" points="3.08773113 417.811411 8.10427417 417.811411 8.10427417 0.568004274 0.0417708609 0.568004274"></polygon>
                    </g>
                    <polygon id="Fill-72" fill="#DBDBDB" points="220.82 143.90075 229.124079 148.48602 381.973921 87.7770761 374.41396 84.421606 256.392291 97.656712"></polygon>
                    <polygon id="Fill-74" fill="#F4F4F4" points="229.123999 148.486262 273.618449 168.214809 385.663734 132.080843 381.97384 87.7773186 266.239469 102.682074"></polygon>
                    <polygon id="Fill-76" fill="#DBDBDB" points="425.219608 141.480202 413.313701 140.199464 317.355449 174.168141 316.389144 220.518907 328.602879 226.300826"></polygon>
                    <polygon id="Fill-78" fill="#F4F4F4" points="452.614021 164.911086 425.21977 141.480202 326.170313 178.299816 328.603041 226.300826 432.195584 201.517243"></polygon>
                    <polygon id="Fill-80" fill="#DBDBDB" points="272.872229 239.276874 284.810454 234.314012 388.139607 235.763737 389.469487 278.379016 385.414401 282.285106"></polygon>
                    <polygon id="Fill-82" fill="#F4F4F4" points="245.497126 275.507138 272.871987 239.276955 380.000106 239.51305 385.414967 282.285187 281.854742 297.337907"></polygon>
                    <polygon id="Fill-84" fill="#DBDBDB" points="487.636666 80.258074 480.694785 84.3808552 327.722136 13.7769133 332.814626 12.6182655 455.65166 29.2015646"></polygon>
                    <polygon id="Fill-86" fill="#F4F4F4" points="480.694947 84.3809361 433.936629 100.146794 324.676338 56.3906557 327.722298 13.7769942 449.123609 34.0230113"></polygon>
                    <path d="M155.213813,95.9031352 C155.213813,73.6729438 135.811774,55.652048 111.878767,55.652048 C87.9457603,55.652048 68.5445285,73.6729438 68.5445285,95.9031352 C68.5445285,117.687817 87.1790185,135.418445 110.448701,136.121072 L123.60127,155.299807 L124.742899,134.350354 C142.394926,129.260551 155.213813,113.972544 155.213813,95.9031352" id="Fill-88" fill="#F4F4F4"></path>
                    <path d="M98.2373086,89.4627349 L102.428938,89.4627349 C104.154713,89.4627349 105.671229,88.2628511 106.008951,86.5697537 C106.542196,83.9023571 108.086183,80.3544528 112.529083,80.3544528 C117.120646,80.3544528 120.160951,82.5925109 119.521057,87.2966374 C118.95711,91.4428665 106.484832,94.5096853 103.925256,106.350856 C103.433216,108.63015 105.178381,110.783311 107.509309,110.783311 L112.621997,110.783311 C114.400289,110.783311 115.946699,109.508232 116.228673,107.750451 C117.956064,96.9620084 128.924752,96.9927332 130.324925,89.1085913 C132.325401,77.8431058 126.187428,72.8462853 113.91956,72.0207588 C99.1284742,71.026246 95.4676662,79.7820015 94.6144742,85.2550562 C94.2686728,87.4696665 95.9984874,89.4627349 98.2373086,89.4627349" id="Fill-90" fill="#FF5254"></path>
                    <path d="M111.836754,122.472232 L107.355072,122.472232 C104.969204,122.472232 103.034979,120.536571 103.034979,118.148932 C103.034979,115.762101 104.969204,113.826439 107.355072,113.826439 L111.836754,113.826439 C114.222621,113.826439 116.156846,115.762101 116.156846,118.148932 C116.156846,120.536571 114.222621,122.472232 111.836754,122.472232" id="Fill-92" fill="#FF5254"></path>
                    <g id="Group-96" transform="translate(0.000000, 160.900855)">
                        <mask id="mask-10" fill="white">
                            <use xlink:href="#path-9"></use>
                        </mask>
                        <g id="Clip-95"></g>
                        <path d="M78.2347219,49.4258318 L66.0985497,42.3057668 C67.3662185,38.9947668 68.0626689,35.4306916 68.0626689,31.7146096 C68.0626689,14.2572711 52.826404,0.104464274 34.0311325,0.104464274 C15.2358609,0.104464274 -0.00040397351,14.2572711 -0.00040397351,31.7146096 C-0.00040397351,49.171948 15.2358609,63.3239463 34.0311325,63.3239463 C45.4110662,63.3239463 55.4780861,58.1314574 61.6572649,50.1632267 L78.2347219,49.4258318 Z" id="Fill-94" fill="#F4F4F4" mask="url(#mask-10)"></path>
                    </g>
                    <path d="M25.0128278,186.951107 L28.0620199,186.951107 C29.3175695,186.951107 30.4204172,186.077877 30.6668411,184.845651 C31.0546556,182.905947 32.177702,180.325065 35.410298,180.325065 C38.750351,180.325065 40.9625099,181.95267 40.4971325,185.375249 C40.0858874,188.39113 31.0126424,190.622719 29.1511325,199.236979 C28.792404,200.895309 30.0624967,202.461465 31.7583775,202.461465 L35.4773576,202.461465 C36.7716887,202.461465 37.896351,201.533253 38.1015695,200.25494 C39.3579272,192.406374 47.3380199,192.429013 48.3568411,186.693181 C49.8119536,178.497748 45.3464305,174.862521 36.4210397,174.262579 C25.6616093,173.53893 22.9978079,179.908663 22.3773046,183.889948 C22.1260331,185.501383 23.3840066,186.951107 25.0128278,186.951107" id="Fill-97" fill="#FF5254"></path>
                    <path d="M34.9062199,210.964711 L31.6461536,210.964711 C29.9106834,210.964711 28.5032397,209.557031 28.5032397,207.819463 C28.5032397,206.082704 29.9106834,204.675024 31.6461536,204.675024 L34.9062199,204.675024 C36.6416901,204.675024 38.0491338,206.082704 38.0491338,207.819463 C38.0491338,209.557031 36.6416901,210.964711 34.9062199,210.964711" id="Fill-99" fill="#FF5254"></path>
                </g>
            </g>
        </g>
    </g>
</svg>