<?xml version="1.0" encoding="UTF-8"?>
<svg width="334px" height="263px" viewBox="0 0 334 263" version="1.1" xmlns="http://www.w3.org/2000/svg" xmlns:xlink="http://www.w3.org/1999/xlink">
    <!-- Generator: Sketch 63.1 (92452) - https://sketch.com -->
    <title>img_reviews_mob</title>
    <desc>Created with Sketch.</desc>
    <defs>
        <filter x="-12.9%" y="-19.8%" width="125.8%" height="139.6%" filterUnits="objectBoundingBox" id="filter-1">
            <feOffset dx="0" dy="5" in="SourceAlpha" result="shadowOffsetOuter1"></feOffset>
            <feGaussianBlur stdDeviation="5" in="shadowOffsetOuter1" result="shadowBlurOuter1"></feGaussianBlur>
            <feColorMatrix values="0 0 0 0 0   0 0 0 0 0   0 0 0 0 0  0 0 0 0.25 0" type="matrix" in="shadowBlurOuter1" result="shadowMatrixOuter1"></feColorMatrix>
            <feMerge>
                <feMergeNode in="shadowMatrixOuter1"></feMergeNode>
                <feMergeNode in="SourceGraphic"></feMergeNode>
            </feMerge>
        </filter>
        <filter x="-12.9%" y="-19.8%" width="125.8%" height="139.6%" filterUnits="objectBoundingBox" id="filter-2">
            <feOffset dx="0" dy="5" in="SourceAlpha" result="shadowOffsetOuter1"></feOffset>
            <feGaussianBlur stdDeviation="5" in="shadowOffsetOuter1" result="shadowBlurOuter1"></feGaussianBlur>
            <feColorMatrix values="0 0 0 0 0   0 0 0 0 0   0 0 0 0 0  0 0 0 0.25 0" type="matrix" in="shadowBlurOuter1" result="shadowMatrixOuter1"></feColorMatrix>
            <feMerge>
                <feMergeNode in="shadowMatrixOuter1"></feMergeNode>
                <feMergeNode in="SourceGraphic"></feMergeNode>
            </feMerge>
        </filter>
    </defs>
    <g id="Page-1" stroke="none" stroke-width="1" fill="none" fill-rule="evenodd">
        <g id="FAQs---How-To-Pick-The-Best-SEO-Agency---Mobile" transform="translate(-21.000000, -4426.000000)">
            <g id="img_reviews_mob" transform="translate(31.000000, 4431.000000)">
                <g id="Group-5" filter="url(#filter-1)">
                    <path d="M13,0 L215.362117,0 C222.541819,-1.40726021e-14 228.362117,5.82029825 228.362117,13 L228.362117,136 C228.362117,143.179702 222.541819,149 215.362117,149 L13,149 C5.82029825,149 2.65561672e-15,143.179702 0,136 L0,13 C8.97096963e-16,5.82029825 5.82029825,1.31888981e-15 13,0 Z" id="Rectangle" fill="#FFFFFF"></path>
                    <g id="Group-4" transform="translate(19.136490, 58.017699)">
                        <path d="M27.1100279,56.039823 C12.1611067,56.039823 0,43.4693902 0,28.0199115 C0,12.5704328 12.1611067,0 27.1100279,0 C42.0578195,0 54.2200557,12.5704328 54.2200557,28.0199115 C54.2200557,43.4693902 42.0578195,56.039823 27.1100279,56.039823" id="Fill-8" fill="#FFDA00"></path>
                        <path d="M23.9413233,21.8336973 L22.8459686,21.8336973 C22.8459686,19.3365692 21.1262618,17.3052267 19.0122273,17.3052267 C16.8981928,17.3052267 15.178486,19.3365692 15.178486,21.8336973 L14.0831314,21.8336973 C14.0831314,18.6236586 16.2946524,16.011378 19.0122273,16.011378 C21.7298022,16.011378 23.9413233,18.6236586 23.9413233,21.8336973" id="Fill-10" fill="#34495E"></path>
                        <path d="M40.1369244,21.8336973 L39.0415697,21.8336973 C39.0415697,19.3365692 37.3218629,17.3052267 35.2078284,17.3052267 C33.0937939,17.3052267 31.3740871,19.3365692 31.3740871,21.8336973 L30.2787324,21.8336973 C30.2787324,18.6236586 32.4902535,16.011378 35.2078284,16.011378 C37.9254033,16.011378 40.1369244,18.6236586 40.1369244,21.8336973" id="Fill-12" fill="#34495E"></path>
                        <path d="M27.1094573,43.6673946 C33.5266351,43.6673946 38.7286112,38.4534968 38.7286112,32.022756 L15.4914445,32.022756 C15.4914445,38.4534968 20.6922795,43.6673946 27.1094573,43.6673946" id="Fill-14" fill="#34495E"></path>
                    </g>
                    <path d="M13,0 L216,0 C223.179702,-3.09524665e-15 229,5.82029825 229,13 L229,27.6902655 L229,27.6902655 L0,27.6902655 L0,13 C-8.79259876e-16,5.82029825 5.82029825,-4.57467025e-16 13,0 Z" id="Rectangle-2" fill="#FF5254"></path>
                    <polygon id="Fill-5" fill="#E9ECED" points="0 42.1946903 228.362117 42.1946903 228.362117 27.6902655 0 27.6902655"></polygon>
                    <path d="M40.8245125,15.1643232 C40.8245125,17.3486893 39.1112349,19.119469 36.9978012,19.119469 C34.8843676,19.119469 33.1699164,17.3486893 33.1699164,15.1643232 C33.1699164,12.9799572 34.8843676,11.2079646 36.9978012,11.2079646 C39.1112349,11.2079646 40.8245125,12.9799572 40.8245125,15.1643232" id="Fill-6" fill="#FFFFFF"></path>
                    <path d="M29.9805014,15.1643232 C29.9805014,17.3486893 28.2660502,19.119469 26.1526166,19.119469 C24.039183,19.119469 22.3259053,17.3486893 22.3259053,15.1643232 C22.3259053,12.9799572 24.039183,11.2079646 26.1526166,11.2079646 C28.2660502,11.2079646 29.9805014,12.9799572 29.9805014,15.1643232" id="Fill-7" fill="#FFFFFF"></path>
                    <path d="M19.7743733,15.1643232 C19.7743733,17.3486893 18.0610956,19.119469 15.9464885,19.119469 C13.8330548,19.119469 12.1197772,17.3486893 12.1197772,15.1643232 C12.1197772,12.9799572 13.8330548,11.2079646 15.9464885,11.2079646 C18.0610956,11.2079646 19.7743733,12.9799572 19.7743733,15.1643232" id="Fill-8" fill="#FFFFFF"></path>
                    <path d="M49.8191017,12.5265487 L193.214324,12.5265487 C194.306675,12.5265487 195.192201,13.412074 195.192201,14.5044248 C195.192201,15.5967756 194.306675,16.4823009 193.214324,16.4823009 L49.8191017,16.4823009 C48.7267509,16.4823009 47.8412256,15.5967756 47.8412256,14.5044248 C47.8412256,13.412074 48.7267509,12.5265487 49.8191017,12.5265487 Z" id="Rectangle-3" fill="#FFFFFF"></path>
                    <polygon id="Fill-10" fill="#FFFFFF" points="208.905487 9.88938053 209.733732 12.407625 212.415042 12.407625 210.245542 13.9640564 211.074986 16.4823009 208.905487 14.9258695 206.737186 16.4823009 207.565431 13.9640564 205.398329 12.407625 208.07844 12.407625"></polygon>
                    <g id="Group-6" transform="translate(88.027855, 54.721239)" fill="#FFDA00">
                        <polygon id="Fill-11" points="113.8459 0 116.335074 8.05805648 124.387187 8.05805648 117.871371 13.0392887 120.360546 21.0973451 113.8459 16.1173432 107.331253 21.0973451 109.820428 13.0392887 103.304613 8.05805648 111.356725 8.05805648"></polygon>
                        <polygon id="Fill-12" points="87.8440584 0 90.3332332 8.05805648 98.3853454 8.05805648 91.8695299 13.0392887 94.3587047 21.0973451 87.8440584 16.1173432 81.329412 21.0973451 83.8185868 13.0392887 77.3027714 8.05805648 85.3548836 8.05805648"></polygon>
                        <polygon id="Fill-13" points="61.8422171 0 64.3313919 8.05805648 72.3835041 8.05805648 65.8676886 13.0392887 68.3568634 21.0973451 61.8422171 16.1173432 55.3275708 21.0973451 57.8155764 13.0392887 51.3009301 8.05805648 59.3542115 8.05805648"></polygon>
                        <polygon id="Fill-14" points="35.8403758 0 38.3283814 8.05805648 46.3816628 8.05805648 39.8670165 13.0392887 42.3550221 21.0973451 35.8403758 16.1173432 29.3257295 21.0973451 31.8137351 13.0392887 25.2990888 8.05805648 33.3523702 8.05805648"></polygon>
                        <polygon id="Fill-15" points="10.541287 0 13.0292926 8.05805648 21.082574 8.05805648 14.5679277 13.0392887 17.0559333 21.0973451 10.541287 16.1173432 4.02664069 21.0973451 6.51464632 13.0392887 0 8.05805648 8.05328137 8.05805648"></polygon>
                    </g>
                    <g id="Group-7" transform="translate(89.941504, 85.048673)" fill="#DADFE1">
                        <polygon id="Fill-16" points="0 29.0088496 65.2554318 29.0088496 65.2554318 23.9323009 0 23.9323009"></polygon>
                        <polygon id="Fill-17" points="0 16.6800885 92.6206128 16.6800885 92.6206128 11.6035398 0 11.6035398"></polygon>
                        <polygon id="Fill-18" points="0 5.07654867 119.284123 5.07654867 119.284123 0 0 0"></polygon>
                    </g>
                </g>
                <g id="Group-5-Copy" filter="url(#filter-2)" transform="translate(85.000000, 94.000000)">
                    <path d="M13,0 L215.362117,0 C222.541819,-1.40726021e-14 228.362117,5.82029825 228.362117,13 L228.362117,135.677144 C228.362117,142.856845 222.541819,148.677144 215.362117,148.677144 L13,148.677144 C5.82029825,148.677144 2.65561672e-15,142.856845 0,135.677144 L0,13 C8.97096963e-16,5.82029825 5.82029825,1.0200674e-14 13,0 Z" id="Rectangle" fill="#FFFFFF"></path>
                    <g id="Group-4" transform="translate(19.136490, 57.891985)">
                        <path d="M27.1100279,55.9183947 C12.1611067,55.9183947 0,43.3751998 0,27.9591973 C0,12.5431949 12.1611067,0 27.1100279,0 C42.0578195,0 54.2200557,12.5431949 54.2200557,27.9591973 C54.2200557,43.3751998 42.0578195,55.9183947 27.1100279,55.9183947" id="Fill-8" fill="#FFDA00"></path>
                        <path d="M23.9413233,21.7863875 L22.8459686,21.7863875 C22.8459686,19.2946703 21.1262618,17.2677294 19.0122273,17.2677294 C16.8981928,17.2677294 15.178486,19.2946703 15.178486,21.7863875 L14.0831314,21.7863875 C14.0831314,18.5833044 16.2946524,15.9766842 19.0122273,15.9766842 C21.7298022,15.9766842 23.9413233,18.5833044 23.9413233,21.7863875" id="Fill-10" fill="#34495E"></path>
                        <path d="M40.1369244,21.7863875 L39.0415697,21.7863875 C39.0415697,19.2946703 37.3218629,17.2677294 35.2078284,17.2677294 C33.0937939,17.2677294 31.3740871,19.2946703 31.3740871,21.7863875 L30.2787324,21.7863875 C30.2787324,18.5833044 32.4902535,15.9766842 35.2078284,15.9766842 C37.9254033,15.9766842 40.1369244,18.5833044 40.1369244,21.7863875" id="Fill-12" fill="#34495E"></path>
                        <path d="M27.1094573,43.5727751 C33.5266351,43.5727751 38.7286112,38.3701749 38.7286112,31.9533684 L15.4914445,31.9533684 C15.4914445,38.3701749 20.6922795,43.5727751 27.1094573,43.5727751" id="Fill-14" fill="#34495E"></path>
                    </g>
                    <path d="M13,0 L216,0 C223.179702,-1.22962453e-14 229,5.82029825 229,13 L229,27.6302656 L229,27.6302656 L0,27.6302656 L0,13 C8.97096963e-16,5.82029825 5.82029825,-4.57467025e-16 13,0 Z" id="Rectangle-2" fill="#FF5254"></path>
                    <polygon id="Fill-5" fill="#E9ECED" points="0 42.1032619 228.362117 42.1032619 228.362117 27.6302656 0 27.6302656"></polygon>
                    <path d="M40.8245125,15.1314649 C40.8245125,17.3110977 39.1112349,19.0780405 36.9978012,19.0780405 C34.8843676,19.0780405 33.1699164,17.3110977 33.1699164,15.1314649 C33.1699164,12.951832 34.8843676,11.1836789 36.9978012,11.1836789 C39.1112349,11.1836789 40.8245125,12.951832 40.8245125,15.1314649" id="Fill-6" fill="#FFFFFF"></path>
                    <path d="M29.9805014,15.1314649 C29.9805014,17.3110977 28.2660502,19.0780405 26.1526166,19.0780405 C24.039183,19.0780405 22.3259053,17.3110977 22.3259053,15.1314649 C22.3259053,12.951832 24.039183,11.1836789 26.1526166,11.1836789 C28.2660502,11.1836789 29.9805014,12.951832 29.9805014,15.1314649" id="Fill-7" fill="#FFFFFF"></path>
                    <path d="M19.7743733,15.1314649 C19.7743733,17.3110977 18.0610956,19.0780405 15.9464885,19.0780405 C13.8330548,19.0780405 12.1197772,17.3110977 12.1197772,15.1314649 C12.1197772,12.951832 13.8330548,11.1836789 15.9464885,11.1836789 C18.0610956,11.1836789 19.7743733,12.951832 19.7743733,15.1314649" id="Fill-8" fill="#FFFFFF"></path>
                    <path d="M49.814816,12.4994059 L193.21861,12.4994059 C194.308594,12.4994059 195.192201,13.3830124 195.192201,14.4729963 C195.192201,15.5629802 194.308594,16.4465867 193.21861,16.4465867 L49.814816,16.4465867 C48.7248321,16.4465867 47.8412256,15.5629802 47.8412256,14.4729963 C47.8412256,13.3830124 48.7248321,12.4994059 49.814816,12.4994059 Z" id="Rectangle-3" fill="#FFFFFF"></path>
                    <polygon id="Fill-10" fill="#FFFFFF" points="208.905487 9.867952 209.733732 12.3807399 212.415042 12.3807399 210.245542 13.9337988 211.074986 16.4465867 208.905487 14.8935278 206.737186 16.4465867 207.565431 13.9337988 205.398329 12.3807399 208.07844 12.3807399"></polygon>
                    <g id="Group-6" transform="translate(88.027855, 54.602668)" fill="#FFDA00">
                        <polygon id="Fill-11" points="113.8459 0 116.335074 8.04059611 124.387187 8.04059611 117.871371 13.0110348 120.360546 21.0516309 113.8459 16.0824198 107.331253 21.0516309 109.820428 13.0110348 103.304613 8.04059611 111.356725 8.04059611"></polygon>
                        <polygon id="Fill-12" points="87.8440584 0 90.3332332 8.04059611 98.3853454 8.04059611 91.8695299 13.0110348 94.3587047 21.0516309 87.8440584 16.0824198 81.329412 21.0516309 83.8185868 13.0110348 77.3027714 8.04059611 85.3548836 8.04059611"></polygon>
                        <polygon id="Fill-13" points="61.8422171 0 64.3313919 8.04059611 72.3835041 8.04059611 65.8676886 13.0110348 68.3568634 21.0516309 61.8422171 16.0824198 55.3275708 21.0516309 57.8155764 13.0110348 51.3009301 8.04059611 59.3542115 8.04059611"></polygon>
                        <polygon id="Fill-14" points="35.8403758 0 38.3283814 8.04059611 46.3816628 8.04059611 39.8670165 13.0110348 42.3550221 21.0516309 35.8403758 16.0824198 29.3257295 21.0516309 31.8137351 13.0110348 25.2990888 8.04059611 33.3523702 8.04059611"></polygon>
                        <polygon id="Fill-15" points="10.541287 0 13.0292926 8.04059611 21.082574 8.04059611 14.5679277 13.0110348 17.0559333 21.0516309 10.541287 16.0824198 4.02664069 21.0516309 6.51464632 13.0110348 0 8.04059611 8.05328137 8.04059611"></polygon>
                    </g>
                    <g id="Group-7" transform="translate(89.941504, 84.864387)" fill="#DADFE1">
                        <polygon id="Fill-16" points="0 28.9459925 65.2554318 28.9459925 65.2554318 23.8804438 0 23.8804438"></polygon>
                        <polygon id="Fill-17" points="0 16.6439457 92.6206128 16.6439457 92.6206128 11.578397 0 11.578397"></polygon>
                        <polygon id="Fill-18" points="0 5.0655487 119.284123 5.0655487 119.284123 0 0 0"></polygon>
                    </g>
                </g>
            </g>
        </g>
    </g>
</svg>