<?xml version="1.0" encoding="UTF-8"?>
<svg width="362px" height="439px" viewBox="0 0 362 439" version="1.1" xmlns="http://www.w3.org/2000/svg" xmlns:xlink="http://www.w3.org/1999/xlink">
    <!-- Generator: Sketch 63.1 (92452) - https://sketch.com -->
    <title>img_instagram_landscape</title>
    <desc>Created with Sketch.</desc>
    <defs>
        <filter x="-1.8%" y="-19.0%" width="103.6%" height="138.1%" filterUnits="objectBoundingBox" id="filter-1">
            <feGaussianBlur stdDeviation="1.65066964" in="SourceGraphic"></feGaussianBlur>
        </filter>
        <linearGradient x1="49.1959211%" y1="10.1619773%" x2="46.7671962%" y2="94.2950964%" id="linearGradient-2">
            <stop stop-color="#9F3FA9" offset="0%"></stop>
            <stop stop-color="#DB2E87" offset="21.7248618%"></stop>
            <stop stop-color="#F2554B" offset="76.0780392%"></stop>
            <stop stop-color="#FFB461" offset="100%"></stop>
        </linearGradient>
        <linearGradient x1="48.8344403%" y1="10.1619773%" x2="45.3138607%" y2="94.2950964%" id="linearGradient-3">
            <stop stop-color="#9F3FA9" offset="0%"></stop>
            <stop stop-color="#DB2E87" offset="21.7248618%"></stop>
            <stop stop-color="#F2554B" offset="76.0780392%"></stop>
            <stop stop-color="#FFB461" offset="100%"></stop>
        </linearGradient>
    </defs>
    <g id="Page-1" stroke="none" stroke-width="1" fill="none" fill-rule="evenodd">
        <g id="FAQs---How-Much-Does-It-Cost-To-Advertise-On-Instagram" transform="translate(-860.000000, -608.000000)">
            <g id="img_instagram_landscape" transform="translate(794.000000, 544.000000)">
                <ellipse id="Oval-4" fill="#000000" opacity="0.147860054" filter="url(#filter-1)" cx="258" cy="486" rx="137" ry="13"></ellipse>
                <path d="M241.506623,463.87315 C319.099724,463.896996 381.978004,387.921158 381.949204,294.176361 C381.920385,200.431563 318.979085,71.3490562 241.385984,71.3252047 C163.792884,71.3013532 100.930912,200.34519 100.959712,294.089987 C100.988532,387.834784 163.913523,463.849293 241.506623,463.87315 Z" id="Oval-5" fill="url(#linearGradient-2)" opacity="0.265341938" transform="translate(241.454458, 267.599177) rotate(-415.000000) translate(-241.454458, -267.599177) "></path>
                <path d="M277.7949,410.948011 C362.864598,410.923911 431.846819,341.702188 431.87101,256.336957 C431.895188,170.971726 362.965869,53.464656 277.896171,53.4887454 C192.826473,53.5128422 123.830561,171.058975 123.80637,256.424206 C123.782192,341.789436 192.725202,410.972098 277.7949,410.948011 Z" id="Oval-5" fill="url(#linearGradient-3)" transform="translate(277.838690, 232.218378) rotate(-330.000000) translate(-277.838690, -232.218378) "></path>
                <g id="instagram" transform="translate(185.000000, 172.000000)" fill="#FFFFFF" fill-rule="nonzero">
                    <path d="M113.037232,0 L47.9627682,0 C21.5159863,0 0,21.5154585 0,47.9615916 L0,113.034459 C0,139.480592 21.5159863,160.996051 47.9627682,160.996051 L113.037232,160.996051 C139.484014,160.996051 161,139.480592 161,113.034459 L161,47.9615916 C161,21.5154585 139.483722,0 113.037232,0 Z M144.803406,113.034459 C144.803406,130.577855 130.581059,144.799854 113.037232,144.799854 L47.9627682,144.799854 C30.4189415,144.799854 16.196594,130.577855 16.196594,113.034459 L16.196594,47.9615916 C16.196594,30.4179031 30.4189415,16.1961967 47.9627682,16.1961967 L113.037232,16.1961967 C130.581059,16.1961967 144.803406,30.4179031 144.803406,47.9615916 L144.803406,113.034459 L144.803406,113.034459 Z" id="Shape"></path>
                    <path d="M79.3661972,38.5483501 C56.8597216,38.5483501 38.5492958,56.858391 38.5492958,79.3641071 C38.5492958,101.869823 56.8597216,120.18015 79.3661972,120.18015 C101.872673,120.18015 120.183099,101.87011 120.183099,79.3641071 C120.183099,56.8581046 101.872673,38.5483501 79.3661972,38.5483501 Z M79.3661972,104.3073 C65.5900822,104.3073 54.4225352,93.1400273 54.4225352,79.3642503 C54.4225352,65.5884732 65.5903686,54.4212002 79.3661972,54.4212002 C93.1423122,54.4212002 104.309859,65.5884732 104.309859,79.3642503 C104.309859,93.1397409 93.1420257,104.3073 79.3661972,104.3073 Z" id="Shape"></path>
                    <ellipse id="Oval" cx="121.316901" cy="37.4145751" rx="10.2042254" ry="10.203975"></ellipse>
                </g>
            </g>
        </g>
    </g>
</svg>