<?xml version="1.0" encoding="UTF-8"?>
<svg width="511px" height="399px" viewBox="0 0 511 399" version="1.1" xmlns="http://www.w3.org/2000/svg" xmlns:xlink="http://www.w3.org/1999/xlink">
    <!-- Generator: Sketch 63.1 (92452) - https://sketch.com -->
    <title>img_reviews</title>
    <desc>Created with Sketch.</desc>
    <defs>
        <filter x="-8.2%" y="-12.7%" width="116.4%" height="125.7%" filterUnits="objectBoundingBox" id="filter-1">
            <feOffset dx="0" dy="5" in="SourceAlpha" result="shadowOffsetOuter1"></feOffset>
            <feGaussianBlur stdDeviation="5" in="shadowOffsetOuter1" result="shadowBlurOuter1"></feGaussianBlur>
            <feColorMatrix values="0 0 0 0 0   0 0 0 0 0   0 0 0 0 0  0 0 0 0.25 0" type="matrix" in="shadowBlurOuter1" result="shadowMatrixOuter1"></feColorMatrix>
            <feMerge>
                <feMergeNode in="shadowMatrixOuter1"></feMergeNode>
                <feMergeNode in="SourceGraphic"></feMergeNode>
            </feMerge>
        </filter>
        <filter x="-8.2%" y="-12.7%" width="116.4%" height="125.4%" filterUnits="objectBoundingBox" id="filter-2">
            <feOffset dx="0" dy="5" in="SourceAlpha" result="shadowOffsetOuter1"></feOffset>
            <feGaussianBlur stdDeviation="5" in="shadowOffsetOuter1" result="shadowBlurOuter1"></feGaussianBlur>
            <feColorMatrix values="0 0 0 0 0   0 0 0 0 0   0 0 0 0 0  0 0 0 0.25 0" type="matrix" in="shadowBlurOuter1" result="shadowMatrixOuter1"></feColorMatrix>
            <feMerge>
                <feMergeNode in="shadowMatrixOuter1"></feMergeNode>
                <feMergeNode in="SourceGraphic"></feMergeNode>
            </feMerge>
        </filter>
    </defs>
    <g id="Page-1" stroke="none" stroke-width="1" fill="none" fill-rule="evenodd">
        <g id="FAQs---How-To-Pick-The-Best-SEO-Agency" transform="translate(-127.000000, -3618.000000)">
            <g id="img_reviews" transform="translate(137.000000, 3623.000000)">
                <g id="Group-5" filter="url(#filter-1)">
                    <path d="M13,0 L345,0 C352.179702,-3.32031706e-14 358,5.82029825 358,13 L358,218.497297 C358,225.676999 352.179702,231.497297 345,231.497297 L13,231.497297 C5.82029825,231.497297 8.79259876e-16,225.676999 0,218.497297 L0,13 C8.97096963e-16,5.82029825 5.82029825,1.31888981e-15 13,0 Z" id="Rectangle" fill="#FFFFFF"></path>
                    <g id="Group-4" transform="translate(30.000000, 90.140541)">
                        <path d="M42.5,87.0675676 C19.0647917,87.0675676 0,67.5372238 0,43.5337838 C0,19.5303438 19.0647917,0 42.5,0 C65.9334375,0 85,19.5303438 85,43.5337838 C85,67.5372238 65.9334375,87.0675676 42.5,87.0675676" id="Fill-8" fill="#FFDA00"></path>
                        <path d="M37.5324675,33.9224289 L35.8152958,33.9224289 C35.8152958,30.0427082 33.1193362,26.8866659 29.8051948,26.8866659 C26.4910534,26.8866659 23.7950938,30.0427082 23.7950938,33.9224289 L22.0779221,33.9224289 C22.0779221,28.935078 25.5448918,24.8764479 29.8051948,24.8764479 C34.0654978,24.8764479 37.5324675,28.935078 37.5324675,33.9224289" id="Fill-10" fill="#34495E"></path>
                        <path d="M62.9220779,33.9224289 L61.2049062,33.9224289 C61.2049062,30.0427082 58.5089466,26.8866659 55.1948052,26.8866659 C51.8806638,26.8866659 49.1847042,30.0427082 49.1847042,33.9224289 L47.4675325,33.9224289 C47.4675325,28.935078 50.9345022,24.8764479 55.1948052,24.8764479 C59.4551082,24.8764479 62.9220779,28.935078 62.9220779,33.9224289" id="Fill-12" fill="#34495E"></path>
                        <path d="M42.4991056,67.8448578 C52.5592228,67.8448578 60.7142857,59.7441649 60.7142857,49.7528958 L24.2857143,49.7528958 C24.2857143,59.7441649 32.4389885,67.8448578 42.4991056,67.8448578" id="Fill-14" fill="#34495E"></path>
                    </g>
                    <path d="M13,0 L346,0 C353.179702,4.57467025e-16 359,5.82029825 359,13 L359,43.0216216 L359,43.0216216 L0,43.0216216 L0,13 C-8.79259876e-16,5.82029825 5.82029825,-2.23382386e-15 13,0 Z" id="Rectangle-2" fill="#FF5254"></path>
                    <polygon id="Fill-5" fill="#E9ECED" points="0 65.5567568 358 65.5567568 358 43.0216216 0 43.0216216"></polygon>
                    <path d="M64,23.5604017 C64,26.9541924 61.3141193,29.7054054 58.0009198,29.7054054 C54.6877204,29.7054054 52,26.9541924 52,23.5604017 C52,20.1666109 54.6877204,17.4135135 58.0009198,17.4135135 C61.3141193,17.4135135 64,20.1666109 64,23.5604017" id="Fill-6" fill="#FFFFFF"></path>
                    <path d="M47,23.5604017 C47,26.9541924 44.3122796,29.7054054 40.9990802,29.7054054 C37.6858807,29.7054054 35,26.9541924 35,23.5604017 C35,20.1666109 37.6858807,17.4135135 40.9990802,17.4135135 C44.3122796,17.4135135 47,20.1666109 47,23.5604017" id="Fill-7" fill="#FFFFFF"></path>
                    <path d="M31,23.5604017 C31,26.9541924 28.3141193,29.7054054 24.9990802,29.7054054 C21.6858807,29.7054054 19,26.9541924 19,23.5604017 C19,20.1666109 21.6858807,17.4135135 24.9990802,17.4135135 C28.3141193,17.4135135 31,20.1666109 31,23.5604017" id="Fill-8" fill="#FFFFFF"></path>
                    <path d="M77.5,19.4621622 L303.5,19.4621622 C304.880712,19.4621622 306,20.5814503 306,21.9621622 L306,23.1081081 C306,24.48882 304.880712,25.6081081 303.5,25.6081081 L77.5,25.6081081 C76.1192881,25.6081081 75,24.48882 75,23.1081081 L75,21.9621622 C75,20.5814503 76.1192881,19.4621622 77.5,19.4621622 Z" id="Rectangle-3" fill="#FFFFFF"></path>
                    <polygon id="Fill-10" fill="#FFFFFF" points="327.498121 15.3648649 328.796549 19.2773936 333 19.2773936 329.598907 21.6955793 330.899214 25.6081081 327.498121 23.1899224 324.098907 25.6081081 325.397335 21.6955793 322 19.2773936 326.201572 19.2773936"></polygon>
                    <g id="Group-6" transform="translate(138.000000, 85.018919)" fill="#FFDA00">
                        <polygon id="Fill-11" points="178.474576 0 182.37682 12.5195859 195 12.5195859 184.78525 20.2587925 188.687493 32.7783784 178.474576 25.0410832 168.261659 32.7783784 172.163903 20.2587925 161.949153 12.5195859 174.572333 12.5195859"></polygon>
                        <polygon id="Fill-12" points="137.711864 0 141.614108 12.5195859 154.237288 12.5195859 144.022538 20.2587925 147.924782 32.7783784 137.711864 25.0410832 127.498947 32.7783784 131.401191 20.2587925 121.186441 12.5195859 133.809621 12.5195859"></polygon>
                        <polygon id="Fill-13" points="96.9491525 0 100.851396 12.5195859 113.474576 12.5195859 103.259826 20.2587925 107.16207 32.7783784 96.9491525 25.0410832 86.7362354 32.7783784 90.636646 20.2587925 80.4237288 12.5195859 93.048742 12.5195859"></polygon>
                        <polygon id="Fill-14" points="56.1864407 0 60.0868512 12.5195859 72.7118644 12.5195859 62.4989473 20.2587925 66.3993578 32.7783784 56.1864407 25.0410832 45.9735235 32.7783784 49.8739341 20.2587925 39.6610169 12.5195859 52.2860301 12.5195859"></polygon>
                        <polygon id="Fill-15" points="16.5254237 0 20.4258343 12.5195859 33.0508475 12.5195859 22.8379303 20.2587925 26.7383409 32.7783784 16.5254237 25.0410832 6.31250658 32.7783784 10.2129171 20.2587925 0 12.5195859 12.6250132 12.5195859"></polygon>
                    </g>
                    <g id="Group-7" transform="translate(141.000000, 132.137838)" fill="#DADFE1">
                        <polygon id="Fill-16" points="0 45.0702703 102.3 45.0702703 102.3 37.182973 0 37.182973"></polygon>
                        <polygon id="Fill-17" points="0 25.9154054 145.2 25.9154054 145.2 18.0281081 0 18.0281081"></polygon>
                        <polygon id="Fill-18" points="0 7.8872973 187 7.8872973 187 0 0 0"></polygon>
                    </g>
                </g>
                <g id="Group-5-Copy" filter="url(#filter-2)" transform="translate(132.000000, 147.502703)">
                    <path d="M13,0 L345,0 C352.179702,-3.09524665e-15 358,5.82029825 358,13 L358,218.497297 C358,225.676999 352.179702,231.497297 345,231.497297 L13,231.497297 C5.82029825,231.497297 1.50450434e-14,225.676999 0,218.497297 L0,13 C8.97096963e-16,5.82029825 5.82029825,-4.57467025e-16 13,0 Z" id="Rectangle" fill="#FFFFFF"></path>
                    <g id="Group-4" transform="translate(30.000000, 90.140541)">
                        <path d="M42.5,87.0675676 C19.0647917,87.0675676 0,67.5372238 0,43.5337838 C0,19.5303438 19.0647917,0 42.5,0 C65.9334375,0 85,19.5303438 85,43.5337838 C85,67.5372238 65.9334375,87.0675676 42.5,87.0675676" id="Fill-8" fill="#FFDA00"></path>
                        <path d="M37.5324675,33.9224289 L35.8152958,33.9224289 C35.8152958,30.0427082 33.1193362,26.8866659 29.8051948,26.8866659 C26.4910534,26.8866659 23.7950938,30.0427082 23.7950938,33.9224289 L22.0779221,33.9224289 C22.0779221,28.935078 25.5448918,24.8764479 29.8051948,24.8764479 C34.0654978,24.8764479 37.5324675,28.935078 37.5324675,33.9224289" id="Fill-10" fill="#34495E"></path>
                        <path d="M62.9220779,33.9224289 L61.2049062,33.9224289 C61.2049062,30.0427082 58.5089466,26.8866659 55.1948052,26.8866659 C51.8806638,26.8866659 49.1847042,30.0427082 49.1847042,33.9224289 L47.4675325,33.9224289 C47.4675325,28.935078 50.9345022,24.8764479 55.1948052,24.8764479 C59.4551082,24.8764479 62.9220779,28.935078 62.9220779,33.9224289" id="Fill-12" fill="#34495E"></path>
                        <path d="M42.4991056,67.8448578 C52.5592228,67.8448578 60.7142857,59.7441649 60.7142857,49.7528958 L24.2857143,49.7528958 C24.2857143,59.7441649 32.4389885,67.8448578 42.4991056,67.8448578" id="Fill-14" fill="#34495E"></path>
                    </g>
                    <path d="M13,0 L346,0 C353.179702,-1.31888981e-15 359,5.82029825 359,13 L359,43.0216216 L359,43.0216216 L0,43.0216216 L0,13 C-8.79259876e-16,5.82029825 5.82029825,3.09524665e-15 13,0 Z" id="Rectangle-2" fill="#FF5254"></path>
                    <polygon id="Fill-5" fill="#E9ECED" points="0 65.5567568 358 65.5567568 358 43.0216216 0 43.0216216"></polygon>
                    <path d="M64,23.5604017 C64,26.9541924 61.3141193,29.7054054 58.0009198,29.7054054 C54.6877204,29.7054054 52,26.9541924 52,23.5604017 C52,20.1666109 54.6877204,17.4135135 58.0009198,17.4135135 C61.3141193,17.4135135 64,20.1666109 64,23.5604017" id="Fill-6" fill="#FFFFFF"></path>
                    <path d="M47,23.5604017 C47,26.9541924 44.3122796,29.7054054 40.9990802,29.7054054 C37.6858807,29.7054054 35,26.9541924 35,23.5604017 C35,20.1666109 37.6858807,17.4135135 40.9990802,17.4135135 C44.3122796,17.4135135 47,20.1666109 47,23.5604017" id="Fill-7" fill="#FFFFFF"></path>
                    <path d="M31,23.5604017 C31,26.9541924 28.3141193,29.7054054 24.9990802,29.7054054 C21.6858807,29.7054054 19,26.9541924 19,23.5604017 C19,20.1666109 21.6858807,17.4135135 24.9990802,17.4135135 C28.3141193,17.4135135 31,20.1666109 31,23.5604017" id="Fill-8" fill="#FFFFFF"></path>
                    <path d="M77.5,19.4621622 L303.5,19.4621622 C304.880712,19.4621622 306,20.5814503 306,21.9621622 L306,23.1081081 C306,24.48882 304.880712,25.6081081 303.5,25.6081081 L77.5,25.6081081 C76.1192881,25.6081081 75,24.48882 75,23.1081081 L75,21.9621622 C75,20.5814503 76.1192881,19.4621622 77.5,19.4621622 Z" id="Rectangle-3" fill="#FFFFFF"></path>
                    <polygon id="Fill-10" fill="#FFFFFF" points="327.498121 15.3648649 328.796549 19.2773936 333 19.2773936 329.598907 21.6955793 330.899214 25.6081081 327.498121 23.1899224 324.098907 25.6081081 325.397335 21.6955793 322 19.2773936 326.201572 19.2773936"></polygon>
                    <g id="Group-6" transform="translate(138.000000, 85.018919)" fill="#FFDA00">
                        <polygon id="Fill-11" points="178.474576 0 182.37682 12.5195859 195 12.5195859 184.78525 20.2587925 188.687493 32.7783784 178.474576 25.0410832 168.261659 32.7783784 172.163903 20.2587925 161.949153 12.5195859 174.572333 12.5195859"></polygon>
                        <polygon id="Fill-12" points="137.711864 0 141.614108 12.5195859 154.237288 12.5195859 144.022538 20.2587925 147.924782 32.7783784 137.711864 25.0410832 127.498947 32.7783784 131.401191 20.2587925 121.186441 12.5195859 133.809621 12.5195859"></polygon>
                        <polygon id="Fill-13" points="96.9491525 0 100.851396 12.5195859 113.474576 12.5195859 103.259826 20.2587925 107.16207 32.7783784 96.9491525 25.0410832 86.7362354 32.7783784 90.636646 20.2587925 80.4237288 12.5195859 93.048742 12.5195859"></polygon>
                        <polygon id="Fill-14" points="56.1864407 0 60.0868512 12.5195859 72.7118644 12.5195859 62.4989473 20.2587925 66.3993578 32.7783784 56.1864407 25.0410832 45.9735235 32.7783784 49.8739341 20.2587925 39.6610169 12.5195859 52.2860301 12.5195859"></polygon>
                        <polygon id="Fill-15" points="16.5254237 0 20.4258343 12.5195859 33.0508475 12.5195859 22.8379303 20.2587925 26.7383409 32.7783784 16.5254237 25.0410832 6.31250658 32.7783784 10.2129171 20.2587925 0 12.5195859 12.6250132 12.5195859"></polygon>
                    </g>
                    <g id="Group-7" transform="translate(141.000000, 132.137838)" fill="#DADFE1">
                        <polygon id="Fill-16" points="0 45.0702703 102.3 45.0702703 102.3 37.182973 0 37.182973"></polygon>
                        <polygon id="Fill-17" points="0 25.9154054 145.2 25.9154054 145.2 18.0281081 0 18.0281081"></polygon>
                        <polygon id="Fill-18" points="0 7.8872973 187 7.8872973 187 0 0 0"></polygon>
                    </g>
                </g>
            </g>
        </g>
    </g>
</svg>