<?xml version="1.0" encoding="UTF-8"?>
<svg width="496px" height="476px" viewBox="0 0 496 476" version="1.1" xmlns="http://www.w3.org/2000/svg" xmlns:xlink="http://www.w3.org/1999/xlink">
    <!-- Generator: sketchtool 63.1 (101010) - https://sketch.com -->
    <title>A7FBD1E4-4445-4EEB-B5D9-1F48E44DB2AE</title>
    <desc>Created with sketchtool.</desc>
    <g id="Page-1" stroke="none" stroke-width="1" fill="none" fill-rule="evenodd">
        <g id="FAQs---What-is-included-within-an-SEO-campaign" transform="translate(-843.000000, -4472.000000)" fill-rule="nonzero">
            <g id="img_reporting" transform="translate(843.000000, 4472.000000)">
                <g id="Group_5644">
                    <g id="Group_5628" transform="translate(0.000000, 24.004123)">
                        <g id="Group_5627">
                            <g id="Group_5619">
                                <rect id="Rectangle_1986" fill="#EDEDED" x="0" y="0" width="150.148378" height="118.302828"></rect>
                                <rect id="Rectangle_1987" fill="#427FE0" x="0" y="0" width="150.148378" height="13.8827485"></rect>
                                <polygon id="Path_5883" fill="#FF5254" points="13.3002205 9.54682822 111.783559 9.54682822 111.783559 3.85306748 13.3002205 3.85306748"></polygon>
                                <polygon id="Path_5884" fill="#FDBE57" points="142.709354 9.54682822 139.250047 9.54682822 139.250047 3.85306748 142.709354 3.85306748"></polygon>
                                <polygon id="Path_5885" fill="#FDBE57" points="137.520882 9.54682822 134.057669 9.54682822 134.057669 3.85306748 137.516 3.85306748"></polygon>
                                <polygon id="Path_5886" fill="#FDBE57" points="131.823717 9.54682822 128.364409 9.54682822 128.364409 3.85306748 131.823717 3.85306748"></polygon>
                            </g>
                            <g id="Group_5620" transform="translate(43.400000, 88.524957)" fill="#BBBDBF">
                                <rect id="Rectangle_1988" x="0" y="0" width="100.513228" height="4.33494479"></rect>
                                <rect id="Rectangle_1989" x="0" y="8.13241104" width="100.513228" height="4.33494479"></rect>
                                <rect id="Rectangle_1990" x="0" y="16.2628712" width="100.513228" height="4.33494479"></rect>
                            </g>
                            <g id="Group_5621" transform="translate(43.144189, 20.465153)" fill="#FD8C8D">
                                <rect id="Rectangle_1991" x="0" y="0" width="100.769039" height="60.945773"></rect>
                            </g>
                            <g id="Group_5626" transform="translate(6.519276, 20.465153)" fill="#BBBDBF">
                                <g id="Group_5622">
                                    <rect id="Rectangle_1992" x="0" y="0" width="32.4040315" height="19.5999202"></rect>
                                </g>
                                <g id="Group_5623" transform="translate(0.000000, 23.175957)">
                                    <rect id="Rectangle_1993" x="0" y="0" width="32.4040315" height="19.5969939"></rect>
                                </g>
                                <g id="Group_5624" transform="translate(0.000000, 46.348012)">
                                    <rect id="Rectangle_1994" x="0" y="0" width="32.4040315" height="19.5969939"></rect>
                                </g>
                                <g id="Group_5625" transform="translate(0.000000, 69.521043)">
                                    <rect id="Rectangle_1995" x="0" y="0" width="32.4040315" height="19.5999202"></rect>
                                </g>
                            </g>
                        </g>
                        <polygon id="Path_5887" fill="#EDEDED" points="109.89915 113.412847 109.89915 140.119969 84.2057638 112.846104"></polygon>
                    </g>
                    <g id="Group_5635" transform="translate(229.144189, 0.000000)">
                        <g id="Group_5634">
                            <g id="Group_5629">
                                <rect id="Rectangle_1996" fill="#EDEDED" x="0" y="0" width="266.336378" height="209.840006"></rect>
                                <rect id="Rectangle_1997" fill="#427FE0" x="0" y="0" width="266.336378" height="24.6235399"></rect>
                                <polygon id="Path_5888" fill="#FF5254" points="242.736346 16.9300859 68.0623307 16.9300859 68.0623307 6.83992638 242.736346 6.83992638"></polygon>
                                <polygon id="Path_5889" fill="#FDBE57" points="13.2006299 16.9300859 19.3352126 16.9300859 19.3352126 6.83992638 13.2006299 6.83992638"></polygon>
                                <polygon id="Path_5890" fill="#FDBE57" points="22.4029921 16.9300859 28.5405039 16.9300859 28.5405039 6.83992638 22.4039685 6.83992638"></polygon>
                                <polygon id="Path_5891" fill="#FDBE57" points="32.5094803 16.9300859 38.6460157 16.9300859 38.6460157 6.83992638 32.5094803 6.83992638"></polygon>
                            </g>
                            <g id="Group_5630" transform="translate(179.322551, 72.846387)">
                                <path d="M62.0253858,10.6354417 C55.2201055,3.81464914 45.9726034,-0.0123258328 36.3329764,0.00288096452 L36.3329764,36.3017485 L62.0253858,10.6354417 Z" id="Path_5893" fill="#2B61B9"></path>
                                <path d="M72.6708676,36.2988221 C72.6838272,26.6701391 68.8534995,17.433684 62.028315,10.6354417 L36.3329764,36.2988221 L72.6708676,36.2988221 Z" id="Path_5894" fill="#2B61B9"></path>
                                <path d="M36.3329764,36.2988221 L62.0253858,61.9670798 C68.8494594,55.1668975 72.6795165,45.9300417 72.6679318,36.300773 L36.3329764,36.2988221 Z" id="Path_5895" fill="#427FE0"></path>
                                <path d="M36.3329764,72.5996302 C45.972239,72.6130101 55.2190628,68.7863159 62.0253858,61.9670798 L36.3329764,36.300773 L36.3329764,72.5996302 Z" id="Path_5897" fill="#427FE0"></path>
                                <path d="M10.6395906,61.9670798 C17.4468876,68.7854579 26.6936325,72.6119741 36.3329764,72.599625 L36.3329764,36.2988221 L10.6395906,61.9670798 Z" id="Path_5898" fill="#6497E6"></path>
                                <rect id="Rectangle_1998" fill="#231F20" x="36.3329764" y="1.10896977e-13" width="1" height="36.2988221"></rect>
                                <path d="M36.3329764,-3.53819199e-05 C26.6934183,-0.0134587767 17.4462749,3.81322233 10.6395906,10.6325153 L36.3329764,36.2988221 L36.3329764,-3.53819199e-05 Z" id="Path_5899" fill="#88B0F0"></path>
                                <path d="M36.3368819,36.2988221 L-2.75121589e-05,36.2988221 C-0.0118708744,45.9284287 3.81820606,55.1656834 10.6425197,61.9661043 L36.3368819,36.2988221 Z" id="Path_5900" fill="#6497E6"></path>
                                <path d="M10.6395906,10.6315399 C3.81551697,17.4317222 -0.0145401131,26.668578 -0.00295545638,36.2978466 L36.3368819,36.2978466 L10.6395906,10.6315399 Z" id="Path_5901" fill="#88B0F0"></path>
                            </g>
                            <rect id="Rectangle_1999" fill="#808184" x="18.9759055" y="35.2014294" width="131.369701" height="7.69150307"></rect>
                            <g id="Group_5631" transform="translate(99.820976, 156.351626)" fill="#BBBDBF">
                                <rect id="Rectangle_2000" x="0" y="0" width="147.246583" height="7.69150307"></rect>
                                <rect id="Rectangle_2001" x="0" y="14.4231534" width="147.246583" height="7.69052761"></rect>
                                <rect id="Rectangle_2002" x="0" y="28.8424049" width="147.246583" height="7.69442945"></rect>
                            </g>
                            <rect id="Rectangle_2003" fill="#808184" x="18.9759055" y="48.1809018" width="82.7656063" height="7.69150307"></rect>
                            <g id="Group_5632" transform="translate(18.975906, 72.700067)" fill="#BBBDBF">
                                <rect id="Rectangle_2004" x="0" y="0" width="66.1632756" height="7.69345399"></rect>
                                <rect id="Rectangle_2005" x="0" y="15.863908" width="66.1632756" height="7.69150307"></rect>
                                <rect id="Rectangle_2006" x="0" y="31.7297669" width="66.1632756" height="7.69150307"></rect>
                                <rect id="Rectangle_2007" x="0" y="47.5956258" width="66.1632756" height="7.69150307"></rect>
                                <rect id="Rectangle_2008" x="0" y="63.4595337" width="66.1632756" height="7.69345399"></rect>
                            </g>
                            <g id="Group_5633" transform="translate(99.820976, 72.700067)" fill="#BBBDBF">
                                <rect id="Rectangle_2009" x="0" y="0" width="66.1622992" height="7.69345399"></rect>
                                <rect id="Rectangle_2010" x="0" y="15.863908" width="66.1622992" height="7.69150307"></rect>
                                <rect id="Rectangle_2011" x="0" y="31.7297669" width="66.1622992" height="7.69150307"></rect>
                                <rect id="Rectangle_2012" x="0" y="47.5956258" width="66.1622992" height="7.69150307"></rect>
                                <rect id="Rectangle_2013" x="0" y="63.4595337" width="66.1622992" height="7.69345399"></rect>
                            </g>
                        </g>
                        <polygon id="Path_5902" fill="#EDEDED" points="124.154268 206.466865 124.154268 239.457902 156.922488 205.766485"></polygon>
                    </g>
                    <g id="Group_5636" transform="translate(51.155370, 58.286669)">
                        <path d="M48.1246929,17.661681 C46.9636518,17.6654288 46.0233734,18.6048233 46.019622,19.764773 L46.019622,39.9899632 C46.019622,41.1517382 46.9623129,42.0935429 48.1251811,42.0935429 C49.2880493,42.0935429 50.2307402,41.1517382 50.2307402,39.9899632 L50.2307402,19.7628221 C50.2259152,18.6032551 49.2853565,17.6648875 48.1246929,17.661681 Z" id="Path_5903" fill="#427FE0"></path>
                        <rect id="Rectangle_2014" fill="#FFFFFF" x="57.5242835" y="17.6597301" width="4.21111811" height="24.4323497" rx="2.10555906"></rect>
                        <path d="M71.1349921,24.8917914 C69.9735713,24.8955421 69.0331369,25.8355283 69.0299213,26.9958589 L69.0299213,39.9880123 C69.0299213,41.1497873 69.9726122,42.091592 71.1354803,42.091592 C72.2983485,42.091592 73.2410394,41.1497873 73.2410394,39.9880123 L73.2410394,26.9968344 C73.2383573,25.8357435 72.2971741,24.8950091 71.1349921,24.8917914 Z" id="Path_5904" fill="#427FE0"></path>
                        <rect id="Rectangle_2015" fill="#427FE0" x="0" y="23.4315276" width="4.21111811" height="18.6605521" rx="2.10555906"></rect>
                        <path d="M13.6107087,15.9994969 C12.4489066,16.0027122 11.5078797,16.9428545 11.5046614,18.1035644 L11.5046614,39.9880123 C11.5046614,41.1500567 12.4475709,42.0920798 13.6107087,42.0920798 C14.7738464,42.0920798 15.7167559,41.1500567 15.7167559,39.9880123 L15.7167559,18.1035644 C15.7135376,16.9428545 14.7725108,16.0027122 13.6107087,15.9994969 Z" id="Path_5905" fill="#FFFFFF"></path>
                        <path d="M25.1153701,10.7681043 C23.954329,10.7718521 23.0140506,11.7112466 23.0102992,12.8711963 L23.0102992,39.9889877 C23.0102992,41.1507627 23.9529901,42.0925675 25.1158583,42.0925675 C26.2787264,42.0925675 27.2214173,41.1507627 27.2214173,39.9889877 L27.2214173,12.8711963 C27.2176631,11.7108673 26.2767925,10.7713169 25.1153701,10.7681043 L25.1153701,10.7681043 Z" id="Path_5906" fill="#427FE0"></path>
                        <path d="M36.6200315,0 C35.4582294,0.00321528154 34.5172026,0.943357522 34.5139843,2.10406748 L34.5139843,39.9880123 C34.5139843,41.1500567 35.4568937,42.0920798 36.6200315,42.0920798 C37.7831693,42.0920798 38.7260787,41.1500567 38.7260787,39.9880123 L38.7260787,2.10406748 C38.7228604,0.943357522 37.7818336,0.00321528154 36.6200315,0 Z" id="Path_5907" fill="#FFFFFF"></path>
                        <path d="M82.6396535,12.5629509 C81.4782328,12.5667016 80.5377983,13.5066878 80.5345827,14.6670184 L80.5345827,39.9880123 C80.5345827,41.1497873 81.4772736,42.091592 82.6401417,42.091592 C83.8030099,42.091592 84.7457008,41.1497873 84.7457008,39.9880123 L84.7457008,14.6670184 C84.7424825,13.5063084 83.8014556,12.5661662 82.6396535,12.5629509 Z" id="Path_5908" fill="#FFFFFF"></path>
                    </g>
                    <g id="man" transform="translate(128.416157, 131.183779)">
                        <path d="M14.8253228,189.02954 C14.8253228,189.02954 13.5697008,184.378546 13.0287874,173.384135 C12.7212283,167.14119 17.7437165,156.118491 17.7437165,156.118491 L62.4286299,153.926632 C62.4286299,153.926632 76.0510551,220.056 77.1260472,246.887982 C77.5292913,256.949853 71.3263622,334.394558 71.3263622,334.394558 L63.4577323,337.587239 C60.0471552,324.291561 57.6050278,310.766535 56.1505197,297.118325 C54.8812283,284.011067 54.8031181,271.373982 52.4490709,251.156595 C50.555874,234.900552 47.1942047,216.07027 46.4873071,214.742669 C43.5015433,225.693184 41.6805984,246.210037 37.5895748,261.877877 C29.5334803,292.731681 17.5738268,334.397485 17.5738268,334.397485 L9.48746457,337.590166 C9.48746457,337.590166 7.74072441,300.584135 11.7848819,278.468503 C11.7848819,278.468503 14.5704882,259.569939 15.6415748,241.95508 C17.1735118,216.75992 14.8253228,189.02954 14.8253228,189.02954 Z" id="Path_5909" fill="#427FE0"></path>
                        <path d="M78.1502677,79.2512577 C78.1502677,79.2512577 83.9587402,106.705583 94.7486929,108.972552 C101.290425,110.346975 108.748976,108.562859 114.583811,105.624773 C116.96422,104.425933 130.010583,97.5694233 130.010583,97.5694233 C130.340307,95.8925615 131.139699,94.3436536 132.315811,93.1027914 C135.470488,89.970589 139.860283,85.957546 140.50274,86.8169264 C141.145197,87.6763067 137.492567,91.8844417 137.492567,91.8844417 C139.784517,91.1385446 142.123962,90.5470639 144.49515,90.1139816 C147.092315,89.7647669 150.133732,89.8788957 150.115181,90.9080061 C150.09663,91.9371166 144.709953,93.101816 144.709953,93.101816 C144.709953,93.101816 151.003685,91.8337178 151.037988,93.394454 C151.072031,94.9551902 144.35748,95.595092 144.35748,95.595092 C144.35748,95.595092 149.727559,95.461454 149.491276,97.1226626 C149.254992,98.7838712 143.07452,98.359546 143.07452,98.359546 C143.07452,98.359546 147.050331,99.0648037 146.839433,100.560184 C146.683213,101.663429 140.697039,101.097663 137.770835,102.175546 C135.105223,103.65858 132.52961,105.297605 130.057449,107.084061 C129.178709,108.110245 120.597323,116.350933 117.509039,118.984675 C109.687276,125.650969 101.460315,130.583871 91.4993071,129.373325 C69.5405669,126.703491 56.6816693,84.1987914 56.6816693,84.1987914 L78.1502677,79.2512577 Z" id="Path_5910" fill="#F1F2F2"></path>
                        <path d="M24.3518425,64.077 C26.4100472,63.918 27.7388976,63.9394601 27.7388976,63.9394601 L55.3411024,63.7053497 C55.3411024,63.7053497 56.1143937,63.8028957 57.179622,63.9599448 C59.9149601,74.1228061 61.9406092,84.4631681 63.2419528,94.9064172 C66.0334173,116.360687 66.4825512,138.07638 67.623937,159.286785 C61.9472756,160.317847 51.2373858,162.148785 40.6925039,163.343724 C39.5442835,144.959227 40.2834016,125.417834 38.2408189,106.982613 C36.5243465,91.4347546 32.8219213,76.6857975 24.3518425,64.077 Z" id="Path_5911" fill="#D34445"></path>
                        <path d="M62.547748,64.9197975 C74.5571969,68.0705337 77.4297008,74.6948834 77.4297008,74.6948834 C80.9182992,78.9293558 83.0399685,89.0770675 83.0399685,89.0770675 L71.2179843,95.0117669 C71.2179843,95.0117669 70.6848819,101.991184 71.1886929,118.227718 C71.6925039,134.464252 70.4202835,142.394742 70.5335433,153.312092 C70.5301213,157.903886 70.9083022,162.488036 71.664189,167.017307 C71.664189,167.017307 63.283937,168.285405 60.6926299,168.761429 C60.2327559,160.211521 61.4092913,145.732767 61.0890394,136.367374 C60.7150866,125.442221 61.8418268,106.823613 60.9484409,95.7082454 C59.7845984,81.2431472 60.7150866,76.8155337 57.1805984,63.9550675 C58.8521575,64.2018589 61.248189,64.579362 62.547748,64.9197975 Z" id="Path_5912" fill="#FF5254"></path>
                        <path d="M6.80633071,69.5249448 C12.2808819,65.5665276 19.9786457,64.4096319 24.3518425,64.0740736 C33.1724409,77.2047423 37.1052913,93.8997423 39.0326614,111.447294 C41.152378,130.736043 40.8506772,151.050975 41.9617953,168.797521 C29.6145197,170.198282 14.8936693,172.691558 11.3445354,170.038307 C7.84714961,167.423098 7.73193701,152.010828 5.93735433,136.540031 C3.6448189,116.788914 0.156220472,95.9735706 0.0244094488,91.1157791 C-0.211874016,82.4575951 1.4040315,73.434589 6.80633071,69.5249448 Z" id="Path_5913" fill="#FF5254"></path>
                        <g id="Group_5640" transform="translate(25.447339, 0.000000)">
                            <g id="Group_5637" fill="#2A4B80">
                                <path d="M1.0759685,19.7179509 C0.20503937,16.9632515 -0.0331968504,15.3400859 2.35307087,12.6370859 C5.1591811,9.45903681 7.7944252,10.065773 10.8739213,10.6451963 C12.248491,9.34877408 13.5263929,7.95372757 14.6974173,6.47120245 C15.607575,5.42609128 16.6443095,4.49813419 17.783748,3.70869939 C19.3342362,2.75372393 22.0231811,3.07367485 22.7222677,4.94168098 C24.7882835,2.58594479 27.2136063,-0.23898773 30.1778898,0.015607362 C32.9351811,0.252644172 33.9193701,2.33622699 33.8041575,5.41868098 C34.6828976,4.66367485 38.2027402,4.75341718 39.3861102,5.15238037 C41.3027402,5.79520859 42.1834331,7.99779755 42.7712126,9.98383436 C44.0307402,14.237816 43.6274961,21.0562822 38.8657008,21.9302945 C41.5995591,24.3923558 40.1252283,28.3527239 36.7606299,29.4208528 C34.9055118,30.0061288 32.3347087,29.4666994 30.4385827,29.4657239 C29.4284842,29.4505067 28.4259787,29.2885085 27.4625827,28.9848221 C23.6244409,34.9975583 17.747622,38.7940491 11.3259843,35.8998589 C8.07464567,34.4366687 4.87407874,30.4743497 2.48292913,27.4787117 C0.627811024,25.1463865 -1.24,22.6618896 1.0759685,19.7179509 Z" id="Path_5914"></path>
                            </g>
                            <g id="Group_5638" transform="translate(2.297417, 38.891595)" fill="#F1F2F2">
                                <path d="M3.90062992,24.8810613 L8.06488189,0 L23.2817323,9.3712454 L24.099937,24.8810613 L27.5612369,24.8810613 C27.5612369,24.8810613 27.6734803,32.4477055 16.0125984,32.6369448 C4.35171654,32.826184 -5.55006609e-14,24.8810613 -5.55006609e-14,24.8810613 L3.90062992,24.8810613 Z" id="Path_5915"></path>
                            </g>
                            <g id="Group_5639" transform="translate(4.565543, 20.340294)" fill="#F1F2F2">
                                <path d="M1.73404724,12.8526626 C2.49353314,12.8937354 3.23713508,13.0860942 3.92113386,13.4184294 C3.6623937,10.5710613 3.55206299,8.44358282 3.55206299,8.44358282 C3.55206299,8.44358282 2.96623622,4.02084663 5.24314961,1.5802454 C6.2751811,0.470171779 7.89792126,-0.230208589 10.4325984,0.0790122699 C16.6941102,0.843773006 16.5271496,3.14976074 20.8485984,4.23934969 C22.8804409,4.75146626 28.2505197,5.60499387 28.2505197,5.60499387 C28.2505197,5.60499387 29.7004409,17.3319755 29.5510551,21.6825276 C29.4016693,26.0330798 28.5834646,33.7879877 20.9667402,34.734184 C14.6037435,35.5617265 8.48665216,31.9823987 6.09650394,26.0330798 C5.39635656,23.9619707 4.91051128,21.8246267 4.64658268,19.654546 C3.74030645,19.4801581 2.87115294,19.1501177 2.07773228,18.6790859 C0.715421726,17.9088604 -0.0891670372,16.4310046 0.00390551181,14.8699141 C0.0546771654,13.3696564 0.783055118,12.8585153 1.73404724,12.8526626 Z" id="Path_5916"></path>
                            </g>
                        </g>
                        <g id="Group_5641" transform="translate(63.193134, 334.399436)" fill="#2A4B80">
                            <path d="M0.264598425,3.19268098 L0,9.99456442 L25.1964094,9.99456442 C25.1964094,9.99456442 27.0329764,8.19679141 25.3282205,6.59411043 C23.6234646,4.99142945 8.13322835,0.000975460123 8.13322835,0.000975460123 L0.264598425,3.19268098 Z" id="Path_5917"></path>
                            <path d="M0.264598425,3.19268098 L3.4319685,2.01627607 C3.63873542,2.39571826 3.81945613,2.78875851 3.97288189,3.19268098 C4.21697638,3.84428834 4.39467717,4.6012454 4.11640945,4.99728221 C3.32881974,5.60080908 2.41108201,6.0123173 1.43625197,6.19904908 C0.714708661,6.40194479 0.134740157,6.52777914 0.134740157,6.52777914 L0.264598425,3.19268098 Z" id="Path_5918"></path>
                        </g>
                        <g id="Group_5642" transform="translate(9.222866, 334.399436)" fill="#2A4B80">
                            <path d="M0.263622047,3.19268098 L5.55006609e-14,9.99456442 L25.8994016,9.99456442 C25.8994016,9.99456442 27.7867402,8.19679141 26.0312126,6.59411043 C24.275685,4.99142945 8.34900787,0.000975460123 8.34900787,0.000975460123 L0.263622047,3.19268098 Z" id="Path_5919"></path>
                            <path d="M0.263622047,3.19268098 L3.43099213,2.01627607 C3.63773753,2.39572903 3.81845756,2.7887678 3.97190551,3.19268098 C4.216,3.84428834 4.39370079,4.6012454 4.11640945,4.99728221 C3.3283501,5.6006361 2.41033937,6.01211682 1.43527559,6.19904908 C0.713732283,6.40194479 0.13376378,6.52777914 0.13376378,6.52777914 L0.263622047,3.19268098 Z" id="Path_5920"></path>
                        </g>
                        <path d="M23.5424252,95.5911902 C23.5424252,95.5911902 21.5642835,124.487245 30.8574488,132.292877 C36.4891969,137.022883 44.5765354,139.522012 51.6699213,140.142405 C54.5639055,140.396025 70.5608819,141.534387 70.5608819,141.534387 C71.7494876,140.241562 73.2968662,139.332075 75.0053543,138.922104 C79.6089764,137.924209 85.8431496,136.833644 86.0335433,137.924209 C86.223937,139.014773 80.6097638,140.673055 80.6097638,140.673055 C83.2000728,141.271485 85.7515117,142.026913 88.2499213,142.935147 C90.9300787,144.040344 93.8094173,145.785442 93.2802205,146.665307 C92.7510236,147.545172 86.9728189,145.632294 86.9728189,145.632294 C86.9728189,145.632294 93.6795591,147.94511 92.9375118,149.31173 C92.1954646,150.67835 85.3940157,147.595896 85.3940157,147.595896 C85.3940157,147.595896 90.6430236,150.388638 89.5924409,151.692828 C88.5418583,152.997018 82.7831811,149.286368 82.7831811,149.286368 C82.7831811,149.286368 86.2717795,152.049847 85.3217638,153.227227 C84.6236535,154.095387 79.1246929,150.364252 75.7649764,149.715571 C72.4720244,149.553703 69.1725973,149.575522 65.8820787,149.780926 C64.5151496,150.189644 52.1415118,152.668288 47.8522835,153.270147 C36.988126,154.794791 26.4627717,154.79089 17.5845669,148.160687 C0.314393701,135.272908 0.441309371,95.5911902 0.441309371,95.5911902 L23.5424252,95.5911902 Z" id="Path_5921" fill="#F1F2F2"></path>
                    </g>
                    <g id="Group_5643" transform="translate(221.306803, 89.672098)">
                        <polygon id="Rectangle_2016" fill="#A7A9AC" transform="translate(50.115944, 148.516871) rotate(-73.865795) translate(-50.115944, -148.516871) " points="17.8496071 141.273863 82.3786496 141.290069 82.3822808 155.759879 17.8532384 155.743673"></polygon>
                        <path d="M22.0651654,286.258528 C20.788063,290.67346 15.1729134,292.93165 9.52554331,291.300681 L8.1752126,290.910497 C2.52686614,289.279528 -1.01543307,284.374914 0.261669291,279.961933 L29.7541417,178.02635 C31.0322205,173.610442 36.6463937,171.353227 42.2947402,172.984196 L43.6460472,173.37438 C49.2924409,175.00535 52.8366929,179.909963 51.5547087,184.32392 L22.0651654,286.258528 Z" id="Path_5922" fill="#D1D3D4"></path>
                        <path d="M92.3770709,2.4093865 C68.7088169,-4.42541339 43.2500341,3.65680342 27.8721242,22.8873083 C12.4942144,42.1178132 10.2255971,68.709483 22.124126,90.262652 C34.022655,111.815821 57.745116,124.085957 82.229752,121.351508 C106.714388,118.61706 127.139363,101.416531 133.980535,77.7705092 C138.466732,62.2652227 136.603813,45.614524 128.801615,31.4815079 C120.999417,17.3484918 107.897079,6.89090752 92.3770709,2.4093865 Z M125.410866,75.2957669 C117.437074,102.855453 88.6105137,118.739069 61.0248727,110.772854 C33.4392317,102.806639 17.5405857,74.0072227 25.5142154,46.4474897 C33.4878451,18.8877567 62.3143121,3.00397143 89.9,10.9700245 C117.485553,18.9365995 133.384144,47.7359163 125.410866,75.2957669 L125.410866,75.2957669 Z" id="Path_5923" fill="#A7A9AC"></path>
                    </g>
                </g>
            </g>
        </g>
    </g>
</svg>