<?xml version="1.0" encoding="UTF-8"?>
<svg width="262px" height="281px" viewBox="0 0 262 281" version="1.1" xmlns="http://www.w3.org/2000/svg" xmlns:xlink="http://www.w3.org/1999/xlink">
    <!-- Generator: Sketch 63.1 (92452) - https://sketch.com -->
    <title>img_audience_mob</title>
    <desc>Created with Sketch.</desc>
    <g id="Page-1" stroke="none" stroke-width="1" fill="none" fill-rule="evenodd">
        <g id="FAQs---How-Much-Does-It-Cost-To-Advertise-On-Facebook---Mobile" transform="translate(-58.000000, -3726.000000)">
            <g id="img_audience_mob" transform="translate(58.000000, 3726.000000)">
                <path d="M20.7297411,16 L6.27025885,16 C2.80090663,16 0,18.734531 0,22.1161999 L0,36.1485116 C0,39.2364586 2.33580425,41.8434614 5.38317064,42.2732586 L5.38317064,57.8117602 C5.38317064,61.1934291 8.18922344,64 11.6560721,64 L15.3439279,64 C18.8134192,64 21.6141867,61.1934291 21.6141867,57.8117602 L21.6141867,42.27353 C24.6608577,41.8445467 27,39.2370013 27,36.1485116 L27,22.1161999 C27,18.734531 24.1965898,16 20.7297411,16" id="Fill-1" fill="#427FE0"></path>
                <path d="M13.0394454,13 C16.8636977,13 20,10.0877493 20,6.46330559 C20,2.91238462 16.8636977,0 13.0394454,0 C9.13630229,0 6,2.91238462 6,6.46330559 C6,10.0877493 9.13630229,13 13.0394454,13" id="Fill-2" fill="#427FE0"></path>
                <path d="M53.7297411,16 L39.2702589,16 C35.8009066,16 33,18.734531 33,22.1161999 L33,36.1485116 C33,39.2364586 35.3358042,41.8434614 38.3831706,42.2732586 L38.3831706,57.8117602 C38.3831706,61.1934291 41.1892234,64 44.6560721,64 L48.3439279,64 C51.8134192,64 54.6141867,61.1934291 54.6141867,57.8117602 L54.6141867,42.27353 C57.6608577,41.8445467 60,39.2370013 60,36.1485116 L60,22.1161999 C60,18.734531 57.1965898,16 53.7297411,16" id="Fill-1" fill="#427FE0"></path>
                <path d="M47.5366278,13 C51.0877193,13 54,10.0877493 54,6.46330559 C54,2.91238462 51.0877193,0 47.5366278,0 C43.9122807,0 41,2.91238462 41,6.46330559 C41,10.0877493 43.9122807,13 47.5366278,13" id="Fill-2" fill="#427FE0"></path>
                <path d="M87.7297411,16 L73.2702589,16 C69.8009066,16 67,18.734531 67,22.1161999 L67,36.1485116 C67,39.2364586 69.3358042,41.8434614 72.3831706,42.2732586 L72.3831706,57.8117602 C72.3831706,61.1934291 75.1892234,64 78.6560721,64 L82.3439279,64 C85.8134192,64 88.6141867,61.1934291 88.6141867,57.8117602 L88.6141867,42.27353 C91.6608577,41.8445467 94,39.2370013 94,36.1485116 L94,22.1161999 C94,18.734531 91.1965898,16 87.7297411,16" id="Fill-1" fill="#427FE0"></path>
                <path d="M81.0394454,13 C84.8636977,13 88,10.0877493 88,6.46330559 C88,2.91238462 84.8636977,0 81.0394454,0 C77.1363023,0 74,2.91238462 74,6.46330559 C74,10.0877493 77.1363023,13 81.0394454,13" id="Fill-2" fill="#427FE0"></path>
                <path d="M120.729741,16 L106.270259,16 C102.800907,16 100,18.734531 100,22.1161999 L100,36.1485116 C100,39.2364586 102.335804,41.8434614 105.383171,42.2732586 L105.383171,57.8117602 C105.383171,61.1934291 108.189223,64 111.656072,64 L115.343928,64 C118.813419,64 121.614187,61.1934291 121.614187,57.8117602 L121.614187,42.27353 C124.660858,41.8445467 127,39.2370013 127,36.1485116 L127,22.1161999 C127,18.734531 124.19659,16 120.729741,16" id="Fill-1" fill="#427FE0"></path>
                <path d="M115.039445,13 C118.863698,13 122,10.0877493 122,6.46330559 C122,2.91238462 118.863698,0 115.039445,0 C111.136302,0 108,2.91238462 108,6.46330559 C108,10.0877493 111.136302,13 115.039445,13" id="Fill-2" fill="#427FE0"></path>
                <path d="M154.961973,16 L141.038027,16 C137.697169,16 135,18.734531 135,22.1161999 L135,36.1485116 C135,39.2364586 137.249293,41.8434614 140.183794,42.2732586 L140.183794,57.8117602 C140.183794,61.1934291 142.885919,64 146.224366,64 L149.775634,64 C153.116626,64 155.813661,61.1934291 155.813661,57.8117602 L155.813661,42.27353 C158.747493,41.8445467 161,39.2370013 161,36.1485116 L161,22.1161999 C161,18.734531 158.30042,16 154.961973,16" id="Fill-1" fill="#427FE0"></path>
                <path d="M148.039445,13 C151.863698,13 155,10.0877493 155,6.46330559 C155,2.91238462 151.863698,0 148.039445,0 C144.136302,0 141,2.91238462 141,6.46330559 C141,10.0877493 144.136302,13 148.039445,13" id="Fill-2" fill="#427FE0"></path>
                <path d="M187.961973,16 L174.038027,16 C170.697169,16 168,18.734531 168,22.1161999 L168,36.1485116 C168,39.2364586 170.249293,41.8434614 173.183794,42.2732586 L173.183794,57.8117602 C173.183794,61.1934291 175.885919,64 179.224366,64 L182.775634,64 C186.116626,64 188.813661,61.1934291 188.813661,57.8117602 L188.813661,42.27353 C191.747493,41.8445467 194,39.2370013 194,36.1485116 L194,22.1161999 C194,18.734531 191.30042,16 187.961973,16" id="Fill-1" fill="#427FE0"></path>
                <path d="M182.039445,13 C185.863698,13 189,10.0877493 189,6.46330559 C189,2.91238462 185.863698,0 182.039445,0 C178.136302,0 175,2.91238462 175,6.46330559 C175,10.0877493 178.136302,13 182.039445,13" id="Fill-2" fill="#427FE0"></path>
                <path d="M221.961973,16 L208.038027,16 C204.697169,16 202,18.734531 202,22.1161999 L202,36.1485116 C202,39.2364586 204.249293,41.8434614 207.183794,42.2732586 L207.183794,57.8117602 C207.183794,61.1934291 209.885919,64 213.224366,64 L216.775634,64 C220.116626,64 222.813661,61.1934291 222.813661,57.8117602 L222.813661,42.27353 C225.747493,41.8445467 228,39.2370013 228,36.1485116 L228,22.1161999 C228,18.734531 225.30042,16 221.961973,16" id="Fill-1" fill="#427FE0"></path>
                <path d="M215.039445,13 C218.863698,13 222,10.0877493 222,6.46330559 C222,2.91238462 218.863698,0 215.039445,0 C211.136302,0 208,2.91238462 208,6.46330559 C208,10.0877493 211.136302,13 215.039445,13" id="Fill-2" fill="#427FE0"></path>
                <path d="M255.729741,16 L241.270259,16 C237.800907,16 235,18.734531 235,22.1161999 L235,36.1485116 C235,39.2364586 237.335804,41.8434614 240.383171,42.2732586 L240.383171,57.8117602 C240.383171,61.1934291 243.189223,64 246.656072,64 L250.343928,64 C253.813419,64 256.614187,61.1934291 256.614187,57.8117602 L256.614187,42.27353 C259.660858,41.8445467 262,39.2370013 262,36.1485116 L262,22.1161999 C262,18.734531 259.19659,16 255.729741,16" id="Fill-1" fill="#427FE0"></path>
                <path d="M249.039445,13 C252.863698,13 256,10.0877493 256,6.46330559 C256,2.91238462 252.863698,0 249.039445,0 C245.136302,0 242,2.91238462 242,6.46330559 C242,10.0877493 245.136302,13 249.039445,13" id="Fill-2" fill="#427FE0"></path>
                <path d="M20.7297411,87 L6.27025885,87 C2.80090663,87 0,89.7915004 0,93.2436208 L0,107.568272 C0,110.720551 2.33580425,113.381867 5.38317064,113.820618 L5.38317064,129.682839 C5.38317064,133.134959 8.18922344,136 11.6560721,136 L15.3439279,136 C18.8134192,136 21.6141867,133.134959 21.6141867,129.682839 L21.6141867,113.820895 C24.6608577,113.382975 27,110.721105 27,107.568272 L27,93.2436208 C27,89.7915004 24.1965898,87 20.7297411,87" id="Fill-1" fill="#427FE0"></path>
                <path d="M13.0394454,85 C16.8636977,85 20,82.0877493 20,78.4633056 C20,74.9123846 16.8636977,72 13.0394454,72 C9.13630229,72 6,74.9123846 6,78.4633056 C6,82.0877493 9.13630229,85 13.0394454,85" id="Fill-2" fill="#427FE0"></path>
                <path d="M53.7297411,87 L39.2702589,87 C35.8009066,87 33,89.7915004 33,93.2436208 L33,107.568272 C33,110.720551 35.3358042,113.381867 38.3831706,113.820618 L38.3831706,129.682839 C38.3831706,133.134959 41.1892234,136 44.6560721,136 L48.3439279,136 C51.8134192,136 54.6141867,133.134959 54.6141867,129.682839 L54.6141867,113.820895 C57.6608577,113.382975 60,110.721105 60,107.568272 L60,93.2436208 C60,89.7915004 57.1965898,87 53.7297411,87" id="Fill-1" fill="#427FE0"></path>
                <path d="M47.5366278,85 C51.0877193,85 54,82.0877493 54,78.4633056 C54,74.9123846 51.0877193,72 47.5366278,72 C43.9122807,72 41,74.9123846 41,78.4633056 C41,82.0877493 43.9122807,85 47.5366278,85" id="Fill-2" fill="#427FE0"></path>
                <path d="M87.7297411,87 L73.2702589,87 C69.8009066,87 67,89.7915004 67,93.2436208 L67,107.568272 C67,110.720551 69.3358042,113.381867 72.3831706,113.820618 L72.3831706,129.682839 C72.3831706,133.134959 75.1892234,136 78.6560721,136 L82.3439279,136 C85.8134192,136 88.6141867,133.134959 88.6141867,129.682839 L88.6141867,113.820895 C91.6608577,113.382975 94,110.721105 94,107.568272 L94,93.2436208 C94,89.7915004 91.1965898,87 87.7297411,87" id="Fill-1" fill="#FF5254"></path>
                <path d="M81.0394454,85 C84.8636977,85 88,82.0877493 88,78.4633056 C88,74.9123846 84.8636977,72 81.0394454,72 C77.1363023,72 74,74.9123846 74,78.4633056 C74,82.0877493 77.1363023,85 81.0394454,85" id="Fill-2" fill="#FF5254"></path>
                <path d="M120.729741,87 L106.270259,87 C102.800907,87 100,89.7915004 100,93.2436208 L100,107.568272 C100,110.720551 102.335804,113.381867 105.383171,113.820618 L105.383171,129.682839 C105.383171,133.134959 108.189223,136 111.656072,136 L115.343928,136 C118.813419,136 121.614187,133.134959 121.614187,129.682839 L121.614187,113.820895 C124.660858,113.382975 127,110.721105 127,107.568272 L127,93.2436208 C127,89.7915004 124.19659,87 120.729741,87" id="Fill-1" fill="#FF5254"></path>
                <path d="M115.039445,85 C118.863698,85 122,82.0877493 122,78.4633056 C122,74.9123846 118.863698,72 115.039445,72 C111.136302,72 108,74.9123846 108,78.4633056 C108,82.0877493 111.136302,85 115.039445,85" id="Fill-2" fill="#FF5254"></path>
                <path d="M154.961973,87 L141.038027,87 C137.697169,87 135,89.7915004 135,93.2436208 L135,107.568272 C135,110.720551 137.249293,113.381867 140.183794,113.820618 L140.183794,129.682839 C140.183794,133.134959 142.885919,136 146.224366,136 L149.775634,136 C153.116626,136 155.813661,133.134959 155.813661,129.682839 L155.813661,113.820895 C158.747493,113.382975 161,110.721105 161,107.568272 L161,93.2436208 C161,89.7915004 158.30042,87 154.961973,87" id="Fill-1" fill="#FF5254"></path>
                <path d="M148.039445,85 C151.863698,85 155,82.0877493 155,78.4633056 C155,74.9123846 151.863698,72 148.039445,72 C144.136302,72 141,74.9123846 141,78.4633056 C141,82.0877493 144.136302,85 148.039445,85" id="Fill-2" fill="#FF5254"></path>
                <path d="M187.961973,87 L174.038027,87 C170.697169,87 168,89.7915004 168,93.2436208 L168,107.568272 C168,110.720551 170.249293,113.381867 173.183794,113.820618 L173.183794,129.682839 C173.183794,133.134959 175.885919,136 179.224366,136 L182.775634,136 C186.116626,136 188.813661,133.134959 188.813661,129.682839 L188.813661,113.820895 C191.747493,113.382975 194,110.721105 194,107.568272 L194,93.2436208 C194,89.7915004 191.30042,87 187.961973,87" id="Fill-1" fill="#FF5254"></path>
                <path d="M182.039445,85 C185.863698,85 189,82.0877493 189,78.4633056 C189,74.9123846 185.863698,72 182.039445,72 C178.136302,72 175,74.9123846 175,78.4633056 C175,82.0877493 178.136302,85 182.039445,85" id="Fill-2" fill="#FF5254"></path>
                <path d="M221.961973,87 L208.038027,87 C204.697169,87 202,89.7915004 202,93.2436208 L202,107.568272 C202,110.720551 204.249293,113.381867 207.183794,113.820618 L207.183794,129.682839 C207.183794,133.134959 209.885919,136 213.224366,136 L216.775634,136 C220.116626,136 222.813661,133.134959 222.813661,129.682839 L222.813661,113.820895 C225.747493,113.382975 228,110.721105 228,107.568272 L228,93.2436208 C228,89.7915004 225.30042,87 221.961973,87" id="Fill-1" fill="#427FE0"></path>
                <path d="M215.039445,85 C218.863698,85 222,82.0877493 222,78.4633056 C222,74.9123846 218.863698,72 215.039445,72 C211.136302,72 208,74.9123846 208,78.4633056 C208,82.0877493 211.136302,85 215.039445,85" id="Fill-2" fill="#427FE0"></path>
                <path d="M255.729741,87 L241.270259,87 C237.800907,87 235,89.7915004 235,93.2436208 L235,107.568272 C235,110.720551 237.335804,113.381867 240.383171,113.820618 L240.383171,129.682839 C240.383171,133.134959 243.189223,136 246.656072,136 L250.343928,136 C253.813419,136 256.614187,133.134959 256.614187,129.682839 L256.614187,113.820895 C259.660858,113.382975 262,110.721105 262,107.568272 L262,93.2436208 C262,89.7915004 259.19659,87 255.729741,87" id="Fill-1" fill="#427FE0"></path>
                <path d="M249.039445,85 C252.863698,85 256,82.0877493 256,78.4633056 C256,74.9123846 252.863698,72 249.039445,72 C245.136302,72 242,74.9123846 242,78.4633056 C242,82.0877493 245.136302,85 249.039445,85" id="Fill-2" fill="#427FE0"></path>
                <path d="M20.7297411,160 L6.27025885,160 C2.80090663,160 0,162.734531 0,166.1162 L0,180.148512 C0,183.236459 2.33580425,185.843461 5.38317064,186.273259 L5.38317064,201.81176 C5.38317064,205.193429 8.18922344,208 11.6560721,208 L15.3439279,208 C18.8134192,208 21.6141867,205.193429 21.6141867,201.81176 L21.6141867,186.27353 C24.6608577,185.844547 27,183.237001 27,180.148512 L27,166.1162 C27,162.734531 24.1965898,160 20.7297411,160" id="Fill-1" fill="#427FE0"></path>
                <path d="M13.0394454,158 C16.8636977,158 20,155.087749 20,151.463306 C20,147.912385 16.8636977,145 13.0394454,145 C9.13630229,145 6,147.912385 6,151.463306 C6,155.087749 9.13630229,158 13.0394454,158" id="Fill-2" fill="#427FE0"></path>
                <path d="M53.7297411,160 L39.2702589,160 C35.8009066,160 33,162.734531 33,166.1162 L33,180.148512 C33,183.236459 35.3358042,185.843461 38.3831706,186.273259 L38.3831706,201.81176 C38.3831706,205.193429 41.1892234,208 44.6560721,208 L48.3439279,208 C51.8134192,208 54.6141867,205.193429 54.6141867,201.81176 L54.6141867,186.27353 C57.6608577,185.844547 60,183.237001 60,180.148512 L60,166.1162 C60,162.734531 57.1965898,160 53.7297411,160" id="Fill-1" fill="#427FE0"></path>
                <path d="M47.5366278,158 C51.0877193,158 54,155.087749 54,151.463306 C54,147.912385 51.0877193,145 47.5366278,145 C43.9122807,145 41,147.912385 41,151.463306 C41,155.087749 43.9122807,158 47.5366278,158" id="Fill-2" fill="#427FE0"></path>
                <path d="M87.7297411,160 L73.2702589,160 C69.8009066,160 67,162.734531 67,166.1162 L67,180.148512 C67,183.236459 69.3358042,185.843461 72.3831706,186.273259 L72.3831706,201.81176 C72.3831706,205.193429 75.1892234,208 78.6560721,208 L82.3439279,208 C85.8134192,208 88.6141867,205.193429 88.6141867,201.81176 L88.6141867,186.27353 C91.6608577,185.844547 94,183.237001 94,180.148512 L94,166.1162 C94,162.734531 91.1965898,160 87.7297411,160" id="Fill-1" fill="#FF5254"></path>
                <path d="M81.0394454,158 C84.8636977,158 88,155.087749 88,151.463306 C88,147.912385 84.8636977,145 81.0394454,145 C77.1363023,145 74,147.912385 74,151.463306 C74,155.087749 77.1363023,158 81.0394454,158" id="Fill-2" fill="#FF5254"></path>
                <path d="M120.729741,160 L106.270259,160 C102.800907,160 100,162.734531 100,166.1162 L100,180.148512 C100,183.236459 102.335804,185.843461 105.383171,186.273259 L105.383171,201.81176 C105.383171,205.193429 108.189223,208 111.656072,208 L115.343928,208 C118.813419,208 121.614187,205.193429 121.614187,201.81176 L121.614187,186.27353 C124.660858,185.844547 127,183.237001 127,180.148512 L127,166.1162 C127,162.734531 124.19659,160 120.729741,160" id="Fill-1" fill="#FF5254"></path>
                <path d="M115.039445,158 C118.863698,158 122,155.087749 122,151.463306 C122,147.912385 118.863698,145 115.039445,145 C111.136302,145 108,147.912385 108,151.463306 C108,155.087749 111.136302,158 115.039445,158" id="Fill-2" fill="#FF5254"></path>
                <path d="M154.961973,160 L141.038027,160 C137.697169,160 135,162.734531 135,166.1162 L135,180.148512 C135,183.236459 137.249293,185.843461 140.183794,186.273259 L140.183794,201.81176 C140.183794,205.193429 142.885919,208 146.224366,208 L149.775634,208 C153.116626,208 155.813661,205.193429 155.813661,201.81176 L155.813661,186.27353 C158.747493,185.844547 161,183.237001 161,180.148512 L161,166.1162 C161,162.734531 158.30042,160 154.961973,160" id="Fill-1" fill="#FF5254"></path>
                <path d="M148.039445,158 C151.863698,158 155,155.087749 155,151.463306 C155,147.912385 151.863698,145 148.039445,145 C144.136302,145 141,147.912385 141,151.463306 C141,155.087749 144.136302,158 148.039445,158" id="Fill-2" fill="#FF5254"></path>
                <path d="M187.961973,160 L174.038027,160 C170.697169,160 168,162.734531 168,166.1162 L168,180.148512 C168,183.236459 170.249293,185.843461 173.183794,186.273259 L173.183794,201.81176 C173.183794,205.193429 175.885919,208 179.224366,208 L182.775634,208 C186.116626,208 188.813661,205.193429 188.813661,201.81176 L188.813661,186.27353 C191.747493,185.844547 194,183.237001 194,180.148512 L194,166.1162 C194,162.734531 191.30042,160 187.961973,160" id="Fill-1" fill="#FF5254"></path>
                <path d="M182.039445,158 C185.863698,158 189,155.087749 189,151.463306 C189,147.912385 185.863698,145 182.039445,145 C178.136302,145 175,147.912385 175,151.463306 C175,155.087749 178.136302,158 182.039445,158" id="Fill-2" fill="#FF5254"></path>
                <path d="M221.961973,160 L208.038027,160 C204.697169,160 202,162.734531 202,166.1162 L202,180.148512 C202,183.236459 204.249293,185.843461 207.183794,186.273259 L207.183794,201.81176 C207.183794,205.193429 209.885919,208 213.224366,208 L216.775634,208 C220.116626,208 222.813661,205.193429 222.813661,201.81176 L222.813661,186.27353 C225.747493,185.844547 228,183.237001 228,180.148512 L228,166.1162 C228,162.734531 225.30042,160 221.961973,160" id="Fill-1" fill="#427FE0"></path>
                <path d="M215.039445,158 C218.863698,158 222,155.087749 222,151.463306 C222,147.912385 218.863698,145 215.039445,145 C211.136302,145 208,147.912385 208,151.463306 C208,155.087749 211.136302,158 215.039445,158" id="Fill-2" fill="#427FE0"></path>
                <path d="M255.729741,160 L241.270259,160 C237.800907,160 235,162.734531 235,166.1162 L235,180.148512 C235,183.236459 237.335804,185.843461 240.383171,186.273259 L240.383171,201.81176 C240.383171,205.193429 243.189223,208 246.656072,208 L250.343928,208 C253.813419,208 256.614187,205.193429 256.614187,201.81176 L256.614187,186.27353 C259.660858,185.844547 262,183.237001 262,180.148512 L262,166.1162 C262,162.734531 259.19659,160 255.729741,160" id="Fill-1" fill="#427FE0"></path>
                <path d="M249.039445,158 C252.863698,158 256,155.087749 256,151.463306 C256,147.912385 252.863698,145 249.039445,145 C245.136302,145 242,147.912385 242,151.463306 C242,155.087749 245.136302,158 249.039445,158" id="Fill-2" fill="#427FE0"></path>
                <path d="M20.7297411,232 L6.27025885,232 C2.80090663,232 0,234.7915 0,238.243621 L0,252.568272 C0,255.720551 2.33580425,258.381867 5.38317064,258.820618 L5.38317064,274.682839 C5.38317064,278.134959 8.18922344,281 11.6560721,281 L15.3439279,281 C18.8134192,281 21.6141867,278.134959 21.6141867,274.682839 L21.6141867,258.820895 C24.6608577,258.382975 27,255.721105 27,252.568272 L27,238.243621 C27,234.7915 24.1965898,232 20.7297411,232" id="Fill-1" fill="#427FE0"></path>
                <path d="M13.0394454,230 C16.8636977,230 20,227.087749 20,223.463306 C20,219.912385 16.8636977,217 13.0394454,217 C9.13630229,217 6,219.912385 6,223.463306 C6,227.087749 9.13630229,230 13.0394454,230" id="Fill-2" fill="#427FE0"></path>
                <path d="M53.7297411,232 L39.2702589,232 C35.8009066,232 33,234.7915 33,238.243621 L33,252.568272 C33,255.720551 35.3358042,258.381867 38.3831706,258.820618 L38.3831706,274.682839 C38.3831706,278.134959 41.1892234,281 44.6560721,281 L48.3439279,281 C51.8134192,281 54.6141867,278.134959 54.6141867,274.682839 L54.6141867,258.820895 C57.6608577,258.382975 60,255.721105 60,252.568272 L60,238.243621 C60,234.7915 57.1965898,232 53.7297411,232" id="Fill-1" fill="#427FE0"></path>
                <path d="M47.5366278,230 C51.0877193,230 54,227.087749 54,223.463306 C54,219.912385 51.0877193,217 47.5366278,217 C43.9122807,217 41,219.912385 41,223.463306 C41,227.087749 43.9122807,230 47.5366278,230" id="Fill-2" fill="#427FE0"></path>
                <path d="M87.7297411,232 L73.2702589,232 C69.8009066,232 67,234.7915 67,238.243621 L67,252.568272 C67,255.720551 69.3358042,258.381867 72.3831706,258.820618 L72.3831706,274.682839 C72.3831706,278.134959 75.1892234,281 78.6560721,281 L82.3439279,281 C85.8134192,281 88.6141867,278.134959 88.6141867,274.682839 L88.6141867,258.820895 C91.6608577,258.382975 94,255.721105 94,252.568272 L94,238.243621 C94,234.7915 91.1965898,232 87.7297411,232" id="Fill-1" fill="#427FE0"></path>
                <path d="M81.0394454,230 C84.8636977,230 88,227.087749 88,223.463306 C88,219.912385 84.8636977,217 81.0394454,217 C77.1363023,217 74,219.912385 74,223.463306 C74,227.087749 77.1363023,230 81.0394454,230" id="Fill-2" fill="#427FE0"></path>
                <path d="M120.729741,232 L106.270259,232 C102.800907,232 100,234.7915 100,238.243621 L100,252.568272 C100,255.720551 102.335804,258.381867 105.383171,258.820618 L105.383171,274.682839 C105.383171,278.134959 108.189223,281 111.656072,281 L115.343928,281 C118.813419,281 121.614187,278.134959 121.614187,274.682839 L121.614187,258.820895 C124.660858,258.382975 127,255.721105 127,252.568272 L127,238.243621 C127,234.7915 124.19659,232 120.729741,232" id="Fill-1" fill="#427FE0"></path>
                <path d="M115.039445,230 C118.863698,230 122,227.087749 122,223.463306 C122,219.912385 118.863698,217 115.039445,217 C111.136302,217 108,219.912385 108,223.463306 C108,227.087749 111.136302,230 115.039445,230" id="Fill-2" fill="#427FE0"></path>
                <path d="M154.961973,232 L141.038027,232 C137.697169,232 135,234.7915 135,238.243621 L135,252.568272 C135,255.720551 137.249293,258.381867 140.183794,258.820618 L140.183794,274.682839 C140.183794,278.134959 142.885919,281 146.224366,281 L149.775634,281 C153.116626,281 155.813661,278.134959 155.813661,274.682839 L155.813661,258.820895 C158.747493,258.382975 161,255.721105 161,252.568272 L161,238.243621 C161,234.7915 158.30042,232 154.961973,232" id="Fill-1" fill="#427FE0"></path>
                <path d="M148.039445,230 C151.863698,230 155,227.087749 155,223.463306 C155,219.912385 151.863698,217 148.039445,217 C144.136302,217 141,219.912385 141,223.463306 C141,227.087749 144.136302,230 148.039445,230" id="Fill-2" fill="#427FE0"></path>
                <path d="M187.961973,232 L174.038027,232 C170.697169,232 168,234.7915 168,238.243621 L168,252.568272 C168,255.720551 170.249293,258.381867 173.183794,258.820618 L173.183794,274.682839 C173.183794,278.134959 175.885919,281 179.224366,281 L182.775634,281 C186.116626,281 188.813661,278.134959 188.813661,274.682839 L188.813661,258.820895 C191.747493,258.382975 194,255.721105 194,252.568272 L194,238.243621 C194,234.7915 191.30042,232 187.961973,232" id="Fill-1" fill="#427FE0"></path>
                <path d="M182.039445,230 C185.863698,230 189,227.087749 189,223.463306 C189,219.912385 185.863698,217 182.039445,217 C178.136302,217 175,219.912385 175,223.463306 C175,227.087749 178.136302,230 182.039445,230" id="Fill-2" fill="#427FE0"></path>
                <path d="M221.961973,232 L208.038027,232 C204.697169,232 202,234.7915 202,238.243621 L202,252.568272 C202,255.720551 204.249293,258.381867 207.183794,258.820618 L207.183794,274.682839 C207.183794,278.134959 209.885919,281 213.224366,281 L216.775634,281 C220.116626,281 222.813661,278.134959 222.813661,274.682839 L222.813661,258.820895 C225.747493,258.382975 228,255.721105 228,252.568272 L228,238.243621 C228,234.7915 225.30042,232 221.961973,232" id="Fill-1" fill="#427FE0"></path>
                <path d="M215.039445,230 C218.863698,230 222,227.087749 222,223.463306 C222,219.912385 218.863698,217 215.039445,217 C211.136302,217 208,219.912385 208,223.463306 C208,227.087749 211.136302,230 215.039445,230" id="Fill-2" fill="#427FE0"></path>
                <path d="M255.729741,232 L241.270259,232 C237.800907,232 235,234.7915 235,238.243621 L235,252.568272 C235,255.720551 237.335804,258.381867 240.383171,258.820618 L240.383171,274.682839 C240.383171,278.134959 243.189223,281 246.656072,281 L250.343928,281 C253.813419,281 256.614187,278.134959 256.614187,274.682839 L256.614187,258.820895 C259.660858,258.382975 262,255.721105 262,252.568272 L262,238.243621 C262,234.7915 259.19659,232 255.729741,232" id="Fill-1" fill="#427FE0"></path>
                <path d="M249.039445,230 C252.863698,230 256,227.087749 256,223.463306 C256,219.912385 252.863698,217 249.039445,217 C245.136302,217 242,219.912385 242,223.463306 C242,227.087749 245.136302,230 249.039445,230" id="Fill-2" fill="#427FE0"></path>
            </g>
        </g>
    </g>
</svg>