<?xml version="1.0" encoding="UTF-8"?>
<svg width="486px" height="391px" viewBox="0 0 486 391" version="1.1" xmlns="http://www.w3.org/2000/svg" xmlns:xlink="http://www.w3.org/1999/xlink">
    <!-- Generator: Sketch 63.1 (92452) - https://sketch.com -->
    <title>img_backlink_source</title>
    <desc>Created with Sketch.</desc>
    <defs>
        <filter x="-6.3%" y="-9.2%" width="112.7%" height="118.4%" filterUnits="objectBoundingBox" id="filter-1">
            <feOffset dx="0" dy="5" in="SourceAlpha" result="shadowOffsetOuter1"></feOffset>
            <feGaussianBlur stdDeviation="5" in="shadowOffsetOuter1" result="shadowBlurOuter1"></feGaussianBlur>
            <feColorMatrix values="0 0 0 0 0   0 0 0 0 0   0 0 0 0 0  0 0 0 0.25 0" type="matrix" in="shadowBlurOuter1" result="shadowMatrixOuter1"></feColorMatrix>
            <feMerge>
                <feMergeNode in="shadowMatrixOuter1"></feMergeNode>
                <feMergeNode in="SourceGraphic"></feMergeNode>
            </feMerge>
        </filter>
        <linearGradient x1="0%" y1="30.744983%" x2="100%" y2="69.255017%" id="linearGradient-2">
            <stop stop-color="#ADDBFF" offset="0%"></stop>
            <stop stop-color="#AAD9FF" offset="0.0642956149%"></stop>
            <stop stop-color="#74B5FF" offset="100%"></stop>
        </linearGradient>
        <filter x="-29.5%" y="-26.6%" width="159.0%" height="153.2%" filterUnits="objectBoundingBox" id="filter-3">
            <feOffset dx="0" dy="5" in="SourceAlpha" result="shadowOffsetOuter1"></feOffset>
            <feGaussianBlur stdDeviation="5" in="shadowOffsetOuter1" result="shadowBlurOuter1"></feGaussianBlur>
            <feColorMatrix values="0 0 0 0 0   0 0 0 0 0   0 0 0 0 0  0 0 0 0.25 0" type="matrix" in="shadowBlurOuter1" result="shadowMatrixOuter1"></feColorMatrix>
            <feMerge>
                <feMergeNode in="shadowMatrixOuter1"></feMergeNode>
                <feMergeNode in="SourceGraphic"></feMergeNode>
            </feMerge>
        </filter>
        <polygon id="path-4" points="0 0.0204861434 99.9812205 0.0204861434 99.9812205 110.999929 0 110.999929"></polygon>
        <linearGradient x1="31.2859172%" y1="100%" x2="68.8172079%" y2="11.9473853%" id="linearGradient-6">
            <stop stop-color="#427FDF" offset="0%"></stop>
            <stop stop-color="#396BB1" offset="100%"></stop>
        </linearGradient>
        <filter x="-7.7%" y="-7.7%" width="115.4%" height="115.4%" filterUnits="objectBoundingBox" id="filter-7">
            <feOffset dx="0" dy="2" in="SourceAlpha" result="shadowOffsetOuter1"></feOffset>
            <feGaussianBlur stdDeviation="4.5" in="shadowOffsetOuter1" result="shadowBlurOuter1"></feGaussianBlur>
            <feColorMatrix values="0 0 0 0 0   0 0 0 0 0   0 0 0 0 0  0 0 0 0.3 0" type="matrix" in="shadowBlurOuter1" result="shadowMatrixOuter1"></feColorMatrix>
            <feMerge>
                <feMergeNode in="shadowMatrixOuter1"></feMergeNode>
                <feMergeNode in="SourceGraphic"></feMergeNode>
            </feMerge>
        </filter>
        <polygon id="path-8" points="33.8473129 22.2886807 22.7761131 33.330193 0.63621827 11.2496664 11.7074181 0.208154125"></polygon>
        <linearGradient x1="16.6709495%" y1="16.8494338%" x2="83.3336043%" y2="83.1550551%" id="linearGradient-10">
            <stop stop-color="#C5C6C8" offset="0%"></stop>
            <stop stop-color="#F1F1F2" offset="100%"></stop>
        </linearGradient>
        <polygon id="path-11" points="0.66377103 22.6425945 78.1496458 99.9231884 100.289541 77.8426618 22.8036659 0.562067935"></polygon>
        <linearGradient x1="74.1460738%" y1="99.7347095%" x2="24.1234557%" y2="8.45063194%" id="linearGradient-13">
            <stop stop-color="#427FDF" offset="0%"></stop>
            <stop stop-color="#396BB1" offset="100%"></stop>
        </linearGradient>
        <linearGradient x1="50%" y1="0%" x2="50%" y2="100%" id="linearGradient-14">
            <stop stop-color="#DA3E3F" offset="0%"></stop>
            <stop stop-color="#FF5254" offset="100%"></stop>
        </linearGradient>
        <linearGradient x1="50%" y1="0%" x2="50%" y2="100%" id="linearGradient-15">
            <stop stop-color="#DA3E3F" offset="0%"></stop>
            <stop stop-color="#FF5254" offset="100%"></stop>
        </linearGradient>
        <linearGradient x1="14.6447917%" y1="14.8342632%" x2="85.3554053%" y2="85.1654656%" id="linearGradient-16">
            <stop stop-color="#FEFEFE" offset="0%"></stop>
            <stop stop-color="#C5C6C8" offset="100%"></stop>
        </linearGradient>
        <path d="M161.692118,28.4015009 C198.680446,65.290644 198.680446,125.102166 161.692118,161.99131 C124.703791,198.880453 64.7314518,198.880453 27.7431243,161.99131 C-9.24770809,125.102166 -9.24770809,65.290644 27.7431243,28.4015009 C64.7314518,-8.48764216 124.703791,-8.48764216 161.692118,28.4015009" id="path-17"></path>
        <linearGradient x1="165.997457%" y1="218.346819%" x2="30.915411%" y2="3.38518291%" id="linearGradient-19">
            <stop stop-color="#427FDF" offset="0%"></stop>
            <stop stop-color="#396BB1" offset="100%"></stop>
        </linearGradient>
    </defs>
    <g id="Page-1" stroke="none" stroke-width="1" fill="none" fill-rule="evenodd">
        <g id="FAQs---What-is-a-Backlink" transform="translate(-806.000000, -5291.000000)">
            <g id="img_backlink_source" transform="translate(816.000000, 5296.000000)">
                <g id="img_analyse_website">
                    <g id="img_blogs" filter="url(#filter-1)">
                        <rect id="Rectangle" fill="#FFFFFF" x="0" y="0" width="465.175221" height="321" rx="13"></rect>
                        <path d="M13,0 L453,0 C460.179702,-3.09524665e-15 466,5.82029825 466,13 L466,54.4627249 L466,54.4627249 L0,54.4627249 L0,13 C-2.65561672e-15,5.82029825 5.82029825,-4.57467025e-16 13,0 Z" id="Rectangle-2" fill="#FF5254"></path>
                        <polygon id="Fill-5" fill="#E9ECED" points="0 83.344473 465.175221 83.344473 465.175221 54.4627249 0 54.4627249"></polygon>
                        <path d="M82.4778761,29.7080794 C82.4778761,33.8091219 79.15499,37.1336761 75.0560052,37.1336761 C70.9570204,37.1336761 67.6318584,33.8091219 67.6318584,29.7080794 C67.6318584,25.6070369 70.9570204,22.2802057 75.0560052,22.2802057 C79.15499,22.2802057 82.4778761,25.6070369 82.4778761,29.7080794" id="Fill-6" fill="#FFFFFF"></path>
                        <path d="M61.0336283,29.7080794 C61.0336283,33.8091219 57.7084663,37.1336761 53.6094815,37.1336761 C49.5104967,37.1336761 46.1876106,33.8091219 46.1876106,29.7080794 C46.1876106,25.6070369 49.5104967,22.2802057 53.6094815,22.2802057 C57.7084663,22.2802057 61.0336283,25.6070369 61.0336283,29.7080794" id="Fill-7" fill="#FFFFFF"></path>
                        <path d="M40.4141593,29.7080794 C40.4141593,33.8091219 37.0912732,37.1336761 32.9900125,37.1336761 C28.8910277,37.1336761 25.5681416,33.8091219 25.5681416,29.7080794 C25.5681416,25.6070369 28.8910277,22.2802057 32.9900125,22.2802057 C37.0912732,22.2802057 40.4141593,25.6070369 40.4141593,29.7080794" id="Fill-8" fill="#FFFFFF"></path>
                        <path d="M99.8238938,23.9305913 L394.218584,23.9305913 C395.599296,23.9305913 396.718584,25.0498794 396.718584,26.4305913 L396.718584,29.6825193 C396.718584,31.0632312 395.599296,32.1825193 394.218584,32.1825193 L99.8238938,32.1825193 C98.4431819,32.1825193 97.3238938,31.0632312 97.3238938,29.6825193 L97.3238938,26.4305913 C97.3238938,25.0498794 98.4431819,23.9305913 99.8238938,23.9305913 Z" id="Rectangle-3" fill="#FFFFFF"></path>
                        <polygon id="Fill-10" fill="#FFFFFF" points="425.171056 18.9794344 426.826108 24.02251 432.184071 24.02251 427.84884 27.1394438 429.506287 32.1825193 425.171056 29.0655855 420.83822 32.1825193 422.493273 27.1394438 418.162832 24.02251 423.518399 24.02251"></polygon>
                        <g id="Group-7" transform="translate(183.100885, 122.128535)" fill="#DADFE1">
                            <polygon id="Fill-16" points="0 57.7634961 132.653535 57.7634961 132.653535 47.6548843 0 47.6548843"></polygon>
                            <polygon id="Fill-17" points="0 33.2140103 188.282436 33.2140103 188.282436 23.1053985 0 23.1053985"></polygon>
                            <polygon id="Fill-18" points="0 10.1086118 242.484956 10.1086118 242.484956 0 0 0"></polygon>
                        </g>
                        <g id="Group-7-Copy" transform="translate(183.100885, 221.151671)" fill="#DADFE1">
                            <polygon id="Fill-16" points="0 57.7634961 132.653535 57.7634961 132.653535 47.6548843 0 47.6548843"></polygon>
                            <polygon id="Fill-17" points="0 33.2140103 188.282436 33.2140103 188.282436 23.1053985 0 23.1053985"></polygon>
                            <polygon id="Fill-18" points="0 10.1086118 242.484956 10.1086118 242.484956 0 0 0"></polygon>
                        </g>
                        <rect id="Rectangle-4" fill="url(#linearGradient-2)" x="29.6920354" y="110.575835" width="130.315044" height="80.8688946"></rect>
                        <g id="img_thumbs_up_mob" filter="url(#filter-3)" transform="translate(36.000000, 154.000000)">
                            <g id="Group-5">
                                <mask id="mask-5" fill="white">
                                    <use xlink:href="#path-4"></use>
                                </mask>
                                <g id="Clip-4"></g>
                                <path d="M58.8247769,0.0204153181 C55.9814355,0.0204153181 53.4839308,1.13685859 51.7928399,3.16411561 C48.8887808,6.64636097 49.5730666,11.0247828 50.0257942,13.922011 C50.0999021,14.3958324 50.2268782,15.208435 50.2622006,15.6503851 C49.4093829,18.5844424 44.0128982,30.7172935 39.5504959,35.4913929 C34.1999535,41.2145517 32.0963056,48.1273399 31.0853449,51.4492839 C31.0213951,51.6584547 30.9142734,52.0104566 30.8253902,52.2923414 C30.7515132,52.3820535 30.6640151,52.4849863 30.5642811,52.5994873 L29.4812903,52.7616773 L4.17818356,56.5484716 L-2.30865651e-05,57.1736232 L0.236845077,61.484997 L0.345351935,63.4648011 C1.31521856,81.1312352 9.35811628,97.5870283 22.4114913,108.612643 L23.2996315,109.363392 L25.2363635,110.999929 L27.6320564,110.226044 L28.7316695,109.870737 C35.4149994,107.711745 41.5200108,106.473246 45.4818963,106.473246 C45.8131886,106.473246 46.132014,106.482217 46.4291381,106.499688 C50.6784514,106.748285 53.6097526,107.055194 55.9652749,107.302139 L55.9842059,107.304027 C58.3819766,107.554985 60.4528415,107.771238 62.6453727,107.771238 L62.6583012,107.771238 L62.6716914,107.771238 L63.0260701,107.769114 L63.0399221,107.769114 L63.053774,107.768878 C67.6999453,107.713398 75.476655,107.620144 83.8399942,105.333667 L83.9958285,105.291172 L84.3529777,105.194141 L84.6905033,105.039978 L84.8435672,104.970097 C86.8045401,104.076517 89.6910534,102.600753 92.0848994,100.122103 C94.9559447,97.1497999 96.4117835,93.5247235 96.4117835,89.3472095 C96.4117835,88.800674 96.3826945,88.2659428 96.3247472,87.743724 C98.6807312,85.1888183 99.9814283,81.625596 99.9814283,77.5196155 C99.9814283,75.5053432 99.9814283,72.7492935 99.036726,70.122146 C99.9814283,67.5797527 99.9814283,64.9216781 99.9814283,62.9746898 L99.9814283,62.8682157 C99.9814283,61.6474231 99.9814283,59.3746383 99.3645553,57.0149744 C98.8504175,55.0479189 98.048621,53.543825 97.1452437,52.3950382 C97.4486012,51.2268924 97.6014343,50.090382 97.6014343,48.994478 C97.6014343,44.8788181 95.9715227,41.2249394 93.0125176,38.7056824 C90.2582903,36.3608918 86.5316569,35.1216847 82.2350162,35.1216847 C81.9739071,35.1216847 81.7395785,35.1320724 81.5666601,35.1398632 L81.3517242,35.1485983 L81.1850392,35.1554447 L81.0195085,35.1743315 L80.9412451,35.1833027 C78.7293212,35.4340244 76.6337536,35.8034965 75.1038069,36.0731049 L75.0292373,36.0863257 C74.593363,36.162817 73.9063068,36.2834562 73.5703973,36.3344504 L70.5864586,36.3344504 C71.4718284,32.2282339 72.2964806,29.1487486 72.9119684,27.7058005 C75.1111946,22.5532578 74.4010519,14.4192048 71.2231861,8.36599997 C68.8614305,3.86764721 65.2834745,0.981515038 61.147978,0.238557333 C60.3399482,0.0938375762 59.5586989,0.0204153181 58.8247769,0.0204153181 M40.0283878,100.09755 C42.179594,100.09755 46.1770328,99.6197152 46.7763601,99.6197152 C46.7915972,99.6197152 46.8045257,99.6201874 46.8151455,99.6206596 C55.5367883,100.131546 58.9104281,100.88135 62.6456035,100.88135 C62.754803,100.88135 62.864695,100.88135 62.9750488,100.879226 C67.5067108,100.825162 74.6891722,100.703579 82.0992672,98.6777384 C87.3440732,96.2883278 89.6742002,93.4062091 89.6742002,89.3472095 C89.6742002,87.1471386 88.8107627,85.7242578 87.3329916,84.8752982 C91.4019988,84.5945938 93.2440828,81.4289376 93.2440828,77.5562086 C93.2440828,73.9684335 93.2567735,70.6984281 89.5961676,70.0097698 C93.2805526,69.3994915 93.2440828,66.4836127 93.2440828,62.8682157 C93.2440828,58.8113409 92.7091601,55.2781013 88.363345,55.2781013 C88.3414128,55.2781013 90.8638509,51.8442532 90.8638509,48.994478 C90.8638509,44.9394918 87.870216,42.0113366 82.2350162,42.0113366 C82.051478,42.0113366 81.8725571,42.0238491 81.6904041,42.0304595 C78.0812813,42.4393577 74.6485399,43.2241024 73.8335841,43.2241024 L62.3766451,43.2241024 C62.3766451,43.2241024 64.6857633,29.7587907 66.7367738,24.9506952 C68.7894004,20.1416553 66.3105958,8.16107868 59.9827991,7.02456823 C59.549926,6.94689645 59.1657655,6.91030336 58.8247769,6.91030336 C54.1832229,6.91030336 57.6215051,13.7293661 56.9048981,16.9047017 C56.135192,20.3158856 49.9784667,34.3064851 44.4203761,40.2520354 C38.862978,46.1966414 37.6657087,53.8925217 36.8105823,55.5533757 C36.1265274,56.882295 31.6613547,61.7404404 27.7578782,63.7152867 C27.7578782,63.7152867 31.9425491,94.462923 38.7119918,99.9285137 C38.8636706,100.051041 39.3556453,100.09755 40.0283878,100.09755 M58.8247769,4.74210395 C59.2927416,4.74210395 59.8054942,4.79168168 60.3494137,4.88918455 C63.0999472,5.38330926 65.4531608,7.35791945 67.1551024,10.5993587 C69.6357539,15.3245886 70.3054951,22.0093193 68.6799701,25.8175972 C67.2749217,29.1114472 65.6907215,36.9806135 64.9263254,41.056139 L73.8335841,41.056139 C74.0725301,41.0459874 75.0373176,40.8755344 75.8880576,40.7263291 C77.36352,40.466164 79.3842871,40.1106209 81.4567681,39.8754808 L81.5350315,39.8667457 L81.7624342,39.8573023 C81.9194228,39.8499837 82.0759498,39.8431372 82.2350162,39.8431372 C88.7648204,39.8431372 92.9841211,43.435634 92.9841211,48.994478 C92.9841211,50.6293627 92.4171151,52.3178386 91.683424,53.8188634 C95.3641152,55.6808613 95.3641152,60.7139453 95.3641152,62.8682157 L95.3641152,62.9744537 C95.3641152,65.2746243 95.3641152,68.1350233 93.8136214,70.0768177 C95.3641152,72.1231976 95.3641152,75.1148595 95.3641152,77.5196155 C95.3641152,81.4308263 93.7787607,84.4489297 91.1217279,85.9707299 C91.5319762,86.8725725 91.7944704,87.9828775 91.7944704,89.3472095 C91.7944704,95.8789574 86.7537497,98.9303487 82.962243,100.658251 L82.8091791,100.728132 L82.6473422,100.772043 C74.8436213,102.905538 67.4293708,102.994306 62.9997515,103.047425 L62.6453727,103.04955 C60.6832455,103.04955 58.8090781,102.853128 56.43601,102.605003 C54.0315442,102.353101 51.038371,102.039581 46.6941719,101.785554 C46.3100115,101.763126 45.901841,101.751558 45.4818963,101.751558 C39.4378335,101.751558 31.521681,104.017496 27.3409348,105.368371 L26.2410908,105.723678 L25.3520272,104.972221 C13.2876806,94.7818731 5.85357562,79.556552 4.95527735,63.2001504 L4.84653963,61.2203464 L30.1498773,57.4335521 L30.0577619,59.5774348 C32.5153268,57.5600934 34.6155116,55.1414084 34.9352606,54.5417539 C35.0453835,54.3262088 35.2940258,53.5088845 35.4939555,52.8523337 C36.4700555,49.6453628 38.2867373,43.6757319 42.8881207,38.7538436 C48.2176544,33.0524046 54.1520561,19.4605517 54.8388814,16.4171873 C54.9884823,15.7547344 54.774239,14.3863891 54.5856218,13.1785811 C54.1917649,10.6586159 53.7840562,8.05295201 55.3056917,6.22849153 C55.8713126,5.55045704 56.9406823,4.74210395 58.8247769,4.74210395" id="Fill-3" fill="url(#linearGradient-6)" mask="url(#mask-5)"></path>
                            </g>
                            <path d="M92.8920964,77.8273908 C92.8920964,81.7005903 91.0605386,84.8668241 87.0147979,85.1478158 C88.4841191,85.9966942 89.3426195,87.4200708 89.3426195,89.6200708 C89.3426195,93.6802834 87.025816,96.562928 81.8112292,98.9527745 C74.4432753,100.978985 67.3021124,101.10059 62.7961328,101.154664 C58.946883,101.200708 55.6542813,100.421724 46.7288607,99.8958678 C46.1628013,99.8628099 39.3172931,100.727745 38.671811,100.203542 C31.9410756,94.736954 27.7803325,63.9839433 27.7803325,63.9839433 C31.6614891,62.0087367 36.1011301,57.1494687 36.7812736,55.8205431 C37.6315104,54.1593861 38.8219338,46.4621015 44.3477844,40.5161747 C49.8738646,34.5695396 55.995386,20.5763872 56.760691,17.1645809 C57.5255368,13.755608 53.5296074,6.14734357 59.8209926,7.28288076 C66.1126073,8.41959858 68.5772381,20.4021251 66.5363484,25.2120425 C64.4970655,30.0212515 62.2011507,43.4890201 62.2011507,43.4890201 L73.5925794,43.4890201 C74.4028753,43.4890201 77.8159884,42.7041322 81.4044744,42.2951594 C81.5855859,42.2883117 81.7637133,42.2757969 81.9459724,42.2757969 C87.5489504,42.2757969 90.5254679,45.2047226 90.5254679,49.2604486 C90.5254679,52.1107438 88.0174529,55.5452184 88.0392598,55.5452184 C92.3602257,55.5452184 92.8920964,59.0791027 92.8920964,63.1364817 C92.8920964,66.7527745 92.928351,69.6689492 89.2650331,70.2793388 C92.9047078,70.9683589 92.8920964,74.238961 92.8920964,77.8273908 L92.8920964,77.8273908 Z M95,63.1364817 C95,60.9820543 95,55.9480519 91.3403547,54.0857143 C92.0698505,52.5844156 92.6336145,50.8951594 92.6336145,49.2604486 C92.6336145,43.7003542 88.4384395,40.107438 81.9459724,40.107438 C81.7878155,40.107438 81.6321836,40.1142857 81.4763222,40.1213695 L81.2499903,40.1305785 L81.1721743,40.1400236 C79.1115437,40.3747344 77.1023313,40.7305785 75.6353055,40.9905549 C74.78943,41.1400236 73.8301591,41.3105077 73.5925794,41.3206612 L64.736252,41.3206612 C65.4962774,37.244392 67.0714191,29.3735537 68.4684335,26.0793388 C70.0846639,22.2701299 69.4187522,15.5844156 66.952285,10.8580874 C65.260075,7.6162928 62.9203169,5.64132231 60.185511,5.14710744 C59.6447016,5.04958678 59.1348809,5 58.669592,5 C56.7962705,5 55.7330154,5.80850059 55.1706288,6.4866588 C53.6576939,8.31145218 54.0630714,10.9173554 54.4546761,13.4380165 C54.6422148,14.6458087 54.8552331,16.0146399 54.7064876,16.6772137 C54.0235895,19.7208973 48.1231205,33.3154664 42.8240609,39.0179457 C38.248988,43.9404959 36.4426939,49.9109799 35.4721752,53.1187721 C35.2733887,53.7756789 35.0261681,54.5931523 34.9169044,54.8087367 C34.5987543,55.4085006 32.5105782,57.8276269 30.0670655,59.8453365 L30.1586542,57.7010626 L5,61.4885478 L5.10811597,63.468477 C6.0012778,79.827863 13.3928749,95.0561983 25.388238,105.248406 L26.2722181,106 L27.3657732,105.644628 C31.522614,104.293506 39.3937318,102.026919 45.4030054,102.026919 C45.8207784,102.026919 46.2263854,102.038489 46.6083492,102.061157 C50.9279379,102.31523 53.9037667,102.628571 56.2944839,102.880756 C58.6539829,103.128689 60.5174339,103.325148 62.4683417,103.325148 L62.8206942,103.323259 C67.2252147,103.27013 74.5968413,103.181346 82.3559408,101.047462 L82.5168523,101.003306 L82.669041,100.933412 C86.438868,99.2054309 91.4507661,96.1532468 91.4507661,89.6200708 C91.4507661,88.2559622 91.1897728,87.1454545 90.7818703,86.2434475 C93.4237103,84.7211334 95,81.7027155 95,77.790791 C95,75.3853601 95,72.3931523 93.4583717,70.3461629 C95,68.4044864 95,65.5435655 95,63.2427391 L95,63.1364817 Z" id="Fill-1" fill="#FFFFFF"></path>
                        </g>
                    </g>
                    <g id="Group" filter="url(#filter-7)" transform="translate(187.000000, 97.000000)">
                        <g id="Group-3" transform="translate(162.811762, 164.076393)">
                            <mask id="mask-9" fill="white">
                                <use xlink:href="#path-8"></use>
                            </mask>
                            <g id="Clip-2"></g>
                            <polygon id="Fill-1" fill="url(#linearGradient-10)" mask="url(#mask-9)" points="33.8473129 22.2886807 22.7761131 33.330193 0.63621827 11.2496664 11.7074181 0.208154125"></polygon>
                        </g>
                        <g id="Group-6" transform="translate(177.840540, 178.296276)">
                            <mask id="mask-12" fill="white">
                                <use xlink:href="#path-11"></use>
                            </mask>
                            <g id="Clip-5"></g>
                            <polygon id="Fill-4" fill="url(#linearGradient-13)" mask="url(#mask-12)" points="0.66377103 22.6425945 78.1496458 99.9231884 100.289541 77.8426618 22.8036659 0.562067935"></polygon>
                        </g>
                        <polygon id="Fill-7" fill="url(#linearGradient-14)" points="205.514031 183.71611 183.374136 205.796636 178.504812 200.940369 200.644707 178.859843"></polygon>
                        <polygon id="Fill-8" fill="url(#linearGradient-15)" points="251.121864 273.360949 255.991188 278.219714 278.131083 256.139187 273.261759 251.280422"></polygon>
                        <g id="Group-18" transform="translate(0.000000, 0.099923)">
                            <g id="SEO-AUDIT" transform="translate(7.514389, 7.494239)">
                                <mask id="mask-18" fill="white">
                                    <use xlink:href="#path-17"></use>
                                </mask>
                                <use id="Mask" fill-opacity="0.3" fill="url(#linearGradient-16)" style="mix-blend-mode: multiply;" xlink:href="#path-17"></use>
                            </g>
                            <path d="M102.231509,15.7214981 C78.9394081,15.7214981 57.0399737,24.7695428 40.5709378,41.1944169 C24.099397,57.619291 15.0295295,79.4600019 15.0295295,102.689645 C15.0295295,125.921786 24.099397,147.759999 40.568433,164.187371 C74.5685385,198.093807 129.891975,198.093807 163.894586,164.187371 C197.892186,130.275939 197.892186,75.1033509 163.894586,41.1944169 C147.423045,24.7695428 125.52361,15.7214981 102.231509,15.7214981 M102.231509,204.598807 C76.0513779,204.598807 49.8737514,194.661446 29.9430869,174.784226 C10.6336119,155.526529 0.000751438901,129.92371 0.000751438901,102.689645 C0.000751438901,75.4555801 10.6336119,49.8527612 29.9430869,30.5950647 C49.2525619,11.3398663 74.9242196,0.733019856 102.231509,0.733019856 C129.538799,0.733019856 155.210457,11.3398663 174.519932,30.5975628 C214.378756,70.3495052 214.378756,135.032283 174.519932,174.784226 C154.589267,194.661446 128.411641,204.598807 102.231509,204.598807" id="Fill-12" fill="url(#linearGradient-19)"></path>
                        </g>
                    </g>
                </g>
                <g id="link" transform="translate(235.000000, 146.000000)" fill="#FF5254" fill-rule="nonzero">
                    <path d="M100.608992,8.48157546 C89.4209469,-2.82719182 71.2191001,-2.82719182 60.0308421,8.48157546 L43.3591478,25.3331613 C40.4499033,28.2737973 38.0926355,32.0255618 36.5733185,36.6060646 C36.5478231,36.6146548 36.5231774,36.6277548 36.497682,36.636345 C33.0421972,47.1436478 35.6629181,58.5696711 43.3591478,66.3489451 C45.6586259,68.6732351 48.3641192,70.5871289 51.2943975,72 L52.3764674,70.9062544 C56.1187761,67.1235652 56.1187761,61.0170156 52.3764674,57.2341117 C46.1545126,50.9450206 46.1545126,40.7364416 52.3764674,34.4475652 L69.0481616,17.5959793 C75.2701163,11.3068882 85.3695057,11.3068882 91.5914604,17.5959793 C97.8134151,23.8850704 97.8134151,34.0934347 91.5914604,40.3825258 L78.9325392,53.1780398 C80.6205512,58.4534888 80.978125,64.0399026 80.161208,69.4772766 C81.4944081,68.5379396 82.7772547,67.5212909 83.9370857,66.3489451 L100.60878,49.4973592 C111.797038,38.1885919 111.797038,19.790128 100.608992,8.48157546 Z" id="Path"></path>
                    <path d="M65.6455325,42.6059026 C63.347342,40.2815459 60.6437882,38.3673824 57.6699215,37 L56.6332619,38.0484625 C52.8932609,41.8310455 52.8930486,47.9379852 56.6332619,51.7209977 C62.8517329,58.0102694 62.8517329,68.2191415 56.6332619,74.5081984 C51.3696984,79.8316905 44.9480149,86.3275621 39.9294955,91.4032202 C33.7110245,97.6924919 23.6172899,97.6924919 17.3988189,91.4032202 C11.1803479,85.1139485 11.1803479,74.9052912 17.3988189,68.6160195 L30.0920591,55.777186 C28.4049923,50.5015855 28.047831,44.9147966 28.8642906,39.4772665 C27.5316246,40.41706 26.2494963,41.4335231 25.0901024,42.6059026 L8.38633592,59.5009245 C-2.79544531,70.8100164 -2.79544531,89.2087938 8.38633592,100.5181 C19.5681171,111.827407 37.7597725,111.827192 48.9417661,100.5181 L65.6455325,83.6230787 C68.5531482,80.6821435 70.9090961,76.9304861 72.4275624,72.3498518 C72.4530436,72.3412613 72.4776754,72.3281609 72.5031566,72.3195705 C75.9567066,61.8117513 73.3374531,50.3853999 65.6455325,42.6059026 Z" id="Path"></path>
                    <path d="M93.0558318,87.5 L88.5000805,82.9443154 C87.2409748,81.6852282 85.2032202,81.6852282 83.9443292,82.9443154 C82.6852236,84.2034026 82.6852236,86.2411275 83.9443292,87.5 L88.5000805,92.0556846 C89.7591862,93.3147718 91.7969408,93.3147718 93.0558318,92.0556846 C94.3147227,90.7965974 94.3147227,88.7590872 93.0558318,87.5 Z" id="Path"></path>
                    <path d="M25.055703,20.5 L20.4998927,15.9443154 C19.24083,14.6852282 17.203145,14.6852282 15.944297,15.9443154 C14.6852343,17.2034026 14.6852343,19.2411275 15.944297,20.5 L20.4998927,25.0556846 C21.7589553,26.3147718 23.7966404,26.3147718 25.055703,25.0556846 C26.3147657,23.7965974 26.3147657,21.7588725 25.055703,20.5 Z" id="Path"></path>
                    <path d="M104.738781,64.7541366 L98.8424894,63.1090822 C97.2134998,62.6550624 95.5403791,63.6596209 95.1041516,65.3550514 C94.6677207,67.0608535 95.6440976,68.7952302 97.2621051,69.246075 L103.158396,70.8909178 C104.787386,71.3449376 106.460507,70.3403791 106.896734,68.6449486 C107.328488,66.9495181 106.367567,65.1994782 104.738781,64.7541366 Z" id="Path"></path>
                    <path d="M11.7385029,39.7541366 L5.84242983,38.1090822 C4.21350059,37.6550624 2.54044179,38.6596209 2.1042304,40.3550514 C1.66761229,42.0604301 2.64395303,43.7950186 4.26210409,44.2458634 L10.1581772,45.8909178 C11.7871065,46.3449376 13.4601652,45.3403791 13.8963766,43.6449486 C14.330351,41.9474014 13.361128,40.1969382 11.7385029,39.7541366 Z" id="Path"></path>
                    <path d="M70.8909002,103.15813 L69.2460169,97.2628087 C68.7898693,95.6277838 67.0505815,94.6690545 65.3551093,95.1052102 C63.6596371,95.541366 62.6550539,97.2142114 63.1090849,98.8429328 L64.7541798,104.738254 C65.2050357,106.356198 66.9396667,107.332211 68.6450874,106.895852 C70.3405596,106.459696 71.3449311,104.786851 70.8909002,103.15813 Z" id="Path"></path>
                    <path d="M45.8909187,10.1578376 L44.2458641,4.26167105 C43.7939609,2.62641166 42.0504824,1.67181552 40.3550517,2.10376315 C38.6596209,2.53998146 37.6550623,4.21306677 38.1090822,5.84202185 L39.7541368,11.7381884 C39.9031485,12.2734456 40.1929168,12.7371182 40.5743358,13.1037856 C41.3507203,13.8497291 42.5087355,14.1869085 43.6447376,13.8960963 C45.34038,13.4600814 46.3449386,11.7867927 45.8909187,10.1578376 Z" id="Path"></path>
                </g>
            </g>
        </g>
    </g>
</svg>