<?xml version="1.0" encoding="UTF-8"?>
<svg width="362px" height="398px" viewBox="0 0 362 398" version="1.1" xmlns="http://www.w3.org/2000/svg" xmlns:xlink="http://www.w3.org/1999/xlink">
    <!-- Generator: Sketch 63.1 (92452) - https://sketch.com -->
    <title>img_thumbs_up</title>
    <desc>Created with Sketch.</desc>
    <defs>
        <filter x="-8.6%" y="-7.8%" width="117.3%" height="115.6%" filterUnits="objectBoundingBox" id="filter-1">
            <feOffset dx="0" dy="5" in="SourceAlpha" result="shadowOffsetOuter1"></feOffset>
            <feGaussianBlur stdDeviation="5" in="shadowOffsetOuter1" result="shadowBlurOuter1"></feGaussianBlur>
            <feColorMatrix values="0 0 0 0 0   0 0 0 0 0   0 0 0 0 0  0 0 0 0.25 0" type="matrix" in="shadowBlurOuter1" result="shadowMatrixOuter1"></feColorMatrix>
            <feMerge>
                <feMergeNode in="shadowMatrixOuter1"></feMergeNode>
                <feMergeNode in="SourceGraphic"></feMergeNode>
            </feMerge>
        </filter>
        <polygon id="path-2" points="0 0.0699481833 341.935774 0.0699481833 341.935774 378.999758 0 378.999758"></polygon>
        <linearGradient x1="31.224639%" y1="100%" x2="68.8788238%" y2="11.9473853%" id="linearGradient-4">
            <stop stop-color="#427FDF" offset="0%"></stop>
            <stop stop-color="#396BB1" offset="100%"></stop>
        </linearGradient>
    </defs>
    <g id="Page-1" stroke="none" stroke-width="1" fill="none" fill-rule="evenodd">
        <g id="FAQs---What's-Google-My-Business" transform="translate(-807.000000, -1611.000000)">
            <g id="img_thumbs_up" filter="url(#filter-1)" transform="translate(817.000000, 1616.000000)">
                <g id="Group-5">
                    <mask id="mask-3" fill="white">
                        <use xlink:href="#path-2"></use>
                    </mask>
                    <g id="Clip-4"></g>
                    <path d="M201.180737,0.0697063563 C191.456509,0.0697063563 182.915044,3.88170637 177.131513,10.8036019 C167.19963,22.6934307 169.539888,37.6431774 171.088216,47.535515 C171.341665,49.1533378 171.775923,51.9278998 171.896726,53.4369005 C168.980089,63.4549881 150.524112,104.88157 135.262696,121.182323 C116.963841,140.723559 109.769365,164.326683 106.31188,175.669177 C106.093171,176.383373 105.726815,177.585253 105.422834,178.547724 C105.170175,178.854039 104.870932,179.205494 104.529841,179.596448 L100.826013,180.150231 L14.2893878,193.079916 L-7.89560526e-05,195.214443 L0.810010162,209.93526 L1.18110362,216.695132 C4.49804746,277.015659 32.0047577,333.202556 76.6473004,370.848575 L79.6847398,373.411942 L86.3083632,378.999758 L94.5016329,376.357395 L98.2623098,375.144229 C121.119298,367.772535 141.998437,363.543787 155.548085,363.543787 C156.681105,363.543787 157.771488,363.574418 158.787652,363.634069 C173.320304,364.482882 183.345354,365.530799 191.40124,366.373969 L191.465984,366.380418 C199.66636,367.237292 206.748718,367.97567 214.247175,367.97567 L214.29139,367.97567 L214.337184,367.97567 L215.54916,367.968415 L215.596534,367.968415 L215.643907,367.967609 C231.533813,367.778178 258.13016,367.459773 286.73278,359.65279 L287.265734,359.507694 L288.487184,359.176391 L289.641521,358.650014 L290.165,358.411411 C296.871527,355.36036 306.743403,350.321491 314.930356,341.858351 C324.749331,331.709677 329.7283,319.332164 329.7283,305.0684 C329.7283,303.202301 329.628815,301.376507 329.430635,299.593436 C337.488101,290.869929 341.936485,278.703611 341.936485,264.684093 C341.936485,257.806532 341.936485,248.396236 338.705603,239.426066 C341.936485,230.745282 341.936485,221.669514 341.936485,215.021689 L341.936485,214.658142 C341.936485,210.48985 341.936485,202.729621 339.826779,194.67275 C338.068428,187.956408 335.326284,182.820808 332.236734,178.898374 C333.274216,174.90984 333.796905,171.029322 333.796905,167.287452 C333.796905,153.234884 328.222608,140.759027 318.10281,132.15724 C308.683353,124.151153 295.938267,119.919986 281.243755,119.919986 C280.350762,119.919986 279.549358,119.955454 278.957978,119.982055 L278.222897,120.011881 L277.652834,120.035257 L277.086719,120.099744 L276.819058,120.130376 C269.254279,120.986444 262.087437,122.247975 256.85502,123.168529 L256.599992,123.21367 C255.109301,123.474844 252.759569,123.886756 251.610759,124.060871 L241.405689,124.060871 C244.433653,110.040546 247.253964,99.5259072 249.358932,94.5990846 C256.880286,77.0061685 254.451597,49.2331407 243.583297,28.5649909 C235.506092,13.2057504 223.269483,3.35129909 209.126085,0.814533595 C206.362623,0.320400373 203.69075,0.0697063563 201.180737,0.0697063563 M136.897086,341.774518 C144.254211,341.774518 157.925452,340.142992 159.975151,340.142992 C160.027262,340.142992 160.071478,340.144604 160.107798,340.146216 C189.935816,341.890595 201.473664,344.450737 214.247964,344.450737 C214.621426,344.450737 214.997257,344.450737 215.374667,344.443482 C230.872951,344.258888 255.436969,343.843751 280.779494,336.926692 C298.71673,328.768254 306.685765,318.927507 306.685765,305.0684 C306.685765,297.556446 303.732808,292.698141 298.678831,289.799441 C312.594836,288.841 318.894763,278.032138 318.894763,264.809037 C318.894763,252.558886 318.938165,241.393732 306.418893,239.042367 C319.01949,236.958624 318.894763,227.002606 318.894763,214.658142 C318.894763,200.80629 317.065328,188.742346 302.20264,188.742346 C302.127632,188.742346 310.75437,177.017765 310.75437,167.287452 C310.75437,153.442049 300.516139,143.444113 281.243755,143.444113 C280.616055,143.444113 280.004145,143.486836 279.381182,143.509407 C267.037982,144.905555 255.298006,147.584998 252.510858,147.584998 L213.328126,147.584998 C213.328126,147.584998 221.225311,101.608844 228.239767,85.1920133 C235.259749,68.7719583 226.782238,27.8653047 205.141173,23.984787 C203.660747,23.7195834 202.346918,23.5946394 201.180737,23.5946394 C185.306622,23.5946394 197.065548,46.8777454 194.614752,57.7196571 C191.982357,69.3668527 170.926356,117.136557 151.917686,137.43713 C132.911385,157.734478 128.816724,184.011403 125.892191,189.682247 C123.552724,194.219728 108.281833,210.80745 94.9319434,217.550393 C94.9319434,217.550393 109.243518,322.535566 132.395012,341.197358 C132.913753,341.615718 134.596307,341.774518 136.897086,341.774518 M201.180737,16.1915081 C202.781176,16.1915081 204.53479,16.360787 206.394995,16.6937022 C215.801819,18.3808487 223.84981,25.1229862 229.67045,36.1906031 C238.154278,52.3244962 240.444793,75.1489369 234.885498,88.1519761 C230.080232,99.398545 224.662268,126.26714 222.048033,140.182673 L252.510858,140.182673 C253.328053,140.148011 256.627626,139.566014 259.537157,139.056565 C264.583238,138.168254 271.494262,136.954282 278.582147,136.151416 L278.849808,136.121591 L279.627525,136.089347 C280.164426,136.064359 280.699748,136.040982 281.243755,136.040982 C303.575686,136.040982 318.005694,148.307255 318.005694,167.287452 C318.005694,172.869626 316.066534,178.634782 313.55731,183.759903 C326.145274,190.117535 326.145274,207.30257 326.145274,214.658142 L326.145274,215.020883 C326.145274,222.874618 326.145274,232.641206 320.842585,239.271297 C326.145274,246.258486 326.145274,256.473259 326.145274,264.684093 C326.145274,278.038587 320.723362,288.343643 311.636309,293.539699 C313.039358,296.618964 313.937089,300.410005 313.937089,305.0684 C313.937089,327.370494 296.697824,337.789209 283.730871,343.688982 L283.207392,343.927585 L282.65391,344.077517 C255.965185,351.362153 230.608448,351.665243 215.45915,351.846614 L214.247175,351.853868 C207.536699,351.853868 201.127047,351.183201 193.011154,350.336001 C184.787881,349.475903 174.551229,348.405415 159.694068,347.538062 C158.380239,347.461484 156.984296,347.421985 155.548085,347.421985 C134.87739,347.421985 107.804149,355.158838 93.5059971,359.771285 L89.7445307,360.984451 L86.703933,358.418666 C45.4438677,323.624594 20.0192286,271.639038 16.9470486,215.791505 L16.5751655,209.031633 L103.11258,196.101948 L102.797546,203.422052 C111.202418,196.534012 118.38505,188.27562 119.478591,186.228151 C119.855212,185.49219 120.705568,182.701507 121.389328,180.45977 C124.72759,169.509842 130.940642,149.127048 146.677373,132.321682 C164.904378,112.854607 185.200032,66.4463884 187.548974,56.0550811 C188.06061,53.7931923 187.327897,49.1210942 186.682826,44.9971373 C185.335836,36.3929317 183.941472,27.4961154 189.145466,21.2666512 C191.079889,18.9515605 194.737134,16.1915081 201.180737,16.1915081" id="Fill-3" fill="url(#linearGradient-4)" mask="url(#mask-3)"></path>
                </g>
                <path d="M317.786286,264.76683 C317.786286,277.997066 311.518288,288.812419 297.672864,289.772242 C302.701208,292.671876 305.639187,297.533905 305.639187,305.048757 C305.639187,318.9178 297.71057,328.764457 279.865095,336.927794 C254.65032,343.849007 230.211674,344.264393 214.79121,344.449098 C201.618222,344.60638 190.350207,341.945492 159.805434,340.149251 C157.868253,340.036331 134.441403,342.990812 132.23242,341.200217 C109.198348,322.527219 94.9593601,217.479806 94.9593601,217.479806 C108.24154,210.732814 123.434978,194.134324 125.762581,189.594924 C128.67228,183.920675 132.746173,157.627971 151.656862,137.317627 C170.568337,117.004863 191.517543,69.2064713 194.136587,57.5522812 C196.754059,45.90777 183.079101,19.9191439 204.609619,23.797959 C226.140923,27.680807 234.575437,68.6112196 227.591059,85.0411353 C220.61218,101.468631 212.755049,147.472395 212.755049,147.472395 L251.73905,147.472395 C254.512062,147.472395 266.192494,144.791343 278.47309,143.394356 C279.092894,143.370966 279.702485,143.328217 280.326217,143.328217 C299.500853,143.328217 309.687157,153.332963 309.687157,167.186681 C309.687157,176.922838 301.104172,188.654459 301.1788,188.654459 C315.966106,188.654459 317.786286,200.725648 317.786286,214.585012 C317.786286,226.937695 317.910357,236.898886 305.373669,238.98388 C317.829444,241.337464 317.786286,252.509322 317.786286,264.76683 L317.786286,264.76683 Z M325,214.585012 C325,207.225829 325,190.030474 312.47588,183.669024 C314.972377,178.540826 316.901703,172.770594 316.901703,167.186681 C316.901703,148.194279 302.544882,135.921447 280.326217,135.921447 C279.784969,135.921447 279.252362,135.944837 278.718969,135.969035 L277.944411,136.000491 L277.678108,136.032754 C270.626172,136.834489 263.7502,138.049996 258.729712,138.938034 C255.834938,139.448596 252.5521,140.030942 251.73905,140.065625 L221.430729,140.065625 C224.031705,126.141735 229.42219,99.2561983 234.203084,88.0036822 C239.734183,74.9920278 237.455285,52.1546869 229.014486,36.0102984 C223.223368,24.9368417 215.216196,18.1906554 205.857082,16.5024957 C204.006312,16.1693806 202.261592,16 200.66927,16 C194.258348,16 190.619653,18.7617099 188.695041,21.0781909 C183.517441,27.3113961 184.904733,36.2127485 186.244892,44.8229277 C186.886691,48.9485546 187.615687,53.624265 187.106646,55.8875121 C184.769617,66.2842531 164.576901,112.721147 146.442342,132.199913 C130.785426,149.014565 124.603886,169.408793 121.282555,180.366103 C120.602264,182.609992 119.75622,185.402352 119.382295,186.138754 C118.293515,188.187453 111.147312,196.450805 102.785069,203.342981 L103.098505,196.018481 L17,208.955931 L17.3699969,215.719055 C20.4265951,271.600126 45.7222829,323.617707 86.7730813,358.432674 L89.7982573,361 L93.540646,359.786106 C107.766279,355.170889 134.702993,347.428583 155.268063,347.428583 C156.697775,347.428583 158.085852,347.468105 159.393017,347.545536 C174.17561,348.41341 184.359557,349.483734 192.541123,350.345155 C200.615853,351.192058 206.992996,351.863128 213.669436,351.863128 L214.875264,351.856675 C229.948512,351.675196 255.175857,351.371924 281.72922,344.082913 L282.279895,343.932084 L282.800718,343.693338 C295.701904,337.790828 312.853733,327.365051 312.853733,305.048757 C312.853733,300.389178 311.960556,296.59586 310.564623,293.514746 C319.605586,288.314763 325,278.004325 325,264.641811 C325,256.42524 325,246.204332 319.724205,239.212141 C325,232.579681 325,222.807229 325,214.94797 L325,214.585012 Z" id="Fill-1" fill="#FFFFFF"></path>
            </g>
        </g>
    </g>
</svg>