<?xml version="1.0" encoding="UTF-8"?>
<svg width="412px" height="491px" viewBox="0 0 412 491" version="1.1" xmlns="http://www.w3.org/2000/svg" xmlns:xlink="http://www.w3.org/1999/xlink">
    <!-- Generator: Sketch 63.1 (92452) - https://sketch.com -->
    <title>img_poor_design</title>
    <desc>Created with Sketch.</desc>
    <defs>
        <filter x="-17.8%" y="-16.1%" width="135.5%" height="132.2%" filterUnits="objectBoundingBox" id="filter-1">
            <feOffset dx="0" dy="5" in="SourceAlpha" result="shadowOffsetOuter1"></feOffset>
            <feGaussianBlur stdDeviation="5" in="shadowOffsetOuter1" result="shadowBlurOuter1"></feGaussianBlur>
            <feColorMatrix values="0 0 0 0 0   0 0 0 0 0   0 0 0 0 0  0 0 0 0.25 0" type="matrix" in="shadowBlurOuter1" result="shadowMatrixOuter1"></feColorMatrix>
            <feMerge>
                <feMergeNode in="shadowMatrixOuter1"></feMergeNode>
                <feMergeNode in="SourceGraphic"></feMergeNode>
            </feMerge>
        </filter>
        <polygon id="path-2" points="0 0.0337744526 165.968826 0.0337744526 165.968826 182.999883 0 182.999883"></polygon>
    </defs>
    <g id="Page-1" stroke="none" stroke-width="1" fill="none" fill-rule="evenodd">
        <g id="FAQs---Why-Isn't-My-Website-Converting" transform="translate(-210.000000, -3831.000000)">
            <g id="img_poor_design" transform="translate(210.000000, 3836.000000)">
                <g id="Group-2" transform="translate(0.000000, 121.000000)" fill-rule="nonzero">
                    <path d="M347.372549,360.558628 C347.372549,363.018465 293.282833,365 226.6,365 C159.917167,365 105.827451,363.018465 105.827451,360.558628 C105.827451,358.098792 159.917167,356.117257 226.6,356.117257 C293.282833,356.117257 347.372549,358.098792 347.372549,360.558628 Z" id="Path" fill="#A0A0A0" opacity="0.6"></path>
                    <path d="M386.382634,307.665929 L25.6173657,307.665929 C11.4444444,307.665929 0,296.256903 0,282.127844 L0,25.5380855 C0,11.4090264 11.4444444,0 25.6173657,0 L386.382634,0 C400.555556,0 412,11.4090264 412,25.5380855 L412,282.127844 C412,296.256903 400.555556,307.665929 386.382634,307.665929 Z" id="Path" fill="#6F6F6F"></path>
                    <rect id="Rectangle" fill="#EFF1EC" x="20.1960784" y="20.1880531" width="370.8" height="236.603982"></rect>
                    <g id="Group" transform="translate(89.670588, 35.530973)">
                        <rect id="Rectangle" fill="#427FE0" x="0.807843137" y="16.9579646" width="80.7843137" height="27.4557522"></rect>
                        <polygon id="Rectangle" fill="#FF5254" points="0 55.7190265 115.117647 55.7190265 115.521569 103.362832 0 103.362832"></polygon>
                        <polygon id="Rectangle" fill="#427FE0" points="168.031373 88.0199115 283.14902 88.0199115 283.552941 135.663717 168.031373 135.663717"></polygon>
                        <rect id="Rectangle" fill="#AAAAAA" x="0.807843137" y="112.245575" width="68.6666667" height="47.6438053"></rect>
                        <rect id="Rectangle" fill="#AAAAAA" x="81.5921569" y="112.245575" width="68.6666667" height="47.6438053"></rect>
                        <rect id="Rectangle" fill="#AAAAAA" x="162.376471" y="0" width="68.6666667" height="47.6438053"></rect>
                        <rect id="Rectangle" fill="#AAAAAA" x="0.807843137" y="167.964602" width="68.6666667" height="3.2300885"></rect>
                        <rect id="Rectangle" fill="#AAAAAA" x="81.5921569" y="167.964602" width="68.6666667" height="3.2300885"></rect>
                        <rect id="Rectangle" fill="#AAAAAA" x="162.376471" y="167.964602" width="63.0117647" height="3.2300885"></rect>
                        <rect id="Rectangle" fill="#AAAAAA" x="0.807843137" y="174.424779" width="68.6666667" height="3.2300885"></rect>
                        <rect id="Rectangle" fill="#AAAAAA" x="80.7843137" y="174.424779" width="28.2745098" height="3.2300885"></rect>
                        <rect id="Rectangle" fill="#AAAAAA" x="162.376471" y="174.424779" width="50.8941176" height="3.2300885"></rect>
                        <rect id="Rectangle" fill="#AAAAAA" x="0.807843137" y="180.884956" width="42.8156863" height="3.2300885"></rect>
                        <rect id="Rectangle" fill="#AAAAAA" x="81.5921569" y="180.884956" width="68.6666667" height="3.2300885"></rect>
                        <rect id="Rectangle" fill="#AAAAAA" x="162.376471" y="180.884956" width="68.6666667" height="3.2300885"></rect>
                        <rect id="Rectangle" fill="#AAAAAA" x="0.807843137" y="187.345133" width="54.1254902" height="3.2300885"></rect>
                        <rect id="Rectangle" fill="#AAAAAA" x="81.5921569" y="187.345133" width="58.1647059" height="3.2300885"></rect>
                        <rect id="Rectangle" fill="#AAAAAA" x="162.376471" y="187.345133" width="31.5058824" height="3.2300885"></rect>
                        <rect id="Rectangle" fill="#AAAAAA" x="81.5921569" y="193.80531" width="37.1607843" height="3.2300885"></rect>
                    </g>
                    <rect id="Rectangle" fill="#A0A0A0" x="151.87451" y="307.665929" width="108.25098" height="40.3761062"></rect>
                    <polygon id="Path" fill="#5B5B5B" points="260.12549 323.00885 151.87451 308.473451 260.12549 308.473451"></polygon>
                    <path d="M386.382634,0 L25.6173657,0 C11.4444444,0 0,11.4533665 0,25.6373369 L0,131.220689 L412,184.922566 L412,25.6373369 C412,11.5292166 400.555556,0 386.382634,0 Z" id="Path" fill="#FFFFFF" opacity="0.3"></path>
                    <rect id="Rectangle" fill="#6F6F6F" x="105.827451" y="348.042035" width="197.921569" height="12.920354"></rect>
                </g>
                <g id="img_thumbs_down" filter="url(#filter-1)" transform="translate(237.000000, 91.500000) rotate(-180.000000) translate(-237.000000, -91.500000) translate(154.000000, 0.000000)">
                    <g id="Group-5" transform="translate(0.000000, -0.000000)">
                        <mask id="mask-3" fill="white">
                            <use xlink:href="#path-2"></use>
                        </mask>
                        <g id="Clip-4"></g>
                        <path d="M97.6491297,0.0336576866 C92.929183,0.0336576866 88.7833252,1.87428039 85.9761143,5.21651492 C81.1553762,10.957514 82.2912906,18.1759933 83.0428184,22.9525046 C83.1658374,23.7336697 83.3766178,25.0733659 83.435253,25.8019862 C82.0195756,30.6392159 73.061411,50.6420244 65.6538232,58.5128369 C56.7719228,67.9483149 53.2798673,79.3450739 51.6016725,84.8217924 C51.4955159,85.1666416 51.3176939,85.746969 51.1701477,86.2116981 C51.0475118,86.3596018 50.902265,86.5293018 50.7367067,86.7180736 L48.9389419,86.985468 L6.9357847,93.2285612 L-3.83236981e-05,94.2592165 L0.393162827,101.367157 L0.573284212,104.631159 C2.1832628,133.756901 15.534473,160.886722 37.2030756,179.064088 L38.6773883,180.301808 L41.8923634,182.999883 L45.8692137,181.724019 L47.6945714,181.138243 C58.788899,177.578823 68.923218,175.536974 75.4999479,175.536974 C76.049893,175.536974 76.5791433,175.551764 77.0723693,175.580566 C84.1262293,175.990415 88.9921894,176.496402 92.9023564,176.903526 L92.9337818,176.90664 C96.9140812,177.320381 100.351717,177.676907 103.991319,177.676907 L104.01278,177.676907 L104.035008,177.676907 L104.623276,177.673404 L104.646271,177.673404 L104.669265,177.673014 C112.381909,177.581548 125.291247,177.427806 139.17439,173.658207 L139.433075,173.588148 L140.025943,173.428178 L140.586235,173.174017 L140.840322,173.058808 C144.095537,171.585609 148.887149,169.152593 152.860933,165.06617 C157.626868,160.165886 160.043561,154.189409 160.043561,147.302156 C160.043561,146.401111 159.995273,145.519527 159.89908,144.658572 C163.810014,140.44643 165.969171,134.571928 165.969171,127.802609 C165.969171,124.481782 165.969171,119.938024 164.400965,115.606781 C165.969171,111.415268 165.969171,107.033037 165.969171,103.823137 L165.969171,103.647599 C165.969171,101.634941 165.969171,97.8879172 164.945162,93.9976605 C164.091693,90.7546772 162.760711,88.2749548 161.261105,86.3810089 C161.764678,84.4551469 162.018381,82.5814405 162.018381,80.77468 C162.018381,73.9894029 159.312728,67.9654406 154.400779,63.812071 C149.828762,59.9463352 143.64255,57.903318 136.510127,57.903318 C136.076686,57.903318 135.6877,57.9204437 135.400656,57.9332879 L135.043862,57.9476891 L134.767165,57.9589765 L134.492384,57.9901141 L134.362467,58.0049045 C130.690673,58.4182564 127.212031,59.0273861 124.67232,59.4718757 L124.548534,59.493672 C123.824983,59.6197794 122.684469,59.818671 122.126859,59.9027425 L117.173521,59.9027425 C118.643235,53.1330342 120.012158,48.0560449 121.033868,45.6771306 C124.684583,37.182398 123.505746,23.7722025 118.230489,13.7925945 C114.309975,6.37639135 108.370568,1.61817344 101.505644,0.393297224 C100.164314,0.154705193 98.8674401,0.0336576866 97.6491297,0.0336576866 M66.4471238,165.025691 C70.018126,165.025691 76.6538745,164.237909 77.6487577,164.237909 C77.6740514,164.237909 77.6955126,164.238687 77.7131415,164.239466 C92.1910685,165.081738 97.7913106,166.317902 103.991702,166.317902 C104.172973,166.317902 104.355394,166.317902 104.538581,166.314399 C112.06114,166.225268 123.984026,166.024819 136.284784,162.68492 C144.991161,158.745622 148.859172,153.99402 148.859172,147.302156 C148.859172,143.675012 147.425866,141.329182 144.972766,139.929546 C151.727318,139.466763 154.785178,134.247708 154.785178,127.862939 C154.785178,121.947958 154.806244,116.556868 148.729638,115.421512 C154.845717,114.415378 154.785178,109.608118 154.785178,103.647599 C154.785178,96.9592376 153.897206,91.1341669 146.683153,91.1341669 C146.646745,91.1341669 150.833993,85.472958 150.833993,80.77468 C150.833993,74.0894325 145.864559,69.2619334 136.510127,69.2619334 C136.205453,69.2619334 135.908445,69.282562 135.606071,69.2934602 C129.614927,69.9675897 123.916576,71.2613579 122.56375,71.2613579 L103.545231,71.2613579 C103.545231,71.2613579 107.378367,49.0617901 110.783045,41.1349299 C114.190405,33.2065128 110.075589,13.4547513 99.5714464,11.5810449 C98.8528771,11.4529914 98.2151707,11.3926623 97.6491297,11.3926623 C89.94415,11.3926623 95.6516985,22.6349008 94.4621309,27.8699136 C93.1844188,33.4937574 82.9642548,56.5593403 73.7378243,66.3614638 C64.5125435,76.1620305 62.5250764,88.8498331 61.1055666,91.5879978 C59.9700354,93.7789187 52.5578488,101.788294 46.0780778,105.044121 C46.0780778,105.044121 53.0246315,155.73617 64.2619065,164.747009 C64.5136932,164.949014 65.3303712,165.025691 66.4471238,165.025691 M97.6491297,7.81806326 C98.4259511,7.81806326 99.2771204,7.89979952 100.180027,8.0605475 C104.745912,8.87518554 108.652247,12.130624 111.47747,17.4746184 C115.595351,25.2648623 116.707122,36.2856345 114.00875,42.5641468 C111.67637,47.9945481 109.046598,60.9680384 107.7777,67.6871481 L122.56375,67.6871481 C122.9604,67.6704116 124.561947,67.3893946 125.974176,67.1434074 C128.423443,66.7144866 131.777917,66.1283209 135.218235,65.7406575 L135.348152,65.7262563 L135.725641,65.7106875 C135.986242,65.6986217 136.246077,65.6873343 136.510127,65.6873343 C147.349602,65.6873343 154.353641,71.6100993 154.353641,80.77468 C154.353641,83.4700304 153.412411,86.2537339 152.194484,88.7283964 C158.304431,91.7981767 158.304431,100.095964 158.304431,103.647599 L158.304431,103.822748 C158.304431,107.614921 158.304431,112.330714 155.730612,115.532051 C158.304431,118.905812 158.304431,123.838012 158.304431,127.802609 C158.304431,134.250822 155.672743,139.226614 151.262068,141.735528 C151.94308,143.222349 152.378821,145.052852 152.378821,147.302156 C152.378821,158.070714 144.011224,163.101386 137.717323,165.950089 L137.463237,166.065298 L137.194588,166.137693 C124.240411,169.655077 111.932756,169.801424 104.579587,169.888998 L103.991319,169.892501 C100.734187,169.892501 97.6230696,169.56867 93.6837766,169.159599 C89.6923633,168.744301 84.7236958,168.227417 77.5123254,167.808616 C76.874619,167.77164 76.197056,167.752568 75.4999479,167.752568 C65.4668036,167.752568 52.3259904,171.488304 45.3859518,173.715423 L43.5602108,174.301199 L42.0843652,173.062311 C22.0575498,156.262007 9.71693553,131.160802 8.22576041,104.194843 L8.04525579,100.930841 L50.0487963,94.6877481 L49.8958847,98.2222574 C53.9754424,94.8963701 57.4617493,90.9088084 57.9925326,89.9201889 C58.1753366,89.5648308 58.5880828,88.2173502 58.9199661,87.1349286 C60.5402921,81.8477603 63.5559839,72.0059363 71.1942804,63.891472 C80.0413063,54.4918022 89.8924131,32.0836123 91.0325431,27.0661737 C91.2808807,25.9740216 90.9252367,23.7181009 90.6121321,21.7268499 C89.9583298,17.5723127 89.2815333,13.2764885 91.8074483,10.2685941 C92.7463789,9.1507535 94.5215326,7.81806326 97.6491297,7.81806326" id="Fill-3" fill="#FF5254" mask="url(#mask-3)"></path>
                    </g>
                    <path d="M154.393836,128.390299 C154.393836,134.78977 151.345211,140.021161 144.611081,140.485428 C147.056764,141.887982 148.485737,144.239748 148.485737,147.874685 C148.485737,154.583147 144.629421,159.34598 135.949748,163.294589 C123.685799,166.642383 111.799343,166.843305 104.299146,166.932647 C97.8920747,167.008725 92.4115435,165.721652 77.555193,164.85281 C76.6129879,164.79819 65.2186489,166.227274 64.1442447,165.361162 C52.9409448,156.329025 46.0153935,105.517545 46.0153935,105.517545 C52.4755734,102.254022 59.8653498,94.2253249 60.9974478,92.0296154 C62.4126658,89.2849786 64.3941239,76.5671858 73.5918948,66.7430634 C82.7900478,56.9177707 92.9793119,33.7976676 94.253161,28.1605307 C95.5262458,22.5280755 88.8750268,9.95736562 99.3470288,11.8335502 C109.819413,13.7116855 113.921788,33.5097441 110.52473,41.4569016 C107.130346,49.4028886 103.308799,71.6549295 103.308799,71.6549295 L122.269816,71.6549295 C123.618553,71.6549295 129.299675,70.3581032 135.272705,69.6823803 C135.574165,69.6710662 135.870658,69.6503888 136.174028,69.6503888 C145.500177,69.6503888 150.454586,74.4896888 150.454586,81.1907382 C150.454586,85.9001215 146.279999,91.5747119 146.316296,91.5747119 C153.508538,91.5747119 154.393836,97.4135513 154.393836,104.117332 C154.393836,110.09233 154.454182,114.910562 148.356594,115.919075 C154.414828,117.057504 154.393836,122.461337 154.393836,128.390299 L154.393836,128.390299 Z M157.902439,104.117332 C157.902439,100.557692 157.902439,92.2402912 151.810964,89.1632548 C153.025209,86.6827429 153.963593,83.8916794 153.963593,81.1907382 C153.963593,72.0041051 146.98073,66.0677306 136.174028,66.0677306 C135.910776,66.0677306 135.651727,66.0790447 135.392296,66.0907489 L135.015566,66.1059643 L134.886042,66.12157 C131.456125,66.5093694 128.111794,67.0973108 125.669931,67.5268552 C124.261973,67.773814 122.665267,68.0554953 122.269816,68.0722714 L107.528471,68.0722714 C108.793533,61.3372797 111.415354,48.3327338 113.740683,42.8898868 C116.430896,36.5961438 115.322487,25.549712 111.217055,17.7406642 C108.400374,12.3844283 104.50585,9.121295 99.9537692,8.3047314 C99.0535927,8.14360347 98.2049968,8.06167401 97.4305241,8.06167401 C94.3123831,8.06167401 92.5425964,9.39751432 91.6065046,10.5179972 C89.0882265,13.5330013 89.7629768,17.8385894 90.4148024,22.0033369 C90.7269603,23.9989044 91.081529,26.2605476 90.8339422,27.3552812 C89.6972593,32.3841894 79.8759366,54.8457356 71.0556591,64.2676234 C63.4404565,72.4008777 60.4338823,82.2655747 58.8184553,87.5656304 C58.4875755,88.6510006 58.0760771,90.0016663 57.8942079,90.3578643 C57.3646473,91.3488206 53.8888811,95.3458078 49.8216575,98.6795565 L49.9741068,95.1366926 L8.09756098,101.394543 L8.27751985,104.665869 C9.76418652,131.695568 22.0674899,156.856495 42.0337556,173.696509 L43.5051391,174.938326 L45.3253601,174.351165 C52.244416,172.118782 65.3458809,168.373826 75.3483088,168.373826 C76.0436913,168.373826 76.7188236,168.392943 77.3546019,168.430396 C84.5445514,168.850187 89.4978144,169.367903 93.4771599,169.784573 C97.4045428,170.19422 100.506254,170.518817 103.753538,170.518817 L104.340028,170.515696 C111.671346,170.427914 123.941409,170.281221 136.85642,166.755524 L137.124257,166.682568 L137.377574,166.567086 C143.652446,163.712039 151.994744,158.669086 151.994744,147.874685 C151.994744,145.620845 151.560321,143.786015 150.881368,142.295679 C155.278707,139.780445 157.902439,134.793281 157.902439,128.329827 C157.902439,124.355468 157.902439,119.411611 155.336401,116.029485 C157.902439,112.821361 157.902439,108.094422 157.902439,104.292895 L157.902439,104.117332 Z" id="Fill-1" fill="#FFFFFF"></path>
                </g>
            </g>
        </g>
    </g>
</svg>