<?xml version="1.0" encoding="UTF-8"?>
<svg width="579px" height="329px" viewBox="0 0 579 329" version="1.1" xmlns="http://www.w3.org/2000/svg" xmlns:xlink="http://www.w3.org/1999/xlink">
    <!-- Generator: Sketch 63.1 (92452) - https://sketch.com -->
    <title>img_mobile_compatible</title>
    <desc>Created with Sketch.</desc>
    <g id="Page-1" stroke="none" stroke-width="1" fill="none" fill-rule="evenodd">
        <g id="FAQs---Why-Isn't-My-Website-Converting" transform="translate(-761.000000, -4517.000000)" fill-rule="nonzero">
            <g id="img_mobile_compatible" transform="translate(761.000000, 4517.000000)">
                <path d="M579,279.5 C579,285.825 449.397911,291 289.5,291 C129.602089,291 0,285.8825 0,279.5 C0,273.1175 129.602089,268 289.5,268 C449.397911,268 579,273.175 579,279.5 Z" id="Path" fill="#A0A0A0" opacity="0.25"></path>
                <path d="M402,282.5 C402,284.438462 359.676822,286 307.5,286 C255.323178,286 213,284.438462 213,282.5 C213,280.561538 255.323178,279 307.5,279 C359.676822,279 402,280.561538 402,282.5 Z" id="Path" fill="#A0A0A0" opacity="0.6"></path>
                <path d="M432.916483,241 L150.083517,241 C138.972222,241 130,232.063114 130,220.99558 L130,20.0044204 C130,8.93688605 138.972222,0 150.083517,0 L432.916483,0 C444.027778,0 453,8.93688605 453,20.0044204 L453,220.99558 C453,232.063114 444.027778,241 432.916483,241 Z" id="Path" fill="#6F6F6F"></path>
                <rect id="Rectangle" fill="#EFF1EC" x="146" y="16" width="290" height="185"></rect>
                <g id="Group" transform="translate(200.000000, 41.000000)">
                    <rect id="Rectangle" fill="#427FE0" x="0.355700326" y="0.237656904" width="63.4925081" height="21.4485356"></rect>
                    <rect id="Rectangle" fill="#FF5254" x="0.355700326" y="30.3606695" width="181.110749" height="37.2527197"></rect>
                    <rect id="Rectangle" fill="#AAAAAA" x="0.355700326" y="74.5648536" width="54.1850163" height="37.2527197"></rect>
                    <rect id="Rectangle" fill="#AAAAAA" x="63.7889251" y="74.5648536" width="54.1850163" height="37.2527197"></rect>
                    <rect id="Rectangle" fill="#AAAAAA" x="127.281433" y="74.5648536" width="54.1850163" height="37.2527197"></rect>
                    <rect id="Rectangle" fill="#AAAAAA" x="0.355700326" y="118.23431" width="54.1850163" height="2.61422594"></rect>
                    <rect id="Rectangle" fill="#AAAAAA" x="63.7889251" y="118.23431" width="54.1850163" height="2.61422594"></rect>
                    <rect id="Rectangle" fill="#AAAAAA" x="127.281433" y="118.23431" width="49.4423453" height="2.61422594"></rect>
                    <rect id="Rectangle" fill="#AAAAAA" x="0.355700326" y="123.403347" width="54.1850163" height="2.61422594"></rect>
                    <rect id="Rectangle" fill="#AAAAAA" x="63.7889251" y="123.403347" width="22.0534202" height="2.61422594"></rect>
                    <rect id="Rectangle" fill="#AAAAAA" x="127.281433" y="123.403347" width="39.9570033" height="2.61422594"></rect>
                    <rect id="Rectangle" fill="#AAAAAA" x="0.355700326" y="128.631799" width="33.6136808" height="2.61422594"></rect>
                    <rect id="Rectangle" fill="#AAAAAA" x="63.7889251" y="128.631799" width="54.1850163" height="2.61422594"></rect>
                    <rect id="Rectangle" fill="#AAAAAA" x="127.281433" y="128.631799" width="54.1850163" height="2.61422594"></rect>
                    <rect id="Rectangle" fill="#AAAAAA" x="0.355700326" y="133.800837" width="42.4469055" height="2.61422594"></rect>
                    <rect id="Rectangle" fill="#AAAAAA" x="63.7889251" y="133.800837" width="45.6482085" height="2.61422594"></rect>
                    <rect id="Rectangle" fill="#AAAAAA" x="127.281433" y="133.800837" width="24.7211726" height="2.61422594"></rect>
                    <rect id="Rectangle" fill="#AAAAAA" x="63.7889251" y="138.969874" width="29.2859935" height="2.61422594"></rect>
                </g>
                <rect id="Rectangle" fill="#AAAAAA" x="499" y="241" width="43" height="3"></rect>
                <rect id="Rectangle" fill="#AAAAAA" x="498" y="247" width="35" height="3"></rect>
                <rect id="Rectangle" fill="#AAAAAA" x="498" y="253" width="48" height="3"></rect>
                <rect id="Rectangle" fill="#AAAAAA" x="498" y="257" width="22" height="3"></rect>
                <rect id="Rectangle" fill="#A0A0A0" x="249" y="241" width="85" height="32"></rect>
                <polygon id="Path" fill="#5B5B5B" points="334 253 249 242 334 242"></polygon>
                <path d="M432.916483,0 L150.083517,0 C138.972222,0 130,8.9807219 130,20.1025431 L130,102.891715 L453,145 L453,20.1025431 C453,9.04019688 444.027778,0 432.916483,0 Z" id="Path" fill="#FFFFFF" opacity="0.3"></path>
                <rect id="Rectangle" fill="#6F6F6F" x="213" y="273" width="155" height="10"></rect>
                <path d="M293,7.5 C293,8.3125 292.3125,9 291.5,9 C290.6875,9 290,8.3125 290,7.5 C290,6.6875 290.6875,6 291.5,6 C292.375,6 293,6.6875 293,7.5 Z" id="Path" fill="#FFFFFF"></path>
                <path d="M138.469528,155.509966 L130,135 L130,221 L153.335623,211.483849 C157.185409,209.887973 159.02146,205.514089 157.422319,201.731271 L138.469528,155.509966 Z" id="Path" fill="#5B5B5B"></path>
                <g id="Group" transform="translate(35.000000, 76.000000)">
                    <path d="M123.117757,10.2413713 L197.734295,192.691993 C201.238029,201.144802 197.215224,210.767999 188.780311,214.149123 L97.2939458,251.73161 C88.8590327,255.242777 79.2562086,251.211437 75.8822434,242.758629 L1.26570453,60.3080067 C-2.2380286,51.8551981 1.7847761,42.2320006 10.2196892,38.8508772 L101.706054,1.26838985 C110.011199,-2.24277679 119.614024,1.78856268 123.117757,10.2413713 Z" id="Path" fill="#6F6F6F"></path>
                    <polygon id="Rectangle" fill="#EFF1EC" transform="translate(95.882960, 117.732817) rotate(-22.302535) translate(-95.882960, -117.732817) " points="43.5937717 31.6397442 148.441303 31.475486 148.172147 203.825889 43.3246159 203.990147"></polygon>
                    <polygon id="Rectangle" fill="#427FE0" transform="translate(71.077770, 57.032424) rotate(-22.302535) translate(-71.077770, -57.032424) " points="28.4721621 43.5611067 113.725662 43.4275452 113.683378 70.5037414 28.4298778 70.6373029"></polygon>
                    <polygon id="Rectangle" fill="#FF5254" transform="translate(90.119103, 103.442041) rotate(-22.302535) translate(-90.119103, -103.442041) " points="47.5318928 78.1899744 132.785393 78.0564129 132.706313 128.694107 47.452813 128.827668"></polygon>
                    <polygon id="Rectangle" fill="#AAAAAA" transform="translate(109.881352, 154.237280) rotate(-22.297234) translate(-109.881352, -154.237280) " points="67.4140359 136.340504 152.404763 136.207379 152.348668 172.134056 67.3579406 172.26718"></polygon>
                    <polygon id="Rectangle" fill="#AAAAAA" transform="translate(120.130614, 177.279613) rotate(-22.297234) translate(-120.130614, -177.279613) " points="77.5099651 174.482658 162.760206 174.349126 162.751263 180.076568 77.5010224 180.210099"></polygon>
                    <polygon id="Rectangle" fill="#AAAAAA" transform="translate(124.493637, 187.807750) rotate(-22.302535) translate(-124.493637, -187.807750) " points="81.871359 185.010702 167.124859 184.877141 167.115915 190.604798 81.8624142 190.738359"></polygon>
                    <path d="M156,90.9829889 L122.95337,10.2250465 C119.454315,1.78571172 109.864313,-2.23920181 101.570256,1.26636803 L10.2060439,38.788949 C1.78239307,42.2945188 -2.23504038,51.9023769 1.26401456,60.2118758 L27.8309132,125 L156,90.9829889 Z" id="Path" fill="#FFFFFF" opacity="0.3"></path>
                    <path d="M143.327219,209.590307 C145.192516,214.258134 143.060748,219.459427 138.397505,221.326558 C133.734263,223.193689 128.538078,221.059825 126.672781,216.391998 C124.807484,211.724171 126.939252,206.522878 131.602495,204.655747 C136.132502,202.788617 141.461922,205.055847 143.327219,209.590307 Z" id="Path" fill="#FFFFFF"></path>
                    <path d="M70.6434835,22.2290268 L46.90529,31.9427433 C45.3571469,32.5903244 44.5830754,34.4035515 45.228135,36.0872624 C45.8731946,37.641457 47.6793615,38.4185543 49.3565165,37.7709732 L73.09471,28.0572567 C74.6428531,27.4096756 75.4169246,25.5964485 74.771865,23.9127376 C74.1268054,22.358543 72.3206385,21.5814457 70.6434835,22.2290268 Z" id="Path" fill="#FFFFFF"></path>
                </g>
                <path d="M446.184055,109.148785 C441.258305,106.591667 435.204975,108.435171 432.65308,113.371004 L375.146438,223.02975 C372.594544,227.965583 374.434282,234.031306 379.360031,236.588424 L389.626955,242 L431.940924,242 C443.038697,242 452,233.020352 452,221.899861 L452,112.241114 L446.184055,109.148785 Z" id="Path" fill="#5B5B5B"></path>
                <g id="Group" transform="translate(377.000000, 106.000000)">
                    <path d="M1.42677165,114.303534 L59.0326772,5.48798587 C61.5889764,0.590106007 67.7122047,-1.23922261 72.5870079,1.29823322 L145.47126,39.3010601 C150.405512,41.8385159 152.248425,47.9166078 149.692126,52.755477 L92.0862205,161.571025 C89.5299213,166.468905 83.4066929,168.298233 78.5318898,165.760777 L5.6476378,127.757951 C0.713385827,125.161484 -1.12952756,119.142403 1.42677165,114.303534 Z" id="Path" fill="#6F6F6F"></path>
                    <polygon id="Rectangle" fill="#EFF1EC" transform="translate(78.177028, 78.590306) rotate(-62.276684) translate(-78.177028, -78.590306) " points="20.8923346 35.6514719 135.201683 36.0004757 135.461721 121.529141 21.1523731 121.180137"></polygon>
                    <polygon id="Rectangle" fill="#427FE0" transform="translate(88.374795, 36.147333) rotate(-62.276684) translate(-88.374795, -36.147333) " points="80.5518081 9.74097862 96.0373557 9.78825834 96.197782 62.5536872 80.7122343 62.5064075"></polygon>
                    <polygon id="Rectangle" fill="#FF5254" transform="translate(82.893436, 69.655263) rotate(-62.276684) translate(-82.893436, -69.655263) " points="64.2508265 32.3839275 101.309752 32.497074 101.536045 106.926599 64.4771196 106.813453"></polygon>
                    <polygon id="Rectangle" fill="#AAAAAA" transform="translate(49.768803, 89.332065) rotate(-62.276684) translate(-49.768803, -89.332065) " points="40.5554443 72.180555 58.8780388 72.2364966 58.9821625 106.483575 40.6595679 106.427633"></polygon>
                    <polygon id="Rectangle" fill="#AAAAAA" transform="translate(85.397004, 107.921242) rotate(-62.276684) translate(-85.397004, -107.921242) " points="76.1836446 90.7697321 94.5062391 90.8256738 94.6103628 125.072752 76.2877683 125.01681"></polygon>
                    <polygon id="Rectangle" fill="#AAAAAA" transform="translate(43.071204, 101.332236) rotate(-62.276684) translate(-43.071204, -101.332236) " points="41.7197316 84.5014957 44.3203579 84.5094358 44.422677 118.162977 41.8220507 118.155037"></polygon>
                    <polygon id="Rectangle" fill="#AAAAAA" transform="translate(40.633815, 105.915330) rotate(-62.276684) translate(-40.633815, -105.915330) " points="39.2823419 89.0845894 41.8829683 89.0925295 41.9852874 122.746071 39.384661 122.738131"></polygon>
                    <polygon id="Rectangle" fill="#AAAAAA" transform="translate(32.568500, 107.546690) rotate(-62.276684) translate(-32.568500, -107.546690) " points="31.2364268 97.0964708 33.8370531 97.1044109 33.900574 117.996909 31.2999477 117.988969"></polygon>
                    <polygon id="Rectangle" fill="#AAAAAA" transform="translate(32.630838, 113.338297) rotate(-62.276684) translate(-32.630838, -113.338297) " points="31.2903736 100.128131 33.8909999 100.136072 33.9713033 126.548463 31.3706769 126.540523"></polygon>
                    <polygon id="Rectangle" fill="#AAAAAA" transform="translate(71.861625, 116.388177) rotate(-62.276684) translate(-71.861625, -116.388177) " points="70.534424 107.540508 73.1350503 107.548448 73.1888265 125.235847 70.5882002 125.227907"></polygon>
                    <polygon id="Rectangle" fill="#AAAAAA" transform="translate(76.535087, 124.656212) rotate(-62.276684) translate(-76.535087, -124.656212) " points="75.1836145 107.825471 77.7842408 107.833411 77.8865599 141.486952 75.2859336 141.479012"></polygon>
                    <polygon id="Rectangle" fill="#AAAAAA" transform="translate(72.702160, 128.461935) rotate(-62.276684) translate(-72.702160, -128.461935) " points="71.3554696 113.204067 73.956096 113.212007 74.0488508 143.719803 71.4482245 143.711863"></polygon>
                    <polygon id="Rectangle" fill="#AAAAAA" transform="translate(65.988890, 130.734020) rotate(-62.276684) translate(-65.988890, -130.734020) " points="64.6570876 120.372832 67.2577139 120.380772 67.3206934 141.095209 64.7200671 141.087269"></polygon>
                    <path d="M123.653543,101.970318 L149.692126,52.755477 C152.248425,47.8575972 150.405512,41.8385159 145.47126,39.3010601 L72.5870079,1.29823322 C67.6527559,-1.23922261 61.5889764,0.590106007 59.0326772,5.48798587 L39.1767717,43.0187279 L123.653543,101.970318 Z" id="Path" fill="#FFFFFF" opacity="0.3"></path>
                    <path d="M50.4125984,139.619081 C49.4019685,141.566431 46.9645669,142.333569 45.0027559,141.271378 C43.0409449,140.268198 42.2681102,137.848763 43.338189,135.901413 C44.3488189,133.954064 46.7862205,133.186926 48.7480315,134.249117 C50.6503937,135.252297 51.4232283,137.671731 50.4125984,139.619081 Z" id="Path" fill="#FFFFFF"></path>
                    <path d="M108.315748,24.7254417 C107.959055,25.4335689 107.067323,25.6696113 106.353937,25.3155477 C105.640551,24.9614841 105.402756,24.0763251 105.759449,23.3681979 C106.116142,22.6600707 107.007874,22.4240283 107.72126,22.7780919 C108.434646,23.1321555 108.73189,24.0173145 108.315748,24.7254417 Z" id="Path" fill="#FFFFFF"></path>
                </g>
                <polygon id="Path" fill="#CCDEFB" points="120 31.0491071 114.950893 31.0491071 114.950893 26 111.991071 26 111.991071 31.0491071 107 31.0491071 107 34.0089286 111.991071 34.0089286 111.991071 39 114.950893 39 114.950893 34.0089286 120 34.0089286"></polygon>
                <polygon id="Path" fill="#CCDEFB" points="56 219.049107 50.9508929 219.049107 50.9508929 214 47.9910714 214 47.9910714 219.049107 43 219.049107 43 222.008929 47.9910714 222.008929 47.9910714 227 50.9508929 227 50.9508929 222.008929 56 222.008929"></polygon>
                <polygon id="Path" fill="#CCDEFB" points="559 233.991071 554.008929 233.991071 554.008929 229 551.049107 229 551.049107 233.991071 546 233.991071 546 236.950893 551.049107 236.950893 551.049107 242 554.008929 242 554.008929 236.950893 559 236.950893"></polygon>
                <polygon id="Path" fill="#CCDEFB" points="490 80.9910714 485.008929 80.9910714 485.008929 76 482.049107 76 482.049107 80.9910714 477 80.9910714 477 83.9508929 482.049107 83.9508929 482.049107 89 485.008929 89 485.008929 83.9508929 490 83.9508929"></polygon>
            </g>
        </g>
    </g>
</svg>