<?xml version="1.0" encoding="UTF-8"?>
<svg width="100px" height="77px" viewBox="0 0 100 77" version="1.1" xmlns="http://www.w3.org/2000/svg" xmlns:xlink="http://www.w3.org/1999/xlink">
    <!-- Generator: Sketch 59.1 (86144) - https://sketch.com -->
    <title>icn_conversion</title>
    <desc>Created with Sketch.</desc>
    <g id="Page-1" stroke="none" stroke-width="1" fill="none" fill-rule="evenodd">
        <g id="Case-Study---Blanc-Des-Vosges" transform="translate(-749.000000, -853.000000)" fill="#FF5254" fill-rule="nonzero">
            <g id="icn_conversion" transform="translate(749.000000, 853.000000)">
                <path d="M47.3282443,0 C35.956592,0.649488941 25.297062,5.04138107 16.7938931,12.5812674 L29.4036842,25.1242842 C32.1783458,24.1443133 35.1637218,23.60881 38.2721425,23.60881 C41.450545,23.60881 44.5005196,24.1680285 47.3282443,25.1908397 L47.3282443,0 Z" id="Path"></path>
                <path d="M58.153352,32.8244275 L81.6793893,11.4611086 C73.4831629,4.6042222 63.3990584,0.61299039 52.6717557,0 L52.6717557,27.8367088 C54.7272596,29.2348103 56.5734205,30.9160042 58.153352,32.8244275 L58.153352,32.8244275 Z" id="Path"></path>
                <path d="M0,49.7642746 L0,52.6717557 L11.679978,52.6717557 L11.679978,49.7642746 C11.679978,40.5807229 16.4561461,32.4882338 23.6641221,27.8173352 L12.5932367,16.7938931 C4.45299162,25.8865861 0,37.4839527 0,49.7642746 Z" id="Path"></path>
                <path d="M84.7328244,52.6717557 L100,52.6717557 L100,49.7654523 C100,45.5392026 99.4774494,41.3946926 98.4683343,37.4045802 L84.7328244,52.6717557 Z" id="Path"></path>
                <path d="M50.0000964,52.6717557 C46.8380211,52.6717557 43.864761,53.9027214 41.6290357,56.1374094 C37.01424,60.7508349 37.01424,68.2567987 41.6290357,72.870224 C43.864761,75.104912 46.8380211,76.3358779 50.0000964,76.3358779 C53.1614009,76.3358779 56.1346612,75.104912 58.3703863,72.870224 C62.9859527,68.2567987 62.9859527,60.7508349 58.3703863,56.1374094 C56.1346612,53.9027214 53.1614009,52.6717557 50.0000964,52.6717557 Z" id="Path"></path>
                <path d="M87.5664795,14.5038168 L51.9083969,46.9910153 C55.9156499,47.393837 59.6321582,49.147252 62.5182937,52.029328 C65.4744517,54.9813278 67.1496585,58.7344109 67.5500031,62.5954198 L100,26.9160485 L100,14.5038168 L87.5664795,14.5038168 Z" id="Path"></path>
            </g>
        </g>
    </g>
</svg>