<?xml version="1.0" encoding="UTF-8"?>
<svg width="100px" height="87px" viewBox="0 0 100 87" version="1.1" xmlns="http://www.w3.org/2000/svg" xmlns:xlink="http://www.w3.org/1999/xlink">
    <!-- Generator: Sketch 59.1 (86144) - https://sketch.com -->
    <title>icn_session</title>
    <desc>Created with Sketch.</desc>
    <g id="Page-1" stroke="none" stroke-width="1" fill="none" fill-rule="evenodd">
        <g id="Case-Study---British-Connections" transform="translate(-896.000000, -837.000000)" fill="#FF5254" fill-rule="nonzero">
            <g id="icn_session" transform="translate(896.000000, 837.000000)">
                <path d="M97.5513202,2.44447053 C95.9195361,0.815369882 93.9586588,0 91.6661343,0 L8.33331811,0 C6.0417058,0 4.08046364,0.815369882 2.44758497,2.44447053 C0.815618425,4.07411755 0,6.03195231 0,8.31997818 L0,64.8937536 C0,67.1823259 0.815618425,69.1399785 2.44758497,70.7699898 C4.08046364,72.3990904 6.0417058,73.2130033 8.33331811,73.2130033 L36.667074,73.2130033 C36.667074,74.5299431 36.3890596,75.8831257 35.8333956,77.2687263 C35.2780964,78.6554197 34.7224324,79.8681845 34.1667684,80.9077492 C33.6118341,81.9485888 33.3340021,82.7102321 33.3340021,83.1952287 C33.3340021,84.0963791 33.6636426,84.878056 34.3234708,85.5349779 C34.9829341,86.1944495 35.7642568,86.5248227 36.667074,86.5248227 L63.3336554,86.5248227 C64.2364726,86.5248227 65.0179777,86.1946316 65.6774411,85.5349779 C66.3378165,84.8782381 66.667457,84.0965612 66.667457,83.1952287 C66.667457,82.7457463 66.3890777,81.9912059 65.8335961,80.9341572 C65.2779322,79.877655 64.7222682,78.645585 64.1673339,77.2430468 C63.6116699,75.8388695 63.3338379,74.4957038 63.3338379,73.2130033 L91.6675937,73.2130033 C93.9588412,73.2130033 95.9197185,72.3990904 97.5515026,70.7699898 C99.1840165,69.1401606 100,67.182508 100,64.8937536 L100,8.31997818 C100,6.03195231 99.183834,4.07411755 97.5513202,2.44447053 Z M93.3331263,51.5821163 C93.3331263,52.0328737 93.1683973,52.4222551 92.8385744,52.752082 C92.5083867,53.080634 92.1176341,53.2450921 91.6661343,53.2450921 L8.33331811,53.2450921 C7.88218316,53.2450921 7.4914306,53.080634 7.16160772,52.752082 C6.83196726,52.4211624 6.6668734,52.0328737 6.6668734,51.5821163 L6.6668734,8.31997818 C6.6668734,7.86922088 6.83141999,7.47947517 7.16160772,7.15019468 C7.49161303,6.82146056 7.88236558,6.65627395 8.33331811,6.65627395 L91.6674113,6.65627395 C92.1181814,6.65627395 92.5096637,6.82091419 92.8385744,7.15019468 C93.1683973,7.47965729 93.3331263,7.869403 93.3331263,8.31997818 L93.3331263,51.5821163 L93.3331263,51.5821163 Z" id="Shape"></path>
            </g>
        </g>
    </g>
</svg>