<?xml version="1.0" encoding="UTF-8"?>
<svg width="90px" height="100px" viewBox="0 0 90 100" version="1.1" xmlns="http://www.w3.org/2000/svg" xmlns:xlink="http://www.w3.org/1999/xlink">
    <!-- Generator: Sketch 59.1 (86144) - https://sketch.com -->
    <title>icn_traffic</title>
    <desc>Created with Sketch.</desc>
    <g id="Page-1" stroke="none" stroke-width="1" fill="none" fill-rule="evenodd">
        <g id="Mobile---Case-Study---Apartment-O" transform="translate(-139.000000, -1096.000000)" fill="#FF5254" fill-rule="nonzero">
            <g id="icn_traffic" transform="translate(139.000000, 1096.000000)">
                <path d="M89.2473118,38.8888889 L72.5134409,38.8888889 L72.5134409,32.7777778 C81.9959677,30.5555556 89.2473118,21.6666667 89.2473118,11.1111111 L72.5134409,11.1111111 L72.5134409,5.55555556 C72.5134409,2.22222222 70.2822581,0 66.9354839,0 L22.311828,0 C18.9650538,0 16.733871,2.22222222 16.733871,5.55555556 L16.733871,11.1111111 L0,11.1111111 C0,21.6666667 7.25134409,30 16.733871,32.7777778 L16.733871,38.8888889 L0,38.8888889 C0,49.4444444 7.25134409,57.7777778 16.733871,60.5555556 L16.733871,66.6666667 L0,66.6666667 C0,77.2222222 7.25134409,85.5555556 16.733871,88.3333333 L16.733871,94.4444444 C16.733871,97.7777778 18.9650538,100 22.311828,100 L66.9354839,100 C70.2822581,100 72.5134409,97.7777778 72.5134409,94.4444444 L72.5134409,88.3333333 C81.9959677,86.1111111 89.2473118,77.2222222 89.2473118,66.6666667 L72.5134409,66.6666667 L72.5134409,60.5555556 C81.9959677,57.7777778 89.2473118,49.4444444 89.2473118,38.8888889 Z M44.6236559,88.8888889 C38.4879032,88.8888889 33.4677419,83.8888889 33.4677419,77.7777778 C33.4677419,71.6666667 38.4879032,66.6666667 44.6236559,66.6666667 C50.7594086,66.6666667 55.7795699,71.6666667 55.7795699,77.7777778 C55.7795699,83.8888889 50.7594086,88.8888889 44.6236559,88.8888889 Z M44.6236559,61.1111111 C38.4879032,61.1111111 33.4677419,56.1111111 33.4677419,50 C33.4677419,43.8888889 38.4879032,38.8888889 44.6236559,38.8888889 C50.7594086,38.8888889 55.7795699,43.8888889 55.7795699,50 C55.7795699,56.1111111 50.7594086,61.1111111 44.6236559,61.1111111 Z M44.6236559,33.3333333 C38.4879032,33.3333333 33.4677419,28.3333333 33.4677419,22.2222222 C33.4677419,16.1111111 38.4879032,11.1111111 44.6236559,11.1111111 C50.7594086,11.1111111 55.7795699,16.1111111 55.7795699,22.2222222 C55.7795699,28.3333333 50.7594086,33.3333333 44.6236559,33.3333333 Z" id="Shape"></path>
            </g>
        </g>
    </g>
</svg>