<?xml version="1.0" encoding="UTF-8"?>
<svg width="88px" height="100px" viewBox="0 0 88 100" version="1.1" xmlns="http://www.w3.org/2000/svg" xmlns:xlink="http://www.w3.org/1999/xlink">
    <!-- Generator: Sketch 59.1 (86144) - https://sketch.com -->
    <title>icn_user</title>
    <desc>Created with Sketch.</desc>
    <g id="Page-1" stroke="none" stroke-width="1" fill="none" fill-rule="evenodd">
        <g id="Case-Study---British-Connections" transform="translate(-434.000000, -1126.000000)" fill="#FF5254" fill-rule="nonzero">
            <g id="icn_user" transform="translate(434.000000, 1126.000000)">
                <path d="M43.9453125,45.3125 C31.4525391,45.3125 21.2890625,35.1490234 21.2890625,22.65625 C21.2890625,10.1634766 31.4525391,0 43.9453125,0 C56.4380859,0 66.6015625,10.1634766 66.6015625,22.65625 C66.6015625,35.1490234 56.4380859,45.3125 43.9453125,45.3125 Z" id="Path"></path>
                <g id="Group" transform="translate(0.000000, 45.406250)">
                    <path d="M52.734375,16.5078125 C52.734375,11.4921875 54.1425781,6.79941406 56.5835937,2.80332031 C52.7720703,4.69648437 48.4820312,5.765625 43.9453125,5.765625 C38.0609375,5.765625 32.5875,3.97382812 28.0412109,0.907421875 C22.4197266,3.08652344 17.2626953,6.43300781 12.8714844,10.8242187 C4.57109375,19.1244141 0,30.1599609 0,41.8982422 L0,51.6640625 C0,53.2820312 1.31171875,54.59375 2.9296875,54.59375 L84.9609375,54.59375 C86.5789062,54.59375 87.890625,53.2820312 87.890625,51.6640625 L87.890625,41.8982422 C87.890625,41.7222656 87.8857422,41.5457031 87.8835938,41.3693359 C85.1351563,42.3431641 82.1794922,42.875 79.1015625,42.875 C64.5626953,42.875 52.734375,31.0466797 52.734375,16.5078125 L52.734375,16.5078125 Z" id="Path"></path>
                    <path d="M52.734375,16.5078125 C52.734375,11.4921875 54.1425781,6.79941406 56.5835937,2.80332031 C52.7720703,4.69648438 48.4820312,5.765625 43.9453125,5.765625 C38.0609375,5.765625 32.5875,3.97382813 28.0412109,0.907421875 C22.4197266,3.08652344 17.2626953,6.43300781 12.8714844,10.8242188 C4.57109375,19.1244141 0,30.1599609 0,41.8982422 L0,51.6640625 C0,53.2820313 1.31171875,54.59375 2.9296875,54.59375 L84.9609375,54.59375 C86.5789062,54.59375 87.890625,53.2820313 87.890625,51.6640625 L87.890625,41.8982422 C87.890625,41.7222656 87.8857422,41.5457031 87.8835938,41.3693359 C85.1351563,42.3431641 82.1794922,42.875 79.1015625,42.875 C64.5626953,42.875 52.734375,31.0466797 52.734375,16.5078125 L52.734375,16.5078125 Z" id="Path" transform="translate(43.945312, 27.750586) scale(-1, 1) translate(-43.945312, -27.750586) "></path>
                </g>
            </g>
        </g>
    </g>
</svg>