<?xml version="1.0" encoding="UTF-8"?>
<svg width="78px" height="100px" viewBox="0 0 78 100" version="1.1" xmlns="http://www.w3.org/2000/svg" xmlns:xlink="http://www.w3.org/1999/xlink">
    <!-- Generator: Sketch 59.1 (86144) - https://sketch.com -->
    <title>icn_flowers</title>
    <desc>Created with Sketch.</desc>
    <g id="Page-1" stroke="none" stroke-width="1" fill="none" fill-rule="evenodd">
        <g id="Case-Study---Floristique" transform="translate(-902.000000, -831.000000)" fill="#FF5254" fill-rule="nonzero">
            <g id="icn_flowers" transform="translate(902.000000, 831.000000)">
                <path d="M35.8674464,29.5621832 L35.8674464,31.1890838 L41.7153996,31.1890838 L41.7153996,29.5621832 C47.5674464,28.22846 51.9493177,22.9859649 51.9493177,16.7358674 L51.9493177,2.9245614 C51.9493177,2.04522417 51.5592593,1.22105263 50.8793372,0.663352827 C50.1994152,0.105653021 49.314425,-0.114814815 48.4520468,0.0573099415 C44.0766082,0.932358674 40.468616,3.98070175 38.791423,8.00038986 C37.11423,3.98070175 33.5062378,0.932358674 29.1307992,0.0573099415 C28.2680312,-0.115204678 27.3838207,0.105847953 26.7035088,0.663352827 C26.0235867,1.2208577 25.6335283,2.04502924 25.6335283,2.9245614 L25.6335283,16.7358674 C25.6335283,22.9859649 30.0153996,28.22846 35.8674464,29.5621832 Z" id="Path"></path>
                <path d="M77.0423002,15.5101365 C76.5937622,14.7536062 75.8380117,14.2436647 74.968616,14.1107212 C70.5584795,13.4366472 66.1253411,15.0670565 63.1740741,18.2707602 C62.9908382,14.3079922 61.0263158,10.5551657 57.797271,8.16530214 L57.797271,16.7360624 C57.797271,22.5159844 55.2033138,27.7007797 51.1189084,31.1892788 L72.4688109,31.1892788 C72.4959064,31.1192982 72.5251462,31.0504873 72.5508772,30.9797271 L77.2746589,18.0011696 C77.5754386,17.1746589 77.4906433,16.2666667 77.0423002,15.5101365 Z" id="Path"></path>
                <path d="M5.11423002,31.1890838 L26.4639376,31.1890838 C22.3795322,27.7005848 19.785575,22.5157895 19.785575,16.7358674 L19.785575,8.16510721 C16.5565302,10.5549708 14.5920078,14.3077973 14.4087719,18.2705653 C11.4575049,15.0670565 7.02436647,13.4368421 2.61423002,14.1107212 C1.74483431,14.2436647 0.989083821,14.7536062 0.540545809,15.5101365 C0.0920077973,16.2666667 0.00740740741,17.1746589 0.308187135,18.0013645 L5.03196881,30.9795322 C5.05789474,31.0502924 5.08693957,31.1191033 5.11423002,31.1890838 Z" id="Path"></path>
                <path d="M25.1461988,76.0233918 C23.531384,76.0233918 22.2222222,77.3325536 22.2222222,78.9473684 C22.2222222,80.5621832 23.531384,81.871345 25.1461988,81.871345 L28.4623782,81.871345 L28.7337232,76.0233918 L25.1461988,76.0233918 Z" id="Path"></path>
                <path d="M52.4366472,81.871345 C54.051462,81.871345 55.3606238,80.5621832 55.3606238,78.9473684 C55.3606238,77.3325536 54.051462,76.0233918 52.4366472,76.0233918 L48.8491228,76.0233918 L49.1204678,81.871345 L52.4366472,81.871345 Z" id="Path"></path>
                <path d="M36.2832359,51.8734893 C47.5660819,38.222807 68.9409357,37.0820663 69.8452242,37.0401559 L69.9130604,37.037037 L7.60233918,37.037037 C6.51773879,37.037037 5.52202729,37.6374269 5.01598441,38.5968811 C4.50994152,39.5563353 4.57660819,40.7169591 5.18908382,41.6120858 L28.7337232,76.0233918 L29.8725146,76.0233918 C28.7869396,66.4592593 30.9389864,58.3393762 36.2832359,51.8734893 Z" id="Path"></path>
                <path d="M70.1167641,42.8818713 C69.8224172,42.8968811 50.3612086,43.9957115 40.7750487,55.6183236 C36.3793372,60.9479532 34.6953216,67.811306 35.762768,76.0233918 L48.8493177,76.0233918 L71.5711501,42.814425 L70.1167641,42.8818713 Z" id="Path"></path>
                <path d="M24.2902534,96.0561404 C24.0302144,96.9401559 24.2023392,97.8951267 24.754386,98.6329435 C25.3064327,99.3707602 26.1738791,99.8052632 27.0955166,99.8052632 L50.4873294,99.8052632 C51.4089669,99.8052632 52.2764133,99.3707602 52.82846,98.6329435 C53.3805068,97.8951267 53.5526316,96.9401559 53.2925926,96.0561404 L49.1204678,81.871345 L28.4623782,81.871345 L24.2902534,96.0561404 Z" id="Path"></path>
            </g>
        </g>
    </g>
</svg>