<?xml version="1.0" encoding="UTF-8"?>
<svg width="100px" height="100px" viewBox="0 0 100 100" version="1.1" xmlns="http://www.w3.org/2000/svg" xmlns:xlink="http://www.w3.org/1999/xlink">
    <!-- Generator: Sketch 59.1 (86144) - https://sketch.com -->
    <title>icn_click</title>
    <desc>Created with Sketch.</desc>
    <g id="Page-1" stroke="none" stroke-width="1" fill="none" fill-rule="evenodd">
        <g id="Case-Study---Reddoorz" transform="translate(-955.000000, -835.000000)" fill="#FF5254" fill-rule="nonzero">
            <g id="icn_click" transform="translate(955.000000, 835.000000)">
                <path d="M82.6290764,99.1445479 L65.593013,82.1122951 L57.3352388,90.3696374 C56.6224019,91.0824371 55.5874062,91.3761604 54.6006857,91.1480334 C53.6141598,90.9142616 52.8213185,90.1899777 52.5020797,89.2291969 L35.9838061,39.6794978 C35.6330327,38.6301523 35.9067216,37.4725828 36.6880781,36.6912671 C37.4665147,35.9128712 38.6270647,35.6277124 39.676465,35.9870319 L89.2287553,52.5044418 C90.189781,52.8238586 90.9139081,53.6164638 91.1476921,54.6029381 C91.378751,55.5866872 91.0850123,56.6216288 90.3692555,57.3373482 L82.1114813,65.5946906 L99.1446249,82.6296685 C100.285125,83.770109 100.285125,85.6178991 99.1446249,86.7583397 L86.7579635,99.1443533 C85.6172687,100.285183 83.7695766,100.285183 82.6290764,99.1445479 Z" id="Path"></path>
                <path d="M37.9166667,23.3333333 C36.3045278,23.3333333 35,22.0288056 35,20.4166667 L35,2.91666667 C35,1.30452778 36.3045278,-1.52766688e-13 37.9166667,-1.52766688e-13 C39.5288056,-1.52766688e-13 40.8333333,1.30452778 40.8333333,2.91666667 L40.8333333,20.4166667 C40.8333333,22.0288056 39.5288056,23.3333333 37.9166667,23.3333333 Z" id="Path"></path>
                <path d="M23.3207461,27.4730961 L10.8602697,15.0127362 C9.71324342,13.8657206 9.71324342,12.0072773 10.8602697,10.8602617 C12.0072961,9.7132461 13.8657567,9.7132461 15.012783,10.8602617 L27.4730636,23.3204259 C28.6200899,24.4674415 28.6200899,26.3258847 27.4730636,27.4729003 C26.3260373,28.6201117 24.4677724,28.6201117 23.3207461,27.4730961 Z" id="Path"></path>
                <path d="M10.8602697,64.9730636 C9.71324342,63.8260373 9.71324342,61.9675766 10.8602697,60.8205503 L23.3205503,48.3602697 C24.4675766,47.2132434 26.3260373,47.2132434 27.4730636,48.3602697 C28.6200899,49.5072961 28.6200899,51.3657567 27.4730636,52.512783 L15.012783,64.9730636 C13.8657567,66.1200899 12.0074918,66.1200899 10.8602697,64.9730636 Z" id="Path"></path>
                <path d="M48.3602697,27.4730636 C47.2132434,26.3260373 47.2132434,24.4675766 48.3602697,23.3205503 L60.8205503,10.8602697 C61.9675766,9.71324342 63.8260373,9.71324342 64.9730636,10.8602697 C66.1200899,12.0072961 66.1200899,13.8657567 64.9730636,15.012783 L52.512783,27.4730636 C51.3657567,28.6200899 49.5074918,28.6200899 48.3602697,27.4730636 Z" id="Path"></path>
                <path d="M20.4166667,40.8333333 L2.91666667,40.8333333 C1.30452778,40.8333333 -2.42650344e-12,39.5288056 -2.42650344e-12,37.9166667 C-2.42650344e-12,36.3045278 1.30452778,35 2.91666667,35 L20.4166667,35 C22.0288056,35 23.3333333,36.3045278 23.3333333,37.9166667 C23.3333333,39.5288056 22.0288056,40.8333333 20.4166667,40.8333333 Z" id="Path"></path>
            </g>
        </g>
    </g>
</svg>