<?xml version="1.0" encoding="UTF-8"?>
<svg width="100px" height="68px" viewBox="0 0 100 68" version="1.1" xmlns="http://www.w3.org/2000/svg" xmlns:xlink="http://www.w3.org/1999/xlink">
    <!-- Generator: Sketch 59.1 (86144) - https://sketch.com -->
    <title>icn_impressions</title>
    <desc>Created with Sketch.</desc>
    <g id="Page-1" stroke="none" stroke-width="1" fill="none" fill-rule="evenodd">
        <g id="Case-Study---British-Connections" transform="translate(-896.000000, -1126.000000)" fill="#FF5254" fill-rule="nonzero">
            <g id="icn_impressions" transform="translate(896.000000, 1126.000000)">
                <path d="M50,20.8636364 C42.5160792,20.8636364 36.4341085,26.9262553 36.4341085,34.3863636 C36.4341085,41.8464719 42.5160792,47.9090909 50,47.9090909 C57.4839208,47.9090909 63.5658915,41.8464719 63.5658915,34.3863636 C63.5658915,26.9262553 57.4837088,20.8636364 50,20.8636364 Z" id="Path"></path>
                <path d="M50,0 C27.2726885,0 7.86369622,14.098525 0,34 C7.86369622,53.9012625 27.2726885,68 50,68 C72.7498967,68 92.1363038,53.9012625 100,34 C92.1363038,14.098525 72.7498967,0 50,0 Z M50,56.666525 C37.4545633,56.666525 27.2726885,46.5117875 27.2726885,33.9997875 C27.2726885,21.4877875 37.4545633,11.3332625 50,11.3332625 C62.5454367,11.3332625 72.7273115,21.488 72.7273115,34 C72.7273115,46.512 62.5454367,56.666525 50,56.666525 Z" id="Shape"></path>
            </g>
        </g>
    </g>
</svg>