<?xml version="1.0" encoding="UTF-8"?>
<svg width="100px" height="100px" viewBox="0 0 100 100" version="1.1" xmlns="http://www.w3.org/2000/svg" xmlns:xlink="http://www.w3.org/1999/xlink">
    <!-- Generator: Sketch 59.1 (86144) - https://sketch.com -->
    <title>icn_google</title>
    <desc>Created with Sketch.</desc>
    <g id="Page-1" stroke="none" stroke-width="1" fill="none" fill-rule="evenodd">
        <g id="Case-Study---British-Connections" transform="translate(-424.000000, -1112.000000)" fill="#FF5254" fill-rule="nonzero">
            <g id="icn_google" transform="translate(424.000000, 1112.000000)">
                <path d="M23.056837,50 C23.056837,45.082754 24.3997056,40.4764341 26.7326733,36.532286 L26.7326733,19.8019802 L10.1494275,19.8019802 C3.56766125,28.4257213 0,38.9357603 0,50 C0,61.0642397 3.56766125,71.5742787 10.1494275,80.1980198 L26.7326733,80.1980198 L26.7326733,63.467714 C24.3997056,59.5235659 23.056837,54.917246 23.056837,50 L23.056837,50 Z" id="Path"></path>
                <path d="M49.4617282,76.9279066 L37.6237624,88.4639533 L49.4617282,100 C60.7233823,100 71.4205628,96.4299781 80.1980198,89.8438568 L80.1980198,73.2673267 L63.1876522,73.2673267 C59.1380814,75.6102978 54.4299251,76.9279066 49.4617282,76.9279066 L49.4617282,76.9279066 Z" id="Path"></path>
                <path d="M26.7244426,63.3663366 L9.9009901,80.3174806 C11.2229609,82.0473975 12.6624705,83.7040562 14.2201038,85.2737084 C23.6450421,94.7699864 36.1760855,100 49.5049505,100 L49.5049505,76.4316486 C39.8320696,76.4316486 31.3542642,71.1837624 26.7244426,63.3663366 Z" id="Path"></path>
                <path d="M100,50.1506054 C100,47.0882837 99.7218827,44.0202601 99.1731436,41.0320633 L98.7291422,38.6138614 L49.5049505,38.6138614 L49.5049505,62.2079933 L73.4609066,62.2079933 C71.1345838,66.8208427 67.5577197,70.5843034 63.2269802,73.1474126 L80.2327661,90.0990099 C81.9701114,88.7655482 83.6338838,87.313526 85.2102761,85.7423534 C94.7475286,76.2352946 100,63.5953283 100,50.1506054 L100,50.1506054 Z" id="Path"></path>
                <path d="M68.3480898,31.5685778 L70.4347164,33.6633663 L87.1287129,16.904268 L85.0420863,14.8094795 C75.5293039,5.25948745 62.8814665,0 49.4281746,0 L37.6237624,11.8505857 L49.4281746,23.7011714 C56.5749592,23.7011714 63.2942274,26.4951445 68.3480898,31.5685778 Z" id="Path"></path>
                <path d="M49.5049505,23.5683514 L49.5049505,0 C36.1761511,0 23.6451693,5.23001357 14.2200825,14.7262916 C12.6624569,16.2957474 11.2229544,17.952406 9.9009901,19.6825194 L26.7243598,36.6336634 C31.3543536,28.8162376 39.8321172,23.5683514 49.5049505,23.5683514 Z" id="Path"></path>
            </g>
        </g>
    </g>
</svg>