<?xml version="1.0" encoding="UTF-8"?>
<svg width="100px" height="100px" viewBox="0 0 100 100" version="1.1" xmlns="http://www.w3.org/2000/svg" xmlns:xlink="http://www.w3.org/1999/xlink">
    <!-- Generator: Sketch 59.1 (86144) - https://sketch.com -->
    <title>icn_new_user</title>
    <desc>Created with Sketch.</desc>
    <g id="Page-1" stroke="none" stroke-width="1" fill="none" fill-rule="evenodd">
        <g id="Case-Study---British-Connections" transform="translate(-656.000000, -1126.000000)" fill="#FF5254" fill-rule="nonzero">
            <g id="icn_new_user" transform="translate(656.000000, 1126.000000)">
                <path d="M43.9453125,45.3125 C31.4525391,45.3125 21.2890625,35.1490234 21.2890625,22.65625 C21.2890625,10.1634766 31.4525391,0 43.9453125,0 C56.4380859,0 66.6015625,10.1634766 66.6015625,22.65625 C66.6015625,35.1490234 56.4380859,45.3125 43.9453125,45.3125 Z" id="Path"></path>
                <g id="Group" transform="translate(0.000000, 41.406250)">
                    <path d="M52.734375,20.5078125 C52.734375,15.4921875 54.1425781,10.7994141 56.5835937,6.80332031 C52.7720703,8.69648438 48.4820312,9.765625 43.9453125,9.765625 C38.0609375,9.765625 32.5875,7.97382812 28.0412109,4.90742188 C22.4197266,7.08652344 17.2626953,10.4330078 12.8714844,14.8242187 C4.57109375,23.1244141 -2.84217094e-14,34.1599609 -2.84217094e-14,45.8982422 L-2.84217094e-14,55.6640625 C-2.84217094e-14,57.2820312 1.31171875,58.59375 2.9296875,58.59375 L84.9609375,58.59375 C86.5789062,58.59375 87.890625,57.2820312 87.890625,55.6640625 L87.890625,45.8982422 C87.890625,45.7222656 87.8857422,45.5457031 87.8835937,45.3693359 C85.1351562,46.3431641 82.1794922,46.875 79.1015625,46.875 C64.5626953,46.875 52.734375,35.0466797 52.734375,20.5078125 L52.734375,20.5078125 Z" id="Path"></path>
                    <path d="M79.1015625,0 C67.7935547,0 58.59375,9.19980469 58.59375,20.5078125 C58.59375,31.8158203 67.7935547,41.015625 79.1015625,41.015625 C90.4095703,41.015625 99.609375,31.8158203 99.609375,20.5078125 C99.609375,9.19980469 90.4095703,0 79.1015625,0 Z M84.9609375,23.4375 L82.03125,23.4375 L82.03125,26.3671875 C82.03125,27.9851562 80.7195313,29.296875 79.1015625,29.296875 C77.4835937,29.296875 76.171875,27.9851562 76.171875,26.3671875 L76.171875,23.4375 L73.2421875,23.4375 C71.6242187,23.4375 70.3125,22.1257812 70.3125,20.5078125 C70.3125,18.8898438 71.6242187,17.578125 73.2421875,17.578125 L76.171875,17.578125 L76.171875,14.6484375 C76.171875,13.0304688 77.4835937,11.71875 79.1015625,11.71875 C80.7195313,11.71875 82.03125,13.0304688 82.03125,14.6484375 L82.03125,17.578125 L84.9609375,17.578125 C86.5789062,17.578125 87.890625,18.8898438 87.890625,20.5078125 C87.890625,22.1257812 86.5789062,23.4375 84.9609375,23.4375 Z" id="Shape"></path>
                </g>
            </g>
        </g>
    </g>
</svg>