<?xml version="1.0" encoding="UTF-8"?>
<svg width="100px" height="100px" viewBox="0 0 100 100" version="1.1" xmlns="http://www.w3.org/2000/svg" xmlns:xlink="http://www.w3.org/1999/xlink">
    <!-- Generator: Sketch 59.1 (86144) - https://sketch.com -->
    <title>icn_sales</title>
    <desc>Created with Sketch.</desc>
    <g id="Page-1" stroke="none" stroke-width="1" fill="none" fill-rule="evenodd">
        <g id="Case-Study---Blanc-Des-Vosges" transform="translate(-1192.000000, -839.000000)" fill="#FF5254" fill-rule="nonzero">
            <g id="icn_sales" transform="translate(1192.000000, 839.000000)">
                <path d="M89.2262231,61.1847318 L78.1624804,75.6989366 C75.9486399,78.6029513 72.5125363,80.3064313 68.8683672,80.3064313 L48.3250658,80.3064313 C46.7096818,80.3064313 45.4000585,78.9926311 45.4000585,77.3720951 C45.4000585,75.751559 46.7096818,74.4377589 48.3250658,74.4377589 L66.1303653,74.4377589 C69.9572499,74.4377589 73.1620829,71.2958674 73.0889577,67.4573644 C73.0179775,63.7376043 69.99001,60.7441902 66.2651107,60.7441902 L45.7900595,60.7441902 C39.9113798,55.0736834 30.8395671,54.4101321 24.2031155,59.1655173 L22,60.7441902 L22,94 L41.5000488,94 L45.4000585,94 L72.8686072,94 C78.8403021,94 84.402106,90.9537678 87.6313141,85.9145345 L99.0464476,68.1009622 C99.6690842,67.1293057 100,65.9988038 100,64.8436534 C100,59.0833559 92.7140018,56.608928 89.2262231,61.1847318 L89.2262231,61.1847318 Z" id="Path"></path>
                <path d="M13.0731707,55 L2.92682927,55 C1.31043902,55 0,56.314 0,57.9347826 L0,97.0652174 C0,98.686 1.31043902,100 2.92682927,100 L13.0731707,100 C14.689561,100 16,98.686 16,97.0652174 L16,57.9347826 C16,56.314 14.689561,55 13.0731707,55 Z" id="Path"></path>
                <path d="M56,16 C55.4532083,16.4475685 55.1518638,17.1252331 55.0483102,17.7130015 C54.9051626,18.523789 55.0862918,19.2770047 55.5100016,19.6316167 C55.6592406,19.7565151 55.8237081,19.8793095 56,20 L56,16 Z" id="Path"></path>
                <path d="M58.5,49 C72.0093,49 83,38.0093 83,24.5 C83,10.9907 72.0093,0 58.5,0 C44.9907,0 34,10.9907 34,24.5 C34,38.0093 44.9907,49 58.5,49 Z M51.083556,32.510324 C51.675868,31.604804 52.890872,31.350004 53.796784,31.9431 C54.85538,32.635568 55.51884,32.93584 56.40476,33.0603 L56.40476,24.783024 C55.152908,24.209332 54.217204,23.6572 53.449472,23.054892 C51.822868,21.779128 51.080224,19.565896 51.511228,17.27838 C51.980844,14.785652 53.716032,12.802328 56.03922,12.102608 C56.162308,12.065564 56.284024,12.031656 56.40476,11.999708 L56.40476,10.78 C56.40476,9.697688 57.282448,8.82 58.36476,8.82 C59.447072,8.82 60.32476,9.697688 60.32476,10.78 L60.32476,11.784892 C62.227724,12.114368 63.572676,13.051248 64.22418,13.798988 C64.935268,14.615132 64.849812,15.853264 64.033668,16.564156 C63.221836,17.271324 61.99272,17.190964 61.279672,16.386776 C61.234984,16.3415 60.92354,16.04162 60.32476,15.820728 L60.32476,22.15388 C60.67266,22.283044 61.020364,22.408288 61.3616,22.529024 C64.806888,23.746968 66.72318,26.93628 66.130084,30.46526 C65.668896,33.20828 63.581496,35.990108 60.32476,36.816248 L60.32476,38.22 C60.32476,39.302312 59.447072,40.18 58.36476,40.18 C57.282448,40.18 56.40476,39.302312 56.40476,38.22 L56.40476,37.004408 C54.822256,36.8676 53.510428,36.440124 51.65078,35.223552 C50.744868,34.630848 50.491048,33.416236 51.083556,32.510324 L51.083556,32.510324 Z" id="Shape"></path>
                <path d="M61.9481092,29.3213785 C62.0774451,28.591202 62.1304,26.8512188 60,26 L60,32 C61.1073277,31.3981507 61.7687714,30.3338003 61.9481092,29.3213785 Z" id="Path"></path>
            </g>
        </g>
    </g>
</svg>