<?xml version="1.0" encoding="UTF-8"?>
<svg width="100px" height="87px" viewBox="0 0 100 87" version="1.1" xmlns="http://www.w3.org/2000/svg" xmlns:xlink="http://www.w3.org/1999/xlink">
    <!-- Generator: Sketch 59.1 (86144) - https://sketch.com -->
    <title>icn_sold</title>
    <desc>Created with Sketch.</desc>
    <g id="Page-1" stroke="none" stroke-width="1" fill="none" fill-rule="evenodd">
        <g id="Case-Study---Floristique" transform="translate(-1134.000000, -845.000000)" fill="#FF5254" fill-rule="nonzero">
            <g id="icn_sold" transform="translate(1134.000000, 845.000000)">
                <path d="M71.9960854,57.3248408 L70.0636943,57.3248408 L70.0636943,67.5159236 L71.9960854,67.5159236 C73.1845476,67.5159236 73.8853503,66.7682083 73.8853503,65.2615273 L73.8853503,59.5229855 C73.8853503,58.0163044 73.1845476,57.3248408 71.9960854,57.3248408 L71.9960854,57.3248408 Z" id="Path"></path>
                <path d="M43.3013204,57.3248408 C42.1128582,57.3248408 41.4012739,58.0045886 41.4012739,59.5164715 L41.4012739,65.3242929 C41.4012739,66.8370315 42.1128582,67.5159236 43.3013204,67.5159236 C44.4906117,67.5159236 45.2229299,66.8370315 45.2229299,65.3242929 L45.2229299,59.5164715 C45.2229299,58.0045886 44.4906117,57.3248408 43.3013204,57.3248408 Z" id="Path"></path>
                <path d="M89.5500761,38.4110614 L86.1678965,38.4110614 L57.0291851,11.2053453 C57.5795684,10.1296605 57.8657325,8.9392242 57.8648547,7.73126862 C57.8622213,3.45831221 54.38875,-0.00262491636 50.1068208,1.493844e-06 C45.8248919,0.00263089514 42.3566874,3.46882378 42.3593208,7.74178042 C42.3584431,8.94535601 42.6454851,10.1322884 43.1949905,11.2035935 L14.0562791,38.4110614 L10.6740994,38.4110614 C4.85074628,38.4110614 0,43.1955815 0,49.0067322 L0,76.1406193 C0,81.9526461 4.85074628,86.6241853 10.6740994,86.6241853 L89.5500761,86.6241853 C92.3327154,86.6294225 95.0021183,85.5248309 96.9648885,83.5556619 C98.9267808,81.5873689 100.019647,78.917428 99.9997325,76.1406193 L99.9997325,49.0067322 C99.9997325,43.1955815 95.3734293,38.4110614 89.5500761,38.4110614 Z M28.1792714,70.7981099 C25.2359937,70.7981099 22.764097,69.3632794 22.764097,67.8828989 C22.764097,67.1208093 23.4382506,65.9995743 24.2923541,65.9995743 C25.3483526,65.9995743 26.0225063,67.6586519 28.1125581,67.6586519 C29.1457338,67.6586519 30.2921461,67.2548319 30.2921461,66.1782712 C30.2921461,63.4654081 23.1687647,63.9358012 23.1687647,58.6887718 C23.1687647,55.3250668 26.1120424,54.0470341 28.921016,54.0470341 C30.1121962,54.0470341 33.3934283,54.2712811 33.3934283,56.0205828 C33.3934283,56.6258746 32.9887606,57.8592331 31.9994754,57.8592331 C31.1910176,57.8592331 30.7635271,57.0069193 28.921016,57.0069193 C27.3260455,57.0069193 26.6738371,57.6568851 26.6738371,58.3524013 C26.6738371,60.5948713 33.7972185,60.1691523 33.7972185,65.8200016 C33.7972185,69.0488079 31.4376807,70.7981099 28.1792714,70.7981099 Z M48.5390626,65.4161819 C48.5390626,69.2730549 46.1233454,70.7087614 43.0220631,70.7087614 C39.9207808,70.7087614 37.5278864,69.2730549 37.5278864,65.4161819 L37.5278864,59.4736363 C37.5278864,55.6167631 39.9207808,54.1810566 43.0220631,54.1810566 C46.1233454,54.1810566 48.5390626,55.6167631 48.5390626,59.4736363 L48.5390626,65.4161819 Z M61.7526496,70.4783825 L54.6512135,70.4783825 C53.8875237,70.4783825 53.0334203,70.2147172 53.0334203,69.4973019 L53.0334203,55.2357183 C53.0334203,54.4955281 53.9551146,54.1810566 54.8311633,54.1810566 C55.707212,54.1810566 56.6289064,54.4955281 56.6289064,55.2357183 L56.6289064,67.5631715 L61.7526496,67.5631715 C62.4268032,67.5631715 62.7638801,68.2586877 62.7638801,69.020777 C62.7638801,69.7837425 62.4268032,70.4783825 61.7526496,70.4783825 Z M77.5276694,65.2812832 C77.5276694,69.1381564 75.0329499,70.4783825 71.9325452,70.4783825 L67.9543366,70.4783825 C67.0335198,70.4783825 66.5164932,70.0806946 66.5164932,69.5200771 L66.5164932,55.2357183 C66.5164932,54.6751008 67.0335198,54.1092276 67.9543366,54.1092276 L71.9325452,54.1092276 C75.0329499,54.1092276 77.5276694,55.6167631 77.5276694,59.4736363 L77.5276694,65.2812832 Z M18.6577289,38.4110614 L45.1630274,13.6676826 C48.0237915,16.0713301 52.2038953,16.0678262 55.0611481,13.6606748 L81.5664466,38.4110614 L18.6577289,38.4110614 Z" id="Shape"></path>
            </g>
        </g>
    </g>
</svg>