<?xml version="1.0" encoding="UTF-8"?>
<svg width="12px" height="11px" viewBox="0 0 12 11" version="1.1" xmlns="http://www.w3.org/2000/svg" xmlns:xlink="http://www.w3.org/1999/xlink">
    <!-- Generator: Sketch 59.1 (86144) - https://sketch.com -->
    <title>icn_sml_tick</title>
    <desc>Created with Sketch.</desc>
    <g id="Page-1" stroke="none" stroke-width="1" fill="none" fill-rule="evenodd">
        <path d="M11.652832,1.04003906 C11.652832,1.61133098 11.3940456,2.16796604 10.8764648,2.70996094 L10.7958984,2.79052734 L6.26953125,7.55859375 C5.30761238,8.56934099 4.48852877,9.35058318 3.81225586,9.90234375 C3.13598295,10.4541043 2.6586928,10.7299805 2.38037109,10.7299805 C2.08740088,10.7299805 1.72363499,10.5920424 1.2890625,10.3161621 C0.854490015,10.0402818 0.573731104,9.75586084 0.446777344,9.46289062 C0.339354932,9.21874878 0.238037585,8.70117583 0.142822266,7.91015625 C0.0476069458,7.11913667 0,6.26221165 0,5.33935547 C0,4.83642327 0.209958838,4.37134003 0.629882812,3.9440918 C1.04980679,3.51684357 1.51366934,3.30322266 2.02148438,3.30322266 C2.50488523,3.30322266 2.79296829,3.74511277 2.88574219,4.62890625 L2.90771484,4.85595703 L2.90771484,4.85595703 C2.98584023,5.53467136 3.07617136,6.00829944 3.17871094,6.27685547 C3.28125051,6.5454115 3.42040928,6.6796875 3.59619141,6.6796875 C3.66943396,6.6796875 3.80615134,6.60034259 4.00634766,6.44165039 C4.20654397,6.28295819 4.44579939,6.0668959 4.72412109,5.79345703 L9.375,1.18652344 C9.76562695,0.795896484 10.1147446,0.500489282 10.4223633,0.300292969 C10.729982,0.100096655 10.9912099,0 11.2060547,0 C11.3671883,0 11.4819333,0.0610345459 11.550293,0.183105469 C11.6186527,0.305176392 11.652832,0.510252466 11.652832,0.798339844 L11.652832,1.04003906 Z" id="icn_sml_tick" fill="#666666" fill-rule="nonzero"></path>
    </g>
</svg>