<?xml version="1.0" encoding="UTF-8"?>
<svg width="80px" height="80px" viewBox="0 0 80 80" version="1.1" xmlns="http://www.w3.org/2000/svg" xmlns:xlink="http://www.w3.org/1999/xlink">
    <!-- Generator: Sketch 59.1 (86144) - https://sketch.com -->
    <title>icn_video_creation</title>
    <desc>Created with Sketch.</desc>
    <g id="Page-1" stroke="none" stroke-width="1" fill="none" fill-rule="evenodd">
        <g id="Social-Media---Tik-Tok---Douyin" transform="translate(-1081.000000, -2189.000000)" fill="#FF5254" fill-rule="nonzero">
            <g id="icn_video_creation" transform="translate(1081.000000, 2189.000000)">
                <path d="M40,0 C17.9086187,0 0,17.9086187 0,40 C0,62.0913813 17.9086187,80 40,80 C62.0913813,80 80,62.0913813 80,40 C79.9765625,17.918496 62.0816714,0.0236049436 40,0 Z M56.8455592,41.2744995 C56.5686615,41.8299691 56.1184935,42.2803045 55.5628565,42.5572022 L55.5628565,42.5714322 L32.7057376,54.0000753 C31.2941285,54.7053777 29.5781663,54.1329996 28.8726965,52.7213905 C28.6721382,52.3201065 28.5688457,51.8771371 28.5713121,51.4286432 L28.5713121,28.5715242 C28.5706872,26.9935086 29.8492046,25.7138194 31.4272202,25.7129821 C31.8710266,25.7129821 32.3088062,25.81594 32.7057376,26.014322 L55.5628565,37.4429652 C56.9751353,38.1467608 57.5495223,39.8622208 56.8455592,41.2744995 Z" id="Shape"></path>
            </g>
        </g>
    </g>
</svg>