<?xml version="1.0" encoding="UTF-8"?>
<svg width="30px" height="30px" viewBox="0 0 30 30" version="1.1" xmlns="http://www.w3.org/2000/svg" xmlns:xlink="http://www.w3.org/1999/xlink">
    <!-- Generator: Sketch 59.1 (86144) - https://sketch.com -->
    <title>icn_content</title>
    <desc>Created with Sketch.</desc>
    <g id="Page-1" stroke="none" stroke-width="1" fill="none" fill-rule="evenodd">
        <g id="New-Mega-Menu---Option-1.2-(Click-SEO)" transform="translate(-1110.000000, -186.000000)" fill="#427FE0" fill-rule="nonzero">
            <g id="Group-13" transform="translate(130.000000, 157.000000)">
                <g id="Mega-Menu-2">
                    <g id="Group-2" transform="translate(980.000000, 29.000000)">
                        <g id="icn_content">
                            <path d="M5.859375,6.62109375 C5.859375,5.97381592 6.38397217,5.44921875 7.03125,5.44921875 L22.96875,5.44921875 C23.6160278,5.44921875 24.140625,5.97381592 24.140625,6.62109375 C24.140625,7.26837158 23.6160278,7.79296875 22.96875,7.79296875 L7.03125,7.79296875 C6.38397217,7.79296875 5.859375,7.26837158 5.859375,6.62109375 Z M24.140625,11.3085938 C24.140625,10.6613159 23.6160278,10.1367188 22.96875,10.1367188 L7.03125,10.1367188 C6.38397217,10.1367188 5.859375,10.6613159 5.859375,11.3085938 C5.859375,11.9558716 6.38397217,12.4804688 7.03125,12.4804688 L22.96875,12.4804688 C23.6160278,12.4804688 24.140625,11.9558716 24.140625,11.3085938 Z M7.03125,14.8242188 C6.38397217,14.8242188 5.859375,15.3488159 5.859375,15.9960938 C5.859375,16.6433716 6.38397217,17.1679688 7.03125,17.1679688 L12.421875,17.1679688 C13.0691528,17.1679688 13.59375,16.6433716 13.59375,15.9960938 C13.59375,15.3488159 13.0691528,14.8242188 12.421875,14.8242188 L7.03125,14.8242188 Z M28.9711761,23.9994049 C30.3410339,25.3692627 30.3410339,27.5994873 28.9702606,28.9702606 C28.2849884,29.6555329 27.3845672,29.9983978 26.484375,29.9983978 C25.5841828,29.9983978 24.6837616,29.6555329 23.9984894,28.9702606 L17.5902557,22.5501251 C17.4474335,22.4070739 17.3442077,22.2296906 17.2904205,22.0349121 L15.980072,17.305069 C15.8660889,16.8930817 15.9851074,16.4517975 16.2911224,16.1533356 C16.5969086,15.8551025 17.0409393,15.7466126 17.4499512,15.8708954 L22.0628357,17.27211 C22.2475433,17.328186 22.4155426,17.428894 22.5517273,17.5655365 L28.9711761,23.9994049 Z M19.466629,21.1122894 L23.7741852,25.4278564 L25.4317474,23.7702942 L21.1001587,19.4290924 L18.8074494,18.732605 L19.466629,21.1122894 Z M27.3129272,25.6558228 L27.0872497,25.4294586 L25.4299164,27.086792 L25.6565094,27.3138428 C26.1126709,27.7700043 26.8560791,27.7700043 27.3129272,27.3129272 C27.7700043,26.8560791 27.7700043,26.1126709 27.3129272,25.6558228 Z M25.3125,0 L4.6875,0 C2.10273744,0 0,2.10273744 0,4.6875 L0,25.3125 C0,27.8972626 2.10273744,30 4.6875,30 L19.0429688,30 C19.6902466,30 20.2148438,29.4754028 20.2148438,28.828125 C20.2148438,28.1808472 19.6902466,27.65625 19.0429688,27.65625 L4.6875,27.65625 C3.39523312,27.65625 2.34375,26.6047669 2.34375,25.3125 L2.34375,4.6875 C2.34375,3.39523312 3.39523312,2.34375 4.6875,2.34375 L25.3125,2.34375 C26.6047669,2.34375 27.65625,3.39523312 27.65625,4.6875 L27.65625,19.1015625 C27.65625,19.7488403 28.1808472,20.2734375 28.828125,20.2734375 C29.4754028,20.2734375 30,19.7488403 30,19.1015625 L30,4.6875 C30,2.10273744 27.8972626,0 25.3125,0 Z" id="Shape"></path>
                        </g>
                    </g>
                </g>
            </g>
        </g>
    </g>
</svg>