<?xml version="1.0" encoding="UTF-8"?>
<svg width="80px" height="80px" viewBox="0 0 80 80" version="1.1" xmlns="http://www.w3.org/2000/svg" xmlns:xlink="http://www.w3.org/1999/xlink">
    <!-- Generator: Sketch 59.1 (86144) - https://sketch.com -->
    <title>icn_8</title>
    <desc>Created with Sketch.</desc>
    <g id="Page-1" stroke="none" stroke-width="1" fill="none" fill-rule="evenodd">
        <g id="Social-Media---Weibo" transform="translate(-387.000000, -5628.000000)" fill-rule="nonzero">
            <g id="icn_8" transform="translate(387.000000, 5628.000000)">
                <path d="M40,0 C17.9086187,0 0,17.9086187 0,40 C0,62.0913813 17.9086187,80 40,80 C62.0913813,80 80,62.0913813 80,40 C79.9765625,17.918496 62.0816714,0.0236049436 40,0 Z" id="Shape" fill="#FF5254"></path>
                <path d="M39.05,22.105 C40.5500075,22.105 41.9262437,22.3262478 43.17875,22.76875 C44.4312563,23.2112522 45.5074955,23.8262461 46.4075,24.61375 C47.3075045,25.4012539 48.0087475,26.3274947 48.51125,27.3925 C49.0137525,28.4575053 49.265,29.605 49.265,30.835 C49.265,32.5450086 48.867504,34.0074939 48.0725,35.2225 C47.277496,36.4375061 46.0925079,37.3749967 44.5175,38.035 C46.51251,38.6800032 47.9824953,39.6662434 48.9275,40.99375 C49.8725047,42.3212566 50.345,43.9449904 50.345,45.865 C50.345,47.3050072 50.0712527,48.6099941 49.52375,49.78 C48.9762473,50.9500058 48.207505,51.9474959 47.2175,52.7725 C46.2274951,53.5975041 45.0387569,54.2349977 43.65125,54.685 C42.2637431,55.1350022 40.7300084,55.36 39.05,55.36 C37.3699916,55.36 35.8362569,55.1350022 34.44875,54.685 C33.0612431,54.2349977 31.8725049,53.5975041 30.8825,52.7725 C29.8924951,51.9474959 29.1237527,50.9500058 28.57625,49.78 C28.0287473,48.6099941 27.755,47.3050072 27.755,45.865 C27.755,43.9449904 28.2274953,42.3212566 29.1725,40.99375 C30.1175047,39.6662434 31.58749,38.6800032 33.5825,38.035 C31.992492,37.3749967 30.8037539,36.4375061 30.01625,35.2225 C29.2287461,34.0074939 28.835,32.5450086 28.835,30.835 C28.835,29.605 29.0862475,28.4575053 29.58875,27.3925 C30.0912525,26.3274947 30.7924955,25.4012539 31.6925,24.61375 C32.5925045,23.8262461 33.6687437,23.2112522 34.92125,22.76875 C36.1737563,22.3262478 37.5499925,22.105 39.05,22.105 Z M39.05,40.3525 C37.3099913,40.3525 35.9450049,40.8099954 34.955,41.725 C33.964995,42.6400046 33.47,43.9899911 33.47,45.775 C33.47,46.5250037 33.5899988,47.2224968 33.83,47.8675 C34.0700012,48.5125032 34.4262476,49.0674977 34.89875,49.5325 C35.3712524,49.9975023 35.9524965,50.3612487 36.6425,50.62375 C37.3325035,50.8862513 38.1349954,51.0175 39.05,51.0175 C39.9650046,51.0175 40.7674965,50.8862513 41.4575,50.62375 C42.1475035,50.3612487 42.7287476,49.9975023 43.20125,49.5325 C43.6737524,49.0674977 44.0299988,48.5125032 44.27,47.8675 C44.5100012,47.2224968 44.63,46.5250037 44.63,45.775 C44.63,43.9899911 44.1350049,42.6400046 43.145,41.725 C42.154995,40.8099954 40.7900087,40.3525 39.05,40.3525 Z M39.05,26.29 C38.2249959,26.29 37.512503,26.4174987 36.9125,26.6725 C36.312497,26.9275013 35.813752,27.2687479 35.41625,27.69625 C35.018748,28.1237521 34.7262509,28.6149972 34.53875,29.17 C34.3512491,29.7250028 34.2575,30.3099969 34.2575,30.925 C34.2575,31.5700032 34.3362492,32.196247 34.49375,32.80375 C34.6512508,33.411253 34.9174981,33.9512476 35.2925,34.42375 C35.6675019,34.8962524 36.1624969,35.2749986 36.7775,35.56 C37.3925031,35.8450014 38.1499955,35.9875 39.05,35.9875 C39.9500045,35.9875 40.7074969,35.8450014 41.3225,35.56 C41.9375031,35.2749986 42.4324981,34.8962524 42.8075,34.42375 C43.1825019,33.9512476 43.4487492,33.411253 43.60625,32.80375 C43.7637508,32.196247 43.8425,31.5700032 43.8425,30.925 C43.8425,30.3099969 43.745001,29.7250028 43.55,29.17 C43.354999,28.6149972 43.0625019,28.1237521 42.6725,27.69625 C42.2824981,27.2687479 41.787503,26.9275013 41.1875,26.6725 C40.587497,26.4174987 39.8750041,26.29 39.05,26.29 Z" id="8" fill="#FFFFFF"></path>
            </g>
        </g>
    </g>
</svg>