<?xml version="1.0" encoding="UTF-8"?>
<svg width="79px" height="80px" viewBox="0 0 79 80" version="1.1" xmlns="http://www.w3.org/2000/svg" xmlns:xlink="http://www.w3.org/1999/xlink">
    <!-- Generator: Sketch 59.1 (86144) - https://sketch.com -->
    <title>icn_discover_feature</title>
    <desc>Created with Sketch.</desc>
    <g id="Page-1" stroke="none" stroke-width="1" fill="none" fill-rule="evenodd">
        <g id="Social-Media---Weibo" transform="translate(-694.000000, -2084.000000)" fill="#FF5254" fill-rule="nonzero">
            <g id="icn_discover_feature" transform="translate(694.000000, 2084.000000)">
                <path d="M55.0372524,47.47188 C64.710014,33.9114421 61.4749765,15.1342149 47.8161863,5.53339727 C34.157396,-4.0674204 15.243981,-0.857971827 5.57352999,12.7047605 C-4.096921,26.265199 -0.864194177,45.0401316 12.7969067,54.6409493 C22.5459226,61.4934328 35.4352362,62.0210766 45.7180334,55.9921759 L68.0605881,78.040792 C70.4730023,80.5620105 74.4867593,80.662951 77.0262632,78.2679083 C79.5657678,75.8751595 79.6674404,71.8903041 77.2573379,69.3690862 C77.181083,69.2887924 77.1071393,69.2153812 77.0262632,69.1396753 L55.0372524,47.47188 Z M30.2869053,49.527396 C19.4934338,49.5296901 10.7426575,40.8488073 10.7357247,30.1330556 C10.7334145,19.417304 19.4772585,10.7295387 30.2730405,10.7249489 C41.0526472,10.7203623 49.7988024,19.3874808 49.8196281,30.0894675 C49.8380848,40.8075131 41.0988626,49.5090427 30.3007694,49.527396 C30.2961482,49.527396 30.293837,49.527396 30.2869053,49.527396 Z" id="icn_research"></path>
            </g>
        </g>
    </g>
</svg>