<?xml version="1.0" encoding="UTF-8"?>
<svg width="244px" height="243px" viewBox="0 0 244 243" version="1.1" xmlns="http://www.w3.org/2000/svg" xmlns:xlink="http://www.w3.org/1999/xlink">
    <!-- Generator: Sketch 59.1 (86144) - https://sketch.com -->
    <title>icn_company</title>
    <desc>Created with Sketch.</desc>
    <g id="Page-1" stroke="none" stroke-width="1" fill="none" fill-rule="evenodd">
        <g id="Government-Funding" transform="translate(-930.000000, -2241.000000)" fill="#427FE0" fill-rule="nonzero">
            <path d="M1004.26083,2241 L1004.26083,2330.80416 L930,2330.80416 L930,2484 L1067.9129,2484 L1067.9129,2410.04352 L1110.34745,2410.04352 L1110.34745,2484 L1174,2484 L1174,2241 L1004.26083,2241 Z M1004,2468 L946,2468 L946,2346 L1004,2346 L1004,2468 Z M1052,2431 L1031,2431 L1031,2410 L1052,2410 L1052,2431 Z M1052,2389 L1031,2389 L1031,2368 L1052,2368 L1052,2389 Z M1052,2347 L1031,2347 L1031,2326 L1052,2326 L1052,2347 Z M1052,2304 L1031,2304 L1031,2283 L1052,2283 L1052,2304 Z M1100,2389 L1079,2389 L1079,2368 L1100,2368 L1100,2389 Z M1100,2347 L1079,2347 L1079,2326 L1100,2326 L1100,2347 Z M1100,2304 L1079,2304 L1079,2283 L1100,2283 L1100,2304 Z M1147,2431 L1126,2431 L1126,2410 L1147,2410 L1147,2431 Z M1147,2389 L1126,2389 L1126,2368 L1147,2368 L1147,2389 Z M1147,2347 L1126,2347 L1126,2326 L1147,2326 L1147,2347 Z M1147,2304 L1126,2304 L1126,2283 L1147,2283 L1147,2304 Z" id="icn_company"></path>
        </g>
    </g>
</svg>