<?xml version="1.0" encoding="UTF-8"?>
<svg width="97px" height="74px" viewBox="0 0 97 74" version="1.1" xmlns="http://www.w3.org/2000/svg" xmlns:xlink="http://www.w3.org/1999/xlink">
    <!-- Generator: Sketch 59.1 (86144) - https://sketch.com -->
    <title>icn_conversion</title>
    <desc>Created with Sketch.</desc>
    <g id="Page-1" stroke="none" stroke-width="1" fill="none" fill-rule="evenodd">
        <g id="SEO-Experts" transform="translate(-1073.000000, -3131.000000)" fill="#FF5254" fill-rule="nonzero">
            <g id="icn_conversion" transform="translate(1073.000000, 3131.000000)">
                <path d="M46,0 C34.8273517,0.64456857 24.3543634,5.00318879 16,12.4859548 L28.3891197,24.9339488 C31.1152248,23.9614018 34.0483567,23.4299554 37.10238,23.4299554 C40.2251605,23.4299554 43.2217605,23.9849373 46,25 L46,0 Z" id="Path"></path>
                <path d="M56.291183,32 L79,11.1732482 C71.0884846,4.48858127 61.3546701,0.597594352 51,0 L51,27.1375543 C52.9841022,28.5005406 54.7661332,30.1395092 56.291183,32 L56.291183,32 Z" id="Path"></path>
                <path d="M0,48.1636594 L0,51 L11.3521851,51 L11.3521851,48.1636594 C11.3521851,39.2048116 15.9943123,31.3103302 23,26.7537195 L12.2398136,16 C4.32802057,24.8702122 0,36.1838135 0,48.1636594 Z" id="Path"></path>
                <path d="M82,51 L97,51 L97,48.1445568 C97,43.9922666 96.486594,39.9202855 95.4951384,36 L82,51 Z" id="Path"></path>
                <path d="M48.5000937,51 C45.4267605,51 42.5369435,52.1964192 40.3639628,54.3683918 C35.8786791,58.8523438 35.8786791,66.1476562 40.3639628,70.631608 C42.5369435,72.8035806 45.4267605,74 48.5000937,74 C51.5726777,74 54.4624949,72.8035806 56.6354755,70.631608 C61.1215082,66.1476562 61.1215082,58.8523437 56.6354755,54.3683918 C54.4624949,52.1964192 51.5726777,51 48.5000937,51 Z" id="Path"></path>
                <path d="M84.8487006,14 L50,45.7497907 C53.9162947,46.143469 57.5484441,47.8570842 60.3690689,50.6737417 C63.2581268,53.5587358 64.8953091,57.2266298 65.2865665,61 L97,26.1304938 L97,14 L84.8487006,14 Z" id="Path"></path>
            </g>
        </g>
    </g>
</svg>