<?xml version="1.0" encoding="UTF-8"?>
<svg width="79px" height="68px" viewBox="0 0 79 68" version="1.1" xmlns="http://www.w3.org/2000/svg" xmlns:xlink="http://www.w3.org/1999/xlink">
    <!-- Generator: Sketch 59.1 (86144) - https://sketch.com -->
    <title>icn_marketing_campaigns</title>
    <desc>Created with Sketch.</desc>
    <g id="Page-1" stroke="none" stroke-width="1" fill="none" fill-rule="evenodd">
        <g id="Social-Media---Tik-Tok---Douyin" transform="translate(-1082.000000, -1798.000000)" fill="#FF5254" fill-rule="nonzero">
            <g id="icn_marketing_campaigns" transform="translate(1082.000000, 1798.000000)">
                <path d="M27.1692498,64 C18.8059367,64 12,57.5164732 12,49.549346 C12,48.0079429 12.2393371,46.5403987 12.7146402,45.191671 C13.3045555,43.5089726 15.215881,42.6066096 16.9788849,43.1653682 C18.7452597,43.7273381 19.699237,45.5481205 19.1059508,47.2276076 C18.8666137,47.921239 18.7418888,48.7015743 18.7418888,49.549346 C18.7418888,53.9744574 22.5240884,57.5774871 27.1692498,57.5774871 C31.0323521,57.5774871 34.4740863,54.9860032 35.3471609,51.4215085 C35.7685289,49.6938526 37.5922099,48.6148704 39.3956651,49.0259112 C41.2092332,49.4273183 42.3351286,51.1581855 41.9103896,52.8826302 C40.3058201,59.4271708 34.2448621,64 27.1692498,64 Z" id="Path"></path>
                <path d="M76.53125,65 C76.3008333,65 76.0704167,64.9673675 75.8465833,64.9053659 L1.78408333,43.6942663 C0.727458333,43.3907844 0,42.43139 0,41.3414658 L0,26.6568584 C0,25.5669342 0.727458333,24.6075399 1.78408333,24.304058 L75.8465833,3.09295835 C76.5937917,2.88737385 77.3969583,3.02443019 78.0157917,3.48781113 C78.634625,3.95119208 79,4.67563271 79,5.44575879 L79,62.5525654 C79,63.3226915 78.634625,64.0471321 78.0157917,64.5105131 C77.5812917,64.8303112 77.0612083,65 76.53125,65 Z" id="Path"></path>
                <path d="M75.5,68 C73.568,68 72,66.5139512 72,64.6829268 L72,3.31707317 C72,1.48604878 73.568,0 75.5,0 C77.432,0 79,1.48604878 79,3.31707317 L79,64.6829268 C79,66.5139512 77.432,68 75.5,68 Z" id="Path"></path>
                <path d="M3.5,48 C1.568,48 0,46.5242353 0,44.7058824 L0,23.2941176 C0,21.4757647 1.568,20 3.5,20 C5.432,20 7,21.4757647 7,23.2941176 L7,44.7058824 C7,46.5242353 5.432,48 3.5,48 Z" id="Path"></path>
            </g>
        </g>
    </g>
</svg>