<?xml version="1.0" encoding="UTF-8"?>
<svg width="32px" height="30px" viewBox="0 0 32 30" version="1.1" xmlns="http://www.w3.org/2000/svg" xmlns:xlink="http://www.w3.org/1999/xlink">
    <!-- Generator: Sketch 59.1 (86144) - https://sketch.com -->
    <title>shopping-cart-empty-side-view</title>
    <desc>Created with Sketch.</desc>
    <g id="Page-1" stroke="none" stroke-width="1" fill="none" fill-rule="evenodd">
        <g id="New-Mega-Menu---Option-1.2-(Click-SEO)" transform="translate(-393.000000, -185.000000)" fill="#427FE0" fill-rule="nonzero">
            <g id="shopping-cart-empty-side-view" transform="translate(393.000000, 185.000000)">
                <path d="M31.5312983,5.72183465 C31.3497503,5.46032426 31.0576271,5.29868145 30.7403085,5.28505666 L11.0676233,4.4327582 C10.5031782,4.40793397 10.0314942,4.84592464 10.0073635,5.41060447 C9.98337475,5.9750703 10.4184369,6.45200933 10.9801851,6.47626288 L29.3209983,7.27092348 L25.7148089,18.5797856 L9.6668369,18.5797856 L6.76753476,2.7128958 C6.70380135,2.36514262 6.46625602,2.0750273 6.13864645,1.94584145 L1.39008195,0.0708276412 C0.866729911,-0.135113575 0.276166813,0.123258121 0.0706301303,0.648632925 C-0.134551689,1.17429307 0.122440137,1.76821983 0.645508282,1.97480305 L4.8677399,3.64194963 L7.8182133,19.7873273 C7.90714198,20.2726837 8.32800956,20.6252163 8.819211,20.6252163 L9.30863813,20.6252163 L8.19103242,23.7453648 C8.09749052,24.0067325 8.13602865,24.2969905 8.29522022,24.5240466 C8.45419886,24.751174 8.71275209,24.8862806 8.98876457,24.8862806 L9.77265706,24.8862806 C9.28692051,25.4296315 8.98876457,26.1450401 8.98876457,26.9317826 C8.98876457,28.6236821 10.358465,30 12.0414385,30 C13.7244121,30 15.0941125,28.6236821 15.0941125,26.9317826 C15.0941125,26.1451114 14.7959565,25.4296315 14.310291,24.8862806 L20.9658895,24.8862806 C20.4799401,25.4296315 20.1818551,26.1450401 20.1818551,26.9317826 C20.1818551,28.6236821 21.5512007,30 23.2345291,30 C24.9179284,30 26.287203,28.6236821 26.287203,26.9317826 C26.287203,26.1451114 25.989118,25.4296315 25.5035234,24.8862806 L26.4568276,24.8862806 C26.9252468,24.8862806 27.3048083,24.5047151 27.3048083,24.0340534 C27.3048083,23.5632491 26.9251758,23.181755 26.4568276,23.181755 L10.195299,23.181755 L11.1109876,20.6249309 L26.4567566,20.6249309 C26.8992708,20.6249309 27.2908267,20.3375976 27.4256037,19.9144444 L31.6654365,6.61871685 C31.7628109,6.31526208 31.7128462,5.98348771 31.5312983,5.72183465 Z M12.0415095,28.2957597 C11.2932453,28.2957597 10.6847261,27.6842135 10.6847261,26.9321393 C10.6847261,26.1800651 11.2932453,25.5684475 12.0415095,25.5684475 C12.7897737,25.5684475 13.3982219,26.1800651 13.3982219,26.9321393 C13.3982219,27.6842135 12.7897737,28.2957597 12.0415095,28.2957597 Z M23.2345291,28.2957597 C22.4862648,28.2957597 21.8778166,27.6842135 21.8778166,26.9321393 C21.8778166,26.1800651 22.4862648,25.5684475 23.2345291,25.5684475 C23.9827933,25.5684475 24.5912415,26.1800651 24.5912415,26.9321393 C24.5912415,27.6842135 23.9827933,28.2957597 23.2345291,28.2957597 Z" id="Shape"></path>
            </g>
        </g>
    </g>
</svg>