<?xml version="1.0" encoding="UTF-8"?>
<svg width="71px" height="75px" viewBox="0 0 71 75" version="1.1" xmlns="http://www.w3.org/2000/svg" xmlns:xlink="http://www.w3.org/1999/xlink">
    <!-- Generator: Sketch 59.1 (86144) - https://sketch.com -->
    <title>icn_ranking</title>
    <desc>Created with Sketch.</desc>
    <g id="Page-1" stroke="none" stroke-width="1" fill="none" fill-rule="evenodd">
        <g id="SEO-Experts" transform="translate(-695.000000, -3544.000000)" fill="#FF5254" fill-rule="nonzero">
            <g id="icn_ranking" transform="translate(695.000000, 3544.000000)">
                <path d="M24.7257273,30.4314732 L1.03044168,30.4314732 L1.03044168,75 L24.7257273,75 L24.7257273,30.4314732 Z M9.84634431,47.4895101 L9.84634431,43.0840253 L15.6581949,43.0840253 L15.6581949,62.0210014 L11.2280931,62.0210014 L11.2280931,47.4895101 L9.84634431,47.4895101 Z" id="XMLID_882_"></path>
                <polygon id="XMLID_883_" points="52.6564856 55.4841432 70.8938858 55.4841432 70.8938858 75 52.6564856 75"></polygon>
                <polygon id="XMLID_884_" points="29.1558291 43.8524887 48.2262361 43.8524887 48.2262361 75 29.1558291 75"></polygon>
                <polygon id="XMLID_885_" points="4.9614187 24.0985889 12.8351863 19.9821039 20.7091017 24.0985889 19.2053774 15.379694 25.5754208 9.2048198 16.7722178 7.9328095 12.8351863 2.84217094e-14 8.89830252 7.9328095 0.0950995191 9.2048198 6.46514293 15.379694"></polygon>
            </g>
        </g>
    </g>
</svg>