<?xml version="1.0" encoding="UTF-8"?>
<svg width="172px" height="171px" viewBox="0 0 172 171" version="1.1" xmlns="http://www.w3.org/2000/svg" xmlns:xlink="http://www.w3.org/1999/xlink">
    <!-- Generator: Sketch 59.1 (86144) - https://sketch.com -->
    <title>icn_budget_mob</title>
    <desc>Created with Sketch.</desc>
    <g id="Page-1" stroke="none" stroke-width="1" fill="none" fill-rule="evenodd">
        <g id="Mobile---Govt-Grant" transform="translate(-101.000000, -3029.000000)" stroke="#427FE0">
            <g id="icn_budget" transform="translate(109.000000, 3037.000000)">
                <g id="img_improve_bottom_line" transform="translate(51.000000, 25.000000)" fill="#427FE0" stroke-width="3">
                    <path d="M52.3722976,59.4425144 C51.6439598,58.1751724 50.6023385,56.935565 49.2458392,55.7242206 C47.8927944,54.512612 46.6736722,53.5363519 45.5932558,52.7957043 C44.5123079,52.0510947 43.0282633,51.2224886 41.1419189,50.3016978 C39.2547774,49.3856615 37.7646211,48.7004832 36.6624157,48.2511817 C35.5633989,47.8013519 33.9701434,47.1864348 31.8900893,46.4069587 C30.04254,45.7051397 28.6674404,45.1676155 27.7597418,44.7951786 C26.8586862,44.4232699 25.6685275,43.8960472 24.1953773,43.2121897 C22.7222271,42.5307094 21.6200217,41.9229241 20.8956697,41.3962296 C20.1686605,40.8695351 19.3906332,40.2266192 18.5674334,39.4651046 C17.7410451,38.7025335 17.1623075,37.8918889 16.8259063,37.0315861 C16.4937567,36.1739246 16.3250246,35.2370213 16.3250246,34.218763 C16.3250246,31.5636312 17.5040231,29.3963654 19.8644114,27.7143242 C22.2202826,26.036245 25.2662279,25.1973375 28.9995901,25.1973375 C30.6499753,25.1973375 32.3311841,25.4221203 34.041622,25.8714219 C35.7470112,26.3207234 37.2132527,26.8260225 38.4286547,27.3955076 C39.6512312,27.9610306 40.7988747,28.5854567 41.8806197,29.2708991 C42.9613019,29.9518511 43.728169,30.4716779 44.1801583,30.8221913 C44.632679,31.1737611 44.9185934,31.4093737 45.0347129,31.525331 C45.5467549,31.9146728 46.0728799,32.0520254 46.6250455,31.9360681 C47.2144119,31.8972396 47.6669326,31.5842341 47.9815448,30.9986365 L52.7573255,22.4436817 C53.2268522,21.6605076 53.1282702,20.91986 52.4607823,20.2167203 C52.2237603,19.9824284 51.9306714,19.7079873 51.5769984,19.395246 C51.2246541,19.0832971 50.4575212,18.5177741 49.2771942,17.6960356 C48.0981957,16.8779952 46.851173,16.1434228 45.5371889,15.4970731 C44.2189534,14.8552137 42.5087812,14.2017323 40.4072038,13.5382135 C38.3045636,12.8712609 36.1325705,12.4253931 33.8933503,12.1895164 L33.8933503,1.87539149 C33.8933503,1.32809414 33.7158496,0.878528465 33.3629738,0.527222735 C33.0095665,0.176445284 32.5573115,0 32.0067403,0 L24.0471057,0 C23.5379867,0 23.096892,0.186482591 22.7222271,0.558391213 C22.347828,0.926866021 22.1604956,1.36692267 22.1604956,1.87539149 L22.1604956,12.4216952 C15.992875,13.5939469 10.9835266,16.209986 7.12899619,20.2732462 C3.28190593,24.3367705 1.3530464,29.0627571 1.3530464,34.453319 C1.3530464,36.0553259 1.52310703,37.5791476 1.85499098,39.0218783 C2.19032928,40.4693636 2.60352346,41.7686665 3.09483924,42.9197871 C3.58562358,44.0724925 4.28127784,45.2059157 5.18552208,46.3203209 C6.09003204,47.4326129 6.94564958,48.3877419 7.75051464,49.1888775 C8.55617687,49.9897489 9.60895844,50.8212605 10.9056707,51.6789219 C12.2018516,52.5389606 13.3117629,53.2341761 14.2330132,53.7608706 C15.1593122,54.2878292 16.3845459,54.8919166 17.917483,55.5765665 C19.4509515,56.2575185 20.6597106,56.7770812 21.5419001,57.1286511 C22.429404,57.480221 23.6376316,57.968351 25.170303,58.5927772 C27.2904808,59.4147797 28.862213,60.0468659 29.8865625,60.4961675 C30.9079892,60.9457331 32.2039043,61.5706875 33.7764337,62.371559 C35.3481659,63.1724304 36.4958094,63.9062103 37.2241472,64.569465 C37.9516878,65.2340403 38.608547,66.0520808 39.1989762,67.0320389 C39.7886083,68.008299 40.0851515,69.0402926 40.0851515,70.1364722 C40.0851515,73.2221515 38.8769239,75.6041628 36.4570143,77.282242 C34.041622,78.9642833 31.2433275,79.8039832 28.0597394,79.8039832 C26.6046581,79.8039832 25.1524998,79.6494615 23.6974186,79.3327581 C18.5894882,78.3176694 13.8160989,75.8780757 9.37565651,72.0115995 L9.25528548,71.8919442 C8.90267539,71.4629815 8.42889711,71.2878569 7.84245367,71.3652498 C7.21402651,71.4463407 6.76203724,71.6779911 6.48595444,72.0710309 L0.413195717,79.9791078 C0.136847197,80.3462619 0,80.717114 0,81.0921923 C0.000798695137,81.5169288 0.178830915,81.946684 0.533566755,82.3814579 C0.728073598,82.6170705 1.07430641,82.9678479 1.56455931,83.4385448 C2.05560937,83.9052795 2.97101385,84.6395877 4.30678693,85.6364508 C5.64123142,86.6335779 7.09392119,87.5678399 8.66565339,88.449538 C10.2373856,89.3270099 12.2334722,90.1944445 14.6499274,91.0547473 C17.0663827,91.9153143 19.5715883,92.5196658 22.1679358,92.8707074 L22.1679358,103.124609 C22.1679358,103.634398 22.3512824,104.073398 22.7259472,104.445307 C23.1003463,104.814046 23.5417068,105 24.0545459,105 L32.0099289,105 C32.5610316,105 33.0132866,104.82514 33.3666938,104.473306 C33.7195696,104.122792 33.8957418,103.672962 33.8957418,103.124609 L33.8957418,92.8707074 C40.1462671,91.8556188 45.2254997,89.1904497 49.1363627,84.8707099 C53.0432399,80.5554605 55,75.4105485 55,69.4338607 C54.9968114,67.4816046 54.7425176,65.6450416 54.2270213,63.9244359 C53.7179023,62.207 53.0963838,60.7138185 52.3722976,59.4425144 Z" id="Fill-1"></path>
                </g>
                <ellipse id="Oval" stroke-width="15" cx="78" cy="77.5" rx="78" ry="77.5"></ellipse>
            </g>
        </g>
    </g>
</svg>