<?xml version="1.0" encoding="UTF-8"?>
<svg width="32px" height="32px" viewBox="0 0 32 32" version="1.1" xmlns="http://www.w3.org/2000/svg" xmlns:xlink="http://www.w3.org/1999/xlink">
    <!-- Generator: Sketch 59.1 (86144) - https://sketch.com -->
    <title>favourite</title>
    <desc>Created with Sketch.</desc>
    <g id="Page-1" stroke="none" stroke-width="1" fill="none" fill-rule="evenodd">
        <g id="New-Mega-Menu---Option-1.2-(Click-SEO)" transform="translate(-1109.000000, -339.000000)" fill="#427FE0" fill-rule="nonzero" stroke="#427FE0" stroke-width="0.5">
            <g id="Group-13" transform="translate(130.000000, 157.000000)">
                <g id="Mega-Menu-2">
                    <g id="Group-2" transform="translate(980.000000, 29.000000)">
                        <g id="favourite" transform="translate(0.000000, 154.000000)">
                            <path d="M29.8646118,11.2517171 C29.5041922,10.1004092 28.5203617,9.3564976 27.3582548,9.3564976 L19.8640827,9.3564976 L17.5041315,1.88807645 C17.1413685,0.740004355 16.1595885,0 15.000821,0 C14.9971301,0 14.993322,0 14.9896311,0 C13.8261181,0.00482306279 12.8447482,0.753985132 12.4895428,1.90865078 L10.1983712,9.3564976 L2.64180535,9.3564976 C1.47676911,9.3564976 0.492176986,10.1029124 0.133515021,11.2580054 C-0.22520553,12.4130984 0.153141247,13.6191083 1.09742638,14.3303574 L7.2114939,18.9357108 L4.8581043,26.3834355 C4.49387668,27.5360865 4.8658962,28.7438058 5.80584598,29.4601833 C6.27792996,29.8200204 6.81978957,30 7.36200069,30 C7.89929061,30 8.43687346,29.823134 8.90661401,29.4692799 L15.0312856,24.8560509 L21.0831936,29.4615264 C22.0220888,30.1760723 23.2380361,30.1794912 24.180798,29.470501 C25.1235599,28.7615107 25.5033713,27.5578818 25.1485174,26.4040709 L22.8509014,18.9357108 L28.9130034,14.3224818 C29.8515471,13.6083022 30.2250899,12.4029638 29.8646118,11.2517171 Z M27.8765043,12.8433278 L20.7900305,18.2361225 L23.4747225,26.9631799 C23.6554596,27.5505557 23.2734805,27.894031 23.1521494,27.9853029 C23.0308183,28.0765748 22.5976352,28.3461168 22.1195755,27.9822503 L15.0364997,22.5920808 L7.87696944,27.9849366 C7.3965077,28.3467884 6.96443779,28.0741327 6.84339963,27.981884 C6.72242005,27.8896353 6.34202277,27.5431074 6.52750526,26.95622 L9.28296887,18.2360615 L2.12701236,12.8460141 C1.64625769,12.483857 1.75956253,11.9705366 1.8057281,11.8218764 C1.85189367,11.6732161 2.04862462,11.1880404 2.64180535,11.1880404 L11.4806375,11.1880404 L14.1632791,2.46775976 C14.3441333,1.87989556 14.8468576,1.8322144 14.9966614,1.83154283 L14.9997078,1.83154283 C15.1532025,1.83154283 15.6507713,1.87849138 15.8348477,2.460922 L18.592479,11.1880404 L27.3583133,11.1880404 C27.9500294,11.1880404 28.1474048,11.6715677 28.1938047,11.8198006 C28.2402047,11.9680335 28.3543297,12.4797665 27.8765043,12.8433278 Z" id="Shape"></path>
                        </g>
                    </g>
                </g>
            </g>
        </g>
    </g>
</svg>