<?xml version="1.0" encoding="UTF-8"?>
<svg width="15px" height="20px" viewBox="0 0 15 20" version="1.1" xmlns="http://www.w3.org/2000/svg" xmlns:xlink="http://www.w3.org/1999/xlink">
    <!-- Generator: Sketch 48.1 (47250) - http://www.bohemiancoding.com/sketch -->
    <title>Shape</title>
    <desc>Created with Sketch.</desc>
    <defs></defs>
    <g id="Menu" stroke="none" stroke-width="1" fill="none" fill-rule="evenodd" transform="translate(-1082.000000, -5.000000)">
        <path d="M1086.46717,12.4663377 C1087.11383,11.7676974 1087.40776,11.0055444 1086.99625,10.4339296 C1086.17324,9.16367451 1084.40963,5.54344753 1082.82239,7.63936841 C1082.11695,8.52854697 1081.35272,9.73528929 1081.35272,9.73528929 C1081.35272,9.73528929 1081,10.1163658 1081,10.8785189 C1081.17636,16.5946667 1090.11195,24.0256589 1095.16762,22.8824294 C1095.81427,22.6918911 1096.1082,22.1837891 1096.1082,22.1837891 C1096.1082,22.1837891 1096.99001,21.1040722 1097.63666,20.1513809 C1099.16512,17.9919473 1095.46155,17.039256 1094.10945,16.4676412 C1093.52159,16.1500774 1092.87493,16.6581795 1092.40464,17.4838453 C1091.28769,19.3892279 1085.05629,14.1176693 1086.46717,12.4663377 Z" id="Shape" fill="#FFFFFF" transform="translate(1089.500000, 15.000000) rotate(-345.000000) translate(-1089.500000, -15.000000) "></path>
    </g>
</svg>