<?xml version="1.0" encoding="UTF-8"?>
<svg width="79px" height="80px" viewBox="0 0 79 80" version="1.1" xmlns="http://www.w3.org/2000/svg" xmlns:xlink="http://www.w3.org/1999/xlink">
    <!-- Generator: Sketch 59.1 (86144) - https://sketch.com -->
    <title>icn_follow_celebs</title>
    <desc>Created with Sketch.</desc>
    <g id="Page-1" stroke="none" stroke-width="1" fill="none" fill-rule="evenodd">
        <g id="Social-Media---Weibo" transform="translate(-694.000000, -2544.000000)">
            <g id="icn_follow_celebs" transform="translate(694.000000, 2544.000000)">
                <path d="M35,36 C25.0747069,36 17,27.9252931 17,18 C17,8.0747069 25.0747069,0 35,0 C44.9252931,0 53,8.0747069 53,18 C53,27.9252931 44.9252931,36 35,36 Z" id="Path" fill="#FF5254" fill-rule="nonzero"></path>
                <g id="Group" transform="translate(0.000000, 33.000000)">
                    <path d="M41.6601563,16.336732 C41.6601563,12.3412341 42.7726367,8.60292307 44.7010391,5.41959415 C41.6899355,6.92770789 38.3008047,7.77939619 34.7167969,7.77939619 C30.0681406,7.77939619 25.744125,6.35203257 22.1525566,3.90930217 C17.711584,5.64519664 13.6375293,8.31104012 10.1684727,11.8091234 C3.61116406,18.4211434 -2.84217094e-14,27.2121723 -2.84217094e-14,36.5630065 L-2.84217094e-14,44.3425583 C-2.84217094e-14,45.6314486 1.03625781,46.6763771 2.31445312,46.6763771 L67.1191406,46.6763771 C68.3973359,46.6763771 69.4335938,45.6314486 69.4335938,44.3425583 L69.4335938,36.5630065 C69.4335938,36.4228218 69.4297363,36.2821703 69.4280391,36.1416744 C67.2567734,36.9174358 64.9217988,37.3411017 62.4902344,37.3411017 C51.0045293,37.3411017 41.6601563,27.9185414 41.6601563,16.336732 L41.6601563,16.336732 Z" id="Path" fill="#FF5254" fill-rule="nonzero"></path>
                    <path d="M62.4902344,0 C53.5569082,0 46.2890625,7.32865797 46.2890625,16.336732 C46.2890625,25.344806 53.5569082,32.673464 62.4902344,32.673464 C71.4235605,32.673464 78.6914063,25.344806 78.6914063,16.336732 C78.6914063,7.32865797 71.4235605,0 62.4902344,0 Z" id="Shape" fill="#FF5254" fill-rule="nonzero"></path>
                    <polygon id="Star" fill="#FFFFFF" points="62.5 21.25 56.9160401 24.1856614 57.9824815 17.9678307 53.4649631 13.5643386 59.7080201 12.6571693 62.5 7 65.2919799 12.6571693 71.5350369 13.5643386 67.0175185 17.9678307 68.0839599 24.1856614"></polygon>
                </g>
            </g>
        </g>
    </g>
</svg>