<?xml version="1.0" encoding="UTF-8"?>
<svg width="30px" height="28px" viewBox="0 0 30 28" version="1.1" xmlns="http://www.w3.org/2000/svg" xmlns:xlink="http://www.w3.org/1999/xlink">
    <!-- Generator: Sketch 59.1 (86144) - https://sketch.com -->
    <title>icn_amazon</title>
    <desc>Created with Sketch.</desc>
    <g id="Page-1" stroke="none" stroke-width="1" fill="none" fill-rule="evenodd">
        <g id="New-Mega-Menu-Aug-2020" transform="translate(-394.000000, -417.000000)">
            <g id="icn_amazon" transform="translate(394.000000, 418.000000)">
                <path d="M8.26363636,13.257 C8.26363636,12.015 8.57271818,10.953009 9.19090909,10.071 C9.80907273,9.188991 10.6545273,8.523009 11.7272727,8.073 C12.7090909,7.659009 13.9181727,7.362009 15.3545455,7.182 C15.8454545,7.128 16.6454455,7.055991 17.7545455,6.966 L17.7545455,6.507 C17.7545455,5.354991 17.6272636,4.581009 17.3727273,4.185 C16.9909091,3.645 16.3909091,3.375 15.5727273,3.375 L15.3545455,3.375 C14.7545455,3.429 14.2363636,3.618 13.8,3.942 C13.3636364,4.266 13.0818,4.716009 12.9545455,5.292 C12.8818091,5.651991 12.6999818,5.859 12.4090909,5.913 L9.27272727,5.535 C8.96361818,5.462991 8.80909091,5.300991 8.80909091,5.049 C8.80909091,4.995 8.81817273,4.932009 8.83636364,4.86 C9.14544545,3.258009 9.90452727,2.070009 11.1136364,1.296 C12.3227182,0.521991 13.7363455,0.089991 15.3545455,0 L16.0363636,0 C18.1090909,0 19.7272636,0.531009 20.8909091,1.593 C21.0734267,1.77382013 21.2420757,1.96785771 21.3954545,2.1735 C21.5499818,2.380509 21.6727091,2.565 21.7636364,2.727 C21.8545364,2.889 21.9363545,3.123009 22.0090909,3.429 C22.0818,3.734991 22.1363455,3.946509 22.1727273,4.0635 C22.2090818,4.180491 22.2363545,4.432509 22.2545455,4.8195 C22.2727091,5.206491 22.2818182,5.435991 22.2818182,5.508 L22.2818182,12.042 C22.2818182,12.509991 22.35,12.937509 22.4863636,13.3245 C22.6227273,13.711491 22.7545364,13.990509 22.8818182,14.1615 C23.0090727,14.332491 23.2181727,14.607 23.5090909,14.985 C23.6181818,15.147 23.6727273,15.290991 23.6727273,15.417 C23.6727273,15.560991 23.5999909,15.687 23.4545455,15.795 C21.9454364,17.091 21.1272545,17.793 21,17.901 C20.7818182,18.063 20.5181727,18.081009 20.2090909,17.955 C19.9545273,17.739 19.7318182,17.531991 19.5409091,17.334 C19.35,17.136009 19.2136364,16.991991 19.1318182,16.902 C19.05,16.812009 18.9181636,16.636509 18.7363636,16.3755 C18.5545364,16.114491 18.4272545,15.938991 18.3545455,15.849 C17.3363455,16.947009 16.3363636,17.631 15.3545455,17.901 C14.7363545,18.081009 13.9727182,18.171 13.0636364,18.171 C11.6636182,18.171 10.5136364,17.743509 9.61363636,16.8885 C8.71363636,16.033491 8.26363636,14.823 8.26363636,13.257 Z M12.9545455,12.717 C12.9545455,13.419 13.1318182,13.981491 13.4863636,14.4045 C13.8409091,14.827509 14.3181818,15.039 14.9181818,15.039 C14.9727273,15.039 15.0499909,15.030009 15.15,15.012 C15.2499818,14.993991 15.3181636,14.985 15.3545455,14.985 C16.1181818,14.787009 16.7090727,14.301009 17.1272727,13.527 C17.3272636,13.184991 17.4772636,12.8115 17.5772727,12.4065 C17.6772545,12.0015 17.7318,11.672991 17.7409091,11.421 C17.7499909,11.169009 17.7545455,10.754991 17.7545455,10.179 L17.7545455,9.504 C16.6999909,9.504 15.9,9.576009 15.3545455,9.72 C13.7545364,10.170009 12.9545455,11.169009 12.9545455,12.717 Z" id="Shape" stroke="#427FE0" stroke-width="1.5" fill-rule="nonzero"></path>
                <path d="M0.0545454545,20.952 C0.145445455,20.808009 0.290890909,20.798991 0.490909091,20.925 C5.03634545,23.535009 9.98181818,24.84 15.3272727,24.84 C18.8908909,24.84 22.4090727,24.183009 25.8818182,22.869 C25.9727182,22.833009 26.1045273,22.779009 26.2772727,22.707 C26.4499909,22.634991 26.5727182,22.580991 26.6454545,22.545 C26.9181818,22.437 27.1318091,22.491 27.2863636,22.707 C27.4408909,22.923 27.3909,23.120991 27.1363636,23.301 C26.8090909,23.535009 26.3908909,23.805009 25.8818182,24.111 C24.3181636,25.029 22.5727091,25.739991 20.6454545,26.244 C18.7181727,26.748009 16.8363545,27 15,27 C12.1636364,27 9.4818,26.509491 6.95454545,25.5285 C4.42726364,24.547509 2.16362727,23.166 0.163636364,21.384 C0.0545454545,21.294009 0,21.203991 0,21.114 C0,21.06 0.0181636364,21.006 0.0545454545,20.952 Z" id="Path" fill="#427FE0"></path>
                <path d="M24.4090909,21.411 C24.4454455,21.338991 24.4999909,21.267009 24.5727273,21.195 C25.0272545,20.889009 25.4636182,20.682 25.8818182,20.574 C26.5727182,20.393991 27.2454545,20.295009 27.9,20.277 C28.0818,20.258991 28.2545455,20.267998 28.4181818,20.304 C29.2363636,20.376009 29.7272727,20.511009 29.8909091,20.709 C29.9636182,20.817 30,20.979 30,21.195 L30,21.384 C30,22.013991 29.8272545,22.756491 29.4818182,23.6115 C29.1363545,24.466509 28.6545273,25.155009 28.0363636,25.677 C27.9454364,25.749009 27.8636182,25.785 27.7909091,25.785 C27.7545273,25.785 27.7181727,25.776009 27.6818182,25.758 C27.5727273,25.704 27.5454545,25.604991 27.6,25.461 C28.2727091,23.895 28.6090909,22.806009 28.6090909,22.194 C28.6090909,21.996009 28.5727091,21.851991 28.5,21.762 C28.3181727,21.546 27.8090727,21.438 26.9727273,21.438 C26.6636182,21.438 26.2999909,21.456009 25.8818182,21.492 C25.4272636,21.546 25.0090909,21.6 24.6272727,21.654 C24.5181818,21.654 24.4454455,21.635991 24.4090909,21.6 C24.3727192,21.564009 24.3636273,21.527991 24.3818182,21.492 C24.3818182,21.473991 24.3909,21.446991 24.4090909,21.411 Z" id="Path" fill="#427FE0"></path>
            </g>
        </g>
    </g>
</svg>