<?xml version="1.0" encoding="UTF-8"?>
<svg width="32px" height="32px" viewBox="0 0 32 32" version="1.1" xmlns="http://www.w3.org/2000/svg" xmlns:xlink="http://www.w3.org/1999/xlink">
    <!-- Generator: Sketch 59.1 (86144) - https://sketch.com -->
    <title>icn_fb</title>
    <desc>Created with Sketch.</desc>
    <g id="Page-1" stroke="none" stroke-width="1" fill="none" fill-rule="evenodd">
        <g id="Careers-Page---2020---Job-Listing" transform="translate(-703.000000, -1231.000000)" fill="#427FE0">
            <g id="Group-3" transform="translate(648.000000, 1231.000000)">
                <path d="M82.3125,4.6875 C79.187484,1.562484 75.416688,0 71,0 C66.583312,0 62.812516,1.562484 59.6875,4.6875 C56.5624844,7.812516 55,11.583312 55,16 C55,20.416688 56.5624844,24.187484 59.6875,27.3125 C62.812516,30.4375156 66.583312,32 71,32 C75.416688,32 79.187484,30.4375156 82.3125,27.3125 C85.437516,24.187484 87,20.416688 87,16 C87,11.583312 85.437516,7.812516 82.3125,4.6875 Z M75.125,16 L72.5,16 L72.5,25.625 L68.9375,25.625 L68.9375,16 L66.5,16 L66.5,12.6875 L68.9375,12.6875 L68.9375,10.75 C68.9375,9.29166 69.208332,8.19792 69.75,7.468752 C70.291668,6.73958 71.312492,6.375 72.8125,6.375 L75.4375,6.375 L75.4375,9.6875 L73.8125,9.6875 C73.229164,9.6875 72.864584,9.791664 72.718752,10 C72.572916,10.208336 72.5,10.562496 72.5,11.0625 L72.5,12.6875 L75.5,12.6875 L75.125,16 Z" id="icn_fb"></path>
            </g>
        </g>
    </g>
</svg>