<?xml version="1.0" encoding="UTF-8"?>
<svg width="89px" height="74px" viewBox="0 0 89 74" version="1.1" xmlns="http://www.w3.org/2000/svg" xmlns:xlink="http://www.w3.org/1999/xlink">
    <!-- Generator: Sketch 59.1 (86144) - https://sketch.com -->
    <title>icn_wallet</title>
    <desc>Created with Sketch.</desc>
    <g id="Page-1" stroke="none" stroke-width="1" fill="none" fill-rule="evenodd">
        <g id="Social-Media---Weibo" transform="translate(-301.000000, -3010.000000)" fill="#FF5254" fill-rule="nonzero">
            <g id="icn_wallet" transform="translate(301.000000, 3010.000000)">
                <path d="M65.0384883,24.0930314 L89,24.0930314 L89,12.9069686 C89,5.79001096 83.2415957,0 76.1634883,0 L12.8365117,0 C5.7584043,0 0,5.79001096 0,12.9069686 L0,61.0930314 C0,68.209989 5.7584043,74 12.8365117,74 L76.1634883,74 C83.2415957,74 89,68.209989 89,61.0930314 L89,49.9069686 L65.0384883,49.9069686 C57.9603809,49.9069686 52.2019766,44.1169577 52.2019766,37 C52.2019766,29.8830423 57.9603809,24.0930314 65.0384883,24.0930314 Z" id="Path"></path>
                <path d="M64.7838313,30 C60.4919025,30 57,33.3644037 57,37.5 C57,41.6355963 60.4917268,45 64.7838313,45 L89,45 L89,30.0001693 L64.7838313,30.0001693 L64.7838313,30 Z M68.2432337,39.9999436 L64.7838313,39.9999436 C63.350846,39.9999436 62.1892794,38.8805633 62.1892794,37.5 C62.1892794,36.1194367 63.3510217,35.0000564 64.7838313,35.0000564 L68.2432337,35.0000564 C69.676219,35.0000564 70.8377856,36.1194367 70.8377856,37.5 C70.8377856,38.8805633 69.676219,39.9999436 68.2432337,39.9999436 Z" id="Shape"></path>
            </g>
        </g>
    </g>
</svg>