<?xml version="1.0" encoding="UTF-8"?>
<svg width="75px" height="62px" viewBox="0 0 75 62" version="1.1" xmlns="http://www.w3.org/2000/svg" xmlns:xlink="http://www.w3.org/1999/xlink">
    <!-- Generator: Sketch 59.1 (86144) - https://sketch.com -->
    <title>icn_technical_adjustments</title>
    <desc>Created with Sketch.</desc>
    <g id="Page-1" stroke="none" stroke-width="1" fill="none" fill-rule="evenodd">
        <g id="SEO-Experts" transform="translate(-308.000000, -3557.000000)" fill="#FF5254" fill-rule="nonzero">
            <g id="icn_technical_adjustments" transform="translate(308.000000, 3557.000000)">
                <path d="M0,0 L0,17.627451 L75,17.627451 L75,0 L0,0 Z M13.1835938,11.0171569 L8.7890625,11.0171569 L8.7890625,6.61029412 L13.1835938,6.61029412 L13.1835938,11.0171569 Z M21.9726563,11.0171569 L17.578125,11.0171569 L17.578125,6.61029412 L21.9726563,6.61029412 L21.9726563,11.0171569 Z M30.7617188,11.0171569 L26.3671875,11.0171569 L26.3671875,6.61029412 L30.7617188,6.61029412 L30.7617188,11.0171569 Z" id="Shape"></path>
                <path d="M0,62 L75,62 L75,21.8823529 L0,21.8823529 L0,62 Z M50.2233398,31.9104275 L53.3307129,28.7585176 L64.2067383,39.7904248 L53.3307129,50.8220349 L50.2233398,47.6701251 L57.9919922,39.7904248 L50.2233398,31.9104275 Z M40.7975098,29.422539 L44.5665527,31.7148911 L34.2024902,49.2480858 L30.4334473,46.9557338 L40.7975098,29.422539 Z M21.6588867,28.7585176 L24.7662598,31.9104275 L16.9976074,39.7904248 L24.7662598,47.6701251 L21.6588867,50.8220349 L10.7828613,39.7904248 L21.6588867,28.7585176 Z" id="Shape"></path>
            </g>
        </g>
    </g>
</svg>