<?xml version="1.0" encoding="UTF-8"?>
<svg width="39px" height="29px" viewBox="0 0 39 29" version="1.1" xmlns="http://www.w3.org/2000/svg" xmlns:xlink="http://www.w3.org/1999/xlink">
    <!-- Generator: Sketch 59.1 (86144) - https://sketch.com -->
    <title>icn_reviews</title>
    <desc>Created with Sketch.</desc>
    <g id="Page-1" stroke="none" stroke-width="1" fill="none" fill-rule="evenodd">
        <g id="New-Mega-Menu-Sept-2020---Results" transform="translate(-966.000000, -160.000000)" fill="#427FE0" fill-rule="nonzero" stroke="#427FE0" stroke-width="0.25">
            <g id="Group-23" transform="translate(704.000000, 131.000000)">
                <g id="icn_reviews" transform="translate(263.000000, 30.000000)">
                    <path d="M34.7981913,0 L11.0323825,0 C10.0900084,0 10.0886873,1.51236183 11.0323825,1.51236183 L34.7981913,1.51236183 C35.2028838,1.51236183 35.5321276,1.85158459 35.5321276,2.26854275 L35.5321276,20.1384589 C35.5321276,20.5554171 35.2028838,20.8946399 34.7981913,20.8946399 L21.9474819,20.8946399 C21.722824,20.8946399 21.5105697,21.0005808 21.371342,21.1822911 L18.4109368,25.0465268 L15.2710843,21.1665625 C15.1316364,20.9943045 14.9251068,20.8946399 14.7073479,20.8946399 L2.20180866,20.8946399 C1.79711623,20.8946399 1.46787244,20.5554171 1.46787244,20.1384589 L1.46787244,2.26854275 C1.46787244,1.85158459 1.79711623,1.51236183 2.20180866,1.51236183 L4.99458276,1.51236183 C5.93695686,1.51236183 5.93827795,0 4.99458276,0 L2.20180866,0 C0.987731363,0 0,1.01766828 0,2.26854275 L0,20.1384589 C0,21.3893334 0.987731363,22.4070017 2.20180866,22.4070017 L14.3637923,22.4070017 L17.8629067,26.7308442 C18.1583894,27.0960039 18.7166947,27.0885177 19.0027096,26.71504 L22.3032208,22.4070017 L34.7981913,22.4070017 C36.0122686,22.4070017 37,21.3893334 37,20.1384589 L37,2.26854275 C37,1.01766828 36.0122686,0 34.7981913,0 Z" id="Path"></path>
                    <path d="M4.03564471,9.387974 C3.9585728,9.63612317 4.00828018,9.90826468 4.1673729,10.1091909 L5.58443341,11.8996276 L5.44360797,14.2199519 C5.33298541,16.037656 7.94062128,14.1073022 8.50319525,14.1190318 C9.07064535,14.1309137 11.6721679,16.0170912 11.5627825,14.2199519 L11.4218843,11.8996276 L12.8390176,10.1091909 C13.170012,9.6911151 12.964778,9.02092952 12.4590436,8.88550619 L10.3070709,8.30877642 L9.11787827,6.34506184 C8.84023019,5.88638954 8.16783421,5.88357139 7.88843945,6.34506184 L6.69924687,8.30877642 L4.54727408,8.88550619 C4.30572388,8.95017121 4.11271662,9.13974865 4.03564471,9.387974 L4.03564471,9.387974 Z M7.33998442,9.70939497 C7.8780322,9.56528869 8.23216996,8.62288545 8.50312247,8.17540957 C8.7697083,8.61564967 9.13337999,9.56665968 9.66626053,9.70939497 L10.9854346,10.062958 L10.1166836,11.1605116 C9.99841934,11.3099496 9.93910527,11.5010503 9.9508953,11.6946646 L10.0372828,13.1170666 L8.77145497,12.5915966 C8.59904388,12.5200767 8.40712829,12.5200767 8.23471719,12.5915966 L6.96888937,13.1170666 L7.05520409,11.6946646 C7.06699412,11.5010503 7.00768005,11.3099496 6.88941579,11.1605116 L6.02073754,10.062958 L7.33998442,9.70939497 Z" id="Shape"></path>
                    <path d="M22.964378,9.38803422 C22.8873599,9.13988621 22.6944874,8.95023349 22.4531058,8.88549261 L20.3026354,8.30876556 L19.1142731,6.34506021 C18.8368188,5.88639007 18.1648923,5.88357194 17.8856926,6.34506021 L16.6973302,8.30876556 L14.5468598,8.88549261 C14.3054782,8.95023349 14.112533,9.13988621 14.0355876,9.38803422 C13.9586422,9.63618223 14.0082422,9.90832245 14.1672238,10.1092477 L15.5833678,11.899676 L15.4425679,14.2199893 C15.3319499,16.0376088 17.9379107,14.1073402 18.5000192,14.1190697 C19.0670731,14.1309516 21.6667794,16.0171202 21.5574704,14.2199893 L21.4166706,11.899676 L22.8328145,10.1092477 C22.9917234,9.90832245 23.0413961,9.63618223 22.964378,9.38803422 L22.964378,9.38803422 Z M20.1124538,11.1605635 C19.9942721,11.3100007 19.9349994,11.5011006 19.9467812,11.6947139 L20.0331084,13.1171093 C19.5789271,12.9284467 18.9990005,12.5379449 18.5000192,12.5379449 C18.0033652,12.5379449 17.4198749,12.9289037 16.9669299,13.1171093 L17.0532571,11.6947139 C17.0650389,11.5011006 17.0057662,11.3100007 16.8875845,11.1605635 L16.01944,10.0630151 L17.3376932,9.70945368 C17.8753653,9.56534808 18.2292558,8.62294927 18.5000192,8.17547549 C18.7664189,8.61571352 19.1298367,9.56671907 19.6623452,9.70945368 L20.9805983,10.0630151 L20.1124538,11.1605635 Z" id="Shape"></path>
                    <path d="M32.9643561,9.38810708 C32.8872861,9.13987757 32.6942834,8.95029694 32.4527389,8.88555466 L30.300817,8.30881521 L29.1116526,6.34506764 C28.8340111,5.88638763 28.161631,5.88356944 27.8822429,6.34506764 L26.6930784,8.30881521 L24.5411566,8.88555466 C24.0385636,9.0202186 23.8281674,9.68858742 24.1611916,10.1092599 L25.5782914,11.8997267 L25.4373965,14.2200899 C25.3267765,16.03752 27.9331135,14.1073622 28.4969113,14.1191682 C29.0632564,14.1309741 31.665809,16.0177164 31.5564262,14.2200899 L31.4156041,11.8997267 L32.8326311,10.1092599 C32.99172,9.9084065 33.0414262,9.63626043 32.9643561,9.38810708 L32.9643561,9.38810708 Z M30.1105798,11.1606745 C29.9923184,11.3101149 29.9330057,11.5012189 29.9447955,11.6948364 L30.0311081,13.1172623 L28.7653103,12.5917835 C28.5864262,12.5202624 28.4074693,12.5202624 28.2285852,12.5917835 L26.9627873,13.1172623 L27.0491728,11.6948364 C27.0609625,11.5012189 27.0016499,11.3101149 26.8833884,11.1606745 L26.0146579,10.0631025 L27.3338008,9.70953345 C27.8718359,9.56542476 28.2259652,8.62300568 28.4969113,8.17552228 C28.7634909,8.61576978 29.1271539,9.56679577 29.6600219,9.70953345 L30.9791647,10.0631025 L30.1105798,11.1606745 Z" id="Shape"></path>
                    <path d="M7.22186409,0.915415884 C7.59883646,1.17337893 8.10211735,0.79853732 7.98186883,0.366631767 C7.92462432,0.160981509 7.73796615,0.0111949024 7.52416317,0.000592311297 C7.31086102,-0.00996026763 7.10922813,0.121421841 7.03260163,0.320170412 C6.95006536,0.534422773 7.02824443,0.789034997 7.22186409,0.915415884 Z" id="Path"></path>
                </g>
            </g>
        </g>
    </g>
</svg>