<?xml version="1.0" encoding="UTF-8"?>
<svg width="146px" height="124px" viewBox="0 0 146 124" version="1.1" xmlns="http://www.w3.org/2000/svg" xmlns:xlink="http://www.w3.org/1999/xlink">
    <!-- Generator: Sketch 63.1 (92452) - https://sketch.com -->
    <title>icn_marketing</title>
    <desc>Created with Sketch.</desc>
    <g id="Page-1" stroke="none" stroke-width="1" fill="none" fill-rule="evenodd">
        <g id="Hubspot" transform="translate(-220.000000, -4013.000000)" fill="#FF5254" fill-rule="nonzero">
            <g id="icn_marketing" transform="translate(220.000000, 4013.000000)">
                <path d="M50.7037699,118 C35.9285835,118 23.9047619,105.959165 23.9047619,91.1630712 C23.9047619,88.3004654 24.3275907,85.5750262 25.1672929,83.0702462 C26.2094766,79.9452349 29.5861516,78.2694178 32.7007918,79.3071124 C35.8213874,80.3507707 37.5067473,83.7322238 36.4586083,86.8512713 C36.0357795,88.1394439 35.8154321,89.588638 35.8154321,91.1630712 C35.8154321,99.3811352 42.4973181,106.072476 50.7037699,106.072476 C57.5285839,106.072476 63.608981,101.25972 65.1514128,94.6399444 C65.8958297,91.4314405 69.117666,89.4276164 72.3037703,90.190978 C75.5077406,90.9364482 77.4968225,94.1509159 76.7464503,97.3534561 C73.9117107,109.507603 63.2040182,118 50.7037699,118 Z" id="Path"></path>
                <path d="M141.373512,118 C140.950595,118 140.527679,117.939998 140.116845,117.825995 L4.17934524,78.8249412 C2.23997024,78.2669261 0.904761905,76.5028784 0.904761905,74.4988242 L0.904761905,47.4980945 C0.904761905,45.4940403 2.23997024,43.7299926 4.17934524,43.1719775 L140.116845,4.17092342 C141.488304,3.79291321 142.96247,4.04492002 144.098304,4.89694305 C145.234137,5.74896608 145.904762,7.08100208 145.904762,8.49704035 L145.904762,113.499878 C145.904762,114.915917 145.234137,116.247953 144.098304,117.099976 C143.300804,117.687992 142.34622,118 141.373512,118 Z" id="Path"></path>
                <path d="M139.904762,124 C136.592762,124 133.904762,121.290146 133.904762,117.95122 L133.904762,6.04878049 C133.904762,2.70985366 136.592762,0 139.904762,0 C143.216762,0 145.904762,2.70985366 145.904762,6.04878049 L145.904762,117.95122 C145.904762,121.290146 143.216762,124 139.904762,124 Z" id="Path"></path>
                <path d="M6.9047619,89 C3.5927619,89 0.904761905,86.312 0.904761905,83 L0.904761905,44 C0.904761905,40.688 3.5927619,38 6.9047619,38 C10.2167619,38 12.9047619,40.688 12.9047619,44 L12.9047619,83 C12.9047619,86.312 10.2167619,89 6.9047619,89 Z" id="Path"></path>
            </g>
        </g>
    </g>
</svg>