<?xml version="1.0" encoding="UTF-8"?>
<svg width="32px" height="32px" viewBox="0 0 32 32" version="1.1" xmlns="http://www.w3.org/2000/svg" xmlns:xlink="http://www.w3.org/1999/xlink">
    <!-- Generator: Sketch 59.1 (86144) - https://sketch.com -->
    <title>icn_twitter</title>
    <desc>Created with Sketch.</desc>
    <g id="Page-1" stroke="none" stroke-width="1" fill="none" fill-rule="evenodd">
        <g id="Careers-Page---2020---Job-Listing" transform="translate(-743.000000, -1231.000000)" fill="#427FE0">
            <g id="Group-3" transform="translate(648.000000, 1231.000000)">
                <path d="M122.3125,4.6875 C119.187484,1.562484 115.416688,0 111,0 C106.583312,0 102.812516,1.562484 99.6875,4.6875 C96.5624844,7.812516 95,11.583312 95,16 C95,20.416688 96.5624844,24.187484 99.6875,27.3125 C102.812516,30.4375156 106.583312,32 111,32 C115.416688,32 119.187484,30.4375156 122.3125,27.3125 C125.437516,24.187484 127,20.416688 127,16 C127,11.583312 125.437516,7.812516 122.3125,4.6875 Z M120.331245,10.8796678 C119.811704,11.639596 119.183609,12.2870753 118.446942,12.8221266 C118.454696,12.9306881 118.458573,13.0935292 118.458573,13.3106496 C118.458573,14.3187189 118.311242,15.324834 118.016575,16.3290263 C117.721911,17.333216 117.274101,18.2966825 116.673137,19.2194543 C116.072176,20.1422235 115.356845,20.9583592 114.527127,21.6678841 C113.697409,22.3774092 112.697109,22.9434698 111.526199,23.3660831 C110.355289,23.7886965 109.102976,24 107.769225,24 C105.667789,24 103.744734,23.4378163 102,22.3134325 C102.271403,22.3444499 102.573819,22.3599583 102.907257,22.3599583 C104.65199,22.3599583 106.20672,21.8249146 107.571489,20.7548105 C106.757279,20.7393029 106.028379,20.4892286 105.384766,20.0045798 C104.741154,19.5199311 104.299161,18.9015287 104.058776,18.1493543 C104.31467,18.1881261 104.551175,18.2075133 104.768297,18.2075133 C105.101736,18.2075133 105.431292,18.1648646 105.756974,18.0795672 C104.888484,17.9012159 104.169278,17.468916 103.599331,16.7826545 C103.029385,16.096393 102.744416,15.2996419 102.744416,14.3923803 L102.744416,14.3458547 C103.271713,14.6405214 103.837774,14.7994829 104.442615,14.822747 C103.930826,14.4815547 103.523728,14.035683 103.221308,13.485124 C102.918887,12.9345625 102.767679,12.3374857 102.767679,11.6938729 C102.767679,11.0114883 102.938273,10.3795166 103.279465,9.79793714 C104.217744,10.9533397 105.359559,11.8780343 106.704943,12.5720497 C108.050325,13.2660677 109.490679,13.6518419 111.026045,13.7293855 C110.964009,13.4347189 110.932992,13.1478112 110.932992,12.8686548 C110.932992,11.8295676 111.299381,10.9436448 112.032168,10.210855 C112.764958,9.47806789 113.650881,9.11167822 114.689968,9.11167822 C115.775578,9.11167822 116.690581,9.50714478 117.435001,10.2980909 C118.280229,10.1352499 119.075039,9.83283462 119.81946,9.39083461 C119.532547,10.2825885 118.981996,10.9727165 118.167786,11.4612421 C118.888942,11.3836985 119.610088,11.1898422 120.331245,10.8796678 Z" id="icn_twitter"></path>
            </g>
        </g>
    </g>
</svg>