<?xml version="1.0" encoding="UTF-8"?>
<svg width="39px" height="39px" viewBox="0 0 39 39" version="1.1" xmlns="http://www.w3.org/2000/svg" xmlns:xlink="http://www.w3.org/1999/xlink">
    <!-- Generator: sketchtool 59.1 (101010) - https://sketch.com -->
    <title>7633F523-1F03-48B9-BBBD-990E5E4C7FA7</title>
    <desc>Created with sketchtool.</desc>
    <g id="Page-1" stroke="none" stroke-width="1" fill="none" fill-rule="evenodd">
        <g id="FAQs---Main-Page" transform="translate(-321.000000, -1146.000000)" fill-rule="nonzero" stroke="#FFFFFF" stroke-width="2.5">
            <g id="icn_faqs_google" transform="translate(323.000000, 1148.000000)">
                <path d="M34.6927246,14.2319434 C34.6005762,13.7483008 34.1777734,13.3984375 33.6854492,13.3984375 L17.5,13.3984375 C16.9337109,13.3984375 16.4746094,13.8575391 16.4746094,14.4238281 L16.4746094,20.5761719 C16.4746094,21.1424609 16.9337109,21.6015625 17.5,21.6015625 L25.7666992,21.6015625 C25.1433984,22.8555469 24.2490527,23.9408203 23.1755371,24.7908691 C23.085166,24.8379687 23.000332,24.8993555 22.9244531,24.975166 C22.9165918,24.9830273 22.9098926,24.9915723 22.902373,24.9996387 C21.3557422,26.135498 19.4712109,26.796875 17.5,26.796875 C12.3555469,26.796875 8.203125,22.6059668 8.203125,17.5 C8.203125,12.3919824 12.3578027,8.203125 17.5,8.203125 C19.4525488,8.203125 21.3658594,8.86573242 23.0332813,10.119375 C23.4413184,10.4262402 24.0133496,10.3860449 24.3744922,10.024834 L28.7501074,5.64921875 C29.1753711,5.22395508 29.1447461,4.52477539 28.6837988,4.13833984 C25.5004395,1.46972656 21.5286914,0 17.5,0 C12.8508789,0 8.46330078,1.82731445 5.1453418,5.14527344 C1.82724609,8.46330078 0,12.8509473 0,17.5 C0,22.1490527 1.82724609,26.5366992 5.1453418,29.8547266 C8.46330078,33.1726855 12.8508789,35 17.5,35 C22.1491211,35 26.5366992,33.1726855 29.8546582,29.8547266 C33.1727539,26.5366992 35,22.1490527 35,17.5 C35,16.4019434 34.8965723,15.3024512 34.6927246,14.2319434 Z" id="Shape"></path>
            </g>
        </g>
    </g>
</svg>