<?xml version="1.0" encoding="UTF-8"?>
<svg width="80px" height="80px" viewBox="0 0 80 80" version="1.1" xmlns="http://www.w3.org/2000/svg" xmlns:xlink="http://www.w3.org/1999/xlink">
    <!-- Generator: Sketch 59.1 (86144) - https://sketch.com -->
    <title>icn_super_topic</title>
    <desc>Created with Sketch.</desc>
    <g id="Page-1" stroke="none" stroke-width="1" fill="none" fill-rule="evenodd">
        <g id="Social-Media---Weibo" transform="translate(-306.000000, -2544.000000)" fill="#FF5254" fill-rule="nonzero">
            <g id="icn_super_topic" transform="translate(306.000000, 2544.000000)">
                <path d="M77.65625,33.4907812 C78.950625,33.4907812 80,32.4414062 80,31.1470313 L80,21.8335938 C80,20.5392188 78.950625,19.4898438 77.65625,19.4898438 L63.5495313,19.4898438 L66.5304687,2.76203125 C66.6520312,2.07953125 66.4653125,1.37828125 66.0203125,0.8465625 C65.5753125,0.315 64.9179688,0.0075 64.2246875,0.00703125 L54.745625,0 C54.745,0 54.7445313,0 54.7439062,0 C53.6098438,0 52.6382812,0.81203125 52.4373437,1.92828125 L49.27375,19.4898438 L38.3904687,19.4898438 L41.4610937,2.78828125 C41.5867187,2.10453125 41.4023437,1.4003125 40.9579687,0.86578125 C40.5134375,0.33125 39.8545312,0.021875 39.159375,0.02078125 L29.5625,0.00703125 C29.5614062,0.00703125 29.5603125,0.00703125 29.5592187,0.00703125 C28.4271875,0.00703125 27.4565625,0.81640625 27.2534375,1.9303125 L24.05125,19.4898438 L2.34375,19.4898438 C1.049375,19.4898438 0,20.5392188 0,21.8335938 L0,31.1470313 C0,32.4414062 1.049375,33.4907812 2.34375,33.4907812 L21.4978125,33.4907812 L19.4920312,44.4898438 L2.34375,44.4898438 C1.049375,44.4898438 0,45.5392188 0,46.8335938 L0,56.1470312 C0,57.4414062 1.049375,58.4907812 2.34375,58.4907812 L16.93875,58.4907812 L13.5482813,77.0825 C13.4235938,77.7664063 13.6089063,78.4704687 14.0542188,79.004375 C14.4995313,79.538125 15.1589062,79.846875 15.8540625,79.846875 L25.3417187,79.846875 C26.4726562,79.846875 27.4423437,79.0392188 27.646875,77.926875 L31.2201562,58.4907812 L42.248125,58.4907812 L38.8871875,77.1479687 C38.7648437,77.8273437 38.948125,78.5260937 39.3884375,79.058125 C39.8285937,79.5898438 40.4809375,79.900625 41.17125,79.9071875 L50.78125,80 C50.7889062,80 50.7965625,80 50.8042187,80 C51.93875,80 52.911875,79.1864063 53.1114062,78.0675 L56.6,58.4907812 L77.65625,58.4907812 C78.950625,58.4907812 80,57.4414062 80,56.1470312 L80,46.8335938 C80,45.5392188 78.950625,44.4898438 77.65625,44.4898438 L59.0946875,44.4898438 L61.0546875,33.4907812 L77.65625,33.4907812 Z M33.7940625,44.4896875 L35.81625,33.490625 L46.7514063,33.490625 L44.77,44.4896875 L33.7940625,44.4896875 Z" id="Shape"></path>
            </g>
        </g>
    </g>
</svg>