<?xml version="1.0" encoding="UTF-8"?>
<svg width="80px" height="80px" viewBox="0 0 80 80" version="1.1" xmlns="http://www.w3.org/2000/svg" xmlns:xlink="http://www.w3.org/1999/xlink">
    <!-- Generator: Sketch 59.1 (86144) - https://sketch.com -->
    <title>icn_6</title>
    <desc>Created with Sketch.</desc>
    <g id="Page-1" stroke="none" stroke-width="1" fill="none" fill-rule="evenodd">
        <g id="Social-Media---Weibo" transform="translate(-387.000000, -4857.000000)" fill-rule="nonzero">
            <g id="icn_6" transform="translate(387.000000, 4857.000000)">
                <path d="M40,0 C17.9086187,0 0,17.9086187 0,40 C0,62.0913813 17.9086187,80 40,80 C62.0913813,80 80,62.0913813 80,40 C79.9765625,17.918496 62.0816714,0.0236049436 40,0 Z" id="Shape" fill="#FF5254"></path>
                <path d="M47.465,22.465 L37.8125,34.2775 C37.6024989,34.5325013 37.4037509,34.7724989 37.21625,34.9975 C37.0287491,35.2225011 36.8450009,35.4549988 36.665,35.695 C37.2950031,35.3799984 37.9737464,35.1325009 38.70125,34.9525 C39.4287536,34.7724991 40.2199957,34.6825 41.075,34.6825 C42.3050061,34.6825 43.5012442,34.884998 44.66375,35.29 C45.8262558,35.695002 46.8499956,36.3062459 47.735,37.12375 C48.6200044,37.9412541 49.3324973,38.9574939 49.8725,40.1725 C50.4125027,41.3875061 50.6825,42.8049919 50.6825,44.425 C50.6825,45.9400076 50.4050028,47.3612434 49.85,48.68875 C49.2949972,50.0162566 48.515005,51.174995 47.51,52.165 C46.504995,53.1550049 45.2937571,53.9349972 43.87625,54.505 C42.4587429,55.0750029 40.8950086,55.36 39.185,55.36 C37.4449913,55.36 35.8850069,55.0825028 34.505,54.5275 C33.1249931,53.9724972 31.9475049,53.196255 30.9725,52.19875 C29.9974951,51.201245 29.2512526,50.001257 28.73375,48.59875 C28.2162474,47.196243 27.9575,45.6400086 27.9575,43.93 C27.9575,42.3999923 28.2687469,40.8287581 28.89125,39.21625 C29.5137531,37.6037419 30.4774935,35.9275087 31.7825,34.1875 L39.545,23.77 C39.8150014,23.4099982 40.2087474,23.1025013 40.72625,22.8475 C41.2437526,22.5924987 41.8399966,22.465 42.515,22.465 L47.465,22.465 Z M39.1625,38.845 C38.2774956,38.845 37.4750036,38.9949985 36.755,39.295 C36.0349964,39.5950015 35.4162526,40.0112473 34.89875,40.54375 C34.3812474,41.0762527 33.9837514,41.7062464 33.70625,42.43375 C33.4287486,43.1612536 33.29,43.9449958 33.29,44.785 C33.29,45.6850045 33.4137488,46.5062463 33.66125,47.24875 C33.9087512,47.9912537 34.2762476,48.6249974 34.76375,49.15 C35.2512524,49.6750026 35.8549964,50.0837485 36.575,50.37625 C37.2950036,50.6687515 38.1274953,50.815 39.0725,50.815 C39.9575044,50.815 40.7712463,50.6650015 41.51375,50.365 C42.2562537,50.0649985 42.8937473,49.6450027 43.42625,49.105 C43.9587527,48.5649973 44.3749985,47.9312536 44.675,47.20375 C44.9750015,46.4762464 45.125,45.6850043 45.125,44.83 C45.125,43.8999953 44.9825014,43.0637537 44.6975,42.32125 C44.4124986,41.5787463 44.0075026,40.9487526 43.4825,40.43125 C42.9574974,39.9137474 42.3275037,39.5200014 41.5925,39.25 C40.8574963,38.9799986 40.0475044,38.845 39.1625,38.845 Z" id="6" fill="#FFFFFF"></path>
            </g>
        </g>
    </g>
</svg>