<?xml version="1.0" encoding="UTF-8"?>
<svg width="32px" height="32px" viewBox="0 0 32 32" version="1.1" xmlns="http://www.w3.org/2000/svg" xmlns:xlink="http://www.w3.org/1999/xlink">
    <!-- Generator: Sketch 59.1 (86144) - https://sketch.com -->
    <title>icn_linkedin</title>
    <desc>Created with Sketch.</desc>
    <g id="Page-1" stroke="none" stroke-width="1" fill="none" fill-rule="evenodd">
        <g id="Careers-Page---2020---Job-Listing" transform="translate(-783.000000, -1231.000000)" fill="#427FE0">
            <g id="Group-3" transform="translate(648.000000, 1231.000000)">
                <path d="M150.681275,0 C148.513932,0 146.479423,0.417766972 144.577688,1.25330925 C142.675953,2.08885153 141.018599,3.22820615 139.605577,4.67141478 C138.192556,6.11462341 137.071717,7.80738384 136.243028,9.74974608 C135.414339,11.6921083 135,13.7700802 135,15.9837243 C135,18.1973684 135.414339,20.2753404 136.243028,22.2177026 C137.071717,24.1600648 138.192556,25.8528253 139.605577,27.2960339 C141.018599,28.7392409 142.675953,29.8840245 144.577688,30.7304172 C146.479423,31.5768099 148.513932,32 150.681275,32 C152.848618,32 154.883126,31.5768099 156.784862,30.7304172 C158.686597,29.8840245 160.343951,28.7392409 161.756973,27.2960339 C163.169995,25.8528253 164.290831,24.1600648 165.11952,22.2177026 C165.948213,20.2753404 166.36255,18.1973684 166.36255,15.9837243 C166.36255,13.7700802 165.948213,11.6921083 165.11952,9.74974608 C164.290831,7.80738384 163.169995,6.11462341 161.756973,4.67141478 C160.343951,3.22820615 158.686597,2.08885153 156.784862,1.25330925 C154.883126,0.417766972 152.848618,0 150.681275,0 Z M146.856574,22.6246191 L143.669323,22.6246191 L143.669323,12.2075293 L146.856574,12.2075293 L146.856574,22.6246191 Z M145.231074,10.905393 C144.74236,10.905393 144.349271,10.7480533 144.051793,10.4333697 C143.754315,10.1186861 143.605578,9.73347459 143.605578,9.27772274 C143.605578,8.82197089 143.759626,8.4421888 144.067728,8.13835562 C144.37583,7.83451828 144.784859,7.68260377 145.294823,7.68260377 C145.804783,7.68260377 146.203184,7.83451828 146.490039,8.13835562 C146.776893,8.4421888 146.930942,8.82197089 146.952193,9.27772274 C146.952193,9.73347459 146.79814,10.1186861 146.490039,10.4333697 C146.181937,10.7480533 145.762285,10.905393 145.231074,10.905393 Z M158.426297,22.6246191 L155.270916,22.6246191 L155.270916,16.8301129 C155.270916,16.1573397 155.143426,15.6147885 154.888446,15.2024426 C154.633466,14.7900967 154.219126,14.5839258 153.645416,14.5839258 C153.220448,14.5839258 152.875168,14.7141394 152.609561,14.9745667 C152.343957,15.2349981 152.14741,15.5062716 152.01992,15.7884039 C151.977422,15.8969166 151.950864,16.0217009 151.94024,16.1627691 C151.929617,16.3038332 151.924305,16.4503225 151.924305,16.6022411 L151.924305,22.6246191 L148.737054,22.6246191 L148.737054,15.5279767 C148.737054,14.8769044 148.731738,14.2746716 148.721115,13.7212616 C148.710491,13.1678516 148.694556,12.6632811 148.673305,12.2075293 L151.414345,12.2075293 L151.573705,13.6398791 L151.63745,13.6398791 C151.849936,13.29264 152.211151,12.9237042 152.721116,12.5330633 C153.23108,12.1424225 153.921643,11.947102 154.792827,11.947102 C155.834002,11.947102 156.699865,12.3160378 157.390437,13.0539178 C158.081013,13.7917978 158.426297,14.9311566 158.426297,16.4720275 L158.426297,22.6246191 Z" id="icn_linkedin"></path>
            </g>
        </g>
    </g>
</svg>