<?xml version="1.0" encoding="UTF-8"?>
<svg width="320px" height="287px" viewBox="0 0 320 287" version="1.1" xmlns="http://www.w3.org/2000/svg" xmlns:xlink="http://www.w3.org/1999/xlink">
    <!-- Generator: Sketch 59.1 (86144) - https://sketch.com -->
    <title>icn_it</title>
    <desc>Created with Sketch.</desc>
    <g id="Page-1" stroke="none" stroke-width="1" fill="none" fill-rule="evenodd">
        <g id="Government-Funding" transform="translate(-894.000000, -2918.000000)" fill="#427FE0" fill-rule="nonzero">
            <g id="icn_it" transform="translate(894.000000, 2918.000000)">
                <path d="M265.664078,287 L47.4703719,287 L24.2582754,287 C10.8541071,287 0,276.155026 0,262.762136 L0,247.86663 L19.55047,247.86663 L20.596649,247.86663 L20.596649,94.0117269 C20.596649,81.9254607 30.404577,72.0604542 42.5664078,72.0604542 L109.194933,72.0604542 C108.933388,75.0656879 108.737229,78.0709217 108.737229,81.1414866 C108.737229,88.1972529 109.521864,95.1223568 111.025746,101.98213 L50.5435227,101.98213 L50.5435227,247.86663 L127.176134,247.86663 L127.176134,249.369247 C127.176134,253.942429 130.903147,257.666305 135.48018,257.666305 L177.523498,257.666305 C182.100531,257.666305 185.827544,253.942429 185.827544,249.369247 L185.827544,247.86663 L262.525541,247.86663 L262.525541,183.319435 C273.248876,180.314201 283.318349,175.937013 292.472415,170.449195 L292.472415,247.86663 L293.518594,247.86663 L313.069064,247.86663 L313.069064,262.762136 C313.069064,276.155026 302.214957,287 288.810789,287 L265.664078,287 L265.664078,287 Z M320,81.4028113 C320,126.415987 278.348999,162.870779 227.020842,162.870779 C208.385779,162.870779 191.058439,158.036272 176.477319,149.804545 C163.400082,157.644285 149.211279,157.382961 140.97262,156.207 C138.618717,155.880344 138.030241,152.87511 139.991827,151.568487 C147.968942,146.341993 152.28443,139.024902 154.703719,132.622448 C141.757254,118.641578 134.041684,100.806168 134.041684,81.4681425 C134.041684,36.4549671 175.692685,8.72830181e-05 227.020842,8.72830181e-05 C278.348999,-0.0651563688 320,36.4549671 320,81.4028113 Z M215.316714,47.4306035 C215.316714,53.1144152 219.959134,57.7529282 225.647732,57.7529282 C231.33633,57.7529282 235.978749,53.1144152 235.978749,47.4306035 C235.978749,41.7467918 231.33633,37.1082788 225.647732,37.1082788 C219.959134,37.0429476 215.316714,41.6814606 215.316714,47.4306035 Z M241.275031,107.339285 L236.044136,107.339285 L236.044136,65.5273373 L233.494074,65.5273373 L218.062934,65.5273373 L212.897425,65.5273373 L212.897425,79.3122139 L218.062934,79.3122139 L218.062934,107.339285 L212.832039,107.339285 L212.832039,121.124162 L218.062934,121.124162 L236.109522,121.124162 L241.340417,121.124162 L241.340417,107.339285 L241.275031,107.339285 Z" id="Shape"></path>
            </g>
        </g>
    </g>
</svg>