<?xml version="1.0" encoding="UTF-8"?>
<svg width="30px" height="30px" viewBox="0 0 30 30" version="1.1" xmlns="http://www.w3.org/2000/svg" xmlns:xlink="http://www.w3.org/1999/xlink">
    <!-- Generator: Sketch 59.1 (86144) - https://sketch.com -->
    <title>icn_paid</title>
    <desc>Created with Sketch.</desc>
    <g id="Page-1" stroke="none" stroke-width="1" fill="none" fill-rule="evenodd">
        <g id="New-Mega-Menu---Option-1.2-(Click-SEO)" transform="translate(-634.000000, -186.000000)" fill="#427FE0" fill-rule="nonzero">
            <g id="Group-13" transform="translate(130.000000, 157.000000)">
                <g id="Mega-Menu-2">
                    <g id="Mega-Menu" transform="translate(504.000000, 29.000000)">
                        <g id="Group-5">
                            <g id="icn_paid">
                                <path d="M9.0625,21.25 L2.1875,21.25 C0.98125,21.25 0,20.26875 0,19.0625 L0,2.1875 C0,0.98125 0.98125,0 2.1875,0 L20.3125,0 C21.51875,0 22.5,0.98125 22.5,2.1875 L22.5,12.8125 C22.5,13.33 22.08,13.75 21.5625,13.75 C21.045,13.75 20.625,13.33 20.625,12.8125 L20.625,2.1875 C20.625,2.015 20.485,1.875 20.3125,1.875 L2.1875,1.875 C2.015,1.875 1.875,2.015 1.875,2.1875 L1.875,19.0625 C1.875,19.235 2.015,19.375 2.1875,19.375 L9.0625,19.375 C9.58,19.375 10,19.795 10,20.3125 C10,20.83 9.58,21.25 9.0625,21.25 Z" id="Path"></path>
                                <path d="M18.78125,25.42875 C18.54125,25.42875 18.30125,25.3375 18.11875,25.15375 L12.44125,19.47625 C11.6175,18.65125 11.6175,17.30875 12.4425,16.48375 C13.2675,15.65875 14.60875,15.66 15.435,16.4825 L18.765,19.81375 C19.13125,20.18 19.13125,20.77375 18.765,21.14 C18.39875,21.50625 17.805,21.50625 17.43875,21.14 L14.10875,17.81 C14.01375,17.71625 13.86375,17.715 13.76875,17.81125 C13.67375,17.90625 13.6725,18.05625 13.7675,18.15125 L19.445,23.82875 C19.81125,24.195 19.81125,24.78875 19.445,25.155 C19.26125,25.3375 19.0225,25.42875 18.78125,25.42875 L18.78125,25.42875 Z" id="Path"></path>
                                <path d="M19.48875,22.8025 C19.24875,22.8025 19.00875,22.71125 18.82625,22.5275 L17.44,21.14 C17.04,20.74 16.81875,20.20875 16.81875,19.64375 C16.81875,19.07875 17.04,18.54875 17.44,18.1475 C17.84,17.7475 18.37125,17.5275 18.935,17.52625 L18.93625,17.52625 C19.50125,17.52625 20.0325,17.74625 20.43125,18.1475 L20.98625,18.70125 C21.3525,19.0675 21.3525,19.66125 20.98625,20.0275 C20.62125,20.3925 20.0275,20.39375 19.66,20.0275 L19.105,19.4725 C19.025,19.3925 18.845,19.3925 18.765,19.4725 C18.685,19.55125 18.685,19.7325 18.765,19.81125 L20.15125,21.19875 C20.5175,21.565 20.5175,22.15875 20.15125,22.525 C19.96875,22.71 19.7275,22.8025 19.48875,22.8025 L19.48875,22.8025 Z" id="Path"></path>
                                <path d="M21.71,21.69125 C21.47,21.69125 21.23,21.6 21.0475,21.41625 L19.66125,20.02875 C19.26125,19.63 19.04125,19.09875 19.04125,18.5325 C19.04125,17.96875 19.26125,17.4375 19.66125,17.0375 C20.485,16.2125 21.82875,16.21 22.65375,17.03625 L23.76375,18.14625 C24.13,18.5125 24.13,19.10625 23.76375,19.4725 C23.3975,19.83875 22.80375,19.8375 22.4375,19.4725 L21.3275,18.3625 C21.2325,18.2675 21.0825,18.2675 20.9875,18.36375 C20.90875,18.44375 20.9075,18.62375 20.98625,18.7025 L22.37375,20.09125 C22.74,20.4575 22.74,21.05125 22.37375,21.4175 C22.19,21.59875 21.95,21.69125 21.71,21.69125 L21.71,21.69125 Z" id="Path"></path>
                                <path d="M28.0975,21.40875 C27.85875,21.40875 27.61875,21.3175 27.43625,21.13625 L24.105,17.80375 C24.01,17.71 23.86,17.70875 23.765,17.805 C23.67,17.90125 23.66875,18.05 23.76375,18.145 L24.59625,18.9775 C24.9625,19.34375 24.9625,19.9375 24.59625,20.30375 C24.23,20.67 23.63625,20.67 23.27,20.30375 L22.4375,19.47125 C21.6125,18.645 21.61375,17.30375 22.43875,16.47875 C23.2625,15.65625 24.605,15.65375 25.43,16.4775 L28.76,19.8075 C29.12625,20.1725 29.12875,20.76625 28.7625,21.13375 C28.5775,21.3175 28.3375,21.40875 28.0975,21.40875 L28.0975,21.40875 Z" id="Path"></path>
                                <path d="M23.42,29.995 C22.17,29.995 20.73125,29.60375 19.08125,28.82 C17.3675,28.005 16.555,28.0375 16.02125,28.05625 C15.54375,28.0725 14.95,28.09625 14.38125,27.5275 C13.82,26.96625 13.6275,25.84625 14.93625,24.53625 C16.06125,23.41125 17.7225,23.38625 18.92,23.565 C19.43125,23.64125 19.785,24.1175 19.71,24.63 C19.6325,25.1425 19.16,25.4975 18.64375,25.42 C18.015,25.3275 16.865,25.26125 16.2625,25.8625 C16.13625,25.98875 16.04625,26.09625 15.9825,26.1825 C16.66125,26.15625 17.795,26.1325 19.8875,27.1275 C23.38375,28.7875 24.7575,28.02125 25.49,27.3025 L26.59625,26.19625 C27.96,24.83375 28.92125,22.625 27.16625,20.87 L24.10375,17.80625 C24.00875,17.7125 23.85875,17.71125 23.76375,17.8075 C23.66875,17.90375 23.6675,18.0525 23.7625,18.1475 C24.12875,18.51375 24.12875,19.1075 23.7625,19.47375 C23.39625,19.83875 22.8025,19.83875 22.43625,19.4725 C21.61125,18.6475 21.6125,17.30625 22.4375,16.48125 C23.26125,15.65875 24.60375,15.65625 25.42875,16.48 L28.48125,19.53375 C30.7075,21.76125 30.48125,24.965 27.92875,27.5175 L26.81125,28.635 C25.88875,29.54125 24.765,29.995 23.42,29.995 L23.42,29.995 Z" id="Path"></path>
                                <path d="M13.75,13.75 L12.8125,13.75 C12.295,13.75 11.875,13.33 11.875,12.8125 L11.875,7.1875 C11.875,6.67 12.295,6.25 12.8125,6.25 L13.75,6.25 C15.8175,6.25 17.5,7.9325 17.5,10 C17.5,12.0675 15.8175,13.75 13.75,13.75 Z M13.75,8.125 L13.75,11.875 C14.78375,11.875 15.625,11.03375 15.625,10 C15.625,8.96625 14.78375,8.125 13.75,8.125 Z" id="Shape"></path>
                                <path d="M9.0625,13.75 C8.545,13.75 8.125,13.33 8.125,12.8125 L8.125,8.75 C8.125,8.405 7.84375,8.125 7.5,8.125 C7.15625,8.125 6.875,8.405 6.875,8.75 L6.875,12.8125 C6.875,13.33 6.455,13.75 5.9375,13.75 C5.42,13.75 5,13.33 5,12.8125 L5,8.75 C5,7.37125 6.12125,6.25 7.5,6.25 C8.87875,6.25 10,7.37125 10,8.75 L10,12.8125 C10,13.33 9.58,13.75 9.0625,13.75 Z" id="Path"></path>
                                <path d="M9.0625,11.875 L5.9375,11.875 C5.42,11.875 5,11.455 5,10.9375 C5,10.42 5.42,10 5.9375,10 L9.0625,10 C9.58,10 10,10.42 10,10.9375 C10,11.455 9.58,11.875 9.0625,11.875 Z" id="Path"></path>
                            </g>
                        </g>
                    </g>
                </g>
            </g>
        </g>
    </g>
</svg>