<?xml version="1.0" encoding="UTF-8"?>
<svg width="30px" height="30px" viewBox="0 0 30 30" version="1.1" xmlns="http://www.w3.org/2000/svg" xmlns:xlink="http://www.w3.org/1999/xlink">
    <!-- Generator: Sketch 59.1 (86144) - https://sketch.com -->
    <title>icn_seo</title>
    <desc>Created with Sketch.</desc>
    <g id="Page-1" stroke="none" stroke-width="1" fill="none" fill-rule="evenodd">
        <g id="New-Mega-Menu---Option-1.2-(Click-SEO)" transform="translate(-155.000000, -186.000000)" fill="#427FE0" fill-rule="nonzero">
            <g id="icn_seo" transform="translate(155.000000, 186.000000)">
                <path d="M29.6334049,27.86625 L21.1022486,19.335 C22.75475,17.2937695 23.7497195,14.7 23.7497195,11.8750195 C23.7497195,5.32751953 18.4222585,0 11.8748305,0 C5.32740241,0 0,5.32746094 0,11.8749609 C0,18.4224609 5.327461,23.7499805 11.8748891,23.7499805 C14.6998385,23.7499805 17.2935795,22.755 19.3347876,21.1024805 L27.8659439,29.6337305 C28.1096912,29.8774805 28.4296681,30 28.7497037,30 C29.0697392,30 29.3897162,29.8774805 29.6334635,29.6337305 C30.1221886,29.145 30.1221886,28.3549805 29.6334049,27.86625 Z M11.8748891,21.2499609 C6.70492634,21.2499609 2.49999207,17.0449805 2.49999207,11.8749609 C2.49999207,6.70494141 6.70492634,2.49996094 11.8748891,2.49996094 C17.0448518,2.49996094 21.2497861,6.70494141 21.2497861,11.8749609 C21.2497861,17.0449805 17.0447932,21.2499609 11.8748891,21.2499609 Z" id="Shape"></path>
            </g>
        </g>
    </g>
</svg>