<?xml version="1.0" encoding="UTF-8"?>
<svg width="80px" height="80px" viewBox="0 0 80 80" version="1.1" xmlns="http://www.w3.org/2000/svg" xmlns:xlink="http://www.w3.org/1999/xlink">
    <!-- Generator: Sketch 59.1 (86144) - https://sketch.com -->
    <title>icn_ppc</title>
    <desc>Created with Sketch.</desc>
    <g id="Page-1" stroke="none" stroke-width="1" fill="none" fill-rule="evenodd">
        <g id="Social-Media---Tik-Tok---Douyin" transform="translate(-693.000000, -1798.000000)" fill="#FF5254" fill-rule="nonzero">
            <g id="icn_ppc" transform="translate(693.000000, 1798.000000)">
                <path d="M20,22 C18.896,22 18,22.7466667 18,23.6666667 L18,27 L22,27 L22,23.6666667 C22,22.7466667 21.104,22 20,22 Z" id="Path"></path>
                <path d="M38,22 L38,32 C40.7566667,32 43,29.7566667 43,27 C43,24.2433333 40.7566667,22 38,22 Z" id="Path"></path>
                <path d="M52.4970835,0 L7.49958336,0 C3.36647964,0 0,3.38311765 0,7.54411765 L0,49.4558824 C0,53.6168824 3.36647964,57 7.49958336,57 L30.4449753,57 L29.8483418,56.3998235 C26.0652186,52.5942353 26.0585523,46.4080588 29.8350092,42.6024706 C31.6649075,40.7617059 34.0947725,39.7457647 36.6846286,39.7457647 C39.2778179,39.7457647 41.7210155,40.7617059 43.5575801,42.6091765 L46.9873896,46.0593529 C48.0973279,45.4323529 49.3172602,45.0367059 50.5938559,44.8858235 C50.8105105,44.6108824 51.047164,44.3493529 51.3004833,44.0945294 C52.8603966,42.5253529 54.8569524,41.5563529 57.0201655,41.3048824 C57.2401533,41.0299412 57.48014,40.7650588 57.7301261,40.5135882 C58.403422,39.8329412 59.1833787,39.3098824 60,38.8639412 L60,7.54411765 C59.9966669,3.38311765 56.6301872,0 52.4970835,0 Z M26.6651853,34.3676471 C26.6651853,35.7557647 25.5452475,36.8823529 24.1653241,36.8823529 C22.7854008,36.8823529 21.665463,35.7557647 21.665463,34.3676471 L21.665463,31.8529412 L18.3323149,31.8529412 L18.3323149,34.3676471 C18.3323149,35.7557647 17.2123771,36.8823529 15.8324538,36.8823529 C14.4525304,36.8823529 13.3325926,35.7557647 13.3325926,34.3676471 L13.3325926,23.4705882 C13.3325926,19.7722941 16.3224265,16.7647059 19.998889,16.7647059 C23.6753514,16.7647059 26.6651853,19.7722941 26.6651853,23.4705882 L26.6651853,34.3676471 Z M38.3312038,36.8823529 L35.8313427,36.8823529 C34.4514194,36.8823529 33.3314816,35.7557647 33.3314816,34.3676471 L33.3314816,19.2794118 C33.3314816,17.8912941 34.4514194,16.7647059 35.8313427,16.7647059 L38.3312038,16.7647059 C43.8442309,16.7647059 48.3306483,21.2777647 48.3306483,26.8235294 C48.3306483,32.3692941 43.8442309,36.8823529 38.3312038,36.8823529 Z" id="Shape"></path>
                <path d="M62.5721996,44.8849287 C61.3972749,46.0720644 61.4038942,47.9982339 62.5854382,49.1920576 L63.6544543,50.2721839 C63.8497234,50.4694825 63.8530331,50.7938548 63.6577639,50.9911534 C63.4624947,51.188452 63.1447686,51.188452 62.9461898,50.9878094 L60.4540255,48.4697441 C59.2724814,47.2759203 57.3661247,47.2725763 56.1911999,48.4563679 C55.0162752,49.6435036 55.0228945,51.5696731 56.2044385,52.7634968 L58.6966028,55.2815621 C58.891872,55.4788607 58.8951816,55.803233 58.6999125,56.0005316 C58.5046433,56.1978302 58.1869172,56.1978302 57.9883383,55.9971876 L54.0697161,52.0378392 C52.888172,50.8440155 50.9818153,50.8406714 49.8068905,52.0244631 C48.6319658,53.2115987 48.6385851,55.1377682 49.8201291,56.331592 L53.7387514,60.2909403 C53.9340205,60.4882389 53.9373302,60.8126112 53.742061,61.0099098 C53.5467918,61.2072084 53.2290657,61.2072084 53.0304869,61.0065658 L39.1398977,46.9716123 C37.9583537,45.7777885 36.0519969,45.7744445 34.8770722,46.9582361 C33.7021474,48.1453718 33.7087667,50.0715413 34.8903108,51.265365 L51.6073386,68.1561322 C49.4163522,67.8116957 45.7294052,67.6645577 43.4656066,69.9485399 C41.3408131,72.0954163 41.3970771,73.5801719 42.0556969,74.2489807 C43.8528353,76.0647967 45.2362678,73.1956068 53.4243349,77.1482671 C61.612402,81.1042713 66.874741,80.776555 70.4723274,77.2017718 L75.4301789,72.1923936 C75.456656,72.1656412 75.4037017,72.2191459 75.4301789,72.1923936 C80.4707715,67.0994143 81.9137777,60.1371143 76.82685,55.0006624 C76.816921,54.9906303 76.8103017,54.9839422 76.8003728,54.97391 L66.8284059,44.8983049 C65.6534812,43.7044811 63.7471244,43.7011371 62.5721996,44.8849287 L62.5721996,44.8849287 Z" id="Path"></path>
            </g>
        </g>
    </g>
</svg>