<?xml version="1.0" encoding="UTF-8"?>
<svg width="80px" height="80px" viewBox="0 0 80 80" version="1.1" xmlns="http://www.w3.org/2000/svg" xmlns:xlink="http://www.w3.org/1999/xlink">
    <!-- Generator: Sketch 59.1 (86144) - https://sketch.com -->
    <title>icn_1</title>
    <desc>Created with Sketch.</desc>
    <g id="Page-1" stroke="none" stroke-width="1" fill="none" fill-rule="evenodd">
        <g id="Social-Media---Weibo" transform="translate(-387.000000, -3743.000000)" fill-rule="nonzero">
            <g id="icn_1" transform="translate(387.000000, 3743.000000)">
                <path d="M40,0 C17.9086187,0 0,17.9086187 0,40 C0,62.0913813 17.9086187,80 40,80 C62.0913813,80 80,62.0913813 80,40 C79.9765625,17.918496 62.0816714,0.0236049436 40,0 Z" id="Shape" fill="#FF5254"></path>
                <path d="M32.0525,50.8375 L38.645,50.8375 L38.645,31.87 C38.645,31.1349963 38.6674998,30.3625041 38.7125,29.5525 L34.0325,33.4675 C33.837499,33.6325008 33.638751,33.7449997 33.43625,33.805 C33.233749,33.8650003 33.035001,33.895 32.84,33.895 C32.5399985,33.895 32.2662512,33.8312506 32.01875,33.70375 C31.7712488,33.5762494 31.5875006,33.4300008 31.4675,33.265 L29.7125,30.8575 L39.635,22.42 L44.2025,22.42 L44.2025,50.8375 L50.0525,50.8375 L50.0525,55 L32.0525,55 L32.0525,50.8375 Z" id="1" fill="#FFFFFF"></path>
            </g>
        </g>
    </g>
</svg>