<svg width="453" height="352" viewBox="0 0 453 352" fill="none" xmlns="http://www.w3.org/2000/svg">
<g id="img_google_search">
<g id="lost-rankings-02">
<g id="content-blogs" filter="url(#filter0_d_333_11907)">
<rect id="Rectangle" x="91.7125" y="107.18" width="347.597" height="229.82" rx="13" fill="white"/>
<path id="Rectangle 2" d="M91.7125 120.18C91.7125 113.001 97.5328 107.18 104.712 107.18H427.049C434.229 107.18 440.049 113.001 440.049 120.18V137.344H91.7125V120.18Z" fill="#FF5254"/>
<path id="Fill 5" fill-rule="evenodd" clip-rule="evenodd" d="M91.7119 153.144H439.309V137.344H91.7119V153.144Z" fill="#E9ECED"/>
<path id="Fill 6" fill-rule="evenodd" clip-rule="evenodd" d="M139.044 123.699C139.044 126.079 137.058 128.008 134.608 128.008C132.157 128.008 130.17 126.079 130.17 123.699C130.17 121.32 132.157 119.39 134.608 119.39C137.058 119.39 139.044 121.32 139.044 123.699Z" fill="white"/>
<path id="Fill 7" fill-rule="evenodd" clip-rule="evenodd" d="M126.472 123.699C126.472 126.079 124.484 128.008 122.033 128.008C119.583 128.008 117.597 126.079 117.597 123.699C117.597 121.32 119.583 119.39 122.033 119.39C124.484 119.39 126.472 121.32 126.472 123.699Z" fill="white"/>
<path id="Fill 8" fill-rule="evenodd" clip-rule="evenodd" d="M114.638 123.699C114.638 126.079 112.652 128.008 110.2 128.008C107.75 128.008 105.764 126.079 105.764 123.699C105.764 121.32 107.75 119.39 110.2 119.39C112.652 119.39 114.638 121.32 114.638 123.699Z" fill="white"/>
<path id="Rectangle 3" fill-rule="evenodd" clip-rule="evenodd" d="M147.18 122.981C147.18 121.791 148.144 120.826 149.334 120.826H396.478C397.668 120.826 398.633 121.791 398.633 122.981C398.633 124.171 397.668 125.135 396.478 125.135H149.334C148.144 125.135 147.18 124.171 147.18 122.981Z" fill="white"/>
<path id="Fill 10" fill-rule="evenodd" clip-rule="evenodd" d="M416.751 117.953L417.711 120.696H420.82L418.305 122.392L419.266 125.135L416.751 123.44L414.237 125.135L415.197 122.392L412.685 120.696H415.792L416.751 117.953Z" fill="white"/>
<g id="Group 7 Copy">
<path id="Fill 16" fill-rule="evenodd" clip-rule="evenodd" d="M114.638 260.872H280.137V255.342H114.638V260.872Z" fill="#DADFE1"/>
<path id="Fill 17" fill-rule="evenodd" clip-rule="evenodd" d="M114.638 247.442H349.54V241.912H114.638V247.442Z" fill="#DADFE1"/>
</g>
<g id="Group 7 Copy 2">
<path id="Fill 16_2" fill-rule="evenodd" clip-rule="evenodd" d="M114.638 308.991H280.137V303.461H114.638V308.991Z" fill="#DADFE1"/>
<path id="Fill 17_2" fill-rule="evenodd" clip-rule="evenodd" d="M114.638 295.561H349.54V290.031H114.638V295.561Z" fill="#DADFE1"/>
</g>
<g id="Group 7 Copy 3">
<path id="Fill 16_3" fill-rule="evenodd" clip-rule="evenodd" d="M114.638 206.29H280.137V200.76H114.638V206.29Z" fill="#DADFE1"/>
<path id="Fill 17_3" fill-rule="evenodd" clip-rule="evenodd" d="M114.638 192.86H349.54V187.33H114.638V192.86Z" fill="#DADFE1"/>
</g>
</g>
<path id="YourWebsite" fill-rule="evenodd" clip-rule="evenodd" d="M189.717 172.674C189.717 173.288 189.22 173.785 188.607 173.785C188.007 173.785 187.496 173.288 187.496 172.674C187.496 172.06 188.007 171.563 188.607 171.563C189.22 171.563 189.717 172.06 189.717 172.674ZM120.206 177.892V181.882H118.131V177.892L114.375 172.134H116.742L119.169 176.051L121.565 172.134H123.933L120.206 177.892ZM131.811 178.345C131.811 180.362 130.408 182.057 128.07 182.057C125.746 182.057 124.343 180.362 124.343 178.345C124.343 176.343 125.746 174.647 128.07 174.647C130.408 174.647 131.811 176.343 131.811 178.345ZM128.07 180.406C126.915 180.406 126.272 179.456 126.272 178.345C126.272 177.249 126.915 176.299 128.07 176.299C129.224 176.299 129.882 177.249 129.882 178.345C129.882 179.456 129.224 180.406 128.07 180.406ZM137.95 180.991C137.467 181.531 136.619 182.058 135.465 182.058C133.916 182.058 133.185 181.21 133.185 179.836V174.823H135.041V179.105C135.041 180.084 135.553 180.406 136.342 180.406C137.058 180.406 137.628 180.011 137.95 179.602V174.823H139.806V181.882H137.95V180.991ZM143.503 181.882V177.22C143.81 176.767 144.629 176.416 145.243 176.416C145.447 176.416 145.623 176.445 145.754 176.474V174.662C144.877 174.662 144 175.159 143.503 175.787V174.823H141.647V181.882H143.503ZM156.438 175.188L154.742 181.882H152.535L149.744 172.134H152.068L153.778 179.178L155.634 172.134H157.256L159.098 179.178L160.793 172.134H163.132L160.355 181.882H158.148L156.438 175.188ZM167.385 182.057C168.481 182.057 169.592 181.721 170.293 181.078L169.475 179.88C169.022 180.318 168.247 180.581 167.589 180.581C166.391 180.581 165.675 179.836 165.558 178.944H170.805V178.535C170.805 176.226 169.373 174.647 167.268 174.647C165.119 174.647 163.614 176.299 163.614 178.345C163.614 180.61 165.236 182.057 167.385 182.057ZM165.529 177.687H169.007C168.964 177.015 168.496 176.123 167.268 176.123C166.114 176.123 165.617 176.986 165.529 177.687ZM176.184 182.058C177.967 182.058 179.312 180.713 179.312 178.36C179.312 176.051 177.982 174.647 176.184 174.647C175.351 174.647 174.562 175.013 174.006 175.729V172.134H172.15V181.882H174.006V180.976C174.562 181.677 175.336 182.058 176.184 182.058ZM174.006 179.617C174.313 180.07 175 180.406 175.599 180.406C176.681 180.406 177.397 179.587 177.397 178.36C177.397 177.132 176.681 176.299 175.599 176.299C175 176.299 174.313 176.65 174.006 177.117V179.617ZM183.258 182.057C185.216 182.057 186.312 181.078 186.312 179.792C186.312 178.038 184.69 177.717 183.477 177.483C182.688 177.322 182.132 177.161 182.132 176.723C182.132 176.313 182.571 176.065 183.243 176.065C184.106 176.065 184.909 176.43 185.333 176.883L186.079 175.612C185.377 175.057 184.427 174.647 183.229 174.647C181.372 174.647 180.335 175.685 180.335 176.869C180.335 178.541 181.882 178.839 183.092 179.072L183.112 179.076C183.916 179.237 184.529 179.412 184.529 179.909C184.529 180.347 184.149 180.625 183.346 180.625C182.469 180.625 181.416 180.143 180.905 179.66L180.101 180.961C180.846 181.648 182.03 182.057 183.258 182.057ZM189.542 181.882V174.823H187.686V181.882H189.542ZM195.3 181.604C195.023 181.853 194.526 182.057 193.751 182.057C192.45 182.057 191.749 181.385 191.749 180.128V176.445H190.58V174.823H191.749V172.893H193.62V174.823H195.052V176.445H193.62V179.631C193.62 180.07 193.853 180.406 194.263 180.406C194.54 180.406 194.803 180.303 194.906 180.201L195.3 181.604ZM199.642 182.057C200.738 182.057 201.849 181.721 202.55 181.078L201.732 179.88C201.279 180.318 200.504 180.581 199.846 180.581C198.648 180.581 197.932 179.836 197.815 178.944H203.062V178.535C203.062 176.226 201.629 174.647 199.525 174.647C197.376 174.647 195.871 176.299 195.871 178.345C195.871 180.61 197.493 182.057 199.642 182.057ZM197.785 177.687H201.264C201.22 177.015 200.752 176.123 199.524 176.123C198.37 176.123 197.873 176.986 197.785 177.687Z" fill="#427FE0"/>
<path id="CompetitorWebsite" fill-rule="evenodd" clip-rule="evenodd" d="M169.854 225.453C169.854 226.066 169.357 226.563 168.743 226.563C168.144 226.563 167.633 226.066 167.633 225.453C167.633 224.839 168.144 224.342 168.743 224.342C169.357 224.342 169.854 224.839 169.854 225.453ZM124.21 232.439C123.509 233.652 122.281 234.836 120.059 234.836C117.209 234.836 114.944 232.789 114.944 229.793C114.944 226.797 117.209 224.751 120.059 224.751C122.281 224.751 123.523 225.92 124.21 227.133L122.427 228.01C122.018 227.221 121.141 226.592 120.059 226.592C118.364 226.592 117.078 227.952 117.078 229.793C117.078 231.635 118.364 232.994 120.059 232.994C121.141 232.994 122.018 232.38 122.427 231.576L124.21 232.439ZM132.424 231.123C132.424 233.14 131.021 234.836 128.683 234.836C126.359 234.836 124.956 233.14 124.956 231.123C124.956 229.121 126.359 227.426 128.683 227.426C131.021 227.426 132.424 229.121 132.424 231.123ZM128.683 233.184C127.528 233.184 126.885 232.234 126.885 231.123C126.885 230.027 127.528 229.077 128.683 229.077C129.837 229.077 130.495 230.027 130.495 231.123C130.495 232.234 129.837 233.184 128.683 233.184ZM135.654 229.91V234.66H133.798V227.601H135.654V228.522C135.946 228.098 136.882 227.426 137.963 227.426C139.001 227.426 139.659 227.908 139.922 228.712C140.331 228.069 141.266 227.426 142.348 227.426C143.649 227.426 144.423 228.112 144.423 229.559V234.66H142.553V230.203C142.553 229.545 142.26 229.077 141.5 229.077C140.842 229.077 140.302 229.516 140.039 229.896V234.66H138.168V230.203C138.168 229.545 137.876 229.077 137.116 229.077C136.472 229.077 135.932 229.516 135.654 229.91ZM148.106 237.349V233.754C148.676 234.485 149.451 234.836 150.284 234.836C152.096 234.836 153.412 233.476 153.412 231.123C153.412 228.77 152.096 227.426 150.284 227.426C149.422 227.426 148.647 227.806 148.106 228.492V227.601H146.25V237.349H148.106ZM148.106 232.38C148.413 232.819 149.1 233.184 149.7 233.184C150.766 233.184 151.483 232.351 151.483 231.123C151.483 229.91 150.766 229.077 149.7 229.077C149.1 229.077 148.413 229.428 148.106 229.881V232.38ZM158.119 234.836C159.215 234.836 160.325 234.499 161.027 233.856L160.209 232.658C159.755 233.096 158.981 233.359 158.323 233.359C157.125 233.359 156.408 232.614 156.292 231.723H161.539V231.313C161.539 229.004 160.106 227.426 158.002 227.426C155.853 227.426 154.348 229.077 154.348 231.123C154.348 233.389 155.97 234.836 158.119 234.836ZM156.262 230.466H159.74C159.697 229.793 159.229 228.902 158.001 228.902C156.846 228.902 156.35 229.764 156.262 230.466ZM165.25 234.836C166.025 234.836 166.522 234.631 166.8 234.383L166.405 232.979C166.303 233.082 166.04 233.184 165.762 233.184C165.353 233.184 165.119 232.848 165.119 232.409V229.223H166.551V227.601H165.119V225.672H163.248V227.601H162.079V229.223H163.248V232.906C163.248 234.163 163.95 234.836 165.25 234.836ZM169.679 234.66V227.601H167.823V234.66H169.679ZM175.438 234.383C175.16 234.631 174.663 234.836 173.889 234.836C172.588 234.836 171.886 234.163 171.886 232.906V229.223H170.717V227.601H171.886V225.672H173.757V227.601H175.19V229.223H173.757V232.409C173.757 232.848 173.991 233.184 174.4 233.184C174.678 233.184 174.941 233.082 175.043 232.979L175.438 234.383ZM179.735 234.836C182.073 234.836 183.476 233.14 183.476 231.123C183.476 229.121 182.073 227.426 179.735 227.426C177.411 227.426 176.008 229.121 176.008 231.123C176.008 233.14 177.411 234.836 179.735 234.836ZM177.937 231.123C177.937 232.234 178.58 233.184 179.735 233.184C180.889 233.184 181.547 232.234 181.547 231.123C181.547 230.027 180.889 229.077 179.735 229.077C178.58 229.077 177.937 230.027 177.937 231.123ZM186.706 234.66V229.998C187.013 229.545 187.831 229.194 188.445 229.194C188.65 229.194 188.825 229.223 188.957 229.253V227.44C188.08 227.44 187.203 227.937 186.706 228.566V227.601H184.85V234.66H186.706ZM199.641 227.966L197.946 234.66H195.739L192.947 224.912H195.271L196.981 231.957L198.837 224.912H200.46L202.301 231.957L203.997 224.912H206.335L203.558 234.66H201.351L199.641 227.966ZM210.588 234.836C211.684 234.836 212.795 234.499 213.497 233.856L212.678 232.658C212.225 233.096 211.451 233.359 210.793 233.359C209.594 233.359 208.878 232.614 208.761 231.723H214.008V231.313C214.008 229.004 212.576 227.426 210.471 227.426C208.323 227.426 206.818 229.077 206.818 231.123C206.818 233.389 208.44 234.836 210.588 234.836ZM208.732 230.466H212.21C212.166 229.793 211.699 228.902 210.471 228.902C209.316 228.902 208.819 229.764 208.732 230.466ZM219.387 234.836C221.17 234.836 222.514 233.491 222.514 231.138C222.514 228.829 221.184 227.426 219.387 227.426C218.554 227.426 217.764 227.791 217.209 228.507V224.912H215.353V234.66H217.209V233.754C217.764 234.456 218.539 234.836 219.387 234.836ZM217.209 232.395C217.516 232.848 218.203 233.184 218.802 233.184C219.884 233.184 220.6 232.366 220.6 231.138C220.6 229.91 219.884 229.077 218.802 229.077C218.203 229.077 217.516 229.428 217.209 229.896V232.395ZM226.461 234.836C228.419 234.836 229.515 233.856 229.515 232.57C229.515 230.816 227.893 230.495 226.68 230.261C225.891 230.1 225.335 229.939 225.335 229.501C225.335 229.092 225.774 228.843 226.446 228.843C227.308 228.843 228.112 229.209 228.536 229.662L229.281 228.39C228.58 227.835 227.63 227.426 226.431 227.426C224.575 227.426 223.537 228.463 223.537 229.647C223.537 231.319 225.085 231.617 226.295 231.85L226.314 231.854C227.118 232.015 227.732 232.19 227.732 232.687C227.732 233.126 227.352 233.403 226.548 233.403C225.671 233.403 224.619 232.921 224.107 232.439L223.304 233.739C224.049 234.426 225.233 234.836 226.461 234.836ZM232.92 225.453C232.92 226.066 232.423 226.563 231.809 226.563C231.21 226.563 230.699 226.066 230.699 225.453C230.699 224.839 231.21 224.342 231.809 224.342C232.423 224.342 232.92 224.839 232.92 225.453ZM232.745 234.66V227.601H230.889V234.66H232.745ZM238.504 234.383C238.226 234.631 237.729 234.836 236.955 234.836C235.654 234.836 234.952 234.163 234.952 232.906V229.223H233.783V227.601H234.952V225.672H236.823V227.601H238.255V229.223H236.823V232.409C236.823 232.848 237.057 233.184 237.466 233.184C237.744 233.184 238.007 233.082 238.109 232.979L238.504 234.383ZM242.844 234.836C243.941 234.836 245.051 234.499 245.753 233.856L244.934 232.658C244.481 233.096 243.707 233.359 243.049 233.359C241.851 233.359 241.134 232.614 241.017 231.723H246.264V231.313C246.264 229.004 244.832 227.426 242.727 227.426C240.579 227.426 239.074 229.077 239.074 231.123C239.074 233.389 240.696 234.836 242.844 234.836ZM240.989 230.466H244.467C244.423 229.793 243.956 228.902 242.728 228.902C241.573 228.902 241.076 229.764 240.989 230.466Z" fill="#FF5254"/>
<path id="CompetitorWebsite_2" fill-rule="evenodd" clip-rule="evenodd" d="M169.854 274.983C169.854 275.597 169.357 276.094 168.743 276.094C168.144 276.094 167.633 275.597 167.633 274.983C167.633 274.369 168.144 273.872 168.743 273.872C169.357 273.872 169.854 274.369 169.854 274.983ZM124.21 281.969C123.509 283.182 122.281 284.366 120.059 284.366C117.209 284.366 114.944 282.32 114.944 279.324C114.944 276.327 117.209 274.281 120.059 274.281C122.281 274.281 123.523 275.451 124.21 276.664L122.427 277.541C122.018 276.751 121.141 276.123 120.059 276.123C118.364 276.123 117.078 277.482 117.078 279.324C117.078 281.165 118.364 282.524 120.059 282.524C121.141 282.524 122.018 281.911 122.427 281.107L124.21 281.969ZM132.424 280.654C132.424 282.671 131.021 284.366 128.683 284.366C126.359 284.366 124.956 282.671 124.956 280.654C124.956 278.651 126.359 276.956 128.683 276.956C131.021 276.956 132.424 278.651 132.424 280.654ZM128.683 282.714C127.528 282.714 126.885 281.764 126.885 280.654C126.885 279.557 127.528 278.607 128.683 278.607C129.837 278.607 130.495 279.557 130.495 280.654C130.495 281.764 129.837 282.714 128.683 282.714ZM135.654 279.441V284.191H133.798V277.131H135.654V278.052C135.946 277.628 136.882 276.956 137.963 276.956C139.001 276.956 139.659 277.438 139.922 278.242C140.331 277.599 141.266 276.956 142.348 276.956C143.649 276.956 144.423 277.643 144.423 279.09V284.191H142.553V279.733C142.553 279.075 142.26 278.607 141.5 278.607C140.842 278.607 140.302 279.046 140.039 279.426V284.191H138.168V279.733C138.168 279.075 137.876 278.607 137.116 278.607C136.472 278.607 135.932 279.046 135.654 279.441ZM148.106 286.88V283.284C148.676 284.015 149.451 284.366 150.284 284.366C152.096 284.366 153.412 283.007 153.412 280.654C153.412 278.301 152.096 276.956 150.284 276.956C149.422 276.956 148.647 277.336 148.106 278.023V277.131H146.25V286.88H148.106ZM148.106 281.911C148.413 282.349 149.1 282.714 149.7 282.714C150.766 282.714 151.483 281.881 151.483 280.654C151.483 279.441 150.766 278.607 149.7 278.607C149.1 278.607 148.413 278.958 148.106 279.411V281.911ZM158.119 284.366C159.215 284.366 160.325 284.03 161.027 283.387L160.209 282.188C159.755 282.627 158.981 282.89 158.323 282.89C157.125 282.89 156.408 282.144 156.292 281.253H161.539V280.844C161.539 278.534 160.106 276.956 158.002 276.956C155.853 276.956 154.348 278.607 154.348 280.654C154.348 282.919 155.97 284.366 158.119 284.366ZM156.262 279.996H159.74C159.697 279.324 159.229 278.432 158.001 278.432C156.846 278.432 156.35 279.294 156.262 279.996ZM165.25 284.366C166.025 284.366 166.522 284.161 166.8 283.913L166.405 282.51C166.303 282.612 166.04 282.714 165.762 282.714C165.353 282.714 165.119 282.378 165.119 281.94V278.754H166.551V277.131H165.119V275.202H163.248V277.131H162.079V278.754H163.248V282.437C163.248 283.694 163.95 284.366 165.25 284.366ZM169.679 284.191V277.131H167.823V284.191H169.679ZM175.438 283.913C175.16 284.161 174.663 284.366 173.889 284.366C172.588 284.366 171.886 283.694 171.886 282.437V278.754H170.717V277.131H171.886V275.202H173.757V277.131H175.19V278.754H173.757V281.94C173.757 282.378 173.991 282.714 174.4 282.714C174.678 282.714 174.941 282.612 175.043 282.51L175.438 283.913ZM179.735 284.366C182.073 284.366 183.476 282.671 183.476 280.654C183.476 278.651 182.073 276.956 179.735 276.956C177.411 276.956 176.008 278.651 176.008 280.654C176.008 282.671 177.411 284.366 179.735 284.366ZM177.937 280.654C177.937 281.764 178.58 282.714 179.735 282.714C180.889 282.714 181.547 281.764 181.547 280.654C181.547 279.557 180.889 278.607 179.735 278.607C178.58 278.607 177.937 279.557 177.937 280.654ZM186.706 284.191V279.528C187.013 279.075 187.831 278.724 188.445 278.724C188.65 278.724 188.825 278.754 188.957 278.783V276.971C188.08 276.971 187.203 277.467 186.706 278.096V277.131H184.85V284.191H186.706ZM199.641 277.497L197.946 284.191H195.739L192.947 274.442H195.271L196.981 281.487L198.837 274.442H200.46L202.301 281.487L203.997 274.442H206.335L203.558 284.191H201.351L199.641 277.497ZM210.588 284.366C211.684 284.366 212.795 284.03 213.497 283.387L212.678 282.188C212.225 282.627 211.451 282.89 210.793 282.89C209.594 282.89 208.878 282.144 208.761 281.253H214.008V280.844C214.008 278.534 212.576 276.956 210.471 276.956C208.323 276.956 206.818 278.607 206.818 280.654C206.818 282.919 208.44 284.366 210.588 284.366ZM208.732 279.996H212.21C212.166 279.324 211.699 278.432 210.471 278.432C209.316 278.432 208.819 279.294 208.732 279.996ZM219.387 284.366C221.17 284.366 222.514 283.021 222.514 280.668C222.514 278.359 221.184 276.956 219.387 276.956C218.554 276.956 217.764 277.321 217.209 278.038V274.442H215.353V284.191H217.209V283.285C217.764 283.986 218.539 284.366 219.387 284.366ZM217.209 281.925C217.516 282.378 218.203 282.714 218.802 282.714C219.884 282.714 220.6 281.896 220.6 280.668C220.6 279.441 219.884 278.607 218.802 278.607C218.203 278.607 217.516 278.958 217.209 279.426V281.925ZM226.461 284.366C228.419 284.366 229.515 283.387 229.515 282.101C229.515 280.347 227.893 280.025 226.68 279.791C225.891 279.631 225.335 279.47 225.335 279.031C225.335 278.622 225.774 278.374 226.446 278.374C227.308 278.374 228.112 278.739 228.536 279.192L229.281 277.921C228.58 277.365 227.63 276.956 226.431 276.956C224.575 276.956 223.537 277.994 223.537 279.177C223.537 280.849 225.085 281.147 226.295 281.381L226.314 281.384C227.118 281.545 227.732 281.721 227.732 282.217C227.732 282.656 227.352 282.934 226.548 282.934C225.671 282.934 224.619 282.451 224.107 281.969L223.304 283.27C224.049 283.957 225.233 284.366 226.461 284.366ZM232.92 274.983C232.92 275.597 232.423 276.094 231.809 276.094C231.21 276.094 230.699 275.597 230.699 274.983C230.699 274.369 231.21 273.872 231.809 273.872C232.423 273.872 232.92 274.369 232.92 274.983ZM232.745 284.191V277.131H230.889V284.191H232.745ZM238.504 283.913C238.226 284.161 237.729 284.366 236.955 284.366C235.654 284.366 234.952 283.694 234.952 282.437V278.754H233.783V277.131H234.952V275.202H236.823V277.131H238.255V278.754H236.823V281.94C236.823 282.378 237.057 282.714 237.466 282.714C237.744 282.714 238.007 282.612 238.109 282.51L238.504 283.913ZM242.844 284.366C243.941 284.366 245.051 284.03 245.753 283.387L244.934 282.188C244.481 282.627 243.707 282.89 243.049 282.89C241.851 282.89 241.134 282.144 241.017 281.253H246.264V280.844C246.264 278.534 244.832 276.956 242.727 276.956C240.579 276.956 239.074 278.607 239.074 280.654C239.074 282.919 240.696 284.366 242.844 284.366ZM240.989 279.996H244.467C244.423 279.324 243.956 278.432 242.728 278.432C241.573 278.432 241.076 279.294 240.989 279.996Z" fill="#FF5254"/>
</g>
<g id="local-seo-01">
<g id="Rectangle 35" filter="url(#filter1_d_333_11907)">
<path fill-rule="evenodd" clip-rule="evenodd" d="M10.5151 105.896H442.485V151.486H10.5151V105.896Z" fill="white"/>
</g>
<path id="YourIndustry" fill-rule="evenodd" clip-rule="evenodd" d="M59.2013 123.956V134.787H57.8534V123.956H59.2013ZM24.3996 130.208V134.787H23.0517V130.208L18.7808 123.956H20.356L23.7176 128.99L27.0791 123.956H28.6544L24.3996 130.208ZM37.3269 130.857C37.3269 133.131 35.8328 134.982 33.4456 134.982C31.0584 134.982 29.5644 133.131 29.5644 130.857C29.5644 128.584 31.0584 126.749 33.4456 126.749C35.8328 126.749 37.3269 128.584 37.3269 130.857ZM33.4453 133.894C31.7726 133.894 30.8307 132.465 30.8307 130.858C30.8307 129.266 31.7726 127.837 33.4453 127.837C35.1179 127.837 36.0436 129.266 36.0436 130.858C36.0436 132.465 35.1179 133.894 33.4453 133.894ZM44.6021 133.683C44.0013 134.365 42.9782 134.982 41.809 134.982C40.1688 134.982 39.3081 134.187 39.3081 132.482V126.944H40.526V132.108C40.526 133.488 41.2243 133.894 42.2799 133.894C43.238 133.894 44.1474 133.342 44.6021 132.709V126.944H45.8201V134.788H44.6021V133.683ZM49.4736 134.787V129.234C49.8309 128.6 50.854 127.983 51.601 127.983C51.7959 127.983 51.942 127.999 52.0882 128.032V126.781C51.0164 126.781 50.107 127.382 49.4736 128.21V126.944H48.2557V134.787H49.4736ZM62.9037 134.787V129.055C63.3584 128.422 64.2678 127.837 65.2259 127.837C66.2815 127.837 66.9798 128.275 66.9798 129.656V134.787H68.1977V129.282C68.1977 127.577 67.337 126.749 65.6969 126.749C64.5276 126.749 63.4558 127.431 62.9037 128.08V126.944H61.6857V134.787H62.9037ZM76.3175 133.618C75.7329 134.414 74.7747 134.982 73.6705 134.982C71.6243 134.982 70.179 133.423 70.179 130.874C70.179 128.373 71.608 126.749 73.6705 126.749C74.726 126.749 75.6842 127.269 76.3175 128.129V123.956H77.5354V134.787H76.3175V133.618ZM73.9632 133.894C72.388 133.894 71.4461 132.611 71.4461 130.874C71.4461 129.136 72.388 127.837 73.9632 127.837C74.9376 127.837 75.8794 128.422 76.3179 129.104V132.66C75.8794 133.342 74.9376 133.894 73.9632 133.894ZM85.2659 133.683C84.665 134.365 83.6419 134.982 82.4727 134.982C80.8325 134.982 79.9718 134.187 79.9718 132.482V126.944H81.1898V132.108C81.1898 133.488 81.8881 133.894 82.9436 133.894C83.9018 133.894 84.8112 133.342 85.2659 132.709V126.944H86.4838V134.788H85.2659V133.683ZM91.4041 134.982C93.434 134.982 94.4896 133.927 94.4896 132.611C94.4896 130.874 92.9144 130.484 91.5502 130.175C90.5272 129.932 89.634 129.688 89.634 128.925C89.634 128.227 90.2998 127.739 91.3716 127.739C92.3784 127.739 93.2391 128.162 93.7101 128.73L94.2785 127.886C93.6451 127.252 92.7032 126.749 91.3716 126.749C89.5041 126.749 88.4485 127.788 88.4485 129.006C88.4485 130.63 89.9588 130.987 91.2904 131.296C92.346 131.556 93.3041 131.832 93.3041 132.692C93.3041 133.456 92.6545 133.992 91.4528 133.992C90.381 133.992 89.3904 133.472 88.8707 132.871L88.2374 133.748C89.0331 134.593 90.1212 134.982 91.4041 134.982ZM99.9135 134.479C99.6049 134.771 99.1665 134.982 98.4519 134.982C97.2989 134.982 96.7143 134.317 96.7143 133.147V128.016H95.4152V126.944H96.7143V124.8H97.9323V126.944H99.5237V128.016H97.9323V132.887C97.9323 133.472 98.1921 133.894 98.728 133.894C99.069 133.894 99.3938 133.748 99.5562 133.57L99.9135 134.479ZM102.463 134.787V129.234C102.82 128.6 103.843 127.983 104.59 127.983C104.785 127.983 104.931 127.999 105.077 128.032V126.781C104.006 126.781 103.096 127.382 102.463 128.21V126.944H101.245V134.787H102.463ZM109.365 136.379C108.894 137.516 108.098 137.954 107.059 137.97C106.799 137.97 106.393 137.922 106.166 137.857L106.36 136.752C106.539 136.834 106.831 136.882 107.026 136.882C107.562 136.882 107.919 136.704 108.195 136.054L108.715 134.869L105.435 126.944H106.75L109.365 133.375L111.963 126.944H113.295L109.365 136.379Z" fill="#8D8D8D"/>
<path id="Rectangle 35 Copy" fill-rule="evenodd" clip-rule="evenodd" d="M316.493 105.896H442.485V151.486H316.493V105.896Z" fill="#FF5254"/>
<path id="Search" fill-rule="evenodd" clip-rule="evenodd" d="M362.777 134.409C362.294 134.521 361.814 134.577 361.337 134.577C360.752 134.577 360.199 134.504 359.678 134.357C359.157 134.211 358.699 133.99 358.304 133.692C357.91 133.395 357.598 133.015 357.369 132.552C357.14 132.09 357.025 131.541 357.025 130.908H358.341C358.341 131.347 358.426 131.724 358.597 132.041C358.767 132.357 358.991 132.618 359.269 132.823C359.547 133.027 359.871 133.178 360.241 133.276C360.611 133.373 360.991 133.422 361.381 133.422C361.693 133.422 362.007 133.393 362.324 133.334C362.64 133.276 362.925 133.176 363.179 133.035C363.432 132.893 363.637 132.701 363.792 132.457C363.948 132.214 364.026 131.902 364.026 131.522C364.026 131.161 363.931 130.869 363.741 130.645C363.551 130.421 363.298 130.238 362.981 130.097C362.665 129.956 362.307 129.841 361.907 129.753C361.508 129.666 361.101 129.576 360.687 129.483C360.273 129.391 359.866 129.283 359.466 129.162C359.067 129.04 358.709 128.879 358.392 128.679C358.075 128.479 357.822 128.221 357.632 127.905C357.442 127.588 357.347 127.191 357.347 126.713C357.347 126.187 357.454 125.732 357.669 125.347C357.883 124.962 358.168 124.645 358.524 124.397C358.879 124.148 359.284 123.963 359.737 123.842C360.19 123.72 360.655 123.659 361.132 123.659C361.668 123.659 362.165 123.722 362.623 123.849C363.081 123.975 363.483 124.175 363.829 124.448C364.175 124.721 364.448 125.064 364.647 125.478C364.847 125.893 364.957 126.387 364.976 126.962H363.661C363.583 126.212 363.313 125.668 362.85 125.332C362.387 124.996 361.795 124.828 361.074 124.828C360.782 124.828 360.494 124.857 360.212 124.916C359.929 124.974 359.678 125.072 359.459 125.208C359.24 125.344 359.064 125.527 358.933 125.756C358.801 125.985 358.735 126.27 358.735 126.611C358.735 126.933 358.83 127.193 359.021 127.393C359.211 127.593 359.464 127.756 359.781 127.883C360.097 128.009 360.455 128.114 360.855 128.197C361.254 128.28 361.661 128.37 362.075 128.467C362.489 128.565 362.896 128.679 363.296 128.811C363.695 128.942 364.053 129.12 364.37 129.344C364.686 129.568 364.94 129.851 365.13 130.192C365.32 130.533 365.415 130.962 365.415 131.478C365.415 132.034 365.291 132.509 365.042 132.903C364.794 133.298 364.475 133.619 364.085 133.868C363.695 134.116 363.259 134.296 362.777 134.409ZM372.241 133.86C371.676 134.289 370.964 134.504 370.107 134.504C369.503 134.504 368.979 134.406 368.536 134.211C368.092 134.016 367.72 133.744 367.418 133.393C367.116 133.042 366.889 132.623 366.738 132.136C366.587 131.649 366.502 131.118 366.482 130.543C366.482 129.968 366.57 129.442 366.745 128.964C366.921 128.487 367.167 128.073 367.483 127.722C367.8 127.371 368.175 127.098 368.609 126.904C369.042 126.709 369.517 126.611 370.034 126.611C370.706 126.611 371.264 126.75 371.707 127.028C372.151 127.305 372.506 127.659 372.774 128.087C373.042 128.516 373.227 128.984 373.33 129.49C373.432 129.997 373.473 130.479 373.454 130.937H367.798C367.788 131.269 367.827 131.583 367.915 131.88C368.002 132.177 368.144 132.44 368.338 132.669C368.533 132.898 368.782 133.081 369.084 133.217C369.386 133.354 369.742 133.422 370.151 133.422C370.677 133.422 371.108 133.3 371.444 133.057C371.78 132.813 372.002 132.443 372.109 131.946H373.337C373.171 132.794 372.806 133.432 372.241 133.86ZM372.138 129.841H367.797C367.816 129.549 367.88 129.274 367.987 129.015C368.094 128.757 368.24 128.531 368.425 128.336C368.611 128.141 368.832 127.987 369.09 127.875C369.349 127.763 369.638 127.707 369.96 127.707C370.272 127.707 370.557 127.763 370.815 127.875C371.073 127.987 371.297 128.138 371.487 128.328C371.677 128.518 371.828 128.745 371.94 129.008C372.052 129.271 372.118 129.549 372.138 129.841ZM381.433 134.314C381.219 134.44 380.922 134.504 380.542 134.504C380.22 134.504 379.964 134.413 379.774 134.233C379.584 134.053 379.489 133.758 379.489 133.349C379.148 133.758 378.751 134.053 378.298 134.233C377.845 134.413 377.355 134.504 376.829 134.504C376.488 134.504 376.164 134.465 375.857 134.387C375.55 134.309 375.285 134.187 375.061 134.021C374.837 133.856 374.659 133.639 374.527 133.371C374.396 133.103 374.33 132.779 374.33 132.399C374.33 131.97 374.403 131.619 374.549 131.347C374.695 131.074 374.888 130.852 375.127 130.682C375.365 130.511 375.638 130.382 375.945 130.294C376.252 130.207 376.566 130.134 376.888 130.075C377.229 130.007 377.553 129.956 377.86 129.922C378.167 129.888 378.437 129.839 378.671 129.775C378.905 129.712 379.09 129.62 379.226 129.498C379.363 129.376 379.431 129.198 379.431 128.964C379.431 128.691 379.38 128.472 379.277 128.307C379.175 128.141 379.044 128.014 378.883 127.927C378.722 127.839 378.542 127.78 378.342 127.751C378.142 127.722 377.945 127.707 377.75 127.707C377.224 127.707 376.785 127.807 376.435 128.007C376.084 128.207 375.894 128.584 375.865 129.14H374.622C374.642 128.672 374.739 128.277 374.915 127.956C375.09 127.634 375.324 127.374 375.616 127.174C375.908 126.974 376.242 126.83 376.617 126.743C376.992 126.655 377.394 126.611 377.823 126.611C378.164 126.611 378.503 126.636 378.839 126.684C379.175 126.733 379.48 126.833 379.752 126.984C380.025 127.135 380.244 127.347 380.41 127.62C380.576 127.892 380.659 128.248 380.659 128.687V132.574C380.659 132.867 380.676 133.081 380.71 133.217C380.744 133.354 380.858 133.422 381.053 133.422C381.16 133.422 381.287 133.398 381.433 133.349V134.314ZM377.107 133.422C376.912 133.422 376.727 133.403 376.552 133.364C376.376 133.325 376.223 133.261 376.091 133.174C375.96 133.086 375.853 132.971 375.77 132.83C375.687 132.689 375.645 132.516 375.645 132.311C375.645 131.999 375.716 131.753 375.857 131.573C375.999 131.393 376.181 131.254 376.406 131.157C376.63 131.059 376.883 130.989 377.166 130.945C377.448 130.901 377.728 130.862 378.006 130.828C378.284 130.794 378.549 130.75 378.802 130.696C379.056 130.643 379.26 130.557 379.416 130.44V131.712C379.416 131.887 379.372 132.075 379.285 132.275C379.197 132.474 379.061 132.66 378.876 132.83C378.69 133.001 378.452 133.142 378.159 133.254C377.867 133.366 377.516 133.422 377.107 133.422ZM383.786 130.981V134.343H382.544V126.787H383.713V128.38H383.743C384.045 127.766 384.415 127.313 384.853 127.021C385.292 126.728 385.847 126.592 386.52 126.611V127.927C386.023 127.927 385.599 127.995 385.248 128.131C384.897 128.268 384.615 128.467 384.4 128.731C384.186 128.994 384.03 129.313 383.933 129.688C383.835 130.063 383.786 130.494 383.786 130.981ZM390.583 134.504C391.547 134.504 392.31 134.25 392.87 133.744C393.43 133.237 393.779 132.516 393.915 131.58H392.643C392.565 132.165 392.353 132.618 392.008 132.94C391.662 133.261 391.182 133.422 390.568 133.422C390.178 133.422 389.842 133.344 389.559 133.188C389.277 133.032 389.048 132.825 388.873 132.567C388.697 132.309 388.568 132.014 388.485 131.683C388.402 131.351 388.361 131.01 388.361 130.66C388.361 130.28 388.4 129.912 388.478 129.556C388.556 129.201 388.685 128.886 388.865 128.614C389.046 128.341 389.287 128.121 389.589 127.956C389.891 127.79 390.266 127.707 390.714 127.707C391.24 127.707 391.659 127.839 391.971 128.102C392.283 128.365 392.487 128.735 392.585 129.213H393.871C393.822 128.765 393.705 128.377 393.52 128.051C393.335 127.724 393.099 127.454 392.811 127.24C392.524 127.025 392.193 126.867 391.818 126.765C391.442 126.662 391.041 126.611 390.612 126.611C390.017 126.611 389.496 126.716 389.048 126.925C388.6 127.135 388.227 127.422 387.93 127.788C387.633 128.153 387.411 128.582 387.265 129.074C387.119 129.566 387.046 130.095 387.046 130.66C387.046 131.225 387.121 131.744 387.272 132.216C387.423 132.689 387.647 133.096 387.944 133.437C388.242 133.778 388.612 134.041 389.055 134.226C389.499 134.411 390.008 134.504 390.583 134.504ZM396.546 130.075V134.343H395.303V123.907H396.546V127.897H396.575C396.672 127.664 396.809 127.466 396.984 127.306C397.16 127.145 397.357 127.013 397.576 126.911C397.795 126.809 398.024 126.733 398.263 126.684C398.502 126.636 398.733 126.611 398.957 126.611C399.454 126.611 399.868 126.68 400.2 126.816C400.531 126.952 400.799 127.142 401.003 127.386C401.208 127.63 401.352 127.919 401.435 128.256C401.517 128.592 401.559 128.964 401.559 129.374V134.343H400.316V129.227C400.316 128.76 400.18 128.39 399.907 128.117C399.634 127.844 399.259 127.707 398.782 127.707C398.402 127.707 398.073 127.766 397.795 127.883C397.518 128 397.286 128.165 397.101 128.38C396.916 128.594 396.777 128.845 396.685 129.132C396.592 129.42 396.546 129.734 396.546 130.075Z" fill="white"/>
</g>
<g id="Google-Logo.wine">
<path id="Shape" fill-rule="evenodd" clip-rule="evenodd" d="M188.337 60.0861C199.074 60.0861 207.824 51.9907 207.824 41.0047C207.824 29.9413 199.074 21.9233 188.337 21.9233C177.599 21.9233 168.849 29.9413 168.849 41.0047C168.849 51.9907 177.599 60.0861 188.337 60.0861ZM188.336 29.4422C194.222 29.4422 199.293 34.1394 199.293 41.0046C199.293 47.7923 194.222 52.567 188.336 52.567C182.45 52.567 177.379 47.8009 177.379 41.0046C177.379 34.1394 182.45 29.4422 188.336 29.4422Z" fill="#EA4335"/>
<path id="Shape_2" fill-rule="evenodd" clip-rule="evenodd" d="M229.747 60.0861C240.485 60.0861 249.235 51.9907 249.235 41.0047C249.235 29.9413 240.485 21.9233 229.747 21.9233C219.01 21.9233 210.26 29.9499 210.26 41.0047C210.26 51.9907 219.01 60.0861 229.747 60.0861ZM229.747 29.4422C235.633 29.4422 240.704 34.1394 240.704 41.0046C240.704 47.7923 235.633 52.567 229.747 52.567C223.861 52.567 218.79 47.8009 218.79 41.0046C218.79 34.1394 223.861 29.4422 229.747 29.4422Z" fill="#FBBC05"/>
<path id="Shape_3" fill-rule="evenodd" clip-rule="evenodd" d="M289.021 57.3058V23.0838H281.073V26.1871H280.78C278.898 23.9435 275.289 21.9233 270.743 21.9233C261.213 21.9233 252.483 30.2962 252.483 41.0588C252.483 51.744 261.213 60.048 270.743 60.048C275.298 60.048 278.907 58.0279 280.78 55.7155H281.073V58.4577C281.073 65.756 277.18 69.6329 270.898 69.6329C265.776 69.6329 262.597 65.9709 261.299 62.8676L254.012 65.9021C256.109 70.9568 261.669 77.1375 270.907 77.1375C280.72 77.1375 289.021 71.3866 289.021 57.3058ZM271.491 29.4365C277.189 29.4365 281.666 34.345 281.666 41.0587C281.666 47.7037 277.189 52.5434 271.491 52.5434C265.717 52.5434 260.879 47.7037 260.879 41.0587C260.879 34.345 265.717 29.4365 271.491 29.4365Z" fill="#4285F4"/>
<path id="Path" d="M302.013 2.43597V58.4621H293.893V2.43597L302.013 2.43597Z" fill="#34A853"/>
<path id="Shape_4" fill-rule="evenodd" clip-rule="evenodd" d="M341.433 51.6294L334.831 47.2935C332.63 50.4766 329.626 52.5757 325.294 52.5757C320.971 52.5757 317.889 50.6228 315.906 46.7945L341.8 36.2301L340.918 34.0621C339.311 29.8037 334.394 21.9233 324.342 21.9233C314.36 21.9233 306.073 29.6574 306.073 41.0047C306.073 51.7068 314.291 60.0861 325.294 60.0861C334.167 60.0861 339.302 54.735 341.433 51.6294ZM331.818 33.348L314.51 40.4282C314.291 33.0641 320.308 29.3046 324.631 29.3046C328.002 29.3046 330.866 30.965 331.818 33.348Z" fill="#EA4335"/>
<path id="Path_2" d="M137.569 35.7131V27.5045H165.193C165.463 28.9351 165.602 30.6275 165.602 32.4594C165.602 38.618 163.921 46.2334 158.502 51.6593C153.232 57.155 146.498 60.086 137.577 60.086C121.043 60.086 107.14 46.5998 107.14 30.043C107.14 13.4862 121.043 0 137.577 0C146.724 0 153.241 3.594 158.136 8.2784L152.352 14.0707C148.841 10.7733 144.085 8.20861 137.569 8.20861C125.495 8.20861 116.052 17.9525 116.052 30.043C116.052 42.1335 125.495 51.8774 137.569 51.8774C145.4 51.8774 149.86 48.7283 152.718 45.8671C155.035 43.5467 156.56 40.2318 157.161 35.7044L137.569 35.7131Z" fill="#4285F4"/>
</g>
</g>
<defs>
<filter id="filter0_d_333_11907" x="81.7119" y="102.18" width="368.337" height="249.82" filterUnits="userSpaceOnUse" color-interpolation-filters="sRGB">
<feFlood flood-opacity="0" result="BackgroundImageFix"/>
<feColorMatrix in="SourceAlpha" type="matrix" values="0 0 0 0 0 0 0 0 0 0 0 0 0 0 0 0 0 0 127 0" result="hardAlpha"/>
<feOffset dy="5"/>
<feGaussianBlur stdDeviation="5"/>
<feColorMatrix type="matrix" values="0 0 0 0 0 0 0 0 0 0 0 0 0 0 0 0 0 0 0.25 0"/>
<feBlend mode="normal" in2="BackgroundImageFix" result="effect1_dropShadow_333_11907"/>
<feBlend mode="normal" in="SourceGraphic" in2="effect1_dropShadow_333_11907" result="shape"/>
</filter>
<filter id="filter1_d_333_11907" x="0.515137" y="97.8964" width="451.97" height="65.5898" filterUnits="userSpaceOnUse" color-interpolation-filters="sRGB">
<feFlood flood-opacity="0" result="BackgroundImageFix"/>
<feColorMatrix in="SourceAlpha" type="matrix" values="0 0 0 0 0 0 0 0 0 0 0 0 0 0 0 0 0 0 127 0" result="hardAlpha"/>
<feOffset dy="2"/>
<feGaussianBlur stdDeviation="5"/>
<feColorMatrix type="matrix" values="0 0 0 0 0 0 0 0 0 0 0 0 0 0 0 0 0 0 0.2 0"/>
<feBlend mode="normal" in2="BackgroundImageFix" result="effect1_dropShadow_333_11907"/>
<feBlend mode="normal" in="SourceGraphic" in2="effect1_dropShadow_333_11907" result="shape"/>
</filter>
</defs>
</svg>
