<?xml version="1.0" encoding="UTF-8"?>
<svg width="54px" height="54px" viewBox="0 0 54 54" version="1.1" xmlns="http://www.w3.org/2000/svg" xmlns:xlink="http://www.w3.org/1999/xlink">
    <!-- Generator: Sketch 59.1 (86144) - https://sketch.com -->
    <title>content-8x</title>
    <desc>Created with Sketch.</desc>
    <g id="Page-1" stroke="none" stroke-width="1" fill="none" fill-rule="evenodd" opacity="0.497377232">
        <g id="SEO-Copywriting" transform="translate(-212.000000, -3632.000000)" fill="#FFFFFF">
            <g id="Group" transform="translate(0.000000, 3553.000000)">
                <path d="M239,79 C235.312178,79 231.821964,79.7024362 228.529273,81.1073171 C225.236573,82.5121979 222.360987,84.4438912 219.902439,86.902439 C217.44389,89.3609868 215.512202,92.2365727 214.107317,95.5292725 C212.702432,98.8219639 212,102.312178 212,106 C212,109.687822 212.702432,113.178036 214.107317,116.470727 C215.512202,119.763427 217.44389,122.639013 219.902439,125.097561 C222.360987,127.55611 225.236573,129.487798 228.529273,130.892683 C231.821964,132.297568 235.312178,133 239,133 C242.687822,133 246.178036,132.297568 249.470727,130.892683 C252.763427,129.487798 255.639013,127.55611 258.097561,125.097561 C260.556109,122.639013 262.487802,119.763427 263.892683,116.470727 C265.297564,113.178036 266,109.687822 266,106 C266,102.312178 265.297564,98.8219639 263.892683,95.5292725 C262.487802,92.2365727 260.556109,89.3609868 258.097561,86.902439 C255.639013,84.4438912 252.763427,82.5121979 249.470727,81.1073171 C246.178036,79.7024362 242.687822,79 239,79 Z M239,81.2390244 C242.424407,81.2390244 245.629257,81.8975525 248.614634,83.2146341 C251.600011,84.5317157 254.234132,86.2877936 256.517073,88.4829268 C258.712206,90.7658677 260.468284,93.3999888 261.785366,96.3853659 C263.102447,99.3707429 263.760976,102.575593 263.760976,106 C263.760976,107.492689 263.629268,108.96341 263.365854,110.412191 C263.102439,111.86098 262.707317,113.243894 262.180488,114.560976 C261.741458,115.878057 261.148788,117.151214 260.402443,118.380488 C259.656091,119.609762 258.843905,120.751211 257.965854,121.804878 C257.351217,121.541463 256.560981,121.234149 255.595122,120.882927 C254.629263,120.531705 253.575613,120.136591 252.434146,119.697561 C251.380479,119.346339 250.28293,118.995125 249.141463,118.643902 C247.999997,118.29268 246.990247,117.985366 246.112195,117.721951 C245.936588,117.634144 245.826831,117.524394 245.782923,117.392687 C245.739024,117.260971 245.717073,116.887808 245.717073,116.273171 C245.717073,115.746341 245.804881,115.219512 245.980488,114.692683 C246.156095,114.165854 246.37561,113.682932 246.639024,113.243902 C246.814631,112.804872 247.034146,112.190244 247.297561,111.4 C247.560976,110.609756 247.736583,109.86342 247.82439,109.160976 C248.087805,108.809753 248.395119,108.304882 248.746341,107.646346 C249.097564,106.987801 249.360978,106.087808 249.536585,104.946341 C249.8,103.892674 249.909758,103.124389 249.865858,102.641468 C249.82195,102.158538 249.712192,101.697567 249.536585,101.258537 C249.536585,101.258537 249.514636,101.236587 249.470727,101.192679 C249.426828,101.148779 249.404878,101.126829 249.404878,101.126829 C249.404878,100.863415 249.426828,100.204886 249.470727,99.1512195 C249.514636,98.0975525 249.624393,97.0439109 249.8,95.9902439 C249.975607,95.3756069 249.931707,94.4317143 249.668293,93.1585408 C249.404878,91.8853588 248.834149,90.634152 247.956098,89.404878 C247.604875,89.0536557 247.209762,88.6585422 246.770732,88.2195122 C246.331702,87.7804822 245.804881,87.4292683 245.190244,87.1658537 C244.575607,86.8146313 243.873171,86.5073171 243.082927,86.2439024 C242.292683,85.9804878 241.37074,85.8048809 240.317073,85.7170732 L238.078049,85.7170732 C237.024382,85.8048809 236.102439,85.9804878 235.312195,86.2439024 C234.521951,86.5073171 233.819515,86.8146313 233.204878,87.1658537 C232.590241,87.4292683 232.06342,87.7804822 231.62439,88.2195122 C231.18536,88.6585422 230.834146,89.0536557 230.570732,89.404878 C229.604872,90.634152 229.012194,91.8853588 228.792687,93.1585408 C228.573172,94.4317143 228.507314,95.3756069 228.595122,95.9902439 C228.770729,97.0439109 228.902436,98.0975525 228.990244,99.1512195 C229.078052,100.204886 229.078052,100.863415 228.990244,101.126829 C228.990244,101.126829 228.990244,101.148779 228.990244,101.192679 C228.990244,101.236587 228.946344,101.258537 228.858537,101.258537 C228.770729,101.697567 228.704879,102.158538 228.660971,102.641468 C228.617072,103.124389 228.68293,103.892674 228.858537,104.946341 C229.121951,106.087808 229.407316,106.987801 229.71463,107.646346 C230.021953,108.304882 230.307317,108.809753 230.570732,109.160976 C230.658539,109.86342 230.834146,110.609756 231.097561,111.4 C231.360976,112.190244 231.580491,112.804872 231.756098,113.243902 C231.931705,113.595125 232.063412,114.034146 232.15122,114.560976 C232.239024,115.087805 232.282927,115.658534 232.282927,116.273171 C232.282927,116.975615 232.260977,117.370729 232.217077,117.458537 C232.173169,117.546344 232.10732,117.634144 232.019512,117.721951 C231.053653,117.985366 230.000003,118.31463 228.858537,118.70976 C227.71707,119.104882 226.575613,119.478046 225.434146,119.829268 C224.380479,120.268298 223.370737,120.663412 222.404878,121.014634 C221.439019,121.365856 220.692683,121.673171 220.165854,121.936585 C219.199995,120.882918 218.365857,119.741469 217.663415,118.512195 C216.960972,117.282921 216.346344,115.965856 215.819512,114.560976 C215.29268,113.243894 214.897563,111.86098 214.634146,110.412191 C214.37073,108.96341 214.239024,107.492689 214.239024,106 C214.239024,102.575593 214.897554,99.3707429 216.214634,96.3853659 C217.531714,93.3999888 219.287794,90.7658677 221.482927,88.4829268 C223.765868,86.2877936 226.399989,84.5317157 229.385366,83.2146341 C232.370743,81.8975525 235.575593,81.2390244 239,81.2390244 Z M221.746341,123.64878 C222.360978,123.385366 223.129264,123.100001 224.051224,122.792679 C224.973175,122.485364 225.917068,122.1561 226.882927,121.804878 C227.848786,121.453656 228.836578,121.102442 229.846346,120.75122 C230.856105,120.399997 231.799997,120.092683 232.678049,119.829268 C233.643908,119.565854 234.192679,119.082932 234.324394,118.380488 C234.456102,117.678043 234.521951,116.975615 234.521951,116.273171 C234.521951,115.746341 234.500001,115.131713 234.456093,114.429268 C234.412194,113.726824 234.214637,113.024396 233.863415,112.321951 C233.6,111.882921 233.380485,111.312201 233.204878,110.609756 C233.029271,109.907311 232.897564,109.204884 232.809756,108.502439 C232.809756,108.414631 232.765856,108.304882 232.678049,108.173175 C232.590241,108.041459 232.502442,107.93171 232.414634,107.843902 C232.239027,107.668295 232.019512,107.317073 231.756098,106.790244 C231.492683,106.263415 231.273168,105.473179 231.097561,104.419512 C230.921954,103.629268 230.834146,103.102439 230.834146,102.839024 C230.834146,102.57561 230.878046,102.356095 230.965854,102.180488 C231.053661,102.09268 231.097561,102.004881 231.097561,101.917073 C231.097561,101.829265 231.097561,101.741466 231.097561,101.653659 C231.273168,101.214629 231.317076,100.336594 231.229268,99.0195122 C231.141461,97.7024306 231.009753,96.5609812 230.834146,95.595122 C230.746341,95.2438996 230.790247,94.5853715 230.965854,93.6195122 C231.141461,92.6536529 231.580482,91.6878105 232.282927,90.7219512 C232.634149,90.3707289 233.007313,90.019515 233.402435,89.6682927 C233.797565,89.3170704 234.258537,89.0536557 234.785366,88.8780488 C235.224396,88.6146341 235.729267,88.4170774 236.299996,88.2853616 C236.870733,88.1536543 237.463412,88.0439052 238.078049,87.9560976 L240.185366,87.9560976 C240.88781,88.0439052 241.524389,88.1536543 242.095118,88.2853616 C242.665855,88.4170774 243.214634,88.6146341 243.741463,88.8780488 C244.180493,89.0536557 244.619507,89.3170704 245.058537,89.6682927 C245.497567,90.019515 245.84878,90.3707289 246.112195,90.7219512 C246.902439,91.6878105 247.36341,92.6536529 247.495126,93.6195122 C247.626833,94.5853715 247.692683,95.2438996 247.692683,95.595122 C247.517076,96.5609812 247.363419,97.7024306 247.231712,99.0195122 C247.099996,100.336594 247.121954,101.214629 247.297561,101.653659 C247.297561,101.741466 247.319511,101.829265 247.36341,101.917073 C247.407318,102.004881 247.429268,102.09268 247.429268,102.180488 C247.517076,102.356095 247.582925,102.57561 247.626825,102.839024 C247.670733,103.102439 247.604875,103.629268 247.429268,104.419512 C247.165854,105.473179 246.902439,106.263415 246.639024,106.790244 C246.37561,107.317073 246.156095,107.668295 245.980488,107.843902 C245.89268,107.93171 245.804881,108.041459 245.717073,108.173175 C245.629265,108.304882 245.585366,108.414631 245.585366,108.502439 C245.585366,109.204884 245.475608,109.907311 245.256093,110.609756 C245.036587,111.312201 244.795122,111.882921 244.531707,112.321951 C244.3561,112.84878 244.136585,113.441459 243.873171,114.099996 C243.609756,114.758541 243.478049,115.482927 243.478049,116.273171 C243.478049,116.887808 243.565856,117.546336 243.741463,118.24878 C243.91707,118.951225 244.487799,119.478046 245.453659,119.829268 C246.243902,120.092683 247.143895,120.378047 248.153654,120.685362 C249.163422,120.992684 250.151214,121.321948 251.117073,121.673171 C252.082932,122.024393 253.026825,122.353657 253.948776,122.66098 C254.870736,122.968294 255.682921,123.253659 256.385366,123.517073 C255.2439,124.658542 254.014643,125.668288 252.697561,126.546341 C251.380479,127.424395 250.019515,128.170729 248.614634,128.785366 C247.121946,129.400003 245.563424,129.882925 243.93902,130.234146 C242.314624,130.585368 240.668304,130.760976 239,130.760976 C237.331696,130.760976 235.707326,130.585368 234.126829,130.234146 C232.546333,129.882925 231.009762,129.400003 229.517073,128.785366 C228.024385,128.170729 226.64147,127.446345 225.368297,126.612195 C224.095115,125.778045 222.887808,124.790249 221.746341,123.64878 Z" id="content-8x"></path>
            </g>
        </g>
    </g>
</svg>