<?xml version="1.0" encoding="UTF-8"?>
<svg width="54px" height="54px" viewBox="0 0 54 54" version="1.1" xmlns="http://www.w3.org/2000/svg" xmlns:xlink="http://www.w3.org/1999/xlink">
    <!-- Generator: Sketch 59.1 (86144) - https://sketch.com -->
    <title>content-114</title>
    <desc>Created with Sketch.</desc>
    <g id="Page-1" stroke="none" stroke-width="1" fill="none" fill-rule="evenodd" opacity="0.497377232">
        <g id="SEO-Copywriting" transform="translate(-887.000000, -3629.000000)" fill="#FFFFFF">
            <g id="Group" transform="translate(0.000000, 3553.000000)">
                <path d="M899.929577,76 L899.929577,106.295775 L887,106.295775 C887,106.295775 887,108.704201 887,113.521127 C887,118.338053 887,121.802806 887,123.915493 C887,125.01409 887.211266,125.943658 887.633803,126.704225 C888.05634,127.464793 888.647883,128.098589 889.408451,128.605634 C890.08451,129.112678 890.82394,129.47183 891.626761,129.683099 C892.429581,129.894367 893.211264,130 893.971831,130 C894.732398,130 896.908433,130 900.5,130 C904.091567,130 908.084488,130 912.478873,130 C916.957768,130 921.288712,130 925.471835,130 C929.65495,130 932.676046,130 934.535211,130 C935.380284,130 936.183099,129.830988 936.943662,129.492958 C937.704225,129.154928 938.380279,128.64789 938.971831,127.971831 C939.647893,127.380279 940.154927,126.704229 940.492958,125.943662 C940.830989,125.183095 941,124.380286 941,123.535211 C941,122.352106 941,114.133877 941,98.8802776 C941,83.6266862 941,76 941,76 L899.929577,76 Z M893.971831,127.84507 C893.295772,127.84507 892.32395,127.591552 891.056338,127.084507 C889.788726,126.577462 889.15493,125.521135 889.15493,123.915493 L889.15493,108.450704 L899.929577,108.450704 L899.929577,123.028169 C899.929577,123.366199 899.823942,123.809856 899.61268,124.359155 C899.40141,124.908454 899.084512,125.436617 898.661972,125.943662 C898.239431,126.450704 897.711272,126.894365 897.077469,127.274648 C896.443658,127.654931 895.788738,127.84507 895.112676,127.84507 L893.971831,127.84507 Z M938.84507,123.535211 C938.84507,124.042256 938.71831,124.57042 938.464789,125.119718 C938.211268,125.669017 937.873245,126.112674 937.450704,126.450704 C937.112673,126.873242 936.669015,127.211266 936.119722,127.464789 C935.570421,127.718311 935.042254,127.84507 934.535211,127.84507 L899.802817,127.84507 C900.225358,127.50704 900.56338,127.126763 900.816901,126.704225 C901.070423,126.281688 901.323944,125.859157 901.577465,125.43662 C901.746476,124.929575 901.873237,124.485917 901.957746,124.105634 C902.042256,123.72535 902.084507,123.366199 902.084507,123.028169 L902.084507,78.1549296 L938.84507,78.1549296 L938.84507,123.535211 Z M906.394366,84.6197183 L934.535211,84.6197183 L934.535211,82.4647887 L906.394366,82.4647887 L906.394366,84.6197183 Z M906.394366,113.774648 L934.535211,113.774648 L934.535211,111.619718 L906.394366,111.619718 L906.394366,113.774648 Z M906.394366,121.380282 L934.535211,121.380282 L934.535211,119.225352 L906.394366,119.225352 L906.394366,121.380282 Z M934.535211,90.0704225 L906.394366,90.0704225 L906.394366,106.295775 L934.535211,106.295775 L934.535211,90.0704225 Z M932.380282,104.140845 L908.549296,104.140845 L908.549296,92.2253521 L932.380282,92.2253521 L932.380282,104.140845 Z" id="content-114"></path>
            </g>
        </g>
    </g>
</svg>