<?xml version="1.0" encoding="UTF-8"?>
<svg width="54px" height="54px" viewBox="0 0 54 54" version="1.1" xmlns="http://www.w3.org/2000/svg" xmlns:xlink="http://www.w3.org/1999/xlink">
    <!-- Generator: Sketch 59.1 (86144) - https://sketch.com -->
    <title>content-434</title>
    <desc>Created with Sketch.</desc>
    <g id="Page-1" stroke="none" stroke-width="1" fill="none" fill-rule="evenodd" opacity="0.497377232">
        <g id="SEO-Copywriting" transform="translate(-606.000000, -3632.000000)" fill="#FFFFFF">
            <g id="Group" transform="translate(0.000000, 3553.000000)">
                <path d="M659.8125,130.001399 L644.284515,114.473414 C645.087687,113.580998 645.801614,112.599356 646.426306,111.528451 C647.050998,110.457547 647.586437,109.342043 648.032649,108.181903 C648.478861,107.021763 648.813512,105.794706 649.036618,104.500695 C649.259716,103.206694 649.371269,101.935018 649.371269,100.685634 C649.371269,97.6514189 648.791203,94.818035 647.631063,92.1853968 C646.470924,89.5527673 644.909215,87.2548311 642.945896,85.2915112 C640.982576,83.3281913 638.684639,81.7887919 636.052001,80.67327 C633.419372,79.5577567 630.630614,79 627.685634,79 C624.651419,79 621.818035,79.5577567 619.185397,80.67327 C616.552767,81.7887919 614.254829,83.3281913 612.291511,85.2915112 C610.328193,87.2548311 608.788796,89.5527673 607.673274,92.1853968 C606.557753,94.818035 606,97.6514189 606,100.685634 C606,103.630614 606.557753,106.419372 607.673274,109.052001 C608.788796,111.684639 610.328193,113.982576 612.291511,115.945896 C614.254829,117.909215 616.552767,119.470924 619.185397,120.631063 C621.818035,121.791203 624.651419,122.371269 627.685634,122.371269 C628.935018,122.371269 630.206694,122.259716 631.500695,122.036618 C632.794706,121.813512 634.021763,121.478861 635.181903,121.032649 C636.342043,120.586437 637.457547,120.050998 638.528451,119.426306 C639.599356,118.801614 640.580998,118.087687 641.473414,117.284515 L657.001399,132.8125 L659.8125,130.001399 Z M608.275653,100.685634 C608.275653,98.0083784 608.766475,95.4873447 609.748134,93.122439 C610.729793,90.7575247 612.113019,88.6826861 613.897854,86.8978545 C615.682686,85.1130229 617.757525,83.7297943 620.122439,82.7481343 C622.487345,81.7664744 625.008378,81.275653 627.685634,81.275653 C630.36289,81.275653 632.861615,81.7664744 635.181903,82.7481343 C637.502191,83.7297943 639.554721,85.1130229 641.339552,86.8978545 C643.124384,88.6826861 644.529921,90.7575247 645.556208,93.122439 C646.582485,95.4873447 647.095616,98.0083784 647.095616,100.685634 C647.095616,103.36289 646.582485,105.861615 645.556208,108.181903 C644.529921,110.502191 643.124384,112.554721 641.339552,114.339552 C639.554721,116.124384 637.502191,117.529921 635.181903,118.556208 C632.861615,119.582485 630.36289,120.095616 627.685634,120.095616 C625.008378,120.095616 622.487345,119.582485 620.122439,118.556208 C617.757525,117.529921 615.682686,116.124384 613.897854,114.339552 C612.113019,112.554721 610.729793,110.502191 609.748134,108.181903 C608.766475,105.861615 608.275653,103.36289 608.275653,100.685634 Z" id="content-434"></path>
            </g>
        </g>
    </g>
</svg>