<?xml version="1.0" encoding="UTF-8"?>
<svg width="212px" height="38px" viewBox="0 0 212 38" version="1.1" xmlns="http://www.w3.org/2000/svg" xmlns:xlink="http://www.w3.org/1999/xlink">
    <title>fp-logo-roi-calc</title>
    <g id="Page-1" stroke="none" stroke-width="1" fill="none" fill-rule="evenodd">
        <g id="ROI-Calculator---PPC---Profit-Margins---HK" transform="translate(-928.000000, -635.000000)" fill="#FFFFFF">
            <g id="Group-25" transform="translate(126.000000, 459.000000)">
                <g id="Group-24" transform="translate(40.000000, 146.000000)">
                    <g id="fp-logo-roi-calc" transform="translate(762.000000, 30.000000)">
                        <path d="M49.3205455,28.0681818 L49.3205455,11.1409091 L58.7756364,11.1409091 L58.7756364,12.3983636 L50.6505455,12.3983636 L50.6505455,19.3627273 L58.0501818,19.3627273 L58.0501818,20.6201818 L50.6505455,20.6201818 L50.6505455,28.0681818 L49.3205455,28.0681818 Z M68.1892727,28.0681818 L68.1892727,11.1409091 L69.5192727,11.1409091 L69.5192727,28.0681818 L68.1892727,28.0681818 Z M81.9798182,28.0681818 L80.6498182,28.0681818 L80.6498182,11.1409091 C81.5929091,11.1409091 84.2287273,11.0925455 84.7123636,11.0925455 C89.3310909,11.0925455 90.6369091,13.3898182 90.6369091,15.9772727 C90.6369091,18.3954545 88.8958182,20.2090909 86.6227273,20.6927273 L92.5472727,28.0681818 L90.9029091,28.0681818 L85.2685455,20.9587273 L81.9798182,20.9587273 L81.9798182,28.0681818 Z M84.6398182,12.35 C84.132,12.35 82.7778182,12.3741818 81.9798182,12.3983636 L81.9798182,19.7012727 L84.9058182,19.7012727 C87.058,19.7012727 89.2343636,18.2261818 89.2343636,15.9772727 C89.2343636,13.9218182 88.0736364,12.35 84.6398182,12.35 L84.6398182,12.35 Z M108.901091,23.8605455 C108.901091,19.0725455 100.147273,20.8136364 100.147273,15.1550909 C100.147273,12.7852727 101.960909,10.9232727 105.104545,10.9232727 C106.990727,10.9232727 108.707636,11.6003636 109.650727,12.6401818 L108.925273,13.6316364 C107.958,12.6643636 106.700545,12.1807273 105.152909,12.1807273 C102.928182,12.1807273 101.549818,13.3656364 101.549818,15.1550909 C101.549818,19.8947273 110.303636,17.9601818 110.303636,23.8363636 C110.303636,26.5447273 107.909636,28.2858182 104.911091,28.2858182 C102.904,28.2858182 100.558364,27.3669091 99.712,25.8434545 L100.51,24.9245455 C101.501455,26.2787273 103.363455,27.0283636 104.886909,27.0283636 C106.966545,27.0283636 108.901091,25.9401818 108.901091,23.8605455 L108.901091,23.8605455 Z M117.033091,12.3983636 L117.033091,11.1409091 L130.889273,11.1409091 L130.889273,12.3983636 L124.626182,12.3983636 L124.626182,28.0681818 L123.296182,28.0681818 L123.296182,12.3983636 L117.033091,12.3983636 Z M141.632909,28.0681818 L138.658545,28.0681818 L138.658545,11.1409091 C139.601636,11.1409091 142.285818,11.0925455 143.470727,11.0925455 C148.452182,11.0925455 150.024,13.7525455 150.024,16.5334545 C150.024,19.4110909 147.871818,22.0227273 143.833455,22.0227273 C143.325636,22.0227273 142.358364,22.0227273 141.632909,21.9501818 L141.632909,28.0681818 Z M143.760909,13.8734545 C143.156364,13.8734545 142.430909,13.8976364 141.632909,13.9218182 L141.632909,19.1209091 C142.334182,19.1934545 143.059636,19.2418182 143.736727,19.2418182 C145.502,19.2418182 146.880364,18.3954545 146.880364,16.5092727 C146.880364,14.744 145.792182,13.8734545 143.760909,13.8734545 Z M154.915636,28.0681818 L162.073455,11.0925455 L164.685091,11.0925455 L171.842909,28.0681818 L168.675091,28.0681818 L166.909818,23.7396364 L159.679455,23.7396364 L157.914182,28.0681818 L154.915636,28.0681818 Z M163.306727,14.9374545 L160.816,20.9587273 L165.773273,20.9587273 L163.306727,14.9374545 Z M186.020364,21.7325455 L186.020364,18.9516364 L192.888,18.9516364 L192.888,25.9643636 C191.388727,27.4636364 188.656182,28.3341818 186.552364,28.3341818 C181.014727,28.3341818 177.726,24.8761818 177.726,19.6045455 C177.726,14.744 180.990545,10.8749091 186.165455,10.8749091 C188.583636,10.8749091 190.228,11.5036364 191.606364,12.5918182 L190.348909,14.9616364 C189.502545,14.1636364 188.003273,13.6558182 186.528182,13.6558182 C183.263636,13.6558182 180.869636,15.8321818 180.869636,19.6045455 C180.869636,23.2076364 183.166909,25.5532727 186.600727,25.5532727 C187.906545,25.5532727 189.478364,24.9970909 190.107091,24.3925455 L190.107091,21.7325455 L186.020364,21.7325455 Z M201.745455,28.0681818 L201.745455,11.1409091 L211.539091,11.1409091 L211.539091,13.9218182 L204.719818,13.9218182 L204.719818,18.1294545 L210.813636,18.1294545 L210.813636,20.9103636 L204.719818,20.9103636 L204.719818,25.2872727 L211.780909,25.2872727 L211.780909,28.0681818 L201.745455,28.0681818 Z" id="Shape"></path>
                        <path d="M19.7742947,26.3625 C19.1786834,24.58125 18.4639498,22.5625 18.4639498,22.5625 C17.9874608,21.1375 16.9153605,19.95 15.3667712,19.475 L8.338558,17.1 L7.14733543,16.74375 C5.47962381,16.15 5.47962381,13.89375 7.02821316,13.3 C7.74294672,13.0625 8.21943573,12.825 8.21943573,12.825 L32.2821316,3.5625 C32.2821316,3.5625 32.5203762,3.44375 32.7586207,3.44375 C33.9498432,2.96875 35.0219437,4.15625 34.5454545,5.34375 L34.3072101,5.9375 C34.3072101,5.9375 30.2570533,16.625 27.8746081,22.5625 C26.9216301,25.4125 20.7272727,29.2125 19.7742947,26.3625 L19.7742947,26.3625 Z M18.4639498,30.04375 L20.6081505,36.3375 C20.9655172,37.40625 21.9184952,38 22.8714733,38 C23.8244515,38 24.7774295,37.525 25.1347962,36.45625 L37.8808778,3.325 C38,3.0875 38,2.73125 38,2.375 C38,1.06875 36.9278997,0 35.6175548,0 C35.3793104,0 35.0219437,0 34.783699,0.11875 L1.54858934,12.825 C0.476489028,13.18125 0,14.13125 0,15.08125 C0,16.03125 0.595611285,16.98125 1.6677116,17.3375 L7.98119121,19.475 C12.6269592,21.1375 16.9153605,25.4125 18.4639498,30.04375 L18.4639498,30.04375 Z" id="Shape"></path>
                    </g>
                </g>
            </g>
        </g>
    </g>
</svg>