<?xml version="1.0" encoding="UTF-8"?>
<svg width="268px" height="53px" viewBox="0 0 268 53" version="1.1" xmlns="http://www.w3.org/2000/svg" xmlns:xlink="http://www.w3.org/1999/xlink">
    <!-- Generator: Sketch 48.1 (47250) - http://www.bohemiancoding.com/sketch -->
    <title>Logo</title>
    <desc>Created with Sketch.</desc>
    <defs></defs>
    <g id="Home" stroke="none" stroke-width="1" fill="none" fill-rule="evenodd" transform="translate(-101.000000, -88.000000)">
        <g id="Hero" fill="#FFFFFF">
            <g id="Header" transform="translate(0.000000, 21.000000)">
                <g id="Logo" transform="translate(101.000000, 67.000000)">
                    <path d="M68.33,40 L68.33,19 L80.06,19 L80.06,20.56 L69.98,20.56 L69.98,29.2 L79.16,29.2 L79.16,30.76 L69.98,30.76 L69.98,40 L68.33,40 Z M91.7385712,40 L91.7385712,19 L93.3885712,19 L93.3885712,40 L91.7385712,40 Z M108.847142,40 L107.197142,40 L107.197142,19 C108.367142,19 111.637142,18.94 112.237142,18.94 C117.967142,18.94 119.587142,21.79 119.587142,25 C119.587142,28 117.427142,30.25 114.607142,30.85 L121.957142,40 L119.917142,40 L112.927142,31.18 L108.847142,31.18 L108.847142,40 Z M112.147142,20.5 C111.517142,20.5 109.837142,20.53 108.847142,20.56 L108.847142,29.62 L112.477142,29.62 C115.147142,29.62 117.847142,27.79 117.847142,25 C117.847142,22.45 116.407142,20.5 112.147142,20.5 Z M142.245714,34.78 C142.245714,28.84 131.385714,31 131.385714,23.98 C131.385714,21.04 133.635714,18.73 137.535714,18.73 C139.875714,18.73 142.005714,19.57 143.175714,20.86 L142.275714,22.09 C141.075714,20.89 139.515714,20.29 137.595714,20.29 C134.835714,20.29 133.125714,21.76 133.125714,23.98 C133.125714,29.86 143.985714,27.46 143.985714,34.75 C143.985714,38.11 141.015714,40.27 137.295714,40.27 C134.805714,40.27 131.895714,39.13 130.845714,37.24 L131.835714,36.1 C133.065714,37.78 135.375714,38.71 137.265714,38.71 C139.845714,38.71 142.245714,37.36 142.245714,34.78 Z M152.334285,20.56 L152.334285,19 L169.524285,19 L169.524285,20.56 L161.754285,20.56 L161.754285,40 L160.104285,40 L160.104285,20.56 L152.334285,20.56 Z M182.852856,40 L179.162856,40 L179.162856,19 C180.332856,19 183.662856,18.94 185.132856,18.94 C191.312856,18.94 193.262856,22.24 193.262856,25.69 C193.262856,29.26 190.592856,32.5 185.582856,32.5 C184.952856,32.5 183.752856,32.5 182.852856,32.41 L182.852856,40 Z M185.492856,22.39 C184.742856,22.39 183.842856,22.42 182.852856,22.45 L182.852856,28.9 C183.722856,28.99 184.622856,29.05 185.462856,29.05 C187.652856,29.05 189.362856,28 189.362856,25.66 C189.362856,23.47 188.012856,22.39 185.492856,22.39 Z M198.642652,40 L207.522652,18.94 L210.762652,18.94 L219.642652,40 L215.712652,40 L213.522652,34.63 L204.552652,34.63 L202.362652,40 L198.642652,40 Z M209.052652,23.71 L205.962652,31.18 L212.112652,31.18 L209.052652,23.71 Z M236.542447,32.14 L236.542447,28.69 L245.062447,28.69 L245.062447,37.39 C243.202447,39.25 239.812447,40.33 237.202447,40.33 C230.332447,40.33 226.252447,36.04 226.252447,29.5 C226.252447,23.47 230.302447,18.67 236.722447,18.67 C239.722447,18.67 241.762447,19.45 243.472447,20.8 L241.912447,23.74 C240.862447,22.75 239.002447,22.12 237.172447,22.12 C233.122447,22.12 230.152447,24.82 230.152447,29.5 C230.152447,33.97 233.002447,36.88 237.262447,36.88 C238.882447,36.88 240.832447,36.19 241.612447,35.44 L241.612447,32.14 L236.542447,32.14 Z M255.362243,40 L255.362243,19 L267.512243,19 L267.512243,22.45 L259.052243,22.45 L259.052243,27.67 L266.612243,27.67 L266.612243,31.12 L259.052243,31.12 L259.052243,36.55 L267.812243,36.55 L267.812243,40 L255.362243,40 Z" id="Copy"></path>
                    <g id="arrow" fill-rule="nonzero">
                        <path d="M27.5799373,36.76875 C26.7492163,34.284375 25.7523511,31.46875 25.7523511,31.46875 C25.0877743,29.48125 23.5924765,27.825 21.4326019,27.1625 L11.630094,23.85 L9.96865204,23.353125 C7.64263323,22.525 7.64263323,19.378125 9.80250784,18.55 C10.799373,18.21875 11.4639498,17.8875 11.4639498,17.8875 L45.0250784,4.96875 C45.0250784,4.96875 45.3573668,4.803125 45.6896552,4.803125 C47.3510972,4.140625 48.846395,5.796875 48.1818182,7.453125 L47.8495298,8.28125 C47.8495298,8.28125 42.200627,23.1875 38.8777429,31.46875 C37.5485893,35.44375 28.9090909,40.74375 27.5799373,36.76875 Z M25.7523511,41.903125 L28.7429467,50.68125 C29.2413793,52.171875 30.5705329,53 31.8996865,53 C33.2288401,53 34.5579937,52.3375 35.0564263,50.846875 L52.8338558,4.6375 C53,4.30625 53,3.809375 53,3.3125 C53,1.490625 51.5047022,0 49.677116,0 C49.3448276,0 48.846395,0 48.5141066,0.165625 L2.15987461,17.8875 C0.664576803,18.384375 0,19.709375 0,21.034375 C0,22.359375 0.830721003,23.684375 2.32601881,24.18125 L11.1316614,27.1625 C17.6112853,29.48125 23.5924765,35.44375 25.7523511,41.903125 Z" id="Shape"></path>
                    </g>
                </g>
            </g>
        </g>
    </g>
</svg>