<svg width="610" height="115" viewBox="0 0 610 115" fill="none" xmlns="http://www.w3.org/2000/svg">
<path fill-rule="evenodd" clip-rule="evenodd" d="M124.613 70.9008C124.613 70.8058 124.613 70.8058 124.708 70.7107C125.372 67.7645 125.846 64.8182 126.225 61.7769C128.501 61.9669 131.726 59.2107 134.286 55.5992C136.373 52.5578 138.175 48.6612 138.269 46.095C132.39 47.2355 128.691 50.657 126.984 54.0785C127.079 50.9422 127.079 47.8058 126.794 44.6694C126.889 44.8595 127.079 45.0496 127.269 45.2397C129.355 44.8595 131.536 41.6281 132.674 37.7314C133.622 34.595 134.286 30.6983 133.622 28.5124C128.786 31.0785 126.51 34.9752 125.846 38.3967C125.277 35.4504 124.518 32.5992 123.57 29.843C125.467 29.0826 126.984 25.6612 127.458 21.6694C127.838 18.438 127.743 14.6364 126.794 12.5455C122.432 16.062 120.915 20.5289 121.104 24.0455C119.966 21.7645 118.639 19.5785 117.121 17.4876C118.544 16.3471 118.923 13.0207 118.259 9.50413C117.785 6.65289 116.647 3.42149 115.319 1.90083C112.569 5.89256 112.474 9.8843 113.423 12.9256C112.19 11.595 110.862 10.2645 109.345 9.02893C109.25 7.31818 107.448 5.03719 104.887 3.2314C102.706 1.6157 99.8612 0.190083 97.9645 0C99.1974 6.93802 104.603 9.97934 107.827 9.69421C108.776 9.59917 108.871 9.59917 109.44 9.40909V9.31405C111.052 10.7397 112.474 12.2603 113.802 13.781C114.181 14.6364 114.655 15.3967 115.13 15.9669C112.854 14.6364 109.44 13.9711 105.646 15.3017C106.595 16.9174 109.155 18.6281 111.526 19.7686C114.466 21.1942 117.406 21.6694 118.733 20.719C118.733 20.624 118.733 20.5289 118.733 20.5289C119.682 22.0496 120.535 23.6653 121.389 25.281C121.578 26.5165 121.958 27.562 122.527 28.3223C122.811 28.7025 122.906 28.9876 123.096 29.1777C124.329 32.5041 125.277 36.0207 125.941 39.6322C125.846 41.1529 126.036 42.4835 126.415 43.5289C126.51 44.4793 126.605 45.5248 126.605 46.5702C125.846 43.3388 122.242 39.062 115.794 38.4917C116.078 40.4876 117.88 43.2438 119.777 45.4298C122.053 48.0909 124.898 49.8967 126.605 49.4215C126.605 49.3264 126.7 49.2314 126.7 49.1364C126.7 51.2273 126.7 53.2231 126.51 55.4091C125.941 56.9297 125.751 58.4504 125.846 59.6859C125.941 60.1612 125.941 60.4463 125.941 60.7314C125.846 61.1116 125.846 61.4917 125.751 61.9669C125.751 61.8719 125.751 61.8719 125.751 61.7769C125.846 58.2603 122.337 52.4628 114.655 51.4174C114.845 53.5083 116.647 56.5496 118.449 58.9256C120.725 61.7769 123.57 63.8678 125.467 63.5826C125.467 63.4876 125.467 63.4876 125.562 63.4876C125.182 65.8636 124.708 68.2397 124.139 70.7107C123.665 72.7066 123.001 74.7025 122.242 76.5083C122.622 72.8967 120.63 67.4793 114.466 64.438C113.992 66.5289 114.655 70.0454 115.699 72.9917C116.932 76.3182 118.828 79.1694 120.63 79.6446C118.733 83.1612 116.268 86.2025 113.423 89.0537C114.845 85.7273 114.371 79.7397 108.965 75.1777C108.017 77.0785 107.827 80.6901 108.112 83.7314C108.491 87.1529 109.629 90.0992 111.052 91.2397C107.922 93.9959 104.318 96.4669 100.525 98.6529C103.18 96.1818 105.172 90.3843 101.948 84.0165C100.335 85.4421 98.7232 88.5785 97.8697 91.5248C96.7317 95.0413 96.7317 98.6529 98.0594 99.9835C94.7402 101.789 91.2312 103.31 87.7224 104.736C90.3777 102.36 92.4641 97.4174 90.5674 91.4297C88.6707 92.4752 86.5843 95.4215 85.2566 98.0826C83.6445 101.219 82.9806 104.545 83.8341 106.161C78.9027 107.967 73.9713 109.393 69.4192 110.533C64.8671 109.393 59.9357 107.967 55.0043 106.161C55.8578 104.45 55.0991 101.124 53.5818 98.0826C52.1592 95.3264 50.0729 92.4752 48.271 91.4297C46.3743 97.5124 48.4607 102.36 51.1161 104.736C47.6072 103.31 44.0983 101.789 40.779 99.9835C42.1067 98.5578 42.0119 95.0413 40.9687 91.5248C40.0204 88.5785 38.503 85.4421 36.8908 84.0165C33.5716 90.3843 35.658 96.1818 38.3133 98.6529C34.5199 96.4669 31.011 93.9959 27.7866 91.2397C29.304 90.0992 30.442 87.0578 30.7265 83.7314C31.011 80.6901 30.8214 77.0785 29.873 75.1777C24.4674 79.7397 23.9932 85.7273 25.4158 89.0537C22.5707 86.2025 20.105 83.0661 18.2083 79.6446C20.0102 79.0744 22.0017 76.3182 23.1397 72.9917C24.1829 70.1405 24.8468 66.624 24.3726 64.438C18.2083 67.4793 16.2168 72.8967 16.5961 76.5083C15.8374 74.7025 15.1736 72.7066 14.6994 70.7107C14.1304 68.2397 13.6562 65.8636 13.2769 63.4876C13.2769 63.4876 13.2769 63.5826 13.3717 63.5826C15.1736 63.8678 18.1135 61.8719 20.3895 58.9256C22.2862 56.5496 23.9932 53.5083 24.1829 51.4174C16.5013 52.4628 12.9924 58.2603 13.0872 61.7769C13.0872 61.8719 13.0872 61.9669 13.0872 61.9669C12.9924 61.5868 12.9924 61.2066 12.8976 60.7314C12.8976 60.4463 12.9924 60.1612 12.9924 59.6859C13.1821 58.4504 12.8976 56.9297 12.3285 55.4091C12.2337 53.3182 12.1389 51.2273 12.1389 49.1364C12.1389 49.2314 12.2337 49.3264 12.2337 49.4215C13.9407 49.8017 16.7858 47.9959 19.0618 45.4298C20.9585 43.2438 22.7604 40.4876 23.0449 38.4917C16.5961 39.062 12.9924 43.2438 12.2337 46.5702C12.3285 45.5248 12.3285 44.5744 12.4234 43.5289C12.8976 42.4835 13.0872 41.1529 12.8976 39.6322C13.4666 36.0207 14.4149 32.5041 15.7426 29.1777C15.9323 28.9876 16.0271 28.7025 16.3116 28.3223C16.8806 27.562 17.26 26.4215 17.4496 25.281C18.2083 23.6653 19.0618 22.0496 20.105 20.5289C20.105 20.624 20.105 20.624 20.105 20.719C21.4327 21.6694 24.4674 21.1942 27.3125 19.7686C29.6833 18.6281 32.1491 16.9174 33.1922 15.3017C29.3988 13.9711 25.9848 14.6364 23.7087 15.9669C24.1829 15.3967 24.6571 14.6364 25.0364 13.781C26.3641 12.2603 27.8815 10.7397 29.3988 9.31405V9.40909C29.873 9.69421 30.0627 9.69421 31.011 9.69421C34.2354 9.97934 39.641 6.93802 40.8739 0C38.9772 0.0950413 36.1321 1.6157 33.9509 3.2314C31.3904 5.03719 29.4937 7.41322 29.4937 9.02893C28.0712 10.2645 26.6486 11.595 25.4158 12.9256C26.3641 9.97934 26.1745 5.89256 23.5191 1.90083C22.0966 3.42149 21.0534 6.65289 20.5792 9.50413C19.9153 13.0207 20.2947 16.3471 21.7172 17.4876C20.1999 19.5785 18.8722 21.7645 17.7341 24.0455C17.9238 20.5289 16.5013 16.062 12.044 12.5455C11.0957 14.6364 11.0009 18.438 11.3802 21.6694C11.8544 25.6612 13.3717 29.0826 15.2684 29.843C14.2252 32.5992 13.4666 35.4504 12.9924 38.3967C12.3285 34.9752 10.0525 31.0785 5.21592 28.5124C4.64691 30.7934 5.21592 34.595 6.16427 37.7314C7.39713 41.6281 9.57833 44.8595 11.5699 45.2397C11.7595 45.0496 11.9492 44.8595 12.044 44.6694C11.7595 47.8058 11.7595 50.9422 11.8544 54.0785C10.0525 50.657 6.44878 47.2355 0.56901 46.095C0.663845 48.6612 2.46571 52.5578 4.55208 55.5992C7.01779 59.3058 10.2422 61.9669 12.6131 61.7769C12.9924 64.7231 13.5614 67.7645 14.1304 70.7107C14.1304 70.8058 14.1304 70.8058 14.2252 70.9008C11.7595 67.5744 6.92295 64.5331 0 65.1983C0.75868 67.6694 3.60373 70.8058 6.44878 73.1818C9.95767 76.0331 13.8459 77.7438 16.0271 76.8884C16.0271 76.7934 16.0271 76.6983 16.0271 76.6983C17.1651 79.3595 18.5877 81.8306 20.3895 84.2066C17.0703 82.1157 11.9492 81.0702 6.06944 83.3512C7.49196 85.5372 11.1905 87.7231 14.5098 89.1488C18.6825 90.9545 22.9501 91.4297 24.7519 90.0041C24.7519 89.624 24.6571 89.3388 24.5623 89.0537C26.9331 91.5248 29.6833 93.8058 32.6232 95.8967C28.6402 95.0413 23.1397 95.9917 18.398 100.554C20.5792 101.979 24.8468 102.645 28.4505 102.645C32.9077 102.645 36.8908 101.504 38.1237 99.6033C40.6842 101.124 43.3396 102.55 46.0898 103.88C42.0119 103.785 36.796 105.591 32.9077 110.913C35.2786 111.959 39.5462 111.864 43.2448 111.198C47.6072 110.438 51.3057 108.632 52.2541 106.541C56.6165 108.347 61.2634 109.963 66.0051 111.293C62.2118 112.149 58.7029 112.909 55.763 113.384L56.5216 115C60.8841 114.24 65.2465 113.289 69.514 112.244C73.7816 113.384 78.144 114.335 82.5064 115L83.2651 113.384C80.3252 112.814 76.8163 112.149 73.0229 111.293C77.7647 109.963 82.3168 108.347 86.774 106.541C87.7224 108.632 91.4209 110.438 95.7833 111.198C99.3871 111.769 103.749 111.864 106.12 110.913C102.232 105.591 96.9213 103.785 92.8434 103.88C95.5937 102.55 98.3439 101.124 100.81 99.6033C102.042 101.504 106.12 102.645 110.483 102.645C114.181 102.645 118.354 101.979 120.535 100.554C115.794 95.8967 110.293 95.0413 106.31 95.8967C109.25 93.7107 112 91.4297 114.371 89.0537C114.276 89.3388 114.181 89.624 114.181 90.0041C115.983 91.4297 120.251 90.9545 124.424 89.1488C127.838 87.7231 131.441 85.4421 132.864 83.3512C126.984 81.0702 121.863 82.1157 118.544 84.2066C120.346 81.8306 121.768 79.2645 122.906 76.6983C122.906 76.7934 122.906 76.8884 122.906 76.8884C124.993 77.7438 128.976 76.1281 132.484 73.1818C135.33 70.8058 138.175 67.6694 138.933 65.1983C131.915 64.5331 127.079 67.5744 124.613 70.9008Z" fill="white"/>
<path fill-rule="evenodd" clip-rule="evenodd" d="M117.224 31.9127C119.838 33.9548 122.733 35.1218 124.227 34.3438C124.32 33.7603 124.227 33.6631 124.04 32.6906C123.293 29.4815 118.998 25.1054 112.182 26.0779C112.929 27.9256 115.077 30.2595 117.224 31.9127Z" fill="white"/>
<path fill-rule="evenodd" clip-rule="evenodd" d="M13.1692 32.7152C12.981 33.5968 12.8869 33.7927 12.981 34.3804C14.4865 35.0661 17.4035 33.9886 20.0382 31.9315C22.2024 30.2663 24.3666 27.9154 25.0252 26.0543C18.3445 25.1727 13.922 29.5806 13.1692 32.7152Z" fill="white"/>
<path fill-rule="evenodd" clip-rule="evenodd" d="M171.342 32.7152C171.154 33.5968 171.06 33.7927 171.154 34.3804C172.659 35.0661 175.576 33.9886 178.211 31.9315C180.375 30.2663 182.539 27.9154 183.198 26.0543C176.517 25.1727 172.095 29.5806 171.342 32.7152Z" fill="white"/>
<path fill-rule="evenodd" clip-rule="evenodd" d="M281.923 70.9008C281.923 70.8058 281.923 70.8058 282.018 70.7107C282.682 67.7645 283.156 64.8182 283.535 61.7769C285.811 61.9669 289.036 59.2107 291.596 55.5992C293.683 52.5578 295.484 48.6612 295.579 46.095C289.7 47.2355 286.001 50.657 284.294 54.0785C284.389 50.9422 284.389 47.8058 284.104 44.6694C284.199 44.8595 284.389 45.0496 284.578 45.2397C286.665 44.8595 288.846 41.6281 289.984 37.7314C290.932 34.595 291.596 30.6983 290.932 28.5124C286.096 31.0785 283.82 34.9752 283.156 38.3967C282.587 35.4504 281.828 32.5992 280.88 29.843C282.777 29.0826 284.294 25.6612 284.768 21.6694C285.147 18.438 285.053 14.6364 284.104 12.5455C279.742 16.062 278.224 20.5289 278.414 24.0455C277.276 21.7645 275.948 19.5785 274.431 17.4876C275.854 16.3471 276.233 13.0207 275.569 9.50413C275.095 6.65289 273.957 3.42149 272.629 1.90083C269.879 5.89256 269.784 9.8843 270.733 12.9256C269.5 11.595 268.172 10.2645 266.655 9.02893C266.56 7.31818 264.758 5.03719 262.197 3.2314C260.016 1.6157 257.171 0.190083 255.274 0C256.507 6.93802 261.913 9.97934 265.137 9.69421C266.086 9.59917 266.18 9.59917 266.749 9.40909V9.31405C268.362 10.7397 269.784 12.2603 271.112 13.781C271.491 14.6364 271.965 15.3967 272.44 15.9669C270.164 14.6364 266.749 13.9711 262.956 15.3017C263.904 16.9174 266.465 18.6281 268.836 19.7686C271.776 21.1942 274.716 21.6694 276.043 20.719C276.043 20.624 276.043 20.5289 276.043 20.5289C276.992 22.0496 277.845 23.6653 278.699 25.281C278.888 26.5165 279.268 27.562 279.837 28.3223C280.121 28.7025 280.216 28.9876 280.406 29.1777C281.639 32.5041 282.587 36.0207 283.251 39.6322C283.156 41.1529 283.346 42.4835 283.725 43.5289C283.82 44.4793 283.915 45.5248 283.915 46.5702C283.156 43.3388 279.552 39.062 273.103 38.4917C273.388 40.4876 275.19 43.2438 277.086 45.4298C279.363 48.0909 282.208 49.8967 283.915 49.4215C283.915 49.3264 284.009 49.2314 284.009 49.1364C284.009 51.2273 284.009 53.2231 283.82 55.4091C283.251 56.9297 283.061 58.4504 283.156 59.6859C283.251 60.1612 283.251 60.4463 283.251 60.7314C283.156 61.1116 283.156 61.4917 283.061 61.9669C283.061 61.8719 283.061 61.8719 283.061 61.7769C283.156 58.2603 279.647 52.4628 271.965 51.4174C272.155 53.5083 273.957 56.5496 275.759 58.9256C278.035 61.7769 280.88 63.8678 282.777 63.5826C282.777 63.4876 282.777 63.4876 282.871 63.4876C282.492 65.8636 282.018 68.2397 281.449 70.7107C280.975 72.7066 280.311 74.7025 279.552 76.5083C279.932 72.8967 277.94 67.4793 271.776 64.438C271.302 66.5289 271.965 70.0454 273.009 72.9917C274.241 76.3182 276.138 79.1694 277.94 79.6446C276.043 83.1612 273.578 86.2025 270.733 89.0537C272.155 85.7273 271.681 79.7397 266.275 75.1777C265.327 77.0785 265.137 80.6901 265.422 83.7314C265.801 87.1529 266.939 90.0992 268.362 91.2397C265.232 93.9959 261.628 96.4669 257.835 98.6529C260.49 96.1818 262.482 90.3843 259.258 84.0165C257.645 85.4421 256.033 88.5785 255.18 91.5248C254.042 95.0413 254.042 98.6529 255.369 99.9835C252.05 101.789 248.541 103.31 245.032 104.736C247.688 102.36 249.774 97.4174 247.877 91.4297C245.981 92.4752 243.894 95.4215 242.567 98.0826C240.954 101.219 240.291 104.545 241.144 106.161C236.213 107.967 231.281 109.393 226.729 110.533C222.177 109.393 217.246 107.967 212.314 106.161C213.168 104.45 212.409 101.124 210.892 98.0826C209.469 95.3264 207.383 92.4752 205.581 91.4297C203.684 97.5124 205.771 102.36 208.426 104.736C204.917 103.31 201.408 101.789 198.089 99.9835C199.417 98.5578 199.322 95.0413 198.279 91.5248C197.33 88.5785 195.813 85.4421 194.201 84.0165C190.882 90.3843 192.968 96.1818 195.623 98.6529C191.83 96.4669 188.321 93.9959 185.097 91.2397C186.614 90.0992 187.752 87.0578 188.036 83.7314C188.321 80.6901 188.131 77.0785 187.183 75.1777C181.777 79.7397 181.303 85.7273 182.726 89.0537C179.881 86.2025 177.415 83.0661 175.518 79.6446C177.32 79.0744 179.312 76.3182 180.45 72.9917C181.493 70.1405 182.157 66.624 181.683 64.438C175.518 67.4793 173.527 72.8967 173.906 76.5083C173.147 74.7025 172.484 72.7066 172.009 70.7107C171.44 68.2397 170.966 65.8636 170.587 63.4876C170.587 63.4876 170.587 63.5826 170.682 63.5826C172.484 63.8678 175.423 61.8719 177.699 58.9256C179.596 56.5496 181.303 53.5083 181.493 51.4174C173.811 52.4628 170.302 58.2603 170.397 61.7769C170.397 61.8719 170.397 61.9669 170.397 61.9669C170.302 61.5868 170.302 61.2066 170.207 60.7314C170.207 60.4463 170.302 60.1612 170.302 59.6859C170.492 58.4504 170.207 56.9297 169.638 55.4091C169.544 53.3182 169.449 51.2273 169.449 49.1364C169.449 49.2314 169.544 49.3264 169.544 49.4215C171.251 49.8017 174.096 47.9959 176.372 45.4298C178.268 43.2438 180.07 40.4876 180.355 38.4917C173.906 39.062 170.302 43.2438 169.544 46.5702C169.638 45.5248 169.638 44.5744 169.733 43.5289C170.207 42.4835 170.397 41.1529 170.207 39.6322C170.776 36.0207 171.725 32.5041 173.053 29.1777C173.242 28.9876 173.337 28.7025 173.622 28.3223C174.191 27.562 174.57 26.4215 174.76 25.281C175.518 23.6653 176.372 22.0496 177.415 20.5289C177.415 20.624 177.415 20.624 177.415 20.719C178.743 21.6694 181.777 21.1942 184.622 19.7686C186.993 18.6281 189.459 16.9174 190.502 15.3017C186.709 13.9711 183.295 14.6364 181.019 15.9669C181.493 15.3967 181.967 14.6364 182.346 13.781C183.674 12.2603 185.191 10.7397 186.709 9.31405V9.40909C187.183 9.69421 187.373 9.69421 188.321 9.69421C191.545 9.97934 196.951 6.93802 198.184 0C196.287 0.0950413 193.442 1.6157 191.261 3.2314C188.7 5.03719 186.804 7.41322 186.804 9.02893C185.381 10.2645 183.959 11.595 182.726 12.9256C183.674 9.97934 183.484 5.89256 180.829 1.90083C179.406 3.42149 178.363 6.65289 177.889 9.50413C177.225 13.0207 177.605 16.3471 179.027 17.4876C177.51 19.5785 176.182 21.7645 175.044 24.0455C175.234 20.5289 173.811 16.062 169.354 12.5455C168.406 14.6364 168.311 18.438 168.69 21.6694C169.164 25.6612 170.682 29.0826 172.578 29.843C171.535 32.5992 170.776 35.4504 170.302 38.3967C169.638 34.9752 167.362 31.0785 162.526 28.5124C161.957 30.7934 162.526 34.595 163.474 37.7314C164.707 41.6281 166.888 44.8595 168.88 45.2397C169.069 45.0496 169.259 44.8595 169.354 44.6694C169.069 47.8058 169.069 50.9422 169.164 54.0785C167.362 50.657 163.759 47.2355 157.879 46.095C157.974 48.6612 159.776 52.5578 161.862 55.5992C164.328 59.3058 167.552 61.9669 169.923 61.7769C170.302 64.7231 170.871 67.7645 171.44 70.7107C171.44 70.8058 171.44 70.8058 171.535 70.9008C169.069 67.5744 164.233 64.5331 157.31 65.1983C158.069 67.6694 160.914 70.8058 163.759 73.1818C167.268 76.0331 171.156 77.7438 173.337 76.8884C173.337 76.7934 173.337 76.6983 173.337 76.6983C174.475 79.3595 175.898 81.8306 177.699 84.2066C174.38 82.1157 169.259 81.0702 163.379 83.3512C164.802 85.5372 168.5 87.7231 171.82 89.1488C175.992 90.9545 180.26 91.4297 182.062 90.0041C182.062 89.624 181.967 89.3388 181.872 89.0537C184.243 91.5248 186.993 93.8058 189.933 95.8967C185.95 95.0413 180.45 95.9917 175.708 100.554C177.889 101.979 182.157 102.645 185.76 102.645C190.218 102.645 194.201 101.504 195.434 99.6033C197.994 101.124 200.65 102.55 203.4 103.88C199.322 103.785 194.106 105.591 190.218 110.913C192.589 111.959 196.856 111.864 200.555 111.198C204.917 110.438 208.616 108.632 209.564 106.541C213.926 108.347 218.573 109.963 223.315 111.293C219.522 112.149 216.013 112.909 213.073 113.384L213.832 115C218.194 114.24 222.556 113.289 226.824 112.244C231.092 113.384 235.454 114.335 239.816 115L240.575 113.384C237.635 112.814 234.126 112.149 230.333 111.293C235.075 109.963 239.627 108.347 244.084 106.541C245.032 108.632 248.731 110.438 253.093 111.198C256.697 111.769 261.059 111.864 263.43 110.913C259.542 105.591 254.231 103.785 250.153 103.88C252.904 102.55 255.654 101.124 258.119 99.6033C259.352 101.504 263.43 102.645 267.793 102.645C271.491 102.645 275.664 101.979 277.845 100.554C273.103 95.8967 267.603 95.0413 263.62 95.8967C266.56 93.7107 269.31 91.4297 271.681 89.0537C271.586 89.3388 271.491 89.624 271.491 90.0041C273.293 91.4297 277.561 90.9545 281.733 89.1488C285.147 87.7231 288.751 85.4421 290.174 83.3512C284.294 81.0702 279.173 82.1157 275.854 84.2066C277.655 81.8306 279.078 79.2645 280.216 76.6983C280.216 76.7934 280.216 76.8884 280.216 76.8884C282.302 77.7438 286.285 76.1281 289.794 73.1818C292.639 70.8058 295.484 67.6694 296.243 65.1983C289.225 64.5331 284.389 67.5744 281.923 70.9008Z" fill="white"/>
<path fill-rule="evenodd" clip-rule="evenodd" d="M273.671 31.9127C276.285 33.9548 279.18 35.1218 280.674 34.3438C280.767 33.7603 280.674 33.6631 280.487 32.6906C279.74 29.4815 275.445 25.1054 268.629 26.0779C269.376 27.9256 271.524 30.2595 273.671 31.9127Z" fill="white"/>
<path fill-rule="evenodd" clip-rule="evenodd" d="M485.962 32.7205C485.773 33.5996 485.679 33.7949 485.773 34.381C487.279 35.0647 490.196 33.9903 492.831 31.9391C494.995 30.2786 497.159 27.9344 497.818 26.0785C491.137 25.1018 486.714 29.4972 485.962 32.7205Z" fill="white"/>
<path fill-rule="evenodd" clip-rule="evenodd" d="M595.964 70.8058C595.964 70.7107 595.964 70.7107 596.059 70.6157C596.723 67.6694 597.197 64.7231 597.577 61.6818C599.853 61.8719 603.077 59.1157 605.637 55.5041C607.724 52.4628 609.526 48.5661 609.621 46C603.741 47.1405 600.042 50.562 598.335 53.9835C598.43 50.8471 598.43 47.7107 598.146 44.5744C598.24 44.7645 598.43 44.9545 598.62 45.1446C600.706 44.7645 602.887 41.5331 604.025 37.6364C604.974 34.5 605.637 30.6033 604.974 28.4174C600.137 30.9835 597.861 34.8802 597.197 38.3017C596.628 35.3554 595.869 32.5041 594.921 29.7479C596.818 28.9876 598.335 25.5661 598.809 21.5744C599.189 18.343 599.094 14.5413 598.146 12.4504C593.783 15.9669 592.266 20.4339 592.455 23.9504C591.317 21.6694 589.99 19.4835 588.472 17.3926C589.895 16.2521 590.274 12.9256 589.61 9.40909C589.136 6.55785 587.998 3.32645 586.671 1.80579C583.92 5.79752 583.825 9.78926 584.774 12.8306C583.541 11.5 582.213 10.1694 580.696 8.93388C580.601 7.22314 578.799 4.94215 576.239 3.13636C573.773 1.52066 570.928 0.0950413 569.031 0C570.264 6.93802 575.67 9.97934 578.894 9.69421C579.842 9.59917 579.937 9.59917 580.506 9.40909V9.31405C582.118 10.7397 583.541 12.2603 584.869 13.781C585.248 14.6364 585.722 15.3967 586.196 15.9669C583.92 14.6364 580.506 13.9711 576.713 15.3017C577.661 16.9174 580.222 18.6281 582.593 19.7686C585.532 21.1942 588.472 21.6694 589.8 20.719C589.8 20.624 589.8 20.5289 589.8 20.5289C590.748 22.0496 591.602 23.6653 592.455 25.281C592.645 26.5165 593.024 27.562 593.593 28.3223C593.878 28.7025 593.973 28.9876 594.162 29.1777C595.395 32.5041 596.344 36.0207 597.008 39.6322C596.913 41.1529 597.102 42.4835 597.482 43.5289C597.577 44.4793 597.671 45.5248 597.671 46.5702C596.913 43.3388 593.309 39.062 586.86 38.4917C587.145 40.4876 588.947 43.2438 590.843 45.4298C593.119 48.0909 595.964 49.8967 597.671 49.4215C597.671 49.3264 597.766 49.2314 597.766 49.1364C597.766 51.2273 597.766 53.2231 597.577 55.4091C597.008 56.9297 596.818 58.4504 596.913 59.6859C597.008 60.1612 597.008 60.4463 597.008 60.7314C596.913 61.1116 596.913 61.4917 596.818 61.9669C596.818 61.8719 596.818 61.8719 596.818 61.7769C596.913 58.2603 593.404 52.4628 585.722 51.4174C585.912 53.5083 587.714 56.5496 589.516 58.9256C591.792 61.7769 594.637 63.8678 596.533 63.5826C596.533 63.4876 596.533 63.4876 596.628 63.4876C596.249 65.8636 595.775 68.2397 595.206 70.7107C594.731 72.7066 594.068 74.7025 593.309 76.5083C593.688 72.8967 591.697 67.4793 585.532 64.438C585.058 66.5289 585.722 70.0454 586.765 72.9917C587.998 76.3182 589.895 79.1694 591.697 79.6446C589.8 83.1612 587.334 86.2025 584.489 89.0537C585.912 85.7273 585.438 79.7397 580.032 75.1777C579.084 77.0785 578.894 80.6901 579.179 83.7314C579.558 87.1529 580.696 90.0992 582.118 91.2397C578.989 93.9959 575.385 96.4669 571.592 98.6529C574.247 96.1818 576.239 90.3843 573.014 84.0165C571.402 85.4421 569.79 88.5785 568.936 91.5248C567.798 95.0413 567.798 98.6529 569.126 99.9835C565.807 101.789 562.298 103.31 558.789 104.736C561.444 102.36 563.531 97.4174 561.634 91.4297C559.737 92.4752 557.651 95.4215 556.323 98.0826C554.711 101.219 554.047 104.545 554.901 106.161C549.969 107.967 545.038 109.393 540.486 110.533C535.934 109.393 531.002 107.967 526.071 106.161C526.924 104.45 526.166 101.124 524.648 98.0826C523.226 95.3264 521.14 92.4752 519.338 91.4297C517.441 97.5124 519.527 102.36 522.183 104.736C518.674 103.31 515.165 101.789 511.846 99.9835C513.173 98.5578 513.079 95.0413 512.035 91.5248C511.087 88.5785 509.57 85.4421 507.957 84.0165C504.638 90.3843 506.725 96.1818 509.38 98.6529C505.587 96.4669 502.078 93.9959 498.853 91.2397C500.371 90.0992 501.509 87.0578 501.793 83.7314C502.078 80.6901 501.888 77.0785 500.94 75.1777C495.534 79.7397 495.06 85.7273 496.482 89.0537C493.637 86.2025 491.172 83.0661 489.275 79.6446C491.077 79.0744 493.068 76.3182 494.206 72.9917C495.25 70.1405 495.913 66.624 495.439 64.438C489.275 67.4793 487.283 72.8967 487.663 76.5083C486.904 74.7025 486.24 72.7066 485.766 70.7107C485.197 68.2397 484.723 65.8636 484.344 63.4876C484.344 63.4876 484.344 63.5826 484.438 63.5826C486.24 63.8678 489.18 61.8719 491.456 58.9256C493.353 56.5496 495.06 53.5083 495.25 51.4174C487.568 52.4628 484.059 58.2603 484.154 61.7769C484.154 61.8719 484.154 61.9669 484.154 61.9669C484.059 61.5868 484.059 61.2066 483.964 60.7314C483.964 60.4463 484.059 60.1612 484.059 59.6859C484.249 58.4504 483.964 56.9297 483.395 55.4091C483.3 53.3182 483.206 51.2273 483.206 49.1364C483.206 49.2314 483.3 49.3264 483.3 49.4215C485.007 49.8017 487.852 47.9959 490.128 45.4298C492.025 43.2438 493.827 40.4876 494.112 38.4917C487.663 39.062 484.059 43.2438 483.3 46.5702C483.395 45.5248 483.395 44.5744 483.49 43.5289C483.964 42.4835 484.154 41.1529 483.964 39.6322C484.533 36.0207 485.482 32.5041 486.809 29.1777C486.999 28.9876 487.094 28.7025 487.378 28.3223C487.947 27.562 488.327 26.4215 488.516 25.281C489.275 23.6653 490.128 22.0496 491.172 20.5289C491.172 20.624 491.172 20.624 491.172 20.719C492.499 21.6694 495.534 21.1942 498.379 19.7686C500.75 18.6281 503.216 16.9174 504.259 15.3017C500.465 13.9711 497.051 14.6364 494.775 15.9669C495.25 15.3967 495.724 14.6364 496.103 13.781C497.431 12.2603 498.948 10.7397 500.465 9.31405V9.40909C500.94 9.69421 501.129 9.69421 502.078 9.69421C505.302 9.97934 510.708 6.93802 511.941 0C510.044 0.0950413 507.199 1.6157 505.018 3.2314C502.457 5.03719 500.56 7.41322 500.56 9.02893C499.138 10.2645 497.715 11.595 496.482 12.9256C497.431 9.97934 497.241 5.89256 494.586 1.90083C493.163 3.42149 492.12 6.65289 491.646 9.50413C490.982 13.0207 491.361 16.3471 492.784 17.4876C491.267 19.5785 489.939 21.7645 488.801 24.0455C488.99 20.5289 487.568 16.062 483.111 12.5455C482.162 14.6364 482.068 18.438 482.447 21.6694C482.921 25.6612 484.438 29.0826 486.335 29.843C485.292 32.5992 484.533 35.4504 484.059 38.3967C483.395 34.9752 481.119 31.0785 476.283 28.5124C475.714 30.7934 476.283 34.595 477.231 37.7314C478.464 41.6281 480.645 44.8595 482.637 45.2397C482.826 45.0496 483.016 44.8595 483.111 44.6694C482.826 47.8058 482.826 50.9422 482.921 54.0785C481.119 50.657 477.515 47.2355 471.636 46.095C471.73 48.6612 473.532 52.5578 475.619 55.5992C478.084 59.3058 481.309 61.9669 483.68 61.7769C484.059 64.7231 484.628 67.7645 485.197 70.7107C485.197 70.8058 485.197 70.8058 485.292 70.9008C482.826 67.5744 477.99 64.5331 471.067 65.1983C471.825 67.6694 474.67 70.8058 477.515 73.1818C481.024 76.0331 484.913 77.7438 487.094 76.8884C487.094 76.7934 487.094 76.6983 487.094 76.6983C488.232 79.3595 489.654 81.8306 491.456 84.2066C488.137 82.1157 483.016 81.0702 477.136 83.3512C478.559 85.5372 482.257 87.7231 485.576 89.1488C489.749 90.9545 494.017 91.4297 495.819 90.0041C495.819 89.624 495.724 89.3388 495.629 89.0537C498 91.5248 500.75 93.8058 503.69 95.8967C499.707 95.0413 494.206 95.9917 489.465 100.554C491.646 101.979 495.913 102.645 499.517 102.645C503.974 102.645 507.957 101.504 509.19 99.6033C511.751 101.124 514.406 102.55 517.156 103.88C513.079 103.785 507.863 105.591 503.974 110.913C506.345 111.959 510.613 111.864 514.311 111.198C518.674 110.438 522.372 108.632 523.321 106.541C527.683 108.347 532.33 109.963 537.072 111.293C533.278 112.149 529.77 112.909 526.83 113.384L527.588 115C531.951 114.24 536.313 113.289 540.581 112.244C544.848 113.384 549.211 114.335 553.573 115L554.332 113.384C551.392 112.814 547.883 112.149 544.09 111.293C548.831 109.963 553.383 108.347 557.841 106.541C558.789 108.632 562.488 110.438 566.85 111.198C570.454 111.769 574.816 111.864 577.187 110.913C573.299 105.591 567.988 103.785 563.91 103.88C566.66 102.55 569.411 101.124 571.876 99.6033C573.109 101.504 577.187 102.645 581.549 102.645C585.248 102.645 589.421 101.979 591.602 100.554C586.86 95.8967 581.36 95.0413 577.377 95.8967C580.317 93.7107 583.067 91.4297 585.438 89.0537C585.343 89.3388 585.248 89.624 585.248 90.0041C587.05 91.4297 591.317 90.9545 595.49 89.1488C598.904 87.7231 602.508 85.4421 603.93 83.3512C598.051 81.0702 592.93 82.1157 589.61 84.2066C591.412 81.8306 592.835 79.2645 593.973 76.6983C593.973 76.7934 593.973 76.8884 593.973 76.8884C596.059 77.7438 600.042 76.1281 603.551 73.1818C606.396 70.8058 609.241 67.6694 610 65.1983C603.267 64.5331 598.43 67.4793 595.964 70.8058Z" fill="white"/>
<path fill-rule="evenodd" clip-rule="evenodd" d="M588.291 31.9127C590.905 33.9548 593.799 35.1218 595.293 34.3438C595.387 33.7603 595.293 33.6631 595.107 32.6906C594.36 29.4815 590.065 25.1054 583.249 26.0779C583.902 27.9256 586.143 30.2595 588.291 31.9127Z" fill="white"/>
<path fill-rule="evenodd" clip-rule="evenodd" d="M329.515 32.7205C329.327 33.5996 329.233 33.7949 329.327 34.381C330.832 35.0647 333.749 33.9903 336.384 31.9391C338.548 30.2786 340.712 27.9344 341.371 26.0785C334.596 25.1018 330.174 29.4972 329.515 32.7205Z" fill="white"/>
<path fill-rule="evenodd" clip-rule="evenodd" d="M439.233 70.9008C439.233 70.8058 439.233 70.8058 439.328 70.7107C439.992 67.7645 440.466 64.8182 440.845 61.7769C443.121 61.9669 446.346 59.2107 448.906 55.5992C450.992 52.5578 452.794 48.6612 452.889 46.095C447.009 47.2355 443.311 50.657 441.604 54.0785C441.699 50.9422 441.699 47.8058 441.414 44.6694C441.509 44.8595 441.699 45.0496 441.888 45.2397C443.975 44.8595 446.156 41.6281 447.294 37.7314C448.242 34.595 448.906 30.6983 448.242 28.5124C443.406 31.0785 441.13 34.9752 440.466 38.3967C439.897 35.4504 439.138 32.5992 438.19 29.843C440.086 29.0826 441.604 25.6612 442.078 21.6694C442.457 18.438 442.362 14.6364 441.414 12.5455C437.052 16.062 435.534 20.5289 435.724 24.0455C434.586 21.7645 433.258 19.5785 431.741 17.4876C433.163 16.3471 433.543 13.0207 432.879 9.50413C432.405 6.65289 431.267 3.42149 429.939 1.90083C427.189 5.89256 427.094 9.8843 428.042 12.9256C426.81 11.595 425.482 10.2645 423.964 9.02893C423.87 7.31818 422.068 5.03719 419.507 3.2314C417.326 1.6157 414.481 0.190083 412.584 0C413.817 6.93802 419.223 9.97934 422.447 9.69421C423.395 9.59917 423.49 9.59917 424.059 9.40909V9.31405C425.672 10.7397 427.094 12.2603 428.422 13.781C428.801 14.6364 429.275 15.3967 429.749 15.9669C427.473 14.6364 424.059 13.9711 420.266 15.3017C421.214 16.9174 423.775 18.6281 426.146 19.7686C429.086 21.1942 432.025 21.6694 433.353 20.719C433.353 20.624 433.353 20.5289 433.353 20.5289C434.302 22.0496 435.155 23.6653 436.009 25.281C436.198 26.5165 436.578 27.562 437.147 28.3223C437.431 28.7025 437.526 28.9876 437.716 29.1777C438.948 32.5041 439.897 36.0207 440.561 39.6322C440.466 41.1529 440.655 42.4835 441.035 43.5289C441.13 44.4793 441.224 45.5248 441.224 46.5702C440.466 43.3388 436.862 39.062 430.413 38.4917C430.698 40.4876 432.5 43.2438 434.396 45.4298C436.672 48.0909 439.517 49.8967 441.224 49.4215C441.224 49.3264 441.319 49.2314 441.319 49.1364C441.319 51.2273 441.319 53.2231 441.13 55.4091C440.561 56.9297 440.371 58.4504 440.466 59.6859C440.561 60.1612 440.561 60.4463 440.561 60.7314C440.466 61.1116 440.466 61.4917 440.371 61.9669C440.371 61.8719 440.371 61.8719 440.371 61.7769C440.466 58.2603 436.957 52.4628 429.275 51.4174C429.465 53.5083 431.267 56.5496 433.069 58.9256C435.345 61.7769 438.19 63.8678 440.086 63.5826C440.086 63.4876 440.086 63.4876 440.181 63.4876C439.802 65.8636 439.328 68.2397 438.759 70.7107C438.285 72.7066 437.621 74.7025 436.862 76.5083C437.241 72.8967 435.25 67.4793 429.086 64.438C428.611 66.5289 429.275 70.0454 430.318 72.9917C431.551 76.3182 433.448 79.1694 435.25 79.6446C433.353 83.1612 430.887 86.2025 428.042 89.0537C429.465 85.7273 428.991 79.7397 423.585 75.1777C422.637 77.0785 422.447 80.6901 422.732 83.7314C423.111 87.1529 424.249 90.0992 425.672 91.2397C422.542 93.9959 418.938 96.4669 415.145 98.6529C417.8 96.1818 419.792 90.3843 416.567 84.0165C414.955 85.4421 413.343 88.5785 412.489 91.5248C411.351 95.0413 411.351 98.6529 412.679 99.9835C409.36 101.789 405.851 103.31 402.342 104.736C404.997 102.36 407.084 97.4174 405.187 91.4297C403.29 92.4752 401.204 95.4215 399.876 98.0826C398.264 101.219 397.6 104.545 398.454 106.161C393.522 107.967 388.591 109.393 384.039 110.533C379.487 109.393 374.555 107.967 369.624 106.161C370.478 104.45 369.719 101.124 368.202 98.0826C366.779 95.3264 364.693 92.4752 362.891 91.4297C360.994 97.5124 363.08 102.36 365.736 104.736C362.227 103.31 358.718 101.789 355.399 99.9835C356.726 98.5578 356.632 95.0413 355.588 91.5248C354.64 88.5785 353.123 85.4421 351.511 84.0165C348.191 90.3843 350.278 96.1818 352.933 98.6529C349.14 96.4669 345.631 93.9959 342.406 91.2397C343.924 90.0992 345.062 87.0578 345.346 83.7314C345.631 80.6901 345.441 77.0785 344.493 75.1777C339.087 79.7397 338.613 85.7273 340.036 89.0537C337.19 86.2025 334.725 83.0661 332.828 79.6446C334.63 79.0744 336.621 76.3182 337.759 72.9917C338.803 70.1405 339.467 66.624 338.992 64.438C332.828 67.4793 330.837 72.8967 331.216 76.5083C330.457 74.7025 329.793 72.7066 329.319 70.7107C328.75 68.2397 328.276 65.8636 327.897 63.4876C327.897 63.4876 327.897 63.5826 327.991 63.5826C329.793 63.8678 332.733 61.8719 335.009 58.9256C336.906 56.5496 338.613 53.5083 338.803 51.4174C331.121 52.4628 327.612 58.2603 327.707 61.7769C327.707 61.8719 327.707 61.9669 327.707 61.9669C327.612 61.5868 327.612 61.2066 327.517 60.7314C327.517 60.4463 327.612 60.1612 327.612 59.6859C327.802 58.4504 327.517 56.9297 326.948 55.4091C326.853 53.3182 326.759 51.2273 326.759 49.1364C326.759 49.2314 326.853 49.3264 326.853 49.4215C328.56 49.8017 331.406 47.9959 333.682 45.4298C335.578 43.2438 337.38 40.4876 337.665 38.4917C331.216 39.062 327.612 43.2438 326.853 46.5702C326.948 45.5248 326.948 44.5744 327.043 43.5289C327.517 42.4835 327.707 41.1529 327.517 39.6322C328.086 36.0207 329.035 32.5041 330.362 29.1777C330.552 28.9876 330.647 28.7025 330.931 28.3223C331.5 27.562 331.88 26.4215 332.069 25.281C332.828 23.6653 333.682 22.0496 334.725 20.5289C334.725 20.624 334.725 20.624 334.725 20.719C336.052 21.6694 339.087 21.1942 341.932 19.7686C344.303 18.6281 346.769 16.9174 347.812 15.3017C344.019 13.9711 340.605 14.6364 338.328 15.9669C338.803 15.3967 339.277 14.6364 339.656 13.781C340.984 12.2603 342.501 10.7397 344.019 9.31405V9.40909C344.493 9.69421 344.682 9.69421 345.631 9.69421C348.855 9.97934 354.261 6.93802 355.494 0C353.597 0.0950413 350.752 1.6157 348.571 3.2314C346.01 5.03719 344.113 7.41322 344.113 9.02893C342.691 10.2645 341.268 11.595 340.036 12.9256C340.984 9.97934 340.794 5.89256 338.139 1.90083C336.716 3.42149 335.673 6.65289 335.199 9.50413C334.535 13.0207 334.914 16.3471 336.337 17.4876C334.82 19.5785 333.492 21.7645 332.354 24.0455C332.544 20.5289 331.121 16.062 326.664 12.5455C325.715 14.6364 325.621 18.438 326 21.6694C326.474 25.6612 327.991 29.0826 329.888 29.843C328.845 32.5992 328.086 35.4504 327.612 38.3967C326.948 34.9752 324.672 31.0785 319.836 28.5124C319.267 30.7934 319.836 34.595 320.784 37.7314C322.017 41.6281 324.198 44.8595 326.19 45.2397C326.379 45.0496 326.569 44.8595 326.664 44.6694C326.379 47.8058 326.379 50.9422 326.474 54.0785C324.672 50.657 321.069 47.2355 315.189 46.095C315.284 48.6612 317.085 52.5578 319.172 55.5992C321.638 59.3058 324.862 61.9669 327.233 61.7769C327.612 64.7231 328.181 67.7645 328.75 70.7107C328.75 70.8058 328.75 70.8058 328.845 70.9008C326.379 67.5744 321.543 64.5331 314.62 65.1983C315.378 67.6694 318.223 70.8058 321.069 73.1818C324.577 76.0331 328.466 77.7438 330.647 76.8884C330.647 76.7934 330.647 76.6983 330.647 76.6983C331.785 79.3595 333.207 81.8306 335.009 84.2066C331.69 82.1157 326.569 81.0702 320.689 83.3512C322.112 85.5372 325.81 87.7231 329.13 89.1488C333.302 90.9545 337.57 91.4297 339.372 90.0041C339.372 89.624 339.277 89.3388 339.182 89.0537C341.553 91.5248 344.303 93.8058 347.243 95.8967C343.26 95.0413 337.759 95.9917 333.018 100.554C335.199 101.979 339.467 102.645 343.07 102.645C347.527 102.645 351.511 101.504 352.743 99.6033C355.304 101.124 357.959 102.55 360.71 103.88C356.632 103.785 351.416 105.591 347.527 110.913C349.898 111.959 354.166 111.864 357.865 111.198C362.227 110.438 365.925 108.632 366.874 106.541C371.236 108.347 375.883 109.963 380.625 111.293C376.832 112.149 373.323 112.909 370.383 113.384L371.141 115C375.504 114.24 379.866 113.289 384.134 112.244C388.401 113.384 392.764 114.335 397.126 115L397.885 113.384C394.945 112.814 391.436 112.149 387.643 111.293C392.384 109.963 396.937 108.347 401.394 106.541C402.342 108.632 406.041 110.438 410.403 111.198C414.007 111.769 418.369 111.864 420.74 110.913C416.852 105.591 411.541 103.785 407.463 103.88C410.213 102.55 412.964 101.124 415.429 99.6033C416.662 101.504 420.74 102.645 425.103 102.645C428.801 102.645 432.974 101.979 435.155 100.554C430.413 95.8967 424.913 95.0413 420.93 95.8967C423.87 93.7107 426.62 91.4297 428.991 89.0537C428.896 89.3388 428.801 89.624 428.801 90.0041C430.603 91.4297 434.871 90.9545 439.043 89.1488C442.457 87.7231 446.061 85.4421 447.484 83.3512C441.604 81.0702 436.483 82.1157 433.163 84.2066C434.965 81.8306 436.388 79.2645 437.526 76.6983C437.526 76.7934 437.526 76.8884 437.526 76.8884C439.612 77.7438 443.595 76.1281 447.104 73.1818C449.949 70.8058 452.794 67.6694 453.553 65.1983C446.535 64.6281 441.699 67.5744 439.233 70.9008Z" fill="white"/>
<path fill-rule="evenodd" clip-rule="evenodd" d="M431.844 31.9127C434.458 33.9548 437.353 35.1218 438.846 34.3438C438.94 33.7603 438.846 33.6631 438.66 32.6906C437.913 29.4815 433.618 25.1054 426.802 26.0779C427.549 27.9256 429.696 30.2595 431.844 31.9127Z" fill="white"/>
<path d="M42.0878 25.0339V18.1621H43.9256V16.6851H38.5737V18.1621H40.4239V25.0339H42.0878Z" fill="white"/>
<path d="M44.3733 20.8657C44.3733 23.3566 45.6647 25.1841 47.8253 25.1841C49.9983 25.1841 51.2897 23.3566 51.2897 20.8657C51.2897 18.3874 49.9983 16.5474 47.8253 16.5474C45.6647 16.5474 44.3733 18.3874 44.3733 20.8657ZM49.5886 20.8657C49.5886 22.4554 48.9677 23.6946 47.8253 23.6946C46.6953 23.6946 46.0869 22.4554 46.0869 20.8657C46.0869 19.251 46.6953 18.0369 47.8253 18.0369C48.9677 18.0369 49.5886 19.251 49.5886 20.8657Z" fill="white"/>
<path d="M54.0969 25.0339V22.0048H55.4876C57.1888 22.0048 58.0456 20.7781 58.0456 19.3512C58.0456 17.9242 57.1888 16.6851 55.4876 16.6851H52.433V25.0339H54.0969ZM56.3444 19.3512C56.3444 20.0646 55.9223 20.5528 55.289 20.5528H54.0969V18.1495H55.289C55.9223 18.1495 56.3444 18.6252 56.3444 19.3512Z" fill="white"/>
<path d="M64.3308 25.0339C66.628 25.0339 67.9318 23.3191 67.9318 20.8657C67.9318 18.4124 66.6156 16.6851 64.3308 16.6851H61.6611V25.0339H64.3308ZM63.325 18.1621H64.3308C65.5849 18.1621 66.2307 19.2135 66.2307 20.8657C66.2307 22.4554 65.5601 23.5569 64.3308 23.5569H63.325V18.1621Z" fill="white"/>
<path d="M70.7342 25.0339V16.6851H69.0702V25.0339H70.7342Z" fill="white"/>
<path d="M71.8635 20.8657C71.8635 23.4568 73.2667 25.1841 75.3652 25.1841C76.5821 25.1841 77.501 24.6834 78.1964 23.8573V20.4652H75.0672V21.9172H76.6318V23.1939C76.371 23.4693 75.924 23.6946 75.3652 23.6946C74.3098 23.6946 73.5771 22.6557 73.5771 20.8657C73.5771 19.0758 74.3098 18.0369 75.3652 18.0369C76.0482 18.0369 76.5076 18.4875 76.7684 19.0758L78.1219 18.4499C77.6748 17.411 76.8056 16.5474 75.3652 16.5474C73.2667 16.5474 71.8635 18.2622 71.8635 20.8657Z" fill="white"/>
<path d="M81.1385 25.0339V16.6851H79.4746V25.0339H81.1385Z" fill="white"/>
<path d="M85.6454 25.0339V18.1621H87.4832V16.6851H82.1313V18.1621H83.9815V25.0339H85.6454Z" fill="white"/>
<path d="M94.0616 25.0339L91.603 16.6851H89.5914L87.1328 25.0339H88.8588L89.2437 23.5444H91.9507L92.3356 25.0339H94.0616ZM91.6154 22.0799H89.579L90.5972 18.1746L91.6154 22.0799Z" fill="white"/>
<path d="M99.2112 25.0339V23.5569H96.4297V16.6851H94.7658V25.0339H99.2112Z" fill="white"/>
<path d="M47.5926 37.5509V29.2021H45.3699L43.7556 34.2089L42.1538 29.2021H39.9187V37.5509H41.5702V31.8181L43.4079 37.5509H44.0909L45.9535 31.8181V37.5509H47.5926Z" fill="white"/>
<path d="M55.2212 37.5509L52.7625 29.2021H50.7509L48.2923 37.5509H50.0183L50.4032 36.0614H53.1102L53.4952 37.5509H55.2212ZM52.775 34.5969H50.7385L51.7567 30.6916L52.775 34.5969Z" fill="white"/>
<path d="M61.6001 37.5509L60.0976 34.2339C60.7805 34.0086 61.538 33.2826 61.538 31.8431C61.538 30.3036 60.5322 29.2021 59.0173 29.2021H55.9254V37.5509H57.5893V34.5218H58.4833L59.7499 37.5509H61.6001ZM59.8368 31.8682C59.8368 32.5816 59.4146 33.0698 58.7689 33.0698H57.5893V30.6665H58.7689C59.4146 30.6665 59.8368 31.1297 59.8368 31.8682Z" fill="white"/>
<path d="M68.8863 37.5509L66.0552 33.1324L68.7 29.2021H66.7629L64.4285 32.9947V29.2021H62.7646V37.5509H64.4285V35.2102L65.0121 34.284L66.9244 37.5509H68.8863Z" fill="white"/>
<path d="M74.3715 37.5509V36.0864H71.292V34.0336H74.2845V32.5816H71.292V30.6665H74.3715V29.2021H69.628V37.5509H74.3715Z" fill="white"/>
<path d="M78.6485 37.5509V30.6791H80.4863V29.2021H75.1344V30.6791H76.9846V37.5509H78.6485Z" fill="white"/>
<path d="M83.1393 37.5509V29.2021H81.4754V37.5509H83.1393Z" fill="white"/>
<path d="M90.6761 37.5509V29.2021H89.0121V34.309L86.2927 29.2021H84.604V37.5509H86.2555V32.2312L89.0866 37.5509H90.6761Z" fill="white"/>
<path d="M91.7991 33.3827C91.7991 35.9738 93.2023 37.7011 95.3008 37.7011C96.5177 37.7011 97.4366 37.2004 98.132 36.3743V32.9822H95.0028V34.4342H96.5674V35.7109C96.3066 35.9863 95.8596 36.2116 95.3008 36.2116C94.2453 36.2116 93.5127 35.1727 93.5127 33.3827C93.5127 31.5928 94.2453 30.5539 95.3008 30.5539C95.9838 30.5539 96.4432 31.0045 96.704 31.5928L98.0575 30.967C97.6104 29.928 96.7412 29.0644 95.3008 29.0644C93.2023 29.0644 91.7991 30.7792 91.7991 33.3827Z" fill="white"/>
<path d="M55.4516 50.0679L52.9929 41.7191H50.9813L48.5227 50.0679H50.2487L50.6336 48.5784H53.3406L53.7256 50.0679H55.4516ZM53.0054 47.1139H50.9689L51.9871 43.2086L53.0054 47.1139Z" fill="white"/>
<path d="M55.5537 45.8997C55.5537 48.4908 56.9569 50.2181 59.0554 50.2181C60.2723 50.2181 61.1912 49.7174 61.8865 48.8913V45.4992H58.7574V46.9512H60.322V48.2279C60.0612 48.5033 59.6142 48.7286 59.0554 48.7286C57.9999 48.7286 57.2673 47.6897 57.2673 45.8997C57.2673 44.1098 57.9999 43.0709 59.0554 43.0709C59.7383 43.0709 60.1978 43.5215 60.4585 44.1098L61.812 43.484C61.365 42.445 60.4958 41.5814 59.0554 41.5814C56.9569 41.5814 55.5537 43.2962 55.5537 45.8997Z" fill="white"/>
<path d="M67.9082 50.0679V48.6034H64.8287V46.5506H67.8212V45.0987H64.8287V43.1836H67.9082V41.7191H63.1647V50.0679H67.9082Z" fill="white"/>
<path d="M75.2151 50.0679V41.7191H73.5511V46.826L70.8317 41.7191H69.143V50.0679H70.7945V44.7482L73.6256 50.0679H75.2151Z" fill="white"/>
<path d="M79.815 50.2181C81.4541 50.2181 82.2115 49.1166 82.6213 48.1153L81.243 47.5144C81.007 48.2029 80.5228 48.7286 79.815 48.7286C78.7223 48.7286 78.0517 47.5395 78.0517 45.8997C78.0517 44.26 78.7223 43.0709 79.815 43.0709C80.4979 43.0709 80.9822 43.534 81.2306 44.1974L82.6089 43.5841C82.1867 42.6203 81.4292 41.5814 79.815 41.5814C77.6916 41.5814 76.3381 43.3713 76.3381 45.8997C76.3381 48.4282 77.6916 50.2181 79.815 50.2181Z" fill="white"/>
<path d="M86.8067 50.0679V46.6257L89.3647 41.7191H87.5269L85.9747 45.0736L84.4226 41.7191H82.5848L85.1428 46.6257V50.0679H86.8067Z" fill="white"/>
<path d="M44.376 62.7351C46.015 62.7351 46.7725 61.6336 47.1823 60.6323L45.8039 60.0314C45.568 60.7199 45.0837 61.2456 44.376 61.2456C43.2832 61.2456 42.6127 60.0565 42.6127 58.4167C42.6127 56.777 43.2832 55.5879 44.376 55.5879C45.0589 55.5879 45.5432 56.051 45.7915 56.7144L47.1698 56.1011C46.7477 55.1373 45.9902 54.0984 44.376 54.0984C42.2526 54.0984 40.8991 55.8883 40.8991 58.4167C40.8991 60.9452 42.2526 62.7351 44.376 62.7351Z" fill="white"/>
<path d="M47.8232 58.4167C47.8232 60.9076 49.1146 62.7351 51.2752 62.7351C53.4483 62.7351 54.7397 60.9076 54.7397 58.4167C54.7397 55.9384 53.4483 54.0984 51.2752 54.0984C49.1146 54.0984 47.8232 55.9384 47.8232 58.4167ZM53.0385 58.4167C53.0385 60.0064 52.4176 61.2456 51.2752 61.2456C50.1452 61.2456 49.5368 60.0064 49.5368 58.4167C49.5368 56.8021 50.1452 55.5879 51.2752 55.5879C52.4176 55.5879 53.0385 56.8021 53.0385 58.4167Z" fill="white"/>
<path d="M63.5568 62.5849V54.2361H61.3341L59.7199 59.2429L58.118 54.2361H55.8829V62.5849H57.5344V56.8521L59.3722 62.5849H60.0551L61.9177 56.8521V62.5849H63.5568Z" fill="white"/>
<path d="M66.6779 62.5849V59.5558H68.0687C69.7698 59.5558 70.6266 58.3291 70.6266 56.9022C70.6266 55.4753 69.7698 54.2361 68.0687 54.2361H65.014V62.5849H66.6779ZM68.9255 56.9022C68.9255 57.6157 68.5033 58.1038 67.87 58.1038H66.6779V55.7006H67.87C68.5033 55.7006 68.9255 56.1762 68.9255 56.9022Z" fill="white"/>
<path d="M77.1758 62.5849L74.7171 54.2361H72.7056L70.2469 62.5849H71.9729L72.3579 61.0954H75.0648L75.4498 62.5849H77.1758ZM74.7296 59.6309H72.6931L73.7113 55.7256L74.7296 59.6309Z" fill="white"/>
<path d="M83.952 62.5849V54.2361H82.2881V59.343L79.5687 54.2361H77.88V62.5849H79.5315V57.2652L82.3626 62.5849H83.952Z" fill="white"/>
<path d="M87.0743 62.5849V54.2361H85.4104V62.5849H87.0743Z" fill="white"/>
<path d="M93.2824 62.5849V61.1204H90.2029V59.0676H93.1955V57.6157H90.2029V55.7006H93.2824V54.2361H88.539V62.5849H93.2824Z" fill="white"/>
<path d="M93.9833 61.6587C94.6414 62.3221 95.5603 62.7351 96.8144 62.7351C98.6273 62.7351 99.6207 61.6587 99.6207 60.1942C99.6207 58.5419 98.3169 57.9912 97.249 57.5656C96.504 57.2527 95.9328 56.9898 95.9328 56.4265C95.9328 55.9259 96.3053 55.5754 96.9262 55.5754C97.547 55.5754 98.1803 55.8007 98.677 56.2763L99.4717 55.0246C98.8384 54.4238 97.9692 54.0984 96.9634 54.0984C95.2498 54.0984 94.2316 55.2124 94.2316 56.5267C94.2316 58.1789 95.5354 58.6796 96.5785 59.0927C97.3359 59.4181 97.932 59.6935 97.932 60.3318C97.932 60.845 97.5346 61.2581 96.7896 61.2581C95.9825 61.2581 95.2623 60.8826 94.8028 60.3694L93.9833 61.6587Z" fill="white"/>
<path d="M207.611 42.2448C209.113 42.2448 209.821 41.256 209.821 39.9918C209.821 38.9529 209.2 38.0767 208.356 37.939C209.113 37.7512 209.685 37.0753 209.685 36.0239C209.685 34.8848 208.977 33.896 207.499 33.896H204.072V42.2448H207.611ZM205.736 35.3229H207.102C207.698 35.3229 207.983 35.7485 207.983 36.3118C207.983 36.875 207.698 37.2881 207.102 37.2881H205.736V35.3229ZM205.736 38.715H207.164C207.797 38.715 208.12 39.1907 208.12 39.7665C208.12 40.4173 207.785 40.8179 207.164 40.8179H205.736V38.715Z" fill="white"/>
<path d="M215.727 42.2448V40.7803H212.648V38.7276H215.64V37.2756H212.648V35.3605H215.727V33.896H210.984V42.2448H215.727Z" fill="white"/>
<path d="M216.428 41.3186C217.086 41.982 218.005 42.395 219.259 42.395C221.072 42.395 222.066 41.3186 222.066 39.8541C222.066 38.2018 220.762 37.6511 219.694 37.2255C218.949 36.9126 218.378 36.6497 218.378 36.0865C218.378 35.5858 218.75 35.2353 219.371 35.2353C219.992 35.2353 220.625 35.4606 221.122 35.9363L221.917 34.6846C221.283 34.0837 220.414 33.7583 219.408 33.7583C217.695 33.7583 216.677 34.8723 216.677 36.1866C216.677 37.8388 217.98 38.3395 219.024 38.7526C219.781 39.078 220.377 39.3534 220.377 39.9918C220.377 40.505 219.98 40.918 219.235 40.918C218.427 40.918 217.707 40.5425 217.248 40.0293L216.428 41.3186Z" fill="white"/>
<path d="M226.08 42.2448V35.373H227.917V33.896H222.566V35.373H224.416V42.2448H226.08Z" fill="white"/>
<path d="M230.98 41.3186C231.638 41.982 232.557 42.395 233.811 42.395C235.624 42.395 236.617 41.3186 236.617 39.8541C236.617 38.2018 235.313 37.6511 234.246 37.2255C233.501 36.9126 232.929 36.6497 232.929 36.0865C232.929 35.5858 233.302 35.2353 233.923 35.2353C234.544 35.2353 235.177 35.4606 235.674 35.9363L236.468 34.6846C235.835 34.0837 234.966 33.7583 233.96 33.7583C232.246 33.7583 231.228 34.8723 231.228 36.1866C231.228 37.8388 232.532 38.3395 233.575 38.7526C234.332 39.078 234.929 39.3534 234.929 39.9918C234.929 40.505 234.531 40.918 233.786 40.918C232.979 40.918 232.259 40.5425 231.799 40.0293L230.98 41.3186Z" fill="white"/>
<path d="M242.442 42.2448V40.7803H239.362V38.7276H242.355V37.2756H239.362V35.3605H242.442V33.896H237.698V42.2448H242.442Z" fill="white"/>
<path d="M243.341 38.0767C243.341 40.5676 244.633 42.395 246.793 42.395C248.966 42.395 250.258 40.5676 250.258 38.0767C250.258 35.5983 248.966 33.7583 246.793 33.7583C244.633 33.7583 243.341 35.5983 243.341 38.0767ZM248.556 38.0767C248.556 39.6663 247.936 40.9055 246.793 40.9055C245.663 40.9055 245.055 39.6663 245.055 38.0767C245.055 36.462 245.663 35.2478 246.793 35.2478C247.936 35.2478 248.556 36.462 248.556 38.0767Z" fill="white"/>
<path d="M204.03 54.912C205.67 54.912 206.427 53.8105 206.837 52.8092L205.458 52.2084C205.222 52.8968 204.738 53.4225 204.03 53.4225C202.938 53.4225 202.267 52.2334 202.267 50.5937C202.267 48.9539 202.938 47.7648 204.03 47.7648C204.713 47.7648 205.198 48.228 205.446 48.8914L206.824 48.278C206.402 47.3142 205.645 46.2753 204.03 46.2753C201.907 46.2753 200.554 48.0652 200.554 50.5937C200.554 53.1221 201.907 54.912 204.03 54.912Z" fill="white"/>
<path d="M213.948 54.7618L211.489 46.413H209.478L207.019 54.7618H208.745L209.13 53.2723H211.837L212.222 54.7618H213.948ZM211.502 51.8078H209.465L210.484 47.9025L211.502 51.8078Z" fill="white"/>
<path d="M222.326 54.7618V46.413H220.103L218.489 51.4198L216.887 46.413H214.652V54.7618H216.304V49.029L218.141 54.7618H218.824L220.687 49.029V54.7618H222.326Z" fill="white"/>
<path d="M225.447 54.7618V51.7327H226.838C228.539 51.7327 229.396 50.5061 229.396 49.0791C229.396 47.6522 228.539 46.413 226.838 46.413H223.783V54.7618H225.447ZM227.695 49.0791C227.695 49.7926 227.273 50.2807 226.639 50.2807H225.447V47.8775H226.639C227.273 47.8775 227.695 48.3531 227.695 49.0791Z" fill="white"/>
<path d="M235.945 54.7618L233.486 46.413H231.475L229.016 54.7618H230.742L231.127 53.2723H233.834L234.219 54.7618H235.945ZM233.499 51.8078H231.462L232.481 47.9025L233.499 51.8078Z" fill="white"/>
<path d="M238.313 54.7618V46.413H236.649V54.7618H238.313Z" fill="white"/>
<path d="M239.443 50.5937C239.443 53.1847 240.846 54.912 242.944 54.912C244.161 54.912 245.08 54.4114 245.775 53.5852V50.1931H242.646V51.6451H244.211V52.9218C243.95 53.1972 243.503 53.4225 242.944 53.4225C241.889 53.4225 241.156 52.3836 241.156 50.5937C241.156 48.8037 241.889 47.7648 242.944 47.7648C243.627 47.7648 244.087 48.2154 244.347 48.8037L245.701 48.1779C245.254 47.139 244.385 46.2753 242.944 46.2753C240.846 46.2753 239.443 47.9901 239.443 50.5937Z" fill="white"/>
<path d="M253.126 54.7618V46.413H251.462V51.5199L248.742 46.413H247.054V54.7618H248.705V49.4421L251.536 54.7618H253.126Z" fill="white"/>
<path d="M361.664 41.4626L359.206 33.1138H357.194L354.735 41.4626H356.461L356.846 39.9731H359.553L359.938 41.4626H361.664ZM359.218 38.5086H357.182L358.2 34.6033L359.218 38.5086Z" fill="white"/>
<path d="M361.766 37.2944C361.766 39.8855 363.17 41.6128 365.268 41.6128C366.485 41.6128 367.404 41.1121 368.099 40.286V36.8939H364.97V38.3459H366.535V39.6226C366.274 39.898 365.827 40.1233 365.268 40.1233C364.213 40.1233 363.48 39.0844 363.48 37.2944C363.48 35.5045 364.213 34.4656 365.268 34.4656C365.951 34.4656 366.41 34.9162 366.671 35.5045L368.025 34.8787C367.578 33.8397 366.708 32.9761 365.268 32.9761C363.17 32.9761 361.766 34.6909 361.766 37.2944Z" fill="white"/>
<path d="M374.121 41.4626V39.9981H371.041V37.9453H374.034V36.4934H371.041V34.5783H374.121V33.1138H369.377V41.4626H374.121Z" fill="white"/>
<path d="M381.428 41.4626V33.1138H379.764V38.2207L377.044 33.1138H375.356V41.4626H377.007V36.1429L379.838 41.4626H381.428Z" fill="white"/>
<path d="M386.028 41.6128C387.667 41.6128 388.424 40.5113 388.834 39.51L387.456 38.9091C387.22 39.5976 386.735 40.1233 386.028 40.1233C384.935 40.1233 384.264 38.9342 384.264 37.2944C384.264 35.6547 384.935 34.4656 386.028 34.4656C386.711 34.4656 387.195 34.9287 387.443 35.5921L388.822 34.9788C388.399 34.015 387.642 32.9761 386.028 32.9761C383.904 32.9761 382.551 34.766 382.551 37.2944C382.551 39.8229 383.904 41.6128 386.028 41.6128Z" fill="white"/>
<path d="M393.019 41.4626V38.0204L395.577 33.1138H393.74L392.187 36.4683L390.635 33.1138H388.797L391.355 38.0204V41.4626H393.019Z" fill="white"/>
<path d="M398.533 37.2944C398.533 39.7853 399.825 41.6128 401.985 41.6128C404.158 41.6128 405.45 39.7853 405.45 37.2944C405.45 34.8161 404.158 32.9761 401.985 32.9761C399.825 32.9761 398.533 34.8161 398.533 37.2944ZM403.748 37.2944C403.748 38.8841 403.128 40.1233 401.985 40.1233C400.855 40.1233 400.247 38.8841 400.247 37.2944C400.247 35.6797 400.855 34.4656 401.985 34.4656C403.128 34.4656 403.748 35.6797 403.748 37.2944Z" fill="white"/>
<path d="M408.257 41.4626V37.9453H411.249V36.4934H408.257V34.5783H411.336V33.1138H406.593V41.4626H408.257Z" fill="white"/>
<path d="M364.131 53.9796V47.1078H365.969V45.6308H360.617V47.1078H362.467V53.9796H364.131Z" fill="white"/>
<path d="M373.043 53.9796V45.6308H371.366V48.9478H368.622V45.6308H366.958V53.9796H368.622V50.4248H371.366V53.9796H373.043Z" fill="white"/>
<path d="M379.256 53.9796V52.5151H376.177V50.4623H379.169V49.0104H376.177V47.0953H379.256V45.6308H374.513V53.9796H379.256Z" fill="white"/>
<path d="M386.538 53.9796V50.5374L389.096 45.6308H387.258L385.706 48.9853L384.154 45.6308H382.316L384.874 50.5374V53.9796H386.538Z" fill="white"/>
<path d="M394.523 53.9796V52.5151H391.444V50.4623H394.436V49.0104H391.444V47.0953H394.523V45.6308H389.78V53.9796H394.523Z" fill="white"/>
<path d="M401.929 53.9796L399.471 45.6308H397.459L395.001 53.9796H396.727L397.112 52.4901H399.819L400.203 53.9796H401.929ZM399.483 51.0256H397.447L398.465 47.1203L399.483 51.0256Z" fill="white"/>
<path d="M408.308 53.9796L406.806 50.6626C407.489 50.4373 408.246 49.7113 408.246 48.2719C408.246 46.7323 407.24 45.6308 405.726 45.6308H402.634V53.9796H404.298V50.9505H405.192L406.458 53.9796H408.308ZM406.545 48.2969C406.545 49.0104 406.123 49.4985 405.477 49.4985H404.298V47.0953H405.477C406.123 47.0953 406.545 47.5584 406.545 48.2969Z" fill="white"/>
<path d="M532.644 30.51C534.146 30.51 534.854 29.5211 534.854 28.2569C534.854 27.218 534.233 26.3418 533.389 26.2041C534.146 26.0164 534.717 25.3404 534.717 24.289C534.717 23.15 534.009 22.1611 532.532 22.1611H529.105V30.51H532.644ZM530.769 23.5881H532.134C532.73 23.5881 533.016 24.0136 533.016 24.5769C533.016 25.1402 532.73 25.5532 532.134 25.5532H530.769V23.5881ZM530.769 26.9802H532.196C532.83 26.9802 533.153 27.4558 533.153 28.0316C533.153 28.6825 532.817 29.083 532.196 29.083H530.769V26.9802Z" fill="white"/>
<path d="M540.76 30.51V29.0455H537.68V26.9927H540.673V25.5407H537.68V23.6256H540.76V22.1611H536.017V30.51H540.76Z" fill="white"/>
<path d="M541.461 29.5837C542.119 30.2471 543.038 30.6602 544.292 30.6602C546.105 30.6602 547.098 29.5837 547.098 28.1192C547.098 26.467 545.795 25.9162 544.727 25.4906C543.982 25.1777 543.41 24.9149 543.41 24.3516C543.41 23.8509 543.783 23.5004 544.404 23.5004C545.025 23.5004 545.658 23.7257 546.155 24.2014L546.949 22.9497C546.316 22.3489 545.447 22.0234 544.441 22.0234C542.727 22.0234 541.709 23.1375 541.709 24.4517C541.709 26.104 543.013 26.6047 544.056 27.0177C544.814 27.3432 545.41 27.6185 545.41 28.2569C545.41 28.7701 545.012 29.1832 544.267 29.1832C543.46 29.1832 542.74 28.8077 542.28 28.2945L541.461 29.5837Z" fill="white"/>
<path d="M551.112 30.51V23.6381H552.95V22.1611H547.598V23.6381H549.448V30.51H551.112Z" fill="white"/>
<path d="M513.591 43.027V41.5625H510.512V39.5097H513.504V38.0577H510.512V36.1426H513.591V34.6781H508.848V43.027H513.591Z" fill="white"/>
<path d="M517.073 40.6362V39.3595H514.466V40.6362H517.073Z" fill="white"/>
<path d="M521.314 43.1772C522.953 43.1772 523.711 42.0757 524.121 41.0743L522.742 40.4735C522.506 41.1619 522.022 41.6877 521.314 41.6877C520.222 41.6877 519.551 40.4985 519.551 38.8588C519.551 37.2191 520.222 36.03 521.314 36.03C521.997 36.03 522.482 36.4931 522.73 37.1565L524.108 36.5432C523.686 35.5794 522.929 34.5404 521.314 34.5404C519.191 34.5404 517.837 36.3304 517.837 38.8588C517.837 41.3872 519.191 43.1772 521.314 43.1772Z" fill="white"/>
<path d="M524.762 38.8588C524.762 41.3497 526.053 43.1772 528.214 43.1772C530.387 43.1772 531.678 41.3497 531.678 38.8588C531.678 36.3804 530.387 34.5404 528.214 34.5404C526.053 34.5404 524.762 36.3804 524.762 38.8588ZM529.977 38.8588C529.977 40.4485 529.356 41.6877 528.214 41.6877C527.084 41.6877 526.475 40.4485 526.475 38.8588C526.475 37.2441 527.084 36.03 528.214 36.03C529.356 36.03 529.977 37.2441 529.977 38.8588Z" fill="white"/>
<path d="M540.495 43.027V34.6781H538.272L536.658 39.6849L535.056 34.6781H532.821V43.027H534.473V37.2942L536.311 43.027H536.993L538.856 37.2942V43.027H540.495Z" fill="white"/>
<path d="M549.626 43.027V34.6781H547.404L545.789 39.6849L544.187 34.6781H541.952V43.027H543.604V37.2942L545.442 43.027H546.125L547.987 37.2942V43.027H549.626Z" fill="white"/>
<path d="M555.827 43.027V41.5625H552.747V39.5097H555.74V38.0577H552.747V36.1426H555.827V34.6781H551.083V43.027H555.827Z" fill="white"/>
<path d="M562.736 43.027L561.234 39.71C561.917 39.4847 562.674 38.7587 562.674 37.3192C562.674 35.7796 561.669 34.6781 560.154 34.6781H557.062V43.027H558.726V39.9979H559.62L560.886 43.027H562.736ZM560.973 37.3443C560.973 38.0577 560.551 38.5459 559.905 38.5459H558.726V36.1426H559.905C560.551 36.1426 560.973 36.6057 560.973 37.3443Z" fill="white"/>
<path d="M567.042 43.1772C568.682 43.1772 569.439 42.0757 569.849 41.0743L568.47 40.4735C568.235 41.1619 567.75 41.6877 567.042 41.6877C565.95 41.6877 565.279 40.4985 565.279 38.8588C565.279 37.2191 565.95 36.03 567.042 36.03C567.725 36.03 568.21 36.4931 568.458 37.1565L569.836 36.5432C569.414 35.5794 568.657 34.5404 567.042 34.5404C564.919 34.5404 563.566 36.3304 563.566 38.8588C563.566 41.3872 564.919 43.1772 567.042 43.1772Z" fill="white"/>
<path d="M575.568 43.027V41.5625H572.489V39.5097H575.481V38.0577H572.489V36.1426H575.568V34.6781H570.825V43.027H575.568Z" fill="white"/>
<path d="M519.119 55.6942C520.759 55.6942 521.516 54.5927 521.926 53.5913L520.547 52.9905C520.312 53.6789 519.827 54.2047 519.119 54.2047C518.027 54.2047 517.356 53.0155 517.356 51.3758C517.356 49.7361 518.027 48.547 519.119 48.547C519.802 48.547 520.287 49.0101 520.535 49.6735L521.913 49.0602C521.491 48.0964 520.734 47.0574 519.119 47.0574C516.996 47.0574 515.643 48.8474 515.643 51.3758C515.643 53.9043 516.996 55.6942 519.119 55.6942Z" fill="white"/>
<path d="M529.037 55.544L526.578 47.1951H524.567L522.108 55.544H523.834L524.219 54.0545H526.926L527.311 55.544H529.037ZM526.591 52.59H524.554L525.573 48.6847L526.591 52.59Z" fill="white"/>
<path d="M537.415 55.544V47.1951H535.192L533.578 52.2019L531.976 47.1951H529.741V55.544H531.393V49.8112L533.23 55.544H533.913L535.776 49.8112V55.544H537.415Z" fill="white"/>
<path d="M540.536 55.544V52.5149H541.927C543.628 52.5149 544.485 51.2882 544.485 49.8613C544.485 48.4343 543.628 47.1951 541.927 47.1951H538.872V55.544H540.536ZM542.784 49.8613C542.784 50.5747 542.362 51.0629 541.728 51.0629H540.536V48.6596H541.728C542.362 48.6596 542.784 49.1353 542.784 49.8613Z" fill="white"/>
<path d="M551.034 55.544L548.575 47.1951H546.564L544.105 55.544H545.831L546.216 54.0545H548.923L549.308 55.544H551.034ZM548.588 52.59H546.551L547.57 48.6847L548.588 52.59Z" fill="white"/>
<path d="M553.402 55.544V47.1951H551.738V55.544H553.402Z" fill="white"/>
<path d="M554.532 51.3758C554.532 53.9668 555.935 55.6942 558.033 55.6942C559.25 55.6942 560.169 55.1935 560.864 54.3674V50.9753H557.735V52.4272H559.3V53.704C559.039 53.9794 558.592 54.2047 558.033 54.2047C556.978 54.2047 556.245 53.1657 556.245 51.3758C556.245 49.5859 556.978 48.547 558.033 48.547C558.716 48.547 559.176 48.9976 559.436 49.5859L560.79 48.96C560.343 47.9211 559.474 47.0574 558.033 47.0574C555.935 47.0574 554.532 48.7723 554.532 51.3758Z" fill="white"/>
<path d="M568.215 55.544V47.1951H566.551V52.3021L563.831 47.1951H562.143V55.544H563.794V50.2243L566.625 55.544H568.215Z" fill="white"/>
<path d="M38.1736 76.7984C39.3144 76.7984 39.9337 76.0865 40.3357 75.276L39.6078 74.9365C39.3361 75.5607 38.8581 76.0207 38.1736 76.0207C37.0219 76.0207 36.2722 74.7503 36.2722 73.0198C36.2722 71.2893 37.0219 70.0188 38.1736 70.0188C38.8255 70.0188 39.3035 70.4131 39.5969 71.0045L40.314 70.665C39.9229 69.9093 39.2927 69.2412 38.1736 69.2412C36.4677 69.2412 35.3812 70.8293 35.3812 73.0198C35.3812 75.1993 36.4677 76.7984 38.1736 76.7984Z" fill="white"/>
<path d="M42.2937 76.6669V69.3617H41.4245V76.6669H42.2937Z" fill="white"/>
<path d="M43.5619 73.0198C43.5619 75.1336 44.5398 76.7984 46.2999 76.7984C48.0601 76.7984 49.0488 75.1336 49.0488 73.0198C49.0488 70.906 48.0601 69.2412 46.2999 69.2412C44.5398 69.2412 43.5619 70.906 43.5619 73.0198ZM48.1579 73.0198C48.1579 74.6845 47.506 76.0207 46.2999 76.0207C45.1048 76.0207 44.4529 74.6845 44.4529 73.0198C44.4529 71.3331 45.1048 70.0188 46.2999 70.0188C47.506 70.0188 48.1579 71.3331 48.1579 73.0198Z" fill="white"/>
<path d="M57.355 76.6669L55.1819 69.3617H54.1497L51.9767 76.6669H52.8785L53.3457 75.0131H55.9859L56.4531 76.6669H57.355ZM55.8012 74.2465H53.5304L54.6604 70.1941L55.8012 74.2465Z" fill="white"/>
<path d="M61.916 76.6669V69.3617H61.1337V72.1436C60.8186 71.5522 60.2862 71.2455 59.7539 71.2455C58.5696 71.2455 57.8742 72.3845 57.8742 74.0274C57.8742 75.6922 58.5804 76.7984 59.7539 76.7984C60.308 76.7984 60.8295 76.4479 61.1337 75.9112V76.6669H61.916ZM61.1337 75.2431C60.9382 75.7031 60.4492 76.0974 59.9494 76.0974C59.0911 76.0974 58.6891 75.1665 58.6891 74.0274C58.6891 72.8774 59.0911 71.9464 59.9494 71.9464C60.4492 71.9464 60.9382 72.3517 61.1337 72.8117V75.2431Z" fill="white"/>
<path d="M65.2784 76.6669L67.006 71.3769H66.1694L64.8547 75.736L63.5509 71.3769H62.7034L64.4201 76.6669H65.2784Z" fill="white"/>
<path d="M68.1708 70.4898C68.4641 70.4898 68.7032 70.2488 68.7032 69.9531C68.7032 69.6574 68.4641 69.4164 68.1708 69.4164C67.8883 69.4164 67.6384 69.6574 67.6384 69.9531C67.6384 70.2488 67.8883 70.4898 68.1708 70.4898ZM68.5619 76.6669V71.3769H67.7905V76.6669H68.5619Z" fill="white"/>
<path d="M69.5737 76.0536C70.0083 76.5574 70.6059 76.7984 71.3448 76.7984C72.4204 76.7984 73.094 76.1631 73.094 75.2869C73.094 74.2026 72.2466 73.8741 71.5186 73.5784C70.9645 73.3484 70.4755 73.1293 70.4755 72.6255C70.4755 72.1984 70.8341 71.8807 71.4099 71.8807C71.9206 71.8807 72.3661 72.1107 72.6268 72.4612L72.9963 71.9245C72.6268 71.5193 72.0944 71.2455 71.3991 71.2455C70.356 71.2455 69.7258 71.8807 69.7258 72.6693C69.7258 73.6879 70.5299 74.0055 71.247 74.2903C71.8228 74.5312 72.3443 74.7612 72.3443 75.3307C72.3443 75.8345 71.9423 76.1631 71.3339 76.1631C70.7689 76.1631 70.2691 75.8674 69.9649 75.495L69.5737 76.0536Z" fill="white"/>
<path d="M76.068 76.7984C77.4805 76.7984 78.2085 75.506 78.2085 74.0164C78.2085 72.5269 77.4805 71.2455 76.068 71.2455C74.6773 71.2455 73.9385 72.5269 73.9385 74.0164C73.9385 75.506 74.6773 76.7984 76.068 76.7984ZM76.068 76.0974C75.1662 76.0974 74.7534 75.0898 74.7534 74.0164C74.7534 72.9541 75.1662 71.9464 76.068 71.9464C76.9916 71.9464 77.3936 72.9541 77.3936 74.0164C77.3936 75.0898 76.9916 76.0974 76.068 76.0974Z" fill="white"/>
<path d="M80.1486 76.6669V72.9103C80.3659 72.4722 80.8983 72.045 81.3763 72.045C81.4633 72.045 81.5502 72.056 81.6371 72.0779V71.2674C80.9961 71.2674 80.4854 71.6617 80.1486 72.2203V71.3769H79.3772V76.6669H80.1486Z" fill="white"/>
<path d="M89.6215 76.6669L87.4484 69.3617H86.4162L84.2432 76.6669H85.145L85.6122 75.0131H88.2524L88.7196 76.6669H89.6215ZM88.0677 74.2465H85.7969L86.9269 70.1941L88.0677 74.2465Z" fill="white"/>
<path d="M91.3353 76.6669V73.7426H92.6718C93.9864 73.7426 94.6709 72.735 94.6709 71.5522C94.6709 70.3693 93.9973 69.3617 92.6718 69.3617H90.4661V76.6669H91.3353ZM93.78 71.5522C93.78 72.3845 93.3345 72.976 92.5848 72.976H91.3353V70.1284H92.5848C93.3345 70.1284 93.78 70.7198 93.78 71.5522Z" fill="white"/>
<path d="M99.9348 76.6669L97.7618 69.3617H96.7296L94.5566 76.6669H95.4584L95.9256 75.0131H98.5658L99.033 76.6669H99.9348ZM98.3811 74.2465H96.1103L97.2403 70.1941L98.3811 74.2465Z" fill="white"/>
<path d="M103.11 76.7984C104.251 76.7984 104.87 76.0865 105.272 75.276L104.544 74.9365C104.272 75.5607 103.794 76.0207 103.11 76.0207C101.958 76.0207 101.208 74.7503 101.208 73.0198C101.208 71.2893 101.958 70.0188 103.11 70.0188C103.762 70.0188 104.24 70.4131 104.533 71.0045L105.25 70.665C104.859 69.9093 104.229 69.2412 103.11 69.2412C101.404 69.2412 100.317 70.8293 100.317 73.0198C100.317 75.1993 101.404 76.7984 103.11 76.7984Z" fill="white"/>
<path d="M65.0979 88.4016V87.624H62.2295C64.1527 85.3021 65.0653 84.2069 65.0653 82.9802C65.0653 81.7097 64.1418 80.9869 63.0336 80.9869C62.11 80.9869 61.4038 81.414 60.9257 82.1588L61.4907 82.6845C61.8384 82.104 62.3382 81.7645 63.0227 81.7645C63.642 81.7645 64.1853 82.2026 64.1853 82.9911C64.1853 84.0535 63.3704 84.9407 61.0018 87.6897V88.4016H65.0979Z" fill="white"/>
<path d="M66.2524 84.7545C66.2524 86.6273 66.8283 88.5331 68.5233 88.5331C70.2182 88.5331 70.7941 86.6273 70.7941 84.7545C70.7941 82.8816 70.2182 80.9869 68.5233 80.9869C66.8283 80.9869 66.2524 82.8816 66.2524 84.7545ZM69.914 84.7545C69.914 86.1892 69.6424 87.7554 68.5233 87.7554C67.4041 87.7554 67.1434 86.1892 67.1434 84.7545C67.1434 83.3088 67.415 81.7645 68.5233 81.7645C69.6424 81.7645 69.914 83.3088 69.914 84.7545Z" fill="white"/>
<path d="M75.9737 88.4016V87.624H73.1053C75.0284 85.3021 75.9411 84.2069 75.9411 82.9802C75.9411 81.7097 75.0176 80.9869 73.9093 80.9869C72.9858 80.9869 72.2795 81.414 71.8015 82.1588L72.3665 82.6845C72.7141 82.104 73.2139 81.7645 73.8984 81.7645C74.5178 81.7645 75.061 82.2026 75.061 82.9911C75.061 84.0535 74.2461 84.9407 71.8775 87.6897V88.4016H75.9737Z" fill="white"/>
<path d="M79.2795 88.4016V81.0964H78.5189L76.7805 82.9035L77.302 83.4511L78.4211 82.2464V88.4016H79.2795Z" fill="white"/>
<path d="M203.22 71.9727C205.1 71.9727 206.132 70.4284 206.132 68.3256C206.132 66.2337 205.1 64.6675 203.22 64.6675H201.286V71.9727H203.22ZM202.155 65.4341H203.22C204.567 65.4341 205.241 66.6718 205.241 68.3256C205.241 69.9684 204.556 71.1951 203.22 71.1951H202.155V65.4341Z" fill="white"/>
<path d="M207.756 65.7956C208.049 65.7956 208.288 65.5546 208.288 65.2589C208.288 64.9632 208.049 64.7222 207.756 64.7222C207.473 64.7222 207.223 64.9632 207.223 65.2589C207.223 65.5546 207.473 65.7956 207.756 65.7956ZM208.147 71.9727V66.6827H207.375V71.9727H208.147Z" fill="white"/>
<path d="M209.539 73.4513C210.039 73.9551 210.582 74.1194 211.288 74.1194C212.385 74.1194 213.363 73.5937 213.363 71.9618V66.6827H212.581V67.4494C212.255 66.858 211.734 66.5513 211.201 66.5513C210.017 66.5513 209.322 67.6575 209.322 69.3003C209.322 70.9651 210.028 72.0384 211.201 72.0384C211.755 72.0384 212.277 71.6661 212.581 71.1294V72.0165C212.581 73.0351 211.983 73.4513 211.266 73.4513C210.691 73.4513 210.245 73.2432 209.897 72.838L209.539 73.4513ZM212.581 70.4613C212.385 70.9213 211.897 71.3375 211.397 71.3375C210.538 71.3375 210.136 70.4394 210.136 69.3003C210.136 68.1613 210.538 67.2522 211.397 67.2522C211.897 67.2522 212.385 67.6575 212.581 68.1175V70.4613Z" fill="white"/>
<path d="M215.162 65.7956C215.455 65.7956 215.694 65.5546 215.694 65.2589C215.694 64.9632 215.455 64.7222 215.162 64.7222C214.879 64.7222 214.629 64.9632 214.629 65.2589C214.629 65.5546 214.879 65.7956 215.162 65.7956ZM215.553 71.9727V66.6827H214.781V71.9727H215.553Z" fill="white"/>
<path d="M220.856 71.9727V71.1951H217.727L220.78 65.3903V64.6675H216.706V65.4341H219.748L216.706 71.2389V71.9727H220.856Z" fill="white"/>
<path d="M229.09 71.9727L226.916 64.6675H225.884L223.711 71.9727H224.613L225.08 70.3189H227.721L228.188 71.9727H229.09ZM227.536 69.5522H225.265L226.395 65.4999L227.536 69.5522Z" fill="white"/>
<path d="M234.457 71.9727L235.858 66.6827H235.043L234.011 70.9103L232.892 66.6827H232.153L231.045 70.9103L230.024 66.6827H229.209L230.61 71.9727H231.404L232.534 67.7232L233.653 71.9727H234.457Z" fill="white"/>
<path d="M240.19 71.9727V68.2708C240.19 67.0661 239.495 66.5513 238.452 66.5513C237.789 66.5513 237.17 66.7922 236.67 67.318L237.018 67.8765C237.42 67.4165 237.843 67.2303 238.332 67.2303C239.017 67.2303 239.408 67.6356 239.408 68.3584V69.2784C239.082 68.8075 238.56 68.5994 238.028 68.5994C237.17 68.5994 236.442 69.2346 236.442 70.3408C236.442 71.447 237.18 72.1041 238.028 72.1041C238.56 72.1041 239.071 71.8851 239.408 71.4032V71.9727H240.19ZM239.408 70.8665C239.169 71.3046 238.734 71.5346 238.278 71.5346C237.626 71.5346 237.235 71.0089 237.235 70.3518C237.235 69.6946 237.626 69.1799 238.278 69.1799C238.734 69.1799 239.169 69.4099 239.408 69.8589V70.8665Z" fill="white"/>
<path d="M242.387 71.9727V68.2161C242.604 67.778 243.136 67.3508 243.615 67.3508C243.701 67.3508 243.788 67.3618 243.875 67.3837V66.5732C243.234 66.5732 242.724 66.9675 242.387 67.5261V66.6827H241.615V71.9727H242.387Z" fill="white"/>
<path d="M248.558 71.9727V64.6675H247.776V67.4494C247.461 66.858 246.929 66.5513 246.396 66.5513C245.212 66.5513 244.516 67.6903 244.516 69.3332C244.516 70.998 245.223 72.1041 246.396 72.1041C246.95 72.1041 247.472 71.7537 247.776 71.217V71.9727H248.558ZM247.776 70.5489C247.58 71.0089 247.092 71.4032 246.592 71.4032C245.733 71.4032 245.331 70.4722 245.331 69.3332C245.331 68.1832 245.733 67.2522 246.592 67.2522C247.092 67.2522 247.58 67.6575 247.776 68.1175V70.5489Z" fill="white"/>
<path d="M249.574 71.3594C250.008 71.8632 250.606 72.1041 251.345 72.1041C252.421 72.1041 253.094 71.4689 253.094 70.5927C253.094 69.5084 252.247 69.1799 251.519 68.8841C250.965 68.6541 250.476 68.4351 250.476 67.9313C250.476 67.5041 250.834 67.1865 251.41 67.1865C251.921 67.1865 252.366 67.4165 252.627 67.767L252.996 67.2303C252.627 66.8251 252.095 66.5513 251.399 66.5513C250.356 66.5513 249.726 67.1865 249.726 67.9751C249.726 68.9937 250.53 69.3113 251.247 69.5961C251.823 69.837 252.344 70.067 252.344 70.6365C252.344 71.1403 251.942 71.4689 251.334 71.4689C250.769 71.4689 250.269 71.1732 249.965 70.8008L249.574 71.3594Z" fill="white"/>
<path d="M221.866 83.7074V82.9298H218.998C220.921 80.6079 221.834 79.5126 221.834 78.286C221.834 77.0155 220.91 76.2926 219.802 76.2926C218.878 76.2926 218.172 76.7198 217.694 77.4646L218.259 77.9903C218.607 77.4098 219.107 77.0703 219.791 77.0703C220.41 77.0703 220.954 77.5084 220.954 78.2969C220.954 79.3593 220.139 80.2465 217.77 82.9955V83.7074H221.866Z" fill="white"/>
<path d="M223.021 80.0603C223.021 81.9331 223.597 83.8388 225.292 83.8388C226.987 83.8388 227.563 81.9331 227.563 80.0603C227.563 78.1874 226.987 76.2926 225.292 76.2926C223.597 76.2926 223.021 78.1874 223.021 80.0603ZM226.682 80.0603C226.682 81.495 226.411 83.0612 225.292 83.0612C224.173 83.0612 223.912 81.495 223.912 80.0603C223.912 78.6146 224.183 77.0703 225.292 77.0703C226.411 77.0703 226.682 78.6146 226.682 80.0603Z" fill="white"/>
<path d="M232.742 83.7074V82.9298H229.874C231.797 80.6079 232.71 79.5126 232.71 78.286C232.71 77.0155 231.786 76.2926 230.678 76.2926C229.754 76.2926 229.048 76.7198 228.57 77.4646L229.135 77.9903C229.483 77.4098 229.982 77.0703 230.667 77.0703C231.286 77.0703 231.829 77.5084 231.829 78.2969C231.829 79.3593 231.015 80.2465 228.646 82.9955V83.7074H232.742Z" fill="white"/>
<path d="M236.048 83.7074V76.4022H235.287L233.549 78.2093L234.071 78.7569L235.19 77.5522V83.7074H236.048Z" fill="white"/>
<path d="M357.478 68.1929C358.619 68.1929 359.238 67.481 359.64 66.6705L358.912 66.331C358.641 66.9553 358.163 67.4153 357.478 67.4153C356.326 67.4153 355.577 66.1448 355.577 64.4143C355.577 62.6838 356.326 61.4134 357.478 61.4134C358.13 61.4134 358.608 61.8076 358.901 62.3991L359.619 62.0596C359.227 61.3038 358.597 60.6357 357.478 60.6357C355.772 60.6357 354.686 62.2238 354.686 64.4143C354.686 66.5938 355.772 68.1929 357.478 68.1929Z" fill="white"/>
<path d="M364.162 68.0615V64.3596C364.162 63.1548 363.467 62.64 362.424 62.64C361.761 62.64 361.142 62.881 360.642 63.4067L360.99 63.9653C361.392 63.5053 361.816 63.3191 362.304 63.3191C362.989 63.3191 363.38 63.7243 363.38 64.4472V65.3672C363.054 64.8962 362.533 64.6881 362 64.6881C361.142 64.6881 360.414 65.3234 360.414 66.4296C360.414 67.5357 361.153 68.1929 362 68.1929C362.533 68.1929 363.043 67.9738 363.38 67.4919V68.0615H364.162ZM363.38 66.9553C363.141 67.3934 362.706 67.6234 362.25 67.6234C361.598 67.6234 361.207 67.0976 361.207 66.4405C361.207 65.7834 361.598 65.2686 362.25 65.2686C362.706 65.2686 363.141 65.4986 363.38 65.9476V66.9553Z" fill="white"/>
<path d="M371.672 68.0615V64.02C371.672 63.0672 371.227 62.64 370.455 62.64C369.825 62.64 369.238 63.1 368.978 63.5819C368.88 63.0234 368.467 62.64 367.793 62.64C367.163 62.64 366.576 63.1329 366.359 63.5272V62.7715H365.588V68.0615H366.359V64.1843C366.587 63.7572 367.033 63.341 367.5 63.341C368.011 63.341 368.239 63.6586 368.239 64.2281V68.0615H369.021V64.1843C369.227 63.7572 369.695 63.341 370.162 63.341C370.662 63.341 370.89 63.6586 370.89 64.2281V68.0615H371.672Z" fill="white"/>
<path d="M373.882 67.2948C374.208 67.8862 374.729 68.1929 375.262 68.1929C376.446 68.1929 377.141 67.0648 377.141 65.411C377.141 63.7462 376.446 62.64 375.262 62.64C374.708 62.64 374.186 62.9905 373.882 63.5272V62.7715H373.11V70.0767H373.882V67.2948ZM376.327 65.411C376.327 66.561 375.924 67.4919 375.066 67.4919C374.577 67.4919 374.088 67.0757 373.882 66.6157V64.1953C374.088 63.7353 374.577 63.341 375.066 63.341C375.924 63.341 376.327 64.2719 376.327 65.411Z" fill="white"/>
<path d="M381.786 68.0615V64.3596C381.786 63.1548 381.091 62.64 380.048 62.64C379.385 62.64 378.766 62.881 378.266 63.4067L378.614 63.9653C379.016 63.5053 379.44 63.3191 379.928 63.3191C380.613 63.3191 381.004 63.7243 381.004 64.4472V65.3672C380.678 64.8962 380.157 64.6881 379.624 64.6881C378.766 64.6881 378.038 65.3234 378.038 66.4296C378.038 67.5357 378.777 68.1929 379.624 68.1929C380.157 68.1929 380.667 67.9738 381.004 67.4919V68.0615H381.786ZM381.004 66.9553C380.765 67.3934 380.33 67.6234 379.874 67.6234C379.222 67.6234 378.831 67.0976 378.831 66.4405C378.831 65.7834 379.222 65.2686 379.874 65.2686C380.33 65.2686 380.765 65.4986 381.004 65.9476V66.9553Z" fill="white"/>
<path d="M383.592 61.8843C383.885 61.8843 384.124 61.6434 384.124 61.3476C384.124 61.0519 383.885 60.811 383.592 60.811C383.309 60.811 383.059 61.0519 383.059 61.3476C383.059 61.6434 383.309 61.8843 383.592 61.8843ZM383.983 68.0615V62.7715H383.212V68.0615H383.983Z" fill="white"/>
<path d="M385.375 69.54C385.875 70.0438 386.418 70.2081 387.124 70.2081C388.222 70.2081 389.2 69.6824 389.2 68.0505V62.7715H388.417V63.5381C388.091 62.9467 387.57 62.64 387.037 62.64C385.853 62.64 385.158 63.7462 385.158 65.3891C385.158 67.0538 385.864 68.1272 387.037 68.1272C387.592 68.1272 388.113 67.7548 388.417 67.2181V68.1053C388.417 69.1238 387.82 69.54 387.103 69.54C386.527 69.54 386.081 69.3319 385.734 68.9267L385.375 69.54ZM388.417 66.55C388.222 67.01 387.733 67.4262 387.233 67.4262C386.375 67.4262 385.973 66.5281 385.973 65.3891C385.973 64.25 386.375 63.341 387.233 63.341C387.733 63.341 388.222 63.7462 388.417 64.2062V66.55Z" fill="white"/>
<path d="M394.236 68.0615V64.0748C394.236 63.1219 393.801 62.64 392.91 62.64C392.28 62.64 391.693 63.0672 391.389 63.5272V62.7715H390.618V68.0615H391.389V64.1843C391.628 63.7462 392.106 63.341 392.617 63.341C393.138 63.341 393.454 63.5929 393.454 64.2938V68.0615H394.236Z" fill="white"/>
<path d="M402.751 68.0615L400.578 60.7562H399.545L397.372 68.0615H398.274L398.741 66.4076H401.382L401.849 68.0615H402.751ZM401.197 65.641H398.926L400.056 61.5886L401.197 65.641Z" fill="white"/>
<path d="M403.128 67.4481C403.563 67.9519 404.16 68.1929 404.899 68.1929C405.975 68.1929 406.648 67.5576 406.648 66.6815C406.648 65.5972 405.801 65.2686 405.073 64.9729C404.519 64.7429 404.03 64.5238 404.03 64.02C404.03 63.5929 404.389 63.2753 404.964 63.2753C405.475 63.2753 405.92 63.5053 406.181 63.8557L406.551 63.3191C406.181 62.9138 405.649 62.64 404.954 62.64C403.91 62.64 403.28 63.2753 403.28 64.0638C403.28 65.0824 404.084 65.4 404.801 65.6848C405.377 65.9257 405.899 66.1557 405.899 66.7253C405.899 67.2291 405.497 67.5576 404.888 67.5576C404.323 67.5576 403.824 67.2619 403.519 66.8896L403.128 67.4481Z" fill="white"/>
<path d="M408.134 61.8843C408.427 61.8843 408.666 61.6434 408.666 61.3476C408.666 61.0519 408.427 60.811 408.134 60.811C407.851 60.811 407.602 61.0519 407.602 61.3476C407.602 61.6434 407.851 61.8843 408.134 61.8843ZM408.525 68.0615V62.7715H407.754V68.0615H408.525Z" fill="white"/>
<path d="M413.437 68.0615V64.3596C413.437 63.1548 412.742 62.64 411.699 62.64C411.036 62.64 410.417 62.881 409.917 63.4067L410.265 63.9653C410.667 63.5053 411.091 63.3191 411.58 63.3191C412.264 63.3191 412.655 63.7243 412.655 64.4472V65.3672C412.329 64.8962 411.808 64.6881 411.275 64.6881C410.417 64.6881 409.689 65.3234 409.689 66.4296C409.689 67.5357 410.428 68.1929 411.275 68.1929C411.808 68.1929 412.318 67.9738 412.655 67.4919V68.0615H413.437ZM412.655 66.9553C412.416 67.3934 411.982 67.6234 411.525 67.6234C410.873 67.6234 410.482 67.0976 410.482 66.4405C410.482 65.7834 410.873 65.2686 411.525 65.2686C411.982 65.2686 412.416 65.4986 412.655 65.9476V66.9553Z" fill="white"/>
<path d="M379.039 79.7961V79.0185H376.17C378.094 76.6966 379.006 75.6014 379.006 74.3747C379.006 73.1042 378.083 72.3814 376.975 72.3814C376.051 72.3814 375.345 72.8085 374.867 73.5533L375.432 74.079C375.779 73.4985 376.279 73.159 376.964 73.159C377.583 73.159 378.126 73.5971 378.126 74.3857C378.126 75.4481 377.311 76.3352 374.943 79.0842V79.7961H379.039Z" fill="white"/>
<path d="M380.193 76.149C380.193 78.0219 380.769 79.9276 382.464 79.9276C384.159 79.9276 384.735 78.0219 384.735 76.149C384.735 74.2761 384.159 72.3814 382.464 72.3814C380.769 72.3814 380.193 74.2761 380.193 76.149ZM383.855 76.149C383.855 77.5838 383.583 79.15 382.464 79.15C381.345 79.15 381.084 77.5838 381.084 76.149C381.084 74.7033 381.356 73.159 382.464 73.159C383.583 73.159 383.855 74.7033 383.855 76.149Z" fill="white"/>
<path d="M387.905 79.7961V72.4909H387.144L385.406 74.2981L385.927 74.8457L387.046 73.6409V79.7961H387.905Z" fill="white"/>
<path d="M389.159 78C389.159 79.1938 390.039 79.9276 391.31 79.9276C392.57 79.9276 393.461 79.1938 393.461 77.989C393.461 77.0252 392.733 76.3023 392.027 76.0285C392.679 75.7876 393.364 75.1742 393.364 74.2433C393.364 72.9728 392.353 72.3814 391.31 72.3814C390.267 72.3814 389.267 72.9728 389.267 74.2433C389.267 75.1742 389.941 75.7876 390.604 76.0285C389.887 76.3023 389.159 77.0252 389.159 78ZM392.494 74.3528C392.494 75.2509 391.593 75.6342 391.31 75.7C391.028 75.6342 390.126 75.2509 390.126 74.3528C390.126 73.619 390.604 73.159 391.31 73.159C392.016 73.159 392.494 73.619 392.494 74.3528ZM392.592 77.8904C392.592 78.69 392.005 79.15 391.31 79.15C390.604 79.15 390.039 78.69 390.039 77.9014C390.039 76.9266 391.006 76.4338 391.31 76.39C391.614 76.4338 392.592 76.9266 392.592 77.8904Z" fill="white"/>
<path d="M512.819 71.9727L510.646 64.6675H509.614L507.441 71.9727H508.343L508.81 70.3189H511.45L511.918 71.9727H512.819ZM511.266 69.5522H508.995L510.125 65.4999L511.266 69.5522Z" fill="white"/>
<path d="M513.197 71.3594C513.631 71.8632 514.229 72.1041 514.968 72.1041C516.044 72.1041 516.717 71.4689 516.717 70.5927C516.717 69.5084 515.87 69.1799 515.142 68.8841C514.588 68.6541 514.099 68.4351 514.099 67.9313C514.099 67.5041 514.457 67.1865 515.033 67.1865C515.544 67.1865 515.989 67.4165 516.25 67.767L516.619 67.2303C516.25 66.8251 515.718 66.5513 515.022 66.5513C513.979 66.5513 513.349 67.1865 513.349 67.9751C513.349 68.9937 514.153 69.3113 514.87 69.5961C515.446 69.837 515.967 70.067 515.967 70.6365C515.967 71.1403 515.565 71.4689 514.957 71.4689C514.392 71.4689 513.892 71.1732 513.588 70.8008L513.197 71.3594Z" fill="white"/>
<path d="M518.203 65.7956C518.496 65.7956 518.735 65.5546 518.735 65.2589C518.735 64.9632 518.496 64.7222 518.203 64.7222C517.92 64.7222 517.67 64.9632 517.67 65.2589C517.67 65.5546 517.92 65.7956 518.203 65.7956ZM518.594 71.9727V66.6827H517.822V71.9727H518.594Z" fill="white"/>
<path d="M523.506 71.9727V68.2708C523.506 67.0661 522.811 66.5513 521.768 66.5513C521.105 66.5513 520.486 66.7922 519.986 67.318L520.334 67.8765C520.736 67.4165 521.159 67.2303 521.648 67.2303C522.333 67.2303 522.724 67.6356 522.724 68.3584V69.2784C522.398 68.8075 521.876 68.5994 521.344 68.5994C520.486 68.5994 519.758 69.2346 519.758 70.3408C519.758 71.447 520.497 72.1041 521.344 72.1041C521.876 72.1041 522.387 71.8851 522.724 71.4032V71.9727H523.506ZM522.724 70.8665C522.485 71.3046 522.05 71.5346 521.594 71.5346C520.942 71.5346 520.551 71.0089 520.551 70.3518C520.551 69.6946 520.942 69.1799 521.594 69.1799C522.05 69.1799 522.485 69.4099 522.724 69.8589V70.8665Z" fill="white"/>
<path d="M531.036 71.9727V71.1951H528.178V68.6213H530.96V67.8546H528.178V65.4341H531.036V64.6675H527.309V71.9727H531.036Z" fill="white"/>
<path d="M534.132 69.6727V68.9718H531.883V69.6727H534.132Z" fill="white"/>
<path d="M534.91 69.3222C534.91 70.8884 535.736 72.1041 537.083 72.1041C537.811 72.1041 538.256 71.8194 538.582 71.4032L538.158 70.8665C537.876 71.2389 537.55 71.4032 537.148 71.4032C536.214 71.4032 535.725 70.4503 535.725 69.3222C535.725 68.1941 536.214 67.2522 537.148 67.2522C537.55 67.2522 537.876 67.4056 538.158 67.7889L538.582 67.2522C538.256 66.847 537.811 66.5513 537.083 66.5513C535.736 66.5513 534.91 67.7561 534.91 69.3222Z" fill="white"/>
<path d="M541.453 72.1041C542.866 72.1041 543.594 70.8118 543.594 69.3222C543.594 67.8327 542.866 66.5513 541.453 66.5513C540.063 66.5513 539.324 67.8327 539.324 69.3222C539.324 70.8118 540.063 72.1041 541.453 72.1041ZM541.453 71.4032C540.551 71.4032 540.139 70.3956 540.139 69.3222C540.139 68.2599 540.551 67.2522 541.453 67.2522C542.377 67.2522 542.779 68.2599 542.779 69.3222C542.779 70.3956 542.377 71.4032 541.453 71.4032Z" fill="white"/>
<path d="M550.847 71.9727V67.9313C550.847 66.9784 550.401 66.5513 549.63 66.5513C549 66.5513 548.413 67.0113 548.152 67.4932C548.055 66.9346 547.642 66.5513 546.968 66.5513C546.338 66.5513 545.751 67.0441 545.534 67.4384V66.6827H544.762V71.9727H545.534V68.0956C545.762 67.6684 546.207 67.2522 546.675 67.2522C547.185 67.2522 547.414 67.5699 547.414 68.1394V71.9727H548.196V68.0956C548.402 67.6684 548.869 67.2522 549.337 67.2522C549.836 67.2522 550.065 67.5699 550.065 68.1394V71.9727H550.847Z" fill="white"/>
<path d="M558.37 71.9727V67.9313C558.37 66.9784 557.924 66.5513 557.153 66.5513C556.523 66.5513 555.936 67.0113 555.675 67.4932C555.577 66.9346 555.165 66.5513 554.491 66.5513C553.861 66.5513 553.274 67.0441 553.057 67.4384V66.6827H552.285V71.9727H553.057V68.0956C553.285 67.6684 553.73 67.2522 554.198 67.2522C554.708 67.2522 554.936 67.5699 554.936 68.1394V71.9727H555.719V68.0956C555.925 67.6684 556.392 67.2522 556.859 67.2522C557.359 67.2522 557.587 67.5699 557.587 68.1394V71.9727H558.37Z" fill="white"/>
<path d="M559.547 69.3222C559.547 70.9432 560.395 72.1041 561.796 72.1041C562.503 72.1041 563.1 71.7865 563.524 71.2608L563.111 70.8008C562.785 71.217 562.318 71.447 561.862 71.447C560.927 71.447 560.384 70.6475 560.351 69.5851H563.752V69.3441C563.752 67.7999 563.057 66.5513 561.677 66.5513C560.351 66.5513 559.547 67.7889 559.547 69.3222ZM561.666 67.2084C562.622 67.2084 562.97 68.1941 562.981 69.0046H560.351C560.373 68.227 560.742 67.2084 561.666 67.2084Z" fill="white"/>
<path d="M565.662 71.9727V68.2161C565.879 67.778 566.412 67.3508 566.89 67.3508C566.977 67.3508 567.064 67.3618 567.15 67.3837V66.5732C566.509 66.5732 565.999 66.9675 565.662 67.5261V66.6827H564.891V71.9727H565.662Z" fill="white"/>
<path d="M567.792 69.3222C567.792 70.8884 568.617 72.1041 569.965 72.1041C570.693 72.1041 571.138 71.8194 571.464 71.4032L571.04 70.8665C570.758 71.2389 570.432 71.4032 570.03 71.4032C569.095 71.4032 568.607 70.4503 568.607 69.3222C568.607 68.1941 569.095 67.2522 570.03 67.2522C570.432 67.2522 570.758 67.4056 571.04 67.7889L571.464 67.2522C571.138 66.847 570.693 66.5513 569.965 66.5513C568.617 66.5513 567.792 67.7561 567.792 69.3222Z" fill="white"/>
<path d="M572.206 69.3222C572.206 70.9432 573.053 72.1041 574.455 72.1041C575.161 72.1041 575.759 71.7865 576.182 71.2608L575.769 70.8008C575.443 71.217 574.976 71.447 574.52 71.447C573.586 71.447 573.042 70.6475 573.01 69.5851H576.41V69.3441C576.41 67.7999 575.715 66.5513 574.335 66.5513C573.01 66.5513 572.206 67.7889 572.206 69.3222ZM574.324 67.2084C575.28 67.2084 575.628 68.1941 575.639 69.0046H573.01C573.031 68.227 573.401 67.2084 574.324 67.2084Z" fill="white"/>
<path d="M532.629 83.7074L530.456 76.4022H529.424L527.251 83.7074H528.153L528.62 82.0536H531.26L531.727 83.7074H532.629ZM531.075 81.2869H528.805L529.935 77.2346L531.075 81.2869Z" fill="white"/>
<path d="M537.996 83.7074L539.398 78.4174H538.583L537.551 82.645L536.432 78.4174H535.693L534.585 82.645L533.563 78.4174H532.748L534.15 83.7074H534.943L536.073 79.4579L537.192 83.7074H537.996Z" fill="white"/>
<path d="M543.73 83.7074V80.0055C543.73 78.8007 543.034 78.286 541.991 78.286C541.329 78.286 540.709 78.5269 540.209 79.0526L540.557 79.6112C540.959 79.1512 541.383 78.965 541.872 78.965C542.556 78.965 542.948 79.3703 542.948 80.0931V81.0131C542.622 80.5422 542.1 80.3341 541.568 80.3341C540.709 80.3341 539.981 80.9693 539.981 82.0755C539.981 83.1817 540.72 83.8388 541.568 83.8388C542.1 83.8388 542.611 83.6198 542.948 83.1379V83.7074H543.73ZM542.948 82.6012C542.708 83.0393 542.274 83.2693 541.818 83.2693C541.166 83.2693 540.774 82.7436 540.774 82.0865C540.774 81.4293 541.166 80.9146 541.818 80.9146C542.274 80.9146 542.708 81.1446 542.948 81.5936V82.6012Z" fill="white"/>
<path d="M545.926 83.7074V79.9507C546.144 79.5126 546.676 79.0855 547.154 79.0855C547.241 79.0855 547.328 79.0965 547.415 79.1184V78.3079C546.774 78.3079 546.263 78.7022 545.926 79.2607V78.4174H545.155V83.7074H545.926Z" fill="white"/>
<path d="M552.098 83.7074V76.4022H551.316V79.1841C551.001 78.5926 550.468 78.286 549.936 78.286C548.752 78.286 548.056 79.425 548.056 81.0679C548.056 82.7326 548.762 83.8388 549.936 83.8388C550.49 83.8388 551.011 83.4884 551.316 82.9517V83.7074H552.098ZM551.316 82.2836C551.12 82.7436 550.631 83.1379 550.131 83.1379C549.273 83.1379 548.871 82.2069 548.871 81.0679C548.871 79.9179 549.273 78.9869 550.131 78.9869C550.631 78.9869 551.12 79.3922 551.316 79.8522V82.2836Z" fill="white"/>
<path d="M553.114 83.0941C553.548 83.5979 554.146 83.8388 554.885 83.8388C555.96 83.8388 556.634 83.2036 556.634 82.3274C556.634 81.2431 555.786 80.9146 555.058 80.6188C554.504 80.3888 554.015 80.1698 554.015 79.666C554.015 79.2388 554.374 78.9212 554.95 78.9212C555.46 78.9212 555.906 79.1512 556.167 79.5017L556.536 78.965C556.167 78.5598 555.634 78.286 554.939 78.286C553.896 78.286 553.266 78.9212 553.266 79.7098C553.266 80.7284 554.07 81.046 554.787 81.3307C555.363 81.5717 555.884 81.8017 555.884 82.3712C555.884 82.875 555.482 83.2036 554.874 83.2036C554.309 83.2036 553.809 82.9079 553.505 82.5355L553.114 83.0941Z" fill="white"/>
</svg>
