<svg width="299" height="244" viewBox="0 0 299 244" fill="none" xmlns="http://www.w3.org/2000/svg">
<path fill-rule="evenodd" clip-rule="evenodd" d="M117.169 66.1066C117.169 66.018 117.169 66.018 117.258 65.9294C117.883 63.1823 118.329 60.4352 118.685 57.5996C120.825 57.7768 123.857 55.207 126.265 51.8396C128.226 49.0039 129.921 45.3707 130.01 42.9781C124.481 44.0415 121.004 47.2316 119.399 50.4218C119.488 47.4975 119.488 44.5732 119.22 41.6489C119.309 41.8261 119.488 42.0034 119.666 42.1806C121.628 41.8261 123.679 38.8132 124.749 35.18C125.64 32.2558 126.265 28.6226 125.64 26.5844C121.093 28.977 118.953 32.6102 118.329 35.8003C117.794 33.0533 117.08 30.3948 116.188 27.825C117.972 27.1161 119.399 23.926 119.844 20.2042C120.201 17.1913 120.112 13.6467 119.22 11.6971C115.118 14.9759 113.692 19.1408 113.87 22.4195C112.8 20.2928 111.552 18.2546 110.125 16.3051C111.462 15.2417 111.819 12.1402 111.195 8.86147C110.749 6.20303 109.679 3.19013 108.431 1.77229C105.845 5.49411 105.756 9.21593 106.647 12.0516C105.488 10.811 104.24 9.57039 102.813 8.4184C102.724 6.82333 101.03 4.69658 98.622 3.0129C96.5711 1.50645 93.896 0.177229 92.1125 0C93.2718 6.46887 98.3544 9.30455 101.386 9.0387C102.278 8.95009 102.367 8.95009 102.902 8.77286V8.68424C104.418 10.0135 105.756 11.4313 107.004 12.8491C107.361 13.6467 107.806 14.3556 108.252 14.8873C106.112 13.6467 102.902 13.0264 99.3353 14.267C100.227 15.7734 102.635 17.3685 104.864 18.4319C107.628 19.7611 110.392 20.2042 111.641 19.318C111.641 19.2294 111.641 19.1408 111.641 19.1408C112.532 20.5586 113.335 22.0651 114.138 23.5715C114.316 24.7235 114.673 25.6983 115.208 26.4072C115.475 26.7616 115.564 27.0275 115.743 27.2047C116.902 30.3062 117.794 33.585 118.418 36.9523C118.329 38.3702 118.507 39.6108 118.864 40.5855C118.953 41.4717 119.042 42.4465 119.042 43.4212C118.329 40.4083 114.94 36.4207 108.877 35.889C109.144 37.7499 110.838 40.3197 112.622 42.3578C114.762 44.8391 117.437 46.5227 119.042 46.0797C119.042 45.991 119.131 45.9024 119.131 45.8138C119.131 47.7633 119.131 49.6242 118.953 51.6624C118.418 53.0802 118.239 54.4981 118.329 55.65C118.418 56.0931 118.418 56.359 118.418 56.6248C118.329 56.9793 118.329 57.3337 118.239 57.7768C118.239 57.6882 118.239 57.6882 118.239 57.5996C118.329 54.3208 115.029 48.9153 107.806 47.9406C107.985 49.8901 109.679 52.7258 111.373 54.9411C113.513 57.5996 116.188 59.5491 117.972 59.2832C117.972 59.1946 117.972 59.1946 118.061 59.1946C117.704 61.41 117.258 63.6254 116.723 65.9294C116.278 67.7903 115.653 69.6512 114.94 71.3349C115.297 67.9675 113.424 62.9165 107.628 60.0808C107.182 62.0303 107.806 65.309 108.787 68.0561C109.947 71.1576 111.73 73.8161 113.424 74.2591C111.641 77.5379 109.322 80.3736 106.647 83.032C107.985 79.9305 107.539 74.3477 102.456 70.0942C101.565 71.8665 101.386 75.2339 101.654 78.0696C102.01 81.2597 103.08 84.0068 104.418 85.0701C101.475 87.64 98.0869 89.9439 94.5201 91.9821C97.0169 89.6781 98.8895 84.2726 95.8577 78.3354C94.3418 79.6646 92.8259 82.5889 92.0234 85.336C90.9533 88.6147 90.9533 91.9821 92.2017 93.2227C89.0808 94.9064 85.7815 96.3242 82.4822 97.6534C84.979 95.4381 86.9407 90.8301 85.1573 85.2474C83.3739 86.2221 81.4122 88.9692 80.1638 91.4504C78.6479 94.3747 78.0237 97.4762 78.8262 98.9826C74.1894 100.666 69.5526 101.996 65.2724 103.059C60.9922 101.996 56.3554 100.666 51.7186 98.9826C52.5211 97.3876 51.8077 94.2861 50.381 91.4504C49.0435 88.8806 47.0817 86.2221 45.3875 85.2474C43.6041 90.9187 45.5658 95.4381 48.0626 97.6534C44.7633 96.3242 41.464 94.9064 38.3431 93.2227C39.5915 91.8935 39.5023 88.6147 38.5214 85.336C37.6297 82.5889 36.203 79.6646 34.6871 78.3354C31.5662 84.2726 33.5279 89.6781 36.0247 91.9821C32.4579 89.9439 29.1586 87.64 26.1268 85.0701C27.5535 84.0068 28.6236 81.1711 28.8911 78.0696C29.1586 75.2339 28.9802 71.8665 28.0885 70.0942C23.0058 74.3477 22.56 79.9305 23.8975 83.032C21.2224 80.3736 18.904 77.4493 17.1206 74.2591C18.8149 73.7274 20.6874 71.1576 21.7575 68.0561C22.7383 65.3977 23.3625 62.1189 22.9167 60.0808C17.1206 62.9165 15.2481 67.9675 15.6047 71.3349C14.8914 69.6512 14.2672 67.7903 13.8213 65.9294C13.2863 63.6254 12.8405 61.41 12.4838 59.1946C12.4838 59.1946 12.4838 59.2832 12.573 59.2832C14.2672 59.5491 17.0315 57.6882 19.1715 54.9411C20.9549 52.7258 22.56 49.8901 22.7383 47.9406C15.5156 48.9153 12.2163 54.3208 12.3055 57.5996C12.3055 57.6882 12.3055 57.7768 12.3055 57.7768C12.2163 57.4223 12.2163 57.0679 12.1271 56.6248C12.1271 56.359 12.2163 56.0931 12.2163 55.65C12.3946 54.4981 12.1271 53.0802 11.5921 51.6624C11.5029 49.7129 11.4138 47.7633 11.4138 45.8138C11.4138 45.9024 11.5029 45.991 11.5029 46.0797C13.108 46.4341 15.7831 44.7504 17.9232 42.3578C19.7066 40.3197 21.4008 37.7499 21.6683 35.889C15.6047 36.4207 12.2163 40.3197 11.5029 43.4212C11.5921 42.4465 11.5921 41.5603 11.6813 40.5855C12.1271 39.6108 12.3055 38.3702 12.1271 36.9523C12.6621 33.585 13.5538 30.3062 14.8022 27.2047C14.9806 27.0275 15.0697 26.7616 15.3372 26.4072C15.8723 25.6983 16.2289 24.6349 16.4073 23.5715C17.1206 22.0651 17.9232 20.5586 18.904 19.1408C18.904 19.2294 18.904 19.2294 18.904 19.318C20.1524 20.2042 23.0058 19.7611 25.6809 18.4319C27.9102 17.3685 30.2286 15.7734 31.2095 14.267C27.6427 13.0264 24.4326 13.6467 22.2925 14.8873C22.7383 14.3556 23.1842 13.6467 23.5409 12.8491C24.7892 11.4313 26.216 10.0135 27.6427 8.68424V8.77286C28.0885 9.0387 28.2669 9.0387 29.1586 9.0387C32.1903 9.30455 37.273 6.46887 38.4322 0C36.6488 0.0886147 33.9738 1.50645 31.9228 3.0129C29.5153 4.69658 27.7319 6.91195 27.7319 8.4184C26.3943 9.57039 25.0568 10.811 23.8975 12.0516C24.7892 9.30455 24.6109 5.49411 22.1141 1.77229C20.7766 3.19013 19.7957 6.20303 19.3499 8.86147C18.7257 12.1402 19.0824 15.2417 20.4199 16.3051C18.9932 18.2546 17.7448 20.2928 16.6748 22.4195C16.8531 19.1408 15.5156 14.9759 11.3246 11.6971C10.4329 13.6467 10.3437 17.1913 10.7004 20.2042C11.1462 23.926 12.573 27.1161 14.3564 27.825C13.3755 30.3948 12.6621 33.0533 12.2163 35.8003C11.5921 32.6102 9.45201 28.977 4.90435 26.5844C4.36933 28.7112 4.90435 32.2558 5.79605 35.18C6.95526 38.8132 9.00616 41.8261 10.8787 42.1806C11.0571 42.0034 11.2354 41.8261 11.3246 41.6489C11.0571 44.5732 11.0571 47.4975 11.1462 50.4218C9.45201 47.2316 6.06356 44.0415 0.53502 42.9781C0.62419 45.3707 2.31842 49.0039 4.28016 51.8396C6.59858 55.2956 9.63035 57.7768 11.8596 57.5996C12.2163 60.3466 12.7513 63.1823 13.2863 65.9294C13.2863 66.018 13.2863 66.018 13.3755 66.1066C11.0571 63.0051 6.50941 60.1694 0 60.7897C0.71336 63.0937 3.38846 66.018 6.06356 68.2333C9.36284 70.8918 13.0188 72.4868 15.0697 71.6893C15.0697 71.6007 15.0697 71.5121 15.0697 71.5121C16.1398 73.9933 17.4773 76.2973 19.1715 78.5126C16.0506 76.5631 11.2354 75.5884 5.70688 77.7151C7.04443 79.7533 10.5221 81.7914 13.643 83.1206C17.5665 84.8043 21.5791 85.2474 23.2734 83.9181C23.2734 83.5637 23.1842 83.2978 23.095 83.032C25.3243 85.336 27.9102 87.4627 30.6745 89.4122C26.9293 88.6147 21.7575 89.5009 17.299 93.7544C19.3499 95.0836 23.3625 95.7039 26.751 95.7039C30.942 95.7039 34.6871 94.6405 35.8463 92.8682C38.2539 94.2861 40.7507 95.6153 43.3366 96.8559C39.5023 96.7673 34.5979 98.451 30.942 103.413C33.1712 104.388 37.1839 104.3 40.6615 103.679C44.7633 102.97 48.2409 101.287 49.1326 99.3371C53.2345 101.021 57.6038 102.527 62.0623 103.768C58.4955 104.565 55.1962 105.274 52.4319 105.717L53.1453 107.224C57.2471 106.515 61.3489 105.629 65.3616 104.654C69.3742 105.717 73.476 106.604 77.5779 107.224L78.2912 105.717C75.5269 105.186 72.2277 104.565 68.6609 103.768C73.1194 102.527 77.3995 101.021 81.5905 99.3371C82.4822 101.287 85.9598 102.97 90.0616 103.679C93.4501 104.211 97.5519 104.3 99.7812 103.413C96.1252 98.451 91.1317 96.7673 87.2974 96.8559C89.8833 95.6153 92.4692 94.2861 94.7877 92.8682C95.9469 94.6405 99.7812 95.7039 103.883 95.7039C107.361 95.7039 111.284 95.0836 113.335 93.7544C108.877 89.4123 103.705 88.6147 99.9595 89.4122C102.724 87.3741 105.31 85.2474 107.539 83.032C107.45 83.2978 107.361 83.5637 107.361 83.9181C109.055 85.2474 113.067 84.8043 116.991 83.1206C120.201 81.7914 123.59 79.6646 124.927 77.7151C119.399 75.5884 114.583 76.5631 111.462 78.5126C113.157 76.2973 114.494 73.9047 115.564 71.5121C115.564 71.6007 115.564 71.6893 115.564 71.6893C117.526 72.4868 121.271 70.9804 124.57 68.2333C127.246 66.018 129.921 63.0937 130.634 60.7897C124.035 60.1694 119.488 63.0051 117.169 66.1066Z" fill="white"/>
<path fill-rule="evenodd" clip-rule="evenodd" d="M110.221 29.7549C112.68 31.659 115.401 32.747 116.806 32.0216C116.894 31.4776 116.806 31.387 116.63 30.4803C115.928 27.4881 111.889 23.408 105.481 24.3147C106.183 26.0374 108.202 28.2135 110.221 29.7549Z" fill="white"/>
<path fill-rule="evenodd" clip-rule="evenodd" d="M12.3826 30.5031C12.2056 31.3251 12.1171 31.5078 12.2056 32.0558C13.6212 32.6951 16.3639 31.6904 18.8412 29.7725C20.8761 28.2199 22.911 26.0279 23.5304 24.2926C17.2487 23.4707 13.0904 27.5805 12.3826 30.5031Z" fill="white"/>
<path d="M39.5737 23.3409V16.9337H41.3017V15.5566H36.2695V16.9337H38.0092V23.3409H39.5737Z" fill="white"/>
<path d="M41.7226 19.4546C41.7226 21.777 42.9369 23.481 44.9685 23.481C47.0117 23.481 48.2259 21.777 48.2259 19.4546C48.2259 17.1438 47.0117 15.4282 44.9685 15.4282C42.9369 15.4282 41.7226 17.1438 41.7226 19.4546ZM46.6264 19.4546C46.6264 20.9368 46.0426 22.0921 44.9685 22.0921C43.906 22.0921 43.3339 20.9368 43.3339 19.4546C43.3339 17.9491 43.906 16.817 44.9685 16.817C46.0426 16.817 46.6264 17.9491 46.6264 19.4546Z" fill="white"/>
<path d="M50.8654 23.3409V20.5166H52.1731C53.7726 20.5166 54.5782 19.3729 54.5782 18.0424C54.5782 16.712 53.7726 15.5566 52.1731 15.5566H49.3009V23.3409H50.8654ZM52.9787 18.0424C52.9787 18.7077 52.5817 19.1628 51.9863 19.1628H50.8654V16.9221H51.9863C52.5817 16.9221 52.9787 17.3655 52.9787 18.0424Z" fill="white"/>
<path d="M60.488 23.3409C62.648 23.3409 63.8739 21.742 63.8739 19.4546C63.8739 17.1671 62.6363 15.5566 60.488 15.5566H57.9777V23.3409H60.488ZM59.5423 16.9337H60.488C61.6672 16.9337 62.2743 17.9141 62.2743 19.4546C62.2743 20.9368 61.6439 21.9638 60.488 21.9638H59.5423V16.9337Z" fill="white"/>
<path d="M66.5088 23.3409V15.5566H64.9443V23.3409H66.5088Z" fill="white"/>
<path d="M67.5708 19.4546C67.5708 21.8704 68.8901 23.481 70.8633 23.481C72.0075 23.481 72.8715 23.0141 73.5253 22.2439V19.0811H70.583V20.4349H72.0542V21.6253C71.809 21.8821 71.3887 22.0921 70.8633 22.0921C69.8708 22.0921 69.182 21.1235 69.182 19.4546C69.182 17.7857 69.8708 16.817 70.8633 16.817C71.5054 16.817 71.9374 17.2372 72.1826 17.7857L73.4552 17.2022C73.0349 16.2335 72.2176 15.4282 70.8633 15.4282C68.8901 15.4282 67.5708 17.0271 67.5708 19.4546Z" fill="white"/>
<path d="M76.2917 23.3409V15.5566H74.7271V23.3409H76.2917Z" fill="white"/>
<path d="M80.5293 23.3409V16.9337H82.2573V15.5566H77.2252V16.9337H78.9648V23.3409H80.5293Z" fill="white"/>
<path d="M88.4428 23.3409L86.131 15.5566H84.2396L81.9278 23.3409H83.5508L83.9127 21.9521H86.458L86.8199 23.3409H88.4428ZM86.1427 20.5866H84.2279L85.1853 16.9454L86.1427 20.5866Z" fill="white"/>
<path d="M93.2848 23.3409V21.9638H90.6695V15.5566H89.1049V23.3409H93.2848Z" fill="white"/>
<path d="M44.7496 35.0115V27.2272H42.6597L41.1419 31.8955L39.6357 27.2272H37.5341V35.0115H39.087V29.6664L40.815 35.0115H41.4571L43.2085 29.6664V35.0115H44.7496Z" fill="white"/>
<path d="M51.9225 35.0115L49.6108 27.2272H47.7193L45.4076 35.0115H47.0305L47.3924 33.6227H49.9377L50.2996 35.0115H51.9225ZM49.6224 32.2573H47.7076L48.665 28.616L49.6224 32.2573Z" fill="white"/>
<path d="M57.9204 35.0115L56.5076 31.9188C57.1498 31.7087 57.862 31.0318 57.862 29.6897C57.862 28.2542 56.9163 27.2272 55.4919 27.2272H52.5846V35.0115H54.1492V32.1872H54.9898L56.1807 35.0115H57.9204ZM56.2624 29.7131C56.2624 30.3783 55.8655 30.8334 55.2583 30.8334H54.1492V28.5927H55.2583C55.8655 28.5927 56.2624 29.0245 56.2624 29.7131Z" fill="white"/>
<path d="M64.7714 35.0115L62.1093 30.8918L64.5962 27.2272H62.7748L60.5798 30.7634V27.2272H59.0153V35.0115H60.5798V32.8291L61.1286 31.9655L62.9266 35.0115H64.7714Z" fill="white"/>
<path d="M69.9289 35.0115V33.6461H67.0333V31.7321H69.8471V30.3783H67.0333V28.5927H69.9289V27.2272H65.4688V35.0115H69.9289Z" fill="white"/>
<path d="M73.9504 35.0115V28.6044H75.6784V27.2272H70.6463V28.6044H72.3859V35.0115H73.9504Z" fill="white"/>
<path d="M78.173 35.0115V27.2272H76.6085V35.0115H78.173Z" fill="white"/>
<path d="M85.2595 35.0115V27.2272H83.695V31.9888L81.138 27.2272H79.5501V35.0115H81.103V30.0515L83.765 35.0115H85.2595Z" fill="white"/>
<path d="M86.3155 31.1252C86.3155 33.541 87.6348 35.1516 89.608 35.1516C90.7522 35.1516 91.6162 34.6847 92.27 33.9145V30.7517H89.3278V32.1055H90.7989V33.2959C90.5537 33.5527 90.1334 33.7628 89.608 33.7628C88.6156 33.7628 87.9267 32.7941 87.9267 31.1252C87.9267 29.4563 88.6156 28.4876 89.608 28.4876C90.2501 28.4876 90.6821 28.9078 90.9273 29.4563L92.2 28.8728C91.7796 27.9041 90.9623 27.0988 89.608 27.0988C87.6348 27.0988 86.3155 28.6977 86.3155 31.1252Z" fill="white"/>
<path d="M52.1392 46.6821L49.8274 38.8978H47.936L45.6242 46.6821H47.2471L47.609 45.2933H50.1543L50.5163 46.6821H52.1392ZM49.8391 43.9279H47.9243L48.8817 40.2866L49.8391 43.9279Z" fill="white"/>
<path d="M52.2352 42.7958C52.2352 45.2116 53.5545 46.8222 55.5277 46.8222C56.6719 46.8222 57.5359 46.3554 58.1897 45.5851V42.4224H55.2475V43.7762H56.7186V44.9666C56.4734 45.2233 56.0531 45.4334 55.5277 45.4334C54.5353 45.4334 53.8464 44.4647 53.8464 42.7958C53.8464 41.1269 54.5353 40.1583 55.5277 40.1583C56.1699 40.1583 56.6019 40.5784 56.847 41.1269L58.1197 40.5434C57.6994 39.5747 56.8821 38.7695 55.5277 38.7695C53.5545 38.7695 52.2352 40.3683 52.2352 42.7958Z" fill="white"/>
<path d="M63.8516 46.6821V45.3167H60.9561V43.4027H63.7699V42.0489H60.9561V40.2633H63.8516V38.8978H59.3916V46.6821H63.8516Z" fill="white"/>
<path d="M70.7221 46.6821V38.8978H69.1575V43.6595L66.6006 38.8978H65.0127V46.6821H66.5656V41.7221L69.2276 46.6821H70.7221Z" fill="white"/>
<path d="M75.0472 46.8222C76.5884 46.8222 77.3006 45.7952 77.6859 44.8615L76.3899 44.3013C76.1681 44.9432 75.7127 45.4334 75.0472 45.4334C74.0198 45.4334 73.3893 44.3247 73.3893 42.7958C73.3893 41.267 74.0198 40.1583 75.0472 40.1583C75.6894 40.1583 76.1447 40.5901 76.3782 41.2086L77.6742 40.6368C77.2772 39.7381 76.565 38.7695 75.0472 38.7695C73.0507 38.7695 71.7781 40.4384 71.7781 42.7958C71.7781 45.1533 73.0507 46.8222 75.0472 46.8222Z" fill="white"/>
<path d="M81.6213 46.6821V43.4727L84.0264 38.8978H82.2985L80.839 42.0256L79.3796 38.8978H77.6516L80.0568 43.4727V46.6821H81.6213Z" fill="white"/>
<path d="M41.7252 58.4928C43.2663 58.4928 43.9785 57.4658 44.3638 56.5321L43.0678 55.972C42.846 56.6138 42.3907 57.104 41.7252 57.104C40.6977 57.104 40.0672 55.9953 40.0672 54.4664C40.0672 52.9376 40.6977 51.8289 41.7252 51.8289C42.3673 51.8289 42.8227 52.2607 43.0562 52.8792L44.3522 52.3074C43.9552 51.4087 43.243 50.4401 41.7252 50.4401C39.7286 50.4401 38.456 52.109 38.456 54.4664C38.456 56.8239 39.7286 58.4928 41.7252 58.4928Z" fill="white"/>
<path d="M44.9665 54.4664C44.9665 56.7889 46.1807 58.4928 48.2123 58.4928C50.2555 58.4928 51.4698 56.7889 51.4698 54.4664C51.4698 52.1557 50.2555 50.4401 48.2123 50.4401C46.1807 50.4401 44.9665 52.1557 44.9665 54.4664ZM49.8702 54.4664C49.8702 55.9486 49.2864 57.104 48.2123 57.104C47.1498 57.104 46.5777 55.9486 46.5777 54.4664C46.5777 52.9609 47.1498 51.8289 48.2123 51.8289C49.2864 51.8289 49.8702 52.9609 49.8702 54.4664Z" fill="white"/>
<path d="M59.7602 58.3528V50.5685H57.6703L56.1525 55.2367L54.6463 50.5685H52.5447V58.3528H54.0976V53.0076L55.8256 58.3528H56.4677L58.2191 53.0076V58.3528H59.7602Z" fill="white"/>
<path d="M62.6949 58.3528V55.5285H64.0026C65.6021 55.5285 66.4077 54.3848 66.4077 53.0543C66.4077 51.7239 65.6021 50.5685 64.0026 50.5685H61.1304V58.3528H62.6949ZM64.8082 53.0543C64.8082 53.7195 64.4112 54.1747 63.8157 54.1747H62.6949V51.9339H63.8157C64.4112 51.9339 64.8082 52.3774 64.8082 53.0543Z" fill="white"/>
<path d="M72.5657 58.3528L70.2539 50.5685H68.3625L66.0507 58.3528H67.6736L68.0355 56.964H70.5808L70.9428 58.3528H72.5657ZM70.2656 55.5985H68.3508L69.3082 51.9573L70.2656 55.5985Z" fill="white"/>
<path d="M78.9371 58.3528V50.5685H77.3726V55.3301L74.8157 50.5685H73.2278V58.3528H74.7806V53.3927L77.4427 58.3528H78.9371Z" fill="white"/>
<path d="M81.8729 58.3528V50.5685H80.3084V58.3528H81.8729Z" fill="white"/>
<path d="M87.7101 58.3528V56.9873H84.8146V55.0733H87.6284V53.7195H84.8146V51.9339H87.7101V50.5685H83.2501V58.3528H87.7101Z" fill="white"/>
<path d="M88.3691 57.4891C88.9879 58.1077 89.8519 58.4928 91.0312 58.4928C92.7358 58.4928 93.6698 57.4891 93.6698 56.1237C93.6698 54.5832 92.4439 54.0696 91.4398 53.6728C90.7393 53.3811 90.2022 53.136 90.2022 52.6108C90.2022 52.144 90.5525 51.8172 91.1363 51.8172C91.72 51.8172 92.3155 52.0273 92.7825 52.4708L93.5297 51.3037C92.9343 50.7435 92.117 50.4401 91.1713 50.4401C89.5601 50.4401 88.6027 51.4788 88.6027 52.7042C88.6027 54.2447 89.8286 54.7115 90.8093 55.0967C91.5215 55.4001 92.082 55.6568 92.082 56.252C92.082 56.7305 91.7084 57.1157 91.0078 57.1157C90.2489 57.1157 89.5717 56.7656 89.1397 56.2871L88.3691 57.4891Z" fill="white"/>
<path d="M35.8936 71.6052C36.9663 71.6052 37.5486 70.9415 37.9266 70.1858L37.2421 69.8692C36.9867 70.4513 36.5372 70.8802 35.8936 70.8802C34.8107 70.8802 34.1058 69.6956 34.1058 68.0821C34.1058 66.4687 34.8107 65.2841 35.8936 65.2841C36.5066 65.2841 36.9561 65.6517 37.2319 66.2032L37.9062 65.8866C37.5384 65.182 36.9459 64.5591 35.8936 64.5591C34.2897 64.5591 33.2681 66.0398 33.2681 68.0821C33.2681 70.1143 34.2897 71.6052 35.8936 71.6052Z" fill="white"/>
<path d="M39.7676 71.4827V64.6714H38.9503V71.4827H39.7676Z" fill="white"/>
<path d="M40.9601 68.0821C40.9601 70.053 41.8795 71.6052 43.5345 71.6052C45.1895 71.6052 46.1192 70.053 46.1192 68.0821C46.1192 66.1113 45.1895 64.5591 43.5345 64.5591C41.8795 64.5591 40.9601 66.1113 40.9601 68.0821ZM45.2815 68.0821C45.2815 69.6343 44.6685 70.8802 43.5345 70.8802C42.4108 70.8802 41.7978 69.6343 41.7978 68.0821C41.7978 66.5095 42.4108 65.2841 43.5345 65.2841C44.6685 65.2841 45.2815 66.5095 45.2815 68.0821Z" fill="white"/>
<path d="M53.9292 71.4827L51.886 64.6714H50.9154L48.8722 71.4827H49.7201L50.1594 69.9407H52.642L53.0812 71.4827H53.9292ZM52.4683 69.2259H50.3331L51.3956 65.4475L52.4683 69.2259Z" fill="white"/>
<path d="M58.2178 71.4827V64.6714H57.4822V67.2652C57.186 66.7138 56.6854 66.4278 56.1848 66.4278C55.0712 66.4278 54.4174 67.4899 54.4174 69.0216C54.4174 70.5738 55.0814 71.6052 56.1848 71.6052C56.7058 71.6052 57.1962 71.2784 57.4822 70.7781V71.4827H58.2178ZM57.4822 70.1551C57.2983 70.584 56.8386 70.9517 56.3687 70.9517C55.5616 70.9517 55.1836 70.0837 55.1836 69.0216C55.1836 67.9494 55.5616 67.0814 56.3687 67.0814C56.8386 67.0814 57.2983 67.4592 57.4822 67.8881V70.1551Z" fill="white"/>
<path d="M61.3794 71.4827L63.0037 66.5504H62.2171L60.9809 70.6147L59.755 66.5504H58.9581L60.5723 71.4827H61.3794Z" fill="white"/>
<path d="M64.0989 65.7232C64.3748 65.7232 64.5995 65.4986 64.5995 65.2228C64.5995 64.9471 64.3748 64.7225 64.0989 64.7225C63.8333 64.7225 63.5983 64.9471 63.5983 65.2228C63.5983 65.4986 63.8333 65.7232 64.0989 65.7232ZM64.4667 71.4827V66.5504H63.7414V71.4827H64.4667Z" fill="white"/>
<path d="M65.4181 70.9108C65.8267 71.3806 66.3886 71.6052 67.0833 71.6052C68.0947 71.6052 68.7281 71.0129 68.7281 70.196C68.7281 69.185 67.9312 68.8787 67.2467 68.603C66.7257 68.3885 66.266 68.1843 66.266 67.7145C66.266 67.3163 66.6031 67.0201 67.1446 67.0201C67.6247 67.0201 68.0436 67.2346 68.2888 67.5613L68.6361 67.061C68.2888 66.6831 67.7882 66.4278 67.1344 66.4278C66.1536 66.4278 65.5611 67.0201 65.5611 67.7554C65.5611 68.7051 66.3171 69.0012 66.9913 69.2667C67.5328 69.4914 68.0232 69.7058 68.0232 70.2368C68.0232 70.7066 67.6452 71.0129 67.0731 71.0129C66.5418 71.0129 66.0719 70.7372 65.7858 70.39L65.4181 70.9108Z" fill="white"/>
<path d="M71.5244 71.6052C72.8525 71.6052 73.537 70.4002 73.537 69.0114C73.537 67.6226 72.8525 66.4278 71.5244 66.4278C70.2168 66.4278 69.5221 67.6226 69.5221 69.0114C69.5221 70.4002 70.2168 71.6052 71.5244 71.6052ZM71.5244 70.9517C70.6765 70.9517 70.2883 70.0122 70.2883 69.0114C70.2883 68.0209 70.6765 67.0814 71.5244 67.0814C72.3928 67.0814 72.7708 68.0209 72.7708 69.0114C72.7708 70.0122 72.3928 70.9517 71.5244 70.9517Z" fill="white"/>
<path d="M75.3612 71.4827V67.98C75.5655 67.5716 76.0661 67.1733 76.5156 67.1733C76.5974 67.1733 76.6791 67.1835 76.7608 67.2039V66.4483C76.1581 66.4483 75.6779 66.8159 75.3612 67.3367V66.5504H74.6359V71.4827H75.3612Z" fill="white"/>
<path d="M84.2682 71.4827L82.225 64.6714H81.2545L79.2112 71.4827H80.0592L80.4985 69.9407H82.981L83.4203 71.4827H84.2682ZM82.8073 69.2259H80.6721L81.7346 65.4475L82.8073 69.2259Z" fill="white"/>
<path d="M85.8797 71.4827V68.7561H87.1363C88.3725 68.7561 89.0161 67.8166 89.0161 66.7138C89.0161 65.6109 88.3827 64.6714 87.1363 64.6714H85.0624V71.4827H85.8797ZM88.1784 66.7138C88.1784 67.4899 87.7595 68.0413 87.0546 68.0413H85.8797V65.3862H87.0546C87.7595 65.3862 88.1784 65.9377 88.1784 66.7138Z" fill="white"/>
<path d="M93.9655 71.4827L91.9223 64.6714H90.9518L88.9086 71.4827H89.7565L90.1958 69.9407H92.6783L93.1176 71.4827H93.9655ZM92.5046 69.2259H90.3695L91.4319 65.4475L92.5046 69.2259Z" fill="white"/>
<path d="M96.9508 71.6052C98.0235 71.6052 98.6058 70.9415 98.9838 70.1858L98.2993 69.8692C98.0439 70.4513 97.5944 70.8802 96.9508 70.8802C95.8679 70.8802 95.163 69.6956 95.163 68.0821C95.163 66.4687 95.8679 65.2841 96.9508 65.2841C97.5638 65.2841 98.0133 65.6517 98.2891 66.2032L98.9634 65.8866C98.5956 65.182 98.0031 64.5591 96.9508 64.5591C95.3469 64.5591 94.3253 66.0398 94.3253 68.0821C94.3253 70.1143 95.3469 71.6052 96.9508 71.6052Z" fill="white"/>
<path d="M61.2096 82.4239V81.6988H58.5126C60.3208 79.5339 61.179 78.5128 61.179 77.369C61.179 76.1845 60.3106 75.5105 59.2686 75.5105C58.4002 75.5105 57.7362 75.9088 57.2866 76.6032L57.8179 77.0933C58.1448 76.5521 58.6147 76.2355 59.2584 76.2355C59.8407 76.2355 60.3515 76.644 60.3515 77.3793C60.3515 78.3698 59.5853 79.197 57.3582 81.7601V82.4239H61.2096Z" fill="white"/>
<path d="M62.2952 79.0234C62.2952 80.7696 62.8366 82.5464 64.4303 82.5464C66.0241 82.5464 66.5655 80.7696 66.5655 79.0234C66.5655 77.2771 66.0241 75.5105 64.4303 75.5105C62.8366 75.5105 62.2952 77.2771 62.2952 79.0234ZM65.738 79.0234C65.738 80.3611 65.4826 81.8214 64.4303 81.8214C63.3781 81.8214 63.1329 80.3611 63.1329 79.0234C63.1329 77.6754 63.3883 76.2355 64.4303 76.2355C65.4826 76.2355 65.738 77.6754 65.738 79.0234Z" fill="white"/>
<path d="M71.4357 82.4239V81.6988H68.7387C70.5469 79.5339 71.4051 78.5128 71.4051 77.369C71.4051 76.1845 70.5367 75.5105 69.4947 75.5105C68.6263 75.5105 67.9622 75.9088 67.5127 76.6032L68.044 77.0933C68.3709 76.5521 68.8408 76.2355 69.4844 76.2355C70.0668 76.2355 70.5776 76.644 70.5776 77.3793C70.5776 78.3698 69.8114 79.197 67.5842 81.7601V82.4239H71.4357Z" fill="white"/>
<path d="M74.544 82.4239V75.6126H73.8289L72.1943 77.2976L72.6847 77.8081L73.737 76.6849V82.4239H74.544Z" fill="white"/>
<path fill-rule="evenodd" clip-rule="evenodd" d="M181.387 30.5031C181.21 31.3251 181.122 31.5078 181.21 32.0558C182.626 32.6951 185.369 31.6904 187.846 29.7725C189.881 28.2199 191.916 26.0279 192.535 24.2926C186.254 23.4707 182.095 27.5805 181.387 30.5031Z" fill="white"/>
<path fill-rule="evenodd" clip-rule="evenodd" d="M285.363 66.1066C285.363 66.018 285.363 66.018 285.452 65.9294C286.077 63.1823 286.522 60.4352 286.879 57.5996C289.019 57.7768 292.051 55.207 294.458 51.8396C296.42 49.0039 298.114 45.3707 298.204 42.9781C292.675 44.0415 289.197 47.2316 287.592 50.4218C287.682 47.4975 287.682 44.5732 287.414 41.6489C287.503 41.8261 287.682 42.0034 287.86 42.1806C289.822 41.8261 291.873 38.8132 292.943 35.18C293.834 32.2558 294.458 28.6226 293.834 26.5844C289.287 28.977 287.147 32.6102 286.522 35.8003C285.987 33.0533 285.274 30.3948 284.382 27.825C286.166 27.1161 287.592 23.926 288.038 20.2042C288.395 17.1913 288.306 13.6467 287.414 11.6971C283.312 14.9759 281.886 19.1408 282.064 22.4195C280.994 20.2928 279.745 18.2546 278.319 16.3051C279.656 15.2417 280.013 12.1402 279.389 8.86147C278.943 6.20303 277.873 3.19013 276.624 1.77229C274.039 5.49411 273.949 9.21593 274.841 12.0516C273.682 10.811 272.434 9.57039 271.007 8.4184C270.918 6.82333 269.223 4.69658 266.816 3.0129C264.765 1.50645 262.09 0.177229 260.306 0C261.466 6.46887 266.548 9.30455 269.58 9.0387C270.472 8.95009 270.561 8.95009 271.096 8.77286V8.68424C272.612 10.0135 273.949 11.4313 275.198 12.8491C275.554 13.6467 276 14.3556 276.446 14.8873C274.306 13.6467 271.096 13.0264 267.529 14.267C268.421 15.7734 270.828 17.3685 273.058 18.4319C275.822 19.7611 278.586 20.2042 279.835 19.318C279.835 19.2294 279.835 19.1408 279.835 19.1408C280.726 20.5586 281.529 22.0651 282.331 23.5715C282.51 24.7235 282.866 25.6983 283.401 26.4072C283.669 26.7616 283.758 27.0275 283.936 27.2047C285.096 30.3062 285.987 33.585 286.612 36.9523C286.522 38.3702 286.701 39.6108 287.057 40.5855C287.147 41.4717 287.236 42.4465 287.236 43.4212C286.522 40.4083 283.134 36.4207 277.07 35.889C277.338 37.7499 279.032 40.3197 280.815 42.3578C282.956 44.8391 285.631 46.5227 287.236 46.0797C287.236 45.991 287.325 45.9024 287.325 45.8138C287.325 47.7633 287.325 49.6242 287.147 51.6624C286.612 53.0802 286.433 54.4981 286.522 55.65C286.612 56.0931 286.612 56.359 286.612 56.6248C286.522 56.9793 286.522 57.3337 286.433 57.7768C286.433 57.6882 286.433 57.6882 286.433 57.5996C286.522 54.3208 283.223 48.9153 276 47.9406C276.179 49.8901 277.873 52.7258 279.567 54.9411C281.707 57.5996 284.382 59.5491 286.166 59.2832C286.166 59.1946 286.166 59.1946 286.255 59.1946C285.898 61.41 285.452 63.6254 284.917 65.9294C284.471 67.7903 283.847 69.6512 283.134 71.3349C283.491 67.9675 281.618 62.9165 275.822 60.0808C275.376 62.0303 276 65.309 276.981 68.0561C278.14 71.1576 279.924 73.8161 281.618 74.2591C279.835 77.5379 277.516 80.3736 274.841 83.032C276.179 79.9305 275.733 74.3477 270.65 70.0942C269.758 71.8665 269.58 75.2339 269.848 78.0696C270.204 81.2597 271.274 84.0068 272.612 85.0701C269.669 87.64 266.281 89.9439 262.714 91.9821C265.211 89.6781 267.083 84.2726 264.052 78.3354C262.536 79.6646 261.02 82.5889 260.217 85.336C259.147 88.6147 259.147 91.9821 260.396 93.2227C257.275 94.9064 253.975 96.3242 250.676 97.6534C253.173 95.4381 255.135 90.8301 253.351 85.2474C251.568 86.2221 249.606 88.9692 248.358 91.4504C246.842 94.3747 246.218 97.4762 247.02 98.9826C242.383 100.666 237.746 101.996 233.466 103.059C229.186 101.996 224.549 100.666 219.912 98.9826C220.715 97.3876 220.002 94.2861 218.575 91.4504C217.237 88.8806 215.276 86.2221 213.581 85.2474C211.798 90.9187 213.76 95.4381 216.256 97.6534C212.957 96.3242 209.658 94.9064 206.537 93.2227C207.785 91.8935 207.696 88.6147 206.715 85.336C205.824 82.5889 204.397 79.6646 202.881 78.3354C199.76 84.2726 201.722 89.6781 204.219 91.9821C200.652 89.9439 197.352 87.64 194.321 85.0701C195.747 84.0068 196.817 81.1711 197.085 78.0696C197.352 75.2339 197.174 71.8665 196.282 70.0942C191.2 74.3477 190.754 79.9305 192.091 83.032C189.416 80.3736 187.098 77.4493 185.314 74.2591C187.009 73.7274 188.881 71.1576 189.951 68.0561C190.932 65.3977 191.556 62.1189 191.111 60.0808C185.314 62.9165 183.442 67.9675 183.799 71.3349C183.085 69.6512 182.461 67.7903 182.015 65.9294C181.48 63.6254 181.034 61.41 180.678 59.1946C180.678 59.1946 180.678 59.2832 180.767 59.2832C182.461 59.5491 185.225 57.6882 187.365 54.9411C189.149 52.7258 190.754 49.8901 190.932 47.9406C183.709 48.9153 180.41 54.3208 180.499 57.5996C180.499 57.6882 180.499 57.7768 180.499 57.7768C180.41 57.4223 180.41 57.0679 180.321 56.6248C180.321 56.359 180.41 56.0931 180.41 55.65C180.588 54.4981 180.321 53.0802 179.786 51.6624C179.697 49.7129 179.608 47.7633 179.608 45.8138C179.608 45.9024 179.697 45.991 179.697 46.0797C181.302 46.4341 183.977 44.7504 186.117 42.3578C187.9 40.3197 189.595 37.7499 189.862 35.889C183.799 36.4207 180.41 40.3197 179.697 43.4212C179.786 42.4465 179.786 41.5603 179.875 40.5855C180.321 39.6108 180.499 38.3702 180.321 36.9523C180.856 33.585 181.748 30.3062 182.996 27.2047C183.174 27.0275 183.264 26.7616 183.531 26.4072C184.066 25.6983 184.423 24.6349 184.601 23.5715C185.314 22.0651 186.117 20.5586 187.098 19.1408C187.098 19.2294 187.098 19.2294 187.098 19.318C188.346 20.2042 191.2 19.7611 193.875 18.4319C196.104 17.3685 198.422 15.7734 199.403 14.267C195.837 13.0264 192.626 13.6467 190.486 14.8873C190.932 14.3556 191.378 13.6467 191.735 12.8491C192.983 11.4313 194.41 10.0135 195.837 8.68424V8.77286C196.282 9.0387 196.461 9.0387 197.352 9.0387C200.384 9.30455 205.467 6.46887 206.626 0C204.843 0.0886147 202.168 1.50645 200.117 3.0129C197.709 4.69658 195.926 6.91195 195.926 8.4184C194.588 9.57039 193.251 10.811 192.091 12.0516C192.983 9.30455 192.805 5.49411 190.308 1.77229C188.97 3.19013 187.99 6.20303 187.544 8.86147C186.92 12.1402 187.276 15.2417 188.614 16.3051C187.187 18.2546 185.939 20.2928 184.869 22.4195C185.047 19.1408 183.709 14.9759 179.518 11.6971C178.627 13.6467 178.538 17.1913 178.894 20.2042C179.34 23.926 180.767 27.1161 182.55 27.825C181.569 30.3948 180.856 33.0533 180.41 35.8003C179.786 32.6102 177.646 28.977 173.098 26.5844C172.563 28.7112 173.098 32.2558 173.99 35.18C175.149 38.8132 177.2 41.8261 179.073 42.1806C179.251 42.0034 179.429 41.8261 179.518 41.6489C179.251 44.5732 179.251 47.4975 179.34 50.4218C177.646 47.2316 174.257 44.0415 168.729 42.9781C168.818 45.3707 170.512 49.0039 172.474 51.8396C174.792 55.2956 177.824 57.7768 180.053 57.5996C180.41 60.3466 180.945 63.1823 181.48 65.9294C181.48 66.018 181.48 66.018 181.569 66.1066C179.251 63.0051 174.703 60.1694 168.194 60.7897C168.907 63.0937 171.582 66.018 174.257 68.2333C177.557 70.8918 181.213 72.4868 183.264 71.6893C183.264 71.6007 183.264 71.5121 183.264 71.5121C184.334 73.9933 185.671 76.2973 187.365 78.5126C184.244 76.5631 179.429 75.5884 173.901 77.7151C175.238 79.7533 178.716 81.7914 181.837 83.1206C185.76 84.8043 189.773 85.2474 191.467 83.9181C191.467 83.5637 191.378 83.2978 191.289 83.032C193.518 85.336 196.104 87.4627 198.868 89.4122C195.123 88.6147 189.951 89.5009 185.493 93.7544C187.544 95.0836 191.556 95.7039 194.945 95.7039C199.136 95.7039 202.881 94.6405 204.04 92.8682C206.448 94.2861 208.945 95.6153 211.53 96.8559C207.696 96.7673 202.792 98.451 199.136 103.413C201.365 104.388 205.378 104.3 208.855 103.679C212.957 102.97 216.435 101.287 217.326 99.3371C221.428 101.021 225.798 102.527 230.256 103.768C226.689 104.565 223.39 105.274 220.626 105.717L221.339 107.224C225.441 106.515 229.543 105.629 233.555 104.654C237.568 105.717 241.67 106.604 245.772 107.224L246.485 105.717C243.721 105.186 240.422 104.565 236.855 103.768C241.313 102.527 245.593 101.021 249.784 99.3371C250.676 101.287 254.154 102.97 258.255 103.679C261.644 104.211 265.746 104.3 267.975 103.413C264.319 98.451 259.326 96.7673 255.491 96.8559C258.077 95.6153 260.663 94.2861 262.981 92.8682C264.141 94.6405 267.975 95.7039 272.077 95.7039C275.554 95.7039 279.478 95.0836 281.529 93.7544C277.07 89.4123 271.898 88.6147 268.153 89.4122C270.918 87.3741 273.504 85.2474 275.733 83.032C275.644 83.2978 275.554 83.5637 275.554 83.9181C277.249 85.2474 281.261 84.8043 285.185 83.1206C288.395 81.7914 291.783 79.6646 293.121 77.7151C287.592 75.5884 282.777 76.5631 279.656 78.5126C281.35 76.2973 282.688 73.9047 283.758 71.5121C283.758 71.6007 283.758 71.6893 283.758 71.6893C285.72 72.4868 289.465 70.9804 292.764 68.2333C295.439 66.018 298.114 63.0937 298.828 60.7897C292.229 60.1694 287.682 63.0051 285.363 66.1066Z" fill="white"/>
<path fill-rule="evenodd" clip-rule="evenodd" d="M277.604 29.7549C280.062 31.659 282.784 32.747 284.188 32.0216C284.276 31.4776 284.188 31.387 284.013 30.4803C283.31 27.4881 279.272 23.408 272.863 24.3147C273.566 26.0374 275.585 28.2135 277.604 29.7549Z" fill="white"/>
<path d="M215.49 39.3883C216.903 39.3883 217.568 38.4663 217.568 37.2876C217.568 36.3189 216.984 35.5019 216.191 35.3736C216.903 35.1985 217.44 34.5683 217.44 33.588C217.44 32.5259 216.774 31.604 215.385 31.604H212.162V39.3883H215.49ZM213.727 32.9344H215.011C215.572 32.9344 215.84 33.3312 215.84 33.8564C215.84 34.3816 215.572 34.7667 215.011 34.7667H213.727V32.9344ZM213.727 36.0972H215.07C215.665 36.0972 215.969 36.5406 215.969 37.0775C215.969 37.6844 215.653 38.0578 215.07 38.0578H213.727V36.0972Z" fill="white"/>
<path d="M223.122 39.3883V38.0228H220.226V36.1088H223.04V34.755H220.226V32.9694H223.122V31.604H218.662V39.3883H223.122Z" fill="white"/>
<path d="M223.781 38.5246C224.399 39.1432 225.263 39.5283 226.443 39.5283C228.147 39.5283 229.081 38.5246 229.081 37.1592C229.081 35.6187 227.855 35.1051 226.851 34.7083C226.151 34.4166 225.614 34.1715 225.614 33.6463C225.614 33.1795 225.964 32.8527 226.548 32.8527C227.132 32.8527 227.727 33.0628 228.194 33.5063L228.941 32.3392C228.346 31.779 227.529 31.4756 226.583 31.4756C224.972 31.4756 224.014 32.5143 224.014 33.7397C224.014 35.2802 225.24 35.747 226.221 36.1322C226.933 36.4356 227.493 36.6924 227.493 37.2876C227.493 37.766 227.12 38.1512 226.419 38.1512C225.66 38.1512 224.983 37.8011 224.551 37.3226L223.781 38.5246Z" fill="white"/>
<path d="M232.856 39.3883V32.9811H234.584V31.604H229.551V32.9811H231.291V39.3883H232.856Z" fill="white"/>
<path d="M237.463 38.5246C238.082 39.1432 238.946 39.5283 240.125 39.5283C241.83 39.5283 242.764 38.5246 242.764 37.1592C242.764 35.6187 241.538 35.1051 240.534 34.7083C239.833 34.4166 239.296 34.1715 239.296 33.6463C239.296 33.1795 239.646 32.8527 240.23 32.8527C240.814 32.8527 241.409 33.0628 241.876 33.5063L242.624 32.3392C242.028 31.779 241.211 31.4756 240.265 31.4756C238.654 31.4756 237.696 32.5143 237.696 33.7397C237.696 35.2802 238.922 35.747 239.903 36.1322C240.615 36.4356 241.176 36.6924 241.176 37.2876C241.176 37.766 240.802 38.1512 240.102 38.1512C239.343 38.1512 238.666 37.8011 238.234 37.3226L237.463 38.5246Z" fill="white"/>
<path d="M248.24 39.3883V38.0228H245.344V36.1088H248.158V34.755H245.344V32.9694H248.24V31.604H243.78V39.3883H248.24Z" fill="white"/>
<path d="M249.086 35.5019C249.086 37.8244 250.3 39.5283 252.332 39.5283C254.375 39.5283 255.589 37.8244 255.589 35.5019C255.589 33.1912 254.375 31.4756 252.332 31.4756C250.3 31.4756 249.086 33.1912 249.086 35.5019ZM253.99 35.5019C253.99 36.9841 253.406 38.1395 252.332 38.1395C251.269 38.1395 250.697 36.9841 250.697 35.5019C250.697 33.9964 251.269 32.8644 252.332 32.8644C253.406 32.8644 253.99 33.9964 253.99 35.5019Z" fill="white"/>
<path d="M212.123 51.1989C213.665 51.1989 214.377 50.1719 214.762 49.2383L213.466 48.6781C213.244 49.32 212.789 49.8101 212.123 49.8101C211.096 49.8101 210.465 48.7014 210.465 47.1726C210.465 45.6437 211.096 44.535 212.123 44.535C212.766 44.535 213.221 44.9668 213.454 45.5854L214.75 45.0135C214.353 44.1149 213.641 43.1462 212.123 43.1462C210.127 43.1462 208.854 44.8151 208.854 47.1726C208.854 49.53 210.127 51.1989 212.123 51.1989Z" fill="white"/>
<path d="M221.449 51.0589L219.137 43.2746H217.245L214.934 51.0589H216.556L216.918 49.6701H219.464L219.826 51.0589H221.449ZM219.148 48.3046H217.234L218.191 44.6634L219.148 48.3046Z" fill="white"/>
<path d="M229.326 51.0589V43.2746H227.236L225.718 47.9428L224.212 43.2746H222.111V51.0589H223.663V45.7137L225.391 51.0589H226.034L227.785 45.7137V51.0589H229.326Z" fill="white"/>
<path d="M232.261 51.0589V48.2346H233.568C235.168 48.2346 235.974 47.0909 235.974 45.7604C235.974 44.43 235.168 43.2746 233.568 43.2746H230.696V51.0589H232.261ZM234.374 45.7604C234.374 46.4256 233.977 46.8808 233.382 46.8808H232.261V44.64H233.382C233.977 44.64 234.374 45.0835 234.374 45.7604Z" fill="white"/>
<path d="M242.132 51.0589L239.82 43.2746H237.928L235.617 51.0589H237.24L237.601 49.6701H240.147L240.509 51.0589H242.132ZM239.831 48.3046H237.917L238.874 44.6634L239.831 48.3046Z" fill="white"/>
<path d="M244.358 51.0589V43.2746H242.794V51.0589H244.358Z" fill="white"/>
<path d="M245.42 47.1726C245.42 49.5884 246.739 51.1989 248.713 51.1989C249.857 51.1989 250.721 50.7321 251.375 49.9618V46.7991H248.432V48.1529H249.904V49.3433C249.658 49.6001 249.238 49.8101 248.713 49.8101C247.72 49.8101 247.031 48.8415 247.031 47.1726C247.031 45.5037 247.72 44.535 248.713 44.535C249.355 44.535 249.787 44.9551 250.032 45.5037L251.305 44.9201C250.884 43.9515 250.067 43.1462 248.713 43.1462C246.739 43.1462 245.42 44.7451 245.42 47.1726Z" fill="white"/>
<path d="M258.286 51.0589V43.2746H256.721V48.0362L254.164 43.2746H252.577V51.0589H254.129V46.0989L256.791 51.0589H258.286Z" fill="white"/>
<path d="M211.361 67.1057C213.129 67.1057 214.099 65.6658 214.099 63.7052C214.099 61.7547 213.129 60.2944 211.361 60.2944H209.543V67.1057H211.361ZM210.36 61.0093H211.361C212.628 61.0093 213.262 62.1632 213.262 63.7052C213.262 65.2369 212.618 66.3807 211.361 66.3807H210.36V61.0093Z" fill="white"/>
<path d="M215.626 61.3462C215.902 61.3462 216.127 61.1216 216.127 60.8459C216.127 60.5702 215.902 60.3455 215.626 60.3455C215.361 60.3455 215.126 60.5702 215.126 60.8459C215.126 61.1216 215.361 61.3462 215.626 61.3462ZM215.994 67.1057V62.1734H215.269V67.1057H215.994Z" fill="white"/>
<path d="M217.303 68.4843C217.773 68.954 218.284 69.1072 218.948 69.1072C219.98 69.1072 220.899 68.617 220.899 67.0955V62.1734H220.163V62.8882C219.857 62.3368 219.367 62.0509 218.866 62.0509C217.752 62.0509 217.099 63.0823 217.099 64.614C217.099 66.1662 217.763 67.167 218.866 67.167C219.387 67.167 219.877 66.8198 220.163 66.3194V67.1465C220.163 68.0962 219.602 68.4843 218.927 68.4843C218.386 68.4843 217.967 68.2903 217.64 67.9124L217.303 68.4843ZM220.163 65.6965C219.98 66.1254 219.52 66.5134 219.05 66.5134C218.243 66.5134 217.865 65.676 217.865 64.614C217.865 63.552 218.243 62.7044 219.05 62.7044C219.52 62.7044 219.98 63.0823 220.163 63.5111V65.6965Z" fill="white"/>
<path d="M222.59 61.3462C222.866 61.3462 223.09 61.1216 223.09 60.8459C223.09 60.5702 222.866 60.3455 222.59 60.3455C222.324 60.3455 222.089 60.5702 222.089 60.8459C222.089 61.1216 222.324 61.3462 222.59 61.3462ZM222.958 67.1057V62.1734H222.232V67.1057H222.958Z" fill="white"/>
<path d="M227.944 67.1057V66.3807H225.002L227.873 60.9684V60.2944H224.042V61.0093H226.902L224.042 66.4215V67.1057H227.944Z" fill="white"/>
<path d="M235.686 67.1057L233.643 60.2944H232.672L230.629 67.1057H231.477L231.916 65.5637H234.399L234.838 67.1057H235.686ZM234.225 64.8489H232.09L233.152 61.0705L234.225 64.8489Z" fill="white"/>
<path d="M240.732 67.1057L242.05 62.1734H241.284L240.313 66.1152L239.261 62.1734H238.566L237.524 66.1152L236.564 62.1734H235.798L237.116 67.1057H237.862L238.924 63.1435L239.976 67.1057H240.732Z" fill="white"/>
<path d="M246.123 67.1057V63.6541C246.123 62.5308 245.469 62.0509 244.489 62.0509C243.865 62.0509 243.283 62.2755 242.813 62.7657L243.14 63.2865C243.518 62.8576 243.917 62.684 244.376 62.684C245.02 62.684 245.388 63.0618 245.388 63.7358V64.5936C245.081 64.1545 244.591 63.9605 244.09 63.9605C243.283 63.9605 242.599 64.5528 242.599 65.5841C242.599 66.6155 243.293 67.2282 244.09 67.2282C244.591 67.2282 245.071 67.024 245.388 66.5747V67.1057H246.123ZM245.388 66.0743C245.163 66.4828 244.754 66.6972 244.325 66.6972C243.712 66.6972 243.344 66.2071 243.344 65.5944C243.344 64.9816 243.712 64.5017 244.325 64.5017C244.754 64.5017 245.163 64.7161 245.388 65.1348V66.0743Z" fill="white"/>
<path d="M248.189 67.1057V63.6031C248.393 63.1946 248.894 62.7963 249.343 62.7963C249.425 62.7963 249.507 62.8065 249.588 62.827V62.0713C248.985 62.0713 248.505 62.4389 248.189 62.9597V62.1734H247.463V67.1057H248.189Z" fill="white"/>
<path d="M253.992 67.1057V60.2944H253.256V62.8882C252.96 62.3368 252.459 62.0509 251.959 62.0509C250.845 62.0509 250.191 63.1129 250.191 64.6447C250.191 66.1968 250.855 67.2282 251.959 67.2282C252.48 67.2282 252.97 66.9015 253.256 66.4011V67.1057H253.992ZM253.256 65.7782C253.072 66.2071 252.612 66.5747 252.142 66.5747C251.335 66.5747 250.957 65.7067 250.957 64.6447C250.957 63.5724 251.335 62.7044 252.142 62.7044C252.612 62.7044 253.072 63.0823 253.256 63.5111V65.7782Z" fill="white"/>
<path d="M254.946 66.5338C255.355 67.0036 255.917 67.2282 256.612 67.2282C257.623 67.2282 258.256 66.636 258.256 65.819C258.256 64.808 257.46 64.5017 256.775 64.226C256.254 64.0115 255.794 63.8073 255.794 63.3375C255.794 62.9393 256.132 62.6431 256.673 62.6431C257.153 62.6431 257.572 62.8576 257.817 63.1844L258.165 62.684C257.817 62.3062 257.317 62.0509 256.663 62.0509C255.682 62.0509 255.089 62.6431 255.089 63.3784C255.089 64.3281 255.845 64.6242 256.52 64.8897C257.061 65.1144 257.552 65.3288 257.552 65.8599C257.552 66.3296 257.174 66.636 256.601 66.636C256.07 66.636 255.6 66.3602 255.314 66.013L254.946 66.5338Z" fill="white"/>
<path d="M228.894 78.0469V77.3219H226.197C228.005 75.157 228.863 74.1358 228.863 72.9921C228.863 71.8075 227.995 71.1335 226.953 71.1335C226.085 71.1335 225.421 71.5318 224.971 72.2262L225.502 72.7164C225.829 72.1751 226.299 71.8586 226.943 71.8586C227.525 71.8586 228.036 72.267 228.036 73.0023C228.036 73.9928 227.27 74.82 225.043 77.3831V78.0469H228.894Z" fill="white"/>
<path d="M229.98 74.6464C229.98 76.3926 230.521 78.1694 232.115 78.1694C233.709 78.1694 234.25 76.3926 234.25 74.6464C234.25 72.9002 233.709 71.1335 232.115 71.1335C230.521 71.1335 229.98 72.9002 229.98 74.6464ZM233.422 74.6464C233.422 75.9841 233.167 77.4444 232.115 77.4444C231.063 77.4444 230.817 75.9841 230.817 74.6464C230.817 73.2984 231.073 71.8586 232.115 71.8586C233.167 71.8586 233.422 73.2984 233.422 74.6464Z" fill="white"/>
<path d="M239.12 78.0469V77.3219H236.423C238.231 75.157 239.09 74.1358 239.09 72.9921C239.09 71.8075 238.221 71.1335 237.179 71.1335C236.311 71.1335 235.647 71.5318 235.197 72.2262L235.728 72.7164C236.055 72.1751 236.525 71.8586 237.169 71.8586C237.751 71.8586 238.262 72.267 238.262 73.0023C238.262 73.9928 237.496 74.82 235.269 77.3831V78.0469H239.12Z" fill="white"/>
<path d="M242.229 78.0469V71.2356H241.513L239.879 72.9206L240.369 73.4312L241.421 72.3079V78.0469H242.229Z" fill="white"/>
<path fill-rule="evenodd" clip-rule="evenodd" d="M14.0054 166.822C13.8284 167.641 13.7399 167.823 13.8284 168.37C15.244 169.007 17.9867 168.006 20.464 166.093C22.499 164.545 24.5339 162.359 25.1532 160.629C18.783 159.718 14.6247 163.816 14.0054 166.822Z" fill="white"/>
<path fill-rule="evenodd" clip-rule="evenodd" d="M117.169 202.421C117.169 202.332 117.169 202.332 117.258 202.243C117.883 199.496 118.329 196.749 118.685 193.914C120.825 194.091 123.857 191.521 126.265 188.154C128.226 185.318 129.921 181.685 130.01 179.292C124.481 180.355 121.004 183.546 119.399 186.736C119.488 183.811 119.488 180.887 119.22 177.963C119.309 178.14 119.488 178.317 119.666 178.495C121.628 178.14 123.679 175.127 124.749 171.494C125.64 168.57 126.265 164.937 125.64 162.898C121.093 165.291 118.953 168.924 118.329 172.114C117.793 169.367 117.08 166.709 116.188 164.139C117.972 163.43 119.399 160.24 119.844 156.518C120.201 153.505 120.112 149.961 119.22 148.011C115.118 151.29 113.692 155.455 113.87 158.733C112.8 156.607 111.552 154.569 110.125 152.619C111.462 151.556 111.819 148.454 111.195 145.175C110.749 142.517 109.679 139.504 108.431 138.086C105.845 141.808 105.756 145.53 106.647 148.366C105.488 147.125 104.24 145.884 102.813 144.732C102.724 143.137 101.03 141.011 98.622 139.327C96.571 137.82 93.8959 136.491 92.1125 136.314C93.2718 142.783 98.3544 145.619 101.386 145.353C102.278 145.264 102.367 145.264 102.902 145.087V144.998C104.418 146.327 105.756 147.745 107.004 149.163C107.361 149.961 107.806 150.67 108.252 151.201C106.112 149.961 102.902 149.34 99.3353 150.581C100.227 152.087 102.635 153.682 104.864 154.746C107.628 156.075 110.392 156.518 111.641 155.632C111.641 155.543 111.641 155.455 111.641 155.455C112.532 156.873 113.335 158.379 114.138 159.885C114.316 161.037 114.673 162.012 115.208 162.721C115.475 163.076 115.564 163.341 115.743 163.519C116.902 166.62 117.793 169.899 118.418 173.266C118.329 174.684 118.507 175.925 118.864 176.9C118.953 177.786 119.042 178.76 119.042 179.735C118.329 176.722 114.94 172.735 108.876 172.203C109.144 174.064 110.838 176.634 112.622 178.672C114.762 181.153 117.437 182.837 119.042 182.394C119.042 182.305 119.131 182.216 119.131 182.128C119.131 184.077 119.131 185.938 118.953 187.976C118.418 189.394 118.239 190.812 118.329 191.964C118.418 192.407 118.418 192.673 118.418 192.939C118.329 193.293 118.329 193.648 118.239 194.091C118.239 194.002 118.239 194.002 118.239 193.914C118.329 190.635 115.029 185.229 107.806 184.255C107.985 186.204 109.679 189.04 111.373 191.255C113.513 193.914 116.188 195.863 117.972 195.597C117.972 195.509 117.972 195.509 118.061 195.509C117.704 197.724 117.258 199.939 116.723 202.243C116.278 204.104 115.653 205.965 114.94 207.649C115.297 204.281 113.424 199.23 107.628 196.395C107.182 198.344 107.806 201.623 108.787 204.37C109.947 207.472 111.73 210.13 113.424 210.573C111.641 213.852 109.322 216.688 106.647 219.346C107.985 216.244 107.539 210.662 102.456 206.408C101.565 208.181 101.386 211.548 101.654 214.384C102.01 217.574 103.08 220.321 104.418 221.384C101.475 223.954 98.0869 226.258 94.5201 228.296C97.0169 225.992 98.8895 220.587 95.8577 214.649C94.3418 215.979 92.8259 218.903 92.0234 221.65C90.9533 224.929 90.9533 228.296 92.2017 229.537C89.0808 231.22 85.7815 232.638 82.4822 233.967C84.979 231.752 86.9407 227.144 85.1573 221.561C83.3739 222.536 81.4122 225.283 80.1638 227.764C78.6479 230.689 78.0237 233.79 78.8262 235.297C74.1894 236.98 69.5526 238.31 65.2724 239.373C60.9922 238.31 56.3554 236.98 51.7186 235.297C52.5211 233.702 51.8077 230.6 50.381 227.764C49.0435 225.195 47.0817 222.536 45.3875 221.561C43.6041 227.233 45.5658 231.752 48.0626 233.967C44.7633 232.638 41.464 231.22 38.3431 229.537C39.5915 228.207 39.5023 224.929 38.5214 221.65C37.6297 218.903 36.203 215.979 34.6871 214.649C31.5662 220.587 33.5279 225.992 36.0247 228.296C32.4579 226.258 29.1586 223.954 26.1268 221.384C27.5535 220.321 28.6236 217.485 28.8911 214.384C29.1586 211.548 28.9802 208.181 28.0885 206.408C23.0058 210.662 22.56 216.244 23.8975 219.346C21.2224 216.688 18.904 213.763 17.1206 210.573C18.8149 210.041 20.6874 207.472 21.7575 204.37C22.7383 201.712 23.3625 198.433 22.9167 196.395C17.1206 199.23 15.2481 204.281 15.6047 207.649C14.8914 205.965 14.2672 204.104 13.8213 202.243C13.2863 199.939 12.8405 197.724 12.4838 195.509C12.4838 195.509 12.4838 195.597 12.573 195.597C14.2672 195.863 17.0315 194.002 19.1715 191.255C20.9549 189.04 22.56 186.204 22.7383 184.255C15.5156 185.229 12.2163 190.635 12.3055 193.914C12.3055 194.002 12.3055 194.091 12.3055 194.091C12.2163 193.736 12.2163 193.382 12.1271 192.939C12.1271 192.673 12.2163 192.407 12.2163 191.964C12.3946 190.812 12.1271 189.394 11.5921 187.976C11.5029 186.027 11.4138 184.077 11.4138 182.128C11.4138 182.216 11.5029 182.305 11.5029 182.394C13.108 182.748 15.7831 181.064 17.9232 178.672C19.7066 176.634 21.4008 174.064 21.6683 172.203C15.6047 172.735 12.2163 176.634 11.5029 179.735C11.5921 178.76 11.5921 177.874 11.6813 176.9C12.1271 175.925 12.3055 174.684 12.1271 173.266C12.6621 169.899 13.5538 166.62 14.8022 163.519C14.9805 163.341 15.0697 163.076 15.3372 162.721C15.8722 162.012 16.2289 160.949 16.4073 159.885C17.1206 158.379 17.9232 156.873 18.904 155.455C18.904 155.543 18.904 155.543 18.904 155.632C20.1524 156.518 23.0058 156.075 25.6809 154.746C27.9102 153.682 30.2286 152.087 31.2095 150.581C27.6427 149.34 24.4326 149.961 22.2925 151.201C22.7383 150.67 23.1842 149.961 23.5409 149.163C24.7892 147.745 26.216 146.327 27.6427 144.998V145.087C28.0885 145.353 28.2669 145.353 29.1586 145.353C32.1903 145.619 37.273 142.783 38.4322 136.314C36.6488 136.403 33.9737 137.82 31.9228 139.327C29.5153 141.011 27.7319 143.226 27.7319 144.732C26.3943 145.884 25.0568 147.125 23.8975 148.366C24.7892 145.619 24.6109 141.808 22.1141 138.086C20.7766 139.504 19.7957 142.517 19.3499 145.175C18.7257 148.454 19.0824 151.556 20.4199 152.619C18.9932 154.569 17.7448 156.607 16.6748 158.733C16.8531 155.455 15.5156 151.29 11.3246 148.011C10.4329 149.961 10.3437 153.505 10.7004 156.518C11.1462 160.24 12.573 163.43 14.3564 164.139C13.3755 166.709 12.6621 169.367 12.2163 172.114C11.5921 168.924 9.45201 165.291 4.90435 162.898C4.36933 165.025 4.90435 168.57 5.79605 171.494C6.95526 175.127 9.00616 178.14 10.8787 178.495C11.0571 178.317 11.2354 178.14 11.3246 177.963C11.0571 180.887 11.0571 183.811 11.1462 186.736C9.45201 183.546 6.06356 180.355 0.53502 179.292C0.62419 181.685 2.31842 185.318 4.28016 188.154C6.59858 191.61 9.63035 194.091 11.8596 193.914C12.2163 196.661 12.7513 199.496 13.2863 202.243C13.2863 202.332 13.2863 202.332 13.3755 202.421C11.0571 199.319 6.50941 196.483 0 197.104C0.71336 199.408 3.38846 202.332 6.06356 204.547C9.36284 207.206 13.0188 208.801 15.0697 208.003C15.0697 207.915 15.0697 207.826 15.0697 207.826C16.1398 210.307 17.4773 212.611 19.1715 214.827C16.0506 212.877 11.2354 211.902 5.70688 214.029C7.04443 216.067 10.5221 218.105 13.643 219.435C17.5665 221.118 21.5791 221.561 23.2734 220.232C23.2734 219.878 23.1842 219.612 23.095 219.346C25.3243 221.65 27.9102 223.777 30.6745 225.726C26.9293 224.929 21.7575 225.815 17.299 230.068C19.3499 231.398 23.3625 232.018 26.751 232.018C30.942 232.018 34.6871 230.954 35.8463 229.182C38.2539 230.6 40.7507 231.929 43.3366 233.17C39.5023 233.081 34.5979 234.765 30.942 239.727C33.1712 240.702 37.1839 240.613 40.6615 239.993C44.7633 239.284 48.2409 237.601 49.1326 235.651C53.2345 237.335 57.6038 238.841 62.0623 240.082C58.4955 240.879 55.1962 241.588 52.4319 242.031L53.1453 243.538C57.2471 242.829 61.3489 241.943 65.3616 240.968C69.3742 242.031 73.476 242.917 77.5779 243.538L78.2912 242.031C75.5269 241.5 72.2277 240.879 68.6609 240.082C73.1194 238.841 77.3995 237.335 81.5905 235.651C82.4822 237.601 85.9598 239.284 90.0616 239.993C93.4501 240.525 97.5519 240.613 99.7812 239.727C96.1252 234.765 91.1317 233.081 87.2974 233.17C89.8833 231.929 92.4692 230.6 94.7876 229.182C95.9469 230.954 99.7812 232.018 103.883 232.018C107.361 232.018 111.284 231.398 113.335 230.068C108.877 225.726 103.705 224.929 99.9595 225.726C102.724 223.688 105.31 221.561 107.539 219.346C107.45 219.612 107.361 219.878 107.361 220.232C109.055 221.561 113.067 221.118 116.991 219.435C120.201 218.105 123.59 215.979 124.927 214.029C119.399 211.902 114.583 212.877 111.462 214.827C113.157 212.611 114.494 210.219 115.564 207.826C115.564 207.915 115.564 208.003 115.564 208.003C117.526 208.801 121.271 207.294 124.57 204.547C127.245 202.332 129.921 199.408 130.634 197.104C124.035 196.572 119.488 199.319 117.169 202.421Z" fill="white"/>
<path fill-rule="evenodd" clip-rule="evenodd" d="M110.222 166.068C112.68 167.972 115.401 169.061 116.806 168.335C116.894 167.791 116.806 167.7 116.63 166.794C115.928 163.802 111.89 159.721 105.481 160.628C106.183 162.351 108.202 164.527 110.222 166.068Z" fill="white"/>
<path d="M44.2342 174.973L41.9224 167.188H40.031L37.7192 174.973H39.3421L39.7041 173.584H42.2494L42.6113 174.973H44.2342ZM41.9341 172.218H40.0193L40.9767 168.577L41.9341 172.218Z" fill="white"/>
<path d="M44.3302 171.086C44.3302 173.502 45.6496 175.113 47.6227 175.113C48.7669 175.113 49.6309 174.646 50.2848 173.876V170.713H47.3425V172.067H48.8137V173.257C48.5685 173.514 48.1481 173.724 47.6227 173.724C46.6303 173.724 45.9415 172.755 45.9415 171.086C45.9415 169.418 46.6303 168.449 47.6227 168.449C48.2649 168.449 48.6969 168.869 48.9421 169.418L50.2147 168.834C49.7944 167.865 48.9771 167.06 47.6227 167.06C45.6496 167.06 44.3302 168.659 44.3302 171.086Z" fill="white"/>
<path d="M55.9467 174.973V173.607H53.0511V171.693H55.865V170.34H53.0511V168.554H55.9467V167.188H51.4866V174.973H55.9467Z" fill="white"/>
<path d="M62.8171 174.973V167.188H61.2526V171.95L58.6956 167.188H57.1078V174.973H58.6606V170.013L61.3226 174.973H62.8171Z" fill="white"/>
<path d="M67.1423 175.113C68.6834 175.113 69.3956 174.086 69.7809 173.152L68.4849 172.592C68.2631 173.234 67.8078 173.724 67.1423 173.724C66.1148 173.724 65.4843 172.615 65.4843 171.086C65.4843 169.558 66.1148 168.449 67.1423 168.449C67.7844 168.449 68.2398 168.881 68.4733 169.499L69.7692 168.927C69.3723 168.029 68.6601 167.06 67.1423 167.06C65.1457 167.06 63.8731 168.729 63.8731 171.086C63.8731 173.444 65.1457 175.113 67.1423 175.113Z" fill="white"/>
<path d="M73.7163 174.973V171.763L76.1215 167.188H74.3935L72.9341 170.316L71.4746 167.188H69.7466L72.1518 171.763V174.973H73.7163Z" fill="white"/>
<path d="M78.9008 171.086C78.9008 173.409 80.1151 175.113 82.1466 175.113C84.1898 175.113 85.4041 173.409 85.4041 171.086C85.4041 168.776 84.1898 167.06 82.1466 167.06C80.1151 167.06 78.9008 168.776 78.9008 171.086ZM83.8045 171.086C83.8045 172.569 83.2208 173.724 82.1466 173.724C81.0841 173.724 80.512 172.569 80.512 171.086C80.512 169.581 81.0841 168.449 82.1466 168.449C83.2208 168.449 83.8045 169.581 83.8045 171.086Z" fill="white"/>
<path d="M88.0436 174.973V171.693H90.8574V170.34H88.0436V168.554H90.9391V167.188H86.4791V174.973H88.0436Z" fill="white"/>
<path d="M46.5539 186.643V180.236H48.2819V178.859H43.2498V180.236H44.9894V186.643H46.5539Z" fill="white"/>
<path d="M54.933 186.643V178.859H53.3568V181.952H50.7765V178.859H49.2119V186.643H50.7765V183.329H53.3568V186.643H54.933Z" fill="white"/>
<path d="M60.7754 186.643V185.278H57.8799V183.364H60.6937V182.01H57.8799V180.225H60.7754V178.859H56.3153V186.643H60.7754Z" fill="white"/>
<path d="M67.622 186.643V183.434L70.0272 178.859H68.2992L66.8397 181.987L65.3803 178.859H63.6523L66.0575 183.434V186.643H67.622Z" fill="white"/>
<path d="M75.1304 186.643V185.278H72.2348V183.364H75.0486V182.01H72.2348V180.225H75.1304V178.859H70.6703V186.643H75.1304Z" fill="white"/>
<path d="M82.0942 186.643L79.7824 178.859H77.891L75.5792 186.643H77.2021L77.5641 185.255H80.1094L80.4713 186.643H82.0942ZM79.7941 183.889H77.8793L78.8367 180.248L79.7941 183.889Z" fill="white"/>
<path d="M88.0921 186.643L86.6793 183.551C87.3215 183.341 88.0337 182.664 88.0337 181.322C88.0337 179.886 87.088 178.859 85.6635 178.859H82.7563V186.643H84.3209V183.819H85.1615L86.3524 186.643H88.0921ZM86.4341 181.345C86.4341 182.01 86.0372 182.465 85.43 182.465H84.3209V180.225H85.43C86.0372 180.225 86.4341 180.656 86.4341 181.345Z" fill="white"/>
<path d="M40.2981 199.895C41.3708 199.895 41.9532 199.231 42.3312 198.476L41.6467 198.159C41.3913 198.741 40.9418 199.17 40.2981 199.17C39.2152 199.17 38.5103 197.986 38.5103 196.372C38.5103 194.759 39.2152 193.574 40.2981 193.574C40.9111 193.574 41.3606 193.942 41.6365 194.493L42.3107 194.177C41.9429 193.472 41.3504 192.849 40.2981 192.849C38.6942 192.849 37.6726 194.33 37.6726 196.372C37.6726 198.404 38.6942 199.895 40.2981 199.895Z" fill="white"/>
<path d="M46.5831 199.773V196.321C46.5831 195.198 45.9293 194.718 44.9485 194.718C44.3254 194.718 43.743 194.943 43.2731 195.433L43.6 195.954C43.978 195.525 44.3764 195.351 44.8362 195.351C45.4798 195.351 45.8476 195.729 45.8476 196.403V197.261C45.5411 196.822 45.0507 196.627 44.5501 196.627C43.743 196.627 43.0586 197.22 43.0586 198.251C43.0586 199.283 43.7533 199.895 44.5501 199.895C45.0507 199.895 45.5309 199.691 45.8476 199.242V199.773H46.5831ZM45.8476 198.741C45.6228 199.15 45.2142 199.364 44.7851 199.364C44.1721 199.364 43.8043 198.874 43.8043 198.261C43.8043 197.649 44.1721 197.169 44.7851 197.169C45.2142 197.169 45.6228 197.383 45.8476 197.802V198.741Z" fill="white"/>
<path d="M53.6442 199.773V196.005C53.6442 195.116 53.2253 194.718 52.5 194.718C51.9075 194.718 51.3558 195.147 51.1106 195.596C51.0187 195.075 50.6305 194.718 49.9971 194.718C49.4045 194.718 48.8529 195.177 48.6485 195.545V194.84H47.9232V199.773H48.6485V196.158C48.8631 195.759 49.2819 195.371 49.7212 195.371C50.2014 195.371 50.4159 195.668 50.4159 196.199V199.773H51.1515V196.158C51.3456 195.759 51.7849 195.371 52.2242 195.371C52.6941 195.371 52.9086 195.668 52.9086 196.199V199.773H53.6442Z" fill="white"/>
<path d="M55.722 199.058C56.0285 199.609 56.5188 199.895 57.0194 199.895C58.133 199.895 58.7868 198.843 58.7868 197.301C58.7868 195.749 58.133 194.718 57.0194 194.718C56.4984 194.718 56.008 195.045 55.722 195.545V194.84H54.9966V201.652H55.722V199.058ZM58.0206 197.301C58.0206 198.374 57.6426 199.242 56.8355 199.242C56.3758 199.242 55.9161 198.854 55.722 198.425V196.168C55.9161 195.739 56.3758 195.371 56.8355 195.371C57.6426 195.371 58.0206 196.239 58.0206 197.301Z" fill="white"/>
<path d="M63.1544 199.773V196.321C63.1544 195.198 62.5005 194.718 61.5198 194.718C60.8966 194.718 60.3143 194.943 59.8443 195.433L60.1713 195.954C60.5493 195.525 60.9477 195.351 61.4074 195.351C62.051 195.351 62.4188 195.729 62.4188 196.403V197.261C62.1123 196.822 61.6219 196.627 61.1214 196.627C60.3143 196.627 59.6298 197.22 59.6298 198.251C59.6298 199.283 60.3245 199.895 61.1214 199.895C61.6219 199.895 62.1021 199.691 62.4188 199.242V199.773H63.1544ZM62.4188 198.741C62.194 199.15 61.7854 199.364 61.3563 199.364C60.7434 199.364 60.3756 198.874 60.3756 198.261C60.3756 197.649 60.7434 197.169 61.3563 197.169C61.7854 197.169 62.194 197.383 62.4188 197.802V198.741Z" fill="white"/>
<path d="M64.852 194.013C65.1278 194.013 65.3526 193.789 65.3526 193.513C65.3526 193.237 65.1278 193.013 64.852 193.013C64.5864 193.013 64.3514 193.237 64.3514 193.513C64.3514 193.789 64.5864 194.013 64.852 194.013ZM65.2198 199.773V194.84H64.4944V199.773H65.2198Z" fill="white"/>
<path d="M66.5287 201.151C66.9986 201.621 67.5095 201.774 68.1735 201.774C69.2053 201.774 70.1248 201.284 70.1248 199.763V194.84H69.3892V195.555C69.0827 195.004 68.5924 194.718 68.0918 194.718C66.9782 194.718 66.3244 195.749 66.3244 197.281C66.3244 198.833 66.9884 199.834 68.0918 199.834C68.6128 199.834 69.1032 199.487 69.3892 198.986V199.814C69.3892 200.763 68.8273 201.151 68.1531 201.151C67.6116 201.151 67.1928 200.957 66.8658 200.579L66.5287 201.151ZM69.3892 198.363C69.2053 198.792 68.7456 199.18 68.2757 199.18C67.4686 199.18 67.0906 198.343 67.0906 197.281C67.0906 196.219 67.4686 195.371 68.2757 195.371C68.7456 195.371 69.2053 195.749 69.3892 196.178V198.363Z" fill="white"/>
<path d="M74.8601 199.773V196.056C74.8601 195.167 74.4515 194.718 73.6137 194.718C73.0212 194.718 72.4695 195.116 72.1835 195.545V194.84H71.4581V199.773H72.1835V196.158C72.4082 195.749 72.8577 195.371 73.3379 195.371C73.8283 195.371 74.1245 195.606 74.1245 196.26V199.773H74.8601Z" fill="white"/>
<path d="M82.8663 199.773L80.8231 192.961H79.8526L77.8094 199.773H78.6573L79.0966 198.231H81.5791L82.0184 199.773H82.8663ZM81.4054 197.516H79.2703L80.3327 193.738L81.4054 197.516Z" fill="white"/>
<path d="M83.2213 199.201C83.6299 199.671 84.1918 199.895 84.8865 199.895C85.8979 199.895 86.5313 199.303 86.5313 198.486C86.5313 197.475 85.7344 197.169 85.0499 196.893C84.5289 196.679 84.0692 196.474 84.0692 196.005C84.0692 195.606 84.4063 195.31 84.9478 195.31C85.4279 195.31 85.8468 195.525 86.092 195.851L86.4393 195.351C86.092 194.973 85.5914 194.718 84.9376 194.718C83.9568 194.718 83.3643 195.31 83.3643 196.045C83.3643 196.995 84.1203 197.291 84.7945 197.557C85.336 197.781 85.8264 197.996 85.8264 198.527C85.8264 198.997 85.4484 199.303 84.8763 199.303C84.345 199.303 83.8751 199.027 83.589 198.68L83.2213 199.201Z" fill="white"/>
<path d="M87.928 194.013C88.2039 194.013 88.4286 193.789 88.4286 193.513C88.4286 193.237 88.2039 193.013 87.928 193.013C87.6624 193.013 87.4274 193.237 87.4274 193.513C87.4274 193.789 87.6624 194.013 87.928 194.013ZM88.2958 199.773V194.84H87.5705V199.773H88.2958Z" fill="white"/>
<path d="M92.9148 199.773V196.321C92.9148 195.198 92.2609 194.718 91.2802 194.718C90.657 194.718 90.0747 194.943 89.6047 195.433L89.9317 195.954C90.3096 195.525 90.7081 195.351 91.1678 195.351C91.8114 195.351 92.1792 195.729 92.1792 196.403V197.261C91.8727 196.822 91.3823 196.627 90.8817 196.627C90.0747 196.627 89.3902 197.22 89.3902 198.251C89.3902 199.283 90.0849 199.895 90.8817 199.895C91.3823 199.895 91.8625 199.691 92.1792 199.242V199.773H92.9148ZM92.1792 198.741C91.9544 199.15 91.5458 199.364 91.1167 199.364C90.5038 199.364 90.136 198.874 90.136 198.261C90.136 197.649 90.5038 197.169 91.1167 197.169C91.5458 197.169 91.9544 197.383 92.1792 197.802V198.741Z" fill="white"/>
<path d="M60.571 210.714V209.989H57.8739C59.6822 207.824 60.5403 206.803 60.5403 205.659C60.5403 204.475 59.6719 203.801 58.6299 203.801C57.7615 203.801 57.0975 204.199 56.648 204.893L57.1792 205.383C57.5061 204.842 57.9761 204.526 58.6197 204.526C59.202 204.526 59.7128 204.934 59.7128 205.669C59.7128 206.66 58.9466 207.487 56.7195 210.05V210.714H60.571Z" fill="white"/>
<path d="M61.6565 207.313C61.6565 209.06 62.198 210.836 63.7917 210.836C65.3854 210.836 65.9268 209.06 65.9268 207.313C65.9268 205.567 65.3854 203.801 63.7917 203.801C62.198 203.801 61.6565 205.567 61.6565 207.313ZM65.0993 207.313C65.0993 208.651 64.8439 210.111 63.7917 210.111C62.7394 210.111 62.4942 208.651 62.4942 207.313C62.4942 205.965 62.7496 204.526 63.7917 204.526C64.8439 204.526 65.0993 205.965 65.0993 207.313Z" fill="white"/>
<path d="M68.9071 210.714V203.903H68.1919L66.5574 205.588L67.0477 206.098L68.1 204.975V210.714H68.9071Z" fill="white"/>
<path d="M70.0863 209.039C70.0863 210.152 70.9138 210.836 72.1091 210.836C73.2942 210.836 74.1319 210.152 74.1319 209.029C74.1319 208.13 73.4474 207.456 72.7834 207.201C73.3963 206.976 74.0399 206.405 74.0399 205.537C74.0399 204.352 73.0898 203.801 72.1091 203.801C71.1283 203.801 70.1885 204.352 70.1885 205.537C70.1885 206.405 70.8219 206.976 71.445 207.201C70.7708 207.456 70.0863 208.13 70.0863 209.039ZM73.2227 205.639C73.2227 206.476 72.3747 206.833 72.1091 206.895C71.8435 206.833 70.9955 206.476 70.9955 205.639C70.9955 204.954 71.445 204.526 72.1091 204.526C72.7731 204.526 73.2227 204.954 73.2227 205.639ZM73.3146 208.937C73.3146 209.683 72.7629 210.111 72.1091 210.111C71.445 210.111 70.9138 209.683 70.9138 208.947C70.9138 208.038 71.823 207.579 72.1091 207.538C72.3951 207.579 73.3146 208.038 73.3146 208.937Z" fill="white"/>
<path fill-rule="evenodd" clip-rule="evenodd" d="M182.199 166.822C182.023 167.641 181.934 167.823 182.023 168.37C183.438 169.007 186.181 168.005 188.658 166.093C190.693 164.545 192.728 162.359 193.347 160.629C187.066 159.718 182.907 163.816 182.199 166.822Z" fill="white"/>
<path fill-rule="evenodd" clip-rule="evenodd" d="M285.631 202.332C285.631 202.243 285.631 202.243 285.72 202.155C286.344 199.408 286.79 196.661 287.147 193.825C289.287 194.002 292.318 191.432 294.726 188.065C296.688 185.229 298.382 181.596 298.471 179.203C292.943 180.267 289.465 183.457 287.86 186.647C287.949 183.723 287.949 180.799 287.682 177.874C287.771 178.051 287.949 178.229 288.127 178.406C290.089 178.051 292.14 175.039 293.21 171.405C294.102 168.481 294.726 164.848 294.102 162.81C289.554 165.202 287.414 168.836 286.79 172.026C286.255 169.279 285.541 166.62 284.65 164.05C286.433 163.341 287.86 160.151 288.306 156.43C288.662 153.417 288.573 149.872 287.682 147.922C283.58 151.201 282.153 155.366 282.331 158.645C281.261 156.518 280.013 154.48 278.586 152.53C279.924 151.467 280.28 148.366 279.656 145.087C279.21 142.428 278.14 139.415 276.892 137.998C274.306 141.719 274.217 145.441 275.109 148.277C273.949 147.036 272.701 145.796 271.274 144.644C271.185 143.049 269.491 140.922 267.083 139.238C264.765 137.732 262.09 136.403 260.306 136.314C261.466 142.783 266.548 145.619 269.58 145.353C270.472 145.264 270.561 145.264 271.096 145.087V144.998C272.612 146.327 273.949 147.745 275.198 149.163C275.554 149.961 276 150.67 276.446 151.201C274.306 149.961 271.096 149.34 267.529 150.581C268.421 152.087 270.828 153.682 273.058 154.746C275.822 156.075 278.586 156.518 279.835 155.632C279.835 155.543 279.835 155.455 279.835 155.455C280.726 156.873 281.529 158.379 282.331 159.885C282.51 161.037 282.866 162.012 283.401 162.721C283.669 163.076 283.758 163.341 283.936 163.519C285.096 166.62 285.987 169.899 286.612 173.266C286.522 174.684 286.701 175.925 287.057 176.9C287.147 177.786 287.236 178.76 287.236 179.735C286.522 176.722 283.134 172.735 277.07 172.203C277.338 174.064 279.032 176.634 280.815 178.672C282.956 181.153 285.631 182.837 287.236 182.394C287.236 182.305 287.325 182.216 287.325 182.128C287.325 184.077 287.325 185.938 287.147 187.976C286.612 189.394 286.433 190.812 286.522 191.964C286.612 192.407 286.612 192.673 286.612 192.939C286.522 193.293 286.522 193.648 286.433 194.091C286.433 194.002 286.433 194.002 286.433 193.914C286.522 190.635 283.223 185.229 276 184.255C276.179 186.204 277.873 189.04 279.567 191.255C281.707 193.914 284.382 195.863 286.166 195.597C286.166 195.509 286.166 195.509 286.255 195.509C285.898 197.724 285.452 199.939 284.917 202.243C284.471 204.104 283.847 205.965 283.134 207.649C283.491 204.281 281.618 199.23 275.822 196.395C275.376 198.344 276 201.623 276.981 204.37C278.14 207.472 279.924 210.13 281.618 210.573C279.835 213.852 277.516 216.688 274.841 219.346C276.179 216.244 275.733 210.662 270.65 206.408C269.758 208.181 269.58 211.548 269.848 214.384C270.204 217.574 271.274 220.321 272.612 221.384C269.669 223.954 266.281 226.258 262.714 228.296C265.211 225.992 267.083 220.587 264.052 214.649C262.536 215.979 261.02 218.903 260.217 221.65C259.147 224.929 259.147 228.296 260.396 229.537C257.275 231.22 253.975 232.638 250.676 233.967C253.173 231.752 255.135 227.144 253.351 221.561C251.568 222.536 249.606 225.283 248.358 227.764C246.842 230.689 246.218 233.79 247.02 235.297C242.383 236.98 237.746 238.31 233.466 239.373C229.186 238.31 224.549 236.98 219.912 235.297C220.715 233.702 220.002 230.6 218.575 227.764C217.237 225.195 215.276 222.536 213.581 221.561C211.798 227.233 213.76 231.752 216.256 233.967C212.957 232.638 209.658 231.22 206.537 229.537C207.785 228.207 207.696 224.929 206.715 221.65C205.824 218.903 204.397 215.979 202.881 214.649C199.76 220.587 201.722 225.992 204.219 228.296C200.652 226.258 197.352 223.954 194.321 221.384C195.747 220.321 196.817 217.485 197.085 214.384C197.352 211.548 197.174 208.181 196.282 206.408C191.2 210.662 190.754 216.244 192.091 219.346C189.416 216.688 187.098 213.763 185.314 210.573C187.009 210.041 188.881 207.472 189.951 204.37C190.932 201.712 191.556 198.433 191.111 196.395C185.314 199.23 183.442 204.281 183.799 207.649C183.085 205.965 182.461 204.104 182.015 202.243C181.48 199.939 181.034 197.724 180.678 195.509C180.678 195.509 180.678 195.597 180.767 195.597C182.461 195.863 185.225 194.002 187.365 191.255C189.149 189.04 190.754 186.204 190.932 184.255C183.709 185.229 180.41 190.635 180.499 193.914C180.499 194.002 180.499 194.091 180.499 194.091C180.41 193.736 180.41 193.382 180.321 192.939C180.321 192.673 180.41 192.407 180.41 191.964C180.588 190.812 180.321 189.394 179.786 187.976C179.697 186.027 179.608 184.077 179.608 182.128C179.608 182.216 179.697 182.305 179.697 182.394C181.302 182.748 183.977 181.064 186.117 178.672C187.9 176.634 189.595 174.064 189.862 172.203C183.799 172.735 180.41 176.634 179.697 179.735C179.786 178.76 179.786 177.874 179.875 176.9C180.321 175.925 180.499 174.684 180.321 173.266C180.856 169.899 181.748 166.62 182.996 163.519C183.174 163.341 183.264 163.076 183.531 162.721C184.066 162.012 184.423 160.949 184.601 159.885C185.314 158.379 186.117 156.873 187.098 155.455C187.098 155.543 187.098 155.543 187.098 155.632C188.346 156.518 191.2 156.075 193.875 154.746C196.104 153.682 198.422 152.087 199.403 150.581C195.837 149.34 192.626 149.961 190.486 151.201C190.932 150.67 191.378 149.961 191.735 149.163C192.983 147.745 194.41 146.327 195.837 144.998V145.087C196.282 145.353 196.461 145.353 197.352 145.353C200.384 145.619 205.467 142.783 206.626 136.314C204.843 136.403 202.168 137.82 200.117 139.327C197.709 141.011 195.926 143.226 195.926 144.732C194.588 145.884 193.251 147.125 192.091 148.366C192.983 145.619 192.805 141.808 190.308 138.086C188.97 139.504 187.99 142.517 187.544 145.175C186.92 148.454 187.276 151.556 188.614 152.619C187.187 154.569 185.939 156.607 184.869 158.733C185.047 155.455 183.709 151.29 179.518 148.011C178.627 149.961 178.538 153.505 178.894 156.518C179.34 160.24 180.767 163.43 182.55 164.139C181.569 166.709 180.856 169.367 180.41 172.114C179.786 168.924 177.646 165.291 173.098 162.898C172.563 165.025 173.098 168.57 173.99 171.494C175.149 175.127 177.2 178.14 179.073 178.495C179.251 178.317 179.429 178.14 179.518 177.963C179.251 180.887 179.251 183.811 179.34 186.736C177.646 183.546 174.257 180.355 168.729 179.292C168.818 181.685 170.512 185.318 172.474 188.154C174.792 191.61 177.824 194.091 180.053 193.914C180.41 196.661 180.945 199.496 181.48 202.243C181.48 202.332 181.48 202.332 181.569 202.421C179.251 199.319 174.703 196.483 168.194 197.104C168.907 199.408 171.582 202.332 174.257 204.547C177.557 207.206 181.213 208.801 183.264 208.003C183.264 207.915 183.264 207.826 183.264 207.826C184.334 210.307 185.671 212.611 187.365 214.827C184.244 212.877 179.429 211.902 173.901 214.029C175.238 216.067 178.716 218.105 181.837 219.435C185.76 221.118 189.773 221.561 191.467 220.232C191.467 219.878 191.378 219.612 191.289 219.346C193.518 221.65 196.104 223.777 198.868 225.726C195.123 224.929 189.951 225.815 185.493 230.068C187.544 231.398 191.556 232.018 194.945 232.018C199.136 232.018 202.881 230.954 204.04 229.182C206.448 230.6 208.945 231.929 211.53 233.17C207.696 233.081 202.792 234.765 199.136 239.727C201.365 240.702 205.378 240.613 208.855 239.993C212.957 239.284 216.435 237.601 217.326 235.651C221.428 237.335 225.798 238.841 230.256 240.082C226.689 240.879 223.39 241.588 220.626 242.031L221.339 243.538C225.441 242.829 229.543 241.943 233.555 240.968C237.568 242.031 241.67 242.917 245.772 243.538L246.485 242.031C243.721 241.5 240.422 240.879 236.855 240.082C241.313 238.841 245.593 237.335 249.784 235.651C250.676 237.601 254.154 239.284 258.255 239.993C261.644 240.525 265.746 240.613 267.975 239.727C264.319 234.765 259.326 233.081 255.491 233.17C258.077 231.929 260.663 230.6 262.981 229.182C264.141 230.954 267.975 232.018 272.077 232.018C275.554 232.018 279.478 231.398 281.529 230.068C277.07 225.726 271.898 224.929 268.153 225.726C270.918 223.688 273.504 221.561 275.733 219.346C275.644 219.612 275.554 219.878 275.554 220.232C277.249 221.561 281.261 221.118 285.185 219.435C288.395 218.105 291.783 215.979 293.121 214.029C287.592 211.902 282.777 212.877 279.656 214.827C281.35 212.611 282.688 210.219 283.758 207.826C283.758 207.915 283.758 208.003 283.758 208.003C285.72 208.801 289.465 207.294 292.764 204.547C295.439 202.332 298.114 199.408 298.828 197.104C292.497 196.483 287.949 199.23 285.631 202.332Z" fill="white"/>
<path fill-rule="evenodd" clip-rule="evenodd" d="M278.416 166.068C280.874 167.972 283.595 169.06 285 168.335C285.088 167.791 285 167.7 284.824 166.794C284.122 163.802 280.084 159.721 273.675 160.628C274.289 162.351 276.396 164.527 278.416 166.068Z" fill="white"/>
<path d="M226.092 164.761C227.505 164.761 228.17 163.839 228.17 162.661C228.17 161.692 227.587 160.875 226.793 160.747C227.505 160.572 228.042 159.941 228.042 158.961C228.042 157.899 227.376 156.977 225.987 156.977H222.765V164.761H226.092ZM224.329 158.307H225.613C226.174 158.307 226.442 158.704 226.442 159.229C226.442 159.755 226.174 160.14 225.613 160.14H224.329V158.307ZM224.329 161.47H225.672C226.267 161.47 226.571 161.914 226.571 162.451C226.571 163.057 226.256 163.431 225.672 163.431H224.329V161.47Z" fill="white"/>
<path d="M233.724 164.761V163.396H230.828V161.482H233.642V160.128H230.828V158.342H233.724V156.977H229.264V164.761H233.724Z" fill="white"/>
<path d="M234.383 163.898C235.002 164.516 235.866 164.901 237.045 164.901C238.749 164.901 239.684 163.898 239.684 162.532C239.684 160.992 238.458 160.478 237.453 160.081C236.753 159.79 236.216 159.545 236.216 159.019C236.216 158.553 236.566 158.226 237.15 158.226C237.734 158.226 238.329 158.436 238.796 158.879L239.543 157.712C238.948 157.152 238.131 156.849 237.185 156.849C235.574 156.849 234.616 157.887 234.616 159.113C234.616 160.653 235.842 161.12 236.823 161.505C237.535 161.809 238.096 162.065 238.096 162.661C238.096 163.139 237.722 163.524 237.021 163.524C236.263 163.524 235.585 163.174 235.153 162.696L234.383 163.898Z" fill="white"/>
<path d="M243.458 164.761V158.354H245.186V156.977H240.154V158.354H241.893V164.761H243.458Z" fill="white"/>
<path d="M208.178 176.432V175.066H205.282V173.152H208.096V171.799H205.282V170.013H208.178V168.648H203.718V176.432H208.178Z" fill="white"/>
<path d="M211.452 174.203V173.012H209V174.203H211.452Z" fill="white"/>
<path d="M215.44 176.572C216.981 176.572 217.693 175.545 218.078 174.611L216.782 174.051C216.561 174.693 216.105 175.183 215.44 175.183C214.412 175.183 213.782 174.074 213.782 172.546C213.782 171.017 214.412 169.908 215.44 169.908C216.082 169.908 216.537 170.34 216.771 170.958L218.067 170.387C217.67 169.488 216.958 168.519 215.44 168.519C213.443 168.519 212.171 170.188 212.171 172.546C212.171 174.903 213.443 176.572 215.44 176.572Z" fill="white"/>
<path d="M218.681 172.546C218.681 174.868 219.895 176.572 221.927 176.572C223.97 176.572 225.184 174.868 225.184 172.546C225.184 170.235 223.97 168.519 221.927 168.519C219.895 168.519 218.681 170.235 218.681 172.546ZM223.585 172.546C223.585 174.028 223.001 175.183 221.927 175.183C220.864 175.183 220.292 174.028 220.292 172.546C220.292 171.04 220.864 169.908 221.927 169.908C223.001 169.908 223.585 171.04 223.585 172.546Z" fill="white"/>
<path d="M233.475 176.432V168.648H231.385L229.867 173.316L228.361 168.648H226.259V176.432H227.812V171.087L229.54 176.432H230.182L231.934 171.087V176.432H233.475Z" fill="white"/>
<path d="M242.06 176.432V168.648H239.971L238.453 173.316L236.947 168.648H234.845V176.432H236.398V171.087L238.126 176.432H238.768L240.519 171.087V176.432H242.06Z" fill="white"/>
<path d="M247.891 176.432V175.066H244.995V173.152H247.809V171.799H244.995V170.013H247.891V168.648H243.431V176.432H247.891Z" fill="white"/>
<path d="M254.387 176.432L252.975 173.339C253.617 173.129 254.329 172.452 254.329 171.11C254.329 169.675 253.383 168.648 251.959 168.648H249.052V176.432H250.616V173.608H251.457L252.648 176.432H254.387ZM252.73 171.133C252.73 171.799 252.333 172.254 251.725 172.254H250.616V170.013H251.725C252.333 170.013 252.73 170.445 252.73 171.133Z" fill="white"/>
<path d="M258.436 176.572C259.977 176.572 260.69 175.545 261.075 174.611L259.779 174.051C259.557 174.693 259.102 175.183 258.436 175.183C257.409 175.183 256.778 174.074 256.778 172.546C256.778 171.017 257.409 169.908 258.436 169.908C259.078 169.908 259.534 170.34 259.767 170.958L261.063 170.387C260.666 169.488 259.954 168.519 258.436 168.519C256.44 168.519 255.167 170.188 255.167 172.546C255.167 174.903 256.44 176.572 258.436 176.572Z" fill="white"/>
<path d="M266.453 176.432V175.066H263.557V173.152H266.371V171.799H263.557V170.013H266.453V168.648H261.993V176.432H266.453Z" fill="white"/>
<path d="M213.376 188.243C214.917 188.243 215.629 187.216 216.015 186.282L214.719 185.722C214.497 186.364 214.042 186.854 213.376 186.854C212.349 186.854 211.718 185.745 211.718 184.216C211.718 182.687 212.349 181.579 213.376 181.579C214.018 181.579 214.474 182.01 214.707 182.629L216.003 182.057C215.606 181.159 214.894 180.19 213.376 180.19C211.379 180.19 210.107 181.859 210.107 184.216C210.107 186.574 211.379 188.243 213.376 188.243Z" fill="white"/>
<path d="M222.701 188.103L220.389 180.318H218.498L216.186 188.103H217.809L218.171 186.714H220.716L221.078 188.103H222.701ZM220.401 185.348H218.486L219.444 181.707L220.401 185.348Z" fill="white"/>
<path d="M230.579 188.103V180.318H228.489L226.971 184.986L225.465 180.318H223.363V188.103H224.916V182.757L226.644 188.103H227.286L229.038 182.757V188.103H230.579Z" fill="white"/>
<path d="M233.513 188.103V185.278H234.821C236.421 185.278 237.226 184.135 237.226 182.804C237.226 181.474 236.421 180.318 234.821 180.318H231.949V188.103H233.513ZM235.627 182.804C235.627 183.469 235.23 183.924 234.634 183.924H233.513V181.684H234.634C235.23 181.684 235.627 182.127 235.627 182.804Z" fill="white"/>
<path d="M243.384 188.103L241.072 180.318H239.181L236.869 188.103H238.492L238.854 186.714H241.399L241.761 188.103H243.384ZM241.084 185.348H239.169L240.127 181.707L241.084 185.348Z" fill="white"/>
<path d="M245.611 188.103V180.318H244.046V188.103H245.611Z" fill="white"/>
<path d="M246.673 184.216C246.673 186.632 247.992 188.243 249.965 188.243C251.109 188.243 251.973 187.776 252.627 187.006V183.843H249.685V185.197H251.156V186.387C250.911 186.644 250.491 186.854 249.965 186.854C248.973 186.854 248.284 185.885 248.284 184.216C248.284 182.547 248.973 181.579 249.965 181.579C250.607 181.579 251.039 181.999 251.285 182.547L252.557 181.964C252.137 180.995 251.32 180.19 249.965 180.19C247.992 180.19 246.673 181.789 246.673 184.216Z" fill="white"/>
<path d="M259.538 188.103V180.318H257.974V185.08L255.417 180.318H253.829V188.103H255.382V183.143L258.044 188.103H259.538Z" fill="white"/>
<path d="M207.452 203.42L205.409 196.608H204.438L202.395 203.42H203.243L203.682 201.878H206.165L206.604 203.42H207.452ZM205.991 201.163H203.856L204.919 197.384L205.991 201.163Z" fill="white"/>
<path d="M207.807 202.848C208.216 203.318 208.778 203.542 209.472 203.542C210.484 203.542 211.117 202.95 211.117 202.133C211.117 201.122 210.32 200.816 209.636 200.54C209.115 200.325 208.655 200.121 208.655 199.652C208.655 199.253 208.992 198.957 209.534 198.957C210.014 198.957 210.433 199.172 210.678 199.498L211.025 198.998C210.678 198.62 210.177 198.365 209.523 198.365C208.543 198.365 207.95 198.957 207.95 199.692C207.95 200.642 208.706 200.938 209.38 201.204C209.922 201.428 210.412 201.643 210.412 202.174C210.412 202.644 210.034 202.95 209.462 202.95C208.931 202.95 208.461 202.674 208.175 202.327L207.807 202.848Z" fill="white"/>
<path d="M212.514 197.66C212.79 197.66 213.015 197.436 213.015 197.16C213.015 196.884 212.79 196.659 212.514 196.659C212.248 196.659 212.013 196.884 212.013 197.16C212.013 197.436 212.248 197.66 212.514 197.66ZM212.882 203.42V198.487H212.156V203.42H212.882Z" fill="white"/>
<path d="M217.501 203.42V199.968C217.501 198.845 216.847 198.365 215.866 198.365C215.243 198.365 214.661 198.589 214.191 199.08L214.518 199.6C214.896 199.172 215.294 198.998 215.754 198.998C216.397 198.998 216.765 199.376 216.765 200.05V200.908C216.459 200.468 215.968 200.274 215.468 200.274C214.661 200.274 213.976 200.867 213.976 201.898C213.976 202.929 214.671 203.542 215.468 203.542C215.968 203.542 216.448 203.338 216.765 202.889V203.42H217.501ZM216.765 202.388C216.54 202.797 216.132 203.011 215.703 203.011C215.09 203.011 214.722 202.521 214.722 201.908C214.722 201.296 215.09 200.816 215.703 200.816C216.132 200.816 216.54 201.03 216.765 201.449V202.388Z" fill="white"/>
<path d="M224.581 203.42V202.695H221.894V200.295H224.509V199.58H221.894V197.323H224.581V196.608H221.076V203.42H224.581Z" fill="white"/>
<path d="M227.492 201.275V200.622H225.377V201.275H227.492Z" fill="white"/>
<path d="M228.223 200.948C228.223 202.409 228.999 203.542 230.266 203.542C230.951 203.542 231.37 203.277 231.676 202.889L231.278 202.388C231.012 202.735 230.706 202.889 230.328 202.889C229.449 202.889 228.989 202 228.989 200.948C228.989 199.897 229.449 199.018 230.328 199.018C230.706 199.018 231.012 199.161 231.278 199.519L231.676 199.018C231.37 198.641 230.951 198.365 230.266 198.365C228.999 198.365 228.223 199.488 228.223 200.948Z" fill="white"/>
<path d="M234.376 203.542C235.704 203.542 236.388 202.337 236.388 200.948C236.388 199.56 235.704 198.365 234.376 198.365C233.068 198.365 232.373 199.56 232.373 200.948C232.373 202.337 233.068 203.542 234.376 203.542ZM234.376 202.889C233.528 202.889 233.139 201.949 233.139 200.948C233.139 199.958 233.528 199.018 234.376 199.018C235.244 199.018 235.622 199.958 235.622 200.948C235.622 201.949 235.244 202.889 234.376 202.889Z" fill="white"/>
<path d="M243.208 203.42V199.652C243.208 198.763 242.789 198.365 242.064 198.365C241.471 198.365 240.92 198.794 240.675 199.243C240.583 198.722 240.194 198.365 239.561 198.365C238.968 198.365 238.417 198.824 238.212 199.192V198.487H237.487V203.42H238.212V199.805C238.427 199.406 238.846 199.018 239.285 199.018C239.765 199.018 239.98 199.315 239.98 199.846V203.42H240.715V199.805C240.909 199.406 241.349 199.018 241.788 199.018C242.258 199.018 242.473 199.315 242.473 199.846V203.42H243.208Z" fill="white"/>
<path d="M250.282 203.42V199.652C250.282 198.763 249.863 198.365 249.137 198.365C248.545 198.365 247.993 198.794 247.748 199.243C247.656 198.722 247.268 198.365 246.634 198.365C246.042 198.365 245.49 198.824 245.286 199.192V198.487H244.561V203.42H245.286V199.805C245.5 199.406 245.919 199.018 246.359 199.018C246.839 199.018 247.053 199.315 247.053 199.846V203.42H247.789V199.805C247.983 199.406 248.422 199.018 248.862 199.018C249.331 199.018 249.546 199.315 249.546 199.846V203.42H250.282Z" fill="white"/>
<path d="M251.389 200.948C251.389 202.46 252.186 203.542 253.504 203.542C254.168 203.542 254.729 203.246 255.128 202.756L254.74 202.327C254.433 202.715 253.994 202.929 253.565 202.929C252.686 202.929 252.175 202.184 252.145 201.193H255.342V200.969C255.342 199.529 254.689 198.365 253.391 198.365C252.145 198.365 251.389 199.519 251.389 200.948ZM253.381 198.978C254.28 198.978 254.607 199.897 254.617 200.652H252.145C252.165 199.927 252.513 198.978 253.381 198.978Z" fill="white"/>
<path d="M257.138 203.42V199.917C257.342 199.509 257.843 199.11 258.293 199.11C258.374 199.11 258.456 199.12 258.538 199.141V198.385C257.935 198.385 257.455 198.753 257.138 199.274V198.487H256.413V203.42H257.138Z" fill="white"/>
<path d="M259.141 200.948C259.141 202.409 259.917 203.542 261.184 203.542C261.868 203.542 262.287 203.277 262.594 202.889L262.195 202.388C261.93 202.735 261.623 202.889 261.245 202.889C260.367 202.889 259.907 202 259.907 200.948C259.907 199.897 260.367 199.018 261.245 199.018C261.623 199.018 261.93 199.161 262.195 199.519L262.594 199.018C262.287 198.641 261.868 198.365 261.184 198.365C259.917 198.365 259.141 199.488 259.141 200.948Z" fill="white"/>
<path d="M263.291 200.948C263.291 202.46 264.088 203.542 265.406 203.542C266.07 203.542 266.632 203.246 267.03 202.756L266.642 202.327C266.335 202.715 265.896 202.929 265.467 202.929C264.588 202.929 264.078 202.184 264.047 201.193H267.245V200.969C267.245 199.529 266.591 198.365 265.293 198.365C264.047 198.365 263.291 199.519 263.291 200.948ZM265.283 198.978C266.182 198.978 266.509 199.897 266.519 200.652H264.047C264.067 199.927 264.415 198.978 265.283 198.978Z" fill="white"/>
<path d="M226.079 214.361L224.035 207.55H223.065L221.022 214.361H221.87L222.309 212.819H224.791L225.231 214.361H226.079ZM224.618 212.104H222.483L223.545 208.326L224.618 212.104Z" fill="white"/>
<path d="M231.125 214.361L232.443 209.429H231.677L230.706 213.37L229.654 209.429H228.959L227.917 213.37L226.957 209.429H226.191L227.509 214.361H228.254L229.317 210.399L230.369 214.361H231.125Z" fill="white"/>
<path d="M236.516 214.361V210.909C236.516 209.786 235.862 209.306 234.882 209.306C234.258 209.306 233.676 209.531 233.206 210.021L233.533 210.542C233.911 210.113 234.309 209.939 234.769 209.939C235.413 209.939 235.781 210.317 235.781 210.991V211.849C235.474 211.41 234.984 211.216 234.483 211.216C233.676 211.216 232.992 211.808 232.992 212.839C232.992 213.871 233.686 214.483 234.483 214.483C234.984 214.483 235.464 214.279 235.781 213.83V214.361H236.516ZM235.781 213.329C235.556 213.738 235.147 213.952 234.718 213.952C234.105 213.952 233.737 213.462 233.737 212.85C233.737 212.237 234.105 211.757 234.718 211.757C235.147 211.757 235.556 211.971 235.781 212.39V213.329Z" fill="white"/>
<path d="M238.582 214.361V210.858C238.786 210.45 239.286 210.051 239.736 210.051C239.818 210.051 239.899 210.062 239.981 210.082V209.326C239.378 209.326 238.898 209.694 238.582 210.215V209.429H237.856V214.361H238.582Z" fill="white"/>
<path d="M244.384 214.361V207.55H243.649V210.143C243.353 209.592 242.852 209.306 242.351 209.306C241.238 209.306 240.584 210.368 240.584 211.9C240.584 213.452 241.248 214.483 242.351 214.483C242.872 214.483 243.363 214.157 243.649 213.656V214.361H244.384ZM243.649 213.033C243.465 213.462 243.005 213.83 242.535 213.83C241.728 213.83 241.35 212.962 241.35 211.9C241.35 210.828 241.728 209.96 242.535 209.96C243.005 209.96 243.465 210.337 243.649 210.766V213.033Z" fill="white"/>
<path d="M245.339 213.789C245.748 214.259 246.31 214.483 247.005 214.483C248.016 214.483 248.649 213.891 248.649 213.074C248.649 212.063 247.853 211.757 247.168 211.481C246.647 211.267 246.187 211.062 246.187 210.593C246.187 210.194 246.524 209.898 247.066 209.898C247.546 209.898 247.965 210.113 248.21 210.44L248.557 209.939C248.21 209.561 247.709 209.306 247.056 209.306C246.075 209.306 245.482 209.898 245.482 210.634C245.482 211.583 246.238 211.879 246.913 212.145C247.454 212.37 247.944 212.584 247.944 213.115C247.944 213.585 247.566 213.891 246.994 213.891C246.463 213.891 245.993 213.615 245.707 213.268L245.339 213.789Z" fill="white"/>
</svg>
