<?xml version="1.0" encoding="UTF-8"?>
<svg width="30px" height="27px" viewBox="0 0 30 27" version="1.1" xmlns="http://www.w3.org/2000/svg" xmlns:xlink="http://www.w3.org/1999/xlink">
    <!-- Generator: Sketch 59.1 (86144) - https://sketch.com -->
    <title>icn_case_study</title>
    <desc>Created with Sketch.</desc>
    <g id="Page-1" stroke="none" stroke-width="1" fill="none" fill-rule="evenodd">
        <g id="New-Mega-Menu-Sept-2020---Results" transform="translate(-727.000000, -161.000000)" fill="#427FE0" fill-rule="nonzero">
            <g id="Group-23" transform="translate(704.000000, 131.000000)">
                <g id="icn_case_study" transform="translate(23.000000, 30.000000)">
                    <path d="M29.1265869,3.60023436 C29.1247559,3.60023436 29.1229248,3.6 29.1210938,3.6 L21.1523438,3.6 L21.1523438,2.7 C21.1523438,1.21125 19.9694824,0 18.515625,0 L11.484375,0 C10.0305176,0 8.84765625,1.21125 8.84765625,2.7 L8.84765625,3.6 L0.87890625,3.6 C0.389556914,3.6 0,4.010625 0,4.5 L0,24.3 C0,25.78875 1.18286133,27 2.63671875,27 L27.3632812,27 C28.8171387,27 30,25.78875 30,24.3 L30,4.51898436 C30,4.5178125 30,4.51664064 30,4.51546872 C29.9663544,3.924375 29.6113587,3.60351564 29.1265869,3.60023436 Z M10.6054687,2.7 C10.6054687,2.20382814 10.9998322,1.8 11.484375,1.8 L18.515625,1.8 C19.0001678,1.8 19.3945312,2.20382814 19.3945312,2.7 L19.3945312,3.6 L10.6054687,3.6 L10.6054687,2.7 Z M27.9016113,5.4 L25.1721954,13.7845313 C25.0524902,14.1527344 24.7174072,14.4 24.3386078,14.4 L19.3945313,14.4 L19.3945313,13.5 C19.3945313,13.0028906 19.0010834,12.6 18.515625,12.6 L11.484375,12.6 C10.9989166,12.6 10.6054688,13.0028906 10.6054688,13.5 L10.6054688,14.4 L5.66139223,14.4 C5.28259277,14.4 4.94750977,14.1527344 4.82780455,13.7845313 L2.09838867,5.4 L27.9016113,5.4 Z M17.6367187,14.4 L17.6367187,16.2 L12.3632813,16.2 L12.3632813,14.4 L17.6367187,14.4 Z M28.2421875,24.3 C28.2421875,24.7961719 27.8478241,25.2 27.3632813,25.2 L2.63671875,25.2 C2.15217592,25.2 1.7578125,24.7961719 1.7578125,24.3 L1.7578125,10.0460156 L3.16017152,14.3538281 C3.51951598,15.4582031 4.524765,16.2 5.66139223,16.2 L10.6054688,16.2 L10.6054688,17.1 C10.6054688,17.5971094 10.9989166,18 11.484375,18 L18.515625,18 C19.0010834,18 19.3945313,17.5971094 19.3945313,17.1 L19.3945313,16.2 L24.3386078,16.2 C25.475235,16.2 26.480484,15.4582031 26.8398285,14.3538281 L28.2421875,10.0460156 L28.2421875,24.3 Z" id="Shape"></path>
                </g>
            </g>
        </g>
    </g>
</svg>