<?xml version="1.0" encoding="UTF-8"?>
<svg width="80px" height="80px" viewBox="0 0 80 80" version="1.1" xmlns="http://www.w3.org/2000/svg" xmlns:xlink="http://www.w3.org/1999/xlink">
    <!-- Generator: Sketch 59.1 (86144) - https://sketch.com -->
    <title>icn_3</title>
    <desc>Created with Sketch.</desc>
    <g id="Page-1" stroke="none" stroke-width="1" fill="none" fill-rule="evenodd">
        <g id="Social-Media---Weibo" transform="translate(-387.000000, -4170.000000)" fill-rule="nonzero">
            <g id="icn_3" transform="translate(387.000000, 4170.000000)">
                <path d="M40,0 C17.9086187,0 0,17.9086187 0,40 C0,62.0913813 17.9086187,80 40,80 C62.0913813,80 80,62.0913813 80,40 C79.9765625,17.918496 62.0816714,0.0236049436 40,0 Z" id="Shape" fill="#FF5254"></path>
                <path d="M40.0625,22.105 C41.5625075,22.105 42.916244,22.3187479 44.12375,22.74625 C45.331256,23.1737521 46.3624957,23.7662462 47.2175,24.52375 C48.0725043,25.2812538 48.7287477,26.1699949 49.18625,27.19 C49.6437523,28.2100051 49.8725,29.3124941 49.8725,30.4975 C49.8725,31.5325052 49.7562512,32.4437461 49.52375,33.23125 C49.2912488,34.0187539 48.9537522,34.7049971 48.51125,35.29 C48.0687478,35.8750029 47.5287532,36.369998 46.89125,36.775 C46.2537468,37.180002 45.5300041,37.5174987 44.72,37.7875 C46.6700097,38.4025031 48.1249952,39.3399937 49.085,40.6 C50.0450048,41.8600063 50.525,43.4424905 50.525,45.3475 C50.525,46.9675081 50.225003,48.3999938 49.625,49.645 C49.025,50.8900062 48.2150051,51.9362458 47.195,52.78375 C46.1749949,53.6312542 44.9937567,54.2724978 43.65125,54.7075 C42.3087433,55.1425022 40.8875075,55.36 39.3875,55.36 C37.7524918,55.36 36.3275061,55.1725019 35.1125,54.7975 C33.8974939,54.4224981 32.8400045,53.8675037 31.94,53.1325 C31.0399955,52.3974963 30.2750031,51.4975053 29.645,50.4325 C29.0149968,49.3674947 28.4750022,48.137507 28.025,46.7425 L30.4775,45.73 C30.8975021,45.5499991 31.3249978,45.46 31.76,45.46 C32.150002,45.46 32.4987485,45.5424992 32.80625,45.7075 C33.1137515,45.8725008 33.3499992,46.1124984 33.515,46.4275 C33.7850014,46.9525026 34.0812484,47.4699975 34.40375,47.98 C34.7262516,48.4900025 35.1124978,48.943748 35.5625,49.34125 C36.0125022,49.738752 36.541247,50.0612488 37.14875,50.30875 C37.756253,50.5562512 38.4799958,50.68 39.32,50.68 C40.2650047,50.68 41.0899965,50.5262515 41.795,50.21875 C42.5000035,49.9112485 43.0887476,49.5100025 43.56125,49.015 C44.0337524,48.5199975 44.3862488,47.968753 44.61875,47.36125 C44.8512512,46.753747 44.9675,46.1425031 44.9675,45.5275 C44.9675,44.7474961 44.8850008,44.0387532 44.72,43.40125 C44.5549992,42.7637468 44.2100026,42.2200023 43.685,41.77 C43.1599974,41.3199977 42.4062549,40.9675013 41.42375,40.7125 C40.4412451,40.4574987 39.1250083,40.33 37.475,40.33 L37.475,36.37 C38.8400068,36.3549999 39.9724955,36.2275012 40.8725,35.9875 C41.7725045,35.7474988 42.4887473,35.4137521 43.02125,34.98625 C43.5537527,34.5587479 43.924999,34.045003 44.135,33.445 C44.3450011,32.844997 44.45,32.1850036 44.45,31.465 C44.45,29.9199923 44.0300042,28.7537539 43.19,27.96625 C42.3499958,27.1787461 41.2025073,26.785 39.7475,26.785 C38.4274934,26.785 37.3325044,27.1337465 36.4625,27.83125 C35.664996,28.4706282 35.0880737,29.2770011 34.731719,30.2503895 L34.64,30.52 C34.4599991,31.0900028 34.2125016,31.4987488 33.8975,31.74625 C33.5824984,31.9937512 33.1700025,32.1175 32.66,32.1175 C32.4199988,32.1175 32.1650013,32.0950002 31.895,32.05 L28.97,31.5325 C29.1950011,29.9724922 29.6299968,28.6037559 30.275,27.42625 C30.9200032,26.2487441 31.7262452,25.2662539 32.69375,24.47875 C33.6612548,23.6912461 34.7712437,23.098752 36.02375,22.70125 C37.2762563,22.303748 38.6224928,22.105 40.0625,22.105 Z" id="3" fill="#FFFFFF"></path>
            </g>
        </g>
    </g>
</svg>