<?xml version="1.0" encoding="UTF-8"?>
<svg width="86px" height="75px" viewBox="0 0 86 75" version="1.1" xmlns="http://www.w3.org/2000/svg" xmlns:xlink="http://www.w3.org/1999/xlink">
    <!-- Generator: Sketch 59.1 (86144) - https://sketch.com -->
    <title>icn_audience</title>
    <desc>Created with Sketch.</desc>
    <g id="Page-1" stroke="none" stroke-width="1" fill="none" fill-rule="evenodd">
        <g id="SEO-Experts" transform="translate(-687.000000, -3131.000000)" fill="#FF5254" fill-rule="nonzero">
            <g id="icn_audience" transform="translate(687.000000, 3131.000000)">
                <circle id="Oval" cx="42.8571429" cy="14.6703683" r="14.5647321"></circle>
                <circle id="Oval" cx="72.3214286" cy="20.0273437" r="9.20758929"></circle>
                <circle id="Oval" cx="13.3928571" cy="20.0273437" r="9.20758929"></circle>
                <path d="M22.4648437,37.5035156 C18.8404018,34.5339844 15.5579799,34.9270647 11.3671875,34.9270647 C5.09933036,34.9270647 -1.42108547e-14,39.9962612 -1.42108547e-14,46.2256138 L-1.42108547e-14,64.5085379 C-1.42108547e-14,67.2138951 2.20814732,69.4136719 4.92354911,69.4136719 C16.6466518,69.4136719 15.234375,69.6257813 15.234375,68.9080915 C15.234375,55.952846 13.6998884,46.4521205 22.4648437,37.5035156 L22.4648437,37.5035156 Z" id="Path"></path>
                <path d="M46.843192,34.9938616 C39.5233259,34.3833147 33.1608817,35.0008929 27.6729911,39.530692 C18.4893415,46.8867188 20.2566964,56.7912388 20.2566964,68.9079241 C20.2566964,72.1136719 22.8649554,74.7706473 26.1194196,74.7706473 C61.456808,74.7706473 62.8632254,75.9105469 64.9587054,71.2700893 C65.6459263,69.7007812 65.4575893,70.1994978 65.4575893,55.186942 C65.4575893,43.2629464 55.1328683,34.9938616 46.843192,34.9938616 Z" id="Path"></path>
                <path d="M74.3470982,34.9268973 C70.1333705,34.9268973 66.869029,34.5378348 63.249442,37.5033482 C71.9489397,46.3854911 70.4799107,55.2380022 70.4799107,68.9079241 C70.4799107,69.6301339 69.3075335,69.4135045 80.6149554,69.4135045 C83.4274554,69.4135045 85.7142857,67.1350446 85.7142857,64.3342634 L85.7142857,46.2254464 C85.7142857,39.9960938 80.6149554,34.9268973 74.3470982,34.9268973 Z" id="Path"></path>
            </g>
        </g>
    </g>
</svg>