<?xml version="1.0" encoding="UTF-8"?>
<svg width="80px" height="80px" viewBox="0 0 80 80" version="1.1" xmlns="http://www.w3.org/2000/svg" xmlns:xlink="http://www.w3.org/1999/xlink">
    <!-- Generator: Sketch 59.1 (86144) - https://sketch.com -->
    <title>icn_4</title>
    <desc>Created with Sketch.</desc>
    <g id="Page-1" stroke="none" stroke-width="1" fill="none" fill-rule="evenodd">
        <g id="Social-Media---Weibo" transform="translate(-387.000000, -4452.000000)" fill-rule="nonzero">
            <g id="icn_4" transform="translate(387.000000, 4452.000000)">
                <path d="M40,0 C17.9086187,0 0,17.9086187 0,40 C0,62.0913813 17.9086187,80 40,80 C62.0913813,80 80,62.0913813 80,40 C79.9765625,17.918496 62.0816714,0.0236049436 40,0 Z" id="Shape" fill="#FF5254"></path>
                <path d="M47.195,22.4425 L47.195,42.7375 L51.29,42.7375 L51.29,45.955 C51.29,46.2550015 51.192501,46.5137489 50.9975,46.73125 C50.802499,46.9487511 50.5175,47.0575 50.1425,47.0575 L47.195,47.0575 L47.195,55 L42.335,55 L42.335,47.0575 L28.61,47.0575 C28.2349981,47.0575 27.9050014,46.9412512 27.62,46.70875 C27.3349986,46.4762488 27.1550004,46.1875017 27.08,45.8425 L26.5175,43.03 L41.93,22.4425 L47.195,22.4425 Z M42.5375,28.81 L32.435,42.7375 L42.335,42.7375 L42.335,32.095 C42.335,31.6149976 42.3499999,31.0975028 42.38,30.5425 C42.4100002,29.9874972 42.4624996,29.410003 42.5375,28.81 L42.5375,28.81 Z" id="4" fill="#FFFFFF"></path>
            </g>
        </g>
    </g>
</svg>