<?xml version="1.0" encoding="UTF-8"?>
<svg width="312px" height="311px" viewBox="0 0 312 311" version="1.1" xmlns="http://www.w3.org/2000/svg" xmlns:xlink="http://www.w3.org/1999/xlink">
    <!-- Generator: Sketch 59.1 (86144) - https://sketch.com -->
    <title>icn_budget</title>
    <desc>Created with Sketch.</desc>
    <g id="Page-1" stroke="none" stroke-width="1" fill="none" fill-rule="evenodd">
        <g id="Government-Funding" transform="translate(-896.000000, -2546.000000)" stroke="#427FE0">
            <g id="icn_budget" transform="translate(908.000000, 2558.000000)">
                <g id="img_improve_bottom_line" transform="translate(93.000000, 47.000000)" fill="#427FE0" stroke-width="5">
                    <path d="M97.1268064,109.827122 C95.7760709,107.485557 93.8443368,105.195234 91.3286473,102.957131 C88.8193641,100.71854 86.5584467,98.9147835 84.5547653,97.546349 C82.5500984,96.170594 79.79787,94.6396456 76.2995587,92.938375 C72.7997689,91.2458889 70.0362064,89.9799405 67.9921163,89.1498024 C65.9539397,88.3186883 62.9991749,87.1825557 59.1416202,85.7423808 C55.715256,84.4456866 53.1650713,83.4525467 51.481703,82.7644252 C49.8106544,82.0772797 47.603451,81.1031729 44.8714271,79.8396647 C42.1394031,78.5805488 40.095313,77.457593 38.7519693,76.4844623 C37.4036977,75.5113316 35.9608106,74.3234679 34.4341493,72.916479 C32.9015745,71.507538 31.8282794,70.0097757 31.2044081,68.4202638 C30.5884214,66.8356322 30.2755002,65.1045918 30.2755002,63.2232383 C30.2755002,58.3175663 32.4620064,54.3132847 36.839454,51.2055132 C41.2085241,48.1050622 46.857368,46.5550807 53.7810579,46.5550807 C56.8417724,46.5550807 59.9596504,46.9703937 63.1317353,47.8005318 C66.2944571,48.6306699 69.0136686,49.5642702 71.2676869,50.6164617 C73.5350106,51.6613327 75.6633676,52.8150343 77.669513,54.0814707 C79.6736871,55.3396106 81.0958771,56.3000526 81.9341117,56.9476676 C82.7733319,57.5972348 83.3035732,58.0325571 83.5189222,58.246802 C84.4685272,58.9661574 85.44425,59.2199327 86.4682663,59.0056878 C87.561273,58.9339475 88.4004932,58.3556326 88.9839557,57.2736713 L97.8408581,41.4673737 C98.7116169,40.0203664 98.528792,38.6519319 97.2909053,37.3527975 C96.8513372,36.9199154 96.3077906,36.4128528 95.651888,35.8350259 C94.9984494,35.2586632 93.5757666,34.2137921 91.3867964,32.6955325 C89.2002902,31.1841053 86.88763,29.8268955 84.4507868,28.6326874 C82.006059,27.4467759 78.8344669,26.239391 74.9369962,25.0134611 C71.0375543,23.7811867 67.0094944,22.957393 62.8567588,22.5215827 L62.8567588,3.46500904 C62.8567588,2.45381204 62.5275756,1.62318593 61.8731513,0.974106768 C61.2177416,0.326003668 60.3790141,0 59.3579547,0 L44.5964506,0 C43.6522663,0 42.834236,0.344548787 42.1394031,1.03169424 C41.4450629,1.71249531 41.0976465,2.52555237 41.0976465,3.46500904 L41.0976465,22.9505606 C29.6595136,25.1164353 20.3694493,29.9498789 13.2210475,37.4572358 C6.08644372,44.9650807 2.50928606,53.6969035 2.50928606,63.6566084 C2.50928606,66.616507 2.82467122,69.4319488 3.44016508,72.0975656 C4.0620652,74.771967 4.82835259,77.1725838 5.73952004,79.2994161 C6.64970192,81.4291766 7.93982435,83.523311 9.6167864,85.5823072 C11.2942412,87.6373992 12.8810229,89.4021136 14.3736817,90.8823069 C15.8678189,92.3620122 17.8202502,93.8983289 20.2250621,95.4829605 C22.6288884,97.0719843 24.6872694,98.3564778 26.3957699,99.3296085 C28.1136335,100.303227 30.385885,101.419351 33.2287866,102.684323 C36.0726738,103.942463 38.3143724,104.902417 39.9504329,105.551984 C41.5963492,106.201551 43.8370623,107.10343 46.6794711,108.257131 C50.611437,109.775879 53.5262859,110.943733 55.4259887,111.773871 C57.3202708,112.604497 59.7236043,113.759175 62.6399315,115.23888 C65.5547803,116.718586 67.6831374,118.074331 69.0338729,119.299773 C70.3831301,120.527655 71.6013053,122.039083 72.6962832,123.849672 C73.7897827,125.653429 74.3397355,127.56016 74.3397355,129.585482 C74.3397355,135.286642 72.0990225,139.687691 67.6111902,142.788142 C63.1317353,145.895914 57.942171,147.447359 52.0380621,147.447359 C49.3395478,147.447359 46.6464542,147.161862 43.9479399,146.576715 C34.4750508,144.701218 25.6225835,140.193778 17.3875812,133.050003 L17.1643476,132.828926 C16.5104162,132.036366 15.6317728,131.712802 14.5441868,131.855795 C13.3787401,132.00562 12.5405054,132.433622 12.0284973,133.15981 L0.766290239,147.770923 C0.253789348,148.449284 0,149.134477 0,149.827479 C0.00148121644,150.61223 0.33165006,151.406254 0.989523801,152.209551 C1.35024558,152.644873 1.99235006,153.292976 2.90154636,154.162645 C3.81222102,155.024993 5.50988022,156.381714 7.98713213,158.223538 C10.4619201,160.065849 13.1559993,161.792009 16.0708481,163.421051 C18.9856969,165.042285 22.6875303,166.644974 27.1689564,168.234486 C31.6503824,169.824485 36.2964001,170.941097 41.1114446,171.589688 L41.1114446,190.534991 C41.1114446,191.476888 41.4514692,192.287993 42.1463021,192.975138 C42.8406423,193.656427 43.6591653,194 44.6102487,194 L59.3638681,194 C60.3859132,194 61.2246406,193.676925 61.8800504,193.026869 C62.5344746,192.379254 62.8611939,191.54814 62.8611939,190.534991 L62.8611939,171.589688 C74.4530771,169.714191 83.8727449,164.789974 91.1256181,156.80874 C98.3710995,148.835803 102,139.329966 102,128.287324 C101.994087,124.680298 101.522487,121.287029 100.566476,118.108005 C99.6222915,114.934838 98.4696573,112.176008 97.1268064,109.827122 Z" id="Fill-1"></path>
                </g>
                <ellipse id="Oval" stroke-width="23" cx="144" cy="143.5" rx="144" ry="143.5"></ellipse>
            </g>
        </g>
    </g>
</svg>