<?xml version="1.0" encoding="UTF-8"?>
<svg width="30px" height="30px" viewBox="0 0 30 30" version="1.1" xmlns="http://www.w3.org/2000/svg" xmlns:xlink="http://www.w3.org/1999/xlink">
    <!-- Generator: Sketch 59.1 (86144) - https://sketch.com -->
    <title>icn_social</title>
    <desc>Created with Sketch.</desc>
    <g id="Page-1" stroke="none" stroke-width="1" fill="none" fill-rule="evenodd">
        <g id="New-Mega-Menu---Option-1.2-(Click-SEO)" transform="translate(-873.000000, -186.000000)" fill="#427FE0" fill-rule="nonzero">
            <g id="Group-13" transform="translate(130.000000, 157.000000)">
                <g id="Mega-Menu-2">
                    <g id="Group-3" transform="translate(741.000000, 29.000000)">
                        <g id="icn_social" transform="translate(2.000000, 0.000000)">
                            <path d="M23.5254759,17.1094314 C21.403103,17.1094314 19.5328096,18.1571136 18.364241,19.7494987 L12.5251854,16.8292879 C12.7059872,16.2370252 12.8320891,15.621293 12.8320891,14.9707292 C12.8320891,14.3201654 12.7059872,13.704309 12.5251854,13.1121705 L18.364241,10.1919597 C19.5328096,11.7843448 21.403103,12.832027 23.5254759,12.832027 C27.0634678,12.832027 29.9415205,9.95397432 29.9415205,6.41598245 C29.9415205,2.87799058 27.0635299,0 23.5254759,0 C19.987422,0 17.1094314,2.87805267 17.1094314,6.41604454 C17.1094314,7.06660837 17.2356574,7.68234052 17.4164593,8.27447903 L11.5772174,11.194814 C10.4086488,9.60242894 8.53835537,8.55474674 6.41598245,8.55474674 C2.87799058,8.55474674 0,11.4327373 0,14.9707913 C0,18.5088452 2.87799058,21.3868358 6.41604454,21.3868358 C8.53841745,21.3868358 10.4087109,20.3391536 11.5772795,18.7467686 L17.4163351,21.6671035 C17.2355332,22.2591799 17.1094314,22.8749121 17.1094314,23.525538 C17.1094314,27.0635299 19.987422,29.9415826 23.5254759,29.9415826 C27.0635299,29.9415826 29.9415205,27.0635299 29.9415205,23.525538 C29.9415205,19.9875462 27.0634678,17.1094314 23.5254759,17.1094314 Z M23.5254759,2.13870221 C25.8845304,2.13870221 27.8028183,4.05810766 27.8028183,6.41604454 C27.8028183,8.7740435 25.8844683,10.6933869 23.5254759,10.6933869 C21.1664215,10.6933869 19.2481336,8.77398141 19.2481336,6.41604454 C19.2481336,4.05810766 21.1664835,2.13870221 23.5254759,2.13870221 Z M6.41604454,19.2481336 C4.05699006,19.2481336 2.13870221,17.3287282 2.13870221,14.9707913 C2.13870221,12.6127923 4.05705215,10.693449 6.41604454,10.693449 C8.77509901,10.693449 10.6933869,12.6128544 10.6933869,14.9707913 C10.6933869,17.3287282 8.77509901,19.2481336 6.41604454,19.2481336 Z M23.5254759,27.8028183 C21.1664215,27.8028183 19.2481336,25.8834128 19.2481336,23.5254759 C19.2481336,21.1675391 21.1664835,19.2481336 23.5254759,19.2481336 C25.8845304,19.2481336 27.8028183,21.1675391 27.8028183,23.5254759 C27.8028183,25.8834749 25.8845304,27.8028183 23.5254759,27.8028183 Z" id="Shape"></path>
                        </g>
                    </g>
                </g>
            </g>
        </g>
    </g>
</svg>