<?xml version="1.0" encoding="UTF-8"?>
<svg width="47px" height="80px" viewBox="0 0 47 80" version="1.1" xmlns="http://www.w3.org/2000/svg" xmlns:xlink="http://www.w3.org/1999/xlink">
    <!-- Generator: Sketch 59.1 (86144) - https://sketch.com -->
    <title>icn_stories</title>
    <desc>Created with Sketch.</desc>
    <g id="Page-1" stroke="none" stroke-width="1" fill="none" fill-rule="evenodd">
        <g id="Social-Media---Weibo" transform="translate(-1098.000000, -2084.000000)" fill="#FF5254" fill-rule="nonzero">
            <g id="icn_stories" transform="translate(1098.000000, 2084.000000)">
                <path d="M39.8997535,0 L7.10024653,0 C3.18525103,0 0,3.24146597 0,7.22555531 L0,72.7744447 C0,76.758534 3.18525103,80 7.10024653,80 L39.8997535,80 C43.8151203,80 47,76.758534 47,72.7744447 L47,7.22555531 C47,3.24146597 43.8151203,0 39.8997535,0 Z M23.5,76.0627734 C21.6576273,76.0627734 20.1639722,74.5431355 20.1639722,72.6678697 C20.1639722,70.7929819 21.6576273,69.2729661 23.5,69.2729661 C25.3423727,69.2729661 26.8360278,70.7929819 26.8360278,72.6678697 C26.8360278,74.5427575 25.3423727,76.0627734 23.5,76.0627734 Z M42.0782171,65.9819919 L4.9217829,65.9819919 L4.9217829,8.51012368 L42.0782171,8.51012368 L42.0782171,65.9819919 L42.0782171,65.9819919 Z M23.5,25.2155592 C16.6741968,25.2155592 11.1210828,30.8666774 11.1210828,37.8129458 C11.1210828,44.7592143 16.6741968,50.4103325 23.5,50.4103325 C30.3258032,50.4103325 35.8792885,44.7592143 35.8792885,37.8129458 C35.8792885,30.8666774 30.3261746,25.2155592 23.5,25.2155592 Z M28.6308649,39.4493627 L21.8225162,43.4497029 C21.5354462,43.6182576 21.2145815,43.7029129 20.8940881,43.7029129 C20.5735947,43.7029129 20.25273,43.6182576 19.96566,43.4497029 C19.3911487,43.1122155 19.0372319,42.4882607 19.0372319,41.813286 L19.0372319,33.8126057 C19.0372319,33.137631 19.3911487,32.5140541 19.96566,32.1761888 C20.5401713,31.8387014 21.2480049,31.8387014 21.8225162,32.1761888 L28.6308649,36.1765289 C29.2053762,36.5143942 29.559293,37.1379711 29.559293,37.8129458 C29.559293,38.4879206 29.2053762,39.1114974 28.6308649,39.4493627 Z" id="Shape"></path>
            </g>
        </g>
    </g>
</svg>