<?xml version="1.0" encoding="UTF-8"?> <svg xmlns="http://www.w3.org/2000/svg" xmlns:xlink="http://www.w3.org/1999/xlink" width="22px" height="22px" viewBox="0 0 22 22" version="1.1"><title>icn_question</title><g id="Page-1" stroke="none" stroke-width="1" fill="none" fill-rule="evenodd"><g id="ROI-Calculator---SEO---Aus" transform="translate(-514.000000, -557.000000)"><g id="Group-25" transform="translate(126.000000, 499.000000)"><g id="Group-24" transform="translate(40.000000, 40.000000)"><g id="Group-2" transform="translate(1.000000, 19.000000)"><g id="icn_question" transform="translate(348.000000, 0.000000)"><path d="M9.67,11.94 L11.305,11.46 C11.155,11.325 11.035,11.07 11.035,10.83 C11.035,10.275 11.5,9.945 12.025,9.555 C12.745,9.06 13.54,8.46 13.54,7.215 C13.54,5.82 12.355,4.845 10.42,4.845 C9.13,4.845 7.93,5.37 7.135,6.3 L8.35,7.665 C8.815,7.11 9.445,6.735 10.195,6.735 C11.02,6.735 11.365,7.125 11.365,7.59 C11.365,8.04 10.96,8.325 10.495,8.655 C9.895,9.09 9.175,9.585 9.175,10.62 C9.175,11.145 9.355,11.595 9.67,11.94 Z M10.39,15.165 C11.05,15.165 11.605,14.61 11.605,13.95 C11.605,13.29 11.05,12.735 10.39,12.735 C9.73,12.735 9.175,13.29 9.175,13.95 C9.175,14.61 9.73,15.165 10.39,15.165 Z" id="?" fill="#E3E3E3" fill-rule="nonzero"></path><circle id="Oval" stroke="#D8D8D8" stroke-width="2" cx="10" cy="10" r="10"></circle></g></g></g></g></g></g></svg> 