<?xml version="1.0" encoding="UTF-8"?>
<svg width="146px" height="146px" viewBox="0 0 146 146" version="1.1" xmlns="http://www.w3.org/2000/svg" xmlns:xlink="http://www.w3.org/1999/xlink">
    <!-- Generator: Sketch 63.1 (92452) - https://sketch.com -->
    <title>icn_sales_hub</title>
    <desc>Created with Sketch.</desc>
    <g id="Page-1" stroke="none" stroke-width="1" fill="none" fill-rule="evenodd">
        <g id="Hubspot" transform="translate(-220.000000, -4183.000000)" fill="#FF5254" fill-rule="nonzero">
            <g id="icn_sales_hub" transform="translate(220.000000, 4183.000000)">
                <path d="M73,146 C113.251965,146 146,113.350902 146,73.2205438 C146,33.0901859 113.251965,0 73,0 C32.7480349,0 0,33.0901859 0,73.2205438 C0,113.350902 32.7480349,146 73,146 Z M73.0708569,77.8984848 C62.0932054,77.8984848 53.161766,68.9940286 53.161766,58.0495422 C53.161766,49.4621177 58.692069,42.2014019 66.3636364,39.4411585 L66.3636364,33.5226586 C66.3636364,29.866456 69.332718,26.9063444 73,26.9063444 C76.6690105,26.9063444 79.6363636,29.866456 79.6363636,33.5226586 L79.6363636,39.3980832 C87.380516,42.1169751 92.9799478,49.4087047 92.9799478,58.0495422 C92.9799478,61.7057448 90.0125947,64.6658564 86.3435842,64.6658564 C82.6763022,64.6658564 79.7072205,61.7057448 79.7072205,58.0495422 C79.7072205,54.3985083 76.7329545,51.433228 73.0708569,51.433228 C69.4104878,51.433228 66.4344933,54.3985083 66.4344933,58.0495422 C66.4344933,61.7005757 69.4104878,64.6658564 73.0708569,64.6658564 C84.0502365,64.6658564 92.9799478,73.5685893 92.9799478,84.514799 C92.9799478,93.1556361 87.380516,100.445643 79.6363636,103.166258 L79.6363636,112.918429 C79.6363636,116.574632 76.6690105,119.534743 73,119.534743 C69.332718,119.534743 66.3636364,116.574632 66.3636364,112.918429 L66.3636364,103.121459 C58.692069,100.362939 53.161766,93.1022235 53.161766,84.514799 C53.161766,80.8568731 56.1308476,77.8984848 59.7981296,77.8984848 C63.4671402,77.8984848 66.4344933,80.8568731 66.4344933,84.514799 C66.4344933,88.1658325 69.4104878,91.1311132 73.0708569,91.1311132 C76.7329545,91.1311132 79.7072205,88.1658325 79.7072205,84.514799 C79.7072205,80.8637651 76.7329545,77.8984848 73.0708569,77.8984848 Z" id="Shape"></path>
            </g>
        </g>
    </g>
</svg>