<?xml version="1.0" encoding="UTF-8"?>
<svg width="80px" height="80px" viewBox="0 0 80 80" version="1.1" xmlns="http://www.w3.org/2000/svg" xmlns:xlink="http://www.w3.org/1999/xlink">
    <!-- Generator: Sketch 59.1 (86144) - https://sketch.com -->
    <title>icn_7</title>
    <desc>Created with Sketch.</desc>
    <g id="Page-1" stroke="none" stroke-width="1" fill="none" fill-rule="evenodd">
        <g id="Social-Media---Weibo" transform="translate(-387.000000, -5209.000000)" fill-rule="nonzero">
            <g id="icn_7" transform="translate(387.000000, 5209.000000)">
                <path d="M40,0 C17.9086187,0 0,17.9086187 0,40 C0,62.0913813 17.9086187,80 40,80 C62.0913813,80 80,62.0913813 80,40 C79.9765625,17.918496 62.0816714,0.0236049436 40,0 Z" id="Shape" fill="#FF5254"></path>
                <path d="M50.66,22.465 L50.66,24.8725 C50.66,25.5925036 50.5812508,26.1737478 50.42375,26.61625 C50.2662492,27.0587522 50.1125007,27.4299985 49.9625,27.73 L37.655,53.11 C37.3999987,53.6350026 37.0400023,54.0812482 36.575,54.44875 C36.1099977,54.8162518 35.480004,55 34.685,55 L30.6575,55 L43.2575,30.1375 C43.7825026,29.1174949 44.3674968,28.2400037 45.0125,27.505 L29.4425,27.505 C29.0974983,27.505 28.7975013,27.3775013 28.5425,27.1225 C28.2874987,26.8674987 28.16,26.5675017 28.16,26.2225 L28.16,22.465 L50.66,22.465 Z" id="7" fill="#FFFFFF"></path>
            </g>
        </g>
    </g>
</svg>