<?xml version="1.0" encoding="UTF-8"?>
<svg width="32px" height="37px" viewBox="0 0 32 37" version="1.1" xmlns="http://www.w3.org/2000/svg" xmlns:xlink="http://www.w3.org/1999/xlink">
    <!-- Generator: Sketch 63.1 (92452) - https://sketch.com -->
    <title>icn_marketing_automation</title>
    <desc>Created with Sketch.</desc>
    <g id="Page-1" stroke="none" stroke-width="1" fill="none" fill-rule="evenodd">
        <g id="New-Mega-Menu-Sept-2020---Other-Services" transform="translate(-847.000000, -294.000000)" stroke="#427FE0">
            <g id="icn_marketing_automation" transform="translate(848.000000, 295.000000)">
                <g id="Icons">
                    <path d="M14.7761195,25.9313934 L13.5287013,25.9313934 C13.2919555,25.9313934 13.1000352,25.7349035 13.1000352,25.492521 C13.1000352,25.2501384 13.2919555,25.0536486 13.5287013,25.0536486 L14.7761195,25.0536486 C15.0128653,25.0536486 15.2047856,25.2501384 15.2047856,25.492521 C15.2047856,25.7349035 15.0128653,25.9313934 14.7761195,25.9313934 Z" id="Path" stroke-width="0.75" fill="#427FE0" fill-rule="nonzero"></path>
                    <path d="M24.4082462,25.9313934 L22.0505828,25.9313934 C21.8138371,25.9313934 21.6219167,25.7349035 21.6219167,25.492521 C21.6219167,25.2501384 21.8138371,25.0536486 22.0505828,25.0536486 L24.4082462,25.0536486 C25.2092378,25.0514708 25.8573767,24.3859368 25.8571375,23.5658711 L25.8571375,10.0880995 C25.8573767,9.26803379 25.2092378,8.60249977 24.4082462,8.600322 L5.59837891,8.600322 C4.79738733,8.60249977 4.14924841,9.26803379 4.14948759,10.0880995 L4.14948759,23.5658711 C4.14924841,24.3859368 4.79738733,25.0514708 5.59837891,25.0536486 L10.5280388,25.0536486 C10.7647845,25.0536486 10.9567048,25.2501384 10.9567048,25.492521 C10.9567048,25.7349035 10.7647845,25.9313934 10.5280388,25.9313934 L5.59837891,25.9313934 C4.32409181,25.9287314 3.29215544,24.8705011 3.29215544,23.5658711 L3.29215544,10.0880995 C3.29215544,8.78346949 4.32409181,7.72523918 5.59837891,7.72257718 L24.4082462,7.72257718 C25.6825333,7.72523918 26.7144697,8.78346949 26.7144697,10.0880995 L26.7144697,23.5658711 C26.7144697,24.8705011 25.6825333,25.9287314 24.4082462,25.9313934 L24.4082462,25.9313934 Z" id="Path" stroke-width="0.75" fill="#427FE0" fill-rule="nonzero"></path>
                    <path d="M19.0499203,25.9313934 L17.776782,25.9313934 C17.5400363,25.9313934 17.348116,25.7349035 17.348116,25.492521 C17.348116,25.2501384 17.5400363,25.0536486 17.776782,25.0536486 L19.0499203,25.0536486 C19.286666,25.0536486 19.4785864,25.2501384 19.4785864,25.492521 C19.4785864,25.7349035 19.286666,25.9313934 19.0499203,25.9313934 Z" id="Path" stroke-width="0.75" fill="#427FE0" fill-rule="nonzero"></path>
                    <path d="M26.2870896,20.6350812 C26.0503439,20.6350812 25.8584235,20.4385913 25.8584235,20.1962088 C25.8584235,19.9538262 26.0503439,19.7573364 26.2870896,19.7573364 C27.8542973,19.7377006 29.1146921,18.4314082 29.1146921,16.8267659 C29.1146921,15.2221235 27.8542973,13.9158311 26.2870896,13.8961953 C26.0503439,13.8961953 25.8584235,13.6997055 25.8584235,13.4573229 C25.8584235,13.2149404 26.0503439,13.0184505 26.2870896,13.0184505 C28.3258741,13.0408583 29.9671216,14.7393186 29.9671216,16.8267659 C29.9671216,18.9142131 28.3258741,20.6126734 26.2870896,20.6350812 L26.2870896,20.6350812 Z" id="Path" stroke-width="0.75" fill="#427FE0" fill-rule="nonzero"></path>
                    <path d="M3.71953551,20.6350812 C1.680751,20.6126734 0.0395034826,18.9142131 0.0395034826,16.8267659 C0.0395034826,14.7393186 1.680751,13.0408583 3.71953551,13.0184505 C3.95628125,13.0184505 4.14820159,13.2149404 4.14820159,13.4573229 C4.14820159,13.6997055 3.95628125,13.8961953 3.71953551,13.8961953 C2.1523278,13.9158311 0.891933,15.2221235 0.891933,16.8267659 C0.891933,18.4314082 2.1523278,19.7377006 3.71953551,19.7573364 C3.95628125,19.7573364 4.14820159,19.9538262 4.14820159,20.1962088 C4.14820159,20.4385913 3.95628125,20.6350812 3.71953551,20.6350812 L3.71953551,20.6350812 Z" id="Path" stroke-width="0.75" fill="#427FE0" fill-rule="nonzero"></path>
                    <path d="M19.9985583,16.6839129 C18.8858533,16.6839129 17.9838278,15.7604105 17.9838278,14.6212126 C17.9838278,13.4820146 18.8858533,12.5585122 19.9985583,12.5585122 C21.1112633,12.5585122 22.0132888,13.4820146 22.0132888,14.6212126 C22.0116363,15.759709 21.110578,16.682221 19.9985583,16.6839129 L19.9985583,16.6839129 Z M19.9985583,13.4362571 C19.3593448,13.4362571 18.8411599,13.9667797 18.8411599,14.6212126 C18.8411599,15.2756454 19.3593448,15.8061681 19.9985583,15.8061681 C20.6377718,15.8061681 21.1559574,15.2756454 21.1559574,14.6212126 C21.156298,14.3067148 21.0345089,14.0049783 20.8174176,13.7824712 C20.6003263,13.5599641 20.3057424,13.4349404 19.9985583,13.4349404 L19.9985583,13.4362571 Z" id="Shape" stroke-width="0.75" fill="#427FE0" fill-rule="nonzero"></path>
                    <path d="M10.0080668,16.6839129 C8.89536185,16.6839129 7.99333626,15.7604105 7.99333626,14.6212126 C7.99333626,13.4820146 8.89536185,12.5585122 10.0080668,12.5585122 C11.1207718,12.5585122 12.0227973,13.4820146 12.0227973,14.6212126 C12.0209095,15.759609 11.1199889,16.6819801 10.0080668,16.6839129 L10.0080668,16.6839129 Z M10.0080668,13.4362571 C9.36885332,13.4362571 8.85066841,13.9667797 8.85066841,14.6212126 C8.85066841,15.2756454 9.36885332,15.8061681 10.0080668,15.8061681 C10.6472803,15.8061681 11.1654665,15.2756454 11.1654665,14.6212126 C11.1659204,14.3066388 11.0441815,14.0047895 10.8270779,13.7821874 C10.6099742,13.5595853 10.3153253,13.4345016 10.0080668,13.4345016 L10.0080668,13.4362571 Z" id="Shape" stroke-width="0.75" fill="#427FE0" fill-rule="nonzero"></path>
                    <path d="M18.2183081,21.9135165 L11.7904603,21.9135165 C11.5537146,21.9135165 11.3617943,21.7170266 11.3617943,21.4746441 C11.3617943,21.2322615 11.5537146,21.0357717 11.7904603,21.0357717 L18.2183081,21.0357717 C18.4550538,21.0357717 18.6469742,21.2322615 18.6469742,21.4746441 C18.6469742,21.7170266 18.4550538,21.9135165 18.2183081,21.9135165 Z" id="Path" stroke-width="0.75" fill="#427FE0" fill-rule="nonzero"></path>
                    <path d="M15.0033126,8.60119974 C14.7665668,8.60119974 14.5746465,8.40470987 14.5746465,8.16232734 L14.5746465,4.31166083 C14.5746465,4.06927829 14.7665668,3.87278842 15.0033126,3.87278842 C15.2400583,3.87278842 15.4319786,4.06927829 15.4319786,4.31166083 L15.4319786,8.16232734 C15.4319786,8.40470987 15.2400583,8.60119974 15.0033126,8.60119974 L15.0033126,8.60119974 Z" id="Path" stroke-width="0.75" fill="#427FE0" fill-rule="nonzero"></path>
                    <path d="M15.0033126,4.75053324 C13.7279633,4.75053324 12.6940884,3.69204231 12.6940884,2.38632757 C12.6940884,1.08061284 13.7279633,0.0221219123 15.0033126,0.0221219123 C16.2786618,0.0221219123 17.3125367,1.08061284 17.3125367,2.38632757 C17.3113551,3.69154088 16.2781721,4.74932347 15.0033126,4.75053324 L15.0033126,4.75053324 Z M15.0033126,0.899866728 C14.2014547,0.899866728 13.5514206,1.56537792 13.5514206,2.38632757 C13.5514206,3.20727723 14.2014547,3.87278842 15.0033126,3.87278842 C15.8051704,3.87278842 16.4552045,3.20727723 16.4552045,2.38632757 C16.4544955,1.56567879 15.8048765,0.900592645 15.0033126,0.899866728 L15.0033126,0.899866728 Z" id="Shape" stroke-width="0.75" fill="#427FE0" fill-rule="nonzero"></path>
                    <rect id="Rectangle" stroke-width="1.5" x="0" y="29" width="30" height="6" rx="3"></rect>
                </g>
            </g>
        </g>
    </g>
</svg>