<?xml version="1.0" encoding="UTF-8"?>
<svg width="80px" height="80px" viewBox="0 0 80 80" version="1.1" xmlns="http://www.w3.org/2000/svg" xmlns:xlink="http://www.w3.org/1999/xlink">
    <!-- Generator: Sketch 59.1 (86144) - https://sketch.com -->
    <title>icn_commerce</title>
    <desc>Created with Sketch.</desc>
    <g id="Page-1" stroke="none" stroke-width="1" fill="none" fill-rule="evenodd">
        <g id="Social-Media---Tik-Tok---Douyin" transform="translate(-693.000000, -2189.000000)" fill="#FF5254" fill-rule="nonzero">
            <path d="M733,2269 C755.055871,2269 773,2251.11008 773,2229.12085 C773,2207.13161 755.055871,2189 733,2189 C710.944129,2189 693,2207.13161 693,2229.12085 C693,2251.11008 710.944129,2269 733,2269 Z M734,2232.07561 C727.934722,2232.07561 723,2227.17294 723,2221.14704 C723,2216.41892 726.055556,2212.42126 730.294184,2210.90151 L730.294184,2207.64286 C730.294184,2205.6298 731.934636,2204 733.960851,2204 C735.988021,2204 737.627517,2205.6298 737.627517,2207.64286 L737.627517,2210.87779 C741.90625,2212.37478 745,2216.38951 745,2221.14704 C745,2223.1601 743.360504,2224.7899 741.333333,2224.7899 C739.307118,2224.7899 737.666667,2223.1601 737.666667,2221.14704 C737.666667,2219.13683 736.023351,2217.50419 734,2217.50419 C731.977604,2217.50419 730.333333,2219.13683 730.333333,2221.14704 C730.333333,2223.15725 731.977604,2224.7899 734,2224.7899 C740.066233,2224.7899 745,2229.69163 745,2235.71847 C745,2240.476 741.90625,2244.48979 737.627517,2245.98772 L737.627517,2251.35714 C737.627517,2253.3702 735.988021,2255 733.960851,2255 C731.934636,2255 730.294184,2253.3702 730.294184,2251.35714 L730.294184,2245.96306 C726.055556,2244.44425 723,2240.4466 723,2235.71847 C723,2233.70446 724.640452,2232.07561 726.666667,2232.07561 C728.693837,2232.07561 730.333333,2233.70446 730.333333,2235.71847 C730.333333,2237.72868 731.977604,2239.36133 734,2239.36133 C736.023351,2239.36133 737.666667,2237.72868 737.666667,2235.71847 C737.666667,2233.70826 736.023351,2232.07561 734,2232.07561 Z" id="icn_commerce"></path>
        </g>
    </g>
</svg>