<?xml version="1.0" encoding="UTF-8"?>
<svg width="34px" height="30px" viewBox="0 0 34 30" version="1.1" xmlns="http://www.w3.org/2000/svg" xmlns:xlink="http://www.w3.org/1999/xlink">
    <!-- Generator: Sketch 59.1 (86144) - https://sketch.com -->
    <title>icn_chinese_marketing</title>
    <desc>Created with Sketch.</desc>
    <g id="Page-1" stroke="none" stroke-width="1" fill="none" fill-rule="evenodd" stroke-linejoin="round">
        <g id="New-Mega-Menu-Aug-2020" transform="translate(-869.000000, -386.000000)" fill-rule="nonzero" stroke="#427FE0">
            <g id="icn_chinese_marketing" transform="translate(871.000000, 386.000000)">
                <path d="M11.2080986,11.3415794 L19.8923854,11.3415794 L12.8716427,16.7165889 L15.5887694,25.5041519 L8.47058824,20.0768786 L1.34693358,25.5083252 L4.07764626,16.7166047 L-2.95526368,11.3415794 L5.73307787,11.3415794 L8.47058824,2.48809277 L11.2080986,11.3415794 Z" id="Path" stroke-width="2"></path>
                <polygon id="Path" points="23.3317162 29.4615385 21.5894482 27.3845057 19.0121286 28.3531219 20.5069739 26.1063316 18.7647059 24.0193131 21.434809 24.7083288 22.9399636 22.4615385 23.0842935 25.1377154 25.7647059 25.826731 23.177077 26.7853616"></polygon>
                <polygon id="Path" points="26.1507458 23.4615385 26.9484666 20.7908976 24.7647059 19.1739081 27.4370706 19.1321793 28.2248198 16.4615385 29.0923412 19.1113149 31.7647059 19.0800183 29.6208312 20.7491689 30.4783811 23.3989453 28.2946204 21.7819557"></polygon>
                <polygon id="Path" points="31.0193821 8.08870609 29.8308929 10.5265674 31.7647059 12.4181859 29.0956411 12.0337928 27.9071519 14.4615385 27.4438426 11.7910182 24.7647059 11.4066252 27.1618282 10.1421743 26.6985188 7.46153846 28.6323318 9.35315696"></polygon>
                <polygon id="Path" points="23.414266 0.461538462 23.2089874 3.13153846 25.7647059 4.14153846 23.0858203 4.78153846 22.8908056 7.46153846 21.4435915 5.18153846 18.7647059 5.82153846 20.5403657 3.77153846 19.0828877 1.50153846 21.6386062 2.51153846"></polygon>
            </g>
        </g>
    </g>
</svg>