<?xml version="1.0" encoding="UTF-8"?>
<svg width="32px" height="32px" viewBox="0 0 32 32" version="1.1" xmlns="http://www.w3.org/2000/svg" xmlns:xlink="http://www.w3.org/1999/xlink">
    <!-- Generator: Sketch 59.1 (86144) - https://sketch.com -->
    <title>icn_email</title>
    <desc>Created with Sketch.</desc>
    <g id="Page-1" stroke="none" stroke-width="1" fill="none" fill-rule="evenodd">
        <g id="Careers-Page---2020---Job-Listing" transform="translate(-823.000000, -1231.000000)" fill="#427FE0">
            <g id="Group-3" transform="translate(648.000000, 1231.000000)">
                <path d="M202.3125,4.6875 C199.187484,1.562484 195.416688,0 191,0 C186.583312,0 182.812516,1.562484 179.6875,4.6875 C176.562484,7.812516 175,11.583312 175,16 C175,20.416688 176.562484,24.187484 179.6875,27.3125 C182.812516,30.4375156 186.583312,32 191,32 C195.416688,32 199.187484,30.4375156 202.3125,27.3125 C205.437516,24.187484 207,20.416688 207,16 C207,11.583312 205.437516,7.812516 202.3125,4.6875 Z M198.875,9 L183.125,9 C182.820311,9 182.556642,9.1179074 182.333984,9.3537246 C182.111327,9.5895394 182,9.86879353 182,10.1914894 L182,12.2021277 L191,16 L200,12.2021277 L200,10.1914894 C200,9.86879353 199.888672,9.5895394 199.666015,9.3537246 C199.443359,9.1179074 199.179688,9 198.875,9 Z M182,14 L182,21.8292683 C182,22.1463429 182.111327,22.4207306 182.333984,22.652439 C182.556642,22.8841475 182.820311,23 183.125,23 L198.875,23 C199.179688,23 199.443359,22.8841475 199.666015,22.652439 C199.888672,22.4207306 200,22.1463429 200,21.8292683 L200,14 L191,17.7317073 L182,14 Z" id="icn_email"></path>
            </g>
        </g>
    </g>
</svg>