<?xml version="1.0" encoding="UTF-8"?>
<svg width="80px" height="80px" viewBox="0 0 80 80" version="1.1" xmlns="http://www.w3.org/2000/svg" xmlns:xlink="http://www.w3.org/1999/xlink">
    <!-- Generator: Sketch 59.1 (86144) - https://sketch.com -->
    <title>icn_2</title>
    <desc>Created with Sketch.</desc>
    <g id="Page-1" stroke="none" stroke-width="1" fill="none" fill-rule="evenodd">
        <g id="Social-Media---Weibo" transform="translate(-387.000000, -3958.000000)" fill-rule="nonzero">
            <g id="icn_2" transform="translate(387.000000, 3958.000000)">
                <path d="M40,0 C17.9086187,0 0,17.9086187 0,40 C0,62.0913813 17.9086187,80 40,80 C62.0913813,80 80,62.0913813 80,40 C79.9765625,17.918496 62.0816714,0.0236049436 40,0 Z" id="Shape" fill="#FF5254"></path>
                <path d="M39.545,22.105 C41.0450075,22.105 42.4174938,22.3262478 43.6625,22.76875 C44.9075062,23.2112522 45.9724956,23.837496 46.8575,24.6475 C47.7425044,25.457504 48.4324975,26.4324943 48.9275,27.5725 C49.4225025,28.7125057 49.67,29.979993 49.67,31.375 C49.67,32.575006 49.4937518,33.6849949 49.14125,34.705 C48.7887482,35.7250051 48.316253,36.6999953 47.72375,37.63 C47.131247,38.5600046 46.437504,39.4599956 45.6425,40.33 C44.847496,41.2000044 44.0150043,42.0849955 43.145,42.985 L35.81,50.4775 C36.5300036,50.267499 37.2349965,50.1062506 37.925,49.99375 C38.6150035,49.8812494 39.2749969,49.825 39.905,49.825 L48.2525,49.825 C48.852503,49.825 49.3287482,49.9937483 49.68125,50.33125 C50.0337518,50.6687517 50.21,51.1149972 50.21,51.67 L50.21,55 L27.89,55 L27.89,53.155 C27.89,52.7799981 27.9687492,52.390002 28.12625,51.985 C28.2837508,51.579998 28.5349983,51.2050017 28.88,50.86 L38.7575,40.96 C39.5825041,40.1199958 40.3212467,39.3175038 40.97375,38.5525 C41.6262533,37.7874962 42.1737478,37.0300037 42.61625,36.28 C43.0587522,35.5299963 43.3962488,34.7687539 43.62875,33.99625 C43.8612512,33.2237461 43.9775,32.4100043 43.9775,31.555 C43.9775,30.7749961 43.8650011,30.088753 43.64,29.49625 C43.4149989,28.903747 43.0925021,28.405002 42.6725,28 C42.2524979,27.594998 41.7537529,27.291251 41.17625,27.08875 C40.5987471,26.886249 39.9500036,26.785 39.23,26.785 C37.8949933,26.785 36.7962543,27.1224966 35.93375,27.7975 C35.143121,28.4162531 34.5699227,29.2303603 34.2141409,30.2398426 L34.1225,30.52 C33.9574992,31.0900028 33.7100017,31.4987488 33.38,31.74625 C33.0499984,31.9937512 32.6300026,32.1175 32.12,32.1175 C31.8949989,32.1175 31.6475013,32.0950002 31.3775,32.05 L28.4525,31.5325 C28.6775011,29.9724922 29.1124968,28.6037559 29.7575,27.42625 C30.4025032,26.2487441 31.2087452,25.2662539 32.17625,24.47875 C33.1437548,23.6912461 34.2537437,23.098752 35.50625,22.70125 C36.7587563,22.303748 38.1049928,22.105 39.545,22.105 Z" id="2" fill="#FFFFFF"></path>
            </g>
        </g>
    </g>
</svg>