<?xml version="1.0" encoding="UTF-8"?>
<svg width="80px" height="80px" viewBox="0 0 80 80" version="1.1" xmlns="http://www.w3.org/2000/svg" xmlns:xlink="http://www.w3.org/1999/xlink">
    <!-- Generator: Sketch 59.1 (86144) - https://sketch.com -->
    <title>icn_5</title>
    <desc>Created with Sketch.</desc>
    <g id="Page-1" stroke="none" stroke-width="1" fill="none" fill-rule="evenodd">
        <g id="Social-Media---Weibo" transform="translate(-387.000000, -4666.000000)" fill-rule="nonzero">
            <g id="icn_5" transform="translate(387.000000, 4666.000000)">
                <path d="M40,0 C17.9086187,0 0,17.9086187 0,40 C0,62.0913813 17.9086187,80 40,80 C62.0913813,80 80,62.0913813 80,40 C79.9765625,17.918496 62.0816714,0.0236049436 40,0 Z" id="Shape" fill="#FF5254"></path>
                <path d="M48.2525,24.8275 C48.2525,25.622504 48.0012525,26.2674975 47.49875,26.7625 C46.9962475,27.2575025 46.1600059,27.505 44.99,27.505 L36.035,27.505 L34.865,34.3 C36.3350073,33.9999985 37.6774939,33.85 38.8925,33.85 C40.6025085,33.85 42.1062435,34.1049974 43.40375,34.615 C44.7012565,35.1250025 45.7924956,35.8299955 46.6775,36.73 C47.5625044,37.6300045 48.2299977,38.683744 48.68,39.89125 C49.1300023,41.098756 49.355,42.399993 49.355,43.795 C49.355,45.5200086 49.051253,47.0949929 48.44375,48.52 C47.836247,49.9450071 46.9925054,51.1637449 45.9125,52.17625 C44.8324946,53.1887551 43.5537574,53.9724972 42.07625,54.5275 C40.5987426,55.0825028 38.9900087,55.36 37.25,55.36 C36.2299949,55.36 35.2625046,55.2550011 34.3475,55.045 C33.4324954,54.8349989 32.573754,54.5537518 31.77125,54.20125 C30.968746,53.8487482 30.2262534,53.4437523 29.54375,52.98625 C28.8612466,52.5287477 28.2500027,52.0450025 27.71,51.535 L29.42,49.1725 C29.7800018,48.6624975 30.259997,48.4075 30.86,48.4075 C31.2350019,48.4075 31.6137481,48.5274988 31.99625,48.7675 C32.3787519,49.0075012 32.8249974,49.2699986 33.335,49.555 C33.8450026,49.8400014 34.4374966,50.1024988 35.1125,50.3425 C35.7875034,50.5825012 36.6049952,50.7025 37.565,50.7025 C38.5850051,50.7025 39.4849961,50.5375017 40.265,50.2075 C41.0450039,49.8774983 41.6937474,49.416253 42.21125,48.82375 C42.7287526,48.231247 43.1187487,47.5262541 43.38125,46.70875 C43.6437513,45.8912459 43.775,45.0025048 43.775,44.0425 C43.775,42.2724912 43.2612551,40.888755 42.23375,39.89125 C41.2062449,38.893745 39.69501,38.395 37.7,38.395 C36.1249921,38.395 34.542508,38.6799971 32.9525,39.25 L29.4875,38.26 L32.1875,22.465 L48.2525,22.465 L48.2525,24.8275 Z" id="5" fill="#FFFFFF"></path>
            </g>
        </g>
    </g>
</svg>