<?xml version="1.0" encoding="UTF-8"?>
<svg width="146px" height="146px" viewBox="0 0 146 146" version="1.1" xmlns="http://www.w3.org/2000/svg" xmlns:xlink="http://www.w3.org/1999/xlink">
    <!-- Generator: Sketch 63.1 (92452) - https://sketch.com -->
    <title>icn_crm_software</title>
    <desc>Created with Sketch.</desc>
    <g id="Page-1" stroke="none" stroke-width="1" fill="none" fill-rule="evenodd">
        <g id="Hubspot" transform="translate(-220.000000, -3813.000000)" fill="#FF5254" fill-rule="nonzero">
            <g id="icn_crm_software" transform="translate(220.000000, 3813.000000)">
                <path d="M46,52.8535354 C45.9947989,62.7516423 49.3874923,72.3453552 55.6000045,80 L86,49.2929293 L86,10 C63.5497768,11.3614532 46.0256537,30.1357217 46,52.8535354 L46,52.8535354 Z" id="Path"></path>
                <path d="M88.9489462,53 L58,83.1659494 C70.4174102,94.9013884 88.8358948,98.2515605 104.759989,91.6712098 C120.684083,85.0908591 131.019858,69.8584969 131,53 L88.9489462,53 Z" id="Path"></path>
                <path d="M40,52.875 C40.043447,31.3285936 54.36585,12.4631389 75,6.77303571 L75,0 L20,0 L20,17.625 C20,19.0155741 18.8807119,20.1428571 17.5,20.1428571 L0,20.1428571 L0,141 L75,141 L75,98.9769643 C54.36585,93.2868611 40.043447,74.4214064 40,52.875 Z M10,30.2142857 L35,30.2142857 L35,35.25 L10,35.25 L10,30.2142857 Z M10,45.3214286 L35,45.3214286 L35,50.3571429 L10,50.3571429 L10,45.3214286 Z M10,60.4285714 L35,60.4285714 L35,65.4642857 L10,65.4642857 L10,60.4285714 Z M10,75.5357143 L35,75.5357143 L35,80.5714286 L10,80.5714286 L10,75.5357143 Z M37.5,135.964286 C25.0735931,135.964286 15,125.818738 15,113.303571 C15,100.788405 25.0735931,90.6428571 37.5,90.6428571 C49.9264069,90.6428571 60,100.788405 60,113.303571 C59.9807274,125.81069 49.9184151,135.944875 37.5,135.964286 L37.5,135.964286 Z" id="Shape"></path>
                <path d="M37.5,96 C27.8350169,96 20,103.835017 20,113.5 C20,123.164983 27.8350169,131 37.5,131 C47.1649831,131 55,123.164983 55,113.5 C54.9889784,103.839586 47.1604141,96.0110216 37.5,96 L37.5,96 Z M37.5,111 C41.1300122,111.028163 44.2187725,113.652031 44.8334966,117.229726 C45.4482207,120.80742 43.4124234,124.311796 40,125.55 L40,128.5 L35,128.5 L35,125.55 C32.0153708,124.486924 30.016319,121.668261 30,118.5 L35,118.5 C35,119.880712 36.1192881,121 37.5,121 C38.8807119,121 40,119.880712 40,118.5 C40,117.119288 38.8807119,116 37.5,116 C33.8699878,115.971837 30.7812275,113.347969 30.1665034,109.770274 C29.5517793,106.19258 31.5875766,102.688204 35,101.45 L35,98.5 L40,98.5 L40,101.45 C42.9846292,102.513076 44.983681,105.331739 45,108.5 L40,108.5 C40,107.119288 38.8807119,106 37.5,106 C36.1192881,106 35,107.119288 35,108.5 C35,109.880712 36.1192881,111 37.5,111 L37.5,111 Z" id="Shape"></path>
                <polygon id="Path" points="15 3 3 15 15 15"></polygon>
                <path d="M101,0 L101,38 L141,38 C138.575811,17.2328832 121.713349,1.21354372 101,0 L101,0 Z" id="Path"></path>
                <polygon id="Path" points="90 111 101 111 101 116 90 116"></polygon>
                <polygon id="Path" points="106 111 146 111 146 116 106 116"></polygon>
                <polygon id="Path" points="90 126 101 126 101 131 90 131"></polygon>
                <polygon id="Path" points="106 126 146 126 146 131 106 131"></polygon>
                <polygon id="Path" points="90 141 101 141 101 146 90 146"></polygon>
                <polygon id="Path" points="106 141 146 141 146 146 106 146"></polygon>
            </g>
        </g>
    </g>
</svg>