<svg width="114" height="113" viewBox="0 0 114 113" fill="none" xmlns="http://www.w3.org/2000/svg">
<path d="M36.8543 112.085C35.2985 112.108 34.1229 111.358 33.0626 110.308C23.0935 100.32 13.0898 90.3652 3.15521 80.3302C0.216338 77.3658 0.308539 75.3704 3.23589 72.4406C26.5625 49.0832 49.9006 25.7259 73.2503 2.38006C76.2698 -0.641984 78.2406 -0.688122 81.3408 2.38006C91.2869 12.2536 101.187 22.1848 111.064 32.1275C113.703 34.792 113.634 36.8451 110.937 39.5442C87.4606 63.0515 63.9842 86.5588 40.4962 110.055C39.4705 111.081 38.4909 112.165 36.8543 112.085ZM58.2332 52.9934C58.1641 56.4653 54.6605 58.3339 51.9406 56.6037C49.0017 54.7236 46.8696 51.9323 44.3917 49.5216C40.9688 46.1996 41.084 46.2342 37.7072 49.4985C36.1398 51.0095 36.1859 51.9669 37.7533 53.4202C40.4271 55.8886 43.0087 58.4954 45.452 61.1945C47.3651 63.3053 47.2729 66.1312 45.5211 67.6653C43.6887 69.2802 41.522 69.1071 39.3783 67.0425C36.7506 64.5049 34.1344 61.9557 31.645 59.2913C30.2851 57.8264 29.2248 57.6534 27.9685 59.2913C27.5652 59.8219 27.0926 60.3294 26.551 60.7216C24.3958 62.2787 24.7415 63.6167 26.6086 65.2431C29.2824 67.573 31.887 70.0068 34.2727 72.6252C36.3703 74.9321 36.2205 77.3312 34.3419 78.9922C32.6362 80.4917 30.2044 80.2495 28.1529 78.3117C26.6893 76.9275 25.3178 75.4396 23.8541 74.0439C17.4808 67.9537 19.8549 67.6307 12.9515 74.3207C11.4532 75.7625 11.361 76.8929 12.8938 78.4039C20.339 85.763 27.738 93.1681 35.0795 100.631C36.3472 101.923 37.154 101.831 38.3411 100.596C41.9484 96.8707 45.6479 93.2373 49.3129 89.5693C66.4851 72.3714 83.6574 55.185 100.841 37.9986C102.028 36.8105 103.238 35.957 101.36 34.1115C93.8224 26.7063 86.4234 19.1628 79.0128 11.6423C77.8257 10.4427 76.8346 10.2697 75.636 11.5731C74.3336 12.9803 73.0198 14.399 71.5676 15.6447C69.9541 17.0404 69.9426 18.1708 71.51 19.6472C74.2414 22.2079 76.8691 24.8839 79.4392 27.606C81.2832 29.5553 81.2141 32.1852 79.4853 33.777C77.7335 35.3918 75.659 35.288 73.6191 33.3502C71.4639 31.297 69.4355 29.117 67.2919 27.0524C63.2351 23.1422 64.5374 22.923 60.1233 27.0293C58.4752 28.5634 58.7403 29.5323 60.2386 30.9395C63.0391 33.5578 65.7245 36.3261 68.3637 39.1059C69.666 40.467 70.0463 42.1395 69.0667 43.8812C68.0986 45.5998 66.5543 46.165 64.6642 45.9113C63.1544 45.7036 62.048 44.7809 61.0223 43.7428C58.579 41.2975 56.1011 38.8752 53.7039 36.3953C52.7012 35.3572 51.8599 35.1726 50.8687 36.3838C50.3271 37.0528 49.7047 37.6756 49.0363 38.2062C47.3421 39.5673 47.4804 40.7669 49.0247 42.2087C51.4104 44.4348 53.6808 46.7879 55.9513 49.1409C57.0807 50.3174 58.1525 51.5747 58.1871 52.9934H58.2332Z" fill="#427FE0"/>
</svg>
