<svg width="116" height="118" viewBox="0 0 116 118" fill="none" xmlns="http://www.w3.org/2000/svg">
<path d="M58.2797 76.2201C51.6 76.2201 44.9115 76.2377 38.2318 76.2201C35.6586 76.2201 35.1651 75.5957 35.5 73.0101C36.5751 64.7698 43.5456 57.0836 51.6353 55.096C61.787 52.5985 70.3084 55.0785 77.0586 63.1605C79.5261 66.1154 80.7598 69.6331 81.2268 73.3795C81.5265 75.7803 80.9977 76.2113 78.5479 76.2201C71.7889 76.2464 65.0387 76.2201 58.2797 76.2289V76.2201Z" fill="#427FE0"/>
<path d="M69.3831 41.6231C69.3567 47.7 64.3954 52.5193 58.2268 52.4489C52.1111 52.3786 47.2907 47.4538 47.326 41.3241C47.3612 35.1241 52.2609 30.4103 58.6233 30.4543C64.6685 30.4983 69.4095 35.4231 69.3831 41.6319V41.6231Z" fill="#427FE0"/>
<path d="M28.362 72.9134C28.3972 74.3733 27.7892 75.455 26.4409 76.0794C20.9244 78.6209 15.4256 81.2153 9.87386 83.6777C7.67961 84.6539 5.88191 83.9855 5.2298 82.2706C4.51601 80.4062 5.42367 78.7353 7.54743 77.7679C12.8083 75.3758 18.034 72.9046 23.3037 70.5301C26.0267 69.3077 28.2915 70.4334 28.362 72.9134Z" fill="#427FE0"/>
<path d="M111.7 81.0658C111.7 83.669 109.4 84.8386 106.58 83.5722C102.121 81.5583 97.688 79.4653 93.2555 77.3986C92.2597 76.9325 91.2374 76.5279 90.3033 75.9651C88.4704 74.8746 87.9328 73.2213 88.7612 71.524C89.4838 70.0465 91.167 69.554 93.1497 70.4247C96.9566 72.0956 100.728 73.8633 104.518 75.5869C106.183 76.3433 107.849 77.082 109.505 77.8471C110.862 78.4803 111.761 79.4565 111.7 81.0658Z" fill="#427FE0"/>
<path d="M34.5306 32.3891C33.3586 32.4682 32.4245 32.0109 31.5961 30.9908C28.0095 26.5496 24.3436 22.1788 20.713 17.7729C19.2149 15.9612 19.1444 13.8506 20.5279 12.6545C21.9908 11.397 24.1674 11.8367 25.6831 13.6659C29.2785 18.0015 32.8739 22.3283 36.4781 26.6639C37.5356 27.9391 38.0026 29.3286 37.3417 30.938C36.8394 32.134 35.8084 32.4067 34.5394 32.3891H34.5306Z" fill="#427FE0"/>
<path d="M93.9252 11.9863C95.344 11.9423 96.331 12.4348 96.8245 13.5253C97.5383 15.0819 97.1417 16.489 96.049 17.7905C92.7003 21.7656 89.3869 25.767 86.0647 29.7684C85.7387 30.1642 85.4655 30.6039 85.1482 30.9996C83.9762 32.4683 81.5969 32.8816 80.2398 31.8703C78.8827 30.8501 78.7329 28.801 80.0371 27.1389C82.1609 24.4303 84.3639 21.7832 86.5494 19.1185C88.1268 17.1925 89.7659 15.3193 91.3168 13.3758C92.057 12.4436 92.903 11.8631 93.9252 11.9863Z" fill="#427FE0"/>
<path d="M61.4433 105.03C61.4433 107.959 61.4786 110.879 61.4345 113.807C61.3993 115.927 60.333 117.043 58.4383 117.096C56.5437 117.149 55.3188 116.067 55.3012 113.957C55.2307 107.889 55.2307 101.82 55.3012 95.7436C55.3276 93.4307 56.4732 92.3929 58.5176 92.4721C60.4299 92.5512 61.4081 93.5978 61.4433 95.8139C61.4874 98.8832 61.4521 101.961 61.4521 105.03H61.4433Z" fill="#427FE0"/>
<path d="M105.408 51.0771C103.116 51.0507 101.812 50.4087 101.645 48.5003C101.486 46.7063 102.103 45.2112 104.086 44.9474C106.906 44.5605 109.655 43.7162 112.519 43.6371C114.396 43.5843 115.718 44.3934 115.956 46.2842C116.194 48.1661 115.154 49.371 113.312 49.7227C110.51 50.2592 107.69 50.6901 105.399 51.0771H105.408Z" fill="#427FE0"/>
<path d="M5.66164 43.6634C7.75896 44.0504 10.4203 44.4373 13.0375 45.0617C14.8264 45.4838 15.3639 46.9349 15.1348 48.641C14.8969 50.4263 13.6367 51.209 12.0329 51.0507C9.35398 50.7956 6.66624 50.4175 4.04018 49.8282C1.58156 49.283 0.735586 47.999 1.06164 46.0379C1.35244 44.2878 2.52447 43.5931 5.66164 43.6546V43.6634Z" fill="#427FE0"/>
<path d="M27.9391 107.853C25.7096 107.853 24.2203 105.971 25.0751 103.79C26.159 101.011 27.851 98.4874 29.6399 96.1041C30.6004 94.8201 32.2307 94.7586 33.6494 95.55C35.0947 96.3591 35.3502 97.8454 34.8567 99.1997C33.8169 102.014 31.9487 104.406 30.3096 106.904C29.8161 107.651 28.8644 107.853 27.9479 107.862L27.9391 107.853Z" fill="#427FE0"/>
<path d="M84.9103 95.1192C86.0911 95.04 87.0428 95.6644 87.7037 96.7373C88.8934 98.6721 90.0742 100.616 91.1846 102.586C92.2949 104.547 92.0482 106.358 90.6382 107.308C89.052 108.381 87.2719 107.985 85.9501 106.042C84.593 104.045 83.2183 102.023 82.2049 99.8593C80.9976 97.2826 82.3018 95.1279 84.9103 95.1279V95.1192Z" fill="#427FE0"/>
<path d="M61.408 7.05258C61.408 8.51244 61.4785 9.9811 61.3815 11.4322C61.2758 12.9448 60.4122 13.8154 58.8348 13.9034C57.1957 14.0001 55.7417 13.5604 55.4949 11.8015C55.0367 8.61797 55.0367 5.38165 55.4949 2.1893C55.724 0.571145 57.0459 -0.00928243 58.6233 0.0962497C60.2359 0.201782 61.2581 1.05483 61.3903 2.6642C61.5137 4.11527 61.4168 5.58392 61.4168 7.04379L61.408 7.05258Z" fill="#427FE0"/>
</svg>
