<svg width="92" height="92" viewBox="0 0 92 92" fill="none" xmlns="http://www.w3.org/2000/svg">
<path d="M44.96 91.4163C39.14 91.7763 33.18 90.0163 27.39 87.6263C25.19 86.7163 23.23 86.8963 21.13 87.7463C18.05 88.9863 15.01 90.4963 11.8 91.2063C3.99996 92.9363 -1.86004 85.7163 0.829956 77.9163C1.88996 74.8563 2.95996 71.7863 4.22996 68.8063C4.80996 67.4463 4.81996 66.3663 4.18996 65.0363C-0.0100441 56.2563 -0.930044 46.8563 0.879956 37.5063C4.03996 21.1463 13.51 9.28626 29.21 3.45626C48.03 -3.54374 64.94 0.486259 79.11 14.6863C85.28 20.8663 89.06 28.5163 90.64 37.2263C93.57 53.3863 89.06 67.2163 77.55 78.6863C71.24 84.9763 63.52 88.8763 54.65 90.5663C51.59 91.1563 48.58 91.3363 44.95 91.3963L44.96 91.4163ZM10.69 80.8863C14.83 79.3563 18.35 78.1263 21.81 76.7363C24.17 75.7863 26.21 75.6163 28.65 76.9463C37.72 81.9063 47.33 82.5863 57.11 79.3863C76.96 72.8963 86.77 50.3163 77.94 31.1363C73.79 22.1163 66.93 15.9163 57.71 12.5763C48.75 9.32626 39.71 9.70626 31.01 13.7763C19.26 19.2763 12.54 28.5763 10.49 41.3463C9.18996 49.4463 11.29 56.8363 15.09 63.8663C15.92 65.3963 16.05 66.6863 15.38 68.3263C13.78 72.2463 12.4 76.2463 10.69 80.8863Z" fill="#427FE0"/>
<path d="M45.78 51.3763C48.61 51.3763 51.44 51.3063 54.27 51.3963C57.03 51.4863 57.92 52.5363 58.11 55.2363C58.49 60.6063 57.54 65.4163 52.58 68.4963C48.62 70.9463 44.36 71.3763 40.26 69.1063C36.23 66.8863 33.42 63.5963 33.34 58.6063C33.24 51.5363 33.4 51.3463 40.54 51.3463C42.29 51.3463 44.04 51.3463 45.78 51.3463V51.3663V51.3763Z" fill="#427FE0"/>
<path d="M37.0599 39.2762C37.0199 42.8762 34.8799 44.9362 31.2599 44.8762C27.7499 44.8162 25.7699 42.6362 25.8299 38.9162C25.8899 35.5762 28.1699 33.3462 31.4999 33.3662C34.8999 33.3962 37.0999 35.7362 37.0599 39.2762Z" fill="#427FE0"/>
<path d="M59.9 44.8763C56.44 44.8463 54.32 42.5563 54.37 38.9163C54.42 35.5563 56.74 33.3063 60.09 33.3663C63.47 33.4263 65.59 35.6363 65.6 39.1163C65.6 42.7963 63.52 44.9063 59.9 44.8763Z" fill="#427FE0"/>
</svg>
