<svg width="100" height="100" viewBox="0 0 100 100" fill="none" xmlns="http://www.w3.org/2000/svg">
<path d="M87.9699 69.2169C103.761 53.4255 103.761 27.731 87.9699 11.9397C72.1786 -3.85164 46.4843 -3.85164 30.6933 11.9397C17.2966 25.3365 15.2676 45.2609 24.6011 60.8197C24.6011 60.8197 25.2715 61.9445 24.366 62.8493C19.2004 68.0146 3.70267 83.5127 3.70267 83.5127C-0.410188 87.6252 -1.38929 93.376 2.25798 97.0239L2.88595 97.6513C6.53322 101.299 12.2843 100.32 16.3969 96.2075C16.3969 96.2075 31.8618 80.7422 37.0168 75.5876C37.9657 74.6387 39.0901 75.3091 39.0901 75.3091C54.6487 84.6423 74.5731 82.6136 87.9699 69.2169ZM38.1705 61.7394C26.5023 50.0712 26.5027 31.086 38.1708 19.4178C49.839 7.74997 68.8242 7.74965 80.4921 19.4178C92.1602 31.0857 92.1602 50.0712 80.4921 61.7394C68.8239 73.4069 49.839 73.4069 38.1705 61.7394Z" fill="#427FE0"/>
<path d="M40.7554 38.1748C40.2123 38.1748 39.6602 38.068 39.128 37.8433C37.0023 36.9436 36.0078 34.4909 36.9074 32.3648C42.5621 19.0018 58.0338 12.7307 71.3965 18.3854C73.5222 19.2851 74.5168 21.7378 73.6171 23.8638C72.7171 25.9899 70.265 26.9838 68.1383 26.0844C59.0213 22.2265 48.4644 26.5053 44.6068 35.6224C43.9319 37.2169 42.384 38.1748 40.7554 38.1748Z" fill="#427FE0"/>
</svg>
