<svg width="101" height="101" viewBox="0 0 101 101" fill="none" xmlns="http://www.w3.org/2000/svg">
<path d="M7.34452 72.6962C7.51882 70.7788 8.50188 68.5129 9.00387 66.1355C9.02478 66.0239 9.07359 65.9124 9.12239 65.8078C10.475 62.524 10.2309 59.7072 7.11444 57.3856C5.40629 56.1166 3.97702 54.4573 2.49198 52.9025C0.45614 50.7691 0.511917 49.1446 2.58959 47.06C4.6812 44.9614 6.7519 42.8488 8.87837 40.7851C9.9939 39.7045 10.3495 38.5471 9.9172 37.0132C9.08753 34.1199 8.35546 31.1916 7.61643 28.2703C6.85648 25.2793 7.69312 24.0104 10.6911 23.1947C13.8146 22.3441 16.9032 21.354 20.0197 20.4686C21.1213 20.1548 21.6372 19.4088 21.9091 18.3979C22.6691 15.5394 23.436 12.6878 24.1611 9.82228C24.921 6.81036 26.1621 5.91794 29.2088 6.58028C32.0325 7.19382 34.8144 8.02349 37.6102 8.74859C39.4996 9.23663 41.0613 8.91592 42.4557 7.35418C44.3451 5.23468 46.4298 3.28251 48.4587 1.29547C50.0901 -0.301124 52.0632 -0.308096 53.6807 1.27456C55.9606 3.50561 58.2335 5.75758 60.4575 8.04441C61.4057 9.01352 62.4237 9.3691 63.7553 9.0205C66.7742 8.21871 69.8001 7.4239 72.8399 6.70578C76.0052 5.95977 77.1207 6.78247 77.9295 9.92686C78.7034 12.9527 79.7213 15.9158 80.537 18.9278C80.8577 20.113 81.6386 20.6917 82.6705 20.9845C85.5151 21.7793 88.3597 22.5532 91.2321 23.2225C94.1604 23.9058 95.1016 25.0701 94.5229 28.0542C94.0976 30.2643 93.3795 32.4187 92.8148 34.6079C92.5568 35.6188 92.3128 36.6298 92.1455 37.6616C91.9154 39.0073 92.3128 40.1088 93.3586 41.0919C95.513 43.1208 97.5767 45.2542 99.6544 47.3598C101.425 49.1585 101.439 51.0549 99.6753 52.8398C97.5139 55.029 95.3317 57.2043 93.1494 59.3656C92.0967 60.4114 91.5668 61.4781 92.0618 63.0817C92.9682 66.01 93.7281 68.987 94.4184 71.978C95.1295 75.0527 94.2719 76.238 91.2461 77.0049C88.3248 77.7439 85.4453 78.6503 82.5171 79.3893C81.0808 79.7519 80.3767 80.6722 80.0281 81.9899C79.2681 84.8415 78.4942 87.693 77.7691 90.5516C77.0649 93.3264 75.8169 94.2467 72.9445 93.6332C70.058 93.0127 67.2065 92.2109 64.3758 91.3464C62.5352 90.7816 61.1757 91.1651 59.8719 92.5874C57.9127 94.7278 55.8002 96.7218 53.7365 98.7646C51.9447 100.536 50.0274 100.556 48.2565 98.8065C46.0254 96.6033 43.8153 94.3792 41.6051 92.1482C40.5454 91.0745 39.4577 90.6492 37.8681 91.1581C35.0026 92.0784 32.0604 92.7477 29.1391 93.4868C26.2527 94.2189 24.8653 93.3683 24.1262 90.5167C23.3872 87.6582 22.5924 84.8066 21.8394 81.9481C21.4141 80.3306 20.4798 79.4242 18.7787 79.0477C15.8365 78.3923 12.9361 77.5487 10.0427 76.719C7.9232 76.1125 7.30966 75.2549 7.33755 72.7101L7.34452 72.6962ZM64.5432 33.074C63.0302 32.9207 62.0402 33.9316 61.0502 34.9286C52.6419 43.3578 44.2406 51.787 35.8393 60.2232C35.393 60.6764 34.9608 61.1505 34.5913 61.6664C33.6779 62.9632 33.7407 64.267 34.6749 65.5359C36.2227 67.6414 38.4468 67.6693 40.6012 65.5289C45.872 60.2859 51.122 55.022 56.3719 49.7651C59.8998 46.2303 63.4276 42.6955 66.9625 39.1676C68.1268 38.0033 68.3848 36.574 67.7503 35.1587C67.1925 33.9107 66.1746 32.9973 64.5432 33.074ZM38.3771 43.4833C41.9677 43.4972 44.5892 40.9803 44.631 37.4873C44.6659 34.085 41.884 31.331 38.4119 31.345C34.9608 31.3589 32.5206 33.8898 32.5066 37.4734C32.4927 41.2453 34.661 43.4694 38.3771 43.4833ZM63.4416 68.5896C67.1507 68.6105 69.7373 66.1982 69.7443 62.6843C69.7582 59.2262 67.074 56.5141 63.595 56.4792C60.2484 56.4443 57.6269 59.1007 57.606 62.5518C57.5851 66.3167 59.7603 68.5687 63.4346 68.5896H63.4416Z" fill="#427FE0"/>
</svg>
