<svg width="136" height="113" viewBox="0 0 136 113" fill="none" xmlns="http://www.w3.org/2000/svg">
<path d="M37.9853 112.096C27.6674 112.096 17.3496 112.106 7.02174 112.096C2.11751 112.096 0 109.989 0 105.166C0 85.1147 0 65.0634 0 45.012C0 40.2089 2.51704 37.7125 7.42127 37.7025C20.1563 37.6825 32.8913 37.6426 45.6263 37.7324C47.9935 37.7524 49.3419 36.9935 50.5405 34.8665C56.4436 24.3516 62.5264 13.9464 68.6093 3.53129C70.6269 0.0862164 73.8431 -0.842457 77.339 1.13472C89.1251 7.81517 100.861 14.5955 112.618 21.3359C119.25 25.1404 125.892 28.915 132.504 32.7496C135.93 34.7367 136.959 38.022 135.041 41.4371C130.556 49.4058 125.962 57.3045 121.387 65.2132C115.904 74.7096 110.41 84.206 104.897 93.6925C102.12 98.4757 99.0435 99.3045 94.329 96.5883C76.7497 86.4628 59.1704 76.3473 41.6011 66.2018C36.4172 63.206 35.718 60.6397 38.5946 55.3972C39.1939 54.2988 39.8032 53.2203 40.4125 52.1219C41.0417 50.9935 42.46 49.8252 41.7509 48.6468C41.1316 47.6283 39.4236 48.2274 38.215 48.2175C29.8948 48.1875 21.5646 48.2574 13.2444 48.1575C10.9571 48.1276 9.97826 48.7167 9.99824 51.2132C10.0881 67.1903 10.0682 83.1675 10.0082 99.1347C10.0082 101.252 10.6375 102.08 12.8549 102.08C29.745 102.011 46.6451 102.011 63.5352 102.08C65.7526 102.08 66.5317 101.292 66.3719 99.1547C66.252 97.5869 66.292 95.9892 66.3919 94.4115C66.5817 91.2859 68.5294 89.4685 71.5258 89.4985C74.3625 89.5284 76.3701 91.3758 76.4501 94.3515C76.5699 98.3458 76.5799 102.34 76.4501 106.334C76.3202 109.959 73.8931 112.056 69.9477 112.066C59.2902 112.096 48.6428 112.076 37.9853 112.076V112.096ZM123.784 40.4286C123.545 39.1704 122.606 38.771 121.747 38.2717C115.834 34.8865 109.911 31.5113 104.008 28.1062C95.2979 23.0933 86.5781 18.0705 77.8884 13.0177C76.4001 12.159 75.3414 12.139 74.4524 13.8366C73.3337 15.9635 72.0552 18.0106 70.8466 20.0876C63.8948 32.1005 56.963 44.1133 49.9812 56.1062C49.0723 57.664 48.9724 58.7224 50.7803 59.751C64.4142 67.5398 78.0082 75.3986 91.6222 83.2174C93.4201 84.246 95.4077 86.0534 97.0958 85.8437C98.9935 85.604 99.2133 82.5684 100.402 80.9008C100.452 80.8309 100.492 80.761 100.542 80.6911C108.033 67.8394 115.524 54.9978 123.005 42.1461C123.335 41.5769 123.555 40.9478 123.794 40.4086L123.784 40.4286Z" fill="#427FE0"/>
<path d="M53.6769 85.0049C57.1928 84.9849 59.3602 87.032 59.4401 90.4271C59.51 93.3829 56.7433 96.119 53.6869 96.109C50.7503 96.109 48.0335 93.4628 48.0136 90.5969C47.9936 87.3315 50.3408 85.0148 53.6669 84.9949L53.6769 85.0049Z" fill="#427FE0"/>
<path d="M28.4665 59.6412C28.4865 62.7467 25.8696 65.2532 22.6534 65.2132C19.4971 65.1733 17.1299 62.8266 17.0999 59.6911C17.0699 56.5955 19.4371 54.179 22.5734 54.1191C25.6998 54.0592 28.4366 56.6255 28.4565 59.6312L28.4665 59.6412Z" fill="#427FE0"/>
<path d="M22.7132 85.0049C25.9194 85.0049 28.4964 87.4913 28.4664 90.5669C28.4364 93.333 25.5898 96.099 22.7431 96.119C19.7267 96.129 17.0299 93.3929 17.0598 90.3373C17.0898 87.3116 19.5269 85.0049 22.7032 85.0049H22.7132Z" fill="#427FE0"/>
<path d="M43.5988 74.8594C43.6288 78.2845 41.4114 80.6312 38.1652 80.6012C35.0489 80.5713 32.422 77.925 32.4719 74.8494C32.5218 72.0235 35.2386 69.3373 38.1652 69.2374C40.9919 69.1376 43.5688 71.8138 43.5988 74.8594Z" fill="#427FE0"/>
<path d="M86.3784 43.634C89.5247 43.6141 92.3014 46.1704 92.3514 49.1262C92.4013 52.082 89.6246 54.7282 86.4583 54.7282C83.3819 54.7282 80.9348 52.2717 80.9248 49.1661C80.9248 45.9507 83.1722 43.654 86.3684 43.634H86.3784Z" fill="#427FE0"/>
<path d="M65.2531 60.2403C62.2566 60.1904 59.5398 57.6241 59.4899 54.7781C59.44 51.6826 62.2966 49.0264 65.5628 49.1162C68.6192 49.2061 70.9165 51.6925 70.8865 54.888C70.8565 58.0135 68.4593 60.2903 65.2431 60.2403H65.2531Z" fill="#427FE0"/>
<path d="M107.394 37.7424C110.34 37.7125 113.407 40.7281 113.387 43.634C113.367 46.5998 110.82 49.0463 107.713 49.0862C104.507 49.1261 102.29 46.9193 102.24 43.644C102.2 40.5484 104.617 37.7724 107.384 37.7424H107.394Z" fill="#427FE0"/>
</svg>
