<?xml version="1.0" encoding="UTF-8"?>
<svg width="473px" height="686px" viewBox="0 0 473 686" version="1.1" xmlns="http://www.w3.org/2000/svg" xmlns:xlink="http://www.w3.org/1999/xlink">
    <!-- Generator: Sketch 59.1 (86144) - https://sketch.com -->
    <title>img_leading_business</title>
    <desc>Created with Sketch.</desc>
    <defs>
        <filter x="-4.3%" y="-41.2%" width="108.7%" height="182.3%" filterUnits="objectBoundingBox" id="filter-1">
            <feGaussianBlur stdDeviation="6.45" in="SourceGraphic"></feGaussianBlur>
        </filter>
    </defs>
    <g id="Page-1" stroke="none" stroke-width="1" fill="none" fill-rule="evenodd">
        <g id="Chinese-Social-Media-Marketing" transform="translate(-135.000000, -2042.000000)">
            <g id="img_leading_business" transform="translate(149.000000, 2042.000000)">
                <g id="img_leading_company" transform="translate(10.000000, 0.000000)">
                    <path d="M30.1966084,85.8916376 L30.1966084,101.71235 C30.1966084,194.922157 112.20129,270.754196 212.999393,270.754196 C313.796284,270.754196 395.803392,194.922157 395.803392,101.71235 L395.803392,85.8916376 L30.1966084,85.8916376 Z M212.999393,301.130208 C95.5514245,301.130208 0,211.671491 0,101.71235 L0,55.515625 L426,55.515625 L426,101.71235 C426,211.671491 330.448575,301.130208 212.999393,301.130208 L212.999393,301.130208 Z" id="Fill-1" fill="#F4CD0C"></path>
                    <polygon id="Fill-4" fill="#F4CD0C" points="45.2834646 33.6458333 380.716535 33.6458333 380.716535 0 45.2834646 0"></polygon>
                    <polygon id="Fill-6" fill="#427FE0" points="48.6377953 646 379.03937 646 379.03937 624.130208 48.6377953 624.130208"></polygon>
                    <path d="M317.450621,481.135417 L108.549379,481.135417 C94.7472866,481.135417 82.9308526,489.640895 80.503937,501.322917 L345.496063,501.322917 C343.070366,489.640895 331.252713,481.135417 317.450621,481.135417" id="Fill-7" fill="#427FE0"></path>
                    <path d="M359.551458,499.640625 L66.4485417,499.640625 C63.0958546,499.640625 60.3779528,502.376377 60.3779528,505.751084 L60.3779528,624.130208 L365.622047,624.130208 L365.622047,505.751084 C365.622047,502.376377 362.904145,499.640625 359.551458,499.640625" id="Fill-8" fill="#427FE0"></path>
                    <path d="M83.8582677,594.240853 L83.8582677,529.529981 C83.8582677,526.030113 86.7295241,523.192708 90.2711458,523.192708 L337.407236,523.192708 C340.948858,523.192708 343.818898,526.030113 343.818898,529.529981 L343.818898,594.240853 C343.818898,597.74072 340.948858,600.578125 337.407236,600.578125 L90.2711458,600.578125 C86.7295241,600.578125 83.8582677,597.74072 83.8582677,594.240853" id="Fill-9" fill="#E3E3E3"></path>
                    <path d="M227.774791,287.671875 L213.000603,287.671875 L198.225209,287.671875 C195.18783,347.011855 177.828793,437.770758 112.370079,460.947917 L213.000603,460.947917 L313.629921,460.947917 C248.171207,437.770758 230.81217,347.011855 227.774791,287.671875" id="Fill-10" fill="#F4CD0C"></path>
                    <path d="M233.125984,331.170183 C231.162127,331.340562 229.166457,331.411458 227.17201,331.411458 C223.333618,331.411458 219.511132,331.141596 215.733919,330.585864 C215.733919,330.585864 215.704553,330.585864 215.704553,330.55842 C208.546569,329.518995 201.465671,327.4127 194.551181,324.495675 C194.627043,323.997117 194.702906,323.498558 194.778768,323 C197.230837,323.598041 199.682905,324.082878 202.165563,324.438501 C202.165563,324.467088 202.180246,324.467088 202.180246,324.467088 C205.957459,325.021677 209.779945,325.291539 213.617113,325.291539 C219.739943,325.291539 225.801593,324.580293 231.784933,323.171522 C232.197282,325.818685 232.638997,328.479569 233.125984,331.170183" id="Fill-11" fill="#F4CD0C"></path>
                    <path d="M232.591798,330.042097 C232.307031,328.30943 232.036743,326.592636 231.765248,324.889274 C231.601145,323.750036 231.435835,322.625451 231.269318,321.500866 C230.669617,321.652276 230.068709,321.804907 229.467801,321.927011 C224.151333,323.157828 218.77574,323.764689 213.353087,323.764689 C209.569056,323.764689 205.799504,323.476521 202.074598,322.884313 C202.074598,322.884313 202.060119,322.884313 202.060119,322.853787 C199.611841,322.474041 197.193729,321.956317 194.775617,321.317708 C194.700805,321.850085 194.625993,322.382462 194.551181,322.914839 C201.369919,326.029733 208.35276,328.278904 215.41162,329.388837 C215.41162,329.418142 215.440579,329.418142 215.440579,329.418142 C219.165485,330.011571 222.935037,330.299739 226.720275,330.299739 C227.890719,330.299739 229.062369,330.270433 230.234019,330.209381 C235.415342,379.90482 251.215122,434.159654 291.192401,459.265625 L313.629921,459.265625 C263.274309,441.317438 241.39305,383.127167 232.591798,330.042097" id="Fill-12" fill="#BE8217"></path>
                    <path d="M60.3779528,18.5052083 C60.6061172,189.538674 129.22294,328.046875 213.837976,328.046875 C298.453012,328.046875 367.069834,189.538674 367.299213,18.5052083 L60.3779528,18.5052083 Z" id="Fill-13" fill="#F4CD0C"></path>
                    <path d="M60.3779528,18.5052083 C60.6061172,189.538674 129.22294,328.046875 213.837976,328.046875 C298.453012,328.046875 367.069834,189.538674 367.299213,18.5052083 L60.3779528,18.5052083 Z" id="Fill-14" fill="#F4CD0C"></path>
                    <path d="M201.259843,326.622108 C200.955419,377.474107 184.539613,435.268384 145.242345,465.160558 L117.401575,465.994792 C169.9649,445.354151 193.258729,382.312664 200.090664,326.364583 C200.395087,326.410527 201.229521,326.60639 201.259843,326.622108" id="Fill-15" fill="#FAED1D"></path>
                    <path d="M93.9212598,529.921309 C93.9212598,531.780013 92.4191522,533.286458 90.5669291,533.286458 C88.7135767,533.286458 87.2125984,531.780013 87.2125984,529.921309 C87.2125984,528.062604 88.7135767,526.557292 90.5669291,526.557292 C92.4191522,526.557292 93.9212598,528.062604 93.9212598,529.921309" id="Fill-16" fill="#427FE0"></path>
                    <path d="M93.9212598,592.1661 C93.9212598,594.024805 92.4191522,595.53125 90.5669291,595.53125 C88.7135767,595.53125 87.2125984,594.024805 87.2125984,592.1661 C87.2125984,590.308529 88.7135767,588.802083 90.5669291,588.802083 C92.4191522,588.802083 93.9212598,590.308529 93.9212598,592.1661" id="Fill-17" fill="#427FE0"></path>
                    <path d="M332.07874,529.921309 C332.07874,531.780013 333.580848,533.286458 335.4342,533.286458 C337.286423,533.286458 338.787402,531.780013 338.787402,529.921309 C338.787402,528.062604 337.286423,526.557292 335.4342,526.557292 C333.580848,526.557292 332.07874,528.062604 332.07874,529.921309" id="Fill-18" fill="#427FE0"></path>
                    <path d="M332.07874,592.1661 C332.07874,594.024805 333.580848,595.53125 335.4342,595.53125 C337.286423,595.53125 338.787402,594.024805 338.787402,592.1661 C338.787402,590.308529 337.286423,588.802083 335.4342,588.802083 C333.580848,588.802083 332.07874,590.308529 332.07874,592.1661" id="Fill-19" fill="#427FE0"></path>
                    <polygon id="Fill-20" fill="#E39C22" points="112.370079 477.770833 313.629921 477.770833 313.629921 457.583333 112.370079 457.583333"></polygon>
                    <polygon id="Fill-21" fill="#BE8217" points="293.503937 477.770833 315.307087 477.770833 315.307087 457.583333 293.503937 457.583333"></polygon>
                    <polygon id="Fill-22" fill="#FAED1D" points="132.496063 477.770833 152.622047 477.770833 152.622047 457.583333 132.496063 457.583333"></polygon>
                    <path d="M189.447334,318.680642 C180.688761,312.588331 172.972962,305.237097 166.180452,297.249698 C158.543102,288.266616 152.039044,278.463345 146.390688,268.282276 C140.042322,256.843501 134.760868,244.900183 130.266322,232.726529 C125.286596,219.23911 121.271194,205.449452 117.99563,191.523299 C114.429201,176.358941 111.742611,161.021526 109.7681,145.614645 C107.654794,129.120679 106.360983,112.541403 105.770802,95.9475021 C105.150448,78.4541967 105.267519,60.9231113 106.194429,43.4517426 C106.382707,39.897996 106.578227,36.3405933 106.866679,32.7929402 C106.866679,32.7929402 103.687669,32.6430393 101.879712,32.5589486 L101.879712,0 L75.4724409,0 L75.4724409,37.8456951 L85.6768961,37.8456951 C85.6648269,38.2186191 85.6443094,38.5939806 85.6334472,38.9669046 C85.621378,39.2350199 85.608102,39.516541 85.6117227,39.7846563 C85.5308595,42.1672265 85.4668931,44.5376096 85.4330995,46.9079927 C85.3908575,49.1223814 85.3643054,51.3245831 85.3522363,53.5267848 C85.3377533,53.8509606 85.3377533,54.1751364 85.3534432,54.4871251 C84.8646432,192.738349 131.032712,316.129891 202.937008,326.364583 C198.436427,324.1636 193.525495,321.51779 189.447334,318.680642" id="Fill-23" fill="#FAED1D"></path>
                    <path d="M338.909226,0 L338.909226,34.0952331 L331.1717,34.0952331 C325.557489,178.539327 276.901399,296.521247 213,328.032212 C213.377263,328.046875 213.767828,328.046875 214.159601,328.046875 C214.821021,328.046875 215.467931,328.032212 216.13056,328.016328 C296.857663,325.948914 362.505114,196.62065 366.838806,34.0952331 L380.716535,34.0952331 L380.716535,0 L338.909226,0 Z" id="Fill-24" fill="#BE8217"></path>
                    <path d="M216.303162,99.3316317 L227.939156,132.926627 C228.297337,133.961853 229.260257,134.662262 230.350748,134.684419 L265.787414,135.409447 C268.259112,135.459915 269.279684,138.613601 267.309686,140.112894 L239.06609,161.600298 C238.196396,162.262547 237.829628,163.396249 238.144877,164.445016 L248.40825,198.488076 C249.124613,200.863803 246.451744,202.812391 244.42164,201.395572 L215.329203,181.080028 C214.433749,180.453477 213.245126,180.453477 212.348446,181.080028 L183.256008,201.395572 C181.225904,202.812391 178.553036,200.863803 179.269399,198.488076 L189.532772,164.445016 C189.849247,163.396249 189.481253,162.262547 188.612785,161.600298 L160.367963,140.112894 C158.396737,138.613601 159.418536,135.459915 161.891461,135.409447 L197.3269,134.684419 C198.417392,134.662262 199.380311,133.961853 199.738493,132.926627 L211.374486,99.3316317 C212.187755,96.9866783 215.491121,96.9866783 216.303162,99.3316317" id="Fill-25" fill="#E58B0A"></path>
                </g>
                <ellipse id="Oval-4" fill="#000000" opacity="0.05" filter="url(#filter-1)" cx="222.5" cy="645.5" rx="222.5" ry="23.5"></ellipse>
            </g>
        </g>
    </g>
</svg>