<?xml version="1.0" encoding="UTF-8"?>
<svg width="280px" height="199px" viewBox="0 0 280 199" version="1.1" xmlns="http://www.w3.org/2000/svg" xmlns:xlink="http://www.w3.org/1999/xlink">
    <!-- Generator: Sketch 59.1 (86144) - https://sketch.com -->
    <title>img_blogs_mob</title>
    <desc>Created with Sketch.</desc>
    <defs>
        <filter x="-11.3%" y="-16.5%" width="122.7%" height="133.0%" filterUnits="objectBoundingBox" id="filter-1">
            <feOffset dx="0" dy="5" in="SourceAlpha" result="shadowOffsetOuter1"></feOffset>
            <feGaussianBlur stdDeviation="5" in="shadowOffsetOuter1" result="shadowBlurOuter1"></feGaussianBlur>
            <feColorMatrix values="0 0 0 0 0   0 0 0 0 0   0 0 0 0 0  0 0 0 0.25 0" type="matrix" in="shadowBlurOuter1" result="shadowMatrixOuter1"></feColorMatrix>
            <feMerge>
                <feMergeNode in="shadowMatrixOuter1"></feMergeNode>
                <feMergeNode in="SourceGraphic"></feMergeNode>
            </feMerge>
        </filter>
        <linearGradient x1="0%" y1="30.46875%" x2="100%" y2="69.53125%" id="linearGradient-2">
            <stop stop-color="#ADDBFF" offset="0%"></stop>
            <stop stop-color="#AAD9FF" offset="0.0642956149%"></stop>
            <stop stop-color="#74B5FF" offset="100%"></stop>
        </linearGradient>
        <linearGradient x1="0%" y1="30.46875%" x2="100%" y2="69.53125%" id="linearGradient-3">
            <stop stop-color="#ADDBFF" offset="0%"></stop>
            <stop stop-color="#74B5FF" offset="100%"></stop>
        </linearGradient>
    </defs>
    <g id="Page-1" stroke="none" stroke-width="1" fill="none" fill-rule="evenodd">
        <g id="SEO-Copywriting---Mobile" transform="translate(-48.000000, -3037.000000)">
            <g id="img_blogs_mob" filter="url(#filter-1)" transform="translate(58.000000, 3042.000000)">
                <rect id="Rectangle" fill="#FFFFFF" x="0" y="0" width="259" height="179" rx="13"></rect>
                <path d="M13,0 L247,0 C254.179702,-1.31888981e-15 260,5.82029825 260,13 L260,31 L260,31 L0,31 L0,13 C-8.79259876e-16,5.82029825 5.82029825,4.87160349e-15 13,0 Z" id="Rectangle-2" fill="#FF5254"></path>
                <polygon id="Fill-5" fill="#E9ECED" points="0 46 259 46 259 31 0 31"></polygon>
                <path d="M46,17.5006899 C46,19.9855895 43.9855895,22 41.5006899,22 C39.0157903,22 37,19.9855895 37,17.5006899 C37,15.0157903 39.0157903,13 41.5006899,13 C43.9855895,13 46,15.0157903 46,17.5006899" id="Fill-6" fill="#FFFFFF"></path>
                <path d="M34,17.5006899 C34,19.9855895 31.9842097,22 29.4993101,22 C27.0144105,22 25,19.9855895 25,17.5006899 C25,15.0157903 27.0144105,13 29.4993101,13 C31.9842097,13 34,15.0157903 34,17.5006899" id="Fill-7" fill="#FFFFFF"></path>
                <path d="M23,17.5006899 C23,19.9855895 20.9855895,22 18.4993101,22 C16.0144105,22 14,19.9855895 14,17.5006899 C14,15.0157903 16.0144105,13 18.4993101,13 C20.9855895,13 23,15.0157903 23,17.5006899" id="Fill-8" fill="#FFFFFF"></path>
                <path d="M57.5,13 L219.5,13 C220.880712,13 222,14.1192881 222,15.5 C222,16.8807119 220.880712,18 219.5,18 L57.5,18 C56.1192881,18 55,16.8807119 55,15.5 C55,14.1192881 56.1192881,13 57.5,13 Z" id="Rectangle-3" fill="#FFFFFF"></path>
                <polygon id="Fill-10" fill="#FFFFFF" points="236.998633 10 237.942945 13.0556953 241 13.0556953 238.526478 14.9443047 239.472156 18 236.998633 16.1113906 234.526478 18 235.470789 14.9443047 233 13.0556953 236.055688 13.0556953"></polygon>
                <g id="Group-7" transform="translate(103.000000, 68.000000)" fill="#DADFE1">
                    <polygon id="Fill-16" points="0 32 73.8529412 32 73.8529412 26.4 0 26.4"></polygon>
                    <polygon id="Fill-17" points="0 18.4 104.823529 18.4 104.823529 12.8 0 12.8"></polygon>
                    <polygon id="Fill-18" points="0 5.6 135 5.6 135 0 0 0"></polygon>
                </g>
                <g id="Group-7-Copy" transform="translate(103.000000, 123.000000)" fill="#DADFE1">
                    <polygon id="Fill-16" points="0 32 73.8529412 32 73.8529412 26.4 0 26.4"></polygon>
                    <polygon id="Fill-17" points="0 18.4 104.823529 18.4 104.823529 12.8 0 12.8"></polygon>
                    <polygon id="Fill-18" points="0 5.6 135 5.6 135 0 0 0"></polygon>
                </g>
                <rect id="Rectangle-4" fill="url(#linearGradient-2)" x="16" y="62" width="72" height="45"></rect>
                <rect id="Rectangle-4-Copy" fill="url(#linearGradient-3)" x="16" y="117" width="72" height="45"></rect>
            </g>
        </g>
    </g>
</svg>