<?xml version="1.0" encoding="UTF-8"?>
<svg width="513px" height="412px" viewBox="0 0 513 412" version="1.1" xmlns="http://www.w3.org/2000/svg" xmlns:xlink="http://www.w3.org/1999/xlink">
    <!-- Generator: Sketch 63.1 (92452) - https://sketch.com -->
    <title>img_building_amazon_backlinks</title>
    <desc>Created with Sketch.</desc>
    <defs>
        <filter x="-6.0%" y="-8.7%" width="112.0%" height="117.4%" filterUnits="objectBoundingBox" id="filter-1">
            <feOffset dx="0" dy="5" in="SourceAlpha" result="shadowOffsetOuter1"></feOffset>
            <feGaussianBlur stdDeviation="5" in="shadowOffsetOuter1" result="shadowBlurOuter1"></feGaussianBlur>
            <feColorMatrix values="0 0 0 0 0   0 0 0 0 0   0 0 0 0 0  0 0 0 0.25 0" type="matrix" in="shadowBlurOuter1" result="shadowMatrixOuter1"></feColorMatrix>
            <feMerge>
                <feMergeNode in="shadowMatrixOuter1"></feMergeNode>
                <feMergeNode in="SourceGraphic"></feMergeNode>
            </feMerge>
        </filter>
        <linearGradient x1="0%" y1="30.7242025%" x2="100%" y2="69.2757975%" id="linearGradient-2">
            <stop stop-color="#ADDBFF" offset="0%"></stop>
            <stop stop-color="#AAD9FF" offset="0.0642956149%"></stop>
            <stop stop-color="#74B5FF" offset="100%"></stop>
        </linearGradient>
        <linearGradient x1="0%" y1="30.7242025%" x2="100%" y2="69.2757975%" id="linearGradient-3">
            <stop stop-color="#ADDBFF" offset="0%"></stop>
            <stop stop-color="#74B5FF" offset="100%"></stop>
        </linearGradient>
        <filter x="-7.3%" y="-7.3%" width="114.5%" height="114.6%" filterUnits="objectBoundingBox" id="filter-4">
            <feOffset dx="0" dy="2" in="SourceAlpha" result="shadowOffsetOuter1"></feOffset>
            <feGaussianBlur stdDeviation="4.5" in="shadowOffsetOuter1" result="shadowBlurOuter1"></feGaussianBlur>
            <feColorMatrix values="0 0 0 0 0   0 0 0 0 0   0 0 0 0 0  0 0 0 0.3 0" type="matrix" in="shadowBlurOuter1" result="shadowMatrixOuter1"></feColorMatrix>
            <feMerge>
                <feMergeNode in="shadowMatrixOuter1"></feMergeNode>
                <feMergeNode in="SourceGraphic"></feMergeNode>
            </feMerge>
        </filter>
        <polygon id="path-5" points="35.8084233 23.5928056 24.0957592 35.2803639 0.673080702 11.9078916 12.3857449 0.220333356"></polygon>
        <linearGradient x1="16.6709495%" y1="16.8136569%" x2="83.3336043%" y2="83.1908369%" id="linearGradient-7">
            <stop stop-color="#C5C6C8" offset="0%"></stop>
            <stop stop-color="#F1F1F2" offset="100%"></stop>
        </linearGradient>
        <polygon id="path-8" points="0.702229867 23.9674271 82.6776296 105.769758 106.100308 82.3972857 24.1249083 0.594954888"></polygon>
        <linearGradient x1="74.1460738%" y1="99.7883845%" x2="24.1234557%" y2="8.40579079%" id="linearGradient-10">
            <stop stop-color="#427FDF" offset="0%"></stop>
            <stop stop-color="#396BB1" offset="100%"></stop>
        </linearGradient>
        <linearGradient x1="50%" y1="0%" x2="50%" y2="100%" id="linearGradient-11">
            <stop stop-color="#DA3E3F" offset="0%"></stop>
            <stop stop-color="#FF5254" offset="100%"></stop>
        </linearGradient>
        <linearGradient x1="50%" y1="0%" x2="50%" y2="100%" id="linearGradient-12">
            <stop stop-color="#DA3E3F" offset="0%"></stop>
            <stop stop-color="#FF5254" offset="100%"></stop>
        </linearGradient>
        <linearGradient x1="14.6447917%" y1="14.7963114%" x2="85.3554053%" y2="85.2034171%" id="linearGradient-13">
            <stop stop-color="#FEFEFE" offset="0%"></stop>
            <stop stop-color="#C5C6C8" offset="100%"></stop>
        </linearGradient>
        <path d="M171.060546,30.0632909 C210.191974,69.1108412 210.191974,132.421974 171.060546,171.469524 C131.929118,210.517075 68.4819866,210.517075 29.3505585,171.469524 C-9.7835195,132.421974 -9.7835195,69.1108412 29.3505585,30.0632909 C68.4819866,-8.98425952 131.929118,-8.98425952 171.060546,30.0632909" id="path-14"></path>
        <linearGradient x1="165.997457%" y1="218.528503%" x2="30.915411%" y2="3.334875%" id="linearGradient-16">
            <stop stop-color="#427FDF" offset="0%"></stop>
            <stop stop-color="#396BB1" offset="100%"></stop>
        </linearGradient>
    </defs>
    <g id="Page-1" stroke="none" stroke-width="1" fill="none" fill-rule="evenodd">
        <g id="Amazon-Backlinks" transform="translate(-143.000000, -3373.000000)">
            <g id="img_building_amazon_backlinks" transform="translate(153.000000, 3378.000000)">
                <g id="img_analyse_website">
                    <g id="img_blogs" filter="url(#filter-1)">
                        <rect id="Rectangle" fill="#FFFFFF" x="0" y="0" width="492.127434" height="339.781915" rx="13"></rect>
                        <path d="M13,0 L480,0 C487.179702,-3.32031706e-14 493,5.82029825 493,13 L493,57.6493737 L493,57.6493737 L0,57.6493737 L0,13 C-8.79259876e-16,5.82029825 5.82029825,1.31888981e-15 13,0 Z" id="Rectangle-2" fill="#FF5254"></path>
                        <polygon id="Fill-5" fill="#E9ECED" points="0 88.2210113 492.127434 88.2210113 492.127434 57.6493737 0 57.6493737"></polygon>
                        <path d="M87.2566372,31.4463181 C87.2566372,35.7873152 83.7412234,39.3063912 79.4047437,39.3063912 C75.0682641,39.3063912 71.5504425,35.7873152 71.5504425,31.4463181 C71.5504425,27.105321 75.0682641,23.5838347 79.4047437,23.5838347 C83.7412234,23.5838347 87.2566372,27.105321 87.2566372,31.4463181" id="Fill-6" fill="#FFFFFF"></path>
                        <path d="M64.5699115,31.4463181 C64.5699115,35.7873152 61.0520899,39.3063912 56.7156103,39.3063912 C52.3791306,39.3063912 48.8637168,35.7873152 48.8637168,31.4463181 C48.8637168,27.105321 52.3791306,23.5838347 56.7156103,23.5838347 C61.0520899,23.5838347 64.5699115,27.105321 64.5699115,31.4463181" id="Fill-7" fill="#FFFFFF"></path>
                        <path d="M42.7557522,31.4463181 C42.7557522,35.7873152 39.2403384,39.3063912 34.901451,39.3063912 C30.5649713,39.3063912 27.0495575,35.7873152 27.0495575,31.4463181 C27.0495575,27.105321 30.5649713,23.5838347 34.901451,23.5838347 C39.2403384,23.5838347 42.7557522,27.105321 42.7557522,31.4463181" id="Fill-8" fill="#FFFFFF"></path>
                        <path d="M105.462832,25.3307854 L417.204425,25.3307854 C418.585137,25.3307854 419.704425,26.4500736 419.704425,27.8307854 L419.704425,31.565539 C419.704425,32.9462509 418.585137,34.065539 417.204425,34.065539 L105.462832,34.065539 C104.08212,34.065539 102.962832,32.9462509 102.962832,31.565539 L102.962832,27.8307854 C102.962832,26.4500736 104.08212,25.3307854 105.462832,25.3307854 Z" id="Rectangle-3" fill="#FFFFFF"></path>
                        <polygon id="Fill-10" fill="#FFFFFF" points="449.805431 20.0899333 451.556377 25.4280824 457.224779 25.4280824 452.638365 28.7273899 454.391845 34.065539 449.805431 30.7662315 445.221551 34.065539 446.972497 28.7273899 442.39115 25.4280824 448.057019 25.4280824"></polygon>
                        <g id="Group-7" transform="translate(193.709735, 129.274353)" fill="#DADFE1">
                            <polygon id="Fill-16" points="0 61.1432752 140.339469 61.1432752 140.339469 50.443202 0 50.443202"></polygon>
                            <polygon id="Fill-17" points="0 35.1573832 199.191504 35.1573832 199.191504 24.4573101 0 24.4573101"></polygon>
                            <polygon id="Fill-18" points="0 10.7000732 256.534513 10.7000732 256.534513 0 0 0"></polygon>
                        </g>
                        <g id="Group-7-Copy" transform="translate(193.709735, 234.091396)" fill="#DADFE1">
                            <polygon id="Fill-16" points="0 61.1432752 140.339469 61.1432752 140.339469 50.443202 0 50.443202"></polygon>
                            <polygon id="Fill-17" points="0 35.1573832 199.191504 35.1573832 199.191504 24.4573101 0 24.4573101"></polygon>
                            <polygon id="Fill-18" points="0 10.7000732 256.534513 10.7000732 256.534513 0 0 0"></polygon>
                        </g>
                        <rect id="Rectangle-4" fill="url(#linearGradient-2)" x="31.4123894" y="117.045698" width="137.865487" height="85.6005852"></rect>
                        <rect id="Rectangle-4-Copy" fill="url(#linearGradient-3)" x="31.4123894" y="220.989266" width="137.865487" height="85.6005852"></rect>
                    </g>
                    <g id="Group" filter="url(#filter-4)" transform="translate(197.834764, 102.675532)">
                        <g id="Group-3" transform="translate(172.245062, 173.676607)">
                            <mask id="mask-6" fill="white">
                                <use xlink:href="#path-5"></use>
                            </mask>
                            <g id="Clip-2"></g>
                            <polygon id="Fill-1" fill="url(#linearGradient-7)" mask="url(#mask-6)" points="35.8084233 23.5928056 24.0957592 35.2803639 0.673080702 11.9078916 12.3857449 0.220333356"></polygon>
                        </g>
                        <g id="Group-6" transform="translate(188.144606, 188.728505)">
                            <mask id="mask-9" fill="white">
                                <use xlink:href="#path-8"></use>
                            </mask>
                            <g id="Clip-5"></g>
                            <polygon id="Fill-4" fill="url(#linearGradient-10)" mask="url(#mask-9)" points="0.702229867 23.9674271 82.6776296 105.769758 106.100308 82.3972857 24.1249083 0.594954888"></polygon>
                        </g>
                        <polygon id="Fill-7" fill="url(#linearGradient-11)" points="217.421496 194.465456 193.998818 217.837929 188.847366 212.697518 212.270044 189.325046"></polygon>
                        <polygon id="Fill-8" fill="url(#linearGradient-12)" points="265.671843 289.355473 270.823295 294.498527 294.245974 271.126055 289.094521 265.983"></polygon>
                        <g id="Group-18" transform="translate(0.000000, 0.105770)">
                            <g id="SEO-AUDIT" transform="translate(7.949772, 7.932732)">
                                <mask id="mask-15" fill="white">
                                    <use xlink:href="#path-14"></use>
                                </mask>
                                <use id="Mask" fill-opacity="0.3" fill="url(#linearGradient-13)" style="mix-blend-mode: multiply;" xlink:href="#path-14"></use>
                            </g>
                            <path d="M108.154794,16.641373 C83.5131506,16.641373 60.3448649,26.2188246 42.9216144,43.6047285 C25.495714,60.9906325 15.9003391,84.1092573 15.9003391,108.698082 C15.9003391,133.289551 25.495714,156.405531 42.9189645,173.794079 C78.8890332,209.684402 137.417905,209.684402 173.390624,173.794079 C209.358043,137.898468 209.358043,79.4976959 173.390624,43.6047285 C155.964723,26.2188246 132.796438,16.641373 108.154794,16.641373 M108.154794,216.570014 C80.4577882,216.570014 52.7634322,206.051211 31.6779868,185.010962 C11.2497225,164.626486 0.000794977207,137.525629 0.000794977207,108.698082 C0.000794977207,79.8705343 11.2497225,52.7696781 31.6779868,32.3852015 C52.1062511,12.0033691 79.2653224,0.775909316 108.154794,0.775909316 C137.044266,0.775909316 164.203337,12.0033691 184.631601,32.3878457 C226.799843,74.4656996 226.799843,142.933108 184.631601,185.010962 C163.546156,206.051211 135.8518,216.570014 108.154794,216.570014" id="Fill-12" fill="url(#linearGradient-16)"></path>
                        </g>
                    </g>
                </g>
                <g id="link" transform="translate(249.000000, 155.000000)" fill="#FF5254" fill-rule="nonzero">
                    <path d="M106.147102,8.94845118 C94.3432008,-2.98281706 75.1394175,-2.98281706 63.3352921,8.94845118 L45.7458899,26.7276473 C42.6765035,29.8301531 40.1894778,33.7884367 38.5865287,38.6210773 C38.5596298,38.6301404 38.5336276,38.6439615 38.5067287,38.6530245 C34.8610337,49.738711 37.6260145,61.7936897 45.7458899,70.0011806 C48.1719448,72.4534132 51.0263643,74.4726589 54.1179423,75.9633028 L55.2595757,74.8093509 C59.207883,70.8184404 59.207883,64.3757504 55.2595757,60.3846133 C48.695128,53.7493336 48.695128,42.9788145 55.2595757,36.3437614 L72.8489778,18.5645653 C79.4134255,11.9292857 90.0687445,11.9292857 96.6331922,18.5645653 C103.19764,25.199845 103.19764,35.9701375 96.6331922,42.6054172 L83.2774497,56.1052714 C85.0583797,61.6711121 85.4356365,67.5650349 84.5737515,73.3017139 C85.9803388,72.3106702 87.3338008,71.2380592 88.5574758,70.0011806 L106.146878,52.2219845 C117.951003,40.2907162 117.951003,20.8794928 106.147102,8.94845118 Z" id="Path"></path>
                    <path d="M69.2590481,44.9511817 C66.8343516,42.4988787 63.9819783,40.4793484 60.8444126,39.0366972 L59.7506892,40.1428733 C55.8048166,44.1336718 55.8045925,50.5767734 59.7506892,54.5680251 C66.3114613,61.2034952 66.3114613,71.9743236 59.7506892,78.6095671 C54.1973882,84.2260955 47.4222176,91.079538 42.1274493,96.4345901 C35.5666772,103.07006 24.9173242,103.07006 18.356552,96.4345901 C11.7957799,89.79912 11.7957799,79.0285182 18.356552,72.3930481 L31.7485027,58.8474898 C29.9685698,53.2814893 29.5917483,47.3871707 30.4531507,41.650327 C29.0471269,42.6418523 27.6944227,43.7142675 26.4712089,44.9511817 L8.84796909,62.7762047 C-2.94932303,74.7078155 -2.94932303,94.1193696 8.84796909,106.051207 C20.6452612,117.983044 39.8382921,117.982818 51.6358082,106.051207 L69.2590481,88.2261839 C72.3267159,85.1233624 74.8123491,81.1651917 76.4144007,76.3324124 C76.4412845,76.3233491 76.4672722,76.3095276 76.494156,76.3004643 C80.1378097,65.214233 77.3743771,53.1589082 69.2590481,44.9511817 Z" id="Path"></path>
                    <path d="M98.1781711,92.3165138 L93.3716446,87.5100576 C92.0432303,86.1816628 89.8933057,86.1816628 88.565118,87.5100576 C87.2367038,88.8384523 87.2367038,90.9883455 88.565118,92.3165138 L93.3716446,97.12297 C94.7000588,98.4513648 96.8499834,98.4513648 98.1781711,97.12297 C99.5063589,95.7945752 99.5063589,93.6449085 98.1781711,92.3165138 Z" id="Path"></path>
                    <path d="M26.434916,21.6284404 L21.6283271,16.8219842 C20.2999583,15.4935894 18.1501071,15.4935894 16.8219647,16.8219842 C15.4935959,18.1503789 15.4935959,20.3002721 16.8219647,21.6284404 L21.6283271,26.4348966 C22.956696,27.7632914 25.1065472,27.7632914 26.434916,26.4348966 C27.7632849,25.1065018 27.7632849,22.9566087 26.434916,21.6284404 Z" id="Path"></path>
                    <path d="M110.504218,68.3185845 L104.28336,66.5829766 C102.564702,66.1039649 100.799483,67.1638202 100.339243,68.9525772 C99.8787879,70.7522766 100.90891,72.5821236 102.615982,73.0577856 L108.83684,74.7931702 C110.555499,75.2721819 112.320718,74.2123266 112.780958,72.4235696 C113.236478,70.6348127 112.222662,68.7884403 110.504218,68.3185845 Z" id="Path"></path>
                    <path d="M12.3846591,41.9424377 L6.16403147,40.2068298 C4.4454364,39.7278181 2.68028263,40.7876734 2.2200596,42.5764304 C1.75940746,44.3756832 2.78949173,46.2057535 4.49671533,46.6814155 L10.7173429,48.4170234 C12.435938,48.8960351 14.2010918,47.8361798 14.6613148,46.0474228 C15.1191777,44.2564327 14.0966029,42.4096137 12.3846591,41.9424377 Z" id="Path"></path>
                    <path d="M74.7931516,108.836559 L73.0577243,102.616725 C72.5764676,100.891698 70.7414392,99.8801951 68.9526382,100.340359 C67.1638373,100.800524 66.103956,102.565452 66.5829794,104.283828 L68.31863,110.503662 C68.7943037,112.210668 70.624419,113.240406 72.4237161,112.780028 C74.212517,112.319863 75.272175,110.554935 74.7931516,108.836559 Z" id="Path"></path>
                    <path d="M48.4170243,10.7169847 L46.6814162,4.49625845 C46.2046376,2.77098478 44.3651878,1.76384206 42.5764306,2.21956663 C40.7876735,2.67979695 39.7278181,4.44497871 40.2068298,6.16360103 L41.9424379,12.3843273 C42.099652,12.9490481 42.405371,13.438244 42.8077855,13.8250949 C43.6269068,14.6120995 44.8486659,14.9678393 46.0472002,14.6610191 C47.8361807,14.2010033 48.8960361,12.435607 48.4170243,10.7169847 Z" id="Path"></path>
                </g>
            </g>
        </g>
    </g>
</svg>