<svg height="252" viewBox="0 0 196 252" width="196" xmlns="http://www.w3.org/2000/svg"><g fill="none"><g fill="#427fe0"><path d="m59.0284636 228.000925c1.3589303 0 2.5906897.221804 3.6952783.665413 1.0629122.41466 2.0275217 1.057769 2.8293847 1.886363.8022902.851242 1.418887 1.868542 1.8086889 2.984088.4254563 1.174741.6381845 2.486741.6381845 3.935999 0 1.462265-.2127282 2.780426-.6381845 3.954482-.3922951 1.119465-1.0084371 2.141962-1.8086889 3.001546-.7976457.838367-1.7630855 1.488337-2.8293847 1.904846-1.1052544.443609-2.3370138.665413-3.6952783.665413-1.2652583.017307-2.5225428-.208362-3.7072629-.665413-1.0715034-.416032-2.0425811-1.065898-2.846363-1.904846-.806177-.858294-1.4284429-1.88079-1.8266659-3.001546-.4321145-1.174741-.6481718-2.492902-.6481718-3.954482 0-1.449943.2160573-2.761942.6481718-3.935999.3957354-1.116855 1.0184596-2.134153 1.8266659-2.984088.8079055-.829265 1.7781763-1.47229 2.846363-1.886363 1.1847201-.457051 2.4420046-.68272 3.7072629-.665413zm0 15.582775c1.5127338 0 2.632969-.515147 3.3607058-1.545441.7277368-1.030295 1.0916052-2.540138 1.0916052-4.529531 0-1.989392-.3638684-3.505054-1.0916052-4.546987-.7277368-1.041932-1.847972-1.56324-3.3607058-1.563925-1.5373689 0-2.672585.524389-3.4056483 1.573167s-1.0992621 2.56136-1.0985972 4.537745c0 1.977755.3661997 3.483833 1.0985972 4.518235s1.8676136 1.553314 3.4056483 1.556737z"/><path d="m72 246v-17.717723h2.830198c.5993857 0 .9926446.259152 1.1797768.777457l.3007481 1.312204c.3284973-.338533.6810501-.655959 1.0552565-.950115.3648692-.285125.7606326-.533791 1.1808321-.741938.4284912-.211626.8812773-.377121 1.3496731-.49331.5167626-.125484 1.0490043-.186575 1.5828848-.181538 1.2114344 0 2.2079484.302234 2.9895417.906704.7815933.604469 1.3655019 1.407578 1.7517258 2.409326.2799846-.56015.6604451-1.071364 1.1249035-1.511502.4342495-.410042.932336-.756315 1.4773591-1.027072.5408975-.267743 1.1175815-.466823 1.7147919-.591972.5999446-.125711 1.2128773-.189238 1.8277043-.189431.9646567-.015615 1.9240093.13661 2.8291427.448912.7935245.279851 1.5061255.7292 2.0809659 1.312205.5823402.609712 1.0196996 1.327999 1.2831919 2.107421.3081547.921791.4567099 1.883716.440042 2.849358v11.276081h-4.6209684v-11.271148c0-1.128693-.2687386-1.977844-.8062159-2.547453-.5374774-.569608-1.3239952-.854413-2.3595536-.854413-.451544-.003743-.8997856.072241-1.3211812.223963-.8359136.298273-1.4910416.92268-1.7939361 1.709813-.1828953.470192-.2716094.967855-.2617036 1.46809v11.276081h-4.6431287v-11.276081c0-1.183944-.2592414-2.047565-.7777241-2.590864s-1.2835437-.813633-2.2951829-.811002c-.6535233-.002405-1.2963499.155077-1.8646383.456806-.6119097.329353-1.1602028.752598-1.6219293 1.25202v12.969121z"/><path d="m103 252v-23.668334h2.718498c.260166-.007701.517.058924.739196.191755.209082.135476.352088.349255.395455.591162l.360979 1.651279c.72756-.809946 1.596185-1.486803 2.565385-1.999021.965992-.510685 2.0976-.766027 3.394827-.766027 1.936054-.031491 3.769153.852347 4.924932 2.374583.608392.770994 1.076516 1.72149 1.404372 2.851487.327855 1.129997.493135 2.425585.495839 3.886765.011747 1.255626-.176761 2.505342-.558707 3.703952-.338481 1.074185-.878734 2.076979-1.592972 2.956803-1.403346 1.720032-3.542872 2.703249-5.789863 2.660726-1.044406 0-1.929954-.153669-2.656644-.461007-.724863-.30653-1.386914-.739451-1.953952-1.277705v7.303582zm8.643221-20.607208c-.923404 0-1.712624.188112-2.367659.564336-.700609.418559-1.318812.956998-1.825175 1.589679v7.999066c.504965.602753 1.054208 1.023025 1.647728 1.260814.609445.24096 1.261296.362153 1.918462.356685.628095.008699 1.250693-.115683 1.825176-.364633.552404-.248242 1.030158-.631844 1.387133-1.113769.411574-.568733.707947-1.209568.873042-1.887744.217219-.877914.31944-1.779361.304196-2.682583 0-1.043227-.086864-1.927155-.260594-2.651784-.17373-.724628-.422833-1.313141-.747308-1.765537-.29524-.42902-.702942-.77222-1.18028-.993549-.49528-.214463-1.03231-.320586-1.573707-.310981z"/><path d="m139 246.713196h-2.076758c-.437268 0-.779707-.062405-1.029423-.187214-.249717-.124809-.436214-.379541-.5616-.761129l-.410926-1.307424c-.455159.393295-.933257.760827-1.43192 1.100773-.455862.310135-.941372.577007-1.449832.796935-.510115.218352-1.043769.380656-1.591023.48389-.616954.11212-1.24365.16591-1.871295.160615-.760582.00735-1.517828-.09857-2.245343-.314068-.65096-.190528-1.253352-.511897-1.768037-.943228-.500966-.429333-.894476-.963951-1.150594-1.56318-.288062-.689927-.428243-1.429629-.41198-2.173925.007056-.721763.203613-1.42985.571082-2.0573.380722-.676559 1.012916-1.287304 1.896583-1.832235.883667-.54493 2.06271-.997107 3.537127-1.356529 1.475121-.35874 3.30146-.538451 5.479018-.539133v-1.082359c0-1.238541-.271141-2.155511-.813423-2.75091-.542283-.5954-1.331472-.8931-2.367568-.8931-.748097 0-1.371862.083547-1.871295.250641-.4514.146029-.886903.334834-1.300213.563686-.36878.208697-.70876.396592-1.01994.563686-.315187.168222-.669778.254557-1.029424.25064-.286609.007667-.568258-.07369-.80394-.232226-.221234-.151134-.406611-.346468-.543687-.572893l-.842926-1.414842c2.208466-1.933514 4.872111-2.900612 7.990936-2.901294 1.027025-.016758 2.047401.16296 3.002923.528903.844698.328729 1.607083.829302 2.235861 1.468039.623037.646299 1.098113 1.413329 1.393988 2.250651.326653.921293.488097 1.890167.477307 2.864466zm-8.981374-2.762164c.439827.003407.878804-.038083 1.309696-.123786.39104-.079294.770936-.203618 1.131628-.370334.363446-.168196.708357-.3718 1.029423-.607676.354815-.260855.689377-.546709 1.000974-.855248v-3.075208c-1.346574 0-2.472231.081159-3.376971.243479s-1.631413.369994-2.180017.623021c-.550009.252346-.939862.546977-1.169559.883893-.227585.324042-.348468.707542-.346674 1.09975 0 .78159.240254 1.340502.720722 1.676736.480468.336233 1.107394.506396 1.880778.510488z"/><path d="m145 245.999013v-17.722434h2.701333c.573652 0 .94948.259221 1.127487.777663l.302275 1.398412c.363995-.363008.756107-.697902 1.172828-1.001685.410752-.298603.849309-.558644 1.30986-.776677.470471-.222734.965853-.390982 1.476111-.501336.564402-.119363 1.140541-.177282 1.717931-.172704 1.002882 0 1.891571.16448 2.666068.493441.747392.307613 1.411942.780501 1.941614 1.381635.535764.623094.937434 1.345813 1.180889 2.124758.277616.88098.413586 1.798905.403034 2.720835v11.279079h-4.420272v-11.280066c0-1.082939-.259285-1.920802-.777855-2.51359-.51857-.592787-1.297097-.888852-2.33558-.888194-.746301-.004024-1.482673.167571-2.147162.50035-.699943.357283-1.339807.817585-1.897281 1.364858v12.816642z"/><path d="m170.866054 251.065069c-.108524.272385-.286444.512519-.516548.697168-.212336.158173-.534924.237763-.969805.237763h-3.336127l3.481088-7.247732-7.524662-16.752268h3.915968c.363422 0 .641432.082351.834032.246905.185535.154172.334365.346801.435902.564182l3.970073 9.381551c.134746.309937.249647.627915.344025.952058.097321.329778.182051.658885.254191.98732.097321-.340525.203148-.669631.317483-.98732.114335-.317688.238198-.641086.371588-.970192l3.734258-9.363417c.098234-.236586.265617-.438952.480819-.581309.220314-.152256.483419-.232584.752364-.229778h3.589297z"/><path d="m44.7933916 239.098424c.4007419-.002466.7834564.169413 1.0519151.472422l2.9295835 3.190187c-1.6069338 2.004336-3.6578746 3.591835-5.9843449 4.63209-2.3682115 1.071251-5.2101354 1.606877-8.5257717 1.606877-2.9678031 0-5.6351091-.508487-8.001918-1.525462-2.2929901-.964059-4.3602217-2.410379-6.0663943-4.244297-1.6767526-1.812558-2.9621928-3.976485-3.8563207-6.491783-.8941278-2.515298-1.3408411-5.261629-1.3401406-8.238994 0-3.013787.4975567-5.773687 1.4926683-8.279701.9462937-2.431509 2.3767792-4.637105 4.2013488-6.477856 1.8050863-1.812557 3.9653693-3.222681 6.4808488-4.230371 2.5154796-1.007691 5.2932367-1.511536 8.3332713-1.511536 2.9664005 0 5.5611244.475993 7.7841716 1.427978s4.1256109 2.214276 5.7076912 3.786873l-2.4877792 3.469783c-.1526831.227342-.3443986.424759-.5659303.582761-.2303694.166044-.5490996.249601-.954087.249601-.420766 0-.8538044-.166401-1.2991151-.499203-.5384773-.395803-1.1005814-.757153-1.6830641-1.081964-.8236002-.448245-1.6895024-.810735-2.5845553-1.081963-1.041396-.333517-2.3633026-.499918-3.9657199-.499203-1.8801229 0-3.6077181.32816-5.1827856.984479-1.5371813.63003-2.9228506 1.590278-4.062496 2.815249-1.1339645 1.221226-2.0186251 2.705623-2.6539818 4.453191s-.953035 3.711529-.953035 5.891882c0 2.25677.3176783 4.26358.953035 6.020433.6353567 1.756852 1.4968752 3.23625 2.5845554 4.438194 1.0708105 1.190697 2.3811101 2.132294 3.8415939 2.760614 1.5044696.643756 3.1217734.969226 4.7536042.956627.9194892.005624 1.8383594-.049841 2.7507579-.166043.7703679-.099887 1.5292697-.276416 2.2658251-.527056.6849224-.237922 1.342943-.549638 1.9628735-.929846.654161-.407639 1.2694108-.876751 1.8376957-1.401197.1750544-.15973.3703462-.29484.5806571-.401719.2040998-.101104.4283847-.152798.6553431-.151047z"/><circle cx="98" cy="98" r="98"/></g><path d="m169.628191 65.0742155c-.869227-1.8512406-2.972042-2.602195-4.704864-1.6801952l-14.031745 7.5126848c-1.700589.9465185-2.377497 3.1790997-1.520495 5.0149081.857001 1.8358083 2.930884 2.5957314 4.658435 1.7069677l14.032768-7.51378c1.731938-.9290858 2.432936-3.1855752 1.565901-5.0405854z" fill="#fff"/><path d="m168.065439 105.895636-13.999987-7.4997295c-1.118459-.5991535-2.450303-.513505-3.493839.2246825-1.043537.7381874-1.640227 2.016766-1.565305 3.354106.074923 1.337341.810076 2.530271 1.928535 3.129424l13.998966 7.49973c1.118459.599349 2.450401.513881 3.494095-.224209s1.64058-2.016668 1.565815-3.354107c-.074765-1.337438-.809821-2.530548-1.92828-3.129897z" fill="#fff"/><path d="m130.383346 91.6622877h-53.0760505v-18.3464757c0-9.8537019 7.9374734-17.8702553 17.6916729-17.8702553 9.7541996 0 17.6916726 8.0196796 17.6916726 17.8702553v7.1485189c-.000274.9480373.372448 1.8573248 1.036113 2.5276884.663664.6703636 1.563865 1.0468475 2.502428 1.046571h14.154164c.938647.0005533 1.839007-.3758417 2.502731-1.0462653.663724-.6704237 1.036357-1.5798721 1.03581-2.5279941v-7.1485189c0-21.6748096-17.460585-39.315812-38.9229186-39.315812-21.4623338 0-38.9218866 17.6368342-38.9218866 39.315812v19.0050565c-4.110072 1.4807646-7.0770818 5.4103659-7.0770818 10.0641975v42.889029c.0039801 5.920461 4.7532975 10.719584 10.614591 10.725905h70.770818c5.860086-.006319 10.608905-4.803539 10.614591-10.722778v-42.892156c-.005688-5.9200522-4.755762-10.7176082-10.616654-10.7227783zm-31.8458367 35.0829713v11.380318c0 1.974009-1.5842588 3.574259-3.5385409 3.574259-1.9542822 0-3.5385409-1.60025-3.5385409-3.574259v-11.380318c-4.1090404-1.479722-7.0770818-5.410365-7.0770818-10.063155 0-5.922027 4.7527761-10.722778 10.6156227-10.722778s10.6156226 4.800751 10.6156226 10.722778c0 4.65279-2.96701 8.583433-7.0770817 10.063155z" fill="#fff"/><path d="m166.5 84h-14c-1.932997 0-3.5 1.5670034-3.5 3.5s1.567003 3.5 3.5 3.5h14c1.932997 0 3.5-1.5670034 3.5-3.5s-1.567003-3.5-3.5-3.5z" fill="#fff"/></g></svg>