<?xml version="1.0" encoding="UTF-8"?>
<svg width="548px" height="516px" viewBox="0 0 548 516" version="1.1" xmlns="http://www.w3.org/2000/svg" xmlns:xlink="http://www.w3.org/1999/xlink">
    <!-- Generator: Sketch 63.1 (92452) - https://sketch.com -->
    <title>img_how_do_amazon_backlinks_work_tc</title>
    <desc>Created with Sketch.</desc>
    <g id="Page-1" stroke="none" stroke-width="1" fill="none" fill-rule="evenodd">
        <g id="img_how_do_amazon_backlinks_work_tc">
            <circle id="Oval" stroke="#FF5254" stroke-width="12" cx="280" cy="263" r="176"></circle>
            <circle id="Oval" fill="#427FE0" cx="280.5" cy="76.5" r="76.5"></circle>
            <g id="icn_ppc" transform="translate(0.000000, 26.000000)">
                <path d="M266.5,19 C265.672,19 265,19.5973333 265,20.3333333 L265,23 L268,23 L268,20.3333333 C268,19.5973333 267.328,19 266.5,19 Z" id="Path" fill="#FFFFFF" fill-rule="nonzero"></path>
                <path d="M282,19 L282,28 C284.205333,28 286,25.981 286,23.5 C286,21.019 284.205333,19 282,19 Z" id="Path" fill="#FFFFFF" fill-rule="nonzero"></path>
                <path d="M294.951319,0 L255.953485,0 C252.371462,0 249.453846,2.90829412 249.453846,6.48529412 L249.453846,42.5147059 C249.453846,46.0917059 252.371462,49 255.953485,49 L275.839491,49 L275.322409,48.4840588 C272.043702,45.2125882 272.037925,39.8946471 275.310854,36.6231765 C276.896766,35.0407647 279.002649,34.1674118 281.247191,34.1674118 C283.494622,34.1674118 285.61206,35.0407647 287.203749,36.6289412 L290.17625,39.5948824 C291.138197,39.0558824 292.195472,38.7157647 293.301855,38.5860588 C293.489622,38.3497059 293.694722,38.1248824 293.914265,37.9058235 C295.26619,36.5568824 296.996538,35.7238824 298.871323,35.5077059 C299.061979,35.2713529 299.269967,35.0436471 299.486622,34.8274706 C300.070145,34.2423529 300.746108,33.7927059 301.453846,33.4093529 L301.453846,6.48529412 C301.450957,2.90829412 298.533342,0 294.951319,0 Z M272.453846,29.875 C272.453846,31.048 271.445846,32 270.203846,32 C268.961846,32 267.953846,31.048 267.953846,29.875 L267.953846,27.75 L264.953846,27.75 L264.953846,29.875 C264.953846,31.048 263.945846,32 262.703846,32 C261.461846,32 260.453846,31.048 260.453846,29.875 L260.453846,20.6666667 C260.453846,17.5415 263.144846,15 266.453846,15 C269.762846,15 272.453846,17.5415 272.453846,20.6666667 L272.453846,29.875 Z M281.787179,32 L279.620513,32 C278.424513,32 277.453846,31.048 277.453846,29.875 L277.453846,17.125 C277.453846,15.952 278.424513,15 279.620513,15 L281.787179,15 C286.565402,15 290.453846,18.8136667 290.453846,23.5 C290.453846,28.1863333 286.565402,32 281.787179,32 Z" id="Shape" fill="#FFFFFF" fill-rule="nonzero"></path>
                <path d="M302.845391,38.762022 C301.823717,39.7842777 301.829473,41.4429236 302.856903,42.4709385 L303.786482,43.4010473 C303.956281,43.5709433 303.959159,43.8502639 303.78936,44.0201599 C303.619561,44.1900559 303.343277,44.1900559 303.1706,44.0172803 L301.0035,41.8489463 C299.976071,40.8209314 298.318369,40.8180518 297.296696,41.8374279 C296.275022,42.8596837 296.280778,44.5183296 297.308207,45.5463445 L299.475307,47.7146785 C299.645106,47.8845745 299.647984,48.1638951 299.478185,48.3337911 C299.308385,48.5036871 299.032102,48.5036871 298.859425,48.3309115 L295.451927,44.9214727 C294.424497,43.8934578 292.766796,43.8905782 291.745122,44.9099543 C290.723449,45.93221 290.729204,47.590856 291.756634,48.6188709 L295.164132,52.0283097 C295.333931,52.1982057 295.336809,52.4775263 295.16701,52.6474223 C294.99721,52.8173183 294.720927,52.8173183 294.548249,52.6445427 L282.469476,40.5588884 C281.442047,39.5308734 279.784345,39.5279939 278.762671,40.54737 C277.740998,41.5696257 277.746754,43.2282716 278.774183,44.2562866 L293.310729,58.8011139 C291.405524,58.5045157 288.199483,58.3778136 286.230962,60.344576 C284.383316,62.1932751 284.432241,63.4718147 285.004954,64.0477334 C286.567683,65.6113527 287.770668,63.1406614 294.890726,66.5443411 C302.010784,69.9509003 306.586731,69.6687001 309.715067,66.5904146 L314.026242,62.2767833 C314.049266,62.2537466 314.003219,62.2998201 314.026242,62.2767833 C318.409367,57.8911623 319.664154,51.8958484 315.240739,47.4727926 C315.232105,47.4641538 315.226349,47.4583946 315.217715,47.4497559 L306.54644,38.7735403 C305.524766,37.7455254 303.867065,37.7426458 302.845391,38.762022 L302.845391,38.762022 Z" id="Path" fill="#FFFFFF" fill-rule="nonzero"></path>
                <ellipse id="Oval" fill="#427FE0" cx="471.596154" cy="203.251634" rx="76.4038462" ry="76.2908497"></ellipse>
                <path d="M237.952,93.71 C239.176,93.71 239.806,93.098 239.806,91.874 L239.806,86.942 L241.102,86.294 L241.102,84.386 C240.67,84.602 240.238,84.836 239.806,85.052 L239.806,82.28 L241.408,82.28 L241.408,80.462 L239.806,80.462 L239.806,77.276 L237.898,77.276 L237.898,80.462 L235.936,80.462 L235.936,82.28 L237.898,82.28 L237.898,85.844 C237.16,86.096 236.404,86.312 235.648,86.492 L236.116,88.4 C236.728,88.202 237.322,87.986 237.898,87.77 L237.898,91.388 C237.898,91.784 237.7,92 237.304,92 C236.872,92 236.422,91.964 235.954,91.892 L236.368,93.71 L237.952,93.71 Z M250.75,84.332 L250.75,77.762 L242.578,77.762 L242.578,84.332 L250.75,84.332 Z M248.914,80.336 L244.396,80.336 L244.396,79.274 L248.914,79.274 L248.914,80.336 Z M248.914,82.82 L244.396,82.82 L244.396,81.74 L248.914,81.74 L248.914,82.82 Z M241.786,93.872 C242.416,93.044 242.92,92.162 243.316,91.226 C243.82,92 244.36,92.54 244.972,92.846 C245.872,93.278 247.51,93.494 249.922,93.512 C250.48,93.53 251.11,93.548 251.794,93.548 L252.316,91.73 C251.632,91.802 250.786,91.856 249.796,91.856 C248.95,91.856 248.212,91.802 247.564,91.73 L247.564,89.984 L251.002,89.984 L251.002,88.328 L247.564,88.328 L247.564,86.834 L251.812,86.834 L251.812,85.16 L241.426,85.16 L241.426,86.834 L245.746,86.834 L245.746,91.298 C245.728,91.298 245.71,91.28 245.71,91.28 C245.026,90.992 244.432,90.362 243.892,89.39 C244.018,88.814 244.108,88.202 244.144,87.554 L242.488,87.356 C242.344,89.3 241.642,91.064 240.382,92.648 L241.786,93.872 Z M270.01,80.264 L270.01,78.536 L263.062,78.536 C262.918,78.014 262.756,77.528 262.612,77.096 L260.506,77.456 C260.686,77.78 260.848,78.14 261.01,78.536 L253.972,78.536 L253.972,80.264 L270.01,80.264 Z M267.274,84.818 L267.274,81.002 L256.744,81.002 L256.744,84.818 L267.274,84.818 Z M265.474,83.414 L258.544,83.414 L258.544,82.406 L265.474,82.406 L265.474,83.414 Z M256.51,93.872 L256.51,87.158 L267.49,87.158 L267.49,91.568 C267.49,92 267.166,92.216 266.536,92.216 L265.15,92.162 L265.6,93.818 L267.076,93.818 C268.534,93.818 269.272,93.188 269.272,91.946 L269.272,85.538 L254.728,85.538 L254.728,93.872 L256.51,93.872 Z M265.726,91.766 L265.726,87.878 L258.31,87.878 L258.31,91.766 L265.726,91.766 Z M264.07,90.38 L259.966,90.38 L259.966,89.264 L264.07,89.264 L264.07,90.38 Z M282.088,93.746 L282.088,93.026 L285.814,93.026 L285.814,93.746 L287.578,93.746 L287.578,84.89 L284.446,84.89 L284.446,82.154 L288.118,82.154 L288.118,80.444 L284.446,80.444 L284.446,77.312 L282.646,77.312 L282.646,84.89 L280.342,84.89 L280.342,93.746 L282.088,93.746 Z M272.278,89.804 C275.824,89.624 278.326,89.408 279.766,89.174 L279.766,87.716 C278.902,87.824 277.894,87.914 276.706,87.986 L276.706,86.978 L279.496,86.978 L279.496,85.502 L276.706,85.502 L276.706,84.548 L279.73,84.548 L279.73,77.762 L272.17,77.762 L272.17,84.548 L275.068,84.548 L275.068,85.502 L272.458,85.502 L272.458,86.978 L275.068,86.978 L275.068,88.076 L272.044,88.184 L272.278,89.804 Z M278.236,83.144 L276.544,83.144 L276.544,79.166 L278.236,79.166 L278.236,83.144 Z M275.302,83.144 L273.664,83.144 L273.664,79.166 L275.302,79.166 L275.302,83.144 Z M277.552,82.64 C277.804,81.83 277.984,81.002 278.092,80.138 L277.138,79.904 C277.048,80.768 276.886,81.578 276.67,82.334 L277.552,82.64 Z M274.33,82.64 L275.194,82.406 C275.05,81.488 274.888,80.678 274.708,79.976 L273.808,80.282 C274.024,81.038 274.186,81.812 274.33,82.64 Z M285.814,91.334 L282.088,91.334 L282.088,86.582 L285.814,86.582 L285.814,91.334 Z M278.794,92.9 L280.198,92.36 C279.964,91.532 279.64,90.632 279.226,89.624 L277.894,89.984 C278.236,90.92 278.542,91.892 278.794,92.9 Z M276.634,93.332 L278.11,92.936 C277.894,91.838 277.642,90.866 277.354,90.02 L276.04,90.452 C276.292,91.388 276.49,92.342 276.634,93.332 Z M273.16,93.71 C273.448,92.756 273.61,91.658 273.682,90.416 L272.188,90.236 C272.116,91.352 271.936,92.36 271.648,93.242 L273.16,93.71 Z M274.384,93.584 L275.95,93.404 C275.878,92.09 275.716,91.064 275.464,90.308 L274.06,90.47 C274.222,91.208 274.33,92.252 274.384,93.584 Z M297.946,86.51 L297.946,84.8 L296.344,84.8 L296.344,85.358 L295.156,85.358 L295.156,84.53 L298.63,84.53 L298.63,83.36 L295.156,83.36 L295.156,82.91 L297.928,82.91 L297.928,79.328 L295.156,79.328 L295.156,78.932 L298.414,78.932 L298.414,77.672 L295.156,77.672 L295.156,77.186 L293.5,77.186 L293.5,77.672 L290.134,77.672 L290.134,78.932 L293.5,78.932 L293.5,79.328 L290.71,79.328 L290.71,82.91 L293.5,82.91 L293.5,83.36 L290.008,83.36 L290.008,84.53 L293.5,84.53 L293.5,85.358 L292.312,85.358 L292.312,84.8 L290.71,84.8 L290.71,86.51 L297.946,86.51 Z M305.488,86.672 L306.064,85.232 C305.2,85.07 304.408,84.872 303.706,84.656 C304.426,84.098 304.966,83.468 305.29,82.748 L305.29,81.452 L299.566,81.452 C300.07,81.02 300.43,80.642 300.61,80.282 C300.79,79.868 300.916,79.454 300.952,79.022 L302.734,79.022 L302.734,79.832 C302.734,80.588 303.22,80.984 304.21,80.984 L305.776,80.984 L305.776,79.742 L304.678,79.742 C304.462,79.742 304.372,79.67 304.372,79.526 L304.372,77.654 L299.44,77.654 C299.44,78.608 299.314,79.256 299.098,79.58 C298.846,79.922 298.54,80.246 298.144,80.534 L299.17,81.452 L298.612,81.452 L298.612,82.838 L298.936,82.838 C299.332,83.504 299.89,84.098 300.574,84.638 C299.89,84.854 299.116,85.052 298.252,85.196 L299.008,86.582 C300.196,86.312 301.222,85.988 302.104,85.592 C303.04,86.042 304.174,86.402 305.488,86.672 Z M293.68,80.732 L292.204,80.732 L292.204,80.246 L293.68,80.246 L293.68,80.732 Z M296.434,80.732 L294.976,80.732 L294.976,80.246 L296.434,80.246 L296.434,80.732 Z M296.434,82.028 L294.976,82.028 L294.976,81.47 L296.434,81.47 L296.434,82.028 Z M293.68,82.028 L292.204,82.028 L292.204,81.47 L293.68,81.47 L293.68,82.028 Z M302.122,83.99 C301.492,83.666 300.952,83.27 300.52,82.838 L303.598,82.838 C303.238,83.27 302.734,83.648 302.122,83.99 Z M297.19,93.944 C298.45,93.944 299.098,93.44 299.098,92.45 L299.098,91.874 L306.064,91.874 L306.064,90.506 L299.098,90.506 L299.098,89.948 L304.678,89.948 L304.678,88.724 L299.098,88.724 L299.098,88.058 C301.078,87.986 302.824,87.86 304.336,87.716 L303.616,86.51 C300.34,86.852 296.344,87.032 291.628,87.032 L292.024,88.184 C293.896,88.184 295.66,88.148 297.28,88.112 L297.28,88.724 L291.484,88.724 L291.484,89.948 L297.28,89.948 L297.28,90.506 L289.936,90.506 L289.936,91.874 L297.28,91.874 L297.28,92.072 C297.28,92.378 297.082,92.54 296.686,92.54 C296.056,92.54 295.39,92.504 294.688,92.45 L295.03,93.944 L297.19,93.944 Z M316.954,93.944 L316.954,90.434 L324.154,90.434 L324.154,88.652 L316.954,88.652 L316.954,87.05 C317.35,86.978 317.764,86.924 318.196,86.852 C318.304,87.176 318.43,87.518 318.556,87.878 L320.23,87.122 C319.798,85.97 319.312,84.908 318.736,83.918 L317.152,84.44 C317.314,84.746 317.476,85.088 317.638,85.466 L315.316,85.79 C316.486,84.746 317.854,83.27 319.438,81.362 L317.746,80.714 C317.35,81.218 316.972,81.704 316.612,82.172 L315.064,82.316 C315.532,81.776 315.982,81.11 316.378,80.336 L323.866,80.336 L323.866,78.572 L316.828,78.572 C316.594,77.996 316.36,77.492 316.144,77.042 L314.236,77.366 C314.488,77.726 314.722,78.14 314.938,78.572 L308.134,78.572 L308.134,80.336 L314.452,80.336 C313.912,81.398 313.246,82.1 312.454,82.442 L312.796,83.918 C313.66,83.846 314.488,83.792 315.28,83.72 C314.344,84.764 313.57,85.412 312.994,85.7 C312.778,85.754 312.58,85.808 312.382,85.844 L312.76,87.482 C313.534,87.428 314.29,87.356 315.046,87.284 L315.046,88.652 L307.882,88.652 L307.882,90.434 L315.046,90.434 L315.046,93.944 L316.954,93.944 Z M320.878,83.954 C321.76,83.324 322.606,82.532 323.398,81.578 L321.94,80.498 C321.256,81.308 320.518,82.01 319.69,82.622 L320.878,83.954 Z M310.96,83.972 L312.256,82.676 C311.554,81.956 310.69,81.236 309.682,80.552 L308.404,81.794 C309.502,82.568 310.348,83.288 310.96,83.972 Z M322.39,87.986 L323.776,86.618 C323.02,85.772 322.084,84.926 320.986,84.08 L319.798,85.214 C320.914,86.204 321.778,87.122 322.39,87.986 Z M309.502,87.932 C310.51,87.194 311.482,86.258 312.418,85.142 L311.014,84.098 C310.186,85.034 309.268,85.844 308.242,86.528 L309.502,87.932 Z" id="提高點擊率" fill="#FFFFFF" fill-rule="nonzero"></path>
                <ellipse id="Oval" fill="#427FE0" cx="76.4038462" cy="203.251634" rx="76.4038462" ry="76.2908497"></ellipse>
                <path d="M23.624,243.52 C24.712,243.52 25.272,242.976 25.272,241.888 L25.272,237.504 L26.424,236.928 L26.424,235.232 C26.04,235.424 25.656,235.632 25.272,235.824 L25.272,233.36 L26.696,233.36 L26.696,231.744 L25.272,231.744 L25.272,228.912 L23.576,228.912 L23.576,231.744 L21.832,231.744 L21.832,233.36 L23.576,233.36 L23.576,236.528 C22.92,236.752 22.248,236.944 21.576,237.104 L21.992,238.8 C22.536,238.624 23.064,238.432 23.576,238.24 L23.576,241.456 C23.576,241.808 23.4,242 23.048,242 C22.664,242 22.264,241.968 21.848,241.904 L22.216,243.52 L23.624,243.52 Z M35,235.184 L35,229.344 L27.736,229.344 L27.736,235.184 L35,235.184 Z M33.368,231.632 L29.352,231.632 L29.352,230.688 L33.368,230.688 L33.368,231.632 Z M33.368,233.84 L29.352,233.84 L29.352,232.88 L33.368,232.88 L33.368,233.84 Z M27.032,243.664 C27.592,242.928 28.04,242.144 28.392,241.312 C28.84,242 29.32,242.48 29.864,242.752 C30.664,243.136 32.12,243.328 34.264,243.344 C34.76,243.36 35.32,243.376 35.928,243.376 L36.392,241.76 C35.784,241.824 35.032,241.872 34.152,241.872 C33.4,241.872 32.744,241.824 32.168,241.76 L32.168,240.208 L35.224,240.208 L35.224,238.736 L32.168,238.736 L32.168,237.408 L35.944,237.408 L35.944,235.92 L26.712,235.92 L26.712,237.408 L30.552,237.408 L30.552,241.376 C30.536,241.376 30.52,241.36 30.52,241.36 C29.912,241.104 29.384,240.544 28.904,239.68 C29.016,239.168 29.096,238.624 29.128,238.048 L27.656,237.872 C27.528,239.6 26.904,241.168 25.784,242.576 L27.032,243.664 Z M52.12,231.568 L52.12,230.032 L45.944,230.032 C45.816,229.568 45.672,229.136 45.544,228.752 L43.672,229.072 C43.832,229.36 43.976,229.68 44.12,230.032 L37.864,230.032 L37.864,231.568 L52.12,231.568 Z M49.688,235.616 L49.688,232.224 L40.328,232.224 L40.328,235.616 L49.688,235.616 Z M48.088,234.368 L41.928,234.368 L41.928,233.472 L48.088,233.472 L48.088,234.368 Z M40.12,243.664 L40.12,237.696 L49.88,237.696 L49.88,241.616 C49.88,242 49.592,242.192 49.032,242.192 L47.8,242.144 L48.2,243.616 L49.512,243.616 C50.808,243.616 51.464,243.056 51.464,241.952 L51.464,236.256 L38.536,236.256 L38.536,243.664 L40.12,243.664 Z M48.312,241.792 L48.312,238.336 L41.72,238.336 L41.72,241.792 L48.312,241.792 Z M46.84,240.56 L43.192,240.56 L43.192,239.568 L46.84,239.568 L46.84,240.56 Z M54.904,243.712 C55.656,242.432 56.136,240.832 56.328,238.896 L57.304,239.744 C57.752,239.376 58.168,238.928 58.552,238.4 L61.608,238.4 L61.608,239.44 L57.992,239.44 L57.992,240.88 L61.608,240.88 L61.608,241.904 L56.36,241.904 L56.36,243.328 L68.008,243.328 L68.008,241.904 L63.24,241.904 L63.24,240.88 L66.872,240.88 L66.872,239.44 L63.24,239.44 L63.24,238.4 L67.176,238.4 L67.176,236.96 L63.24,236.96 L63.24,235.888 L61.608,235.888 L61.608,236.96 L59.384,236.96 L59.64,236.352 L58.344,235.824 C57.896,236.944 57.24,237.856 56.36,238.576 C56.392,238.128 56.408,237.68 56.424,237.216 L56.424,235.616 L67.608,235.616 L67.608,234.208 L65.768,234.208 L66.504,233.472 C65.592,233.168 64.6,232.864 63.528,232.576 C64.264,232.288 64.968,231.952 65.656,231.6 L65.08,231.216 L67.528,231.216 L67.528,229.84 L62.152,229.84 C62.008,229.424 61.864,229.056 61.704,228.72 L59.992,229.008 C60.152,229.264 60.296,229.536 60.44,229.84 L54.504,229.84 L54.504,231.216 L57.384,231.216 L56.648,231.92 C57.64,232.144 58.568,232.384 59.448,232.608 C58.312,232.848 57.064,233.04 55.704,233.184 L56.456,234.208 L54.824,234.208 L54.824,237.216 C54.792,239.52 54.392,241.312 53.656,242.592 L54.904,243.712 Z M61.608,232.064 C60.536,231.776 59.384,231.504 58.152,231.216 L63.928,231.216 C63.224,231.52 62.456,231.808 61.608,232.064 Z M64.856,234.208 L56.6,234.208 C58.408,234 60.104,233.664 61.672,233.216 C62.856,233.552 63.928,233.888 64.856,234.208 Z M81.608,235.072 L81.608,229.36 L72.408,229.36 L72.408,235.072 L81.608,235.072 Z M79.928,233.504 L74.088,233.504 L74.088,230.928 L79.928,230.928 L79.928,233.504 Z M71.88,243.424 L71.88,242.672 L74.664,242.672 L74.664,243.424 L76.28,243.424 L76.28,236.128 L70.248,236.128 L70.248,243.424 L71.88,243.424 Z M79.16,243.424 L79.16,242.672 L82.088,242.672 L82.088,243.424 L83.752,243.424 L83.752,236.128 L77.528,236.128 L77.528,243.424 L79.16,243.424 Z M74.664,241.12 L71.88,241.12 L71.88,237.696 L74.664,237.696 L74.664,241.12 Z M82.088,241.12 L79.16,241.12 L79.16,237.696 L82.088,237.696 L82.088,241.12 Z M94.936,243.6 C95.848,243.6 96.312,243.152 96.312,242.272 L96.312,239.392 L97.048,240.352 C97.512,240.064 97.944,239.76 98.328,239.424 C98.664,239.712 99.064,240.016 99.512,240.304 L100.536,239.04 C99.528,238.592 98.76,238.08 98.216,237.52 L100.2,237.52 L100.2,236.272 L97.976,236.272 L97.976,235.536 L99.944,235.536 L99.944,234.352 L97.976,234.352 L97.976,233.728 L99.4,233.728 L99.4,229.248 L91.56,229.248 L91.56,233.728 L93.08,233.728 L93.08,234.352 L91.128,234.352 L91.128,235.536 L93.08,235.536 L93.08,236.272 L90.68,236.272 L90.68,237.52 L92.696,237.52 C92.152,238 91.416,238.4 90.472,238.72 L91.272,240.032 C91.624,239.84 91.976,239.648 92.312,239.456 C92.76,239.776 93.128,240.064 93.416,240.336 L94.296,239.456 C94.008,239.2 93.704,238.928 93.352,238.672 C93.72,238.32 94.04,237.936 94.328,237.52 L96.696,237.52 C96.888,237.856 97.128,238.192 97.416,238.528 C97.096,238.816 96.728,239.072 96.312,239.328 L96.312,237.936 L94.712,237.936 L94.712,241.904 C94.712,242.096 94.6,242.208 94.408,242.208 C94.072,242.208 93.72,242.176 93.368,242.128 L93.72,243.6 L94.936,243.6 Z M87.624,242.128 L87.624,241.056 L90.328,241.056 L90.328,229.808 L86.088,229.808 L86.088,242.128 L87.624,242.128 Z M97.976,230.992 L93,230.992 L93,230.384 L97.976,230.384 L97.976,230.992 Z M88.824,234.704 L87.624,234.704 L87.624,231.296 L88.824,231.296 L88.824,234.704 Z M97.976,232.608 L93,232.608 L93,232 L97.976,232 L97.976,232.608 Z M96.488,234.352 L94.584,234.352 L94.584,233.728 L96.488,233.728 L96.488,234.352 Z M96.488,236.272 L94.584,236.272 L94.584,235.536 L96.488,235.536 L96.488,236.272 Z M88.824,239.552 L87.624,239.552 L87.624,236.208 L88.824,236.208 L88.824,239.552 Z M91.272,242.992 C92.536,242.528 93.592,242 94.44,241.424 L94.104,240.304 C93.144,240.784 91.992,241.2 90.648,241.536 L91.272,242.992 Z M99.336,243.312 L100.152,242.016 C99.224,241.456 98.216,240.976 97.096,240.56 L96.408,241.584 C97.4,242 98.376,242.576 99.336,243.312 Z M102.504,243.664 C104.296,243.056 105.592,242.192 106.392,241.072 C107.224,239.856 107.672,238.24 107.752,236.24 L107.752,236.224 L110.008,236.224 L110.008,241.376 C110.008,242.624 110.584,243.264 111.736,243.264 L114.28,243.264 C114.92,243.264 115.384,243.104 115.704,242.784 C116.024,242.448 116.248,241.392 116.392,239.632 L114.76,239.12 C114.696,240.368 114.616,241.104 114.488,241.36 C114.376,241.584 114.2,241.712 113.976,241.712 L112.232,241.712 C111.864,241.712 111.688,241.472 111.688,241.024 L111.688,236.224 L116.056,236.224 L116.056,234.592 L109.848,234.592 L109.848,228.912 L108.152,228.912 L108.152,234.592 L101.96,234.592 L101.96,236.224 L106.056,236.224 L106.056,236.24 C105.992,237.776 105.672,239.008 105.064,239.952 C104.456,240.832 103.288,241.568 101.56,242.176 L102.504,243.664 Z M112.936,234.144 C113.784,232.928 114.472,231.68 115,230.368 L113.432,229.616 C112.92,230.848 112.248,232.096 111.4,233.344 L112.936,234.144 Z M105.16,234.144 L106.744,233.344 C106.072,232.048 105.368,230.864 104.632,229.776 L103.048,230.528 C103.8,231.584 104.504,232.8 105.16,234.144 Z M125.848,243.728 L125.848,240.608 L132.248,240.608 L132.248,239.024 L125.848,239.024 L125.848,237.6 C126.2,237.536 126.568,237.488 126.952,237.424 C127.048,237.712 127.16,238.016 127.272,238.336 L128.76,237.664 C128.376,236.64 127.944,235.696 127.432,234.816 L126.024,235.28 C126.168,235.552 126.312,235.856 126.456,236.192 L124.392,236.48 C125.432,235.552 126.648,234.24 128.056,232.544 L126.552,231.968 C126.2,232.416 125.864,232.848 125.544,233.264 L124.168,233.392 C124.584,232.912 124.984,232.32 125.336,231.632 L131.992,231.632 L131.992,230.064 L125.736,230.064 C125.528,229.552 125.32,229.104 125.128,228.704 L123.432,228.992 C123.656,229.312 123.864,229.68 124.056,230.064 L118.008,230.064 L118.008,231.632 L123.624,231.632 C123.144,232.576 122.552,233.2 121.848,233.504 L122.152,234.816 C122.92,234.752 123.656,234.704 124.36,234.64 C123.528,235.568 122.84,236.144 122.328,236.4 C122.136,236.448 121.96,236.496 121.784,236.528 L122.12,237.984 C122.808,237.936 123.48,237.872 124.152,237.808 L124.152,239.024 L117.784,239.024 L117.784,240.608 L124.152,240.608 L124.152,243.728 L125.848,243.728 Z M129.336,234.848 C130.12,234.288 130.872,233.584 131.576,232.736 L130.28,231.776 C129.672,232.496 129.016,233.12 128.28,233.664 L129.336,234.848 Z M120.52,234.864 L121.672,233.712 C121.048,233.072 120.28,232.432 119.384,231.824 L118.248,232.928 C119.224,233.616 119.976,234.256 120.52,234.864 Z M130.68,238.432 L131.912,237.216 C131.24,236.464 130.408,235.712 129.432,234.96 L128.376,235.968 C129.368,236.848 130.136,237.664 130.68,238.432 Z M119.224,238.384 C120.12,237.728 120.984,236.896 121.816,235.904 L120.568,234.976 C119.832,235.808 119.016,236.528 118.104,237.136 L119.224,238.384 Z" id="提高產品曝光率" fill="#FFFFFF" fill-rule="nonzero"></path>
                <ellipse id="Oval" fill="#427FE0" cx="168.088462" cy="411.604575" rx="76.4038462" ry="76.2908497"></ellipse>
                <path d="M121.811,449.897 L121.811,448.597 L118.223,448.597 L118.223,446.569 L121.031,446.569 L121.031,441.824 L118.236,441.824 L118.236,440.03 L121.616,440.03 L121.616,438.73 L110.384,438.73 L110.384,440.03 L113.79,440.03 L113.79,441.824 L110.982,441.824 L110.982,446.582 L113.79,446.582 L113.79,448.597 L110.215,448.597 L110.215,449.897 L121.811,449.897 Z M116.871,448.597 L115.142,448.597 L115.142,445.282 L112.334,445.282 L112.334,443.111 L115.142,443.111 L115.142,440.03 L116.884,440.03 L116.884,443.111 L119.679,443.111 L119.679,445.269 L116.871,445.269 L116.871,448.597 Z M132.159,450.313 C133.108,450.313 133.758,450.079 134.096,449.624 C134.434,449.169 134.603,447.596 134.603,444.892 L130.274,444.892 L130.274,443.969 L133.524,443.969 L133.524,442.799 L130.274,442.799 L130.274,441.915 L133.55,441.915 L133.55,440.758 L130.274,440.758 L130.274,439.887 L134.148,439.887 L134.148,438.678 L124.463,438.678 L124.463,446.088 L133.225,446.088 C133.225,447.284 133.173,448.077 133.069,448.467 C132.965,448.857 132.575,449.065 131.925,449.065 C131.522,449.065 131.093,449.039 130.625,448.987 L130.95,450.274 C131.366,450.3 131.769,450.313 132.159,450.313 Z M128.948,440.758 L125.815,440.758 L125.815,439.887 L128.948,439.887 L128.948,440.758 Z M128.948,442.799 L125.815,442.799 L125.815,441.915 L128.948,441.915 L128.948,442.799 Z M128.948,444.892 L125.815,444.892 L125.815,443.969 L128.948,443.969 L128.948,444.892 Z M131.249,448.597 L132.406,448.311 C132.198,447.57 131.977,446.92 131.73,446.348 L130.638,446.725 C130.872,447.323 131.08,447.947 131.249,448.597 Z M124.489,450.222 C124.879,449.26 125.204,448.129 125.464,446.855 L124.281,446.53 C123.982,447.83 123.631,448.896 123.228,449.754 L124.489,450.222 Z M129.091,449.39 L130.274,448.935 C130.105,448.233 129.871,447.453 129.559,446.608 L128.402,446.92 C128.662,447.726 128.896,448.545 129.091,449.39 Z M126.478,449.819 L127.765,449.65 C127.713,448.428 127.596,447.453 127.44,446.751 L126.231,446.894 C126.361,447.583 126.439,448.558 126.478,449.819 Z M138.308,441.421 L139.244,440.485 C138.698,439.809 138.035,439.12 137.242,438.431 L136.319,439.302 C137.177,440.056 137.84,440.771 138.308,441.421 Z M144.977,448.324 C145.627,448.324 145.965,447.973 145.965,447.271 L145.965,444.58 L146.862,444.45 C146.94,444.658 147.031,444.879 147.122,445.126 L148.019,444.645 C147.733,443.813 147.408,443.059 147.031,442.357 L146.082,442.773 C146.212,443.02 146.355,443.293 146.485,443.579 C145.939,443.657 145.38,443.722 144.821,443.774 C145.575,443.059 146.459,442.045 147.499,440.719 L146.381,440.29 C146.108,440.667 145.848,441.018 145.601,441.343 L144.717,441.421 C145.042,440.979 145.367,440.485 145.679,439.965 C146.433,439.874 147.096,439.718 147.668,439.497 L147.083,438.496 C146.056,438.847 144.808,439.029 143.352,439.029 L143.729,440.082 C143.937,440.082 144.158,440.069 144.379,440.069 C144.145,440.485 143.963,440.797 143.807,441.018 C143.599,441.304 143.339,441.473 143.053,441.499 L143.209,442.448 C143.833,442.396 144.366,442.357 144.821,442.318 C144.184,443.072 143.664,443.54 143.274,443.748 C143.144,443.787 143.014,443.826 142.871,443.852 L143.131,444.853 C143.703,444.801 144.262,444.762 144.821,444.71 L144.821,446.959 C144.821,447.141 144.73,447.245 144.548,447.245 C144.314,447.245 144.08,447.219 143.82,447.167 L144.08,448.324 L144.977,448.324 Z M140.778,448.181 C141.558,448.181 141.961,447.752 141.961,446.92 L141.961,443.839 C142.247,443.761 142.546,443.67 142.845,443.579 L142.845,442.357 C142.559,442.448 142.273,442.539 141.961,442.617 L141.961,441.603 C142.481,440.953 142.871,440.42 143.105,439.991 L143.105,438.873 L139.764,438.873 L139.764,440.069 L141.74,440.069 C141.454,440.459 141.142,440.836 140.791,441.213 L140.791,442.89 C140.336,442.981 139.868,443.059 139.387,443.111 L139.686,444.333 C140.05,444.255 140.427,444.19 140.791,444.112 L140.791,446.582 C140.791,446.894 140.661,447.05 140.414,447.05 C140.258,447.05 139.972,447.011 139.569,446.959 L139.881,448.181 L140.778,448.181 Z M137.112,450.43 C137.697,449.26 138.1,448.675 138.334,448.675 C138.49,448.675 138.646,448.779 138.828,449 C139.218,449.442 139.686,449.741 140.206,449.897 C140.765,450.027 141.48,450.105 142.338,450.118 C143.196,450.131 143.989,450.144 144.717,450.144 L147.694,450.144 L148.019,448.805 C147.668,448.831 147.161,448.857 146.498,448.883 C145.822,448.883 145.172,448.896 144.522,448.896 C143.482,448.896 142.585,448.883 141.818,448.87 C141.038,448.844 140.466,448.74 140.076,448.545 C139.764,448.376 139.452,448.116 139.14,447.778 L138.997,447.635 L138.997,442.695 L136.137,442.695 L136.137,443.943 L137.723,443.943 L137.723,447.544 C137.229,447.843 136.696,448.493 136.111,449.494 L137.112,450.43 Z M147.2,447.856 L148.11,447.232 C147.837,446.66 147.46,445.984 146.992,445.204 L146.108,445.75 C146.576,446.53 146.94,447.232 147.2,447.856 Z M143.196,447.986 C143.664,447.349 144.08,446.595 144.444,445.724 L143.469,445.23 C143.131,446.036 142.728,446.738 142.26,447.31 L143.196,447.986 Z M150.632,450.235 C151.516,450.235 151.971,449.793 151.971,448.909 L151.971,445.347 L152.907,444.879 L152.907,443.501 C152.595,443.657 152.283,443.826 151.971,443.982 L151.971,441.98 L153.128,441.98 L153.128,440.667 L151.971,440.667 L151.971,438.366 L150.593,438.366 L150.593,440.667 L149.176,440.667 L149.176,441.98 L150.593,441.98 L150.593,444.554 C150.06,444.736 149.514,444.892 148.968,445.022 L149.306,446.4 C149.748,446.257 150.177,446.101 150.593,445.945 L150.593,448.558 C150.593,448.844 150.45,449 150.164,449 C149.852,449 149.527,448.974 149.189,448.922 L149.488,450.235 L150.632,450.235 Z M159.875,443.462 L159.875,438.717 L153.973,438.717 L153.973,443.462 L159.875,443.462 Z M158.549,440.576 L155.286,440.576 L155.286,439.809 L158.549,439.809 L158.549,440.576 Z M158.549,442.37 L155.286,442.37 L155.286,441.59 L158.549,441.59 L158.549,442.37 Z M153.401,450.352 C153.856,449.754 154.22,449.117 154.506,448.441 C154.87,449 155.26,449.39 155.702,449.611 C156.352,449.923 157.535,450.079 159.277,450.092 C159.68,450.105 160.135,450.118 160.629,450.118 L161.006,448.805 C160.512,448.857 159.901,448.896 159.186,448.896 C158.575,448.896 158.042,448.857 157.574,448.805 L157.574,447.544 L160.057,447.544 L160.057,446.348 L157.574,446.348 L157.574,445.269 L160.642,445.269 L160.642,444.06 L153.141,444.06 L153.141,445.269 L156.261,445.269 L156.261,448.493 C156.248,448.493 156.235,448.48 156.235,448.48 C155.741,448.272 155.312,447.817 154.922,447.115 C155.013,446.699 155.078,446.257 155.104,445.789 L153.908,445.646 C153.804,447.05 153.297,448.324 152.387,449.468 L153.401,450.352 Z M173.785,440.524 L173.785,439.276 L168.767,439.276 C168.663,438.899 168.546,438.548 168.442,438.236 L166.921,438.496 C167.051,438.73 167.168,438.99 167.285,439.276 L162.202,439.276 L162.202,440.524 L173.785,440.524 Z M171.809,443.813 L171.809,441.057 L164.204,441.057 L164.204,443.813 L171.809,443.813 Z M170.509,442.799 L165.504,442.799 L165.504,442.071 L170.509,442.071 L170.509,442.799 Z M164.035,450.352 L164.035,445.503 L171.965,445.503 L171.965,448.688 C171.965,449 171.731,449.156 171.276,449.156 L170.275,449.117 L170.6,450.313 L171.666,450.313 C172.719,450.313 173.252,449.858 173.252,448.961 L173.252,444.333 L162.748,444.333 L162.748,450.352 L164.035,450.352 Z M170.691,448.831 L170.691,446.023 L165.335,446.023 L165.335,448.831 L170.691,448.831 Z M169.495,447.83 L166.531,447.83 L166.531,447.024 L169.495,447.024 L169.495,447.83 Z M179.193,442.435 C179.752,441.915 180.272,441.317 180.753,440.615 L185.199,440.615 C185.069,441.057 184.9,441.46 184.718,441.811 L185.914,442.149 C186.174,441.512 186.382,440.875 186.551,440.225 L186.551,439.393 L181.494,439.393 C181.624,439.133 181.754,438.873 181.884,438.6 L180.597,438.301 C179.96,439.64 179.219,440.68 178.361,441.421 L179.193,442.435 Z M177.854,445.62 L177.854,440.667 C178.257,440.043 178.634,439.354 178.985,438.613 L177.659,438.314 C176.853,439.965 175.93,441.239 174.864,442.123 L175.722,443.163 C175.982,442.916 176.255,442.656 176.528,442.37 L176.528,445.62 L177.854,445.62 Z M182.053,445.659 C182.859,445.659 183.262,445.204 183.262,444.32 L183.262,441.083 L181.91,441.083 L181.91,443.995 C181.91,444.333 181.806,444.502 181.611,444.502 C181.338,444.502 181.052,444.463 180.74,444.411 L181.039,445.659 L182.053,445.659 Z M185.42,445.308 L186.577,444.71 C186.096,443.774 185.55,442.929 184.926,442.162 L183.808,442.669 C184.393,443.436 184.926,444.32 185.42,445.308 Z M179.661,445.269 C180.311,444.541 180.857,443.696 181.325,442.708 L180.246,442.175 C179.804,443.085 179.258,443.878 178.634,444.541 L179.661,445.269 Z M186.005,449.468 L187.136,448.675 C186.694,447.817 186.07,446.829 185.251,445.685 L184.146,446.374 C184.926,447.505 185.537,448.532 186.005,449.468 Z M181.702,448.324 L182.755,447.596 C182.443,447.05 181.975,446.426 181.377,445.724 L180.337,446.374 C180.909,447.089 181.364,447.739 181.702,448.324 Z M182.885,450.17 C183.418,450.17 183.808,450.053 184.068,449.845 C184.354,449.624 184.549,448.922 184.653,447.726 L183.366,447.31 C183.327,448.064 183.249,448.506 183.119,448.662 C183.002,448.805 182.846,448.883 182.638,448.883 L180.025,448.883 C179.739,448.883 179.596,448.714 179.596,448.376 L179.596,446.062 L178.218,446.062 L178.218,448.662 C178.218,449.663 178.673,450.17 179.609,450.17 L182.885,450.17 Z M176.268,449.806 C176.84,448.844 177.282,447.726 177.594,446.426 L176.281,446.166 C176.047,447.18 175.67,448.155 175.124,449.065 L176.268,449.806 Z M197.549,450.222 C198.667,450.222 199.291,449.767 199.421,448.857 C199.551,447.791 199.616,444.983 199.616,440.433 L195.664,440.433 C195.859,439.809 196.028,439.146 196.158,438.444 L194.819,438.275 C194.507,440.056 193.935,441.564 193.077,442.786 L193.896,443.865 C194.377,443.241 194.793,442.539 195.144,441.759 L198.29,441.759 C198.264,445.438 198.225,447.583 198.147,448.207 C198.069,448.714 197.796,448.974 197.328,448.974 C196.899,448.974 196.392,448.948 195.82,448.909 L196.145,450.144 C196.821,450.196 197.289,450.222 197.549,450.222 Z M189.697,449.923 L189.697,448.896 L191.621,448.896 L191.621,449.546 L192.921,449.546 L192.921,440.433 L190.945,440.433 C191.179,439.835 191.374,439.172 191.517,438.47 L190.152,438.288 C190.048,439.029 189.879,439.744 189.645,440.433 L188.397,440.433 L188.397,449.923 L189.697,449.923 Z M191.621,443.982 L189.697,443.982 L189.697,441.707 L191.621,441.707 L191.621,443.982 Z M196.119,447.128 L197.211,446.374 C196.756,445.568 196.119,444.645 195.287,443.592 L194.182,444.281 C194.988,445.321 195.638,446.27 196.119,447.128 Z M191.621,447.648 L189.697,447.648 L189.697,445.191 L191.621,445.191 L191.621,447.648 Z M208.352,450.352 L208.352,438.34 L207.065,438.34 L207.065,440.277 L205.167,440.277 L205.167,441.499 L207.065,441.499 L207.065,443.293 L205.427,443.293 L205.427,444.515 L207.065,444.515 L207.065,446.4 L204.699,446.4 L204.699,447.622 L207.065,447.622 L207.065,450.352 L208.352,450.352 Z M210.809,450.352 L210.809,447.622 L212.98,447.622 L212.98,446.4 L210.809,446.4 L210.809,444.515 L212.564,444.515 L212.564,443.293 L210.809,443.293 L210.809,441.499 L212.889,441.499 L212.889,440.277 L210.809,440.277 L210.809,438.34 L209.509,438.34 L209.509,450.352 L210.809,450.352 Z M202.502,450.235 C203.412,450.235 203.867,449.806 203.867,448.974 L203.867,445.451 C204.218,445.295 204.569,445.126 204.92,444.957 L204.92,443.566 C204.569,443.748 204.218,443.93 203.867,444.086 L203.867,441.98 L204.881,441.98 L204.881,440.667 L203.867,440.667 L203.867,438.366 L202.541,438.366 L202.541,440.667 L201.293,440.667 L201.293,441.98 L202.541,441.98 L202.541,444.606 C202.034,444.775 201.527,444.918 201.02,445.022 L201.358,446.4 C201.748,446.27 202.151,446.127 202.541,445.984 L202.541,448.636 C202.541,448.87 202.372,449 202.034,449 C201.722,449 201.384,448.974 201.02,448.922 L201.319,450.235 L202.502,450.235 Z M218.336,450.326 L218.336,449.65 L223.705,449.65 L223.705,450.326 L225.083,450.326 L225.083,444.593 L220.26,444.593 C222.366,443.514 223.835,442.175 224.641,440.563 L224.641,439.367 L219.857,439.367 C220.065,439.068 220.247,438.769 220.403,438.457 L218.908,438.275 C218.141,439.601 216.659,440.732 214.475,441.642 L215.385,442.825 C216.737,442.175 217.842,441.447 218.726,440.641 L223.094,440.641 C222.548,441.525 221.703,442.318 220.572,443.007 C220.039,442.565 219.337,442.071 218.479,441.525 L217.296,442.253 C218.141,442.734 218.843,443.189 219.389,443.631 C217.959,444.281 216.178,444.801 214.033,445.191 L214.735,446.491 C215.515,446.309 216.269,446.101 216.971,445.893 L216.971,450.326 L218.336,450.326 Z M223.705,448.337 L218.336,448.337 L218.336,445.854 L223.705,445.854 L223.705,448.337 Z" id="亞馬遜提高您的排名" fill="#FFFFFF" fill-rule="nonzero"></path>
                <text id="提高流量" font-family="PingFangSC-Semibold, PingFang SC" font-size="18" font-weight="500" fill="#FFFFFF">
                    <tspan x="362" y="455">提高流量</tspan>
                </text>
                <ellipse id="Oval" fill="#427FE0" cx="397.826923" cy="413.70915" rx="76.4038462" ry="76.2908497"></ellipse>
            </g>
            <polygon id="Triangle" fill="#FF5254" transform="translate(287.757715, 433.433433) rotate(-330.000000) translate(-287.757715, -433.433433) " points="287.768252 417.104884 306.723414 449.749747 268.792017 449.761983"></polygon>
            <polygon id="Triangle" fill="#FF5254" transform="translate(436.628290, 333.926677) rotate(-36.000000) translate(-436.628290, -333.926677) " points="436.616719 317.596665 455.592639 350.256688 417.66394 350.243251"></polygon>
            <polygon id="Triangle" fill="#FF5254" transform="translate(400.454692, 134.266744) rotate(138.000000) translate(-400.454692, -134.266744) " points="400.442592 117.935335 419.417597 150.598153 381.491787 150.584102"></polygon>
            <polygon id="Triangle" fill="#FF5254" transform="translate(167.554776, 127.945018) rotate(46.000000) translate(-167.554776, -127.945018) " points="167.566935 111.612743 186.516696 144.263172 148.592856 144.277292"></polygon>
            <g id="icn_traffic" transform="translate(444.000000, 181.000000)" fill="#FFFFFF" fill-rule="nonzero">
                <path d="M55,23.7222222 L44.6875,23.7222222 L44.6875,19.9944444 C50.53125,18.6388889 55,13.2166667 55,6.77777778 L44.6875,6.77777778 L44.6875,3.38888889 C44.6875,1.35555556 43.3125,0 41.25,0 L13.75,0 C11.6875,0 10.3125,1.35555556 10.3125,3.38888889 L10.3125,6.77777778 L0,6.77777778 C0,13.2166667 4.46875,18.3 10.3125,19.9944444 L10.3125,23.7222222 L0,23.7222222 C0,30.1611111 4.46875,35.2444444 10.3125,36.9388889 L10.3125,40.6666667 L0,40.6666667 C0,47.1055556 4.46875,52.1888889 10.3125,53.8833333 L10.3125,57.6111111 C10.3125,59.6444444 11.6875,61 13.75,61 L41.25,61 C43.3125,61 44.6875,59.6444444 44.6875,57.6111111 L44.6875,53.8833333 C50.53125,52.5277778 55,47.1055556 55,40.6666667 L44.6875,40.6666667 L44.6875,36.9388889 C50.53125,35.2444444 55,30.1611111 55,23.7222222 Z M27.5,54.2222222 C23.71875,54.2222222 20.625,51.1722222 20.625,47.4444444 C20.625,43.7166667 23.71875,40.6666667 27.5,40.6666667 C31.28125,40.6666667 34.375,43.7166667 34.375,47.4444444 C34.375,51.1722222 31.28125,54.2222222 27.5,54.2222222 Z M27.5,37.2777778 C23.71875,37.2777778 20.625,34.2277778 20.625,30.5 C20.625,26.7722222 23.71875,23.7222222 27.5,23.7222222 C31.28125,23.7222222 34.375,26.7722222 34.375,30.5 C34.375,34.2277778 31.28125,37.2777778 27.5,37.2777778 Z M27.5,20.3333333 C23.71875,20.3333333 20.625,17.2833333 20.625,13.5555556 C20.625,9.82777778 23.71875,6.77777778 27.5,6.77777778 C31.28125,6.77777778 34.375,9.82777778 34.375,13.5555556 C34.375,17.2833333 31.28125,20.3333333 27.5,20.3333333 Z" id="Shape"></path>
            </g>
            <g id="icn_conversion" transform="translate(359.000000, 394.000000)" fill="#FFFFFF" fill-rule="nonzero">
                <path d="M37,0 C27.6894597,0.489872113 18.9619695,3.80242348 12,9.48932561 L22.3242664,18.9498011 C24.5960206,18.2106654 27.0402973,17.8067661 29.5853167,17.8067661 C32.1876338,17.8067661 34.6848004,18.2285524 37,19 L37,0 Z" id="Path"></path>
                <path d="M46.3463289,25 L65,8.72910015 C58.5012552,3.50670412 50.5056218,0.466870588 42,0 L42,21.2012143 C43.6297982,22.2660473 45.0936095,23.5464916 46.3463289,25 L46.3463289,25 Z" id="Path"></path>
                <path d="M0,38.7309275 L0,41 L9.37789203,41 L9.37789203,38.7309275 C9.37789203,31.5638492 13.2126928,25.2482642 19,21.6029756 L10.1111503,13 C3.57532134,20.0961698 0,29.1470508 0,38.7309275 Z" id="Path"></path>
                <path d="M66,41 L78,41 L78,38.7156455 C78,35.3938133 77.5892752,32.1362284 76.7961107,29 L66,41 Z" id="Path"></path>
                <path d="M39.5000774,40 C36.9612369,40 34.5739968,40.9883463 32.7789258,42.7825845 C29.0736914,46.4867188 29.0736914,52.5132812 32.7789258,56.2174153 C34.5739968,58.0116536 36.9612369,59 39.5000774,59 C42.038299,59 44.4255393,58.0116536 46.2206102,56.2174153 C49.9264633,52.5132812 49.9264633,46.4867187 46.2206102,42.7825845 C44.4255393,40.9883463 42.038299,40 39.5000774,40 Z" id="Path"></path>
                <path d="M68.4340835,12 L41,36.9945161 C44.0830405,37.304433 46.9423922,38.6534493 49.162884,40.8708179 C51.4372488,43.1419835 52.7260944,46.0294745 53.0341056,49 L78,21.5495376 L78,12 L68.4340835,12 Z" id="Path"></path>
            </g>
            <g id="icn_ranking" transform="translate(137.000000, 384.000000)" fill="#FFFFFF" fill-rule="nonzero">
                <path d="M20,25 L1,25 L1,61 L20,61 L20,25 Z M8.06900742,38.7785422 L8.06900742,35.2200344 L12.7292239,35.2200344 L12.7292239,50.5162802 L9.17695889,50.5162802 L9.17695889,38.7785422 L8.06900742,38.7785422 Z" id="XMLID_882_"></path>
                <polygon id="XMLID_883_" points="43 45 58 45 58 61 43 61"></polygon>
                <polygon id="XMLID_884_" points="24 35 40 35 40 61 24 61"></polygon>
                <polygon id="XMLID_885_" points="4.01065205 19 10.4999391 15.7544484 16.989348 19 15.7500304 12.12578 21 7.25733681 13.7447044 6.2544484 10.4999391 0 7.2552956 6.2544484 0 7.25733681 5.24996957 12.12578"></polygon>
            </g>
            <g id="icn_impressions" transform="translate(39.000000, 181.000000)" fill="#FFFFFF" fill-rule="nonzero">
                <path d="M36.8852459,14.6551724 C31.8579564,14.6551724 27.7724204,19.0998047 27.7724204,24.5689655 C27.7724204,30.0381263 31.8579564,34.4827586 36.8852459,34.4827586 C41.9125354,34.4827586 45.9980714,30.0381263 45.9980714,24.5689655 C45.9980714,19.0998047 41.912393,14.6551724 36.8852459,14.6551724 Z" id="Path"></path>
                <path d="M36.8852459,0 C20.1191965,0 5.80108737,10.3665625 0,25 C5.80108737,39.6332812 20.1191965,50 36.8852459,50 C53.6679566,50 67.9694044,39.6332813 73.7704918,25 C67.9694044,10.3665625 53.6679566,0 36.8852459,0 Z M36.8852459,41.3793103 C27.5433272,41.3793103 19.9614272,33.8482116 19.9614272,24.5688867 C19.9614272,15.2895619 27.5433272,7.75862069 36.8852459,7.75862069 C46.2271646,7.75862069 53.8090646,15.2897195 53.8090646,24.5690443 C53.8090646,33.8483692 46.2271646,41.3793103 36.8852459,41.3793103 Z" id="Shape"></path>
            </g>
            <polygon id="Triangle" fill="#FF5254" transform="translate(125.410611, 336.222172) rotate(-262.000000) translate(-125.410611, -336.222172) " points="125.407258 319.886819 144.365987 352.557526 106.455236 352.553631"></polygon>
            <path d="M439.952,273.71 C441.176,273.71 441.806,273.098 441.806,271.874 L441.806,266.942 L443.102,266.294 L443.102,264.386 C442.67,264.602 442.238,264.836 441.806,265.052 L441.806,262.28 L443.408,262.28 L443.408,260.462 L441.806,260.462 L441.806,257.276 L439.898,257.276 L439.898,260.462 L437.936,260.462 L437.936,262.28 L439.898,262.28 L439.898,265.844 C439.16,266.096 438.404,266.312 437.648,266.492 L438.116,268.4 C438.728,268.202 439.322,267.986 439.898,267.77 L439.898,271.388 C439.898,271.784 439.7,272 439.304,272 C438.872,272 438.422,271.964 437.954,271.892 L438.368,273.71 L439.952,273.71 Z M452.75,264.332 L452.75,257.762 L444.578,257.762 L444.578,264.332 L452.75,264.332 Z M450.914,260.336 L446.396,260.336 L446.396,259.274 L450.914,259.274 L450.914,260.336 Z M450.914,262.82 L446.396,262.82 L446.396,261.74 L450.914,261.74 L450.914,262.82 Z M443.786,273.872 C444.416,273.044 444.92,272.162 445.316,271.226 C445.82,272 446.36,272.54 446.972,272.846 C447.872,273.278 449.51,273.494 451.922,273.512 C452.48,273.53 453.11,273.548 453.794,273.548 L454.316,271.73 C453.632,271.802 452.786,271.856 451.796,271.856 C450.95,271.856 450.212,271.802 449.564,271.73 L449.564,269.984 L453.002,269.984 L453.002,268.328 L449.564,268.328 L449.564,266.834 L453.812,266.834 L453.812,265.16 L443.426,265.16 L443.426,266.834 L447.746,266.834 L447.746,271.298 C447.728,271.298 447.71,271.28 447.71,271.28 C447.026,270.992 446.432,270.362 445.892,269.39 C446.018,268.814 446.108,268.202 446.144,267.554 L444.488,267.356 C444.344,269.3 443.642,271.064 442.382,272.648 L443.786,273.872 Z M472.01,260.264 L472.01,258.536 L465.062,258.536 C464.918,258.014 464.756,257.528 464.612,257.096 L462.506,257.456 C462.686,257.78 462.848,258.14 463.01,258.536 L455.972,258.536 L455.972,260.264 L472.01,260.264 Z M469.274,264.818 L469.274,261.002 L458.744,261.002 L458.744,264.818 L469.274,264.818 Z M467.474,263.414 L460.544,263.414 L460.544,262.406 L467.474,262.406 L467.474,263.414 Z M458.51,273.872 L458.51,267.158 L469.49,267.158 L469.49,271.568 C469.49,272 469.166,272.216 468.536,272.216 L467.15,272.162 L467.6,273.818 L469.076,273.818 C470.534,273.818 471.272,273.188 471.272,271.946 L471.272,265.538 L456.728,265.538 L456.728,273.872 L458.51,273.872 Z M467.726,271.766 L467.726,267.878 L460.31,267.878 L460.31,271.766 L467.726,271.766 Z M466.07,270.38 L461.966,270.38 L461.966,269.264 L466.07,269.264 L466.07,270.38 Z M488.426,265.61 L489.992,264.53 C489.326,263.414 488.372,262.118 487.112,260.642 L485.6,261.578 C485.924,261.974 486.248,262.388 486.572,262.82 C484.88,263.018 483.17,263.18 481.478,263.288 C482,262.64 482.594,261.722 483.26,260.534 L489.812,260.534 L489.812,258.842 L485.258,258.842 C485.042,258.158 484.808,257.546 484.592,257.006 L482.684,257.33 C482.918,257.798 483.134,258.302 483.35,258.842 L478.616,258.842 L478.616,260.534 L481.316,260.534 C480.398,262.028 479.642,262.964 479.048,263.324 C478.958,263.378 478.832,263.432 478.67,263.486 L479.084,265.07 C482.144,264.872 485.006,264.62 487.634,264.332 C487.922,264.764 488.174,265.196 488.426,265.61 Z M477.014,260.984 L478.346,259.652 C477.59,258.878 476.654,258.104 475.574,257.348 L474.224,258.644 C475.43,259.472 476.366,260.264 477.014,260.984 Z M476.636,265.592 L477.968,264.26 C477.212,263.396 476.258,262.514 475.142,261.65 L473.81,262.946 C475.034,263.9 475.97,264.782 476.636,265.592 Z M484.448,273.512 L484.448,265.592 L482.54,265.592 L482.54,273.512 L484.448,273.512 Z M478.526,273.872 C479.552,273.008 480.29,271.982 480.722,270.83 C481.118,269.714 481.352,267.968 481.424,265.592 L479.588,265.592 C479.516,267.644 479.336,269.12 479.03,269.984 C478.706,270.902 478.13,271.694 477.338,272.36 L478.526,273.872 Z M488.534,273.71 C489.344,273.638 489.866,273.422 490.1,273.062 C490.352,272.684 490.478,271.622 490.478,269.876 L488.84,269.264 C488.84,270.092 488.822,270.758 488.786,271.244 C488.768,271.712 488.66,271.964 488.444,272 L487.85,272 C487.706,271.964 487.634,271.856 487.634,271.676 L487.634,265.592 L485.852,265.592 L485.852,272.054 C485.852,273.152 486.5,273.71 487.796,273.71 L488.534,273.71 Z M475.844,273.638 C476.672,271.622 477.428,269.462 478.112,267.176 L476.456,266.528 C475.808,268.688 475.016,270.812 474.116,272.864 L475.844,273.638 Z M506.102,262.1 L506.102,257.474 L493.952,257.474 L493.952,262.1 L506.102,262.1 Z M504.302,259.274 L495.752,259.274 L495.752,258.536 L504.302,258.536 L504.302,259.274 Z M504.302,261.056 L495.752,261.056 L495.752,260.318 L504.302,260.318 L504.302,261.056 Z M508.118,264.116 L508.118,262.784 L491.882,262.784 L491.882,264.116 L508.118,264.116 Z M508.118,273.566 L508.118,272.162 L500.918,272.162 L500.918,271.406 L506.822,271.406 L506.822,270.2 L500.918,270.2 L500.918,269.498 L506.48,269.498 L506.48,264.782 L493.556,264.782 L493.556,269.498 L499.046,269.498 L499.046,270.2 L493.214,270.2 L493.214,271.406 L499.046,271.406 L499.046,272.162 L491.882,272.162 L491.882,273.566 L508.118,273.566 Z M499.046,266.636 L495.338,266.636 L495.338,265.88 L499.046,265.88 L499.046,266.636 Z M504.698,266.636 L500.918,266.636 L500.918,265.88 L504.698,265.88 L504.698,266.636 Z M504.698,268.418 L500.918,268.418 L500.918,267.644 L504.698,267.644 L504.698,268.418 Z M499.046,268.418 L495.338,268.418 L495.338,267.644 L499.046,267.644 L499.046,268.418 Z" id="提高流量" fill="#FFFFFF" fill-rule="nonzero"></path>
            <path d="M364.952,482.71 C366.176,482.71 366.806,482.098 366.806,480.874 L366.806,475.942 L368.102,475.294 L368.102,473.386 C367.67,473.602 367.238,473.836 366.806,474.052 L366.806,471.28 L368.408,471.28 L368.408,469.462 L366.806,469.462 L366.806,466.276 L364.898,466.276 L364.898,469.462 L362.936,469.462 L362.936,471.28 L364.898,471.28 L364.898,474.844 C364.16,475.096 363.404,475.312 362.648,475.492 L363.116,477.4 C363.728,477.202 364.322,476.986 364.898,476.77 L364.898,480.388 C364.898,480.784 364.7,481 364.304,481 C363.872,481 363.422,480.964 362.954,480.892 L363.368,482.71 L364.952,482.71 Z M377.75,473.332 L377.75,466.762 L369.578,466.762 L369.578,473.332 L377.75,473.332 Z M375.914,469.336 L371.396,469.336 L371.396,468.274 L375.914,468.274 L375.914,469.336 Z M375.914,471.82 L371.396,471.82 L371.396,470.74 L375.914,470.74 L375.914,471.82 Z M368.786,482.872 C369.416,482.044 369.92,481.162 370.316,480.226 C370.82,481 371.36,481.54 371.972,481.846 C372.872,482.278 374.51,482.494 376.922,482.512 C377.48,482.53 378.11,482.548 378.794,482.548 L379.316,480.73 C378.632,480.802 377.786,480.856 376.796,480.856 C375.95,480.856 375.212,480.802 374.564,480.73 L374.564,478.984 L378.002,478.984 L378.002,477.328 L374.564,477.328 L374.564,475.834 L378.812,475.834 L378.812,474.16 L368.426,474.16 L368.426,475.834 L372.746,475.834 L372.746,480.298 C372.728,480.298 372.71,480.28 372.71,480.28 C372.026,479.992 371.432,479.362 370.892,478.39 C371.018,477.814 371.108,477.202 371.144,476.554 L369.488,476.356 C369.344,478.3 368.642,480.064 367.382,481.648 L368.786,482.872 Z M397.01,469.264 L397.01,467.536 L390.062,467.536 C389.918,467.014 389.756,466.528 389.612,466.096 L387.506,466.456 C387.686,466.78 387.848,467.14 388.01,467.536 L380.972,467.536 L380.972,469.264 L397.01,469.264 Z M394.274,473.818 L394.274,470.002 L383.744,470.002 L383.744,473.818 L394.274,473.818 Z M392.474,472.414 L385.544,472.414 L385.544,471.406 L392.474,471.406 L392.474,472.414 Z M383.51,482.872 L383.51,476.158 L394.49,476.158 L394.49,480.568 C394.49,481 394.166,481.216 393.536,481.216 L392.15,481.162 L392.6,482.818 L394.076,482.818 C395.534,482.818 396.272,482.188 396.272,480.946 L396.272,474.538 L381.728,474.538 L381.728,482.872 L383.51,482.872 Z M392.726,480.766 L392.726,476.878 L385.31,476.878 L385.31,480.766 L392.726,480.766 Z M391.07,479.38 L386.966,479.38 L386.966,478.264 L391.07,478.264 L391.07,479.38 Z M413.426,474.61 L414.992,473.53 C414.326,472.414 413.372,471.118 412.112,469.642 L410.6,470.578 C410.924,470.974 411.248,471.388 411.572,471.82 C409.88,472.018 408.17,472.18 406.478,472.288 C407,471.64 407.594,470.722 408.26,469.534 L414.812,469.534 L414.812,467.842 L410.258,467.842 C410.042,467.158 409.808,466.546 409.592,466.006 L407.684,466.33 C407.918,466.798 408.134,467.302 408.35,467.842 L403.616,467.842 L403.616,469.534 L406.316,469.534 C405.398,471.028 404.642,471.964 404.048,472.324 C403.958,472.378 403.832,472.432 403.67,472.486 L404.084,474.07 C407.144,473.872 410.006,473.62 412.634,473.332 C412.922,473.764 413.174,474.196 413.426,474.61 Z M402.014,469.984 L403.346,468.652 C402.59,467.878 401.654,467.104 400.574,466.348 L399.224,467.644 C400.43,468.472 401.366,469.264 402.014,469.984 Z M401.636,474.592 L402.968,473.26 C402.212,472.396 401.258,471.514 400.142,470.65 L398.81,471.946 C400.034,472.9 400.97,473.782 401.636,474.592 Z M409.448,482.512 L409.448,474.592 L407.54,474.592 L407.54,482.512 L409.448,482.512 Z M403.526,482.872 C404.552,482.008 405.29,480.982 405.722,479.83 C406.118,478.714 406.352,476.968 406.424,474.592 L404.588,474.592 C404.516,476.644 404.336,478.12 404.03,478.984 C403.706,479.902 403.13,480.694 402.338,481.36 L403.526,482.872 Z M413.534,482.71 C414.344,482.638 414.866,482.422 415.1,482.062 C415.352,481.684 415.478,480.622 415.478,478.876 L413.84,478.264 C413.84,479.092 413.822,479.758 413.786,480.244 C413.768,480.712 413.66,480.964 413.444,481 L412.85,481 C412.706,480.964 412.634,480.856 412.634,480.676 L412.634,474.592 L410.852,474.592 L410.852,481.054 C410.852,482.152 411.5,482.71 412.796,482.71 L413.534,482.71 Z M400.844,482.638 C401.672,480.622 402.428,478.462 403.112,476.176 L401.456,475.528 C400.808,477.688 400.016,479.812 399.116,481.864 L400.844,482.638 Z M431.102,471.1 L431.102,466.474 L418.952,466.474 L418.952,471.1 L431.102,471.1 Z M429.302,468.274 L420.752,468.274 L420.752,467.536 L429.302,467.536 L429.302,468.274 Z M429.302,470.056 L420.752,470.056 L420.752,469.318 L429.302,469.318 L429.302,470.056 Z M433.118,473.116 L433.118,471.784 L416.882,471.784 L416.882,473.116 L433.118,473.116 Z M433.118,482.566 L433.118,481.162 L425.918,481.162 L425.918,480.406 L431.822,480.406 L431.822,479.2 L425.918,479.2 L425.918,478.498 L431.48,478.498 L431.48,473.782 L418.556,473.782 L418.556,478.498 L424.046,478.498 L424.046,479.2 L418.214,479.2 L418.214,480.406 L424.046,480.406 L424.046,481.162 L416.882,481.162 L416.882,482.566 L433.118,482.566 Z M424.046,475.636 L420.338,475.636 L420.338,474.88 L424.046,474.88 L424.046,475.636 Z M429.698,475.636 L425.918,475.636 L425.918,474.88 L429.698,474.88 L429.698,475.636 Z M429.698,477.418 L425.918,477.418 L425.918,476.644 L429.698,476.644 L429.698,477.418 Z M424.046,477.418 L420.338,477.418 L420.338,476.644 L424.046,476.644 L424.046,477.418 Z" id="提高流量" fill="#FFFFFF" fill-rule="nonzero"></path>
        </g>
    </g>
</svg>