<?xml version="1.0" encoding="UTF-8"?>
<svg width="545px" height="158px" viewBox="0 0 545 158" version="1.1" xmlns="http://www.w3.org/2000/svg" xmlns:xlink="http://www.w3.org/1999/xlink">
    <!-- Generator: Sketch 63.1 (92452) - https://sketch.com -->
    <title>img_hubspot_logo</title>
    <desc>Created with Sketch.</desc>
    <defs>
        <polygon id="path-1" points="76.7596734 105.295304 0.041665865 105.295304 0.041665865 0.189730219 76.7596734 0.189730219"></polygon>
        <polygon id="path-3" points="0.701359428 0.039734077 146.060466 0.039734077 146.060466 154.74337 0.701359428 154.74337"></polygon>
    </defs>
    <g id="Page-1" stroke="none" stroke-width="1" fill="none" fill-rule="evenodd">
        <g id="Hubspot" transform="translate(-101.000000, -1990.000000)">
            <g id="adwords" transform="translate(0.000000, 1990.000000)">
                <g id="Group-6">
                    <g id="img_hubspot_logo" transform="translate(101.000000, 0.000000)">
                        <g id="Marketing/Logos/HubSpot-Primary">
                            <polygon id="Fill-1" fill="#33475B" fill-rule="nonzero" points="59.0252727 26.7815029 59.0252727 71.0432781 19.0045248 71.0432781 19.0045248 26.7815029 0.000586843169 26.7815029 0.000586843169 132.43044 19.0045248 132.43044 19.0045248 89.612999 59.0252727 89.612999 59.0252727 132.43044 78.0272546 132.43044 78.0272546 26.7815029"></polygon>
                            <path d="M138.83614,98.283372 C138.83614,107.082483 131.780328,114.242564 123.118523,114.242564 C114.452806,114.242564 107.400907,107.082483 107.400907,98.283372 L107.400907,53.0322182 L89.4024269,53.0322182 L89.4024269,98.283372 C89.4024269,117.161032 104.529288,132.518253 123.118523,132.518253 C141.703846,132.518253 156.826795,117.161032 156.826795,98.283372 L156.826795,53.0322182 L138.83614,53.0322182 L138.83614,98.283372 Z" id="Fill-2" fill="#33475B" fill-rule="nonzero"></path>
                            <path d="M272.373476,57.6918335 C272.373476,48.4139265 278.419917,45.4736047 285.041464,45.4736047 C290.37,45.4736047 297.423854,49.5920418 302.024706,54.5985356 L313.826122,40.4710844 C307.930304,32.3772529 295.982177,26.7826949 286.191677,26.7826949 C266.612632,26.7826949 252.504923,38.4108726 252.504923,57.6918335 C252.504923,93.4544895 295.551825,82.1183574 295.551825,102.140359 C295.551825,108.315034 289.650139,113.764563 282.885794,113.764563 C272.230678,113.764563 268.772215,108.466024 263.8799,102.873453 L250.777647,116.704885 C259.130382,127.154946 269.494032,132.45746 281.874467,132.45746 C300.446097,132.45746 315.418422,120.682266 315.418422,102.281415 C315.418422,62.545351 272.373476,74.9105957 272.373476,57.6918335" id="Fill-4" fill="#33475B" fill-rule="nonzero"></path>
                            <path d="M538.678407,115.554583 C528.031115,115.554583 525.008873,110.877882 525.008873,103.711842 L525.008873,71.9841809 L541.559807,71.9841809 L541.559807,55.9038 L525.008873,55.9038 L525.008873,34.6997097 L506.728709,43.0339324 L506.728709,107.659422 C506.728709,124.182838 517.953063,132.519047 533.351826,132.519047 C535.656164,132.519047 538.825118,132.368058 540.554349,131.934956 L545.01827,115.266511 C543.003441,115.407567 540.701059,115.554583 538.678407,115.554583" id="Fill-6" fill="#33475B" fill-rule="nonzero"></path>
                            <path d="M207.32015,114.06535 C196.011682,114.06535 186.843236,104.753669 186.843236,93.2685341 C186.843236,81.7833991 196.011682,72.4717182 207.32015,72.4717182 C218.628619,72.4717182 227.797065,81.7833991 227.797065,93.2685341 C227.797065,104.753669 218.628619,114.06535 207.32015,114.06535 M207.433606,53.5622709 C198.505766,53.5622709 192.277403,56.1946534 186.258349,62.1925123 L186.258349,27.4132747 L168.205097,27.4132747 L168.205097,91.8698946 C168.205097,115.994439 185.378085,132.517855 204.675444,132.517855 C226.126518,132.517855 244.923104,115.700407 244.923104,93.0420498 C244.923104,70.6697778 227.589713,53.5622709 207.433606,53.5622709" id="Fill-8" fill="#33475B" fill-rule="nonzero"></path>
                            <g id="Group-12" transform="translate(326.676030, 52.423890)">
                                <g id="Fill-10-Clipped">
                                    <mask id="mask-2" fill="white">
                                        <use xlink:href="#path-1"></use>
                                    </mask>
                                    <g id="path-1"></g>
                                    <path d="M39.1586753,60.2358675 C27.8482513,60.2358675 18.679805,50.9241866 18.679805,39.4390516 C18.679805,27.9539166 27.8482513,18.6422357 39.1586753,18.6422357 C50.4651871,18.6422357 59.6336335,27.9539166 59.6336335,39.4390516 C59.6336335,50.9241866 50.4651871,60.2358675 39.1586753,60.2358675 M76.7596734,39.6655358 C76.7596734,17.0071784 57.9630866,0.189730219 36.5120127,0.189730219 C17.2146531,0.189730219 0.041665865,16.7131461 0.041665865,40.8376911 L0.041665865,105.296298 L18.0949179,105.296298 L18.0949179,70.5150732 C24.1139727,76.5149189 30.3423348,79.1473015 39.2701756,79.1473015 C59.4262823,79.1473015 76.7596734,62.0378079 76.7596734,39.6655358" id="Fill-10" fill="#33475B" fill-rule="nonzero" mask="url(#mask-2)"></path>
                                </g>
                            </g>
                            <g id="Group-15" transform="translate(349.370338, 0.769589)">
                                <g id="Fill-13-Clipped">
                                    <mask id="mask-4" fill="white">
                                        <use xlink:href="#path-3"></use>
                                    </mask>
                                    <g id="path-3"></g>
                                    <path d="M106.297929,111.520641 C95.0383652,111.520641 85.9109977,102.250681 85.9109977,90.8171999 C85.9109977,79.3817325 95.0383652,70.1117723 106.297929,70.1117723 C117.557494,70.1117723 126.684862,79.3817325 126.684862,90.8171999 C126.684862,102.250681 117.557494,111.520641 106.297929,111.520641 M112.401098,50.9559737 L112.401098,32.5372424 C117.134966,30.2664398 120.45063,25.4029888 120.45063,19.7587632 L120.45063,19.3336085 C120.45063,11.5437427 114.175321,5.17039678 106.505281,5.17039678 L106.088622,5.17039678 C98.4185817,5.17039678 92.1432722,11.5437427 92.1432722,19.3336085 L92.1432722,19.7587632 C92.1432722,25.4029888 95.458936,30.2684266 100.192804,32.539229 L100.192804,50.9559737 C93.1448179,52.0625678 86.7051921,55.0148097 81.3942615,59.3597311 L31.6006185,20.0210081 C31.9292508,18.7395841 32.1600758,17.4204128 32.1620319,16.0336934 C32.1698565,7.21272834 25.1394753,0.0506609483 16.4502841,0.0387303759 C7.76500523,0.0288072059 0.711150338,7.17100755 0.701359426,15.9939593 C0.6915889,24.8169112 7.72197006,31.9789785 16.4111612,31.9889121 C19.2417014,31.9928855 21.8629342,31.1763502 24.1594472,29.8492321 L73.1393342,68.5482364 C68.9747039,74.9335026 66.5334362,82.5823124 66.5334362,90.8171999 C66.5334362,99.437508 69.2153095,107.412137 73.7457389,113.970247 L58.8516592,129.098996 C57.6740606,128.739403 56.4534268,128.489079 55.1584595,128.489079 C48.0204904,128.489079 42.2322606,134.365748 42.2322606,141.615231 C42.2322606,148.8667 48.0204904,154.74337 55.1584595,154.74337 C62.2983848,154.74337 68.0846584,148.8667 68.0846584,141.615231 C68.0846584,140.304006 67.8381842,139.062316 67.4841223,137.866321 L82.217798,122.902467 C88.905854,128.085777 97.2351147,131.200929 106.297929,131.200929 C128.259557,131.200929 146.060466,113.119937 146.060466,90.8171999 C146.060466,70.6263286 131.455895,53.9459631 112.401098,50.9559737" id="Fill-13" fill="#FF7A59" fill-rule="nonzero" mask="url(#mask-4)"></path>
                                </g>
                            </g>
                        </g>
                    </g>
                </g>
            </g>
        </g>
    </g>
</svg>