<?xml version="1.0" encoding="utf-8"?>
<!-- Generator: Adobe Illustrator 24.2.0, SVG Export Plug-In . SVG Version: 6.00 Build 0)  -->
<svg version="1.1" id="Layer_1" xmlns="http://www.w3.org/2000/svg" xmlns:xlink="http://www.w3.org/1999/xlink" x="0px" y="0px"
	 viewBox="0 0 451 545" style="enable-background:new 0 0 451 545;" xml:space="preserve">
<style type="text/css">
	.st0{fill-rule:evenodd;clip-rule:evenodd;fill:url(#Oval-2_1_);}
	.st1{opacity:5.000000e-02;fill-rule:evenodd;clip-rule:evenodd;enable-background:new    ;}
	.st2{enable-background:new    ;}
	.st3{fill:#FFFFFF;}
</style>
<desc>Created with Sketch.</desc>
<g id="Page-1">
	<g id="SEO-Experts" transform="translate(-834.000000, -4130.000000)">
		<g id="img_no_1_lge" transform="translate(834.000000, 4130.000000)">
			
				<linearGradient id="Oval-2_1_" gradientUnits="userSpaceOnUse" x1="176.3292" y1="322.584" x2="175.874" y2="323.4354" gradientTransform="matrix(451 0 0 -451 -79200 145896)">
				<stop  offset="0" style="stop-color:#DA3E3F"/>
				<stop  offset="1" style="stop-color:#FF5254"/>
			</linearGradient>
			<circle id="Oval-2" class="st0" cx="225.5" cy="225.5" r="225.5"/>
			<ellipse id="Oval-4" class="st1" cx="219" cy="527.5" rx="174" ry="17.5"/>
			<g class="st2">
				<path class="st3" d="M267.7,281h-27.4V177.6c-10,9.4-21.8,16.3-35.4,20.8v-24.9c7.2-2.3,14.9-6.8,23.3-13.3s14.2-14.2,17.3-22.9
					h22.3V281z"/>
			</g>
			<g class="st2">
				<path class="st3" d="M117.8,262.8h-8.6v-14h11.4l3.8-18.7h-15.2v-14h18.1l5-24.8h14.2l-5,24.8h14l4.9-24.8h14.7l-5.1,24.8h8.8
					v14h-11.6l-3.8,18.7h15.4v14h-18.3l-5,24.8h-14.2l4.9-24.8h-14.1l-5,24.8h-14.3L117.8,262.8z M138.7,230.1l-3.7,18.7H149
					l3.7-18.7H138.7z"/>
			</g>
		</g>
	</g>
</g>
</svg>
