<?xml version="1.0" encoding="UTF-8"?>
<svg width="404px" height="403px" viewBox="0 0 404 403" version="1.1" xmlns="http://www.w3.org/2000/svg" xmlns:xlink="http://www.w3.org/1999/xlink">
    <!-- Generator: Sketch 59.1 (86144) - https://sketch.com -->
    <title>img_question_mark</title>
    <desc>Created with Sketch.</desc>
    <defs>
        <linearGradient x1="46.7060004%" y1="-48.1088575%" x2="50.824924%" y2="29.8358714%" id="linearGradient-1">
            <stop stop-color="#80C3F3" offset="0%"></stop>
            <stop stop-color="#4A90E2" offset="100%"></stop>
        </linearGradient>
    </defs>
    <g id="Page-1" stroke="none" stroke-width="1" fill="none" fill-rule="evenodd">
        <g id="Social-Media---Weibo" transform="translate(-831.000000, -6185.000000)" fill-rule="nonzero">
            <g id="img_question_mark" transform="translate(831.000000, 6185.000000)">
                <path d="M202,0 C90.496,0 0,90.272 0,201.5 C0,312.728 90.496,403 202,403 C313.504,403 404,312.728 404,201.5 C404,90.272 313.504,0 202,0 Z" id="Path" fill="url(#linearGradient-1)"></path>
                <g id="Group" transform="translate(122.000000, 74.000000)" fill="#FFFFFF">
                    <path d="M82.4618404,0.603529412 C49.7579961,0.603529412 23.0732643,18.9105882 0.200637081,48.0811765 L38.5223196,83.6894118 C49.7579961,69.2047059 61.1943098,56.9329412 75.2389055,56.9329412 C86.6752191,56.9329412 99.5159923,65.5835294 99.5159923,79.4647059 C99.5159923,99.3811765 47.3503512,118.090588 47.3503512,151.284706 L47.3503512,180.254118 L108.344024,180.254118 L108.344024,160.337647 C108.344024,138.610588 160.509665,127.143529 160.509665,80.2694118 C160.309028,31.3835294 126.000087,0.603529412 82.4618404,0.603529412 Z" id="Path"></path>
                    <path d="M77.0446392,194.135294 C57.3822052,194.135294 41.5318758,210.028235 41.5318758,229.743529 C41.5318758,249.458824 57.3822052,265.351765 77.0446392,265.351765 C96.7070732,265.351765 112.557403,249.458824 112.557403,229.743529 C112.557403,210.028235 96.5064361,194.135294 77.0446392,194.135294 Z" id="Path"></path>
                </g>
            </g>
        </g>
    </g>
</svg>