<?xml version="1.0" encoding="UTF-8"?>
<svg width="481px" height="508px" viewBox="0 0 481 508" version="1.1" xmlns="http://www.w3.org/2000/svg" xmlns:xlink="http://www.w3.org/1999/xlink">
    <!-- Generator: Sketch 63.1 (92452) - https://sketch.com -->
    <title>img_generate_new_leads</title>
    <desc>Created with Sketch.</desc>
    <defs>
        <linearGradient x1="85.5443525%" y1="34.9610332%" x2="50%" y2="66.0900143%" id="linearGradient-1">
            <stop stop-color="#DA3E3F" offset="0%"></stop>
            <stop stop-color="#FF5254" offset="100%"></stop>
        </linearGradient>
        <linearGradient x1="36.2950511%" y1="94.1440144%" x2="69.1588158%" y2="5.56280504%" id="linearGradient-2">
            <stop stop-color="#427FDF" offset="0%"></stop>
            <stop stop-color="#396BB1" offset="100%"></stop>
        </linearGradient>
        <filter x="-4.7%" y="-99.0%" width="109.5%" height="298.1%" filterUnits="objectBoundingBox" id="filter-3">
            <feGaussianBlur stdDeviation="6.60267857" in="SourceGraphic"></feGaussianBlur>
        </filter>
    </defs>
    <g id="Page-1" stroke="none" stroke-width="1" fill="none" fill-rule="evenodd">
        <g id="Hubspot" transform="translate(-141.000000, -2968.000000)">
            <g id="img_generate_new_leads" transform="translate(155.000000, 2968.000000)">
                <g id="Group" transform="translate(12.000000, 0.000000)">
                    <path d="M55.3902406,378.456644 L108.046833,330.053878 C108.113366,330.130286 108.232481,329.362978 108.299014,329.439386 C140.20267,366.035524 186.146939,358.965106 222.636007,326.971735 L305.937493,253.937657 L431.981078,221.479381 L443.451585,234.637676 L272.676349,384.369106 C204.624875,444.035037 112.35109,450.238064 52.8544741,381.994005 C52.7900873,381.917598 52.3404528,381.395657 52.2739198,381.320325 L52.2814316,381.313868 C52.4735189,381.537711 52.664533,381.76801 52.8587665,381.990777 L55.3902406,378.456644 Z" id="Fill-1" fill="#AD3551"></path>
                    <polygon id="Fill-3" fill="#CCCACD" points="367.114926 200.298476 405.006553 190.540869 431.980327 221.479597 305.936742 253.937872"></polygon>
                    <polygon id="Fill-5" fill="#CCCACD" points="200.352704 11.041259 238.904296 0.0116226044 265.967138 31.0536619 140.751996 63.2977799"></polygon>
                    <path d="M265.966709,31.0533391 L277.694763,44.5065037 L106.918454,194.236857 C70.5034304,226.165658 66.717487,281.795963 98.4075932,318.394253 L55.3907771,378.456214 L52.280895,381.314514 C-6.57077948,313.075835 -29.2563927,212.357359 56.878112,136.836258 L140.751567,63.297457 L265.966709,31.0533391 Z" id="Fill-7" fill="#2A3E61"></path>
                    <path d="M52.8583373,381.990992 C52.6641038,381.768226 52.4741627,381.537926 52.2810024,381.314083 L55.3898113,378.456859 L52.8583373,381.990992 Z" id="Fill-9" fill="#2A3E61"></path>
                    <polygon id="Fill-11" fill="#F1F2F2" points="405.006124 190.540439 454.694485 247.533171 393.181489 301.465284 343.368647 244.326193"></polygon>
                    <path d="M109.840219,331.520478 C141.742802,368.116616 197.386941,371.859525 233.878156,339.866154 L343.367896,244.326193 L393.181811,301.465284 L283.916351,397.263525 C215.86595,456.92838 112.09805,449.94836 52.6035802,381.703225 C52.4265165,381.500906 52.260184,381.295358 52.0852665,381.093038 C68.565066,366.643343 91.2538986,346.750395 109.327271,330.905987 C109.502189,331.106154 109.662083,331.318159 109.840219,331.520478" id="Fill-14" fill="url(#linearGradient-1)"></path>
                    <polygon id="Fill-17" fill="#F1F2F2" points="238.894638 0 288.936053 57.4005995 227.425204 111.331636 177.383789 53.932113"></polygon>
                    <path d="M227.425741,111.331852 L118.159208,207.131169 C81.8718844,238.946972 77.9925802,294.301778 109.327486,330.905449 C91.2530401,346.750933 68.5652807,366.642805 52.084408,381.093576 C-6.84131132,312.841984 0.268063679,209.220009 68.1199387,149.731645 L177.383252,53.9323283 L227.425741,111.331852 Z" id="Fill-19" fill="url(#linearGradient-2)"></path>
                </g>
                <ellipse id="Oval-4" fill="#000000" opacity="0.2" filter="url(#filter-3)" cx="209" cy="482" rx="209" ry="10"></ellipse>
            </g>
        </g>
    </g>
</svg>