<?xml version="1.0" encoding="UTF-8"?>
<svg width="454px" height="685px" viewBox="0 0 454 685" version="1.1" xmlns="http://www.w3.org/2000/svg" xmlns:xlink="http://www.w3.org/1999/xlink">
    <!-- Generator: Sketch 59.1 (86144) - https://sketch.com -->
    <title>img_best_agency</title>
    <desc>Created with Sketch.</desc>
    <g id="Page-1" stroke="none" stroke-width="1" fill="none" fill-rule="evenodd">
        <g id="how-to-pick-the-best-seo-agency" transform="translate(-806.000000, -1249.000000)">
            <g id="img_best_agency" transform="translate(806.000000, 1249.000000)">
                <path d="M32.181362,90.1551073 L32.181362,106.902424 C32.181362,205.571443 119.576023,285.844893 226.999354,285.844893 C334.421392,285.844893 421.818638,205.571443 421.818638,106.902424 L421.818638,90.1551073 L32.181362,90.1551073 Z M226.999354,318 C101.8318,318 0,223.301769 0,106.902424 L0,58 L454,58 L454,106.902424 C454,223.301769 352.1682,318 226.999354,318 L226.999354,318 Z" id="Fill-1" fill="#F4CD0C"></path>
                <polygon id="Fill-4" fill="#F4CD0C" points="49 36 406 36 406 0 49 0"></polygon>
                <polygon id="Fill-6" fill="#427FE0" points="54 685 405 685 405 661 54 661"></polygon>
                <path d="M338.94286,509 L115.05714,509 C100.265024,509 87.6009982,518.690452 85,532 L369,532 C366.400308,518.690452 353.734976,509 338.94286,509" id="Fill-7" fill="#427FE0"></path>
                <path d="M383.5564,528 L72.4435999,528 C68.884905,528 66,530.878824 66,534.430017 L66,659 L390,659 L390,534.430017 C390,530.878824 387.115095,528 383.5564,528" id="Fill-8" fill="#427FE0"></path>
                <path d="M90,630.366721 L90,562.633279 C90,558.969937 93.0484106,556 96.8085477,556 L359.192744,556 C362.952881,556 366,558.969937 366,562.633279 L366,630.366721 C366,634.030063 362.952881,637 359.192744,637 L96.8085477,637 C93.0484106,637 90,634.030063 90,630.366721" id="Fill-9" fill="#E3E3E3"></path>
                <path d="M243.283477,305 L227.500645,305 L211.716523,305 C208.47178,368.012499 189.927629,464.38842 120,489 L227.500645,489 L335,489 C265.072371,464.38842 246.52822,368.012499 243.283477,305" id="Fill-10" fill="#F4CD0C"></path>
                <path d="M249,350.770527 C246.912675,350.932572 244.791537,351 242.6717,351 C238.591988,351 234.529182,350.743339 230.514496,350.214791 C230.514496,350.214791 230.483284,350.214791 230.483284,350.18869 C222.875278,349.200109 215.349204,347.196846 208,344.422512 C208.080632,343.948341 208.161264,343.474171 208.241896,343 C210.848125,343.568787 213.454355,344.029908 216.093098,344.368135 C216.093098,344.395324 216.108704,344.395324 216.108704,344.395324 C220.12339,344.922784 224.186196,345.179445 228.264607,345.179445 C234.772378,345.179445 241.215124,344.502991 247.574637,343.163132 C248.01291,345.680805 248.482395,348.211528 249,350.770527" id="Fill-11" fill="#F4CD0C"></path>
                <path d="M248.571125,350.29688 C248.267414,348.450516 247.979146,346.621067 247.689591,344.805931 C247.514571,343.591936 247.338265,342.393556 247.160671,341.195176 C246.521077,341.356521 245.880196,341.519168 245.239315,341.649285 C239.569189,342.960867 233.836005,343.60755 228.052632,343.60755 C224.016882,343.60755 219.996575,343.300474 216.023884,342.669405 C216.023884,342.669405 216.008441,342.669405 216.008441,342.636875 C213.397301,342.232211 210.818333,341.680513 208.239365,341 C208.159577,341.567311 208.079788,342.134623 208,342.701934 C215.272328,346.021226 222.719677,348.417986 230.2481,349.600752 C230.2481,349.631981 230.278986,349.631981 230.278986,349.631981 C234.251677,350.264351 238.271984,350.571427 242.309021,350.571427 C243.557323,350.571427 244.806913,350.540199 246.056502,350.475141 C251.582494,403.431573 268.433293,461.246586 311.069909,488 L335,488 C281.294672,468.874061 257.957846,406.865368 248.571125,350.29688" id="Fill-12" fill="#BE8217"></path>
                <path d="M66,18 C66.243091,199.78493 139.348816,347 229.499353,347 C319.649891,347 392.755616,199.78493 393,18 L66,18 Z" id="Fill-13" fill="#F4CD0C"></path>
                <path d="M66,18 C66.243091,199.78493 139.348816,347 229.499353,347 C319.649891,347 392.755616,199.78493 393,18 L66,18 Z" id="Fill-14" fill="#F4CD0C"></path>
                <path d="M215,346.271117 C214.680541,399.807124 197.453964,460.651828 156.215817,492.121735 L127,493 C182.159411,471.26993 206.603714,404.901064 213.773076,346 C214.092534,346.048368 214.968181,346.25457 215,346.271117" id="Fill-15" fill="#FAED1D"></path>
                <path d="M102,561.499411 C102,563.432924 100.43266,565 98.5,565 C96.5661616,565 95,563.432924 95,561.499411 C95,559.565898 96.5661616,558 98.5,558 C100.43266,558 102,559.565898 102,561.499411" id="Fill-16" fill="#427FE0"></path>
                <path d="M102,628.499411 C102,630.432924 100.43266,632 98.5,632 C96.5661616,632 95,630.432924 95,628.499411 C95,626.567076 96.5661616,625 98.5,625 C100.43266,625 102,626.567076 102,628.499411" id="Fill-17" fill="#427FE0"></path>
                <path d="M353,561.499411 C353,563.432924 354.56734,565 356.501178,565 C358.433838,565 360,563.432924 360,561.499411 C360,559.565898 358.433838,558 356.501178,558 C354.56734,558 353,559.565898 353,561.499411" id="Fill-18" fill="#427FE0"></path>
                <path d="M353,628.499411 C353,630.432924 354.56734,632 356.501178,632 C358.433838,632 360,630.432924 360,628.499411 C360,626.567076 358.433838,625 356.501178,625 C354.56734,625 353,626.567076 353,628.499411" id="Fill-19" fill="#427FE0"></path>
                <polygon id="Fill-20" fill="#E39C22" points="120 508 335 508 335 485 120 485"></polygon>
                <polygon id="Fill-21" fill="#BE8217" points="313 508 337 508 337 485 313 485"></polygon>
                <polygon id="Fill-22" fill="#FAED1D" points="141 508 164 508 164 485 141 485"></polygon>
                <path d="M202.607014,335.90085 C193.26194,329.479335 185.029466,321.73087 177.782108,313.311864 C169.633337,303.843373 162.693747,293.510374 156.667159,282.77916 C149.893686,270.722281 144.258569,258.133594 139.463053,245.302125 C134.149869,231.085901 129.865583,216.551106 126.370678,201.87244 C122.565428,185.888662 119.698936,169.722475 117.592205,153.483069 C115.337386,136.097836 113.956937,118.622683 113.327236,101.132115 C112.665341,82.6935428 112.790251,64.2151488 113.77923,45.7996983 C113.980116,42.0539216 114.188729,38.3042913 114.496497,34.5649375 C114.496497,34.5649375 111.104609,34.4069366 109.175586,34.318302 L109.175586,0 L81,0 L81,39.8907228 L91.8877779,39.8907228 C91.8749006,40.2837981 91.8530091,40.6794426 91.8414195,41.0725179 C91.8285422,41.3551211 91.8143772,41.6518544 91.8182404,41.9344576 C91.7319623,44.4457722 91.6637125,46.9442411 91.6276559,49.4427101 C91.5825853,51.7767554 91.5542552,54.0979552 91.5413779,56.4191549 C91.5259251,56.7608478 91.5259251,57.1025407 91.5426656,57.4313881 C91.021134,203.153146 140.280764,333.212266 217,344 C212.198046,341.680085 206.958262,338.891305 202.607014,335.90085" id="Fill-23" fill="#FAED1D"></path>
                <path d="M362.130747,0 L362.130747,35.9611737 L353.826529,35.9611737 C347.801136,188.310305 295.581501,312.74906 227,345.984535 C227.404894,346 227.824063,346 228.24453,346 C228.954392,346 229.648681,345.984535 230.359841,345.967781 C316.999351,343.787223 387.454785,207.381171 392.105874,35.9611737 L407,35.9611737 L407,0 L362.130747,0 Z" id="Fill-24" fill="#BE8217"></path>
                <path d="M229.622477,106.83793 L242.003947,141.946093 C242.385076,143.027947 243.409686,143.759903 244.570041,143.783058 L282.277009,144.540742 C284.90706,144.593484 285.993016,147.889216 283.896807,149.456039 L253.843744,171.911267 C252.918332,172.603345 252.528066,173.788111 252.863512,174.884115 L263.784423,210.460524 C264.546681,212.943257 261.702571,214.979613 259.542405,213.498978 L228.586119,192.268393 C227.633297,191.61362 226.368523,191.61362 225.414395,192.268393 L194.458109,213.498978 C192.297943,214.979613 189.453833,212.943257 190.216091,210.460524 L201.137002,174.884115 C201.473753,173.788111 201.082182,172.603345 200.158075,171.911267 L170.103707,149.456039 C168.006192,147.889216 169.093454,144.593484 171.72481,144.540742 L209.430473,143.783058 C210.590828,143.759903 211.615438,143.027947 211.996567,141.946093 L224.378038,106.83793 C225.243409,104.387357 228.75841,104.387357 229.622477,106.83793" id="Fill-25" fill="#E58B0A"></path>
            </g>
        </g>
    </g>
</svg>