<?xml version="1.0" encoding="UTF-8"?>
<svg width="239px" height="244px" viewBox="0 0 239 244" version="1.1" xmlns="http://www.w3.org/2000/svg" xmlns:xlink="http://www.w3.org/1999/xlink">
    <!-- Generator: Sketch 59.1 (86144) - https://sketch.com -->
    <title>img_youtube_mob</title>
    <desc>Created with Sketch.</desc>
    <defs>
        <linearGradient x1="23.7726242%" y1="-9.13896727%" x2="58.6095499%" y2="87.6957529%" id="linearGradient-1">
            <stop stop-color="#FF5D6C" offset="0%"></stop>
            <stop stop-color="#FF0200" offset="100%"></stop>
        </linearGradient>
        <linearGradient x1="74.7403129%" y1="20.3098332%" x2="27.6704668%" y2="65.1325068%" id="linearGradient-2">
            <stop stop-color="#FF5D6C" offset="0%"></stop>
            <stop stop-color="#FF0200" offset="100%"></stop>
        </linearGradient>
    </defs>
    <g id="Page-1" stroke="none" stroke-width="1" fill="none" fill-rule="evenodd">
        <g id="Video-SEO---Mobile" transform="translate(-66.000000, -2915.000000)">
            <g id="img_youtube_mob" transform="translate(58.000000, 2884.000000)">
                <path d="M32.8540206,160.151688 C44.5684188,132.80475 58.6331212,107.03391 75.0481278,82.8391676 C91.463134,58.644426 110.228445,36.0257806 131.344062,14.9832312 C140.886996,5.47331948 155.881689,4.03397418 167.092333,11.5517437 L217.954725,45.6596609 C229.297188,53.2658271 233.521831,67.8588257 227.977856,80.2821179 C214.479765,110.529498 200.555592,136.228899 186.205337,157.38032 C171.855082,178.53174 153.103751,200.994087 129.951344,224.767359 C120.44212,234.531587 105.250065,236.1039 93.9076016,228.497734 L43.0452107,194.389817 C31.8345661,186.872047 27.5598483,172.510786 32.8540206,160.151688 Z" id="Rectangle" fill="url(#linearGradient-1)" opacity="0.38502038" transform="translate(130.500000, 120.024786) rotate(79.000000) translate(-130.500000, -120.024786) "></path>
                <path d="M27.6174339,72.1100126 C56.5451399,62.9350362 85.7634934,57.0638328 115.272494,54.4964024 C144.781495,51.9289722 174.581144,52.6653147 204.671443,56.7054299 C217.730765,58.4588576 227.824155,68.9789717 228.972676,82.03406 L235.891836,160.683194 C237.056868,173.925959 228.705796,186.160444 215.899785,189.97194 C183.555207,199.598764 154.507608,205.532392 128.756987,207.772825 C103.006366,210.013257 73.3639735,209.185951 39.829809,205.290906 C26.5528118,203.748763 16.1923039,193.142278 15.0272713,179.899513 L8.10811212,101.250379 C6.95959037,88.1952909 15.0626853,76.0919918 27.6174339,72.1100126 Z" id="Rectangle" fill="url(#linearGradient-2)"></path>
                <ellipse id="Oval-4" fill="#000000" opacity="0.05" cx="135.5" cy="267" rx="102.5" ry="8"></ellipse>
                <polygon id="Rectangle-2" fill="#FFFFFF" transform="translate(128.722952, 130.400080) rotate(-3.000000) translate(-128.722952, -130.400080) " points="103.574792 98.9863616 153.877836 130.394686 103.568069 161.813799"></polygon>
            </g>
        </g>
    </g>
</svg>