<?xml version="1.0" encoding="UTF-8"?>
<svg width="562px" height="423px" viewBox="0 0 562 423" version="1.1" xmlns="http://www.w3.org/2000/svg" xmlns:xlink="http://www.w3.org/1999/xlink">
    <!-- Generator: Sketch 59.1 (86144) - https://sketch.com -->
    <title>img_increase</title>
    <desc>Created with Sketch.</desc>
    <g id="Page-1" stroke="none" stroke-width="1" fill="none" fill-rule="evenodd">
        <g id="SEO-Copywriting" transform="translate(-778.000000, -2739.000000)" fill-rule="nonzero">
            <g id="img_increase" transform="translate(778.000000, 2739.000000)">
                <g id="Group" transform="translate(13.000000, 69.000000)" fill="#427FE0">
                    <polygon id="Path" points="52.9533467 327.840478 1.18180814 327.840478 0.289195403 294.982211 52.060734 294.982211"></polygon>
                    <polygon id="Path" points="119.899302 327.840478 68.1277632 327.840478 67.2351505 272.780679 119.006689 272.780679"></polygon>
                    <polygon id="Path" points="185.952644 327.840478 134.181106 327.840478 134.181106 246.13884 185.060031 246.13884"></polygon>
                    <polygon id="Path" points="252.898599 327.840478 201.127061 327.840478 200.234448 197.29547 252.005986 197.29547"></polygon>
                    <polygon id="Path" points="318.951941 327.840478 268.073016 327.840478 267.180403 155.556589 318.951941 155.556589"></polygon>
                    <polygon id="Path" points="385.897897 327.840478 334.126358 327.840478 333.233745 98.7206674 385.005284 98.7206674"></polygon>
                    <polygon id="Path" points="452.843852 327.840478 401.072313 327.840478 400.1797 79.1833192 451.951239 79.1833192"></polygon>
                    <polygon id="Path" points="518.897194 327.840478 467.125655 327.840478 467.125655 0.145865138 518.897194 0.145865138"></polygon>
                </g>
                <path d="M125.403442,422.769028 C218.959847,422.769028 290.240918,388.140479 288.458891,389.028391 C370.432122,355.287753 444.386233,303.788886 502.302103,236.307611 L511.212237,243.410903 L541.506692,265.608691 C544.179732,267.384514 546.852772,267.384514 549.525813,267.384514 L549.525813,267.384514 C550.416826,267.384514 551.307839,267.384514 552.198853,266.496602 C557.544933,263.832868 562,258.505399 561.108987,252.290018 L562,122.654938 C561.108987,116.439558 556.65392,112 551.307839,112 C550.416826,112 548.634799,112 547.743786,112 L423.001912,147.51646 C420.328872,147.51646 418.546845,149.292283 416.764818,151.068106 C413.200765,153.731841 411.418738,158.171398 412.309751,162.610956 L412.309751,162.610956 C413.200765,165.274691 414.091778,169.714248 419.437859,172.377983 L444.386233,191.024124 L460.424474,203.454885 C410.527725,269.160337 343.701721,325.986674 296.478011,353.51193 C234.107075,389.028391 188.665392,405.010798 115.602294,413.002001 C105.801147,413.889913 96,414.777824 96,419.217382 C96,421.881116 115.602294,423.656939 125.403442,422.769028 Z" id="Path" fill="#000000" opacity="0.3"></path>
                <path d="M28.673931,310.769028 C122.38666,310.769028 193.786835,276.140479 192.00183,277.028391 C274.112031,243.287753 348.189712,191.788886 406.202354,124.307611 L415.127376,131.410903 L445.47245,153.608691 C448.149956,155.384514 450.827463,155.384514 453.504969,155.384514 L453.504969,155.384514 C454.397472,155.384514 455.289974,155.384514 456.182476,154.496602 C461.537489,151.832868 466,146.505399 465.107498,140.290018 L466,10.6549381 C465.107498,4.43955754 460.644987,0 455.289974,0 C454.397472,0 453.504969,0 451.719965,0 L326.76966,35.5164603 C324.092153,36.4043718 322.307149,37.2922834 320.522144,39.0681064 C316.952136,41.7318409 315.167131,46.1713984 316.059633,50.610956 L316.059633,50.610956 C316.952136,53.2746905 317.844638,57.714248 323.199651,60.3779826 L348.189712,79.0241242 L364.254751,91.4548854 C314.274629,157.160337 248.229468,213.986674 200.926852,241.51193 C138.451699,277.028391 92.9340881,293.010798 19.7489092,301.002001 C9.93138521,301.889913 0.113861216,302.777824 0.113861216,307.217382 C-1.67114315,309.881116 17.9639048,311.656939 28.673931,310.769028 Z" id="Path" fill="#FF5254"></path>
            </g>
        </g>
    </g>
</svg>