<?xml version="1.0" encoding="UTF-8"?>
<svg width="277px" height="401px" viewBox="0 0 277 401" version="1.1" xmlns="http://www.w3.org/2000/svg" xmlns:xlink="http://www.w3.org/1999/xlink">
    <!-- Generator: Sketch 63.1 (92452) - https://sketch.com -->
    <title>img_get_started_amazon_ppc</title>
    <desc>Created with Sketch.</desc>
    <defs>
        <polygon id="path-1" points="0.0442295482 0.0855262322 222.942459 0.0855262322 222.942459 282.575905 0.0442295482 282.575905"></polygon>
        <linearGradient x1="50%" y1="0%" x2="59.0933774%" y2="91.7903857%" id="linearGradient-3">
            <stop stop-color="#FDE765" offset="0%"></stop>
            <stop stop-color="#F9CA35" offset="100%"></stop>
        </linearGradient>
        <polygon id="path-4" points="0.664144432 0.00678422691 77.3986991 0.00678422691 77.3986991 52.6316316 0.664144432 52.6316316"></polygon>
        <linearGradient x1="0%" y1="45.5723524%" x2="84.9775363%" y2="45.5723535%" id="linearGradient-6">
            <stop stop-color="#77B6F2" offset="0%"></stop>
            <stop stop-color="#427FE0" offset="100%"></stop>
        </linearGradient>
    </defs>
    <g id="Page-1" stroke="none" stroke-width="1" fill="none" fill-rule="evenodd">
        <g id="Amazon-PPC" transform="translate(-895.000000, -5660.000000)">
            <g id="img_get_started_amazon_ppc" transform="translate(1056.000000, 5886.251309) rotate(21.000000) translate(-1056.000000, -5886.251309) translate(907.000000, 5665.751309)">
                <g id="Group-3" transform="translate(0.048565, 0.486174)">
                    <mask id="mask-2" fill="white">
                        <use xlink:href="#path-1"></use>
                    </mask>
                    <g id="Clip-2"></g>
                    <path d="M222.812245,108.102703 C220.581043,48.0723183 171.603715,0.0853888126 111.485381,0.0853888126 C49.9336774,0.0853888126 0.0439567851,50.361729 0.0439567851,112.376453 C12.2610126,182.420605 45.8395045,191.001085 64.1569052,264.221004 C103.929845,290.8969 100.870808,284.73363 164.91693,269.480053 C174.070857,202.089474 222.914531,161.439378 222.914531,112.376453 C222.979994,110.915682 222.924078,109.497512 222.812245,108.102703" id="Fill-1" fill="url(#linearGradient-3)" mask="url(#mask-2)"></path>
                </g>
                <g id="Group-6" transform="translate(71.746386, 298.959896)">
                    <mask id="mask-5" fill="white">
                        <use xlink:href="#path-4"></use>
                    </mask>
                    <g id="Clip-5"></g>
                    <path d="M0.664144432,0.00678422691 L0.664144432,33.8097037 C0.664144432,44.19833 7.53508008,52.6323019 16.0096894,52.6323019 L62.0627161,52.6323019 C70.5263974,52.6323019 77.3986991,44.19833 77.3986991,33.8097037 L77.3986991,0.00678422691 L0.664144432,0.00678422691 Z" id="Fill-4" fill="#2454A0" mask="url(#mask-5)"></path>
                </g>
                <path d="M144.410744,122.170781 C144.372509,122.170781 144.332908,122.170781 144.296038,122.170781 L140.658201,122.211933 C134.838209,122.276405 130.157089,127.264097 130.224001,133.331357 L130.34417,144.335555 L144.536375,144.179175 C150.356367,144.116074 155.037487,139.127011 154.970575,133.058379 C154.939167,130.094022 153.793467,127.325826 151.746501,125.264082 C149.763717,123.266811 147.162336,122.170781 144.410744,122.170781 L144.410744,122.170781 Z M79.6752807,122.885464 C79.6370452,122.885464 79.5988097,122.885464 79.5605742,122.885464 L75.1962629,122.933475 C69.3762708,122.997947 64.6951509,127.98701 64.7606975,134.054271 C64.7934708,137.018628 65.9391708,139.786824 67.9861366,141.848568 C69.9962324,143.873274 72.6221932,144.980278 75.4366004,144.941869 L90.3566458,144.777259 L90.2364771,133.773062 C90.2037037,130.808705 89.0580038,128.040509 87.0124035,125.978765 C85.0282533,123.981494 82.4268725,122.885464 79.6752807,122.885464 L79.6752807,122.885464 Z M91.694889,267.22673 L90.475449,155.719727 L75.5567692,155.884337 C69.7818404,155.936464 64.3742457,153.707366 60.2721208,149.57702 C56.2068659,145.480968 53.9318525,140.010419 53.8676715,134.173613 C53.7365783,122.073386 63.2503945,112.121323 75.0774596,111.991007 L79.4404054,111.942995 C85.2057753,111.877151 90.6229289,114.119966 94.7250538,118.251684 C98.7916742,122.346365 101.065322,127.815541 101.129503,133.653719 L101.249672,144.656545 L119.451144,144.456269 L119.330975,133.452072 C119.198517,121.350473 128.712333,111.399781 140.539398,111.269465 L144.175869,111.227508 C149.946701,111.178929 155.359758,113.405283 159.460517,117.537001 C163.525772,121.631682 165.800785,127.10223 165.864966,132.939036 C165.997425,145.040635 156.482243,154.991327 144.656544,155.121643 L130.464339,155.278023 L131.681048,266.573776 L120.786656,266.693118 L119.571313,155.398737 L101.368475,155.599013 L102.587915,267.107387 L91.694889,267.22673 Z" id="Fill-7" fill="#FFFFFF"></path>
                <path d="M53.2315223,255.831251 L53.2315223,311.657621 C53.2315223,322.248041 61.8225027,330.831251 72.3986444,330.831251 L149.050738,330.831251 C159.636443,330.831251 168.231522,322.248041 168.231522,311.657621 L168.231522,255.831251 L53.2315223,255.831251 Z" id="Fill-9" fill="url(#linearGradient-6)"></path>
                <path d="M173.141229,273.234938 C173.141229,274.863434 171.959884,276.179935 170.502434,276.179935 L51.7772764,276.179935 C50.3212002,276.179935 49.141229,274.863434 49.141229,273.234938 L49.141229,268.122016 C49.141229,266.497894 50.3212002,265.179935 51.7772764,265.179935 L170.502434,265.179935 C171.959884,265.179935 173.141229,266.497894 173.141229,268.122016 L173.141229,273.234938 Z" id="Fill-11" fill="#2761BD"></path>
                <path d="M172.915266,289.388175 C172.915266,291.011867 171.733921,292.333849 170.276471,292.333849 L51.5513131,292.333849 C50.0952369,292.333849 48.9152657,291.011867 48.9152657,289.388175 L48.9152657,284.278065 C48.9152657,282.655831 50.0952369,281.333849 51.5513131,281.333849 L170.276471,281.333849 C171.733921,281.333849 172.915266,282.655831 172.915266,284.278065 L172.915266,289.388175 Z" id="Fill-13" fill="#2761BD"></path>
                <path d="M173.04767,306.477024 C173.04767,308.105952 171.870394,309.421343 170.408759,309.421343 L51.6783397,309.421343 C50.2263201,309.421343 49.0476703,308.105952 49.0476703,306.477024 L49.0476703,301.365663 C49.0476703,299.739652 50.2263201,298.421343 51.6783397,298.421343 L170.408759,298.421343 C171.870394,298.421343 173.04767,299.739652 173.04767,301.365663 L173.04767,306.477024 Z" id="Fill-15" fill="#2761BD"></path>
                <ellipse id="Oval-4" fill="#000000" opacity="0.05" transform="translate(174.647666, 383.558702) rotate(-21.000000) translate(-174.647666, -383.558702) " cx="174.647666" cy="383.558702" rx="126.255793" ry="13.0193246"></ellipse>
            </g>
        </g>
    </g>
</svg>