<?xml version="1.0" encoding="UTF-8"?>
<svg width="353px" height="374px" viewBox="0 0 353 374" version="1.1" xmlns="http://www.w3.org/2000/svg" xmlns:xlink="http://www.w3.org/1999/xlink">
    <!-- Generator: Sketch 63.1 (92452) - https://sketch.com -->
    <title>img_generate_new_leads</title>
    <desc>Created with Sketch.</desc>
    <defs>
        <linearGradient x1="85.5443525%" y1="35.0207239%" x2="50%" y2="66.0261519%" id="linearGradient-1">
            <stop stop-color="#DA3E3F" offset="0%"></stop>
            <stop stop-color="#FF5254" offset="100%"></stop>
        </linearGradient>
        <linearGradient x1="36.2404384%" y1="94.1440144%" x2="69.2351615%" y2="5.56280504%" id="linearGradient-2">
            <stop stop-color="#427FDF" offset="0%"></stop>
            <stop stop-color="#396BB1" offset="100%"></stop>
        </linearGradient>
        <filter x="-6.5%" y="-132.1%" width="113.0%" height="364.1%" filterUnits="objectBoundingBox" id="filter-3">
            <feGaussianBlur stdDeviation="6.60267857" in="SourceGraphic"></feGaussianBlur>
        </filter>
    </defs>
    <g id="Page-1" stroke="none" stroke-width="1" fill="none" fill-rule="evenodd">
        <g id="Hubspot" transform="translate(-258.000000, -2980.000000)">
            <g id="img_generate_new_leads" transform="translate(271.000000, 2980.000000)">
                <g id="Group" transform="translate(9.000000, 0.000000)">
                    <path d="M40.2948783,274.769892 L78.6011024,239.628158 C78.6495033,239.683632 78.7361566,239.126546 78.7845575,239.18202 C101.993591,265.751819 135.416784,260.618502 161.961579,237.390438 L222.561121,184.365696 L314.254367,160.800099 L322.598845,170.353381 L198.364553,279.062502 C148.858975,322.381602 81.7323311,326.88517 38.4501778,277.338114 C38.4033382,277.282639 38.0762415,276.903696 38.0278406,276.849003 L38.0333052,276.844315 C38.1730434,277.006831 38.3120009,277.174035 38.4533005,277.33577 L40.2948783,274.769892 Z" id="Fill-1" fill="#AD3551"></path>
                    <polygon id="Fill-3" fill="#CCCACD" points="267.066023 145.422181 294.631141 138.337891 314.25382 160.800255 222.560575 184.365852"></polygon>
                    <polygon id="Fill-5" fill="#CCCACD" points="145.751088 8.01625651 173.796312 0.00843832924 193.483786 22.5458093 102.393211 45.9559224"></polygon>
                    <path d="M193.483474,22.5455749 L202.015311,32.312941 L77.780238,141.02128 C51.2893087,164.202464 48.5351389,204.59159 71.5888205,231.162951 L40.2952686,274.76958 L38.0329149,276.844784 C-4.78006156,227.301634 -21.2832219,154.17726 41.3772639,99.3468722 L102.392898,45.955688 L193.483474,22.5455749 Z" id="Fill-7" fill="#2A3E61"></path>
                    <path d="M38.4529882,277.335926 C38.3116887,277.174191 38.1735118,277.006987 38.0329929,276.844471 L40.294566,274.770049 L38.4529882,277.335926 Z" id="Fill-9" fill="#2A3E61"></path>
                    <polygon id="Fill-11" fill="#F1F2F2" points="294.630829 138.337579 330.777746 179.715864 286.028732 218.872056 249.791258 177.38751"></polygon>
                    <path d="M79.905742,240.69295 C103.113994,267.262748 143.593577,269.980203 170.139933,246.752139 L249.790711,177.38751 L286.028966,218.872056 L206.541346,288.424203 C157.036549,331.742522 81.5482514,326.674837 38.2676594,277.126999 C38.1388505,276.98011 38.0178481,276.830876 37.8906005,276.683987 C49.8792019,266.193112 66.3847042,251.750286 79.5325863,240.246812 C79.659834,240.392139 79.7761524,240.54606 79.905742,240.69295" id="Fill-14" fill="url(#linearGradient-1)"></path>
                    <polygon id="Fill-17" fill="#F1F2F2" points="173.789286 0 210.193041 41.6744079 165.445588 80.8298182 129.041833 39.1561916"></polygon>
                    <path d="M165.445978,80.8299744 L85.9575774,150.382903 C59.5595467,173.482048 56.7374594,213.671154 79.5327425,240.246422 C66.3840797,251.750677 49.879358,266.192721 37.8899759,276.684377 C-4.97686604,227.131852 0.195008962,151.899458 49.555384,108.709277 L129.041443,39.1563479 L165.445978,80.8299744 Z" id="Fill-19" fill="url(#linearGradient-2)"></path>
                </g>
                <ellipse id="Oval-4" fill="#000000" opacity="0.2" filter="url(#filter-3)" cx="152" cy="350.5" rx="152" ry="7.5"></ellipse>
            </g>
        </g>
    </g>
</svg>