<?xml version="1.0" encoding="UTF-8"?>
<svg width="346px" height="325px" viewBox="0 0 346 325" version="1.1" xmlns="http://www.w3.org/2000/svg" xmlns:xlink="http://www.w3.org/1999/xlink">
    <!-- Generator: Sketch 63.1 (92452) - https://sketch.com -->
    <title>img_how_do_amazon_backlinks_work_tc_mob</title>
    <desc>Created with Sketch.</desc>
    <g id="Page-1" stroke="none" stroke-width="1" fill="none" fill-rule="evenodd">
        <g id="img_how_do_amazon_backlinks_work_tc_mob">
            <circle id="Oval" stroke="#FF5254" stroke-width="12" cx="176.356589" cy="165.649225" r="110.852713"></circle>
            <circle id="Oval" fill="#427FE0" cx="176.671512" cy="48.1831395" r="48.1831395"></circle>
            <g id="icn_ppc" transform="translate(0.000000, 16.375969)">
                <path d="M167.853682,11.9670543 C167.332171,11.9670543 166.908915,12.3432817 166.908915,12.8068475 L166.908915,14.4864341 L168.79845,14.4864341 L168.79845,12.8068475 C168.79845,12.3432817 168.375194,11.9670543 167.853682,11.9670543 Z" id="Path" fill="#FFFFFF" fill-rule="nonzero"></path>
                <path d="M177.616279,11.9670543 L177.616279,17.6356589 C179.005297,17.6356589 180.135659,16.3640019 180.135659,14.8013566 C180.135659,13.2387112 179.005297,11.9670543 177.616279,11.9670543 Z" id="Path" fill="#FFFFFF" fill-rule="nonzero"></path>
                <path d="M185.773602,0 L161.211013,0 C158.954894,0 157.117248,1.8317744 157.117248,4.08472982 L157.117248,26.7776733 C157.117248,29.0306287 158.954894,30.8624031 161.211013,30.8624031 L173.736114,30.8624031 L173.410432,30.5374402 C171.345355,28.4769209 171.341716,25.1274424 173.403154,23.0669232 C174.402033,22.0702491 175.728413,21.5201721 177.142126,21.5201721 C178.557659,21.5201721 179.891317,22.0702491 180.893834,23.070554 L182.766049,24.9386371 C183.371926,24.5991507 184.037845,24.3849293 184.734695,24.3032347 C184.85296,24.154369 184.982141,24.012765 185.120419,23.874792 C185.971922,23.0251681 187.061773,22.5005073 188.242597,22.3643496 C188.362681,22.2154839 188.493681,22.0720645 188.63014,21.9359069 C188.997669,21.5673735 189.423421,21.2841655 189.869186,21.0427126 L189.869186,4.08472982 C189.867367,1.8317744 188.029721,0 185.773602,0 Z M171.603682,18.8166182 C171.603682,19.5554264 170.968798,20.1550388 170.186531,20.1550388 C169.404264,20.1550388 168.76938,19.5554264 168.76938,18.8166182 L168.76938,17.4781977 L166.879845,17.4781977 L166.879845,18.8166182 C166.879845,19.5554264 166.244961,20.1550388 165.462694,20.1550388 C164.680426,20.1550388 164.045543,19.5554264 164.045543,18.8166182 L164.045543,13.0167959 C164.045543,11.0484254 165.740455,9.44767442 167.824612,9.44767442 C169.908769,9.44767442 171.603682,11.0484254 171.603682,13.0167959 L171.603682,18.8166182 Z M177.482235,20.1550388 L176.117571,20.1550388 C175.364276,20.1550388 174.752907,19.5554264 174.752907,18.8166182 L174.752907,10.786095 C174.752907,10.0472868 175.364276,9.44767442 176.117571,9.44767442 L177.482235,9.44767442 C180.491774,9.44767442 182.940891,11.8496932 182.940891,14.8013566 C182.940891,17.75302 180.491774,20.1550388 177.482235,20.1550388 Z" id="Shape" fill="#FFFFFF" fill-rule="nonzero"></path>
                <path d="M190.745644,24.4140642 C190.102148,25.0579268 190.105773,26.1026166 190.752894,26.7501066 L191.338385,27.3359309 C191.445332,27.4429391 191.447145,27.6188677 191.340198,27.7258759 C191.23325,27.832884 191.059235,27.832884 190.950475,27.7240622 L189.585538,26.358348 C188.938417,25.7108579 187.894322,25.7090442 187.250826,26.3510932 C186.60733,26.9949558 186.610955,28.0396456 187.258076,28.6871356 L188.623013,30.0528498 C188.72996,30.159858 188.731773,30.3357866 188.624826,30.4427948 C188.517878,30.5498029 188.343863,30.5498029 188.235103,30.4409811 L186.088908,28.2935632 C185.441786,27.6460732 184.397691,27.6442595 183.754195,28.2863084 C183.110699,28.930171 183.114324,29.9748608 183.761446,30.6223508 L185.907641,32.7697687 C186.014588,32.8767769 186.016401,33.0527055 185.909454,33.1597137 C185.802506,33.2667218 185.628491,33.2667218 185.519731,33.1579 L177.911976,25.5458115 C177.264855,24.8983215 176.22076,24.8965078 175.577264,25.5385567 C174.933768,26.1824193 174.937393,27.2271091 175.584515,27.8745991 L184.740285,37.0355853 C183.540301,36.8487744 181.520992,36.7689717 180.281129,38.0077272 C179.117398,39.172121 179.148214,39.9774027 179.508934,40.3401422 C180.493211,41.3249799 181.250905,39.7688275 185.735438,41.9126179 C190.219971,44.0582221 193.102108,43.8804797 195.072475,41.9416371 L197.787847,39.2247182 C197.802348,39.2102086 197.773345,39.2392278 197.787847,39.2247182 C200.548535,36.4624569 201.338857,32.6863386 198.552791,29.9004992 C198.547353,29.8950581 198.543728,29.8914307 198.53829,29.8859896 L193.076731,24.421319 C192.433235,23.773829 191.38914,23.7720153 190.745644,24.4140642 L190.745644,24.4140642 Z" id="Path" fill="#FFFFFF" fill-rule="nonzero"></path>
                <ellipse id="Oval" fill="#427FE0" cx="297.032461" cy="128.017018" rx="48.1225775" ry="48.0514073"></ellipse>
                <path d="M149.872868,59.0227713 C150.643798,59.0227713 151.040601,58.6373062 151.040601,57.866376 L151.040601,54.7599806 L151.85688,54.3518411 L151.85688,53.1500969 C151.584787,53.2861434 151.312694,53.4335271 151.040601,53.5695736 L151.040601,51.8236434 L152.049612,51.8236434 L152.049612,50.6785853 L151.040601,50.6785853 L151.040601,48.6718992 L149.838857,48.6718992 L149.838857,50.6785853 L148.603101,50.6785853 L148.603101,51.8236434 L149.838857,51.8236434 L149.838857,54.0684109 C149.374031,54.2271318 148.897868,54.3631783 148.421705,54.4765504 L148.716473,55.6782946 C149.101938,55.5535853 149.476066,55.4175388 149.838857,55.2814922 L149.838857,57.5602713 C149.838857,57.8096899 149.714147,57.9457364 149.464729,57.9457364 C149.192636,57.9457364 148.909205,57.923062 148.614438,57.8777132 L148.875194,59.0227713 L149.872868,59.0227713 Z M157.933624,53.1160853 L157.933624,48.9780039 L152.786531,48.9780039 L152.786531,53.1160853 L157.933624,53.1160853 Z M156.777229,50.5992248 L153.931589,50.5992248 L153.931589,49.9303295 L156.777229,49.9303295 L156.777229,50.5992248 Z M156.777229,52.1637597 L153.931589,52.1637597 L153.931589,51.4835271 L156.777229,51.4835271 L156.777229,52.1637597 Z M152.287694,59.1248062 C152.684496,58.6032946 153.001938,58.0477713 153.251357,57.4582364 C153.568798,57.9457364 153.908915,58.2858527 154.29438,58.4785853 C154.86124,58.7506783 155.892926,58.8867248 157.412112,58.898062 C157.763566,58.9093992 158.160368,58.9207364 158.591182,58.9207364 L158.919961,57.7756783 C158.489147,57.8210271 157.956298,57.8550388 157.332752,57.8550388 C156.799903,57.8550388 156.335078,57.8210271 155.926938,57.7756783 L155.926938,56.675969 L158.092345,56.675969 L158.092345,55.6329457 L155.926938,55.6329457 L155.926938,54.6919574 L158.602519,54.6919574 L158.602519,53.6375969 L152.06095,53.6375969 L152.06095,54.6919574 L154.78188,54.6919574 L154.78188,57.5035853 C154.770543,57.5035853 154.759205,57.4922481 154.759205,57.4922481 C154.328391,57.3108527 153.954264,56.9140504 153.614147,56.3018411 C153.693508,55.9390504 153.750194,55.5535853 153.772868,55.1454457 L152.729845,55.0207364 C152.639147,56.245155 152.196996,57.3562016 151.403391,58.353876 L152.287694,59.1248062 Z M170.064438,50.553876 L170.064438,49.4655039 L165.688275,49.4655039 C165.597578,49.1367248 165.495543,48.8306202 165.404845,48.5585271 L164.078391,48.7852713 C164.191764,48.9893411 164.293798,49.2160853 164.395833,49.4655039 L159.962984,49.4655039 L159.962984,50.553876 L170.064438,50.553876 Z M168.341182,53.4221899 L168.341182,51.0187016 L161.708915,51.0187016 L161.708915,53.4221899 L168.341182,53.4221899 Z M167.207461,52.5378876 L162.842636,52.5378876 L162.842636,51.9030039 L167.207461,51.9030039 L167.207461,52.5378876 Z M161.561531,59.1248062 L161.561531,54.8960271 L168.477229,54.8960271 L168.477229,57.6736434 C168.477229,57.9457364 168.273159,58.0817829 167.876357,58.0817829 L167.003391,58.0477713 L167.286822,59.0907946 L168.216473,59.0907946 C169.134787,59.0907946 169.599612,58.6939922 169.599612,57.9117248 L169.599612,53.8756783 L160.439147,53.8756783 L160.439147,59.1248062 L161.561531,59.1248062 Z M167.366182,57.7983527 L167.366182,55.3495155 L162.695252,55.3495155 L162.695252,57.7983527 L167.366182,57.7983527 Z M166.323159,56.9253876 L163.738275,56.9253876 L163.738275,56.2224806 L166.323159,56.2224806 L166.323159,56.9253876 Z M177.671705,59.0454457 L177.671705,58.5919574 L180.018508,58.5919574 L180.018508,59.0454457 L181.129554,59.0454457 L181.129554,53.4675388 L179.15688,53.4675388 L179.15688,51.7442829 L181.469671,51.7442829 L181.469671,50.6672481 L179.15688,50.6672481 L179.15688,48.6945736 L178.023159,48.6945736 L178.023159,53.4675388 L176.571996,53.4675388 L176.571996,59.0454457 L177.671705,59.0454457 Z M171.492926,56.5625969 C173.726357,56.4492248 175.302229,56.3131783 176.209205,56.1657946 L176.209205,55.2474806 C175.665019,55.3155039 175.030136,55.3721899 174.28188,55.4175388 L174.28188,54.782655 L176.039147,54.782655 L176.039147,53.8530039 L174.28188,53.8530039 L174.28188,53.2521318 L176.186531,53.2521318 L176.186531,48.9780039 L171.424903,48.9780039 L171.424903,53.2521318 L173.250194,53.2521318 L173.250194,53.8530039 L171.606298,53.8530039 L171.606298,54.782655 L173.250194,54.782655 L173.250194,55.4742248 L171.345543,55.5422481 L171.492926,56.5625969 Z M175.245543,52.3678295 L174.179845,52.3678295 L174.179845,49.8623062 L175.245543,49.8623062 L175.245543,52.3678295 Z M173.397578,52.3678295 L172.365891,52.3678295 L172.365891,49.8623062 L173.397578,49.8623062 L173.397578,52.3678295 Z M174.814729,52.0503876 C174.97345,51.5402132 175.086822,51.0187016 175.154845,50.4745155 L174.553973,50.3271318 C174.497287,50.8713178 174.395252,51.3814922 174.259205,51.857655 L174.814729,52.0503876 Z M172.785368,52.0503876 L173.329554,51.9030039 C173.238857,51.3248062 173.136822,50.8146318 173.02345,50.3724806 L172.456589,50.5652132 C172.592636,51.041376 172.694671,51.528876 172.785368,52.0503876 Z M180.018508,57.5262597 L177.671705,57.5262597 L177.671705,54.5332364 L180.018508,54.5332364 L180.018508,57.5262597 Z M175.596996,58.5125969 L176.481298,58.1724806 C176.333915,57.650969 176.129845,57.0841085 175.869089,56.4492248 L175.030136,56.675969 C175.245543,57.2655039 175.438275,57.8777132 175.596996,58.5125969 Z M174.236531,58.7846899 L175.166182,58.5352713 C175.030136,57.8437016 174.871415,57.2314922 174.690019,56.6986434 L173.862403,56.9707364 C174.021124,57.5602713 174.145833,58.1611434 174.236531,58.7846899 Z M172.04845,59.0227713 C172.229845,58.4218992 172.33188,57.7303295 172.377229,56.948062 L171.43624,56.8346899 C171.390891,57.5375969 171.277519,58.1724806 171.096124,58.7280039 L172.04845,59.0227713 Z M172.81938,58.9434109 L173.805717,58.8300388 C173.760368,58.0024225 173.658333,57.3562016 173.499612,56.8800388 L172.61531,56.9820736 C172.717345,57.4468992 172.785368,58.1044574 172.81938,58.9434109 Z M187.659787,54.4878876 L187.659787,53.4108527 L186.650775,53.4108527 L186.650775,53.7623062 L185.902519,53.7623062 L185.902519,53.2407946 L188.090601,53.2407946 L188.090601,52.503876 L185.902519,52.503876 L185.902519,52.2204457 L187.64845,52.2204457 L187.64845,49.9643411 L185.902519,49.9643411 L185.902519,49.7149225 L187.954554,49.7149225 L187.954554,48.9213178 L185.902519,48.9213178 L185.902519,48.6152132 L184.859496,48.6152132 L184.859496,48.9213178 L182.739438,48.9213178 L182.739438,49.7149225 L184.859496,49.7149225 L184.859496,49.9643411 L183.102229,49.9643411 L183.102229,52.2204457 L184.859496,52.2204457 L184.859496,52.503876 L182.660078,52.503876 L182.660078,53.2407946 L184.859496,53.2407946 L184.859496,53.7623062 L184.11124,53.7623062 L184.11124,53.4108527 L183.102229,53.4108527 L183.102229,54.4878876 L187.659787,54.4878876 Z M192.410078,54.5899225 L192.772868,53.6829457 C192.228682,53.5809109 191.729845,53.4562016 191.287694,53.320155 C191.741182,52.9687016 192.081298,52.5718992 192.285368,52.1184109 L192.285368,51.3021318 L188.680136,51.3021318 C188.997578,51.0300388 189.224322,50.7919574 189.337694,50.5652132 C189.451066,50.3044574 189.530426,50.0437016 189.553101,49.7716085 L190.675484,49.7716085 L190.675484,50.2817829 C190.675484,50.7579457 190.981589,51.0073643 191.605136,51.0073643 L192.591473,51.0073643 L192.591473,50.2250969 L191.899903,50.2250969 C191.763857,50.2250969 191.707171,50.1797481 191.707171,50.0890504 L191.707171,48.9099806 L188.600775,48.9099806 C188.600775,49.5108527 188.521415,49.9189922 188.385368,50.123062 C188.226647,50.338469 188.033915,50.5425388 187.784496,50.7239341 L188.430717,51.3021318 L188.079264,51.3021318 L188.079264,52.1750969 L188.283333,52.1750969 C188.532752,52.5945736 188.884205,52.9687016 189.315019,53.3088178 C188.884205,53.4448643 188.396705,53.5695736 187.852519,53.6602713 L188.328682,54.5332364 C189.076938,54.3631783 189.723159,54.1591085 190.278682,53.9096899 C190.868217,54.1931202 191.582461,54.4198643 192.410078,54.5899225 Z M184.972868,50.8486434 L184.043217,50.8486434 L184.043217,50.5425388 L184.972868,50.5425388 L184.972868,50.8486434 Z M186.707461,50.8486434 L185.789147,50.8486434 L185.789147,50.5425388 L186.707461,50.5425388 L186.707461,50.8486434 Z M186.707461,51.6649225 L185.789147,51.6649225 L185.789147,51.313469 L186.707461,51.313469 L186.707461,51.6649225 Z M184.972868,51.6649225 L184.043217,51.6649225 L184.043217,51.313469 L184.972868,51.313469 L184.972868,51.6649225 Z M190.290019,52.9006783 C189.893217,52.6966085 189.553101,52.4471899 189.281008,52.1750969 L191.219671,52.1750969 C190.992926,52.4471899 190.675484,52.6852713 190.290019,52.9006783 Z M187.183624,59.170155 C187.977229,59.170155 188.385368,58.8527132 188.385368,58.2291667 L188.385368,57.866376 L192.772868,57.866376 L192.772868,57.0047481 L188.385368,57.0047481 L188.385368,56.6532946 L191.899903,56.6532946 L191.899903,55.8823643 L188.385368,55.8823643 L188.385368,55.4628876 C189.632461,55.4175388 190.732171,55.3381783 191.684496,55.2474806 L191.231008,54.4878876 C189.167636,54.7032946 186.650775,54.8166667 183.680426,54.8166667 L183.929845,55.5422481 C185.108915,55.5422481 186.219961,55.5195736 187.24031,55.4968992 L187.24031,55.8823643 L183.589729,55.8823643 L183.589729,56.6532946 L187.24031,56.6532946 L187.24031,57.0047481 L182.614729,57.0047481 L182.614729,57.866376 L187.24031,57.866376 L187.24031,57.9910853 C187.24031,58.1838178 187.115601,58.2858527 186.866182,58.2858527 C186.46938,58.2858527 186.049903,58.2631783 185.607752,58.2291667 L185.823159,59.170155 L187.183624,59.170155 Z M199.63188,59.170155 L199.63188,56.9593992 L204.166764,56.9593992 L204.166764,55.8370155 L199.63188,55.8370155 L199.63188,54.8280039 C199.881298,54.782655 200.142054,54.7486434 200.414147,54.7032946 C200.482171,54.9073643 200.561531,55.1227713 200.640891,55.3495155 L201.695252,54.8733527 C201.423159,54.1477713 201.117054,53.478876 200.754264,52.8553295 L199.756589,53.1841085 C199.858624,53.3768411 199.960659,53.5922481 200.062694,53.8303295 L198.600194,54.0343992 C199.337112,53.3768411 200.19874,52.4471899 201.196415,51.2454457 L200.130717,50.8373062 C199.881298,51.1547481 199.643217,51.4608527 199.416473,51.7556202 L198.441473,51.8463178 C198.73624,51.5062016 199.019671,51.0867248 199.269089,50.5992248 L203.985368,50.5992248 L203.985368,49.4881783 L199.552519,49.4881783 C199.405136,49.1253876 199.257752,48.8079457 199.121705,48.5245155 L197.919961,48.7285853 C198.078682,48.9553295 198.226066,49.2160853 198.362112,49.4881783 L194.076647,49.4881783 L194.076647,50.5992248 L198.056008,50.5992248 C197.715891,51.2681202 197.296415,51.7102713 196.797578,51.9256783 L197.012984,52.8553295 C197.557171,52.8099806 198.078682,52.775969 198.577519,52.7306202 C197.987984,53.3881783 197.500484,53.7963178 197.137694,53.9777132 C197.001647,54.0117248 196.876938,54.0457364 196.752229,54.0684109 L196.99031,55.1000969 C197.47781,55.0660853 197.953973,55.0207364 198.430136,54.9753876 L198.430136,55.8370155 L193.917926,55.8370155 L193.917926,56.9593992 L198.430136,56.9593992 L198.430136,59.170155 L199.63188,59.170155 Z M202.103391,52.8780039 C202.658915,52.4812016 203.191764,51.9823643 203.690601,51.3814922 L202.772287,50.7012597 C202.341473,51.2114341 201.876647,51.6535853 201.355136,52.0390504 L202.103391,52.8780039 Z M195.856589,52.8893411 L196.672868,52.073062 C196.230717,51.6195736 195.686531,51.1660853 195.051647,50.7352713 L194.246705,51.5175388 C194.938275,52.0050388 195.471124,52.4585271 195.856589,52.8893411 Z M203.055717,55.4175388 L203.928682,54.5559109 C203.452519,54.023062 202.862984,53.4902132 202.171415,52.9573643 L201.423159,53.6716085 C202.126066,54.295155 202.670252,54.8733527 203.055717,55.4175388 Z M194.938275,55.3835271 C195.573159,54.9187016 196.185368,54.3291667 196.774903,53.6262597 L195.890601,52.9687016 C195.369089,53.5582364 194.790891,54.0684109 194.144671,54.4992248 L194.938275,55.3835271 Z" id="提高點擊率" fill="#FFFFFF" fill-rule="nonzero"></path>
                <ellipse id="Oval" fill="#427FE0" cx="48.1225775" cy="128.017018" rx="48.1225775" ry="48.0514073"></ellipse>
                <path d="M14.8794574,153.379845 C15.5647287,153.379845 15.9174419,153.037209 15.9174419,152.351938 L15.9174419,149.590698 L16.6430233,149.227907 L16.6430233,148.15969 C16.4011628,148.28062 16.1593023,148.411628 15.9174419,148.532558 L15.9174419,146.98062 L16.8143411,146.98062 L16.8143411,145.962791 L15.9174419,145.962791 L15.9174419,144.17907 L14.8492248,144.17907 L14.8492248,145.962791 L13.7507752,145.962791 L13.7507752,146.98062 L14.8492248,146.98062 L14.8492248,148.975969 C14.4360465,149.117054 14.0127907,149.237984 13.5895349,149.33876 L13.8515504,150.406977 C14.194186,150.296124 14.5267442,150.175194 14.8492248,150.054264 L14.8492248,152.079845 C14.8492248,152.30155 14.7383721,152.422481 14.5166667,152.422481 C14.2748062,152.422481 14.0228682,152.402326 13.7608527,152.362016 L13.9926357,153.379845 L14.8794574,153.379845 Z M22.0445736,148.129457 L22.0445736,144.451163 L17.4693798,144.451163 L17.4693798,148.129457 L22.0445736,148.129457 Z M21.0166667,145.892248 L18.4872093,145.892248 L18.4872093,145.297674 L21.0166667,145.297674 L21.0166667,145.892248 Z M21.0166667,147.282946 L18.4872093,147.282946 L18.4872093,146.678295 L21.0166667,146.678295 L21.0166667,147.282946 Z M17.025969,153.470543 C17.3786822,153.006977 17.6608527,152.513178 17.8825581,151.989147 C18.1647287,152.422481 18.4670543,152.724806 18.8096899,152.896124 C19.3135659,153.137984 20.2306202,153.258915 21.5810078,153.268992 C21.8934109,153.27907 22.246124,153.289147 22.6290698,153.289147 L22.9213178,152.271318 C22.5383721,152.311628 22.0647287,152.34186 21.5104651,152.34186 C21.0368217,152.34186 20.6236434,152.311628 20.2608527,152.271318 L20.2608527,151.293798 L22.1856589,151.293798 L22.1856589,150.366667 L20.2608527,150.366667 L20.2608527,149.530233 L22.6391473,149.530233 L22.6391473,148.593023 L16.8244186,148.593023 L16.8244186,149.530233 L19.2430233,149.530233 L19.2430233,152.029457 C19.2329457,152.029457 19.2228682,152.01938 19.2228682,152.01938 C18.8399225,151.85814 18.5073643,151.505426 18.2050388,150.96124 C18.2755814,150.63876 18.325969,150.296124 18.346124,149.933333 L17.4189922,149.822481 C17.3383721,150.910853 16.9453488,151.89845 16.2399225,152.785271 L17.025969,153.470543 Z M32.8275194,145.851938 L32.8275194,144.884496 L28.9375969,144.884496 C28.8569767,144.592248 28.7662791,144.320155 28.6856589,144.078295 L27.5065891,144.279845 C27.6073643,144.46124 27.698062,144.662791 27.7887597,144.884496 L23.8484496,144.884496 L23.8484496,145.851938 L32.8275194,145.851938 Z M31.2957364,148.40155 L31.2957364,146.265116 L25.4003876,146.265116 L25.4003876,148.40155 L31.2957364,148.40155 Z M30.2879845,147.615504 L26.4081395,147.615504 L26.4081395,147.051163 L30.2879845,147.051163 L30.2879845,147.615504 Z M25.2693798,153.470543 L25.2693798,149.711628 L31.4166667,149.711628 L31.4166667,152.18062 C31.4166667,152.422481 31.2352713,152.543411 30.8825581,152.543411 L30.1065891,152.513178 L30.3585271,153.44031 L31.1848837,153.44031 C32.0011628,153.44031 32.4143411,153.087597 32.4143411,152.392248 L32.4143411,148.804651 L24.2717054,148.804651 L24.2717054,153.470543 L25.2693798,153.470543 Z M30.4290698,152.291473 L30.4290698,150.114729 L26.2771318,150.114729 L26.2771318,152.291473 L30.4290698,152.291473 Z M29.501938,151.515504 L27.2042636,151.515504 L27.2042636,150.890698 L29.501938,150.890698 L29.501938,151.515504 Z M34.5810078,153.500775 C35.0546512,152.694574 35.3569767,151.686822 35.477907,150.467442 L36.0926357,151.00155 C36.3748062,150.769767 36.6368217,150.487597 36.8786822,150.155039 L38.8034884,150.155039 L38.8034884,150.810078 L36.525969,150.810078 L36.525969,151.717054 L38.8034884,151.717054 L38.8034884,152.362016 L35.498062,152.362016 L35.498062,153.258915 L42.8344961,153.258915 L42.8344961,152.362016 L39.8313953,152.362016 L39.8313953,151.717054 L42.1189922,151.717054 L42.1189922,150.810078 L39.8313953,150.810078 L39.8313953,150.155039 L42.3104651,150.155039 L42.3104651,149.248062 L39.8313953,149.248062 L39.8313953,148.572868 L38.8034884,148.572868 L38.8034884,149.248062 L37.4027132,149.248062 L37.5639535,148.865116 L36.7476744,148.532558 C36.4655039,149.237984 36.0523256,149.812403 35.498062,150.265891 C35.5182171,149.983721 35.5282946,149.70155 35.5383721,149.409302 L35.5383721,148.40155 L42.5825581,148.40155 L42.5825581,147.514729 L41.4236434,147.514729 L41.8872093,147.051163 C41.3127907,146.85969 40.6879845,146.668217 40.0127907,146.486822 C40.4763566,146.305426 40.9197674,146.093798 41.3531008,145.872093 L40.9903101,145.630233 L42.5321705,145.630233 L42.5321705,144.763566 L39.146124,144.763566 C39.0554264,144.50155 38.9647287,144.269767 38.8639535,144.05814 L37.7856589,144.239535 C37.8864341,144.400775 37.9771318,144.572093 38.0678295,144.763566 L34.3290698,144.763566 L34.3290698,145.630233 L36.1430233,145.630233 L35.6794574,146.073643 C36.3042636,146.214729 36.8887597,146.365891 37.4430233,146.506977 C36.7275194,146.65814 35.9414729,146.77907 35.0848837,146.869767 L35.5585271,147.514729 L34.5306202,147.514729 L34.5306202,149.409302 C34.5104651,150.860465 34.2585271,151.989147 33.7949612,152.795349 L34.5810078,153.500775 Z M38.8034884,146.164341 C38.1282946,145.982946 37.4027132,145.811628 36.6267442,145.630233 L40.2647287,145.630233 C39.8213178,145.821705 39.3375969,146.003101 38.8034884,146.164341 Z M40.8492248,147.514729 L35.6492248,147.514729 C36.7879845,147.383721 37.8562016,147.172093 38.8437984,146.889922 C39.5895349,147.10155 40.2647287,147.313178 40.8492248,147.514729 Z M51.4003876,148.058915 L51.4003876,144.46124 L45.605814,144.46124 L45.605814,148.058915 L51.4003876,148.058915 Z M50.3422481,147.071318 L46.6639535,147.071318 L46.6639535,145.448837 L50.3422481,145.448837 L50.3422481,147.071318 Z M45.2732558,153.31938 L45.2732558,152.845736 L47.0267442,152.845736 L47.0267442,153.31938 L48.0445736,153.31938 L48.0445736,148.724031 L44.2453488,148.724031 L44.2453488,153.31938 L45.2732558,153.31938 Z M49.8585271,153.31938 L49.8585271,152.845736 L51.7027132,152.845736 L51.7027132,153.31938 L52.7507752,153.31938 L52.7507752,148.724031 L48.8306202,148.724031 L48.8306202,153.31938 L49.8585271,153.31938 Z M47.0267442,151.868217 L45.2732558,151.868217 L45.2732558,149.711628 L47.0267442,149.711628 L47.0267442,151.868217 Z M51.7027132,151.868217 L49.8585271,151.868217 L49.8585271,149.711628 L51.7027132,149.711628 L51.7027132,151.868217 Z M59.7949612,153.430233 C60.3693798,153.430233 60.6616279,153.148062 60.6616279,152.593798 L60.6616279,150.779845 L61.1251938,151.384496 C61.4174419,151.203101 61.6895349,151.011628 61.9313953,150.8 C62.1430233,150.981395 62.3949612,151.172868 62.6771318,151.354264 L63.322093,150.55814 C62.6872093,150.275969 62.2034884,149.953488 61.8608527,149.600775 L63.1104651,149.600775 L63.1104651,148.814729 L61.7096899,148.814729 L61.7096899,148.351163 L62.9492248,148.351163 L62.9492248,147.605426 L61.7096899,147.605426 L61.7096899,147.212403 L62.6065891,147.212403 L62.6065891,144.390698 L57.6686047,144.390698 L57.6686047,147.212403 L58.625969,147.212403 L58.625969,147.605426 L57.3965116,147.605426 L57.3965116,148.351163 L58.625969,148.351163 L58.625969,148.814729 L57.1143411,148.814729 L57.1143411,149.600775 L58.3841085,149.600775 C58.0414729,149.903101 57.577907,150.155039 56.9833333,150.356589 L57.4872093,151.182946 C57.7089147,151.062016 57.9306202,150.941085 58.1422481,150.820155 C58.4244186,151.021705 58.6562016,151.203101 58.8375969,151.374419 L59.3918605,150.820155 C59.2104651,150.658915 59.0189922,150.487597 58.7972868,150.326357 C59.0290698,150.104651 59.2306202,149.862791 59.4120155,149.600775 L60.9034884,149.600775 C61.0244186,149.812403 61.1755814,150.024031 61.3569767,150.235659 C61.1554264,150.417054 60.9236434,150.578295 60.6616279,150.739535 L60.6616279,149.862791 L59.653876,149.862791 L59.653876,152.362016 C59.653876,152.482946 59.5833333,152.553488 59.4624031,152.553488 C59.2507752,152.553488 59.0290698,152.533333 58.8073643,152.503101 L59.0290698,153.430233 L59.7949612,153.430233 Z M55.1895349,152.503101 L55.1895349,151.827907 L56.8926357,151.827907 L56.8926357,144.743411 L54.222093,144.743411 L54.222093,152.503101 L55.1895349,152.503101 Z M61.7096899,145.489147 L58.5755814,145.489147 L58.5755814,145.106202 L61.7096899,145.106202 L61.7096899,145.489147 Z M55.9453488,147.827132 L55.1895349,147.827132 L55.1895349,145.68062 L55.9453488,145.68062 L55.9453488,147.827132 Z M61.7096899,146.506977 L58.5755814,146.506977 L58.5755814,146.124031 L61.7096899,146.124031 L61.7096899,146.506977 Z M60.7724806,147.605426 L59.5732558,147.605426 L59.5732558,147.212403 L60.7724806,147.212403 L60.7724806,147.605426 Z M60.7724806,148.814729 L59.5732558,148.814729 L59.5732558,148.351163 L60.7724806,148.351163 L60.7724806,148.814729 Z M55.9453488,150.88062 L55.1895349,150.88062 L55.1895349,148.774419 L55.9453488,148.774419 L55.9453488,150.88062 Z M57.4872093,153.047287 C58.2833333,152.755039 58.9484496,152.422481 59.4825581,152.05969 L59.2709302,151.354264 C58.6662791,151.656589 57.9406977,151.918605 57.094186,152.130233 L57.4872093,153.047287 Z M62.5662791,153.248837 L63.0802326,152.432558 C62.4957364,152.079845 61.8608527,151.777519 61.1554264,151.515504 L60.722093,152.160465 C61.3468992,152.422481 61.9616279,152.785271 62.5662791,153.248837 Z M64.5616279,153.470543 C65.6903101,153.087597 66.5065891,152.543411 67.0104651,151.837984 C67.5344961,151.072093 67.8166667,150.054264 67.8670543,148.794574 L67.8670543,148.784496 L69.2879845,148.784496 L69.2879845,152.029457 C69.2879845,152.815504 69.6507752,153.218605 70.3763566,153.218605 L71.9786822,153.218605 C72.3817829,153.218605 72.674031,153.117829 72.8755814,152.916279 C73.0771318,152.704651 73.2182171,152.039535 73.3089147,150.931008 L72.2810078,150.608527 C72.2406977,151.394574 72.1903101,151.85814 72.1096899,152.01938 C72.0391473,152.160465 71.9282946,152.241085 71.7872093,152.241085 L70.6887597,152.241085 C70.4569767,152.241085 70.346124,152.089922 70.346124,151.807752 L70.346124,148.784496 L73.0972868,148.784496 L73.0972868,147.756589 L69.1872093,147.756589 L69.1872093,144.17907 L68.1189922,144.17907 L68.1189922,147.756589 L64.2189922,147.756589 L64.2189922,148.784496 L66.7988372,148.784496 L66.7988372,148.794574 C66.7585271,149.762016 66.5569767,150.537984 66.174031,151.132558 C65.7910853,151.686822 65.0554264,152.150388 63.9670543,152.533333 L64.5616279,153.470543 Z M71.1321705,147.474419 C71.6662791,146.708527 72.0996124,145.922481 72.4321705,145.096124 L71.4445736,144.622481 C71.122093,145.39845 70.6988372,146.184496 70.1647287,146.970543 L71.1321705,147.474419 Z M66.2344961,147.474419 L67.2321705,146.970543 C66.8089147,146.154264 66.3655039,145.408527 65.901938,144.723256 L64.9042636,145.196899 C65.377907,145.862016 65.8213178,146.627907 66.2344961,147.474419 Z M79.2647287,153.510853 L79.2647287,151.545736 L83.2957364,151.545736 L83.2957364,150.548062 L79.2647287,150.548062 L79.2647287,149.651163 C79.4864341,149.610853 79.7182171,149.58062 79.9600775,149.54031 C80.0205426,149.721705 80.0910853,149.913178 80.1616279,150.114729 L81.0988372,149.691473 C80.8569767,149.046512 80.5848837,148.451938 80.2624031,147.897674 L79.3755814,148.189922 C79.4662791,148.36124 79.5569767,148.552713 79.6476744,148.764341 L78.3476744,148.945736 C79.0027132,148.36124 79.7686047,147.534884 80.6554264,146.466667 L79.7081395,146.103876 C79.4864341,146.386047 79.2748062,146.65814 79.0732558,146.920155 L78.2065891,147.000775 C78.4686047,146.69845 78.7205426,146.325581 78.9422481,145.892248 L83.1344961,145.892248 L83.1344961,144.904651 L79.194186,144.904651 C79.0631783,144.582171 78.9321705,144.3 78.8112403,144.048062 L77.7430233,144.229457 C77.8841085,144.431008 78.0151163,144.662791 78.1360465,144.904651 L74.3267442,144.904651 L74.3267442,145.892248 L77.8639535,145.892248 C77.5616279,146.486822 77.1887597,146.879845 76.7453488,147.071318 L76.9368217,147.897674 C77.4205426,147.857364 77.8841085,147.827132 78.3275194,147.786822 C77.8034884,148.371318 77.370155,148.734109 77.0476744,148.895349 C76.9267442,148.925581 76.8158915,148.955814 76.7050388,148.975969 L76.9166667,149.893023 C77.35,149.862791 77.7732558,149.822481 78.1965116,149.782171 L78.1965116,150.548062 L74.1856589,150.548062 L74.1856589,151.545736 L78.1965116,151.545736 L78.1965116,153.510853 L79.2647287,153.510853 Z M81.4616279,147.917829 C81.9554264,147.565116 82.4290698,147.121705 82.8724806,146.587597 L82.0562016,145.982946 C81.6732558,146.436434 81.2600775,146.829457 80.7965116,147.172093 L81.4616279,147.917829 Z M75.9089147,147.927907 L76.6344961,147.202326 C76.2414729,146.799225 75.7577519,146.396124 75.1934109,146.013178 L74.477907,146.708527 C75.0926357,147.14186 75.5662791,147.544961 75.9089147,147.927907 Z M82.3081395,150.175194 L83.0841085,149.409302 C82.6608527,148.935659 82.1368217,148.462016 81.522093,147.988372 L80.8569767,148.623256 C81.4817829,149.177519 81.9655039,149.691473 82.3081395,150.175194 Z M75.0926357,150.144961 C75.6569767,149.731783 76.2011628,149.207752 76.7251938,148.582946 L75.9391473,147.99845 C75.4755814,148.522481 74.9616279,148.975969 74.3872093,149.358915 L75.0926357,150.144961 Z" id="提高產品曝光率" fill="#FFFFFF" fill-rule="nonzero"></path>
                <ellipse id="Oval" fill="#427FE0" cx="105.869671" cy="259.247068" rx="48.1225775" ry="48.0514073"></ellipse>
                <path d="M76.7220446,283.365359 L76.7220446,282.54656 L74.4621609,282.54656 L74.4621609,281.269234 L76.2307655,281.269234 L76.2307655,278.28062 L74.4703488,278.28062 L74.4703488,277.150678 L76.5992248,277.150678 L76.5992248,276.33188 L69.5248062,276.33188 L69.5248062,277.150678 L71.6700581,277.150678 L71.6700581,278.28062 L69.9014535,278.28062 L69.9014535,281.277422 L71.6700581,281.277422 L71.6700581,282.54656 L69.4183624,282.54656 L69.4183624,283.365359 L76.7220446,283.365359 Z M73.6106105,282.54656 L72.5216085,282.54656 L72.5216085,280.458624 L70.7530039,280.458624 L70.7530039,279.091231 L72.5216085,279.091231 L72.5216085,277.150678 L73.6187984,277.150678 L73.6187984,279.091231 L75.3792151,279.091231 L75.3792151,280.450436 L73.6106105,280.450436 L73.6106105,282.54656 Z M83.2396802,283.627374 C83.8374031,283.627374 84.2468023,283.47999 84.4596899,283.193411 C84.6725775,282.906831 84.7790213,281.916085 84.7790213,280.212984 L82.0524225,280.212984 L82.0524225,279.631638 L84.0994186,279.631638 L84.0994186,278.894719 L82.0524225,278.894719 L82.0524225,278.337936 L84.1157946,278.337936 L84.1157946,277.609205 L82.0524225,277.609205 L82.0524225,277.06061 L84.4924419,277.06061 L84.4924419,276.299128 L78.3923934,276.299128 L78.3923934,280.966279 L83.911095,280.966279 C83.911095,281.719574 83.878343,282.219041 83.8128391,282.46468 C83.7473353,282.71032 83.5016957,282.841328 83.0922965,282.841328 C82.838469,282.841328 82.5682655,282.824952 82.2734981,282.7922 L82.4781977,283.60281 C82.7402132,283.619186 82.9940407,283.627374 83.2396802,283.627374 Z M81.2172481,277.609205 L79.2439438,277.609205 L79.2439438,277.06061 L81.2172481,277.06061 L81.2172481,277.609205 Z M81.2172481,278.894719 L79.2439438,278.894719 L79.2439438,278.337936 L81.2172481,278.337936 L81.2172481,278.894719 Z M81.2172481,280.212984 L79.2439438,280.212984 L79.2439438,279.631638 L81.2172481,279.631638 L81.2172481,280.212984 Z M82.6665213,282.54656 L83.3952519,282.366424 C83.2642442,281.899709 83.1250484,281.49031 82.9694767,281.130039 L82.281686,281.36749 C82.4290698,281.744138 82.5600775,282.137161 82.6665213,282.54656 Z M78.4087694,283.570058 C78.6544089,282.964147 78.8591085,282.251793 79.0228682,281.44937 L78.2777616,281.244671 C78.089438,282.063469 77.8683624,282.734884 77.6145349,283.275291 L78.4087694,283.570058 Z M81.3073159,283.046027 L82.0524225,282.759448 C81.9459787,282.317297 81.798595,281.826017 81.6020833,281.293798 L80.8733527,281.49031 C81.0371124,281.997965 81.1844961,282.513808 81.3073159,283.046027 Z M79.661531,283.316231 L80.4721415,283.209787 C80.4393895,282.440116 80.3656977,281.826017 80.2674419,281.383866 L79.5059593,281.473934 C79.5878391,281.907897 79.6369671,282.521996 79.661531,283.316231 Z M87.1125969,278.026793 L87.7021318,277.437258 C87.3582364,277.011483 86.9406492,276.577519 86.4411822,276.143556 L85.8598353,276.692151 C86.4002422,277.167054 86.8178295,277.617393 87.1125969,278.026793 Z M91.3130329,282.374612 C91.7224322,282.374612 91.9353198,282.153537 91.9353198,281.711386 L91.9353198,280.016473 L92.5002907,279.934593 C92.5494186,280.065601 92.6067345,280.204797 92.6640504,280.360368 L93.2290213,280.057413 C93.0488857,279.533382 92.844186,279.058479 92.6067345,278.616328 L92.0090116,278.878343 C92.0908915,279.033915 92.1809593,279.205862 92.2628391,279.385998 C91.9189438,279.435126 91.5668605,279.476066 91.2147771,279.508818 C91.6896802,279.058479 92.2464632,278.419816 92.9015019,277.584641 L92.1973353,277.314438 C92.0253876,277.55189 91.8616279,277.772965 91.7060562,277.977665 L91.1492733,278.026793 C91.3539729,277.748401 91.5586725,277.437258 91.7551841,277.109738 C92.2300872,277.052422 92.6476744,276.954167 93.0079457,276.814971 L92.6394864,276.184496 C91.9926357,276.405572 91.2065891,276.520203 90.2895349,276.520203 L90.5269864,277.18343 C90.6579942,277.18343 90.7971899,277.175242 90.9363857,277.175242 C90.7890019,277.437258 90.6743702,277.633769 90.5761143,277.772965 C90.4451066,277.953101 90.2813469,278.059545 90.1012112,278.075921 L90.1994671,278.673643 C90.5924903,278.640891 90.9281977,278.616328 91.2147771,278.591764 C90.8135659,279.066667 90.4860465,279.361434 90.240407,279.492442 C90.1585271,279.517006 90.0766473,279.54157 89.9865795,279.557946 L90.1503391,280.188421 C90.5106105,280.155669 90.8626938,280.131105 91.2147771,280.098353 L91.2147771,281.514874 C91.2147771,281.629506 91.1574612,281.69501 91.0428295,281.69501 C90.8954457,281.69501 90.748062,281.678634 90.5843023,281.645882 L90.748062,282.374612 L91.3130329,282.374612 Z M88.668314,282.284545 C89.159593,282.284545 89.4134205,282.014341 89.4134205,281.49031 L89.4134205,279.549758 C89.5935562,279.50063 89.7818798,279.443314 89.9702035,279.385998 L89.9702035,278.616328 C89.7900678,278.673643 89.6099322,278.730959 89.4134205,278.780087 L89.4134205,278.141424 C89.7409399,277.732025 89.9865795,277.396318 90.1339632,277.126114 L90.1339632,276.421948 L88.0296512,276.421948 L88.0296512,277.175242 L89.2742248,277.175242 C89.0940891,277.420882 88.8975775,277.658333 88.6765019,277.895785 L88.6765019,278.952035 C88.3899225,279.009351 88.095155,279.058479 87.7921996,279.091231 L87.9805233,279.860901 C88.2097868,279.811773 88.4472384,279.770833 88.6765019,279.721705 L88.6765019,281.277422 C88.6765019,281.473934 88.5946221,281.57219 88.4390504,281.57219 C88.3407946,281.57219 88.1606589,281.547626 87.9068314,281.514874 L88.103343,282.284545 L88.668314,282.284545 Z M86.3593023,283.701066 C86.7277616,282.964147 86.9815891,282.595688 87.1289729,282.595688 C87.2272287,282.595688 87.3254845,282.661192 87.4401163,282.800388 C87.6857558,283.078779 87.9805233,283.267103 88.3080426,283.365359 C88.660126,283.447238 89.1104651,283.496366 89.6508721,283.504554 C90.1912791,283.512742 90.6907461,283.52093 91.1492733,283.52093 L93.0243217,283.52093 L93.2290213,282.677568 C93.0079457,282.693944 92.6886143,282.71032 92.2710271,282.726696 C91.8452519,282.726696 91.4358527,282.734884 91.0264535,282.734884 C90.3714147,282.734884 89.8064438,282.726696 89.3233527,282.718508 C88.8320736,282.702132 88.4718023,282.636628 88.2261628,282.513808 C88.0296512,282.407364 87.8331395,282.243605 87.6366279,282.030717 L87.5465601,281.940649 L87.5465601,278.829215 L85.7452035,278.829215 L85.7452035,279.615262 L86.7441376,279.615262 L86.7441376,281.883333 C86.4329942,282.071657 86.0972868,282.481056 85.7288275,283.111531 L86.3593023,283.701066 Z M92.7131783,282.079845 L93.2863372,281.686822 C93.1143895,281.32655 92.876938,280.900775 92.5821705,280.409496 L92.0253876,280.753391 C92.320155,281.244671 92.5494186,281.686822 92.7131783,282.079845 Z M90.1912791,282.161725 C90.4860465,281.760514 90.748062,281.28561 90.9773256,280.737016 L90.3632267,280.425872 C90.1503391,280.933527 89.8965116,281.375678 89.6017442,281.73595 L90.1912791,282.161725 Z M94.8748062,283.578246 C95.4315891,283.578246 95.7181686,283.299855 95.7181686,282.743072 L95.7181686,280.499564 L96.3077035,280.204797 L96.3077035,279.33687 C96.1111919,279.435126 95.9146802,279.54157 95.7181686,279.639826 L95.7181686,278.378876 L96.4468992,278.378876 L96.4468992,277.55189 L95.7181686,277.55189 L95.7181686,276.102616 L94.8502422,276.102616 L94.8502422,277.55189 L93.9577519,277.55189 L93.9577519,278.378876 L94.8502422,278.378876 L94.8502422,280.000097 C94.5145349,280.114729 94.1706395,280.212984 93.8267442,280.294864 L94.0396318,281.162791 C94.3180233,281.072723 94.5882267,280.974467 94.8502422,280.876211 L94.8502422,282.521996 C94.8502422,282.702132 94.7601744,282.800388 94.5800388,282.800388 C94.3835271,282.800388 94.1788275,282.784012 93.9659399,282.75126 L94.1542636,283.578246 L94.8748062,283.578246 Z M100.696463,279.312306 L100.696463,276.323692 L96.9791182,276.323692 L96.9791182,279.312306 L100.696463,279.312306 Z M99.8612888,277.494574 L97.8061047,277.494574 L97.8061047,277.011483 L99.8612888,277.011483 L99.8612888,277.494574 Z M99.8612888,278.624516 L97.8061047,278.624516 L97.8061047,278.133236 L99.8612888,278.133236 L99.8612888,278.624516 Z M96.6188469,283.651938 C96.9054264,283.275291 97.1346899,282.874079 97.3148256,282.448304 C97.5440891,282.800388 97.7897287,283.046027 98.0681202,283.185223 C98.4775194,283.381734 99.222626,283.47999 100.319816,283.488178 C100.573643,283.496366 100.860223,283.504554 101.171366,283.504554 L101.408818,282.677568 C101.097674,282.71032 100.712839,282.734884 100.2625,282.734884 C99.8776647,282.734884 99.5419574,282.71032 99.2471899,282.677568 L99.2471899,281.883333 L100.811095,281.883333 L100.811095,281.130039 L99.2471899,281.130039 L99.2471899,280.450436 L101.179554,280.450436 L101.179554,279.688953 L96.4550872,279.688953 L96.4550872,280.450436 L98.4202035,280.450436 L98.4202035,282.481056 C98.4120155,282.481056 98.4038275,282.472868 98.4038275,282.472868 C98.0926841,282.34186 97.8224806,282.055281 97.5768411,281.61313 C97.634157,281.351114 97.6750969,281.072723 97.6914729,280.777955 L96.9381783,280.687888 C96.8726744,281.57219 96.553343,282.374612 95.9801841,283.095155 L96.6188469,283.651938 Z M109.457607,277.461822 L109.457607,276.675775 L106.297045,276.675775 C106.231541,276.438324 106.157849,276.217248 106.092345,276.020736 L105.134351,276.184496 C105.216231,276.33188 105.289922,276.49564 105.363614,276.675775 L102.162112,276.675775 L102.162112,277.461822 L109.457607,277.461822 Z M108.213033,279.533382 L108.213033,277.797529 L103.423062,277.797529 L103.423062,279.533382 L108.213033,279.533382 Z M107.394234,278.894719 L104.24186,278.894719 L104.24186,278.436192 L107.394234,278.436192 L107.394234,278.894719 Z M103.316618,283.651938 L103.316618,280.59782 L108.311289,280.59782 L108.311289,282.603876 C108.311289,282.800388 108.163905,282.898643 107.877326,282.898643 L107.246851,282.874079 L107.45155,283.627374 L108.122965,283.627374 C108.786192,283.627374 109.121899,283.340795 109.121899,282.775824 L109.121899,279.860901 L102.506008,279.860901 L102.506008,283.651938 L103.316618,283.651938 Z M107.508866,282.693944 L107.508866,280.925339 L104.135417,280.925339 L104.135417,282.693944 L107.508866,282.693944 Z M106.755572,282.063469 L104.888711,282.063469 L104.888711,281.555814 L106.755572,281.555814 L106.755572,282.063469 Z M112.863808,278.665455 C113.215891,278.337936 113.543411,277.961289 113.846366,277.519138 L116.646657,277.519138 C116.564777,277.797529 116.458333,278.051357 116.343702,278.272432 L117.096996,278.48532 C117.260756,278.084109 117.391764,277.682897 117.498207,277.273498 L117.498207,276.749467 L114.313081,276.749467 C114.394961,276.585707 114.476841,276.421948 114.558721,276.25 L113.74811,276.061676 C113.346899,276.905039 112.880184,277.560078 112.339777,278.026793 L112.863808,278.665455 Z M112.020446,280.671512 L112.020446,277.55189 C112.274273,277.158866 112.511725,276.724903 112.7328,276.258188 L111.897626,276.069864 C111.389971,277.109738 110.808624,277.912161 110.137209,278.468944 L110.677616,279.123983 C110.841376,278.968411 111.013324,278.804651 111.185271,278.624516 L111.185271,280.671512 L112.020446,280.671512 Z M114.665165,280.696076 C115.17282,280.696076 115.426647,280.409496 115.426647,279.852713 L115.426647,277.813905 L114.575097,277.813905 L114.575097,279.648014 C114.575097,279.860901 114.509593,279.967345 114.386773,279.967345 C114.214826,279.967345 114.03469,279.942781 113.838178,279.910029 L114.026502,280.696076 L114.665165,280.696076 Z M116.785853,280.475 L117.514583,280.098353 C117.211628,279.508818 116.867733,278.976599 116.474709,278.493508 L115.770543,278.812839 C116.139002,279.29593 116.474709,279.852713 116.785853,280.475 Z M113.158576,280.450436 C113.567975,279.991909 113.91187,279.45969 114.206638,278.837403 L113.527035,278.501696 C113.248643,279.074855 112.904748,279.574322 112.511725,279.991909 L113.158576,280.450436 Z M117.154312,283.095155 L117.866667,282.595688 C117.588275,282.055281 117.195252,281.432994 116.679409,280.712452 L115.98343,281.146415 C116.474709,281.858769 116.859545,282.50562 117.154312,283.095155 Z M114.444089,282.374612 L115.107316,281.916085 C114.910804,281.57219 114.616037,281.179167 114.23939,280.737016 L113.584351,281.146415 C113.944622,281.596754 114.231202,282.006153 114.444089,282.374612 Z M115.189196,283.537306 C115.524903,283.537306 115.770543,283.463614 115.934302,283.332607 C116.114438,283.193411 116.237258,282.75126 116.302762,281.997965 L115.492151,281.73595 C115.467587,282.210853 115.418459,282.489244 115.336579,282.5875 C115.262888,282.677568 115.164632,282.726696 115.033624,282.726696 L113.387839,282.726696 C113.207703,282.726696 113.117636,282.620252 113.117636,282.407364 L113.117636,280.949903 L112.249709,280.949903 L112.249709,282.5875 C112.249709,283.217975 112.536289,283.537306 113.125824,283.537306 L115.189196,283.537306 Z M111.021512,283.308043 C111.381783,282.702132 111.660174,281.997965 111.856686,281.179167 L111.0297,281.015407 C110.882316,281.65407 110.644864,282.268169 110.300969,282.841328 L111.021512,283.308043 Z M124.425242,283.570058 C125.129409,283.570058 125.522432,283.283479 125.604312,282.71032 C125.686192,282.038905 125.727132,280.2703 125.727132,277.404506 L123.237984,277.404506 C123.360804,277.011483 123.467248,276.593895 123.549128,276.151744 L122.705766,276.0453 C122.509254,277.167054 122.148983,278.11686 121.608576,278.886531 L122.124419,279.566134 C122.427374,279.17311 122.68939,278.730959 122.910465,278.23968 L124.891957,278.23968 C124.875581,280.55688 124.851017,281.907897 124.80189,282.300921 C124.752762,282.620252 124.580814,282.784012 124.286047,282.784012 C124.015843,282.784012 123.696512,282.767636 123.33624,282.743072 L123.54094,283.52093 C123.966715,283.553682 124.261483,283.570058 124.425242,283.570058 Z M119.4797,283.381734 L119.4797,282.734884 L120.691521,282.734884 L120.691521,283.144283 L121.51032,283.144283 L121.51032,277.404506 L120.265746,277.404506 C120.41313,277.027859 120.53595,276.610271 120.626017,276.16812 L119.766279,276.053488 C119.700775,276.520203 119.594331,276.970543 119.446948,277.404506 L118.660901,277.404506 L118.660901,283.381734 L119.4797,283.381734 Z M120.691521,279.639826 L119.4797,279.639826 L119.4797,278.206928 L120.691521,278.206928 L120.691521,279.639826 Z M123.524564,281.621318 L124.212355,281.146415 C123.925775,280.63876 123.524564,280.057413 123.000533,279.394186 L122.304554,279.828149 C122.812209,280.483188 123.221609,281.080911 123.524564,281.621318 Z M120.691521,281.948837 L119.4797,281.948837 L119.4797,280.401308 L120.691521,280.401308 L120.691521,281.948837 Z M131.229457,283.651938 L131.229457,276.08624 L130.418847,276.08624 L130.418847,277.30625 L129.223401,277.30625 L129.223401,278.075921 L130.418847,278.075921 L130.418847,279.205862 L129.387161,279.205862 L129.387161,279.975533 L130.418847,279.975533 L130.418847,281.162791 L128.928634,281.162791 L128.928634,281.932461 L130.418847,281.932461 L130.418847,283.651938 L131.229457,283.651938 Z M132.776986,283.651938 L132.776986,281.932461 L134.14438,281.932461 L134.14438,281.162791 L132.776986,281.162791 L132.776986,279.975533 L133.882364,279.975533 L133.882364,279.205862 L132.776986,279.205862 L132.776986,278.075921 L134.087064,278.075921 L134.087064,277.30625 L132.776986,277.30625 L132.776986,276.08624 L131.958188,276.08624 L131.958188,283.651938 L132.776986,283.651938 Z M127.544864,283.578246 C128.118023,283.578246 128.404603,283.308043 128.404603,282.784012 L128.404603,280.565068 C128.625678,280.466812 128.846754,280.360368 129.067829,280.253924 L129.067829,279.37781 C128.846754,279.492442 128.625678,279.607074 128.404603,279.705329 L128.404603,278.378876 L129.043266,278.378876 L129.043266,277.55189 L128.404603,277.55189 L128.404603,276.102616 L127.569428,276.102616 L127.569428,277.55189 L126.783382,277.55189 L126.783382,278.378876 L127.569428,278.378876 L127.569428,280.032849 C127.250097,280.139293 126.930766,280.22936 126.611434,280.294864 L126.824322,281.162791 C127.069961,281.080911 127.323789,280.990843 127.569428,280.900775 L127.569428,282.571124 C127.569428,282.718508 127.462984,282.800388 127.250097,282.800388 C127.053585,282.800388 126.840698,282.784012 126.611434,282.75126 L126.799758,283.578246 L127.544864,283.578246 Z M137.517829,283.635562 L137.517829,283.209787 L140.899467,283.209787 L140.899467,283.635562 L141.767393,283.635562 L141.767393,280.024661 L138.729651,280.024661 C140.056105,279.345058 140.981347,278.501696 141.489002,277.486386 L141.489002,276.733091 L138.475824,276.733091 C138.606831,276.544767 138.721463,276.356444 138.819719,276.159932 L137.878101,276.0453 C137.39501,276.880475 136.461579,277.592829 135.085998,278.165988 L135.659157,278.911095 C136.510707,278.501696 137.206686,278.043169 137.763469,277.535514 L140.514632,277.535514 C140.170736,278.092297 139.638517,278.591764 138.926163,279.025727 C138.590455,278.747335 138.148304,278.436192 137.607897,278.092297 L136.862791,278.550824 C137.39501,278.853779 137.837161,279.140359 138.181056,279.41875 C137.280378,279.828149 136.158624,280.155669 134.807607,280.401308 L135.249758,281.220107 C135.741037,281.105475 136.21594,280.974467 136.658091,280.843459 L136.658091,283.635562 L137.517829,283.635562 Z M140.899467,282.3828 L137.517829,282.3828 L137.517829,280.818895 L140.899467,280.818895 L140.899467,282.3828 Z" id="亞馬遜提高您的排名" fill="#FFFFFF" fill-rule="nonzero"></path>
                <text id="提高流量" font-family="PingFangSC-Semibold, PingFang SC" font-size="18" font-weight="500" fill="#FFFFFF">
                    <tspan x="214.678295" y="293.612403">提高流量</tspan>
                </text>
                <ellipse id="Oval" fill="#427FE0" cx="250.569283" cy="260.572624" rx="48.1225775" ry="48.0514073"></ellipse>
            </g>
            <polygon id="Triangle" fill="#FF5254" transform="translate(181.242747, 272.995864) rotate(-330.000000) translate(-181.242747, -272.995864) " points="181.249383 262.711409 193.188197 283.272612 169.297297 283.280319"></polygon>
            <polygon id="Triangle" fill="#FF5254" transform="translate(275.008128, 210.322035) rotate(-36.000000) translate(-275.008128, -210.322035) " points="275.00084 200.036659 286.952728 220.60741 263.063528 220.598947"></polygon>
            <polygon id="Triangle" fill="#FF5254" transform="translate(252.224370, 84.567232) rotate(138.000000) translate(-252.224370, -84.567232) " points="252.216749 74.2809762 264.16806 94.8534878 240.28068 94.8446376"></polygon>
            <polygon id="Triangle" fill="#FF5254" transform="translate(105.533531, 80.585525) rotate(46.000000) translate(-105.533531, -80.585525) " points="105.54119 70.2987239 117.476601 90.863432 93.5904617 90.8723255"></polygon>
            <g id="icn_traffic" transform="translate(279.651163, 114.001938)" fill="#FFFFFF" fill-rule="nonzero">
                <path d="M34.6414729,14.9413221 L28.1461967,14.9413221 L28.1461967,12.5934001 C31.8268532,11.7396102 34.6414729,8.3244509 34.6414729,4.26894918 L28.1461967,4.26894918 L28.1461967,2.13447459 C28.1461967,0.853789836 27.2801599,0 25.9811047,0 L8.66036822,0 C7.36131298,0 6.49527616,0.853789836 6.49527616,2.13447459 L6.49527616,4.26894918 L0,4.26894918 C0,8.3244509 2.81461967,11.5261628 6.49527616,12.5934001 L6.49527616,14.9413221 L0,14.9413221 C0,18.9968239 2.81461967,22.1985357 6.49527616,23.265773 L6.49527616,25.6136951 L0,25.6136951 C0,29.6691968 2.81461967,32.8709087 6.49527616,33.938146 L6.49527616,36.286068 C6.49527616,37.5667528 7.36131298,38.4205426 8.66036822,38.4205426 L25.9811047,38.4205426 C27.2801599,38.4205426 28.1461967,37.5667528 28.1461967,36.286068 L28.1461967,33.938146 C31.8268532,33.0843562 34.6414729,29.6691968 34.6414729,25.6136951 L28.1461967,25.6136951 L28.1461967,23.265773 C31.8268532,22.1985357 34.6414729,18.9968239 34.6414729,14.9413221 Z M17.3207364,34.1515935 C14.9391352,34.1515935 12.9905523,32.2305663 12.9905523,29.8826443 C12.9905523,27.5347222 14.9391352,25.6136951 17.3207364,25.6136951 C19.7023377,25.6136951 21.6509205,27.5347222 21.6509205,29.8826443 C21.6509205,32.2305663 19.7023377,34.1515935 17.3207364,34.1515935 Z M17.3207364,23.4792205 C14.9391352,23.4792205 12.9905523,21.5581934 12.9905523,19.2102713 C12.9905523,16.8623493 14.9391352,14.9413221 17.3207364,14.9413221 C19.7023377,14.9413221 21.6509205,16.8623493 21.6509205,19.2102713 C21.6509205,21.5581934 19.7023377,23.4792205 17.3207364,23.4792205 Z M17.3207364,12.8068475 C14.9391352,12.8068475 12.9905523,10.8858204 12.9905523,8.53789836 C12.9905523,6.18997631 14.9391352,4.26894918 17.3207364,4.26894918 C19.7023377,4.26894918 21.6509205,6.18997631 21.6509205,8.53789836 C21.6509205,10.8858204 19.7023377,12.8068475 17.3207364,12.8068475 Z" id="Shape"></path>
            </g>
            <g id="icn_conversion" transform="translate(226.114341, 248.158915)" fill="#FFFFFF" fill-rule="nonzero">
                <path d="M23.3042636,0 C17.4400667,0.308543482 11.9431009,2.39493727 7.55813953,5.97680392 L14.0608267,11.9354367 C15.4916797,11.4698958 17.031195,11.2155019 18.6341626,11.2155019 C20.2732189,11.2155019 21.8460468,11.4811619 23.3042636,11.9670543 L23.3042636,0 Z" id="Path"></path>
                <path d="M29.1910017,15.746124 L40.9399225,5.49797975 C36.8467208,2.20867992 31.8107114,0.294056087 26.4534884,0 L26.4534884,13.353478 C27.4800086,14.0241577 28.4019827,14.8306391 29.1910017,15.746124 L29.1910017,15.746124 Z" id="Path"></path>
                <path d="M0,24.3944795 L0,25.8236434 L5.90661804,25.8236434 L5.90661804,24.3944795 C5.90661804,19.8803314 8.32194796,15.902492 11.9670543,13.6065253 L6.3684571,8.1879845 C2.25189813,12.6574713 0,18.3581231 0,24.3944795 Z" id="Path"></path>
                <path d="M41.5697674,25.8236434 L49.127907,25.8236434 L49.127907,24.3848542 C49.127907,22.292615 48.869214,20.2408415 48.3696434,18.2655039 L41.5697674,25.8236434 Z" id="Path"></path>
                <path d="M24.8789247,25.1937984 C23.2798488,25.1937984 21.7762577,25.8163034 20.6456412,26.9463953 C18.311918,29.2794256 18.311918,33.0752256 20.6456412,35.4082558 C21.7762577,36.5383477 23.2798488,37.1608527 24.8789247,37.1608527 C26.4776108,37.1608527 27.9812021,36.5383477 29.1118184,35.4082558 C31.4459313,33.0752256 31.4459313,29.2794256 29.1118184,26.9463953 C27.9812021,25.8163034 26.4776108,25.1937984 24.8789247,25.1937984 Z" id="Path"></path>
                <path d="M43.1028627,7.55813953 L25.8236434,23.3008095 C27.7654809,23.4960092 29.5664292,24.3456803 30.9649948,25.7422787 C32.397492,27.1727609 33.2092649,28.9914326 33.4032642,30.8624031 L49.127907,13.5728677 L49.127907,7.55813953 L43.1028627,7.55813953 Z" id="Path"></path>
            </g>
            <g id="icn_ranking" transform="translate(86.288760, 241.860465)" fill="#FFFFFF" fill-rule="nonzero">
                <path d="M12.5968992,15.746124 L0.629844961,15.746124 L0.629844961,38.4205426 L12.5968992,38.4205426 L12.5968992,15.746124 Z M5.08222367,24.4244694 L5.08222367,22.1831612 L8.01743755,22.1831612 L8.01743755,31.8174245 L5.78006131,31.8174245 L5.78006131,24.4244694 L5.08222367,24.4244694 Z" id="XMLID_882_"></path>
                <polygon id="XMLID_883_" points="27.0833333 28.3430233 36.5310078 28.3430233 36.5310078 38.4205426 27.0833333 38.4205426"></polygon>
                <polygon id="XMLID_884_" points="15.1162791 22.0445736 25.1937984 22.0445736 25.1937984 38.4205426 15.1162791 38.4205426"></polygon>
                <polygon id="XMLID_885_" points="2.52608898 11.9670543 6.61333377 9.92285994 10.7006552 11.9670543 9.9200773 7.63736143 13.2267442 4.57099702 8.65703281 3.93933281 6.61333377 0 4.56971137 3.93933281 0 4.57099702 3.30666688 7.63736143"></polygon>
            </g>
            <g id="icn_impressions" transform="translate(24.563953, 114.001938)" fill="#FFFFFF" fill-rule="nonzero">
                <path d="M23.2319863,9.2304865 C20.0655733,9.2304865 17.4923191,12.0299157 17.4923191,15.4746391 C17.4923191,18.9193625 20.0655733,21.7187918 23.2319863,21.7187918 C26.3983992,21.7187918 28.9716535,18.9193625 28.9716535,15.4746391 C28.9716535,12.0299157 26.3983096,9.2304865 23.2319863,9.2304865 Z" id="Path"></path>
                <path d="M23.2319863,0 C12.6719745,0 3.65378565,6.52932716 0,15.746124 C3.65378565,24.9628225 12.6719745,31.4922481 23.2319863,31.4922481 C33.802492,31.4922481 42.8101869,24.9628225 46.4639726,15.746124 C42.8101869,6.52932716 33.802492,0 23.2319863,0 Z M23.2319863,26.0625501 C17.3480258,26.0625501 12.5726043,21.3191255 12.5726043,15.4745895 C12.5726043,9.63005351 17.3480258,4.88672815 23.2319863,4.88672815 C29.1159467,4.88672815 33.8913682,9.63015277 33.8913682,15.4746888 C33.8913682,21.3192248 29.1159467,26.0625501 23.2319863,26.0625501 Z" id="Shape"></path>
            </g>
            <polygon id="Triangle" fill="#FF5254" transform="translate(78.989242, 211.767841) rotate(-262.000000) translate(-78.989242, -211.767841) " points="78.9871295 201.479101 90.9281896 222.056581 67.0502938 222.054128"></polygon>
            <path d="M277.10155,172.394864 C277.872481,172.394864 278.269283,172.009399 278.269283,171.238469 L278.269283,168.132074 L279.085562,167.723934 L279.085562,166.52219 C278.813469,166.658236 278.541376,166.80562 278.269283,166.941667 L278.269283,165.195736 L279.278295,165.195736 L279.278295,164.050678 L278.269283,164.050678 L278.269283,162.043992 L277.067539,162.043992 L277.067539,164.050678 L275.831783,164.050678 L275.831783,165.195736 L277.067539,165.195736 L277.067539,167.440504 C276.602713,167.599225 276.12655,167.735271 275.650388,167.848643 L275.945155,169.050388 C276.33062,168.925678 276.704748,168.789632 277.067539,168.653585 L277.067539,170.932364 C277.067539,171.181783 276.942829,171.317829 276.693411,171.317829 C276.421318,171.317829 276.137888,171.295155 275.84312,171.249806 L276.103876,172.394864 L277.10155,172.394864 Z M285.162306,166.488178 L285.162306,162.350097 L280.015213,162.350097 L280.015213,166.488178 L285.162306,166.488178 Z M284.005911,163.971318 L281.160271,163.971318 L281.160271,163.302422 L284.005911,163.302422 L284.005911,163.971318 Z M284.005911,165.535853 L281.160271,165.535853 L281.160271,164.85562 L284.005911,164.85562 L284.005911,165.535853 Z M279.516376,172.496899 C279.913178,171.975388 280.23062,171.419864 280.480039,170.830329 C280.797481,171.317829 281.137597,171.657946 281.523062,171.850678 C282.089922,172.122771 283.121609,172.258818 284.640795,172.270155 C284.992248,172.281492 285.38905,172.292829 285.819864,172.292829 L286.148643,171.147771 C285.717829,171.19312 285.184981,171.227132 284.561434,171.227132 C284.028585,171.227132 283.56376,171.19312 283.15562,171.147771 L283.15562,170.048062 L285.321027,170.048062 L285.321027,169.005039 L283.15562,169.005039 L283.15562,168.06405 L285.831202,168.06405 L285.831202,167.00969 L279.289632,167.00969 L279.289632,168.06405 L282.010562,168.06405 L282.010562,170.875678 C281.999225,170.875678 281.987888,170.864341 281.987888,170.864341 C281.557074,170.682946 281.182946,170.286143 280.842829,169.673934 C280.92219,169.311143 280.978876,168.925678 281.00155,168.517539 L279.958527,168.392829 C279.867829,169.617248 279.425678,170.728295 278.632074,171.725969 L279.516376,172.496899 Z M297.29312,163.925969 L297.29312,162.837597 L292.916957,162.837597 C292.82626,162.508818 292.724225,162.202713 292.633527,161.93062 L291.307074,162.157364 C291.420446,162.361434 291.522481,162.588178 291.624516,162.837597 L287.191667,162.837597 L287.191667,163.925969 L297.29312,163.925969 Z M295.569864,166.794283 L295.569864,164.390795 L288.937597,164.390795 L288.937597,166.794283 L295.569864,166.794283 Z M294.436143,165.909981 L290.071318,165.909981 L290.071318,165.275097 L294.436143,165.275097 L294.436143,165.909981 Z M288.790213,172.496899 L288.790213,168.26812 L295.705911,168.26812 L295.705911,171.045736 C295.705911,171.317829 295.501841,171.453876 295.105039,171.453876 L294.232074,171.419864 L294.515504,172.462888 L295.445155,172.462888 C296.363469,172.462888 296.828295,172.066085 296.828295,171.283818 L296.828295,167.247771 L287.667829,167.247771 L287.667829,172.496899 L288.790213,172.496899 Z M294.594864,171.170446 L294.594864,168.721609 L289.923934,168.721609 L289.923934,171.170446 L294.594864,171.170446 Z M293.551841,170.297481 L290.966957,170.297481 L290.966957,169.594574 L293.551841,169.594574 L293.551841,170.297481 Z M307.632655,167.29312 L308.618992,166.612888 C308.199516,165.909981 307.598643,165.093702 306.805039,164.16405 L305.852713,164.753585 C306.056783,165.003004 306.260853,165.26376 306.464922,165.535853 C305.399225,165.660562 304.32219,165.762597 303.256492,165.83062 C303.585271,165.422481 303.959399,164.844283 304.378876,164.096027 L308.50562,164.096027 L308.50562,163.030329 L305.637306,163.030329 C305.50126,162.599516 305.353876,162.21405 305.217829,161.873934 L304.016085,162.078004 C304.163469,162.372771 304.299516,162.690213 304.435562,163.030329 L301.453876,163.030329 L301.453876,164.096027 L303.154457,164.096027 C302.57626,165.037016 302.100097,165.62655 301.725969,165.853295 C301.669283,165.887306 301.589922,165.921318 301.487888,165.955329 L301.748643,166.953004 C303.675969,166.828295 305.478585,166.669574 307.133818,166.488178 C307.315213,166.760271 307.473934,167.032364 307.632655,167.29312 Z M300.444864,164.379457 L301.283818,163.540504 C300.807655,163.053004 300.21812,162.565504 299.537888,162.089341 L298.687597,162.90562 C299.44719,163.427132 300.036725,163.925969 300.444864,164.379457 Z M300.206783,167.281783 L301.045736,166.442829 C300.569574,165.898643 299.968702,165.34312 299.265795,164.798934 L298.426841,165.615213 C299.197771,166.216085 299.787306,166.771609 300.206783,167.281783 Z M305.127132,172.270155 L305.127132,167.281783 L303.925388,167.281783 L303.925388,172.270155 L305.127132,172.270155 Z M301.39719,172.496899 C302.043411,171.952713 302.508236,171.306492 302.780329,170.580911 C303.029748,169.878004 303.177132,168.778295 303.222481,167.281783 L302.066085,167.281783 C302.020736,168.574225 301.907364,169.503876 301.714632,170.048062 C301.510562,170.62626 301.147771,171.125097 300.648934,171.544574 L301.39719,172.496899 Z M307.700678,172.394864 C308.210853,172.349516 308.539632,172.213469 308.687016,171.986725 C308.845736,171.748643 308.925097,171.079748 308.925097,169.980039 L307.893411,169.594574 C307.893411,170.116085 307.882074,170.535562 307.859399,170.841667 C307.848062,171.136434 307.780039,171.295155 307.643992,171.317829 L307.269864,171.317829 C307.179167,171.295155 307.133818,171.227132 307.133818,171.11376 L307.133818,167.281783 L306.011434,167.281783 L306.011434,171.351841 C306.011434,172.043411 306.419574,172.394864 307.235853,172.394864 L307.700678,172.394864 Z M299.707946,172.349516 C300.229457,171.079748 300.70562,169.719283 301.136434,168.279457 L300.093411,167.871318 C299.685271,169.231783 299.186434,170.569574 298.619574,171.862016 L299.707946,172.349516 Z M318.765795,165.082364 L318.765795,162.168702 L311.113178,162.168702 L311.113178,165.082364 L318.765795,165.082364 Z M317.632074,163.302422 L312.246899,163.302422 L312.246899,162.837597 L317.632074,162.837597 L317.632074,163.302422 Z M317.632074,164.424806 L312.246899,164.424806 L312.246899,163.959981 L317.632074,163.959981 L317.632074,164.424806 Z M320.035562,166.352132 L320.035562,165.513178 L309.809399,165.513178 L309.809399,166.352132 L320.035562,166.352132 Z M320.035562,172.304167 L320.035562,171.419864 L315.500678,171.419864 L315.500678,170.943702 L319.219283,170.943702 L319.219283,170.184109 L315.500678,170.184109 L315.500678,169.741957 L319.003876,169.741957 L319.003876,166.771609 L310.86376,166.771609 L310.86376,169.741957 L314.321609,169.741957 L314.321609,170.184109 L310.648353,170.184109 L310.648353,170.943702 L314.321609,170.943702 L314.321609,171.419864 L309.809399,171.419864 L309.809399,172.304167 L320.035562,172.304167 Z M314.321609,167.939341 L311.986143,167.939341 L311.986143,167.463178 L314.321609,167.463178 L314.321609,167.939341 Z M317.881492,167.939341 L315.500678,167.939341 L315.500678,167.463178 L317.881492,167.463178 L317.881492,167.939341 Z M317.881492,169.061725 L315.500678,169.061725 L315.500678,168.574225 L317.881492,168.574225 L317.881492,169.061725 Z M314.321609,169.061725 L311.986143,169.061725 L311.986143,168.574225 L314.321609,168.574225 L314.321609,169.061725 Z" id="提高流量" fill="#FFFFFF" fill-rule="nonzero"></path>
            <path d="M229.863178,304.032461 C230.634109,304.032461 231.030911,303.646996 231.030911,302.876066 L231.030911,299.769671 L231.84719,299.361531 L231.84719,298.159787 C231.575097,298.295833 231.303004,298.443217 231.030911,298.579264 L231.030911,296.833333 L232.039922,296.833333 L232.039922,295.688275 L231.030911,295.688275 L231.030911,293.681589 L229.829167,293.681589 L229.829167,295.688275 L228.593411,295.688275 L228.593411,296.833333 L229.829167,296.833333 L229.829167,299.078101 C229.364341,299.236822 228.888178,299.372868 228.412016,299.48624 L228.706783,300.687984 C229.092248,300.563275 229.466376,300.427229 229.829167,300.291182 L229.829167,302.569961 C229.829167,302.81938 229.704457,302.955426 229.455039,302.955426 C229.182946,302.955426 228.899516,302.932752 228.604748,302.887403 L228.865504,304.032461 L229.863178,304.032461 Z M237.923934,298.125775 L237.923934,293.987694 L232.776841,293.987694 L232.776841,298.125775 L237.923934,298.125775 Z M236.767539,295.608915 L233.921899,295.608915 L233.921899,294.940019 L236.767539,294.940019 L236.767539,295.608915 Z M236.767539,297.17345 L233.921899,297.17345 L233.921899,296.493217 L236.767539,296.493217 L236.767539,297.17345 Z M232.278004,304.134496 C232.674806,303.612984 232.992248,303.057461 233.241667,302.467926 C233.559109,302.955426 233.899225,303.295543 234.28469,303.488275 C234.85155,303.760368 235.883236,303.896415 237.402422,303.907752 C237.753876,303.919089 238.150678,303.930426 238.581492,303.930426 L238.910271,302.785368 C238.479457,302.830717 237.946609,302.864729 237.323062,302.864729 C236.790213,302.864729 236.325388,302.830717 235.917248,302.785368 L235.917248,301.685659 L238.082655,301.685659 L238.082655,300.642636 L235.917248,300.642636 L235.917248,299.701647 L238.592829,299.701647 L238.592829,298.647287 L232.05126,298.647287 L232.05126,299.701647 L234.77219,299.701647 L234.77219,302.513275 C234.760853,302.513275 234.749516,302.501938 234.749516,302.501938 C234.318702,302.320543 233.944574,301.92374 233.604457,301.311531 C233.683818,300.94874 233.740504,300.563275 233.763178,300.155136 L232.720155,300.030426 C232.629457,301.254845 232.187306,302.365891 231.393702,303.363566 L232.278004,304.134496 Z M250.054748,295.563566 L250.054748,294.475194 L245.678585,294.475194 C245.587888,294.146415 245.485853,293.84031 245.395155,293.568217 L244.068702,293.794961 C244.182074,293.999031 244.284109,294.225775 244.386143,294.475194 L239.953295,294.475194 L239.953295,295.563566 L250.054748,295.563566 Z M248.331492,298.43188 L248.331492,296.028391 L241.699225,296.028391 L241.699225,298.43188 L248.331492,298.43188 Z M247.197771,297.547578 L242.832946,297.547578 L242.832946,296.912694 L247.197771,296.912694 L247.197771,297.547578 Z M241.551841,304.134496 L241.551841,299.905717 L248.467539,299.905717 L248.467539,302.683333 C248.467539,302.955426 248.263469,303.091473 247.866667,303.091473 L246.993702,303.057461 L247.277132,304.100484 L248.206783,304.100484 C249.125097,304.100484 249.589922,303.703682 249.589922,302.921415 L249.589922,298.885368 L240.429457,298.885368 L240.429457,304.134496 L241.551841,304.134496 Z M247.356492,302.808043 L247.356492,300.359205 L242.685562,300.359205 L242.685562,302.808043 L247.356492,302.808043 Z M246.313469,301.935078 L243.728585,301.935078 L243.728585,301.232171 L246.313469,301.232171 L246.313469,301.935078 Z M260.394283,298.930717 L261.38062,298.250484 C260.961143,297.547578 260.360271,296.731298 259.566667,295.801647 L258.614341,296.391182 C258.818411,296.640601 259.022481,296.901357 259.22655,297.17345 C258.160853,297.298159 257.083818,297.400194 256.01812,297.468217 C256.346899,297.060078 256.721027,296.48188 257.140504,295.733624 L261.267248,295.733624 L261.267248,294.667926 L258.398934,294.667926 C258.262888,294.237112 258.115504,293.851647 257.979457,293.511531 L256.777713,293.715601 C256.925097,294.010368 257.061143,294.32781 257.19719,294.667926 L254.215504,294.667926 L254.215504,295.733624 L255.916085,295.733624 C255.337888,296.674612 254.861725,297.264147 254.487597,297.490891 C254.430911,297.524903 254.35155,297.558915 254.249516,297.592926 L254.510271,298.590601 C256.437597,298.465891 258.240213,298.307171 259.895446,298.125775 C260.076841,298.397868 260.235562,298.669961 260.394283,298.930717 Z M253.206492,296.017054 L254.045446,295.178101 C253.569283,294.690601 252.979748,294.203101 252.299516,293.726938 L251.449225,294.543217 C252.208818,295.064729 252.798353,295.563566 253.206492,296.017054 Z M252.968411,298.91938 L253.807364,298.080426 C253.331202,297.53624 252.730329,296.980717 252.027422,296.436531 L251.188469,297.25281 C251.959399,297.853682 252.548934,298.409205 252.968411,298.91938 Z M257.88876,303.907752 L257.88876,298.91938 L256.687016,298.91938 L256.687016,303.907752 L257.88876,303.907752 Z M254.158818,304.134496 C254.805039,303.59031 255.269864,302.944089 255.541957,302.218508 C255.791376,301.515601 255.93876,300.415891 255.984109,298.91938 L254.827713,298.91938 C254.782364,300.211822 254.668992,301.141473 254.47626,301.685659 C254.27219,302.263857 253.909399,302.762694 253.410562,303.182171 L254.158818,304.134496 Z M260.462306,304.032461 C260.972481,303.987112 261.30126,303.851066 261.448643,303.624322 C261.607364,303.38624 261.686725,302.717345 261.686725,301.617636 L260.655039,301.232171 C260.655039,301.753682 260.643702,302.173159 260.621027,302.479264 C260.60969,302.774031 260.541667,302.932752 260.40562,302.955426 L260.031492,302.955426 C259.940795,302.932752 259.895446,302.864729 259.895446,302.751357 L259.895446,298.91938 L258.773062,298.91938 L258.773062,302.989438 C258.773062,303.681008 259.181202,304.032461 259.997481,304.032461 L260.462306,304.032461 Z M252.469574,303.987112 C252.991085,302.717345 253.467248,301.35688 253.898062,299.917054 L252.855039,299.508915 C252.446899,300.86938 251.948062,302.207171 251.381202,303.499612 L252.469574,303.987112 Z M271.527422,296.719961 L271.527422,293.806298 L263.874806,293.806298 L263.874806,296.719961 L271.527422,296.719961 Z M270.393702,294.940019 L265.008527,294.940019 L265.008527,294.475194 L270.393702,294.475194 L270.393702,294.940019 Z M270.393702,296.062403 L265.008527,296.062403 L265.008527,295.597578 L270.393702,295.597578 L270.393702,296.062403 Z M272.79719,297.989729 L272.79719,297.150775 L262.571027,297.150775 L262.571027,297.989729 L272.79719,297.989729 Z M272.79719,303.941764 L272.79719,303.057461 L268.262306,303.057461 L268.262306,302.581298 L271.980911,302.581298 L271.980911,301.821705 L268.262306,301.821705 L268.262306,301.379554 L271.765504,301.379554 L271.765504,298.409205 L263.625388,298.409205 L263.625388,301.379554 L267.083236,301.379554 L267.083236,301.821705 L263.409981,301.821705 L263.409981,302.581298 L267.083236,302.581298 L267.083236,303.057461 L262.571027,303.057461 L262.571027,303.941764 L272.79719,303.941764 Z M267.083236,299.576938 L264.747771,299.576938 L264.747771,299.100775 L267.083236,299.100775 L267.083236,299.576938 Z M270.64312,299.576938 L268.262306,299.576938 L268.262306,299.100775 L270.64312,299.100775 L270.64312,299.576938 Z M270.64312,300.699322 L268.262306,300.699322 L268.262306,300.211822 L270.64312,300.211822 L270.64312,300.699322 Z M267.083236,300.699322 L264.747771,300.699322 L264.747771,300.211822 L267.083236,300.211822 L267.083236,300.699322 Z" id="提高流量" fill="#FFFFFF" fill-rule="nonzero"></path>
        </g>
    </g>
</svg>