<?xml version="1.0" encoding="UTF-8"?>
<svg width="261px" height="261px" viewBox="0 0 261 261" version="1.1" xmlns="http://www.w3.org/2000/svg" xmlns:xlink="http://www.w3.org/1999/xlink">
    <!-- Generator: Sketch 63.1 (92452) - https://sketch.com -->
    <title>img_infograph_mob</title>
    <desc>Created with Sketch.</desc>
    <defs>
        <linearGradient x1="46.7060004%" y1="-5.61656582%" x2="50.824924%" y2="38.569232%" id="linearGradient-1">
            <stop stop-color="#80C3F3" offset="0%"></stop>
            <stop stop-color="#4A90E2" offset="100%"></stop>
        </linearGradient>
    </defs>
    <g id="Page-1" stroke="none" stroke-width="1" fill="none" fill-rule="evenodd">
        <g id="Hubspot---Mobile" transform="translate(-58.000000, -8216.000000)" fill-rule="nonzero">
            <g id="img_infograph_mob" transform="translate(58.000000, 8216.000000)">
                <polygon id="Path" fill="#FF5254" points="0 0 261 0 261 24 0 24"></polygon>
                <path d="M0,239.888889 L108.75,239.888889 L108.75,248.333333 C108.75,255.318156 114.603795,261 121.8,261 L139.2,261 C146.396205,261 152.25,255.318156 152.25,248.333333 L152.25,239.888889 L261,239.888889 L261,223 L0,223 L0,239.888889 Z M143.55,239.888889 L143.55,248.333333 C143.55,250.662987 141.598025,252.555556 139.2,252.555556 L121.8,252.555556 C119.401976,252.555556 117.45,250.662987 117.45,248.333333 L117.45,239.888889 L143.55,239.888889 Z" id="Shape" fill="#FF5254"></path>
                <path d="M14,34 L14,212 L251,212 L251,34 L14,34 Z M79.8333333,64.3902439 L79.8333333,90.4390244 L98.4539844,72.0195844 C103.219221,76.7336322 106.166667,83.2458273 106.166667,90.4390244 C106.166667,104.825419 94.3768822,116.487805 79.8333333,116.487805 C65.2897844,116.487805 53.5,104.825419 53.5,90.4390244 C53.5,76.0526302 65.2897844,64.3902439 79.8333333,64.3902439 Z M40.3333333,198.97561 L31.5555556,198.97561 L31.5555556,190.292683 L40.3333333,190.292683 L40.3333333,198.97561 Z M31.5555556,90.4390244 L40.3333333,90.4390244 C40.3333333,111.98523 58.0539111,129.512195 79.8333333,129.512195 C101.612756,129.512195 119.333333,111.98523 119.333333,90.4390244 C119.333333,68.892819 101.612756,51.3658537 79.8333333,51.3658537 L79.8333333,42.6829268 C106.453832,42.6829268 128.111111,64.106182 128.111111,90.4390244 C128.111111,116.771867 106.453832,138.195122 79.8333333,138.195122 C53.212835,138.195122 31.5555556,116.771867 31.5555556,90.4390244 Z M57.8888889,198.97561 L49.1111111,198.97561 L49.1111111,190.292683 L57.8888889,190.292683 L57.8888889,198.97561 Z M220.277778,168.585366 C219.293877,168.585366 218.364047,168.389001 217.481134,168.093565 L193.772971,188.611625 C193.881244,189.156175 193.944444,189.716875 193.944444,190.292683 C193.944444,195.088046 190.014414,198.97561 185.166667,198.97561 C180.318919,198.97561 176.388889,195.088046 176.388889,190.292683 C176.388889,189.946885 176.452089,189.618323 176.491764,189.283119 L153.503116,172.228071 C152.444208,172.676153 151.280012,172.926829 150.055556,172.926829 C149.070821,172.926829 148.140244,172.730204 147.256498,172.434247 L123.551012,192.954174 C123.659022,193.49842 123.722222,194.058599 123.722222,194.634146 C123.722222,199.42951 119.792192,203.317073 114.944444,203.317073 C111.703689,203.317073 108.904631,201.559996 107.384144,198.97561 L66.6666667,198.97561 L66.6666667,190.292683 L107.384144,190.292683 C108.904631,187.708297 111.703645,185.95122 114.944444,185.95122 C115.928609,185.95122 116.858702,186.147844 117.741878,186.443281 L141.449208,165.925221 C141.340978,165.380671 141.277778,164.819711 141.277778,164.243902 C141.277778,159.448279 145.207808,155.560976 150.055556,155.560976 C154.903303,155.560976 158.833333,159.448279 158.833333,164.243902 C158.833333,164.5897 158.770133,164.918262 158.730458,165.253466 L181.719107,182.308515 C182.778014,181.860432 183.942211,181.609756 185.166667,181.609756 C186.151402,181.609756 187.081978,181.806641 187.965724,182.102339 L211.671211,161.581326 C211.5632,161.037341 211.5,160.477466 211.5,159.902439 C211.5,155.106815 215.430031,151.219512 220.277778,151.219512 C225.125525,151.219512 229.055556,155.106815 229.055556,159.902439 C229.055556,164.697802 225.125525,168.585366 220.277778,168.585366 Z M229.055556,129.512195 L132.5,129.512195 L132.5,120.829268 L145.666667,120.829268 L145.666667,99.1219512 L163.222222,99.1219512 L163.222222,73.0731707 L180.777778,73.0731707 L180.777778,86.097561 L198.333333,86.097561 L198.333333,51.3658537 L215.888889,51.3658537 L215.888889,120.829268 L229.055556,120.829268 L229.055556,129.512195 Z" id="Shape" fill="url(#linearGradient-1)"></path>
            </g>
        </g>
    </g>
</svg>