<?xml version="1.0" encoding="UTF-8"?>
<svg width="262px" height="376px" viewBox="0 0 262 376" version="1.1" xmlns="http://www.w3.org/2000/svg" xmlns:xlink="http://www.w3.org/1999/xlink">
    <!-- Generator: Sketch 63.1 (92452) - https://sketch.com -->
    <title>img_can_I_diy_amazon_automated_ads_tc_mob</title>
    <desc>Created with Sketch.</desc>
    <defs>
        <polygon id="path-1" points="0.42589153 -0.00121136286 37.8803872 -0.00121136286 37.8803872 62.4674243 0.42589153 62.4674243"></polygon>
    </defs>
    <g id="Page-1" stroke="none" stroke-width="1" fill="none" fill-rule="evenodd">
        <g id="img_can_I_diy_amazon_automated_ads_tc_mob">
            <g id="Group-112">
                <path d="M94.1046344,180.569051 C94.7767421,182.887362 95.098745,185.666393 93.5033673,187.471616 C92.3107858,188.822003 90.3887216,189.210349 88.6018986,189.393343 C86.8724506,189.571041 85.1318789,189.629881 83.3954054,189.571041 C81.9434653,189.521026 80.4124882,189.359215 79.2392269,188.498969 C77.8610548,187.488091 77.2679841,185.738178 76.7931763,184.091236 C74.9460509,177.688815 73.6960944,171.113402 73.0643834,164.476796 C72.1738992,155.119999 81.3562492,162.406791 84.6512165,165.442367 C89.0690954,169.512944 92.4255359,174.775627 94.1046344,180.569051" id="Fill-1" fill="#FF5254"></path>
                <path d="M29.3442177,361.12379 C27.750016,361.229609 26.2918622,360.669701 24.7470796,360.495857 C24.8203362,355.038067 25.411621,349.804705 26.5877953,344.416105 C28.9901444,347.08366 31.0134201,345.533594 30.9314425,350.544853 C30.9052795,352.167015 29.0314239,358.655081 29.3442177,361.12379" id="Fill-3" fill="#F8C2A4"></path>
                <path d="M24.5221549,357.487946 C22.6948147,356.83148 22.2822273,361.21145 22.2681618,362.241443 C22.259957,362.860262 22.3332147,363.491434 22.1767362,364.090253 C22.003848,364.749072 21.5707485,365.302598 21.148198,365.835535 C20.263245,366.951998 19.3788779,368.068461 18.4939249,369.184924 C18.0965751,369.686685 17.6921926,370.200799 17.4788661,370.805501 C16.9502385,372.303725 17.8228843,374.080184 19.236465,374.797237 C24.1412148,377.283691 28.62107,371.262556 29.6835997,367.28729 C29.8459388,366.67847 29.9649093,366.057887 30.0838798,365.439067 C30.3294397,364.157312 31.2958553,361.362625 30.788912,360.110869 C30.1975758,358.650291 28.4065714,359.708519 27.23269,359.157935 C26.1443735,358.64735 25.2611786,357.754415 24.5221549,357.487946" id="Fill-5" fill="#242448"></path>
                <path d="M59.041012,270.450485 C54.447631,282.917193 49.147757,295.111558 46.1251451,308.161689 C42.3907416,324.283303 36.370245,340.004619 33.2805162,356.161449 C31.2840851,356.2266 29.2829441,356.141493 27.2988767,355.907889 C25.0245584,355.640242 21.4149686,355.028646 20.5942594,352.552912 C20.1750737,351.287459 20.6195754,349.229631 20.6837485,347.914874 C20.8886315,343.704719 21.1900684,339.49926 21.5009253,335.295561 C22.3793314,323.402298 22.9816166,311.362886 25.1758656,299.638664 C27.484331,287.304019 29.6950649,274.927113 31.7256432,262.594816 C32.7759625,256.221182 34.0682557,249.886874 35.6590421,243.624173 C36.0682193,242.010661 40.3354361,225.380167 41.1732189,225.512027 C51.1147509,227.090524 60.4151406,230.372133 69.0737993,235.490878 C69.9151146,235.988608 70.7275814,236.582009 71.0201872,237.467709 C71.312793,238.352821 71.0472694,239.116437 70.7758584,239.919964 C68.1883283,247.58605 64.7382882,254.77495 61.9794336,262.411102 C61.0197808,265.067614 60.0459981,267.72354 59.041012,270.450485" id="Fill-7" fill="#1E57B1"></path>
                <path d="M60.0116681,360.359733 C61.4671894,360.942087 62.9902904,360.839631 64.4815893,361.13699 C65.9984435,355.838097 66.9672766,350.599853 67.435792,345.035397 C64.4202563,346.890804 62.9840436,344.782199 61.6046206,349.652423 C61.1576852,351.228725 61.0202541,358.066824 60.0116681,360.359733" id="Fill-9" fill="#F8C2A4"></path>
                <path d="M66.0383781,359.116667 C66.0418112,362.163293 68.333954,365.443999 69.6024713,368.184107 C69.7518097,368.506789 69.9040089,368.842044 69.9103028,369.200048 C69.9194576,369.731666 69.6081931,370.204614 69.3106609,370.635656 C68.8975487,371.234924 68.4478173,371.863526 67.7903854,372.132927 C67.1443971,372.398137 66.4188761,372.265233 65.7408458,372.109579 C64.6073623,371.849158 63.4847502,371.534258 62.3787312,371.166675 C62.1029417,371.075678 61.8214304,370.976897 61.5971369,370.785922 C61.3305022,370.560224 61.1708647,370.22916 61.0180933,369.907675 C60.2359268,368.260138 59.5704844,367.091536 59.6128255,365.256017 C59.6568832,363.360032 59.885182,361.396398 59.5538913,359.517775 C59.3902485,358.606002 59.1728211,357.440993 59.9195126,356.940505 C60.4962675,356.554364 61.552507,357.086581 62.1801857,357.193742 C63.2884934,357.382922 64.3121188,357.311082 65.3328833,357.920527 C65.5405837,358.044451 65.7431346,358.19352 65.8713023,358.40485 C66.0011866,358.619772 66.0383781,358.862233 66.0383781,359.116667" id="Fill-11" fill="#242448"></path>
                <path d="M58.3945328,264.655433 C59.0582099,277.943086 60.4746798,291.179585 59.4715424,304.559549 C58.2327176,321.087534 59.2862756,337.911857 57.4242275,354.282852 C59.3026917,354.937857 61.2309902,355.451159 63.186258,355.81688 C65.4282202,356.236106 69.0420945,356.723537 70.5576468,354.599183 C71.3321322,353.513193 71.5209167,351.413533 71.8509964,350.137039 C72.9063133,346.049435 73.8689969,341.937136 74.8228861,337.824249 C77.5203935,326.188219 80.5239427,314.495155 81.9210651,302.629815 C83.3908871,290.146512 84.9656545,277.652626 86.6987194,265.255168 C87.5939799,258.846826 88.2465176,252.404381 88.5953585,245.943121 C88.6850604,244.277975 89.5685952,227.104394 88.7331359,226.982683 C78.8119841,225.538616 68.9940189,225.91492 59.2417178,228.239186 C58.2936914,228.464969 57.3450788,228.790707 56.8039357,229.550959 C56.2627926,230.311799 56.288003,231.120265 56.3073504,231.969301 C56.490272,240.070424 57.6347046,247.97046 57.9894084,256.09275 C58.1125287,258.918559 58.2491336,261.749072 58.3945328,264.655433" id="Fill-13" fill="#1E57B1"></path>
                <path d="M52.7829229,158.038197 C52.6214917,158.092669 52.4606476,158.150069 52.3009775,158.210399 C49.6341346,159.220765 47.36588,161.037669 45.1469353,162.825872 C41.8144091,165.511983 40.1730944,166.689866 38.8857543,170.66749 C37.6852934,174.37744 36.9333177,178.295321 36.1983657,182.1189 C32.4243986,201.746961 31.6953167,221.293021 28.9862083,241.068682 C28.2489082,246.451449 27.6794964,252.779567 31.6694878,256.476631 C38.748978,250.979649 47.6476508,250.662775 56.2334406,250.654575 C62.2633348,250.649303 68.1582139,248.700613 74.2027837,249.372434 C79.9790842,250.013797 85.0239548,248.573512 90.8859606,248.95423 C92.2995106,249.046188 94.1004953,249.030959 94.6575796,247.731247 C92.6288301,241.663774 92.6640515,235.138854 92.2044129,228.759192 C91.0168666,212.257119 85.5375994,196.421595 83.326873,180.030809 C82.5748973,174.460027 82.173961,165.21268 77.8499539,160.995497 C73.1508395,156.412824 62.4323973,156.319109 56.3936977,157.215846 C55.17093,157.397419 53.9528585,157.643422 52.7829229,158.038197" id="Fill-15" fill="#FF5254"></path>
                <path d="M57.7094688,157.405626 C57.8080996,157.59843 57.9399963,157.783615 58.1168313,157.958252 C58.8148336,158.649768 59.7812983,159.041236 60.7407597,159.178953 C62.0054511,159.361208 63.290569,159.150237 64.545339,158.909965 C66.2407376,158.585304 66.1812089,157.588468 66.4269104,156.043107 C66.5611416,155.198638 66.645182,154.347722 66.7082123,153.495635 C66.7432292,153.027983 66.5628925,151.355454 66.8593684,151.027863 C67.0607152,150.805758 67.8801092,150.880769 68.2390317,150.692068 C68.808639,150.393778 69.2837007,149.844082 69.6256985,149.310795 C70.1772137,148.449331 70.4806929,147.456011 70.7777524,146.477341 C71.2942508,144.773752 71.8113327,143.070163 72.3278311,141.366574 C72.8560017,139.626065 73.3870904,137.871492 73.5569221,136.059487 C73.812545,133.32976 73.3730837,129.474855 71.3205134,127.478251 C69.4482798,125.656871 66.7169665,125.01927 64.2115119,124.69754 C60.8948338,124.272082 57.4561804,124.881553 54.5912195,126.650191 C53.4344966,127.363976 52.3373024,128.289903 51.6544741,129.56276 C50.6016345,131.524788 50.6815896,133.974979 50.7948107,136.26577 C50.8992776,138.380166 51.0037445,140.493975 51.1082114,142.608371 C51.2284359,145.040395 51.5301643,147.84279 53.3446201,149.161358 C54.3081667,149.861077 55.5676056,150.011101 56.3922521,150.908899 C57.4252488,152.03349 57.3581332,153.72067 57.4019043,155.147067 C57.426416,155.962235 57.3657202,156.73345 57.7094688,157.405626" id="Fill-17" fill="#F5CEB0"></path>
                <path d="M67.999219,130.0132 C68.1145472,130.213403 68.2104579,130.420102 68.2851858,130.636251 C68.6747126,131.765419 68.4116937,133.040459 68.7923944,134.173171 C69.396102,135.969092 71.4837772,137.048653 71.798576,138.917805 C72.0557107,140.446199 71.0154036,141.899 70.9277307,143.446882 C70.83182,145.137092 71.9103737,146.737535 71.7432655,148.406484 C71.5973401,149.855741 70.6817757,151.893205 69.8191681,153.054855 C70.0863058,152.694608 72.5040784,152.823352 73.1313224,152.438301 C74.0921943,151.849503 74.2016384,151.478035 74.4876051,150.473477 C74.7718067,149.475414 74.5517417,148.491526 74.9942253,147.46925 C75.5367384,146.215471 76.6523619,145.294183 77.042477,143.957134 C77.5755756,142.132274 76.6082312,140.206428 76.6835475,138.305975 C76.7982873,135.429902 79.2749008,132.719779 78.3758118,129.986624 C77.8485974,128.382638 76.2969628,127.357409 75.4243523,125.913467 C74.7618037,124.81678 74.517614,123.524614 74.0580666,122.32812 C73.5985191,121.131627 72.8082858,119.934543 71.5826299,119.571342 C70.9018407,119.369958 70.1692714,119.452638 69.4714184,119.322122 C68.2657683,119.097115 67.2631194,118.261459 66.1004232,117.866959 C64.4381677,117.302375 61.5049489,118.989632 60.534074,120.404045 C59.5708485,121.807829 60.0568743,123.001369 61.041871,124.242746 C62.6817669,126.309739 66.6458783,127.662734 67.999219,130.0132" id="Fill-19" fill="#242448"></path>
                <path d="M45.6988034,121.494447 C44.7051736,122.228518 43.4779557,122.758254 42.570014,123.615163 C40.800496,125.287049 40.4641996,127.960533 40.4002269,130.401924 C40.3432972,132.575791 39.3983804,134.507525 39.6325555,136.772929 C39.7898459,138.294222 40.4319198,139.833232 41.663246,140.73148 C43.1950676,141.850008 45.6007903,142.033673 46.2851213,143.81009 C47.0275559,145.740053 45.0402962,148.170224 46.2469725,149.846245 C46.9119356,150.771659 48.2160381,150.906898 49.1679977,151.528171 C50.2297084,152.221493 50.774943,153.459906 51.4240597,154.553631 C52.0725895,155.647946 53.0468515,156.744032 54.3122182,156.770608 C54.3632789,154.834148 54.4202087,153.298682 53.5979551,151.527581 C53.1190407,150.495865 51.7087085,148.591887 52.7921348,147.47454 C53.475292,146.545582 55.0881063,146.243804 55.1291897,145.088661 C55.1491444,144.546523 54.7729385,144.084702 54.4765515,143.63174 C53.3279789,141.878355 53.2105979,139.541493 53.9894206,137.592632 C54.7682432,135.644361 56.3728409,134.087634 58.2509363,133.17226 C60.4524162,132.099796 60.0979257,131.558839 60.7376519,129.437533 C61.3263174,127.485719 62.4273508,127.028032 64.1733926,126.316403 C65.7410153,125.677412 66.2451665,125.279963 66.8238546,123.803553 C67.247013,122.72282 67.7687713,121.428895 67.154282,120.222963 C66.6665641,119.265068 65.7879677,118.579423 64.9369557,117.92626 C63.1592211,116.562647 61.1613972,115.128758 58.9317458,115.290572 C57.6939636,115.379747 56.5289576,115.965587 55.2894147,116.036455 C54.4624658,116.0837 53.6402122,115.899444 52.8126764,115.871687 C51.4017573,115.823852 49.9133668,116.255554 48.77125,117.101242 C47.618569,117.953425 47.6514357,118.846358 47.0111225,120.055833 C46.6971285,120.64876 46.231713,121.100541 45.6988034,121.494447" id="Fill-21" fill="#242448"></path>
                <path d="M50.3899891,113.853644 C50.6061137,112.523181 50.467093,110.789211 49.1925417,110.339707 C48.4939334,110.093411 47.7117958,110.363579 46.9857338,110.216268 C45.4383982,109.90243 44.9115213,108.035123 44.1001777,106.684863 C43.9786806,106.482819 43.8344028,106.278446 43.6188623,106.182373 C43.3098625,106.04496 42.9558854,106.166652 42.620016,106.207992 C41.080858,106.394898 39.9108643,104.88044 38.4610768,104.331369 C36.666074,103.651872 34.4084477,104.770393 33.8675519,106.606258 C33.6455861,107.360866 33.684138,108.171372 33.4756069,108.930056 C32.6309685,112.002058 28.1174681,113.309231 28.0029804,116.493027 C27.9258765,118.644476 30.0380568,120.705676 29.2173673,122.696421 C28.6922428,123.969823 27.0491114,124.837972 27.2366141,126.201625 C27.3575271,127.07909 28.2950408,127.676488 29.1834883,127.663881 C30.0719358,127.651451 30.8879524,127.165847 31.5567706,126.583005 C32.6192861,125.658376 33.4195314,124.472313 34.4318125,123.492953 C35.4435095,122.514174 36.7928282,121.719972 38.1923813,121.894068 C39.5475413,122.062923 40.7741947,123.114484 42.1211769,122.889732 C43.1982954,122.709231 43.9979566,121.751414 45.0569674,121.481245 C46.0470519,121.228545 47.0762725,121.61633 48.0967313,121.677467 C49.1171901,121.738604 50.370129,121.209912 50.3969985,120.190958 C50.4034238,119.94408 50.3344976,119.68905 50.4121857,119.454982 C50.6300627,118.798193 51.7550791,118.83604 51.9688672,118.178086 C51.4367333,117.359429 50.6855541,117.652888 50.3035392,116.583859 C50.0079742,115.757051 50.2544731,114.689187 50.3899891,113.853644" id="Fill-23" fill="#242448"></path>
                <path d="M14.5513523,129.971193 C14.6394921,129.896481 14.7352707,129.810503 14.8375129,129.704957 C15.8017624,128.707609 16.2530382,127.176603 16.0291631,125.809252 C15.1812582,125.595196 14.3327656,125.381139 13.4848606,125.167083 C13.0441616,126.135969 12.4500992,127.033701 11.7320536,127.815807 C11.5710515,127.991321 11.3700928,128.174544 11.1338781,128.154384 C10.9111781,128.134816 10.7472381,127.941513 10.6138532,127.760069 C8.66713857,125.103637 7.73579458,121.708385 8.0519227,118.419864 C8.03311954,118.615539 5.74207207,118.096111 5.53758771,118.028515 C4.48108518,117.679265 4.22606733,117.648431 3.15781283,118.030886 C2.9874092,118.065871 2.82993274,118.123387 2.68362065,118.200471 C2.15830738,118.388437 1.63299411,118.576997 1.10768084,118.764963 C0.77509996,118.883554 0.420777923,119.018747 0.219231557,119.311073 C0.022973579,119.595691 0.0153347954,119.96688 0.0147471967,120.313165 C0.00945880809,123.415498 0.00534561695,126.517832 0,129.620165 C-0.000530370405,130.009142 0.000644827065,130.409979 0.146956912,130.770495 C0.308546564,131.169553 0.629963073,131.477296 0.952554778,131.760134 C2.43506639,133.05811 4.13498953,134.101708 5.9594836,134.83282 C6.29088929,134.965642 6.64286093,135.099649 6.86908644,135.378337 C7.04477847,135.594766 7.1223415,135.872861 7.19637894,136.142062 C7.66704553,137.857477 8.13712451,139.572891 8.6077911,141.288306 C10.7584025,140.555415 13.028884,140.182448 15.2987779,140.190156 C15.6301836,137.840281 15.3516618,135.406206 14.4972932,133.195082 C14.2522646,132.561215 13.8685626,131.769029 13.9085193,131.070529 C13.9461256,130.417095 14.1852783,130.283087 14.5513523,129.971193" id="Fill-25" fill="#F5CEB0"></path>
                <polygon id="Fill-27" fill="#FF5254" points="5.56809292 135.598437 16.1832044 133.856801 27.0096645 163.530642 52.5875442 159.16712 47.0165387 193.30884 14.4800533 173.792968"></polygon>
                <path d="M197.976637,304.781412 L198.363688,328.390885 C198.205696,334.941354 198.794789,341.471808 199.191824,348.001086 C199.561255,354.065921 198.341369,360.316768 201.212828,365.937174 C202.112619,367.699585 204.028491,368.927503 205.485658,366.891372 C206.608634,365.322626 206.091783,362.607196 206.369591,360.786509 C208.455202,347.099867 212.336282,333.752286 214.272711,320.039743 C216.300763,305.675568 210.75695,306.054657 197.976637,304.781412" id="Fill-29" fill="#F5CEB0"></path>
                <polygon id="Fill-31" fill="#2A323B" points="199.51122 361.965444 197.976637 365.955621 205.526973 372.617249 212.443603 372.90354 214.680916 369.244983 205.378216 361.13699"></polygon>
                <path d="M181.272358,304.936733 L176.950068,328.098614 C175.451005,338.460446 172.04517,348.550974 170.547288,358.912806 C170.202805,361.295235 170.376524,363.901401 169.373799,366.148765 C168.39412,368.3468 166.475531,368.434299 164.782659,366.942712 C162.514269,364.944338 163.560127,361.373337 163.60267,358.64385 C163.879203,340.459995 162.440409,322.533937 162.094153,304.32072 C162.089426,304.081713 162.100652,303.80806 162.286189,303.656552 C162.436863,303.533232 162.652535,303.535581 162.847525,303.549088 C164.626666,303.667123 181.178999,305.437061 181.272358,304.936733" id="Fill-33" fill="#F5CEB0"></path>
                <polygon id="Fill-35" fill="#2A323B" points="163.857275 362.375574 161.474695 365.927821 167.305233 374.15118 173.951098 376 176.941619 372.932993 169.735216 362.897911"></polygon>
                <polygon id="Fill-37" fill="#1E57B1" points="222.10504 319.644422 218.905531 285.86579 217.362493 263.918486 212.1744 245.993893 184.161739 241.613621 149.528458 247.594376 147.863801 254.372723 154.529445 317.122055 187.93426 319.644422 187.481113 280.589554 192.634124 304.797092 192.415444 319.644422"></polygon>
                <path d="M156.70305,180.59119 C156.656263,181.731522 156.624682,182.871853 156.604798,184.00924 C156.199509,207.176943 157.468011,230.639741 157.613635,253.999463 C169.492174,252.126986 181.501131,251.095033 193.522954,250.911849 C196.306174,250.86944 208.957862,252.837337 210.718794,251.163947 C213.10959,248.892708 210.480182,249.320921 210.655632,246.362891 C210.881962,242.534887 209.056114,239.399563 209.745632,234.864153 C210.55621,229.532983 212.169179,224.260127 213.097894,218.930136 C214.960586,208.24247 216.081711,197.424632 216.445477,186.579699 C216.768304,176.960505 216.422083,166.984958 212.315387,158.29464 C202.186668,136.864529 169.533697,137.250334 160.574058,159.626401 C157.920672,166.253402 156.99956,173.428186 156.70305,180.59119" id="Fill-39" fill="#FFFFFF"></path>
                <path d="M227.179577,131.921656 C230.615749,127.31354 232.069559,122.361068 233.470631,116.143797 C234.513671,111.517992 235.37623,106.842066 236.220624,102.176165 C236.777888,99.0893464 237.285931,96.3881592 237.302338,93.2919063 C237.316402,90.7009836 238.71806,87.0999902 236.428646,85.0580318 C236.872231,84.0090442 238.396944,83.6275406 239.277082,84.3457345 C239.414787,84.4583576 239.54546,84.5963358 239.717738,84.6387906 C240.014242,84.7124968 240.298441,84.4789954 240.473649,84.2278044 C240.986965,83.4948693 241.042633,82.5473015 241.219012,81.6675435 C241.502625,80.2506143 241.990158,77.9551063 243.033198,76.9285254 C243.878764,76.0959394 244.997981,75.6171435 246.089071,75.1566268 C246.290647,75.0711275 246.512147,74.9844489 246.723099,75.0434139 C246.901236,75.0929446 247.035425,75.2374088 247.160238,75.375387 C248.306996,76.647852 249.587357,77.8920137 250.564181,79.2776916 C249.053531,80.5772805 248.810937,82.4853883 247.958339,84.2018598 C246.838536,86.4560923 245.457973,88.2450908 245.301517,90.8796476 C245.057165,94.9735885 245.131584,99.0828603 244.833907,103.182108 C244.252032,111.191326 243.180865,119.147475 242.156576,127.107752 C241.462779,132.380993 240.755504,137.775112 238.671768,142.709305 C236.62026,147.568022 233.651698,150.505659 229.688146,153.962188 C228.776951,154.757036 227.830598,155.571933 226.68091,155.937516 C224.937041,156.492966 223.002143,155.904495 221.480359,154.882042 C217.459382,152.179676 215.958693,146.282585 218.193612,141.968115 C219.393694,139.65079 221.431137,137.912501 223.344354,136.145909 C224.85266,134.752566 226.112512,133.353326 227.179577,131.921656" id="Fill-41" fill="#F5CEB0"></path>
                <path d="M193.872266,150.602285 L184.98442,166.813925 C185.448623,183.190403 185.913412,199.566881 186.377615,215.943359 C186.591547,223.490136 186.805479,231.0375 187.019997,238.584278 C187.094434,241.205265 187.158906,243.826253 187.242135,246.446653 C187.280232,247.623399 186.955525,249.603218 187.62604,250.562917 C189.081363,252.646567 194.400356,251.997186 196.720784,252.179623 C200.339457,252.464717 204.010881,252.76037 207.418553,254.010443 C209.687403,254.842847 211.837859,256.097025 214.231552,256.433155 C214.769019,256.508828 215.370959,256.519973 215.792962,256.177978 C216.26537,255.796093 216.345668,255.118555 216.390213,254.512583 C217.222496,243.270143 217.239493,231.679255 217.862533,220.315973 C218.372453,211.016395 219.673042,201.189453 218.866548,191.878143 C218.853068,191.723277 218.838415,191.567238 218.809695,191.414132 C217.985618,186.935341 218.809695,172.140372 218.809695,172.139199 C218.844276,171.516802 220.971287,169.904789 221.382153,169.480081 C223.496269,167.294948 225.6098,165.109227 227.724502,162.923507 C231.943357,158.562625 240.088595,153.17517 236.814557,146.121148 C236.415999,145.263519 235.809957,144.520281 235.164644,143.82925 C230.384291,138.704598 224.27463,135.830781 220.852305,129.521757 C214.86397,132.478287 209.983977,138.319194 203.614081,140.751291 C200.297843,142.014269 196.791704,142.44895 193.324835,141.598361 C191.285741,141.09798 186.893982,139.507085 187.997051,143.546503 C188.628296,145.858345 192.3132,148.746241 193.872266,150.602285" id="Fill-43" fill="#427FE0"></path>
                <path d="M174.283817,151.749119 L183.128389,167.991596 C182.943496,167.991596 182.006778,207.805529 181.930954,210.493214 C181.643406,220.712644 181.355275,230.932663 181.067728,241.152681 C180.987238,243.993763 181.366357,247.320896 180.814592,250.113196 C180.045271,254.011602 175.972941,253.244028 172.501371,253.559051 C164.91081,254.249045 156.918383,255.554978 149.306241,255.167665 C147.110263,255.055997 150.000322,208.881073 149.995656,204.572432 C149.981074,189.074608 146.808717,171.880598 154.620917,157.826824 C156.894469,153.737994 160.901473,147.182465 165.324926,145.163616 C169.446249,143.282296 175.347685,142.961984 179.821882,141.907598 L180.055186,144.829786 L174.283817,151.749119 Z" id="Fill-45" fill="#427FE0"></path>
                <path d="M194.037223,112.512634 C195.426866,115.008629 196.096083,117.883437 196.219451,120.75407 C196.252621,121.517663 196.303249,122.399374 196.905544,122.849775 C197.549156,123.332389 196.98294,124.390682 197.472923,123.745207 C197.963488,123.100329 199.627801,120.858467 199.702869,120.044167 C199.878611,118.135781 199.875702,116.210691 199.695304,114.303498 C199.537602,112.644473 199.207067,110.910879 198.147959,109.646178 C197.520059,108.896305 196.682666,108.369545 195.857492,107.858296 C194.661049,107.117372 193.427363,106.369886 192.053432,106.107401 C189.684987,105.654614 188.231332,106.526184 190.321616,108.21981 C191.818915,109.43261 193.08519,110.802902 194.037223,112.512634" id="Fill-47" fill="#242448"></path>
                <path d="M178.781252,144.618767 C178.797211,145.776694 178.558421,146.97814 179.5851,147.876724 C180.07923,148.308374 180.746542,148.481269 181.396122,148.584183 C183.074154,148.84823 184.813065,148.725322 186.436719,148.227807 C187.105213,148.023156 187.770752,147.744994 188.27493,147.263946 C188.870723,146.694686 188.900867,146.154829 188.929829,145.409733 C188.96352,144.536436 189.140248,143.649613 189.255505,142.763967 C189.506708,140.827423 189.619601,138.87559 189.675752,136.924932 C192.558965,136.43271 195.94931,135.50531 196.934615,132.500815 C197.244924,131.554008 197.256154,130.52487 197.263838,129.517491 C197.293982,125.355069 197.324717,121.192648 197.355453,117.029638 C197.365501,115.590021 197.369047,114.106298 196.873735,112.770183 C196.004279,110.426101 193.79488,109.028825 191.628038,108.149648 C186.099812,105.905539 179.655437,105.995515 174.552777,109.187019 C173.194511,110.036204 171.912493,111.128267 171.130514,112.611402 C169.924152,114.897852 170.075464,117.721218 170.263423,120.359928 C170.436014,122.79575 170.609195,125.230985 170.781786,127.666219 C170.980975,130.467827 171.403586,133.692263 173.589933,135.171869 C174.750784,135.956954 176.250906,136.101034 177.250987,137.117822 C178.997582,138.892056 178.165363,141.542527 178.681363,143.692543 C178.753472,143.99364 178.776524,144.304733 178.781252,144.618767" id="Fill-49" fill="#F5CEB0"></path>
                <path d="M187.634438,133.866249 C186.150324,134.886788 184.514353,134.941759 182.860275,134.432684 C182.157059,134.21579 182.455517,133.008829 183.159902,133.225723 C184.530706,133.647562 185.824414,133.636807 187.0603,132.786557 C187.681747,132.35934 188.252964,133.441423 187.634438,133.866249 M197.945554,127.910314 C197.899412,127.126387 197.564742,124.828381 196.411794,126.272552 C196.110416,126.650175 196.036239,127.183748 196.017549,127.686847 C195.998859,128.189947 196.021053,128.707387 195.866276,129.181209 C195.510579,130.268071 194.335437,130.762208 193.288205,130.743088 C192.871181,130.735918 192.446564,130.66601 192.078018,130.450908 C191.721153,130.242976 191.437297,129.911958 191.160449,129.586915 C190.488188,128.798208 189.815927,128.008903 189.143666,127.219598 C187.987798,125.863261 185.696504,126.449413 184.139966,126.657943 C182.345128,126.897543 180.550291,127.45143 179.083699,128.658989 C178.93593,128.78088 178.791666,128.908746 178.646817,129.036612 C178.293457,129.34851 177.93776,129.65742 177.527161,129.861767 C176.14117,130.552484 174.425766,129.831892 173.454463,128.540683 C173.00882,127.949152 172.593548,127.187333 171.902013,127.088744 C171.361751,127.011069 170.834923,127.407812 170.557491,127.92585 C170.280059,128.443289 170.205299,129.06111 170.167919,129.660408 C170.031247,131.845486 170.325617,134.098081 171.250779,136.035791 C173.2588,140.23745 177.138756,140.753097 181.039155,140.659289 C182.581091,140.622244 184.12186,140.584601 185.663796,140.547555 C188.482503,140.47944 191.461828,140.359939 193.835475,138.683936 C195.929939,137.20511 197.17517,134.691404 197.68506,132.058795 C197.948474,130.69947 198.027907,129.297125 197.945554,127.910314" id="Fill-51" fill="#242448"></path>
                <path d="M198.854517,105.529232 C199.127615,104.532823 199.328783,103.51666 199.456852,102.491783 C198.501889,102.824694 197.461547,102.913586 196.463894,102.746259 C196.461555,102.155386 196.459216,101.563932 196.456292,100.972477 C196.452783,100.480954 189.755178,100.136423 189.211323,100.092268 C184.116628,99.6768553 179.457602,99.2817778 174.851208,101.997936 C170.916153,104.319016 168.392782,107.783497 167.789278,112.293772 C167.212674,116.602441 168.631961,122.229972 171.139542,125.806004 C171.125508,124.659118 170.461186,121.953418 170.733698,120.862887 C170.900363,119.770614 171.280477,118.717268 171.804449,117.74468 C172.851224,115.80299 174.472848,114.168647 176.345347,113.002007 C179.331287,111.143399 182.803188,110.160354 186.269826,109.680451 C189.446993,109.240636 193.318306,108.835101 196.456292,109.671155 C197.965051,110.072623 198.215341,110.449109 199.129369,108.936194 C199.290186,108.669517 200.567369,105.554795 200.442808,105.553052 L198.854517,105.529232 Z" id="Fill-53" fill="#242448"></path>
                <path d="M93.4202256,80.8516123 L90.8314742,92.2821699 C90.6248906,93.1942509 89.7158051,93.7664223 88.8008508,93.5610725 L60.7177985,87.2402748 C59.8028442,87.0343399 59.2288703,86.1286944 59.4348671,85.2166133 L62.0236185,73.7854707 L93.4202256,80.8516123 Z" id="Fill-55" fill="#DCDFE3"></path>
                <g id="Group-59" transform="translate(68.054469, 0.000000)">
                    <mask id="mask-2" fill="white">
                        <use xlink:href="#path-1"></use>
                    </mask>
                    <g id="Clip-58"></g>
                    <path d="M6.27400717,30.6792666 L0.42589153,56.5922294 L26.4384987,62.4674243 L32.448308,35.8377728 C23.0092959,17.0911073 37.8803872,2.79570493 37.8803872,2.79570493 L35.2690944,-0.00138846882 C16.6406921,5.58571409 6.27400717,30.6792666 6.27400717,30.6792666" id="Fill-57" fill="#DCDFE3" mask="url(#mask-2)"></path>
                </g>
                <path d="M69.3866452,58.8290492 C72.5816382,70.3655027 61.8676991,74.0353816 61.8676991,74.0353816 L75.5653189,77.1594166 L75.9585126,77.2492014 L79.2659307,78.0031558 L79.6585358,78.0929406 L93.3561556,81.2169755 C93.3561556,81.2169755 85.24271,73.2528864 93.0335955,64.2220826 L94.6575796,62.3621699 L83.3379574,59.7810058 L80.031128,59.0264568 L68.7115058,56.4452928 L69.3866452,58.8290492 Z" id="Fill-60" fill="#8B8E98"></path>
                <polygon id="Fill-62" fill="#8B8E98" points="175.085588 58.0488286 171.401717 74.4047628 95.8949336 57.3189253 99.5788052 40.9629911"></polygon>
                <path d="M260.77604,85.7576726 L260.77604,85.7576726 C259.275254,92.4594343 252.671797,96.6654002 246.025545,95.1526712 L174.440416,78.8566965 L166.424111,72.9376051 L170.113933,56.4589679 L179.874315,54.5874166 L251.458858,70.8833913 C258.10511,72.3961202 262.276825,79.0559109 260.77604,85.7576726" id="Fill-64" fill="#427FE0"></path>
                <path d="M252.310657,94.841401 C256.519654,93.4017331 259.759012,90.2792378 260.697599,86.1303287 C262.256053,79.2452908 259.230543,72.6723855 248.70102,70.3009958 L189.933836,57.0645849 C189.933836,57.0645849 255.406473,74.0360661 252.310657,94.841401" id="Fill-68" fill="#1E57B1"></path>
                <polygon id="Fill-70" fill="#232020" points="95.8949336 57.0645849 105.793765 42.3631297 99.553008 40.9629911"></polygon>
                <path d="M145.002681,139.450394 C147.368045,137.004625 147.919963,133.337739 146.381888,130.29172 C143.571107,124.7263 140.760914,119.16029 137.950721,113.59487 C136.372047,110.469328 133.628343,106.843676 133.196458,103.444222 C132.432717,97.4352414 133.790741,90.3653669 134.350309,84.3581532 C134.635094,81.3074216 134.381494,77.0691491 135.641256,74.2616986 C135.877204,73.7350807 139.441135,69.7029785 139.34405,69.5798654 C139.336989,69.5686733 138.596783,68.4529974 138.596783,68.4529974 L137.482356,69.2052245 L136.55092,69.0184931 L139.086919,65.9477336 L135.419429,63.2575056 L130.523362,65.2025752 C130.260937,68.5036564 130.846982,71.9431662 129.799632,75.129381 C129.356568,76.4765568 128.696972,77.7406753 128.140347,79.0460279 C127.185376,81.2868046 126.538137,83.6389133 125.797343,85.9556785 C125.081262,88.1964553 123.923881,90.3041049 123.248987,92.5189631 C121.744452,97.4611599 120.273455,102.414549 118.785982,107.362636 L131.715459,137.024064 C134.021394,142.313805 141.000392,143.588527 145.002681,139.450394" id="Fill-72" fill="#F5CEB0"></path>
                <path d="M153.092746,131.300695 C153.002379,131.109457 152.913773,130.918219 152.829274,130.728746 C152.504187,130.001452 148.864273,122.043592 148.759236,122.090252 L148.487548,122.213059 L147.699477,122.615541 C147.661335,122.615541 147.626714,122.614953 147.585638,122.615541 C145.736634,122.640844 142.650072,124.84273 140.934271,125.615921 C136.376017,127.669524 131.817762,129.723127 127.259508,131.777319 C126.934421,131.923249 126.594078,132.082123 126.389285,132.373394 C126.146937,132.718799 126.149871,133.167767 126.189773,133.596729 L124.972752,134.218106 C125.5707,135.058377 126.105274,135.931011 126.593491,136.826594 C127.112221,140.313601 127.990659,143.755299 130.111938,146.535019 C130.237513,146.69919 130.37189,146.855122 130.504506,147.013409 C131.607101,150.701657 132.636347,154.438744 134.206621,157.923985 C138.429226,167.2923 146.448421,174.566999 150.47973,184.019459 C153.752895,183.062091 156.022634,180.115259 157.762493,177.174899 C161.18177,171.3948 163.45503,165.019215 165.706577,158.688938 C166.852009,155.469665 167.997441,152.25098 169.142872,149.031706 C169.342971,148.469172 169.545416,147.888397 169.514316,147.291734 C169.432164,145.707105 167.837244,144.713255 166.47059,143.914174 C161.136587,140.793756 156.550166,136.428819 153.092746,131.300695 Z" id="Fill-74" fill="#427FE0"></path>
                <path d="M213.4064,209.161971 C213.708845,206.900963 212.13202,204.82312 209.885706,204.521574 L131.372764,193.979234 L52.8609969,183.436894 C50.6146826,183.135347 48.5486608,184.723766 48.2468031,186.985363 L46.7974165,197.835728 L55.79853,201.753474 L46.154354,202.655168 L44.7889473,212.877704 L47.1908886,213.922515 L44.617464,214.163398 L42.0434521,233.438801 L42.2196336,233.490041 L50.1630707,236.203368 L41.6446946,236.424227 L39.464742,252.748953 L45.2070848,254.71077 L39.1822643,254.866844 L37.7763359,265.395049 C37.4744782,267.656057 39.0507155,269.734489 41.297617,270.035446 L119.809384,280.578375 L198.321151,291.120126 C200.56864,291.422262 202.634075,289.833843 202.93652,287.572246 L204.385319,276.721881 L195.384793,272.804135 L205.028381,271.901852 L206.393788,261.679905 L203.991847,260.634505 L206.565859,260.393622 L209.139283,241.118808 L208.963689,241.067568 L201.019665,238.353652 L209.538041,238.132793 L211.717993,221.808656 L205.975651,219.846839 L212.000471,219.690765 L213.4064,209.161971 Z" id="Fill-101" fill="#F2F3F4"></path>
                <path d="M247.377286,87.9142008 C244.878003,87.3494883 243.309456,84.8637245 243.873608,82.3619566 C244.43833,79.8601887 246.921054,78.2900822 249.420337,78.8547947 C251.919621,79.4195072 253.488168,81.9052711 252.924016,84.4070389 C252.360435,86.9088068 249.876569,88.4789134 247.377286,87.9142008" id="Fill-66" fill="#FFFFFF"></path>
                <g id="Group-107" transform="translate(44.544743, 211.268310)" fill="#D8D8D8">
                    <path d="M167.160873,8.68763255 L168.281959,0.294236058 C167.840444,1.31615838 166.398629,4.44127793 163.568356,8.78048116 L167.160873,8.68763255 Z" id="Fill-103"></path>
                    <path d="M0.0891826116,59.3718063 L75.1157403,69.4400036 L153.50321,79.9583404 C155.746554,80.2598045 157.809305,78.6749141 158.110685,76.4183403 L159.557191,65.5920753 L150.570914,61.6830314 L160.199822,60.7827525 L161.56248,50.5835094 L159.164342,49.5410194 L161.734279,49.3000831 L164.304215,30.068081 L164.128313,30.0169555 L156.197451,27.309067 L164.702342,27.0886985 L166.878843,10.8008198 L163.089315,9.50740347 C149.597,29.7196049 107.27132,73.7551132 0.0891826116,59.3718063" id="Fill-105"></path>
                </g>
                <path d="M99.5696642,193.612022 C99.6494931,193.908525 99.5725566,194.235211 99.6743673,194.524021 C99.8085725,194.90693 100.223336,195.118211 100.619588,195.157863 C101.487293,195.245453 102.328389,194.672568 102.774968,193.906158 C103.221547,193.139747 103.333771,192.21532 103.317573,191.323443 C103.284022,189.442038 102.578288,187.398474 100.949894,186.524352 C100.167803,186.104749 99.2665458,186.002364 98.3884278,185.906489 C95.3046026,185.572109 91.1853154,188.146538 92.4012601,191.96202 C92.8420544,193.344518 94.3958257,194.283741 95.7882038,194.327536 C96.7698679,194.358902 99.1780398,192.159097 99.5696642,193.612022" id="Fill-108" fill="#F5CEB0"></path>
                <path d="M100.770576,189.463058 C102.12114,189.944199 103.636321,190.575948 104.923163,189.951672 C105.882542,189.485477 106.406483,188.397305 106.412442,187.353396 C106.418283,186.309487 105.984026,185.306966 105.437074,184.409067 C104.269417,182.491976 102.498755,180.876676 100.344578,180.124786 C98.1909917,179.372895 95.6509393,179.563742 93.7841041,180.852533 C92.6329677,181.646961 91.7904138,182.796066 91.0971358,183.992883 C90.5938456,184.862615 89.6191263,186.38709 89.7147101,187.430425 C89.8639862,189.049174 90.4746608,188.61402 91.993972,188.496752 C95.0042733,188.265667 97.9083703,188.443292 100.770576,189.463058" id="Fill-110" fill="#FF5254"></path>
            </g>
            <path d="M68.4425915,245.279099 L68.4425915,244.135211 L78.6528451,244.135211 L78.6528451,245.279099 L80.8982535,245.279099 L80.8982535,227.99369 L73.1240563,227.99369 C73.484169,227.358197 73.7807324,226.680338 73.9925634,225.93893 L71.7471549,225.621183 C71.5353239,226.426141 71.1963944,227.231099 70.7727324,227.99369 L66.1971831,227.99369 L66.1971831,245.279099 L68.4425915,245.279099 Z M78.6528451,232.590423 L68.4425915,232.590423 L68.4425915,230.112 L78.6528451,230.112 L78.6528451,232.590423 Z M78.6528451,237.229521 L68.4425915,237.229521 L68.4425915,234.624 L78.6528451,234.624 L78.6528451,237.229521 Z M78.6528451,242.038085 L68.4425915,242.038085 L68.4425915,239.263099 L78.6528451,239.263099 L78.6528451,242.038085 Z M92.4477496,230.154366 L92.4477496,228.120789 L89.736313,228.120789 C89.5032989,227.358197 89.1855524,226.532056 88.8042567,225.621183 L86.6647637,226.193127 C87.0036933,226.82862 87.3214397,227.464113 87.59682,228.120789 L84.6100031,228.120789 L84.6100031,230.154366 L92.4477496,230.154366 Z M97.912989,245.024901 C99.3534397,245.024901 100.094848,244.156394 100.094848,242.461746 L100.094848,228.88338 L103.80189,228.88338 L103.80189,226.82862 L92.9349609,226.82862 L92.9349609,228.88338 L97.9553552,228.88338 L97.9553552,241.932169 C97.9553552,242.673577 97.679975,243.054873 97.1503975,243.054873 C96.2607074,243.054873 95.328651,243.012507 94.3754116,242.927775 L94.8626228,245.024901 L97.912989,245.024901 Z M91.6216088,233.225915 L91.6216088,231.298254 L85.2666792,231.298254 L85.2666792,233.225915 L91.6216088,233.225915 Z M91.6216088,236.191549 L91.6216088,234.242704 L85.2666792,234.242704 L85.2666792,236.191549 L91.6216088,236.191549 Z M87.1943412,245.342648 L87.1943412,244.092845 L89.7574961,244.092845 L89.7574961,244.961352 L91.8758059,244.961352 L91.8758059,237.398986 L85.0760313,237.398986 L85.0760313,245.342648 L87.1943412,245.342648 Z M89.7574961,242.080451 L87.1943412,242.080451 L87.1943412,239.41138 L89.7574961,239.41138 L89.7574961,242.080451 Z M109.63195,245.279099 L109.63195,244.135211 L119.842203,244.135211 L119.842203,245.279099 L122.087612,245.279099 L122.087612,227.99369 L114.313415,227.99369 C114.673527,227.358197 114.970091,226.680338 115.181922,225.93893 L112.936513,225.621183 C112.724682,226.426141 112.385753,227.231099 111.962091,227.99369 L107.386541,227.99369 L107.386541,245.279099 L109.63195,245.279099 Z M119.842203,232.590423 L109.63195,232.590423 L109.63195,230.112 L119.842203,230.112 L119.842203,232.590423 Z M119.842203,237.229521 L109.63195,237.229521 L109.63195,234.624 L119.842203,234.624 L119.842203,237.229521 Z M119.842203,242.038085 L109.63195,242.038085 L109.63195,239.263099 L119.842203,239.263099 L119.842203,242.038085 Z M136.496826,245.215549 C138.975249,242.48293 140.246235,238.161577 140.309784,232.251493 L140.309784,231.552451 L142.406911,231.552451 C142.364545,237.398986 142.300995,240.809465 142.173897,241.783887 C142.046798,242.694761 141.665502,243.160789 140.987643,243.160789 C140.35215,243.160789 139.610742,243.118423 138.763418,243.076056 L139.292995,245.003718 C140.267418,245.067268 140.945277,245.109634 141.326573,245.109634 C143.021221,245.109634 143.97446,244.325859 144.186291,242.779493 C144.376939,241.106028 144.482854,236.699944 144.482854,229.540056 L140.309784,229.540056 L140.309784,225.748282 L138.255023,225.748282 L138.255023,229.540056 L136.412094,229.540056 L136.412094,231.552451 L138.255023,231.552451 L138.255023,232.251493 C138.212657,237.123606 137.280601,240.767099 135.437671,243.203155 L135.437671,242.271099 C134.33615,242.398197 133.128714,242.525296 131.857728,242.652394 L131.857728,241.487324 L135.458854,241.487324 L135.458854,239.707944 L131.857728,239.707944 L131.857728,238.691155 L135.543587,238.691155 L135.543587,231.849014 L131.857728,231.849014 L131.857728,230.959324 L135.84015,230.959324 L135.84015,229.137577 L131.857728,229.137577 L131.857728,228.036056 C133.298178,227.887775 134.590347,227.675944 135.734235,227.37938 L134.759812,225.727099 C132.302573,226.277859 129.315756,226.574423 125.756995,226.574423 L126.350122,228.290254 C127.536376,228.290254 128.680263,228.247887 129.781784,228.205521 L129.781784,229.137577 L125.693446,229.137577 L125.693446,230.959324 L129.781784,230.959324 L129.781784,231.849014 L126.117108,231.849014 L126.117108,238.691155 L129.781784,238.691155 L129.781784,239.707944 L126.20184,239.707944 L126.20184,241.487324 L129.781784,241.487324 L129.781784,242.821859 C128.426066,242.906592 127.006798,242.991324 125.481615,243.076056 L125.756995,245.024901 C129.315756,244.81307 132.514404,244.53769 135.310573,244.198761 L136.496826,245.215549 Z M129.908883,234.539268 L128.108319,234.539268 L128.108319,233.416563 L129.908883,233.416563 L129.908883,234.539268 Z M133.552376,234.539268 L131.730629,234.539268 L131.730629,233.416563 L133.552376,233.416563 L133.552376,234.539268 Z M133.552376,237.081239 L131.730629,237.081239 L131.730629,235.979718 L133.552376,235.979718 L133.552376,237.081239 Z M129.908883,237.081239 L128.108319,237.081239 L128.108319,235.979718 L129.908883,235.979718 L129.908883,237.081239 Z M147.876858,245.109634 C149.12666,242.313465 149.783336,238.606423 149.846886,233.967324 L149.846886,228.713915 L165.39528,228.713915 L165.39528,226.76507 L157.748182,226.76507 C157.5999,226.341408 157.451618,225.93893 157.303336,225.6 L154.86728,225.981296 C155.036745,226.21431 155.185027,226.468507 155.354491,226.76507 L147.643844,226.76507 L147.643844,233.967324 C147.601477,238.076845 147.093083,241.275493 146.139844,243.563268 L147.876858,245.109634 Z M150.736576,245.321465 C152.918435,244.770704 154.782548,244.071662 156.307731,243.224338 L155.396858,242.186366 L159.697027,242.186366 L158.934435,243.30907 C160.756182,243.775099 162.535562,244.431775 164.272576,245.279099 L165.39528,243.542085 C164.209027,243.03369 162.938041,242.567662 161.561139,242.186366 L164.16666,242.186366 L164.16666,235.640789 L158.76497,235.640789 L158.76497,234.857014 L165.352914,234.857014 L165.352914,233.035268 L161.518773,233.035268 L161.518773,231.976113 L164.357308,231.976113 L164.357308,230.154366 L161.518773,230.154366 L161.518773,229.052845 L159.442829,229.052845 L159.442829,230.154366 L155.714604,230.154366 L155.714604,229.052845 L153.659844,229.052845 L153.659844,230.154366 L151.24497,230.154366 L151.24497,231.976113 L153.659844,231.976113 L153.659844,233.035268 L150.35528,233.035268 L150.35528,234.857014 L156.689027,234.857014 L156.689027,235.640789 L151.24497,235.640789 L151.24497,242.186366 L154.210604,242.186366 C153.003167,242.673577 151.541534,243.076056 149.846886,243.414986 L150.736576,245.321465 Z M159.442829,233.035268 L155.714604,233.035268 L155.714604,231.976113 L159.442829,231.976113 L159.442829,233.035268 Z M156.689027,238.140394 L153.36328,238.140394 L153.36328,237.398986 L156.689027,237.398986 L156.689027,238.140394 Z M162.048351,238.140394 L158.76497,238.140394 L158.76497,237.398986 L162.048351,237.398986 L162.048351,238.140394 Z M162.048351,240.449352 L158.76497,240.449352 L158.76497,239.686761 L162.048351,239.686761 L162.048351,240.449352 Z M156.689027,240.449352 L153.36328,240.449352 L153.36328,239.686761 L156.689027,239.686761 L156.689027,240.449352 Z M186.20179,235.428958 L186.20179,233.268282 L177.898016,233.268282 L177.898016,230.535662 L184.570692,230.535662 L184.570692,228.417352 L177.898016,228.417352 L177.898016,225.663549 L175.67379,225.663549 L175.67379,228.417352 L172.369227,228.417352 C172.708156,227.697127 173.00472,226.955718 173.237734,226.150761 L171.034692,225.896563 C170.378016,228.057239 169.128213,229.900169 167.2641,231.404169 L168.577452,233.141183 C169.509509,232.357408 170.356833,231.488901 171.077058,230.535662 L175.67379,230.535662 L175.67379,233.268282 L166.840438,233.268282 L166.840438,235.428958 L186.20179,235.428958 Z M171.649002,245.279099 L171.649002,244.283493 L181.520326,244.283493 L181.520326,245.279099 L183.765734,245.279099 L183.765734,237.144789 L169.403593,237.144789 L169.403593,245.279099 L171.649002,245.279099 Z M181.520326,242.207549 L171.649002,242.207549 L171.649002,239.220732 L181.520326,239.220732 L181.520326,242.207549 Z" id="自訂自動廣告" fill="#427FE0" fill-rule="nonzero" transform="translate(126.199487, 235.471324) rotate(7.000000) translate(-126.199487, -235.471324) "></path>
        </g>
    </g>
</svg>