<?xml version="1.0" encoding="UTF-8"?>
<svg width="493px" height="710px" viewBox="0 0 493 710" version="1.1" xmlns="http://www.w3.org/2000/svg" xmlns:xlink="http://www.w3.org/1999/xlink">
    <!-- Generator: Sketch 63.1 (92452) - https://sketch.com -->
    <title>img_can_I_diy_amazon_automated_ads</title>
    <desc>Created with Sketch.</desc>
    <defs>
        <polygon id="path-1" points="0.804210069 -0.00228741392 71.5294545 -0.00228741392 71.5294545 117.957104 0.804210069 117.957104"></polygon>
    </defs>
    <g id="Page-1" stroke="none" stroke-width="1" fill="none" fill-rule="evenodd">
        <g id="Amazon-PPC" transform="translate(-153.000000, -4680.000000)">
            <g id="img_can_I_diy_amazon_automated_ads" transform="translate(153.000000, 4680.000000)">
                <g id="Group-112">
                    <path d="M177.697581,340.968155 C178.96672,345.345817 179.574758,350.593455 176.562209,354.002254 C174.31026,356.552186 170.680831,357.2855 167.306777,357.631046 C164.041064,357.966593 160.754346,358.077701 157.475367,357.966593 C154.733671,357.872151 151.84273,357.566603 149.627264,355.942202 C147.024864,354.033364 145.90497,350.729007 145.008391,347.61909 C141.520468,335.529411 139.160178,323.113073 137.96732,310.581184 C136.28582,292.912764 153.624832,306.672399 159.846712,312.404469 C168.188983,320.090931 174.526943,330.028445 177.697581,340.968155" id="Fill-1" fill="#FF5254"></path>
                    <path d="M55.4106238,681.909285 C52.4002962,682.109102 49.6468675,681.051829 46.7298578,680.723559 C46.868188,670.417626 47.9847099,660.535481 50.2056774,650.360197 C54.7420281,655.397336 58.5625751,652.47035 58.4077771,661.9331 C58.3583735,664.996225 54.819976,677.247626 55.4106238,681.909285" id="Fill-3" fill="#F8C2A4"></path>
                    <path d="M46.3051329,675.043728 C42.8545703,673.804125 42.0754824,682.074812 42.0489226,684.019745 C42.0334294,685.18826 42.1717617,686.380101 41.8762838,687.510851 C41.5498194,688.754897 40.7319984,689.800118 39.9340973,690.806463 C38.2630423,692.914677 36.593094,695.022891 34.922039,697.131106 C34.1717242,698.07858 33.4081296,699.049381 33.0053057,700.191238 C32.0070993,703.020332 33.6549145,706.374815 36.3241759,707.728826 C45.5858046,712.42399 54.0451055,701.054295 56.0514782,693.547808 C56.3580227,692.398176 56.5826745,691.226328 56.8073263,690.057813 C57.2710164,687.637477 59.095897,682.360276 58.138637,679.996588 C57.0220181,677.238582 53.6400684,679.236831 51.4234305,678.197164 C49.3683648,677.233028 47.7006298,675.546901 46.3051329,675.043728" id="Fill-5" fill="#242448"></path>
                    <path d="M111.487017,510.691076 C102.813346,534.231934 92.805605,557.258528 87.0980133,581.901062 C80.0463472,612.34347 68.6778562,642.029999 62.8435279,672.538907 C59.0736714,672.661931 55.2949211,672.501223 51.5484107,672.060109 C47.2538204,671.554712 40.4378397,670.399836 38.8880963,665.724914 C38.0965487,663.335362 38.9359004,659.449569 39.0570784,656.966917 C39.4439584,649.01689 40.0131611,641.07573 40.6001515,633.137895 C42.2588439,610.679872 43.3961377,587.945876 47.5395335,565.807051 C51.8986038,542.515567 56.0731279,519.144283 59.9074645,495.857232 C61.8907803,483.821913 64.3310148,471.860852 67.3348934,460.035007 C68.1075417,456.988217 76.1653182,425.58489 77.7473016,425.833882 C96.5198754,428.814554 114.081781,435.011208 130.431908,444.676925 C132.020562,445.616786 133.554741,446.737304 134.107268,448.409769 C134.659795,450.081125 134.158408,451.523058 133.645903,453.040358 C128.759875,467.516212 122.245172,481.090996 117.035633,495.510326 C115.223522,500.526612 113.38473,505.54179 111.487017,510.691076" id="Fill-7" fill="#1E57B1"></path>
                    <path d="M113.319905,680.466517 C116.068363,681.566175 118.944431,681.372707 121.760448,681.934211 C124.62472,671.928321 126.454166,662.036957 127.338863,651.529605 C121.644633,655.033168 118.932635,651.051493 116.327874,660.247927 C115.483927,663.224454 115.224416,676.136821 113.319905,680.466517" id="Fill-9" fill="#F8C2A4"></path>
                    <path d="M124.700129,678.119238 C124.706612,683.872176 129.03486,690.067126 131.430199,695.241265 C131.712194,695.850586 131.999591,696.483647 132.011476,697.159665 C132.028763,698.163518 131.441003,699.056586 130.879173,699.870521 C130.099095,701.002116 129.249868,702.189105 128.008441,702.697814 C126.788622,703.19861 125.418622,702.947647 124.138299,702.653726 C121.997945,702.161974 119.878119,701.567349 117.789625,700.873243 C117.268853,700.701413 116.737276,700.514886 116.313742,700.154267 C115.810257,699.728082 115.508814,699.102935 115.220336,698.495875 C113.743372,695.384834 112.486819,693.178166 112.566772,689.71216 C112.649966,686.131976 113.081062,682.42405 112.455486,678.87665 C112.14648,677.154951 111.735912,674.955066 113.145888,674.009997 C114.234973,673.280847 116.229468,674.285831 117.414712,674.488184 C119.507527,674.845411 121.440437,674.709755 123.367945,675.860569 C123.760145,676.094575 124.142621,676.376061 124.38464,676.775115 C124.6299,677.180952 124.700129,677.638791 124.700129,678.119238" id="Fill-11" fill="#242448"></path>
                    <path d="M110.266272,499.748292 C111.519492,524.839338 114.194209,549.83379 112.299987,575.099149 C109.960717,606.308907 111.950148,638.078241 108.434047,668.991556 C111.981147,670.228399 115.622349,671.197667 119.314477,671.888257 C123.547969,672.679881 130.37204,673.600297 133.233854,669.588883 C134.696313,667.538209 135.052795,663.573427 135.676084,661.163025 C137.668836,653.444411 139.48667,645.679166 141.287897,637.912811 C146.381594,615.94052 152.05319,593.860532 154.691373,571.455235 C157.466835,547.883042 160.440465,524.290863 163.713007,500.880769 C165.403526,488.77991 166.635711,476.614656 167.294427,464.413872 C167.463811,461.269581 169.132188,428.840744 167.554592,428.610918 C148.820502,425.884089 130.281259,426.594663 111.86601,430.98357 C110.075854,431.409915 108.28459,432.025006 107.262751,433.460588 C106.240912,434.89728 106.288516,436.423905 106.32505,438.027138 C106.670461,453.324471 108.83149,468.242091 109.501276,483.579395 C109.733764,488.915364 109.991715,494.260215 110.266272,499.748292" id="Fill-13" fill="#1E57B1"></path>
                    <path d="M99.6698809,298.423191 C99.3650508,298.52605 99.0613292,298.63444 98.7598245,298.748359 C93.7240308,300.656233 89.4408905,304.087087 85.2508619,307.463747 C78.9580597,312.535926 75.8587687,314.760119 73.4278871,322.271058 C71.1610594,329.276549 69.7411053,336.674675 68.3532969,343.894732 C61.2269229,380.958357 59.8501992,417.86714 54.7345955,455.20948 C53.3423532,465.373746 52.2671342,477.323118 59.8014264,484.304276 C73.1696128,473.924338 89.9729576,473.325984 106.185486,473.3105 C117.571723,473.300546 128.70301,469.620839 140.116958,470.889436 C151.024335,472.100521 160.550553,469.380834 171.619766,470.099742 C174.288969,470.273387 177.689765,470.24463 178.741706,467.790386 C174.910823,456.33319 174.977331,444.012197 174.109397,431.965496 C171.866956,400.804667 161.520467,370.90248 157.345957,339.951793 C155.926003,329.432497 155.168916,311.970753 147.003902,304.007454 C138.130575,295.354003 117.890963,295.177041 106.488099,296.870348 C104.17915,297.213212 101.879068,297.677738 99.6698809,298.423191" id="Fill-15" fill="#FF5254"></path>
                    <path d="M108.972667,297.228709 C109.158911,297.59278 109.407972,297.942465 109.741889,298.272232 C111.059925,299.578019 112.884898,300.317227 114.696647,300.577278 C117.084761,300.92143 119.511447,300.523054 121.880826,300.069349 C125.082244,299.456293 124.969836,297.573968 125.433794,294.655866 C125.687262,293.061257 125.845955,291.454475 125.964975,289.84548 C126.031098,288.962414 125.690568,285.804181 126.250403,285.185592 C126.630606,284.766191 128.177866,284.907836 128.855618,284.551511 C129.931207,283.988252 130.828265,282.950262 131.474058,281.943257 C132.515483,280.316556 133.088542,278.440871 133.649479,276.592851 C134.624782,273.375967 135.601187,270.159084 136.57649,266.942201 C137.573833,263.655602 138.576687,260.342444 138.897379,256.92084 C139.380072,251.766302 138.550238,244.487094 134.674374,240.716911 C131.139039,237.277601 125.981506,236.073622 121.250461,235.466099 C114.987585,234.662708 108.494383,235.813571 103.084484,239.153287 C100.900246,240.501124 98.8284167,242.249551 97.5390335,244.653084 C95.5509587,248.357977 95.7019378,252.984668 95.915733,257.310363 C96.1129976,261.302972 96.3102622,265.294475 96.5075268,269.287084 C96.7345465,273.87947 97.3042996,279.171226 100.730533,281.661074 C102.549996,282.982353 104.928191,283.265643 106.48537,284.960952 C108.435975,287.084516 108.309241,290.270415 108.391894,292.963876 C108.438179,294.503156 108.323567,295.95944 108.972667,297.228709" id="Fill-17" fill="#F5CEB0"></path>
                    <path d="M128.402781,245.503649 C128.620555,245.881692 128.801662,246.272002 128.942771,246.680154 C129.678314,248.812361 129.181656,251.220015 129.900532,253.358913 C131.040512,256.750148 134.982664,258.78868 135.577098,262.318196 C136.062645,265.204258 134.098236,267.947579 133.932683,270.870442 C133.751575,274.062061 135.788206,277.084174 135.472656,280.235647 C135.197105,282.972277 133.468247,286.819617 131.839387,289.013158 C132.343822,288.332904 136.909297,288.576011 138.09372,287.848919 C139.908133,286.737094 140.114796,286.035652 140.654786,284.138746 C141.191443,282.254107 140.775895,280.396232 141.611436,278.465871 C142.635862,276.098363 144.742492,274.358697 145.479145,271.83395 C146.485794,268.388071 144.65916,264.751499 144.80138,261.162879 C145.018042,255.731997 149.694627,250.614477 147.996879,245.453466 C147.001341,242.424662 144.071393,240.488725 142.423644,237.762132 C141.172555,235.69126 140.711452,233.251266 139.84369,230.991929 C138.975927,228.732593 137.483731,226.472142 135.169328,225.786311 C133.883795,225.406038 132.500486,225.562162 131.182731,225.315709 C128.906105,224.890829 127.012805,223.312862 124.817288,222.567928 C121.678455,221.501825 116.139664,224.687868 114.306363,227.358702 C112.487506,230.009464 113.405268,232.263224 115.265235,234.607314 C118.361847,238.510412 125.84727,241.065268 128.402781,245.503649" id="Fill-19" fill="#242448"></path>
                    <path d="M86.2929533,229.417706 C84.4166842,230.803851 82.0993312,231.80415 80.3848668,233.422249 C77.0434898,236.579269 76.4084619,241.627602 76.2876626,246.237676 C76.1801622,250.342583 74.395878,253.990274 74.8380701,258.268031 C75.1350814,261.140685 76.3475081,264.046794 78.6726189,265.742954 C81.5651542,267.855068 86.1078753,268.201883 87.4000961,271.556287 C88.8020337,275.200632 85.0494956,279.789519 87.3280598,282.954345 C88.5837082,284.701802 91.0462421,284.957174 92.8438254,286.130323 C94.8486516,287.439522 95.8782168,289.778014 97.1039425,291.843292 C98.32856,293.909685 100.168257,295.979423 102.557646,296.029605 C102.654064,292.372993 102.761564,289.473575 101.208905,286.129208 C100.304572,284.181022 97.6414443,280.585744 99.6872758,278.475859 C100.97728,276.721712 104.022754,276.151864 104.100332,273.97061 C104.138012,272.946892 103.427623,272.074837 102.867956,271.219508 C100.699109,267.908596 100.477459,263.495905 101.948108,259.815874 C103.418757,256.136959 106.448716,253.197395 109.995119,251.468896 C114.152169,249.443764 113.482785,248.422276 114.690779,244.416619 C115.802355,240.731013 117.881434,239.866763 121.178481,238.522994 C124.138619,237.31639 125.090607,236.565887 126.183343,233.777985 C126.982392,231.737241 127.967627,229.293924 126.807288,227.016765 C125.886331,225.207974 124.227279,223.913273 122.620315,222.679905 C119.263423,220.104999 115.490936,217.397388 111.28069,217.702942 C108.943389,217.871332 106.74351,218.977571 104.402884,219.11139 C102.841358,219.200603 101.288699,218.852673 99.7260646,218.800261 C97.061829,218.709933 94.2513042,219.525115 92.0946477,221.122025 C89.9180425,222.731202 89.9801046,224.417325 88.7710027,226.701175 C88.1780884,227.820796 87.2992452,228.673894 86.2929533,229.417706" id="Fill-21" fill="#242448"></path>
                    <path d="M95.1513092,214.989594 C95.5594169,212.477282 95.2969043,209.203032 92.8901718,208.354234 C91.5709912,207.889154 90.0940825,208.399312 88.7230612,208.121144 C85.8012306,207.528524 84.8063302,204.002493 83.2742718,201.4528 C83.0448491,201.07128 82.7724096,200.685363 82.3654049,200.503949 C81.7819212,200.244472 81.1135069,200.474263 80.4792855,200.552326 C77.5728968,200.905259 75.3636002,198.045512 72.6259696,197.008703 C69.2364696,195.72561 64.9733985,197.837711 63.9520262,201.30437 C63.5328886,202.729296 63.6056862,204.259771 63.2119174,205.692393 C61.6169883,211.493248 53.0941552,213.96158 52.8779684,219.973535 C52.7323732,224.036112 56.7207988,227.92827 55.1710925,231.687391 C54.1795011,234.091954 51.0767795,235.731278 51.4308405,238.306259 C51.6591602,239.963175 53.4294653,241.091241 55.1071189,241.067434 C56.7847724,241.043964 58.3256548,240.126998 59.5885827,239.026418 C61.5949285,237.280445 63.10603,235.040805 65.0175182,233.19148 C66.9279035,231.343254 69.4758192,229.843564 72.1185924,230.172308 C74.677538,230.491158 76.993825,232.476818 79.5373288,232.052419 C81.5712494,231.71158 83.0812479,229.902936 85.0809757,229.392777 C86.9505502,228.915603 88.8940253,229.647857 90.8209555,229.763302 C92.7478856,229.878747 95.1138074,228.88042 95.1645451,226.95633 C95.176678,226.490151 95.0465247,226.008579 95.1932229,225.566588 C95.6046396,224.326375 97.7290057,224.397841 98.1327014,223.155429 C97.1278741,221.609561 95.709424,222.163698 94.9880661,220.145054 C94.4299512,218.583793 94.8954146,216.567347 95.1513092,214.989594" id="Fill-23" fill="#242448"></path>
                    <path d="M27.4772876,245.424328 C27.6437218,245.283249 27.8245803,245.120897 28.017644,244.921595 C29.8384344,243.038305 30.6905775,240.147309 30.2678346,237.565343 C28.6667375,237.161141 27.0645307,236.756939 25.4634336,236.352737 C24.6312625,238.182283 23.5094959,239.877468 22.1536118,241.354316 C21.849592,241.68574 21.470122,242.031719 21.0240783,241.99365 C20.6035545,241.956701 20.2939868,241.591687 20.0421164,241.249067 C16.3661393,236.232932 14.6074844,229.821684 15.2044285,223.611977 C15.1689225,223.981469 10.8427425,223.000636 10.4566151,222.872993 C8.46162362,222.213506 7.98007395,222.155283 5.96289125,222.877472 C5.64111843,222.943532 5.34375597,223.052141 5.06747517,223.197698 C4.07552724,223.552635 3.08357931,223.908691 2.09163138,224.263627 C1.46361961,224.487562 0.794554056,224.742847 0.413974482,225.294846 C0.0433809604,225.832289 0.0289566616,226.533204 0.0278471002,227.187093 C0.0178610472,233.045223 0.0100941171,238.903352 0,244.761482 C-0.00100149731,245.495987 0.00121762558,246.252886 0.277498425,246.933647 C0.582627821,247.687187 1.18955793,248.268298 1.79870716,248.802382 C4.59813068,251.253346 7.80809193,253.223971 11.2532802,254.604527 C11.8790729,254.855334 12.5437002,255.10838 12.9708813,255.634627 C13.3026402,256.043307 13.4491023,256.568434 13.588907,257.076765 C14.4776658,260.31598 15.3653149,263.555194 16.2540736,266.794408 C20.3150685,265.410492 24.6024139,264.706218 28.8886498,264.720773 C29.5144424,260.283509 28.9885103,255.687251 27.375208,251.51199 C26.9125208,250.31506 26.1879772,248.819177 26.2634274,247.500202 C26.3344393,246.266322 26.7860308,246.013276 27.4772876,245.424328" id="Fill-25" fill="#F5CEB0"></path>
                    <polygon id="Fill-27" fill="#FF5254" points="10.514218 256.05024 30.5587105 252.761513 51.0022919 308.794564 99.3009479 300.554933 88.78123 365.024671 27.3426539 328.172893"></polygon>
                    <path d="M373.838863,575.518092 L374.56973,620.099809 C374.271394,632.469045 375.383776,644.800489 376.133497,657.12971 C376.831093,668.581925 374.527586,680.385387 379.949756,690.998388 C381.648828,694.326344 385.266566,696.64502 388.018131,692.800197 C390.138645,689.837938 389.162676,684.710396 389.687259,681.272397 C393.625514,655.42794 400.954149,630.223731 404.610704,604.330366 C408.440271,577.206524 397.9719,577.922357 373.838863,575.518092" id="Fill-29" fill="#F5CEB0"></path>
                    <polygon id="Fill-31" fill="#2A323B" points="376.736611 683.498578 373.838863 691.033221 388.096147 703.612358 401.156803 704.152961 405.381517 697.244515 387.815248 681.934211"></polygon>
                    <path d="M342.296209,575.811385 L334.134437,619.547915 C331.303759,639.11414 324.872528,658.168062 322.044081,677.734288 C321.393594,682.233023 321.721627,687.154242 319.828185,691.397934 C317.978258,695.54848 314.355391,695.713703 311.158744,692.897142 C306.875348,689.123616 308.85024,682.380504 308.930575,677.22642 C309.452749,642.889884 306.735878,609.040147 306.082044,574.648168 C306.073118,574.196853 306.094317,573.680113 306.444665,573.394022 C306.729184,573.161157 307.136435,573.165592 307.504636,573.191096 C310.864184,573.413982 342.119919,576.756153 342.296209,575.811385" id="Fill-33" fill="#F5CEB0"></path>
                    <polygon id="Fill-35" fill="#2A323B" points="309.411344 684.273026 304.912322 690.980727 315.922115 706.508878 328.471489 710 334.118483 704.208578 320.510648 685.259353"></polygon>
                    <polygon id="Fill-37" fill="#1E57B1" points="419.400474 603.583882 413.358848 539.799764 410.445132 498.356716 400.648468 464.509744 347.752221 456.238487 282.354268 467.531934 279.2109 480.331471 291.797621 598.820901 354.875863 603.583882 354.020187 529.836658 363.750606 575.547701 363.337673 603.583882"></polygon>
                    <path d="M295.902036,341.009959 C295.813689,343.163246 295.754054,345.316532 295.716507,347.464257 C294.9512,391.21178 297.346511,435.516533 297.621491,479.626645 C320.051711,476.090851 342.7282,474.142216 365.428983,473.796311 C370.68453,473.71623 394.574687,477.432206 397.89985,474.272347 C402.414386,469.983571 397.44928,470.792165 397.780581,465.206523 C398.20796,457.978111 394.760215,452.057686 396.062231,443.493479 C397.592844,433.426644 400.63861,423.46992 402.392299,413.405309 C405.909618,393.223812 408.026635,372.796512 408.713533,352.318049 C409.323128,334.154145 408.66936,315.31734 400.914694,298.907431 C381.788655,258.441 320.13012,259.169513 303.211653,301.422193 C298.201269,313.935945 296.461935,327.484075 295.902036,341.009959" id="Fill-39" fill="#FFFFFF"></path>
                    <path d="M428.982711,249.107381 C435.471228,240.405886 438.216455,231.054145 440.862096,219.314085 C442.831666,210.579187 444.460435,201.749647 446.054901,192.939035 C447.107183,187.110202 448.066518,182.009556 448.0975,176.162908 C448.124056,171.270474 450.770805,164.470726 446.447709,160.614901 C447.285329,158.634099 450.164443,157.913707 451.826406,159.269871 C452.086433,159.482537 452.333183,159.743081 452.658494,159.823248 C453.218383,159.962428 453.755035,159.521507 454.085879,159.047184 C455.055173,157.663184 455.16029,155.873894 455.493347,154.212649 C456.028893,151.537064 456.949501,147.202461 458.919071,145.263971 C460.515751,143.691801 462.629166,142.787691 464.689469,141.918098 C465.070105,141.75665 465.488362,141.592975 465.886702,141.704319 C466.223078,141.797847 466.476467,142.070639 466.712151,142.331183 C468.877572,144.733976 471.295275,147.083324 473.13981,149.699896 C470.287253,152.153907 469.829162,155.756983 468.219205,158.998193 C466.104683,163.254855 463.497769,166.633017 463.202333,171.607845 C462.740923,179.338425 462.881448,187.097954 462.319346,194.838555 C461.220591,209.962344 459.197909,224.985924 457.263747,240.017297 C455.953651,249.974747 454.618105,260.160452 450.683391,269.477677 C446.809534,278.652382 441.204005,284.199515 433.719638,290.726472 C431.999031,292.227382 430.212033,293.76615 428.04108,294.456479 C424.748136,295.505335 421.094472,294.394127 418.220892,292.463431 C410.628088,287.360558 407.794341,276.225093 412.014533,268.078089 C414.280645,263.702289 418.127946,260.419882 421.740668,257.084031 C424.5888,254.452983 426.967775,251.810802 428.982711,249.107381" id="Fill-41" fill="#F5CEB0"></path>
                    <path d="M366.088587,284.381975 L349.305687,314.994379 C350.182241,345.918048 351.059901,376.841716 351.936454,407.765385 C352.340422,422.015949 352.744389,436.26762 353.149463,450.518184 C353.290021,455.467389 353.411765,460.416594 353.568925,465.364691 C353.640864,467.586738 353.027719,471.325226 354.293852,473.137424 C357.041936,477.071975 367.085778,475.845751 371.467438,476.190246 C378.300571,476.728588 385.233312,477.286869 391.668012,479.647378 C395.952278,481.219205 400.012978,483.587468 404.532984,484.22218 C405.547882,484.365074 406.684524,484.38612 407.481391,483.740331 C408.373439,483.019218 408.525065,481.739824 408.609179,480.59557 C410.180777,459.366494 410.212873,437.479444 411.389358,416.022182 C412.352239,398.46181 414.808138,379.905615 413.285237,362.323089 C413.259782,362.030656 413.232113,361.736008 413.177882,361.446898 C411.621778,352.989606 413.177882,325.052298 413.177882,325.050082 C413.24318,323.874812 417.25961,320.830852 418.035449,320.028877 C422.02753,315.902694 426.018505,311.775402 430.011693,307.648111 C437.978147,299.413467 453.358783,289.240348 447.176425,275.920252 C446.423829,274.300795 445.279439,272.897338 444.060897,271.592467 C435.034167,261.915598 423.497307,256.488974 417.034938,244.575658 C405.727177,250.158467 396.512298,261.187839 384.484036,265.780364 C378.221991,268.165243 371.601356,268.986049 365.054874,267.379883 C361.204458,266.435015 352.911509,263.430932 354.994431,271.058556 C356.186411,275.424003 363.144607,280.877211 366.088587,284.381975" id="Fill-43" fill="#427FE0"></path>
                    <path d="M329.099761,286.547539 L345.800948,317.218173 C345.451813,317.218173 343.683012,392.398739 343.539834,397.473887 C342.996858,416.771216 342.452781,436.069655 341.909805,455.368094 C341.757816,460.732903 342.473707,467.015522 341.43181,472.288216 C339.979102,479.649568 332.289331,478.20016 325.733972,478.795016 C311.400732,480.09793 296.308648,482.563922 281.934658,481.832559 C277.787997,481.621696 283.245289,394.429686 283.236478,386.293689 C283.208944,357.02918 277.218588,324.561768 291.970349,298.024056 C296.263492,290.303127 303.829909,277.924336 312.182706,274.112148 C319.964992,270.559655 331.108661,269.95481 339.557277,267.963816 L339.997825,273.481778 L329.099761,286.547539 Z" id="Fill-45" fill="#427FE0"></path>
                    <path d="M366.400076,212.457368 C369.024135,217.170549 370.287816,222.599044 370.520772,228.019653 C370.583407,229.461544 370.679007,231.126478 371.816319,231.976968 C373.03165,232.888288 371.962467,234.886659 372.887701,233.667811 C373.814033,232.450089 376.956751,228.216787 377.098503,226.679145 C377.430357,223.075544 377.424862,219.440401 377.084218,215.839053 C376.786429,212.706319 376.162281,209.432776 374.162369,207.044644 C372.976708,205.628662 371.395459,204.633982 369.837286,203.668591 C367.578045,202.269506 365.248478,200.85803 362.654088,200.36238 C358.181758,199.507384 355.436825,201.153167 359.383903,204.351236 C362.21125,206.641365 364.602353,209.228883 366.400076,212.457368" id="Fill-47" fill="#242448"></path>
                    <path d="M337.592259,273.083311 C337.622393,275.269822 337.171487,277.538508 339.110162,279.235303 C340.043227,280.050387 341.30331,280.376864 342.52991,280.571196 C345.698535,281.069796 348.982118,280.837708 352.04806,279.898253 C353.310376,279.51181 354.567111,278.986558 355.519149,278.078196 C356.644184,277.003263 356.701105,275.983853 356.755794,274.57689 C356.819412,272.927845 357.153128,271.253259 357.370768,269.580895 C357.845113,265.924124 358.058289,262.23848 358.16432,258.555058 C363.608683,257.625596 370.010666,255.874388 371.871214,250.201007 C372.45717,248.413154 372.478376,246.469835 372.492885,244.567603 C372.549806,236.707711 372.607844,228.847819 372.665881,220.986816 C372.684855,218.26839 372.691552,215.46668 371.756255,212.943696 C370.114464,208.517371 365.94246,205.878899 361.850817,204.218749 C351.41188,199.981204 339.242979,200.151105 329.607638,206.177615 C327.042827,207.781131 324.621994,209.84327 323.145386,212.64387 C320.867414,216.961369 321.153137,222.292726 321.508059,227.275396 C321.833962,231.874954 322.160981,236.473402 322.486884,241.07185 C322.863011,246.36212 323.661027,252.450816 327.789502,255.244753 C329.981534,256.727228 332.81421,256.999292 334.702661,258.919292 C338.000753,262.269573 336.429276,267.274453 337.403637,271.334324 C337.539802,271.902883 337.58333,272.490321 337.592259,273.083311" id="Fill-49" fill="#F5CEB0"></path>
                    <path d="M354.309709,252.779353 C351.50726,254.706436 348.418059,254.810236 345.294669,253.848952 C343.966786,253.43939 344.530364,251.160288 345.860452,251.56985 C348.44894,252.366407 350.891847,252.346098 353.225566,250.740572 C354.399044,249.933861 355.477672,251.977154 354.309709,252.779353 M373.780168,241.532775 C373.693039,240.052486 373.061082,235.713166 370.883973,238.440191 C370.314881,239.153257 370.174813,240.1608 370.139521,241.110802 C370.104228,242.060804 370.146138,243.037884 369.853872,243.932601 C369.18221,245.984921 366.963191,246.917999 364.985706,246.881895 C364.198241,246.868355 363.396438,246.736348 362.700513,246.330171 C362.026646,245.937534 361.49064,245.312473 360.967869,244.698695 C359.698441,243.209381 358.429012,241.718939 357.159583,240.228496 C354.976959,237.667327 350.650313,238.774158 347.711105,239.167924 C344.321918,239.62036 340.93273,240.666264 338.163368,242.946495 C337.884336,243.176661 337.611922,243.418111 337.338404,243.65956 C336.671155,244.248516 335.999493,244.831831 335.22416,245.217699 C332.606997,246.521977 329.367803,245.161285 327.533693,242.723098 C326.692186,241.606112 325.90803,240.16757 324.602206,239.981406 C323.58203,239.834731 322.587222,240.583901 322.063348,241.56211 C321.539474,242.53919 321.398304,243.705819 321.327719,244.837472 C321.069642,248.96355 321.6255,253.217121 323.372481,256.876096 C327.164224,264.810078 334.490737,265.783774 341.855851,265.606636 C344.767486,265.536683 347.676916,265.465602 350.588551,265.39565 C355.911109,265.267027 361.536962,265.041374 366.019116,261.876581 C369.974087,259.084117 372.325453,254.337492 373.288278,249.366342 C373.785682,246.799531 373.935676,244.151485 373.780168,241.532775" id="Fill-51" fill="#242448"></path>
                    <path d="M375.496562,199.270624 C376.012251,197.389107 376.392116,195.470289 376.633949,193.535015 C374.830694,194.16365 372.866218,194.331506 370.982353,194.015542 C370.977936,192.899798 370.973519,191.782956 370.967998,190.666114 C370.961372,189.737972 358.314298,189.087395 357.287338,189.004016 C347.667037,188.219594 338.869408,187.47357 330.171163,192.602485 C322.740607,196.985376 317.975731,203.527349 316.836136,212.044091 C315.747337,220.180142 318.427373,230.806596 323.162434,237.559211 C323.135932,235.393547 321.881494,230.284379 322.396078,228.225133 C322.710792,226.162596 323.42856,224.173564 324.417976,222.337029 C326.394599,218.67054 329.456708,215.584414 332.992544,213.381449 C338.630889,209.871845 345.186872,208.015561 351.732917,207.109361 C357.732354,206.278861 365.042546,205.513089 370.967998,207.091808 C373.816985,207.8499 374.289608,208.560817 376.015564,205.703984 C376.319235,205.200418 378.730936,199.318896 378.495729,199.315604 L375.496562,199.270624 Z" id="Fill-53" fill="#242448"></path>
                    <path d="M176.405213,152.671927 L171.516879,174.256225 C171.126788,175.978506 169.410164,177.058936 167.682458,176.671174 L114.65329,164.735625 C112.925583,164.346759 111.84175,162.63663 112.230733,160.91435 L117.119067,139.328947 L176.405213,152.671927 Z" id="Fill-55" fill="#DCDFE3"></path>
                    <g id="Group-59" transform="translate(128.507109, 0.000000)">
                        <mask id="mask-2" fill="white">
                            <use xlink:href="#path-1"></use>
                        </mask>
                        <g id="Clip-58"></g>
                        <path d="M11.8471944,57.9315939 L0.804210069,106.862986 L49.9237609,117.957104 L61.272071,67.6723901 C43.4484045,32.2731016 71.5294545,5.27912367 71.5294545,5.27912367 L66.5985558,-0.00262184272 C31.4225835,10.547492 11.8471944,57.9315939 11.8471944,57.9315939" id="Fill-57" fill="#DCDFE3" mask="url(#mask-2)"></path>
                    </g>
                    <path d="M131.022655,111.086768 C137.055753,132.871029 116.824645,139.800854 116.824645,139.800854 L142.689831,145.699962 L143.432298,145.869503 L149.677688,147.293193 L150.419044,147.462734 L176.28423,153.361842 C176.28423,153.361842 160.963628,138.323269 175.675141,121.270422 L178.741706,117.758353 L157.366888,112.884346 L151.122609,111.459533 L129.74779,106.585526 L131.022655,111.086768 Z" id="Fill-60" fill="#8B8E98"></path>
                    <polygon id="Fill-62" fill="#8B8E98" points="330.613744 109.613479 323.657497 140.498355 181.078199 108.235205 188.034446 77.3503289"></polygon>
                    <path d="M492.422841,161.936031 L492.422841,161.936031 C489.58891,174.590953 477.119617,182.533069 464.569513,179.676587 L329.395467,148.904932 L314.258294,137.727924 L321.225777,106.611349 L339.656287,103.077303 L474.829226,133.848957 C487.37933,136.70544 495.256771,149.281108 492.422841,161.936031" id="Fill-64" fill="#427FE0"></path>
                    <path d="M476.437677,179.088816 C484.385517,176.370294 490.502389,170.474093 492.274722,162.639717 C495.217547,149.638714 489.504484,137.227111 469.621607,132.749221 L358.651659,107.754934 C358.651659,107.754934 482.283499,139.802146 476.437677,179.088816" id="Fill-68" fill="#1E57B1"></path>
                    <polygon id="Fill-70" fill="#232020" points="181.078199 107.754934 199.770142 79.9942077 187.985733 77.3503289"></polygon>
                    <path d="M273.808255,263.323883 C278.274765,258.705542 279.316951,251.781369 276.412608,246.029578 C271.105016,235.520407 265.798534,225.010123 260.492053,214.500952 C257.511046,208.598998 252.330116,201.752686 251.514589,195.333505 C250.072417,183.986759 252.636772,170.63673 253.693402,159.293321 C254.231161,153.532631 253.752289,145.52951 256.131094,140.228207 C256.576634,139.233796 263.306399,131.619986 263.123072,131.387512 C263.109739,131.366378 261.71201,129.259649 261.71201,129.259649 L259.60764,130.680078 L257.848812,130.327474 L262.637534,124.528965 L255.71222,119.449013 L246.466988,123.121884 C245.971449,129.355309 247.078077,135.850128 245.100369,141.86665 C244.263731,144.410519 243.018219,146.797552 241.967145,149.262446 C240.163874,153.4937 238.941695,157.935182 237.542855,162.309925 C236.19068,166.541179 234.005201,170.521049 232.730801,174.703361 C229.889789,184.035701 227.112108,193.389175 224.303318,202.732638 L248.71802,258.742249 C253.072312,268.730856 266.250741,271.13791 273.808255,263.323883" id="Fill-72" fill="#F5CEB0"></path>
                    <path d="M289.084707,247.934823 C288.914067,247.573708 288.746752,247.212594 288.587192,246.854812 C287.973332,245.481466 281.10009,230.454656 280.901749,230.542763 L280.388721,230.774659 L278.900608,231.534666 C278.828585,231.534666 278.76321,231.533555 278.685646,231.534666 C275.194176,231.582444 269.365827,235.740262 266.125885,237.200276 C257.518542,241.07809 248.9112,244.955905 240.303858,248.834831 C239.689997,249.11039 239.047328,249.410392 238.660618,249.960398 C238.202993,250.612626 238.208533,251.460412 238.28388,252.27042 L235.985782,253.443764 C237.114886,255.030446 238.124321,256.67824 239.04622,258.369367 C240.025737,264.953874 241.68449,271.452825 245.690095,276.701765 C245.927218,277.011767 246.180962,277.306215 246.431381,277.605106 C248.51341,284.569618 250.456932,291.626352 253.422077,298.207526 C261.395614,315.897695 276.538243,329.634493 284.150555,347.483553 C290.331265,345.675758 294.617207,340.11126 297.902579,334.558985 C304.359194,323.644436 308.651785,311.605432 312.903377,299.651984 C315.066294,293.573037 317.22921,287.495201 319.392126,281.416254 C319.769971,280.354022 320.152249,279.257345 320.093522,278.130667 C319.938395,275.138416 316.926712,273.261732 314.34606,271.752828 C304.273874,265.86055 295.613345,257.618249 289.084707,247.934823 Z" id="Fill-74" fill="#427FE0"></path>
                    <path d="M402.97485,394.960104 C403.545956,390.690648 400.568442,386.767063 396.326732,386.197653 L248.070911,366.290575 L99.817308,346.383496 C95.5755975,345.814087 91.6743328,348.813494 91.1043357,353.084063 L88.3674621,373.572784 L105.364245,380.970655 L87.1531685,382.673322 L84.5748739,401.976516 L89.1104545,403.949429 L84.2510623,404.404289 L79.3905611,440.801992 L79.7232443,440.898747 L94.7228197,446.022317 L78.6375882,446.439365 L74.5211884,477.26531 L85.364442,480.969806 L73.9877864,481.264519 L71.3329746,501.144907 C70.7629775,505.414364 73.7393829,509.339061 77.9822023,509.907358 L226.235805,529.815549 L374.489408,549.721515 C378.733336,550.292037 382.633492,547.292629 383.204598,543.02206 L385.940363,522.533339 L368.944688,515.135468 L387.154656,513.431689 L389.732951,494.129608 L385.19737,492.155582 L390.057872,491.700722 L394.917264,455.304132 L394.58569,455.207377 L379.585005,450.082694 L395.670237,449.665646 L399.786637,418.840814 L388.943383,415.136318 L400.320039,414.841604 L402.97485,394.960104 Z" id="Fill-101" fill="#F2F3F4"></path>
                    <path d="M467.122003,166.008198 C462.402612,164.941853 459.440728,160.24799 460.506014,155.523907 C461.572379,150.799824 466.260501,147.834996 470.979892,148.901341 C475.699283,149.967686 478.661168,154.661549 477.595881,159.385632 C476.531673,164.109715 471.841394,167.074544 467.122003,166.008198" id="Fill-66" fill="#FFFFFF"></path>
                    <g id="Group-107" transform="translate(84.113744, 398.937500)" fill="#D8D8D8">
                        <path d="M315.649521,16.4048381 L317.766465,0.555605323 C316.932753,2.48529907 314.210177,8.38645566 308.865779,16.5801639 L315.649521,16.4048381 Z" id="Fill-103"></path>
                        <path d="M0.168403336,112.111656 L141.840893,131.123411 L289.859785,150.985164 C294.095887,151.554418 297.990976,148.561673 298.560071,144.300589 L301.291504,123.857376 L284.322737,116.475937 L302.504982,114.775942 L305.078088,95.5167332 L300.549688,93.5482015 L305.402494,93.0932421 L310.2553,56.7774933 L309.923144,56.6809531 L294.947315,51.5676531 L311.007081,51.1515317 L315.116964,20.3951651 L307.961206,17.9528098 C282.483697,56.1194666 202.560205,139.271623 0.168403336,112.111656" id="Fill-105"></path>
                    </g>
                    <path d="M188.017185,365.597169 C188.167926,366.157055 188.022647,366.773936 188.214896,367.319295 C188.468315,368.042342 189.251512,368.441303 189.999754,368.516178 C191.63824,368.681573 193.22648,367.599797 194.069754,366.152585 C194.913028,364.705374 195.124939,362.95978 195.094354,361.27565 C195.030999,357.722998 193.698364,353.86414 190.623471,352.213536 C189.146648,351.421202 187.444807,351.227868 185.786659,351.046827 C179.963478,350.415418 172.185037,355.276707 174.481103,362.481474 C175.313454,365.092042 178.247437,366.865574 180.876661,366.948272 C182.730336,367.007502 187.277682,362.853614 188.017185,365.597169" id="Fill-108" fill="#F5CEB0"></path>
                    <path d="M190.284864,357.76269 C192.835132,358.671227 195.696245,359.864157 198.126185,358.685338 C199.937778,357.805023 200.927135,355.750231 200.938389,353.779019 C200.949418,351.807808 200.12941,349.91475 199.096602,348.219248 C196.891718,344.59921 193.548182,341.549043 189.480454,340.12925 C185.413841,338.709456 180.617465,339.069832 177.092324,341.503453 C174.918636,343.003571 173.327643,345.173423 172.018528,347.433369 C171.068166,349.075683 169.227605,351.954346 169.408096,353.924472 C169.689974,356.981152 170.843109,356.159452 173.712022,355.938017 C179.396367,355.501658 184.880167,355.837068 190.284864,357.76269" id="Fill-110" fill="#FF5254"></path>
                </g>
                <path d="M112.727992,453.649788 C114.43058,453.649788 115.980436,453.387333 117.377559,452.862424 C118.774683,452.337515 119.968999,451.605531 120.960506,450.666473 C121.952013,449.727416 122.720682,448.614993 123.266511,447.329206 C123.812341,446.04342 124.085256,444.639649 124.085256,443.117893 C124.085256,441.605769 123.812341,440.206814 123.266511,438.921027 C122.720682,437.63524 121.952013,436.525226 120.960506,435.590984 C119.968999,434.656742 118.774683,433.924758 117.377559,433.395033 C115.980436,432.865308 114.43058,432.600446 112.727992,432.600446 L112.727992,432.600446 L104.225066,432.600446 L104.225066,453.649788 L112.727992,453.649788 Z M112.223459,450.212822 L108.902406,450.212822 L108.902406,436.179927 L112.223459,436.179927 C113.173731,436.179927 114.021138,436.342171 114.765681,436.66666 C115.510223,436.991149 116.139656,437.455418 116.653978,438.059466 C117.168301,438.663515 117.562614,439.399855 117.83692,440.268486 C118.111225,441.137118 118.248378,442.110585 118.248378,443.188886 C118.248378,444.277172 118.111225,445.25563 117.83692,446.124262 C117.562614,446.992894 117.168301,447.729234 116.653978,448.333282 C116.139656,448.937331 115.510223,449.4016 114.765681,449.726088 C114.021138,450.050577 113.173731,450.212822 112.223459,450.212822 L112.223459,450.212822 Z M131.270632,454.189733 L131.270632,433.140391 L126.597646,433.140391 L126.597646,454.189733 L131.270632,454.189733 Z M145.540333,453.640245 L145.540333,445.636583 L153.505193,432.590903 L148.979705,432.590903 C148.768515,432.590903 148.574925,432.622205 148.398934,432.684809 C148.222942,432.747413 148.067064,432.829279 147.9313,432.930408 C147.795535,433.031538 147.674855,433.144706 147.569261,433.269914 C147.463666,433.395122 147.380699,433.520329 147.320359,433.645537 L147.320359,433.645537 L144.243027,439.771083 C144.001667,440.252652 143.775393,440.70051 143.564203,441.114658 C143.353014,441.528807 143.171994,441.942956 143.021145,442.357104 C142.860239,441.952587 142.674191,441.543254 142.463001,441.129105 C142.251812,440.714957 142.020509,440.262283 141.769093,439.771083 L141.769093,439.771083 L138.661591,433.645537 C138.500685,433.337333 138.289495,433.08451 138.028023,432.887067 C137.76655,432.689624 137.414568,432.590903 136.972075,432.590903 L136.972075,432.590903 L132.476757,432.590903 L140.441616,445.636583 L140.441616,453.640245 L145.540333,453.640245 Z M162.384896,453.915732 C162.806542,453.915732 163.162934,453.807379 163.454071,453.590674 C163.745208,453.373968 163.940973,453.130776 164.041365,452.861098 L164.041365,452.861098 L165.336422,449.191549 L173.679001,449.191549 L174.974059,452.861098 C175.08449,453.169301 175.282764,453.422125 175.568882,453.619568 C175.854999,453.817011 176.21892,453.915732 176.660645,453.915732 L176.660645,453.915732 L180.606053,453.915732 L172.112885,432.86639 L166.902538,432.86639 L158.409371,453.915732 L162.384896,453.915732 Z M173.231933,444.439745 L167.390701,444.439745 L169.357347,439.023438 C169.504111,438.677813 169.66066,438.26852 169.826993,437.79556 C169.993327,437.322599 170.154768,436.808709 170.311317,436.25389 C170.47765,436.799614 170.646429,437.306682 170.817655,437.775095 C170.98888,438.243508 171.138091,438.650527 171.265287,438.996152 L171.265287,438.996152 L173.231933,444.439745 Z M186.290226,454.010699 C186.787352,454.010699 187.244708,453.961465 187.662294,453.862996 C188.07988,453.764528 188.470124,453.629781 188.833026,453.458757 C189.195928,453.287732 189.53646,453.08043 189.85462,452.836849 C190.172781,452.593269 190.480999,452.321184 190.779275,452.020596 L190.779275,452.020596 L191.062637,452.953457 C191.241602,453.492443 191.619418,453.761936 192.196084,453.761936 L192.196084,453.761936 L195.059531,453.761936 L195.059531,437.638989 L190.436258,437.638989 L190.436258,449.128727 C190.018672,449.522601 189.588658,449.828373 189.146216,450.04604 C188.703773,450.263708 188.229018,450.372541 187.721949,450.372541 C187.045858,450.372541 186.533818,450.154874 186.185829,449.719539 C185.837841,449.284204 185.663847,448.667479 185.663847,447.869364 L185.663847,447.869364 L185.663847,437.638989 L181.040574,437.638989 L181.040574,447.869364 C181.040574,448.760765 181.154913,449.57961 181.383591,450.325898 C181.612269,451.072187 181.950315,451.720007 182.397728,452.269359 C182.845142,452.81871 183.394466,453.246272 184.045701,453.552043 C184.696937,453.857814 185.445111,454.010699 186.290226,454.010699 Z M204.458209,454.492462 C205.300188,454.492462 206.115856,454.382344 206.905212,454.162109 C207.694567,453.941873 208.404987,453.61152 209.036472,453.171049 L209.036472,453.171049 L207.552483,451.01274 C207.457761,450.875704 207.365669,450.775375 207.276209,450.711751 C207.186749,450.648127 207.068345,450.616316 206.920999,450.616316 C206.815751,450.616316 206.72366,450.633445 206.644724,450.667704 C206.565789,450.701963 206.481591,450.741116 206.39213,450.785163 C206.30267,450.82921 206.197423,450.868363 206.076388,450.902622 C205.955354,450.936881 205.805376,450.95401 205.626455,450.95401 C205.279139,450.95401 205.013389,450.838998 204.829206,450.608974 C204.645023,450.37895 204.552932,450.08775 204.552932,449.735373 L204.552932,449.735373 L204.552932,442.173951 L208.531284,442.173951 L208.531284,439.061287 L204.552932,439.061287 L204.552932,434.612528 L201.995419,434.612528 C201.406034,434.612528 201.048192,434.847446 200.921895,435.317282 L200.921895,435.317282 L199.958881,439.031923 L197.354008,439.501759 L197.354008,441.278326 C197.354008,441.571973 197.443468,441.794656 197.622389,441.946374 C197.801309,442.098092 198.017066,442.173951 198.26966,442.173951 L198.26966,442.173951 L199.658926,442.173951 L199.658926,450.043703 C199.658926,450.719092 199.764174,451.330858 199.974669,451.879 C200.185163,452.427142 200.493012,452.894531 200.898215,453.281166 C201.303417,453.667802 201.803343,453.966344 202.397991,454.176791 C202.992639,454.387239 203.679378,454.492462 204.458209,454.492462 Z M217.496495,453.929899 C218.710296,453.929899 219.816089,453.738462 220.813874,453.355587 C221.811659,452.972713 222.668006,452.426479 223.382914,451.716885 C224.097822,451.007291 224.65329,450.144547 225.049318,449.128654 C225.445347,448.11276 225.643361,446.971794 225.643361,445.705756 C225.643361,444.449928 225.445347,443.319172 225.049318,442.313489 C224.65329,441.307805 224.097822,440.452719 223.382914,439.74823 C222.668006,439.043741 221.811659,438.502612 220.813874,438.124843 C219.816089,437.747073 218.710296,437.558188 217.496495,437.558188 C216.272408,437.558188 215.1589,437.747073 214.155971,438.124843 C213.153043,438.502612 212.288981,439.043741 211.563787,439.74823 C210.838592,440.452719 210.277981,441.307805 209.881953,442.313489 C209.485925,443.319172 209.28791,444.449928 209.28791,445.705756 C209.28791,446.971794 209.485925,448.11276 209.881953,449.128654 C210.277981,450.144547 210.838592,451.007291 211.563787,451.716885 C212.288981,452.426479 213.153043,452.972713 214.155971,453.355587 C215.1589,453.738462 216.272408,453.929899 217.496495,453.929899 Z M218.144407,450.34606 C217.124509,450.34606 216.37813,450.007783 215.905268,449.331229 C215.432406,448.654675 215.195975,447.626402 215.195975,446.246411 C215.195975,444.86642 215.432406,443.840388 215.905268,443.168315 C216.37813,442.496241 217.124509,442.160204 218.144407,442.160204 C219.136489,442.160204 219.866643,442.496241 220.334869,443.168315 C220.803095,443.840388 221.037208,444.86642 221.037208,446.246411 C221.037208,447.626402 220.803095,448.654675 220.334869,449.331229 C219.866643,450.007783 219.136489,450.34606 218.144407,450.34606 Z M232.68471,453.614755 L232.68471,441.953992 C233.009828,441.622308 233.357113,441.357998 233.726565,441.16106 C234.096017,440.964123 234.487636,440.865654 234.901422,440.865654 C235.571362,440.865654 236.078743,441.052226 236.423565,441.425371 C236.768387,441.798515 236.940798,442.446335 236.940798,443.368831 L236.940798,443.368831 L236.940798,453.614755 L241.522004,453.614755 L241.522004,443.368831 C241.522004,442.560352 241.726434,441.941036 242.135295,441.510883 C242.544155,441.080731 243.058925,440.865654 243.679604,440.865654 C245.039188,440.865654 245.71898,441.700047 245.71898,443.368831 L245.71898,443.368831 L245.71898,453.614755 L250.300186,453.614755 L250.300186,443.368831 C250.300186,442.404875 250.181961,441.541979 249.945512,440.780142 C249.709063,440.018306 249.361778,439.375668 248.903657,438.852229 C248.445537,438.328791 247.87658,437.929733 247.196788,437.655058 C246.516997,437.380382 245.738684,437.243044 244.861851,437.243044 C244.388952,437.243044 243.913591,437.29487 243.435766,437.398521 C242.957941,437.502172 242.504747,437.662832 242.076182,437.880499 C241.647618,438.098167 241.24861,438.383208 240.879157,438.735622 C240.509705,439.088036 240.196903,439.513006 239.940749,440.010532 C239.625483,439.170957 239.1649,438.499815 238.558998,437.997107 C237.953097,437.494398 237.187099,437.243044 236.261006,437.243044 C235.817664,437.243044 235.411266,437.292278 235.041814,437.390747 C234.672362,437.489216 234.32754,437.623962 234.007348,437.794987 C233.687156,437.966011 233.389132,438.168131 233.113274,438.401346 C232.837417,438.634562 232.571411,438.891099 232.315258,439.170957 L232.315258,439.170957 L232.06403,438.300287 C231.985214,438.030793 231.849748,437.828673 231.657633,437.693927 C231.465518,437.55918 231.226605,437.491807 230.940896,437.491807 L230.940896,437.491807 L228.103504,437.491807 L228.103504,453.614755 L232.68471,453.614755 Z M257.728497,454.602817 C258.274022,454.602817 258.770655,454.559586 259.218397,454.473124 C259.666139,454.386663 260.088149,454.254428 260.484427,454.076419 C260.880704,453.898411 261.264115,453.682257 261.63466,453.427959 C262.005206,453.173661 262.39119,452.878676 262.792614,452.543002 L262.792614,452.543002 L263.13228,453.412701 C263.286674,453.799235 263.479666,454.053533 263.711257,454.175596 C263.942848,454.297659 264.285087,454.35869 264.737976,454.35869 L264.737976,454.35869 L266.930368,454.35869 L266.930368,444.471581 C266.930368,443.56628 266.786267,442.732182 266.498065,441.969288 C266.209863,441.206394 265.795573,440.547762 265.255195,439.993392 C264.714817,439.439022 264.05607,439.006715 263.278954,438.696471 C262.501839,438.386228 261.629514,438.231106 260.661979,438.231106 C259.313607,438.231106 258.050151,438.437087 256.871612,438.84905 C255.693072,439.261013 254.620035,439.889129 253.652501,440.733399 L253.652501,440.733399 L254.517106,442.213414 C254.650914,442.447368 254.833613,442.643178 255.065204,442.800843 C255.296795,442.958507 255.577277,443.03734 255.90665,443.03734 C256.277195,443.03734 256.596276,442.976308 256.863892,442.854245 C257.131508,442.732182 257.406843,442.594861 257.689899,442.442282 C257.972954,442.289703 258.294608,442.152382 258.65486,442.030319 C259.015112,441.908256 259.478294,441.847225 260.044404,441.847225 C260.754616,441.847225 261.302714,442.053206 261.688698,442.465169 C262.074683,442.877132 262.267675,443.545936 262.267675,444.471581 L262.267675,444.471581 L262.267675,445.142928 C260.435535,445.183616 258.917329,445.36671 257.713058,445.692212 C256.508786,446.017713 255.551545,446.422047 254.841333,446.905214 C254.131122,447.38838 253.631915,447.924949 253.343713,448.51492 C253.055511,449.104892 252.91141,449.679606 252.91141,450.239061 C252.91141,450.951096 253.024633,451.579212 253.251077,452.12341 C253.477521,452.667608 253.799175,453.122802 254.216038,453.488991 C254.632901,453.85518 255.139828,454.132365 255.736817,454.320546 C256.333806,454.508726 256.9977,454.602817 257.728497,454.602817 Z M258.499244,451.215316 C257.936476,451.215316 257.509375,451.10741 257.217942,450.891596 C256.926508,450.675783 256.780791,450.301873 256.780791,449.769868 C256.780791,449.498846 256.848625,449.2479 256.984292,449.01703 C257.11996,448.78616 257.363658,448.580384 257.715388,448.399703 C258.067119,448.219022 258.544467,448.068455 259.147433,447.948001 C259.750398,447.827547 260.51918,447.747244 261.453777,447.707093 L261.453777,447.707093 L261.453777,449.875265 C260.991503,450.347044 260.534254,450.68833 260.08203,450.899124 C259.629805,451.109919 259.10221,451.215316 258.499244,451.215316 Z M275.027134,454.066403 C275.869113,454.066403 276.684781,453.956285 277.474136,453.73605 C278.263492,453.515814 278.973912,453.185461 279.605397,452.744989 L279.605397,452.744989 L278.121408,450.58668 C278.026685,450.449645 277.934594,450.349315 277.845134,450.285692 C277.755673,450.222068 277.63727,450.190256 277.489924,450.190256 C277.384676,450.190256 277.292585,450.207386 277.213649,450.241645 C277.134713,450.275904 277.050516,450.315057 276.961055,450.359104 C276.871595,450.403151 276.766347,450.442304 276.645313,450.476563 C276.524278,450.510821 276.374301,450.527951 276.19538,450.527951 C275.848064,450.527951 275.582314,450.412939 275.398131,450.182915 C275.213948,449.952891 275.121856,449.661691 275.121856,449.309314 L275.121856,449.309314 L275.121856,441.747891 L279.100209,441.747891 L279.100209,438.635228 L275.121856,438.635228 L275.121856,434.186469 L272.564344,434.186469 C271.974958,434.186469 271.617117,434.421387 271.49082,434.891223 L271.49082,434.891223 L270.527806,438.605863 L267.922932,439.075699 L267.922932,440.852267 C267.922932,441.145914 268.012393,441.368597 268.191313,441.520315 C268.370234,441.672032 268.585991,441.747891 268.838585,441.747891 L268.838585,441.747891 L270.227851,441.747891 L270.227851,449.617644 C270.227851,450.293033 270.333098,450.904799 270.543593,451.45294 C270.754088,452.001082 271.061937,452.468471 271.46714,452.855107 C271.872342,453.241743 272.372267,453.540285 272.966915,453.750732 C273.561563,453.961179 274.248303,454.066403 275.027134,454.066403 Z M288.029358,453.575097 C288.578044,453.575097 289.155199,453.53681 289.760824,453.460235 C290.366448,453.38366 290.972073,453.245825 291.577698,453.046731 C292.183322,452.847636 292.773418,452.571966 293.347985,452.219722 C293.922552,451.867477 294.458297,451.410581 294.95522,450.849031 L294.95522,450.849031 L293.557625,449.149069 C293.360926,448.873399 293.071054,448.735565 292.68801,448.735565 C292.398138,448.735565 292.121207,448.801929 291.857217,448.934659 C291.593226,449.067389 291.303355,449.215434 290.987602,449.378794 C290.671849,449.542153 290.312097,449.690198 289.908348,449.822928 C289.504598,449.955658 289.023204,450.022023 288.464166,450.022023 C287.418557,450.022023 286.564471,449.723381 285.901907,449.126096 C285.239344,448.528812 284.830417,447.566521 284.675129,446.239223 L284.675129,446.239223 L293.961374,446.239223 C294.178778,446.239223 294.35736,446.213698 294.497119,446.162648 C294.636879,446.111598 294.748169,446.019709 294.830989,445.886979 C294.91381,445.754249 294.970749,445.575574 295.001806,445.350955 C295.032864,445.126335 295.048393,444.83535 295.048393,444.478001 C295.048393,443.334483 294.869811,442.310932 294.512648,441.407348 C294.155485,440.503764 293.658562,439.740568 293.02188,439.117759 C292.385197,438.49495 291.624284,438.020186 290.73914,437.693466 C289.853997,437.366747 288.878268,437.203387 287.811954,437.203387 C286.58,437.203387 285.474864,437.412691 284.496547,437.831301 C283.518231,438.24991 282.68485,438.816564 281.996404,439.531263 C281.307959,440.245962 280.779979,441.078076 280.412463,442.027605 C280.044947,442.977133 279.861189,443.982817 279.861189,445.044655 C279.861189,446.453633 280.076005,447.689041 280.505636,448.750879 C280.935267,449.812718 281.520187,450.700987 282.260395,451.415686 C283.000603,452.130384 283.865041,452.668961 284.853711,453.031416 C285.84238,453.39387 286.900929,453.575097 288.029358,453.575097 Z M290.09066,444.237267 L284.249428,444.237267 C284.410427,443.481527 284.742486,442.90279 285.245607,442.501055 C285.748728,442.099319 286.448066,441.898452 287.343621,441.898452 C287.846742,441.898452 288.274394,441.96607 288.626579,442.101308 C288.978763,442.236546 289.263027,442.413548 289.479369,442.632315 C289.695711,442.851081 289.851678,443.09968 289.947271,443.37811 C290.042864,443.656541 290.09066,443.942927 290.09066,444.237267 L290.09066,444.237267 Z M301.791611,453.923062 C302.333646,453.923062 302.837329,453.871663 303.302661,453.768867 C303.767993,453.66607 304.202644,453.519218 304.606613,453.32831 C305.010582,453.137402 305.386427,452.909781 305.734148,452.645447 C306.081868,452.381113 306.414248,452.087408 306.731287,451.764333 L306.731287,451.764333 L307.099462,452.924466 C307.181279,453.17901 307.321901,453.369918 307.521329,453.49719 C307.720757,453.624462 307.968763,453.688098 308.265348,453.688098 L308.265348,453.688098 L311.210745,453.688098 L311.210745,431.704312 L306.455156,431.704312 L306.455156,439.414056 C305.994938,439.042031 305.481028,438.740984 304.913425,438.510915 C304.345823,438.280846 303.652938,438.165812 302.834772,438.165812 C301.822292,438.165812 300.896742,438.36651 300.058122,438.767906 C299.219502,439.169303 298.50105,439.724894 297.902766,440.43468 C297.304483,441.144466 296.841708,441.986419 296.514441,442.960539 C296.187175,443.934659 296.023542,444.989548 296.023542,446.125206 C296.023542,447.358765 296.169277,448.457709 296.460749,449.422039 C296.752221,450.386369 297.153633,451.201399 297.664987,451.86713 C298.176341,452.53286 298.784851,453.041948 299.49052,453.394394 C300.196188,453.746839 300.963218,453.923062 301.791611,453.923062 Z M303.256806,450.459946 C302.93662,450.459946 302.646722,450.392517 302.387112,450.257659 C302.127501,450.122802 301.904669,449.900287 301.718615,449.590114 C301.532561,449.279942 301.387612,448.873122 301.283768,448.369653 C301.179924,447.866185 301.128002,447.24584 301.128002,446.508619 C301.128002,445.744426 301.192904,445.092614 301.322709,444.553184 C301.452515,444.013753 301.632078,443.575466 301.861401,443.238322 C302.090723,442.901178 302.361151,442.656187 302.672683,442.503348 C302.984216,442.35051 303.326036,442.274091 303.698144,442.274091 C304.087559,442.274091 304.457504,442.343767 304.807978,442.48312 C305.158452,442.622473 305.489455,442.867464 305.800987,443.218094 L305.800987,443.218094 L305.800987,449.151827 C305.627914,449.367599 305.452677,449.5564 305.275277,449.718229 C305.097876,449.880058 304.909659,450.014916 304.710624,450.122802 C304.51159,450.230688 304.293084,450.31385 304.055108,450.372288 C303.817132,450.430727 303.551031,450.459946 303.256806,450.459946 Z M321.342943,454.407963 C321.76459,454.407963 322.120982,454.29961 322.412119,454.082904 C322.703256,453.866199 322.89902,453.623007 322.999412,453.353329 L322.999412,453.353329 L324.29447,449.68378 L332.637049,449.68378 L333.932107,453.353329 C334.042538,453.661532 334.240812,453.914356 334.526929,454.111799 C334.813047,454.309241 335.176968,454.407963 335.618693,454.407963 L335.618693,454.407963 L339.564101,454.407963 L331.070933,433.358621 L325.860586,433.358621 L317.367418,454.407963 L321.342943,454.407963 Z M332.18998,444.931976 L326.348748,444.931976 L328.315394,439.515669 C328.462159,439.170044 328.618708,438.760751 328.785041,438.28779 C328.951374,437.81483 329.112815,437.30094 329.269364,436.746121 C329.435698,437.291845 329.604477,437.798913 329.775702,438.267326 C329.946928,438.735739 330.096138,439.142758 330.223334,439.488383 L330.223334,439.488383 L332.18998,444.931976 Z M346.565942,454.310949 C347.107977,454.310949 347.61166,454.259551 348.076992,454.156754 C348.542324,454.053958 348.976974,453.907106 349.380944,453.716198 C349.784913,453.52529 350.160758,453.297669 350.508478,453.033334 C350.856199,452.769 351.188579,452.475296 351.505618,452.152221 L351.505618,452.152221 L351.873793,453.312354 C351.955609,453.566898 352.096232,453.757806 352.295659,453.885078 C352.495087,454.01235 352.743094,454.075986 353.039679,454.075986 L353.039679,454.075986 L355.985076,454.075986 L355.985076,432.092199 L351.229487,432.092199 L351.229487,439.801944 C350.769269,439.429918 350.255358,439.128871 349.687756,438.898803 C349.120153,438.668734 348.427269,438.5537 347.609103,438.5537 C346.596623,438.5537 345.671073,438.754398 344.832453,439.155794 C343.993833,439.55719 343.275381,440.112781 342.677097,440.822567 C342.078813,441.532353 341.616038,442.374306 341.288772,443.348427 C340.961506,444.322547 340.797872,445.377436 340.797872,446.513093 C340.797872,447.746652 340.943608,448.845597 341.23508,449.809927 C341.526551,450.774257 341.927964,451.589287 342.439318,452.255017 C342.950671,452.920748 343.559182,453.429836 344.26485,453.782281 C344.970518,454.134727 345.737549,454.310949 346.565942,454.310949 Z M347.888764,449.687142 C347.568578,449.687142 347.278679,449.619713 347.019069,449.484856 C346.759459,449.349998 346.536626,449.127483 346.350572,448.817311 C346.164518,448.507138 346.019569,448.100318 345.915725,447.59685 C345.811881,447.093381 345.759959,446.473036 345.759959,445.735815 C345.759959,444.971622 345.824862,444.31981 345.954667,443.78038 C346.084472,443.24095 346.264036,442.802662 346.493358,442.465519 C346.722681,442.128375 346.993108,441.883383 347.30464,441.730545 C347.616173,441.577706 347.957993,441.501287 348.330101,441.501287 C348.719517,441.501287 349.089461,441.570963 349.439935,441.710316 C349.790409,441.849669 350.121412,442.09466 350.432945,442.44529 L350.432945,442.44529 L350.432945,448.379024 C350.259871,448.594796 350.084634,448.783596 349.907234,448.945425 C349.729833,449.107254 349.541616,449.242112 349.342581,449.349998 C349.143547,449.457884 348.925041,449.541046 348.687065,449.599485 C348.449089,449.657923 348.182989,449.687142 347.888764,449.687142 Z M362.295304,453.739669 C363.419211,453.739669 364.413233,453.60694 365.277369,453.34148 C366.141505,453.07602 366.867804,452.703356 367.456264,452.223487 C368.044725,451.743617 368.487396,451.171858 368.784277,450.508209 C369.081158,449.84456 369.229599,449.119651 369.229599,448.333483 C369.229599,447.690254 369.120919,447.138914 368.90356,446.679465 C368.6862,446.220016 368.397271,445.829484 368.036773,445.507869 C367.676274,445.186255 367.268063,444.91569 366.812138,444.696176 C366.356214,444.476661 365.889686,444.285224 365.412556,444.121864 C364.935426,443.958504 364.468898,443.810459 364.012974,443.67773 C363.557049,443.545 363.148838,443.404612 362.788339,443.256568 C362.427841,443.108523 362.138912,442.937506 361.921552,442.743516 C361.704193,442.549526 361.595513,442.304487 361.595513,442.008397 C361.595513,441.599998 361.762509,441.280936 362.0965,441.051211 C362.430491,440.821486 362.910272,440.706624 363.535843,440.706624 C363.970562,440.706624 364.357568,440.755121 364.69686,440.852116 C365.036153,440.949111 365.340986,441.053763 365.61136,441.166073 C365.881734,441.278383 366.133553,441.383035 366.366817,441.48003 C366.60008,441.577025 366.833344,441.625523 367.066608,441.625523 C367.289269,441.625523 367.472169,441.584683 367.615308,441.503003 C367.758447,441.421323 367.893634,441.283488 368.020869,441.089498 L368.020869,441.089498 L369.134173,439.420166 C368.826689,439.124076 368.471492,438.850959 368.068582,438.600815 C367.665672,438.35067 367.22035,438.133708 366.732617,437.949928 C366.244883,437.766148 365.722691,437.623209 365.166039,437.521109 C364.609387,437.419009 364.034179,437.367959 363.440417,437.367959 C362.348319,437.367959 361.394058,437.503241 360.577635,437.773806 C359.761212,438.04437 359.082627,438.409377 358.541879,438.868827 C358.001131,439.328276 357.59557,439.861748 357.325196,440.469242 C357.054823,441.076736 356.919636,441.717412 356.919636,442.391271 C356.919636,443.11618 357.030966,443.733884 357.253627,444.244384 C357.476288,444.754883 357.767867,445.186255 358.128366,445.538499 C358.488864,445.890744 358.899727,446.181728 359.360953,446.411453 C359.822179,446.641178 360.291357,446.83772 360.768487,447.00108 C361.245618,447.164439 361.714796,447.309932 362.176022,447.437556 C362.637248,447.565181 363.04811,447.703016 363.408609,447.851061 C363.769107,447.999106 364.060687,448.175228 364.283347,448.379428 C364.506008,448.583627 364.617339,448.843982 364.617339,449.160491 C364.617339,449.334061 364.580229,449.502526 364.506008,449.665886 C364.431788,449.829245 364.315156,449.97729 364.156113,450.11002 C363.997069,450.24275 363.785011,450.347402 363.519939,450.423977 C363.254867,450.500552 362.931478,450.538839 362.549774,450.538839 C362.009026,450.538839 361.561054,450.477579 361.205857,450.35506 C360.85066,450.23254 360.540525,450.09981 360.275453,449.95687 C360.01038,449.81393 359.763863,449.681201 359.5359,449.558681 C359.307938,449.436161 359.050818,449.374901 358.76454,449.374901 C358.457056,449.374901 358.207888,449.433608 358.017035,449.551023 C357.826183,449.668438 357.661838,449.829245 357.524001,450.033445 L357.524001,450.033445 L356.378888,451.779352 C356.696975,452.055022 357.078679,452.312824 357.524001,452.552759 C357.969322,452.792693 358.454405,452.999446 358.979248,453.173015 C359.504092,453.346585 360.04749,453.48442 360.609444,453.58652 C361.171397,453.68862 361.733351,453.739669 362.295304,453.739669 Z" id="DIYAutomatedAds" fill="#427FE0" fill-rule="nonzero" transform="translate(236.727333, 443.153564) rotate(7.000000) translate(-236.727333, -443.153564) "></path>
            </g>
        </g>
    </g>
</svg>