<?xml version="1.0" encoding="UTF-8"?>
<svg width="261px" height="260px" viewBox="0 0 261 260" version="1.1" xmlns="http://www.w3.org/2000/svg" xmlns:xlink="http://www.w3.org/1999/xlink">
    <!-- Generator: Sketch 63.1 (92452) - https://sketch.com -->
    <title>img_question_mob</title>
    <desc>Created with Sketch.</desc>
    <defs>
        <linearGradient x1="46.7060004%" y1="-47.8422739%" x2="50.824924%" y2="29.8906618%" id="linearGradient-1">
            <stop stop-color="#80C3F3" offset="0%"></stop>
            <stop stop-color="#4A90E2" offset="100%"></stop>
        </linearGradient>
    </defs>
    <g id="Page-1" stroke="none" stroke-width="1" fill="none" fill-rule="evenodd">
        <g id="Mobile---Amazon-PPC" transform="translate(-58.000000, -4836.000000)" fill-rule="nonzero">
            <g id="img_question_mob" transform="translate(58.000000, 4836.000000)">
                <path d="M130.5,0 C58.464,0 0,58.24 0,130 C0,201.76 58.464,260 130.5,260 C202.536,260 261,201.76 261,130 C261,58.24 202.536,0 130.5,0 Z" id="Path" fill="url(#linearGradient-1)"></path>
                <g id="Group" transform="translate(79.000000, 48.000000)" fill="#FFFFFF">
                    <path d="M53.2672758,0.390252101 C32.1418112,0.390252101 14.9044689,12.2278992 0.129604077,31.090084 L24.8839828,54.114958 C32.1418112,44.7489076 39.5292436,36.8137815 48.601529,36.8137815 C55.9889614,36.8137815 64.2836224,42.407395 64.2836224,51.3831933 C64.2836224,64.2615126 30.5865622,76.3593277 30.5865622,97.8231933 L30.5865622,116.555294 L69.9862018,116.555294 L69.9862018,103.676975 C69.9862018,89.6278992 103.683262,82.2131092 103.683262,51.9035294 C103.553658,20.2931092 81.3913606,0.390252101 53.2672758,0.390252101 Z" id="Path"></path>
                    <path d="M49.7679657,125.531092 C37.0667661,125.531092 26.828044,135.807731 26.828044,148.555966 C26.828044,161.304202 37.0667661,171.58084 49.7679657,171.58084 C62.4691653,171.58084 72.7078874,161.304202 72.7078874,148.555966 C72.7078874,135.807731 62.3395612,125.531092 49.7679657,125.531092 Z" id="Path"></path>
                </g>
            </g>
        </g>
    </g>
</svg>