<?xml version="1.0" encoding="UTF-8"?>
<svg width="490px" height="498px" viewBox="0 0 490 498" version="1.1" xmlns="http://www.w3.org/2000/svg" xmlns:xlink="http://www.w3.org/1999/xlink">
    <!-- Generator: Sketch 59.1 (86144) - https://sketch.com -->
    <title>img_social_media_marketing</title>
    <desc>Created with Sketch.</desc>
    <defs>
        <linearGradient x1="24.4169347%" y1="6.26148897%" x2="78.9464614%" y2="96.0190717%" id="linearGradient-1">
            <stop stop-color="#427FDF" offset="0%"></stop>
            <stop stop-color="#396BB1" offset="100%"></stop>
        </linearGradient>
        <path d="M421,268.50123 C421,384.756218 326.75486,479 210.49877,479 C94.2451401,479 0,384.756218 0,268.50123 C0,152.246241 94.2451401,58 210.49877,58 C326.75486,58 421,152.246241 421,268.50123" id="path-2"></path>
        <filter x="-3.8%" y="-3.3%" width="107.6%" height="107.6%" filterUnits="objectBoundingBox" id="filter-3">
            <feOffset dx="0" dy="2" in="SourceAlpha" result="shadowOffsetOuter1"></feOffset>
            <feGaussianBlur stdDeviation="5" in="shadowOffsetOuter1" result="shadowBlurOuter1"></feGaussianBlur>
            <feColorMatrix values="0 0 0 0 0   0 0 0 0 0   0 0 0 0 0  0 0 0 0.15 0" type="matrix" in="shadowBlurOuter1"></feColorMatrix>
        </filter>
        <filter x="-5.5%" y="-5.2%" width="111.0%" height="110.4%" filterUnits="objectBoundingBox" id="filter-4">
            <feOffset dx="0" dy="2" in="SourceAlpha" result="shadowOffsetOuter1"></feOffset>
            <feGaussianBlur stdDeviation="5" in="shadowOffsetOuter1" result="shadowBlurOuter1"></feGaussianBlur>
            <feColorMatrix values="0 0 0 0 0   0 0 0 0 0   0 0 0 0 0  0 0 0 0.15 0" type="matrix" in="shadowBlurOuter1" result="shadowMatrixOuter1"></feColorMatrix>
            <feMerge>
                <feMergeNode in="shadowMatrixOuter1"></feMergeNode>
                <feMergeNode in="SourceGraphic"></feMergeNode>
            </feMerge>
        </filter>
        <linearGradient x1="50%" y1="100%" x2="11.0687086%" y2="33.1092209%" id="linearGradient-5">
            <stop stop-color="#DA3E3F" offset="0%"></stop>
            <stop stop-color="#FF5254" offset="100%"></stop>
        </linearGradient>
        <polygon id="path-6" points="0.712987782 0.862505404 185.38461 0.862505404 185.38461 240.842024 0.712987782 240.842024"></polygon>
        <linearGradient x1="69.5109344%" y1="89.8592068%" x2="25.910098%" y2="8.88314495%" id="linearGradient-8">
            <stop stop-color="#DA3E3F" offset="0%"></stop>
            <stop stop-color="#FF5254" offset="100%"></stop>
        </linearGradient>
    </defs>
    <g id="Page-1" stroke="none" stroke-width="1" fill="none" fill-rule="evenodd">
        <g id="Chinese-Social-Media-Marketing" transform="translate(-855.000000, -1199.000000)">
            <g id="img_social_media_marketing" transform="translate(865.000000, 1206.000000)">
                <g id="Fill-1">
                    <use fill="black" fill-opacity="1" filter="url(#filter-3)" xlink:href="#path-2"></use>
                    <use fill="url(#linearGradient-1)" fill-rule="evenodd" xlink:href="#path-2"></use>
                </g>
                <g id="Group-3" filter="url(#filter-4)" transform="translate(54.000000, 0.000000)">
                    <path d="M260.546217,10.8331912 C260.007222,10.067722 259.135969,9.61682243 258.20811,9.61682243 C257.272867,9.61190857 256.399153,10.0602902 255.857697,10.8208049 L114.261907,208.804833 C113.543246,209.81555 113.538324,211.175558 114.254523,212.183797 L172.296196,294.160843 C173.009934,295.17156 174.28974,295.607555 175.4711,295.250832 L407.610718,225.152184 C407.915902,225.060525 408.203859,224.9218 408.457359,224.736006 C408.942208,224.386714 409.311383,223.893742 409.510738,223.314067 C409.811,222.424735 409.673175,221.4487 409.131718,220.685708 L260.546217,10.8331912 Z" id="Fill-3" fill="#FFFFFF"></path>
                    <path d="M126.617733,276.84841 C126.025987,276.328235 125.252543,276.080532 124.479099,276.152366 C123.698289,276.219246 122.983774,276.610616 122.495154,277.217487 L84.2133552,325.140482 C83.2459362,326.354224 83.3981697,328.120342 84.5620188,329.138399 L210.545009,440.277539 C211.546803,441.169268 213.02003,441.238624 214.105307,440.46827 L265.965345,403.176664 C266.682316,402.661443 267.13165,401.846502 267.170936,400.949819 C267.210222,400.063044 266.844371,399.20104 266.178963,398.618939 L126.617733,276.84841 Z" id="Fill-5" fill="#0E2054"></path>
                    <path d="M58.3336554,251.438391 C57.5405575,251.325268 56.7548717,251.568729 56.1767255,252.104837 L0.855056194,302.983381 C-0.160405647,303.91542 -0.288882571,305.513905 0.563512405,306.704162 L11.185095,321.538101 C12.1116113,322.829185 13.860874,323.180852 15.0937584,322.297996 L31.901999,310.375758 L34.2343493,313.636668 L17.423638,325.558906 C16.1907536,326.434383 15.9486241,328.187798 16.8751403,329.48626 L18.4860433,331.743812 C18.9332418,332.363533 19.5953921,332.791435 20.329193,332.934069 C21.0605232,333.079162 21.8042069,332.921773 22.3971774,332.506167 L39.2103594,320.574092 L43.1264349,326.050747 L26.3157235,337.972985 C25.7227531,338.395969 25.3323809,339.050118 25.2286111,339.78788 C25.1297827,340.518265 25.3175567,341.280619 25.7647552,341.902799 L27.3781289,344.150514 C28.3095866,345.451435 30.0563786,345.790806 31.2867922,344.915328 L48.0975036,332.998008 L50.4298539,336.249081 L33.6216132,348.178696 C32.3887289,349.051715 32.1441286,350.807589 33.0706449,352.103591 L43.6922275,366.93999 C44.5421518,368.122869 46.1011698,368.528638 47.3217006,367.876948 L113.699798,332.439768 C113.798626,332.390584 113.890042,332.331563 113.978988,332.270083 C114.520073,331.879069 114.900563,331.301155 115.033981,330.627332 C115.194577,329.840386 115.006803,329.009174 114.529956,328.33781 L60.3423427,252.663077 C59.8605542,251.989254 59.1292241,251.544137 58.3336554,251.438391" id="Fill-9" fill="#0E2054"></path>
                    <path d="M125.710344,276.846401 C125.120723,276.327701 124.350056,276.080702 123.576943,276.152332 C122.801383,276.219021 122.089434,276.609281 121.602568,277.21443 L102.759156,300.817715 L212.494752,397.695912 C213.492949,398.57523 214.963332,398.65674 216.044712,397.868811 L242.511608,378.83749 L125.710344,276.846401 Z" id="Fill-7" fill="#1C4A94"></path>
                    <path d="M116.244372,192.38785 C115.51339,192.2443 114.775024,192.405175 114.184331,192.82345 L18.9178673,261.093853 C18.3320969,261.514603 17.943224,262.168003 17.8398528,262.903078 C17.7340203,263.650528 17.9284567,264.422728 18.3714764,265.043953 L91.555869,368.305907 C91.9964275,368.927132 92.6584958,369.367682 93.3870171,369.506282 C94.1179996,369.654782 94.8612882,369.496382 95.4470587,369.070682 L190.711061,300.800279 C191.936749,299.919179 192.180409,298.156979 191.257452,296.850179 L118.080443,193.5907 C117.634962,192.964525 116.975355,192.53635 116.244372,192.38785" id="Fill-11" fill="url(#linearGradient-5)"></path>
                    <g id="Group-15" transform="translate(231.550631, 0.000000)">
                        <mask id="mask-7" fill="white">
                            <use xlink:href="#path-6"></use>
                        </mask>
                        <g id="Clip-14"></g>
                        <path d="M23.471251,0.861506727 C22.5469828,0.859045497 21.6718778,1.30883342 21.1286244,2.06507024 L1.25194099,29.8184676 C0.534158212,30.8267834 0.534158212,32.1810899 1.24702467,33.191877 L147.581301,239.627232 C148.299084,240.638019 149.569953,241.072979 150.754786,240.722045 L183.335242,230.898381 C183.640053,230.801998 183.922742,230.66113 184.175932,230.480721 C184.657732,230.132258 185.03383,229.640457 185.230483,229.059687 C185.530379,228.17494 185.390263,227.201223 184.849468,226.444986 L25.8089614,2.07495569 C25.2730825,1.31871886 24.4004356,0.861506727 23.471251,0.861506727" id="Fill-13" fill="url(#linearGradient-8)" mask="url(#mask-7)"></path>
                    </g>
                </g>
            </g>
        </g>
    </g>
</svg>