<?xml version="1.0" encoding="UTF-8"?>
<svg width="557px" height="435px" viewBox="0 0 557 435" version="1.1" xmlns="http://www.w3.org/2000/svg" xmlns:xlink="http://www.w3.org/1999/xlink">
    <!-- Generator: Sketch 59.1 (86144) - https://sketch.com -->
    <title>img_reviews</title>
    <desc>Created with Sketch.</desc>
    <defs>
        <filter x="-7.5%" y="-11.7%" width="115.1%" height="123.3%" filterUnits="objectBoundingBox" id="filter-1">
            <feOffset dx="0" dy="5" in="SourceAlpha" result="shadowOffsetOuter1"></feOffset>
            <feGaussianBlur stdDeviation="5" in="shadowOffsetOuter1" result="shadowBlurOuter1"></feGaussianBlur>
            <feColorMatrix values="0 0 0 0 0   0 0 0 0 0   0 0 0 0 0  0 0 0 0.25 0" type="matrix" in="shadowBlurOuter1" result="shadowMatrixOuter1"></feColorMatrix>
            <feMerge>
                <feMergeNode in="shadowMatrixOuter1"></feMergeNode>
                <feMergeNode in="SourceGraphic"></feMergeNode>
            </feMerge>
        </filter>
        <filter x="-7.5%" y="-11.7%" width="115.1%" height="123.3%" filterUnits="objectBoundingBox" id="filter-2">
            <feOffset dx="0" dy="5" in="SourceAlpha" result="shadowOffsetOuter1"></feOffset>
            <feGaussianBlur stdDeviation="5" in="shadowOffsetOuter1" result="shadowBlurOuter1"></feGaussianBlur>
            <feColorMatrix values="0 0 0 0 0   0 0 0 0 0   0 0 0 0 0  0 0 0 0.25 0" type="matrix" in="shadowBlurOuter1" result="shadowMatrixOuter1"></feColorMatrix>
            <feMerge>
                <feMergeNode in="shadowMatrixOuter1"></feMergeNode>
                <feMergeNode in="SourceGraphic"></feMergeNode>
            </feMerge>
        </filter>
    </defs>
    <g id="Page-1" stroke="none" stroke-width="1" fill="none" fill-rule="evenodd">
        <g id="how-to-pick-the-best-seo-agency" transform="translate(-86.000000, -4868.000000)">
            <g id="img_reviews" transform="translate(96.000000, 4873.000000)">
                <g id="Group-5" filter="url(#filter-1)">
                    <path d="M13,0 L377.908078,0 C385.08778,-1.31888981e-15 390.908078,5.82029825 390.908078,13 L390.908078,240 C390.908078,247.179702 385.08778,253 377.908078,253 L13,253 C5.82029825,253 8.79259876e-16,247.179702 0,240 L0,13 C-8.79259876e-16,5.82029825 5.82029825,1.31888981e-15 13,0 Z" id="Rectangle" fill="#FFFFFF"></path>
                    <g id="Group-4" transform="translate(32.757660, 98.513274)">
                        <path d="M46.4066852,95.1548673 C20.8172656,95.1548673 0,73.8104411 0,47.5774336 C0,21.3444262 20.8172656,0 46.4066852,0 C71.9941713,0 92.8133705,21.3444262 92.8133705,47.5774336 C92.8133705,73.8104411 71.9941713,95.1548673 46.4066852,95.1548673" id="Fill-8" fill="#FFDA00"></path>
                        <path d="M40.9825272,37.0733249 L39.1075096,37.0733249 C39.1075096,32.833235 36.163732,29.3840427 32.5449481,29.3840427 C28.9261641,29.3840427 25.9823865,32.833235 25.9823865,37.0733249 L24.107369,37.0733249 C24.107369,31.6227223 27.8930295,27.1871049 32.5449481,27.1871049 C37.1968667,27.1871049 40.9825272,31.6227223 40.9825272,37.0733249" id="Fill-10" fill="#34495E"></path>
                        <path d="M68.7060015,37.0733249 L66.8309839,37.0733249 C66.8309839,32.833235 63.8872063,29.3840427 60.2684224,29.3840427 C56.6496384,29.3840427 53.7058608,32.833235 53.7058608,37.0733249 L51.8308433,37.0733249 C51.8308433,31.6227223 55.6165038,27.1871049 60.2684224,27.1871049 C64.920341,27.1871049 68.7060015,31.6227223 68.7060015,37.0733249" id="Fill-12" fill="#34495E"></path>
                        <path d="M46.4057086,74.1466498 C57.3905719,74.1466498 66.2952646,65.2935214 66.2952646,54.3742099 L26.5181058,54.3742099 C26.5181058,65.2935214 35.4208453,74.1466498 46.4057086,74.1466498" id="Fill-14" fill="#34495E"></path>
                    </g>
                    <path d="M13,0 L379,0 C386.179702,-3.09524665e-15 392,5.82029825 392,13 L392,47.0176991 L392,47.0176991 L0,47.0176991 L0,13 C-2.65561672e-15,5.82029825 5.82029825,-4.57467025e-16 13,0 Z" id="Rectangle-2" fill="#FF5254"></path>
                    <polygon id="Fill-5" fill="#E9ECED" points="0 71.6460177 390.908078 71.6460177 390.908078 47.0176991 0 47.0176991"></polygon>
                    <path d="M69.8830084,25.7488173 C69.8830084,29.4578415 66.9502361,32.4646018 63.3324807,32.4646018 C59.7147253,32.4646018 56.7799443,29.4578415 56.7799443,25.7488173 C56.7799443,22.0397932 59.7147253,19.0309735 63.3324807,19.0309735 C66.9502361,19.0309735 69.8830084,22.0397932 69.8830084,25.7488173" id="Fill-6" fill="#FFFFFF"></path>
                    <path d="M51.3203343,25.7488173 C51.3203343,29.4578415 48.3855532,32.4646018 44.7677979,32.4646018 C41.1500425,32.4646018 38.2172702,29.4578415 38.2172702,25.7488173 C38.2172702,22.0397932 41.1500425,19.0309735 44.7677979,19.0309735 C48.3855532,19.0309735 51.3203343,22.0397932 51.3203343,25.7488173" id="Fill-7" fill="#FFFFFF"></path>
                    <path d="M33.8495822,25.7488173 C33.8495822,29.4578415 30.9168099,32.4646018 27.2970458,32.4646018 C23.6792904,32.4646018 20.7465181,29.4578415 20.7465181,25.7488173 C20.7465181,22.0397932 23.6792904,19.0309735 27.2970458,19.0309735 C30.9168099,19.0309735 33.8495822,22.0397932 33.8495822,25.7488173" id="Fill-8" fill="#FFFFFF"></path>
                    <path d="M84.3941504,21.2699115 L331.628134,21.2699115 C333.008846,21.2699115 334.128134,22.3891996 334.128134,23.7699115 L334.128134,25.4867257 C334.128134,26.8674375 333.008846,27.9867257 331.628134,27.9867257 L84.3941504,27.9867257 C83.0134385,27.9867257 81.8941504,26.8674375 81.8941504,25.4867257 L81.8941504,23.7699115 C81.8941504,22.3891996 83.0134385,21.2699115 84.3941504,21.2699115 Z" id="Rectangle-3" fill="#FFFFFF"></path>
                    <polygon id="Fill-10" fill="#FFFFFF" points="357.602405 16.7920354 359.020188 21.0679807 363.610028 21.0679807 359.896299 23.7107804 361.316134 27.9867257 357.602405 25.343926 353.890728 27.9867257 355.308511 23.7107804 351.598886 21.0679807 356.186674 21.0679807"></polygon>
                    <g id="Group-6" transform="translate(150.685237, 92.915929)" fill="#FFDA00">
                        <polygon id="Fill-11" points="194.880317 0 199.141263 13.6824717 212.924791 13.6824717 201.771081 22.1405371 206.032026 35.8230088 194.880317 27.3670324 183.728608 35.8230088 187.989554 22.1405371 176.835843 13.6824717 190.619372 13.6824717"></polygon>
                        <polygon id="Fill-12" points="150.370615 0 154.631561 13.6824717 168.415089 13.6824717 157.261379 22.1405371 161.522324 35.8230088 150.370615 27.3670324 139.218906 35.8230088 143.479852 22.1405371 132.326141 13.6824717 146.10967 13.6824717"></polygon>
                        <polygon id="Fill-13" points="105.860913 0 110.121859 13.6824717 123.905387 13.6824717 112.751677 22.1405371 117.012622 35.8230088 105.860913 27.3670324 94.7092041 35.8230088 98.9681482 22.1405371 87.8164393 13.6824717 101.601969 13.6824717"></polygon>
                        <polygon id="Fill-14" points="61.351211 0 65.6101551 13.6824717 79.3956848 13.6824717 68.2439758 22.1405371 72.50292 35.8230088 61.351211 27.3670324 50.199502 35.8230088 54.4584461 22.1405371 43.3067372 13.6824717 57.0922669 13.6824717"></polygon>
                        <polygon id="Fill-15" points="18.0444738 0 22.303418 13.6824717 36.0889476 13.6824717 24.9372387 22.1405371 29.1961828 35.8230088 18.0444738 27.3670324 6.89276484 35.8230088 11.151709 22.1405371 0 13.6824717 13.7855297 13.6824717"></polygon>
                    </g>
                    <g id="Group-7" transform="translate(153.961003, 144.411504)" fill="#DADFE1">
                        <polygon id="Fill-16" points="0 49.2566372 111.703621 49.2566372 111.703621 40.6367257 0 40.6367257"></polygon>
                        <polygon id="Fill-17" points="0 28.3225664 158.547075 28.3225664 158.547075 19.7026549 0 19.7026549"></polygon>
                        <polygon id="Fill-18" points="0 8.6199115 204.189415 8.6199115 204.189415 0 0 0"></polygon>
                    </g>
                </g>
                <g id="Group-5-Copy" filter="url(#filter-2)" transform="translate(145.000000, 162.000000)">
                    <path d="M13,0 L377.908078,0 C385.08778,-1.31888981e-15 390.908078,5.82029825 390.908078,13 L390.908078,240 C390.908078,247.179702 385.08778,253 377.908078,253 L13,253 C5.82029825,253 1.68214003e-14,247.179702 0,240 L0,13 C-4.43197356e-15,5.82029825 5.82029825,1.31888981e-15 13,0 Z" id="Rectangle" fill="#FFFFFF"></path>
                    <g id="Group-4" transform="translate(32.757660, 98.513274)">
                        <path d="M46.4066852,95.1548673 C20.8172656,95.1548673 0,73.8104411 0,47.5774336 C0,21.3444262 20.8172656,0 46.4066852,0 C71.9941713,0 92.8133705,21.3444262 92.8133705,47.5774336 C92.8133705,73.8104411 71.9941713,95.1548673 46.4066852,95.1548673" id="Fill-8" fill="#FFDA00"></path>
                        <path d="M40.9825272,37.0733249 L39.1075096,37.0733249 C39.1075096,32.833235 36.163732,29.3840427 32.5449481,29.3840427 C28.9261641,29.3840427 25.9823865,32.833235 25.9823865,37.0733249 L24.107369,37.0733249 C24.107369,31.6227223 27.8930295,27.1871049 32.5449481,27.1871049 C37.1968667,27.1871049 40.9825272,31.6227223 40.9825272,37.0733249" id="Fill-10" fill="#34495E"></path>
                        <path d="M68.7060015,37.0733249 L66.8309839,37.0733249 C66.8309839,32.833235 63.8872063,29.3840427 60.2684224,29.3840427 C56.6496384,29.3840427 53.7058608,32.833235 53.7058608,37.0733249 L51.8308433,37.0733249 C51.8308433,31.6227223 55.6165038,27.1871049 60.2684224,27.1871049 C64.920341,27.1871049 68.7060015,31.6227223 68.7060015,37.0733249" id="Fill-12" fill="#34495E"></path>
                        <path d="M46.4057086,74.1466498 C57.3905719,74.1466498 66.2952646,65.2935214 66.2952646,54.3742099 L26.5181058,54.3742099 C26.5181058,65.2935214 35.4208453,74.1466498 46.4057086,74.1466498" id="Fill-14" fill="#34495E"></path>
                    </g>
                    <path d="M13,0 L379,0 C386.179702,-1.31888981e-15 392,5.82029825 392,13 L392,47.0176991 L392,47.0176991 L0,47.0176991 L0,13 C-8.79259876e-16,5.82029825 5.82029825,1.31888981e-15 13,0 Z" id="Rectangle-2" fill="#FF5254"></path>
                    <polygon id="Fill-5" fill="#E9ECED" points="0 71.6460177 390.908078 71.6460177 390.908078 47.0176991 0 47.0176991"></polygon>
                    <path d="M69.8830084,25.7488173 C69.8830084,29.4578415 66.9502361,32.4646018 63.3324807,32.4646018 C59.7147253,32.4646018 56.7799443,29.4578415 56.7799443,25.7488173 C56.7799443,22.0397932 59.7147253,19.0309735 63.3324807,19.0309735 C66.9502361,19.0309735 69.8830084,22.0397932 69.8830084,25.7488173" id="Fill-6" fill="#FFFFFF"></path>
                    <path d="M51.3203343,25.7488173 C51.3203343,29.4578415 48.3855532,32.4646018 44.7677979,32.4646018 C41.1500425,32.4646018 38.2172702,29.4578415 38.2172702,25.7488173 C38.2172702,22.0397932 41.1500425,19.0309735 44.7677979,19.0309735 C48.3855532,19.0309735 51.3203343,22.0397932 51.3203343,25.7488173" id="Fill-7" fill="#FFFFFF"></path>
                    <path d="M33.8495822,25.7488173 C33.8495822,29.4578415 30.9168099,32.4646018 27.2970458,32.4646018 C23.6792904,32.4646018 20.7465181,29.4578415 20.7465181,25.7488173 C20.7465181,22.0397932 23.6792904,19.0309735 27.2970458,19.0309735 C30.9168099,19.0309735 33.8495822,22.0397932 33.8495822,25.7488173" id="Fill-8" fill="#FFFFFF"></path>
                    <path d="M84.3941504,21.2699115 L331.628134,21.2699115 C333.008846,21.2699115 334.128134,22.3891996 334.128134,23.7699115 L334.128134,25.4867257 C334.128134,26.8674375 333.008846,27.9867257 331.628134,27.9867257 L84.3941504,27.9867257 C83.0134385,27.9867257 81.8941504,26.8674375 81.8941504,25.4867257 L81.8941504,23.7699115 C81.8941504,22.3891996 83.0134385,21.2699115 84.3941504,21.2699115 Z" id="Rectangle-3" fill="#FFFFFF"></path>
                    <polygon id="Fill-10" fill="#FFFFFF" points="357.602405 16.7920354 359.020188 21.0679807 363.610028 21.0679807 359.896299 23.7107804 361.316134 27.9867257 357.602405 25.343926 353.890728 27.9867257 355.308511 23.7107804 351.598886 21.0679807 356.186674 21.0679807"></polygon>
                    <g id="Group-6" transform="translate(150.685237, 92.915929)" fill="#FFDA00">
                        <polygon id="Fill-11" points="194.880317 0 199.141263 13.6824717 212.924791 13.6824717 201.771081 22.1405371 206.032026 35.8230088 194.880317 27.3670324 183.728608 35.8230088 187.989554 22.1405371 176.835843 13.6824717 190.619372 13.6824717"></polygon>
                        <polygon id="Fill-12" points="150.370615 0 154.631561 13.6824717 168.415089 13.6824717 157.261379 22.1405371 161.522324 35.8230088 150.370615 27.3670324 139.218906 35.8230088 143.479852 22.1405371 132.326141 13.6824717 146.10967 13.6824717"></polygon>
                        <polygon id="Fill-13" points="105.860913 0 110.121859 13.6824717 123.905387 13.6824717 112.751677 22.1405371 117.012622 35.8230088 105.860913 27.3670324 94.7092041 35.8230088 98.9681482 22.1405371 87.8164393 13.6824717 101.601969 13.6824717"></polygon>
                        <polygon id="Fill-14" points="61.351211 0 65.6101551 13.6824717 79.3956848 13.6824717 68.2439758 22.1405371 72.50292 35.8230088 61.351211 27.3670324 50.199502 35.8230088 54.4584461 22.1405371 43.3067372 13.6824717 57.0922669 13.6824717"></polygon>
                        <polygon id="Fill-15" points="18.0444738 0 22.303418 13.6824717 36.0889476 13.6824717 24.9372387 22.1405371 29.1961828 35.8230088 18.0444738 27.3670324 6.89276484 35.8230088 11.151709 22.1405371 0 13.6824717 13.7855297 13.6824717"></polygon>
                    </g>
                    <g id="Group-7" transform="translate(153.961003, 144.411504)" fill="#DADFE1">
                        <polygon id="Fill-16" points="0 49.2566372 111.703621 49.2566372 111.703621 40.6367257 0 40.6367257"></polygon>
                        <polygon id="Fill-17" points="0 28.3225664 158.547075 28.3225664 158.547075 19.7026549 0 19.7026549"></polygon>
                        <polygon id="Fill-18" points="0 8.6199115 204.189415 8.6199115 204.189415 0 0 0"></polygon>
                    </g>
                </g>
            </g>
        </g>
    </g>
</svg>