<svg height="249" viewBox="0 0 218 249" width="218" xmlns="http://www.w3.org/2000/svg"><g fill="none"><g fill="#427fe0"><path d="m45.0284636 225.000925c1.3589303 0 2.5906897.221804 3.6952783.665413 1.0629122.41466 2.0275217 1.057769 2.8293847 1.886363.8022902.851242 1.418887 1.868542 1.8086889 2.984088.4254563 1.174741.6381845 2.486741.6381845 3.935999 0 1.462265-.2127282 2.780426-.6381845 3.954482-.3922951 1.119465-1.0084371 2.141962-1.8086889 3.001546-.7976457.838367-1.7630855 1.488337-2.8293847 1.904846-1.1052544.443609-2.3370138.665413-3.6952783.665413-1.2652583.017307-2.5225428-.208362-3.7072629-.665413-1.0715034-.416032-2.0425811-1.065898-2.846363-1.904846-.806177-.858294-1.4284429-1.88079-1.8266659-3.001546-.4321145-1.174741-.6481718-2.492902-.6481718-3.954482 0-1.449943.2160573-2.761942.6481718-3.935999.3957354-1.116855 1.0184596-2.134153 1.8266659-2.984088.8079055-.829265 1.7781763-1.47229 2.846363-1.886363 1.1847201-.457051 2.4420046-.68272 3.7072629-.665413zm0 15.582775c1.5140654 0 2.6346336-.515147 3.3617045-1.545441.727071-1.030295 1.0906065-2.540138 1.0906065-4.529531 0-1.989392-.3635355-3.505054-1.0906065-4.546987-.7270709-1.041932-1.8476391-1.56324-3.3617045-1.563925-1.5373689 0-2.672585.524389-3.4056483 1.573167s-1.0992621 2.56136-1.0985972 4.537745c0 1.97707.3661997 3.483149 1.0985972 4.518235.7323975 1.035087 1.8676136 1.553999 3.4056483 1.556737z"/><path d="m57 243v-17.717723h2.8300914c.5993632 0 .992959.259152 1.1807876.777457l.2996816 1.312204c.3284849-.338533.6810245-.655959 1.0552168-.950115.3648553-.285125.7606039-.533791 1.1807875-.741938.4285544-.211464.8813033-.376952 1.3496223-.49331.5167571-.125415 1.048969-.186575 1.5828252-.181538 1.2120923 0 2.2085687.302234 2.9894291.906704.7808605.604469 1.3650988 1.407578 1.7527151 2.409326.2792383-.560302.659371-1.071574 1.1238059-1.511502.4342332-.410042.9323009-.756315 1.4773035-1.027072.5408771-.267743 1.1175394-.466823 1.7147273-.591972.599922-.125711 1.2128316-.189238 1.8276355-.189431.9646204-.015615 1.9239368.13661 2.8290362.448912.7934946.279851 1.5060687.7292 2.0808875 1.312205.5825278.609571 1.0198977 1.327902 1.2831436 2.107421.3085891.921718.4574972 1.883657.4410806 2.849358v11.276081h-4.6292361v-11.271148c0-1.128693-.2687285-1.977844-.8061856-2.547453-.5374571-.569608-1.324297-.854413-2.3605199-.854413-.4515487-.003981-.8998206.072012-1.3211314.223963-.8360407.298046-1.4912306.922536-1.7938686 1.709813-.1823769.470317-.2710718.967891-.2616937 1.46809v11.276081h-4.64823v-11.276081c0-1.183944-.2592316-2.047565-.7776948-2.590864-.5184631-.543299-1.2789227-.813633-2.2813786-.811002-.6534987-.002405-1.2963011.155077-1.8645681.456806-.6117409.329134-1.1597029.752415-1.620813 1.25202v12.969121z"/><path d="m89 249v-23.668334h2.7237693c.2597533-.007565.5161471.059058.7379621.191755.2090198.135476.3519835.349255.3953368.591162l.3608715 1.651279c.7273438-.809946 1.5957093-1.486803 2.5646209-1.999021.9663789-.510685 2.0976504-.766027 3.3938146-.766027 1.9354768-.031491 3.7680288.852347 4.9234638 2.374583.608211.770994 1.076533 1.72149 1.404966 2.851487.328434 1.129997.493327 2.425585.494678 3.886765.011744 1.255626-.176708 2.505342-.55854 3.703952-.33838 1.074185-.878473 2.076979-1.592498 2.956803-1.402927 1.720032-3.541815 2.703249-5.7881361 2.660726-1.0440947 0-1.9293788-.153669-2.6558524-.461007-.7247219-.30629-1.3863421-.739619-1.9523557-1.278698v7.304575zm8.6416574-20.607208c-.92448 0-1.713802.188112-2.3679662.564336-.7006499.418228-1.3187252.956716-1.8246315 1.589679v7.999066c.5034632.602753 1.0525421 1.023025 1.6472368 1.260814.6089104.240957 1.2602354.362152 1.9168767.356685.6278839.008449 1.2502422-.115922 1.8246315-.364633.5517724-.248539 1.0289847-.632101 1.3857063-1.113769.411451-.568733.707735-1.209568.872782-1.887744.217656-.877827.319853-1.779337.304105-2.682583 0-1.043227-.086839-1.927155-.260517-2.651784-.173678-.724628-.422706-1.313141-.747085-1.765537-.295062-.42872-.7022261-.771865-1.1789145-.993549-.4948499-.21423-1.0313373-.320346-1.5722241-.310981z"/><path d="m117.946298 225.000539c1.103841-.012014 2.200735.176892 3.237669.557587.955779.351835 1.824926.906611 2.54826 1.626553.734773.745889 1.303614 1.640162 1.66888 2.623638.399006 1.035764.598509 2.219054.598509 3.54987.003039.279307-.011972.558517-.044939.835868-.017868.183077-.073525.360394-.163415.52062-.074201.122054-.185603.216771-.317639.270065-.163621.059149-.336886.086672-.510674.081122h-11.500363c.13618 1.893538.650257 3.283228 1.542233 4.169069.891977.885842 2.077079 1.330816 3.555308 1.334924.634819.012422 1.267818-.07241 1.877235-.251582.47402-.146647.934914-.333168 1.377797-.557587.393559-.205373.738434-.391235 1.034624-.557588.260504-.157368.557177-.244056.860995-.251581.163338-.005804.325532.029492.471863.102686.136266.075424.253903.180711.344193.308059l1.306303 1.617312c-.481554.563121-1.044051 1.050783-1.668881 1.446851-.606039.384875-1.254084.698416-1.931366.934447-.665408.232428-1.352021.398216-2.049843.494948-.670076.093876-1.345718.141906-2.022266.143761-1.23191.011273-2.455387-.205228-3.609439-.638709-1.091558-.410929-2.081765-1.054432-2.902668-1.88635-.854-.883478-1.514976-1.936609-1.940558-3.091888-.471862-1.22813-.707794-2.651021-.707794-4.268675-.009663-1.210708.197929-2.413244.612808-3.549869.390356-1.074236.991984-2.058385 1.768973-2.893704.792763-.838625 1.749808-1.502945 2.810746-1.951042 1.111906-.479203 2.363056-.718805 3.753449-.718805zm.0909 3.183279c-1.305962 0-2.327309.365564-3.06404 1.096691-.736732.731128-1.208253 1.767576-1.414565 3.109345h8.415896c.003343-.550965-.075848-1.099296-.23491-1.626553-.148627-.490257-.395789-.944613-.726177-1.334923-.33797-.392193-.759742-.702508-1.233787-.907748-.550587-.235071-1.144356-.350547-1.742417-.338866z"/><path d="m136.996618 243c-1.6486 0-2.919251-.445274-3.811952-1.335819-.892701-.890544-1.338702-2.120857-1.338004-3.690939v-10.141486h-1.935814c-.236152.003878-.465201-.078046-.641781-.229546-.180076-.153705-.269067-.384262-.269067-.690661v-1.734235l3.067569-.478306.966336-4.954959c.038757-.218252.16187-.414148.344447-.548079.197607-.135662.43617-.20429.678425-.195165h2.379721v5.717416h5.020134v3.114546h-5.020134v9.841155c0 .566281.149016 1.008857.447049 1.327727.305814.32035.742912.493294 1.193525.472238.242849.004732.484832-.029438.716115-.101121.17176-.056245.339318-.123819.50149-.202244.142385-.070785.270113-.138536.38109-.202243.099941-.062784.215854-.09777.335025-.101122.120282-.003722.238339.031912.335024.101122.105607.085287.199229.183532.278489.292242l1.375695 2.123553c-.682417.53769-1.463895.94597-2.303294 1.203348-.871926.273976-1.783183.413216-2.700088.412578z"/><path d="m151.946282 225.000539c1.103844-.012014 2.20074.176892 3.237676.557587.95578.351835 1.824929.906611 2.548264 1.626553.734775.745889 1.303617 1.640162 1.668884 2.623638.399007 1.035764.59851 2.219054.59851 3.54987.003039.279307-.011973.558517-.044939.835868-.017868.183077-.073525.360394-.163416.52062-.074201.122054-.185603.216771-.317639.270065-.163621.059149-.336886.086672-.510675.081122h-11.500385c.13618 1.893538.650259 3.283228 1.542236 4.169069.891978.885842 2.077083 1.330816 3.555315 1.334924.63482.012422 1.267821-.07241 1.877239-.251582.474287-.146825.935507-.33334 1.37882-.557587.392198-.205373.736733-.391235 1.033605-.557588.260504-.157368.557178-.244056.860997-.251581.163338-.005804.325532.029492.471863.102686.136376.07567.254297.180899.345216.308059l1.305283 1.617312c-.481554.563121-1.044052 1.050783-1.668883 1.446851-.605935.385067-1.254003.698619-1.93137.934447-.66541.232428-1.352024.398216-2.049847.494948-.670078.093876-1.345721.141906-2.02227.143761-1.231913.011273-2.455392-.205228-3.609446-.638709-1.09156-.410929-2.081769-1.054432-2.902673-1.88635-.854002-.883478-1.514979-1.936609-1.940563-3.091888-.471863-1.22813-.707794-2.651021-.707794-4.268675-.00915-1.210665.198426-2.41311.612809-3.549869.390759-1.074039.992342-2.058112 1.768976-2.893704.79314-.838651 1.750524-1.502964 2.811773-1.951042 1.111227-.479203 2.362038-.718805 3.752434-.718805zm.0909 3.183279c-1.305964 0-2.327313.365564-3.064045 1.096691-.736733.731128-1.208256 1.767576-1.414568 3.109345h8.412931c.00293-.551017-.076606-1.099349-.236014-1.626553-.148222-.490428-.395428-.944863-.726179-1.334923-.337582-.392174-.759019-.702499-1.232768-.907748-.549713-.234409-1.142344-.349866-1.739357-.338866z"/><path d="m164 242.999013v-17.722471h2.707217c.572274 0 .94808.259222 1.127419.777665l.302258 1.398415c.363856-.362756.755589-.697634 1.17175-1.001687.410873-.298391.849383-.55842 1.309781-.776678.470796-.222733.966481-.39098 1.47703-.501338.562724-.119001 1.137119-.176919 1.712791-.172705 1.001479 0 1.890115.164481 2.665909.493443.747186.307896 1.411635.780741 1.941499 1.381638.535364.623341.936967 1.345985 1.180818 2.124762.277104.881091.413056 1.798942.403009 2.720841v11.279102h-4.426053v-11.280089c0-1.082942-.259605-1.920806-.778816-2.513595-.51921-.592789-1.297355-.888854-2.334433-.888196-.746578-.004029-1.483234.167563-2.148041.50035-.698095.357344-1.336201.8173-1.89213 1.363875v12.816668z"/><path d="m197.605251 229.188979c-.114742.147856-.248101.280716-.396863.39538-.167575.106614-.365583.15704-.564566.143775-.243369-.002386-.480916-.07368-.684354-.205392-.221521-.136929-.48679-.292685-.795809-.467268-.349926-.191544-.718418-.34808-1.099966-.467268-.513346-.149289-1.047198-.218588-1.582243-.205392-.726178-.015554-1.446744.128634-2.10931.422081-.596281.275382-1.11411.692066-1.507246 1.212843-.42305.574119-.727753 1.224485-.896847 1.914257-.207474.832156-.306878 1.686927-.295825 2.543786-.012517.885303.096097 1.768229.322907 2.624915.183175.697499.501516 1.353461.937471 1.931716.38903.507391.896887.914367 1.480163 1.186141.614999.277439 1.28517.41569 1.961399.404624.727061 0 1.31732-.08695 1.770779-.260849.400345-.14789.782029-.340868 1.137465-.575099.308324-.2095.576371-.4012.804142-.575099.218413-.170398.489165-.262396.767684-.260848.332007-.018474.649095.137836.833308.410785l1.31246 1.617465c-.480091.55311-1.033679 1.03983-1.645783 1.44699-.574509.381127-1.19222.694766-1.840568.934536-.637018.234202-1.297745.400155-1.970773.494996-.667553.094927-1.341103.142973-2.015563.143946-1.135971.006992-2.261894-.210202-3.311357-.638942-1.02825-.420089-1.952136-1.054546-2.70825-1.859829-.804047-.869105-1.426321-1.886036-1.831194-2.992568-.451375-1.181006-.676716-2.526327-.676021-4.035961-.011868-1.279475.19158-2.552031.602065-3.765871.374206-1.11019.977071-2.132163 1.770779-3.00181.802745-.862268 1.787704-1.540274 2.885328-1.986145 1.147187-.479249 2.466591-.718874 3.958212-.718874 1.418012 0 2.660335.221824 3.726969.665472 1.073838.447591 2.050517 1.094304 2.876995 1.905014z"/><path d="m209.941176 225.000539c1.103843-.012014 2.200739.176892 3.237675.557587.957719.350944 1.828714.905787 2.553372 1.626553.735116.745614 1.304008 1.639965 1.668883 2.623638.399007 1.035764.59851 2.219054.59851 3.54987.003039.279307-.011973.558517-.044939.835868-.017868.183077-.073525.360394-.163416.52062-.073975.122249-.185449.217027-.317639.270065-.163621.059149-.336886.086672-.510674.081122h-11.501406c.132775 1.893538.646513 3.283228 1.541215 4.169069.894701.885842 2.079806 1.330816 3.555314 1.334924.63482.012422 1.26782-.07241 1.877238-.251582.474288-.146825.935507-.33334 1.378821-.557587.392198-.205373.736733-.391235 1.033605-.557588.260822-.157495.557858-.244186.862018-.251581.162999-.005676.324832.029618.470842.102686.136575.075385.254554.180665.345215.308059l1.306305 1.617312c-.481792.562882-1.044252 1.050512-1.668883 1.446851-.606398.384882-1.254783.698422-1.932392.934447-.665409.232428-1.352024.398216-2.049846.494948-.670071.093945-1.345719.141976-2.02227.143761-1.231913.011273-2.455392-.205228-3.609446-.638709-1.091122-.411206-2.080941-1.054683-2.901651-1.88635-.854287-.883252-1.515305-1.936448-1.940563-3.091888-.470501-1.22813-.706092-2.651021-.706773-4.268675-.009172-1.210667.198405-2.413116.612809-3.549869.39076-1.074039.992342-2.058112 1.768976-2.893704.793333-.838424 1.750667-1.502702 2.811773-1.951042 1.107822-.479203 2.356932-.718805 3.747327-.718805zm.0909 3.183279c-1.306645 0-2.327993.365564-3.064045 1.096691-.736052.731128-1.207915 1.767576-1.415589 3.109345h8.416933c.003512-.551052-.076034-1.09946-.235932-1.626553-.148268-.490196-.395085-.944556-.725157-1.334923-.338162-.391984-.759884-.702261-1.233789-.907748-.55066-.234834-1.14438-.3503-1.742421-.338866z"/><path d="m28.916989 235.098978c.3889167-.00329.7605664.168292 1.021008.471376l2.8435073 3.190353c-1.5595387 2.004188-3.5498277 3.591736-5.8074936 4.632332-2.2986294 1.071307-5.057393 1.606961-8.276291 1.606961-2.8799232 0-5.4688592-.508514-7.7668079-1.525542-2.2254858-.964365-4.23193047-2.410726-5.88815322-4.244519-1.62748678-1.812652-2.87481823-3.976692-3.74199437-6.492122-.86717614-2.515429-1.30076421-5.26119-1.30076421-8.237281 0-3.013945.48293679-5.773989 1.44881037-8.280134.91875292-2.431492 2.30717465-4.637151 4.07790601-6.478195 1.75204975-1.812652 3.84885987-3.222849 6.29043032-4.230592 2.4415705-1.007743 5.1377124-1.511615 8.0884255-1.511615 2.8792426 0 5.3977291.476018 7.5554593 1.428053 2.1577303.952035 4.0040531 2.214392 5.5389685 3.787071l-2.4136629 3.467821c-.1488439.227151-.3352217.424524-.5503234.582791-.2232604.165696-.5319451.248901-.9260542.249615-.4084032 0-.8283779-.16641-1.2599239-.499229-.5226927-.395767-1.0682778-.757134-1.6336128-1.08202-.7993302-.448428-1.6398063-.810943-2.5086167-1.082021-1.010798-.333533-2.2938647-.499943-3.8492002-.499229-1.8248817 0-3.5017172.328177-5.0305065.984531-1.4920163.630063-2.8369722 1.590361-3.943133 2.815396-1.10064661 1.22129-1.95931435 2.705765-2.57600319 4.453424s-.92503326 3.711723-.92503326 5.89219c0 2.257602.30834442 4.264517.92503326 6.020747s1.45289441 3.235705 2.50861669 4.438426c1.0395396 1.190531 2.3112896 2.13214 3.7287213 2.760759 1.4602657.643789 3.0300504.969276 4.6139352.956677.8924741.005667 1.784349-.049802 2.6699359-.166053.7477332-.099891 1.4843371-.276429 2.1992513-.527083.6649706-.237484 1.3037023-.549238 1.9052009-.929895.635341-.40704 1.2325674-.876219 1.783701-1.401269.1699111-.159739.3594649-.294856.5635965-.401741.1978779-.100578.4152017-.151903.635067-.149983z"/><circle cx="113" cy="98" r="98"/></g><path d="m169.968163 119.936165 17.031837-16.936165-17.031837-16.9351303 2.74425-2.7286677c3.179911-3.0376709 4.460333-7.5470473 3.347667-11.7897788s-4.444646-7.5561923-8.71147-8.6630537c-4.266825-1.1068615-8.802107.1657451-11.857508 3.3272337l-2.742168 2.7265974-17.037042-16.9372006-5.026266 4.9987619v7.9003004c8.891743 2.1065397 15.524374 10.0720549 15.524374 19.5488958 0 9.476841-6.632631 17.4433909-15.524374 19.5488959v24.496935h-14.745656l-2.93997 2.923277 22.711892 22.582934 17.037042-16.938236 2.366343 2.352907c3.043327 3.211761 7.602613 4.523521 11.900573 3.423932 4.297959-1.099588 7.654314-4.436482 8.760701-8.709905 1.106387-4.273422-.212311-8.806979-3.442045-11.833415z" fill="#fff"/><path d="m122.485642 121v-23.9266771h3.342562c4.348564.0000001 8.366803-2.3059191 10.541085-6.0491403 2.174281-3.7432212 2.174281-8.35506 0-12.0982811-2.174282-3.7432212-6.192521-6.0491405-10.541085-6.0491404h-3.342562v-23.924609h-24.0731063v-3.8538712c0-6.681696-5.4494984-12.0982809-12.1717953-12.0982809-6.722297 0-12.1717954 5.4165849-12.1717954 12.0982809v3.8538712h-24.0679047v23.9277111h3.3436026c5.7916092.0083606 10.7778046 4.0658891 11.9293998 9.7075779 1.0318866 1.4276518 1.0318866 3.3506521 0 4.7783039-1.1520403 5.6418491-6.1385842 9.6993074-11.9304401 9.7075779h-3.3436026v23.9266771h24.072066v-3.854905c0-6.681696 5.4494984-12.098281 12.1717953-12.098281 6.722297 0 12.1717954 5.416585 12.1717954 12.098281v3.854905z" fill="#fff"/></g></svg>