<?xml version="1.0" encoding="UTF-8"?>
<svg width="261px" height="376px" viewBox="0 0 261 376" version="1.1" xmlns="http://www.w3.org/2000/svg" xmlns:xlink="http://www.w3.org/1999/xlink">
    <!-- Generator: sketchtool 63.1 (101010) - https://sketch.com -->
    <title>B325EF46-2A8F-460D-BA60-56B52E09B721</title>
    <desc>Created with sketchtool.</desc>
    <defs>
        <polygon id="path-1" points="0.425758272 -0.00121136286 37.8685347 -0.00121136286 37.8685347 62.4674243 0.425758272 62.4674243"></polygon>
    </defs>
    <g id="Page-1" stroke="none" stroke-width="1" fill="none" fill-rule="evenodd">
        <g id="Mobile---Amazon-PPC" transform="translate(-58.000000, -6880.000000)">
            <g id="img_can_I_diy_amazon_automated_ads" transform="translate(58.000000, 6880.000000)">
                <g id="Group-112">
                    <path d="M94.0751899,180.569051 C94.7470873,182.887362 95.0689894,185.666393 93.4741109,187.471616 C92.2819026,188.822003 90.3604398,189.210349 88.5741758,189.393343 C86.845269,189.571041 85.1052419,189.629881 83.3693117,189.571041 C81.9178259,189.521026 80.3873278,189.359215 79.2144337,188.498969 C77.8366927,187.488091 77.2438076,185.738178 76.7691484,184.091236 C74.9226009,177.688815 73.6730355,171.113402 73.0415222,164.476796 C72.1513166,155.119999 81.3307936,162.406791 84.6247299,165.442367 C89.0412265,169.512944 92.3966168,174.775627 94.0751899,180.569051" id="Fill-1" fill="#FF5254"></path>
                    <path d="M29.3350361,361.12379 C27.7413333,361.229609 26.2836357,360.669701 24.7393365,360.495857 C24.8125701,355.038067 25.40367,349.804705 26.5794762,344.416105 C28.9810737,347.08366 31.0037162,345.533594 30.9217643,350.544853 C30.8956095,352.167015 29.0223402,358.655081 29.3350361,361.12379" id="Fill-3" fill="#F8C2A4"></path>
                    <path d="M24.5144821,357.487946 C22.6877137,356.83148 22.2752554,361.21145 22.2611943,362.241443 C22.252992,362.860262 22.3262268,363.491434 22.1697973,364.090253 C21.9969632,364.749072 21.5639992,365.302598 21.1415809,365.835535 C20.2569048,366.951998 19.3728145,368.068461 18.4881383,369.184924 C18.0909128,369.686685 17.6866568,370.200799 17.4733971,370.805501 C16.9449349,372.303725 17.8173077,374.080184 19.2304461,374.797237 C24.1336612,377.283691 28.6121147,371.262556 29.674312,367.28729 C29.8366003,366.67847 29.9555336,366.057887 30.0744668,365.439067 C30.3199498,364.157312 31.2860631,361.362625 30.7792784,360.110869 C30.1881272,358.650291 28.3976833,359.708519 27.2241691,359.157935 C26.1361932,358.64735 25.2532746,357.754415 24.5144821,357.487946" id="Fill-5" fill="#242448"></path>
                    <path d="M59.0225386,270.450485 C54.4305948,282.917193 49.1323791,295.111558 46.1107129,308.161689 C42.3774779,324.283303 36.358865,340.004619 33.270103,356.161449 C31.2742966,356.2266 29.2737817,356.141493 27.2903351,355.907889 C25.0167284,355.640242 21.4082681,355.028646 20.5878157,352.552912 C20.1687611,351.287459 20.6131238,349.229631 20.6772768,347.914874 C20.8820956,343.704719 21.1834382,339.49926 21.4941978,335.295561 C22.3723291,323.402298 22.9744258,311.362886 25.1679883,299.638664 C27.4757314,287.304019 29.6857736,274.927113 31.7157165,262.594816 C32.7657072,256.221182 34.0575961,249.886874 35.6478847,243.624173 C36.0569338,242.010661 40.3228155,225.380167 41.1603362,225.512027 C51.0987575,227.090524 60.3962373,230.372133 69.0521868,235.490878 C69.8932388,235.988608 70.7054513,236.582009 70.9979656,237.467709 C71.2904798,238.352821 71.0250393,239.116437 70.7537132,239.919964 C68.1669928,247.58605 64.7180321,254.77495 61.9600407,262.411102 C61.0006882,265.067614 60.0272102,267.72354 59.0225386,270.450485" id="Fill-7" fill="#1E57B1"></path>
                    <path d="M59.992891,360.359733 C61.4479568,360.942087 62.9705813,360.839631 64.4614135,361.13699 C65.9777931,355.838097 66.9463231,350.599853 67.4146919,345.035397 C64.4000998,346.890804 62.9643364,344.782199 61.585345,349.652423 C61.1385496,351.228725 61.0011614,358.066824 59.992891,360.359733" id="Fill-9" fill="#F8C2A4"></path>
                    <path d="M66.0177153,359.116667 C66.0211473,362.163293 68.3125729,365.443999 69.5806934,368.184107 C69.7299849,368.506789 69.8821365,368.842044 69.8884285,369.200048 C69.8975805,369.731666 69.5864133,370.204614 69.2889742,370.635656 C68.8759913,371.234924 68.4264006,371.863526 67.7691744,372.132927 C67.1233882,372.398137 66.3980942,372.265233 65.7202761,372.109579 C64.5871473,371.849158 63.4648864,371.534258 62.3592135,371.166675 C62.0835103,371.075678 61.802087,370.976897 61.5778637,370.785922 C61.3113124,370.560224 61.1517249,370.22916 60.9990013,369.907675 C60.2170795,368.260138 59.5518453,367.091536 59.5941732,365.256017 C59.6382171,363.360032 59.8664444,361.396398 59.5352574,359.517775 C59.3716658,358.606002 59.1543064,357.440993 59.9007643,356.940505 C60.4773387,356.554364 61.5332478,357.086581 62.16073,357.193742 C63.268691,357.382922 64.2919961,357.311082 65.3124413,357.920527 C65.5200767,358.044451 65.7225641,358.19352 65.8506918,358.40485 C65.9805354,358.619772 66.0177153,358.862233 66.0177153,359.116667" id="Fill-11" fill="#242448"></path>
                    <path d="M58.3762617,264.655433 C59.0397311,277.943086 60.4557578,291.179585 59.4529343,304.559549 C58.2144971,321.087534 59.2677255,337.911857 57.40626,354.282852 C59.2841364,354.937857 61.2118316,355.451159 63.1664876,355.81688 C65.4077483,356.236106 69.0204918,356.723537 70.53557,354.599183 C71.309813,353.513193 71.4985384,351.413533 71.8285148,350.137039 C72.8835016,346.049435 73.8458839,341.937136 74.7994747,337.824249 C77.496138,326.188219 80.4987475,314.495155 81.8954327,302.629815 C83.3647948,290.146512 84.9390695,277.652626 86.6715921,265.255168 C87.5665726,258.846826 88.218906,252.404381 88.5676378,245.943121 C88.6573116,244.277975 89.54057,227.104394 88.7053721,226.982683 C78.7873246,225.538616 68.9724313,225.91492 59.2231816,228.239186 C58.2754519,228.464969 57.327136,228.790707 56.7861622,229.550959 C56.2451885,230.311799 56.270391,231.120265 56.2897324,231.969301 C56.4725967,240.070424 57.6166713,247.97046 57.971264,256.09275 C58.0943458,258.918559 58.230908,261.749072 58.3762617,264.655433" id="Fill-13" fill="#1E57B1"></path>
                    <path d="M52.7664075,158.038197 C52.6050269,158.092669 52.4442331,158.150069 52.2846129,158.210399 C49.6186046,159.220765 47.3510597,161.037669 45.1328092,162.825872 C41.8013257,165.511983 40.1605246,166.689866 38.8735873,170.66749 C37.673502,174.37744 36.9217616,178.295321 36.1870395,182.1189 C32.4142533,201.746961 31.6853996,221.293021 28.9771388,241.068682 C28.2400693,246.451449 27.6708358,252.779567 31.6595787,256.476631 C38.7368538,250.979649 47.6327423,250.662775 56.2158457,250.654575 C62.2438532,250.649303 68.1368878,248.700613 74.1795663,249.372434 C79.9540594,250.013797 84.9973516,248.573512 90.8575232,248.95423 C92.2706309,249.046188 94.0710521,249.030959 94.6279621,247.731247 C92.5998474,241.663774 92.6350577,235.138854 92.175563,228.759192 C90.9883882,212.257119 85.5108355,196.421595 83.3008008,180.030809 C82.5490603,174.460027 82.1482495,165.21268 77.8255953,160.995497 C73.1279512,156.412824 62.4128627,156.319109 56.3760526,157.215846 C55.1536675,157.397419 53.9359772,157.643422 52.7664075,158.038197" id="Fill-15" fill="#FF5254"></path>
                    <path d="M57.691412,157.405626 C57.7900119,157.59843 57.9218674,157.783615 58.0986471,157.958252 C58.796431,158.649768 59.7625933,159.041236 60.7217544,159.178953 C61.9860502,159.361208 63.270766,159.150237 64.5251434,158.909965 C66.2200114,158.585304 66.1605014,157.588468 66.406126,156.043107 C66.5403152,155.198638 66.6243293,154.347722 66.6873399,153.495635 C66.7223458,153.027983 66.5420655,151.355454 66.8384487,151.027863 C67.0397325,150.805758 67.8588701,150.880769 68.2176803,150.692068 C68.7871093,150.393778 69.2620225,149.844082 69.6039132,149.310795 C70.1552558,148.449331 70.4586401,147.456011 70.7556067,146.477341 C71.2719434,144.773752 71.7888636,143.070163 72.3052003,141.366574 C72.8332057,139.626065 73.3641282,137.871492 73.5339068,136.059487 C73.7894497,133.32976 73.3501259,129.474855 71.2981978,127.478251 C69.4265501,125.656871 66.6960914,125.01927 64.1914206,124.69754 C60.8757803,124.272082 57.4382028,124.881553 54.5741384,126.650191 C53.4177774,127.363976 52.3209265,128.289903 51.6383118,129.56276 C50.5858017,131.524788 50.6657318,133.974979 50.7789175,136.26577 C50.8833517,138.380166 50.9877859,140.493975 51.0922201,142.608371 C51.2124069,145.040395 51.514041,147.84279 53.327929,149.161358 C54.2911742,149.861077 55.550219,150.011101 56.3746075,150.908899 C57.407281,152.03349 57.3401864,153.72067 57.3839437,155.147067 C57.4084478,155.962235 57.347771,156.73345 57.691412,157.405626" id="Fill-17" fill="#F5CEB0"></path>
                    <path d="M67.9779427,130.0132 C68.0932348,130.213403 68.1891154,130.420102 68.26382,130.636251 C68.6532249,131.765419 68.3902883,133.040459 68.7708698,134.173171 C69.3743886,135.969092 71.4614105,137.048653 71.7761108,138.917805 C72.0331651,140.446199 70.9931835,141.899 70.905538,143.446882 C70.8096573,145.137092 71.8878736,146.737535 71.7208177,148.406484 C71.5749379,149.855741 70.65966,151.893205 69.7973223,153.054855 C70.0643764,152.694608 72.4813925,152.823352 73.1084402,152.438301 C74.0690115,151.849503 74.1784213,151.478035 74.4642986,150.473477 C74.7484112,149.475414 74.5284151,148.491526 74.9707603,147.46925 C75.5131036,146.215471 76.628378,145.294183 77.0183711,143.957134 C77.5513029,142.132274 76.5842612,140.206428 76.6595539,138.305975 C76.7742578,135.429902 79.2500964,132.719779 78.3512887,129.986624 C77.8242392,128.382638 76.2730902,127.357409 75.4007527,125.913467 C74.7384114,124.81678 74.4942981,123.524614 74.0348944,122.32812 C73.5754908,121.131627 72.7855048,119.934543 71.5602323,119.571342 C70.8796561,119.369958 70.1473161,119.452638 69.4496814,119.322122 C68.2444086,119.097115 67.2420733,118.261459 66.0797409,117.866959 C64.4180056,117.302375 61.4857045,118.989632 60.5151334,120.404045 C59.5522093,121.807829 60.038083,123.001369 61.0227715,124.242746 C62.6621543,126.309739 66.6250254,127.662734 67.9779427,130.0132" id="Fill-19" fill="#242448"></path>
                    <path d="M45.6845047,121.494447 C44.6911858,122.228518 43.4643518,122.758254 42.5566942,123.615163 C40.7877299,125.287049 40.4515387,127.960533 40.3875861,130.401924 C40.3306741,132.575791 39.386053,134.507525 39.6201548,136.772929 C39.7773961,138.294222 40.419269,139.833232 41.65021,140.73148 C43.1815522,141.850008 45.5865222,142.033673 46.2706391,143.81009 C47.0128414,145.740053 45.0262035,148.170224 46.2325022,149.846245 C46.8972573,150.771659 48.2009517,150.906898 49.1526134,151.528171 C50.213992,152.221493 50.759056,153.459906 51.4079696,154.553631 C52.0562964,155.647946 53.0302536,156.744032 54.2952244,156.770608 C54.3462691,154.834148 54.4031811,153.298682 53.5811847,151.527581 C53.1024203,150.495865 51.6925293,148.591887 52.7756166,147.47454 C53.45856,146.545582 55.0708698,146.243804 55.1119402,145.088661 C55.1318888,144.546523 54.7558005,144.084702 54.4595063,143.63174 C53.311293,141.878355 53.1939488,139.541493 53.9725278,137.592632 C54.7511067,135.644361 56.3552024,134.087634 58.2327101,133.17226 C60.4335011,132.099796 60.0791216,131.558839 60.7186476,129.437533 C61.3071289,127.485719 62.4078178,127.028032 64.1533133,126.316403 C65.7204455,125.677412 66.224439,125.279963 66.802946,123.803553 C67.225972,122.72282 67.7475671,121.428895 67.13327,120.222963 C66.6457048,119.265068 65.7673832,118.579423 64.9166375,117.92626 C63.1394591,116.562647 61.1422603,115.128758 58.9133066,115.290572 C57.6759117,115.379747 56.5112702,115.965587 55.2721151,116.036455 C54.445425,116.0837 53.6234287,115.899444 52.7961518,115.871687 C51.3856742,115.823852 49.8977493,116.255554 48.7559899,117.101242 C47.6036696,117.953425 47.636526,118.846358 46.9964132,120.055833 C46.6825174,120.64876 46.2172475,121.100541 45.6845047,121.494447" id="Fill-21" fill="#242448"></path>
                    <path d="M50.3742225,113.853644 C50.5902795,112.523181 50.4513023,110.789211 49.1771498,110.339707 C48.4787601,110.093411 47.6968672,110.363579 46.9710324,110.216268 C45.4241809,109.90243 44.8974689,108.035123 44.0863792,106.684863 C43.9649201,106.482819 43.8206874,106.278446 43.6052144,106.182373 C43.2963112,106.04496 42.9424448,106.166652 42.6066805,106.207992 C41.0680042,106.394898 39.8983766,104.88044 38.4490427,104.331369 C36.6546015,103.651872 34.3976816,104.770393 33.8569551,106.606258 C33.6350587,107.360866 33.6735986,108.171372 33.4651327,108.930056 C32.6207585,112.002058 28.1086704,113.309231 27.9942185,116.493027 C27.9171387,118.644476 30.0286582,120.705676 29.2082254,122.696421 C28.6832653,123.969823 27.040648,124.837972 27.228092,126.201625 C27.3489672,127.07909 28.2861875,127.676488 29.174357,127.663881 C30.0625266,127.651451 30.8782878,127.165847 31.5468967,126.583005 C32.6090798,125.658376 33.4090747,124.472313 34.4210391,123.492953 C35.4324195,122.514174 36.7813161,121.719972 38.1804313,121.894068 C39.5351672,122.062923 40.7614368,123.114484 42.1079976,122.889732 C43.1847791,122.709231 43.9841901,121.751414 45.0428695,121.481245 C46.0326442,121.228545 47.0615428,121.61633 48.0816823,121.677467 C49.1018218,121.738604 50.3543686,121.209912 50.3812297,120.190958 C50.3876531,119.94408 50.3187484,119.68905 50.3964121,119.454982 C50.614221,118.798193 51.7388854,118.83604 51.9526066,118.178086 C51.4206392,117.359429 50.6696951,117.652888 50.2877997,116.583859 C49.9923271,115.757051 50.2387489,114.689187 50.3742225,113.853644" id="Fill-23" fill="#242448"></path>
                    <path d="M14.5467993,129.971193 C14.6349116,129.896481 14.7306602,129.810503 14.8328704,129.704957 C15.7968182,128.707609 16.2479528,127.176603 16.0241477,125.809252 C15.1765081,125.595196 14.328281,125.381139 13.4806413,125.167083 C13.0400802,126.135969 12.4462037,127.033701 11.7283827,127.815807 C11.567431,127.991321 11.3665352,128.174544 11.1303944,128.154384 C10.9077641,128.134816 10.7438754,127.941513 10.6105322,127.760069 C8.6644267,125.103637 7.73337412,121.708385 8.04940332,118.419864 C8.03060605,118.615539 5.74027543,118.096111 5.53585505,118.028515 C4.47968309,117.679265 4.22474503,117.648431 3.15682478,118.030886 C2.98647446,118.065871 2.82904728,118.123387 2.68278097,118.200471 C2.15763207,118.388437 1.63248316,118.576997 1.10733426,118.764963 C0.774857438,118.883554 0.420646265,119.018747 0.219162961,119.311073 C0.0229663908,119.595691 0.0153299973,119.96688 0.0147425824,120.313165 C0.00945584852,123.415498 0.00534394435,126.517832 0,129.620165 C-0.000530204457,130.009142 0.000644625305,130.409979 0.146910931,130.770495 C0.308450023,131.169553 0.629765963,131.477296 0.952256732,131.760134 C2.43430448,133.05811 4.13369573,134.101708 5.95761893,134.83282 C6.28892093,134.965642 6.64078244,135.099649 6.86693717,135.378337 C7.04257422,135.594766 7.12011298,135.872861 7.19412726,136.142062 C7.66464658,137.857477 8.13457848,139.572891 8.6050978,141.288306 C10.7550363,140.555415 13.0248074,140.182448 15.293991,140.190156 C15.625293,137.840281 15.3468584,135.406206 14.4927572,133.195082 C14.2478051,132.561215 13.8642232,131.769029 13.9041674,131.070529 C13.941762,130.417095 14.1808398,130.283087 14.5467993,129.971193" id="Fill-25" fill="#F5CEB0"></path>
                    <polygon id="Fill-27" fill="#FF5254" points="5.56635071 135.598437 16.1781409 133.856801 27.0012134 163.530642 52.57109 159.16712 47.0018277 193.30884 14.4755226 173.792968"></polygon>
                    <path d="M197.914692,304.781412 L198.301622,328.390885 C198.143679,334.941354 198.732587,341.471808 199.129499,348.001086 C199.498814,354.065921 198.27931,360.316768 201.149871,365.937174 C202.04938,367.699585 203.964652,368.927503 205.421364,366.891372 C206.543988,365.322626 206.027299,362.607196 206.30502,360.786509 C208.389978,347.099867 212.269844,333.752286 214.205667,320.039743 C216.233085,305.675568 210.691006,306.054657 197.914692,304.781412" id="Fill-29" fill="#F5CEB0"></path>
                    <polygon id="Fill-31" fill="#2A323B" points="199.448794 361.965444 197.914692 365.955621 205.462666 372.617249 212.377131 372.90354 214.613744 369.244983 205.313955 361.13699"></polygon>
                    <path d="M181.21564,304.936733 L176.894702,328.098614 C175.396107,338.460446 171.991338,348.550974 170.493925,358.912806 C170.14955,361.295235 170.323214,363.901401 169.320804,366.148765 C168.341431,368.3468 166.423442,368.434299 164.7311,366.942712 C162.46342,364.944338 163.508951,361.373337 163.551481,358.64385 C163.827926,340.459995 162.389583,322.533937 162.043435,304.32072 C162.038709,304.081713 162.049933,303.80806 162.235411,303.656552 C162.386038,303.533232 162.601642,303.535581 162.796572,303.549088 C164.575156,303.667123 181.12231,305.437061 181.21564,304.936733" id="Fill-33" fill="#F5CEB0"></path>
                    <polygon id="Fill-35" fill="#2A323B" points="163.806006 362.375574 161.424171 365.927821 167.252885 374.15118 173.896671 376 176.886256 372.932993 169.682108 362.897911"></polygon>
                    <polygon id="Fill-37" fill="#1E57B1" points="222.035545 319.644422 218.837037 285.86579 217.294482 263.918486 212.108012 245.993893 184.104117 241.613621 149.481672 247.594376 147.817536 254.372723 154.481094 317.122055 187.875457 319.644422 187.422452 280.589554 192.57385 304.797092 192.355239 319.644422"></polygon>
                    <path d="M156.654019,180.59119 C156.607247,181.731522 156.575676,182.871853 156.555798,184.00924 C156.150635,207.176943 157.418741,230.639741 157.564319,253.999463 C169.439141,252.126986 181.444341,251.095033 193.462403,250.911849 C196.244751,250.86944 208.892481,252.837337 210.652862,251.163947 C213.04291,248.892708 210.414325,249.320921 210.58972,246.362891 C210.815979,242.534887 208.990702,239.399563 209.680004,234.864153 C210.490329,229.532983 212.102793,224.260127 213.031217,218.930136 C214.893327,208.24247 216.014101,197.424632 216.377753,186.579699 C216.70048,176.960505 216.354367,166.984958 212.248956,158.29464 C202.123405,136.864529 169.480652,137.250334 160.523816,159.626401 C157.87126,166.253402 156.950436,173.428186 156.654019,180.59119" id="Fill-39" fill="#FFFFFF"></path>
                    <path d="M227.108494,131.921656 C230.543591,127.31354 231.996947,122.361068 233.39758,116.143797 C234.440294,111.517992 235.302583,106.842066 236.146712,102.176165 C236.703803,99.0893464 237.211686,96.3881592 237.228088,93.2919063 C237.242148,90.7009836 238.643367,87.0999902 236.354669,85.0580318 C236.798116,84.0090442 238.322352,83.6275406 239.202215,84.3457345 C239.339876,84.4583576 239.470509,84.5963358 239.642732,84.6387906 C239.939144,84.7124968 240.223254,84.4789954 240.398406,84.2278044 C240.911562,83.4948693 240.967213,82.5473015 241.143537,81.6675435 C241.427061,80.2506143 241.914442,77.9551063 242.957155,76.9285254 C243.802456,76.0959394 244.921323,75.6171435 246.012072,75.1566268 C246.213585,75.0711275 246.435015,74.9844489 246.645901,75.0434139 C246.823983,75.0929446 246.95813,75.2374088 247.082904,75.375387 C248.229303,76.647852 249.509263,77.8920137 250.485782,79.2776916 C248.975605,80.5772805 248.733086,82.4853883 247.880755,84.2018598 C246.761303,86.4560923 245.381172,88.2450908 245.224765,90.8796476 C244.980488,94.9735885 245.054884,99.0828603 244.757301,103.182108 C244.175607,111.191326 243.104776,119.147475 242.080807,127.107752 C241.387227,132.380993 240.680173,137.775112 238.597089,142.709305 C236.546224,147.568022 233.578591,150.505659 229.616279,153.962188 C228.705369,154.757036 227.759312,155.571933 226.609983,155.937516 C224.86666,156.492966 222.932368,155.904495 221.41106,154.882042 C217.391341,152.179676 215.891122,146.282585 218.125341,141.968115 C219.325047,139.65079 221.361854,137.912501 223.274471,136.145909 C224.782306,134.752566 226.041763,133.353326 227.108494,131.921656" id="Fill-41" fill="#F5CEB0"></path>
                    <path d="M193.811605,150.602285 L184.92654,166.813925 C185.390598,183.190403 185.855242,199.566881 186.319299,215.943359 C186.533164,223.490136 186.747029,231.0375 186.96148,238.584278 C187.035894,241.205265 187.100346,243.826253 187.183548,246.446653 C187.221634,247.623399 186.897028,249.603218 187.567333,250.562917 C189.022201,252.646567 194.339529,251.997186 196.659232,252.179623 C200.276773,252.464717 203.947048,252.76037 207.353653,254.010443 C209.621794,254.842847 211.771577,256.097025 214.164521,256.433155 C214.70182,256.508828 215.303571,256.519973 215.725442,256.177978 C216.197703,255.796093 216.277976,255.118555 216.322506,254.512583 C217.154529,243.270143 217.171521,231.679255 217.794366,220.315973 C218.304127,211.016395 219.604308,201.189453 218.798067,191.878143 C218.78459,191.723277 218.769942,191.567238 218.741231,191.414132 C217.917412,186.935341 218.741231,172.140372 218.741231,172.139199 C218.775801,171.516802 220.902147,169.904789 221.312885,169.480081 C223.426339,167.294948 225.539208,165.109227 227.653249,162.923507 C231.870784,158.562625 240.013473,153.17517 236.74046,146.121148 C236.342027,145.263519 235.736174,144.520281 235.091063,143.82925 C230.312206,138.704598 224.204456,135.830781 220.783203,129.521757 C214.796741,132.478287 209.918275,138.319194 203.550372,140.751291 C200.235172,142.014269 196.73013,142.44895 193.264345,141.598361 C191.22589,141.09798 186.835505,139.507085 187.938228,143.546503 C188.569276,145.858345 192.253027,148.746241 193.811605,150.602285" id="Fill-43" fill="#427FE0"></path>
                    <path d="M174.229285,151.749119 L183.07109,167.991596 C182.886254,167.991596 181.94983,207.805529 181.87403,210.493214 C181.586572,220.712644 181.298531,230.932663 181.011073,241.152681 C180.930608,243.993763 181.309609,247.320896 180.758017,250.113196 C179.988936,254.011602 175.917881,253.244028 172.447397,253.559051 C164.859211,254.249045 156.869284,255.554978 149.259525,255.167665 C147.064234,255.055997 149.953388,208.881073 149.948724,204.572432 C149.934147,189.074608 146.762782,171.880598 154.572537,157.826824 C156.845378,153.737994 160.851128,147.182465 165.273197,145.163616 C169.393231,143.282296 175.292821,142.961984 179.765617,141.907598 L179.998849,144.829786 L174.229285,151.749119 Z" id="Fill-45" fill="#427FE0"></path>
                    <path d="M193.976511,112.512634 C195.365719,115.008629 196.034726,117.883437 196.158056,120.75407 C196.191215,121.517663 196.241827,122.399374 196.843934,122.849775 C197.487344,123.332389 196.921306,124.390682 197.411136,123.745207 C197.901547,123.100329 199.565339,120.858467 199.640384,120.044167 C199.816071,118.135781 199.813162,116.210691 199.632821,114.303498 C199.475168,112.644473 199.144737,110.910879 198.08596,109.646178 C197.458257,108.896305 196.621125,108.369545 195.79621,107.858296 C194.600142,107.117372 193.366841,106.369886 191.99334,106.107401 C189.625637,105.654614 188.172437,106.526184 190.262066,108.21981 C191.758897,109.43261 193.024775,110.802902 193.976511,112.512634" id="Fill-47" fill="#242448"></path>
                    <path d="M178.725313,144.618767 C178.741267,145.776694 178.502552,146.97814 179.52891,147.876724 C180.022885,148.308374 180.689988,148.481269 181.339364,148.584183 C183.016871,148.84823 184.755239,148.725322 186.378385,148.227807 C187.046669,148.023156 187.712,147.744994 188.21602,147.263946 C188.811627,146.694686 188.841761,146.154829 188.870715,145.409733 C188.904395,144.536436 189.081068,143.649613 189.196289,142.763967 C189.447413,140.827423 189.560271,138.87559 189.616404,136.924932 C192.498715,136.43271 195.888,135.50531 196.872996,132.500815 C197.183207,131.554008 197.194434,130.52487 197.202116,129.517491 C197.23225,125.355069 197.262976,121.192648 197.293702,117.029638 C197.303747,115.590021 197.307292,114.106298 196.812135,112.770183 C195.942951,110.426101 193.734244,109.028825 191.568079,108.149648 C186.041583,105.905539 179.599224,105.995515 174.498161,109.187019 C173.14032,110.036204 171.858703,111.128267 171.076969,112.611402 C169.870984,114.897852 170.022249,117.721218 170.210149,120.359928 C170.382686,122.79575 170.555813,125.230985 170.72835,127.666219 C170.927477,130.467827 171.349955,133.692263 173.535619,135.171869 C174.696106,135.956954 176.195758,136.101034 177.195526,137.117822 C178.941575,138.892056 178.109617,141.542527 178.625455,143.692543 C178.697542,143.99364 178.720586,144.304733 178.725313,144.618767" id="Fill-49" fill="#F5CEB0"></path>
                    <path d="M187.575728,133.866249 C186.092079,134.886788 184.45662,134.941759 182.80306,134.432684 C182.100063,134.21579 182.398428,133.008829 183.102592,133.225723 C184.472968,133.647562 185.766272,133.636807 187.00177,132.786557 C187.623023,132.35934 188.194062,133.441423 187.575728,133.866249 M197.883618,127.910314 C197.837491,127.126387 197.502926,124.828381 196.350339,126.272552 C196.049055,126.650175 195.974901,127.183748 195.956217,127.686847 C195.937533,128.189947 195.95972,128.707387 195.804991,129.181209 C195.449406,130.268071 194.274631,130.762208 193.227727,130.743088 C192.810833,130.735918 192.38635,130.66601 192.017919,130.450908 C191.661166,130.242976 191.377398,129.911958 191.100637,129.586915 C190.428586,128.798208 189.756536,128.008903 189.084485,127.219598 C187.928978,125.863261 185.638401,126.449413 184.08235,126.657943 C182.288074,126.897543 180.493798,127.45143 179.027665,128.658989 C178.879943,128.78088 178.735723,128.908746 178.59092,129.036612 C178.23767,129.34851 177.882085,129.65742 177.471614,129.861767 C176.086057,130.552484 174.37119,129.831892 173.40019,128.540683 C172.954687,127.949152 172.539545,127.187333 171.848226,127.088744 C171.308134,127.011069 170.78147,127.407812 170.504125,127.92585 C170.22678,128.443289 170.152043,129.06111 170.114675,129.660408 C169.978046,131.845486 170.272323,134.098081 171.197196,136.035791 C173.204589,140.23745 177.083331,140.753097 180.982509,140.659289 C182.523963,140.622244 184.06425,140.584601 185.605704,140.547555 C188.423528,140.47944 191.401921,140.359939 193.774826,138.683936 C195.868634,137.20511 197.113475,134.691404 197.623206,132.058795 C197.886538,130.69947 197.965946,129.297125 197.883618,127.910314" id="Fill-51" fill="#242448"></path>
                    <path d="M198.792298,105.529232 C199.065309,104.532823 199.266414,103.51666 199.394443,102.491783 C198.439779,102.824694 197.399763,102.913586 196.402422,102.746259 C196.400084,102.155386 196.397745,101.563932 196.394822,100.972477 C196.391315,100.480954 189.695805,100.136423 189.15212,100.092268 C184.059019,99.6768553 179.401451,99.2817778 174.796498,101.997936 C170.862674,104.319016 168.340093,107.783497 167.736778,112.293772 C167.160355,116.602441 168.579197,122.229972 171.085994,125.806004 C171.071964,124.659118 170.40785,121.953418 170.680277,120.862887 C170.84689,119.770614 171.226885,118.717268 171.750693,117.74468 C172.797141,115.80299 174.418257,114.168647 176.29017,113.002007 C179.275176,111.143399 182.745991,110.160354 186.211544,109.680451 C189.387717,109.240636 193.257818,108.835101 196.394822,109.671155 C197.90311,110.072623 198.153322,110.449109 199.067063,108.936194 C199.22783,108.669517 200.504613,105.554795 200.380092,105.553052 L198.792298,105.529232 Z" id="Fill-53" fill="#242448"></path>
                    <path d="M93.3909953,80.8516123 L90.8030538,92.2821699 C90.5965348,93.1942509 89.6877338,93.7664223 88.7730658,93.5610725 L60.6988005,87.2402748 C59.7841324,87.0343399 59.2103381,86.1286944 59.4162704,85.2166133 L62.0042118,73.7854707 L93.3909953,80.8516123 Z" id="Fill-55" fill="#DCDFE3"></path>
                    <g id="Group-59" transform="translate(68.033175, 0.000000)">
                        <mask id="mask-2" fill="white">
                            <use xlink:href="#path-1"></use>
                        </mask>
                        <g id="Clip-58"></g>
                        <path d="M6.27204409,30.6792666 L0.425758272,56.5922294 L26.4302264,62.4674243 L32.4381552,35.8377728 C23.0020965,17.0911073 37.8685347,2.79570493 37.8685347,2.79570493 L35.258059,-0.00138846882 C16.6354854,5.58571409 6.27204409,30.6792666 6.27204409,30.6792666" id="Fill-57" fill="#DCDFE3" mask="url(#mask-2)"></path>
                    </g>
                    <path d="M69.3649348,58.8290492 C72.558928,70.3655027 61.8483412,74.0353816 61.8483412,74.0353816 L75.5416752,77.1594166 L75.9347459,77.2492014 L79.2411291,78.0031558 L79.6336113,78.0929406 L93.3269453,81.2169755 C93.3269453,81.2169755 85.2160383,73.2528864 93.0044861,64.2220826 L94.6279621,62.3621699 L83.3118817,59.7810058 L80.0060869,59.0264568 L68.6900066,56.4452928 L69.3649348,58.8290492 Z" id="Fill-60" fill="#8B8E98"></path>
                    <polygon id="Fill-62" fill="#8B8E98" points="175.030806 58.0488286 171.348087 74.4047628 95.8649289 57.3189253 99.5476479 40.9629911"></polygon>
                    <path d="M260.694445,85.7576726 L260.694445,85.7576726 C259.194129,92.4594343 252.592738,96.6654002 245.948566,95.1526712 L174.385835,78.8566965 L166.372038,72.9376051 L170.060706,56.4589679 L179.818034,54.5874166 L251.380178,70.8833913 C258.024351,72.3961202 262.194761,79.0559109 260.694445,85.7576726" id="Fill-64" fill="#427FE0"></path>
                    <path d="M252.231711,94.841401 C256.439391,93.4017331 259.677735,90.2792378 260.616029,86.1303287 C262.173995,79.2452908 259.149432,72.6723855 248.623204,70.3009958 L189.874408,57.0645849 C189.874408,57.0645849 255.326558,74.0360661 252.231711,94.841401" id="Fill-68" fill="#1E57B1"></path>
                    <polygon id="Fill-70" fill="#232020" points="95.8649289 57.0645849 105.760664 42.3631297 99.5218587 40.9629911"></polygon>
                    <path d="M144.957311,139.450394 C147.321934,137.004625 147.87368,133.337739 146.336087,130.29172 C143.526185,124.7263 140.716871,119.16029 137.907558,113.59487 C136.329377,110.469328 133.586532,106.843676 133.154782,103.444222 C132.39128,97.4352414 133.748879,90.3653669 134.308272,84.3581532 C134.592967,81.3074216 134.339447,77.0691491 135.598815,74.2616986 C135.834689,73.7350807 139.397505,69.7029785 139.30045,69.5798654 C139.293391,69.5686733 138.553417,68.4529974 138.553417,68.4529974 L137.439339,69.2052245 L136.508195,69.0184931 L139.0434,65.9477336 L135.377058,63.2575056 L130.482523,65.2025752 C130.220179,68.5036564 130.806041,71.9431662 129.759019,75.129381 C129.316093,76.4765568 128.656704,77.7406753 128.100253,79.0460279 C127.145581,81.2868046 126.498544,83.6389133 125.757982,85.9556785 C125.042125,88.1964553 123.885106,90.3041049 123.210424,92.5189631 C121.706359,97.4611599 120.235822,102.414549 118.748815,107.362636 L131.674246,137.024064 C133.979459,142.313805 140.956275,143.588527 144.957311,139.450394" id="Fill-72" fill="#F5CEB0"></path>
                    <path d="M153.044845,131.300695 C152.954506,131.109457 152.865927,130.918219 152.781455,130.728746 C152.45647,130.001452 148.817695,122.043592 148.71269,122.090252 L148.441087,122.213059 L147.653263,122.615541 C147.615133,122.615541 147.580523,122.614953 147.53946,122.615541 C145.691035,122.640844 142.605438,124.84273 140.890174,125.615921 C136.333346,127.669524 131.776518,129.723127 127.219689,131.777319 C126.894705,131.923249 126.554468,132.082123 126.349739,132.373394 C126.107467,132.718799 126.1104,133.167767 126.15029,133.596729 L124.933649,134.218106 C125.53141,135.058377 126.065817,135.931011 126.553881,136.826594 C127.072449,140.313601 127.950612,143.755299 130.071227,146.535019 C130.196762,146.69919 130.331097,146.855122 130.463672,147.013409 C131.565923,150.701657 132.594846,154.438744 134.164629,157.923985 C138.385913,167.2923 146.402599,174.566999 150.432647,184.019459 C153.704787,183.062091 155.973816,180.115259 157.71313,177.174899 C161.131338,171.3948 163.403886,165.019215 165.654729,158.688938 C166.799802,155.469665 167.944876,152.25098 169.089949,149.031706 C169.289985,148.469172 169.492367,147.888397 169.461276,147.291734 C169.37915,145.707105 167.78473,144.713255 166.418502,143.914174 C161.086169,140.793756 156.501183,136.428819 153.044845,131.300695 Z" id="Fill-74" fill="#427FE0"></path>
                    <path d="M213.339627,209.161971 C213.641977,206.900963 212.065646,204.82312 209.820034,204.521574 L131.331659,193.979234 L52.8444572,183.436894 C50.5988458,183.135347 48.5334703,184.723766 48.2317071,186.985363 L46.7827741,197.835728 L55.7810711,201.753474 L46.1399127,202.655168 L44.7749332,212.877704 L47.176123,213.922515 L44.6035036,214.163398 L42.0302971,233.438801 L42.2064234,233.490041 L50.1473751,236.203368 L41.6316643,236.424227 L39.4523939,252.748953 L45.1929399,254.71077 L39.1700046,254.866844 L37.764516,265.395049 C37.4627528,267.656057 39.0384968,269.734489 41.2846954,270.035446 L119.771897,280.578375 L198.259098,291.120126 C200.505884,291.422262 202.570672,289.833843 202.873023,287.572246 L204.321369,276.721881 L195.323659,272.804135 L204.96423,271.901852 L206.329209,261.679905 L203.92802,260.634505 L206.501226,260.393622 L209.073846,241.118808 L208.898306,241.067568 L200.956768,238.353652 L209.472478,238.132793 L211.651749,221.808656 L205.911203,219.846839 L211.934138,219.690765 L213.339627,209.161971 Z" id="Fill-101" fill="#F2F3F4"></path>
                    <path d="M247.299884,87.9142008 C244.801383,87.3494883 243.233327,84.8637245 243.797302,82.3619566 C244.361848,79.8601887 246.843795,78.2900822 249.342296,78.8547947 C251.840797,79.4195072 253.408853,81.9052711 252.844878,84.4070389 C252.281474,86.9088068 249.798385,88.4789134 247.299884,87.9142008" id="Fill-66" fill="#FFFFFF"></path>
                    <g id="Group-107" transform="translate(44.530806, 211.268310)" fill="#D8D8D8">
                        <path d="M167.10857,8.68763255 L168.229305,0.294236058 C167.787928,1.31615838 166.346564,4.44127793 163.517177,8.78048116 L167.10857,8.68763255 Z" id="Fill-103"></path>
                        <path d="M0.0891547071,59.3718063 L75.0922373,69.4400036 L153.45518,79.9583404 C155.697823,80.2598045 157.759928,78.6749141 158.061214,76.4183403 L159.507267,65.5920753 L150.523802,61.6830314 L160.149697,60.7827525 L161.511929,50.5835094 L159.114541,49.5410194 L161.683673,49.3000831 L164.252806,30.068081 L164.076958,30.0169555 L156.148579,27.309067 L164.650808,27.0886985 L166.826628,10.8008198 L163.038286,9.50740347 C149.550192,29.7196049 107.237755,73.7551132 0.0891547071,59.3718063" id="Fill-105"></path>
                    </g>
                    <path d="M99.5385098,193.612022 C99.6183137,193.908525 99.5414012,194.235211 99.6431801,194.524021 C99.7773432,194.90693 100.191977,195.118211 100.588105,195.157863 C101.455539,195.245453 102.296372,194.672568 102.742811,193.906158 C103.18925,193.139747 103.301438,192.21532 103.285246,191.323443 C103.251705,189.442038 102.546192,187.398474 100.918308,186.524352 C100.136461,186.104749 99.2354861,186.002364 98.357643,185.906489 C95.2747826,185.572109 91.1567844,188.146538 92.3723485,191.96202 C92.813005,193.344518 94.3662901,194.283741 95.7582325,194.327536 C96.7395894,194.358902 99.1470079,192.159097 99.5385098,193.612022" id="Fill-108" fill="#F5CEB0"></path>
                    <path d="M100.739045,189.463058 C102.089187,189.944199 103.603894,190.575948 104.890333,189.951672 C105.849412,189.485477 106.373189,188.397305 106.379147,187.353396 C106.384986,186.309487 105.950864,185.306966 105.404083,184.409067 C104.236792,182.491976 102.466684,180.876676 100.313182,180.124786 C98.1602686,179.372895 95.621011,179.563742 93.7547599,180.852533 C92.6039837,181.646961 91.7616934,182.796066 91.0686324,183.992883 C90.5654996,184.862615 89.5910853,186.38709 89.6866392,187.430425 C89.8358685,189.049174 90.446352,188.61402 91.9651879,188.496752 C94.9745473,188.265667 97.8777357,188.443292 100.739045,189.463058" id="Fill-110" fill="#FF5254"></path>
                </g>
                <path d="M59.679525,240.242705 C60.5808951,240.242705 61.4014071,240.103715 62.1410609,239.825734 C62.8807146,239.547754 63.5129993,239.160112 64.0379149,238.662808 C64.5628305,238.165505 64.9697726,237.576391 65.2587413,236.895467 C65.5477099,236.214543 65.6921943,235.471138 65.6921943,234.665251 C65.6921943,233.864464 65.5477099,233.123609 65.2587413,232.442685 C64.9697726,231.761761 64.5628305,231.173922 64.0379149,230.679169 C63.5129993,230.184415 62.8807146,229.796773 62.1410609,229.516243 C61.4014071,229.235713 60.5808951,229.095447 59.679525,229.095447 L59.679525,229.095447 L55.1779763,229.095447 L55.1779763,240.242705 L59.679525,240.242705 Z M59.4124194,238.422565 L57.6542149,238.422565 L57.6542149,230.99106 L59.4124194,230.99106 C59.9155044,230.99106 60.3641318,231.076981 60.7583015,231.248823 C61.1524712,231.420665 61.4857002,231.666531 61.7579885,231.986422 C62.0302768,232.306312 62.2390312,232.696261 62.3842516,233.156269 C62.529472,233.616277 62.6020822,234.131803 62.6020822,234.702847 C62.6020822,235.279178 62.529472,235.797348 62.3842516,236.257356 C62.2390312,236.717364 62.0302768,237.107313 61.7579885,237.427203 C61.4857002,237.747094 61.1524712,237.99296 60.7583015,238.164802 C60.3641318,238.336644 59.9155044,238.422565 59.4124194,238.422565 L59.4124194,238.422565 Z M69.4962171,240.528648 L69.4962171,229.38139 L67.0222834,229.38139 L67.0222834,240.528648 L69.4962171,240.528648 Z M77.0507647,240.237651 L77.0507647,235.999092 L81.2674551,229.090394 L78.8716083,229.090394 C78.7598021,229.090394 78.6573131,229.10697 78.5641413,229.140124 C78.4709695,229.173278 78.3884458,229.216632 78.3165704,229.270188 C78.244695,229.323744 78.1808058,229.383675 78.1249027,229.449983 C78.0689996,229.51629 78.0250758,229.582597 77.9931311,229.648904 L77.9931311,229.648904 L76.3639553,232.892855 C76.2361768,233.147883 76.1163845,233.385059 76.0045783,233.604382 C75.8927721,233.823706 75.7969382,234.04303 75.7170767,234.262354 C75.631891,234.048131 75.5333951,233.831357 75.4215889,233.612033 C75.3097827,233.39271 75.1873283,233.152984 75.0542257,232.892855 L75.0542257,232.892855 L73.4090776,229.648904 C73.3238919,229.485686 73.2120858,229.351797 73.0736591,229.247236 C72.9352323,229.142674 72.7488887,229.090394 72.5146281,229.090394 L72.5146281,229.090394 L70.1347537,229.090394 L74.351444,235.999092 L74.351444,240.237651 L77.0507647,240.237651 Z M85.9684742,240.383543 C86.1916989,240.383543 86.3803769,240.326161 86.5345082,240.211399 C86.6886395,240.096637 86.7922796,239.967848 86.8454283,239.825032 L86.8454283,239.825032 L87.531047,237.881722 L91.9477067,237.881722 L92.6333253,239.825032 C92.6917889,239.98825 92.7967577,240.122139 92.9482316,240.226701 C93.0997054,240.331262 93.2923696,240.383543 93.526224,240.383543 L93.526224,240.383543 L95.6149692,240.383543 L91.1185864,229.236285 L88.3601672,229.236285 L83.8637844,240.383543 L85.9684742,240.383543 Z M91.7110233,235.365274 L88.6186062,235.365274 L89.6597717,232.496919 C89.7374707,232.313884 89.8203495,232.097132 89.9084083,231.846662 C89.9964671,231.596193 90.0819359,231.324049 90.1648147,231.030229 C90.2528735,231.319232 90.3422273,231.587764 90.432876,231.835825 C90.5235247,232.083886 90.6025186,232.299434 90.6698577,232.482469 L90.6698577,232.482469 L91.7110233,235.365274 Z M98.6242372,240.433835 C98.8874217,240.433835 99.1295513,240.407762 99.3506262,240.355615 C99.5717012,240.303468 99.7783009,240.232109 99.9704256,240.141539 C100.16255,240.050968 100.342832,239.941185 100.51127,239.812191 C100.679708,239.683196 100.842882,239.539106 101.000793,239.379921 L101.000793,239.379921 L101.150808,239.873943 C101.245554,240.159378 101.445574,240.302096 101.750868,240.302096 L101.750868,240.302096 L103.266811,240.302096 L103.266811,231.763746 L100.819195,231.763746 L100.819195,237.848453 C100.59812,238.05704 100.370466,238.218969 100.136232,238.334241 C99.9019976,238.449513 99.6506565,238.507149 99.3822084,238.507149 C99.0242776,238.507149 98.7531976,238.391877 98.5689685,238.161333 C98.3847394,237.93079 98.2926248,237.604186 98.2926248,237.181523 L98.2926248,237.181523 L98.2926248,231.763746 L95.8450096,231.763746 L95.8450096,237.181523 C95.8450096,237.653588 95.9055421,238.08723 96.0266069,238.482448 C96.1476717,238.877665 96.3266371,239.220736 96.5635031,239.51166 C96.8003691,239.802585 97.0911879,240.029011 97.4359595,240.190941 C97.7807311,240.35287 98.1768237,240.433835 98.6242372,240.433835 Z M108.242581,240.688966 C108.688335,240.688966 109.120159,240.63065 109.538053,240.514018 C109.955947,240.397386 110.332052,240.222439 110.666368,239.989175 L110.666368,239.989175 L109.880726,238.846183 C109.830579,238.773612 109.781825,238.72048 109.734463,238.686786 C109.687102,238.653093 109.624418,238.636246 109.546411,238.636246 C109.490692,238.636246 109.441938,238.645317 109.400148,238.66346 C109.358359,238.681603 109.313783,238.702337 109.266422,238.725664 C109.219061,238.74899 109.163341,238.769725 109.099264,238.787867 C109.035187,238.80601 108.955787,238.815081 108.861065,238.815081 C108.677191,238.815081 108.5365,238.754174 108.438991,238.632358 C108.341483,238.510543 108.292729,238.35633 108.292729,238.169719 L108.292729,238.169719 L108.292729,234.16536 L110.398915,234.16536 L110.398915,232.516963 L108.292729,232.516963 L108.292729,230.161001 L106.938751,230.161001 C106.626724,230.161001 106.437278,230.285408 106.370415,230.534223 L106.370415,230.534223 L105.860584,232.501413 L104.481533,232.750227 L104.481533,233.691057 C104.481533,233.846566 104.528895,233.964494 104.623617,234.04484 C104.71834,234.125187 104.832565,234.16536 104.966291,234.16536 L104.966291,234.16536 L105.701784,234.16536 L105.701784,238.333003 C105.701784,238.690674 105.757504,239.014651 105.868942,239.304935 C105.980381,239.595219 106.143359,239.842737 106.357878,240.047491 C106.572397,240.252245 106.837064,240.410345 107.151877,240.521794 C107.466691,240.633242 107.830259,240.688966 108.242581,240.688966 Z M115.145203,240.391045 C115.787804,240.391045 116.373223,240.289664 116.901463,240.086903 C117.429702,239.884141 117.883062,239.594868 118.261543,239.219083 C118.640023,238.843298 118.934095,238.386408 119.143757,237.848414 C119.353419,237.310419 119.45825,236.70619 119.45825,236.035724 C119.45825,235.370666 119.353419,234.771843 119.143757,234.239256 C118.934095,233.706669 118.640023,233.253834 118.261543,232.880753 C117.883062,232.507671 117.429702,232.221102 116.901463,232.021043 C116.373223,231.820985 115.787804,231.720956 115.145203,231.720956 C114.497157,231.720956 113.907653,231.820985 113.376691,232.021043 C112.845729,232.221102 112.388284,232.507671 112.004358,232.880753 C111.620431,233.253834 111.323637,233.706669 111.113975,234.239256 C110.904313,234.771843 110.799482,235.370666 110.799482,236.035724 C110.799482,236.70619 110.904313,237.310419 111.113975,237.848414 C111.323637,238.386408 111.620431,238.843298 112.004358,239.219083 C112.388284,239.594868 112.845729,239.884141 113.376691,240.086903 C113.907653,240.289664 114.497157,240.391045 115.145203,240.391045 Z M115.488215,238.493124 C114.94827,238.493124 114.553127,238.313981 114.302789,237.955693 C114.05245,237.597405 113.927281,237.052855 113.927281,236.322043 C113.927281,235.591231 114.05245,235.047867 114.302789,234.691952 C114.553127,234.336037 114.94827,234.15808 115.488215,234.15808 C116.013435,234.15808 116.399988,234.336037 116.647872,234.691952 C116.895756,235.047867 117.019698,235.591231 117.019698,236.322043 C117.019698,237.052855 116.895756,237.597405 116.647872,237.955693 C116.399988,238.313981 116.013435,238.493124 115.488215,238.493124 Z M123.186023,240.224152 L123.186023,234.048875 C123.358144,233.873222 123.542001,233.733249 123.737593,233.628956 C123.933185,233.524662 124.140513,233.472516 124.359577,233.472516 C124.714251,233.472516 124.982864,233.57132 125.165417,233.768929 C125.34797,233.966538 125.439246,234.309609 125.439246,234.798142 L125.439246,234.798142 L125.439246,240.224152 L127.86459,240.224152 L127.86459,234.798142 C127.86459,234.369989 127.972818,234.042013 128.189274,233.814214 C128.405729,233.586415 128.678254,233.472516 129.006849,233.472516 C129.726629,233.472516 130.086519,233.914391 130.086519,234.798142 L130.086519,234.798142 L130.086519,240.224152 L132.511863,240.224152 L132.511863,234.798142 C132.511863,234.287652 132.449274,233.830682 132.324095,233.42723 C132.198916,233.023779 132.015059,232.683452 131.772524,232.406251 C131.52999,232.12905 131.228778,231.917718 130.868888,231.772256 C130.508998,231.626794 130.09695,231.554063 129.632745,231.554063 C129.382387,231.554063 129.130725,231.581508 128.877758,231.6364 C128.624792,231.691291 128.384866,231.776373 128.157979,231.891645 C127.931092,232.006916 127.719852,232.157868 127.52426,232.344498 C127.328668,232.531129 127.163066,232.756183 127.027455,233.019662 C126.86055,232.575042 126.616712,232.21962 126.29594,231.953397 C125.975169,231.687174 125.569641,231.554063 125.079356,231.554063 C124.844645,231.554063 124.629494,231.580136 124.433902,231.632283 C124.238309,231.68443 124.055757,231.755788 123.886243,231.846359 C123.71673,231.93693 123.558952,232.043968 123.41291,232.167474 C123.266868,232.290979 123.126041,232.426835 122.990431,232.575042 L122.990431,232.575042 L122.857428,232.113955 C122.815701,231.971237 122.743984,231.864199 122.642276,231.79284 C122.540568,231.721481 122.414085,231.685802 122.262827,231.685802 L122.262827,231.685802 L120.760678,231.685802 L120.760678,240.224152 L123.186023,240.224152 Z M136.444498,240.747407 C136.733306,240.747407 136.996229,240.724513 137.233269,240.678725 C137.470309,240.632937 137.693726,240.562908 137.90352,240.468639 C138.113314,240.37437 138.316296,240.2599 138.512467,240.125229 C138.708638,239.990559 138.912983,239.834341 139.125501,239.656576 L139.125501,239.656576 L139.305325,240.117149 C139.387063,240.321848 139.489235,240.456519 139.611842,240.521161 C139.734449,240.585802 139.915634,240.618123 140.155399,240.618123 L140.155399,240.618123 L141.316077,240.618123 L141.316077,235.382133 C141.316077,234.902706 141.239788,234.460987 141.087211,234.056975 C140.934634,233.652963 140.715304,233.304167 140.429221,233.010585 C140.143138,232.717003 139.79439,232.488063 139.382976,232.323765 C138.971562,232.159467 138.509743,232.077318 137.997519,232.077318 C137.283674,232.077318 136.614786,232.186401 135.990853,232.404567 C135.366921,232.622734 134.798842,232.95537 134.286618,233.402476 L134.286618,233.402476 L134.74435,234.186259 C134.81519,234.310156 134.911913,234.413852 135.03452,234.497348 C135.157127,234.580843 135.305617,234.622591 135.479991,234.622591 C135.676162,234.622591 135.845087,234.59027 135.986766,234.525628 C136.128445,234.460987 136.274211,234.388264 136.424064,234.307462 C136.573917,234.22666 136.744204,234.153938 136.934926,234.089296 C137.125648,234.024654 137.370861,233.992333 137.670567,233.992333 C138.046561,233.992333 138.336731,234.101416 138.541076,234.319582 C138.74542,234.537749 138.847593,234.891932 138.847593,235.382133 L138.847593,235.382133 L138.847593,235.737663 C137.877636,235.75921 137.07388,235.856173 136.436325,236.028552 C135.798769,236.20093 135.291994,236.415056 134.916,236.67093 C134.540006,236.926804 134.27572,237.210959 134.123142,237.523394 C133.970565,237.83583 133.894276,238.140186 133.894276,238.436461 C133.894276,238.813538 133.954217,239.146174 134.0741,239.434369 C134.193982,239.722564 134.364269,239.963625 134.584961,240.15755 C134.805654,240.351476 135.074026,240.498267 135.39008,240.597923 C135.706133,240.697579 136.057606,240.747407 136.444498,240.747407 Z M136.852541,238.953463 C136.554605,238.953463 136.328493,238.896318 136.174204,238.782028 C136.019916,238.667738 135.942772,238.469724 135.942772,238.187986 C135.942772,238.044459 135.978684,237.911564 136.050508,237.789301 C136.122332,237.667037 136.251349,237.558063 136.437559,237.462378 C136.623769,237.366693 136.876482,237.286956 137.1957,237.223167 C137.514917,237.159377 137.921919,237.11685 138.416706,237.095587 L138.416706,237.095587 L138.416706,238.243802 C138.171972,238.493646 137.929899,238.674383 137.690486,238.786015 C137.451073,238.897647 137.171758,238.953463 136.852541,238.953463 Z M145.6026,240.463335 C146.048354,240.463335 146.480178,240.405019 146.898072,240.288387 C147.315966,240.171755 147.692071,239.996807 148.026387,239.763544 L148.026387,239.763544 L147.240745,238.620552 C147.190598,238.547981 147.141844,238.494849 147.094483,238.461155 C147.047121,238.427461 146.984437,238.410615 146.90643,238.410615 C146.850711,238.410615 146.801957,238.419686 146.760167,238.437829 C146.718378,238.455971 146.673802,238.476706 146.626441,238.500032 C146.57908,238.523359 146.52336,238.544093 146.459283,238.562236 C146.395206,238.580379 146.315806,238.58945 146.221084,238.58945 C146.03721,238.58945 145.896519,238.528542 145.79901,238.406727 C145.701502,238.284911 145.652748,238.130698 145.652748,237.944087 L145.652748,237.944087 L145.652748,233.939728 L147.758934,233.939728 L147.758934,232.291332 L145.652748,232.291332 L145.652748,229.935369 L144.29877,229.935369 C143.986743,229.935369 143.797297,230.059777 143.730434,230.308591 L143.730434,230.308591 L143.220603,232.275781 L141.841552,232.524596 L141.841552,233.465426 C141.841552,233.620935 141.888914,233.738862 141.983636,233.819209 C142.078359,233.899555 142.192584,233.939728 142.32631,233.939728 L142.32631,233.939728 L143.061804,233.939728 L143.061804,238.107372 C143.061804,238.465043 143.117523,238.78902 143.228961,239.079304 C143.3404,239.369587 143.503378,239.617106 143.717897,239.82186 C143.932416,240.026613 144.197083,240.184714 144.511896,240.296162 C144.82671,240.40761 145.190278,240.463335 145.6026,240.463335 Z M152.486131,240.20315 C152.776611,240.20315 153.082164,240.182874 153.402789,240.142322 C153.723414,240.101769 154.044039,240.028775 154.364663,239.923339 C154.685288,239.817903 154.997692,239.671915 155.301875,239.485374 C155.606057,239.298833 155.889687,239.056871 156.152764,238.759487 L156.152764,238.759487 L155.41286,237.859225 C155.308725,237.713237 155.155264,237.640243 154.952476,237.640243 C154.799014,237.640243 154.652404,237.675388 154.512644,237.745679 C154.372885,237.815969 154.219423,237.894371 154.05226,237.980882 C153.885096,238.067394 153.69464,238.145795 153.48089,238.216086 C153.26714,238.286376 153.012284,238.321522 152.716323,238.321522 C152.162766,238.321522 151.710602,238.163368 151.359833,237.84706 C151.009064,237.530751 150.792574,237.021144 150.710362,236.318237 L150.710362,236.318237 L155.62661,236.318237 C155.741706,236.318237 155.836249,236.304719 155.91024,236.277684 C155.98423,236.250649 156.043148,236.201987 156.086994,236.131696 C156.13084,236.061405 156.160985,235.966783 156.177427,235.847829 C156.193869,235.728876 156.20209,235.574777 156.20209,235.385533 C156.20209,234.779951 156.107547,234.237902 155.918461,233.759384 C155.729374,233.280867 155.466298,232.876695 155.12923,232.546869 C154.792163,232.217044 154.389327,231.965619 153.920721,231.792596 C153.452116,231.619573 152.935554,231.533061 152.371035,231.533061 C151.718823,231.533061 151.133752,231.643904 150.615819,231.86559 C150.097887,232.087276 149.656685,232.387364 149.292214,232.765852 C148.927743,233.144341 148.648224,233.585009 148.453657,234.087858 C148.25909,234.590707 148.161806,235.123294 148.161806,235.68562 C148.161806,236.431783 148.275532,237.086027 148.502984,237.648353 C148.730436,238.210679 149.040099,238.681086 149.431974,239.059574 C149.823848,239.438063 150.281492,239.723281 150.804906,239.915229 C151.328319,240.107176 151.888727,240.20315 152.486131,240.20315 Z M153.577408,235.258046 L150.484991,235.258046 C150.570226,234.857823 150.746022,234.551337 151.01238,234.338587 C151.278738,234.125837 151.648976,234.019462 152.123093,234.019462 C152.389451,234.019462 152.615856,234.055271 152.802306,234.12689 C152.988757,234.198509 153.139249,234.292245 153.253783,234.408099 C153.368317,234.523953 153.450888,234.655605 153.501496,234.803056 C153.552104,234.950506 153.577408,235.10217 153.577408,235.258046 L153.577408,235.258046 Z M159.772029,240.387424 C160.058989,240.387424 160.325645,240.360205 160.571997,240.305766 C160.818349,240.251327 161.048458,240.173558 161.262324,240.072457 C161.476191,239.971357 161.675167,239.850814 161.859255,239.710828 C162.043342,239.570843 162.219308,239.415304 162.387152,239.24421 L162.387152,239.24421 L162.582068,239.858591 C162.625383,239.993391 162.69983,240.094492 162.805409,240.161892 C162.910989,240.229293 163.042286,240.262993 163.199302,240.262993 L163.199302,240.262993 L164.75863,240.262993 L164.75863,228.620875 L162.240965,228.620875 L162.240965,232.703782 C161.99732,232.506766 161.72525,232.347338 161.424754,232.225499 C161.124259,232.103659 160.757438,232.04274 160.324291,232.04274 C159.788272,232.04274 159.298275,232.149025 158.8543,232.361596 C158.410325,232.574166 158.029968,232.868394 157.713229,233.244281 C157.396491,233.620168 157.151492,234.066047 156.978234,234.581919 C156.804975,235.097791 156.718346,235.656437 156.718346,236.257855 C156.718346,236.911121 156.7955,237.493097 156.949808,238.003784 C157.104117,238.514472 157.316629,238.946093 157.587346,239.298649 C157.858063,239.651205 158.180215,239.920806 158.553804,240.107453 C158.927393,240.294101 159.333468,240.387424 159.772029,240.387424 Z M160.547721,238.553436 C160.378211,238.553436 160.224735,238.517727 160.087294,238.44631 C159.949854,238.374892 159.831884,238.257053 159.733385,238.092793 C159.634885,237.928533 159.558148,237.71309 159.503171,237.446464 C159.448195,237.179839 159.420707,236.851318 159.420707,236.460902 C159.420707,236.056203 159.455067,235.711018 159.523787,235.425348 C159.592508,235.139678 159.687571,234.907571 159.808977,234.729027 C159.930383,234.550483 160.07355,234.420741 160.238479,234.339801 C160.403408,234.258862 160.584372,234.218392 160.78137,234.218392 C160.987531,234.218392 161.183385,234.255291 161.36893,234.329089 C161.554475,234.402887 161.729712,234.532629 161.89464,234.718314 L161.89464,234.718314 L161.89464,237.860686 C161.803013,237.974954 161.710241,238.074939 161.616323,238.16064 C161.522405,238.246341 161.42276,238.317758 161.317389,238.374892 C161.212018,238.432026 161.096339,238.476067 160.970351,238.507015 C160.844364,238.537962 160.703487,238.553436 160.547721,238.553436 Z M170.122735,240.644217 C170.345959,240.644217 170.534637,240.586836 170.688769,240.472073 C170.8429,240.357311 170.94654,240.228522 170.999689,240.085707 L170.999689,240.085707 L171.685307,238.142396 L176.101967,238.142396 L176.787586,240.085707 C176.846049,240.248924 176.951018,240.382814 177.102492,240.487375 C177.253966,240.591936 177.44663,240.644217 177.680485,240.644217 L177.680485,240.644217 L179.76923,240.644217 L175.272847,229.49696 L172.514428,229.49696 L168.018045,240.644217 L170.122735,240.644217 Z M175.865284,235.625948 L172.772867,235.625948 L173.814032,232.757594 C173.891731,232.574558 173.97461,232.357806 174.062669,232.107337 C174.150728,231.856868 174.236196,231.584723 174.319075,231.290904 C174.407134,231.579906 174.496488,231.848438 174.587136,232.096499 C174.677785,232.34456 174.756779,232.560108 174.824118,232.743143 L174.824118,232.743143 L175.865284,235.625948 Z M183.476087,240.592841 C183.763046,240.592841 184.029702,240.565621 184.276054,240.511183 C184.522407,240.456744 184.752516,240.378974 184.966382,240.277874 C185.180248,240.176773 185.379225,240.05623 185.563312,239.916245 C185.747399,239.776259 185.923365,239.62072 186.09121,239.449627 L186.09121,239.449627 L186.286126,240.064007 C186.32944,240.198808 186.403887,240.299908 186.509467,240.367309 C186.615046,240.434709 186.746344,240.468409 186.903359,240.468409 L186.903359,240.468409 L188.462687,240.468409 L188.462687,228.826291 L185.945023,228.826291 L185.945023,232.909199 C185.701378,232.712182 185.429307,232.552754 185.128812,232.430915 C184.828316,232.309076 184.461495,232.248156 184.028349,232.248156 C183.49233,232.248156 183.002333,232.354442 182.558357,232.567012 C182.114382,232.779582 181.734025,233.073811 181.417287,233.449698 C181.100548,233.825584 180.85555,234.271464 180.682291,234.787336 C180.509032,235.303208 180.422403,235.861853 180.422403,236.463272 C180.422403,237.116537 180.499557,237.698513 180.653866,238.209201 C180.808174,238.719888 181.020687,239.15151 181.291403,239.504066 C181.56212,239.856621 181.884273,240.126223 182.257862,240.31287 C182.631451,240.499517 183.037526,240.592841 183.476087,240.592841 Z M184.176404,238.144177 C184.006894,238.144177 183.853418,238.108468 183.715978,238.03705 C183.578537,237.965633 183.460567,237.847794 183.362068,237.683534 C183.263569,237.519273 183.186831,237.30383 183.131854,237.037205 C183.076878,236.770579 183.04939,236.442059 183.04939,236.051643 C183.04939,235.646943 183.08375,235.301759 183.152471,235.016089 C183.221191,234.730418 183.316254,234.498311 183.43766,234.319768 C183.559066,234.141224 183.702234,234.011482 183.867163,233.930542 C184.032091,233.849602 184.213055,233.809132 184.410054,233.809132 C184.616215,233.809132 184.812068,233.846031 184.997613,233.919829 C185.183158,233.993627 185.358395,234.123369 185.523324,234.309055 L185.523324,234.309055 L185.523324,237.451427 C185.431697,237.565695 185.338924,237.665679 185.245006,237.75138 C185.151088,237.837081 185.051444,237.908499 184.946072,237.965633 C184.840701,238.022767 184.725022,238.066808 184.599035,238.097755 C184.473047,238.128703 184.33217,238.144177 184.176404,238.144177 Z M191.803396,240.290304 C192.398406,240.290304 192.924653,240.220013 193.382137,240.079432 C193.83962,239.93885 194.224131,239.741496 194.535669,239.487368 C194.847207,239.23324 195.081563,238.930449 195.238735,238.578995 C195.395907,238.227542 195.474494,237.843646 195.474494,237.427309 C195.474494,237.086669 195.416957,236.794693 195.301885,236.551379 C195.186812,236.308065 195.03385,236.101248 194.842997,235.930928 C194.652145,235.760608 194.436033,235.617323 194.194661,235.501073 C193.95329,235.384823 193.706305,235.283442 193.453706,235.196931 C193.201108,235.110419 192.954123,235.032018 192.712751,234.961727 C192.471379,234.891436 192.255267,234.817091 192.064415,234.738689 C191.873563,234.660288 191.7206,234.569721 191.605528,234.466989 C191.490455,234.364256 191.432919,234.234489 191.432919,234.077686 C191.432919,233.861407 191.521328,233.692439 191.698147,233.570782 C191.874966,233.449125 192.128968,233.388297 192.460152,233.388297 C192.690298,233.388297 192.895183,233.41398 193.074808,233.465346 C193.254434,233.516712 193.415816,233.572134 193.558955,233.631611 C193.702095,233.691087 193.83541,233.746509 193.958903,233.797875 C194.082396,233.849241 194.205888,233.874925 194.329381,233.874925 C194.44726,233.874925 194.544089,233.853297 194.619869,233.810041 C194.695648,233.766785 194.767218,233.693791 194.834577,233.591058 L194.834577,233.591058 L195.423974,232.707017 C195.261188,232.550215 195.073143,232.405578 194.859837,232.273107 C194.646532,232.140637 194.410773,232.025738 194.152562,231.928413 C193.89435,231.831087 193.617895,231.755389 193.323197,231.70132 C193.028499,231.64725 192.723977,231.620215 192.409633,231.620215 C191.831463,231.620215 191.326266,231.691857 190.894042,231.835142 C190.461818,231.978427 190.102567,232.171727 189.816289,232.415041 C189.530011,232.658355 189.315302,232.940869 189.172163,233.262584 C189.029024,233.5843 188.957454,233.923587 188.957454,234.280448 C188.957454,234.664343 189.016394,234.991466 189.134273,235.261814 C189.252152,235.532163 189.406518,235.760608 189.59737,235.947149 C189.788222,236.13369 190.005738,236.287789 190.249916,236.409446 C190.494095,236.531103 190.742483,236.635187 190.995081,236.721698 C191.24768,236.80821 191.496068,236.88526 191.740247,236.952847 C191.984425,237.020434 192.201941,237.093428 192.392793,237.171829 C192.583645,237.250231 192.738011,237.343501 192.85589,237.45164 C192.973769,237.55978 193.032709,237.697658 193.032709,237.865274 C193.032709,237.957193 193.013062,238.046408 192.973769,238.13292 C192.934476,238.219431 192.87273,238.297833 192.78853,238.368123 C192.704331,238.438414 192.592065,238.493835 192.451732,238.534388 C192.3114,238.57494 192.140194,238.595216 191.938116,238.595216 C191.651837,238.595216 191.414676,238.562774 191.22663,238.497891 C191.038585,238.433007 190.874396,238.362716 190.734063,238.287019 C190.593731,238.211321 190.463221,238.14103 190.342536,238.076146 C190.22185,238.011263 190.085727,237.978821 189.934168,237.978821 C189.771382,237.978821 189.63947,238.009911 189.538431,238.072091 C189.437391,238.134271 189.350385,238.219431 189.277412,238.327571 L189.277412,238.327571 L188.671176,239.252164 C188.839575,239.398152 189.041654,239.534679 189.277412,239.661743 C189.513171,239.788807 189.769979,239.898298 190.047837,239.990217 C190.325696,240.082135 190.613377,240.155129 190.910882,240.209199 C191.208387,240.263269 191.505892,240.290304 191.803396,240.290304 Z" id="DIYAutomatedAds" fill="#427FE0" fill-rule="nonzero" transform="translate(125.326235, 234.684141) rotate(7.000000) translate(-125.326235, -234.684141) "></path>
            </g>
        </g>
    </g>
</svg>