<svg height="248" viewBox="0 0 196 248" width="196" xmlns="http://www.w3.org/2000/svg"><g fill="none"><g fill="#427fe0"><path d="m44.4228574 229v11.262966c0 1.082345.259285 1.920257.777855 2.513738.51857.59348 1.2970967.889562 2.3355802.888246.7454773.004035 1.4813138-.165078 2.147162-.49347.7014161-.351285 1.3417427-.80895 1.897281-1.356057v-12.815423h4.4192644v17.723479h-2.7013333c-.5729795 0-.9488085-.258907-1.1274867-.776722l-.3022753-1.417247c-.3720086.360372-.7663892.697891-1.1808887 1.010627-.4029936.303889-.8380658.564613-1.2977685.777709-.475409.218476-.9732966.386553-1.4851791.501366-.5620759.123922-1.1367689.184519-1.7128932.180788-1.0015387 0-1.8872052-.164668-2.6569995-.493648-.7471985-.312552-1.4113854-.788585-1.9416148-1.391586-.5399061-.624729-.9447316-1.350304-1.189957-2.132779-.2776154-.881032-.4135864-1.799011-.4030337-2.720995v-11.260992z"/><path d="m71.7778951 231.88006c-.0937714.163086-.2254356.301361-.3839339.403212-.1578288.084542-.335661.124957-.5146566.116962-.2452515-.006255-.4859202-.06763-.7040503-.179547-.2490938-.119014-.5393602-.254444-.8677111-.404238-.3641868-.161836-.7398812-.296607-1.1240101-.403211-.4861398-.128028-.9877032-.188449-1.4904456-.179547-.8920716 0-1.5926908.185361-2.1018578.556083-.5091669.370722-.7651228.85567-.7678677 1.454844-.0095932.371433.1322744.730877.3931977.99623.3016855.297025.6545291.537517 1.041665.709981.4760415.219445.9680913.402595 1.471918.547875.5489671.161422 1.1095998.337891 1.6818979.529408.5722982.191517 1.1325878.410051 1.6808686.655603.5347188.236096 1.0308793.550814 1.471918.933645.433909.378494.7879943.839199 1.0416651 1.355324.2621317.527356.3931976 1.162098.3931976 1.904226.0085394.842319-.159388 1.677143-.493041 2.451075-.3276567.746324-.8202703 1.409201-1.4410386 1.939108-.6907191.575647-1.4890706 1.0091-2.3488929 1.275298-.9325579.305743-2.0020144.458273-3.2083695.457609-.6345351.00124-1.2678373-.055772-1.8918778-.170334-.6031907-.110271-1.1963332-.269486-1.7735068-.476056-.5442436-.19248-1.0702358-.432823-1.5717614-.718189-.4533297-.255266-.8792797-.556076-1.2712019-.897735l1.0426944-1.687743c.1198616-.190061.2822817-.349849.4745134-.466823.2128256-.115149.4527986-.171138.6947864-.162105.2822177.000442.5583757.081633.7956592.233924.2490938.154924.5393602.323185.8677111.502732.3728764.198329.7611496.366448 1.1610654.502732.4446633.15595 1.0083839.233582 1.6911617.232898.4671244.009784.9328949-.053572 1.3803091-.187755.3444834-.105244.6665508-.272887.9500562-.494524.2380579-.188268.4263881-.431636.5486239-.708954.1143793-.263689.1735715-.54787.173954-.835151.0145535-.391185-.1268065-.772212-.3931977-1.059841-.3000294-.301125-.6531433-.544584-1.041665-.718188-.4788993-.220221-.9740881-.403386-1.4811818-.547875-.5544568-.160738-1.1212653-.337207-1.7004256-.529408-.5789812-.191581-1.1463897-.416303-1.6993962-.673045-.5412618-.248443-1.040858-.578584-1.4811818-.978788-.4428433-.409314-.7972873-.904349-1.041665-1.454845-.2621318-.574551-.3931977-1.269142-.3931977-2.083773-.0025051-.742349.1532734-1.476756.4570151-2.154565.3097134-.688205.7701003-1.298549 1.3473711-1.786237.6525717-.543395 1.402899-.958083 2.2109649-1.221947.883837-.305059 1.9045727-.457588 3.062207-.457588 1.2055743-.015795 2.4031157.197658 3.5284859.628928.9840896.37109 1.8848566.932466 2.6504817 1.651833z"/><path d="m83.9945236 246c-1.647902 0-2.9182035-.445371-3.8109044-1.335913-.8927008-.890542-1.3390513-2.120851-1.3390513-3.690928v-10.141455h-1.9337199c-.2361522.003878-.4652006-.078046-.6417814-.229545-.1790287-.153705-.2690666-.38325-.2690666-.690659v-1.73423l3.0675687-.478304.9673834-4.954944c.0379888-.218278.160817-.414316.3434002-.548077.197677-.135524.4361898-.204138.6784247-.195165h2.3807683v5.717399h5.0253684v3.114536h-5.0253684v9.841125c0 .56628.1486672 1.008854.4460015 1.327723.3051802.319398.7408743.492241 1.1903841.472237.2425089.004769.4841537-.029403.7150681-.101122.1721674-.056071.3400855-.123648.5025368-.202242.1423854-.070785.2690666-.138536.3810904-.202243.099824-.063024.215809-.098032.3350246-.101121.1199608-.003732.23769.031914.3339776.101121.1059679.08523.1999431.183476.2795361.292241l1.3788355 2.13467c-.6827534.537204-1.4641312.94543-2.3032939 1.203344-.8732505.270296-1.7851972.40578-2.7021825.401552z"/><path d="m99.0284636 228.000925c1.3595964 0 2.5913554.221804 3.6952784.665413 1.062793.414307 2.027144 1.057472 2.828386 1.886363.802941.85091 1.419924 1.868285 1.809687 2.984088.425457 1.174741.638185 2.486741.638185 3.935999 0 1.462265-.212728 2.780426-.638185 3.954482-.392241 1.119727-1.00877 2.142301-1.809687 3.001546-.797112.838549-1.762269 1.488558-2.828386 1.904846-1.10592.443609-2.33768.665413-3.6952784.665413-1.2652583.017307-2.5225428-.208362-3.7072629-.665413-1.0715034-.416032-2.0425811-1.065898-2.846363-1.904846-.8061387-.858518-1.4286932-1.880929-1.8276646-3.001546-.4314487-1.174741-.6471731-2.492902-.6471731-3.954482 0-1.449943.2157244-2.761942.6471731-3.935999.396471-1.116723 1.0194845-2.133938 1.8276646-2.984088.8079055-.829265 1.7781763-1.47229 2.846363-1.886363 1.1847201-.457051 2.4420046-.68272 3.7072629-.665413zm0 15.582775c1.5133994 0 2.6336344-.515147 3.3607054-1.545441.727071-1.030295 1.09094-2.540138 1.091606-4.529531 0-1.989392-.363869-3.505054-1.091606-4.546987-.727736-1.041932-1.847972-1.56324-3.3607054-1.563925-1.5367031 0-2.6719192.524389-3.4056483 1.573167s-1.0999279 2.56136-1.0985999 4.537745c0 1.977755.3662024 3.483833 1.0985999 4.518235s1.8676136 1.553314 3.4056483 1.556737z"/><path d="m112 246v-17.717713h2.829364c.60084 0 .994481.259152 1.180924.777456l.299717 1.312204c.32855-.338508.681129-.655932 1.055339-.950114.364897-.285126.760692-.533791 1.180924-.741938.428155-.211627.880628-.377123 1.348723-.49331.516836-.125324 1.049096-.186364 1.583009-.181538 1.211529 0 2.208121.302234 2.989775.906703.781655.604469 1.365609 1.407578 1.751863 2.409325.279644-.560345.660175-1.071613 1.124991-1.511501.434284-.410041.932409-.756315 1.477475-1.027071.540862-.267905 1.117615-.466993 1.714926-.591971.599644-.125656 1.212269-.189183 1.826792-.189431.965082-.015692 1.92487.136533 2.830419.448911.793406.279628 1.505771.72902 2.080073 1.312204.583105.609392 1.020907 1.327757 1.284348 2.10742.308178.921791.456745 1.883715.440076 2.849357v11.276074h-4.628717v-11.271141c0-1.128693-.26876-1.977843-.806279-2.547452-.537519-.569608-1.324802-.854412-2.361849-.854412-.451579-.003744-.899856.072241-1.321284.223962-.835979.298273-1.491158.922679-1.794076 1.709812-.18291.470191-.271631.967855-.261724 1.46809v11.276074h-4.643492v-11.276074c0-1.183944-.259262-2.047565-.777785-2.590863s-1.283644-.813632-2.295362-.811001c-.653575-.002405-1.296452.155076-1.864784.456805-.611958.329352-1.160294.752598-1.622056 1.25202v12.969113z"/><path d="m151.941191 228.000539c1.103841-.012014 2.200735.176892 3.237669.557587.957603.351178 1.828549.90599 2.553367 1.626553.734773.745889 1.303614 1.640162 1.66888 2.623638.399687 1.037133.59919 2.220423.598509 3.54987.003039.279307-.011972.558517-.044939.835868-.017868.183077-.073525.360394-.163415.52062-.074201.122054-.185603.216771-.317639.270065-.163621.059149-.336886.086672-.510674.081122h-11.500363c.132775 1.893538.646853 3.283228 1.542233 4.169069.895381.885842 2.080484 1.330816 3.555308 1.334924.634819.012422 1.267818-.07241 1.877235-.251582.47402-.146647.934914-.333168 1.377797-.557587.392878-.205373.737753-.391235 1.034624-.557588.260504-.157368.557177-.244056.860995-.251581.163338-.005804.325532.029492.471863.102686.136266.075424.253903.180711.344193.308059l1.306303 1.617312c-.481554.563121-1.044051 1.050783-1.668881 1.446851-.606039.384875-1.254084.698416-1.931366.934447-.665408.232428-1.352021.398216-2.049843.494948-.670076.093876-1.345718.141906-2.022266.143761-1.23191.011273-2.455387-.205228-3.609439-.638709-1.091558-.410929-2.081765-1.054432-2.902668-1.88635-.854-.883478-1.514976-1.936609-1.940558-3.091888-.471862-1.22813-.707794-2.651021-.707794-4.268675-.009663-1.210708.197929-2.413244.612808-3.549869.390356-1.074236.991984-2.058385 1.768973-2.893704.792763-.838625 1.749808-1.502945 2.810746-1.951042 1.108501-.478519 2.357949-.71812 3.748342-.718805zm.0909 3.183279c-1.305962 0-2.327309.365564-3.06404 1.096691-.736731.731128-1.208253 1.767576-1.414565 3.109345h8.415896c.003344-.550965-.075847-1.099296-.234909-1.626553-.148627-.490257-.39579-.944613-.726178-1.334923-.33797-.392193-.759742-.702508-1.233787-.907748-.550271-.234929-1.143677-.350402-1.741396-.338866z"/><path d="m163 247v-18.653929h2.438657c.426173 0 .723547.084832.892122.254495s.280643.460514.336203.872552l.251916 2.255134c.616215-1.152324 1.339446-2.061579 2.169694-2.727766.806484-.658025 1.786786-1.00926 2.791907-1.000486.852346 0 1.558847.212418 2.119501.636922l-.537925 3.363483c-.015101.179794-.093595.346021-.218769.463284-.134096.098245-.293544.146339-.454585.137115-.233712-.011552-.465253-.05446-.689453-.127766-.380439-.094751-.770133-.137319-1.160138-.126728-.86371 0-1.603989.25761-2.220835.772832s-1.13804 1.269703-1.563581 2.263443v11.617415z"/><path d="m188.77376 231.875749c-.09406.162862-.225666.301068-.383933.40319-.157829.084537-.335661.12495-.514656.116956-.245251-.006255-.48592-.067627-.70405-.179538-.249779-.119008-.539016-.253746-.86771-.404216-.363284-.160045-.737946-.293095-1.12092-.39806-.485777-.128082-.987008-.188502-1.489414-.179537-.892071 0-1.592689.185351-2.101855.556053s-.765122.855624-.767867 1.454766c-.009512.371202.131924.730473.392168.996176.302064.297024.655247.537497 1.042693.709942.475755.219273.967449.40241 1.470887.547846.548966.161413 1.109598.337872 1.681895.529379.572298.191507 1.132929.410029 1.681896.655568.534578.236343 1.030701.551019 1.471916.933595.433608.378753.787643.839369 1.041663 1.355251.262818.527327.393884 1.162034.393197 1.904122.008822.842404-.159481 1.67731-.494069 2.450942-.326942.746697-.819666 1.409687-1.441037 1.939004-.69044.576023-1.488876 1.0095-2.34889 1.275229-.93187.305727-2.000982.458248-3.207335.457583-.634873.001194-1.268512-.055814-1.892905-.170323-.602879-.110154-1.195687-.269364-1.772475-.476031-.544492-.192669-1.070808-.432989-1.572788-.718149-.45301-.255252-.878618-.556048-1.270171-.897687l1.041664-1.687652c.120532-.189863.283234-.349574.475542-.466797.21277-.115286.452783-.171282.694785-.162097.282192.000614.558302.081786.795658.233912.249094.155257.53833.322825.86771.502704.372876.198318.761149.366428 1.161064.502705.444663.155941 1.008382.23357 1.691159.232886.466787.009794.932219-.05356 1.379278-.187745.344791-.105254.667193-.272881.951084-.494497.238058-.188259.426388-.431613.548623-.708917.114054-.26374.172896-.547909.172925-.835105.014945-.391038-.126054-.772068-.392168-1.059784-.300229-.301339-.653724-.544807-1.042693-.71815-.478542-.220215-.973389-.403372-1.48015-.547845-.555143-.160729-1.12195-.337189-1.700424-.529379-.57898-.191571-1.146388-.416281-1.699393-.673009-.543506-.248192-1.045223-.578687-1.487356-.979761-.442843-.409291-.797286-.9043-1.041664-1.454766-.262817-.57452-.393883-1.269073-.393197-2.08366-.002505-.74231.153274-1.476676.457015-2.154449.307332-.687088.76445-1.297262 1.338105-1.786141.652949-.543375 1.403614-.958034 2.211991-1.22188.88315-.305043 1.903884-.457564 3.062203-.457564 1.20524-.015814 2.402446.19763 3.527452.628894.984514.370828 1.885663.932194 2.651507 1.651744z"/><path d="m32.7981311 238.098166c.4005444-.00233.7831233.169082 1.0520453.471363l2.9299461 3.190269c-1.6076654 2.00499-3.6596016 3.592914-5.9871898 4.633283-2.3678033 1.071279-5.210079 1.606919-8.5268271 1.606919-2.9674691 0-5.6351053-.508501-8.0029086-1.525502-2.2924962-.963985-4.35952242-2.40954-6.06609322-4.242265-1.67766157-1.812605-2.96326093-3.976589-3.85679807-6.491953-.89353714-2.515363-1.34030571-5.261766-1.34030571-8.239208 0-3.01458.49761743-5.77491 1.49285228-8.280989.94822643-2.431585 2.38067897-4.636872 4.20712915-6.476954 1.80530977-1.812605 3.96586007-3.223122 6.48165107-4.231553s5.293892-1.512289 8.3343029-1.511576c2.9667677 0 5.5618128.476363 7.7851352 1.429087 2.2233224.952725 4.1229655 2.215049 5.6989294 3.786972l-2.4880871 3.467731c-.1527294.227025-.3444745.42409-.5660004.581705-.23145.16712-.5491677.249608-.9542051.249608-.4208181 0-.8539101-.166405-1.2992759-.499216-.5390427-.395061-1.1011701-.756392-1.6832725-1.081992-.8239238-.447778-1.6898849-.810257-2.5848753-1.081992-1.0415249-.332097-2.3639458-.498502-3.9672628-.499216-1.878953 0-3.6064113.328525-5.1823752.985577-1.5375455.630298-2.9236801 1.590526-4.064051 2.815321-1.1334035 1.21983-2.0178229 2.703909-2.6532582 4.452237-.6354354 1.748328-.9531531 3.71234-.9531531 5.892036 0 2.256114.3177177 4.26262.9531531 6.019518.6354353 1.756898 1.4970604 3.236692 2.5848753 4.439381 1.070697 1.190748 2.3812441 2.132065 3.8420694 2.759615 1.5043991.644744 3.1220291.970613 4.7541927.957724.9196412.005846 1.8386624-.049981 2.7510985-.16712.7706376-.098886 1.5297294-.275442 2.2661056-.527069.6851594-.237091 1.3433108-.548479 1.9631165-.928799.6542419-.407649 1.2695679-.876774 1.8379231-1.401233.1750761-.159735.3703921-.294848.580729-.40173.2058068-.101546.4320082-.152895.6606845-.149979z"/><circle cx="98" cy="98" r="98"/></g><path d="m150.887808 62.2451647c-4.280817-11.0990535-12.398887-19.8631626-23.478587-25.3471069-10.120388-5.0071701-22.231585-6.9173898-34.1042623-5.3798451-8.7876012 1.1378039-17.1253609 4.1941555-24.1230114 8.8380195-13.6678583 9.0670377-22.6291192 23.7554306-23.980736 39.2766168-.2029517 2.3297394.1412293 4.6626018.4728566 6.9184308.3483657 2.3661742.6779007 4.6011833.2730434 6.2063925-.0899683.3570602-1.0953118 3.7017665-8.7530785 11.2427107-1.9201585 1.893635-2.6515377 4.677569-1.9083642 7.264026.7431736 2.586458 2.8429391 4.564902 5.4788502 5.162292 1.0911272.247756 2.0828708.465323 2.948031.656865l.8180838.180092c.0470765 5.972169.1265834 13.003027.2374745 14.318841.2594435 3.066761 1.6141987 5.634888 3.9157133 7.426434 3.1928284 2.485889 8.0197322 3.296821 13.9618244 2.347437 4.5821064-.728694 7.3062627.423683 8.1002853 3.435272.0700916.595448.2803663 2.422388.4184572 4.41901.2702632 3.817408 3.4562844 6.779716 7.3020781 6.789348h47.3526166c4.042947-.003444 7.31954-3.263902 7.323001-7.286942v-13.030093c0-9.191957 1.452047-15.444153 4.31534-18.583784 7.104357-7.789741 12.178151-16.542399 14.674248-25.3117129 2.853878-10.0528569 2.437513-19.9912046-1.243864-29.5423034zm-22.781856 27.9089874c-1.753336 3.7205043-4.115178 7.4181068-7.085527 11.0928079l-3.259781-1.6020866-18.5669463 19.9984916-24.8134658-26.1403426-2.6634801-.4611593c-.5293484-.9424445-1.0227792-1.8973809-1.4802924-2.8648092-2.48085-5.2800897-2.685311-11.3397167-.5659633-16.7734992 1.6141986-4.1025483 4.4136773-7.4410087 8.0322859-9.6406241l13.8321028 1.4448964 8.2823141 6.3271476 8.1295771-6.3271476 12.553716-1.5614875c3.690793 2.1975335 6.545717 5.5713876 8.180838 9.7301494 2.118568 5.4361117 1.910682 11.4979128-.575378 16.7776632z" fill="#fff"/><path d="m114.642879 63c-4.917347 0-9.539486 1.9716939-13.012088 5.5533604l-2.6245322 2.706636-2.6245321-2.706636c-3.4726023-3.5816665-8.0947414-5.5533604-13.0120881-5.5533604-4.9173468 0-9.5447015 1.9716939-13.018347 5.5533604-7.1350555 7.356739-7.1350555 19.3290815 0 26.6868659l27.364607 28.2173857c.3378303.346831.8009986.542388 1.284623.542388.4836243 0 .9467926-.195557 1.2846234-.542388l27.363563-28.2173857c7.135056-7.3577844 7.135056-19.3280361 0-26.684775-3.472602-3.5816666-8.093698-5.5533604-13.011045-5.5533604zm2.26465 14.3528022c0 .725593-.436125 1.3797394-1.105011 1.6574118-.668885.2776724-1.438806.124188-1.950749-.3888837-.511943-.5130718-.66509-1.2846901-.388028-1.9550505.277061-.6703605.929769-1.1074472 1.653765-1.1074472.986088.0040261 1.783668.8056996 1.784807 1.7939696zm8.179235 15.3856938-4.602319 4.7400105v-9.3629322c0-.990782-.80142-1.7939696-1.790023-1.7939696h-18.232987c-.8718064-2.4712768-3.393286-3.9536795-5.9710383-3.5104319-2.5777523.4432475-4.461979 2.6832166-4.461979 5.3044015 0 2.621185 1.8842267 4.861154 4.461979 5.3044016 2.5777523.4432475 5.0992319-1.0391551 5.9710383-3.510432h16.440878v11.2614451l-17.9012699 18.457188-13.1633429-13.56977h8.1218629c.8718293 2.471882 3.3938021 3.95475 5.972139 3.511493s4.4630279-2.683699 4.4630279-5.305463-1.884691-4.8622064-4.4630279-5.3054632c-2.5783369-.4432567-5.1003097 1.0396108-5.972139 3.5114932h-11.6017672l-9.4403878-9.7330165c-1.2932723-1.3393618-2.3302906-2.9052288-3.0595201-4.6197853h13.0319077c.9883637-.0005767 1.7894472-.8034265 1.7900227-1.7939696v-5.7122668c2.4658398-.8737283 3.944981-3.4007676 3.5027087-5.9842037-.4422724-2.5834361-2.6773133-4.4718174-5.2927314-4.4718174s-4.850459 1.8883813-5.2927314 4.4718174 1.0368688 5.1104754 3.5027087 5.9842037v3.9182972h-12.2985826c-.7959134-4.7515104.5674664-9.8156064 4.1193471-13.4756807 2.7924772-2.8801784 6.5018715-4.4661061 10.4438854-4.4661061s7.6503651 1.5859277 10.4438854 4.4661061l3.9096766 4.0312044c.6749095.6962609 1.8932932.6962609 2.5682031 0l3.909676-4.0312044c2.415257-2.5198282 5.656486-4.0818399 9.12849-4.3991982v5.6453589c-2.46584.8737283-3.944981 3.4007676-3.502709 5.9842037.442273 2.5834361 2.677314 4.4718174 5.292732 4.4718174s4.850459-1.8883813 5.292731-4.4718174c.442273-2.5834361-1.036869-5.1104754-3.502708-5.9842037v-5.5167701c3.117135.4946111 5.988523 1.9938437 8.179235 4.2706094 5.796711 5.9778078 5.796711 15.7055975 0 21.6844507zm-27.8705279-4.6208308c0 .725593-.436125 1.3797394-1.1050107 1.6574118-.6688856.2776724-1.4388063.124188-1.9507492-.3888837s-.6650896-1.2846901-.3880281-1.9550505c.2770615-.6703605.9297687-1.1074472 1.6537653-1.1074472.9858504.0045967 1.7830972.8059363 1.784807 1.7939696zm0 16.1467718c0-.990782.8014205-1.79397 1.7900227-1.79397.9886023 0 1.7900232.803188 1.7900232 1.79397s-.8014209 1.793972-1.7900232 1.793972c-.4754775.00083-.9317955-.187743-1.2684982-.524207-.3367027-.336465-.5261874-.793239-.5267402-1.269765zm-16.1164631-28.7056044c0-.9907821.8014204-1.7939696 1.7900227-1.7939696.9886022 0 1.7900227.8031875 1.7900227 1.7939696 0 .990782-.8014205 1.7939696-1.7900227 1.7939696-.9881257-.0011522-1.7888731-.8036652-1.7900227-1.7939696z" fill="#fff" stroke="#fff"/><path d="m111 93h3v3h-3z" fill="#fff" stroke="#fff"/><path d="m83 93h3v3h-3z" fill="#fff" stroke="#fff"/><path d="m103 78h3v3h-3z" fill="#fff" stroke="#fff"/><path d="m124 81h3v3h-3z" fill="#fff" stroke="#fff"/></g></svg>