<?xml version="1.0" encoding="UTF-8"?>
<svg width="402px" height="258px" viewBox="0 0 402 258" version="1.1" xmlns="http://www.w3.org/2000/svg" xmlns:xlink="http://www.w3.org/1999/xlink">
    <!-- Generator: Sketch 63.1 (92452) - https://sketch.com -->
    <title>img_hubspot_automation</title>
    <desc>Created with Sketch.</desc>
    <defs>
        <polygon id="path-1" points="24.180703 33.1814398 0.0131255106 33.1814398 0.0131255106 0.0597891983 24.180703 0.0597891983"></polygon>
        <polygon id="path-3" points="0.220941065 0.012521298 46.0117219 0.012521298 46.0117219 48.7638822 0.220941065 48.7638822"></polygon>
    </defs>
    <g id="Page-1" stroke="none" stroke-width="1" fill="none" fill-rule="evenodd">
        <g id="Hubspot" transform="translate(-793.000000, -2623.000000)">
            <g id="img_hubspot_automation" transform="translate(793.000000, 2623.000000)">
                <g>
                    <rect id="Rectangle" fill="#FF5254" x="0" y="112" width="58" height="82" rx="8"></rect>
                    <path d="M344.046707,44 C355.687425,44 365,53.7806216 365,65.1261426 L365,236.873857 C365,248.610603 355.299401,258 344.046707,258 L61.9532934,258 C50.3125749,258 41,248.610603 41,236.873857 L41,65.1261426 C41,53.7806216 50.3125749,44 61.9532934,44 L344.046707,44 Z" id="Path" fill="#FF5254"></path>
                    <rect id="Rectangle" fill="#FF5254" x="0" y="112" width="58" height="82" rx="8"></rect>
                    <rect id="Rectangle" fill="#336097" x="69" y="73" width="272" height="157"></rect>
                    <path d="M69,73 L256.317025,73 C263.716243,97.627451 268,123.794118 268,151.5 C268,179.205882 263.716243,205.757353 256.317025,230 L69,230 L69,73 Z" id="Path" fill="#4A90E2"></path>
                    <path d="M140.5,112 C162.186275,112 180,129.426471 180,151.5 C180,173.186275 162.186275,191 140.5,191 C118.813725,191 101,173.186275 101,151.5 C101,129.813725 118.813725,112 140.5,112 L140.5,112 Z M270.5,112 C292.186275,112 310,129.426471 310,151.5 C310,173.186275 292.573529,191 270.5,191 C248.813725,191 231,173.186275 231,151.5 C231,129.813725 248.813725,112 270.5,112 L270.5,112 Z" id="Shape" fill="#FEFEFE"></path>
                    <path d="M141.5,121 C124.512658,121 111,134.291139 111,151 C111,167.708861 124.512658,181 141.5,181 C158.487342,181 172,167.708861 172,151 C172,134.291139 158.487342,121 141.5,121 L141.5,121 Z M270.5,121 C253.512658,121 240,134.291139 240,151 C240,167.708861 253.512658,181 270.5,181 C287.487342,181 301,167.708861 301,151 C301,134.291139 287.487342,121 270.5,121 L270.5,121 Z" id="Shape" fill="#242B2E"></path>
                    <path d="M110,151 C110,165.118421 119.745763,176.565789 133,180 C146.254237,176.565789 156,164.736842 156,151 C156,136.881579 146.254237,125.434211 133,122 C119.745763,125.434211 110,137.263158 110,151 Z M263,180 C276.254237,176.565789 286,164.736842 286,151 C286,136.881579 276.254237,125.434211 263,122 C249.745763,125.434211 240,137.263158 240,151 C240,165.118421 249.745763,176.947368 263,180 L263,180 Z" id="Shape" fill="#40494C"></path>
                    <polygon id="Rectangle" fill="#FF5254" transform="translate(205.500000, 29.000000) scale(1, -1) translate(-205.500000, -29.000000) " points="98 0 313 0 313 58 255.109375 58 98 58"></polygon>
                    <rect id="Rectangle" fill="#FF5254" x="344" y="112" width="58" height="82" rx="8"></rect>
                    <g id="img_hubspot_logo" transform="translate(118.000000, 9.000000)">
                        <g id="Marketing/Logos/HubSpot-Primary">
                            <polygon id="Fill-1" fill="#FFFFFF" fill-rule="nonzero" points="18.5940419 8.43958648 18.5940419 22.3876864 5.98677338 22.3876864 5.98677338 8.43958648 0.000184866346 8.43958648 0.000184866346 41.7324658 5.98677338 41.7324658 5.98677338 28.2395151 18.5940419 28.2395151 18.5940419 41.7324658 24.5800143 41.7324658 24.5800143 8.43958648"></polygon>
                            <path d="M43.7359268,30.9717875 C43.7359268,33.744629 41.5132168,36.0009669 38.7845895,36.0009669 C36.05473,36.0009669 33.8332527,33.744629 33.8332527,30.9717875 L33.8332527,16.7119072 L28.1634019,16.7119072 L28.1634019,30.9717875 C28.1634019,36.9206563 32.9286401,41.760138 38.7845895,41.760138 C44.6393068,41.760138 49.4033127,36.9206563 49.4033127,30.9717875 L49.4033127,16.7119072 L43.7359268,16.7119072 L43.7359268,30.9717875 Z" id="Fill-2" fill="#FFFFFF" fill-rule="nonzero"></path>
                            <path d="M85.8026333,18.1802799 C85.8026333,15.2565568 87.7073732,14.3299807 89.7932817,14.3299807 C91.4718682,14.3299807 93.6939615,15.6278132 95.1433139,17.2054968 L98.860976,12.7535493 C97.0036855,10.2029609 93.2398066,8.43996212 90.1556197,8.43996212 C83.9878621,8.43996212 79.5436753,12.10432 79.5436753,18.1802799 C79.5436753,29.4500742 93.104238,25.8777478 93.104238,32.1872299 C93.104238,34.1330396 91.2450989,35.8503356 89.1142061,35.8503356 C85.7576494,35.8503356 84.6681703,34.1806205 83.1270013,32.4182479 L78.9995518,36.7769117 C81.6308163,40.0700129 84.8955557,41.7409804 88.7956198,41.7409804 C94.6460233,41.7409804 99.3625799,38.0302937 99.3625799,32.2316805 C99.3625799,19.7097564 85.8026333,23.6063844 85.8026333,18.1802799" id="Fill-4" fill="#FFFFFF" fill-rule="nonzero"></path>
                            <path d="M169.693564,36.4144201 C166.339472,36.4144201 165.387411,34.9406633 165.387411,32.6824473 L165.387411,22.6841908 L170.601258,22.6841908 L170.601258,17.6168215 L165.387411,17.6168215 L165.387411,10.9348307 L159.628824,13.561173 L159.628824,33.9264382 C159.628824,39.1334201 163.164701,41.7603882 168.015594,41.7603882 C168.741502,41.7603882 169.739781,41.7128075 170.28452,41.5763252 L171.690737,36.3236407 C171.056029,36.3680913 170.330737,36.4144201 169.693564,36.4144201" id="Fill-6" fill="#FFFFFF" fill-rule="nonzero"></path>
                            <path d="M65.3096444,35.9451219 C61.7472697,35.9451219 58.8590413,33.0107557 58.8590413,29.3914745 C58.8590413,25.7721933 61.7472697,22.8378271 65.3096444,22.8378271 C68.8720191,22.8378271 71.7602475,25.7721933 71.7602475,29.3914745 C71.7602475,33.0107557 68.8720191,35.9451219 65.3096444,35.9451219 M65.3453852,16.8789414 C62.532952,16.8789414 60.5709035,17.7084774 58.6747911,19.5985673 L58.6747911,8.63867511 L52.9876864,8.63867511 L52.9876864,28.9507248 C52.9876864,36.5530309 58.3974919,41.7600126 64.4765135,41.7600126 C71.2339946,41.7600126 77.1552636,36.4603733 77.1552636,29.3201031 C77.1552636,22.2699862 71.6949279,16.8789414 65.3453852,16.8789414" id="Fill-8" fill="#FFFFFF" fill-rule="nonzero"></path>
                            <g id="Group-12" transform="translate(102.908933, 16.520206)">
                                <g id="Fill-10-Clipped">
                                    <mask id="mask-2" fill="white">
                                        <use xlink:href="#path-1"></use>
                                    </mask>
                                    <g id="path-1"></g>
                                    <path d="M12.3356999,18.9819748 C8.7727092,18.9819748 5.88448068,16.0476086 5.88448068,12.4283274 C5.88448068,8.80904621 8.7727092,5.87468002 12.3356999,5.87468002 C15.8974582,5.87468002 18.7856868,8.80904621 18.7856868,12.4283274 C18.7856868,16.0476086 15.8974582,18.9819748 12.3356999,18.9819748 M24.180703,12.4996988 C24.180703,5.3594286 18.2594339,0.0597891983 11.5019527,0.0597891983 C5.42293102,0.0597891983 0.0131255106,5.26677098 0.0131255106,12.8690771 L0.0131255106,33.1817528 L5.70023054,33.1817528 L5.70023054,22.2212346 C7.59634304,24.1119506 9.55839119,24.9414866 12.3708245,24.9414866 C18.7203673,24.9414866 24.180703,19.5498157 24.180703,12.4996988" id="Fill-10" fill="#FFFFFF" fill-rule="nonzero" mask="url(#mask-2)"></path>
                                </g>
                            </g>
                            <g id="Group-15" transform="translate(110.058055, 0.242519)">
                                <g id="Fill-13-Clipped">
                                    <mask id="mask-4" fill="white">
                                        <use xlink:href="#path-3"></use>
                                    </mask>
                                    <g id="path-3"></g>
                                    <path d="M33.4857946,35.1432142 C29.9388257,35.1432142 27.0635377,32.2219953 27.0635377,28.6189918 C27.0635377,25.0153622 29.9388257,22.0941434 33.4857946,22.0941434 C37.0327636,22.0941434 39.9080516,25.0153622 39.9080516,28.6189918 C39.9080516,32.2219953 37.0327636,35.1432142 33.4857946,35.1432142 M35.4084046,16.0576256 L35.4084046,10.2533779 C36.8996597,9.53778574 37.9441545,8.00517886 37.9441545,6.2265285 L37.9441545,6.09255059 C37.9441545,3.63775011 35.9673172,1.62933391 33.5511141,1.62933391 L33.4198589,1.62933391 C31.0036558,1.62933391 29.0268183,3.63775011 29.0268183,6.09255059 L29.0268183,6.2265285 C29.0268183,8.00517886 30.0713132,9.53841183 31.5625684,10.254004 L31.5625684,16.0576256 C29.3423236,16.4063438 27.3137235,17.3366762 25.6406831,18.7058802 L9.95477361,6.30916904 C10.0582988,5.90535718 10.1310129,5.4896501 10.1316291,5.05265679 C10.134094,2.27292863 7.91939515,0.015964655 5.18214077,0.0122050042 C2.44611886,0.00907794108 0.224025381,2.25978126 0.220941065,5.04013548 C0.21786317,7.82048971 2.432562,10.0774537 5.16981634,10.080584 C6.06148836,10.0818361 6.8872247,9.82452346 7.61066834,9.40631212 L23.0402298,21.6014303 C21.728295,23.6136029 20.959251,26.0239528 20.959251,28.6189918 C20.959251,31.3354874 21.8040902,33.8485119 23.2312584,35.9151522 L18.5393505,40.6826362 C18.1683854,40.5693185 17.7838634,40.4904347 17.375925,40.4904347 C15.127334,40.4904347 13.3039356,42.3423345 13.3039356,44.6268454 C13.3039356,46.9119824 15.127334,48.7638822 17.375925,48.7638822 C19.6251322,48.7638822 21.4479144,46.9119824 21.4479144,44.6268454 C21.4479144,44.2136425 21.3702705,43.8223519 21.2587345,43.4454609 L25.9001122,38.7299399 C28.0069723,40.3633432 30.630842,41.345013 33.4857946,41.345013 C40.4041096,41.345013 46.0117219,35.6471964 46.0117219,28.6189918 C46.0117219,22.2562942 41.4110147,16.9998533 35.4084046,16.0576256" id="Fill-13" fill="#FFFFFF" fill-rule="nonzero" mask="url(#mask-4)"></path>
                                </g>
                            </g>
                        </g>
                    </g>
                </g>
            </g>
        </g>
    </g>
</svg>