<?xml version="1.0" encoding="UTF-8"?>
<svg width="391px" height="391px" viewBox="0 0 391 391" version="1.1" xmlns="http://www.w3.org/2000/svg" xmlns:xlink="http://www.w3.org/1999/xlink">
    <!-- Generator: Sketch 63.1 (92452) - https://sketch.com -->
    <title>img_infograph</title>
    <desc>Created with Sketch.</desc>
    <defs>
        <linearGradient x1="46.7060004%" y1="-5.6695365%" x2="50.824924%" y2="38.558345%" id="linearGradient-1">
            <stop stop-color="#80C3F3" offset="0%"></stop>
            <stop stop-color="#4A90E2" offset="100%"></stop>
        </linearGradient>
    </defs>
    <g id="Page-1" stroke="none" stroke-width="1" fill="none" fill-rule="evenodd">
        <g id="Hubspot" transform="translate(-878.000000, -6079.000000)" fill-rule="nonzero">
            <g id="img_infograph" transform="translate(878.000000, 6079.000000)">
                <polygon id="Path" fill="#FF5254" points="0 0 391 0 391 37 0 37"></polygon>
                <path d="M0,358.777778 L162.916667,358.777778 L162.916667,371.666667 C162.916667,382.327711 171.686145,391 182.466667,391 L208.533333,391 C219.313855,391 228.083333,382.327711 228.083333,371.666667 L228.083333,358.777778 L391,358.777778 L391,333 L0,333 L0,358.777778 Z M215.05,358.777778 L215.05,371.666667 C215.05,375.222453 212.125776,378.111111 208.533333,378.111111 L182.466667,378.111111 C178.874224,378.111111 175.95,375.222453 175.95,371.666667 L175.95,358.777778 L215.05,358.777778 Z" id="Shape" fill="#FF5254"></path>
                <path d="M21,52 L21,318 L375,318 L375,52 L21,52 Z M119.333333,97.4146341 L119.333333,136.341463 L147.146458,108.815783 C154.264152,115.860372 158.666667,125.592079 158.666667,136.341463 C158.666667,157.840232 141.056609,175.268293 119.333333,175.268293 C97.6100578,175.268293 80,157.840232 80,136.341463 C80,114.842695 97.6100578,97.4146341 119.333333,97.4146341 Z M60.3333333,298.536585 L47.2222222,298.536585 L47.2222222,285.560976 L60.3333333,285.560976 L60.3333333,298.536585 Z M47.2222222,136.341463 L60.3333333,136.341463 C60.3333333,168.539725 86.8020444,194.731707 119.333333,194.731707 C151.864622,194.731707 178.333333,168.539725 178.333333,136.341463 C178.333333,104.143201 151.864622,77.9512195 119.333333,77.9512195 L119.333333,64.9756098 C159.095597,64.9756098 191.444444,96.9901371 191.444444,136.341463 C191.444444,175.69279 159.095597,207.707317 119.333333,207.707317 C79.57107,207.707317 47.2222222,175.69279 47.2222222,136.341463 Z M86.5555556,298.536585 L73.4444444,298.536585 L73.4444444,285.560976 L86.5555556,285.560976 L86.5555556,298.536585 Z M329.111111,253.121951 C327.641487,253.121951 326.252627,252.828508 324.933846,252.387013 L289.521652,283.048833 C289.683378,283.862598 289.777778,284.700498 289.777778,285.560976 C289.777778,292.72708 283.907606,298.536585 276.666667,298.536585 C269.425728,298.536585 263.555556,292.72708 263.555556,285.560976 C263.555556,285.044222 263.649956,284.553225 263.709218,284.052301 L229.371742,258.565544 C227.790083,259.23515 226.051157,259.609756 224.222222,259.609756 C222.751352,259.609756 221.361378,259.315923 220.041351,258.87365 L184.633157,289.53826 C184.794489,290.351571 184.888889,291.188692 184.888889,292.04878 C184.888889,299.214885 179.018717,305.02439 171.777778,305.02439 C166.937156,305.02439 162.756284,302.398646 160.485178,298.536585 L99.6666667,298.536585 L99.6666667,285.560976 L160.485178,285.560976 C162.756284,281.698915 166.93709,279.073171 171.777778,279.073171 C173.247796,279.073171 174.637049,279.367003 175.956223,279.808499 L211.367171,249.146679 C211.205511,248.332913 211.111111,247.494624 211.111111,246.634146 C211.111111,239.467652 216.981283,233.658537 224.222222,233.658537 C231.463161,233.658537 237.333333,239.467652 237.333333,246.634146 C237.333333,247.1509 237.238933,247.641897 237.179671,248.14282 L271.517147,273.629578 C273.098806,272.959972 274.837732,272.585366 276.666667,272.585366 C278.137537,272.585366 279.527511,272.879588 280.847538,273.321472 L316.255732,242.65524 C316.0944,241.842319 316,241.005651 316,240.146341 C316,232.979847 321.870172,227.170732 329.111111,227.170732 C336.35205,227.170732 342.222222,232.979847 342.222222,240.146341 C342.222222,247.312446 336.35205,253.121951 329.111111,253.121951 Z M342.222222,194.731707 L198,194.731707 L198,181.756098 L217.666667,181.756098 L217.666667,149.317073 L243.888889,149.317073 L243.888889,110.390244 L270.111111,110.390244 L270.111111,129.853659 L296.333333,129.853659 L296.333333,77.9512195 L322.555556,77.9512195 L322.555556,181.756098 L342.222222,181.756098 L342.222222,194.731707 Z" id="Shape" fill="url(#linearGradient-1)"></path>
            </g>
        </g>
    </g>
</svg>