<?xml version="1.0" encoding="UTF-8"?>
<svg width="436px" height="446px" viewBox="0 0 436 446" version="1.1" xmlns="http://www.w3.org/2000/svg" xmlns:xlink="http://www.w3.org/1999/xlink">
    <!-- Generator: Sketch 59.1 (86144) - https://sketch.com -->
    <title>img_youtube</title>
    <desc>Created with Sketch.</desc>
    <defs>
        <linearGradient x1="23.8255696%" y1="-9.13896727%" x2="58.5921697%" y2="87.6957529%" id="linearGradient-1">
            <stop stop-color="#FF5D6C" offset="0%"></stop>
            <stop stop-color="#FF0200" offset="100%"></stop>
        </linearGradient>
        <linearGradient x1="74.7403129%" y1="20.3755194%" x2="27.6704668%" y2="65.0990278%" id="linearGradient-2">
            <stop stop-color="#FF5D6C" offset="0%"></stop>
            <stop stop-color="#FF0200" offset="100%"></stop>
        </linearGradient>
    </defs>
    <g id="Page-1" stroke="none" stroke-width="1" fill="none" fill-rule="evenodd">
        <g id="Video-SEO" transform="translate(-150.000000, -1754.000000)">
            <g id="img_youtube" transform="translate(136.000000, 1698.000000)">
                <path d="M60.2281034,292.471036 C81.6240327,242.489595 107.309889,195.387547 137.285671,151.164894 C167.261453,106.942241 201.527163,65.5989799 240.082802,27.1351093 C257.507531,9.75185367 284.881401,7.11545087 305.343791,20.8497632 L398.181103,83.1619675 C418.884098,97.0577729 426.590494,123.724917 416.464828,146.430803 C391.811552,201.71354 366.382266,248.684975 340.176969,287.345108 C313.971673,326.005241 279.731547,367.062859 237.456591,410.517962 C220.093298,428.365969 192.359084,431.245451 171.65609,417.349646 L78.8187785,355.037441 C58.3563879,341.303128 50.5584871,315.059508 60.2281034,292.471036 Z" id="Rectangle" fill="url(#linearGradient-1)" opacity="0.38502038" transform="translate(238.500000, 219.099792) rotate(79.000000) translate(-238.500000, -219.099792) "></path>
                <path d="M49.8792542,132.912523 C102.786506,116.150547 156.225337,105.42431 210.195746,100.733812 C264.166155,96.0433146 318.668145,97.3885556 373.701719,104.769535 C397.58653,107.972913 416.046809,127.192352 418.147395,151.042994 L430.802173,294.728913 C432.932957,318.922425 417.659284,341.273888 394.237765,348.237197 C335.081235,365.824665 281.954704,376.664947 234.858174,380.758045 C187.761643,384.851143 133.547267,383.339718 72.2150454,376.223771 C47.9321163,373.406393 28.9832927,354.029162 26.8525094,329.835649 L14.1977314,186.149732 C12.0971455,162.299089 26.9172796,140.187293 49.8792542,132.912523 Z" id="Rectangle" fill="url(#linearGradient-2)"></path>
                <ellipse id="Oval-4" fill="#000000" opacity="0.05" cx="247.5" cy="487" rx="187.5" ry="15"></ellipse>
                <polygon id="Rectangle-2" fill="#FFFFFF" transform="translate(235.253893, 238.036529) rotate(-3.000000) translate(-235.253893, -238.036529) " points="189.28836 180.692031 281.224714 238.032287 189.283072 295.381027"></polygon>
            </g>
        </g>
    </g>
</svg>