<?xml version="1.0" encoding="UTF-8"?>
<svg width="199px" height="288px" viewBox="0 0 199 288" version="1.1" xmlns="http://www.w3.org/2000/svg" xmlns:xlink="http://www.w3.org/1999/xlink">
    <!-- Generator: Sketch 63.1 (92452) - https://sketch.com -->
    <title>img_get_started_amazon_ppc_mob</title>
    <desc>Created with Sketch.</desc>
    <defs>
        <polygon id="path-1" points="0.031734205 0.0613492054 159.958715 0.0613492054 159.958715 202.695791 0.031734205 202.695791"></polygon>
        <linearGradient x1="50%" y1="0%" x2="59.0977972%" y2="91.7903857%" id="linearGradient-3">
            <stop stop-color="#FDE765" offset="0%"></stop>
            <stop stop-color="#F9CA35" offset="100%"></stop>
        </linearGradient>
        <polygon id="path-4" points="0.468306971 0.00486416269 54.5760058 0.00486416269 54.5760058 37.7358868 0.468306971 37.7358868"></polygon>
        <linearGradient x1="0%" y1="45.5723524%" x2="84.9775363%" y2="45.5723535%" id="linearGradient-6">
            <stop stop-color="#77B6F2" offset="0%"></stop>
            <stop stop-color="#427FE0" offset="100%"></stop>
        </linearGradient>
    </defs>
    <g id="Page-1" stroke="none" stroke-width="1" fill="none" fill-rule="evenodd">
        <g id="Mobile---Amazon-PPC" transform="translate(-73.000000, -7802.000000)">
            <g id="img_get_started_amazon_ppc_mob" transform="translate(188.534291, 7964.000000) rotate(21.000000) translate(-188.534291, -7964.000000) translate(82.034291, 7806.000000)">
                <g id="Group-3" transform="translate(0.247058, 0.761361)">
                    <mask id="mask-2" fill="white">
                        <use xlink:href="#path-1"></use>
                    </mask>
                    <g id="Clip-2"></g>
                    <path d="M159.865288,77.5436348 C158.264426,34.4829703 123.123742,0.0612506323 79.9895111,0.0612506323 C35.8268538,0.0612506323 0.0315385005,36.1251979 0.0315385005,80.6092576 C8.79713906,130.852942 32.8893306,137.007846 46.0318603,189.529554 C74.5684989,208.664561 72.373674,204.243558 118.326048,193.301946 C124.893888,144.961707 159.938677,115.802805 159.938677,80.6092576 C159.985646,79.5614258 159.945527,78.5441516 159.865288,77.5436348" id="Fill-1" fill="url(#linearGradient-3)" mask="url(#mask-2)"></path>
                </g>
                <g id="Group-6" transform="translate(52.302061, 214.647441)">
                    <mask id="mask-5" fill="white">
                        <use xlink:href="#path-4"></use>
                    </mask>
                    <g id="Clip-5"></g>
                    <path d="M0.468306971,0.00486416269 L0.468306971,24.2409197 C0.468306971,31.6893687 5.31319749,37.7363674 11.2888835,37.7363674 L43.7621716,37.7363674 C49.730152,37.7363674 54.5760058,31.6893687 54.5760058,24.2409197 L54.5760058,0.00486416269 L0.468306971,0.00486416269 Z" id="Fill-4" fill="#2454A0" mask="url(#mask-5)"></path>
                </g>
                <path d="M103.894498,88.1482511 C103.867187,88.1482511 103.838901,88.1482511 103.812565,88.1482511 L101.21411,88.1775327 C97.0569732,88.2234073 93.7133162,91.7723416 93.7611106,96.0894308 L93.8469454,103.91934 L103.984235,103.80807 C108.141372,103.763172 111.485029,100.213261 111.437235,95.8951959 C111.4148,93.7859421 110.596443,91.816264 109.134325,90.349254 C107.71805,88.9281186 105.859921,88.1482511 103.894498,88.1482511 L103.894498,88.1482511 Z M57.6548816,88.6567755 C57.6275705,88.6567755 57.6002594,88.6567755 57.5729483,88.6567755 L54.4555831,88.6909374 C50.2984459,88.736812 46.9547888,92.2867223 47.0016078,96.6038115 C47.0250174,98.7130654 47.8433745,100.682743 49.3054929,102.149753 C50.7412756,103.59041 52.6169619,104.378086 54.6272528,104.350756 L65.2844281,104.23363 L65.1985932,96.4037203 C65.1751837,94.2944665 64.3568266,92.3247884 62.8956836,90.8577785 C61.4784334,89.4366431 59.6203042,88.6567755 57.6548816,88.6567755 L57.6548816,88.6567755 Z M66.240316,191.361138 L65.3692875,112.019617 L54.7130876,112.136743 C50.5881385,112.173833 46.7255708,110.587745 43.7954816,107.648845 C40.8917281,104.734346 39.2667186,100.84184 39.220875,96.6887283 C39.127237,88.0789512 45.92282,80.9976755 54.3707237,80.9049504 L57.4871135,80.8707885 C61.6052348,80.8239378 65.4746303,82.419787 68.4047195,85.3596633 C71.3094484,88.273186 72.9334825,92.1647155 72.9793261,96.3188036 L73.0651609,104.147737 L86.0662125,104.005233 L85.9803777,96.1753236 C85.8857643,87.5645705 92.6813473,80.4842709 101.129251,80.3915457 L103.72673,80.3616918 C107.848753,80.3271261 111.715222,81.9112626 114.644336,84.8511388 C117.54809,87.7646616 119.173099,91.6571671 119.218943,95.8102792 C119.313556,104.421032 112.516998,111.501332 104.07007,111.594057 L93.9327802,111.705327 L94.801858,190.896536 L87.0201497,190.981453 L86.1520474,111.79122 L73.1500204,111.933724 L74.0210489,191.276221 L66.240316,191.361138 Z" id="Fill-7" fill="#FFFFFF"></path>
                <path d="M38.0990037,184.387702 L38.0990037,223.838337 C38.0990037,231.322234 44.2247463,237.387702 51.7659951,237.387702 L106.42227,237.387702 C113.970339,237.387702 120.099004,231.322234 120.099004,223.838337 L120.099004,184.387702 L38.0990037,184.387702 Z" id="Fill-9" fill="url(#linearGradient-6)"></path>
                <path d="M124.112573,195.945998 C124.112573,197.130359 123.264673,198.087814 122.2186,198.087814 L37.0045751,198.087814 C35.9594881,198.087814 35.1125733,197.130359 35.1125733,195.945998 L35.1125733,192.227509 C35.1125733,191.04633 35.9594881,190.087814 37.0045751,190.087814 L122.2186,190.087814 C123.264673,190.087814 124.112573,191.04633 124.112573,192.227509 L124.112573,195.945998 Z" id="Fill-11" fill="#2761BD"></path>
                <path d="M123.386719,208.00673 C123.386719,209.187597 122.538818,210.149039 121.492745,210.149039 L36.2787204,210.149039 C35.2336334,210.149039 34.3867186,209.187597 34.3867186,208.00673 L34.3867186,204.290287 C34.3867186,203.11048 35.2336334,202.149039 36.2787204,202.149039 L121.492745,202.149039 C122.538818,202.149039 123.386719,203.11048 123.386719,204.290287 L123.386719,208.00673 Z" id="Fill-13" fill="#2761BD"></path>
                <path d="M123.594444,219.710572 C123.594444,220.895247 122.749464,221.851895 121.700387,221.851895 L36.4825861,221.851895 C35.4404107,221.851895 34.5944443,220.895247 34.5944443,219.710572 L34.5944443,215.993218 C34.5944443,214.810665 35.4404107,213.851895 36.4825861,213.851895 L121.700387,213.851895 C122.749464,213.851895 123.594444,214.810665 123.594444,215.993218 L123.594444,219.710572 Z" id="Fill-15" fill="#2761BD"></path>
                <ellipse id="Oval-4" fill="#000000" opacity="0.05" transform="translate(124.788353, 274.970501) rotate(-21.000000) translate(-124.788353, -274.970501) " cx="124.788353" cy="274.970501" rx="90.2744382" ry="9.30086914"></ellipse>
            </g>
        </g>
    </g>
</svg>