<?xml version="1.0" encoding="UTF-8"?>
<svg width="197px" height="271px" viewBox="0 0 197 271" version="1.1" xmlns="http://www.w3.org/2000/svg" xmlns:xlink="http://www.w3.org/1999/xlink">
    <!-- Generator: Sketch 59.1 (86144) - https://sketch.com -->
    <title>img_leading_business_mob</title>
    <desc>Created with Sketch.</desc>
    <defs>
        <filter x="-11.4%" y="-107.5%" width="122.9%" height="315.0%" filterUnits="objectBoundingBox" id="filter-1">
            <feGaussianBlur stdDeviation="6.45" in="SourceGraphic"></feGaussianBlur>
        </filter>
    </defs>
    <g id="Page-1" stroke="none" stroke-width="1" fill="none" fill-rule="evenodd">
        <g id="SEO-Experts---Mobile" transform="translate(-89.000000, -2164.000000)">
            <g id="img_leading_business_mob" transform="translate(103.000000, 2164.000000)">
                <g id="img_leading_company" transform="translate(3.000000, 0.000000)">
                    <path d="M11.4832173,32.5750019 L11.4832173,38.5751174 C11.4832173,73.925586 42.6680962,102.685415 80.9997693,102.685415 C119.330981,102.685415 150.516783,73.925586 150.516783,38.5751174 L150.516783,32.5750019 L11.4832173,32.5750019 Z M80.9997693,114.205729 C36.3364572,114.205729 0,80.2778873 0,38.5751174 L0,21.0546875 L162,21.0546875 L162,38.5751174 C162,80.2778873 125.663543,114.205729 80.9997693,114.205729 L80.9997693,114.205729 Z" id="Fill-1" fill="#F4CD0C"></path>
                    <polygon id="Fill-4" fill="#F4CD0C" points="17.2204724 12.7604167 144.779528 12.7604167 144.779528 0 17.2204724 0"></polygon>
                    <polygon id="Fill-6" fill="#427FE0" points="18.496063 245 144.141732 245 144.141732 236.705729 18.496063 236.705729"></polygon>
                    <path d="M120.720659,182.473958 L41.2793413,182.473958 C36.0306583,182.473958 31.5370848,185.69972 30.6141732,190.130208 L131.385827,190.130208 C130.463379,185.69972 125.969342,182.473958 120.720659,182.473958" id="Fill-7" fill="#427FE0"></path>
                    <path d="M136.730836,189.492188 L25.2691637,189.492188 C23.9941982,189.492188 22.9606299,190.529741 22.9606299,191.809622 L22.9606299,236.705729 L139.03937,236.705729 L139.03937,191.809622 C139.03937,190.529741 138.005802,189.492188 136.730836,189.492188" id="Fill-8" fill="#427FE0"></path>
                    <path d="M31.8897638,225.369983 L31.8897638,200.827934 C31.8897638,199.500585 32.98165,198.424479 34.3284639,198.424479 L128.309794,198.424479 C129.656608,198.424479 130.748031,199.500585 130.748031,200.827934 L130.748031,225.369983 C130.748031,226.697332 129.656608,227.773438 128.309794,227.773438 L34.3284639,227.773438 C32.98165,227.773438 31.8897638,226.697332 31.8897638,225.369983" id="Fill-9" fill="#E3E3E3"></path>
                    <path d="M86.6185825,109.101563 L81.0002295,109.101563 L75.3814175,109.101563 C74.2263579,131.606663 67.6250339,166.02761 42.7322835,174.817708 L81.0002295,174.817708 L119.267717,174.817708 C94.3749661,166.02761 87.7736421,131.606663 86.6185825,109.101563" id="Fill-10" fill="#F4CD0C"></path>
                    <path d="M88.6535433,125.598599 C87.9067244,125.663216 87.1478075,125.690104 86.3893559,125.690104 C84.9296856,125.690104 83.4760643,125.587757 82.0396593,125.376992 C82.0396593,125.376992 82.0284919,125.376992 82.0284919,125.366584 C79.3064417,124.972374 76.6137059,124.173547 73.984252,123.067245 C74.013101,122.878164 74.0419501,122.689082 74.0707992,122.5 C75.0032759,122.726811 75.9357526,122.910689 76.8798619,123.045562 C76.8798619,123.056403 76.8854456,123.056403 76.8854456,123.056403 C78.3218506,123.266735 79.7754719,123.369082 81.2346769,123.369082 C83.5630768,123.369082 85.8682113,123.099337 88.143566,122.565051 C88.3003747,123.569006 88.4683508,124.578165 88.6535433,125.598599" id="Fill-11" fill="#F4CD0C"></path>
                    <path d="M88.4504022,125.170765 C88.3421103,124.513638 88.2393247,123.862532 88.1360803,123.21652 C88.0736748,122.784456 88.0108104,122.35795 87.9474871,121.931443 C87.7194317,121.988866 87.4909173,122.046752 87.262403,122.093062 C85.2406477,122.559857 83.196408,122.790014 81.1342727,122.790014 C79.6952748,122.790014 78.2617833,122.680724 76.8452698,122.456125 C76.8452698,122.456125 76.8397634,122.456125 76.8397634,122.444548 C75.9087281,122.300526 74.9891644,122.104176 74.0696007,121.861979 C74.0411511,122.063887 74.0127015,122.265795 73.984252,122.467702 C76.5772931,123.649047 79.2327398,124.502061 81.9170949,124.923011 C81.9170949,124.934125 81.9281076,124.934125 81.9281076,124.934125 C83.3446212,125.159187 84.7781127,125.268477 86.2175694,125.268477 C86.6626676,125.268477 87.1082247,125.257363 87.5537817,125.234208 C89.5241443,144.08155 95.5325111,164.658073 110.735138,174.179688 L119.267717,174.179688 C100.118399,167.372713 91.7973571,145.303647 88.4504022,125.170765" id="Fill-12" fill="#BE8217"></path>
                    <path d="M22.9606299,7.01822917 C23.0473967,71.8838623 49.1411181,124.414063 81.3186669,124.414063 C113.496216,124.414063 139.589937,71.8838623 139.677165,7.01822917 L22.9606299,7.01822917 Z" id="Fill-13" fill="#F4CD0C"></path>
                    <path d="M22.9606299,7.01822917 C23.0473967,71.8838623 49.1411181,124.414063 81.3186669,124.414063 C113.496216,124.414063 139.589937,71.8838623 139.677165,7.01822917 L22.9606299,7.01822917 Z" id="Fill-14" fill="#F4CD0C"></path>
                    <path d="M76.5354331,123.87371 C76.4196665,143.159685 70.1770361,165.078567 55.2330045,176.415382 L44.6456693,176.731771 C64.6345396,168.903664 73.4927561,144.994741 76.0908157,123.776042 C76.2065823,123.793466 76.5239025,123.867749 76.5354331,123.87371" id="Fill-15" fill="#FAED1D"></path>
                    <path d="M35.7165354,200.976348 C35.7165354,201.681274 35.1453114,202.252604 34.4409449,202.252604 C33.7361489,202.252604 33.1653543,201.681274 33.1653543,200.976348 C33.1653543,200.271421 33.7361489,199.700521 34.4409449,199.700521 C35.1453114,199.700521 35.7165354,200.271421 35.7165354,200.976348" id="Fill-16" fill="#427FE0"></path>
                    <path d="M35.7165354,224.583119 C35.7165354,225.288045 35.1453114,225.859375 34.4409449,225.859375 C33.7361489,225.859375 33.1653543,225.288045 33.1653543,224.583119 C33.1653543,223.878622 33.7361489,223.307292 34.4409449,223.307292 C35.1453114,223.307292 35.7165354,223.878622 35.7165354,224.583119" id="Fill-17" fill="#427FE0"></path>
                    <path d="M126.283465,200.976348 C126.283465,201.681274 126.854689,202.252604 127.559485,202.252604 C128.263851,202.252604 128.834646,201.681274 128.834646,200.976348 C128.834646,200.271421 128.263851,199.700521 127.559485,199.700521 C126.854689,199.700521 126.283465,200.271421 126.283465,200.976348" id="Fill-18" fill="#427FE0"></path>
                    <path d="M126.283465,224.583119 C126.283465,225.288045 126.854689,225.859375 127.559485,225.859375 C128.263851,225.859375 128.834646,225.288045 128.834646,224.583119 C128.834646,223.878622 128.263851,223.307292 127.559485,223.307292 C126.854689,223.307292 126.283465,223.878622 126.283465,224.583119" id="Fill-19" fill="#427FE0"></path>
                    <polygon id="Fill-20" fill="#E39C22" points="42.7322835 181.197917 119.267717 181.197917 119.267717 173.541667 42.7322835 173.541667"></polygon>
                    <polygon id="Fill-21" fill="#BE8217" points="111.614173 181.197917 119.905512 181.197917 119.905512 173.541667 111.614173 173.541667"></polygon>
                    <polygon id="Fill-22" fill="#FAED1D" points="50.3858268 181.197917 58.0393701 181.197917 58.0393701 173.541667 50.3858268 173.541667"></polygon>
                    <path d="M72.0433523,120.861853 C68.7126275,118.551302 65.7784504,115.763295 63.1953831,112.734019 C60.2910389,109.327122 57.8176648,105.609163 55.6696984,101.747922 C53.2555311,97.4096871 51.2470907,92.8801003 49.537897,88.2631573 C47.6441984,83.1479597 46.1172147,77.9181358 44.8715778,72.6365453 C43.5153298,66.8853567 42.4936688,61.0685354 41.7427986,55.2253685 C40.939147,48.9699168 40.4471342,42.6821109 40.2226993,36.3887585 C39.9867902,29.7543006 40.03131,23.1055144 40.3837968,16.4793761 C40.4553956,15.1315929 40.5297483,13.7824231 40.6394415,12.436951 C40.6394415,12.436951 39.4305219,12.3801001 38.7429891,12.3482081 L38.7429891,0 L28.7007874,0 L28.7007874,14.3532435 L32.5813548,14.3532435 C32.5767652,14.4946775 32.5689627,14.637036 32.564832,14.77847 C32.5602423,14.8801546 32.5551937,14.9869234 32.5565706,15.088608 C32.5258198,15.9922144 32.5014946,16.8911987 32.4886435,17.790183 C32.4725796,18.6300053 32.4624823,19.4652057 32.4578927,20.300406 C32.4523851,20.4233519 32.4523851,20.5462979 32.4583516,20.6646218 C32.2724699,73.0973614 49.8293412,119.894463 77.1732283,123.776042 C75.4617398,122.941304 73.5942023,121.937861 72.0433523,120.861853" id="Fill-23" fill="#FAED1D"></path>
                    <path d="M128.880973,0 L128.880973,12.9308547 L125.938534,12.9308547 C123.803552,67.7122833 105.300532,112.457749 81,124.408502 C81.1434663,124.414063 81.2919908,124.414063 81.4409751,124.414063 C81.692501,124.414063 81.938509,124.408502 82.1904948,124.402477 C112.889534,123.618396 137.854058,74.5697513 139.502081,12.9308547 L144.779528,12.9308547 L144.779528,0 L128.880973,0 Z" id="Fill-24" fill="#BE8217"></path>
                    <path d="M82.2561322,37.6722132 L86.6810874,50.4133493 C86.8172973,50.805966 87.183478,51.0716009 87.5981718,51.0800041 L101.074087,51.3549758 C102.014029,51.3741165 102.402134,52.5701736 101.652979,53.1387909 L90.9124568,61.2880387 C90.581728,61.5392014 90.4422528,61.9691657 90.5621361,62.3669177 L94.465109,75.2779854 C94.7375288,76.1789964 93.7210859,76.9180122 92.9490744,76.3806735 L81.8857532,68.6758622 C81.5452285,68.438238 81.093217,68.438238 80.7522258,68.6758622 L69.6889046,76.3806735 C68.9168931,76.9180122 67.9004502,76.1789964 68.17287,75.2779854 L72.0758429,62.3669177 C72.1961927,61.9691657 72.056251,61.5392014 71.7259887,61.2880387 L60.9849998,53.1387909 C60.235379,52.5701736 60.6239503,51.3741165 61.5643583,51.3549758 L75.0398072,51.0800041 C75.454501,51.0716009 75.8206817,50.805966 75.9568916,50.4133493 L80.3818469,37.6722132 C80.6911179,36.7828734 81.9473276,36.7828734 82.2561322,37.6722132" id="Fill-25" fill="#E58B0A"></path>
                </g>
                <ellipse id="Oval-4" fill="#000000" opacity="0.05" filter="url(#filter-1)" cx="84.5" cy="245" rx="84.5" ry="9"></ellipse>
            </g>
        </g>
    </g>
</svg>