<?xml version="1.0" encoding="UTF-8"?>
<svg width="261px" height="315px" viewBox="0 0 261 315" version="1.1" xmlns="http://www.w3.org/2000/svg" xmlns:xlink="http://www.w3.org/1999/xlink">
    <!-- Generator: Sketch 59.1 (86144) - https://sketch.com -->
    <title>img_no_1_lge_mob</title>
    <desc>Created with Sketch.</desc>
    <defs>
        <linearGradient x1="70.8074396%" y1="91.6492809%" x2="25.2852006%" y2="6.51189631%" id="linearGradient-1">
            <stop stop-color="#DA3E3F" offset="0%"></stop>
            <stop stop-color="#FF5254" offset="100%"></stop>
        </linearGradient>
    </defs>
    <g id="Page-1" stroke="none" stroke-width="1" fill="none" fill-rule="evenodd">
        <g id="SEO-Experts---Mobile" transform="translate(-58.000000, -5928.000000)">
            <g id="img_no_1_lge_mob" transform="translate(58.000000, 5928.000000)">
                <circle id="Oval-2" fill="url(#linearGradient-1)" cx="130.5" cy="130.5" r="130.5"></circle>
                <ellipse id="Oval-4" fill="#000000" opacity="0.05" cx="126" cy="305" rx="101" ry="10"></ellipse>
                <path d="M130.978947,162.410151 L154.263158,162.410151 L154.263158,101.412209 C154.263158,98.4245392 154.346315,95.2985989 154.512632,92.0342936 L140.791579,103.403978 C139.904557,104.123232 139.017548,104.635001 138.130526,104.9393 C137.243504,105.2436 136.384211,105.395748 135.552632,105.395748 C134.111221,105.395748 132.822286,105.077621 131.685789,104.441358 C130.549293,103.805095 129.703862,103.127347 129.149474,102.408093 L121,91.6193416 L158.753684,60 L180.042105,60 L180.042105,162.410151 L200,162.410151 L200,181 L130.978947,181 L130.978947,162.410151 Z" id="1" fill="#FFFFFF" fill-rule="nonzero"></path>
                <path d="M79.7887324,99 L76.0299296,120.308854 L84.943662,120.308854 L88.7024648,99 L96.1126761,99 C97.6878013,99 98.9675714,99.4337637 99.9520246,100.301304 C100.936478,101.168844 101.428697,102.289401 101.428697,103.663006 L101.428697,104.069664 C101.428697,104.164551 101.418629,104.274687 101.398493,104.400073 L98.5827465,120.308854 L109,120.308854 L107.711268,127.1407 C107.389083,128.839633 106.682077,130.077667 105.590229,130.854839 C104.498381,131.63201 102.771139,132.02059 100.408451,132.02059 L97.0255282,132.02059 L94.7702465,144.816747 L100.623239,144.816747 C101.983575,144.816747 103.039609,145.151106 103.791373,145.819835 C104.543138,146.488564 104.919014,147.618157 104.919014,149.208648 C104.919014,149.533976 104.901115,149.877372 104.865317,150.238847 C104.841451,150.47983 104.809631,150.728844 104.769855,150.985891 L103.84507,156.582704 L93.2130282,156.582704 L89.4542254,178 L81.721831,178 C81.0416633,178 80.406253,177.855412 79.815581,177.566232 C79.224909,177.277052 78.7147909,176.888472 78.2852113,176.40048 C77.8556317,175.912489 77.5155529,175.334137 77.2649648,174.665408 C77.0143767,173.996679 76.8890845,173.282777 76.8890845,172.523679 C76.8890845,172.342941 76.8980339,172.144133 76.9159331,171.927248 C76.9278659,171.782658 76.943776,171.646102 76.9636639,171.517578 L79.5739437,156.582704 L70.7139085,156.582704 L68.0827465,172.144132 C67.903755,173.19241 67.5815751,174.087047 67.1161972,174.828071 C66.6508193,175.569095 66.078055,176.174557 65.3978873,176.644475 C64.7177196,177.114393 63.974916,177.457789 63.1694542,177.674674 C62.3639925,177.891559 61.5316944,178 60.6725352,178 L53.2623239,178 L57.0211268,156.582704 L52.2957746,156.582704 C50.9354392,156.582704 49.8794052,156.248345 49.1276408,155.579616 C48.3758765,154.910887 48,153.781294 48,152.190803 C48,151.865475 48.0178989,151.522079 48.0536972,151.160604 C48.0894955,150.799129 48.1431921,150.419586 48.2147887,150.021963 L49.0739437,144.816747 L58.5783451,144.816747 L60.8336268,132.02059 L50.1478873,132.02059 L51.4366197,125.188744 C51.7588044,123.525958 52.4658103,122.296961 53.5576585,121.501716 C54.6495066,120.706471 56.3767488,120.308854 58.7394366,120.308854 L62.3908451,120.308854 L65.1830986,104.4221 C65.469485,102.723167 66.2749347,101.394766 67.5994718,100.436857 C68.924009,99.4789474 70.4454139,99 72.1637324,99 L79.7887324,99 Z M83.3864437,132.02059 L74.4727113,132.02059 L72.2174296,144.816747 L81.131162,144.816747 L83.3864437,132.02059 Z" id="#" fill="#FFFFFF" fill-rule="nonzero"></path>
            </g>
        </g>
    </g>
</svg>