<?xml version="1.0" encoding="UTF-8"?>
<svg width="335px" height="269px" viewBox="0 0 335 269" version="1.1" xmlns="http://www.w3.org/2000/svg" xmlns:xlink="http://www.w3.org/1999/xlink">
    <!-- Generator: Sketch 63.1 (92452) - https://sketch.com -->
    <title>img_building_amazon_backlinks_mob</title>
    <desc>Created with Sketch.</desc>
    <defs>
        <filter x="-9.4%" y="-13.6%" width="118.7%" height="127.2%" filterUnits="objectBoundingBox" id="filter-1">
            <feOffset dx="0" dy="5" in="SourceAlpha" result="shadowOffsetOuter1"></feOffset>
            <feGaussianBlur stdDeviation="5" in="shadowOffsetOuter1" result="shadowBlurOuter1"></feGaussianBlur>
            <feColorMatrix values="0 0 0 0 0   0 0 0 0 0   0 0 0 0 0  0 0 0 0.25 0" type="matrix" in="shadowBlurOuter1" result="shadowMatrixOuter1"></feColorMatrix>
            <feMerge>
                <feMergeNode in="shadowMatrixOuter1"></feMergeNode>
                <feMergeNode in="SourceGraphic"></feMergeNode>
            </feMerge>
        </filter>
        <linearGradient x1="0%" y1="30.6975002%" x2="100%" y2="69.3024998%" id="linearGradient-2">
            <stop stop-color="#ADDBFF" offset="0%"></stop>
            <stop stop-color="#AAD9FF" offset="0.0642956149%"></stop>
            <stop stop-color="#74B5FF" offset="100%"></stop>
        </linearGradient>
        <linearGradient x1="0%" y1="30.6975002%" x2="100%" y2="69.3024998%" id="linearGradient-3">
            <stop stop-color="#ADDBFF" offset="0%"></stop>
            <stop stop-color="#74B5FF" offset="100%"></stop>
        </linearGradient>
        <filter x="-11.4%" y="-11.4%" width="122.9%" height="122.8%" filterUnits="objectBoundingBox" id="filter-4">
            <feOffset dx="0" dy="2" in="SourceAlpha" result="shadowOffsetOuter1"></feOffset>
            <feGaussianBlur stdDeviation="4.5" in="shadowOffsetOuter1" result="shadowBlurOuter1"></feGaussianBlur>
            <feColorMatrix values="0 0 0 0 0   0 0 0 0 0   0 0 0 0 0  0 0 0 0.3 0" type="matrix" in="shadowBlurOuter1" result="shadowMatrixOuter1"></feColorMatrix>
            <feMerge>
                <feMergeNode in="shadowMatrixOuter1"></feMergeNode>
                <feMergeNode in="SourceGraphic"></feMergeNode>
            </feMerge>
        </filter>
        <polygon id="path-5" points="22.8367997 15.0567151 15.3670554 22.5156091 0.429256799 7.59950871 7.8990011 0.140614755"></polygon>
        <linearGradient x1="16.6709495%" y1="16.7676846%" x2="83.3336043%" y2="83.2368154%" id="linearGradient-7">
            <stop stop-color="#C5C6C8" offset="0%"></stop>
            <stop stop-color="#F1F1F2" offset="100%"></stop>
        </linearGradient>
        <polygon id="path-8" points="0.447846661 15.2957952 52.7276068 67.5013028 67.6654055 52.5852024 15.3856453 0.379694828"></polygon>
        <linearGradient x1="74.1460738%" y1="99.8573552%" x2="24.1234557%" y2="8.34817131%" id="linearGradient-10">
            <stop stop-color="#427FDF" offset="0%"></stop>
            <stop stop-color="#396BB1" offset="100%"></stop>
        </linearGradient>
        <linearGradient x1="50%" y1="0%" x2="50%" y2="100%" id="linearGradient-11">
            <stop stop-color="#DA3E3F" offset="0%"></stop>
            <stop stop-color="#FF5254" offset="100%"></stop>
        </linearGradient>
        <linearGradient x1="50%" y1="0%" x2="50%" y2="100%" id="linearGradient-12">
            <stop stop-color="#DA3E3F" offset="0%"></stop>
            <stop stop-color="#FF5254" offset="100%"></stop>
        </linearGradient>
        <linearGradient x1="14.6447917%" y1="14.7475446%" x2="85.3554053%" y2="85.2521836%" id="linearGradient-13">
            <stop stop-color="#FEFEFE" offset="0%"></stop>
            <stop stop-color="#C5C6C8" offset="100%"></stop>
        </linearGradient>
        <path d="M109.093757,19.1861203 C134.0498,44.1059137 134.0498,84.5105061 109.093757,109.4303 C84.1377126,134.350093 43.6743443,134.350093 18.7183004,109.4303 C-6.23943348,84.5105061 -6.23943348,44.1059137 18.7183004,19.1861203 C43.6743443,-5.73367316 84.1377126,-5.73367316 109.093757,19.1861203" id="path-14"></path>
        <linearGradient x1="165.997457%" y1="218.761962%" x2="30.915411%" y2="3.2702309%" id="linearGradient-16">
            <stop stop-color="#427FDF" offset="0%"></stop>
            <stop stop-color="#396BB1" offset="100%"></stop>
        </linearGradient>
    </defs>
    <g id="Page-1" stroke="none" stroke-width="1" fill="none" fill-rule="evenodd">
        <g id="Mobile---Amazon-Backlinks" transform="translate(-21.000000, -4982.000000)">
            <g id="img_building_amazon_backlinks_mob" transform="translate(31.000000, 4987.000000)">
                <g id="img_analyse_website">
                    <g id="img_blogs" filter="url(#filter-1)">
                        <rect id="Rectangle" fill="#FFFFFF" x="0" y="0" width="313.853965" height="216.845745" rx="13"></rect>
                        <path d="M13,0 L301.410443,0 C308.590145,-3.09524665e-15 314.410443,5.82029825 314.410443,13 L314.410443,36.7913089 L314.410443,36.7913089 L0,36.7913089 L0,13 C-2.65561672e-15,5.82029825 5.82029825,-4.57467025e-16 13,0 Z" id="Rectangle-2" fill="#FF5254"></path>
                        <polygon id="Fill-5" fill="#E9ECED" points="0 56.3018514 313.853965 56.3018514 313.853965 36.7913089 0 36.7913089"></polygon>
                        <path d="M55.6478661,20.0687558 C55.6478661,22.8391409 53.4059131,25.0849833 50.6403259,25.0849833 C47.8747387,25.0849833 45.6312502,22.8391409 45.6312502,20.0687558 C45.6312502,17.2983707 47.8747387,15.05099 50.6403259,15.05099 C53.4059131,15.05099 55.6478661,17.2983707 55.6478661,20.0687558" id="Fill-6" fill="#FFFFFF"></path>
                        <path d="M41.1794209,20.0687558 C41.1794209,22.8391409 38.9359324,25.0849833 36.1703452,25.0849833 C33.404758,25.0849833 31.162805,22.8391409 31.162805,20.0687558 C31.162805,17.2983707 33.404758,15.05099 36.1703452,15.05099 C38.9359324,15.05099 41.1794209,17.2983707 41.1794209,20.0687558" id="Fill-7" fill="#FFFFFF"></path>
                        <path d="M27.2674544,20.0687558 C27.2674544,22.8391409 25.0255014,25.0849833 22.2583786,25.0849833 C19.4927915,25.0849833 17.2508385,22.8391409 17.2508385,20.0687558 C17.2508385,17.2983707 19.4927915,15.05099 22.2583786,15.05099 C25.0255014,15.05099 27.2674544,17.2983707 27.2674544,20.0687558" id="Fill-8" fill="#FFFFFF"></path>
                        <path d="M68.164482,16.1658781 L265.166236,16.1658781 C266.546948,16.1658781 267.666236,17.2851663 267.666236,18.6658781 L267.666236,19.2403189 C267.666236,20.6210308 266.546948,21.7403189 265.166236,21.7403189 L68.164482,21.7403189 C66.7837701,21.7403189 65.664482,20.6210308 65.664482,19.2403189 L65.664482,18.6658781 C65.664482,17.2851663 66.7837701,16.1658781 68.164482,16.1658781 Z" id="Rectangle-3" fill="#FFFFFF"></path>
                        <polygon id="Fill-10" fill="#FFFFFF" points="286.863134 12.8212137 287.979798 16.2279722 291.594818 16.2279722 288.669836 18.3335604 289.788116 21.7403189 286.863134 19.6347306 283.939767 21.7403189 285.056432 18.3335604 282.134681 16.2279722 285.748085 16.2279722"></polygon>
                        <g id="Group-7" transform="translate(123.538263, 82.501723)" fill="#DADFE1">
                            <polygon id="Fill-16" points="0 39.0210852 89.5014091 39.0210852 89.5014091 32.1923953 0 32.1923953"></polygon>
                            <polygon id="Fill-17" points="0 22.437124 127.034258 22.437124 127.034258 15.6084341 0 15.6084341"></polygon>
                            <polygon id="Fill-18" points="0 6.8286899 163.604726 6.8286899 163.604726 0 0 0"></polygon>
                        </g>
                        <g id="Group-7-Copy" transform="translate(123.538263, 149.395012)" fill="#DADFE1">
                            <polygon id="Fill-16" points="0 39.0210852 89.5014091 39.0210852 89.5014091 32.1923953 0 32.1923953"></polygon>
                            <polygon id="Fill-17" points="0 22.437124 127.034258 22.437124 127.034258 15.6084341 0 15.6084341"></polygon>
                            <polygon id="Fill-18" points="0 6.8286899 163.604726 6.8286899 163.604726 0 0 0"></polygon>
                        </g>
                        <rect id="Rectangle-4" fill="url(#linearGradient-2)" x="20.0332318" y="74.6975059" width="87.9236284" height="54.6295192"></rect>
                        <rect id="Rectangle-4-Copy" fill="url(#linearGradient-3)" x="20.0332318" y="141.033351" width="87.9236284" height="54.6295192"></rect>
                    </g>
                    <g id="Group" filter="url(#filter-4)" transform="translate(126.168998, 65.526596)">
                        <g id="Group-3" transform="translate(109.849181, 110.838840)">
                            <mask id="mask-6" fill="white">
                                <use xlink:href="#path-5"></use>
                            </mask>
                            <g id="Clip-2"></g>
                            <polygon id="Fill-1" fill="url(#linearGradient-7)" mask="url(#mask-6)" points="22.8367997 15.0567151 15.3670554 22.5156091 0.429256799 7.59950871 7.8990011 0.140614755"></polygon>
                        </g>
                        <g id="Group-6" transform="translate(119.989105, 120.444825)">
                            <mask id="mask-9" fill="white">
                                <use xlink:href="#path-8"></use>
                            </mask>
                            <g id="Clip-5"></g>
                            <polygon id="Fill-4" fill="url(#linearGradient-10)" mask="url(#mask-9)" points="0.447846661 15.2957952 52.7276068 67.5013028 67.6654055 52.5852024 15.3856453 0.379694828"></polygon>
                        </g>
                        <polygon id="Fill-7" fill="url(#linearGradient-11)" points="138.660424 124.106095 123.722625 139.022196 120.43729 135.741632 135.375089 120.825532"></polygon>
                        <polygon id="Fill-8" fill="url(#linearGradient-12)" points="169.432053 184.664045 172.717388 187.946296 187.655187 173.030196 184.369851 169.747945"></polygon>
                        <g id="Group-18" transform="translate(0.000000, 0.067501)">
                            <g id="SEO-AUDIT" transform="translate(5.069962, 5.062598)">
                                <mask id="mask-15" fill="white">
                                    <use xlink:href="#path-14"></use>
                                </mask>
                                <use id="Mask" fill-opacity="0.3" fill="url(#linearGradient-13)" style="mix-blend-mode: multiply;" xlink:href="#path-14"></use>
                            </g>
                            <path d="M68.9756527,10.6203737 C53.2604599,10.6203737 38.4849,16.7326167 27.3732329,27.8281433 C16.2598758,38.92367 10.1404314,53.6777672 10.1404314,69.3701326 C10.1404314,85.0641855 16.2598758,99.8165952 27.3715429,110.913809 C50.3114319,133.818689 87.6381835,133.818689 110.579762,110.913809 C133.517961,88.0055548 133.517961,50.7347104 110.579762,27.8281433 C99.4664053,16.7326167 84.6908455,10.6203737 68.9756527,10.6203737 M68.9756527,138.213024 C51.3119044,138.213024 33.6498461,131.500019 20.2026164,118.072323 C7.1745035,105.063134 0.000506996219,87.7676127 0.000506996219,69.3701326 C0.000506996219,50.9726525 7.1745035,33.6771312 20.2026164,20.6679426 C33.2307292,7.6604416 50.5514101,0.495178307 68.9756527,0.495178307 C87.3998953,0.495178307 104.720576,7.6604416 117.748689,20.6696302 C144.641459,47.523336 144.641459,91.2186168 117.748689,118.072323 C104.301459,131.500019 86.639401,138.213024 68.9756527,138.213024" id="Fill-12" fill="url(#linearGradient-16)"></path>
                        </g>
                    </g>
                </g>
                <g id="link" transform="translate(159.000000, 99.000000)" fill="#FF5254" fill-rule="nonzero">
                    <path d="M67.3803344,5.68032118 C59.8874231,-1.89344039 47.6971955,-1.89344039 40.2041419,5.68032118 L29.0386953,16.9662457 C27.0903022,18.9356624 25.5115816,21.448312 24.4940574,24.5159882 C24.4769824,24.5217413 24.4604766,24.5305147 24.4434017,24.5362677 C22.1291779,31.5732687 23.8843396,39.2255596 29.0386953,44.435532 C30.5787128,45.9921666 32.3906487,47.2739487 34.3531286,48.2201835 L35.0778176,47.4876749 C37.5841344,44.9543143 37.5841344,40.8646068 35.0778176,38.3311023 C30.9108204,34.1191422 30.9108204,27.282204 35.0778176,23.0703877 L46.2432642,11.7844632 C50.4102614,7.57250309 57.1740726,7.57250309 61.3410698,11.7844632 C65.508067,15.9964233 65.508067,22.8332177 61.3410698,27.0451778 L52.8630767,35.6146505 C53.9935802,39.1477494 54.2330562,42.8891091 53.6859466,46.5306532 C54.5788238,45.9015559 55.4379779,45.2206811 56.2147455,44.435532 L67.3801921,33.1496075 C74.8732456,25.575846 74.8732456,13.2539389 67.3803344,5.68032118 Z" id="Path"></path>
                    <path d="M43.9644392,28.5342284 C42.4252841,26.9775491 40.6146471,25.6955864 38.6229749,24.7798165 L37.9286983,25.4819978 C35.423927,28.0152873 35.4237848,32.1052561 37.9286983,34.6388333 C42.0933624,38.8509144 42.0933624,45.6880489 37.9286983,49.8999861 C34.4035595,53.4652606 30.102799,57.8157067 26.7417722,61.2150007 C22.5771081,65.4270817 15.817084,65.4270817 11.65242,61.2150007 C7.48775594,57.0029197 7.48775594,50.165929 11.65242,45.9538479 L20.1533974,37.3553631 C19.0235269,33.8221628 18.7843272,30.0805519 19.3311304,26.4389032 C18.438611,27.0683062 17.5799379,27.7490568 16.8034631,28.5342284 L5.6165369,39.849243 C-1.87217897,47.423222 -1.87217897,59.745339 5.6165369,67.3194618 C13.1052528,74.8935846 25.288655,74.8934408 32.7775131,67.3194618 L43.9644392,56.0044472 C45.9117414,54.03483 47.4895781,51.5222521 48.5065326,48.4544879 C48.523598,48.4487347 48.5400945,48.439961 48.5571599,48.4342078 C50.8700879,41.396861 49.1159089,33.7443504 43.9644392,28.5342284 Z" id="Path"></path>
                    <path d="M62.3217956,58.6009174 L59.2706961,55.5498626 C58.4274419,54.7066207 57.0627071,54.7066207 56.2195966,55.5498626 C55.3763424,56.3931045 55.3763424,57.7578193 56.2195966,58.6009174 L59.2706961,61.6519722 C60.1139504,62.4952141 61.4786851,62.4952141 62.3217956,61.6519722 C63.1649061,60.8087303 63.1649061,59.4441593 62.3217956,58.6009174 Z" id="Path"></path>
                    <path d="M16.780425,13.7293578 L13.7292859,10.678303 C12.8860605,9.83506108 11.5213723,9.83506108 10.6782906,10.678303 C9.8350652,11.5215449 9.8350652,12.8862597 10.6782906,13.7293578 L13.7292859,16.7804126 C14.5725114,17.6236545 15.9371995,17.6236545 16.780425,16.7804126 C17.6236504,15.9371707 17.6236504,14.5724559 16.780425,13.7293578 Z" id="Path"></path>
                    <path d="M70.1461559,43.3674493 L66.1972635,42.2657156 C65.1062889,41.9616473 63.9857585,42.634425 63.6936061,43.7698968 C63.4013175,44.9123147 64.0552213,46.0738698 65.1388411,46.3758117 L69.0877334,47.4774037 C70.178708,47.781472 71.2992384,47.1086943 71.5913908,45.9732225 C71.8805467,44.8377506 71.2369943,43.6657056 70.1461559,43.3674493 Z" id="Path"></path>
                    <path d="M7.8615662,26.62433 L3.91281998,25.5225963 C2.82188571,25.218528 1.7013968,25.8913057 1.40925522,27.0267775 C1.11684126,28.1689119 1.77072084,29.3306088 2.85443669,29.6325507 L6.8031829,30.7342844 C7.89411717,31.0383527 9.01460608,30.365575 9.30674766,29.2301032 C9.59739107,28.0932138 8.94827837,26.9208852 7.8615662,26.62433 Z" id="Path"></path>
                    <path d="M47.4773919,69.0875547 L46.3757728,65.1393122 C46.0702794,64.0442956 44.9054353,63.4022108 43.7699356,63.6943151 C42.6344358,63.9864194 41.9616416,65.1067654 42.2657174,66.1975605 L43.3674782,70.145803 C43.6694276,71.2293806 44.8311529,71.8830406 45.9733154,71.5908001 C47.1088152,71.2986958 47.7814676,70.1783498 47.4773919,69.0875547 Z" id="Path"></path>
                    <path d="M30.734285,6.80295549 L29.6325512,2.85414667 C29.3299004,1.75897295 28.1622497,1.11965626 27.0267777,1.4089423 C25.8913058,1.7010885 25.218528,2.82159518 25.5225963,3.91254674 L26.6243302,7.86135556 C26.7241269,8.21983053 26.918192,8.53036356 27.1736378,8.77592981 C27.6936017,9.27550663 28.4691531,9.50132407 29.2299619,9.30655993 C30.3655756,9.01454993 31.0383533,7.89390705 30.734285,6.80295549 Z" id="Path"></path>
                </g>
            </g>
        </g>
    </g>
</svg>