<?xml version="1.0" encoding="UTF-8"?>
<svg width="328px" height="496px" viewBox="0 0 328 496" version="1.1" xmlns="http://www.w3.org/2000/svg" xmlns:xlink="http://www.w3.org/1999/xlink">
    <!-- Generator: Sketch 59.1 (86144) - https://sketch.com -->
    <title>img_leading_company</title>
    <desc>Created with Sketch.</desc>
    <g id="Page-1" stroke="none" stroke-width="1" fill="none" fill-rule="evenodd">
        <g id="Video-SEO" transform="translate(-264.000000, -3402.000000)">
            <g id="img_leading_company" transform="translate(264.000000, 3402.000000)">
                <path d="M23.2499708,64.2506161 L23.2499708,76.3602146 C23.2499708,147.705505 86.3897256,205.749384 163.999533,205.749384 C241.608406,205.749384 304.750029,147.705505 304.750029,76.3602146 L304.750029,64.2506161 L23.2499708,64.2506161 Z M163.999533,229 C73.5701109,229 0,160.525894 0,76.3602146 L0,41 L328,41 L328,76.3602146 C328,160.525894 254.429889,229 163.999533,229 L163.999533,229 Z" id="Fill-1" fill="#F4CD0C"></path>
                <polygon id="Fill-4" fill="#F4CD0C" points="36 26 293 26 293 0 36 0"></polygon>
                <polygon id="Fill-6" fill="#427FE0" points="38 496 292 496 292 478 38 478"></polygon>
                <path d="M244.515495,368 L84.4845052,368 C73.9112675,368 64.8591642,374.741184 63,384 L266,384 C264.14177,374.741184 255.088732,368 244.515495,368" id="Fill-7" fill="#427FE0"></path>
                <path d="M277.326401,384 L51.6735987,384 C49.0924465,384 47,386.087697 47,388.662989 L47,479 L282,479 L282,388.662989 C282,386.087697 279.907553,384 277.326401,384" id="Fill-8" fill="#427FE0"></path>
                <path d="M64,458.08646 L64,407.91354 C64,405.199953 66.2089932,403 68.9337302,403 L259.067206,403 C261.791943,403 264,405.199953 264,407.91354 L264,458.08646 C264,460.800047 261.791943,463 259.067206,463 L68.9337302,463 C66.2089932,463 64,460.800047 64,458.08646" id="Fill-9" fill="#E3E3E3"></path>
                <path d="M176.025609,219 L164.500471,219 L152.974391,219 C150.604974,264.547078 137.063431,334.210108 86,352 L164.500471,352 L243,352 C191.936569,334.210108 178.395026,264.547078 176.025609,219" id="Fill-10" fill="#F4CD0C"></path>
                <path d="M179,251.827896 C177.5236,251.949429 176.023282,252 174.523885,252 C171.638235,252 168.764544,251.807504 165.924887,251.411093 C165.924887,251.411093 165.90281,251.411093 165.90281,251.391517 C160.521538,250.650082 155.198217,249.147635 150,247.066884 C150.057032,246.711256 150.114065,246.355628 150.171097,246 C152.014528,246.426591 153.857959,246.772431 155.724386,247.026101 C155.724386,247.046493 155.735425,247.046493 155.735425,247.046493 C158.575081,247.442088 161.448772,247.634584 164.333503,247.634584 C168.93656,247.634584 173.493624,247.127243 177.991816,246.122349 C178.301814,248.010604 178.633889,249.908646 179,251.827896" id="Fill-11" fill="#F4CD0C"></path>
                <path d="M179.390106,253.640628 C179.170095,252.321797 178.961271,251.015048 178.751515,249.718522 C178.624729,248.851383 178.497011,247.995397 178.36836,247.139411 C177.905032,247.254658 177.440772,247.370834 176.976511,247.463775 C172.869019,248.40062 168.715846,248.862536 164.526316,248.862536 C161.602781,248.862536 158.690432,248.643195 155.812577,248.192432 C155.812577,248.192432 155.80139,248.192432 155.80139,248.169197 C153.909856,247.88015 152.041627,247.486081 150.173398,247 C150.115599,247.405222 150.057799,247.810445 150,248.215667 C155.268143,250.58659 160.663073,252.298562 166.116734,253.143395 C166.116734,253.1657 166.139108,253.1657 166.139108,253.1657 C169.016963,253.617393 171.929311,253.836734 174.853779,253.836734 C175.758061,253.836734 176.663275,253.814428 177.56849,253.767958 C181.57157,291.593981 193.778449,332.890418 224.664816,352 L242,352 C203.095353,338.338615 186.189936,294.046692 179.390106,253.640628" id="Fill-12" fill="#BE8217"></path>
                <path d="M45,14 C45.1769286,145.503992 98.3853764,252 163.999529,252 C229.613682,252 282.82213,145.503992 283,14 L45,14 Z" id="Fill-13" fill="#F4CD0C"></path>
                <path d="M45,14 C45.1769286,145.503992 98.3853764,252 163.999529,252 C229.613682,252 282.82213,145.503992 283,14 L45,14 Z" id="Fill-14" fill="#F4CD0C"></path>
                <path d="M156,251.199188 C155.767667,290.531765 143.239247,335.233996 113.247867,358.354744 L92,359 C132.115935,343.035051 149.89361,294.274251 155.107691,251 C155.340025,251.035536 155.976859,251.187031 156,251.199188" id="Fill-15" fill="#FAED1D"></path>
                <path d="M73,406.999495 C73,408.656792 71.6565657,410 70,410 C68.3424242,410 67,408.656792 67,406.999495 C67,405.342198 68.3424242,404 70,404 C71.6565657,404 73,405.342198 73,406.999495" id="Fill-16" fill="#427FE0"></path>
                <path d="M73,454.999495 C73,456.656792 71.6565657,458 70,458 C68.3424242,458 67,456.656792 67,454.999495 C67,453.343208 68.3424242,452 70,452 C71.6565657,452 73,453.343208 73,454.999495" id="Fill-17" fill="#427FE0"></path>
                <path d="M255,406.999495 C255,408.656792 256.343434,410 258.00101,410 C259.657576,410 261,408.656792 261,406.999495 C261,405.342198 259.657576,404 258.00101,404 C256.343434,404 255,405.342198 255,406.999495" id="Fill-18" fill="#427FE0"></path>
                <path d="M255,454.999495 C255,456.656792 256.343434,458 258.00101,458 C259.657576,458 261,456.656792 261,454.999495 C261,453.343208 259.657576,452 258.00101,452 C256.343434,452 255,453.343208 255,454.999495" id="Fill-19" fill="#427FE0"></path>
                <polygon id="Fill-20" fill="#E39C22" points="86 369 243 369 243 353 86 353"></polygon>
                <polygon id="Fill-21" fill="#BE8217" points="226 369 243 369 243 353 226 353"></polygon>
                <polygon id="Fill-22" fill="#FAED1D" points="102 369 118 369 118 353 102 353"></polygon>
                <path d="M146.522753,245.090446 C139.720089,240.40498 133.727332,234.751303 128.451682,228.608366 C122.519856,221.699671 117.468242,214.160185 113.081241,206.330143 C108.150551,197.532827 104.048517,188.347477 100.557664,178.984981 C96.6899784,168.612097 93.5712703,158.006766 91.0271844,147.296461 C88.2571867,135.633878 86.1705488,123.838201 84.6369731,111.9891 C82.9955971,99.303944 81.9907113,86.5531785 81.5323259,73.7911657 C81.0505056,60.3374397 81.1414328,46.854658 81.861351,33.4178031 C82.0075844,30.6846928 82.1594421,27.9487707 82.3834792,25.2203468 C82.3834792,25.2203468 79.9143847,25.1050613 78.5101693,25.040389 L78.5101693,0 L58,0 L58,29.1063123 L65.9256619,29.1063123 C65.9162879,29.3931201 65.9003522,29.6818026 65.8919157,29.9686104 C65.8825418,30.1748122 65.8722304,30.391324 65.8750426,30.5975257 C65.8122372,32.4299093 65.7625554,34.2529201 65.7363084,36.0759309 C65.7034996,37.7789698 65.6828769,39.4726359 65.673503,41.166302 C65.6622543,41.4156186 65.6622543,41.6649352 65.6744404,41.9048791 C65.294796,148.23093 101.152909,243.128717 157,251 C153.50446,249.307271 149.690206,247.272435 146.522753,245.090446" id="Fill-23" fill="#FAED1D"></path>
                <path d="M260.594428,0 L260.594428,26.1913751 L254.596937,26.1913751 C250.245265,137.150858 212.531084,227.782552 163,251.988737 C163.292423,252 163.595157,252 163.898827,252 C164.411505,252 164.912936,251.988737 165.426552,251.976534 C227.999531,250.388382 278.884011,151.040622 282.243131,26.1913751 L293,26.1913751 L293,0 L260.594428,0 Z" id="Fill-24" fill="#BE8217"></path>
                <path d="M166.376427,78.3489395 L175.235583,104.116398 C175.508287,104.91042 176.241413,105.447635 177.071667,105.46463 L204.051653,106.020728 C205.9335,106.059438 206.71052,108.478323 205.210646,109.628286 L183.707162,126.109187 C183.045013,126.617134 182.765771,127.486687 183.005789,128.291094 L190.819889,154.402219 C191.365297,156.224409 189.330288,157.718982 187.784652,156.632277 L165.634895,141.050197 C164.953135,140.56963 164.048167,140.56963 163.365472,141.050197 L141.215716,156.632277 C139.67008,157.718982 137.63507,156.224409 138.180479,154.402219 L145.994579,128.291094 C146.23553,127.486687 145.955355,126.617134 145.29414,126.109187 L123.789721,109.628286 C122.288914,108.478323 123.066868,106.059438 124.949649,106.020728 L151.9287,105.46463 C152.758954,105.447635 153.492081,104.91042 153.764785,104.116398 L162.623941,78.3489395 C163.243129,76.5503535 165.758173,76.5503535 166.376427,78.3489395" id="Fill-25" fill="#E58B0A"></path>
            </g>
        </g>
    </g>
</svg>