<?xml version="1.0" encoding="UTF-8"?>
<svg width="270px" height="278px" viewBox="0 0 270 278" version="1.1" xmlns="http://www.w3.org/2000/svg" xmlns:xlink="http://www.w3.org/1999/xlink">
    <!-- Generator: Sketch 59.1 (86144) - https://sketch.com -->
    <title>img_pay_mob</title>
    <desc>Created with Sketch.</desc>
    <defs>
        <filter x="-8.7%" y="-158.5%" width="117.4%" height="416.9%" filterUnits="objectBoundingBox" id="filter-1">
            <feGaussianBlur stdDeviation="2.64107143" in="SourceGraphic"></feGaussianBlur>
        </filter>
        <filter x="-8.7%" y="-79.2%" width="117.4%" height="258.5%" filterUnits="objectBoundingBox" id="filter-2">
            <feGaussianBlur stdDeviation="2.11285714" in="SourceGraphic"></feGaussianBlur>
        </filter>
        <filter x="-8.6%" y="-198.1%" width="117.2%" height="496.2%" filterUnits="objectBoundingBox" id="filter-3">
            <feGaussianBlur stdDeviation="3.30133929" in="SourceGraphic"></feGaussianBlur>
        </filter>
        <linearGradient x1="82.1038844%" y1="3.36130428%" x2="34.9639716%" y2="105.628734%" id="linearGradient-4">
            <stop stop-color="#FACF00" offset="0%"></stop>
            <stop stop-color="#F2A100" offset="100%"></stop>
        </linearGradient>
        <linearGradient x1="50%" y1="0%" x2="50%" y2="100%" id="linearGradient-5">
            <stop stop-color="#FFF400" offset="0%"></stop>
            <stop stop-color="#FFE600" offset="100%"></stop>
        </linearGradient>
        <linearGradient x1="50%" y1="0%" x2="62.8381681%" y2="91.7903857%" id="linearGradient-6">
            <stop stop-color="#FCE141" offset="0%"></stop>
            <stop stop-color="#EFBE23" offset="100%"></stop>
        </linearGradient>
        <path d="M11.0854644,13.2715669 C1.27078887,24.083747 -2.65003092,36.5377705 2.3296964,41.0883116 L2.3296964,41.0883116 C7.30774025,45.6388527 19.0584153,40.3383338 28.8730908,29.5244645 L28.8730908,29.5244645 C38.6877664,18.7122843 42.84764,6.47784892 37.8712797,1.92899699 L37.8712797,1.92899699 C36.63224,0.795584574 34.9588631,0.26012744 32.992561,0.26012744 L32.992561,0.26012744 C27.0583018,0.26012744 18.4574137,5.14680721 11.0854644,13.2715669 L11.0854644,13.2715669 Z" id="path-7"></path>
        <path d="M11.0854644,13.2715669 C1.27078887,24.083747 -2.65003092,36.5377705 2.3296964,41.0883116 L2.3296964,41.0883116 C7.30774025,45.6388527 19.0584153,40.3383338 28.8730908,29.5244645 L28.8730908,29.5244645 C38.6877664,18.7122843 42.84764,6.47784892 37.8712797,1.92899699 L37.8712797,1.92899699 C36.63224,0.795584574 34.9588631,0.26012744 32.992561,0.26012744 L32.992561,0.26012744 C27.0583018,0.26012744 18.4574137,5.14680721 11.0854644,13.2715669 L11.0854644,13.2715669 Z" id="path-9"></path>
        <linearGradient x1="0%" y1="41.429305%" x2="91.3469267%" y2="61.4268052%" id="linearGradient-11">
            <stop stop-color="#FACF00" offset="0%"></stop>
            <stop stop-color="#F2A100" offset="100%"></stop>
        </linearGradient>
        <linearGradient x1="50%" y1="41.9993613%" x2="64.6055751%" y2="56.6869955%" id="linearGradient-12">
            <stop stop-color="#FDE765" offset="0%"></stop>
            <stop stop-color="#F9CA35" offset="100%"></stop>
        </linearGradient>
        <linearGradient x1="16.8145502%" y1="42.0141488%" x2="64.6055751%" y2="56.674636%" id="linearGradient-13">
            <stop stop-color="#FCE141" offset="0%"></stop>
            <stop stop-color="#EFBE23" offset="100%"></stop>
        </linearGradient>
        <path d="M0.174607948,2.25162258 C-0.758038751,5.16538774 8.34284222,10.5469853 20.4436806,14.4455186 L20.4436806,14.4455186 C32.544519,18.344052 43.0662553,19.2832134 43.998902,16.3711373 L43.998902,16.3711373 C44.9315487,13.4573722 35.8778051,7.93388693 23.7735997,4.0353536 L23.7735997,4.0353536 C16.586833,1.71785459 9.94046265,0.496606931 5.53311778,0.496606931 L5.53311778,0.496606931 C2.51969252,0.496606931 0.553390453,1.06753599 0.174607948,2.25162258 L0.174607948,2.25162258 Z" id="path-14"></path>
        <path d="M0.174607948,2.25162258 C-0.758038751,5.16538774 8.34284222,10.5469853 20.4436806,14.4455186 L20.4436806,14.4455186 C32.544519,18.344052 43.0662553,19.2832134 43.998902,16.3711373 L43.998902,16.3711373 C44.9315487,13.4573722 35.8778051,7.93388693 23.7735997,4.0353536 L23.7735997,4.0353536 C16.586833,1.71785459 9.94046265,0.496606931 5.53311778,0.496606931 L5.53311778,0.496606931 C2.51969252,0.496606931 0.553390453,1.06753599 0.174607948,2.25162258 L0.174607948,2.25162258 Z" id="path-16"></path>
        <linearGradient x1="0%" y1="42.918699%" x2="91.3469267%" y2="59.4410835%" id="linearGradient-18">
            <stop stop-color="#FACF00" offset="0%"></stop>
            <stop stop-color="#F2A100" offset="100%"></stop>
        </linearGradient>
        <polygon id="path-19" points="0 0.453131448 60.0429117 0.453131448 60.0429117 21.4146112 0 21.4146112"></polygon>
        <linearGradient x1="50%" y1="43.9062503%" x2="64.6055751%" y2="55.093203%" id="linearGradient-21">
            <stop stop-color="#FDE765" offset="0%"></stop>
            <stop stop-color="#F9CA35" offset="100%"></stop>
        </linearGradient>
        <linearGradient x1="12.7339944%" y1="50%" x2="113.113027%" y2="51.9194904%" id="linearGradient-22">
            <stop stop-color="#FCE141" offset="0%"></stop>
            <stop stop-color="#EFBE23" offset="100%"></stop>
        </linearGradient>
        <path d="M21.2839729,2.52821503 C8.96764936,5.6750814 -0.407638498,10.6310159 0.344876077,13.5971444 L0.344876077,13.5971444 C1.09739065,16.5632728 11.6561634,16.2710517 23.972487,13.1241854 L23.972487,13.1241854 C36.2888105,9.977319 45.7011349,5.16496136 44.9503038,2.20052202 L44.9503038,2.20052202 C44.5883561,0.774888518 41.9537133,0.0671391842 37.9470362,0.0688253072 L37.9470362,0.0688253072 C33.6154478,0.0688253072 27.6811886,0.893128264 21.2839729,2.52821503 L21.2839729,2.52821503 Z" id="path-23"></path>
        <path d="M21.2839729,2.52821503 C8.96764936,5.6750814 -0.407638498,10.6310159 0.344876077,13.5971444 L0.344876077,13.5971444 C1.09739065,16.5632728 11.6561634,16.2710517 23.972487,13.1241854 L23.972487,13.1241854 C36.2888105,9.977319 45.7011349,5.16496136 44.9503038,2.20052202 L44.9503038,2.20052202 C44.5883561,0.774888518 41.9537133,0.0671391842 37.9470362,0.0688253072 L37.9470362,0.0688253072 C33.6154478,0.0688253072 27.6811886,0.893128264 21.2839729,2.52821503 L21.2839729,2.52821503 Z" id="path-25"></path>
        <linearGradient x1="19.2593657%" y1="6.13729298%" x2="67.9034713%" y2="99.1268582%" id="linearGradient-27">
            <stop stop-color="#FDE765" offset="0%"></stop>
            <stop stop-color="#F9CA35" offset="100%"></stop>
        </linearGradient>
        <linearGradient x1="50%" y1="1.16552381%" x2="64.6055751%" y2="90.8162319%" id="linearGradient-28">
            <stop stop-color="#FCE141" offset="0%"></stop>
            <stop stop-color="#EFBE23" offset="100%"></stop>
        </linearGradient>
        <path d="M0.247234365,31.3386804 C0.247234365,48.5628331 14.1662288,61.6925123 31.3326519,61.6925123 L31.3326519,61.6925123 C48.5007585,61.6925123 62.4180694,48.5628331 62.4180694,31.3386804 L62.4180694,31.3386804 C62.4180694,14.1128386 48.5007585,0.147035548 31.3326519,0.147035548 L31.3326519,0.147035548 C14.1662288,0.147035548 0.247234365,14.1128386 0.247234365,31.3386804 L0.247234365,31.3386804 Z" id="path-29"></path>
        <path d="M0.0420869449,31.2503384 C0.0420869449,48.474491 13.9610814,61.6041702 31.1275045,61.6041702 L31.1275045,61.6041702 C48.2956111,61.6041702 62.212922,48.474491 62.212922,31.2503384 L62.212922,31.2503384 C62.212922,14.0244966 48.2956111,0.0586934881 31.1275045,0.0586934881 L31.1275045,0.0586934881 C13.9610814,0.0586934881 0.0420869449,14.0244966 0.0420869449,31.2503384 L0.0420869449,31.2503384 Z" id="path-31"></path>
        <linearGradient x1="0%" y1="37.0425377%" x2="91.3469267%" y2="67.2754248%" id="linearGradient-33">
            <stop stop-color="#FACF00" offset="0%"></stop>
            <stop stop-color="#F2A100" offset="100%"></stop>
        </linearGradient>
        <linearGradient x1="0%" y1="35.9703402%" x2="91.2186557%" y2="64.0296598%" id="linearGradient-34">
            <stop stop-color="#DB8F00" offset="0%"></stop>
            <stop stop-color="#C98300" offset="100%"></stop>
        </linearGradient>
    </defs>
    <g id="Page-1" stroke="none" stroke-width="1" fill="none" fill-rule="evenodd">
        <g id="Bing-Ads---Mobile" transform="translate(-54.000000, -4809.000000)">
            <g id="img_pay_mob" transform="translate(58.000000, 4809.000000)">
                <ellipse id="Oval-4-Copy" fill="#000000" opacity="0.1" filter="url(#filter-1)" cx="215.5" cy="265.5" rx="45.5" ry="2.5"></ellipse>
                <ellipse id="Oval-4-Copy-3" fill-opacity="0.6" fill="#000000" opacity="0.1" filter="url(#filter-2)" cx="36.5" cy="269" rx="36.5" ry="4"></ellipse>
                <ellipse id="Oval-4-Copy-2" fill="#000000" opacity="0.1" filter="url(#filter-3)" cx="122.5" cy="254.5" rx="57.5" ry="2.5"></ellipse>
                <g id="Group-17">
                    <g id="Group-5" transform="translate(190.869583, 133.648114)">
                        <path d="M49.0519291,4.11339183 C41.0655104,3.88873632 29.267698,10.4865141 19.2055512,21.5723348 C9.14508792,32.6581556 3.69903724,45.0598157 4.66703697,53.0173506 L2.98355918,54.8720255 L11.8773724,63.0001634 C18.5052245,69.0557275 34.1851367,62.2451182 47.5738356,47.4921762 C60.9625345,32.7409234 66.2587557,16.4407299 59.6292201,10.3851658 L50.7354069,2.25702783 L49.0519291,4.11339183 Z" id="Fill-21" fill="url(#linearGradient-4)"></path>
                        <path d="M46.4560063,10.3206406 C51.4811876,14.9117211 47.2809105,27.2593288 37.3753271,38.1745464 C27.4697437,49.0880749 15.6096427,54.4375789 10.582778,49.8448093 C5.55928021,45.2537289 9.51545303,32.6831548 19.4193529,21.7679372 C29.3266198,10.8544086 41.4308251,5.7278711 46.4560063,10.3206406" id="Fill-23" fill="#FFC30D"></path>
                        <path d="M38.6796857,39.3650518 C25.2909868,54.1163046 9.61107457,60.9286031 2.98322248,54.873039 C-3.69513394,48.7701789 1.58088548,32.003783 14.7456819,17.4974554 C27.9121617,2.99112774 44.0550303,-3.8448187 50.7350702,2.25804131 C57.3629223,8.31360543 52.0667011,24.6137989 38.6796857,39.3650518" id="Fill-25" fill="url(#linearGradient-5)"></path>
                        <path d="M16.4328633,19.0384571 C5.0895899,31.5363982 0.542516371,45.983606 6.29664348,51.2418964 C11.9750141,56.4275538 25.4563043,50.534147 36.9931776,37.8250635 C48.5283675,25.1142909 53.1192115,11.0944353 47.4425243,5.90708878 C41.6867137,0.648798375 27.7761367,6.53882684 16.4328633,19.0384571" id="Fill-27" fill="#F0A700"></path>
                        <path d="M16.9409369,19.5019569 C5.87712082,31.6924747 1.44115682,45.7832741 7.0538718,50.9098116 C12.5908303,55.9687836 25.7421588,50.2223319 36.9928409,37.82405 C48.2452065,25.4274573 52.721574,11.7538753 47.1846155,6.69490331 C41.5719006,1.56667663 28.0030695,7.31143912 16.9409369,19.5019569" id="Fill-29" fill="url(#linearGradient-6)"></path>
                        <g id="Group-34" opacity="0.326004464" style="mix-blend-mode: multiply;" transform="translate(6.733911, 7.033576)">
                            <mask id="mask-8" fill="white">
                                <use xlink:href="#path-7"></use>
                            </mask>
                            <g id="Clip-33"></g>
                            <polygon id="Fill-32" fill="#FFDD00" mask="url(#mask-8)" points="9.1728653 47.1692128 4.67461262 49.0745618 22.1019748 -6.29542188 26.6002275 -8.19908179"></polygon>
                        </g>
                        <g id="Group-37" opacity="0.326004464" style="mix-blend-mode: multiply;" transform="translate(6.733911, 7.033576)">
                            <mask id="mask-10" fill="white">
                                <use xlink:href="#path-9"></use>
                            </mask>
                            <g id="Clip-36"></g>
                            <polygon id="Fill-35" fill="#FFDD00" mask="url(#mask-10)" points="21.2218526 46.0697521 10.6647633 50.5409036 29.4759442 -9.23604436 40.0364005 -3.21088475"></polygon>
                        </g>
                    </g>
                    <g id="Group-4" transform="translate(158.246913, 8.445696)">
                        <path d="M60.8201808,87.8798731 C57.3320148,83.8664783 47.2968037,78.5828508 34.8895723,74.5846582 C22.4840244,70.5881548 11.256911,69.0206336 6.09200111,70.2486379 L4.01627298,69.5797387 L0.507905251,80.5405631 C-0.732817885,84.4188268 11.2249249,91.6230056 27.7347917,96.942105 C44.242975,102.261204 58.1468181,103.389549 59.3875412,99.5095966 L62.8959089,88.5487722 L60.8201808,87.8798731 Z" id="Fill-39" fill="url(#linearGradient-11)"></path>
                        <path d="M55.2601587,87.1606376 C54.3190946,90.101429 43.7014001,89.1538219 31.4860852,85.2181275 C19.2724538,81.2824331 10.087399,75.8518505 11.0301465,72.90937 C11.9695271,69.9685786 22.634359,70.7759871 34.8496739,74.7099924 C47.0633053,78.6456868 56.2029063,84.2198462 55.2601587,87.1606376" id="Fill-41" fill="#FFC30D"></path>
                        <path d="M31.242486,85.9812806 C14.7326192,80.6621812 2.77487645,73.4580024 4.01559959,69.5797387 C5.26474012,65.6710706 19.491811,66.7453631 35.7239039,71.9749381 C51.9576803,77.2062023 64.147743,84.640104 62.896919,88.5487722 C61.6545124,92.4270359 47.7506693,91.2986909 31.242486,85.9812806" id="Fill-43" fill="url(#linearGradient-12)"></path>
                        <path d="M35.4085885,72.96224 C21.4205715,68.4556166 9.16485313,67.5299683 8.08742734,70.8964228 C7.02346937,74.2189596 17.3330874,80.411344 31.5584748,84.9939787 C45.7821787,89.5766134 57.7567563,90.5647599 58.8207142,87.242223 C59.8998235,83.8740794 49.3966055,77.4671743 35.4085885,72.96224" id="Fill-45" fill="#F0A700"></path>
                        <path d="M35.3131353,73.2591907 C21.6702313,68.8640504 9.71753889,67.960361 8.66704874,71.2457367 C7.63002642,74.4855058 17.6837558,80.5241785 31.5589798,84.9936409 C45.4325204,89.4647924 57.1108058,90.4276018 58.1478282,87.1878327 C59.1983183,83.9024569 48.9560394,77.654331 35.3131353,73.2591907" id="Fill-47" fill="url(#linearGradient-13)"></path>
                        <g id="Group-52" opacity="0.401841518" style="mix-blend-mode: multiply;" transform="translate(11.374050, 69.737842)">
                            <mask id="mask-15" fill="white">
                                <use xlink:href="#path-14"></use>
                            </mask>
                            <g id="Clip-51"></g>
                            <polygon id="Fill-50" fill="#FFDD00" mask="url(#mask-15)" points="-0.985813297 6.23968029 -4.38307149 4.1687956 42.5943764 7.71936625 45.9882677 9.79025093"></polygon>
                        </g>
                        <g id="Group-55" opacity="0.401841518" style="mix-blend-mode: multiply;" transform="translate(11.374050, 69.737842)">
                            <mask id="mask-17" fill="white">
                                <use xlink:href="#path-16"></use>
                            </mask>
                            <g id="Clip-54"></g>
                            <polygon id="Fill-53" fill="#FFDD00" mask="url(#mask-17)" points="5.29103367 12.1624781 -2.6802337 7.29944624 48.0345349 11.1337923 56.0058023 15.995135"></polygon>
                        </g>
                        <path d="M28.3031338,42.4959115 C27.8469113,42.4959115 27.4799131,41.3641882 27.4799131,39.9689592 L27.4799131,2.63053673 C27.4799131,1.23530773 27.8469113,0.103584452 28.3031338,0.103584452 C28.7593563,0.103584452 29.1280379,1.23530773 29.1280379,2.63053673 L29.1280379,39.9689592 C29.1280379,41.3641882 28.7593563,42.4959115 28.3031338,42.4959115" id="Fill-93" fill="#EFF1F4"></path>
                        <path d="M37.4322972,38.3463721 C36.9760747,38.3463721 36.6073931,37.6335554 36.6073931,36.7535138 L36.6073931,14.9011197 C36.6073931,14.0210782 36.9760747,13.3065723 37.4322972,13.3065723 C37.8885197,13.3065723 38.2572013,14.0210782 38.2572013,14.9011197 L38.2572013,36.7535138 C38.2572013,37.6335554 37.8885197,38.3463721 37.4322972,38.3463721" id="Fill-95" fill="#EFF1F4"></path>
                    </g>
                    <g id="Group-14" transform="translate(0.000000, 39.694772)">
                        <path d="M57.8724112,71.9007849 C52.7916752,70.3586008 41.4921722,71.2318858 28.8644053,74.4581417 C16.2366383,77.6843976 5.89671768,82.3413545 2.16949784,86.133472 L0.0567332018,86.6723074 L2.88834286,97.8307611 C3.89001215,101.77659 17.8376257,101.506328 34.6404176,97.2125362 C51.441526,92.9187443 63.8201383,86.4645433 62.818469,82.5170249 L59.9851758,71.3602604 L57.8724112,71.9007849 Z" id="Fill-97" fill="url(#linearGradient-18)"></path>
                        <path d="M52.7825844,74.2546004 C53.5418329,77.246066 44.0436512,82.1023413 31.6111676,85.2796121 C19.1803676,88.456883 8.52226965,88.7507932 7.76302117,85.7576385 C7.00377268,82.7627947 16.4649179,77.7612535 28.8974014,74.5856717 C41.3282015,71.4084009 52.0216525,71.2614457 52.7825844,74.2546004" id="Fill-99" fill="#FFC30D"></path>
                        <g id="Group-103" transform="translate(0.000000, 68.048703)">
                            <mask id="mask-20" fill="white">
                                <use xlink:href="#path-19"></use>
                            </mask>
                            <g id="Clip-102"></g>
                            <path d="M31.8081345,18.00842 C15.0053427,22.3005228 1.0577291,22.570785 0.0560598107,18.6232667 C-0.95234339,14.6453438 11.6686897,7.97493301 28.1903408,3.75377409 C44.7136753,-0.467384823 58.9760992,-0.666703251 59.9861859,3.31121962 C60.9878552,7.26042712 48.6109264,13.7146281 31.8081345,18.00842" id="Fill-101" fill="url(#linearGradient-21)" mask="url(#mask-20)"></path>
                        </g>
                        <path d="M28.4452193,72.8063325 C14.2080476,76.4430492 3.33446447,82.19119 4.20482249,85.6184535 C5.06171269,89.0001102 17.0750103,88.7501176 31.5529193,85.0525918 C46.0308284,81.3533769 56.7007107,75.8062437 55.842137,72.424587 C54.971779,68.9973235 42.682391,69.1679266 28.4452193,72.8063325" id="Fill-104" fill="#F0A700"></path>
                        <path d="M28.5216492,73.1081817 C14.6363243,76.6570632 4.03041419,82.2616271 4.878887,85.6044336 C5.71557547,88.9033225 17.4325809,88.6600865 31.5535927,85.0520851 C45.672921,81.4457729 56.0801807,76.0337708 55.2418088,72.736571 C54.393336,69.3937645 42.4069741,69.5593001 28.5216492,73.1081817" id="Fill-106" fill="url(#linearGradient-22)"></path>
                        <g id="Group-111" opacity="0.398549107" style="mix-blend-mode: multiply;" transform="translate(7.370503, 71.103093)">
                            <mask id="mask-24" fill="white">
                                <use xlink:href="#path-23"></use>
                            </mask>
                            <g id="Clip-110"></g>
                            <polygon id="Fill-109" fill="#FFDD00" mask="url(#mask-24)" points="1.4731429 17.5949991 -2.4998647 17.6490515 39.1779951 -4.38239136 43.1510027 -4.43644381"></polygon>
                        </g>
                        <g id="Group-114" opacity="0.398549107" style="mix-blend-mode: multiply;" transform="translate(7.370503, 71.103093)">
                            <mask id="mask-26" fill="white">
                                <use xlink:href="#path-25"></use>
                            </mask>
                            <g id="Clip-113"></g>
                            <polygon id="Fill-112" fill="#FFDD00" mask="url(#mask-26)" points="9.92672666 19.2660645 0.598576181 19.3961282 45.5945708 -4.38864117 54.9227212 -4.51870489"></polygon>
                        </g>
                        <path d="M28.0260333,42.5503018 C27.5698108,42.5503018 27.2011292,41.4185785 27.2011292,40.0233495 L27.2011292,2.68492701 C27.2011292,1.28969801 27.5698108,0.157974735 28.0260333,0.157974735 C28.4822558,0.157974735 28.8509374,1.28969801 28.8509374,2.68492701 L28.8509374,40.0233495 C28.8509374,41.4185785 28.4822558,42.5503018 28.0260333,42.5503018" id="Fill-116" fill="#EFF1F4"></path>
                        <path d="M37.1553651,38.3999178 C36.6991426,38.3999178 36.330461,37.6871011 36.330461,36.8070595 L36.330461,14.9529763 C36.330461,14.0746239 36.6991426,13.3618071 37.1553651,13.3618071 C37.6115876,13.3618071 37.9802692,14.0746239 37.9802692,14.9529763 L37.9802692,36.8070595 C37.9802692,37.6871011 37.6115876,38.3999178 37.1553651,38.3999178" id="Fill-118" fill="#EFF1F4"></path>
                    </g>
                    <g id="Group-8" transform="translate(77.439979, 0.000000)">
                        <path d="M73.4462643,157.172587 C73.4462643,174.558897 59.3976421,187.810194 42.0696051,187.810194 C24.7432516,187.810194 10.6963129,174.558897 10.6963129,157.172587 C10.6963129,139.786277 24.7432516,125.69041 42.0696051,125.69041 C59.3976421,125.69041 73.4462643,139.786277 73.4462643,157.172587" id="Fill-1" fill="#FFC30D"></path>
                        <path d="M42.0701102,192.31952 C18.649567,192.31952 0.304709481,174.357214 0.304709481,151.427149 C0.304709481,128.319724 19.0401339,109.519605 42.0701102,109.519605 C65.1000864,109.519605 83.8371943,128.319724 83.8371943,151.427149 C83.8371943,174.357214 65.4906533,192.31952 42.0701102,192.31952" id="Fill-3" fill="url(#linearGradient-27)"></path>
                        <path d="M42.0701102,115.353216 C22.2269574,115.353216 6.08408876,131.552061 6.08408876,151.461945 C6.08408876,171.101567 21.8902618,186.486247 42.0701102,186.486247 C62.2499585,186.486247 78.057815,171.101567 78.057815,151.461945 C78.057815,131.552061 61.9149464,115.353216 42.0701102,115.353216" id="Fill-5" fill="#F0A700"></path>
                        <path d="M42.0701102,117.109921 C22.7168494,117.109921 6.97128156,132.90844 6.97128156,152.326784 C6.97128156,171.479934 22.3885712,186.486247 42.0701102,186.486247 C61.7516491,186.486247 77.1706222,171.479934 77.1706222,152.326784 C77.1706222,132.90844 61.4250544,117.109921 42.0701102,117.109921" id="Fill-7" fill="url(#linearGradient-28)"></path>
                        <g id="Group-12" opacity="0.445145089" style="mix-blend-mode: multiply;" transform="translate(10.737458, 119.999788)">
                            <mask id="mask-30" fill="white">
                                <use xlink:href="#path-29"></use>
                            </mask>
                            <g id="Clip-11"></g>
                            <polygon id="Fill-10" fill="#FFDD00" mask="url(#mask-30)" points="0.395380411 54.7190699 -4.82340076 49.4810492 57.0494587 -12.5998847 62.2699234 -7.36355309"></polygon>
                        </g>
                        <g id="Group-15" opacity="0.445145089" style="mix-blend-mode: multiply;" transform="translate(10.942606, 120.088130)">
                            <mask id="mask-32" fill="white">
                                <use xlink:href="#path-31"></use>
                            </mask>
                            <g id="Clip-14"></g>
                            <polygon id="Fill-13" fill="#FFDD00" mask="url(#mask-32)" points="10.7005216 75.5321366 -1.55351331 63.2368922 65.2468857 -3.78646304 77.5009206 8.50709222"></polygon>
                        </g>
                        <path d="M24.5136253,85.1466769 C23.8974724,85.1466769 23.399163,83.619695 23.399163,81.7346157 L23.399163,3.45145839 C23.399163,1.56637902 23.8974724,0.0393971615 24.5136253,0.0393971615 C25.1280946,0.0393971615 25.6280876,1.56637902 25.6280876,3.45145839 L25.6280876,81.7346157 C25.6280876,83.619695 25.1280946,85.1466769 24.5136253,85.1466769" id="Fill-195" fill="#EFF1F4"></path>
                        <path d="M35.3262665,80.4206343 C34.7118041,80.4206343 34.2118041,79.4578249 34.2118041,78.27036 L34.2118041,53.5903468 C34.2118041,52.402882 34.7118041,51.4400726 35.3262665,51.4400726 C35.9424193,51.4400726 36.4407288,52.402882 36.4407288,53.5903468 L36.4407288,78.27036 C36.4407288,79.4578249 35.9424193,80.4206343 35.3262665,80.4206343" id="Fill-197" fill="#EFF1F4"></path>
                        <path d="M46.1399177,85.1466769 C45.5237649,85.1466769 45.0254554,84.1838675 45.0254554,82.9964027 L45.0254554,40.9875102 C45.0254554,39.8000453 45.5237649,38.837236 46.1399177,38.837236 C46.7543871,38.837236 47.25438,39.8000453 47.25438,40.9875102 L47.25438,82.9964027 C47.25438,84.1838675 46.7543871,85.1466769 46.1399177,85.1466769" id="Fill-199" fill="#EFF1F4"></path>
                    </g>
                    <g id="Group-9" transform="translate(16.629631, 182.633151)">
                        <path d="M1.69670875,10.732115 C3.80947338,14.2641051 10.6898471,19.2436875 19.5196882,23.3060673 C28.3495292,27.3701363 36.6002539,29.3514966 40.6456511,28.6538821 L42.1237446,29.3346052 L45.8981018,21.0747144 C47.3290579,17.9464286 39.2449975,11.2591264 27.4976895,5.85388089 C15.7486979,0.446946238 5.42392859,-1.33678478 3.99465594,1.7931902 L0.22029872,10.053081 L1.69670875,10.732115 Z" id="Fill-249" fill="url(#linearGradient-33)"></path>
                        <path d="M5.79025336,11.6673914 C6.87441306,9.29415074 14.7480387,10.7282299 23.4398346,14.7281116 C32.1333139,18.7279933 38.3537644,23.7785196 37.2696047,26.1517602 C36.185445,28.5233117 28.257948,27.2040939 19.5661522,23.2059014 C10.8743563,19.2060197 4.70441018,14.0389428 5.79025336,11.6673914" id="Fill-251" fill="#FFC30D"></path>
                        <path d="M23.7224905,14.1120825 C35.4714821,19.5190172 43.553859,26.2046302 42.1229028,29.3346052 C40.6818458,32.4882282 30.1096053,30.7281451 18.5575806,25.4124239 C7.00387251,20.0967028 -1.22160001,13.2067039 0.219456981,10.053081 C1.65041311,6.92310602 11.973499,8.70683704 23.7224905,14.1120825" id="Fill-253" fill="#F2A500"></path>
                        <path d="M18.9210435,24.6165015 C28.8754477,29.1974471 37.9847461,30.712605 39.2271527,27.99478 C40.4527245,25.314116 33.481443,19.5676644 23.358691,14.9090184 C13.2342555,10.2503725 4.34549272,8.70143179 3.11992088,11.3820957 C1.87751426,14.0982316 8.96663927,20.035556 18.9210435,24.6165015" id="Fill-255" fill="url(#linearGradient-34)"></path>
                    </g>
                </g>
            </g>
        </g>
    </g>
</svg>