<?xml version="1.0" encoding="UTF-8"?>
<svg width="312px" height="200px" viewBox="0 0 312 200" version="1.1" xmlns="http://www.w3.org/2000/svg" xmlns:xlink="http://www.w3.org/1999/xlink">
    <!-- Generator: Sketch 63.1 (92452) - https://sketch.com -->
    <title>img_hubspot_automation_mob</title>
    <desc>Created with Sketch.</desc>
    <defs>
        <polygon id="path-1" points="18.7671127 25.7220464 0.0101869634 25.7220464 0.0101869634 0.0463482157 18.7671127 0.0463482157"></polygon>
        <polygon id="path-3" points="0.171476648 0.00970643258 35.7105901 0.00970643258 35.7105901 37.801459 0.171476648 37.801459"></polygon>
    </defs>
    <g id="Page-1" stroke="none" stroke-width="1" fill="none" fill-rule="evenodd">
        <g id="Hubspot---Mobile" transform="translate(-32.000000, -3458.000000)">
            <g id="img_hubspot_automation_mob" transform="translate(32.000000, 3458.000000)">
                <g id="img_hubspot_automation">
                    <rect id="Rectangle" fill="#FF5254" x="0" y="86.8217054" width="45.0149254" height="63.5658915" rx="8"></rect>
                    <path d="M267.021325,34.1085271 C276.055912,34.1085271 283.283582,41.6904043 283.283582,50.4853819 L283.283582,183.623145 C283.283582,192.721398 275.754759,200 267.021325,200 L48.0831531,200 C39.0485656,200 31.8208955,192.721398 31.8208955,183.623145 L31.8208955,50.4853819 C31.8208955,41.6904043 39.0485656,34.1085271 48.0831531,34.1085271 L267.021325,34.1085271 Z" id="Path" fill="#FF5254"></path>
                    <rect id="Rectangle" fill="#FF5254" x="0" y="86.8217054" width="45.0149254" height="63.5658915" rx="8"></rect>
                    <rect id="Rectangle" fill="#336097" x="53.5522388" y="56.5891473" width="211.104478" height="121.705426"></rect>
                    <path d="M53.5522388,56.5891473 L198.932617,56.5891473 C204.675293,75.6801946 208,95.9644323 208,117.44186 C208,138.919289 204.675293,159.501824 198.932617,178.294574 L53.5522388,178.294574 L53.5522388,56.5891473 Z" id="Path" fill="#4A90E2"></path>
                    <path d="M109.044776,86.8217054 C125.875915,86.8217054 139.701493,100.330597 139.701493,117.44186 C139.701493,134.252926 125.875915,148.062016 109.044776,148.062016 C92.2136377,148.062016 78.3880597,134.252926 78.3880597,117.44186 C78.3880597,100.630795 92.2136377,86.8217054 109.044776,86.8217054 L109.044776,86.8217054 Z M209.940299,86.8217054 C226.771437,86.8217054 240.597015,100.330597 240.597015,117.44186 C240.597015,134.252926 227.071993,148.062016 209.940299,148.062016 C193.10916,148.062016 179.283582,134.252926 179.283582,117.44186 C179.283582,100.630795 193.10916,86.8217054 209.940299,86.8217054 L209.940299,86.8217054 Z" id="Shape" fill="#FEFEFE"></path>
                    <path d="M109.820896,93.7984496 C96.63669,93.7984496 86.1492537,104.101658 86.1492537,117.054264 C86.1492537,130.006869 96.63669,140.310078 109.820896,140.310078 C123.005101,140.310078 133.492537,130.006869 133.492537,117.054264 C133.492537,104.101658 123.005101,93.7984496 109.820896,93.7984496 L109.820896,93.7984496 Z M209.940299,93.7984496 C196.756093,93.7984496 186.268657,104.101658 186.268657,117.054264 C186.268657,130.006869 196.756093,140.310078 209.940299,140.310078 C223.124504,140.310078 233.61194,130.006869 233.61194,117.054264 C233.61194,104.101658 223.124504,93.7984496 209.940299,93.7984496 L209.940299,93.7984496 Z" id="Shape" fill="#242B2E"></path>
                    <path d="M103.671642,95.124031 C93.3847711,97.7862097 85.8208955,106.955936 85.8208955,117.604651 C85.8208955,128.549164 93.3847711,137.423093 103.671642,140.085271 C113.958513,137.423093 121.522388,128.253366 121.522388,117.604651 C121.522388,106.660139 113.958513,97.7862097 103.671642,95.124031 L103.671642,95.124031 Z M204.567164,140.085271 C214.854035,137.423093 222.41791,128.253366 222.41791,117.604651 C222.41791,106.660139 214.854035,97.7862097 204.567164,95.124031 C194.280293,97.7862097 186.716418,106.955936 186.716418,117.604651 C186.716418,128.549164 194.280293,137.71889 204.567164,140.085271 L204.567164,140.085271 Z" id="Shape" fill="#40494C"></path>
                    <polygon id="Rectangle" fill="#FF5254" transform="translate(159.492537, 22.480620) scale(1, -1) translate(-159.492537, -22.480620) " points="76.0597015 0 242.925373 0 242.925373 44.9612403 197.995336 44.9612403 76.0597015 44.9612403"></polygon>
                    <rect id="Rectangle" fill="#FF5254" x="266.985075" y="86.8217054" width="45.0149254" height="63.5658915" rx="8"></rect>
                    <g id="img_hubspot_logo" transform="translate(91.582090, 6.976744)">
                        <g id="Marketing/Logos/HubSpot-Primary">
                            <polygon id="Fill-1" fill="#FFFFFF" fill-rule="nonzero" points="14.4311967 6.5423151 14.4311967 17.3547957 4.64645098 17.3547957 4.64645098 6.5423151 0.000143478358 6.5423151 0.000143478358 32.3507487 4.64645098 32.3507487 4.64645098 21.891097 14.4311967 21.891097 14.4311967 32.3507487 19.077026 32.3507487 19.077026 6.5423151"></polygon>
                            <path d="M33.9443014,24.0091376 C33.9443014,26.1586271 32.219213,27.9077263 30.1014725,27.9077263 C27.9827755,27.9077263 26.2586439,26.1586271 26.2586439,24.0091376 L26.2586439,12.9549668 L21.8581627,12.9549668 L21.8581627,24.0091376 C21.8581627,28.6206638 25.5565565,32.3722 30.1014725,32.3722 C34.6454321,32.3722 38.3428696,28.6206638 38.3428696,24.0091376 L38.3428696,12.9549668 L33.9443014,12.9549668 L33.9443014,24.0091376 Z" id="Fill-2" fill="#FFFFFF" fill-rule="nonzero"></path>
                            <path d="M66.5930886,14.0932402 C66.5930886,11.8267882 68.0713941,11.1085122 69.6903082,11.1085122 C70.9930918,11.1085122 72.7177014,12.1145839 73.842572,13.3375944 L76.7279217,9.88647231 C75.2864425,7.90927199 72.365223,6.5426063 69.9715257,6.5426063 C65.1846094,6.5426063 61.7353898,9.38319379 61.7353898,14.0932402 C61.7353898,22.8295149 72.2600056,20.0602696 72.2600056,24.951341 C72.2600056,26.4597206 70.8170916,27.7909579 69.1632644,27.7909579 C66.5581757,27.7909579 65.7126098,26.4966051 64.5164786,25.1304247 L61.313085,28.5092339 C63.3552604,31.0620255 65.889088,32.3573491 68.9160034,32.3573491 C73.4566151,32.3573491 77.1172262,29.4808478 77.1172262,24.9857989 C77.1172262,15.2788809 66.5930886,18.2995228 66.5930886,14.0932402" id="Fill-4" fill="#FFFFFF" fill-rule="nonzero"></path>
                            <path d="M131.702468,28.2282327 C129.099292,28.2282327 128.360378,27.0857855 128.360378,25.3352304 L128.360378,17.584644 L132.406946,17.584644 L132.406946,13.6564507 L128.360378,13.6564507 L128.360378,8.47661298 L123.891028,10.5125372 L123.891028,26.2995645 C123.891028,30.3359846 126.63529,32.372394 130.400162,32.372394 C130.963554,32.372394 131.738337,32.3355097 132.16112,32.2297095 L133.252512,28.157861 C132.759903,28.1923189 132.19699,28.2282327 131.702468,28.2282327" id="Fill-6" fill="#FFFFFF" fill-rule="nonzero"></path>
                            <path d="M50.6880822,27.8644356 C47.9232541,27.8644356 45.681644,25.5897331 45.681644,22.7840888 C45.681644,19.9784444 47.9232541,17.7037419 50.6880822,17.7037419 C53.4529103,17.7037419 55.6945205,19.9784444 55.6945205,22.7840888 C55.6945205,25.5897331 53.4529103,27.8644356 50.6880822,27.8644356 M50.7158213,13.0844507 C48.5330374,13.0844507 47.0102535,13.7275018 45.5386438,15.1926878 L45.5386438,6.69664737 L41.1247715,6.69664737 L41.1247715,22.4424223 C41.1247715,28.3356829 45.3234265,32.3721028 50.0414731,32.3721028 C55.2860854,32.3721028 59.8816972,28.2638553 59.8816972,22.7287621 C59.8816972,17.2635552 55.6438247,13.0844507 50.7158213,13.0844507" id="Fill-8" fill="#FFFFFF" fill-rule="nonzero"></path>
                            <g id="Group-12" transform="translate(79.869619, 12.806361)">
                                <g id="Fill-10-Clipped">
                                    <mask id="mask-2" fill="white">
                                        <use xlink:href="#path-1"></use>
                                    </mask>
                                    <g id="path-1"></g>
                                    <path d="M9.57397605,14.7147091 C6.80866983,14.7147091 4.56705963,12.4400067 4.56705963,9.63436234 C4.56705963,6.828718 6.80866983,4.55401552 9.57397605,4.55401552 C12.3383258,4.55401552 14.579936,6.828718 14.579936,9.63436234 C14.579936,12.4400067 12.3383258,14.7147091 9.57397605,14.7147091 M18.7671127,9.68968899 C18.7671127,4.15459581 14.1715009,0.0463482157 8.92688867,0.0463482157 C4.20884199,0.0463482157 0.0101869634,4.0827682 0.0101869634,9.97602876 L0.0101869634,25.722289 L4.42405952,25.722289 L4.42405952,17.2257633 C5.89566923,18.6914346 7.41845286,19.3344857 9.60123696,19.3344857 C14.5292403,19.3344857 18.7671127,15.1548959 18.7671127,9.68968899" id="Fill-10" fill="#FFFFFF" fill-rule="nonzero" mask="url(#mask-2)"></path>
                                </g>
                            </g>
                            <g id="Group-15" transform="translate(85.418192, 0.187999)">
                                <g id="Fill-13-Clipped">
                                    <mask id="mask-4" fill="white">
                                        <use xlink:href="#path-3"></use>
                                    </mask>
                                    <g id="path-3"></g>
                                    <path d="M25.9889749,27.2428017 C23.2361035,27.2428017 21.0045367,24.978291 21.0045367,22.185265 C21.0045367,19.3917537 23.2361035,17.127243 25.9889749,17.127243 C28.7418464,17.127243 30.9734132,19.3917537 30.9734132,22.185265 C30.9734132,24.978291 28.7418464,27.2428017 25.9889749,27.2428017 M27.4811498,12.4477718 L27.4811498,7.94835499 C28.6385418,7.39363235 29.4491946,6.20556501 29.4491946,4.82676628 L29.4491946,4.72290743 C29.4491946,2.81996133 27.9149327,1.26304954 26.0396706,1.26304954 L25.937801,1.26304954 C24.0625388,1.26304954 22.5282769,2.81996133 22.5282769,4.72290743 L22.5282769,4.82676628 C22.5282769,6.20556501 23.3389296,7.3941177 24.4963217,7.9488403 L24.4963217,12.4477718 C22.7731467,12.7180959 21.1987108,13.4392839 19.9002317,14.5006823 L7.72609295,4.89082871 C7.80644084,4.57779626 7.86287567,4.25554271 7.86335392,3.91678821 C7.86526697,1.76196018 6.14639623,0.0123757016 4.02196,0.0094612436 C1.89848031,0.00703716363 0.173870445,1.75176842 0.171476647,3.90708177 C0.169087833,6.06239513 1.88795856,7.81197959 4.01239477,7.81440623 C4.70443873,7.81537685 5.34530873,7.61590966 5.90678737,7.29171482 L17.8819694,16.7452948 C16.8637513,18.3051185 16.2668814,20.1736068 16.2668814,22.185265 C16.2668814,24.2910755 16.9225775,26.2391565 18.0302304,27.8412032 L14.3887496,31.5369273 C14.1008364,31.4490841 13.8024014,31.3879339 13.4857925,31.3879339 C11.7406174,31.3879339 10.3254425,32.8235151 10.3254425,34.5944538 C10.3254425,36.3658778 11.7406174,37.801459 13.4857925,37.801459 C15.2314459,37.801459 16.6461425,36.3658778 16.6461425,34.5944538 C16.6461425,34.2741414 16.5858816,33.9708154 16.4993163,33.6786518 L20.1015796,30.0232092 C21.7367546,31.2894134 23.7731908,32.0503977 25.9889749,32.0503977 C31.3584135,32.0503977 35.7105901,27.6334856 35.7105901,22.185265 C35.7105901,17.2529413 32.139892,13.1781809 27.4811498,12.4477718" id="Fill-13" fill="#FFFFFF" fill-rule="nonzero" mask="url(#mask-4)"></path>
                                </g>
                            </g>
                        </g>
                    </g>
                </g>
            </g>
        </g>
    </g>
</svg>