<?xml version="1.0" encoding="UTF-8"?>
<svg width="524px" height="378px" viewBox="0 0 524 378" version="1.1" xmlns="http://www.w3.org/2000/svg" xmlns:xlink="http://www.w3.org/1999/xlink">
    <!-- Generator: Sketch 59.1 (86144) - https://sketch.com -->
    <title>img_search_baidu</title>
    <desc>Created with Sketch.</desc>
    <defs>
        <rect id="path-1" x="0" y="108" width="440" height="60" rx="15"></rect>
        <filter x="-7.4%" y="-45.8%" width="114.8%" height="208.3%" filterUnits="objectBoundingBox" id="filter-2">
            <feOffset dx="0" dy="5" in="SourceAlpha" result="shadowOffsetOuter1"></feOffset>
            <feGaussianBlur stdDeviation="10" in="shadowOffsetOuter1" result="shadowBlurOuter1"></feGaussianBlur>
            <feColorMatrix values="0 0 0 0 0   0 0 0 0 0   0 0 0 0 0  0 0 0 0.3 0" type="matrix" in="shadowBlurOuter1"></feColorMatrix>
        </filter>
        <filter x="-6.0%" y="-5.9%" width="111.9%" height="111.9%" filterUnits="objectBoundingBox" id="filter-3">
            <feOffset dx="0" dy="2" in="SourceAlpha" result="shadowOffsetOuter1"></feOffset>
            <feGaussianBlur stdDeviation="4.5" in="shadowOffsetOuter1" result="shadowBlurOuter1"></feGaussianBlur>
            <feColorMatrix values="0 0 0 0 0   0 0 0 0 0   0 0 0 0 0  0 0 0 0.3 0" type="matrix" in="shadowBlurOuter1" result="shadowMatrixOuter1"></feColorMatrix>
            <feMerge>
                <feMergeNode in="shadowMatrixOuter1"></feMergeNode>
                <feMergeNode in="SourceGraphic"></feMergeNode>
            </feMerge>
        </filter>
        <polygon id="path-4" points="44.3998571 29.3271429 29.877 43.85 0.834571429 14.8075714 15.3574286 0.284714286"></polygon>
        <linearGradient x1="16.6709495%" y1="16.6709292%" x2="83.3336043%" y2="83.333584%" id="linearGradient-6">
            <stop stop-color="#C5C6C8" offset="0%"></stop>
            <stop stop-color="#F1F1F2" offset="100%"></stop>
        </linearGradient>
        <polygon id="path-7" points="0.859634146 29.458 101.209756 130 129.88261 101.27325 29.5324878 0.73125"></polygon>
        <linearGradient x1="74.0543448%" y1="100%" x2="24.2217586%" y2="8.22900299%" id="linearGradient-9">
            <stop stop-color="#427FDF" offset="0%"></stop>
            <stop stop-color="#396BB1" offset="100%"></stop>
        </linearGradient>
        <linearGradient x1="50%" y1="0%" x2="50%" y2="100%" id="linearGradient-10">
            <stop stop-color="#DA3E3F" offset="0%"></stop>
            <stop stop-color="#FF5254" offset="100%"></stop>
        </linearGradient>
        <linearGradient x1="14.6674003%" y1="14.6442063%" x2="85.3327966%" y2="85.3555211%" id="linearGradient-11">
            <stop stop-color="#FEFEFE" offset="0%"></stop>
            <stop stop-color="#C5C6C8" offset="100%"></stop>
        </linearGradient>
        <path d="M210.096106,37.015173 C258.157222,85.0921397 258.157222,163.043438 210.096106,211.120404 C162.034991,259.197371 84.1093935,259.197371 36.0482778,211.120404 C-12.0160926,163.043438 -12.0160926,85.0921397 36.0482778,37.015173 C84.1093935,-11.0617937 162.034991,-11.0617937 210.096106,37.015173" id="path-12"></path>
        <linearGradient x1="165.920271%" y1="219.252273%" x2="30.9281101%" y2="3.13446491%" id="linearGradient-14">
            <stop stop-color="#427FDF" offset="0%"></stop>
            <stop stop-color="#396BB1" offset="100%"></stop>
        </linearGradient>
    </defs>
    <g id="Page-1" stroke="none" stroke-width="1" fill="none" fill-rule="evenodd">
        <g id="Baidu-SEO" transform="translate(-824.000000, -1158.000000)">
            <g id="img_search_baidu" transform="translate(844.000000, 1164.000000)">
                <g id="search">
                    <g id="Rectangle-10">
                        <use fill="black" fill-opacity="1" filter="url(#filter-2)" xlink:href="#path-1"></use>
                        <use fill="#FFFFFF" fill-rule="evenodd" xlink:href="#path-1"></use>
                    </g>
                    <path d="M43.344,128.238 C43.2359995,128.418 43.1220006,128.553 43.002,128.643 C42.8819994,128.733 42.726001,128.778 42.534,128.778 C42.329999,128.778 42.0930014,128.676001 41.823,128.472 C41.5529987,128.267999 41.2110021,128.043001 40.797,127.797 C40.3829979,127.550999 39.8850029,127.326001 39.303,127.122 C38.7209971,126.918 38.0160041,126.816 37.188,126.816 C36.4079961,126.816 35.718003,126.920999 35.118,127.131 C34.517997,127.341001 34.017002,127.625998 33.615,127.986 C33.212998,128.346002 32.910001,128.768998 32.706,129.255 C32.501999,129.741002 32.4,130.265997 32.4,130.83 C32.4,131.550004 32.5769982,132.146998 32.931,132.621 C33.2850018,133.095002 33.7529971,133.499998 34.335,133.836 C34.9170029,134.172002 35.5769963,134.462999 36.315,134.709 L37.8149991,135.213 C38.0689987,135.299 38.3249987,135.386 38.583,135.474 C39.3570039,135.738001 40.1129963,136.034998 40.851,136.365 C41.5890037,136.695002 42.2489971,137.111997 42.831,137.616 C43.4130029,138.120003 43.8809982,138.737996 44.235,139.47 C44.5890018,140.202004 44.766,141.101995 44.766,142.17 C44.766,143.298006 44.5740019,144.356995 44.19,145.347 C43.8059981,146.337005 43.2450037,147.197996 42.507,147.93 C41.7689963,148.662004 40.8630054,149.237998 39.789,149.658 C38.7149946,150.078002 37.4940068,150.288 36.126,150.288 C34.4579917,150.288 32.9370069,149.985003 31.563,149.379 C30.1889931,148.772997 29.0160049,147.954005 28.044,146.922 L29.052,145.266 C29.1480005,145.133999 29.2649993,145.023 29.403,144.933 C29.5410007,144.843 29.6939992,144.798 29.862,144.798 C30.0780011,144.798 30.3204481,144.897183 30.5893465,145.095551 L30.726,145.203 C31.0500016,145.473001 31.4549976,145.769998 31.941,146.094 C32.4270024,146.418 33.0149965,146.714999 33.705,146.985 C34.3950035,147.255001 35.237995,147.39 36.234,147.39 C37.0620041,147.39 37.7999968,147.276001 38.448,147.048 C39.0960032,146.819999 39.6449978,146.499002 40.095,146.085 C40.5450023,145.670998 40.8899988,145.176003 41.13,144.6 C41.3700012,144.023997 41.49,143.382004 41.49,142.674 C41.49,141.893996 41.3130018,141.255002 40.959,140.757 C40.6049982,140.258998 40.1400029,139.842002 39.564,139.506 C38.9879971,139.169998 38.3310037,138.885001 37.593,138.651 L35.325,137.931 L35.325,137.931 C34.5509961,137.684999 33.7950037,137.400002 33.057,137.076 C32.3189963,136.751998 31.6620029,136.332003 31.086,135.816 C30.5099971,135.299997 30.0450018,134.655004 29.691,133.881 C29.3369982,133.106996 29.16,132.150006 29.16,131.01 C29.16,130.097995 29.3369982,129.216004 29.691,128.364 C30.0450018,127.511996 30.5579966,126.756003 31.23,126.096 C31.9020034,125.435997 32.732995,124.908002 33.723,124.512 C34.7130049,124.115998 35.8499936,123.918 37.134,123.918 C38.5740072,123.918 39.8879941,124.145998 41.076,124.602 C42.2640059,125.058002 43.3019956,125.717996 44.19,126.582 L43.344,128.238 Z M55.926,131.478 C57.0180055,131.478 58.0259954,131.660998 58.95,132.027 C59.8740046,132.393002 60.6719966,132.920997 61.344,133.611 C62.0160034,134.301003 62.5409981,135.152995 62.919,136.167 C63.2970019,137.181005 63.486,138.335994 63.486,139.632 C63.486,140.136003 63.4320005,140.471999 63.324,140.64 C63.2159995,140.808001 63.0120015,140.892 62.712,140.892 L50.58,140.892 C50.6040001,142.044006 50.7599986,143.045996 51.048,143.898 C51.3360014,144.750004 51.7319975,145.460997 52.236,146.031 C52.7400025,146.601003 53.3399965,147.026999 54.036,147.309 C54.7320035,147.591001 55.5119957,147.732 56.376,147.732 C57.180004,147.732 57.8729971,147.639001 58.455,147.453 C59.0370029,147.266999 59.5379979,147.066001 59.958,146.85 C60.2940017,146.677199 60.5858398,146.514 60.8335197,146.3604 L61.011,146.247 C61.2930014,146.060999 61.535999,145.968 61.74,145.968 C62.0040013,145.968 62.2079993,146.069999 62.352,146.274 L63.252,147.444 C62.855998,147.924002 62.3820028,148.340998 61.83,148.695 C61.2779972,149.049002 60.6870031,149.339999 60.057,149.568 C59.4269969,149.796001 58.7760034,149.966999 58.104,150.081 C57.4319966,150.195001 56.7660033,150.252 56.106,150.252 C54.8459937,150.252 53.6850053,150.039002 52.623,149.613 C51.5609947,149.186998 50.6430039,148.563004 49.869,147.741 C49.0949961,146.918996 48.4920022,145.902006 48.06,144.69 C47.6279978,143.478 47.412,142.086008 47.412,140.514 C47.412,139.241994 47.6069981,138.054006 47.997,136.95 C48.3870019,135.845994 48.9479963,134.889004 49.68,134.079 C50.412,133.268996 51.3059947,132.633002 52.362,132.171 C53.4180053,131.708998 54.6059934,131.478 55.926,131.478 Z M55.998,133.836 C54.4499923,133.836 53.2320044,134.282996 52.344,135.177 C51.4559956,136.071004 50.9040011,137.309992 50.688,138.894 L60.606,138.894 C60.606,138.149996 60.504001,137.469003 60.3,136.851 C60.095999,136.232997 59.796002,135.699002 59.4,135.249 C59.003998,134.798998 58.5210029,134.451001 57.951,134.205 C57.3809971,133.958999 56.7300037,133.836 55.998,133.836 Z M80.964,150 L79.542,150 C79.2299984,150 78.978001,149.952 78.786,149.856 C78.593999,149.76 78.4680003,149.556002 78.408,149.244 L78.048,147.552 C77.5679976,147.984002 77.1,148.370998 76.644,148.713 C76.1879977,149.055002 75.7080025,149.342999 75.204,149.577 C74.6999975,149.811001 74.1630028,149.987999 73.593,150.108 C73.0229972,150.228001 72.3900035,150.288 71.694,150.288 C70.9859965,150.288 70.3230031,150.189001 69.705,149.991 C69.0869969,149.792999 68.5500023,149.496002 68.094,149.1 C67.6379977,148.703998 67.2750013,148.203003 67.005,147.597 C66.7349986,146.990997 66.6,146.274004 66.6,145.446 C66.6,144.725996 66.797998,144.033003 67.194,143.367 C67.590002,142.700997 68.2289956,142.110003 69.111,141.594 C69.9930044,141.077997 71.1479929,140.655002 72.576,140.325 C74.0040071,139.994998 75.7499897,139.806 77.814,139.758 L77.814,138.336 C77.814,136.919993 77.511003,135.849004 76.905,135.123 C76.298997,134.396996 75.4020059,134.034 74.214,134.034 C73.4339961,134.034 72.7770027,134.132999 72.243,134.331 C71.7089973,134.529001 71.2470019,134.750999 70.857,134.997 L70.4149196,135.28068 C70.20684,135.41676 70.0182008,135.544199 69.849,135.663 C69.5669986,135.861001 69.2880014,135.96 69.012,135.96 C68.7959989,135.96 68.6070008,135.903001 68.445,135.789 C68.2829992,135.674999 68.1540005,135.534001 68.058,135.366 L67.482,134.34 C68.490005,133.367995 69.5759942,132.642002 70.74,132.162 C71.9040058,131.681998 73.1939929,131.442 74.61,131.442 C75.6300051,131.442 76.535996,131.609998 77.328,131.946 C78.120004,132.282002 78.7859973,132.749997 79.326,133.35 C79.8660027,133.950003 80.2739986,134.675996 80.55,135.528 C80.8260014,136.380004 80.964,137.315995 80.964,138.336 L80.964,150 Z M72.648,148.038 C73.2120028,148.038 73.7279977,147.981001 74.196,147.867 C74.6640023,147.752999 75.1049979,147.591001 75.519,147.381 C75.9330021,147.170999 76.3289981,146.916001 76.707,146.616 C77.0850019,146.315999 77.4539982,145.974002 77.814,145.59 L77.814,141.792 C76.3379926,141.84 75.0840052,141.956999 74.052,142.143 C73.0199948,142.329001 72.1800032,142.571999 71.532,142.872 C70.8839968,143.172001 70.4130015,143.525998 70.119,143.934 C69.8249985,144.342002 69.678,144.797997 69.678,145.302 C69.678,145.782002 69.7559992,146.195998 69.912,146.544 C70.0680008,146.892002 70.2779987,147.176999 70.542,147.399 C70.8060013,147.621001 71.1179982,147.782999 71.478,147.885 C71.8380018,147.987001 72.2279979,148.038 72.648,148.038 Z M85.824,150 L85.824,131.766 L87.66,131.766 C88.0080017,131.766 88.2479993,131.831999 88.38,131.964 C88.5120007,132.096001 88.6019998,132.323998 88.65,132.648 L88.866,135.492 C89.4900031,134.219994 90.2609954,133.227004 91.179,132.513 C92.0970046,131.798996 93.1739938,131.442 94.41,131.442 C94.9140025,131.442 95.369998,131.498999 95.778,131.613 C96.186002,131.727001 96.5639983,131.885999 96.912,132.09 L96.498,134.484 C96.4139996,134.784001 96.2280014,134.934 95.94,134.934 C95.7719992,134.934 95.5140017,134.877001 95.166,134.763 C94.8179983,134.648999 94.3320031,134.592 93.708,134.592 C92.5919944,134.592 91.6590038,134.915997 90.909,135.564 C90.1589963,136.212003 89.5320025,137.153994 89.028,138.39 L89.028,150 L85.824,150 Z M112.77,135.006 C112.674,135.138001 112.578,135.24 112.482,135.312 C112.386,135.384 112.248001,135.42 112.068,135.42 C111.887999,135.42 111.693001,135.345001 111.483,135.195 C111.272999,135.044999 111.006002,134.880001 110.682,134.7 C110.357998,134.519999 109.965002,134.355001 109.503,134.205 C109.040998,134.054999 108.474003,133.98 107.802,133.98 C106.913996,133.98 106.128003,134.138998 105.444,134.457 C104.759997,134.775002 104.187002,135.233997 103.725,135.834 C103.262998,136.434003 102.915001,137.159996 102.681,138.012 C102.446999,138.864004 102.33,139.817995 102.33,140.874 C102.33,141.978 102.455999,142.958996 102.708,143.817 C102.960001,144.675004 103.313998,145.394997 103.77,145.977 C104.226002,146.559003 104.780997,147.002998 105.435,147.309 C106.089003,147.615002 106.823996,147.768 107.64,147.768 C108.420004,147.768 109.061997,147.675001 109.566,147.489 C110.070003,147.302999 110.489998,147.096001 110.826,146.868 C111.162002,146.639999 111.437999,146.433001 111.654,146.247 C111.870001,146.060999 112.085999,145.968 112.302,145.968 C112.578001,145.968 112.781999,146.069999 112.914,146.274 L113.814,147.444 C113.021996,148.416005 112.032006,149.126998 110.844,149.577 C109.655994,150.027002 108.402007,150.252 107.082,150.252 C105.941994,150.252 104.883005,150.042002 103.905,149.622 C102.926995,149.201998 102.078004,148.593004 101.358,147.795 C100.637996,146.996996 100.071002,146.016006 99.657,144.852 C99.2429979,143.687994 99.036,142.362007 99.036,140.874 C99.036,139.517993 99.2249981,138.264006 99.603,137.112 C99.9810019,135.959994 100.532996,134.967004 101.259,134.133 C101.985004,133.298996 102.881995,132.648002 103.95,132.18 C105.018005,131.711998 106.241993,131.478 107.622,131.478 C108.894006,131.478 110.021995,131.684998 111.006,132.099 C111.990005,132.513002 112.859996,133.097996 113.616,133.854 L112.77,135.006 Z M117.144,150 L117.144,123.486 L120.348,123.486 L120.348,134.214 C121.128004,133.385996 121.991995,132.723002 122.94,132.225 C123.888005,131.726998 124.979994,131.478 126.216,131.478 C127.212005,131.478 128.090996,131.642998 128.853,131.973 C129.615004,132.303002 130.250997,132.770997 130.761,133.377 C131.271003,133.983003 131.657999,134.711996 131.922,135.564 C132.186001,136.416004 132.318,137.357995 132.318,138.39 L132.318,150 L129.114,150 L129.114,138.39 C129.114,137.009993 128.799003,135.939004 128.169,135.177 C127.538997,134.414996 126.576006,134.034 125.28,134.034 C124.331995,134.034 123.447004,134.261998 122.625,134.718 C121.802996,135.174002 121.044003,135.791996 120.348,136.572 L120.348,150 L117.144,150 Z M158.508,150 L158.508,124.206 L166.734,124.206 C168.318008,124.206 169.682994,124.361998 170.829,124.674 C171.975006,124.986002 172.916996,125.429997 173.655,126.006 C174.393004,126.582003 174.938998,127.286996 175.293,128.121 C175.647002,128.955004 175.824,129.893995 175.824,130.938 C175.824,131.574003 175.725001,132.185997 175.527,132.774 C175.328999,133.362003 175.029002,133.907997 174.627,134.412 C174.224998,134.916003 173.721003,135.365998 173.115,135.762 C172.508997,136.158002 171.798004,136.481999 170.982,136.734 C172.866009,137.106002 174.287995,137.783995 175.248,138.768 C176.208005,139.752005 176.688,141.047992 176.688,142.656 C176.688,143.748005 176.487002,144.743996 176.085,145.644 C175.682998,146.544004 175.095004,147.317997 174.321,147.966 C173.546996,148.614003 172.599006,149.114998 171.477,149.469 C170.354994,149.823002 169.074007,150 167.634,150 L158.508,150 Z M162,138.246 L162,147.228 L167.58,147.228 C168.576005,147.228 169.430996,147.114001 170.145,146.886 C170.859004,146.657999 171.446998,146.337002 171.909,145.923 C172.371002,145.508998 172.709999,145.017003 172.926,144.447 C173.142001,143.876997 173.25,143.250003 173.25,142.566 C173.25,141.233993 172.779005,140.181004 171.837,139.407 C170.894995,138.632996 169.47001,138.246 167.562,138.246 L162,138.246 Z M162,135.762 L166.608,135.762 C167.592005,135.762 168.443996,135.654001 169.164,135.438 C169.884004,135.221999 170.480998,134.922002 170.955,134.538 C171.429002,134.153998 171.779999,133.689003 172.008,133.143 C172.236001,132.596997 172.35,132.000003 172.35,131.352 C172.35,129.839992 171.894005,128.730004 170.982,128.022 C170.069995,127.313996 168.65401,126.96 166.734,126.96 L162,126.96 L162,135.762 Z M194.688,150 L193.266,150 C192.953998,150 192.702001,149.952 192.51,149.856 C192.317999,149.76 192.192,149.556002 192.132,149.244 L191.772,147.552 C191.291998,147.984002 190.824,148.370998 190.368,148.713 C189.911998,149.055002 189.432003,149.342999 188.928,149.577 C188.423997,149.811001 187.887003,149.987999 187.317,150.108 C186.746997,150.228001 186.114003,150.288 185.418,150.288 C184.709996,150.288 184.047003,150.189001 183.429,149.991 C182.810997,149.792999 182.274002,149.496002 181.818,149.1 C181.361998,148.703998 180.999001,148.203003 180.729,147.597 C180.458999,146.990997 180.324,146.274004 180.324,145.446 C180.324,144.725996 180.521998,144.033003 180.918,143.367 C181.314002,142.700997 181.952996,142.110003 182.835,141.594 C183.717004,141.077997 184.871993,140.655002 186.3,140.325 C187.728007,139.994998 189.47399,139.806 191.538,139.758 L191.538,138.336 C191.538,136.919993 191.235003,135.849004 190.629,135.123 C190.022997,134.396996 189.126006,134.034 187.938,134.034 C187.157996,134.034 186.501003,134.132999 185.967,134.331 C185.432997,134.529001 184.971002,134.750999 184.581,134.997 L184.13892,135.28068 C183.93084,135.41676 183.742201,135.544199 183.573,135.663 C183.290999,135.861001 183.012001,135.96 182.736,135.96 C182.519999,135.96 182.331001,135.903001 182.169,135.789 C182.006999,135.674999 181.878,135.534001 181.782,135.366 L181.206,134.34 C182.214005,133.367995 183.299994,132.642002 184.464,132.162 C185.628006,131.681998 186.917993,131.442 188.334,131.442 C189.354005,131.442 190.259996,131.609998 191.052,131.946 C191.844004,132.282002 192.509997,132.749997 193.05,133.35 C193.590003,133.950003 193.997999,134.675996 194.274,135.528 C194.550001,136.380004 194.688,137.315995 194.688,138.336 L194.688,150 Z M186.372,148.038 C186.936003,148.038 187.451998,147.981001 187.92,147.867 C188.388002,147.752999 188.828998,147.591001 189.243,147.381 C189.657002,147.170999 190.052998,146.916001 190.431,146.616 C190.809002,146.315999 191.177998,145.974002 191.538,145.59 L191.538,141.792 C190.061993,141.84 188.808005,141.956999 187.776,142.143 C186.743995,142.329001 185.904003,142.571999 185.256,142.872 C184.607997,143.172001 184.137001,143.525998 183.843,143.934 C183.548999,144.342002 183.402,144.797997 183.402,145.302 C183.402,145.782002 183.479999,146.195998 183.636,146.544 C183.792001,146.892002 184.001999,147.176999 184.266,147.399 C184.530001,147.621001 184.841998,147.782999 185.202,147.885 C185.562002,147.987001 185.951998,148.038 186.372,148.038 Z M203.112,131.766 L203.112,150 L199.908,150 L199.908,131.766 L203.112,131.766 Z M203.832,126.042 C203.832,126.354002 203.769001,126.644999 203.643,126.915 C203.516999,127.185001 203.349001,127.424999 203.139,127.635 C202.928999,127.845001 202.686001,128.009999 202.41,128.13 C202.133999,128.250001 201.840002,128.31 201.528,128.31 C201.215998,128.31 200.925001,128.250001 200.655,128.13 C200.384999,128.009999 200.145001,127.845001 199.935,127.635 C199.724999,127.424999 199.560001,127.185001 199.44,126.915 C199.319999,126.644999 199.26,126.354002 199.26,126.042 C199.26,125.729998 199.319999,125.433001 199.44,125.151 C199.560001,124.868999 199.724999,124.623001 199.935,124.413 C200.145001,124.202999 200.384999,124.038001 200.655,123.918 C200.925001,123.797999 201.215998,123.738 201.528,123.738 C201.840002,123.738 202.133999,123.797999 202.41,123.918 C202.686001,124.038001 202.928999,124.202999 203.139,124.413 C203.349001,124.623001 203.516999,124.868999 203.643,125.151 C203.769001,125.433001 203.832,125.729998 203.832,126.042 Z M221.598,150 C221.141998,150 220.854001,149.778002 220.734,149.334 L220.446,147.12 C219.665996,148.068005 218.775005,148.826997 217.773,149.397 C216.770995,149.967003 215.622006,150.252 214.326,150.252 C213.281995,150.252 212.334004,150.051002 211.482,149.649 C210.629996,149.246998 209.904003,148.656004 209.304,147.876 C208.703997,147.095996 208.242002,146.124006 207.918,144.96 C207.593998,143.795994 207.432,142.458008 207.432,140.946 C207.432,139.601993 207.611998,138.351006 207.972,137.193 C208.332002,136.034994 208.850997,135.030004 209.529,134.178 C210.207003,133.325996 211.031995,132.657002 212.004,132.171 C212.976005,131.684998 214.079994,131.442 215.316,131.442 C216.432,131.442 217.385996,131.630998 218.178,132.009 C218.970004,132.387002 219.677997,132.917997 220.302,133.602 L220.302,123.486 L223.506,123.486 L223.506,150 L221.598,150 Z M215.388,147.66 C216.432005,147.66 217.346996,147.420002 218.133,146.94 C218.919004,146.459998 219.641997,145.782004 220.302,144.906 L220.302,136.086 C219.713997,135.293996 219.069004,134.739002 218.367,134.421 C217.664996,134.102998 216.888004,133.944 216.036,133.944 C214.331991,133.944 213.024005,134.549994 212.112,135.762 C211.199995,136.974006 210.744,138.701989 210.744,140.946 C210.744,142.134006 210.845999,143.150996 211.05,143.997 C211.254001,144.843004 211.553998,145.538997 211.95,146.085 C212.346002,146.631003 212.831997,147.029999 213.408,147.282 C213.984003,147.534001 214.643996,147.66 215.388,147.66 Z M231.66,131.766 L231.66,143.394 C231.66,144.774007 231.977997,145.841996 232.614,146.598 C233.250003,147.354004 234.209994,147.732 235.494,147.732 C236.430005,147.732 237.311996,147.510002 238.14,147.066 C238.968004,146.621998 239.729997,146.004004 240.426,145.212 L240.426,131.766 L243.63,131.766 L243.63,150 L241.722,150 C241.265998,150 240.978001,149.778002 240.858,149.334 L240.606,147.372 C239.813996,148.248004 238.926005,148.952997 237.942,149.487 C236.957995,150.021003 235.830006,150.288 234.558,150.288 C233.561995,150.288 232.683004,150.123002 231.921,149.793 C231.158996,149.462998 230.520003,148.998003 230.004,148.398 C229.487997,147.797997 229.101001,147.072004 228.843,146.22 C228.584999,145.367996 228.456,144.426005 228.456,143.394 L228.456,131.766 L231.66,131.766 Z" id="SearchBaidu" fill="#4A4A4A" fill-rule="nonzero"></path>
                    <g id="Group" filter="url(#filter-3)" transform="translate(135.000000, 0.000000)">
                        <g id="Group-3" transform="translate(211.000000, 213.000000)">
                            <mask id="mask-5" fill="white">
                                <use xlink:href="#path-4"></use>
                            </mask>
                            <g id="Clip-2"></g>
                            <polygon id="Fill-1" fill="url(#linearGradient-6)" mask="url(#mask-5)" points="44.3998571 29.3271429 29.877 43.85 0.834571429 14.8075714 15.3574286 0.284714286"></polygon>
                        </g>
                        <g id="Group-6" transform="translate(231.000000, 232.000000)">
                            <mask id="mask-8" fill="white">
                                <use xlink:href="#path-7"></use>
                            </mask>
                            <g id="Clip-5"></g>
                            <polygon id="Fill-4" fill="url(#linearGradient-9)" mask="url(#mask-8)" points="0.859634146 29.458 101.209756 130 129.88261 101.27325 29.5324878 0.73125"></polygon>
                        </g>
                        <polygon id="Fill-7" fill="url(#linearGradient-10)" points="267 239.309932 238.309932 268 232 261.690068 260.690068 233"></polygon>
                        <polygon id="Fill-8" fill="url(#linearGradient-10)" points="326 355.687407 332.309932 362 361 333.312593 354.690068 327"></polygon>
                        <g id="Group-18">
                            <g id="SEO-AUDIT" transform="translate(9.763889, 9.767109)">
                                <mask id="mask-13" fill="white">
                                    <use xlink:href="#path-12"></use>
                                </mask>
                                <use id="Mask" fill-opacity="0.3" fill="url(#linearGradient-11)" style="mix-blend-mode: multiply;" xlink:href="#path-12"></use>
                            </g>
                            <path d="M132.83543,20.48955 C102.570629,20.48955 74.1154023,32.2817064 52.7162125,53.6879538 C31.3137681,75.0942013 19.5287542,103.558813 19.5287542,133.833595 C19.5287542,164.111634 31.3137681,192.57299 52.7129579,213.982493 C96.8913005,258.17215 168.776305,258.17215 212.957902,213.982493 C257.13299,169.786324 257.13299,97.8808668 212.957902,53.6879538 C191.555458,32.2817064 163.100231,20.48955 132.83543,20.48955 M132.83543,266.650001 C98.8180412,266.650001 64.8039069,253.698814 38.906819,227.793185 C13.8168792,202.69497 0.000976388888,169.32727 0.000976388888,133.833595 C0.000976388888,98.339921 13.8168792,64.9722206 38.906819,39.8740059 C63.9967588,14.7790469 97.3534579,0.955331794 132.83543,0.955331794 C168.317402,0.955331794 201.674101,14.7790469 226.764041,39.8772616 C278.554962,91.685264 278.554962,175.985183 226.764041,227.793185 C200.866953,253.698814 166.852819,266.650001 132.83543,266.650001" id="Fill-12" fill="url(#linearGradient-14)"></path>
                        </g>
                    </g>
                </g>
            </g>
        </g>
    </g>
</svg>