<?xml version="1.0" encoding="UTF-8"?>
<svg width="426px" height="425px" viewBox="0 0 426 425" version="1.1" xmlns="http://www.w3.org/2000/svg" xmlns:xlink="http://www.w3.org/1999/xlink">
    <!-- Generator: Sketch 63.1 (92452) - https://sketch.com -->
    <title>img_question</title>
    <desc>Created with Sketch.</desc>
    <defs>
        <linearGradient x1="46.7060004%" y1="-48.1340038%" x2="50.824924%" y2="29.8307031%" id="linearGradient-1">
            <stop stop-color="#80C3F3" offset="0%"></stop>
            <stop stop-color="#4A90E2" offset="100%"></stop>
        </linearGradient>
    </defs>
    <g id="Page-1" stroke="none" stroke-width="1" fill="none" fill-rule="evenodd">
        <g id="Amazon-PPC" transform="translate(-153.000000, -3486.000000)" fill-rule="nonzero">
            <g id="img_question" transform="translate(153.000000, 3486.000000)">
                <path d="M213,0 C95.424,0 0,95.2 0,212.5 C0,329.8 95.424,425 213,425 C330.576,425 426,329.8 426,212.5 C426,95.2 330.576,0 213,0 Z" id="Path" fill="url(#linearGradient-1)"></path>
                <g id="Group" transform="translate(128.000000, 78.000000)" fill="#FFFFFF">
                    <path d="M87.0715085,0.635294118 C52.539499,0.635294118 24.3630742,19.9058824 0.211852819,50.6117647 L40.6757412,88.0941176 C52.539499,72.8470588 64.6151097,59.9294118 79.444807,59.9294118 C91.5204177,59.9294118 105.078998,69.0352941 105.078998,83.6470588 C105.078998,104.611765 49.9972652,124.305882 49.9972652,159.247059 L49.9972652,189.741176 L114.400522,189.741176 L114.400522,168.776471 C114.400522,145.905882 169.482255,133.835294 169.482255,84.4941176 C169.270402,33.0352941 133.04357,0.635294118 87.0715085,0.635294118 Z" id="Path"></path>
                    <path d="M81.3514824,204.352941 C60.5899061,204.352941 43.8535335,221.082353 43.8535335,241.835294 C43.8535335,262.588235 60.5899061,279.317647 81.3514824,279.317647 C102.113059,279.317647 118.849431,262.588235 118.849431,241.835294 C118.849431,221.082353 101.901206,204.352941 81.3514824,204.352941 Z" id="Path"></path>
                </g>
            </g>
        </g>
    </g>
</svg>