<?xml version="1.0" encoding="UTF-8"?>
<svg width="533px" height="552px" viewBox="0 0 533 552" version="1.1" xmlns="http://www.w3.org/2000/svg" xmlns:xlink="http://www.w3.org/1999/xlink">
    <!-- Generator: Sketch 59.1 (86144) - https://sketch.com -->
    <title>img_money</title>
    <desc>Created with Sketch.</desc>
    <defs>
        <filter x="-4.3%" y="-88.0%" width="108.7%" height="276.1%" filterUnits="objectBoundingBox" id="filter-1">
            <feGaussianBlur stdDeviation="2.64107143" in="SourceGraphic"></feGaussianBlur>
        </filter>
        <filter x="-4.3%" y="-37.3%" width="108.7%" height="174.6%" filterUnits="objectBoundingBox" id="filter-2">
            <feGaussianBlur stdDeviation="2.11285714" in="SourceGraphic"></feGaussianBlur>
        </filter>
        <filter x="-4.3%" y="-90.0%" width="108.6%" height="280.1%" filterUnits="objectBoundingBox" id="filter-3">
            <feGaussianBlur stdDeviation="3.30133929" in="SourceGraphic"></feGaussianBlur>
        </filter>
        <linearGradient x1="82.3815408%" y1="3.36130428%" x2="34.8339297%" y2="105.628734%" id="linearGradient-4">
            <stop stop-color="#FACF00" offset="0%"></stop>
            <stop stop-color="#F2A100" offset="100%"></stop>
        </linearGradient>
        <linearGradient x1="50%" y1="0%" x2="50%" y2="100%" id="linearGradient-5">
            <stop stop-color="#FFF400" offset="0%"></stop>
            <stop stop-color="#FFE600" offset="100%"></stop>
        </linearGradient>
        <linearGradient x1="50%" y1="0%" x2="62.9492014%" y2="91.7903857%" id="linearGradient-6">
            <stop stop-color="#FCE141" offset="0%"></stop>
            <stop stop-color="#EFBE23" offset="100%"></stop>
        </linearGradient>
        <path d="M22.2145724,26.4811171 C2.54658084,48.0549532 -5.31049504,72.9048038 4.66856483,81.9846217 L4.66856483,81.9846217 C14.6442511,91.0644396 38.1918637,80.4881707 57.8598553,58.9109642 L57.8598553,58.9109642 C77.5278468,37.337128 85.8639716,12.9254275 75.8916588,3.84897998 L75.8916588,3.84897998 C73.4087014,1.58745146 70.0553595,0.519039332 66.115014,0.519039332 L66.115014,0.519039332 C54.2231323,0.519039332 36.9874944,10.2695639 22.2145724,26.4811171 L22.2145724,26.4811171 Z" id="path-7"></path>
        <path d="M22.2145724,26.4811171 C2.54658084,48.0549532 -5.31049504,72.9048038 4.66856483,81.9846217 L4.66856483,81.9846217 C14.6442511,91.0644396 38.1918637,80.4881707 57.8598553,58.9109642 L57.8598553,58.9109642 C77.5278468,37.337128 85.8639716,12.9254275 75.8916588,3.84897998 L75.8916588,3.84897998 C73.4087014,1.58745146 70.0553595,0.519039332 66.115014,0.519039332 L66.115014,0.519039332 C54.2231323,0.519039332 36.9874944,10.2695639 22.2145724,26.4811171 L22.2145724,26.4811171 Z" id="path-9"></path>
        <linearGradient x1="0%" y1="41.5027947%" x2="91.3469267%" y2="61.3288257%" id="linearGradient-11">
            <stop stop-color="#FACF00" offset="0%"></stop>
            <stop stop-color="#F2A100" offset="100%"></stop>
        </linearGradient>
        <linearGradient x1="50%" y1="42.067963%" x2="64.6055751%" y2="56.6296577%" id="linearGradient-12">
            <stop stop-color="#FDE765" offset="0%"></stop>
            <stop stop-color="#F9CA35" offset="100%"></stop>
        </linearGradient>
        <linearGradient x1="16.8145502%" y1="42.0826237%" x2="64.6055751%" y2="56.6174041%" id="linearGradient-13">
            <stop stop-color="#FCE141" offset="0%"></stop>
            <stop stop-color="#EFBE23" offset="100%"></stop>
        </linearGradient>
        <path d="M0.34990333,4.49272357 C-1.51906191,10.3066382 16.7185303,21.0446856 40.9678482,28.8235348 L40.9678482,28.8235348 C65.2171661,36.602384 86.3020627,38.4763183 88.171028,32.665774 L88.171028,32.665774 C90.0399932,26.8518595 71.8968614,15.8306996 47.6407963,8.05185041 L47.6407963,8.05185041 C33.2389685,3.42768182 19.920061,0.99089327 11.0880195,0.99089327 L11.0880195,0.99089327 C5.04930509,0.99089327 1.10895961,2.13008349 0.34990333,4.49272357 L0.34990333,4.49272357 Z" id="path-14"></path>
        <path d="M0.34990333,4.49272357 C-1.51906191,10.3066382 16.7185303,21.0446856 40.9678482,28.8235348 L40.9678482,28.8235348 C65.2171661,36.602384 86.3020627,38.4763183 88.171028,32.665774 L88.171028,32.665774 C90.0399932,26.8518595 71.8968614,15.8306996 47.6407963,8.05185041 L47.6407963,8.05185041 C33.2389685,3.42768182 19.920061,0.99089327 11.0880195,0.99089327 L11.0880195,0.99089327 C5.04930509,0.99089327 1.10895961,2.13008349 0.34990333,4.49272357 L0.34990333,4.49272357 Z" id="path-16"></path>
        <linearGradient x1="0%" y1="42.9794178%" x2="91.3469267%" y2="59.3601306%" id="linearGradient-18">
            <stop stop-color="#FACF00" offset="0%"></stop>
            <stop stop-color="#F2A100" offset="100%"></stop>
        </linearGradient>
        <polygon id="path-19" points="0 0.904145459 120.322213 0.904145459 120.322213 42.729154 0 42.729154"></polygon>
        <linearGradient x1="50%" y1="43.9585013%" x2="64.6055751%" y2="55.0495312%" id="linearGradient-21">
            <stop stop-color="#FDE765" offset="0%"></stop>
            <stop stop-color="#F9CA35" offset="100%"></stop>
        </linearGradient>
        <linearGradient x1="12.7339944%" y1="50%" x2="113.113027%" y2="51.9030317%" id="linearGradient-22">
            <stop stop-color="#FCE141" offset="0%"></stop>
            <stop stop-color="#EFBE23" offset="100%"></stop>
        </linearGradient>
        <path d="M42.651741,5.04461597 C17.9706044,11.3236437 -0.816881872,21.2123541 0.691109934,27.1307507 L0.691109934,27.1307507 C2.19910174,33.0491472 23.3582172,32.4660705 48.0393538,26.1870428 L48.0393538,26.1870428 C72.7204904,19.908015 91.5821955,10.3057874 90.0775773,4.39076123 L90.0775773,4.39076123 C89.3522569,1.54615606 84.0725987,0.133964634 76.0434701,0.137329001 L76.0434701,0.137329001 C67.3632399,0.137329001 55.4713582,1.78208303 42.651741,5.04461597 L42.651741,5.04461597 Z" id="path-23"></path>
        <path d="M42.651741,5.04461597 C17.9706044,11.3236437 -0.816881872,21.2123541 0.691109934,27.1307507 L0.691109934,27.1307507 C2.19910174,33.0491472 23.3582172,32.4660705 48.0393538,26.1870428 L48.0393538,26.1870428 C72.7204904,19.908015 91.5821955,10.3057874 90.0775773,4.39076123 L90.0775773,4.39076123 C89.3522569,1.54615606 84.0725987,0.133964634 76.0434701,0.137329001 L76.0434701,0.137329001 C67.3632399,0.137329001 55.4713582,1.78208303 42.651741,5.04461597 L42.651741,5.04461597 Z" id="path-25"></path>
        <linearGradient x1="19.2593657%" y1="6.51339507%" x2="67.9034713%" y2="98.7056185%" id="linearGradient-27">
            <stop stop-color="#FDE765" offset="0%"></stop>
            <stop stop-color="#F9CA35" offset="100%"></stop>
        </linearGradient>
        <linearGradient x1="50%" y1="1.58425649%" x2="64.6055751%" y2="90.4662519%" id="linearGradient-28">
            <stop stop-color="#FCE141" offset="0%"></stop>
            <stop stop-color="#EFBE23" offset="100%"></stop>
        </linearGradient>
        <path d="M0.495442094,62.5309184 C0.495442094,96.898737 28.3882301,123.096742 62.7886607,123.096742 L62.7886607,123.096742 C97.1924648,123.096742 125.081879,96.898737 125.081879,62.5309184 L125.081879,62.5309184 C125.081879,28.1597294 97.1924648,0.293384013 62.7886607,0.293384013 L62.7886607,0.293384013 C28.3882301,0.293384013 0.495442094,28.1597294 0.495442094,62.5309184 L0.495442094,62.5309184 Z" id="path-29"></path>
        <path d="M0.0843395865,62.3546471 C0.0843395865,96.7224657 27.9771276,122.92047 62.3775582,122.92047 L62.3775582,122.92047 C96.7813623,122.92047 124.670777,96.7224657 124.670777,62.3546471 L124.670777,62.3546471 C124.670777,27.9834581 96.7813623,0.117112708 62.3775582,0.117112708 L62.3775582,0.117112708 C27.9771276,0.117112708 0.0843395865,27.9834581 0.0843395865,62.3546471 L0.0843395865,62.3546471 Z" id="path-31"></path>
        <linearGradient x1="0%" y1="37.1536419%" x2="91.3469267%" y2="67.1272962%" id="linearGradient-33">
            <stop stop-color="#FACF00" offset="0%"></stop>
            <stop stop-color="#F2A100" offset="100%"></stop>
        </linearGradient>
        <linearGradient x1="0%" y1="36.090638%" x2="91.2186557%" y2="63.909362%" id="linearGradient-34">
            <stop stop-color="#DB8F00" offset="0%"></stop>
            <stop stop-color="#C98300" offset="100%"></stop>
        </linearGradient>
    </defs>
    <g id="Page-1" stroke="none" stroke-width="1" fill="none" fill-rule="evenodd">
        <g id="how-to-pick-the-best-seo-agency" transform="translate(-92.000000, -8922.000000)">
            <g id="img_money" transform="translate(96.000000, 8922.000000)">
                <ellipse id="Oval-4-Copy" fill="#000000" opacity="0.1" filter="url(#filter-1)" cx="431.5" cy="532.5" rx="91.5" ry="4.5"></ellipse>
                <ellipse id="Oval-4-Copy-3" fill-opacity="0.6" fill="#000000" opacity="0.1" filter="url(#filter-2)" cx="73" cy="538.5" rx="73" ry="8.5"></ellipse>
                <ellipse id="Oval-4-Copy-2" fill="#000000" opacity="0.1" filter="url(#filter-3)" cx="245" cy="509.5" rx="115" ry="5.5"></ellipse>
                <g id="Group-17">
                    <g id="Group-5" transform="translate(382.490620, 266.671704)">
                        <path d="M98.296976,8.20756221 C82.2926961,7.75930097 58.6506232,20.9240258 38.4867149,43.0438644 C18.3261801,65.1637029 7.41263762,89.9090716 9.35244811,105.786957 L5.97886465,109.48764 L23.8015061,125.705934 C37.0833042,137.788765 68.5048605,124.199371 95.3349698,94.7624264 C122.165079,65.3288518 132.778373,32.8046339 119.493201,20.7218027 L101.67056,4.5035088 L98.296976,8.20756221 Z" id="Fill-21" fill="url(#linearGradient-4)"></path>
                        <path d="M93.0949103,20.593054 C103.165057,29.7537612 94.7479662,54.3912775 74.8978012,76.1707071 C55.0476361,97.9467664 31.2807406,108.620777 21.2072204,99.456699 C11.1404473,90.2959918 19.0683685,65.2135846 38.91516,43.434155 C58.7686986,21.6580958 83.0247637,11.4289765 93.0949103,20.593054" id="Fill-23" fill="#FFC30D"></path>
                        <path d="M77.5116536,78.5461547 C50.6815444,107.979729 19.259988,121.572493 5.97818993,109.489662 C-7.40481565,97.3124599 3.16799491,63.8580157 29.5494176,34.9131469 C55.9342138,5.96827824 88.2835056,-7.67167095 101.669885,4.50553103 C114.951683,16.5883622 104.338389,49.1125801 77.5116536,78.5461547" id="Fill-25" fill="url(#linearGradient-5)"></path>
                        <path d="M32.9304229,37.9879494 C10.1992176,62.9254301 1.08716863,91.7523353 12.6180769,102.244345 C23.9971739,112.591427 51.0128303,100.832153 74.1319977,75.4733744 C97.2477916,50.1112253 106.447554,22.1370275 95.0718303,11.7865743 C83.5375484,1.29456498 55.6616283,13.0470984 32.9304229,37.9879494" id="Fill-27" fill="#F0A700"></path>
                        <path d="M33.9485704,38.9127831 C11.7773799,63.2368537 2.88798748,91.3526076 14.1355147,101.581727 C25.2312307,111.676031 51.5856647,100.20998 74.131323,75.4713522 C96.6803548,50.7360947 105.650713,23.4528259 94.5549973,13.358522 C83.30747,3.12603234 56.1163873,14.5887126 33.9485704,38.9127831" id="Fill-29" fill="url(#linearGradient-6)"></path>
                        <g id="Group-34" opacity="0.326004464" style="mix-blend-mode: multiply;" transform="translate(13.494334, 14.034284)">
                            <mask id="mask-8" fill="white">
                                <use xlink:href="#path-7"></use>
                            </mask>
                            <g id="Clip-33"></g>
                            <polygon id="Fill-32" fill="#FFDD00" mask="url(#mask-8)" points="18.3818442 94.1180087 9.36762924 97.9198033 44.2909652 -12.5614259 53.3051802 -16.3598501"></polygon>
                        </g>
                        <g id="Group-37" opacity="0.326004464" style="mix-blend-mode: multiply;" transform="translate(13.494334, 14.034284)">
                            <mask id="mask-10" fill="white">
                                <use xlink:href="#path-9"></use>
                            </mask>
                            <g id="Clip-36"></g>
                            <polygon id="Fill-35" fill="#FFDD00" mask="url(#mask-10)" points="42.5272558 91.9242249 21.3715139 100.845635 59.0679355 -18.4289296 80.2304245 -6.40676536"></polygon>
                        </g>
                    </g>
                    <g id="Group-4" transform="translate(317.116845, 16.851926)">
                        <path d="M121.879811,175.349093 C114.889746,167.341057 94.7798152,156.798492 69.9165051,148.82079 C45.0565686,140.846458 22.5581405,137.718741 12.2079865,140.169011 L8.04835806,138.834338 L1.01781013,160.704769 C-1.46852088,168.443173 22.4940424,182.817866 55.5787754,193.431209 C88.6601348,204.044553 116.522561,206.29597 119.008892,198.554195 L126.03944,176.683765 L121.879811,175.349093 Z" id="Fill-39" fill="url(#linearGradient-11)"></path>
                        <path d="M110.737877,173.913982 C108.852044,179.781823 87.574853,177.891037 63.0961315,170.038039 C38.6207835,162.185042 20.2145121,151.349253 22.1037188,145.478042 C23.9861784,139.610201 45.3578296,141.221245 69.8365512,149.070873 C94.3118992,156.92387 112.627084,168.046142 110.737877,173.913982" id="Fill-41" fill="#FFC30D"></path>
                        <path d="M62.6079739,171.560779 C29.5232409,160.947436 5.56067762,146.572743 8.04700863,138.834338 C10.5502076,131.035267 39.0603614,133.178832 71.5884531,143.613545 C104.119918,154.051628 128.548036,168.884694 126.041464,176.683765 C123.551759,184.42217 95.6893333,182.170752 62.6079739,171.560779" id="Fill-43" fill="url(#linearGradient-12)"></path>
                        <path d="M70.9565809,145.583535 C42.9254759,136.591347 18.3657884,134.744376 16.2066949,141.461554 C14.0745902,148.091102 34.7344153,160.446934 63.2411955,169.590789 C91.7446022,178.734645 115.740901,180.70632 117.873006,174.076772 C120.035473,167.356224 98.9876859,154.572353 70.9565809,145.583535" id="Fill-45" fill="#F0A700"></path>
                        <path d="M70.7652987,146.176049 C43.4257784,137.406306 19.4733358,135.60315 17.3682197,142.158549 C15.2900923,148.622948 35.4371327,160.672076 63.2422076,169.590115 C91.0439089,178.511525 114.446457,180.432645 116.524585,173.968246 C118.629701,167.412846 98.1048191,154.945791 70.7652987,146.176049" id="Fill-47" fill="url(#linearGradient-13)"></path>
                        <g id="Group-52" opacity="0.401841518" style="mix-blend-mode: multiply;" transform="translate(22.792879, 139.149807)">
                            <mask id="mask-15" fill="white">
                                <use xlink:href="#path-14"></use>
                            </mask>
                            <g id="Clip-51"></g>
                            <polygon id="Fill-50" fill="#FFDD00" mask="url(#mask-15)" points="-1.97550775 12.4502032 -8.78339917 8.31811085 85.3564473 15.4026607 92.1575915 19.534753"></polygon>
                        </g>
                        <g id="Group-55" opacity="0.401841518" style="mix-blend-mode: multiply;" transform="translate(22.792879, 139.149807)">
                            <mask id="mask-17" fill="white">
                                <use xlink:href="#path-16"></use>
                            </mask>
                            <g id="Clip-54"></g>
                            <polygon id="Fill-53" fill="#FFDD00" mask="url(#mask-17)" points="10.6028982 24.2681221 -5.3710195 14.5647829 96.2581822 22.2155575 112.2321 31.9155263"></polygon>
                        </g>
                        <path d="M56.7176972,84.793244 C55.8034561,84.793244 55.0680149,82.5350859 55.0680149,79.7511476 L55.0680149,5.24878123 C55.0680149,2.464843 55.8034561,0.206684864 56.7176972,0.206684864 C57.6319383,0.206684864 58.3707531,2.464843 58.3707531,5.24878123 L58.3707531,79.7511476 C58.3707531,82.5350859 57.6319383,84.793244 56.7176972,84.793244" id="Fill-93" fill="#EFF1F4"></path>
                        <path d="M75.0119656,76.5135556 C74.0977245,76.5135556 73.3589097,75.091253 73.3589097,73.3352822 L73.3589097,29.732608 C73.3589097,27.9766373 74.0977245,26.5509643 75.0119656,26.5509643 C75.9262067,26.5509643 76.6650215,27.9766373 76.6650215,29.732608 L76.6650215,73.3352822 C76.6650215,75.091253 75.9262067,76.5135556 75.0119656,76.5135556" id="Fill-95" fill="#EFF1F4"></path>
                    </g>
                    <g id="Group-14" transform="translate(0.000000, 79.204054)">
                        <path d="M115.972667,143.465585 C105.791192,140.388423 83.1476995,142.130912 57.8424499,148.568348 C32.5372004,155.005784 11.8166508,164.297936 4.34753701,171.864451 L0.113689763,172.939604 L5.78805714,195.204369 C7.7953393,203.077589 35.7454783,202.538328 69.4172148,193.970808 C103.085578,185.403289 127.891537,172.525047 125.884255,164.648456 L120.206514,142.387062 L115.972667,143.465585 Z" id="Fill-97" fill="url(#linearGradient-18)"></path>
                        <path d="M105.772974,148.162217 C107.29446,154.131169 88.2607026,163.821027 63.3467887,170.160721 C38.4362484,176.500416 17.0780916,177.086863 15.5566054,171.11454 C14.0351193,165.138847 32.9946583,155.159137 57.9085722,148.822812 C82.8191124,142.483118 104.248115,142.189894 105.772974,148.162217" id="Fill-99" fill="#FFC30D"></path>
                        <g id="Group-103" transform="translate(0.000000, 135.779421)">
                            <mask id="mask-20" fill="white">
                                <use xlink:href="#path-19"></use>
                            </mask>
                            <g id="Clip-102"></g>
                            <path d="M63.741498,35.9326885 C30.0697615,44.4968375 2.11962249,45.0360991 0.112340329,37.1595087 C-1.90843616,29.2222514 23.383319,15.9126 56.4916671,7.49000719 C89.6033888,-0.932585605 118.184388,-1.33029107 120.208538,6.60696625 C122.21582,14.486927 97.4132345,27.3651691 63.741498,35.9326885" id="Fill-101" fill="url(#linearGradient-21)" mask="url(#mask-20)"></path>
                        </g>
                        <path d="M57.0024277,145.272448 C28.4720323,152.528888 6.68205676,163.998309 8.42619941,170.836821 C10.1433534,177.584332 34.217245,177.085515 63.2300627,169.707742 C92.2428805,162.326598 113.624652,151.258253 111.904125,144.510741 C110.159982,137.67223 85.532823,138.012639 57.0024277,145.272448" id="Fill-104" fill="#F0A700"></path>
                        <path d="M57.1555883,145.874736 C29.330272,152.955916 8.07669616,164.138854 9.77698223,170.808847 C11.4536532,177.391209 34.9337941,176.905873 63.2314122,169.706731 C91.5256566,162.510958 112.38115,151.712244 110.701105,145.133252 C109.000819,138.463259 84.9809047,138.793557 57.1555883,145.874736" id="Fill-106" fill="url(#linearGradient-22)"></path>
                        <g id="Group-111" opacity="0.398549107" style="mix-blend-mode: multiply;" transform="translate(14.770023, 141.873929)">
                            <mask id="mask-24" fill="white">
                                <use xlink:href="#path-23"></use>
                            </mask>
                            <g id="Clip-110"></g>
                            <polygon id="Fill-109" fill="#FFDD00" mask="url(#mask-24)" points="2.95208557 35.1077785 -5.0095714 35.2156308 78.5102343 -8.74430425 86.4718913 -8.85215658"></polygon>
                        </g>
                        <g id="Group-114" opacity="0.398549107" style="mix-blend-mode: multiply;" transform="translate(14.770023, 141.873929)">
                            <mask id="mask-26" fill="white">
                                <use xlink:href="#path-25"></use>
                            </mask>
                            <g id="Clip-113"></g>
                            <polygon id="Fill-112" fill="#FFDD00" mask="url(#mask-26)" points="19.8925349 38.4421007 1.19950896 38.7016203 91.3686477 -8.75677467 110.061674 -9.01629434"></polygon>
                        </g>
                        <path d="M56.1624054,84.9017704 C55.2481643,84.9017704 54.5093495,82.6436123 54.5093495,79.8596741 L54.5093495,5.35730764 C54.5093495,2.5733694 55.2481643,0.31521127 56.1624054,0.31521127 C57.0766465,0.31521127 57.8154613,2.5733694 57.8154613,5.35730764 L57.8154613,79.8596741 C57.8154613,82.6436123 57.0766465,84.9017704 56.1624054,84.9017704" id="Fill-116" fill="#EFF1F4"></path>
                        <path d="M74.4570111,76.6203968 C73.54277,76.6203968 72.8039552,75.1980942 72.8039552,73.4421235 L72.8039552,29.8360788 C72.8039552,28.0834785 73.54277,26.6611759 74.4570111,26.6611759 C75.3712522,26.6611759 76.110067,28.0834785 76.110067,29.8360788 L76.110067,73.4421235 C76.110067,75.1980942 75.3712522,76.6203968 74.4570111,76.6203968" id="Fill-118" fill="#EFF1F4"></path>
                    </g>
                    <g id="Group-8" transform="translate(155.184839, 0.000000)">
                        <path d="M147.181687,313.610722 C147.181687,348.302098 119.029133,374.74277 84.3048386,374.74277 C49.5839176,374.74277 21.4347372,348.302098 21.4347372,313.610722 C21.4347372,278.919347 49.5839176,250.793482 84.3048386,250.793482 C119.029133,250.793482 147.181687,278.919347 147.181687,313.610722" id="Fill-1" fill="#FFC30D"></path>
                        <path d="M84.3058507,383.740351 C37.3725576,383.740351 0.610618606,347.899674 0.610618606,302.146694 C0.610618606,256.039823 38.1552289,218.527435 84.3058507,218.527435 C130.456472,218.527435 168.004456,256.039823 168.004456,302.146694 C168.004456,347.899674 131.239144,383.740351 84.3058507,383.740351" id="Fill-3" fill="url(#linearGradient-27)"></path>
                        <path d="M84.3058507,230.167398 C44.5414224,230.167398 12.1921306,262.489393 12.1921306,302.216124 C12.1921306,341.403593 43.8667057,372.101062 84.3058507,372.101062 C124.744996,372.101062 156.422944,341.403593 156.422944,302.216124 C156.422944,262.489393 124.073653,230.167398 84.3058507,230.167398" id="Fill-5" fill="#F0A700"></path>
                        <path d="M84.3058507,233.672599 C45.5231352,233.672599 13.9700091,265.195812 13.9700091,303.941761 C13.9700091,342.15856 44.8652864,372.101062 84.3058507,372.101062 C123.746415,372.101062 154.645066,342.15856 154.645066,303.941761 C154.645066,265.195812 123.09194,233.672599 84.3058507,233.672599" id="Fill-7" fill="url(#linearGradient-28)"></path>
                        <g id="Group-12" opacity="0.445145089" style="mix-blend-mode: multiply;" transform="translate(21.517190, 239.438830)">
                            <mask id="mask-30" fill="white">
                                <use xlink:href="#path-29"></use>
                            </mask>
                            <g id="Clip-11"></g>
                            <polygon id="Fill-10" fill="#FFDD00" mask="url(#mask-30)" points="0.792317438 109.182443 -9.66579129 98.7308785 114.323522 -25.1408914 124.785004 -14.6926971"></polygon>
                        </g>
                        <g id="Group-15" opacity="0.445145089" style="mix-blend-mode: multiply;" transform="translate(21.928292, 239.615101)">
                            <mask id="mask-32" fill="white">
                                <use xlink:href="#path-31"></use>
                            </mask>
                            <g id="Clip-14"></g>
                            <polygon id="Fill-13" fill="#FFDD00" mask="url(#mask-32)" points="21.4431712 150.711319 -3.11314282 126.178285 130.750649 -7.55523232 155.306963 16.9744317"></polygon>
                        </g>
                        <path d="M49.1237608,169.895472 C47.8890293,169.895472 46.8904486,166.848644 46.8904486,163.087294 L46.8904486,6.88678847 C46.8904486,3.12543851 47.8890293,0.0786102241 49.1237608,0.0786102241 C50.3551188,0.0786102241 51.3570731,3.12543851 51.3570731,6.88678847 L51.3570731,163.087294 C51.3570731,166.848644 50.3551188,169.895472 49.1237608,169.895472" id="Fill-195" fill="#EFF1F4"></path>
                        <path d="M70.7916127,160.465471 C69.5602547,160.465471 68.5583004,158.544352 68.5583004,156.174971 L68.5583004,106.930272 C68.5583004,104.560891 69.5602547,102.639771 70.7916127,102.639771 C72.0263442,102.639771 73.0249249,104.560891 73.0249249,106.930272 L73.0249249,156.174971 C73.0249249,158.544352 72.0263442,160.465471 70.7916127,160.465471" id="Fill-197" fill="#EFF1F4"></path>
                        <path d="M92.4614887,169.895472 C91.2267571,169.895472 90.2281764,167.974353 90.2281764,165.604972 L90.2281764,81.78349 C90.2281764,79.4141091 91.2267571,77.4929895 92.4614887,77.4929895 C93.6928467,77.4929895 94.6948009,79.4141091 94.6948009,81.78349 L94.6948009,165.604972 C94.6948009,167.974353 93.6928467,169.895472 92.4614887,169.895472" id="Fill-199" fill="#EFF1F4"></path>
                    </g>
                    <g id="Group-9" transform="translate(33.324732, 364.412877)">
                        <path d="M3.40009745,21.4140799 C7.6339447,28.4615555 21.4217803,38.3974512 39.1162255,46.5032278 C56.8106708,54.6123748 73.3446033,58.5658367 81.4513244,57.1738676 L84.4133307,58.5321329 L91.9769048,42.0509489 C94.8444507,35.8089954 78.644503,22.4656401 55.1036376,11.6804072 C31.5593986,0.891803943 10.8692112,-2.6673229 8.00503888,3.578001 L0.441464758,20.059185 L3.40009745,21.4140799 Z" id="Fill-249" fill="url(#linearGradient-33)"></path>
                        <path d="M11.603303,23.2802622 C13.7758907,18.5448709 29.5541406,21.406328 46.971952,29.3874003 C64.393137,37.3684726 76.8585279,47.4459246 74.6859401,52.1813159 C72.5133524,56.9133368 56.6271479,54.2810659 39.2093365,46.303364 C21.791525,38.3222916 9.42734166,28.0122831 11.603303,23.2802622" id="Fill-251" fill="#FFC30D"></path>
                        <path d="M47.5383767,28.1582208 C71.0826156,38.946824 87.2791898,52.2868089 84.4116439,58.5321329 C81.5238564,64.8246422 60.3377523,61.3127007 37.1882226,50.7060983 C14.0353193,40.0994958 -2.44800948,26.3516943 0.439777967,20.059185 C3.30732391,13.8138611 23.9941377,17.3729879 47.5383767,28.1582208" id="Fill-253" fill="#F2A500"></path>
                        <path d="M37.9165793,49.1179727 C57.8645783,58.2584576 76.1190384,61.2816932 78.608743,55.8587433 C81.0647117,50.5099418 67.0947026,39.0438911 46.8093453,29.7483686 C26.5206143,20.452846 8.70809367,17.3622027 6.25212491,22.7110041 C3.76242032,28.1305836 17.9685803,39.9774879 37.9165793,49.1179727" id="Fill-255" fill="url(#linearGradient-34)"></path>
                    </g>
                </g>
            </g>
        </g>
    </g>
</svg>