<?xml version="1.0" encoding="UTF-8"?>
<svg width="469px" height="469px" viewBox="0 0 469 469" version="1.1" xmlns="http://www.w3.org/2000/svg" xmlns:xlink="http://www.w3.org/1999/xlink">
    <!-- Generator: Sketch 59.1 (86144) - https://sketch.com -->
    <title>img_game_changing_reporting</title>
    <desc>Created with Sketch.</desc>
    <defs>
        <linearGradient x1="46.7060004%" y1="-5.54748012%" x2="50.824924%" y2="38.5834311%" id="linearGradient-1">
            <stop stop-color="#80C3F3" offset="0%"></stop>
            <stop stop-color="#4A90E2" offset="100%"></stop>
        </linearGradient>
    </defs>
    <g id="Page-1" stroke="none" stroke-width="1" fill="none" fill-rule="evenodd">
        <g id="Amazon-SEO" transform="translate(-153.000000, -3450.000000)" fill-rule="nonzero">
            <g id="img_game_changing_reporting" transform="translate(153.000000, 3450.000000)">
                <polygon id="Path" fill="#FF5254" points="0 0 469 0 469 44 0 44"></polygon>
                <path d="M0,430.666667 L195.416667,430.666667 L195.416667,446 C195.416667,458.682967 205.935555,469 218.866667,469 L250.133333,469 C263.064445,469 273.583333,458.682967 273.583333,446 L273.583333,430.666667 L469,430.666667 L469,400 L0,400 L0,430.666667 Z M257.95,430.666667 L257.95,446 C257.95,450.23016 254.442427,453.666667 250.133333,453.666667 L218.866667,453.666667 C214.557573,453.666667 211.05,450.23016 211.05,446 L211.05,430.666667 L257.95,430.666667 Z" id="Shape" fill="#FF5254"></path>
                <path d="M25,63 L25,382 L450,382 L450,63 L25,63 Z M143.055556,117.463415 L143.055556,164.146341 L176.447019,131.136221 C184.992273,139.584431 190.277778,151.255162 190.277778,164.146341 C190.277778,189.9287 169.135759,210.829268 143.055556,210.829268 C116.975352,210.829268 95.8333333,189.9287 95.8333333,164.146341 C95.8333333,138.363983 116.975352,117.463415 143.055556,117.463415 Z M72.2222222,358.658537 L56.4814815,358.658537 L56.4814815,343.097561 L72.2222222,343.097561 L72.2222222,358.658537 Z M56.4814815,164.146341 L72.2222222,164.146341 C72.2222222,202.760047 103.99963,234.170732 143.055556,234.170732 C182.111481,234.170732 213.888889,202.760047 213.888889,164.146341 C213.888889,125.532636 182.111481,94.1219512 143.055556,94.1219512 L143.055556,78.5609756 C190.792736,78.5609756 229.62963,116.954337 229.62963,164.146341 C229.62963,211.338346 190.792736,249.731707 143.055556,249.731707 C95.318375,249.731707 56.4814815,211.338346 56.4814815,164.146341 Z M103.703704,358.658537 L87.962963,358.658537 L87.962963,343.097561 L103.703704,343.097561 L103.703704,358.658537 Z M394.907407,304.195122 C393.143028,304.195122 391.475611,303.84321 389.892329,303.313748 L347.37769,340.084878 C347.571852,341.060785 347.685185,342.065635 347.685185,343.097561 C347.685185,351.691499 340.637662,358.658537 331.944444,358.658537 C323.251227,358.658537 316.203704,351.691499 316.203704,343.097561 C316.203704,342.477845 316.317037,341.889018 316.388185,341.288286 L275.163815,310.72334 C273.264931,311.526364 271.177236,311.97561 268.981481,311.97561 C267.215606,311.97561 265.546852,311.623231 263.962074,311.092836 L221.452236,347.867311 C221.645926,348.842673 221.759259,349.84659 221.759259,350.878049 C221.759259,359.471987 214.711736,366.439024 206.018519,366.439024 C200.207037,366.439024 195.18763,363.290105 192.461019,358.658537 L119.444444,358.658537 L119.444444,343.097561 L192.461019,343.097561 C195.18763,338.465992 200.206958,335.317073 206.018519,335.317073 C207.78337,335.317073 209.451259,335.669451 211.035014,336.198914 L253.548157,299.427784 C253.354074,298.451877 253.240741,297.44656 253.240741,296.414634 C253.240741,287.82023 260.288264,280.853659 268.981481,280.853659 C277.674699,280.853659 284.722222,287.82023 284.722222,296.414634 C284.722222,297.03435 284.608889,297.623177 284.537741,298.223909 L325.762111,328.788855 C327.660995,327.985831 329.74869,327.536585 331.944444,327.536585 C333.710319,327.536585 335.379074,327.88943 336.963852,328.41936 L379.47369,291.642939 C379.28,290.668044 379.166667,289.664672 379.166667,288.634146 C379.166667,280.039742 386.21419,273.073171 394.907407,273.073171 C403.600625,273.073171 410.648148,280.039742 410.648148,288.634146 C410.648148,297.228084 403.600625,304.195122 394.907407,304.195122 Z M410.648148,234.170732 L237.5,234.170732 L237.5,218.609756 L261.111111,218.609756 L261.111111,179.707317 L292.592593,179.707317 L292.592593,133.02439 L324.074074,133.02439 L324.074074,156.365854 L355.555556,156.365854 L355.555556,94.1219512 L387.037037,94.1219512 L387.037037,218.609756 L410.648148,218.609756 L410.648148,234.170732 Z" id="Shape" fill="url(#linearGradient-1)"></path>
            </g>
        </g>
    </g>
</svg>