<?xml version="1.0" encoding="UTF-8"?>
<svg width="101px" height="54px" viewBox="0 0 101 54" version="1.1" xmlns="http://www.w3.org/2000/svg" xmlns:xlink="http://www.w3.org/1999/xlink">
    <!-- Generator: Sketch 59.1 (86144) - https://sketch.com -->
    <title>img_games</title>
    <desc>Created with Sketch.</desc>
    <g id="Page-1" stroke="none" stroke-width="1" fill="none" fill-rule="evenodd">
        <g id="Social-Media---Tik-Tok---Douyin" transform="translate(-295.000000, -2197.000000)" fill="#FF5254" fill-rule="nonzero">
            <g id="img_games" transform="translate(295.000000, 2197.000000)">
                <path d="M93.1088683,7.9099398 C87.8484209,2.6368313 81.5016509,0 74.0663473,0 L26.9334684,0 C19.4992703,0 13.1504736,2.6366466 7.89094743,7.9099398 C2.63013156,13.183233 0,19.5464633 0,26.9996306 C0,34.4537214 2.63086855,40.8163976 7.89094743,46.0893214 C13.1504736,51.3622452 19.4985333,54 26.9334684,54 C33.667158,54 39.5927385,51.7490149 44.7135263,47.2492612 L56.2862894,47.2492612 C61.4067088,51.7490149 67.3322893,54 74.0663473,54 C81.5003612,54 87.8484209,51.3635381 93.1088683,46.0893214 C98.3694999,40.8152894 101,34.4539061 101,26.9996306 C101,19.5464633 98.3693157,13.183233 93.1088683,7.9099398 Z M43.7663105,30.3749076 C43.7663105,30.867328 43.6089632,31.2718293 43.2931631,31.5871186 C42.9775474,31.9038856 42.5745983,32.0618074 42.0832105,32.0618074 L31.9831368,32.0618074 L31.9831368,42.1870844 C31.9831368,42.6795047 31.8257895,43.084006 31.5099895,43.3994801 C31.1943737,43.7160624 30.7916089,43.8739841 30.3000368,43.8739841 L23.5667158,43.8739841 C23.0758807,43.8739841 22.6723789,43.7160624 22.3567632,43.3994801 C22.0415159,43.084006 21.8841686,42.6795047 21.8841686,42.1870844 L21.8841686,32.0618074 L11.7831737,32.0618074 C11.2923386,32.0618074 10.8888368,31.9038856 10.573221,31.5871186 C10.2579737,31.2718293 10.1006264,30.867328 10.1006264,30.3749076 L10.1006264,23.6249076 C10.1006264,23.1328568 10.2579737,22.7283555 10.573221,22.4119579 C10.8888368,22.0953756 11.2923386,21.9376385 11.7831737,21.9376385 L21.8838001,21.9376385 L21.8838001,11.8125462 C21.8838001,11.3204953 22.0411474,10.915994 22.3563947,10.5995964 C22.6718262,10.2828294 23.0755122,10.1252771 23.5663473,10.1252771 L30.2996684,10.1252771 C30.7910562,10.1252771 31.1940052,10.2830141 31.509621,10.5995964 C31.825421,10.915994 31.9827683,11.3204953 31.9827683,11.8125462 L31.9827683,21.9376385 L42.082842,21.9376385 C42.5742298,21.9376385 42.9771789,22.0953756 43.2927946,22.4119579 C43.6085947,22.7283555 43.765942,23.1328568 43.765942,23.6249076 L43.765942,30.3749076 L43.7663105,30.3749076 Z M72.0941632,38.5220071 C70.778821,39.8406075 69.191714,40.5003694 67.3322893,40.5003694 C65.4748913,40.5003694 63.8872315,39.8406075 62.5724421,38.5220071 C61.2570999,37.2046997 60.5997052,35.6131071 60.5997052,33.7498153 C60.5997052,31.8863388 61.2570999,30.295485 62.5724421,28.9774388 C63.8872315,27.6601313 65.4748913,26.9996306 67.3322893,26.9996306 C69.191714,26.9996306 70.778821,27.6601313 72.0941632,28.9774388 C73.4082156,30.295485 74.0663473,31.8863388 74.0663473,33.7498153 C74.0663473,35.6131071 73.4082156,37.2046997 72.0941632,38.5220071 Z M85.5595156,25.0221918 C84.2456474,26.3400534 82.6579876,26.9996306 80.7991156,26.9996306 C78.9402436,26.9996306 77.3533208,26.3407922 76.0387157,25.0221918 C74.7233735,23.7034068 74.0657946,22.1131071 74.0657946,20.2492612 C74.0657946,18.3865235 74.7233735,16.7956697 76.0387157,15.4774388 C77.3533208,14.1588384 78.9402436,13.4998153 80.7991156,13.4998153 C82.6579876,13.4998153 84.2456474,14.1588384 85.5595156,15.4774388 C86.8748577,16.7956697 87.5331737,18.3865235 87.5331737,20.2492612 C87.5331737,22.1129224 86.8755947,23.7039609 85.5595156,25.0221918 Z" id="Shape"></path>
            </g>
        </g>
    </g>
</svg>