<?xml version="1.0" encoding="UTF-8"?>
<svg width="273px" height="290px" viewBox="0 0 273 290" version="1.1" xmlns="http://www.w3.org/2000/svg" xmlns:xlink="http://www.w3.org/1999/xlink">
    <!-- Generator: Sketch 63.1 (92452) - https://sketch.com -->
    <title>img_generate_new_leads_mob</title>
    <desc>Created with Sketch.</desc>
    <defs>
        <linearGradient x1="85.5443525%" y1="34.9050672%" x2="50%" y2="66.1498916%" id="linearGradient-1">
            <stop stop-color="#DA3E3F" offset="0%"></stop>
            <stop stop-color="#FF5254" offset="100%"></stop>
        </linearGradient>
        <linearGradient x1="36.3458636%" y1="94.1440144%" x2="69.0877825%" y2="5.56280504%" id="linearGradient-2">
            <stop stop-color="#427FDF" offset="0%"></stop>
            <stop stop-color="#396BB1" offset="100%"></stop>
        </linearGradient>
        <filter x="-8.5%" y="-180.1%" width="117.0%" height="460.1%" filterUnits="objectBoundingBox" id="filter-3">
            <feGaussianBlur stdDeviation="6.60267857" in="SourceGraphic"></feGaussianBlur>
        </filter>
    </defs>
    <g id="Page-1" stroke="none" stroke-width="1" fill="none" fill-rule="evenodd">
        <g id="Hubspot---Mobile" transform="translate(-45.000000, -4175.000000)">
            <g id="img_generate_new_leads_mob" transform="translate(58.000000, 4175.000000)">
                <g id="Group" transform="translate(7.000000, 0.000000)">
                    <path d="M30.7994085,210.829729 L60.0787882,183.86563 C60.1157835,183.908196 60.182017,183.480746 60.2190123,183.523311 C77.9588472,203.9102 103.50588,199.971429 123.795406,182.148638 L170.114694,141.462987 L240.200467,123.381208 L246.578574,130.7114 L151.620036,214.123429 C113.780425,247.361984 62.4721443,250.817552 29.3894108,212.800314 C29.353609,212.757748 29.1035925,212.466987 29.0665972,212.425021 L29.0707741,212.421424 C29.177583,212.546122 29.2837953,212.674417 29.3917976,212.798515 L30.7994085,210.829729 Z" id="Fill-1" fill="#AD3551"></path>
                    <polygon id="Fill-3" fill="#CCCACD" points="204.132036 111.5818 225.201446 106.146055 240.20005 123.381328 170.114276 141.463107"></polygon>
                    <polygon id="Fill-5" fill="#CCCACD" points="111.40491 6.15083833 132.84129 0.00647469287 147.88942 17.2993002 78.2642969 35.2617769"></polygon>
                    <path d="M147.889181,17.2991204 L154.410495,24.7935774 L59.4513601,108.205007 C39.2030064,125.991828 37.0978554,156.982226 54.7189474,177.370314 L30.7997068,210.829489 L29.0704757,212.421784 C-3.65364222,174.407543 -16.2678403,118.299533 31.6267304,76.2284177 L78.2640583,35.2615971 L147.889181,17.2991204 Z" id="Fill-7" fill="#2A3E61"></path>
                    <path d="M29.391559,212.798635 C29.2835566,212.674537 29.177941,212.546242 29.0705354,212.421544 L30.7991698,210.829849 L29.391559,212.798635 Z" id="Fill-9" fill="#2A3E61"></path>
                    <polygon id="Fill-11" fill="#F1F2F2" points="225.201207 106.145815 252.83012 137.895191 218.626191 167.939565 190.928061 136.108656"></polygon>
                    <path d="M61.0759901,184.682641 C78.8152283,205.06953 109.755816,207.154621 130.046535,189.33183 L190.927643,136.108656 L218.62637,167.939565 L157.869971,221.306621 C120.030957,254.544577 62.3314429,250.656164 29.2499028,212.638326 C29.1514476,212.525619 29.0589594,212.411113 28.9616976,212.298405 C38.1251906,204.248803 50.7411788,193.166886 60.7907684,184.340321 C60.8880302,184.45183 60.9769382,184.569933 61.0759901,184.682641" id="Fill-14" fill="url(#linearGradient-1)"></path>
                    <polygon id="Fill-17" fill="#F1F2F2" points="132.83592 0 160.661146 31.9765897 126.45841 62.0203636 98.6331837 30.0443735"></polygon>
                    <path d="M126.458708,62.0204835 L65.7017132,115.38814 C45.5243665,133.112012 43.3673028,163.948936 60.7908877,184.340022 C50.7407014,193.167186 38.1253099,204.248503 28.9612203,212.298705 C-3.80406981,174.27727 0.149055189,116.551786 37.8776802,83.4121494 L98.6328854,30.0444934 L126.458708,62.0204835 Z" id="Fill-19" fill="url(#linearGradient-2)"></path>
                </g>
                <ellipse id="Oval-4" fill="#000000" opacity="0.2" filter="url(#filter-3)" cx="116.5" cy="268.5" rx="116.5" ry="5.5"></ellipse>
            </g>
        </g>
    </g>
</svg>