<?xml version="1.0" encoding="UTF-8"?>
<svg width="493px" height="710px" viewBox="0 0 493 710" version="1.1" xmlns="http://www.w3.org/2000/svg" xmlns:xlink="http://www.w3.org/1999/xlink">
    <!-- Generator: Sketch 63.1 (92452) - https://sketch.com -->
    <title>img_can_I_diy_amazon_automated_ads_tc</title>
    <desc>Created with Sketch.</desc>
    <defs>
        <polygon id="path-1" points="0.804210069 -0.00228741392 71.5294545 -0.00228741392 71.5294545 117.957104 0.804210069 117.957104"></polygon>
    </defs>
    <g id="Page-1" stroke="none" stroke-width="1" fill="none" fill-rule="evenodd">
        <g id="img_can_I_diy_amazon_automated_ads_tc">
            <g id="Group-112">
                <path d="M177.697581,340.968155 C178.96672,345.345817 179.574758,350.593455 176.562209,354.002254 C174.31026,356.552186 170.680831,357.2855 167.306777,357.631046 C164.041064,357.966593 160.754346,358.077701 157.475367,357.966593 C154.733671,357.872151 151.84273,357.566603 149.627264,355.942202 C147.024864,354.033364 145.90497,350.729007 145.008391,347.61909 C141.520468,335.529411 139.160178,323.113073 137.96732,310.581184 C136.28582,292.912764 153.624832,306.672399 159.846712,312.404469 C168.188983,320.090931 174.526943,330.028445 177.697581,340.968155" id="Fill-1" fill="#FF5254"></path>
                <path d="M55.4106238,681.909285 C52.4002962,682.109102 49.6468675,681.051829 46.7298578,680.723559 C46.868188,670.417626 47.9847099,660.535481 50.2056774,650.360197 C54.7420281,655.397336 58.5625751,652.47035 58.4077771,661.9331 C58.3583735,664.996225 54.819976,677.247626 55.4106238,681.909285" id="Fill-3" fill="#F8C2A4"></path>
                <path d="M46.3051329,675.043728 C42.8545703,673.804125 42.0754824,682.074812 42.0489226,684.019745 C42.0334294,685.18826 42.1717617,686.380101 41.8762838,687.510851 C41.5498194,688.754897 40.7319984,689.800118 39.9340973,690.806463 C38.2630423,692.914677 36.593094,695.022891 34.922039,697.131106 C34.1717242,698.07858 33.4081296,699.049381 33.0053057,700.191238 C32.0070993,703.020332 33.6549145,706.374815 36.3241759,707.728826 C45.5858046,712.42399 54.0451055,701.054295 56.0514782,693.547808 C56.3580227,692.398176 56.5826745,691.226328 56.8073263,690.057813 C57.2710164,687.637477 59.095897,682.360276 58.138637,679.996588 C57.0220181,677.238582 53.6400684,679.236831 51.4234305,678.197164 C49.3683648,677.233028 47.7006298,675.546901 46.3051329,675.043728" id="Fill-5" fill="#242448"></path>
                <path d="M111.487017,510.691076 C102.813346,534.231934 92.805605,557.258528 87.0980133,581.901062 C80.0463472,612.34347 68.6778562,642.029999 62.8435279,672.538907 C59.0736714,672.661931 55.2949211,672.501223 51.5484107,672.060109 C47.2538204,671.554712 40.4378397,670.399836 38.8880963,665.724914 C38.0965487,663.335362 38.9359004,659.449569 39.0570784,656.966917 C39.4439584,649.01689 40.0131611,641.07573 40.6001515,633.137895 C42.2588439,610.679872 43.3961377,587.945876 47.5395335,565.807051 C51.8986038,542.515567 56.0731279,519.144283 59.9074645,495.857232 C61.8907803,483.821913 64.3310148,471.860852 67.3348934,460.035007 C68.1075417,456.988217 76.1653182,425.58489 77.7473016,425.833882 C96.5198754,428.814554 114.081781,435.011208 130.431908,444.676925 C132.020562,445.616786 133.554741,446.737304 134.107268,448.409769 C134.659795,450.081125 134.158408,451.523058 133.645903,453.040358 C128.759875,467.516212 122.245172,481.090996 117.035633,495.510326 C115.223522,500.526612 113.38473,505.54179 111.487017,510.691076" id="Fill-7" fill="#1E57B1"></path>
                <path d="M113.319905,680.466517 C116.068363,681.566175 118.944431,681.372707 121.760448,681.934211 C124.62472,671.928321 126.454166,662.036957 127.338863,651.529605 C121.644633,655.033168 118.932635,651.051493 116.327874,660.247927 C115.483927,663.224454 115.224416,676.136821 113.319905,680.466517" id="Fill-9" fill="#F8C2A4"></path>
                <path d="M124.700129,678.119238 C124.706612,683.872176 129.03486,690.067126 131.430199,695.241265 C131.712194,695.850586 131.999591,696.483647 132.011476,697.159665 C132.028763,698.163518 131.441003,699.056586 130.879173,699.870521 C130.099095,701.002116 129.249868,702.189105 128.008441,702.697814 C126.788622,703.19861 125.418622,702.947647 124.138299,702.653726 C121.997945,702.161974 119.878119,701.567349 117.789625,700.873243 C117.268853,700.701413 116.737276,700.514886 116.313742,700.154267 C115.810257,699.728082 115.508814,699.102935 115.220336,698.495875 C113.743372,695.384834 112.486819,693.178166 112.566772,689.71216 C112.649966,686.131976 113.081062,682.42405 112.455486,678.87665 C112.14648,677.154951 111.735912,674.955066 113.145888,674.009997 C114.234973,673.280847 116.229468,674.285831 117.414712,674.488184 C119.507527,674.845411 121.440437,674.709755 123.367945,675.860569 C123.760145,676.094575 124.142621,676.376061 124.38464,676.775115 C124.6299,677.180952 124.700129,677.638791 124.700129,678.119238" id="Fill-11" fill="#242448"></path>
                <path d="M110.266272,499.748292 C111.519492,524.839338 114.194209,549.83379 112.299987,575.099149 C109.960717,606.308907 111.950148,638.078241 108.434047,668.991556 C111.981147,670.228399 115.622349,671.197667 119.314477,671.888257 C123.547969,672.679881 130.37204,673.600297 133.233854,669.588883 C134.696313,667.538209 135.052795,663.573427 135.676084,661.163025 C137.668836,653.444411 139.48667,645.679166 141.287897,637.912811 C146.381594,615.94052 152.05319,593.860532 154.691373,571.455235 C157.466835,547.883042 160.440465,524.290863 163.713007,500.880769 C165.403526,488.77991 166.635711,476.614656 167.294427,464.413872 C167.463811,461.269581 169.132188,428.840744 167.554592,428.610918 C148.820502,425.884089 130.281259,426.594663 111.86601,430.98357 C110.075854,431.409915 108.28459,432.025006 107.262751,433.460588 C106.240912,434.89728 106.288516,436.423905 106.32505,438.027138 C106.670461,453.324471 108.83149,468.242091 109.501276,483.579395 C109.733764,488.915364 109.991715,494.260215 110.266272,499.748292" id="Fill-13" fill="#1E57B1"></path>
                <path d="M99.6698809,298.423191 C99.3650508,298.52605 99.0613292,298.63444 98.7598245,298.748359 C93.7240308,300.656233 89.4408905,304.087087 85.2508619,307.463747 C78.9580597,312.535926 75.8587687,314.760119 73.4278871,322.271058 C71.1610594,329.276549 69.7411053,336.674675 68.3532969,343.894732 C61.2269229,380.958357 59.8501992,417.86714 54.7345955,455.20948 C53.3423532,465.373746 52.2671342,477.323118 59.8014264,484.304276 C73.1696128,473.924338 89.9729576,473.325984 106.185486,473.3105 C117.571723,473.300546 128.70301,469.620839 140.116958,470.889436 C151.024335,472.100521 160.550553,469.380834 171.619766,470.099742 C174.288969,470.273387 177.689765,470.24463 178.741706,467.790386 C174.910823,456.33319 174.977331,444.012197 174.109397,431.965496 C171.866956,400.804667 161.520467,370.90248 157.345957,339.951793 C155.926003,329.432497 155.168916,311.970753 147.003902,304.007454 C138.130575,295.354003 117.890963,295.177041 106.488099,296.870348 C104.17915,297.213212 101.879068,297.677738 99.6698809,298.423191" id="Fill-15" fill="#FF5254"></path>
                <path d="M108.972667,297.228709 C109.158911,297.59278 109.407972,297.942465 109.741889,298.272232 C111.059925,299.578019 112.884898,300.317227 114.696647,300.577278 C117.084761,300.92143 119.511447,300.523054 121.880826,300.069349 C125.082244,299.456293 124.969836,297.573968 125.433794,294.655866 C125.687262,293.061257 125.845955,291.454475 125.964975,289.84548 C126.031098,288.962414 125.690568,285.804181 126.250403,285.185592 C126.630606,284.766191 128.177866,284.907836 128.855618,284.551511 C129.931207,283.988252 130.828265,282.950262 131.474058,281.943257 C132.515483,280.316556 133.088542,278.440871 133.649479,276.592851 C134.624782,273.375967 135.601187,270.159084 136.57649,266.942201 C137.573833,263.655602 138.576687,260.342444 138.897379,256.92084 C139.380072,251.766302 138.550238,244.487094 134.674374,240.716911 C131.139039,237.277601 125.981506,236.073622 121.250461,235.466099 C114.987585,234.662708 108.494383,235.813571 103.084484,239.153287 C100.900246,240.501124 98.8284167,242.249551 97.5390335,244.653084 C95.5509587,248.357977 95.7019378,252.984668 95.915733,257.310363 C96.1129976,261.302972 96.3102622,265.294475 96.5075268,269.287084 C96.7345465,273.87947 97.3042996,279.171226 100.730533,281.661074 C102.549996,282.982353 104.928191,283.265643 106.48537,284.960952 C108.435975,287.084516 108.309241,290.270415 108.391894,292.963876 C108.438179,294.503156 108.323567,295.95944 108.972667,297.228709" id="Fill-17" fill="#F5CEB0"></path>
                <path d="M128.402781,245.503649 C128.620555,245.881692 128.801662,246.272002 128.942771,246.680154 C129.678314,248.812361 129.181656,251.220015 129.900532,253.358913 C131.040512,256.750148 134.982664,258.78868 135.577098,262.318196 C136.062645,265.204258 134.098236,267.947579 133.932683,270.870442 C133.751575,274.062061 135.788206,277.084174 135.472656,280.235647 C135.197105,282.972277 133.468247,286.819617 131.839387,289.013158 C132.343822,288.332904 136.909297,288.576011 138.09372,287.848919 C139.908133,286.737094 140.114796,286.035652 140.654786,284.138746 C141.191443,282.254107 140.775895,280.396232 141.611436,278.465871 C142.635862,276.098363 144.742492,274.358697 145.479145,271.83395 C146.485794,268.388071 144.65916,264.751499 144.80138,261.162879 C145.018042,255.731997 149.694627,250.614477 147.996879,245.453466 C147.001341,242.424662 144.071393,240.488725 142.423644,237.762132 C141.172555,235.69126 140.711452,233.251266 139.84369,230.991929 C138.975927,228.732593 137.483731,226.472142 135.169328,225.786311 C133.883795,225.406038 132.500486,225.562162 131.182731,225.315709 C128.906105,224.890829 127.012805,223.312862 124.817288,222.567928 C121.678455,221.501825 116.139664,224.687868 114.306363,227.358702 C112.487506,230.009464 113.405268,232.263224 115.265235,234.607314 C118.361847,238.510412 125.84727,241.065268 128.402781,245.503649" id="Fill-19" fill="#242448"></path>
                <path d="M86.2929533,229.417706 C84.4166842,230.803851 82.0993312,231.80415 80.3848668,233.422249 C77.0434898,236.579269 76.4084619,241.627602 76.2876626,246.237676 C76.1801622,250.342583 74.395878,253.990274 74.8380701,258.268031 C75.1350814,261.140685 76.3475081,264.046794 78.6726189,265.742954 C81.5651542,267.855068 86.1078753,268.201883 87.4000961,271.556287 C88.8020337,275.200632 85.0494956,279.789519 87.3280598,282.954345 C88.5837082,284.701802 91.0462421,284.957174 92.8438254,286.130323 C94.8486516,287.439522 95.8782168,289.778014 97.1039425,291.843292 C98.32856,293.909685 100.168257,295.979423 102.557646,296.029605 C102.654064,292.372993 102.761564,289.473575 101.208905,286.129208 C100.304572,284.181022 97.6414443,280.585744 99.6872758,278.475859 C100.97728,276.721712 104.022754,276.151864 104.100332,273.97061 C104.138012,272.946892 103.427623,272.074837 102.867956,271.219508 C100.699109,267.908596 100.477459,263.495905 101.948108,259.815874 C103.418757,256.136959 106.448716,253.197395 109.995119,251.468896 C114.152169,249.443764 113.482785,248.422276 114.690779,244.416619 C115.802355,240.731013 117.881434,239.866763 121.178481,238.522994 C124.138619,237.31639 125.090607,236.565887 126.183343,233.777985 C126.982392,231.737241 127.967627,229.293924 126.807288,227.016765 C125.886331,225.207974 124.227279,223.913273 122.620315,222.679905 C119.263423,220.104999 115.490936,217.397388 111.28069,217.702942 C108.943389,217.871332 106.74351,218.977571 104.402884,219.11139 C102.841358,219.200603 101.288699,218.852673 99.7260646,218.800261 C97.061829,218.709933 94.2513042,219.525115 92.0946477,221.122025 C89.9180425,222.731202 89.9801046,224.417325 88.7710027,226.701175 C88.1780884,227.820796 87.2992452,228.673894 86.2929533,229.417706" id="Fill-21" fill="#242448"></path>
                <path d="M95.1513092,214.989594 C95.5594169,212.477282 95.2969043,209.203032 92.8901718,208.354234 C91.5709912,207.889154 90.0940825,208.399312 88.7230612,208.121144 C85.8012306,207.528524 84.8063302,204.002493 83.2742718,201.4528 C83.0448491,201.07128 82.7724096,200.685363 82.3654049,200.503949 C81.7819212,200.244472 81.1135069,200.474263 80.4792855,200.552326 C77.5728968,200.905259 75.3636002,198.045512 72.6259696,197.008703 C69.2364696,195.72561 64.9733985,197.837711 63.9520262,201.30437 C63.5328886,202.729296 63.6056862,204.259771 63.2119174,205.692393 C61.6169883,211.493248 53.0941552,213.96158 52.8779684,219.973535 C52.7323732,224.036112 56.7207988,227.92827 55.1710925,231.687391 C54.1795011,234.091954 51.0767795,235.731278 51.4308405,238.306259 C51.6591602,239.963175 53.4294653,241.091241 55.1071189,241.067434 C56.7847724,241.043964 58.3256548,240.126998 59.5885827,239.026418 C61.5949285,237.280445 63.10603,235.040805 65.0175182,233.19148 C66.9279035,231.343254 69.4758192,229.843564 72.1185924,230.172308 C74.677538,230.491158 76.993825,232.476818 79.5373288,232.052419 C81.5712494,231.71158 83.0812479,229.902936 85.0809757,229.392777 C86.9505502,228.915603 88.8940253,229.647857 90.8209555,229.763302 C92.7478856,229.878747 95.1138074,228.88042 95.1645451,226.95633 C95.176678,226.490151 95.0465247,226.008579 95.1932229,225.566588 C95.6046396,224.326375 97.7290057,224.397841 98.1327014,223.155429 C97.1278741,221.609561 95.709424,222.163698 94.9880661,220.145054 C94.4299512,218.583793 94.8954146,216.567347 95.1513092,214.989594" id="Fill-23" fill="#242448"></path>
                <path d="M27.4772876,245.424328 C27.6437218,245.283249 27.8245803,245.120897 28.017644,244.921595 C29.8384344,243.038305 30.6905775,240.147309 30.2678346,237.565343 C28.6667375,237.161141 27.0645307,236.756939 25.4634336,236.352737 C24.6312625,238.182283 23.5094959,239.877468 22.1536118,241.354316 C21.849592,241.68574 21.470122,242.031719 21.0240783,241.99365 C20.6035545,241.956701 20.2939868,241.591687 20.0421164,241.249067 C16.3661393,236.232932 14.6074844,229.821684 15.2044285,223.611977 C15.1689225,223.981469 10.8427425,223.000636 10.4566151,222.872993 C8.46162362,222.213506 7.98007395,222.155283 5.96289125,222.877472 C5.64111843,222.943532 5.34375597,223.052141 5.06747517,223.197698 C4.07552724,223.552635 3.08357931,223.908691 2.09163138,224.263627 C1.46361961,224.487562 0.794554056,224.742847 0.413974482,225.294846 C0.0433809604,225.832289 0.0289566616,226.533204 0.0278471002,227.187093 C0.0178610472,233.045223 0.0100941171,238.903352 0,244.761482 C-0.00100149731,245.495987 0.00121762558,246.252886 0.277498425,246.933647 C0.582627821,247.687187 1.18955793,248.268298 1.79870716,248.802382 C4.59813068,251.253346 7.80809193,253.223971 11.2532802,254.604527 C11.8790729,254.855334 12.5437002,255.10838 12.9708813,255.634627 C13.3026402,256.043307 13.4491023,256.568434 13.588907,257.076765 C14.4776658,260.31598 15.3653149,263.555194 16.2540736,266.794408 C20.3150685,265.410492 24.6024139,264.706218 28.8886498,264.720773 C29.5144424,260.283509 28.9885103,255.687251 27.375208,251.51199 C26.9125208,250.31506 26.1879772,248.819177 26.2634274,247.500202 C26.3344393,246.266322 26.7860308,246.013276 27.4772876,245.424328" id="Fill-25" fill="#F5CEB0"></path>
                <polygon id="Fill-27" fill="#FF5254" points="10.514218 256.05024 30.5587105 252.761513 51.0022919 308.794564 99.3009479 300.554933 88.78123 365.024671 27.3426539 328.172893"></polygon>
                <path d="M373.838863,575.518092 L374.56973,620.099809 C374.271394,632.469045 375.383776,644.800489 376.133497,657.12971 C376.831093,668.581925 374.527586,680.385387 379.949756,690.998388 C381.648828,694.326344 385.266566,696.64502 388.018131,692.800197 C390.138645,689.837938 389.162676,684.710396 389.687259,681.272397 C393.625514,655.42794 400.954149,630.223731 404.610704,604.330366 C408.440271,577.206524 397.9719,577.922357 373.838863,575.518092" id="Fill-29" fill="#F5CEB0"></path>
                <polygon id="Fill-31" fill="#2A323B" points="376.736611 683.498578 373.838863 691.033221 388.096147 703.612358 401.156803 704.152961 405.381517 697.244515 387.815248 681.934211"></polygon>
                <path d="M342.296209,575.811385 L334.134437,619.547915 C331.303759,639.11414 324.872528,658.168062 322.044081,677.734288 C321.393594,682.233023 321.721627,687.154242 319.828185,691.397934 C317.978258,695.54848 314.355391,695.713703 311.158744,692.897142 C306.875348,689.123616 308.85024,682.380504 308.930575,677.22642 C309.452749,642.889884 306.735878,609.040147 306.082044,574.648168 C306.073118,574.196853 306.094317,573.680113 306.444665,573.394022 C306.729184,573.161157 307.136435,573.165592 307.504636,573.191096 C310.864184,573.413982 342.119919,576.756153 342.296209,575.811385" id="Fill-33" fill="#F5CEB0"></path>
                <polygon id="Fill-35" fill="#2A323B" points="309.411344 684.273026 304.912322 690.980727 315.922115 706.508878 328.471489 710 334.118483 704.208578 320.510648 685.259353"></polygon>
                <polygon id="Fill-37" fill="#1E57B1" points="419.400474 603.583882 413.358848 539.799764 410.445132 498.356716 400.648468 464.509744 347.752221 456.238487 282.354268 467.531934 279.2109 480.331471 291.797621 598.820901 354.875863 603.583882 354.020187 529.836658 363.750606 575.547701 363.337673 603.583882"></polygon>
                <path d="M295.902036,341.009959 C295.813689,343.163246 295.754054,345.316532 295.716507,347.464257 C294.9512,391.21178 297.346511,435.516533 297.621491,479.626645 C320.051711,476.090851 342.7282,474.142216 365.428983,473.796311 C370.68453,473.71623 394.574687,477.432206 397.89985,474.272347 C402.414386,469.983571 397.44928,470.792165 397.780581,465.206523 C398.20796,457.978111 394.760215,452.057686 396.062231,443.493479 C397.592844,433.426644 400.63861,423.46992 402.392299,413.405309 C405.909618,393.223812 408.026635,372.796512 408.713533,352.318049 C409.323128,334.154145 408.66936,315.31734 400.914694,298.907431 C381.788655,258.441 320.13012,259.169513 303.211653,301.422193 C298.201269,313.935945 296.461935,327.484075 295.902036,341.009959" id="Fill-39" fill="#FFFFFF"></path>
                <path d="M428.982711,249.107381 C435.471228,240.405886 438.216455,231.054145 440.862096,219.314085 C442.831666,210.579187 444.460435,201.749647 446.054901,192.939035 C447.107183,187.110202 448.066518,182.009556 448.0975,176.162908 C448.124056,171.270474 450.770805,164.470726 446.447709,160.614901 C447.285329,158.634099 450.164443,157.913707 451.826406,159.269871 C452.086433,159.482537 452.333183,159.743081 452.658494,159.823248 C453.218383,159.962428 453.755035,159.521507 454.085879,159.047184 C455.055173,157.663184 455.16029,155.873894 455.493347,154.212649 C456.028893,151.537064 456.949501,147.202461 458.919071,145.263971 C460.515751,143.691801 462.629166,142.787691 464.689469,141.918098 C465.070105,141.75665 465.488362,141.592975 465.886702,141.704319 C466.223078,141.797847 466.476467,142.070639 466.712151,142.331183 C468.877572,144.733976 471.295275,147.083324 473.13981,149.699896 C470.287253,152.153907 469.829162,155.756983 468.219205,158.998193 C466.104683,163.254855 463.497769,166.633017 463.202333,171.607845 C462.740923,179.338425 462.881448,187.097954 462.319346,194.838555 C461.220591,209.962344 459.197909,224.985924 457.263747,240.017297 C455.953651,249.974747 454.618105,260.160452 450.683391,269.477677 C446.809534,278.652382 441.204005,284.199515 433.719638,290.726472 C431.999031,292.227382 430.212033,293.76615 428.04108,294.456479 C424.748136,295.505335 421.094472,294.394127 418.220892,292.463431 C410.628088,287.360558 407.794341,276.225093 412.014533,268.078089 C414.280645,263.702289 418.127946,260.419882 421.740668,257.084031 C424.5888,254.452983 426.967775,251.810802 428.982711,249.107381" id="Fill-41" fill="#F5CEB0"></path>
                <path d="M366.088587,284.381975 L349.305687,314.994379 C350.182241,345.918048 351.059901,376.841716 351.936454,407.765385 C352.340422,422.015949 352.744389,436.26762 353.149463,450.518184 C353.290021,455.467389 353.411765,460.416594 353.568925,465.364691 C353.640864,467.586738 353.027719,471.325226 354.293852,473.137424 C357.041936,477.071975 367.085778,475.845751 371.467438,476.190246 C378.300571,476.728588 385.233312,477.286869 391.668012,479.647378 C395.952278,481.219205 400.012978,483.587468 404.532984,484.22218 C405.547882,484.365074 406.684524,484.38612 407.481391,483.740331 C408.373439,483.019218 408.525065,481.739824 408.609179,480.59557 C410.180777,459.366494 410.212873,437.479444 411.389358,416.022182 C412.352239,398.46181 414.808138,379.905615 413.285237,362.323089 C413.259782,362.030656 413.232113,361.736008 413.177882,361.446898 C411.621778,352.989606 413.177882,325.052298 413.177882,325.050082 C413.24318,323.874812 417.25961,320.830852 418.035449,320.028877 C422.02753,315.902694 426.018505,311.775402 430.011693,307.648111 C437.978147,299.413467 453.358783,289.240348 447.176425,275.920252 C446.423829,274.300795 445.279439,272.897338 444.060897,271.592467 C435.034167,261.915598 423.497307,256.488974 417.034938,244.575658 C405.727177,250.158467 396.512298,261.187839 384.484036,265.780364 C378.221991,268.165243 371.601356,268.986049 365.054874,267.379883 C361.204458,266.435015 352.911509,263.430932 354.994431,271.058556 C356.186411,275.424003 363.144607,280.877211 366.088587,284.381975" id="Fill-43" fill="#427FE0"></path>
                <path d="M329.099761,286.547539 L345.800948,317.218173 C345.451813,317.218173 343.683012,392.398739 343.539834,397.473887 C342.996858,416.771216 342.452781,436.069655 341.909805,455.368094 C341.757816,460.732903 342.473707,467.015522 341.43181,472.288216 C339.979102,479.649568 332.289331,478.20016 325.733972,478.795016 C311.400732,480.09793 296.308648,482.563922 281.934658,481.832559 C277.787997,481.621696 283.245289,394.429686 283.236478,386.293689 C283.208944,357.02918 277.218588,324.561768 291.970349,298.024056 C296.263492,290.303127 303.829909,277.924336 312.182706,274.112148 C319.964992,270.559655 331.108661,269.95481 339.557277,267.963816 L339.997825,273.481778 L329.099761,286.547539 Z" id="Fill-45" fill="#427FE0"></path>
                <path d="M366.400076,212.457368 C369.024135,217.170549 370.287816,222.599044 370.520772,228.019653 C370.583407,229.461544 370.679007,231.126478 371.816319,231.976968 C373.03165,232.888288 371.962467,234.886659 372.887701,233.667811 C373.814033,232.450089 376.956751,228.216787 377.098503,226.679145 C377.430357,223.075544 377.424862,219.440401 377.084218,215.839053 C376.786429,212.706319 376.162281,209.432776 374.162369,207.044644 C372.976708,205.628662 371.395459,204.633982 369.837286,203.668591 C367.578045,202.269506 365.248478,200.85803 362.654088,200.36238 C358.181758,199.507384 355.436825,201.153167 359.383903,204.351236 C362.21125,206.641365 364.602353,209.228883 366.400076,212.457368" id="Fill-47" fill="#242448"></path>
                <path d="M337.592259,273.083311 C337.622393,275.269822 337.171487,277.538508 339.110162,279.235303 C340.043227,280.050387 341.30331,280.376864 342.52991,280.571196 C345.698535,281.069796 348.982118,280.837708 352.04806,279.898253 C353.310376,279.51181 354.567111,278.986558 355.519149,278.078196 C356.644184,277.003263 356.701105,275.983853 356.755794,274.57689 C356.819412,272.927845 357.153128,271.253259 357.370768,269.580895 C357.845113,265.924124 358.058289,262.23848 358.16432,258.555058 C363.608683,257.625596 370.010666,255.874388 371.871214,250.201007 C372.45717,248.413154 372.478376,246.469835 372.492885,244.567603 C372.549806,236.707711 372.607844,228.847819 372.665881,220.986816 C372.684855,218.26839 372.691552,215.46668 371.756255,212.943696 C370.114464,208.517371 365.94246,205.878899 361.850817,204.218749 C351.41188,199.981204 339.242979,200.151105 329.607638,206.177615 C327.042827,207.781131 324.621994,209.84327 323.145386,212.64387 C320.867414,216.961369 321.153137,222.292726 321.508059,227.275396 C321.833962,231.874954 322.160981,236.473402 322.486884,241.07185 C322.863011,246.36212 323.661027,252.450816 327.789502,255.244753 C329.981534,256.727228 332.81421,256.999292 334.702661,258.919292 C338.000753,262.269573 336.429276,267.274453 337.403637,271.334324 C337.539802,271.902883 337.58333,272.490321 337.592259,273.083311" id="Fill-49" fill="#F5CEB0"></path>
                <path d="M354.309709,252.779353 C351.50726,254.706436 348.418059,254.810236 345.294669,253.848952 C343.966786,253.43939 344.530364,251.160288 345.860452,251.56985 C348.44894,252.366407 350.891847,252.346098 353.225566,250.740572 C354.399044,249.933861 355.477672,251.977154 354.309709,252.779353 M373.780168,241.532775 C373.693039,240.052486 373.061082,235.713166 370.883973,238.440191 C370.314881,239.153257 370.174813,240.1608 370.139521,241.110802 C370.104228,242.060804 370.146138,243.037884 369.853872,243.932601 C369.18221,245.984921 366.963191,246.917999 364.985706,246.881895 C364.198241,246.868355 363.396438,246.736348 362.700513,246.330171 C362.026646,245.937534 361.49064,245.312473 360.967869,244.698695 C359.698441,243.209381 358.429012,241.718939 357.159583,240.228496 C354.976959,237.667327 350.650313,238.774158 347.711105,239.167924 C344.321918,239.62036 340.93273,240.666264 338.163368,242.946495 C337.884336,243.176661 337.611922,243.418111 337.338404,243.65956 C336.671155,244.248516 335.999493,244.831831 335.22416,245.217699 C332.606997,246.521977 329.367803,245.161285 327.533693,242.723098 C326.692186,241.606112 325.90803,240.16757 324.602206,239.981406 C323.58203,239.834731 322.587222,240.583901 322.063348,241.56211 C321.539474,242.53919 321.398304,243.705819 321.327719,244.837472 C321.069642,248.96355 321.6255,253.217121 323.372481,256.876096 C327.164224,264.810078 334.490737,265.783774 341.855851,265.606636 C344.767486,265.536683 347.676916,265.465602 350.588551,265.39565 C355.911109,265.267027 361.536962,265.041374 366.019116,261.876581 C369.974087,259.084117 372.325453,254.337492 373.288278,249.366342 C373.785682,246.799531 373.935676,244.151485 373.780168,241.532775" id="Fill-51" fill="#242448"></path>
                <path d="M375.496562,199.270624 C376.012251,197.389107 376.392116,195.470289 376.633949,193.535015 C374.830694,194.16365 372.866218,194.331506 370.982353,194.015542 C370.977936,192.899798 370.973519,191.782956 370.967998,190.666114 C370.961372,189.737972 358.314298,189.087395 357.287338,189.004016 C347.667037,188.219594 338.869408,187.47357 330.171163,192.602485 C322.740607,196.985376 317.975731,203.527349 316.836136,212.044091 C315.747337,220.180142 318.427373,230.806596 323.162434,237.559211 C323.135932,235.393547 321.881494,230.284379 322.396078,228.225133 C322.710792,226.162596 323.42856,224.173564 324.417976,222.337029 C326.394599,218.67054 329.456708,215.584414 332.992544,213.381449 C338.630889,209.871845 345.186872,208.015561 351.732917,207.109361 C357.732354,206.278861 365.042546,205.513089 370.967998,207.091808 C373.816985,207.8499 374.289608,208.560817 376.015564,205.703984 C376.319235,205.200418 378.730936,199.318896 378.495729,199.315604 L375.496562,199.270624 Z" id="Fill-53" fill="#242448"></path>
                <path d="M176.405213,152.671927 L171.516879,174.256225 C171.126788,175.978506 169.410164,177.058936 167.682458,176.671174 L114.65329,164.735625 C112.925583,164.346759 111.84175,162.63663 112.230733,160.91435 L117.119067,139.328947 L176.405213,152.671927 Z" id="Fill-55" fill="#DCDFE3"></path>
                <g id="Group-59" transform="translate(128.507109, 0.000000)">
                    <mask id="mask-2" fill="white">
                        <use xlink:href="#path-1"></use>
                    </mask>
                    <g id="Clip-58"></g>
                    <path d="M11.8471944,57.9315939 L0.804210069,106.862986 L49.9237609,117.957104 L61.272071,67.6723901 C43.4484045,32.2731016 71.5294545,5.27912367 71.5294545,5.27912367 L66.5985558,-0.00262184272 C31.4225835,10.547492 11.8471944,57.9315939 11.8471944,57.9315939" id="Fill-57" fill="#DCDFE3" mask="url(#mask-2)"></path>
                </g>
                <path d="M131.022655,111.086768 C137.055753,132.871029 116.824645,139.800854 116.824645,139.800854 L142.689831,145.699962 L143.432298,145.869503 L149.677688,147.293193 L150.419044,147.462734 L176.28423,153.361842 C176.28423,153.361842 160.963628,138.323269 175.675141,121.270422 L178.741706,117.758353 L157.366888,112.884346 L151.122609,111.459533 L129.74779,106.585526 L131.022655,111.086768 Z" id="Fill-60" fill="#8B8E98"></path>
                <polygon id="Fill-62" fill="#8B8E98" points="330.613744 109.613479 323.657497 140.498355 181.078199 108.235205 188.034446 77.3503289"></polygon>
                <path d="M492.422841,161.936031 L492.422841,161.936031 C489.58891,174.590953 477.119617,182.533069 464.569513,179.676587 L329.395467,148.904932 L314.258294,137.727924 L321.225777,106.611349 L339.656287,103.077303 L474.829226,133.848957 C487.37933,136.70544 495.256771,149.281108 492.422841,161.936031" id="Fill-64" fill="#427FE0"></path>
                <path d="M476.437677,179.088816 C484.385517,176.370294 490.502389,170.474093 492.274722,162.639717 C495.217547,149.638714 489.504484,137.227111 469.621607,132.749221 L358.651659,107.754934 C358.651659,107.754934 482.283499,139.802146 476.437677,179.088816" id="Fill-68" fill="#1E57B1"></path>
                <polygon id="Fill-70" fill="#232020" points="181.078199 107.754934 199.770142 79.9942077 187.985733 77.3503289"></polygon>
                <path d="M273.808255,263.323883 C278.274765,258.705542 279.316951,251.781369 276.412608,246.029578 C271.105016,235.520407 265.798534,225.010123 260.492053,214.500952 C257.511046,208.598998 252.330116,201.752686 251.514589,195.333505 C250.072417,183.986759 252.636772,170.63673 253.693402,159.293321 C254.231161,153.532631 253.752289,145.52951 256.131094,140.228207 C256.576634,139.233796 263.306399,131.619986 263.123072,131.387512 C263.109739,131.366378 261.71201,129.259649 261.71201,129.259649 L259.60764,130.680078 L257.848812,130.327474 L262.637534,124.528965 L255.71222,119.449013 L246.466988,123.121884 C245.971449,129.355309 247.078077,135.850128 245.100369,141.86665 C244.263731,144.410519 243.018219,146.797552 241.967145,149.262446 C240.163874,153.4937 238.941695,157.935182 237.542855,162.309925 C236.19068,166.541179 234.005201,170.521049 232.730801,174.703361 C229.889789,184.035701 227.112108,193.389175 224.303318,202.732638 L248.71802,258.742249 C253.072312,268.730856 266.250741,271.13791 273.808255,263.323883" id="Fill-72" fill="#F5CEB0"></path>
                <path d="M289.084707,247.934823 C288.914067,247.573708 288.746752,247.212594 288.587192,246.854812 C287.973332,245.481466 281.10009,230.454656 280.901749,230.542763 L280.388721,230.774659 L278.900608,231.534666 C278.828585,231.534666 278.76321,231.533555 278.685646,231.534666 C275.194176,231.582444 269.365827,235.740262 266.125885,237.200276 C257.518542,241.07809 248.9112,244.955905 240.303858,248.834831 C239.689997,249.11039 239.047328,249.410392 238.660618,249.960398 C238.202993,250.612626 238.208533,251.460412 238.28388,252.27042 L235.985782,253.443764 C237.114886,255.030446 238.124321,256.67824 239.04622,258.369367 C240.025737,264.953874 241.68449,271.452825 245.690095,276.701765 C245.927218,277.011767 246.180962,277.306215 246.431381,277.605106 C248.51341,284.569618 250.456932,291.626352 253.422077,298.207526 C261.395614,315.897695 276.538243,329.634493 284.150555,347.483553 C290.331265,345.675758 294.617207,340.11126 297.902579,334.558985 C304.359194,323.644436 308.651785,311.605432 312.903377,299.651984 C315.066294,293.573037 317.22921,287.495201 319.392126,281.416254 C319.769971,280.354022 320.152249,279.257345 320.093522,278.130667 C319.938395,275.138416 316.926712,273.261732 314.34606,271.752828 C304.273874,265.86055 295.613345,257.618249 289.084707,247.934823 Z" id="Fill-74" fill="#427FE0"></path>
                <path d="M402.97485,394.960104 C403.545956,390.690648 400.568442,386.767063 396.326732,386.197653 L248.070911,366.290575 L99.817308,346.383496 C95.5755975,345.814087 91.6743328,348.813494 91.1043357,353.084063 L88.3674621,373.572784 L105.364245,380.970655 L87.1531685,382.673322 L84.5748739,401.976516 L89.1104545,403.949429 L84.2510623,404.404289 L79.3905611,440.801992 L79.7232443,440.898747 L94.7228197,446.022317 L78.6375882,446.439365 L74.5211884,477.26531 L85.364442,480.969806 L73.9877864,481.264519 L71.3329746,501.144907 C70.7629775,505.414364 73.7393829,509.339061 77.9822023,509.907358 L226.235805,529.815549 L374.489408,549.721515 C378.733336,550.292037 382.633492,547.292629 383.204598,543.02206 L385.940363,522.533339 L368.944688,515.135468 L387.154656,513.431689 L389.732951,494.129608 L385.19737,492.155582 L390.057872,491.700722 L394.917264,455.304132 L394.58569,455.207377 L379.585005,450.082694 L395.670237,449.665646 L399.786637,418.840814 L388.943383,415.136318 L400.320039,414.841604 L402.97485,394.960104 Z" id="Fill-101" fill="#F2F3F4"></path>
                <path d="M467.122003,166.008198 C462.402612,164.941853 459.440728,160.24799 460.506014,155.523907 C461.572379,150.799824 466.260501,147.834996 470.979892,148.901341 C475.699283,149.967686 478.661168,154.661549 477.595881,159.385632 C476.531673,164.109715 471.841394,167.074544 467.122003,166.008198" id="Fill-66" fill="#FFFFFF"></path>
                <g id="Group-107" transform="translate(84.113744, 398.937500)" fill="#D8D8D8">
                    <path d="M315.649521,16.4048381 L317.766465,0.555605323 C316.932753,2.48529907 314.210177,8.38645566 308.865779,16.5801639 L315.649521,16.4048381 Z" id="Fill-103"></path>
                    <path d="M0.168403336,112.111656 L141.840893,131.123411 L289.859785,150.985164 C294.095887,151.554418 297.990976,148.561673 298.560071,144.300589 L301.291504,123.857376 L284.322737,116.475937 L302.504982,114.775942 L305.078088,95.5167332 L300.549688,93.5482015 L305.402494,93.0932421 L310.2553,56.7774933 L309.923144,56.6809531 L294.947315,51.5676531 L311.007081,51.1515317 L315.116964,20.3951651 L307.961206,17.9528098 C282.483697,56.1194666 202.560205,139.271623 0.168403336,112.111656" id="Fill-105"></path>
                </g>
                <path d="M188.017185,365.597169 C188.167926,366.157055 188.022647,366.773936 188.214896,367.319295 C188.468315,368.042342 189.251512,368.441303 189.999754,368.516178 C191.63824,368.681573 193.22648,367.599797 194.069754,366.152585 C194.913028,364.705374 195.124939,362.95978 195.094354,361.27565 C195.030999,357.722998 193.698364,353.86414 190.623471,352.213536 C189.146648,351.421202 187.444807,351.227868 185.786659,351.046827 C179.963478,350.415418 172.185037,355.276707 174.481103,362.481474 C175.313454,365.092042 178.247437,366.865574 180.876661,366.948272 C182.730336,367.007502 187.277682,362.853614 188.017185,365.597169" id="Fill-108" fill="#F5CEB0"></path>
                <path d="M190.284864,357.76269 C192.835132,358.671227 195.696245,359.864157 198.126185,358.685338 C199.937778,357.805023 200.927135,355.750231 200.938389,353.779019 C200.949418,351.807808 200.12941,349.91475 199.096602,348.219248 C196.891718,344.59921 193.548182,341.549043 189.480454,340.12925 C185.413841,338.709456 180.617465,339.069832 177.092324,341.503453 C174.918636,343.003571 173.327643,345.173423 172.018528,347.433369 C171.068166,349.075683 169.227605,351.954346 169.408096,353.924472 C169.689974,356.981152 170.843109,356.159452 173.712022,355.938017 C179.396367,355.501658 184.880167,355.837068 190.284864,357.76269" id="Fill-110" fill="#FF5254"></path>
            </g>
            <path d="M129.24,463.16 L129.24,461 L148.52,461 L148.52,463.16 L152.76,463.16 L152.76,430.52 L138.08,430.52 C138.76,429.32 139.32,428.04 139.72,426.64 L135.48,426.04 C135.08,427.56 134.44,429.08 133.64,430.52 L125,430.52 L125,463.16 L129.24,463.16 Z M148.52,439.2 L129.24,439.2 L129.24,434.52 L148.52,434.52 L148.52,439.2 Z M148.52,447.96 L129.24,447.96 L129.24,443.04 L148.52,443.04 L148.52,447.96 Z M148.52,457.04 L129.24,457.04 L129.24,451.8 L148.52,451.8 L148.52,457.04 Z M174.568889,434.6 L174.568889,430.76 L169.448889,430.76 C169.008889,429.32 168.408889,427.76 167.688889,426.04 L163.648889,427.12 C164.288889,428.32 164.888889,429.52 165.408889,430.76 L159.768889,430.76 L159.768889,434.6 L174.568889,434.6 Z M184.888889,462.68 C187.608889,462.68 189.008889,461.04 189.008889,457.84 L189.008889,432.2 L196.008889,432.2 L196.008889,428.32 L175.488889,428.32 L175.488889,432.2 L184.968889,432.2 L184.968889,456.84 C184.968889,458.24 184.448889,458.96 183.448889,458.96 C181.768889,458.96 180.008889,458.88 178.208889,458.72 L179.128889,462.68 L184.888889,462.68 Z M173.008889,440.4 L173.008889,436.76 L161.008889,436.76 L161.008889,440.4 L173.008889,440.4 Z M173.008889,446 L173.008889,442.32 L161.008889,442.32 L161.008889,446 L173.008889,446 Z M164.648889,463.28 L164.648889,460.92 L169.488889,460.92 L169.488889,462.56 L173.488889,462.56 L173.488889,448.28 L160.648889,448.28 L160.648889,463.28 L164.648889,463.28 Z M169.488889,457.12 L164.648889,457.12 L164.648889,452.08 L169.488889,452.08 L169.488889,457.12 Z M207.017778,463.16 L207.017778,461 L226.297778,461 L226.297778,463.16 L230.537778,463.16 L230.537778,430.52 L215.857778,430.52 C216.537778,429.32 217.097778,428.04 217.497778,426.64 L213.257778,426.04 C212.857778,427.56 212.217778,429.08 211.417778,430.52 L202.777778,430.52 L202.777778,463.16 L207.017778,463.16 Z M226.297778,439.2 L207.017778,439.2 L207.017778,434.52 L226.297778,434.52 L226.297778,439.2 Z M226.297778,447.96 L207.017778,447.96 L207.017778,443.04 L226.297778,443.04 L226.297778,447.96 Z M226.297778,457.04 L207.017778,457.04 L207.017778,451.8 L226.297778,451.8 L226.297778,457.04 Z M257.746667,463.04 C262.426667,457.88 264.826667,449.72 264.946667,438.56 L264.946667,437.24 L268.906667,437.24 C268.826667,448.28 268.706667,454.72 268.466667,456.56 C268.226667,458.28 267.506667,459.16 266.226667,459.16 C265.026667,459.16 263.626667,459.08 262.026667,459 L263.026667,462.64 C264.866667,462.76 266.146667,462.84 266.866667,462.84 C270.066667,462.84 271.866667,461.36 272.266667,458.44 C272.626667,455.28 272.826667,446.96 272.826667,433.44 L264.946667,433.44 L264.946667,426.28 L261.066667,426.28 L261.066667,433.44 L257.586667,433.44 L257.586667,437.24 L261.066667,437.24 L261.066667,438.56 C260.986667,447.76 259.226667,454.64 255.746667,459.24 L255.746667,457.48 C253.666667,457.72 251.386667,457.96 248.986667,458.2 L248.986667,456 L255.786667,456 L255.786667,452.64 L248.986667,452.64 L248.986667,450.72 L255.946667,450.72 L255.946667,437.8 L248.986667,437.8 L248.986667,436.12 L256.506667,436.12 L256.506667,432.68 L248.986667,432.68 L248.986667,430.6 C251.706667,430.32 254.146667,429.92 256.306667,429.36 L254.466667,426.24 C249.826667,427.28 244.186667,427.84 237.466667,427.84 L238.586667,431.08 C240.826667,431.08 242.986667,431 245.066667,430.92 L245.066667,432.68 L237.346667,432.68 L237.346667,436.12 L245.066667,436.12 L245.066667,437.8 L238.146667,437.8 L238.146667,450.72 L245.066667,450.72 L245.066667,452.64 L238.306667,452.64 L238.306667,456 L245.066667,456 L245.066667,458.52 C242.506667,458.68 239.826667,458.84 236.946667,459 L237.466667,462.68 C244.186667,462.28 250.226667,461.76 255.506667,461.12 L257.746667,463.04 Z M245.306667,442.88 L241.906667,442.88 L241.906667,440.76 L245.306667,440.76 L245.306667,442.88 Z M252.186667,442.88 L248.746667,442.88 L248.746667,440.76 L252.186667,440.76 L252.186667,442.88 Z M252.186667,447.68 L248.746667,447.68 L248.746667,445.6 L252.186667,445.6 L252.186667,447.68 Z M245.306667,447.68 L241.906667,447.68 L241.906667,445.6 L245.306667,445.6 L245.306667,447.68 Z M279.235556,462.84 C281.595556,457.56 282.835556,450.56 282.955556,441.8 L282.955556,431.88 L312.315556,431.88 L312.315556,428.2 L297.875556,428.2 C297.595556,427.4 297.315556,426.64 297.035556,426 L292.435556,426.72 C292.755556,427.16 293.035556,427.64 293.355556,428.2 L278.795556,428.2 L278.795556,441.8 C278.715556,449.56 277.755556,455.6 275.955556,459.92 L279.235556,462.84 Z M284.635556,463.24 C288.755556,462.2 292.275556,460.88 295.155556,459.28 L293.435556,457.32 L301.555556,457.32 L300.115556,459.44 C303.555556,460.32 306.915556,461.56 310.195556,463.16 L312.315556,459.88 C310.075556,458.92 307.675556,458.04 305.075556,457.32 L309.995556,457.32 L309.995556,444.96 L299.795556,444.96 L299.795556,443.48 L312.235556,443.48 L312.235556,440.04 L304.995556,440.04 L304.995556,438.04 L310.355556,438.04 L310.355556,434.6 L304.995556,434.6 L304.995556,432.52 L301.075556,432.52 L301.075556,434.6 L294.035556,434.6 L294.035556,432.52 L290.155556,432.52 L290.155556,434.6 L285.595556,434.6 L285.595556,438.04 L290.155556,438.04 L290.155556,440.04 L283.915556,440.04 L283.915556,443.48 L295.875556,443.48 L295.875556,444.96 L285.595556,444.96 L285.595556,457.32 L291.195556,457.32 C288.915556,458.24 286.155556,459 282.955556,459.64 L284.635556,463.24 Z M301.075556,440.04 L294.035556,440.04 L294.035556,438.04 L301.075556,438.04 L301.075556,440.04 Z M295.875556,449.68 L289.595556,449.68 L289.595556,448.28 L295.875556,448.28 L295.875556,449.68 Z M305.995556,449.68 L299.795556,449.68 L299.795556,448.28 L305.995556,448.28 L305.995556,449.68 Z M305.995556,454.04 L299.795556,454.04 L299.795556,452.6 L305.995556,452.6 L305.995556,454.04 Z M295.875556,454.04 L289.595556,454.04 L289.595556,452.6 L295.875556,452.6 L295.875556,454.04 Z M351.604444,444.56 L351.604444,440.48 L335.924444,440.48 L335.924444,435.32 L348.524444,435.32 L348.524444,431.32 L335.924444,431.32 L335.924444,426.12 L331.724444,426.12 L331.724444,431.32 L325.484444,431.32 C326.124444,429.96 326.684444,428.56 327.124444,427.04 L322.964444,426.56 C321.724444,430.64 319.364444,434.12 315.844444,436.96 L318.324444,440.24 C320.084444,438.76 321.684444,437.12 323.044444,435.32 L331.724444,435.32 L331.724444,440.48 L315.044444,440.48 L315.044444,444.56 L351.604444,444.56 Z M324.124444,463.16 L324.124444,461.28 L342.764444,461.28 L342.764444,463.16 L347.004444,463.16 L347.004444,447.8 L319.884444,447.8 L319.884444,463.16 L324.124444,463.16 Z M342.764444,457.36 L324.124444,457.36 L324.124444,451.72 L342.764444,451.72 L342.764444,457.36 Z" id="自訂自動廣告" fill="#427FE0" fill-rule="nonzero" transform="translate(238.302222, 444.640000) rotate(7.000000) translate(-238.302222, -444.640000) "></path>
        </g>
    </g>
</svg>