<?xml version="1.0" encoding="UTF-8"?>
<svg width="261px" height="197px" viewBox="0 0 261 197" version="1.1" xmlns="http://www.w3.org/2000/svg" xmlns:xlink="http://www.w3.org/1999/xlink">
    <!-- Generator: Sketch 59.1 (86144) - https://sketch.com -->
    <title>img_increase_mob</title>
    <desc>Created with Sketch.</desc>
    <g id="Page-1" stroke="none" stroke-width="1" fill="none" fill-rule="evenodd">
        <g id="SEO-Copywriting---Mobile" transform="translate(-58.000000, -4242.000000)" fill-rule="nonzero">
            <g id="img_increase_mob" transform="translate(58.000000, 4242.000000)">
                <g id="Group" transform="translate(5.000000, 32.000000)" fill="#427FE0">
                    <polygon id="Path" points="24.5891263 152.925589 0.54877796 152.925589 0.134289195 137.598409 24.1746376 137.598409"></polygon>
                    <polygon id="Path" points="55.6757837 152.925589 31.6354353 152.925589 31.2209466 127.242207 55.2612949 127.242207"></polygon>
                    <polygon id="Path" points="86.3479523 152.925589 62.3076039 152.925589 62.3076039 114.814764 85.9334635 114.814764"></polygon>
                    <polygon id="Path" points="117.43461 152.925589 93.3942613 152.925589 92.9797725 92.0311185 117.020121 92.0311185"></polygon>
                    <polygon id="Path" points="148.106778 152.925589 124.480919 152.925589 124.06643 72.5614579 148.106778 72.5614579"></polygon>
                    <polygon id="Path" points="179.193436 152.925589 155.153087 152.925589 154.738598 46.0495796 178.778947 46.0495796"></polygon>
                    <polygon id="Path" points="210.280093 152.925589 186.239745 152.925589 185.825256 36.9361215 209.865604 36.9361215"></polygon>
                    <polygon id="Path" points="240.952262 152.925589 216.911913 152.925589 216.911913 0.0680407504 240.952262 0.0680407504"></polygon>
                </g>
                <path d="M57.6921606,196.893055 C101.258126,196.893055 134.451243,180.859257 133.621415,181.27038 C171.793499,165.647706 206.231358,141.802571 233.200765,110.557222 L237.349904,113.846206 L251.456979,124.124281 C252.701721,124.946527 253.946463,124.946527 255.191205,124.946527 L255.191205,124.946527 C255.606119,124.946527 256.021033,124.946527 256.435946,124.535404 C258.92543,123.302035 261,120.835297 260.585086,117.957436 L261,57.9334762 C260.585086,55.0556151 258.510516,53 256.021033,53 C255.606119,53 254.776291,53 254.361377,53 L196.273423,69.4449205 C195.028681,69.4449205 194.198853,70.2671666 193.369025,71.0894126 C191.709369,72.3227816 190.879541,74.3783967 191.294455,76.4340118 L191.294455,76.4340118 C191.709369,77.6673808 192.124283,79.7229959 194.613767,80.9563649 L206.231358,89.5899482 L213.699809,95.3456704 C190.464627,125.768773 159.34608,152.080646 137.355641,164.82546 C108.311663,181.27038 87.1510516,188.670594 53.1281071,192.370702 C48.5640535,192.781825 44,193.192948 44,195.248563 C44,196.481932 53.1281071,197.304178 57.6921606,196.893055 Z" id="Path" fill="#000000" opacity="0.3"></path>
                <path d="M13.3524529,143.893055 C56.991213,143.893055 90.2397921,127.859257 89.4085776,128.27038 C127.644444,112.647706 162.139844,88.8025709 189.154315,57.5572219 L193.310387,60.846206 L207.441034,71.1242813 C208.687855,71.9465274 209.934677,71.9465274 211.181499,71.9465274 L211.181499,71.9465274 C211.597106,71.9465274 212.012713,71.9465274 212.42832,71.5354044 C214.921964,70.3020353 217,67.8352972 216.584393,64.9574361 L217,4.93347616 C216.584393,2.05561507 214.506357,0 212.012713,0 C211.597106,0 211.181499,0 210.350284,0 L152.165271,16.4449205 C150.918449,16.8560436 150.087235,17.2671666 149.25602,18.0894126 C147.593591,19.3227816 146.762377,21.3783967 147.177984,23.4340118 L147.177984,23.4340118 C147.593591,24.6673808 148.009198,26.7229959 150.502842,27.9563649 L162.139844,36.5899482 L169.620775,42.3456704 C146.346769,72.7687734 115.591834,99.0806463 93.56465,111.82546 C64.4721433,128.27038 43.2761741,135.670594 9.19638047,139.370702 C4.62470084,139.781825 0.0530212102,140.192948 0.0530212102,142.248563 C-0.778193268,143.481932 8.36516599,144.304178 13.3524529,143.893055 Z" id="Path" fill="#FF5254"></path>
            </g>
        </g>
    </g>
</svg>