<?xml version="1.0" encoding="UTF-8"?>
<svg width="146px" height="146px" viewBox="0 0 146 146" version="1.1" xmlns="http://www.w3.org/2000/svg" xmlns:xlink="http://www.w3.org/1999/xlink">
    <!-- Generator: Sketch 63.1 (92452) - https://sketch.com -->
    <title>info-button</title>
    <desc>Created with Sketch.</desc>
    <g id="Page-1" stroke="none" stroke-width="1" fill="none" fill-rule="evenodd">
        <g id="Hubspot" transform="translate(-220.000000, -4383.000000)" fill="#FF5254" fill-rule="nonzero">
            <g id="info-button" transform="translate(220.000000, 4383.000000)">
                <path d="M124.622273,21.3801074 C96.1138762,-7.12511547 49.8916782,-7.12828942 21.3801074,21.3801074 C-7.12828942,49.8885042 -7.12511547,96.1107023 21.3801074,124.622273 C49.8885042,153.124322 96.1107023,153.127496 124.622273,124.622273 C153.127496,96.1107023 153.124322,49.8916782 124.622273,21.3801074 Z M82.5198589,104.740666 C82.5198589,109.999897 78.2572474,114.262508 72.9980163,114.262508 C67.7387852,114.262508 63.4761737,109.999897 63.4761737,104.740666 L63.4761737,66.6532951 C63.4761737,61.3940641 67.7387852,57.1314525 72.9980163,57.1314525 C78.2572474,57.1314525 82.5198589,61.3940641 82.5198589,66.6532951 L82.5198589,104.740666 Z M72.8297971,50.3772921 C67.3452157,50.3772921 63.6888281,46.4923804 63.8030903,41.6965456 C63.6888281,36.6690127 67.3452157,32.901537 72.9408852,32.901537 C78.5397287,32.901537 82.0818541,36.6721867 82.1992902,41.6965456 C82.1961163,46.4923804 78.5429026,50.3772921 72.8297971,50.3772921 Z" id="Shape"></path>
            </g>
        </g>
    </g>
</svg>