<svg width="248" height="43" viewBox="0 0 248 43" fill="none" xmlns="http://www.w3.org/2000/svg">
<path d="M0 40.344C0 40.552 0.104 40.812 0.312 40.812C0.416 40.812 0.52 40.708 0.52 40.552C0.52 38.056 5.772 35.352 12.532 34.572C9.62 38.732 6.396 41.592 2.288 41.592C2.08 41.592 1.976 41.696 1.976 41.852C1.976 42.008 2.288 42.112 2.704 42.112C7.54 42.112 11.336 38.94 14.716 34.416C15.288 34.364 15.808 34.364 16.38 34.364C25.948 34.364 33.072 40.5 33.436 40.5C34.008 40.5 35.464 37.848 35.464 37.38C35.464 36.6 27.456 33.272 18.72 33.272C17.576 33.272 16.536 33.324 15.444 33.428C23.66 21.728 29.692 2.228 42.536 2.228C43.264 2.228 43.784 2.332 44.096 2.592C42.432 4.36 40.04 6.908 40.04 9.456C40.04 9.664 40.144 9.872 40.3 9.872C40.456 9.872 40.508 9.716 40.56 9.56C41.392 5.4 47.684 3.684 47.684 2.488C47.684 1.968 46.176 0.199998 45.864 0.199998C45.708 0.199998 45.656 0.304 45.656 0.407999C45.656 0.875999 45.136 1.5 44.408 2.28C44.148 1.708 42.744 0.199998 40.144 0.199998C26.572 0.199998 21.06 21.624 13.208 33.636C5.564 34.624 0 37.588 0 40.344ZM56.8242 28.592C56.9802 28.436 57.3442 28.072 57.3442 27.968C57.3442 27.916 57.2922 27.76 57.1362 27.76C57.0322 27.76 56.9282 27.864 56.8242 27.968C56.8242 27.968 51.8842 32.908 49.3362 32.908C48.7122 32.908 48.1922 32.596 48.1922 31.92C48.1922 30.308 50.4802 28.592 50.4802 27.968C50.4802 27.136 49.0762 25.784 48.6082 25.784C48.1402 25.784 46.9962 26.824 45.4362 28.384C42.9402 30.88 39.1962 34.468 38.2082 34.468C37.7402 34.468 37.5322 34.208 37.5322 33.792C37.5322 30.204 44.2922 22.924 49.1802 22.924C49.5442 22.924 50.1162 23.392 50.1162 23.756C50.1162 24.38 49.8562 24.536 49.8562 24.744C49.8562 24.952 50.1682 25.264 50.3242 25.264C50.4802 25.264 50.7402 24.744 50.7402 23.912C50.7402 22.768 48.7642 20.948 46.7362 20.948C42.2642 20.948 35.1922 28.124 35.1922 32.284C35.1922 33.896 37.0122 35.3 38.2082 35.3C39.4042 35.3 43.0442 31.556 45.6442 29.008C45.6442 29.008 45.4882 29.892 45.4882 30.88C45.4882 32.856 46.9442 34 48.6082 34C51.5202 34 56.8242 28.592 56.8242 28.592ZM56.8242 27.968C56.6162 28.228 56.3562 28.488 56.3562 28.592C56.3562 28.696 56.4602 28.8 56.5642 28.8C56.6162 28.8 56.7202 28.696 56.8242 28.592C58.0722 27.292 59.9962 25.264 61.5562 23.236C62.0762 23.496 62.4922 23.808 62.4922 24.276C62.4922 25.888 59.7362 28.384 59.7362 31.452C59.7362 32.908 61.4002 34.26 62.9602 34.26C65.5082 34.26 70.9682 28.592 70.9682 28.592C71.1762 28.384 71.4362 28.124 71.4362 28.02C71.4362 27.916 71.3842 27.76 71.2282 27.76C71.1762 27.76 71.0722 27.864 70.9682 27.968C70.9682 27.968 65.5082 33.376 63.5842 33.376C62.8562 33.376 62.4922 32.804 62.4922 32.18C62.4922 30.204 66.0802 27.396 66.0802 25.42C66.0802 24.068 63.4282 23.6 61.8162 22.82C62.9602 21.26 63.7922 19.7 63.7922 18.452C63.7922 18.088 62.5442 17.048 61.8162 17.048C60.6202 17.048 58.2802 18.764 58.2802 20.688C58.2802 21.884 59.8402 22.508 61.0882 23.028C59.7362 24.9 57.9162 26.772 56.8242 27.968ZM62.9602 18.764C62.9602 19.908 62.2842 21.26 61.4002 22.612C60.9322 22.3 60.6202 21.936 60.6202 21.468C60.6202 19.596 62.1802 18.504 62.6482 18.504C62.8042 18.504 62.9602 18.608 62.9602 18.764ZM73.9042 28.904C73.9042 29.112 73.9042 29.32 73.8522 29.528C71.6162 29.684 68.4962 30.464 67.6642 30.776C67.1442 30.984 66.8842 31.296 66.8842 31.66C66.8842 33.012 69.1202 35.456 71.6162 35.456C74.1122 35.456 76.4002 33.324 76.4002 31.036C76.4002 30.724 76.3482 30.412 76.2962 30.152C77.4922 30.464 78.0642 31.088 78.2202 31.088C78.4282 31.088 78.7402 30.828 78.7402 30.62C78.7402 30.36 77.9082 29.84 76.2442 29.58C75.8282 27.864 74.7882 27.084 74.7882 25.264C74.7882 23.34 78.1682 21.988 78.1682 21.208C78.1682 20.532 77.0242 19.336 76.2962 19.336C75.3602 19.336 72.7082 21.468 72.7082 23.444C72.7082 24.328 72.9682 24.9 73.2282 25.576C71.9282 26.98 70.9922 27.968 70.9922 27.968C70.7322 28.228 70.5242 28.436 70.5242 28.592C70.5242 28.696 70.6282 28.8 70.7322 28.8C70.7842 28.8 70.8882 28.696 70.9922 28.592C70.9922 28.592 72.1362 27.448 73.4362 26.044C73.6962 26.772 73.9042 27.604 73.9042 28.904ZM68.2882 31.296C68.9122 31.088 71.1482 30.1 73.8002 29.944C73.4362 31.608 72.2402 33.168 70.5242 33.168C68.8602 33.168 67.7682 32.388 67.7682 31.816C67.7682 31.608 67.8722 31.452 68.2882 31.296ZM134.795 32.492C134.847 27.5 149.407 12.056 149.407 7.896C149.407 6.388 147.483 4.412 145.507 4.412C137.603 4.412 115.295 39.096 112.799 39.096C112.695 39.096 112.591 38.992 112.591 38.888C112.591 32.388 128.087 16.684 128.087 7.896C128.087 3.528 123.927 0.199998 119.039 0.199998C107.547 0.199998 90.543 13.356 90.543 23.236C90.543 26.096 93.455 28.28 96.107 28.28C104.687 28.28 116.647 15.28 116.647 13.044C116.647 12.68 116.127 11.848 115.919 11.848C115.763 11.848 115.711 12.004 115.659 12.108C114.255 15.852 104.063 27.5 96.783 27.5C94.443 27.5 93.663 25.888 93.663 23.704C93.663 15.176 108.067 0.979997 120.027 0.979997C122.783 0.979997 125.175 2.696 125.175 6.856C125.175 15.02 109.523 31.036 109.523 37.432C109.523 38.888 111.967 40.188 113.111 40.188C113.683 40.188 113.943 40.084 114.463 39.408C119.299 33.272 139.111 5.348 145.871 5.348C146.651 5.348 146.807 5.66 146.807 6.128C146.807 9.352 130.479 28.072 130.479 32.7C130.479 33.844 132.403 35.508 133.287 35.508C133.651 35.508 134.223 34.728 135.367 33.376C140.515 27.24 151.591 16.164 155.179 16.164C155.543 16.164 155.803 16.476 155.803 16.84C155.803 20.064 148.107 27.916 148.107 33.636C148.107 36.964 150.811 38.472 152.683 38.472C152.995 38.472 153.203 38.368 153.203 38.212C153.203 38.056 153.047 38.004 152.891 38.004C151.279 38.004 150.811 36.34 150.811 35.404C150.811 29.58 158.455 21.676 158.455 18.608C158.455 16.944 156.115 15.228 154.815 15.228C150.603 15.228 136.251 30.88 134.795 32.492ZM177.43 28.592C177.586 28.436 177.95 28.072 177.95 27.968C177.95 27.916 177.898 27.76 177.742 27.76C177.638 27.76 177.534 27.864 177.43 27.968C177.43 27.968 172.49 32.908 169.942 32.908C169.318 32.908 168.798 32.596 168.798 31.92C168.798 30.308 171.086 28.592 171.086 27.968C171.086 27.136 169.682 25.784 169.214 25.784C168.746 25.784 167.602 26.824 166.042 28.384C163.546 30.88 159.802 34.468 158.814 34.468C158.346 34.468 158.138 34.208 158.138 33.792C158.138 30.204 164.898 22.924 169.786 22.924C170.15 22.924 170.722 23.392 170.722 23.756C170.722 24.38 170.462 24.536 170.462 24.744C170.462 24.952 170.774 25.264 170.93 25.264C171.086 25.264 171.346 24.744 171.346 23.912C171.346 22.768 169.37 20.948 167.342 20.948C162.87 20.948 155.798 28.124 155.798 32.284C155.798 33.896 157.618 35.3 158.814 35.3C160.01 35.3 163.65 31.556 166.25 29.008C166.25 29.008 166.094 29.892 166.094 30.88C166.094 32.856 167.55 34 169.214 34C172.126 34 177.43 28.592 177.43 28.592ZM179.562 27.968C181.122 24.172 183.15 22.144 184.034 22.144C184.294 22.144 184.45 22.3 184.45 22.716C184.45 23.912 181.902 26.408 179.562 27.968ZM189.494 27.968C189.494 27.968 184.398 33.22 181.642 33.22C180.134 33.22 179.354 31.868 179.354 30.256C179.354 29.892 179.406 28.956 179.51 28.644C182.37 26.876 185.542 24.12 185.542 22.664C185.542 22.04 184.658 20.272 183.254 20.272C180.966 20.272 176.286 25.16 176.286 29.84C176.286 32.544 177.69 34.208 180.342 34.208C184.346 34.208 189.494 28.592 189.494 28.592C189.65 28.436 190.014 28.072 190.014 27.968C190.014 27.916 189.962 27.76 189.806 27.76C189.702 27.76 189.494 27.968 189.494 27.968ZM209.484 28.592C209.64 28.436 210.056 28.072 210.056 27.968C210.056 27.916 209.952 27.76 209.848 27.76C209.692 27.76 209.484 27.968 209.484 27.968C209.484 27.968 204.648 32.752 201.996 32.752C201.528 32.752 201.216 32.44 201.216 31.816C201.216 29.632 205.324 26.304 205.324 24.796C205.324 23.288 203.14 21.884 202.464 21.884C201.32 21.884 193.52 26.824 191.076 31.608C191.18 30.568 191.544 29.268 192.116 27.864C194.352 25.68 207.768 14.656 207.768 9.612C207.768 8.624 206.416 7.48 205.168 7.48C200.228 7.48 188.32 23.912 188.32 33.792C188.32 34.676 189.152 35.768 189.828 35.768C190.14 35.768 190.4 34.572 191.44 32.44C194.04 27.292 201.112 22.82 202.256 22.82C202.516 22.82 202.62 22.976 202.62 23.132C202.62 23.444 198.98 26.98 198.98 30.776C198.98 32.076 200.748 33.584 201.736 33.584C204.544 33.584 209.484 28.592 209.484 28.592ZM206.78 9.976C206.78 14.24 193.988 25.212 192.584 26.668C195.652 19.388 202.568 9.508 206.364 9.508C206.624 9.508 206.78 9.664 206.78 9.976ZM212.749 26.148C214.101 21.052 221.225 8.988 224.137 8.988C224.501 8.988 224.813 9.196 224.813 9.664C224.813 12.836 216.805 22.144 212.749 26.148ZM212.645 33.844C211.917 33.844 211.345 33.428 211.345 32.18C211.345 30.048 212.333 27.344 212.333 27.344C217.377 22.612 225.749 13.252 225.749 9.716C225.749 8.208 224.553 6.856 223.045 6.856C219.093 6.856 208.953 21.936 208.953 31.816C208.953 33.948 210.149 34.988 211.553 34.988C214.413 34.988 221.173 28.592 221.173 28.592C221.329 28.436 221.693 28.072 221.693 27.968C221.693 27.916 221.641 27.76 221.485 27.76C221.381 27.76 221.277 27.864 221.173 27.968C221.173 27.968 214.725 33.844 212.645 33.844ZM223.284 27.968C224.844 24.172 226.872 22.144 227.756 22.144C228.016 22.144 228.172 22.3 228.172 22.716C228.172 23.912 225.624 26.408 223.284 27.968ZM233.216 27.968C233.216 27.968 228.12 33.22 225.364 33.22C223.856 33.22 223.076 31.868 223.076 30.256C223.076 29.892 223.128 28.956 223.232 28.644C226.092 26.876 229.264 24.12 229.264 22.664C229.264 22.04 228.38 20.272 226.976 20.272C224.688 20.272 220.008 25.16 220.008 29.84C220.008 32.544 221.412 34.208 224.064 34.208C228.068 34.208 233.216 28.592 233.216 28.592C233.372 28.436 233.736 28.072 233.736 27.968C233.736 27.916 233.684 27.76 233.528 27.76C233.424 27.76 233.216 27.968 233.216 27.968ZM233.238 27.968C233.03 28.228 232.77 28.488 232.77 28.592C232.77 28.696 232.874 28.8 232.978 28.8C233.03 28.8 233.134 28.696 233.238 28.592C234.486 27.292 236.41 25.264 237.97 23.236C238.49 23.496 238.906 23.808 238.906 24.276C238.906 25.888 236.15 28.384 236.15 31.452C236.15 32.908 237.814 34.26 239.374 34.26C241.922 34.26 247.382 28.592 247.382 28.592C247.59 28.384 247.85 28.124 247.85 28.02C247.85 27.916 247.798 27.76 247.642 27.76C247.59 27.76 247.486 27.864 247.382 27.968C247.382 27.968 241.922 33.376 239.998 33.376C239.27 33.376 238.906 32.804 238.906 32.18C238.906 30.204 242.494 27.396 242.494 25.42C242.494 24.068 239.842 23.6 238.23 22.82C239.374 21.26 240.206 19.7 240.206 18.452C240.206 18.088 238.958 17.048 238.23 17.048C237.034 17.048 234.694 18.764 234.694 20.688C234.694 21.884 236.254 22.508 237.502 23.028C236.15 24.9 234.33 26.772 233.238 27.968ZM239.374 18.764C239.374 19.908 238.698 21.26 237.814 22.612C237.346 22.3 237.034 21.936 237.034 21.468C237.034 19.596 238.594 18.504 239.062 18.504C239.218 18.504 239.374 18.608 239.374 18.764Z" fill="#00225D"/>
</svg>
