<svg width="182" height="31" viewBox="0 0 182 31" fill="none" xmlns="http://www.w3.org/2000/svg">
<path d="M0.601562 29.636C0.601562 29.788 0.677563 29.978 0.829563 29.978C0.905563 29.978 0.981563 29.902 0.981563 29.788C0.981563 27.964 4.81956 25.988 9.75956 25.418C7.63156 28.458 5.27556 30.548 2.27356 30.548C2.12156 30.548 2.04556 30.624 2.04556 30.738C2.04556 30.852 2.27356 30.928 2.57756 30.928C6.11156 30.928 8.88556 28.61 11.3556 25.304C11.7736 25.266 12.1536 25.266 12.5716 25.266C19.5636 25.266 24.7696 29.75 25.0356 29.75C25.4536 29.75 26.5176 27.812 26.5176 27.47C26.5176 26.9 20.6656 24.468 14.2816 24.468C13.4456 24.468 12.6856 24.506 11.8876 24.582C17.8916 16.032 22.2996 1.782 31.6856 1.782C32.2176 1.782 32.5976 1.858 32.8256 2.048C31.6096 3.34 29.8616 5.202 29.8616 7.064C29.8616 7.216 29.9376 7.368 30.0516 7.368C30.1656 7.368 30.2036 7.254 30.2416 7.14C30.8496 4.1 35.4476 2.846 35.4476 1.972C35.4476 1.592 34.3456 0.299999 34.1176 0.299999C34.0036 0.299999 33.9656 0.376 33.9656 0.451999C33.9656 0.793999 33.5856 1.25 33.0536 1.82C32.8636 1.402 31.8376 0.299999 29.9376 0.299999C20.0196 0.299999 15.9916 15.956 10.2536 24.734C4.66756 25.456 0.601562 27.622 0.601562 29.636ZM42.127 21.048C42.241 20.934 42.507 20.668 42.507 20.592C42.507 20.554 42.469 20.44 42.355 20.44C42.279 20.44 42.203 20.516 42.127 20.592C42.127 20.592 38.517 24.202 36.655 24.202C36.199 24.202 35.819 23.974 35.819 23.48C35.819 22.302 37.491 21.048 37.491 20.592C37.491 19.984 36.465 18.996 36.123 18.996C35.781 18.996 34.945 19.756 33.805 20.896C31.981 22.72 29.245 25.342 28.523 25.342C28.181 25.342 28.029 25.152 28.029 24.848C28.029 22.226 32.969 16.906 36.541 16.906C36.807 16.906 37.225 17.248 37.225 17.514C37.225 17.97 37.035 18.084 37.035 18.236C37.035 18.388 37.263 18.616 37.377 18.616C37.491 18.616 37.681 18.236 37.681 17.628C37.681 16.792 36.237 15.462 34.755 15.462C31.487 15.462 26.319 20.706 26.319 23.746C26.319 24.924 27.649 25.95 28.523 25.95C29.397 25.95 32.057 23.214 33.957 21.352C33.957 21.352 33.843 21.998 33.843 22.72C33.843 24.164 34.907 25 36.123 25C38.251 25 42.127 21.048 42.127 21.048ZM42.127 20.592C41.975 20.782 41.785 20.972 41.785 21.048C41.785 21.124 41.861 21.2 41.937 21.2C41.975 21.2 42.051 21.124 42.127 21.048C43.039 20.098 44.445 18.616 45.585 17.134C45.965 17.324 46.269 17.552 46.269 17.894C46.269 19.072 44.255 20.896 44.255 23.138C44.255 24.202 45.471 25.19 46.611 25.19C48.473 25.19 52.463 21.048 52.463 21.048C52.615 20.896 52.805 20.706 52.805 20.63C52.805 20.554 52.767 20.44 52.653 20.44C52.615 20.44 52.539 20.516 52.463 20.592C52.463 20.592 48.473 24.544 47.067 24.544C46.535 24.544 46.269 24.126 46.269 23.67C46.269 22.226 48.891 20.174 48.891 18.73C48.891 17.742 46.953 17.4 45.775 16.83C46.611 15.69 47.219 14.55 47.219 13.638C47.219 13.372 46.307 12.612 45.775 12.612C44.901 12.612 43.191 13.866 43.191 15.272C43.191 16.146 44.331 16.602 45.243 16.982C44.255 18.35 42.925 19.718 42.127 20.592ZM46.611 13.866C46.611 14.702 46.117 15.69 45.471 16.678C45.129 16.45 44.901 16.184 44.901 15.842C44.901 14.474 46.041 13.676 46.383 13.676C46.497 13.676 46.611 13.752 46.611 13.866ZM54.6085 21.276C54.6085 21.428 54.6085 21.58 54.5705 21.732C52.9365 21.846 50.6565 22.416 50.0485 22.644C49.6685 22.796 49.4785 23.024 49.4785 23.29C49.4785 24.278 51.1125 26.064 52.9365 26.064C54.7605 26.064 56.4325 24.506 56.4325 22.834C56.4325 22.606 56.3945 22.378 56.3565 22.188C57.2305 22.416 57.6485 22.872 57.7625 22.872C57.9145 22.872 58.1425 22.682 58.1425 22.53C58.1425 22.34 57.5345 21.96 56.3185 21.77C56.0145 20.516 55.2545 19.946 55.2545 18.616C55.2545 17.21 57.7245 16.222 57.7245 15.652C57.7245 15.158 56.8885 14.284 56.3565 14.284C55.6725 14.284 53.7345 15.842 53.7345 17.286C53.7345 17.932 53.9245 18.35 54.1145 18.844C53.1645 19.87 52.4805 20.592 52.4805 20.592C52.2905 20.782 52.1385 20.934 52.1385 21.048C52.1385 21.124 52.2145 21.2 52.2905 21.2C52.3285 21.2 52.4045 21.124 52.4805 21.048C52.4805 21.048 53.3165 20.212 54.2665 19.186C54.4565 19.718 54.6085 20.326 54.6085 21.276ZM50.5045 23.024C50.9605 22.872 52.5945 22.15 54.5325 22.036C54.2665 23.252 53.3925 24.392 52.1385 24.392C50.9225 24.392 50.1245 23.822 50.1245 23.404C50.1245 23.252 50.2005 23.138 50.5045 23.024ZM99.1056 23.898C99.1436 20.25 109.784 8.964 109.784 5.924C109.784 4.822 108.378 3.378 106.934 3.378C101.158 3.378 84.8556 28.724 83.0316 28.724C82.9556 28.724 82.8796 28.648 82.8796 28.572C82.8796 23.822 94.2036 12.346 94.2036 5.924C94.2036 2.732 91.1636 0.299999 87.5916 0.299999C79.1936 0.299999 66.7676 9.914 66.7676 17.134C66.7676 19.224 68.8956 20.82 70.8336 20.82C77.1036 20.82 85.8436 11.32 85.8436 9.686C85.8436 9.42 85.4636 8.812 85.3116 8.812C85.1976 8.812 85.1596 8.926 85.1216 9.002C84.0956 11.738 76.6476 20.25 71.3276 20.25C69.6176 20.25 69.0476 19.072 69.0476 17.476C69.0476 11.244 79.5736 0.869998 88.3136 0.869998C90.3276 0.869998 92.0756 2.124 92.0756 5.164C92.0756 11.13 80.6376 22.834 80.6376 27.508C80.6376 28.572 82.4236 29.522 83.2596 29.522C83.6776 29.522 83.8676 29.446 84.2476 28.952C87.7816 24.468 102.26 4.062 107.2 4.062C107.77 4.062 107.884 4.29 107.884 4.632C107.884 6.988 95.9516 20.668 95.9516 24.05C95.9516 24.886 97.3576 26.102 98.0036 26.102C98.2696 26.102 98.6876 25.532 99.5236 24.544C103.286 20.06 111.38 11.966 114.002 11.966C114.268 11.966 114.458 12.194 114.458 12.46C114.458 14.816 108.834 20.554 108.834 24.734C108.834 27.166 110.81 28.268 112.178 28.268C112.406 28.268 112.558 28.192 112.558 28.078C112.558 27.964 112.444 27.926 112.33 27.926C111.152 27.926 110.81 26.71 110.81 26.026C110.81 21.77 116.396 15.994 116.396 13.752C116.396 12.536 114.686 11.282 113.736 11.282C110.658 11.282 100.17 22.72 99.1056 23.898ZM130.262 21.048C130.376 20.934 130.642 20.668 130.642 20.592C130.642 20.554 130.604 20.44 130.49 20.44C130.414 20.44 130.338 20.516 130.262 20.592C130.262 20.592 126.652 24.202 124.79 24.202C124.334 24.202 123.954 23.974 123.954 23.48C123.954 22.302 125.626 21.048 125.626 20.592C125.626 19.984 124.6 18.996 124.258 18.996C123.916 18.996 123.08 19.756 121.94 20.896C120.116 22.72 117.38 25.342 116.658 25.342C116.316 25.342 116.164 25.152 116.164 24.848C116.164 22.226 121.104 16.906 124.676 16.906C124.942 16.906 125.36 17.248 125.36 17.514C125.36 17.97 125.17 18.084 125.17 18.236C125.17 18.388 125.398 18.616 125.512 18.616C125.626 18.616 125.816 18.236 125.816 17.628C125.816 16.792 124.372 15.462 122.89 15.462C119.622 15.462 114.454 20.706 114.454 23.746C114.454 24.924 115.784 25.95 116.658 25.95C117.532 25.95 120.192 23.214 122.092 21.352C122.092 21.352 121.978 21.998 121.978 22.72C121.978 24.164 123.042 25 124.258 25C126.386 25 130.262 21.048 130.262 21.048ZM131.82 20.592C132.96 17.818 134.442 16.336 135.088 16.336C135.278 16.336 135.392 16.45 135.392 16.754C135.392 17.628 133.53 19.452 131.82 20.592ZM139.078 20.592C139.078 20.592 135.354 24.43 133.34 24.43C132.238 24.43 131.668 23.442 131.668 22.264C131.668 21.998 131.706 21.314 131.782 21.086C133.872 19.794 136.19 17.78 136.19 16.716C136.19 16.26 135.544 14.968 134.518 14.968C132.846 14.968 129.426 18.54 129.426 21.96C129.426 23.936 130.452 25.152 132.39 25.152C135.316 25.152 139.078 21.048 139.078 21.048C139.192 20.934 139.458 20.668 139.458 20.592C139.458 20.554 139.42 20.44 139.306 20.44C139.23 20.44 139.078 20.592 139.078 20.592ZM153.686 21.048C153.8 20.934 154.104 20.668 154.104 20.592C154.104 20.554 154.028 20.44 153.952 20.44C153.838 20.44 153.686 20.592 153.686 20.592C153.686 20.592 150.152 24.088 148.214 24.088C147.872 24.088 147.644 23.86 147.644 23.404C147.644 21.808 150.646 19.376 150.646 18.274C150.646 17.172 149.05 16.146 148.556 16.146C147.72 16.146 142.02 19.756 140.234 23.252C140.31 22.492 140.576 21.542 140.994 20.516C142.628 18.92 152.432 10.864 152.432 7.178C152.432 6.456 151.444 5.62 150.532 5.62C146.922 5.62 138.22 17.628 138.22 24.848C138.22 25.494 138.828 26.292 139.322 26.292C139.55 26.292 139.74 25.418 140.5 23.86C142.4 20.098 147.568 16.83 148.404 16.83C148.594 16.83 148.67 16.944 148.67 17.058C148.67 17.286 146.01 19.87 146.01 22.644C146.01 23.594 147.302 24.696 148.024 24.696C150.076 24.696 153.686 21.048 153.686 21.048ZM151.71 7.444C151.71 10.56 142.362 18.578 141.336 19.642C143.578 14.322 148.632 7.102 151.406 7.102C151.596 7.102 151.71 7.216 151.71 7.444ZM156.072 19.262C157.06 15.538 162.266 6.722 164.394 6.722C164.66 6.722 164.888 6.874 164.888 7.216C164.888 9.534 159.036 16.336 156.072 19.262ZM155.996 24.886C155.464 24.886 155.046 24.582 155.046 23.67C155.046 22.112 155.768 20.136 155.768 20.136C159.454 16.678 165.572 9.838 165.572 7.254C165.572 6.152 164.698 5.164 163.596 5.164C160.708 5.164 153.298 16.184 153.298 23.404C153.298 24.962 154.172 25.722 155.198 25.722C157.288 25.722 162.228 21.048 162.228 21.048C162.342 20.934 162.608 20.668 162.608 20.592C162.608 20.554 162.57 20.44 162.456 20.44C162.38 20.44 162.304 20.516 162.228 20.592C162.228 20.592 157.516 24.886 155.996 24.886ZM163.771 20.592C164.911 17.818 166.393 16.336 167.039 16.336C167.229 16.336 167.343 16.45 167.343 16.754C167.343 17.628 165.481 19.452 163.771 20.592ZM171.029 20.592C171.029 20.592 167.305 24.43 165.291 24.43C164.189 24.43 163.619 23.442 163.619 22.264C163.619 21.998 163.657 21.314 163.733 21.086C165.823 19.794 168.141 17.78 168.141 16.716C168.141 16.26 167.495 14.968 166.469 14.968C164.797 14.968 161.377 18.54 161.377 21.96C161.377 23.936 162.403 25.152 164.341 25.152C167.267 25.152 171.029 21.048 171.029 21.048C171.143 20.934 171.409 20.668 171.409 20.592C171.409 20.554 171.371 20.44 171.257 20.44C171.181 20.44 171.029 20.592 171.029 20.592ZM171.045 20.592C170.893 20.782 170.703 20.972 170.703 21.048C170.703 21.124 170.779 21.2 170.855 21.2C170.893 21.2 170.969 21.124 171.045 21.048C171.957 20.098 173.363 18.616 174.503 17.134C174.883 17.324 175.187 17.552 175.187 17.894C175.187 19.072 173.173 20.896 173.173 23.138C173.173 24.202 174.389 25.19 175.529 25.19C177.391 25.19 181.381 21.048 181.381 21.048C181.533 20.896 181.723 20.706 181.723 20.63C181.723 20.554 181.685 20.44 181.571 20.44C181.533 20.44 181.457 20.516 181.381 20.592C181.381 20.592 177.391 24.544 175.985 24.544C175.453 24.544 175.187 24.126 175.187 23.67C175.187 22.226 177.809 20.174 177.809 18.73C177.809 17.742 175.871 17.4 174.693 16.83C175.529 15.69 176.137 14.55 176.137 13.638C176.137 13.372 175.225 12.612 174.693 12.612C173.819 12.612 172.109 13.866 172.109 15.272C172.109 16.146 173.249 16.602 174.161 16.982C173.173 18.35 171.843 19.718 171.045 20.592ZM175.529 13.866C175.529 14.702 175.035 15.69 174.389 16.678C174.047 16.45 173.819 16.184 173.819 15.842C173.819 14.474 174.959 13.676 175.301 13.676C175.415 13.676 175.529 13.752 175.529 13.866Z" fill="#00225D"/>
</svg>
