<?xml version="1.0" encoding="UTF-8"?>
<svg width="67px" height="67px" viewBox="0 0 67 67" version="1.1" xmlns="http://www.w3.org/2000/svg" xmlns:xlink="http://www.w3.org/1999/xlink">
    <!-- Generator: Sketch 50.2 (55047) - http://www.bohemiancoding.com/sketch -->
    <title>magnify-icon</title>
    <desc>Created with Sketch.</desc>
    <defs></defs>
    <g id="Website" stroke="none" stroke-width="1" fill="none" fill-rule="evenodd">
        <g id="Service---Photography/Videography" transform="translate(-147.000000, -4654.000000)" fill="#FFFFFF">
            <path d="M204.024623,4682.43376 C204.024623,4686.36109 203.278441,4690.06582 201.786056,4693.54806 C200.293671,4697.0303 198.251487,4700.0543 195.659443,4702.62016 C193.0674,4705.18603 190.0434,4707.21512 186.587342,4708.7075 C183.131284,4710.19989 179.439642,4710.94607 175.512317,4710.94607 C171.584981,4710.94607 167.893339,4710.19989 164.437281,4708.7075 C160.981224,4707.21512 157.957223,4705.18603 155.365182,4702.62016 C152.773141,4700.0543 150.730957,4697.0303 149.238569,4693.54806 C147.746183,4690.06582 147,4686.36109 147,4682.43376 C147,4678.50643 147.746183,4674.81479 149.238569,4671.35873 C150.730957,4667.90267 152.773141,4664.89176 155.365182,4662.3259 C157.957223,4659.76005 160.981224,4657.73095 164.437281,4656.23857 C167.893339,4654.74618 171.584981,4654 175.512317,4654 C179.439642,4654 183.131284,4654.74618 186.587342,4656.23857 C190.0434,4657.73095 193.0674,4659.76005 195.659443,4662.3259 C198.251487,4664.89176 200.293671,4667.90267 201.786056,4671.35873 C203.278441,4674.81479 204.024623,4678.50643 204.024623,4682.43376 Z M175.512317,4704.26964 C178.497087,4704.26964 181.311634,4703.69363 183.956038,4702.54161 C186.600442,4701.3896 188.917541,4699.83178 190.907394,4697.86811 C192.897237,4695.90444 194.455063,4693.60044 195.580892,4690.95604 C196.706731,4688.31163 197.26964,4685.4709 197.26964,4682.43376 C197.26964,4679.44899 196.706731,4676.63444 195.580892,4673.99003 C194.455063,4671.34563 192.897237,4669.04162 190.907394,4667.07796 C188.917541,4665.11429 186.600442,4663.55647 183.956038,4662.40445 C181.311634,4661.25243 178.497087,4660.67643 175.512317,4660.67643 C172.527537,4660.67643 169.71299,4661.25243 167.068585,4662.40445 C164.424181,4663.55647 162.107083,4665.11429 160.117239,4667.07796 C158.127386,4669.04162 156.569565,4671.34563 155.443729,4673.99003 C154.317892,4676.63444 153.754983,4679.44899 153.754983,4682.43376 C153.754983,4685.4709 154.317892,4688.31163 155.443729,4690.95604 C156.569565,4693.60044 158.127386,4695.90444 160.117239,4697.86811 C162.107083,4699.83178 164.424181,4701.3896 167.068585,4702.54161 C169.71299,4703.69363 172.527537,4704.26964 175.512317,4704.26964 Z M195.541621,4707.33294 L200.411493,4702.54161 L214,4716.13013 L209.20868,4721 L195.541621,4707.33294 Z" id="magnify-icon"></path>
        </g>
    </g>
</svg>