<?xml version="1.0" encoding="utf-8"?>
<!-- Generator: Adobe Illustrator 24.1.0, SVG Export Plug-In . SVG Version: 6.00 Build 0)  -->
<svg version="1.1" id="Layer_1" xmlns="http://www.w3.org/2000/svg" xmlns:xlink="http://www.w3.org/1999/xlink" x="0px" y="0px"
	 viewBox="0 0 487.2 344.2" style="enable-background:new 0 0 487.2 344.2;" xml:space="preserve">
<style type="text/css">
	.st0{fill:none;stroke:#427FE0;stroke-width:8;stroke-miterlimit:10;}
	.st1{fill:#FF5254;}
	.st2{fill:#427FE0;}
	.st3{fill:none;stroke:#427FE0;stroke-width:4;stroke-miterlimit:10;}
	.st4{fill:none;stroke:#3D4451;stroke-miterlimit:10;}
	.st5{fill:#3D4451;}
</style>
<circle class="st0" cx="108" cy="188.9" r="43.3"/>
<g>
	<path class="st1" d="M102.5,181.9c0.4-0.3,0.7-0.4,1.1-0.1c0.2,0.1,0.3,0.3,0.5,0.4c0.3,0.3,0.3,0.6-0.1,0.9l-0.9,0.7
		c-0.3,0.2-0.3,0.4-0.1,0.6c0.3,0.2,0.6,0.1,1-0.1c0.3-0.2,0.6-0.5,0.9-0.7c0.4-0.4,0.7-0.4,1-0.1l0.5,0.4c0.4,0.3,0.4,0.6,0.1,0.9
		l-0.7,0.5c-0.3,0.2-0.3,0.4,0.1,0.5l0.9,0.4c0.5,0.2,0.6,0.4,0.4,0.8c-0.2,0.3-0.3,0.5-0.4,0.8c-0.2,0.4-0.5,0.5-0.8,0.4l-1.2-0.5
		c-0.3-0.2-0.5-0.1-0.5,0.2v0.4c0,0.6,0.2,0.8,0.7,0.5c0,0,0.1-0.2,0.1-0.3c0-0.2,0.2-0.2,0.6-0.1l0.7,0.3c0.5,0.2,0.7,0.5,0.6,0.9
		c0,0.2-0.1,0.4-0.2,0.6c-0.2,0.3-0.5,0.4-1,0.5c-1.1,0.1-1.8,0-2.3-0.1c-0.6-0.2-1-0.5-1-1.1c-0.1-0.3-0.1-0.7-0.1-1
		c0-0.3-0.1-0.4-0.4-0.4h-0.4c-0.3,0-0.5,0.2-0.5,0.5c-0.1,0.9-0.6,1.6-1.4,2.1c-0.3,0.2-0.3,0.3,0.1,0.3h6.1c0.4,0,0.5,0.2,0.5,0.5
		c0.1,0.6,0,1-0.2,1.2c-0.4,0.6-0.8,1.2-1.3,1.8c-0.3,0.3-0.2,0.5,0.1,0.6l1.6,0.4c0.4,0.1,0.6,0.3,0.5,0.7l-0.4,0.9
		c-0.2,0.4-0.4,0.5-0.8,0.5c-1-0.2-2-0.5-3-1c-0.2-0.1-0.6-0.1-0.9,0.1c-0.8,0.4-1.7,0.7-2.7,1c-0.4,0.1-0.6,0-0.8-0.4
		c-0.1-0.2-0.3-0.5-0.4-0.7c-0.2-0.4-0.2-0.7,0.2-0.7c0.7-0.1,1.4-0.3,2.1-0.6c0.3-0.1,0.3-0.4-0.1-0.7c-0.4-0.5-0.7-0.9-0.9-1.3
		c-0.2-0.3-0.4-0.4-0.7-0.4c-0.3,0-0.4-0.2-0.4-0.5v-0.7c0-0.4,0.1-0.5,0.2-0.5c0.1,0,0.1-0.2-0.1-0.5l-0.2-0.4
		c-0.2-0.3-0.3-0.3-0.3,0.1v0.5c0,0.4-0.2,0.5-0.5,0.5h-2.8c-0.3,0-0.5,0.2-0.5,0.5c0,0.3,0.1,0.5,0.4,0.5h3.2
		c0.4,0,0.5,0.2,0.5,0.5c-0.1,1.8-0.4,3.2-0.9,4c-0.8,0.9-1.8,1.1-3.2,0.8l-0.2,0c-0.4-0.1-0.6-0.3-0.7-0.7c-0.1-0.3-0.2-0.7-0.3-1
		c-0.1-0.4,0.1-0.5,0.4-0.4c0.7,0.1,1.4,0.1,2.2,0c0.4-0.2,0.6-0.5,0.6-1c0.1-0.3,0-0.5-0.3-0.5h-1.6c-0.3,0-0.4,0.1-0.5,0.2
		c0,0.1-0.2,0.2-0.6,0.2h-0.9c-0.4,0-0.5-0.2-0.5-0.5l0.4-3.7c0.1-0.4,0.3-0.7,0.6-0.7h2.7c0.3,0,0.4-0.2,0.4-0.6
		c0-0.4-0.1-0.6-0.4-0.6h-0.8c-0.4,0-0.5-0.1-0.5-0.2c0-0.1-0.2-0.1-0.5,0.1c-0.5,0.2-1,0.4-1.5,0.5c-0.4,0.1-0.7-0.1-0.8-0.4
		l-0.1-0.4c-0.2-0.4-0.1-0.7,0.3-0.8c0.5-0.2,1-0.4,1.5-0.6c0.3-0.1,0.2-0.4-0.2-0.8c-0.4-0.3-0.3-0.7,0.2-1l0.5-0.4
		c0.4-0.2,0.7-0.2,1.1,0l0.4,0.3c0.3,0.3,0.6,0.3,0.9,0c0.3-0.2,0.6-0.5,0.9-0.8c0.3-0.3,0.3-0.4,0-0.4h-4.3c-0.4,0-0.5-0.2-0.5-0.5
		v-0.8c0-0.4,0.2-0.5,0.5-0.5h6.8c0.4,0,0.5,0.1,0.5,0.3s0.2,0.5,0.5,0.7c0.3,0.2,0.7,0.2,1,0C101.8,182.4,102.2,182.2,102.5,181.9z
		 M99.7,184.4c-0.3-0.2-0.6-0.2-0.9,0.1c-0.6,0.6-1.2,1.2-1.7,1.5c-0.3,0.2-0.3,0.4,0,0.4h0.2c0.4,0,0.5,0.2,0.5,0.5v1.8
		c0,0.3,0.2,0.3,0.5,0.1c0.5-0.5,0.8-1.2,0.7-2.2c0-0.4,0.2-0.5,0.6-0.5h1.8c0.4,0,0.4-0.1,0.1-0.3
		C101,185.4,100.4,184.9,99.7,184.4z M103.6,193.1c0.2-0.3,0.2-0.4-0.1-0.4h-1.8c-0.3,0-0.3,0.2,0.1,0.6l0.3,0.3
		c0.3,0.3,0.7,0.2,1.1-0.1L103.6,193.1z"/>
	<path class="st1" d="M109.2,192.4c0-0.4,0.2-0.6,0.5-0.6h14.9c0.4,0,0.5,0.2,0.5,0.5v0.8c0,0.4-0.2,0.5-0.5,0.5h-5.9
		c-0.3,0-0.4,0.1-0.4,0.4c0,0.6,0,1.1,0,1.7c0,0.5-0.2,0.9-0.6,1.3c-0.7,0.4-1.5,0.5-2.4,0.4c-0.4-0.1-0.6-0.4-0.6-0.7l-0.2-0.9
		c-0.1-0.4,0.1-0.5,0.5-0.4c0.2,0.1,0.5,0.1,0.7,0.1c0.3,0.1,0.5-0.1,0.6-0.6v-0.8c0-0.3-0.1-0.4-0.4-0.4h-6.1
		c-0.4,0-0.5-0.2-0.5-0.5V192.4z M109.3,182.2c0-0.4,0.2-0.5,0.5-0.5h14.6c0.4,0,0.5,0.2,0.5,0.5v0.8c0,0.4-0.2,0.5-0.5,0.5h-3.9
		c-0.3,0-0.4,0.1-0.4,0.3c0,0.2,0.1,0.3,0.4,0.3h3.1c0.4,0,0.5,0.2,0.5,0.5v3.7c0,0.4-0.2,0.5-0.5,0.5h-12.7c-0.4,0-0.5-0.2-0.5-0.5
		v-3.7c0-0.4,0.2-0.5,0.5-0.5h3c0.3,0,0.4-0.1,0.4-0.3c0-0.2-0.1-0.3-0.4-0.3h-4c-0.4,0-0.5-0.2-0.5-0.5V182.2z M111.9,194.3
		c0.4-0.2,0.7-0.2,1.1,0.1l0.5,0.4c0.4,0.3,0.4,0.6,0,0.8c-0.7,0.5-1.6,0.9-2.8,1.4c-0.4,0.1-0.7,0-0.9-0.3l-0.4-0.7
		c-0.3-0.4-0.2-0.7,0.2-0.8C110.4,195,111.2,194.7,111.9,194.3z M111.2,190.1c0-0.4,0.2-0.6,0.5-0.6h11.1c0.4,0,0.5,0.2,0.5,0.5v0.7
		c0,0.4-0.2,0.5-0.5,0.5h-11c-0.4,0-0.5-0.2-0.5-0.5V190.1z M114.2,186.6c0-0.4-0.1-0.5-0.4-0.5h-1c-0.3,0-0.4,0.2-0.4,0.5
		c0,0.4,0.1,0.5,0.4,0.5h1C114.1,187.1,114.2,187,114.2,186.6z M118.1,183.9c0-0.2-0.1-0.3-0.4-0.3h-1c-0.3,0-0.4,0.1-0.4,0.3
		c0,0.2,0.1,0.3,0.4,0.3h1C117.9,184.2,118.1,184.1,118.1,183.9z M118.1,186.6c0-0.4-0.1-0.5-0.4-0.5h-1c-0.3,0-0.4,0.2-0.4,0.5
		c0,0.4,0.1,0.5,0.4,0.5h1C117.9,187.1,118.1,187,118.1,186.6z M120.6,194.5c0.3-0.3,0.6-0.3,0.9-0.2c0.8,0.4,1.7,0.7,2.7,1
		c0.4,0.1,0.4,0.3,0.2,0.7c-0.2,0.3-0.4,0.6-0.5,0.9c-0.2,0.4-0.5,0.5-0.8,0.4c-1-0.4-2-0.9-3.1-1.5c-0.3-0.2-0.3-0.5,0-0.8
		L120.6,194.5z M122,186.6c0-0.4-0.1-0.5-0.4-0.5h-1.1c-0.3,0-0.4,0.2-0.4,0.5c0,0.4,0.1,0.5,0.4,0.5h1.1
		C121.8,187.1,122,187,122,186.6z"/>
</g>
<circle class="st0" cx="239.3" cy="147.6" r="43.3"/>
<g>
	<path class="st1" d="M224.7,140.7c0-0.4,0.2-0.6,0.5-0.6h0.9c0.4,0,0.5,0.2,0.5,0.5v1.9c0,0.3,0.1,0.4,0.4,0.4h0.8
		c0.4,0,0.5,0.2,0.5,0.5v0.8c0,0.4-0.2,0.5-0.5,0.5h-0.8c-0.3,0-0.4,0.2-0.4,0.5c0,0.3,0.2,0.7,0.5,1c0.4,0.4,0.8,0.8,1.3,1.2
		c0.4,0.4,0.4,0.8,0.1,1.2l-0.4,0.6c-0.3,0.4-0.6,0.5-0.8,0.1l-0.4-0.5c-0.2-0.3-0.4-0.4-0.4-0.1v7c0,0.4-0.2,0.5-0.5,0.5h-0.9
		c-0.4,0-0.5-0.2-0.5-0.5v-5.7c0-0.4-0.1-0.4-0.2,0c-0.2,0.5-0.4,1.1-0.7,1.6c-0.2,0.3-0.4,0.3-0.7,0l-0.4-0.5
		c-0.3-0.4-0.3-0.7-0.1-1.1c1-2,1.6-3.5,2-4.7c0.1-0.3,0-0.5-0.2-0.5h-1c-0.4,0-0.5-0.2-0.5-0.5v-0.8c0-0.4,0.2-0.5,0.5-0.5h1.1
		c0.3,0,0.4-0.1,0.4-0.4V140.7z M232.5,140.7c0-0.4,0.2-0.6,0.5-0.6h1.1c0.4,0,0.5,0.2,0.5,0.5v0.7c0,0.3,0.1,0.4,0.4,0.4h3
		c0.4,0,0.5,0.2,0.5,0.5v0.9c0,0.4-0.2,0.5-0.5,0.5h-3.8c-0.3,0-0.5,0.2-0.8,0.5l-1.1,1.6c-0.3,0.3-0.2,0.6,0.1,0.8
		c0.3,0.2,0.7,0.2,1-0.1c0.4-0.5,0.8-1,1.2-1.5c0.3-0.4,0.6-0.6,1-0.4l0.8,0.4c0.4,0.2,0.4,0.5,0.2,0.8c-1.9,2.8-4.1,4.9-6.6,6.5
		c-0.4,0.2-0.6,0.3-0.6,0.3l-0.8-1c-0.3-0.4-0.3-0.8,0.1-1c0.8-0.6,1.6-1.2,2.2-1.8c0.3-0.2,0.2-0.5-0.1-0.8L229,147
		c-0.4-0.3-0.4-0.6-0.2-0.9l0.4-0.5c0.4-0.4,0.6-0.6,0.8-0.4c0.2,0.1,0.4,0,0.7-0.3l0.3-0.5c0.2-0.4,0.2-0.5-0.1-0.5h-1.8
		c-0.4,0-0.5-0.2-0.5-0.5v-0.9c0-0.4,0.2-0.5,0.5-0.5h2.9c0.3,0,0.4-0.1,0.4-0.4V140.7z M235.9,148.4c0.3-0.4,0.7-0.6,1-0.4l0.7,0.4
		c0.4,0.2,0.4,0.5,0.2,0.9c-0.3,0.5-0.8,1.1-1.5,1.8c-0.3,0.3-0.3,0.6,0.1,0.9c0.6,0.6,1.2,1.3,1.7,1.9c0.4,0.4,0.4,0.8,0,1.2
		l-0.6,0.6c-0.4,0.4-0.7,0.4-0.9,0c-0.5-0.8-1.1-1.5-1.8-2.3c-0.3-0.3-0.6-0.3-1,0c-1.2,1-2.4,1.8-3.5,2.5c-0.4,0.2-0.8,0.2-1.1-0.2
		l-0.4-0.6c-0.3-0.4-0.3-0.7,0.1-0.9C231.5,152.7,233.8,150.7,235.9,148.4z"/>
	<path class="st1" d="M242.1,148.7c0.1-0.4,0.3-0.5,0.6-0.4l0.8,0.3c0.4,0.1,0.5,0.4,0.4,0.7c-0.5,2.4-1,4.4-1.5,6
		c-0.1,0.4-0.4,0.4-0.7,0.3l-0.9-0.5c-0.4-0.2-0.5-0.5-0.4-0.8C241.1,152.6,241.7,150.7,242.1,148.7z M242,141.2
		c0.4-0.2,0.7-0.1,0.9,0.2c0.3,0.7,0.7,1.5,1,2.4c0.1,0.4,0,0.6-0.4,0.8c-0.3,0.1-0.6,0.2-0.9,0.4c-0.4,0.2-0.7,0.1-0.8-0.3
		c-0.3-0.9-0.6-1.7-0.9-2.4c-0.2-0.4-0.1-0.6,0.3-0.8C241.5,141.4,241.8,141.3,242,141.2z M246.4,140.6c0.2-0.4,0.4-0.6,0.8-0.5
		l0.9,0.3c0.4,0.1,0.6,0.4,0.4,0.8l-0.4,1.1c-0.1,0.3,0,0.4,0.3,0.4h2c0.3,0,0.5-0.2,0.6-0.5c0.1-0.5,0.3-0.9,0.4-1.4
		c0.1-0.4,0.3-0.5,0.6-0.4l1.1,0.2c0.4,0.1,0.6,0.3,0.5,0.7l-0.3,1c-0.1,0.3,0,0.4,0.3,0.4h2.5c0.4,0,0.5,0.2,0.5,0.5v0.9
		c0,0.4-0.2,0.5-0.5,0.5h-2.9c-0.3,0-0.4,0.1-0.4,0.4v0.9c0,0.3,0.1,0.4,0.4,0.4h2.4c0.4,0,0.5,0.2,0.5,0.5v0.8
		c0,0.4-0.2,0.5-0.5,0.5h-2.4c-0.3,0-0.4,0.1-0.4,0.4v0.9c0,0.3,0.1,0.4,0.4,0.4h2.4c0.4,0,0.5,0.2,0.5,0.5v0.8
		c0,0.4-0.2,0.5-0.5,0.5h-2.4c-0.3,0-0.4,0.1-0.4,0.4v0.9c0,0.3,0.1,0.4,0.4,0.4h3c0.4,0,0.5,0.2,0.5,0.5v0.9c0,0.4-0.2,0.5-0.5,0.5
		h-8.1c-0.3,0-0.4,0.1-0.4,0.3c0,0.2-0.2,0.4-0.5,0.4h-0.9c-0.4,0-0.5-0.2-0.5-0.5v-8.2c0-0.3-0.1-0.3-0.4,0.1
		c-0.2,0.3-0.5,0.3-0.8,0.1l-0.7-0.5c-0.4-0.3-0.5-0.6-0.2-0.9C244.6,144.6,245.6,142.7,246.4,140.6z M250.7,145.1
		c0-0.3-0.1-0.5-0.4-0.5h-2.4c-0.3,0-0.4,0.1-0.4,0.4v0.9c0,0.3,0.1,0.4,0.4,0.4h2.3c0.3,0,0.4-0.1,0.4-0.4V145.1z M250.7,148.7
		c0-0.3-0.1-0.5-0.4-0.5h-2.4c-0.3,0-0.4,0.1-0.4,0.4v0.9c0,0.3,0.1,0.4,0.4,0.4h2.3c0.3,0,0.4-0.1,0.4-0.4V148.7z M250.7,152.3
		c0-0.3-0.1-0.4-0.4-0.4h-2.3c-0.3,0-0.4,0.1-0.4,0.4v0.9c0,0.3,0.1,0.4,0.4,0.4h2.3c0.3,0,0.4-0.1,0.4-0.4V152.3z"/>
</g>
<circle class="st0" cx="365.7" cy="176.1" r="43.3"/>
<g>
	<path class="st1" d="M351.7,169.2c0-0.4,0.2-0.5,0.5-0.5h0.9c0.4,0,0.5,0.2,0.5,0.5v0.6c0,0.3,0.1,0.4,0.4,0.4h1.7
		c0.4,0,0.5,0.2,0.5,0.5v0.8c0,0.4-0.2,0.5-0.5,0.5h-1.7c-0.3,0-0.4,0.1-0.4,0.4v0.4c0,0.3,0.1,0.4,0.4,0.4h2.1
		c0.4,0,0.5,0.2,0.5,0.5v0.8c0,0.4-0.1,0.5-0.4,0.5c-0.3,0-0.5,0.2-0.6,0.5c-0.1,0.3-0.2,0.5-0.3,0.8c-0.1,0.3,0,0.4,0.4,0.4
		c0.4,0,0.6,0.2,0.6,0.5v0.8c0,0.4-0.2,0.5-0.5,0.5h-1.7c-0.3,0-0.4,0.2-0.4,0.5c0,0.4,0.1,0.6,0.4,0.6h2.1c0.4,0,0.5,0.2,0.5,0.5
		v0.8c0,0.4-0.2,0.5-0.5,0.5h-2.1c-0.3,0-0.4,0.1-0.4,0.4v2.1c0,0.4-0.2,0.5-0.5,0.5h-0.9c-0.4,0-0.5-0.2-0.5-0.5v-2.1
		c0-0.3-0.1-0.4-0.4-0.4h-2c-0.4,0-0.5-0.2-0.5-0.5v-0.8c0-0.4,0.2-0.5,0.5-0.5h2c0.3,0,0.4-0.2,0.4-0.5c0-0.4-0.1-0.6-0.4-0.6h-1.6
		c-0.4,0-0.5-0.2-0.5-0.5v-0.8c0-0.4,0.2-0.5,0.5-0.5s0.5-0.2,0.4-0.5l-0.1-0.4c-0.2-0.4-0.1-0.6,0.1-0.7c0.2-0.1,0.2-0.2-0.2-0.2
		h-0.6c-0.4,0-0.5-0.2-0.5-0.5v-0.8c0-0.4,0.2-0.5,0.5-0.5h2.1c0.3,0,0.4-0.1,0.4-0.4v-0.4c0-0.3-0.1-0.4-0.4-0.4h-1.6
		c-0.4,0-0.5-0.2-0.5-0.5v-0.8c0-0.4,0.2-0.5,0.5-0.5h1.6c0.3,0,0.4-0.1,0.4-0.4V169.2z M353.6,175.6c0.1-0.3,0-0.4-0.3-0.4H352
		c-0.3,0-0.3,0.2-0.2,0.5l0.2,0.4c0.1,0.4,0.1,0.6-0.1,0.7c-0.3,0.1-0.3,0.2,0.1,0.2h0.8c0.3,0,0.5-0.2,0.6-0.5L353.6,175.6z
		 M357,169.6c0-0.4,0.2-0.6,0.5-0.6h6.3c0.4,0,0.5,0.2,0.5,0.5v3.3c0,0.5-0.2,1-0.6,1.4c-0.1,0.1-0.4,0.3-0.7,0.4
		c-0.3,0.1-0.8,0.1-1.6,0.1c-0.4,0-0.6-0.2-0.7-0.5l-0.2-0.9c-0.1-0.4,0.1-0.6,0.5-0.5c0.6,0.2,0.9,0.1,1.1-0.3c0-0.4,0-0.8,0-1.2
		c0-0.3-0.1-0.4-0.4-0.4h-2.4c-0.3,0-0.4,0.1-0.4,0.4v3.5c0,0.3,0.1,0.4,0.4,0.4h4.7c0.4,0,0.5,0.2,0.5,0.5c0,0.6,0,1-0.1,1.3
		c-0.4,1.6-0.8,3-1.3,3.9c-0.2,0.3-0.1,0.6,0.3,1c0.2,0.2,0.4,0.5,0.7,0.7c0.4,0.3,0.5,0.7,0.2,1.1l-0.5,0.6c-0.3,0.4-0.7,0.4-1,0.1
		c-0.3-0.3-0.5-0.5-0.8-0.8c-0.2-0.3-0.5-0.3-0.8,0.1c-0.2,0.3-0.6,0.5-1.1,0.9c-0.4,0.2-0.7,0.2-0.9-0.2l-0.1-0.3
		c-0.2-0.4-0.4-0.4-0.4-0.1v0.3c0,0.4-0.2,0.5-0.5,0.5h-0.9c-0.4,0-0.5-0.2-0.5-0.5V169.6z M359.2,177.5c-0.1-0.3-0.1-0.5-0.1-0.5
		c-0.1,0-0.1,0.2-0.1,0.5v4.9c0,0.3,0.2,0.3,0.5,0.1c0.2-0.2,0.5-0.4,0.8-0.7c0.2-0.3,0.3-0.6,0.1-0.9
		C359.9,179.9,359.5,178.8,359.2,177.5z M362.4,177.5c0.1-0.3,0-0.5-0.3-0.5h-0.8c-0.3,0-0.4,0.2-0.3,0.5c0.1,0.5,0.3,1,0.5,1.5
		c0.1,0.3,0.3,0.3,0.4-0.1L362.4,177.5z"/>
	<path class="st1" d="M373.7,169.1c0-0.4,0.2-0.6,0.5-0.6h1.1c0.4,0,0.5,0.2,0.5,0.5v1.1c0,0.3,0.1,0.4,0.4,0.4h4.7
		c0.4,0,0.5,0.2,0.5,0.5v0.9c0,0.4-0.2,0.5-0.5,0.5h-4.7c-0.3,0-0.4,0.1-0.4,0.4v1.2c0,0.3,0.1,0.4,0.4,0.4h5.8
		c0.4,0,0.5,0.2,0.5,0.5v1c0,0.4-0.2,0.5-0.5,0.5h-14.8c-0.4,0-0.5-0.2-0.5-0.5v-1c0-0.4,0.2-0.5,0.5-0.5h6c0.3,0,0.4-0.1,0.4-0.4
		V173c0-0.3-0.1-0.4-0.4-0.4h-2.8c-0.3,0-0.5,0.2-0.8,0.5c-0.2,0.3-0.4,0.6-0.6,0.9c-0.3,0.4-0.6,0.4-0.9,0.1l-0.7-0.5
		c-0.3-0.3-0.4-0.6-0.1-0.9c0.7-1,1.3-2.1,1.7-3.3c0.1-0.4,0.4-0.5,0.7-0.4l0.9,0.3c0.4,0.2,0.6,0.4,0.5,0.8c-0.1,0.4,0,0.5,0.3,0.5
		h1.9c0.3,0,0.4-0.1,0.4-0.4V169.1z M368.4,178.3c0-0.4,0.2-0.6,0.5-0.6h11.8c0.4,0,0.5,0.2,0.5,0.5v6c0,0.4-0.2,0.5-0.5,0.5h-1
		c-0.4,0-0.5-0.1-0.5-0.4c0-0.3-0.1-0.4-0.4-0.4h-7.8c-0.3,0-0.4,0.1-0.4,0.4c0,0.3-0.2,0.4-0.5,0.4h-1c-0.4,0-0.5-0.2-0.5-0.5
		V178.3z M379.1,180.1c0-0.3-0.1-0.4-0.4-0.4h-7.8c-0.3,0-0.4,0.1-0.4,0.4v1.5c0,0.3,0.1,0.4,0.4,0.4h7.8c0.3,0,0.4-0.1,0.4-0.4
		V180.1z"/>
</g>
<line class="st0" x1="31.8" y1="176.1" x2="64.7" y2="188.9"/>
<line class="st0" x1="282.5" y1="147.6" x2="322.5" y2="176.1"/>
<line class="st0" x1="409" y1="176.1" x2="456.6" y2="167.1"/>
<circle class="st2" cx="464" cy="161.9" r="12.6"/>
<circle class="st3" cx="21.3" cy="170.1" r="12.6"/>
<circle class="st3" cx="179.5" cy="255.5" r="32.8"/>
<g>
	<path class="st1" d="M155.7,250.4c0-0.3,0.1-0.4,0.4-0.4h0.6c0.3,0,0.4,0.1,0.4,0.4v1.4c0,0.2,0.1,0.3,0.3,0.3h0.4
		c0.3,0,0.4,0.1,0.4,0.4v0.5c0,0.3-0.1,0.4-0.4,0.4h-0.4c-0.2,0-0.3,0.1-0.3,0.3s0.1,0.5,0.4,0.7c0.3,0.3,0.6,0.6,0.9,0.9
		c0.2,0.2,0.3,0.5,0.1,0.8l-0.3,0.4c-0.2,0.3-0.4,0.3-0.6,0.1l-0.3-0.4c-0.2-0.2-0.3-0.2-0.3,0v5.1c0,0.3-0.1,0.4-0.4,0.4h-0.6
		c-0.3,0-0.4-0.1-0.4-0.4v-3.8c0-0.3-0.1-0.3-0.2,0l-0.3,0.8c-0.1,0.3-0.3,0.3-0.5,0.1l-0.3-0.4c-0.2-0.2-0.2-0.5,0-0.8
		c0.6-1.3,1-2.5,1.2-3.5c0-0.2,0-0.3-0.2-0.3h-0.5c-0.3,0-0.4-0.1-0.4-0.4v-0.5c0-0.3,0.1-0.4,0.4-0.4h0.6c0.2,0,0.3-0.1,0.3-0.3
		V250.4z M161.3,250.4c0-0.3,0.1-0.4,0.4-0.4h0.7c0.3,0,0.4,0.1,0.4,0.4v1.3c0,0.2,0.1,0.3,0.3,0.3h0.3c0.3,0,0.3-0.1,0.1-0.2
		c-0.2-0.1-0.2-0.3,0-0.6l0.3-0.5c0.1-0.3,0.3-0.4,0.6-0.3l0.6,0.2c0.3,0.1,0.4,0.3,0.3,0.5c-0.1,0.2-0.2,0.4-0.3,0.7
		c-0.1,0.2,0,0.3,0.2,0.3h0.6c0.3,0,0.4,0.1,0.4,0.4v1.6c0,0.3-0.1,0.4-0.4,0.4h-0.3c-0.2,0-0.3,0.1-0.3,0.3v1.2
		c0,0.3-0.1,0.4-0.4,0.4h-4.9c-0.3,0-0.4-0.1-0.4-0.4v-1.1c0-0.2-0.1-0.3-0.4-0.3c-0.3,0-0.4-0.1-0.4-0.4v-1.8
		c0-0.3,0.1-0.4,0.4-0.4h0.3c0.4,0.1,0.4-0.1,0-0.5c-0.2-0.3-0.2-0.5,0.1-0.7l0.4-0.3c0.3-0.2,0.5-0.1,0.7,0.1
		c0.1,0.2,0.3,0.3,0.4,0.5c0.2,0.3,0.2,0.5,0,0.6c-0.2,0.1-0.2,0.2,0.1,0.2h0.3c0.2,0,0.3-0.1,0.3-0.3V250.4z M158.8,257
		c0-0.3,0.1-0.4,0.4-0.4h5.8c0.3,0,0.4,0.1,0.4,0.4v4.3c0,0.3-0.1,0.4-0.4,0.4h-0.6c-0.3,0-0.4-0.1-0.4-0.2c0-0.1-0.1-0.2-0.3-0.2
		h-3.2c-0.2,0-0.3,0.1-0.3,0.2c0,0.1-0.1,0.2-0.4,0.2h-0.6c-0.3,0-0.4-0.1-0.4-0.4V257z M164.5,253.5c0-0.1-0.1-0.2-0.3-0.2H160
		c-0.2,0-0.3,0.1-0.3,0.2c0,0.1,0.1,0.2,0.3,0.2h4.2C164.4,253.6,164.5,253.6,164.5,253.5z M161.5,258.2c0-0.2-0.1-0.3-0.3-0.3h-0.7
		c-0.2,0-0.3,0.1-0.3,0.3c0,0.2,0.1,0.3,0.3,0.3h0.7C161.4,258.4,161.5,258.3,161.5,258.2z M161.5,259.9c0-0.2-0.1-0.3-0.3-0.3h-0.7
		c-0.2,0-0.3,0.1-0.3,0.3c0,0.2,0.1,0.3,0.3,0.3h0.7C161.4,260.2,161.5,260.1,161.5,259.9z M163.5,255c0-0.2-0.1-0.3-0.3-0.3h-2.3
		c-0.2,0-0.3,0.1-0.3,0.3c0,0.2,0.1,0.3,0.3,0.3h2.3C163.4,255.2,163.5,255.1,163.5,255z M164.1,258.2c0-0.2-0.1-0.3-0.3-0.3h-0.7
		c-0.2,0-0.3,0.1-0.3,0.3c0,0.2,0.1,0.3,0.3,0.3h0.6C163.9,258.4,164.1,258.3,164.1,258.2z M164.1,259.9c0-0.2-0.1-0.3-0.3-0.3h-0.6
		c-0.2,0-0.3,0.1-0.3,0.3c0,0.2,0.1,0.3,0.3,0.3h0.6C163.9,260.2,164.1,260.1,164.1,259.9z"/>
	<path class="st1" d="M172.4,256.8c0-0.3,0.1-0.4,0.4-0.4h0.7c0.3,0,0.4,0.1,0.4,0.4v0.2c0,0.2,0.1,0.3,0.3,0.3h4.2
		c0.3,0,0.4,0.1,0.4,0.4v0.6c0,0.3-0.1,0.4-0.4,0.4h-2.7c-0.3,0-0.3,0.1-0.1,0.2c0.8,0.4,1.8,0.8,3,1.1c0.3,0.1,0.3,0.2,0.2,0.5
		l-0.4,0.7c-0.1,0.3-0.4,0.3-0.6,0.2c-1.2-0.4-2.4-1.1-3.6-2c-0.2-0.2-0.4-0.2-0.4,0v1.9c0,0.3-0.1,0.4-0.4,0.4h-0.7
		c-0.3,0-0.4-0.1-0.4-0.4v-1.8c0-0.2-0.1-0.2-0.4,0c-0.9,0.8-2.1,1.4-3.6,2c-0.3,0.1-0.5,0-0.7-0.3c-0.1-0.1-0.2-0.3-0.2-0.4
		c-0.2-0.3-0.1-0.4,0.2-0.5c0.9-0.3,1.9-0.7,2.9-1.2c0.3-0.2,0.3-0.3,0-0.3h-2.7c-0.3,0-0.4-0.1-0.4-0.4v-0.6c0-0.3,0.1-0.4,0.4-0.4
		h4.2C172.3,257.3,172.4,257.1,172.4,256.8z M172.3,250.3c0-0.2,0.1-0.3,0.4-0.3h0.9c0.3,0,0.4,0.1,0.4,0.3c0,0.2,0.1,0.3,0.3,0.3h4
		c0.3,0,0.4,0.1,0.4,0.4v1.1c0,0.3-0.1,0.4-0.4,0.4h-0.7c-0.3,0-0.4-0.1-0.4-0.2c0-0.2-0.1-0.3-0.3-0.3h-4.1c-0.3,0-0.3,0-0.1,0.1
		l0.4,0.1c0.3,0.1,0.3,0.2,0.2,0.3c-0.1,0.1-0.1,0.2,0.2,0.2h4.8c0.3,0,0.4,0.1,0.4,0.4v0.5c0,0.3-0.1,0.4-0.4,0.4h-1.7
		c-0.2,0-0.4,0.1-0.7,0.4c-0.1,0.1-0.3,0.2-0.4,0.3c-0.3,0.2-0.3,0.4,0,0.4c0.7,0.2,1.4,0.4,2.2,0.6c0.3,0.1,0.3,0.3,0.2,0.5
		l-0.2,0.4c-0.2,0.3-0.4,0.4-0.7,0.3c-1.1-0.4-2.3-0.8-3.5-1.1c-0.1,0-0.2,0-0.3,0.1c-1.3,0.5-2.8,0.8-4.6,1c-0.3,0-0.5-0.1-0.6-0.4
		l-0.1-0.4c-0.1-0.3,0-0.4,0.3-0.5c0.9-0.1,1.7-0.2,2.4-0.3c0.3-0.1,0.2-0.1,0-0.2c-0.2,0-0.4,0-0.4,0s-0.3,0-0.5-0.1
		c-0.2-0.1-0.3-0.2-0.5-0.3c-0.3-0.2-0.3-0.3,0-0.5c0.1,0,0.1,0,0.2-0.1c0.2-0.2,0.2-0.2-0.1-0.2H168c-0.3,0-0.4-0.1-0.4-0.4v-0.5
		c0-0.3,0.1-0.4,0.4-0.4h3.1c0.2,0.1,0.5-0.1,0.8-0.5c0.2-0.2,0.1-0.3-0.1-0.3h-2.4c-0.2,0-0.3,0.1-0.3,0.2c0,0.2-0.1,0.3-0.4,0.3
		H168c-0.3,0-0.4-0.1-0.4-0.4V251c0-0.3,0.1-0.4,0.4-0.4h4C172.2,250.6,172.3,250.5,172.3,250.3z M174.1,254.3
		c0.2-0.2,0.3-0.2,0.1-0.2h-1.9c-0.2,0-0.4,0-0.4,0.1c-0.1,0.1-0.1,0.2,0.2,0.2l1.1,0.2C173.3,254.7,173.6,254.6,174.1,254.3z"/>
	<path class="st1" d="M182,250.4c0.1-0.3,0.2-0.4,0.5-0.3l0.6,0.2c0.3,0.1,0.4,0.3,0.3,0.5c-0.1,0.5-0.3,0.9-0.5,1.4
		c-0.2,0.4-0.3,0.6-0.2,0.8v8.2c0,0.3-0.1,0.4-0.4,0.4h-0.6c-0.3,0-0.4-0.1-0.4-0.4v-5.2c0-0.3-0.1-0.3-0.2-0.1
		c-0.1,0.2-0.3,0.2-0.4-0.1l-0.3-0.6c-0.1-0.3-0.1-0.5,0-0.8C181,253.2,181.6,251.9,182,250.4z M183.2,252.3c0-0.3,0.1-0.4,0.4-0.4
		h2.9c0.3,0,0.4,0.1,0.4,0.4v0.5c0,0.3-0.1,0.4-0.4,0.4h-2.9c-0.3,0-0.4-0.1-0.4-0.4V252.3z M183.4,254c0-0.3,0.1-0.4,0.4-0.4h2.4
		c0.3,0,0.4,0.1,0.4,0.4v0.5c0,0.3-0.1,0.4-0.4,0.4h-2.4c-0.3,0-0.4-0.1-0.4-0.4V254z M183.4,257.7c0-0.3,0.1-0.4,0.4-0.4h2.5
		c0.3,0,0.4,0.1,0.4,0.4v3.4c0,0.3-0.1,0.4-0.4,0.4h-0.5c-0.3,0-0.4-0.1-0.4-0.2c0-0.2-0.1-0.2-0.4-0.2c-0.3,0-0.4,0.1-0.4,0.3
		c0,0.2-0.1,0.3-0.4,0.3h-0.5c-0.3,0-0.4-0.1-0.4-0.4V257.7z M188.1,250.4c0-0.3,0.1-0.4,0.4-0.4h0.5c0.3,0,0.4,0.1,0.4,0.4v0.7
		c0,0.2,0.1,0.3,0.3,0.3h0.2c0.3,0,0.4,0.1,0.4,0.4c0,0.3,0.1,0.3,0.3,0c0-0.1,0.1-0.2,0.2-0.3c0.2-0.3,0.4-0.3,0.6-0.2l0.3,0.2
		c0.3,0.2,0.3,0.4,0.2,0.7c-0.2,0.4-0.5,0.8-0.9,1.4c-0.1,0.2-0.1,0.3,0.1,0.3h0.7c0.3,0,0.4,0.1,0.4,0.4v0.5c0,0.3-0.1,0.4-0.4,0.4
		h-1.8c-0.2,0-0.4,0.1-0.7,0.4c-0.2,0.2-0.3,0.4-0.1,0.4h2.2c0.3,0,0.4,0.1,0.4,0.4v5c0,0.3-0.1,0.4-0.4,0.4h-0.5
		c-0.3,0-0.4-0.1-0.4-0.2c0-0.2-0.1-0.3-0.3-0.3h-1.1c-0.2,0-0.3,0.1-0.3,0.2c0,0.2-0.1,0.3-0.4,0.3h-0.6c-0.3,0-0.4-0.1-0.4-0.4
		v-3.9c0-0.2-0.1-0.3-0.2-0.2c-0.1,0.1-0.3,0-0.4-0.2c-0.2-0.3-0.4-0.4-0.6-0.4h-2.3c-0.3,0-0.4-0.1-0.4-0.4v-0.5
		c0-0.3,0.1-0.4,0.4-0.4h2.3c0.3,0,0.4,0.1,0.4,0.4c0,0.2,0.1,0.2,0.4,0l0.4-0.3c0.2-0.2,0.2-0.3,0-0.3h-0.2c-0.3,0-0.4-0.1-0.4-0.4
		v-0.5c0-0.3,0.1-0.4,0.4-0.4h0.7c0.2,0,0.3-0.1,0.3-0.3v-0.6c0-0.2-0.1-0.3-0.3-0.3h-0.2c-0.3,0-0.4-0.1-0.4-0.4v-0.5
		c0-0.3,0.1-0.4,0.4-0.4h0.2c0.2,0,0.3-0.1,0.3-0.3V250.4z M183.7,250.6c0-0.3,0.1-0.4,0.4-0.4h2.1c0.3,0,0.4,0.1,0.4,0.4v0.5
		c0,0.3-0.1,0.4-0.4,0.4h-2.1c-0.3,0-0.4-0.1-0.4-0.4V250.6z M185.4,258.9c0-0.2-0.1-0.3-0.4-0.3c-0.3,0-0.4,0.1-0.4,0.3v0.6
		c0,0.2,0.1,0.3,0.4,0.3c0.3,0,0.4-0.1,0.4-0.3V258.9z M190.3,257.6c0-0.3-0.1-0.4-0.3-0.4h-1.1c-0.2,0-0.3,0.1-0.3,0.4
		c0,0.3,0.1,0.4,0.3,0.4h1.1C190.2,258,190.3,257.8,190.3,257.6z M190.3,259.6c0-0.3-0.1-0.4-0.3-0.4h-1.1c-0.2,0-0.3,0.1-0.3,0.4
		c0,0.3,0.1,0.4,0.3,0.4h1.1C190.2,260,190.3,259.9,190.3,259.6z M189.6,253c0.2-0.3,0.2-0.4,0-0.4c-0.2,0-0.3,0.1-0.3,0.4
		C189.3,253.3,189.4,253.3,189.6,253z"/>
	<path class="st1" d="M197.3,250.3c0.1-0.3,0.3-0.4,0.5-0.3l0.6,0.2c0.3,0.1,0.4,0.2,0.3,0.4c-0.1,0.3-0.1,0.4,0.1,0.4h5.5
		c0.3,0,0.4,0.1,0.4,0.4v0.6c0,0.3-0.1,0.4-0.4,0.4h-6c-0.2,0-0.4,0.1-0.5,0.4c-0.4,0.8-0.9,1.6-1.4,2.4c-0.1,0.1-0.1,0.2-0.1,0.4
		v5.5c0,0.3-0.1,0.4-0.4,0.4h-0.7c-0.3,0-0.4-0.1-0.4-0.4v-3.8c0-0.2-0.1-0.2-0.2-0.1c-0.1,0.1-0.3,0.1-0.6-0.2l-0.3-0.3
		c-0.3-0.3-0.3-0.5,0-0.8c0.9-0.9,1.7-2,2.4-3.2c0.1-0.3,0.1-0.4-0.1-0.4h-2c-0.3,0-0.4-0.1-0.4-0.4v-0.6c0-0.3,0.1-0.4,0.4-0.4h2.8
		c0.2,0,0.4-0.1,0.5-0.4L197.3,250.3z M197.6,253.7c0-0.3,0.1-0.4,0.4-0.4h5.6c0.3,0,0.4,0.1,0.4,0.4v0.7c0,0.3-0.1,0.5-0.4,0.8
		c-0.4,0.4-0.9,0.8-1.4,1.2c-0.2,0.1-0.3,0.2-0.3,0.3c0,0.1,0.1,0.1,0.3,0.1h2.2c0.3,0,0.4,0.1,0.4,0.4v0.6c0,0.3-0.1,0.4-0.4,0.4
		h-2.3c-0.2,0-0.3,0.1-0.3,0.3v1.6c0,0.4-0.1,0.8-0.2,1c-0.1,0.3-0.4,0.4-0.7,0.5c-0.3,0.1-0.9,0.1-1.8,0c-0.3,0-0.4-0.2-0.5-0.4
		c-0.1-0.2-0.1-0.4-0.1-0.7c-0.1-0.3,0.1-0.4,0.4-0.3c0.5,0.1,0.9,0.1,1.2,0.1c0.1,0,0.2-0.2,0.2-0.4l0-1.3c0-0.2-0.1-0.3-0.3-0.3
		h-2.9c-0.3,0-0.4-0.1-0.4-0.4v-0.6c0-0.3,0.1-0.4,0.4-0.4h2.9c0.2,0,0.3-0.1,0.3-0.3v-0.4c0-0.3,0.1-0.4,0.3-0.4s0.4-0.1,0.6-0.4
		l0.2-0.2c0.2-0.2,0.2-0.3,0-0.3H198c-0.3,0-0.4-0.1-0.4-0.4V253.7z"/>
</g>
<circle class="st3" cx="428.2" cy="89.6" r="32.8"/>
<g>
	<path class="st1" d="M408,84.4c0-0.3,0.1-0.4,0.4-0.4h0.8c0.3,0,0.4,0.1,0.4,0.4c0,0.3,0.1,0.4,0.3,0.4h4.1c0.3,0,0.4,0.1,0.4,0.4
		v0.5c0,0.3-0.1,0.4-0.4,0.4h-10.4c-0.3,0-0.4-0.1-0.4-0.4v-0.5c0-0.3,0.1-0.4,0.4-0.4h4.1C407.9,84.8,408,84.7,408,84.4z
		 M403.3,90.2c0-0.3,0.1-0.4,0.4-0.4h10.2c0.3,0,0.4,0.1,0.4,0.4v4.3c-0.2,1-0.8,1.5-1.9,1.4c-0.3,0-0.4-0.2-0.5-0.4l-0.1-0.6
		c-0.1-0.3,0-0.4,0.3-0.3c0.2,0,0.3,0,0.5,0c0.2,0,0.2-0.2,0.3-0.5v-2.6c0-0.2-0.1-0.3-0.3-0.3h-7.4c-0.2,0-0.3,0.1-0.3,0.3v4.1
		c0,0.3-0.1,0.4-0.4,0.4h-0.7c-0.3,0-0.4-0.1-0.4-0.4V90.2z M404.8,86.8c0-0.3,0.1-0.4,0.4-0.4h7.2c0.3,0,0.4,0.1,0.4,0.4V89
		c0,0.3-0.1,0.4-0.4,0.4h-7.2c-0.3,0-0.4-0.1-0.4-0.4V86.8z M405.9,91.9c0-0.3,0.1-0.4,0.4-0.4h4.8c0.3,0,0.4,0.1,0.4,0.4v2.3
		c0,0.3-0.1,0.4-0.4,0.4h-3.5c-0.2,0-0.3,0.1-0.3,0.2c0,0.2-0.1,0.3-0.4,0.3h-0.6c-0.3,0-0.4-0.1-0.4-0.4V91.9z M411.4,87.9
		c0-0.2-0.1-0.3-0.3-0.3h-4.6c-0.2,0-0.3,0.1-0.3,0.3c0,0.2,0.1,0.3,0.3,0.3h4.6C411.3,88.2,411.4,88.1,411.4,87.9z M410.1,93
		c0-0.2-0.1-0.3-0.3-0.3h-2.2c-0.2,0-0.3,0.1-0.3,0.3c0,0.2,0.1,0.3,0.3,0.3h2.2C410,93.3,410.1,93.2,410.1,93z"/>
	<path class="st1" d="M419.4,89.8c0.1-0.3,0.2-0.4,0.5-0.3c0.2,0.1,0.4,0.2,0.6,0.3c0.3,0.1,0.4,0.3,0.3,0.5
		c-0.1,0.4-0.3,0.9-0.5,1.4c-0.1,0.2,0,0.4,0.2,0.6c0.3,0.3,0.6,0.6,0.9,0.9c0.2,0.3,0.2,0.5,0,0.8l-0.4,0.5c-0.2,0.2-0.5,0.2-0.7,0
		c-0.2-0.2-0.3-0.4-0.5-0.6c-0.2-0.3-0.5-0.3-0.7,0c-0.5,0.6-1.1,1.1-1.9,1.6c-0.3,0.1-0.5,0-0.6-0.3l-0.3-0.6
		c-0.1-0.3-0.1-0.4,0.2-0.6c0.6-0.3,1.1-0.8,1.6-1.3c0.2-0.2,0.1-0.4-0.1-0.6c-0.3-0.2-0.5-0.5-0.8-0.6c-0.3-0.2-0.3-0.5-0.2-0.7
		c0.1-0.1,0.2-0.3,0.3-0.4c0.2-0.3,0.5-0.3,0.7-0.1c0.2,0.1,0.4,0.3,0.6,0.5c0.2,0.2,0.4,0.2,0.4,0L419.4,89.8z M417.2,87.4
		c0.1-0.2,0.3-0.3,0.6-0.1c0.1,0.1,0.3,0.1,0.4,0.2c0.3,0.2,0.4,0.5,0.2,0.7c-0.3,0.6-0.7,1-1,1.3c-0.3,0.3-0.6,0.3-0.8,0.1
		l-0.3-0.4c-0.2-0.3-0.2-0.6,0.1-0.8C416.7,88.1,417,87.8,417.2,87.4z M418.4,84.6c0-0.3,0.1-0.4,0.4-0.4h0.7c0.3,0,0.4,0.1,0.4,0.4
		v0.6c0,0.2,0.1,0.3,0.3,0.3h1.6c0.3,0,0.4,0.1,0.4,0.4v0.6c0,0.3-0.1,0.4-0.4,0.4h-1.1c-0.2,0-0.2,0.1,0,0.4
		c0.2,0.2,0.4,0.5,0.6,0.7c0.3,0.2,0.3,0.5,0.1,0.7l-0.4,0.5c-0.2,0.3-0.4,0.3-0.7,0.1c-0.3-0.4-0.7-0.8-0.9-1.3
		c-0.1-0.3,0-0.5,0.3-0.7c0.2-0.1,0.4-0.3,0.5-0.4c0,0-0.1,0-0.3,0h-3.2c-0.3,0-0.4-0.1-0.4-0.4v-0.6c0-0.3,0.1-0.4,0.4-0.4h1.5
		c0.2,0,0.3-0.1,0.3-0.3V84.6z M423.4,84.6c0.1-0.3,0.2-0.3,0.5-0.3c0.2,0.1,0.4,0.1,0.6,0.2c0.3,0.1,0.5,0.3,0.4,0.5l-0.2,0.6
		c-0.1,0.2,0,0.3,0.2,0.3h2.5c0.3,0,0.4,0.1,0.4,0.4V87c0,0.3-0.1,0.4-0.3,0.4c-0.2,0-0.3,0.1-0.4,0.4c-0.3,1.5-0.7,2.9-1.3,4.2
		c-0.1,0.2-0.1,0.4,0.1,0.6c0.5,0.7,1,1.2,1.5,1.5c0.3,0.2,0.3,0.4,0.1,0.7l-0.4,0.6c-0.2,0.3-0.4,0.3-0.7,0.1
		c-0.7-0.6-1.1-1.1-1.4-1.4c-0.2-0.2-0.4-0.2-0.6,0.1c-0.5,0.6-1.1,1.2-1.8,1.6c-0.3,0.1-0.5,0.1-0.7-0.2c-0.1-0.1-0.2-0.3-0.3-0.4
		c-0.2-0.3-0.2-0.5,0.1-0.6c0.7-0.4,1.3-1,1.9-1.7c0.2-0.2,0.2-0.4,0.1-0.6c-0.2-0.5-0.4-1-0.7-1.7c-0.1-0.2-0.1-0.2-0.2-0.1
		c-0.1,0.1-0.2,0.1-0.5-0.1c-0.2-0.2-0.4-0.3-0.6-0.4c-0.3-0.2-0.3-0.4-0.2-0.7C422.3,87.7,422.9,86.2,423.4,84.6z M425.7,87.7
		c0-0.2-0.1-0.3-0.2-0.3h-1c-0.2,0-0.4,0.1-0.5,0.4c-0.2,0.4-0.2,0.7-0.1,0.9c0.2,0.5,0.4,1.1,0.6,1.8c0.1,0.3,0.3,0.3,0.4,0
		C425.2,89.6,425.5,88.7,425.7,87.7z"/>
	<path class="st1" d="M431.5,84.5c0-0.3,0.1-0.4,0.4-0.4h0.6c0.3,0,0.4,0.1,0.4,0.4c0,0.4,0,0.9-0.1,1.3c-0.1,0.2,0,0.4,0.2,0.5
		c0.4,0.2,0.8,0.4,1.2,0.7c0.3,0.2,0.3,0.4,0.1,0.6l-0.2,0.2c-0.2,0.2-0.2,0.3,0,0.3h1.3c0.2,0,0.2-0.1,0-0.4
		c-0.2-0.2-0.2-0.4,0-0.6c0.8-0.4,1.3-1,1.4-1.8l0.1-0.9c0-0.3,0.1-0.4,0.4-0.4h0.6c0.3,0,0.4,0.1,0.4,0.4c0,0.4,0,0.8-0.1,1.2
		c0,0.2,0,0.4,0.2,0.5c0.4,0.2,0.8,0.5,1.2,0.7c0.2,0.2,0.2,0.4,0,0.7l-0.2,0.2c-0.2,0.2-0.2,0.3,0,0.3h0.6c0.3,0,0.4,0.1,0.4,0.4
		v1.4c0,0.3-0.1,0.4-0.4,0.4h-0.7c-0.3,0-0.4-0.1-0.4-0.4v-0.3c0-0.2-0.1-0.3-0.3-0.3h-7.6c-0.2,0-0.3,0.1-0.3,0.3V90
		c0,0.3-0.1,0.4-0.4,0.4h-0.6c-0.3,0-0.4-0.1-0.4-0.4v-1.4c0-0.3,0.1-0.4,0.4-0.4h0.5c0.2,0,0.2-0.1,0-0.4c-0.3-0.3-0.3-0.5,0-0.6
		c0.8-0.4,1.3-1,1.4-1.6C431.4,85.2,431.5,84.9,431.5,84.5z M429.7,85c0.1-0.3,0.2-0.4,0.5-0.3c0.1,0,0.2,0,0.4,0.1
		c0.3,0.1,0.4,0.3,0.4,0.5c0,0.2-0.1,0.5-0.3,0.8c-0.1,0.3-0.4,0.3-0.7,0.2l-0.3-0.1c-0.3-0.2-0.4-0.4-0.2-0.7L429.7,85z
		 M430.9,90.1c0-0.3,0.1-0.4,0.4-0.4h6.8c0.3,0,0.4,0.1,0.4,0.4V92c0,0.3-0.1,0.4-0.4,0.4h-2.4c-0.2,0-0.3,0.1-0.4,0.2
		c0,0.1,0,0.2,0.2,0.2h3.3c0.3,0,0.4,0.1,0.4,0.4v2.3c0,0.3-0.1,0.4-0.4,0.4h-0.6c-0.3,0-0.4-0.1-0.4-0.2c0-0.1-0.1-0.2-0.3-0.2H432
		c-0.2,0-0.3,0.1-0.3,0.2c0,0.1-0.1,0.2-0.4,0.2h-0.6c-0.3,0-0.4-0.1-0.4-0.4v-2.3c0-0.3,0.1-0.4,0.4-0.4h2.7c0.2,0,0.3-0.1,0.4-0.2
		c0.1-0.1,0-0.2-0.2-0.2h-2.2c-0.3,0-0.4-0.1-0.4-0.4V90.1z M432.5,87.5c-0.2-0.1-0.5-0.1-0.7,0.1l-0.4,0.3
		c-0.3,0.2-0.3,0.3-0.1,0.3h1.8c0.2,0,0.2-0.1-0.1-0.3C432.9,87.7,432.7,87.6,432.5,87.5z M437.7,94.2c0-0.2-0.1-0.3-0.3-0.3H432
		c-0.2,0-0.3,0.1-0.3,0.3c0,0.2,0.1,0.3,0.3,0.3h5.4C437.6,94.4,437.7,94.3,437.7,94.2z M437,91c0-0.2-0.1-0.3-0.3-0.3h-4
		c-0.2,0-0.3,0.1-0.3,0.3c0,0.2,0.1,0.3,0.3,0.3h4C436.9,91.3,437,91.2,437,91z M433.4,85c0.1-0.3,0.2-0.4,0.5-0.4
		c0.1,0,0.2,0,0.4,0.1c0.3,0.1,0.4,0.2,0.3,0.5c0,0.2-0.1,0.5-0.2,0.8c-0.1,0.3-0.3,0.3-0.6,0.2l-0.3-0.1c-0.3-0.2-0.4-0.4-0.3-0.6
		C433.3,85.3,433.4,85.2,433.4,85z M435,85.2c0.1-0.3,0.2-0.4,0.5-0.3l0.4,0.1c0.3,0.1,0.4,0.2,0.3,0.5c-0.1,0.2-0.1,0.5-0.3,0.7
		c-0.2,0.3-0.4,0.4-0.6,0.2l-0.3-0.2c-0.3-0.1-0.3-0.3-0.2-0.6L435,85.2z M437.7,87.4c-0.2-0.1-0.4-0.1-0.6,0.1
		c-0.1,0.1-0.3,0.3-0.4,0.4c-0.3,0.2-0.3,0.3,0,0.3h1.7c0.2,0,0.2-0.1-0.1-0.3L437.7,87.4z M438.7,85.1c0.1-0.3,0.2-0.4,0.5-0.4
		c0.1,0,0.2,0,0.4,0.1c0.3,0.1,0.4,0.2,0.3,0.5c-0.1,0.2-0.2,0.5-0.3,0.7c-0.2,0.3-0.4,0.3-0.6,0.2l-0.2-0.1
		c-0.3-0.1-0.4-0.3-0.2-0.6L438.7,85.1z"/>
	<path class="st1" d="M444,84.5c0.1-0.3,0.3-0.4,0.6-0.3l0.6,0.2c0.3,0.1,0.4,0.2,0.3,0.2c0,0.1,0.1,0.2,0.4,0.4
		c0.3,0.2,0.7,0.5,1,0.8c0.3,0.3,0.4,0.5,0.2,0.8l-0.3,0.4c-0.2,0.3-0.5,0.3-0.7,0.1c-0.3-0.3-0.6-0.5-0.9-0.8
		c-0.2-0.2-0.4-0.1-0.5,0.2c-0.2,0.2-0.4,0.5-0.6,0.8c-0.2,0.2-0.2,0.3,0.1,0.3h2.2c0.3,0,0.4,0.1,0.4,0.4v0.6
		c0,0.3-0.1,0.4-0.4,0.4h-0.4c-0.2,0-0.3,0.1-0.3,0.4c0,0.3,0.1,0.4,0.3,0.4h0.7c0.3,0,0.4,0.1,0.4,0.4v0.6c0,0.3-0.1,0.4-0.4,0.4
		h-0.7c-0.2,0-0.3,0.1-0.3,0.3v2.1c0,0.2,0.1,0.3,0.4,0.3l0.6-0.1c0.3-0.1,0.5,0.1,0.5,0.3c0,0.1,0,0.3,0.1,0.4
		c0.1,0.3-0.1,0.5-0.3,0.6c-1.2,0.3-2.4,0.5-3.6,0.7c-0.3,0-0.4-0.1-0.5-0.3l-0.2-0.6c-0.1-0.3,0-0.4,0.3-0.5l1.1-0.1
		c0.2,0,0.3-0.2,0.3-0.4v-2.3c0-0.2-0.1-0.3-0.3-0.3H443c-0.3,0-0.4-0.1-0.4-0.4v-0.6c0-0.3,0.1-0.4,0.4-0.4h0.9
		c0.2,0,0.3-0.1,0.3-0.4c0-0.3-0.1-0.4-0.3-0.4h-0.2c-0.3,0-0.4-0.1-0.4-0.4v-0.2c0-0.2,0-0.3-0.1-0.2c-0.1,0.1-0.3,0-0.5-0.2
		l-0.1-0.1c-0.3-0.3-0.4-0.6-0.2-0.8C443,86.3,443.6,85.5,444,84.5z M443.1,91.6c0.3-0.1,0.5,0,0.6,0.3l0.3,1
		c0.1,0.3-0.1,0.4-0.3,0.5l-0.5,0.2c-0.3,0.1-0.5,0-0.5-0.3c-0.1-0.4-0.1-0.7-0.2-1.1c-0.1-0.3,0-0.5,0.2-0.5L443.1,91.6z M446,91.7
		c0.1-0.3,0.2-0.4,0.4-0.4l0.6,0.1c0.3,0.1,0.4,0.2,0.3,0.5l-0.2,0.9c-0.1,0.3-0.3,0.4-0.5,0.4l-0.4-0.1c-0.3-0.1-0.4-0.2-0.3-0.5
		L446,91.7z M447.6,85c0.3-0.2,0.5-0.3,0.8-0.4c0.3,0.4,0.6,0.9,0.9,1.5c0.1,0.3,0.1,0.5-0.2,0.6l-0.4,0.2c-0.3,0.2-0.5,0.1-0.6-0.2
		c-0.1-0.2-0.3-0.6-0.5-1C447.3,85.4,447.3,85.2,447.6,85z M449.7,84.5c0-0.3,0.1-0.4,0.4-0.4h0.7c0.3,0,0.4,0.1,0.4,0.4v2.6
		c0,0.2,0.1,0.3,0.3,0.3h1.6c0.3,0,0.4,0.1,0.4,0.4v6.6c0,0.4-0.1,0.7-0.4,1c-0.4,0.4-1,0.5-1.7,0.4c-0.3-0.1-0.5-0.2-0.5-0.5
		l-0.1-0.7c-0.1-0.3,0.1-0.3,0.3-0.3c0.5,0.1,0.8,0.1,1-0.1c0.1-0.1,0.1-0.2,0.1-0.4v-0.6c0-0.2-0.1-0.3-0.3-0.3h-2.3
		c-0.2,0-0.3,0.1-0.3,0.3v2.1c0,0.3-0.1,0.4-0.4,0.4H448c-0.3,0-0.4-0.1-0.4-0.4v-7.7c0-0.3,0.1-0.4,0.4-0.4h1.4
		c0.2,0,0.3-0.1,0.3-0.3V84.5z M452,89.2c0-0.2-0.1-0.4-0.3-0.4h-2.3c-0.2,0-0.3,0.1-0.3,0.3c0,0.2,0.1,0.4,0.3,0.4h2.3
		C451.9,89.6,452,89.5,452,89.2z M452,91.3c0-0.3-0.1-0.4-0.3-0.4h-2.3c-0.2,0-0.3,0.1-0.3,0.4c0,0.3,0.1,0.4,0.3,0.4h2.3
		C451.9,91.7,452,91.6,452,91.3z M452.3,85c0.1-0.3,0.3-0.4,0.6-0.3l0.4,0.2c0.3,0.1,0.3,0.3,0.2,0.6c-0.2,0.5-0.4,0.9-0.7,1.3
		c-0.2,0.3-0.4,0.3-0.7,0.1c-0.1-0.1-0.2-0.1-0.3-0.2c-0.3-0.3-0.4-0.5-0.2-0.8C452,85.6,452.2,85.3,452.3,85z"/>
</g>
<g>
	<g>
		<path class="st4" d="M187.9,135.6c7.6-23.7,29.2-42.5,54.2-41.6"/>
		<g>
			<polygon class="st5" points="240.3,98.9 249.3,94.7 241.1,88.9 			"/>
		</g>
	</g>
</g>
<g>
	<g>
		<path class="st4" d="M318.2,152.2c13.2-21.1,38.8-34,62.8-27"/>
		<g>
			<polygon class="st5" points="378,129.5 387.8,127.7 381.3,120.1 			"/>
		</g>
	</g>
</g>
<g>
	<g>
		<path class="st4" d="M69,152.9c18.1-17.1,46-23.2,67.6-10.4"/>
		<g>
			<polygon class="st5" points="132.6,146 142.5,146.6 138.1,137.7 			"/>
		</g>
	</g>
</g>
<g>
	<g>
		<path class="st4" d="M171.7,166.3c14.5,10.6,22.7,29.3,17.4,46.3"/>
		<g>
			<polygon class="st5" points="184.9,209.3 186.3,219.2 194.1,213 			"/>
		</g>
	</g>
</g>
<line class="st0" x1="151.3" y1="188.9" x2="196" y2="147.6"/>
<g>
	<g>
		<path class="st4" d="M422.5,173.5c11.4-7.8,18.3-23,15-37.9"/>
		<g>
			<polygon class="st5" points="442.6,135.6 435.3,128.8 433.1,138.5 			"/>
		</g>
	</g>
</g>
<g>
	<path class="st2" d="M83,109.9c0-0.3,0.2-0.4,0.4-0.3l0.6,0.2c0.3,0.1,0.4,0.2,0.3,0.5c-0.1,0.8-0.3,1.5-0.4,2.3
		c-0.1,0.3-0.2,0.3-0.5,0.3l-0.5-0.2c-0.3-0.1-0.4-0.3-0.3-0.6C82.8,111.4,82.9,110.6,83,109.9z M84.6,102.5
		c0.1-0.3,0.3-0.4,0.5-0.2c0.2,0.1,0.4,0.2,0.6,0.3c0.3,0.1,0.3,0.3,0.2,0.6c-0.3,0.6-0.6,1.1-1,1.7c-0.1,0.2-0.1,0.3,0,0.4
		c0.1,0.1,0.3,0,0.4-0.2l0.4-0.8c0.1-0.3,0.3-0.3,0.6-0.2c0.2,0.1,0.3,0.1,0.5,0.2c0.3,0.1,0.4,0.3,0.2,0.6
		c-0.4,0.7-0.8,1.5-1.4,2.4c-0.1,0.2-0.1,0.3,0.2,0.3c0.2,0,0.3-0.1,0.3-0.4c-0.1-0.2,0-0.4,0.3-0.4l0.5-0.1
		c0.3-0.1,0.4,0.1,0.5,0.3c0.2,0.5,0.3,1,0.4,1.6c0,0.3-0.1,0.5-0.4,0.5l-0.5,0.1c-0.3,0.1-0.4,0-0.4-0.2c0-0.2-0.1-0.3-0.3-0.2
		c-0.2,0-0.2,0.2-0.2,0.4v4.5c0,0.3-0.1,0.4-0.4,0.4h-0.6c-0.3,0-0.4-0.1-0.4-0.4v-4.3c0-0.2-0.1-0.3-0.4-0.3l-0.8,0.1
		c-0.3,0-0.4-0.1-0.5-0.4l-0.1-0.5c-0.1-0.3,0.1-0.4,0.3-0.4l0.4,0c0.2,0,0.4-0.1,0.6-0.4c0.1-0.1,0.1-0.2,0.2-0.3
		c0.2-0.3,0.1-0.5-0.1-0.7l-1-0.7c-0.3-0.2-0.4-0.4-0.2-0.6c0.1-0.1,0.2-0.2,0.2-0.3c0.2-0.3,0.4-0.4,0.4-0.4c0.1,0,0.2,0,0.3-0.2
		C84.1,103.5,84.4,103,84.6,102.5z M86.5,109.5l0.5-0.1c0.3-0.1,0.4,0,0.5,0.3c0.2,0.6,0.3,1.2,0.3,1.7c0,0.3-0.1,0.5-0.3,0.6
		c-0.2,0-0.4,0.1-0.6,0.1c-0.3,0.1-0.4,0-0.5-0.3c-0.1-0.6-0.2-1.2-0.3-1.8C86.1,109.7,86.2,109.6,86.5,109.5z M90.3,102.6
		c0-0.3,0.1-0.4,0.4-0.4h0.7c0.3,0,0.4,0.1,0.4,0.4v0.6c0,0.2,0.1,0.3,0.3,0.3h1.9c0.3,0,0.4,0.1,0.4,0.4v0.6c0,0.3-0.1,0.4-0.4,0.4
		h-2.6c-0.2,0-0.4,0.1-0.5,0.4c-0.2,0.5-0.3,0.9-0.5,1.3c-0.1,0.2,0,0.3,0.3,0.2l1.4-0.2c0.2,0,0.2-0.2,0.1-0.4l-0.1-0.1
		c-0.1-0.3-0.1-0.4,0.2-0.5l0.6-0.2c0.3-0.1,0.5,0,0.6,0.3c0.4,0.8,0.7,1.6,0.9,2.3c0.1,0.3,0,0.4-0.3,0.5c-0.2,0.1-0.4,0.1-0.6,0.2
		c-0.3,0.1-0.5,0-0.5-0.3c0-0.1,0-0.1,0-0.2c-0.1-0.2-0.1-0.3-0.2-0.3c-0.1,0-0.2,0.1-0.2,0.3v3.7c0,0.5,0.2,0.7,0.6,0.4
		c0.1-0.2,0.2-0.5,0.2-1.1c0-0.3,0.2-0.4,0.4-0.2c0.1,0.1,0.3,0.1,0.4,0.2c0.3,0.2,0.4,0.4,0.3,0.6c0,0.3-0.1,0.7-0.2,1
		c-0.1,0.5-0.4,0.7-0.7,0.8c-0.8,0.1-1.5,0.1-2-0.1c-0.4-0.2-0.6-0.6-0.6-1.2v-4c0-0.2-0.1-0.3-0.4-0.3c-0.2,0-0.4,0.2-0.4,0.4
		c0,1.2-0.2,2.3-0.4,3c-0.3,0.7-0.7,1.4-1.3,2c-0.3,0.3-0.6,0.3-0.7,0l-0.3-0.4c-0.2-0.3-0.1-0.6,0.2-0.9c0.3-0.3,0.5-0.6,0.7-1
		c0.3-0.6,0.4-1.5,0.4-2.6c0-0.2-0.1-0.3-0.4-0.3l-0.1,0c-0.3,0-0.4-0.1-0.5-0.3l-0.1-0.7c-0.1-0.3,0.1-0.4,0.3-0.4
		c0.3,0,0.5-0.1,0.6-0.3c0.2-0.5,0.5-1,0.6-1.4c0.1-0.3,0-0.4-0.2-0.4h-1.1c-0.3,0-0.4-0.1-0.4-0.4v-0.6c0-0.3,0.1-0.4,0.4-0.4H90
		c0.2,0,0.3-0.1,0.3-0.3V102.6z"/>
	<path class="st2" d="M96.1,107.2c0-0.3,0.1-0.4,0.4-0.4h10c0.3,0,0.4,0.1,0.4,0.4v0.7c0,0.3-0.1,0.4-0.4,0.4h-10
		c-0.3,0-0.4-0.1-0.4-0.4V107.2z"/>
	<path class="st2" d="M117,102.5c0.3-0.2,0.5-0.3,0.8-0.1c0.1,0.1,0.2,0.2,0.4,0.3c0.2,0.2,0.2,0.4,0,0.7l-0.6,0.5
		c-0.2,0.2-0.2,0.3,0,0.4c0.2,0.1,0.4,0.1,0.7-0.1c0.2-0.2,0.4-0.3,0.7-0.5c0.3-0.3,0.5-0.3,0.7-0.1l0.4,0.3c0.3,0.2,0.3,0.4,0,0.7
		l-0.5,0.4c-0.2,0.1-0.2,0.3,0.1,0.4l0.6,0.3c0.3,0.1,0.4,0.3,0.3,0.6c-0.1,0.2-0.2,0.4-0.3,0.6c-0.1,0.3-0.3,0.4-0.6,0.3l-0.8-0.4
		c-0.2-0.1-0.3-0.1-0.3,0.1v0.3c0,0.4,0.2,0.5,0.5,0.4c0,0,0.1-0.1,0.1-0.2c0-0.1,0.2-0.1,0.4,0l0.5,0.2c0.3,0.2,0.5,0.4,0.4,0.6
		c0,0.1-0.1,0.3-0.2,0.4c-0.1,0.2-0.4,0.3-0.7,0.4c-0.8,0.1-1.3,0-1.7-0.1c-0.5-0.1-0.7-0.4-0.7-0.8c-0.1-0.2-0.1-0.5-0.1-0.7
		c0-0.2-0.1-0.3-0.3-0.3h-0.3c-0.2,0-0.3,0.1-0.4,0.4c-0.1,0.7-0.4,1.2-1,1.5c-0.2,0.2-0.2,0.2,0.1,0.2h4.4c0.3,0,0.4,0.1,0.4,0.4
		c0.1,0.4,0,0.7-0.1,0.9c-0.3,0.4-0.6,0.9-1,1.3c-0.2,0.2-0.2,0.3,0.1,0.4l1.1,0.3c0.3,0.1,0.4,0.2,0.3,0.5l-0.3,0.7
		c-0.1,0.3-0.3,0.4-0.5,0.3c-0.7-0.1-1.5-0.4-2.2-0.7c-0.2-0.1-0.4-0.1-0.7,0.1c-0.6,0.3-1.2,0.5-2,0.7c-0.3,0.1-0.4,0-0.6-0.3
		c-0.1-0.2-0.2-0.3-0.3-0.5c-0.2-0.3-0.1-0.5,0.2-0.5c0.5-0.1,1-0.2,1.5-0.4c0.2-0.1,0.2-0.3,0-0.5c-0.3-0.4-0.5-0.7-0.6-0.9
		c-0.1-0.2-0.3-0.3-0.5-0.3c-0.2,0-0.3-0.1-0.3-0.4v-0.5c0-0.3,0-0.4,0.1-0.4c0.1,0,0.1-0.1-0.1-0.4l-0.1-0.3
		c-0.1-0.2-0.2-0.2-0.2,0.1v0.4c0,0.3-0.1,0.4-0.4,0.4h-2c-0.2,0-0.3,0.1-0.4,0.3c0,0.2,0.1,0.3,0.3,0.3h2.3c0.3,0,0.4,0.1,0.4,0.4
		c-0.1,1.3-0.3,2.3-0.7,2.9c-0.5,0.6-1.3,0.8-2.3,0.6l-0.2,0c-0.3-0.1-0.4-0.2-0.5-0.5c-0.1-0.2-0.1-0.5-0.2-0.7
		c-0.1-0.3,0.1-0.4,0.3-0.3c0.5,0.1,1,0.1,1.6,0c0.3-0.2,0.4-0.4,0.5-0.7c0.1-0.2,0-0.4-0.2-0.4H111c-0.2,0-0.3,0-0.3,0.1
		c0,0.1-0.2,0.1-0.4,0.1h-0.6c-0.3,0-0.4-0.1-0.3-0.4l0.3-2.7c0.1-0.3,0.2-0.5,0.5-0.5h1.9c0.2,0,0.3-0.1,0.3-0.4
		c0-0.3-0.1-0.4-0.3-0.4h-0.6c-0.3,0-0.4,0-0.4-0.1c0-0.1-0.1-0.1-0.4,0.1c-0.4,0.1-0.7,0.3-1.1,0.4c-0.3,0.1-0.5,0-0.6-0.3
		l-0.1-0.3c-0.1-0.3-0.1-0.5,0.2-0.6c0.3-0.1,0.7-0.3,1.1-0.4c0.2-0.1,0.1-0.3-0.1-0.5c-0.3-0.2-0.2-0.5,0.1-0.7l0.4-0.3
		c0.3-0.2,0.5-0.2,0.8,0l0.3,0.2c0.2,0.2,0.4,0.2,0.7,0c0.2-0.2,0.4-0.4,0.7-0.6c0.2-0.2,0.2-0.3,0-0.3h-3.1c-0.3,0-0.4-0.1-0.4-0.4
		v-0.6c0-0.3,0.1-0.4,0.4-0.4h4.9c0.3,0,0.4,0.1,0.4,0.2s0.1,0.3,0.4,0.5c0.2,0.2,0.5,0.2,0.7,0C116.5,102.9,116.8,102.7,117,102.5z
		 M115,104.4c-0.2-0.2-0.5-0.2-0.7,0.1c-0.4,0.5-0.8,0.8-1.2,1.1c-0.2,0.2-0.2,0.3,0,0.3h0.2c0.3,0,0.4,0.1,0.4,0.4v1.3
		c0,0.2,0.1,0.2,0.4,0.1c0.4-0.4,0.6-0.9,0.5-1.6c0-0.3,0.2-0.4,0.4-0.4h1.3c0.3,0,0.3-0.1,0.1-0.2C116,105,115.5,104.7,115,104.4z
		 M117.8,110.7c0.2-0.2,0.2-0.3-0.1-0.3h-1.3c-0.2,0-0.2,0.1,0.1,0.4l0.2,0.2c0.2,0.2,0.5,0.2,0.8,0L117.8,110.7z"/>
	<path class="st2" d="M121.9,110.2c0-0.3,0.1-0.4,0.4-0.4H133c0.3,0,0.4,0.1,0.4,0.4v0.6c0,0.3-0.1,0.4-0.4,0.4h-4.3
		c-0.2,0-0.3,0.1-0.3,0.3c0,0.4,0,0.8,0,1.2c0,0.4-0.2,0.7-0.4,0.9c-0.5,0.3-1.1,0.4-1.7,0.3c-0.3-0.1-0.4-0.3-0.5-0.5l-0.1-0.7
		c-0.1-0.3,0.1-0.4,0.4-0.3c0.2,0.1,0.3,0.1,0.5,0.1c0.2,0.1,0.4-0.1,0.4-0.4v-0.6c0-0.2-0.1-0.3-0.3-0.3h-4.4
		c-0.3,0-0.4-0.1-0.4-0.4V110.2z M121.9,102.8c0-0.3,0.1-0.4,0.4-0.4h10.5c0.3,0,0.4,0.1,0.4,0.4v0.6c0,0.3-0.1,0.4-0.4,0.4H130
		c-0.2,0-0.3,0.1-0.3,0.2c0,0.2,0.1,0.2,0.3,0.2h2.2c0.3,0,0.4,0.1,0.4,0.4v2.7c0,0.3-0.1,0.4-0.4,0.4H123c-0.3,0-0.4-0.1-0.4-0.4
		v-2.7c0-0.3,0.1-0.4,0.4-0.4h2.1c0.2,0,0.3-0.1,0.3-0.2c0-0.2-0.1-0.2-0.3-0.2h-2.9c-0.3,0-0.4-0.1-0.4-0.4V102.8z M123.8,111.5
		c0.3-0.2,0.5-0.1,0.8,0.1l0.4,0.3c0.3,0.2,0.3,0.4,0,0.6c-0.5,0.3-1.2,0.7-2,1c-0.3,0.1-0.5,0-0.6-0.2l-0.3-0.5
		c-0.2-0.3-0.2-0.5,0.1-0.6C122.8,112,123.3,111.8,123.8,111.5z M123.3,108.4c0-0.3,0.1-0.4,0.4-0.4h8c0.3,0,0.4,0.1,0.4,0.4v0.5
		c0,0.3-0.1,0.4-0.4,0.4h-8c-0.3,0-0.4-0.1-0.4-0.4V108.4z M125.5,105.9c0-0.3-0.1-0.4-0.3-0.4h-0.7c-0.2,0-0.3,0.1-0.3,0.4
		c0,0.3,0.1,0.4,0.3,0.4h0.7C125.4,106.3,125.5,106.2,125.5,105.9z M128.3,104c0-0.2-0.1-0.2-0.3-0.2h-0.7c-0.2,0-0.3,0.1-0.3,0.2
		c0,0.2,0.1,0.2,0.3,0.2h0.7C128.2,104.2,128.3,104.1,128.3,104z M128.3,105.9c0-0.3-0.1-0.4-0.3-0.4h-0.7c-0.2,0-0.3,0.1-0.3,0.4
		c0,0.3,0.1,0.4,0.3,0.4h0.7C128.2,106.3,128.3,106.2,128.3,105.9z M130.1,111.6c0.2-0.2,0.4-0.2,0.7-0.1c0.6,0.3,1.3,0.5,2,0.7
		c0.3,0.1,0.3,0.2,0.2,0.5c-0.1,0.2-0.3,0.4-0.4,0.6c-0.2,0.3-0.4,0.4-0.6,0.3c-0.7-0.3-1.5-0.6-2.3-1.1c-0.2-0.2-0.2-0.4,0-0.6
		L130.1,111.6z M131.1,105.9c0-0.3-0.1-0.4-0.3-0.4H130c-0.2,0-0.3,0.1-0.3,0.4c0,0.3,0.1,0.4,0.3,0.4h0.8
		C131,106.3,131.1,106.2,131.1,105.9z"/>
	<path class="st2" d="M93.7,117.9c0.3-0.1,0.5,0,0.7,0.2c0.1,0.1,0.2,0.3,0.3,0.4c0.2,0.3,0.2,0.4,0,0.5l-1.4,0.5
		c-0.2,0.1-0.3,0.2-0.3,0.4v1c0,0.2,0.1,0.3,0.3,0.3h1.4c0.3,0,0.4,0.1,0.4,0.4v0.6c0,0.3-0.1,0.4-0.4,0.4h-1.4
		c-0.2,0-0.3,0.1-0.3,0.2s0.1,0.3,0.4,0.5c0.5,0.3,0.9,0.7,1.4,1.1c0.3,0.2,0.3,0.5,0.1,0.7l-0.4,0.5c-0.2,0.3-0.4,0.3-0.6,0
		l-0.5-0.5c-0.3-0.2-0.4-0.2-0.4,0v4c0,0.3-0.1,0.4-0.4,0.4h-0.7c-0.3,0-0.4-0.1-0.4-0.4v-3.3c0-0.3-0.1-0.3-0.2-0.1
		c-0.2,0.3-0.4,0.6-0.7,0.9c-0.3,0.3-0.5,0.3-0.7,0.1c-0.1-0.1-0.2-0.3-0.3-0.4c-0.2-0.3-0.2-0.5,0-0.8c0.7-0.8,1.2-1.7,1.7-2.6
		c0.1-0.2,0.1-0.3-0.1-0.3h-1.4c-0.3,0-0.4-0.1-0.4-0.4v-0.6c0-0.3,0.1-0.4,0.4-0.4h1.5c0.2,0,0.3-0.1,0.3-0.3v-0.7
		c0-0.2-0.1-0.3-0.4-0.3l-0.8,0.1c-0.3,0.1-0.5,0-0.6-0.3c-0.1-0.2-0.2-0.4-0.3-0.6c-0.1-0.3-0.1-0.4,0.2-0.5
		C91.2,118.5,92.6,118.3,93.7,117.9z M95.4,119.2c0-0.3,0.1-0.4,0.4-0.4h4.5c0.3,0,0.4,0.1,0.4,0.4v9.5c0,0.3-0.1,0.4-0.4,0.4h-0.7
		c-0.3,0-0.4-0.1-0.4-0.4v-0.2c0-0.2-0.1-0.3-0.3-0.3h-1.7c-0.2,0-0.3,0.1-0.3,0.3v0.4c0,0.3-0.1,0.4-0.4,0.4h-0.7
		c-0.3,0-0.4-0.1-0.4-0.4V119.2z M99.2,120.5c0-0.2-0.1-0.3-0.3-0.3h-1.7c-0.2,0-0.3,0.1-0.3,0.3v5.9c0,0.2,0.1,0.3,0.3,0.3h1.7
		c0.2,0,0.3-0.1,0.3-0.3V120.5z"/>
	<path class="st2" d="M103.7,118.2c0-0.3,0.1-0.4,0.4-0.4h0.7c0.3,0,0.4,0.1,0.4,0.4v1.3c0,0.2,0.1,0.3,0.3,0.3h0.6
		c0.3,0,0.4,0.1,0.4,0.4v0.6c0,0.3-0.1,0.4-0.4,0.4h-0.6c-0.2,0-0.3,0.1-0.3,0.3v1.3c-0.1,0.3,0.1,0.4,0.5,0.1
		c0.3-0.1,0.4,0,0.4,0.3l0.1,0.5c0.1,0.3-0.1,0.4-0.3,0.6l-0.4,0.2c-0.2,0.1-0.3,0.2-0.3,0.4v2.9c0,0.3-0.1,0.6-0.2,1
		c-0.2,0.4-0.6,0.6-1.2,0.6c-0.3,0-0.5,0-0.8,0c-0.3,0-0.5-0.2-0.5-0.5l-0.1-0.7c-0.1-0.3,0.1-0.4,0.3-0.4l0.4,0.1
		c0.2,0,0.4,0,0.5-0.1c0.1-0.2,0.1-0.3,0.1-0.5v-2c0-0.2-0.1-0.3-0.4-0.2c-0.1,0-0.2,0-0.3,0.1c-0.3,0.1-0.4,0-0.5-0.3l-0.2-0.6
		c-0.1-0.3,0-0.5,0.2-0.6c0.3-0.1,0.6-0.2,0.8-0.2c0.2-0.1,0.3-0.2,0.3-0.4v-1.7c0-0.2-0.1-0.3-0.3-0.3h-0.7c-0.3,0-0.4-0.1-0.4-0.4
		v-0.6c0-0.3,0.1-0.4,0.4-0.4h0.7c0.2,0,0.3-0.1,0.3-0.3V118.2z M106.6,123.6c0-0.3,0.1-0.4,0.4-0.4h6.7c0.3,0,0.4,0.1,0.4,0.4v0.5
		c0,0.3-0.1,0.4-0.4,0.4h-2.3c-0.2,0-0.3,0.1-0.3,0.4c0,0.3,0.1,0.4,0.3,0.4h1.7c0.3,0,0.4,0.1,0.4,0.4v0.5c0,0.3-0.1,0.4-0.4,0.4
		h-1.7c-0.2,0-0.3,0.1-0.3,0.3v0.5c0,0.2,0.1,0.3,0.4,0.4c0.6,0,1.1,0,1.7,0l0.5-0.1c0.3,0,0.3,0.1,0.3,0.3
		c-0.1,0.2-0.2,0.5-0.2,0.7c-0.1,0.3-0.3,0.4-0.5,0.4c-1,0-2,0-3-0.2c-0.7-0.1-1.4-0.3-2-0.7c-0.2-0.1-0.4-0.1-0.5,0.2
		c-0.1,0.2-0.2,0.3-0.3,0.5c-0.2,0.3-0.4,0.3-0.7,0l-0.3-0.3c-0.3-0.3-0.3-0.5-0.1-0.8c0.6-0.9,1-1.8,1.2-2.8c0-0.3,0.2-0.4,0.4-0.3
		l0.5,0.1c0.3,0.1,0.4,0.2,0.4,0.5c-0.1,0.3-0.1,0.7-0.2,1c-0.1,0.2,0,0.4,0.3,0.6l0.4,0.2c0.2,0.1,0.3,0,0.3-0.2v-2.4
		c0-0.2-0.1-0.3-0.3-0.3H107c-0.3,0-0.4-0.1-0.4-0.4V123.6z M107.1,118.4c0-0.3,0.1-0.4,0.4-0.4h5.1c0.3,0,0.4,0.1,0.4,0.4v4
		c0,0.3-0.1,0.4-0.4,0.4h-5.1c-0.3,0-0.4-0.1-0.4-0.4V118.4z M111.6,119.5c0-0.2-0.1-0.3-0.3-0.3h-2.4c-0.2,0-0.3,0.1-0.3,0.3
		c0,0.2,0.1,0.3,0.3,0.3h2.4C111.5,119.8,111.6,119.7,111.6,119.5z M111.6,121.2c0-0.2-0.1-0.3-0.3-0.3h-2.4c-0.2,0-0.3,0.1-0.3,0.3
		c0,0.2,0.1,0.3,0.3,0.3h2.4C111.5,121.5,111.6,121.4,111.6,121.2z"/>
	<path class="st2" d="M115.1,118.4c0-0.3,0.1-0.4,0.4-0.4h4.7c0.3,0,0.4,0.1,0.4,0.4v0.5c0,0.3-0.1,0.4-0.4,0.4h-0.7
		c-0.2,0-0.3,0.1-0.3,0.3v0.3c0,0.2,0.1,0.3,0.3,0.3h0.6c0.3,0,0.4,0.1,0.4,0.4v3.8c0,0.2,0.1,0.2,0.3-0.1c0.3-0.5,0.5-0.9,0.6-1.3
		c0.1-0.2,0-0.3-0.2-0.3s-0.3-0.1-0.3-0.4v-3.9c0-0.3,0.1-0.4,0.4-0.4h4.9c0.3,0,0.4,0.1,0.4,0.4v3.9c0,0.3-0.1,0.4-0.4,0.4h-1.2
		c-0.2,0-0.3,0.1-0.3,0.3v0.3c0,0.2,0.1,0.3,0.3,0.3h1.3c0.3,0,0.4,0.1,0.4,0.4v0.5c0,0.3-0.1,0.4-0.4,0.4h-1.3
		c-0.2,0-0.3,0.1-0.3,0.4c0,0.3,0.1,0.4,0.3,0.4h1.1c0.3,0,0.4,0.1,0.4,0.4v0.5c0,0.3-0.1,0.4-0.4,0.4h-1.1c-0.2,0-0.3,0.1-0.3,0.3
		v0.3c0,0.2,0.1,0.3,0.3,0.3h1.6c0.3,0,0.4,0.1,0.4,0.4v0.5c0,0.3-0.1,0.4-0.4,0.4h-5.3c-0.3,0-0.4-0.1-0.4-0.4v-0.5
		c0-0.3,0.1-0.4,0.4-0.4h1.6c0.2,0,0.3-0.1,0.3-0.3v-0.3c0-0.2-0.1-0.3-0.3-0.3h-1.2c-0.3,0-0.4-0.1-0.4-0.4v-0.5
		c0-0.3,0.1-0.4,0.4-0.4h1.2c0.2,0,0.3-0.1,0.3-0.4c0-0.3-0.1-0.4-0.3-0.4h-0.6c-0.2,0-0.4,0.1-0.5,0.3s-0.4,0.2-0.6,0.1l-0.2-0.2
		c-0.2-0.2-0.3-0.1-0.3,0.1v3.9c0,0.3-0.1,0.4-0.4,0.4h-0.4c-0.3,0-0.4-0.1-0.4-0.3c0-0.2-0.1-0.3-0.3-0.3h-2.1
		c-0.2,0-0.3,0.1-0.3,0.3c0,0.2-0.1,0.3-0.4,0.3h-0.5c-0.3,0-0.4-0.1-0.4-0.4v-8.5c0-0.3,0.1-0.4,0.4-0.4h0.5c0.2,0,0.3-0.1,0.3-0.3
		v-0.3c0-0.2-0.1-0.3-0.3-0.3h-0.7c-0.3,0-0.4-0.1-0.4-0.4V118.4z M118,121.8c0-0.2,0-0.3-0.1-0.3c-0.1,0-0.1,0.1-0.1,0.3
		c0.1,1-0.1,2-0.5,2.8c-0.2,0.3-0.3,0.3-0.5,0.2s-0.3,0-0.3,0.2c0,0.3,0.1,0.4,0.3,0.4h2.1c0.2,0,0.3-0.1,0.3-0.4
		c0-0.3-0.1-0.4-0.3-0.4c-0.5,0-0.9-0.3-1-0.9V121.8z M116.8,121.8c0-0.2,0-0.3-0.1-0.3c-0.1,0-0.1,0.1-0.1,0.3v1.4
		c0,0.2,0,0.3,0.1,0.2C116.7,122.9,116.8,122.3,116.8,121.8z M119.3,127.2c0-0.3-0.1-0.4-0.3-0.4h-2.1c-0.2,0-0.3,0.1-0.3,0.4
		c0,0.3,0.1,0.4,0.3,0.4h2.1C119.2,127.6,119.3,127.5,119.3,127.2z M118,119.6c0-0.2,0-0.3-0.1-0.3c-0.1,0-0.1,0.1-0.1,0.3v0.3
		c0,0.2,0,0.3,0.1,0.3c0.1,0,0.1-0.1,0.1-0.3V119.6z M119.3,121.8c0-0.2,0-0.3-0.1-0.3c-0.1,0-0.2,0.1-0.2,0.3v1.3
		c0,0.2,0,0.4,0.1,0.5c0.1,0.1,0.1,0,0.1-0.2V121.8z M123.1,123c0-0.2-0.1-0.3-0.3-0.3h-0.7c-0.3,0-0.3,0.1,0,0.2l0.2,0.1
		c0.3,0.1,0.5,0.3,0.4,0.4c-0.1,0.2,0,0.3,0.2,0.3c0.2,0,0.3-0.1,0.3-0.3V123z M125.1,119.5c0-0.2-0.1-0.3-0.3-0.3h-2.3
		c-0.2,0-0.3,0.1-0.3,0.2c0,0.2,0.1,0.2,0.3,0.2h2.3C125,119.7,125.1,119.6,125.1,119.5z M125.1,121.2c0-0.2-0.1-0.3-0.3-0.3h-2.3
		c-0.2,0-0.3,0.1-0.3,0.2c0,0.2,0.1,0.3,0.3,0.3h2.3C125,121.4,125.1,121.4,125.1,121.2z"/>
</g>
<g>
	<path class="st2" d="M210.9,56.8c0-0.3,0.1-0.4,0.4-0.4h2.5c0.3,0,0.4,0.1,0.4,0.4v1.3c0,0.2,0,0.3,0,0.5c0,0.2,0.1,0.3,0.3,0.3
		h3.6c0.3,0,0.4,0.1,0.4,0.4v7c0,0.6-0.3,1.1-0.8,1.4c-0.6,0.2-1.2,0.3-1.9,0.2c-0.3,0-0.4-0.2-0.5-0.5l-0.1-0.7
		c-0.1-0.3,0.1-0.4,0.4-0.3c0.5,0.1,0.8,0.1,1.1,0.1c0.2-0.1,0.3-0.3,0.3-0.5v-5.3c0-0.2-0.1-0.3-0.3-0.3h-2c-0.2,0-0.3,0.1-0.2,0.4
		c0.3,1.2,0.9,2.4,2,3.4c0.3,0.3,0.4,0.5,0.2,0.8l-0.3,0.4c-0.2,0.3-0.4,0.4-0.7,0.2c-1-0.8-1.7-1.8-2.2-2.9
		c-0.1-0.2-0.2-0.2-0.3,0.1c-0.7,1.3-1.4,2.3-2.3,3.1c-0.3,0.2-0.5,0.2-0.6-0.1L210,65c-0.1-0.3-0.1-0.5,0.1-0.7
		c1.1-1,1.9-2.2,2.4-3.7c0.1-0.2,0-0.3-0.2-0.3H210c-0.2,0-0.3,0.1-0.3,0.3v6.9c0,0.3-0.1,0.4-0.4,0.4h-0.7c-0.3,0-0.4-0.1-0.4-0.4
		v-8.3c0-0.3,0.1-0.4,0.4-0.4h3.9c0.2,0,0.3-0.1,0.3-0.4v-0.3c0-0.2-0.1-0.3-0.3-0.3h-1.1c-0.3,0-0.4-0.1-0.4-0.4V56.8z"/>
	<path class="st2" d="M221.1,56.8c0-0.3,0.1-0.4,0.4-0.4h9.5c0.3,0,0.4,0.1,0.4,0.4v2c0,0.3-0.1,0.4-0.4,0.4H227
		c-0.2,0-0.3,0.1-0.3,0.2c0,0.1,0.1,0.2,0.2,0.2h4.6c0.3,0,0.4,0.1,0.4,0.4v0.3c0,0.3-0.1,0.4-0.4,0.4h-4.7c-0.2,0-0.3,0.1-0.3,0.2
		c0,0.1,0.1,0.2,0.3,0.2h3.7c0.3,0,0.4,0.1,0.4,0.4v4.7c0,0.2,0.1,0.3,0.3,0.3h0.7c0.3,0,0.4,0.1,0.4,0.4v0.4c0,0.3-0.1,0.4-0.4,0.4
		h-11c-0.3,0-0.4-0.1-0.4-0.4v-0.4c0-0.3,0.1-0.4,0.4-0.4h0.4c0.2,0,0.3-0.1,0.3-0.3v-4.7c0-0.3,0.1-0.4,0.4-0.4h2.8
		c0.2,0,0.3-0.1,0.3-0.2c0-0.1-0.1-0.2-0.3-0.2H221c-0.3,0-0.4-0.1-0.4-0.4v-0.3c0-0.3,0.1-0.4,0.4-0.4h3.9c0.2,0,0.3-0.1,0.3-0.2
		c0-0.1-0.1-0.2-0.2-0.2h-3.5c-0.3,0-0.4-0.1-0.4-0.4V56.8z M224.1,57.8c0-0.2-0.1-0.3-0.3-0.3h-1c-0.2,0-0.3,0.1-0.3,0.3
		c0,0.2,0.1,0.3,0.3,0.3h1C224,58.1,224.1,58,224.1,57.8z M229.4,62.3c0-0.1-0.1-0.2-0.3-0.2h-5.8c-0.2,0-0.3,0.1-0.3,0.2
		c0,0.1,0.1,0.2,0.3,0.2h5.8C229.3,62.5,229.4,62.4,229.4,62.3z M229.4,63.6c0-0.1-0.1-0.2-0.3-0.2h-5.8c-0.2,0-0.3,0.1-0.3,0.2
		c0,0.1,0.1,0.2,0.3,0.2h5.8C229.3,63.8,229.4,63.7,229.4,63.6z M229.4,64.9c0-0.1-0.1-0.2-0.3-0.2h-5.8c-0.2,0-0.3,0.1-0.3,0.2
		c0,0.1,0.1,0.2,0.3,0.2h5.8C229.3,65.1,229.4,65,229.4,64.9z M229.4,66.3c0-0.2-0.1-0.2-0.3-0.2h-5.8c-0.2,0-0.3,0.1-0.3,0.2
		c0,0.2,0.1,0.2,0.3,0.2h5.8C229.3,66.5,229.4,66.4,229.4,66.3z M227,57.8c0-0.2-0.1-0.3-0.3-0.3h-0.9c-0.2,0-0.3,0.1-0.3,0.3
		c0,0.2,0.1,0.3,0.3,0.3h0.9C226.9,58.1,227,58,227,57.8z M229.9,57.8c0-0.2-0.1-0.3-0.3-0.3h-1c-0.2,0-0.3,0.1-0.3,0.3
		c0,0.2,0.1,0.3,0.3,0.3h1C229.8,58.1,229.9,58,229.9,57.8z"/>
	<path class="st2" d="M239,56.5c0-0.2,0.1-0.3,0.4-0.3h0.7c0.3,0,0.4,0.1,0.4,0.3c0,0.2,0.1,0.3,0.3,0.3h4c0.3,0,0.4,0.1,0.4,0.4
		v0.4c0,0.3-0.1,0.4-0.4,0.4h-8.9c-0.2,0-0.3,0.1-0.3,0.3v4.3c-0.1,1.8-0.3,3.4-0.8,4.8c-0.1,0.3-0.3,0.4-0.6,0.2l-0.5-0.3
		c-0.3-0.2-0.3-0.4-0.3-0.6c0.4-1.3,0.6-2.8,0.7-4.5v-5c0-0.3,0.1-0.4,0.4-0.4h4.2C238.9,56.9,239,56.8,239,56.5z M236.1,63
		c0-0.3,0.1-0.4,0.4-0.4h7.5c0.3,0,0.4,0.1,0.4,0.4v2.8c0,0.3-0.1,0.4-0.4,0.4h-1.1c-0.2,0-0.2,0,0.1,0.1l1.4,0.3
		c0.3,0.1,0.4,0.2,0.2,0.5l-0.2,0.4c-0.2,0.3-0.4,0.3-0.6,0.3c-0.6-0.2-1.3-0.4-2.2-0.8c-0.3-0.1-0.3-0.3-0.2-0.5
		c0.2-0.2,0.2-0.3-0.1-0.3H239c-0.2,0-0.2,0.1,0,0.3c0.2,0.2,0.2,0.4-0.1,0.5c-0.8,0.3-1.7,0.6-2.8,0.9c0,0-0.1-0.2-0.2-0.4
		c0-0.1-0.1-0.2-0.1-0.3c-0.1-0.3-0.1-0.5,0.2-0.5c0.4-0.1,0.9-0.2,1.4-0.3c0.3-0.1,0.3-0.2,0-0.2h-0.9c-0.3,0-0.4-0.1-0.4-0.4V63z
		 M235.7,61.7c0-0.3,0.1-0.4,0.4-0.4h8.4c0.3,0,0.4,0.1,0.4,0.4v0.2c0,0.3-0.1,0.4-0.4,0.4h-8.4c-0.3,0-0.4-0.1-0.4-0.4V61.7z
		 M237.5,58.4c0-0.1,0.1-0.2,0.4-0.2h0.6c0.3,0,0.4,0.1,0.4,0.2c0,0.1,0.1,0.2,0.3,0.2h2c0.2,0,0.3-0.1,0.3-0.2
		c0-0.1,0.1-0.2,0.4-0.2h0.6c0.3,0,0.4,0.1,0.4,0.2c0,0.1,0.1,0.2,0.3,0.2h1.3c0.3,0,0.4,0.1,0.4,0.4v0.3c0,0.3-0.1,0.4-0.4,0.4
		h-1.3c-0.2,0-0.3,0.1-0.3,0.3v0.6c0,0.3-0.1,0.4-0.4,0.4h-4.6c-0.3,0-0.4-0.1-0.4-0.4V60c0-0.2-0.1-0.3-0.3-0.3h-1
		c-0.3,0-0.4-0.1-0.4-0.4v-0.3c0-0.3,0.1-0.4,0.4-0.4h1C237.4,58.5,237.5,58.5,237.5,58.4z M239.5,63.8c0-0.1-0.1-0.1-0.3-0.1h-1.4
		c-0.2,0-0.3,0-0.3,0.1c0,0.1,0.1,0.1,0.3,0.1h1.4C239.4,63.9,239.5,63.9,239.5,63.8z M239.5,65c0-0.1-0.1-0.2-0.3-0.2h-1.4
		c-0.2,0-0.3,0-0.3,0.1c0,0.1,0.1,0.2,0.3,0.2h1.4C239.4,65.1,239.5,65.1,239.5,65z M241.5,59.9c0-0.1-0.1-0.2-0.3-0.2h-2.1
		c-0.2,0-0.3,0.1-0.3,0.2c0,0.1,0.1,0.2,0.3,0.2h2C241.4,60,241.5,60,241.5,59.9z M243,63.8c0-0.1-0.1-0.1-0.3-0.1h-1.6
		c-0.2,0-0.3,0-0.3,0.1c0,0.1,0.1,0.1,0.3,0.1h1.5C242.9,63.9,243,63.9,243,63.8z M243,65c0-0.1-0.1-0.2-0.3-0.2h-1.5
		c-0.2,0-0.3,0-0.3,0.1c0,0.1,0.1,0.2,0.3,0.2h1.6C242.9,65.1,243,65.1,243,65z"/>
	<path class="st2" d="M251.6,56.6c0-0.3,0.1-0.4,0.4-0.4h0.8c0.3,0,0.4,0.1,0.4,0.4v0.8c0,0.2,0.1,0.3,0.3,0.3h3.4
		c0.3,0,0.4,0.1,0.4,0.4v0.7c0,0.3-0.1,0.4-0.4,0.4h-3.4c-0.2,0-0.3,0.1-0.3,0.3v0.9c0,0.2,0.1,0.3,0.3,0.3h4.2
		c0.3,0,0.4,0.1,0.4,0.4v0.7c0,0.3-0.1,0.4-0.4,0.4h-10.7c-0.3,0-0.4-0.1-0.4-0.4V61c0-0.3,0.1-0.4,0.4-0.4h4.3
		c0.2,0,0.3-0.1,0.3-0.3v-0.9c0-0.2-0.1-0.3-0.3-0.3h-2.1c-0.2,0-0.4,0.1-0.5,0.4c-0.1,0.2-0.3,0.4-0.4,0.6
		c-0.2,0.3-0.4,0.3-0.7,0.1l-0.5-0.4c-0.2-0.2-0.3-0.4-0.1-0.7c0.5-0.7,0.9-1.5,1.2-2.4c0.1-0.3,0.3-0.3,0.5-0.3l0.6,0.2
		c0.3,0.1,0.4,0.3,0.3,0.6c-0.1,0.3,0,0.4,0.2,0.4h1.4c0.2,0,0.3-0.1,0.3-0.3V56.6z M247.7,63.2c0-0.3,0.1-0.4,0.4-0.4h8.5
		c0.3,0,0.4,0.1,0.4,0.4v4.4c0,0.3-0.1,0.4-0.4,0.4h-0.7c-0.3,0-0.4-0.1-0.4-0.3c0-0.2-0.1-0.3-0.3-0.3h-5.6c-0.2,0-0.3,0.1-0.3,0.3
		c0,0.2-0.1,0.3-0.4,0.3h-0.7c-0.3,0-0.4-0.1-0.4-0.4V63.2z M255.5,64.5c0-0.2-0.1-0.3-0.3-0.3h-5.6c-0.2,0-0.3,0.1-0.3,0.3v1.1
		c0,0.2,0.1,0.3,0.3,0.3h5.6c0.2,0,0.3-0.1,0.3-0.3V64.5z"/>
	<path class="st2" d="M263.9,56.3c0.3-0.1,0.5,0,0.7,0.2c0.1,0.1,0.2,0.3,0.3,0.4c0.2,0.3,0.2,0.4,0,0.5l-1.4,0.5
		c-0.2,0.1-0.3,0.2-0.3,0.4v1c0,0.2,0.1,0.3,0.3,0.3h1.4c0.3,0,0.4,0.1,0.4,0.4v0.6c0,0.3-0.1,0.4-0.4,0.4h-1.4
		c-0.2,0-0.3,0.1-0.3,0.2s0.1,0.3,0.4,0.5c0.5,0.3,0.9,0.7,1.4,1.1c0.3,0.2,0.3,0.5,0.1,0.7l-0.4,0.5c-0.2,0.3-0.4,0.3-0.6,0
		l-0.5-0.5c-0.3-0.2-0.4-0.2-0.4,0v4c0,0.3-0.1,0.4-0.4,0.4h-0.7c-0.3,0-0.4-0.1-0.4-0.4v-3.3c0-0.3-0.1-0.3-0.2-0.1
		c-0.2,0.3-0.4,0.6-0.7,0.9c-0.3,0.3-0.5,0.3-0.7,0.1c-0.1-0.1-0.2-0.3-0.3-0.4c-0.2-0.3-0.2-0.5,0-0.8c0.7-0.8,1.2-1.7,1.7-2.6
		c0.1-0.2,0.1-0.3-0.1-0.3H260c-0.3,0-0.4-0.1-0.4-0.4v-0.6c0-0.3,0.1-0.4,0.4-0.4h1.5c0.2,0,0.3-0.1,0.3-0.3v-0.7
		c0-0.2-0.1-0.3-0.4-0.3l-0.8,0.1c-0.3,0.1-0.5,0-0.6-0.3c-0.1-0.2-0.2-0.4-0.3-0.6c-0.1-0.3-0.1-0.4,0.2-0.5
		C261.5,57,262.9,56.7,263.9,56.3z M265.7,57.6c0-0.3,0.1-0.4,0.4-0.4h4.5c0.3,0,0.4,0.1,0.4,0.4v9.5c0,0.3-0.1,0.4-0.4,0.4h-0.7
		c-0.3,0-0.4-0.1-0.4-0.4v-0.2c0-0.2-0.1-0.3-0.3-0.3h-1.7c-0.2,0-0.3,0.1-0.3,0.3v0.4c0,0.3-0.1,0.4-0.4,0.4h-0.7
		c-0.3,0-0.4-0.1-0.4-0.4V57.6z M269.5,59c0-0.2-0.1-0.3-0.3-0.3h-1.7c-0.2,0-0.3,0.1-0.3,0.3v5.9c0,0.2,0.1,0.3,0.3,0.3h1.7
		c0.2,0,0.3-0.1,0.3-0.3V59z"/>
	<path class="st2" d="M217.4,72.4c0-0.3,0.1-0.4,0.4-0.4h2.5c0.3,0,0.4,0.1,0.4,0.4v1.3c0,0.2,0,0.3,0,0.5c0,0.2,0.1,0.3,0.3,0.3
		h3.6c0.3,0,0.4,0.1,0.4,0.4v7c0,0.6-0.3,1.1-0.8,1.4c-0.6,0.2-1.2,0.3-1.9,0.2c-0.3,0-0.4-0.2-0.5-0.5l-0.1-0.7
		c-0.1-0.3,0.1-0.4,0.4-0.3c0.5,0.1,0.8,0.1,1.1,0.1c0.2-0.1,0.3-0.3,0.3-0.5v-5.3c0-0.2-0.1-0.3-0.3-0.3h-2c-0.2,0-0.3,0.1-0.2,0.4
		c0.3,1.2,0.9,2.4,2,3.4c0.3,0.3,0.4,0.5,0.2,0.8l-0.3,0.4c-0.2,0.3-0.4,0.4-0.7,0.2c-1-0.8-1.7-1.8-2.2-2.9
		c-0.1-0.2-0.2-0.2-0.3,0.1c-0.7,1.3-1.4,2.3-2.3,3.1c-0.3,0.2-0.5,0.2-0.6-0.1l-0.3-0.5c-0.1-0.3-0.1-0.5,0.1-0.7
		c1.1-1,1.9-2.2,2.4-3.7c0.1-0.2,0-0.3-0.2-0.3h-2.4c-0.2,0-0.3,0.1-0.3,0.3v6.9c0,0.3-0.1,0.4-0.4,0.4H215c-0.3,0-0.4-0.1-0.4-0.4
		v-8.3c0-0.3,0.1-0.4,0.4-0.4h3.9c0.2,0,0.3-0.1,0.3-0.4v-0.3c0-0.2-0.1-0.3-0.3-0.3h-1.1c-0.3,0-0.4-0.1-0.4-0.4V72.4z"/>
	<path class="st2" d="M232.4,75.5c0.3-0.2,0.5-0.2,0.8,0l0.4,0.3c0.3,0.2,0.4,0.4,0.4,0.4c-0.1,0.1,0,0.1,0.3,0.3c1.6,1,3,1.6,4.2,2
		c0.3,0.1,0.4,0.3,0.2,0.6l-0.4,0.7c-0.1,0.2-0.3,0.3-0.6,0.2l-0.2-0.1c-0.2-0.1-0.3-0.1-0.3,0.1v3.1c0,0.3-0.1,0.4-0.4,0.4H236
		c-0.3,0-0.4,0-0.4-0.1c0-0.1-0.1-0.2-0.3-0.2h-4.6c-0.2,0-0.3,0-0.3,0.1c0,0.1-0.1,0.2-0.4,0.2h-0.7c-0.3,0-0.4-0.1-0.4-0.4v-3.3
		c0-0.2-0.1-0.3-0.4-0.1c-0.1,0-0.2,0.1-0.3,0.1c-0.3,0.1-0.5,0.1-0.7-0.2l-0.3-0.5c-0.2-0.3-0.1-0.5,0.2-0.6
		C229.1,77.8,230.8,76.8,232.4,75.5z M232.2,72.2c0-0.3,0.1-0.4,0.4-0.4h0.8c0.3,0,0.4,0.1,0.4,0.4v0.2c0,0.2,0.1,0.3,0.3,0.3h4
		c0.3,0,0.4,0.1,0.4,0.4v1.6c0,0.3-0.1,0.4-0.4,0.4h-0.7c-0.3,0-0.4-0.1-0.4-0.4v-0.3c0-0.2-0.1-0.3-0.3-0.3h-7.4
		c-0.2,0-0.3,0.1-0.3,0.3v0.3c0,0.3-0.1,0.4-0.4,0.4h-0.7c-0.3,0-0.4-0.1-0.4-0.4v-1.6c0-0.3,0.1-0.4,0.4-0.4h4.1
		c0.2,0,0.3-0.1,0.3-0.3V72.2z M230.1,74.7c0.3-0.3,0.6-0.3,0.9-0.1l0.4,0.3c0.2,0.2,0.2,0.4,0,0.7c-0.7,0.7-1.5,1.2-2.4,1.6
		c-0.3,0.1-0.5,0.1-0.7-0.2c-0.1-0.2-0.2-0.3-0.3-0.5c-0.2-0.3-0.1-0.5,0.2-0.6C228.8,75.6,229.4,75.2,230.1,74.7z M233.1,77.4
		c-0.2-0.2-0.5-0.1-0.7,0c-0.6,0.5-1.3,0.9-2,1.2c-0.3,0.1-0.2,0.2,0.1,0.2h4.5c0.3,0,0.3-0.1,0.1-0.2
		C234.4,78.3,233.7,77.9,233.1,77.4z M235.6,80.6c0-0.2-0.1-0.3-0.3-0.3h-4.6c-0.2,0-0.3,0.1-0.3,0.3v0.8c0,0.2,0.1,0.3,0.3,0.3h4.6
		c0.2,0,0.3-0.1,0.3-0.3V80.6z M234.9,74.6c0.3-0.2,0.5-0.3,0.8-0.1c0.6,0.5,1.3,0.9,2.1,1.2c0.3,0.1,0.3,0.3,0.2,0.5
		c-0.1,0.2-0.2,0.4-0.3,0.6c-0.2,0.3-0.4,0.4-0.7,0.2c-0.7-0.4-1.5-0.9-2.3-1.6c-0.2-0.2-0.2-0.5,0-0.7L234.9,74.6z"/>
	<path class="st2" d="M245.1,72.1c0-0.2,0.1-0.3,0.4-0.3h0.7c0.3,0,0.4,0.1,0.4,0.3c0,0.2,0.1,0.3,0.3,0.3h4.2
		c0.3,0,0.4,0.1,0.4,0.4v1.3c0,0.3-0.1,0.4-0.4,0.4h-0.6c-0.3,0-0.4-0.1-0.4-0.4c0-0.3-0.1-0.4-0.3-0.4h-7.8c-0.2,0-0.3,0.1-0.3,0.2
		c0,0.1,0.1,0.2,0.4,0.2c1.9,0,4.2-0.1,7-0.3c0.3,0,0.5,0.1,0.6,0.4l0.2,0.4c0.1,0.3,0.1,0.4-0.2,0.4l-0.9,0c-0.2,0-0.2,0.1,0.1,0.2
		c0,0,0.1,0,0.1,0c0.3,0.1,0.4,0.3,0.2,0.5c-0.1,0.2-0.1,0.4,0.1,0.4h1.8c0.3,0,0.4,0.1,0.4,0.4V77c0,0.3-0.1,0.4-0.4,0.4H249
		c-0.3,0-0.3,0,0,0.1c0.6,0.2,1.5,0.4,2.5,0.6c0.3,0,0.4,0.2,0.3,0.4l-0.3,0.6c-0.1,0.3-0.3,0.4-0.6,0.3l-0.2-0.1
		c-0.2-0.1-0.3,0-0.3,0.2v3.5c0,0.3-0.1,0.4-0.4,0.4h-0.7c-0.3,0-0.4-0.1-0.4-0.2c0-0.1-0.1-0.2-0.3-0.2h-5.4
		c-0.2,0-0.3,0.1-0.3,0.2c0,0.1-0.1,0.2-0.4,0.2h-0.6c-0.3,0-0.4-0.1-0.4-0.4v-3.6c0-0.2-0.1-0.3-0.4-0.2c-0.3,0.1-0.5-0.1-0.7-0.4
		l-0.1-0.3c-0.2-0.3-0.1-0.5,0.2-0.5c0.8-0.2,1.7-0.4,2.6-0.7c0.2-0.1,0.2-0.2-0.1-0.2h-2c-0.3,0-0.4-0.1-0.4-0.4v-0.5
		c0-0.3,0.1-0.4,0.4-0.4h1.2c0.2,0,0.3-0.1,0.2-0.2c-0.1-0.1,0-0.3,0.2-0.4l0.2-0.1c0.3-0.1,0.2-0.2-0.1-0.2h-0.4
		c-0.3,0-0.4-0.1-0.5-0.4c-0.1-0.2-0.3-0.4-0.5-0.4h-0.5c-0.3,0-0.4-0.1-0.4-0.4v-1.3c0-0.3,0.1-0.4,0.4-0.4h4.1
		C245,72.4,245.1,72.3,245.1,72.1z M245.1,80.2c0-0.2-0.1-0.2-0.3-0.2h-1.6c-0.2,0-0.3,0.1-0.3,0.2c0,0.2,0.1,0.2,0.3,0.2h1.6
		C245,80.4,245.1,80.3,245.1,80.2z M245.1,81.7c0-0.2-0.1-0.2-0.3-0.2h-1.6c-0.2,0-0.3,0.1-0.3,0.2c0,0.1,0.1,0.2,0.3,0.2h1.6
		C245,81.9,245.1,81.9,245.1,81.7z M246.9,77.7c-0.2-0.2-0.4-0.1-0.4,0.1V78c0,0.3-0.1,0.4-0.4,0.4h-0.7c-0.3,0-0.4-0.1-0.4-0.4
		c0-0.3-0.1-0.3-0.4-0.2c-0.5,0.3-0.9,0.5-1.3,0.7c-0.3,0.1-0.3,0.2,0,0.2h4.9c0.3,0,0.3-0.1,0-0.2
		C247.9,78.3,247.4,78.1,246.9,77.7z M245.1,75.5c0-0.2-0.1-0.3-0.3-0.3l-0.9,0c-0.2,0-0.2,0.1,0,0.4l0.2,0.2
		c0.1,0.2,0.3,0.3,0.6,0.3c0.3,0,0.4-0.1,0.4-0.3V75.5z M247.5,75.1l-0.7,0c-0.2,0-0.3,0.1-0.3,0.3v0.4c0,0.2,0.1,0.3,0.3,0.3h0.3
		c0.2,0,0.4-0.1,0.5-0.4c0-0.1,0.1-0.2,0.2-0.3C247.8,75.2,247.7,75.1,247.5,75.1z M248.9,80.2c0-0.2-0.1-0.2-0.3-0.2h-1.8
		c-0.2,0-0.3,0.1-0.3,0.2c0,0.2,0.1,0.2,0.3,0.2h1.8C248.8,80.4,248.9,80.3,248.9,80.2z M248.9,81.7c0-0.2-0.1-0.2-0.3-0.2h-1.8
		c-0.2,0-0.3,0.1-0.3,0.2c0,0.1,0.1,0.2,0.3,0.2h1.8C248.8,81.9,248.9,81.9,248.9,81.7z"/>
	<path class="st2" d="M254.4,72.2c0-0.3,0.1-0.4,0.4-0.4h0.7c0.3,0,0.4,0.1,0.4,0.4v1.6c0,0.2,0.1,0.3,0.3,0.3h0.4
		c0.3,0,0.4,0.1,0.4,0.4v0.6c0,0.3-0.1,0.4-0.4,0.4h-0.4c-0.2,0-0.3,0.1-0.3,0.3v1.1c0,0.2,0.1,0.3,0.4,0.2c0,0,0.1,0,0.1,0
		c0.3-0.1,0.4,0,0.5,0.3c0,0.2,0.1,0.3,0.1,0.5c0.1,0.3,0,0.4-0.3,0.5l-0.5,0.2c-0.2,0.1-0.3,0.2-0.3,0.4v3.1c0,0.4-0.1,0.7-0.3,1
		c-0.5,0.4-1.1,0.5-1.8,0.4c-0.3-0.1-0.5-0.2-0.5-0.5c-0.1-0.2-0.1-0.4-0.1-0.7c0-0.3,0.1-0.4,0.3-0.3l0.4,0.1
		c0.4,0.1,0.6-0.1,0.6-0.5v-2.1c0-0.2-0.1-0.3-0.4-0.2c-0.3,0.1-0.5,0-0.6-0.3l-0.2-0.7c-0.1-0.3,0-0.5,0.3-0.5l0.6-0.2
		c0.2-0.1,0.3-0.2,0.3-0.4v-1.5c0-0.2-0.1-0.3-0.3-0.3h-0.5c-0.3,0-0.4-0.1-0.4-0.4v-0.6c0-0.3,0.1-0.4,0.4-0.4h0.5
		c0.2,0,0.3-0.1,0.3-0.3V72.2z M257.4,72.2c0-0.3,0.1-0.4,0.4-0.4h0.7c0.3,0,0.4,0.1,0.4,0.4v2.7c0,0.2,0.1,0.3,0.3,0.3h1
		c0.3,0,0.4,0.1,0.4,0.4v0.6c0,0.3-0.1,0.4-0.4,0.4h-1c-0.2,0-0.3,0.1-0.3,0.3v4c0,0.2,0.1,0.3,0.4,0.2L260,81
		c0.3,0,0.4,0.1,0.4,0.3l0.1,0.5c0,0.3-0.1,0.5-0.4,0.5c-1,0.3-2,0.5-3,0.6c-0.3,0-0.4-0.1-0.5-0.4l-0.1-0.7
		c-0.1-0.3,0.1-0.4,0.3-0.5l0.2,0c0.2,0,0.3-0.2,0.3-0.4V72.2z M260.8,72.2c0-0.3,0.1-0.4,0.4-0.4h0.7c0.3,0,0.4,0.1,0.4,0.4V75
		c0,0.2,0.1,0.3,0.4,0.1c0.2-0.1,0.5-0.3,0.7-0.5c0.3-0.2,0.5-0.2,0.7,0c0.1,0.1,0.2,0.3,0.3,0.4c0.3,0.3,0.2,0.6,0,0.7
		c-0.6,0.4-1.2,0.7-1.8,1c-0.2,0.1-0.3,0.2-0.3,0.4v4.3c0.1,0.4,0.3,0.5,0.8,0.4c0.2,0,0.3-0.2,0.3-0.4c0-0.2,0.1-0.4,0.1-0.7
		c0-0.3,0.1-0.3,0.4-0.2l0.6,0.3c0.3,0.1,0.4,0.4,0.3,0.6c-0.1,0.6-0.2,1.1-0.5,1.5c-0.1,0.1-0.4,0.2-0.8,0.2c-0.6,0-1.2,0-1.7-0.1
		c-0.3,0-0.5-0.2-0.7-0.5c-0.1-0.3-0.2-0.5-0.2-0.8V72.2z"/>
</g>
<g>
	<path class="st2" d="M149.7,296.5c0.1-0.3,0.3-0.3,0.6-0.3c0.2,0,0.4,0.1,0.5,0.2c0.3,0.1,0.4,0.2,0.3,0.3
		c-0.1,0.2-0.1,0.3,0.1,0.3h1.8c0.2,0,0.4-0.1,0.5-0.4l0-0.1c0.1-0.3,0.3-0.4,0.5-0.3l0.7,0.2c0.3,0.1,0.3,0.2,0.3,0.4
		c-0.1,0.2,0,0.3,0.2,0.3h3c0.3,0,0.4,0.1,0.4,0.4v0.4c0,0.3-0.1,0.4-0.4,0.4h-3.2c-0.2,0-0.3,0.1-0.3,0.2c0,0.1,0.1,0.2,0.3,0.2
		h2.7c0.3,0,0.4,0.1,0.4,0.4v0.4c0,0.3-0.1,0.4-0.4,0.4h-2.7c-0.2,0-0.3,0.1-0.3,0.2c0,0.1,0.1,0.2,0.3,0.2h2.7
		c0.3,0,0.4,0.1,0.4,0.4v0.4c0,0.3-0.1,0.4-0.4,0.4h-2.7c-0.2,0-0.3,0.1-0.3,0.2c0,0.1,0.1,0.2,0.3,0.2h3.4c0.3,0,0.4,0.1,0.4,0.4
		v0.4c0,0.3-0.1,0.4-0.4,0.4h-3.5c-0.2,0-0.3,0.1-0.3,0.3c0,0.2,0.1,0.3,0.3,0.3h4.1c0.3,0,0.4,0.1,0.4,0.4v0.5
		c0,0.3-0.1,0.4-0.4,0.4h-2.6c-0.3,0-0.3,0.1-0.1,0.2c0.9,0.4,1.9,0.7,2.8,0.9c0.3,0.1,0.3,0.2,0.2,0.5l-0.4,0.8
		c-0.1,0.3-0.3,0.4-0.6,0.3c-1.1-0.4-2.3-1-3.4-1.8c-0.3-0.2-0.4-0.2-0.4,0v1.8c0,0.3-0.1,0.4-0.4,0.4h-0.6c-0.3,0-0.4-0.1-0.4-0.4
		v-1.8c0-0.2-0.1-0.2-0.4,0c-1.2,0.8-2.4,1.4-3.7,1.8c-0.3,0.1-0.5,0-0.7-0.3l-0.3-0.6c-0.1-0.3-0.1-0.4,0.2-0.5
		c1.1-0.3,2.1-0.7,3.1-1.1c0.3-0.1,0.2-0.2,0-0.2h-2.9c-0.3,0-0.4-0.1-0.4-0.4v-0.5c0-0.3,0.1-0.4,0.4-0.4h4.4
		c0.2,0,0.3-0.1,0.3-0.3c0-0.2-0.1-0.3-0.3-0.3h-2c-0.2,0-0.3,0-0.3,0.1c0,0.1-0.1,0.1-0.4,0.1h-0.6c-0.3,0-0.4-0.1-0.4-0.4V300
		c0-0.2-0.1-0.2-0.3-0.1c-0.2,0.2-0.4,0.1-0.5-0.2c-0.1-0.2-0.2-0.3-0.3-0.5c-0.2-0.3-0.1-0.5,0.1-0.7
		C148.7,297.9,149.3,297.2,149.7,296.5z M153.2,298.5c0-0.2-0.1-0.2-0.3-0.2h-2.2c-0.2,0-0.3,0.1-0.3,0.2c0,0.1,0.1,0.2,0.3,0.2h2.2
		C153.1,298.6,153.2,298.6,153.2,298.5z M153.2,300.1c0-0.2-0.1-0.2-0.3-0.2h-2.2c-0.2,0-0.3,0.1-0.3,0.2c0,0.1,0.1,0.2,0.3,0.2h2.2
		C153.1,300.3,153.2,300.2,153.2,300.1z M153.2,301.7c0-0.1-0.1-0.2-0.3-0.2h-2.2c-0.2,0-0.3,0.1-0.3,0.2c0,0.1,0.1,0.2,0.3,0.2h2.2
		C153.1,301.9,153.2,301.8,153.2,301.7z"/>
	<path class="st2" d="M165.7,296.7c0-0.3,0.1-0.4,0.4-0.4h0.8c0.3,0,0.4,0.1,0.4,0.4v1.3c0,0.2,0.1,0.3,0.3,0.3h3.7
		c0.3,0,0.4,0.1,0.4,0.4v6c0,0.3-0.1,0.4-0.4,0.4h-0.7c-0.3,0-0.4-0.1-0.4-0.4c0-0.3-0.1-0.4-0.3-0.4h-2.2c-0.2,0-0.3,0.1-0.3,0.3
		v3.1c0,0.3-0.1,0.4-0.4,0.4h-0.7c-0.3,0-0.4-0.1-0.4-0.4v-3.1c0-0.2-0.1-0.3-0.3-0.3h-2.3c-0.2,0-0.3,0.1-0.3,0.4
		c0,0.3-0.1,0.4-0.4,0.4h-0.7c-0.3,0-0.4-0.1-0.4-0.4v-6c0-0.3,0.1-0.4,0.4-0.4h3.7c0.2,0,0.3-0.1,0.3-0.3V296.7z M165.7,300
		c0-0.2-0.1-0.3-0.3-0.3h-2.3c-0.2,0-0.3,0.1-0.3,0.3v2.4c0,0.2,0.1,0.3,0.3,0.3h2.3c0.2,0,0.3-0.1,0.3-0.3V300z M170,300
		c0-0.2-0.1-0.3-0.3-0.3h-2.2c-0.2,0-0.3,0.1-0.3,0.3v2.4c0,0.2,0.1,0.3,0.3,0.3h2.2c0.2,0,0.3-0.1,0.3-0.3V300z"/>
	<path class="st2" d="M175.4,296.6c0-0.3,0.2-0.4,0.4-0.3l0.8,0.2c0.3,0.1,0.4,0.2,0.3,0.5l-0.2,0.8c-0.1,0.2,0,0.3,0.2,0.3h1.2
		c0.3,0,0.4,0.1,0.4,0.4v1.5c0,0.3,0.1,0.3,0.2,0.1c0.5-1.1,1-2.2,1.3-3.4c0.1-0.3,0.3-0.4,0.5-0.3l0.7,0.2c0.3,0.1,0.4,0.3,0.3,0.6
		l-0.2,0.7c-0.1,0.2,0,0.3,0.2,0.3h3c0.3,0,0.4,0.1,0.4,0.4c0,0.1,0,0.1,0,0.2v1.7c0,2.3-0.1,4.2-0.3,5.5c0,0.3-0.1,0.6-0.2,1
		c-0.1,0.4-0.4,0.7-0.8,0.9c-0.5,0.2-1.2,0.3-2.1,0.1c-0.3-0.1-0.4-0.2-0.5-0.5l-0.2-0.8c0-0.3,0.1-0.4,0.3-0.3
		c0.6,0.1,1.1,0.2,1.5,0.2c0.2-0.1,0.3-0.2,0.3-0.4c0.1-0.3,0.2-0.7,0.2-1c0.1-1.3,0.1-2.4,0.1-3.3v-2c0-0.2-0.1-0.3-0.3-0.3h-2
		c-0.2,0-0.4,0.1-0.5,0.4c-0.2,0.5-0.5,1.1-0.8,1.7c-0.2,0.2-0.4,0.3-0.6,0.1l-0.4-0.3c-0.2-0.1-0.3-0.1-0.3,0.1v5.3
		c0,0.3-0.1,0.4-0.4,0.4h-0.7c-0.3,0-0.4-0.1-0.4-0.3c0-0.2-0.1-0.4-0.3-0.4h-1.1c-0.2,0-0.3,0.1-0.3,0.3v0.5c0,0.3-0.1,0.4-0.4,0.4
		h-0.7c-0.3,0-0.4-0.1-0.4-0.4v-8.8c0-0.3,0.1-0.4,0.4-0.4h0.5c0.2,0,0.3-0.1,0.4-0.4C175.2,297.3,175.3,297,175.4,296.6z
		 M177,299.8c0-0.2-0.1-0.3-0.3-0.3h-1.1c-0.2,0-0.3,0.1-0.3,0.3v1.6c0,0.2,0.1,0.3,0.3,0.3h1.1c0.2,0,0.3-0.1,0.3-0.3V299.8z
		 M177,303.4c0-0.2-0.1-0.3-0.3-0.3h-1.1c-0.2,0-0.3,0.1-0.3,0.3v1.4c0,0.2,0.1,0.3,0.3,0.3h1.1c0.2,0,0.3-0.1,0.3-0.3V303.4z
		 M180.5,301.6l0.6-0.2c0.3-0.1,0.4,0,0.6,0.3c0.3,0.6,0.5,1.3,0.7,2c0.1,0.3,0,0.5-0.3,0.6l-0.8,0.3c-0.3,0.1-0.4,0-0.5-0.3
		c-0.2-0.8-0.4-1.5-0.6-2.2C180.1,301.9,180.2,301.7,180.5,301.6z"/>
	<path class="st2" d="M189.5,296.7c0.1-0.3,0.3-0.4,0.5-0.3l0.7,0.2c0.3,0.1,0.3,0.3,0.2,0.5c-0.2,0.6-0.5,1.2-0.8,1.9
		c-0.1,0.1-0.1,0.3-0.1,0.5v8c0,0.3-0.1,0.4-0.4,0.4h-0.7c-0.3,0-0.4-0.1-0.4-0.4V302c0-0.2-0.1-0.2-0.3,0.1l-0.4,0.5
		c-0.2,0.2-0.4,0.2-0.6-0.2l-0.3-0.6c-0.1-0.3-0.1-0.5,0.1-0.8C188.1,299.7,188.9,298.2,189.5,296.7z M193,296.7
		c0-0.3,0.1-0.4,0.4-0.4l0.8,0.1c0.3,0,0.4,0.2,0.4,0.4c0,0.8,0,1.7,0.1,2.5c0,0.2,0.2,0.3,0.4,0.3l2.8-0.3c0.3,0,0.5,0.1,0.5,0.4
		l0.1,0.6c0,0.3-0.1,0.4-0.4,0.5l-3,0.4c-0.2,0-0.3,0.2-0.3,0.4c0.1,1.5,0.5,2.8,1.2,4c0.3,0.4,0.6,0.7,0.9,0.8
		c0.1-0.2,0.2-0.6,0.2-1.1c0-0.3,0.2-0.4,0.4-0.2l0.7,0.4c0.3,0.2,0.4,0.4,0.4,0.7c-0.2,0.8-0.5,1.4-0.8,1.7
		c-0.6,0.5-1.2,0.4-1.9-0.3c-0.6-0.5-1.1-1.2-1.5-2c-0.6-1.1-0.9-2.4-1-3.8c0-0.2-0.2-0.3-0.4-0.3l-1.9,0.2c-0.3,0-0.4-0.1-0.5-0.3
		l-0.1-0.7c0-0.3,0.1-0.4,0.3-0.5l2.1-0.3c0.2,0,0.3-0.2,0.3-0.4C193,298.5,193,297.6,193,296.7z M196.1,296.8
		c0.3-0.2,0.6-0.1,0.8,0.1c0.2,0.3,0.4,0.5,0.5,0.8c0.2,0.3,0.1,0.6-0.1,0.7l-0.6,0.3c-0.3,0.2-0.5,0.1-0.6-0.1
		c-0.2-0.3-0.4-0.6-0.6-0.9c-0.2-0.3-0.2-0.5,0.1-0.7L196.1,296.8z"/>
	<path class="st2" d="M199.7,297.2c0-0.3,0.1-0.4,0.4-0.4h3.2c0.3,0,0.4,0.1,0.4,0.4v0.6c0,0.3-0.1,0.4-0.4,0.4h-0.6
		c-0.2,0-0.3,0.1-0.3,0.3v1.6c0,0.2,0.1,0.3,0.3,0.3h0.4c0.3,0,0.4,0.1,0.4,0.4v0.6c0,0.3-0.1,0.4-0.4,0.4h-0.4
		c-0.2,0-0.3,0.1-0.3,0.3v2.2c0,0.2,0.1,0.3,0.4,0.2l0.5-0.1c0.3-0.1,0.4,0.1,0.4,0.4l0.1,0.5c0,0.3-0.1,0.4-0.4,0.5
		c-1,0.3-2,0.6-3,0.8c-0.3,0.1-0.5,0-0.5-0.3c-0.1-0.2-0.1-0.4-0.1-0.7c-0.1-0.3,0.1-0.5,0.3-0.5l0.6-0.1c0.2-0.1,0.3-0.2,0.3-0.4
		v-2.5c0-0.2-0.1-0.3-0.3-0.3h-0.4c-0.3,0-0.4-0.1-0.4-0.4v-0.6c0-0.3,0.1-0.4,0.4-0.4h0.4c0.2,0,0.3-0.1,0.3-0.3v-1.6
		c0-0.2-0.1-0.3-0.3-0.3h-0.5c-0.3,0-0.4-0.1-0.4-0.4V297.2z M204.1,296.9c0-0.3,0.1-0.4,0.4-0.4h6.2c0.3,0,0.4,0.1,0.4,0.4v5.9
		c0,0.3-0.1,0.4-0.4,0.4h-2c-0.2,0-0.3,0.1-0.3,0.3c0,0.2,0.1,0.4,0.3,0.4h2c0.3,0,0.4,0.1,0.4,0.4v0.6c0,0.3-0.1,0.4-0.4,0.4h-2
		c-0.2,0-0.3,0.1-0.3,0.3v0.4c0,0.2,0.1,0.3,0.3,0.3h2.4c0.3,0,0.4,0.1,0.4,0.4v0.6c0,0.3-0.1,0.4-0.4,0.4h-7.1
		c-0.3,0-0.4-0.1-0.4-0.4v-0.6c0-0.3,0.1-0.4,0.4-0.4h2.6c0.2,0,0.3-0.1,0.3-0.3v-0.4c0-0.2-0.1-0.3-0.3-0.3h-2.1
		c-0.3,0-0.4-0.1-0.4-0.4v-0.6c0-0.3,0.1-0.4,0.4-0.4h2.1c0.2,0,0.3-0.1,0.3-0.3c0-0.2-0.1-0.4-0.3-0.4h-2c-0.3,0-0.4-0.1-0.4-0.4
		V296.9z M206.8,298.2c0-0.2-0.1-0.3-0.3-0.3h-0.7c-0.2,0-0.3,0.1-0.3,0.3v0.5c0,0.2,0.1,0.3,0.3,0.3h0.6c0.2,0,0.3-0.1,0.3-0.3
		V298.2z M206.8,300.8c0-0.2-0.1-0.3-0.3-0.3h-0.6c-0.2,0-0.3,0.1-0.3,0.3v0.7c0,0.2,0.1,0.3,0.3,0.3h0.6c0.2,0,0.3-0.1,0.3-0.3
		V300.8z M209.5,298.2c0-0.2-0.1-0.3-0.3-0.3h-0.6c-0.2,0-0.3,0.1-0.3,0.3v0.5c0,0.2,0.1,0.3,0.3,0.3h0.6c0.2,0,0.3-0.1,0.3-0.3
		V298.2z M209.5,300.8c0-0.2-0.1-0.3-0.3-0.3h-0.6c-0.2,0-0.3,0.1-0.3,0.3v0.7c0,0.2,0.1,0.3,0.3,0.3h0.6c0.2,0,0.3-0.1,0.3-0.3
		V300.8z"/>
	<path class="st2" d="M159.3,312.1c0-0.3,0.1-0.4,0.4-0.4h0.8c0.3,0,0.4,0.1,0.4,0.4v1.1c0,0.2,0.1,0.3,0.3,0.3h4.2
		c0.3,0,0.4,0.1,0.4,0.4v0.7c0,0.3-0.1,0.4-0.4,0.4h-1.3c-0.2,0-0.3,0.1-0.4,0.4c-0.3,1.6-1.1,3.1-2.4,4.5c1.3,0.8,2.7,1.5,4.3,1.9
		c0.3,0.1,0.4,0.2,0.3,0.5c-0.1,0.2-0.2,0.5-0.3,0.7c-0.1,0.3-0.3,0.4-0.5,0.3c-1.6-0.3-3.2-1-4.7-2.1c-0.2-0.2-0.4-0.2-0.6,0
		c-1.1,0.8-2.5,1.5-4.2,2.3c-0.3,0.1-0.5,0-0.7-0.2c-0.2-0.2-0.3-0.4-0.5-0.6c-0.2-0.3-0.2-0.4,0.1-0.5c1.5-0.5,2.8-1.2,4-2
		c0.2-0.2,0.2-0.4,0-0.6c-0.9-1.1-1.7-2.5-2.3-4.1c-0.1-0.2-0.2-0.3-0.4-0.3h-1c-0.3,0-0.4-0.1-0.4-0.4v-0.7c0-0.3,0.1-0.4,0.4-0.4
		h4.2c0.2,0,0.3-0.1,0.3-0.3V312.1z M162.1,315.3c0.1-0.2,0-0.3-0.2-0.3h-3.8c-0.2,0-0.3,0.1-0.1,0.4c0.5,1.1,1.2,2.2,1.9,3
		c0.2,0.2,0.4,0.2,0.6-0.1C161.3,317.4,161.8,316.4,162.1,315.3z"/>
	<path class="st2" d="M169.8,312.3c0.1-0.3,0.2-0.4,0.5-0.3l0.7,0.2c0.3,0.1,0.3,0.3,0.3,0.5c-0.2,0.5-0.4,1.1-0.8,1.9
		c0,0.1-0.1,0.2-0.1,0.4v8.1c0,0.3-0.1,0.4-0.4,0.4h-0.7c-0.3,0-0.4-0.1-0.4-0.4v-5.4c0-0.2-0.1-0.2-0.3,0.1l-0.3,0.4
		c-0.2,0.3-0.4,0.3-0.6,0l-0.4-0.7c-0.2-0.3-0.1-0.5,0-0.8C168.5,315.3,169.3,313.8,169.8,312.3z M174.4,312.3
		c0-0.3,0.1-0.4,0.4-0.4h0.8c0.3,0,0.4,0.1,0.4,0.4v1.5c0,0.2,0.1,0.3,0.3,0.3h1.8c0.3,0,0.4,0.1,0.4,0.4v0.7c0,0.3-0.1,0.4-0.4,0.4
		h-1.8c-0.2,0-0.3,0.1-0.3,0.3v1.9c0,0.2,0.1,0.3,0.3,0.3h2.3c0.3,0,0.4,0.1,0.4,0.4v0.7c0,0.3-0.1,0.4-0.4,0.4h-2.3
		c-0.2,0-0.3,0.1-0.3,0.3v3.3c0,0.3-0.1,0.4-0.4,0.4h-0.7c-0.3,0-0.4-0.1-0.4-0.4v-3.3c0-0.2-0.1-0.3-0.3-0.3h-2.9
		c-0.3,0-0.4-0.1-0.4-0.4v-0.7c0-0.3,0.1-0.4,0.4-0.4h2.9c0.2,0,0.3-0.1,0.3-0.3v-1.9c0-0.2-0.1-0.3-0.3-0.3h-1
		c-0.2,0-0.4,0.1-0.5,0.4c-0.2,0.3-0.3,0.7-0.5,1c-0.2,0.3-0.4,0.3-0.6,0.1c-0.2-0.1-0.4-0.3-0.6-0.5c-0.2-0.2-0.2-0.4-0.1-0.7
		c0.5-1,1-2,1.3-3.2c0.1-0.3,0.3-0.4,0.5-0.3l0.6,0.2c0.3,0.1,0.4,0.2,0.3,0.5l-0.2,0.6c-0.1,0.2,0,0.3,0.2,0.3h0.4
		c0.2,0,0.3-0.1,0.3-0.3V312.3z"/>
	<path class="st2" d="M184.3,312.2c0.1-0.3,0.3-0.4,0.5-0.3l0.6,0.2c0.3,0.1,0.4,0.2,0.3,0.4c-0.1,0.3-0.1,0.4,0.1,0.4h5.5
		c0.3,0,0.4,0.1,0.4,0.4v0.6c0,0.3-0.1,0.4-0.4,0.4h-6c-0.2,0-0.4,0.1-0.5,0.4c-0.4,0.8-0.9,1.6-1.4,2.4c-0.1,0.1-0.1,0.2-0.1,0.4
		v5.5c0,0.3-0.1,0.4-0.4,0.4h-0.7c-0.3,0-0.4-0.1-0.4-0.4v-3.8c0-0.2-0.1-0.2-0.2-0.1c-0.1,0.1-0.3,0.1-0.6-0.2l-0.3-0.3
		c-0.3-0.3-0.3-0.5,0-0.8c0.9-0.9,1.7-2,2.4-3.2c0.1-0.3,0.1-0.4-0.1-0.4h-2c-0.3,0-0.4-0.1-0.4-0.4v-0.6c0-0.3,0.1-0.4,0.4-0.4h2.8
		c0.2,0,0.4-0.1,0.5-0.4L184.3,312.2z M184.6,315.6c0-0.3,0.1-0.4,0.4-0.4h5.6c0.3,0,0.4,0.1,0.4,0.4v0.7c0,0.3-0.1,0.5-0.4,0.8
		c-0.4,0.4-0.9,0.8-1.4,1.2c-0.2,0.1-0.3,0.2-0.3,0.3c0,0.1,0.1,0.1,0.3,0.1h2.2c0.3,0,0.4,0.1,0.4,0.4v0.6c0,0.3-0.1,0.4-0.4,0.4
		h-2.3c-0.2,0-0.3,0.1-0.3,0.3v1.6c0,0.4-0.1,0.8-0.2,1c-0.1,0.3-0.4,0.4-0.7,0.5c-0.3,0.1-0.9,0.1-1.8,0c-0.3,0-0.4-0.2-0.5-0.4
		c-0.1-0.2-0.1-0.4-0.1-0.7c-0.1-0.3,0.1-0.4,0.4-0.3c0.5,0.1,0.9,0.1,1.2,0.1c0.1,0,0.2-0.2,0.2-0.4l0-1.3c0-0.2-0.1-0.3-0.3-0.3
		h-2.9c-0.3,0-0.4-0.1-0.4-0.4v-0.6c0-0.3,0.1-0.4,0.4-0.4h2.9c0.2,0,0.3-0.1,0.3-0.3v-0.4c0-0.3,0.1-0.4,0.3-0.4
		c0.2,0,0.4-0.1,0.6-0.4l0.2-0.2c0.2-0.2,0.2-0.3,0-0.3H185c-0.3,0-0.4-0.1-0.4-0.4V315.6z"/>
	<path class="st2" d="M195,312.3c0.1-0.3,0.2-0.4,0.5-0.3l0.6,0.2c0.3,0.1,0.4,0.3,0.3,0.5c-0.1,0.5-0.3,0.9-0.5,1.4
		c-0.2,0.4-0.3,0.6-0.2,0.8v8.2c0,0.3-0.1,0.4-0.4,0.4h-0.6c-0.3,0-0.4-0.1-0.4-0.4V318c0-0.3-0.1-0.3-0.2-0.1
		c-0.1,0.2-0.3,0.2-0.4-0.1l-0.3-0.6c-0.1-0.3-0.1-0.5,0-0.8C194,315.1,194.6,313.7,195,312.3z M196.2,314.2c0-0.3,0.1-0.4,0.4-0.4
		h2.9c0.3,0,0.4,0.1,0.4,0.4v0.5c0,0.3-0.1,0.4-0.4,0.4h-2.9c-0.3,0-0.4-0.1-0.4-0.4V314.2z M196.4,315.9c0-0.3,0.1-0.4,0.4-0.4h2.4
		c0.3,0,0.4,0.1,0.4,0.4v0.5c0,0.3-0.1,0.4-0.4,0.4h-2.4c-0.3,0-0.4-0.1-0.4-0.4V315.9z M196.4,319.6c0-0.3,0.1-0.4,0.4-0.4h2.5
		c0.3,0,0.4,0.1,0.4,0.4v3.4c0,0.3-0.1,0.4-0.4,0.4h-0.5c-0.3,0-0.4-0.1-0.4-0.2c0-0.2-0.1-0.2-0.4-0.2c-0.3,0-0.4,0.1-0.4,0.3
		c0,0.2-0.1,0.3-0.4,0.3h-0.5c-0.3,0-0.4-0.1-0.4-0.4V319.6z M201.1,312.3c0-0.3,0.1-0.4,0.4-0.4h0.5c0.3,0,0.4,0.1,0.4,0.4v0.7
		c0,0.2,0.1,0.3,0.3,0.3h0.2c0.3,0,0.4,0.1,0.4,0.4c0,0.3,0.1,0.3,0.3,0c0-0.1,0.1-0.2,0.2-0.3c0.2-0.3,0.4-0.3,0.6-0.2l0.3,0.2
		c0.3,0.2,0.3,0.4,0.2,0.7c-0.2,0.4-0.5,0.8-0.9,1.4c-0.1,0.2-0.1,0.3,0.1,0.3h0.7c0.3,0,0.4,0.1,0.4,0.4v0.5c0,0.3-0.1,0.4-0.4,0.4
		h-1.8c-0.2,0-0.4,0.1-0.7,0.4c-0.2,0.2-0.3,0.4-0.1,0.4h2.2c0.3,0,0.4,0.1,0.4,0.4v5c0,0.3-0.1,0.4-0.4,0.4h-0.5
		c-0.3,0-0.4-0.1-0.4-0.2c0-0.2-0.1-0.3-0.3-0.3h-1.1c-0.2,0-0.3,0.1-0.3,0.2c0,0.2-0.1,0.3-0.4,0.3h-0.6c-0.3,0-0.4-0.1-0.4-0.4
		v-3.9c0-0.2-0.1-0.3-0.2-0.2c-0.1,0.1-0.3,0-0.4-0.2c-0.2-0.3-0.4-0.4-0.6-0.4h-2.3c-0.3,0-0.4-0.1-0.4-0.4v-0.5
		c0-0.3,0.1-0.4,0.4-0.4h2.3c0.3,0,0.4,0.1,0.4,0.4c0,0.2,0.1,0.2,0.4,0l0.4-0.3c0.2-0.2,0.2-0.3,0-0.3h-0.2c-0.3,0-0.4-0.1-0.4-0.4
		v-0.5c0-0.3,0.1-0.4,0.4-0.4h0.7c0.2,0,0.3-0.1,0.3-0.3v-0.6c0-0.2-0.1-0.3-0.3-0.3h-0.2c-0.3,0-0.4-0.1-0.4-0.4v-0.5
		c0-0.3,0.1-0.4,0.4-0.4h0.2c0.2,0,0.3-0.1,0.3-0.3V312.3z M196.7,312.5c0-0.3,0.1-0.4,0.4-0.4h2.1c0.3,0,0.4,0.1,0.4,0.4v0.5
		c0,0.3-0.1,0.4-0.4,0.4h-2.1c-0.3,0-0.4-0.1-0.4-0.4V312.5z M198.4,320.8c0-0.2-0.1-0.3-0.4-0.3c-0.3,0-0.4,0.1-0.4,0.3v0.6
		c0,0.2,0.1,0.3,0.4,0.3c0.3,0,0.4-0.1,0.4-0.3V320.8z M203.3,319.4c0-0.3-0.1-0.4-0.3-0.4h-1.1c-0.2,0-0.3,0.1-0.3,0.4
		c0,0.3,0.1,0.4,0.3,0.4h1.1C203.2,319.8,203.3,319.7,203.3,319.4z M203.3,321.5c0-0.3-0.1-0.4-0.3-0.4h-1.1c-0.2,0-0.3,0.1-0.3,0.4
		c0,0.3,0.1,0.4,0.3,0.4h1.1C203.2,321.9,203.3,321.7,203.3,321.5z M202.6,314.9c0.2-0.3,0.2-0.4,0-0.4c-0.2,0-0.3,0.1-0.3,0.4
		C202.3,315.1,202.4,315.1,202.6,314.9z"/>
</g>
<g>
	<path class="st2" d="M345.4,231.2c0-0.2,0.1-0.3,0.4-0.3h0.8c0.3,0,0.4,0.1,0.4,0.3c0,0.2,0.1,0.3,0.3,0.3h4.4
		c0.3,0,0.4,0.1,0.4,0.4v1.2c0,0.3-0.1,0.4-0.4,0.4h-0.8c-0.3,0-0.4-0.1-0.4-0.4c0-0.3-0.1-0.4-0.3-0.4h-7.7c-0.2,0-0.3,0.1-0.3,0.4
		c0,0.3-0.1,0.4-0.4,0.4H341c-0.3,0-0.4-0.1-0.4-0.4v-1.2c0-0.3,0.1-0.4,0.4-0.4h4.2C345.3,231.4,345.4,231.3,345.4,231.2z
		 M341.6,237.1c0-0.3,0.1-0.4,0.4-0.4h8c0.3,0,0.4,0.1,0.4,0.4v3.8c0,0.3-0.1,0.4-0.2,0.4c-0.1,0-0.1,0,0.1,0.1l1.1,0.2
		c0.3,0,0.4,0.2,0.2,0.5l-0.2,0.4c-0.2,0.3-0.4,0.4-0.6,0.3c-0.9-0.2-1.9-0.5-2.8-0.8c-0.3-0.1-0.3-0.2-0.1-0.4
		c0.2-0.2,0.2-0.3,0-0.3h-3.3c-0.2,0-0.2,0.1-0.1,0.2c0.2,0.2,0.2,0.3,0,0.4c-0.7,0.3-1.7,0.5-2.9,0.8c-0.3,0.1-0.5-0.1-0.7-0.3
		l-0.2-0.4c-0.2-0.3-0.1-0.4,0.1-0.5c0.4-0.1,0.9-0.1,1.3-0.2c0.2-0.1,0.2-0.1,0-0.1H342c-0.3,0-0.4-0.1-0.4-0.4V237.1z
		 M342.5,233.4c0.1-0.3,0.2-0.5,0.5-0.5h6.8c0.3,0,0.4,0.1,0.4,0.4l-0.1,0.6c0,0.2,0.1,0.3,0.3,0.3h0.6c0.3,0,0.4,0.1,0.4,0.4v0.1
		c0,0.3-0.1,0.4-0.4,0.4h-0.7c-0.2,0-0.3,0.1-0.4,0.4l-0.1,0.5c0,0.3-0.2,0.4-0.4,0.4h-7.2c-0.3,0-0.4-0.1-0.3-0.4l0.1-0.6
		c0.1-0.2,0-0.3-0.2-0.3h-0.6c-0.3,0-0.4-0.1-0.4-0.4v-0.1c0-0.3,0.1-0.4,0.4-0.4h0.8c0.2,0,0.3-0.1,0.4-0.4
		C342.5,233.7,342.5,233.5,342.5,233.4z M349.1,237.8c0-0.1-0.1-0.2-0.3-0.2h-5.4c-0.2,0-0.3,0-0.3,0.1c0,0.1,0.1,0.2,0.3,0.2h5.4
		C349,237.9,349.1,237.9,349.1,237.8z M349.1,239c0-0.1-0.1-0.2-0.3-0.2h-5.4c-0.2,0-0.3,0-0.3,0.1c0,0.1,0.1,0.2,0.3,0.2h5.4
		C348.9,239.1,349.1,239.1,349.1,239z M349.1,240.1c0-0.1-0.1-0.2-0.3-0.2h-5.4c-0.2,0-0.3,0-0.3,0.1c0,0.1,0.1,0.2,0.3,0.2h5.4
		C349,240.3,349.1,240.2,349.1,240.1z M345.2,235.3c0-0.1,0-0.2-0.2-0.2h-1.3c-0.2,0-0.3,0-0.3,0.1c0,0.1,0.1,0.2,0.3,0.2h1.2
		C345,235.4,345.2,235.3,345.2,235.3z M345.5,234.1c0-0.1-0.1-0.1-0.3-0.1H344c-0.2,0-0.3,0-0.3,0.1c0,0.1,0.1,0.1,0.3,0.1h1.2
		C345.4,234.2,345.5,234.1,345.5,234.1z M348.7,235.3c0-0.1-0.1-0.2-0.2-0.2h-1.6c-0.2,0-0.3,0.1-0.3,0.2c0,0.1,0.1,0.2,0.3,0.2h1.6
		C348.5,235.4,348.7,235.3,348.7,235.3z M348.9,234.1c0-0.1-0.1-0.1-0.3-0.1h-1.4c-0.2-0.1-0.4,0-0.4,0.2c0,0,0.1,0.1,0.3,0.1h1.4
		C348.7,234.2,348.8,234.1,348.9,234.1z"/>
	<path class="st2" d="M353.6,232.2c0-0.3,0.1-0.4,0.4-0.4h3.3c0.3,0,0.4,0.1,0.4,0.4v8.7c0,0.3-0.1,0.4-0.4,0.4h-0.6
		c-0.3,0-0.4-0.1-0.4-0.3c0-0.2-0.1-0.4-0.3-0.4h-0.6c-0.2,0-0.3,0.1-0.3,0.3v0.4c0,0.3-0.1,0.4-0.4,0.4H354c-0.3,0-0.4-0.1-0.4-0.4
		V232.2z M356.2,233.4c0-0.2-0.1-0.3-0.3-0.3h-0.6c-0.2,0-0.3,0.1-0.3,0.3v1.7c0,0.2,0.1,0.3,0.3,0.3h0.6c0.2,0,0.3-0.1,0.3-0.3
		V233.4z M356.2,237c0-0.2-0.1-0.3-0.3-0.3h-0.6c-0.2,0-0.3,0.1-0.3,0.3v1.8c0,0.2,0.1,0.3,0.3,0.3h0.6c0.2,0,0.3-0.1,0.3-0.3V237z
		 M360.7,231.3c0-0.3,0.1-0.4,0.4-0.4h0.7c0.3,0,0.4,0.1,0.4,0.4v0.4c0,0.2,0.1,0.3,0.3,0.3h1.6c0.3,0,0.4,0.1,0.4,0.4v0.6
		c0,0.3-0.1,0.4-0.4,0.4h-1.6c-0.2,0-0.3,0.1-0.3,0.3v0.6c0,0.2,0.1,0.3,0.3,0.3h2.2c0.3,0,0.4,0.1,0.4,0.4v0.6
		c0,0.3-0.1,0.4-0.4,0.4h-0.6c-0.2,0-0.3,0.1-0.3,0.3v0.4c0,0.2,0.1,0.3,0.3,0.3h0.5c0.3,0,0.4,0.1,0.4,0.4v0.6
		c0,0.3-0.1,0.4-0.4,0.4h-0.5c-0.2,0-0.3,0.1-0.3,0.3v2.3c0,0.3-0.1,0.6-0.1,0.8c0,0.3-0.2,0.5-0.6,0.6c-0.4,0.2-1,0.2-1.8,0.1
		c-0.3-0.1-0.5-0.2-0.5-0.5l-0.1-0.7c0-0.3,0.1-0.4,0.4-0.3c0.3,0.1,0.5,0.1,0.8,0.1c0.2,0,0.3,0,0.4-0.1c0.1-0.1,0.1-0.2,0.1-0.3
		v-2c0-0.2-0.1-0.3-0.3-0.3h-3.6c-0.3,0-0.4-0.1-0.4-0.4v-0.6c0-0.3,0.1-0.4,0.4-0.4h3.6c0.2,0,0.3-0.1,0.3-0.3v-0.4
		c0-0.2-0.1-0.3-0.3-0.3h-3.7c-0.3,0-0.4-0.1-0.4-0.4V235c0-0.3,0.1-0.4,0.4-0.4h2.2c0.2,0,0.3-0.1,0.3-0.3v-0.6
		c0-0.2-0.1-0.3-0.3-0.3h-1.7c-0.3,0-0.4-0.1-0.4-0.4v-0.6c0-0.3,0.1-0.4,0.4-0.4h1.7c0.2,0,0.3-0.1,0.3-0.3V231.3z M359.3,238.9
		c0.3-0.1,0.5-0.1,0.6,0.2c0.2,0.3,0.3,0.6,0.4,0.9c0.1,0.3,0,0.5-0.2,0.6c-0.2,0.1-0.4,0.2-0.6,0.3c-0.3,0.1-0.4,0-0.5-0.2
		c-0.1-0.3-0.2-0.6-0.3-0.9c-0.1-0.3-0.1-0.4,0.2-0.6C359,239.1,359.1,239,359.3,238.9z"/>
	<path class="st2" d="M366.5,233.2c0-0.3,0.1-0.4,0.4-0.4h4c0.3,0,0.4,0.1,0.4,0.4v0.6c0,0.3-0.1,0.4-0.4,0.4h-4
		c-0.3,0-0.4-0.1-0.4-0.4V233.2z M373.9,231.4c0-0.3,0.1-0.4,0.4-0.4h0.9c0.3,0,0.4,0.1,0.4,0.4v1.1c0,0.2,0.1,0.3,0.3,0.3h1.8
		c0.3,0,0.4,0.1,0.4,0.4v0.7c0,0.3-0.1,0.4-0.4,0.4h-3.1c-0.2,0-0.3,0.1-0.3,0.3l0,0.7c0,0.2,0.1,0.3,0.3,0.3h2.8
		c0.3,0,0.4,0.1,0.4,0.4c0,1.2,0,2.4-0.1,3.6c0,0.8-0.1,1.5-0.3,2c-0.2,0.4-0.5,0.7-0.9,0.8c-0.3,0.1-0.9,0.1-1.8,0
		c-0.3,0-0.4-0.2-0.5-0.4l-0.2-0.8c-0.1-0.3,0-0.4,0.3-0.3c0.6,0.1,1.1,0.2,1.5,0.1c0.1-0.1,0.2-0.2,0.2-0.3
		c0.1-0.6,0.2-1.7,0.2-3.2c0-0.2-0.1-0.3-0.3-0.3h-1.4c-0.2,0-0.3,0.1-0.4,0.4c-0.1,0.3-0.1,0.6-0.1,0.9c-0.2,1.4-0.8,2.8-1.9,4
		c-0.3,0.3-0.5,0.2-0.9-0.1l-0.2-0.2c-0.2-0.2-0.3-0.2-0.3,0c0,0.2-0.1,0.3-0.4,0.3h-1.9c-0.2,0-0.3,0.1-0.3,0.2
		c0,0.2-0.1,0.2-0.4,0.2h-0.6c-0.3,0-0.4-0.1-0.4-0.4v-3.6c0-0.3,0.1-0.4,0.4-0.4h3.2c0.3,0,0.4,0.1,0.4,0.4v2.3
		c0,0.2,0.1,0.2,0.4-0.1c0.7-0.9,1.2-1.9,1.4-3c0.2-1.1,0.3-2.2,0.2-3.4c0-0.2-0.1-0.3-0.3-0.3h-0.6c-0.3,0-0.4-0.1-0.4-0.4v-0.7
		c0-0.3,0.1-0.4,0.4-0.4h1.7c0.2,0,0.3-0.1,0.3-0.3V231.4z M366.9,235c0-0.3,0.1-0.4,0.4-0.4h3c0.3,0,0.4,0.1,0.4,0.4v0.6
		c0,0.3-0.1,0.4-0.4,0.4h-3c-0.3,0-0.4-0.1-0.4-0.4V235z M366.9,236.8c0-0.3,0.1-0.4,0.4-0.4h3c0.3,0,0.4,0.1,0.4,0.4v0.6
		c0,0.3-0.1,0.4-0.4,0.4h-3c-0.3,0-0.4-0.1-0.4-0.4V236.8z M367,231.5c0-0.3,0.1-0.4,0.4-0.4h2.8c0.3,0,0.4,0.1,0.4,0.4v0.6
		c0,0.3-0.1,0.4-0.4,0.4h-2.8c-0.3,0-0.4-0.1-0.4-0.4V231.5z M369.4,239.9c0-0.2-0.1-0.3-0.3-0.3h-0.6c-0.2,0-0.3,0.1-0.3,0.3v0.7
		c0,0.2,0.1,0.3,0.3,0.3h0.6c0.2,0,0.3-0.1,0.3-0.3V239.9z"/>
	<path class="st2" d="M379.7,231.6c0-0.3,0.1-0.4,0.4-0.4h4.2c0.3,0,0.4,0.1,0.4,0.4v4.3c0,0.3-0.1,0.4-0.4,0.4h-2.9
		c-0.2,0-0.3,0.1-0.3,0.3v5.6c0,0.3-0.1,0.4-0.4,0.4h-0.6c-0.3,0-0.4-0.1-0.4-0.4V231.6z M383.3,232.8c0-0.2-0.1-0.3-0.3-0.3h-1.6
		c-0.2,0-0.3,0.1-0.3,0.3c0,0.2,0.1,0.3,0.3,0.3h1.6C383.2,233.1,383.3,233,383.3,232.8z M383.3,234.6c0-0.2-0.1-0.3-0.3-0.3h-1.6
		c-0.2,0-0.3,0.1-0.3,0.3c0,0.2,0.1,0.3,0.3,0.3h1.6C383.2,234.9,383.3,234.8,383.3,234.6z M382.4,237.3c0-0.3,0.1-0.4,0.4-0.4h4.6
		c0.3,0,0.4,0.1,0.4,0.4v3.1c0,0.3-0.1,0.4-0.4,0.4h-3.3c-0.2,0-0.3,0.1-0.3,0.4c0,0.3-0.1,0.4-0.4,0.4h-0.6c-0.3,0-0.4-0.1-0.4-0.4
		V237.3z M386.4,238.5c0-0.2-0.1-0.3-0.3-0.3h-1.9c-0.2,0-0.3,0.1-0.3,0.3v0.6c0,0.2,0.1,0.3,0.3,0.3h1.9c0.2,0,0.3-0.1,0.3-0.3
		V238.5z M385.5,231.6c0-0.3,0.1-0.4,0.4-0.4h4.4c0.3,0,0.4,0.1,0.4,0.4v9.4c0,0.3-0.1,0.7-0.3,1c-0.3,0.3-0.6,0.5-1,0.6
		c-0.5,0-0.9,0-1.4,0c-0.3,0-0.4-0.2-0.5-0.5l-0.1-0.7c-0.1-0.3,0.1-0.4,0.4-0.3c0.5,0.1,0.8,0.1,1.1,0.1c0.2-0.2,0.3-0.4,0.3-0.7
		v-3.8c0-0.2-0.1-0.3-0.3-0.3h-2.9c-0.3,0-0.4-0.1-0.4-0.4V231.6z M389.2,232.8c0-0.2-0.1-0.3-0.3-0.3h-1.6c-0.2,0-0.3,0.1-0.3,0.3
		c0,0.2,0.1,0.3,0.3,0.3h1.7C389.1,233.1,389.2,233,389.2,232.8z M389.2,234.6c0-0.2-0.1-0.3-0.3-0.3h-1.7c-0.2,0-0.3,0.1-0.3,0.3
		c0,0.2,0.1,0.3,0.3,0.3h1.7C389.1,234.9,389.2,234.8,389.2,234.6z"/>
	<path class="st2" d="M346,246.9c0-0.2,0.1-0.3,0.4-0.3h0.7c0.3,0,0.4,0.1,0.4,0.3c0,0.2,0.1,0.3,0.3,0.3h4c0.3,0,0.4,0.1,0.4,0.4
		v0.4c0,0.3-0.1,0.4-0.4,0.4h-8.9c-0.2,0-0.3,0.1-0.3,0.3v4.3c-0.1,1.8-0.3,3.4-0.8,4.8c-0.1,0.3-0.3,0.4-0.6,0.2l-0.5-0.3
		c-0.3-0.2-0.3-0.4-0.3-0.6c0.4-1.3,0.6-2.8,0.7-4.5v-5c0-0.3,0.1-0.4,0.4-0.4h4.2C345.9,247.2,346,247.1,346,246.9z M343,253.3
		c0-0.3,0.1-0.4,0.4-0.4h7.5c0.3,0,0.4,0.1,0.4,0.4v2.8c0,0.3-0.1,0.4-0.4,0.4h-1.1c-0.2,0-0.2,0,0.1,0.1l1.4,0.3
		c0.3,0.1,0.4,0.2,0.2,0.5l-0.2,0.4c-0.2,0.3-0.4,0.3-0.6,0.3c-0.6-0.2-1.3-0.4-2.2-0.8c-0.3-0.1-0.3-0.3-0.2-0.5
		c0.2-0.2,0.2-0.3-0.1-0.3H346c-0.2,0-0.2,0.1,0,0.3c0.2,0.2,0.2,0.4-0.1,0.5c-0.8,0.3-1.7,0.6-2.8,0.9c0,0-0.1-0.2-0.2-0.4
		c0-0.1-0.1-0.2-0.1-0.3c-0.1-0.3-0.1-0.5,0.2-0.5c0.4-0.1,0.9-0.2,1.4-0.3c0.3-0.1,0.3-0.2,0-0.2h-0.9c-0.3,0-0.4-0.1-0.4-0.4
		V253.3z M342.7,252c0-0.3,0.1-0.4,0.4-0.4h8.4c0.3,0,0.4,0.1,0.4,0.4v0.2c0,0.3-0.1,0.4-0.4,0.4h-8.4c-0.3,0-0.4-0.1-0.4-0.4V252z
		 M344.5,248.7c0-0.1,0.1-0.2,0.4-0.2h0.6c0.3,0,0.4,0.1,0.4,0.2c0,0.1,0.1,0.2,0.3,0.2h2c0.2,0,0.3-0.1,0.3-0.2
		c0-0.1,0.1-0.2,0.4-0.2h0.6c0.3,0,0.4,0.1,0.4,0.2c0,0.1,0.1,0.2,0.3,0.2h1.3c0.3,0,0.4,0.1,0.4,0.4v0.3c0,0.3-0.1,0.4-0.4,0.4
		h-1.3c-0.2,0-0.3,0.1-0.3,0.3v0.6c0,0.3-0.1,0.4-0.4,0.4h-4.6c-0.3,0-0.4-0.1-0.4-0.4v-0.6c0-0.2-0.1-0.3-0.3-0.3h-1
		c-0.3,0-0.4-0.1-0.4-0.4v-0.3c0-0.3,0.1-0.4,0.4-0.4h1C344.4,248.9,344.5,248.8,344.5,248.7z M346.4,254.1c0-0.1-0.1-0.1-0.3-0.1
		h-1.4c-0.2,0-0.3,0-0.3,0.1c0,0.1,0.1,0.1,0.3,0.1h1.4C346.3,254.2,346.4,254.2,346.4,254.1z M346.4,255.3c0-0.1-0.1-0.2-0.3-0.2
		h-1.4c-0.2,0-0.3,0-0.3,0.1c0,0.1,0.1,0.2,0.3,0.2h1.4C346.3,255.5,346.4,255.4,346.4,255.3z M348.5,250.2c0-0.1-0.1-0.2-0.3-0.2
		h-2.1c-0.2,0-0.3,0.1-0.3,0.2c0,0.1,0.1,0.2,0.3,0.2h2C348.4,250.3,348.5,250.3,348.5,250.2z M349.9,254.1c0-0.1-0.1-0.1-0.3-0.1
		h-1.6c-0.2,0-0.3,0-0.3,0.1c0,0.1,0.1,0.1,0.3,0.1h1.5C349.8,254.2,349.9,254.2,349.9,254.1z M349.9,255.3c0-0.1-0.1-0.2-0.3-0.2
		h-1.5c-0.2,0-0.3,0-0.3,0.1c0,0.1,0.1,0.2,0.3,0.2h1.6C349.8,255.5,349.9,255.4,349.9,255.3z"/>
	<path class="st2" d="M358.5,246.9c0-0.3,0.1-0.4,0.4-0.4h0.8c0.3,0,0.4,0.1,0.4,0.4v0.8c0,0.2,0.1,0.3,0.3,0.3h3.4
		c0.3,0,0.4,0.1,0.4,0.4v0.7c0,0.3-0.1,0.4-0.4,0.4h-3.4c-0.2,0-0.3,0.1-0.3,0.3v0.9c0,0.2,0.1,0.3,0.3,0.3h4.2
		c0.3,0,0.4,0.1,0.4,0.4v0.7c0,0.3-0.1,0.4-0.4,0.4h-10.7c-0.3,0-0.4-0.1-0.4-0.4v-0.7c0-0.3,0.1-0.4,0.4-0.4h4.3
		c0.2,0,0.3-0.1,0.3-0.3v-0.9c0-0.2-0.1-0.3-0.3-0.3h-2.1c-0.2,0-0.4,0.1-0.5,0.4c-0.1,0.2-0.3,0.4-0.4,0.6
		c-0.2,0.3-0.4,0.3-0.7,0.1l-0.5-0.4c-0.2-0.2-0.3-0.4-0.1-0.7c0.5-0.7,0.9-1.5,1.2-2.4c0.1-0.3,0.3-0.3,0.5-0.3l0.6,0.2
		c0.3,0.1,0.4,0.3,0.3,0.6c-0.1,0.3,0,0.4,0.2,0.4h1.4c0.2,0,0.3-0.1,0.3-0.3V246.9z M354.6,253.5c0-0.3,0.1-0.4,0.4-0.4h8.5
		c0.3,0,0.4,0.1,0.4,0.4v4.4c0,0.3-0.1,0.4-0.4,0.4h-0.7c-0.3,0-0.4-0.1-0.4-0.3c0-0.2-0.1-0.3-0.3-0.3h-5.6c-0.2,0-0.3,0.1-0.3,0.3
		c0,0.2-0.1,0.3-0.4,0.3H355c-0.3,0-0.4-0.1-0.4-0.4V253.5z M362.4,254.9c0-0.2-0.1-0.3-0.3-0.3h-5.6c-0.2,0-0.3,0.1-0.3,0.3v1.1
		c0,0.2,0.1,0.3,0.3,0.3h5.6c0.2,0,0.3-0.1,0.3-0.3V254.9z"/>
	<path class="st2" d="M366.7,254.4c0-0.3,0.2-0.4,0.4-0.3l0.5,0.1c0.3,0.1,0.4,0.2,0.4,0.4c-0.1,0.9-0.3,1.7-0.4,2.4
		c-0.1,0.3-0.2,0.4-0.5,0.3l-0.4-0.1c-0.3-0.1-0.4-0.3-0.3-0.5C366.5,255.8,366.6,255.1,366.7,254.4z M368.3,247
		c0.1-0.3,0.3-0.4,0.6-0.3c0.2,0.1,0.4,0.2,0.6,0.3c0.3,0.1,0.3,0.3,0.2,0.6c-0.3,0.5-0.5,1-0.9,1.5c-0.1,0.2-0.2,0.4,0,0.5
		c0.1,0.1,0.3,0,0.4-0.3c0.1-0.3,0.3-0.5,0.4-0.8c0.1-0.3,0.4-0.4,0.6-0.3l0.5,0.2c0.3,0.1,0.4,0.3,0.2,0.6c-0.5,0.8-1,1.6-1.5,2.4
		c-0.2,0.2-0.1,0.3,0.1,0.3c0.3,0,0.4-0.1,0.4-0.3c-0.1-0.2,0-0.3,0.4-0.5l0.3-0.1c0.3-0.1,0.5-0.1,0.6,0.2c0.2,0.5,0.3,0.9,0.5,1.4
		c0.1,0.3,0,0.5-0.3,0.6c-0.1,0-0.3,0.1-0.4,0.2c-0.3,0.1-0.4,0.1-0.5-0.1c0-0.2-0.2-0.2-0.5-0.2l-0.1,0c-0.2,0-0.3,0.2-0.3,0.4v4.5
		c0,0.3-0.1,0.4-0.4,0.4h-0.6c-0.3,0-0.4-0.1-0.4-0.4v-4.3c0-0.2-0.1-0.3-0.4-0.3l-0.8,0.1c-0.3,0-0.4-0.1-0.5-0.3l-0.1-0.6
		c-0.1-0.3,0.1-0.4,0.3-0.5l0.4,0c0.2,0,0.4-0.2,0.6-0.4l0.2-0.3c0.1-0.2,0.1-0.4-0.2-0.6l-1.2-0.9c-0.2-0.2-0.2-0.4,0-0.7l0.2-0.3
		c0.2-0.3,0.4-0.4,0.5-0.3c0.1,0.1,0.2,0,0.4-0.3C367.9,247.8,368.1,247.4,368.3,247z M370.7,254c0.3-0.1,0.5,0,0.6,0.3
		c0.2,0.9,0.3,1.6,0.4,2.2c0,0-0.2,0.1-0.4,0.2l-0.5,0.2c-0.3,0.1-0.4,0-0.4-0.3c-0.1-0.7-0.2-1.3-0.3-1.9c-0.1-0.3,0-0.4,0.3-0.5
		L370.7,254z M374,247c0-0.3,0.1-0.4,0.3-0.4h0.8c0.3,0,0.4,0.1,0.4,0.4v0.8c0,0.2,0.1,0.3,0.3,0.3h1.8c0.3,0,0.4,0.1,0.4,0.4v0.6
		c0,0.3-0.1,0.4-0.4,0.4h-1.8c-0.2,0-0.3,0.1-0.3,0.3v0.9c0,0.2,0.1,0.3,0.3,0.3h1.6c0.3,0,0.4,0.1,0.4,0.4v0.6
		c0,0.3-0.1,0.4-0.4,0.4h-5.3c-0.3,0-0.4-0.1-0.4-0.4v-0.6c0-0.3,0.1-0.4,0.4-0.4h1.5c0.2,0,0.3-0.1,0.3-0.3v-0.9
		c0-0.2-0.1-0.3-0.3-0.3h-1.8c-0.3,0-0.4-0.1-0.4-0.4v-0.6c0-0.3,0.1-0.4,0.4-0.4h1.8c0.2,0,0.3-0.1,0.3-0.3V247z M371.9,253.5
		c0-0.3,0.1-0.4,0.4-0.4h5.2c0.3,0,0.4,0.1,0.4,0.4v4.4c0,0.3-0.1,0.4-0.4,0.4h-0.7c-0.3,0-0.4-0.1-0.4-0.3c0-0.2-0.1-0.3-0.3-0.3
		h-2.4c-0.2,0-0.3,0.1-0.3,0.3c0,0.2-0.1,0.3-0.4,0.3h-0.6c-0.3,0-0.4-0.1-0.4-0.4V253.5z M376.3,254.8c0-0.2-0.1-0.3-0.3-0.3h-2.4
		c-0.2,0-0.3,0.1-0.3,0.3v1.1c0,0.2,0.1,0.3,0.3,0.3h2.4c0.2,0,0.3-0.1,0.3-0.3V254.8z"/>
	<path class="st2" d="M380.5,247.2c0-0.3,0.1-0.4,0.4-0.4h8.8c0.3,0,0.4,0.1,0.4,0.4v4.9c0,0.3-0.1,0.4-0.4,0.4h-3.3
		c-0.2,0-0.3,0.1-0.3,0.3c0,0.2,0.1,0.3,0.3,0.3h4.4c0.3,0,0.4,0.1,0.4,0.4v0.6c0,0.3-0.1,0.4-0.4,0.4h-3.2c-0.2,0-0.2,0.1,0.1,0.3
		c1,0.7,2.1,1.2,3.1,1.5c0.3,0.1,0.3,0.2,0.2,0.5l-0.4,0.7c-0.1,0.3-0.3,0.4-0.6,0.3c-1.2-0.5-2.4-1.3-3.7-2.4
		c-0.2-0.2-0.3-0.2-0.3,0v2.5c0,0.3-0.1,0.4-0.4,0.4h-0.7c-0.3,0-0.4-0.1-0.4-0.4v-2.3c0-0.2-0.1-0.2-0.4,0
		c-0.8,0.7-1.9,1.5-3.4,2.1c-0.3,0.1-0.5,0-0.7-0.2l-0.3-0.5c-0.2-0.3-0.1-0.4,0.2-0.5c1-0.3,2-0.9,3.2-1.7c0.2-0.2,0.3-0.3,0.1-0.3
		H380c-0.3,0-0.4-0.1-0.4-0.4v-0.6c0-0.3,0.1-0.4,0.4-0.4h4.2c0.2,0,0.3-0.1,0.3-0.3c0-0.2-0.1-0.3-0.3-0.3h-3.3
		c-0.3,0-0.4-0.1-0.4-0.4V247.2z M384.5,248.6c0-0.3-0.1-0.4-0.3-0.4h-1.9c-0.2,0-0.3,0.1-0.3,0.4c0,0.3,0.1,0.4,0.3,0.4h1.9
		C384.4,249,384.5,248.9,384.5,248.6z M384.5,250.8c0-0.3-0.1-0.4-0.3-0.4h-1.9c-0.2,0-0.3,0.1-0.3,0.4c0,0.3,0.1,0.4,0.3,0.4h1.9
		C384.4,251.2,384.5,251,384.5,250.8z M388.5,248.6c0-0.3-0.1-0.4-0.3-0.4h-1.9c-0.2,0-0.3,0.1-0.3,0.4c0,0.3,0.1,0.4,0.3,0.4h1.9
		C388.4,249,388.5,248.9,388.5,248.6z M388.5,250.8c0-0.3-0.1-0.4-0.3-0.4h-1.9c-0.2,0-0.3,0.1-0.3,0.4c0,0.3,0.1,0.4,0.3,0.4h1.9
		C388.4,251.2,388.5,251,388.5,250.8z"/>
</g>
<g>
	<path class="st2" d="M413.7,23.9c0.1-0.3,0.3-0.4,0.5-0.3c0.2,0,0.4,0.1,0.6,0.1c0.3,0.1,0.4,0.2,0.3,0.5l-0.1,0.3
		c-0.1,0.2,0,0.3,0.2,0.3h5.3c0.3,0,0.4,0.1,0.4,0.4v0.6c0,0.3-0.1,0.4-0.4,0.4h-6c-0.2,0-0.4,0.1-0.5,0.4l-0.2,0.3
		c-0.1,0.2-0.1,0.3,0.1,0.3h5.7c0.3,0,0.4,0.1,0.4,0.4v6c0,0.9-0.4,1.5-1.2,1.7c-0.5,0.1-0.9,0.1-1.4-0.1c-0.3-0.1-0.4-0.2-0.5-0.5
		l-0.2-0.8c-0.1-0.3,0.1-0.4,0.4-0.3c0.5,0.1,0.8,0.2,1.1,0.1c0.2-0.1,0.3-0.4,0.3-0.7c0-0.2-0.1-0.3-0.3-0.3h-4.5
		c-0.2,0-0.3,0.1-0.3,0.3V35c0,0.3-0.1,0.4-0.4,0.4h-0.7c-0.3,0-0.4-0.1-0.4-0.4v-5.1c0-0.2-0.1-0.2-0.3,0c-0.2,0.2-0.4,0.5-0.7,0.7
		c-0.3,0.2-0.5,0.2-0.8,0c-0.1-0.1-0.3-0.3-0.4-0.4c-0.2-0.2-0.2-0.5,0-0.7c1-1,1.8-2,2.4-2.9c0.1-0.2,0.1-0.3-0.1-0.3h-2
		c-0.3,0-0.4-0.1-0.4-0.4v-0.6c0-0.3,0.1-0.4,0.4-0.4h2.7c0.2,0,0.4-0.1,0.5-0.4L413.7,23.9z M418.6,29.1c0-0.3-0.1-0.4-0.3-0.4
		h-4.5c-0.2,0-0.3,0.1-0.3,0.3c0,0.2,0.1,0.4,0.3,0.4h4.5C418.5,29.4,418.6,29.3,418.6,29.1z M418.6,31.2c0-0.2-0.1-0.4-0.3-0.4
		h-4.5c-0.2,0-0.3,0.1-0.3,0.4c0,0.2,0.1,0.4,0.3,0.4h4.5C418.5,31.5,418.6,31.4,418.6,31.2z"/>
	<path class="st2" d="M425.9,29.3c0.1-0.3,0.2-0.4,0.5-0.3c0.2,0.1,0.4,0.2,0.6,0.3c0.3,0.1,0.4,0.3,0.3,0.5
		c-0.1,0.4-0.3,0.9-0.5,1.4c-0.1,0.2,0,0.4,0.2,0.6c0.3,0.3,0.6,0.6,0.9,0.9c0.2,0.3,0.2,0.5,0,0.8l-0.4,0.5c-0.2,0.2-0.5,0.2-0.7,0
		c-0.2-0.2-0.3-0.4-0.5-0.6c-0.2-0.3-0.5-0.3-0.7,0c-0.5,0.6-1.1,1.1-1.9,1.6c-0.3,0.1-0.5,0-0.6-0.3l-0.3-0.6
		c-0.1-0.3-0.1-0.4,0.2-0.6c0.6-0.3,1.1-0.8,1.6-1.3c0.2-0.2,0.1-0.4-0.1-0.6c-0.3-0.2-0.5-0.5-0.8-0.6c-0.3-0.2-0.3-0.5-0.2-0.7
		c0.1-0.1,0.2-0.3,0.3-0.4c0.2-0.3,0.5-0.3,0.7-0.1c0.2,0.1,0.4,0.3,0.6,0.5c0.2,0.2,0.4,0.2,0.4,0L425.9,29.3z M423.7,26.9
		c0.1-0.2,0.3-0.3,0.6-0.1c0.1,0.1,0.3,0.1,0.4,0.2c0.3,0.2,0.4,0.5,0.2,0.7c-0.3,0.6-0.7,1-1,1.3c-0.3,0.3-0.6,0.3-0.8,0.1
		l-0.3-0.4c-0.2-0.3-0.2-0.6,0.1-0.8C423.2,27.6,423.5,27.2,423.7,26.9z M424.9,24c0-0.3,0.1-0.4,0.4-0.4h0.7c0.3,0,0.4,0.1,0.4,0.4
		v0.6c0,0.2,0.1,0.3,0.3,0.3h1.6c0.3,0,0.4,0.1,0.4,0.4V26c0,0.3-0.1,0.4-0.4,0.4h-1.1c-0.2,0-0.2,0.1,0,0.4
		c0.2,0.2,0.4,0.5,0.6,0.7c0.3,0.2,0.3,0.5,0.1,0.7l-0.4,0.5c-0.2,0.3-0.4,0.3-0.7,0.1c-0.3-0.4-0.7-0.8-0.9-1.3
		c-0.1-0.3,0-0.5,0.3-0.7c0.2-0.1,0.4-0.3,0.5-0.4c0,0-0.1,0-0.3,0h-3.2c-0.3,0-0.4-0.1-0.4-0.4v-0.6c0-0.3,0.1-0.4,0.4-0.4h1.5
		c0.2,0,0.3-0.1,0.3-0.3V24z M429.9,24c0.1-0.3,0.2-0.3,0.5-0.3c0.2,0.1,0.4,0.1,0.6,0.2c0.3,0.1,0.5,0.3,0.4,0.5l-0.2,0.6
		c-0.1,0.2,0,0.3,0.2,0.3h2.5c0.3,0,0.4,0.1,0.4,0.4v0.6c0,0.3-0.1,0.4-0.3,0.4c-0.2,0-0.3,0.1-0.4,0.4c-0.3,1.5-0.7,2.9-1.3,4.2
		c-0.1,0.2-0.1,0.4,0.1,0.6c0.5,0.7,1,1.2,1.5,1.5c0.3,0.2,0.3,0.4,0.1,0.7l-0.4,0.6c-0.2,0.3-0.4,0.3-0.7,0.1
		c-0.7-0.6-1.1-1.1-1.4-1.4c-0.2-0.2-0.4-0.2-0.6,0.1c-0.5,0.6-1.1,1.2-1.8,1.6c-0.3,0.1-0.5,0.1-0.7-0.2c-0.1-0.1-0.2-0.3-0.3-0.4
		c-0.2-0.3-0.2-0.5,0.1-0.6c0.7-0.4,1.3-1,1.9-1.7c0.2-0.2,0.2-0.4,0.1-0.6c-0.2-0.5-0.4-1-0.7-1.7c-0.1-0.2-0.1-0.2-0.2-0.1
		c-0.1,0.1-0.2,0.1-0.5-0.1c-0.2-0.2-0.4-0.3-0.6-0.4c-0.3-0.2-0.3-0.4-0.2-0.7C428.8,27.2,429.4,25.7,429.9,24z M432.2,27.1
		c0-0.2-0.1-0.3-0.2-0.3h-1c-0.2,0-0.4,0.1-0.5,0.4c-0.2,0.4-0.2,0.7-0.1,0.9c0.2,0.5,0.4,1.1,0.6,1.8c0.1,0.3,0.3,0.3,0.4,0
		C431.7,29,432,28.1,432.2,27.1z"/>
	<path class="st2" d="M437.1,23.9c0-0.3,0.2-0.4,0.4-0.3l0.8,0.2c0.3,0.1,0.4,0.2,0.3,0.5l-0.2,0.8c-0.1,0.2,0,0.3,0.2,0.3h1.2
		c0.3,0,0.4,0.1,0.4,0.4v1.5c0,0.3,0.1,0.3,0.2,0.1c0.5-1.1,1-2.2,1.3-3.4c0.1-0.3,0.3-0.4,0.5-0.3l0.7,0.2c0.3,0.1,0.4,0.3,0.3,0.6
		l-0.2,0.7c-0.1,0.2,0,0.3,0.2,0.3h3c0.3,0,0.4,0.1,0.4,0.4c0,0.1,0,0.1,0,0.2v1.7c0,2.3-0.1,4.2-0.3,5.5c0,0.3-0.1,0.6-0.2,1
		c-0.1,0.4-0.4,0.7-0.8,0.9c-0.5,0.2-1.2,0.3-2.1,0.1c-0.3-0.1-0.4-0.2-0.5-0.5l-0.2-0.8c0-0.3,0.1-0.4,0.3-0.3
		c0.6,0.1,1.1,0.2,1.5,0.2c0.2-0.1,0.3-0.2,0.3-0.4c0.1-0.3,0.2-0.7,0.2-1c0.1-1.3,0.1-2.4,0.1-3.3v-2c0-0.2-0.1-0.3-0.3-0.3h-2
		c-0.2,0-0.4,0.1-0.5,0.4c-0.2,0.5-0.5,1.1-0.8,1.7c-0.2,0.2-0.4,0.3-0.6,0.1l-0.4-0.3c-0.2-0.1-0.3-0.1-0.3,0.1V34
		c0,0.3-0.1,0.4-0.4,0.4h-0.7c-0.3,0-0.4-0.1-0.4-0.3c0-0.2-0.1-0.4-0.3-0.4h-1.1c-0.2,0-0.3,0.1-0.3,0.3v0.5c0,0.3-0.1,0.4-0.4,0.4
		H436c-0.3,0-0.4-0.1-0.4-0.4v-8.8c0-0.3,0.1-0.4,0.4-0.4h0.5c0.2,0,0.3-0.1,0.4-0.4C437,24.7,437,24.3,437.1,23.9z M438.8,27.1
		c0-0.2-0.1-0.3-0.3-0.3h-1.1c-0.2,0-0.3,0.1-0.3,0.3v1.6c0,0.2,0.1,0.3,0.3,0.3h1.1c0.2,0,0.3-0.1,0.3-0.3V27.1z M438.8,30.7
		c0-0.2-0.1-0.3-0.3-0.3h-1.1c-0.2,0-0.3,0.1-0.3,0.3V32c0,0.2,0.1,0.3,0.3,0.3h1.1c0.2,0,0.3-0.1,0.3-0.3V30.7z M442.2,29l0.6-0.2
		c0.3-0.1,0.4,0,0.6,0.3c0.3,0.6,0.5,1.3,0.7,2c0.1,0.3,0,0.5-0.3,0.6l-0.8,0.3c-0.3,0.1-0.4,0-0.5-0.3c-0.2-0.8-0.4-1.5-0.6-2.2
		C441.8,29.2,441.9,29.1,442.2,29z"/>
	<path class="st2" d="M403.7,42.6c0.3-0.3,0.5-0.3,0.8-0.2c0.3,0.2,0.6,0.4,0.9,0.6c0.3,0.3,0.3,0.5,0.1,0.7l-0.4,0.5
		c-0.2,0.3-0.4,0.3-0.7,0c-0.3-0.3-0.6-0.5-0.9-0.7c-0.3-0.2-0.3-0.4-0.1-0.7L403.7,42.6z M404.8,45.9c0.1-0.3,0.2-0.4,0.5-0.3
		l0.6,0.2c0.3,0.1,0.4,0.3,0.3,0.6c-0.4,1.7-0.8,3-1.3,4.1c-0.1,0.3-0.3,0.3-0.5,0.2l-0.6-0.3c-0.3-0.1-0.3-0.3-0.2-0.6
		C404,48.6,404.4,47.3,404.8,45.9z M405,39.5c0.2-0.2,0.4-0.3,0.7-0.1c0.3,0.2,0.6,0.4,0.9,0.6c0.2,0.2,0.3,0.4,0.1,0.7
		c-0.2,0.2-0.3,0.3-0.4,0.5c-0.2,0.2-0.4,0.2-0.7,0c-0.3-0.2-0.5-0.5-0.8-0.7c-0.3-0.2-0.3-0.4-0.1-0.7
		C404.7,39.8,404.8,39.6,405,39.5z M413.2,39.2c0.3,0,0.5,0.1,0.6,0.3c0.1,0.1,0.1,0.3,0.2,0.5c0.2,0.3,0.1,0.5-0.2,0.5l-2.1,0.3
		c-0.2,0-0.3,0.2-0.3,0.4v1.1c0,0.2,0.1,0.3,0.3,0.3h2.7c0.3,0,0.4,0.1,0.4,0.4v0.6c0,0.3-0.1,0.4-0.4,0.4h-2.7
		c-0.2,0-0.3,0.1-0.3,0.3v0.9c0,0.2,0.1,0.3,0.3,0.3h2.2c0.3,0,0.4,0.1,0.4,0.4v4.5c0,0.3-0.1,0.4-0.4,0.4h-0.7
		c-0.3,0-0.4-0.1-0.4-0.2c0-0.1-0.1-0.2-0.3-0.2H409c-0.2,0-0.3,0.1-0.3,0.2c0,0.2-0.1,0.2-0.4,0.2h-0.7c-0.3,0-0.4-0.1-0.4-0.4
		v-4.5c0-0.3,0.1-0.4,0.4-0.4h2c0.2,0,0.3-0.1,0.3-0.3v-0.9c0-0.2-0.1-0.3-0.3-0.3h-2.7c-0.3,0-0.4-0.1-0.4-0.4V43
		c0-0.3,0.1-0.4,0.4-0.4h2.7c0.2,0,0.3-0.1,0.3-0.3v-0.9c0-0.2-0.1-0.3-0.4-0.3l-1.6,0.1c-0.3,0-0.4-0.1-0.5-0.4l-0.2-0.6
		c-0.1-0.3,0-0.4,0.2-0.4C409.4,39.7,411.3,39.5,413.2,39.2z M412.9,47.3c0-0.2-0.1-0.3-0.3-0.3H409c-0.2,0-0.3,0.1-0.3,0.3v1.4
		c0,0.2,0.1,0.3,0.3,0.3h3.6c0.2,0,0.3-0.1,0.3-0.3V47.3z"/>
	<path class="st2" d="M416.3,39.6c1.9-0.1,3.6-0.3,5.2-0.5c0.3,0,0.5,0.1,0.6,0.3c0.1,0.1,0.1,0.2,0.2,0.4c0.1,0.3,0.1,0.4-0.2,0.5
		l-1.9,0.2c-0.2,0-0.3,0.1-0.3,0.3c0,0.2,0.1,0.3,0.3,0.3h1.9c0.3,0,0.4,0.1,0.4,0.4V42c0,0.3-0.1,0.4-0.4,0.4h-1.9
		c-0.2,0-0.3,0.1-0.3,0.2c0,0.1,0.1,0.2,0.3,0.2h1.7c0.3,0,0.4,0.1,0.4,0.4v3.6c0,0.3-0.1,0.4-0.4,0.4h-1.7c-0.2,0-0.3,0.1-0.3,0.2
		c0,0.1,0.1,0.2,0.3,0.2h1.5c0.3,0,0.4,0.1,0.4,0.4v0.4c0,0.3-0.1,0.4-0.4,0.4h-1.5c-0.2,0-0.3,0.1-0.3,0.2c0,0.1,0.1,0.2,0.4,0.2
		l1.3-0.1c0.3,0,0.5,0,0.5,0.2s0.1,0.1,0.3-0.2c0.4-0.6,0.7-1.3,1-2c0.3-1.1,0.5-2.4,0.6-3.9c0-0.2-0.1-0.3-0.3-0.3h-0.5
		c-0.3,0-0.4-0.1-0.4-0.4v-0.6c0-0.3,0.1-0.4,0.4-0.4h0.5c0.2,0,0.3-0.1,0.3-0.3v-1.7c0-0.3,0.1-0.4,0.4-0.4h0.8
		c0.3,0,0.4,0.1,0.4,0.4v1.7c0,0.2,0.1,0.3,0.3,0.3h1.3c0.3,0,0.4,0.1,0.4,0.4c0,3.1-0.2,5.7-0.5,7.9c-0.2,0.7-0.6,1-1.2,1.1
		c-0.3,0-0.7,0-0.9-0.1c-0.3-0.1-0.4-0.2-0.4-0.5l-0.1-0.6c0-0.3,0.1-0.3,0.3-0.3c0.4,0.1,0.7,0.1,0.9,0.1c0.2-0.3,0.4-0.8,0.3-1.6
		c0.1-1.5,0.2-3.1,0.2-4.7c0-0.2-0.1-0.3-0.3-0.3s-0.3,0.1-0.3,0.4c-0.1,1.6-0.2,2.9-0.5,3.9c-0.3,1.3-0.9,2.3-1.6,3.2
		c-0.2,0.3-0.5,0.3-0.7,0c-0.3-0.2-0.4-0.3-0.4-0.2c0,0-0.1,0.1-0.4,0.1c-1.7,0.2-3.4,0.3-5.2,0.4c-0.3,0-0.4-0.1-0.5-0.4
		c0-0.2-0.1-0.3-0.1-0.5c-0.1-0.3,0.1-0.4,0.3-0.5l1.9-0.1c0.2,0,0.3-0.1,0.3-0.2c0-0.2-0.1-0.2-0.3-0.2h-1.8
		c-0.3,0-0.4-0.1-0.4-0.4v-0.4c0-0.3,0.1-0.4,0.4-0.4h1.8c0.2,0,0.3-0.1,0.3-0.2c0-0.1-0.1-0.2-0.3-0.2h-1.8c-0.3,0-0.4-0.1-0.4-0.4
		v-3.6c0-0.3,0.1-0.4,0.4-0.4h1.8c0.2,0,0.3-0.1,0.3-0.2c0-0.1-0.1-0.2-0.3-0.2h-2c-0.3,0-0.4-0.1-0.4-0.4v-0.5
		c0-0.3,0.1-0.4,0.4-0.4h2c0.2,0,0.3-0.1,0.3-0.2s-0.1-0.2-0.4-0.2c-0.4,0-0.9,0.1-1.4,0.1c-0.3,0-0.5-0.1-0.6-0.4
		c0-0.1-0.1-0.3-0.2-0.4C416,39.7,416,39.6,416.3,39.6z M418.6,44.2c0-0.1-0.1-0.2-0.3-0.2h-0.5c-0.2,0-0.3,0.1-0.3,0.2
		c0,0.1,0.1,0.2,0.3,0.2h0.5C418.5,44.3,418.6,44.3,418.6,44.2z M418.6,45.7c0-0.1-0.1-0.2-0.3-0.2h-0.5c-0.2,0-0.3,0.1-0.3,0.2
		c0,0.1,0.1,0.2,0.3,0.2h0.5C418.5,45.8,418.6,45.8,418.6,45.7z M421,44.2c0-0.1-0.1-0.2-0.3-0.2h-0.5c-0.2,0-0.3,0.1-0.3,0.2
		c0,0.1,0.1,0.2,0.3,0.2h0.4C420.9,44.3,421,44.3,421,44.2z M421,45.7c0-0.1-0.1-0.2-0.3-0.2h-0.5c-0.2,0-0.3,0.1-0.3,0.2
		c0,0.1,0.1,0.2,0.3,0.2h0.4C420.9,45.8,421,45.8,421,45.7z"/>
	<path class="st2" d="M430.3,39.4c0.1-0.3,0.3-0.4,0.5-0.3c0.2,0,0.4,0.1,0.6,0.2c0.3,0.1,0.4,0.2,0.4,0.3c0,0.1,0.1,0.1,0.3,0.1
		h2.2c0.3,0,0.4,0.1,0.4,0.4v0.4c0,0.2,0.1,0.2,0.3-0.1c0.2-0.3,0.4-0.6,0.5-0.9c0.1-0.3,0.4-0.4,0.6-0.3l0.6,0.2
		c0.3,0.1,0.4,0.2,0.4,0.2c0,0.1,0,0.1,0.2,0.1h2.8c0.3,0,0.4,0.1,0.4,0.4v0.5c0,0.3-0.1,0.4-0.4,0.4h-1.1c-0.2,0-0.2,0.1,0,0.3
		c0.2,0.2,0.1,0.4-0.2,0.5l-0.5,0.3c-0.3,0.2-0.5,0.1-0.7-0.1c-0.2-0.2-0.3-0.4-0.5-0.7c-0.2-0.2-0.4-0.3-0.5-0.3
		c-0.2,0-0.3,0.1-0.5,0.4c-0.1,0.2-0.3,0.4-0.4,0.5c-0.2,0.2-0.3,0.3-0.3,0.3c0,0.1,0.1,0.1,0.3,0.1h4.3c0.3,0,0.4,0.1,0.4,0.4v1.6
		c0,0.3-0.1,0.4-0.4,0.4h-0.7c-0.3,0-0.4-0.1-0.4-0.4V44c0-0.2-0.1-0.3-0.3-0.3h-7.9c-0.2,0-0.3,0.1-0.3,0.3v0.4
		c0,0.3-0.1,0.4-0.4,0.4h-0.7c-0.3,0-0.4-0.1-0.4-0.4v-1.6c0-0.3,0.1-0.4,0.4-0.4h0.4c0.2,0,0.2-0.1-0.1-0.3
		c-0.1-0.1-0.2-0.2-0.4-0.3c-0.3-0.2-0.3-0.4-0.1-0.7C429.6,40.7,430,40.1,430.3,39.4z M431.8,41.3c-0.1-0.2-0.3-0.3-0.4-0.3
		c-0.1,0-0.2,0.1-0.4,0.4c-0.1,0.2-0.3,0.4-0.4,0.6c-0.2,0.2-0.1,0.4,0.1,0.4h2.9c0.2,0,0.3-0.1,0.3-0.2c0-0.2,0.1-0.3,0.4-0.3h0.6
		c0.2,0,0.2-0.1-0.1-0.3l-0.1-0.1c-0.2-0.2-0.3-0.3-0.3-0.4c0.1-0.1,0-0.1-0.2-0.1h-0.7c-0.2,0-0.2,0.1-0.1,0.3
		c0.1,0.2,0,0.3-0.2,0.5l-0.5,0.3c-0.3,0.2-0.5,0.1-0.6-0.1C432,41.7,431.9,41.5,431.8,41.3z M430.7,44.5c0-0.3,0.1-0.4,0.4-0.4h7.1
		c0.3,0,0.4,0.1,0.4,0.4v2.2c0,0.3-0.1,0.4-0.4,0.4h-5.8c-0.2,0-0.3,0.1-0.3,0.3c0,0.2,0.1,0.3,0.3,0.3h6.4c0.3,0,0.4,0.1,0.4,0.4
		v2.5c0,0.3-0.1,0.4-0.4,0.4h-0.7c-0.3,0-0.4,0-0.4-0.1c0-0.1-0.1-0.1-0.3-0.1h-5c-0.2,0-0.3,0.1-0.3,0.2c0,0.1-0.1,0.2-0.4,0.2
		h-0.7c-0.3,0-0.4-0.1-0.4-0.4V44.5z M437.2,45.6c0-0.2-0.1-0.3-0.3-0.3h-4.4c-0.2,0-0.3,0.1-0.3,0.3c0,0.2,0.1,0.3,0.3,0.3h4.4
		C437.1,45.9,437.2,45.8,437.2,45.6z M437.9,49.1c0-0.2-0.1-0.3-0.3-0.3h-5.1c-0.2,0-0.3,0.1-0.3,0.3c0,0.2,0.1,0.3,0.3,0.3h5
		C437.7,49.4,437.9,49.3,437.9,49.1z"/>
	<path class="st2" d="M442,40.1c0-0.3,0.1-0.4,0.4-0.4h3.2c0.3,0,0.4,0.1,0.4,0.4v0.6c0,0.3-0.1,0.4-0.4,0.4H445
		c-0.2,0-0.3,0.1-0.3,0.3v1.6c0,0.2,0.1,0.3,0.3,0.3h0.4c0.3,0,0.4,0.1,0.4,0.4v0.6c0,0.3-0.1,0.4-0.4,0.4H445
		c-0.2,0-0.3,0.1-0.3,0.3v2.2c0,0.2,0.1,0.3,0.4,0.2l0.5-0.1c0.3-0.1,0.4,0.1,0.4,0.4l0.1,0.5c0,0.3-0.1,0.4-0.4,0.5
		c-1,0.3-2,0.6-3,0.8c-0.3,0.1-0.5,0-0.5-0.3c-0.1-0.2-0.1-0.4-0.1-0.7c-0.1-0.3,0.1-0.5,0.3-0.5l0.6-0.1c0.2-0.1,0.3-0.2,0.3-0.4
		v-2.5c0-0.2-0.1-0.3-0.3-0.3h-0.4c-0.3,0-0.4-0.1-0.4-0.4v-0.6c0-0.3,0.1-0.4,0.4-0.4h0.4c0.2,0,0.3-0.1,0.3-0.3v-1.6
		c0-0.2-0.1-0.3-0.3-0.3h-0.5c-0.3,0-0.4-0.1-0.4-0.4V40.1z M446.3,39.9c0-0.3,0.1-0.4,0.4-0.4h6.2c0.3,0,0.4,0.1,0.4,0.4v5.9
		c0,0.3-0.1,0.4-0.4,0.4h-2c-0.2,0-0.3,0.1-0.3,0.3c0,0.2,0.1,0.4,0.3,0.4h2c0.3,0,0.4,0.1,0.4,0.4v0.6c0,0.3-0.1,0.4-0.4,0.4h-2
		c-0.2,0-0.3,0.1-0.3,0.3v0.4c0,0.2,0.1,0.3,0.3,0.3h2.4c0.3,0,0.4,0.1,0.4,0.4v0.6c0,0.3-0.1,0.4-0.4,0.4h-7.1
		c-0.3,0-0.4-0.1-0.4-0.4v-0.6c0-0.3,0.1-0.4,0.4-0.4h2.6c0.2,0,0.3-0.1,0.3-0.3v-0.4c0-0.2-0.1-0.3-0.3-0.3h-2.1
		c-0.3,0-0.4-0.1-0.4-0.4v-0.6c0-0.3,0.1-0.4,0.4-0.4h2.1c0.2,0,0.3-0.1,0.3-0.3c0-0.2-0.1-0.4-0.3-0.4h-2c-0.3,0-0.4-0.1-0.4-0.4
		V39.9z M449,41.2c0-0.2-0.1-0.3-0.3-0.3h-0.7c-0.2,0-0.3,0.1-0.3,0.3v0.5c0,0.2,0.1,0.3,0.3,0.3h0.6c0.2,0,0.3-0.1,0.3-0.3V41.2z
		 M449,43.7c0-0.2-0.1-0.3-0.3-0.3h-0.6c-0.2,0-0.3,0.1-0.3,0.3v0.7c0,0.2,0.1,0.3,0.3,0.3h0.6c0.2,0,0.3-0.1,0.3-0.3V43.7z
		 M451.8,41.2c0-0.2-0.1-0.3-0.3-0.3h-0.6c-0.2,0-0.3,0.1-0.3,0.3v0.5c0,0.2,0.1,0.3,0.3,0.3h0.6c0.2,0,0.3-0.1,0.3-0.3V41.2z
		 M451.8,43.7c0-0.2-0.1-0.3-0.3-0.3h-0.6c-0.2,0-0.3,0.1-0.3,0.3v0.7c0,0.2,0.1,0.3,0.3,0.3h0.6c0.2,0,0.3-0.1,0.3-0.3V43.7z"/>
</g>
</svg>
