<svg xmlns="http://www.w3.org/2000/svg" viewBox="0 0 6401.03 1879.25"><defs><style>.cls-1{fill:#f9f9f9;}.cls-10,.cls-11,.cls-12,.cls-13,.cls-14,.cls-15,.cls-16,.cls-17,.cls-18,.cls-19,.cls-2,.cls-22,.cls-24,.cls-25,.cls-31,.cls-32,.cls-33,.cls-36,.cls-37,.cls-38,.cls-41,.cls-42,.cls-44,.cls-46,.cls-49,.cls-5,.cls-50,.cls-51,.cls-52,.cls-53,.cls-54,.cls-58,.cls-60,.cls-61,.cls-62,.cls-63,.cls-64,.cls-65,.cls-71,.cls-72,.cls-74{fill:none;}.cls-10,.cls-11,.cls-12,.cls-13,.cls-14,.cls-15,.cls-16,.cls-17,.cls-18,.cls-19,.cls-2,.cls-20,.cls-21,.cls-22,.cls-23,.cls-24,.cls-25,.cls-26,.cls-27,.cls-28,.cls-3,.cls-31,.cls-32,.cls-33,.cls-36,.cls-37,.cls-38,.cls-39,.cls-4,.cls-40,.cls-41,.cls-42,.cls-44,.cls-46,.cls-49,.cls-5,.cls-50,.cls-51,.cls-52,.cls-53,.cls-54,.cls-55,.cls-56,.cls-57,.cls-58,.cls-59,.cls-6,.cls-60,.cls-61,.cls-62,.cls-63,.cls-64,.cls-65,.cls-66,.cls-67,.cls-68,.cls-69,.cls-7,.cls-70,.cls-71,.cls-72,.cls-73,.cls-74,.cls-75,.cls-76,.cls-8{stroke:#3d4451;}.cls-10,.cls-11,.cls-12,.cls-13,.cls-14,.cls-15,.cls-16,.cls-17,.cls-18,.cls-19,.cls-2,.cls-20,.cls-21,.cls-22,.cls-23,.cls-24,.cls-25,.cls-26,.cls-27,.cls-28,.cls-3,.cls-31,.cls-32,.cls-33,.cls-36,.cls-37,.cls-38,.cls-39,.cls-4,.cls-40,.cls-41,.cls-42,.cls-43,.cls-44,.cls-45,.cls-46,.cls-47,.cls-48,.cls-49,.cls-5,.cls-50,.cls-51,.cls-52,.cls-53,.cls-54,.cls-55,.cls-56,.cls-57,.cls-58,.cls-59,.cls-6,.cls-60,.cls-61,.cls-62,.cls-63,.cls-64,.cls-65,.cls-66,.cls-67,.cls-68,.cls-69,.cls-7,.cls-70,.cls-75,.cls-76,.cls-8{stroke-miterlimit:10;}.cls-2,.cls-3{stroke-width:10px;}.cls-21,.cls-27,.cls-28,.cls-3,.cls-35,.cls-40,.cls-45,.cls-48,.cls-56,.cls-66,.cls-75{fill:#ff5254;}.cls-20,.cls-23,.cls-26,.cls-34,.cls-4,.cls-43,.cls-47,.cls-55,.cls-57,.cls-59,.cls-6,.cls-68,.cls-69,.cls-70,.cls-73,.cls-76,.cls-77,.cls-82{fill:#427fe0;}.cls-4{stroke-width:9px;}.cls-5{stroke-width:9.74px;}.cls-6,.cls-7{stroke-width:6.75px;}.cls-30,.cls-67,.cls-7,.cls-8{fill:#fdc345;}.cls-8{stroke-width:6.49px;}.cls-9{fill:#3d4451;}.cls-10,.cls-11,.cls-12,.cls-13,.cls-14,.cls-15{stroke-width:15.65px;}.cls-10{stroke-dasharray:81.48 48.89;}.cls-12{stroke-dasharray:74.15 41.71;}.cls-13{stroke-dasharray:75.9 42.69;}.cls-14{stroke-dasharray:71.5 43.7;}.cls-15{stroke-dasharray:79.04 48.3;}.cls-16{stroke-width:13.72px;stroke-dasharray:71.43 42.86;}.cls-17{stroke-width:11.34px;}.cls-18{stroke-width:12.59px;}.cls-19{stroke-width:8.82px;}.cls-20,.cls-21{stroke-width:6.08px;}.cls-22{stroke-width:10.9px;}.cls-23{stroke-width:7.39px;}.cls-24{stroke-width:6.63px;}.cls-25{stroke-width:10.36px;}.cls-26,.cls-27{stroke-width:7.89px;}.cls-28{stroke-width:7.58px;}.cls-29{fill:#fff;}.cls-31{stroke-width:7.2px;}.cls-32,.cls-33,.cls-36,.cls-41,.cls-42,.cls-43,.cls-44,.cls-45,.cls-46,.cls-47,.cls-48,.cls-49,.cls-50,.cls-51,.cls-52,.cls-53,.cls-54,.cls-71,.cls-72,.cls-73,.cls-74{stroke-linecap:round;}.cls-32{stroke-width:12.83px;}.cls-33{stroke-width:10.54px;}.cls-36,.cls-38,.cls-39{stroke-width:9.49px;}.cls-37{stroke-width:10.55px;}.cls-39{fill:#f5fafc;}.cls-40{stroke-width:6px;}.cls-41{stroke-width:8px;}.cls-42{stroke-width:8.94px;}.cls-43,.cls-47{stroke:#427fe0;}.cls-43{stroke-width:10.37px;}.cls-44,.cls-47,.cls-48{stroke-width:8.64px;}.cls-45{stroke:#f04f4c;stroke-width:12.96px;}.cls-46{stroke-width:6.48px;}.cls-48{stroke:#ff5254;}.cls-49{stroke-width:9.72px;}.cls-50{stroke-width:7.98px;}.cls-51{stroke-width:6.84px;}.cls-52{stroke-width:5.7px;}.cls-53{stroke-width:4.56px;}.cls-54{stroke-width:7px;}.cls-55{stroke-width:4.55px;}.cls-56,.cls-57{stroke-width:5px;}.cls-58{stroke-width:13.18px;}.cls-59{stroke-width:12.29px;}.cls-60{stroke-width:9.55px;}.cls-61{stroke-width:11.71px;}.cls-62{stroke-width:9.26px;}.cls-63{stroke-width:8.43px;}.cls-64{stroke-width:10.15px;}.cls-65{stroke-width:8.98px;}.cls-66{stroke-width:10.16px;}.cls-67{stroke-width:9.15px;}.cls-68{stroke-width:9.13px;}.cls-69{stroke-width:8.23px;}.cls-70,.cls-71{stroke-width:9.41px;}.cls-71,.cls-72,.cls-73,.cls-74{stroke-linejoin:round;}.cls-72,.cls-73{stroke-width:10.95px;}.cls-74{stroke-width:6.35px;}.cls-75{stroke-width:6.68px;}.cls-76{stroke-width:14px;}.cls-77{font-size:125px;font-family:Lato-Black, Lato;font-weight:800;}.cls-78{letter-spacing:-0.03em;}.cls-79{letter-spacing:-0.12em;}.cls-80{letter-spacing:-0.02em;}.cls-81{letter-spacing:-0.01em;}.cls-82{font-size:500px;font-family:Lato-Bold, Lato;font-weight:700;}</style></defs><title>SENTR-graphic</title><g id="icon"><path class="cls-1" d="M2394.94,1225c0,22.13-13.3,41.4-30.43,41.4H2183.36c-17.13,0-31.62-19.27-31.62-41.4V932.66c0-22.12,14.49-39,31.62-39h181.15c17.13,0,30.43,16.91,30.43,39Z" transform="translate(-60 23.25)"/><path class="cls-2" d="M2363.31,1193.91c0,21.94-13.36,41-30.56,41h-181.9c-17.2,0-31.75-19.11-31.75-41V904c0-21.94,14.55-38.71,31.75-38.71h181.9c17.2,0,30.56,16.77,30.56,38.71Z" transform="translate(-60 23.25)"/><path class="cls-3" d="M2261.59,1179.9c0,11.16-10,20.2-22.4,20.2s-22.4-9-22.4-20.2,10-20.2,22.4-20.2S2261.59,1168.74,2261.59,1179.9Z" transform="translate(-60 23.25)"/><line class="cls-2" x1="2107.71" y1="888.51" x2="2107.71" y2="1258.21"/><line class="cls-2" x1="2247.91" y1="888.51" x2="2247.91" y2="1258.21"/><rect class="cls-4" x="2109.97" y="1118.09" width="137.93" height="29.79"/><rect class="cls-4" x="2109.97" y="1056.39" width="137.93" height="29.79"/><rect class="cls-4" x="2109.97" y="990.44" width="137.93" height="29.79"/><rect class="cls-4" x="2109.97" y="929.8" width="137.93" height="29.79"/><line class="cls-5" x1="2372.27" y1="966.74" x2="2308.96" y2="966.74"/><line class="cls-5" x1="2366.62" y1="1211.11" x2="2303.31" y2="1211.11"/><line class="cls-5" x1="2372.27" y1="1092.19" x2="2308.96" y2="1092.19"/><path class="cls-6" d="M2552.62,1181.3V1209c0,10.78-27.59,19.53-61.63,19.53s-61.64-8.75-61.64-19.53v-27.7" transform="translate(-60 23.25)"/><ellipse class="cls-6" cx="2430.99" cy="1203.21" rx="61.64" ry="19.53"/><path class="cls-7" d="M2550.62,1053.52v27.71c0,10.78-27.59,19.52-61.63,19.52s-61.64-8.74-61.64-19.52v-27.71" transform="translate(-60 23.25)"/><ellipse class="cls-8" cx="2428.99" cy="1076.92" rx="61.64" ry="18.05"/><path class="cls-6" d="M2550.62,929.33V957c0,10.78-27.59,19.52-61.63,19.52s-61.64-8.74-61.64-19.52v-27.7" transform="translate(-60 23.25)"/><ellipse class="cls-6" cx="2428.99" cy="951.24" rx="61.64" ry="19.53"/><path class="cls-9" d="M2483.77,926a8.81,8.81,0,0,1-6-2.65l-29.42-29.21a6.59,6.59,0,0,1,.64-10.06,8.82,8.82,0,0,1,11.33.54l23,22.73,47.87-53.83a8.77,8.77,0,0,1,11.27-1.21,6.52,6.52,0,0,1,1.37,9.92L2490.08,923a8.43,8.43,0,0,1-6.06,3Z" transform="translate(-60 23.25)"/><path class="cls-9" d="M2487.27,1056.5a8.81,8.81,0,0,1-6-2.65l-29.42-29.21a6.59,6.59,0,0,1,.64-10.06,8.82,8.82,0,0,1,11.33.54l23,22.73L2534.74,984a8.77,8.77,0,0,1,11.27-1.21,6.52,6.52,0,0,1,1.37,9.92l-53.8,60.77a8.43,8.43,0,0,1-6.06,3Z" transform="translate(-60 23.25)"/><path class="cls-9" d="M2488.77,1181a8.81,8.81,0,0,1-6-2.65l-29.42-29.21a6.59,6.59,0,0,1,.64-10.06,8.82,8.82,0,0,1,11.33.54l23,22.73,47.87-53.83a8.77,8.77,0,0,1,11.27-1.21,6.52,6.52,0,0,1,1.37,9.92l-53.8,60.77a8.43,8.43,0,0,1-6.06,3Z" transform="translate(-60 23.25)"/><line class="cls-10" x1="2221.98" y1="812.54" x2="2221.98" y2="559.69"/><line class="cls-11" x1="395.98" y1="812.54" x2="395.98" y2="772.54"/><line class="cls-12" x1="395.98" y1="730.83" x2="395.98" y2="404.1"/><polyline class="cls-11" points="395.98 383.25 395.98 343.25 435.98 343.25"/><line class="cls-13" x1="478.68" y1="343.25" x2="1524.65" y2="343.25"/><line class="cls-11" x1="2135" y1="343.25" x2="2175" y2="343.25"/><line class="cls-11" x1="6089" y1="812.54" x2="6089" y2="772.54"/><line class="cls-14" x1="6089" y1="728.84" x2="6089" y2="405.1"/><polyline class="cls-11" points="6089 383.25 6089 343.25 6049 343.25"/><line class="cls-15" x1="6000.7" y1="343.25" x2="5006.15" y2="343.25"/><line class="cls-11" x1="4982" y1="343.25" x2="4942" y2="343.25"/><line class="cls-15" x1="5360.7" y1="343.25" x2="4366.15" y2="343.25"/><line class="cls-16" x1="3277.22" y1="783.97" x2="3277.22" y2="589.69"/><line class="cls-16" x1="4287.46" y1="783.97" x2="4287.46" y2="589.69"/><line class="cls-16" x1="5175.56" y1="783.97" x2="5175.56" y2="371.25"/><line class="cls-10" x1="1320.98" y1="812.54" x2="1320.98" y2="343.25"/><line class="cls-17" x1="221.22" y1="1173.26" x2="221.22" y2="1010.98"/><line class="cls-17" x1="371.21" y1="1278.61" x2="241.61" y2="1204.21"/><line class="cls-17" x1="550.06" y1="1204.3" x2="414.42" y2="1280.5"/><line class="cls-17" x1="571.61" y1="1017.27" x2="571.61" y2="1173.65"/><line class="cls-17" x1="418.42" y1="899.85" x2="556.29" y2="979.27"/><line class="cls-17" x1="239.73" y1="975.44" x2="376.81" y2="898.22"/><circle class="cls-1" cx="476.77" cy="1078.02" r="103.66" transform="translate(-72.47 28.85) rotate(-0.66)"/><circle class="cls-18" cx="456.95" cy="1063.24" r="106.51" transform="translate(-72.18 28.57) rotate(-0.66)"/><line class="cls-19" x1="497.97" y1="1034.01" x2="554.35" y2="998.84"/><line class="cls-19" x1="245.81" y1="1184.2" x2="302.57" y2="1149.52"/><line class="cls-19" x1="489.57" y1="1141.2" x2="554.35" y2="1185.42"/><line class="cls-19" x1="245.81" y1="996.4" x2="298.31" y2="1027.71"/><path class="cls-9" d="M386,1007.48h-.11l-7.29,3.47-1.47-6.7,10.11-4.7h7.4v38.2H386Z" transform="translate(-60 23.25)"/><path class="cls-9" d="M435.43,1018.47c0,11.81-4.76,19.92-14.52,19.92s-14.22-8.87-14.28-19.68c0-11.05,4.71-19.8,14.58-19.8C431.43,998.91,435.43,1008,435.43,1018.47Zm-19.8.24c-.06,8.75,2.05,12.93,5.52,12.93s5.35-4.35,5.35-13.05c0-8.46-1.83-12.93-5.41-12.93C417.8,1005.66,415.57,1009.83,415.63,1018.71Z" transform="translate(-60 23.25)"/><path class="cls-9" d="M451.23,1007.48h-.12l-7.28,3.47-1.47-6.7,10.11-4.7h7.4v38.2h-8.64Z" transform="translate(-60 23.25)"/><path class="cls-9" d="M483.84,1007.48h-.12l-7.28,3.47-1.47-6.7,10.1-4.7h7.41v38.2h-8.64Z" transform="translate(-60 23.25)"/><path class="cls-9" d="M533.26,1018.47c0,11.81-4.76,19.92-14.52,19.92s-14.22-8.87-14.28-19.68c0-11.05,4.7-19.8,14.58-19.8C529.26,998.91,533.26,1008,533.26,1018.47Zm-19.81.24c-.06,8.75,2.06,12.93,5.53,12.93s5.34-4.35,5.34-13.05c0-8.46-1.82-12.93-5.4-12.93C515.63,1005.66,513.39,1009.83,513.45,1018.71Z" transform="translate(-60 23.25)"/><path class="cls-9" d="M390.16,1067.1c0,11.81-4.76,19.92-14.52,19.92s-14.22-8.87-14.28-19.69c0-11,4.7-19.8,14.58-19.8C386.16,1047.53,390.16,1056.64,390.16,1067.1Zm-19.81.23c-.05,8.76,2.06,12.93,5.53,12.93s5.35-4.35,5.35-13c0-8.47-1.83-12.93-5.41-12.93C372.53,1054.29,370.3,1058.46,370.35,1067.33Z" transform="translate(-60 23.25)"/><path class="cls-9" d="M406,1056.11h-.12l-7.28,3.47-1.47-6.7,10.1-4.7h7.41v38.19H406Z" transform="translate(-60 23.25)"/><path class="cls-9" d="M455.38,1067.1c0,11.81-4.76,19.92-14.52,19.92s-14.22-8.87-14.28-19.69c0-11,4.7-19.8,14.58-19.8C451.38,1047.53,455.38,1056.64,455.38,1067.1Zm-19.81.23c-.06,8.76,2.06,12.93,5.53,12.93s5.34-4.35,5.34-13c0-8.47-1.82-12.93-5.4-12.93C437.75,1054.29,435.51,1058.46,435.57,1067.33Z" transform="translate(-60 23.25)"/><path class="cls-9" d="M471.18,1056.11h-.12l-7.28,3.47-1.47-6.7,10.1-4.7h7.41v38.19h-8.64Z" transform="translate(-60 23.25)"/><path class="cls-9" d="M503.79,1056.11h-.12l-7.29,3.47-1.46-6.7,10.1-4.7h7.41v38.19h-8.64Z" transform="translate(-60 23.25)"/><path class="cls-9" d="M553.2,1067.1c0,11.81-4.76,19.92-14.51,19.92s-14.22-8.87-14.28-19.69c0-11,4.7-19.8,14.57-19.8C549.21,1047.53,553.2,1056.64,553.2,1067.1Zm-19.8.23c-.06,8.76,2.06,12.93,5.52,12.93s5.35-4.35,5.35-13c0-8.47-1.82-12.93-5.4-12.93C535.58,1054.29,533.34,1058.46,533.4,1067.33Z" transform="translate(-60 23.25)"/><path class="cls-9" d="M418.26,1115.73c0,11.81-4.76,19.92-14.52,19.92s-14.22-8.88-14.28-19.69c0-11,4.7-19.8,14.58-19.8C414.26,1096.16,418.26,1105.27,418.26,1115.73Zm-19.81.23c-.06,8.76,2.06,12.93,5.53,12.93s5.34-4.35,5.34-13.05c0-8.46-1.82-12.92-5.4-12.92C400.63,1102.92,398.39,1107.09,398.45,1116Z" transform="translate(-60 23.25)"/><path class="cls-9" d="M434.06,1104.74h-.12l-7.28,3.46-1.47-6.7,10.1-4.7h7.41V1135h-8.64Z" transform="translate(-60 23.25)"/><path class="cls-9" d="M483.47,1115.73c0,11.81-4.76,19.92-14.51,19.92s-14.22-8.88-14.28-19.69c0-11,4.7-19.8,14.57-19.8C479.48,1096.16,483.47,1105.27,483.47,1115.73Zm-19.8.23c-.06,8.76,2.06,12.93,5.53,12.93s5.34-4.35,5.34-13.05c0-8.46-1.82-12.92-5.4-12.92C465.85,1102.92,463.61,1107.09,463.67,1116Z" transform="translate(-60 23.25)"/><path class="cls-9" d="M516.08,1115.73c0,11.81-4.76,19.92-14.51,19.92s-14.22-8.88-14.28-19.69c0-11,4.7-19.8,14.57-19.8C512.09,1096.16,516.08,1105.27,516.08,1115.73Zm-19.8.23c-.06,8.76,2.06,12.93,5.52,12.93s5.35-4.35,5.35-13.05c0-8.46-1.82-12.92-5.4-12.92C498.46,1102.92,496.22,1107.09,496.28,1116Z" transform="translate(-60 23.25)"/><path class="cls-20" d="M591.75,1160.66v20.41c0,7.94,21.09,14.37,47.1,14.37S686,1189,686,1181.07v-20.41" transform="translate(-60 23.25)"/><ellipse class="cls-20" cx="578.85" cy="1182.93" rx="47.11" ry="14.38"/><path class="cls-21" d="M591.75,960.08v20.4c0,7.94,21.09,14.38,47.1,14.38S686,988.42,686,980.48v-20.4" transform="translate(-60 23.25)"/><ellipse class="cls-21" cx="578.85" cy="983.44" rx="47.11" ry="13.29"/><path class="cls-20" d="M226,1158.64V1179c0,7.94,21.09,14.38,47.11,14.38s47.1-6.44,47.1-14.38v-20.4" transform="translate(-60 23.25)"/><ellipse class="cls-20" cx="213.15" cy="1180.9" rx="47.11" ry="14.38"/><path class="cls-21" d="M226,958.05v20.41c0,7.94,21.09,14.38,47.11,14.38s47.1-6.44,47.1-14.38V958.05" transform="translate(-60 23.25)"/><ellipse class="cls-21" cx="213.15" cy="981.41" rx="47.11" ry="13.29"/><path class="cls-20" d="M411.43,856.75v20.4c0,7.94,21.09,14.38,47.1,14.38s47.11-6.44,47.11-14.38v-20.4" transform="translate(-60 23.25)"/><ellipse class="cls-20" cx="398.53" cy="879.02" rx="47.11" ry="14.38"/><path class="cls-21" d="M411.43,1247.78v20.41c0,7.94,21.09,14.38,47.1,14.38s47.11-6.44,47.11-14.38v-20.41" transform="translate(-60 23.25)"/><ellipse class="cls-21" cx="398.53" cy="1270.05" rx="47.11" ry="14.38"/><path class="cls-1" d="M1546.06,1252.4a.77.77,0,0,1-.76.79H1159.12a.77.77,0,0,1-.76-.79V988.84a.77.77,0,0,1,.76-.79H1545.3a.77.77,0,0,1,.76.79Z" transform="translate(-60 23.25)"/><rect class="cls-22" x="1076.77" y="977.3" width="401.88" height="264.12" rx="1.57"/><path class="cls-23" d="M1212.59,1056.87c23.68,17.79,50.28-8.84,32.49-32.51a1.42,1.42,0,0,0-.3-.3c-23.69-17.81-50.33,8.84-32.5,32.51A1.76,1.76,0,0,0,1212.59,1056.87Z" transform="translate(-60 23.25)"/><path class="cls-23" d="M1269.2,1110.51c-.1-22.47-17.65-45.28-39.31-45.28s-39.2,22.81-39.3,45.28Z" transform="translate(-60 23.25)"/><rect class="cls-24" x="1107.67" y="1021.97" width="128.08" height="127.62"/><path class="cls-9" d="M1367.64,1167.07a5.62,5.62,0,0,1-5.84,5.82H1323c-3.38,0-5.46-2.42-5.46-5.82v-.28c0-3.41,2.08-5.88,5.46-5.88h38.76a5.66,5.66,0,0,1,5.84,5.88Z" transform="translate(-60 23.25)"/><path class="cls-9" d="M1366.75,1116a5.92,5.92,0,0,1-5.78,6.23h-38.76c-3.39,0-5.53-2.83-5.53-6.23v-.28c0-3.41,2.14-6.4,5.53-6.4H1361c3.38,0,5.78,3,5.78,6.4Z" transform="translate(-60 23.25)"/><path class="cls-9" d="M1365.86,1062.71a5.37,5.37,0,0,1-5.73,5.62h-38.76a5.25,5.25,0,0,1-5.58-5.62v-.28c0-3.41,2.19-6.08,5.58-6.08h38.76a5.74,5.74,0,0,1,5.73,6.08Z" transform="translate(-60 23.25)"/><path class="cls-9" d="M1365,1006.3a5.57,5.57,0,0,1-5.67,5.93h-38.76c-3.38,0-6.53-2.53-6.53-5.93V1006c0-3.41,3.15-5.78,6.53-5.78h38.76A5.45,5.45,0,0,1,1365,1006Z" transform="translate(-60 23.25)"/><rect class="cls-9" x="1336.67" y="1063.54" width="92.75" height="12.65"/><rect class="cls-9" x="1336.67" y="1110.97" width="92.75" height="12.65"/><rect class="cls-9" x="1336.67" y="1158.4" width="92.75" height="12.65"/><line class="cls-25" x1="1281.86" y1="973.16" x2="1281.86" y2="1241.42"/><path class="cls-26" d="M1600,1191.63V1224c0,12.6-32.24,22.81-72,22.81s-72-10.21-72-22.81v-32.37" transform="translate(-60 23.25)"/><ellipse class="cls-26" cx="1467.99" cy="1213.32" rx="72.01" ry="22.81"/><path class="cls-27" d="M1600,1138.59V1171c0,12.6-32.24,22.81-72,22.81s-72-10.21-72-22.81v-32.37" transform="translate(-60 23.25)"/><ellipse class="cls-28" cx="1467.99" cy="1162.01" rx="72.01" ry="21.08"/><path class="cls-26" d="M1600,1085.55v32.37c0,12.6-32.24,22.82-72,22.82s-72-10.22-72-22.82v-32.37" transform="translate(-60 23.25)"/><ellipse class="cls-26" cx="1467.99" cy="1107.24" rx="72.01" ry="22.81"/><path class="cls-29" d="M1532.51,900.67c-68.88-.5-104.62,78.27-64.63,122,26.9,29.4,18.24,55.6,18.24,55.6h82.68c-9.69-30.85,6.29-40,11.19-48C1632.56,972.71,1596.81,901.14,1532.51,900.67Z" transform="translate(-60 23.25)"/><path class="cls-30" d="M1560.63,1031.19c-4.29,5.33-20.5,13.71-14.25,38.36h-44.1s3.41-20.93-13.93-44.43c-17.2-23.29-15.86-60.77,4.44-81.8,9.78-10.13,23.3-16.06,37.23-15.66a53.33,53.33,0,0,1,25.09,7.05c12.16,7,21,20,23.67,34a76.55,76.55,0,0,1-6.19,46.15c-2.58,5.51-8.1,11.74-11.85,16.5" transform="translate(-60 23.25)"/><path class="cls-31" d="M1532.51,900.67c-76.1,0-104.62,78.27-64.63,122,26.9,29.4,18.24,55.6,18.24,55.6h82.68c-9.69-30.85,6.29-40,11.19-48C1632.56,972.71,1584.56,900.67,1532.51,900.67Z" transform="translate(-60 23.25)"/><path class="cls-9" d="M1511.23,1076.52c0-19.14.18-38.29-.34-57.42-.2-7.25.91-16.7-2.18-23.49-2.43-5.33-8.49-8.66-14.25-6.46-11.76,4.49-2.7,20.62,4.8,24.26,11,5.37,25.42,2.47,32.86-7.29,3.24-4.26,5.53-9.79,5.23-15.22-.33-5.82-5-9.61-10.88-8.27-12.35,2.84-15.42,18-7.11,26.51s22.42,10,33.06,5.93c8.8-3.32,20.29-14.07,9.3-22.58-5.62-4.35-13.51-3.57-18.73,1-5.87,5.13-6.79,12.51-6.87,19.9-.22,21.66,1.11,43.32,2,64.95.17,4.11,6.59,4.13,6.41,0-1-22.59-3.08-45.55-2-68.16.23-4.68,1.21-9.29,5.13-12.28,3.66-2.79,14.08-2.2,11.62,4.51-2.39,6.5-14,8.62-19.85,8.36-7-.31-18-3.93-18.69-12.29-.33-3.71,5-12.59,9-8.66,2.85,2.78-.37,8.94-2.28,11.69-5.1,7.34-14.34,9.48-22.74,7.14-4.06-1.13-7.4-3.67-8.79-7.77-.48-1.45-1-3.48-.17-4.86,2.59-4.08,6.91,1.4,7.57,4,1.34,5.35.81,11.61,1,17.09q.28,9.9.36,19.8c.12,13.2,0,26.4,0,39.6,0,4.13,6.41,4.13,6.42,0Z" transform="translate(-60 23.25)"/><line class="cls-32" x1="1466.03" y1="902.31" x2="1464.98" y2="845.6"/><line class="cls-32" x1="1534.01" y1="926.87" x2="1571.06" y2="898.66"/><line class="cls-32" x1="1400.13" y1="926.76" x2="1363.09" y2="898.59"/><line class="cls-33" x1="1375.32" y1="1003.2" x2="1328.24" y2="1002.42"/><line class="cls-32" x1="1562.84" y1="996.24" x2="1608.58" y2="996.09"/><path class="cls-9" d="M1173.22,1162.81h-.11l-6.42,3-1.29-5.9,8.9-4.14h6.53v33.66h-7.61Z" transform="translate(-60 23.25)"/><path class="cls-9" d="M1216.77,1172.49c0,10.41-4.19,17.56-12.79,17.56s-12.54-7.82-12.59-17.35c0-9.74,4.15-17.45,12.85-17.45C1213.25,1155.25,1216.77,1163.27,1216.77,1172.49Zm-17.45.21c0,7.72,1.81,11.4,4.87,11.4s4.71-3.84,4.71-11.5c0-7.46-1.61-11.4-4.77-11.4C1201.23,1161.2,1199.27,1164.88,1199.32,1172.7Z" transform="translate(-60 23.25)"/><path class="cls-9" d="M1230.7,1162.81h-.1l-6.42,3-1.3-5.9,8.91-4.14h6.53v33.66h-7.62Z" transform="translate(-60 23.25)"/><path class="cls-9" d="M1259.44,1162.81h-.1l-6.42,3-1.3-5.9,8.91-4.14h6.53v33.66h-7.62Z" transform="translate(-60 23.25)"/><path class="cls-9" d="M1303,1172.49c0,10.41-4.19,17.56-12.79,17.56s-12.54-7.82-12.59-17.35c0-9.74,4.14-17.45,12.85-17.45C1299.48,1155.25,1303,1163.27,1303,1172.49Zm-17.45.21c-.06,7.72,1.81,11.4,4.86,11.4s4.72-3.84,4.72-11.5c0-7.46-1.61-11.4-4.77-11.4C1287.46,1161.2,1285.49,1164.88,1285.55,1172.7Z" transform="translate(-60 23.25)"/><rect class="cls-34" x="4049.54" y="1209.96" width="85.18" height="81.97"/><rect class="cls-34" x="4342.68" y="1213.28" width="85.18" height="81.97"/><rect class="cls-35" x="4195.56" y="1209.96" width="85.18" height="81.97"/><path class="cls-1" d="M4266.62,859.28v254.43h196.9V859.28Z" transform="translate(-60 23.25)"/><path class="cls-36" d="M4230.12,890.26H4196.5a8.42,8.42,0,0,0-8.42,8.41v219.89a8.42,8.42,0,0,0,8.42,8.42h176.75a8.41,8.41,0,0,0,8.41-8.42v-29.19" transform="translate(-60 23.25)"/><path class="cls-37" d="M4243.39,830.53V1065a10,10,0,0,0,10,10h177a10,10,0,0,0,10-10V830.53a10,10,0,0,0-10-10h-177A10,10,0,0,0,4243.39,830.53Z" transform="translate(-60 23.25)"/><rect class="cls-9" x="4215.47" y="899.44" width="91.19" height="14.38" rx="6.92"/><path class="cls-9" d="M4403.24,925.89H4282.66a7.19,7.19,0,0,1-7.19-7.19h0a7.19,7.19,0,0,1,7.19-7.19h120.58a7.19,7.19,0,0,1,7.19,7.19h0A7.19,7.19,0,0,1,4403.24,925.89Z" transform="translate(-60 23.25)"/><rect class="cls-9" x="4315.9" y="866.81" width="38.01" height="46.22"/><rect class="cls-38" x="4320.06" y="1187.01" width="92.97" height="92.97"/><rect class="cls-38" x="4177.65" y="1187.01" width="92.97" height="92.97"/><rect class="cls-38" x="4035.23" y="1187.01" width="92.97" height="92.97"/><line class="cls-38" x1="4128.2" y1="1236.26" x2="4180.37" y2="1236.26"/><line class="cls-38" x1="4267.89" y1="1236.26" x2="4320.07" y2="1236.26"/><polyline class="cls-39" points="4073.78 1181.2 4073.78 1113.73 4123.56 1113.73"/><polyline class="cls-38" points="4417.8 1233.19 4450.98 1233.19 4450.98 1018.59 4382.4 1018.59"/><path class="cls-9" d="M4341.75,954.34a48.52,48.52,0,0,0-29,9.63l-7.54-12.55-3.83,20.8L4297.54,993l20-6.93,20-6.93-16.07-7a36.87,36.87,0,0,1,20.3-6.08c19.81,0,35.93,15.6,35.93,34.77s-16.12,34.77-35.93,34.77a36,36,0,0,1-31.92-18.8,33.51,33.51,0,0,1-4-14.74l-11.69.42a45.12,45.12,0,0,0,5.37,19.85,47.68,47.68,0,0,0,42.23,25c26.26,0,47.63-20.85,47.63-46.47S4368,954.34,4341.75,954.34Z" transform="translate(-60 23.25)"/><path class="cls-1" d="M3223.59,1160.77l-25.44,64.4a17.1,17.1,0,0,0,6.58,20.67c23.77,15.3,92,40.69,262.08,5.15a17.15,17.15,0,0,0,12.6-22.64l-24.12-66.51a17.15,17.15,0,0,0-12-10.8c-29.31-7.32-125.55-27.42-209.21-.24A17,17,0,0,0,3223.59,1160.77Z" transform="translate(-60 23.25)"/><circle class="cls-34" cx="3354.52" cy="957.48" r="85.32" transform="translate(245.48 2675.69) rotate(-45)"/><path class="cls-40" d="M3370.22,1176.85v16.05c0,6.25-16,11.32-35.72,11.32s-35.72-5.07-35.72-11.32v-16.05" transform="translate(-60 23.25)"/><ellipse class="cls-40" cx="3274.5" cy="1199.32" rx="35.72" ry="11.32"/><ellipse class="cls-41" cx="3278.11" cy="1177.07" rx="140.03" ry="28.93"/><ellipse class="cls-42" cx="3276.16" cy="1272.45" rx="172.87" ry="32.33"/><line class="cls-42" x1="3138.08" y1="1173.67" x2="3103.07" y2="1270.66"/><line class="cls-42" x1="3418.14" y1="1173.67" x2="3449.26" y2="1270.66"/><line class="cls-43" x1="3187.87" y1="1046.42" x2="3187.87" y2="1126.25"/><line class="cls-44" x1="3405.08" y1="913.25" x2="3405.08" y2="1016.2"/><line class="cls-45" x1="3141.98" y1="937.61" x2="3141.98" y2="1040.56"/><line class="cls-46" x1="3183.76" y1="795.01" x2="3183.76" y2="884.89"/><line class="cls-47" x1="3358.03" y1="776.21" x2="3358.03" y2="854.7"/><line class="cls-48" x1="3366.3" y1="1047.33" x2="3366.18" y2="1132.27"/><circle class="cls-49" cx="3336.51" cy="939.16" r="97.29" transform="translate(2302.65 4288.96) rotate(-89.4)"/><path class="cls-50" d="M3310.58,845.09" transform="translate(-60 23.25)"/><path class="cls-50" d="M3281.66,1021.32" transform="translate(-60 23.25)"/><path class="cls-50" d="M3281.66,859.21" transform="translate(-60 23.25)"/><path class="cls-50" d="M3336.48,845.09" transform="translate(-60 23.25)"/><path class="cls-51" d="M3301.47,908.67c-8,35.76-8.34,80.52,23.49,126" transform="translate(-60 23.25)"/><path class="cls-50" d="M3301.47,908.67" transform="translate(-60 23.25)"/><path class="cls-50" d="M3313.19,872.64" transform="translate(-60 23.25)"/><path class="cls-50" d="M3327.73,845.09s-7.15,10.35-14.54,27.55" transform="translate(-60 23.25)"/><path class="cls-52" d="M3317.19,845.09s-122.86,85.2-9,185" transform="translate(-60 23.25)"/><path class="cls-50" d="M3331,840.76s81.45,105.52,7.91,196.43" transform="translate(-60 23.25)"/><path class="cls-52" d="M3349.48,845.09s124.64,92.15,11.64,187" transform="translate(-60 23.25)"/><path class="cls-52" d="M3281.66,859.21s57,19.57,104.79-3.55" transform="translate(-60 23.25)"/><path class="cls-52" d="M3426.55,902.26s-64.07,38.26-183.21,3.81" transform="translate(-60 23.25)"/><path class="cls-52" d="M3408.49,963.67a234.8,234.8,0,0,0,25.41-9.87" transform="translate(-60 23.25)"/><path class="cls-51" d="M3271.71,965.76c26.4,7.31,66.55,13.63,112.15,4.36" transform="translate(-60 23.25)"/><path class="cls-52" d="M3239,953.8a150.35,150.35,0,0,0,16.38,6.78" transform="translate(-60 23.25)"/><path class="cls-53" d="M3252.34,992.66s93.87,51,165.43,0" transform="translate(-60 23.25)"/><ellipse class="cls-54" cx="3276.16" cy="1272.45" rx="172.87" ry="32.33"/><path class="cls-55" d="M3378.66,1234.54v17.77c0,6.92-19.54,12.52-43.65,12.52s-43.64-5.6-43.64-12.52v-17.77" transform="translate(-60 23.25)"/><ellipse class="cls-55" cx="3275.02" cy="1256.94" rx="43.65" ry="12.52"/><path class="cls-56" d="M3361.49,1074.2v12.36c0,4.81-12.31,8.71-27.5,8.71s-27.51-3.9-27.51-8.71V1074.2" transform="translate(-60 23.25)"/><ellipse class="cls-56" cx="3273.99" cy="1097.51" rx="27.51" ry="8.05"/><path class="cls-57" d="M3366.76,1130.63v14.43c0,5.62-14.38,10.18-32.12,10.18s-32.11-4.56-32.11-10.18v-14.43" transform="translate(-60 23.25)"/><ellipse class="cls-57" cx="3274.64" cy="1153.18" rx="32.12" ry="10.17"/><path class="cls-1" d="M5319,1065.41c0,30-23.47,54.32-52.42,54.32s-52.42-24.32-52.42-54.32,23.47-54.32,52.42-54.32S5319,1035.41,5319,1065.41Z" transform="translate(-60 23.25)"/><path class="cls-58" d="M5323.67,1061.53c0,37-28.95,67-64.68,67s-64.68-30-64.68-67,29-67,64.68-67S5323.67,1024.51,5323.67,1061.53Z" transform="translate(-60 23.25)"/><path class="cls-59" d="M5283,1253.75c0,16.63-13,30.11-29.06,30.11s-29.06-13.48-29.06-30.11,13-30.11,29.06-30.11S5283,1237.12,5283,1253.75Z" transform="translate(-60 23.25)"/><path class="cls-9" d="M5289.34,1061.52c0,17.37-13.59,31.45-30.35,31.45s-30.35-14.08-30.35-31.45,13.59-31.44,30.35-31.44S5289.34,1044.16,5289.34,1061.52Z" transform="translate(-60 23.25)"/><line class="cls-60" x1="5251.37" y1="1044.94" x2="5330.2" y2="993.38"/><line class="cls-61" x1="5358.13" y1="1186.88" x2="5247.06" y2="1131.38"/><line class="cls-60" x1="5142.02" y1="1053.02" x2="5028.41" y2="1002.54"/><line class="cls-61" x1="5157.31" y1="1132.71" x2="5046.92" y2="1201.84"/><line class="cls-62" x1="5198.99" y1="1151.8" x2="5198.04" y2="1241.74"/><line class="cls-61" x1="5186.56" y1="927.54" x2="5194.54" y2="1019.31"/><line class="cls-63" x1="5017" y1="1136.86" x2="5023.98" y2="1023.23"/><line class="cls-63" x1="5039.94" y1="980.41" x2="5137.69" y2="911.59"/><line class="cls-64" x1="5190.55" y1="899.62" x2="5334.19" y2="957.47"/><line class="cls-64" x1="5370.1" y1="1013.33" x2="5387.05" y2="1118.06"/><line class="cls-64" x1="5048.92" y1="1230.77" x2="5161.63" y2="1267.67"/><line class="cls-64" x1="5223.27" y1="1276.56" x2="5343.16" y2="1226.78"/><path class="cls-9" d="M5082.9,1165.6c12.43.65,22.63-10,22-23.06-.54-11.15-9.19-20.21-19.83-20.77-12.43-.66-22.64,10-22,23.07C5063.61,1156,5072.26,1165,5082.9,1165.6Z" transform="translate(-60 23.25)"/><path class="cls-9" d="M5119.5,1226.47c4.66,0,8.14-4.94,7.22-10.24-3.88-22.5-19.75-42.62-38.75-42.62s-34.87,20.12-38.75,42.62c-.92,5.3,2.56,10.24,7.22,10.24Z" transform="translate(-60 23.25)"/><path class="cls-65" d="M5076.94,1166a26.91,26.91,0,1,0-25.48-25.46A26.9,26.9,0,0,0,5076.94,1166Z" transform="translate(-60 23.25)"/><path class="cls-65" d="M5117.65,1224a8.86,8.86,0,0,0,8.67-10.62c-4.66-23.34-23.72-44.23-46.52-44.23s-41.85,20.89-46.51,44.23A8.86,8.86,0,0,0,5042,1224Z" transform="translate(-60 23.25)"/><path class="cls-9" d="M5448,1148.64c12.42.66,22.62-10,22-23.06-.54-11.15-9.19-20.21-19.83-20.77-12.44-.66-22.65,10-22,23.07C5428.67,1139,5437.32,1148.08,5448,1148.64Z" transform="translate(-60 23.25)"/><path class="cls-9" d="M5484.57,1209.51c4.66,0,8.13-4.94,7.22-10.23-3.88-22.5-19.76-42.63-38.76-42.63s-34.86,20.13-38.75,42.63c-.91,5.29,2.56,10.23,7.23,10.23Z" transform="translate(-60 23.25)"/><path class="cls-65" d="M5442,1149a26.91,26.91,0,1,0-25.48-25.46A26.91,26.91,0,0,0,5442,1149Z" transform="translate(-60 23.25)"/><path class="cls-65" d="M5482.71,1207a8.86,8.86,0,0,0,8.67-10.62c-4.66-23.34-23.71-44.22-46.51-44.22s-41.85,20.88-46.51,44.22A8.86,8.86,0,0,0,5407,1207Z" transform="translate(-60 23.25)"/><path class="cls-9" d="M5245.48,844.42c12.43.65,22.63-10,22-23.06-.54-11.15-9.18-20.21-19.83-20.77-12.43-.66-22.64,10-22,23.07C5226.19,834.8,5234.84,843.86,5245.48,844.42Z" transform="translate(-60 23.25)"/><path class="cls-9" d="M5282.08,905.29c4.67,0,8.14-4.94,7.23-10.23-3.88-22.5-19.76-42.63-38.76-42.63s-34.87,20.13-38.75,42.63c-.91,5.29,2.56,10.23,7.22,10.23Z" transform="translate(-60 23.25)"/><path class="cls-65" d="M5239.52,844.82A26.91,26.91,0,1,0,5214,819.36,26.91,26.91,0,0,0,5239.52,844.82Z" transform="translate(-60 23.25)"/><path class="cls-65" d="M5280.23,902.8a8.86,8.86,0,0,0,8.67-10.62c-4.66-23.34-23.71-44.22-46.51-44.22s-41.85,20.88-46.52,44.22a8.87,8.87,0,0,0,8.67,10.62Z" transform="translate(-60 23.25)"/><path class="cls-66" d="M5445,961.67c0,18.37-14.37,33.26-32.09,33.26s-32.09-14.89-32.09-33.26,14.37-33.25,32.09-33.25S5445,943.31,5445,961.67Z" transform="translate(-60 23.25)"/><path class="cls-67" d="M5110.89,978.94c0,16.16-12.65,29.26-28.25,29.26s-28.24-13.1-28.24-29.26,12.65-29.27,28.24-29.27S5110.89,962.77,5110.89,978.94Z" transform="translate(-60 23.25)"/><polygon class="cls-9" points="5022.45 1026.79 5045.93 1061.98 4999.54 1061.2 5022.45 1026.79"/><polygon class="cls-9" points="5224.34 1275.17 5251.67 1242.87 5263.75 1287.66 5224.34 1275.17"/><polygon class="cls-9" points="5338.62 957.59 5296.32 956.99 5323.24 919.22 5338.62 957.59"/><path class="cls-34" d="M6227.62,896.25a31.22,31.22,0,1,0-31.15-31.3A31.21,31.21,0,0,0,6227.62,896.25Z" transform="translate(-60 23.25)"/><path class="cls-34" d="M6079.49,957.19A31.22,31.22,0,1,0,6048.27,926,31.22,31.22,0,0,0,6079.49,957.19Z" transform="translate(-60 23.25)"/><path class="cls-34" d="M6080.59,1082.09a31.22,31.22,0,1,0-31.14-31.29A31.22,31.22,0,0,0,6080.59,1082.09Z" transform="translate(-60 23.25)"/><path class="cls-34" d="M6227.62,1013.87a31.22,31.22,0,1,0-31.15-31.29A31.21,31.21,0,0,0,6227.62,1013.87Z" transform="translate(-60 23.25)"/><path class="cls-34" d="M6227.62,1138.55a31.22,31.22,0,1,0-31.15-31.3A31.21,31.21,0,0,0,6227.62,1138.55Z" transform="translate(-60 23.25)"/><path class="cls-34" d="M6227.62,1257.35a31.22,31.22,0,1,0-31.15-31.3A31.21,31.21,0,0,0,6227.62,1257.35Z" transform="translate(-60 23.25)"/><path class="cls-34" d="M5943,1152.67a31.23,31.23,0,1,0-31.14-31.3A31.22,31.22,0,0,0,5943,1152.67Z" transform="translate(-60 23.25)"/><path class="cls-34" d="M5943,1024.46a31.22,31.22,0,1,0-31.14-31.3A31.22,31.22,0,0,0,5943,1024.46Z" transform="translate(-60 23.25)"/><path class="cls-34" d="M6076.71,1206.2a31.22,31.22,0,1,0-31.22-31.22A31.23,31.23,0,0,0,6076.71,1206.2Z" transform="translate(-60 23.25)"/><path class="cls-68" d="M5854.32,1085.39a41.09,41.09,0,1,0-41.09-41.09A41.09,41.09,0,0,0,5854.32,1085.39Z" transform="translate(-60 23.25)"/><path class="cls-69" d="M6087.87,954.49a36.71,36.71,0,1,0-36.71-36.71A36.7,36.7,0,0,0,6087.87,954.49Z" transform="translate(-60 23.25)"/><path class="cls-69" d="M6087.77,1080.59a36.71,36.71,0,1,0-36.61-36.8A36.71,36.71,0,0,0,6087.77,1080.59Z" transform="translate(-60 23.25)"/><path class="cls-69" d="M6086,1205.75a36.71,36.71,0,1,0-36.7-36.7A36.71,36.71,0,0,0,6086,1205.75Z" transform="translate(-60 23.25)"/><path class="cls-70" d="M5947.42,1019.59a36.71,36.71,0,1,0-36.71-36.71A36.71,36.71,0,0,0,5947.42,1019.59Z" transform="translate(-60 23.25)"/><path class="cls-70" d="M5947.42,1152.86a36.71,36.71,0,1,0-36.71-36.7A36.7,36.7,0,0,0,5947.42,1152.86Z" transform="translate(-60 23.25)"/><path class="cls-70" d="M6233.73,1009.07a36.71,36.71,0,1,0-36.71-36.7A36.7,36.7,0,0,0,6233.73,1009.07Z" transform="translate(-60 23.25)"/><path class="cls-70" d="M6233.73,895.2A36.71,36.71,0,1,0,6197,858.5,36.7,36.7,0,0,0,6233.73,895.2Z" transform="translate(-60 23.25)"/><path class="cls-70" d="M6233.73,1133.29a36.71,36.71,0,1,0-36.71-36.7A36.7,36.7,0,0,0,6233.73,1133.29Z" transform="translate(-60 23.25)"/><path class="cls-70" d="M6233.73,1257.51a36.71,36.71,0,1,0-36.71-36.7A36.7,36.7,0,0,0,6233.73,1257.51Z" transform="translate(-60 23.25)"/><polyline class="cls-71" points="6137.02 1240.87 6065.19 1194.44 6136.71 1120.1 6065.34 1066.48 6134.52 995.48 6065.19 938.47 6136.71 882.01"/><polyline class="cls-72" points="5988.06 1181.27 5924.34 1136.09 5990.61 1067.4 5925.66 1007.17 5990.61 954.47"/><line class="cls-73" x1="5856.37" y1="1119.84" x2="5825.31" y2="1098.53"/><line class="cls-73" x1="5830.47" y1="1042.34" x2="5852.33" y2="1025.64"/><polyline class="cls-74" points="6136.87 888.13 6064.94 1066.9 6137.02 1234.02"/><path class="cls-75" d="M5875.51,1044.79c0,12.08-9.44,21.87-21.1,21.87s-21.09-9.79-21.09-21.87,9.44-21.86,21.09-21.86S5875.51,1032.72,5875.51,1044.79Z" transform="translate(-60 23.25)"/><line class="cls-13" x1="1068.68" y1="343.25" x2="2114.65" y2="343.25"/><line class="cls-10" x1="2221.64" y1="565.33" x2="2221.64" y2="312.49"/><circle class="cls-76" cx="2219" cy="343.25" r="47"/><line class="cls-16" x1="4287.46" y1="563.97" x2="4287.46" y2="369.69"/><circle class="cls-76" cx="4286" cy="344.25" r="47"/><line class="cls-16" x1="3277.22" y1="673.97" x2="3277.22" y2="479.69"/></g><g id="sub_text" data-name="sub text"><text class="cls-77" transform="translate(43.57 1468.98)">E<tspan class="cls-78" x="70.62" y="0">x</tspan><tspan x="138.5" y="0">ecution &amp; </tspan><tspan x="-34.62" y="150">Optimisation</tspan></text><text class="cls-77" transform="translate(2136.28 1469.29)"><tspan class="cls-79">T</tspan><tspan x="59.88" y="0">ask </tspan><tspan x="-250.93" y="150">Management</tspan></text><text class="cls-77" transform="translate(2989.3 1553.29)">Reporting</text><text class="cls-77" transform="translate(4022.3 1553.29)">I<tspan class="cls-80" x="40" y="0">nv</tspan><tspan x="176.62" y="0">oicing</tspan></text><text class="cls-77" transform="translate(4801.7 1554.11)">Collabo<tspan class="cls-81" x="438.24" y="0">r</tspan><tspan x="488.62" y="0">ation</tspan></text><text class="cls-77" transform="translate(5781.61 1554.11)">Planning</text></g><g id="Header"><text class="cls-82" transform="translate(2320.76 430.75)">SENTR™</text><text class="cls-77" transform="translate(1080.44 1463.69)">Account <tspan x="-137.5" y="150">Management</tspan></text></g></svg>