<?xml version="1.0" encoding="utf-8"?>
<!-- Generator: Adobe Illustrator 24.1.0, SVG Export Plug-In . SVG Version: 6.00 Build 0)  -->
<svg version="1.1" id="Layer_1" xmlns="http://www.w3.org/2000/svg" xmlns:xlink="http://www.w3.org/1999/xlink" x="0px" y="0px"
	 viewBox="0 0 487.2 344.2" style="enable-background:new 0 0 487.2 344.2;" xml:space="preserve">
<style type="text/css">
	.st0{fill:none;stroke:#427FE0;stroke-width:8;stroke-miterlimit:10;}
	.st1{fill:#FF5254;}
	.st2{fill:#427FE0;}
	.st3{fill:none;stroke:#427FE0;stroke-width:4;stroke-miterlimit:10;}
	.st4{fill:none;stroke:#3D4451;stroke-miterlimit:10;}
	.st5{fill:#3D4451;}
</style>
<circle class="st0" cx="108" cy="188.9" r="43.3"/>
<g>
	<path class="st1" d="M101.8,181.2c0.4-0.4,0.8-0.4,1.2-0.1c0.2,0.1,0.4,0.3,0.5,0.4c0.4,0.3,0.3,0.7-0.1,1l-1,0.8
		c-0.4,0.2-0.4,0.4-0.1,0.6c0.3,0.2,0.7,0.1,1.1-0.1c0.3-0.2,0.7-0.5,1-0.8c0.4-0.4,0.8-0.4,1.2-0.1l0.6,0.5c0.4,0.3,0.4,0.7,0.1,1
		l-0.7,0.6c-0.3,0.2-0.3,0.4,0.1,0.6l1,0.4c0.5,0.2,0.7,0.5,0.4,0.9c-0.2,0.3-0.3,0.6-0.5,0.9c-0.2,0.4-0.5,0.6-0.9,0.4l-1.3-0.6
		c-0.3-0.2-0.5-0.1-0.5,0.2v0.5c0,0.6,0.3,0.8,0.8,0.6c0-0.1,0.1-0.2,0.1-0.4c0-0.2,0.2-0.2,0.6-0.1l0.8,0.4c0.5,0.2,0.7,0.6,0.7,1
		c-0.1,0.2-0.1,0.4-0.3,0.6c-0.2,0.3-0.6,0.5-1.1,0.5c-1.2,0.1-2,0.1-2.6-0.1c-0.7-0.2-1.1-0.6-1.1-1.2c-0.1-0.4-0.1-0.8-0.1-1.2
		c0-0.3-0.2-0.5-0.5-0.5h-0.5c-0.3,0-0.5,0.2-0.6,0.6c-0.1,1-0.6,1.8-1.5,2.4c-0.3,0.2-0.3,0.4,0.1,0.4h6.7c0.4,0,0.6,0.2,0.6,0.6
		c0.1,0.6,0,1.1-0.2,1.4c-0.4,0.7-0.9,1.4-1.5,2c-0.3,0.3-0.3,0.5,0.1,0.7l1.7,0.4c0.5,0.1,0.7,0.3,0.5,0.7l-0.4,1
		c-0.2,0.4-0.4,0.6-0.8,0.5c-1.1-0.2-2.3-0.6-3.3-1.1c-0.3-0.1-0.6-0.1-1.1,0.1c-0.9,0.5-1.9,0.8-3,1.1c-0.4,0.1-0.7-0.1-0.9-0.4
		c-0.2-0.3-0.3-0.5-0.4-0.8c-0.3-0.5-0.2-0.7,0.3-0.8c0.8-0.2,1.6-0.4,2.3-0.6c0.3-0.1,0.3-0.4-0.1-0.8c-0.4-0.6-0.8-1-1-1.4
		c-0.2-0.3-0.4-0.5-0.7-0.5c-0.3,0-0.4-0.2-0.4-0.6v-0.8c0-0.4,0.1-0.6,0.2-0.6c0.1,0,0.1-0.2-0.1-0.6l-0.2-0.4
		c-0.2-0.4-0.3-0.3-0.3,0.1v0.6c0,0.4-0.2,0.6-0.6,0.6H93c-0.3,0-0.5,0.2-0.6,0.5c0,0.4,0.1,0.5,0.4,0.5h3.5c0.4,0,0.6,0.2,0.6,0.6
		c-0.1,2-0.5,3.5-1,4.5c-0.8,1-2,1.3-3.6,0.9l-0.2,0c-0.4-0.1-0.7-0.3-0.7-0.7c-0.1-0.4-0.2-0.8-0.3-1.1c-0.1-0.4,0.1-0.6,0.5-0.5
		c0.8,0.2,1.6,0.2,2.4,0c0.4-0.2,0.6-0.6,0.7-1.1c0.1-0.4,0-0.5-0.3-0.5h-1.8c-0.3,0-0.5,0.1-0.5,0.2c0,0.1-0.2,0.2-0.6,0.2h-1
		c-0.4,0-0.6-0.2-0.5-0.6l0.5-4.1c0.1-0.5,0.3-0.7,0.7-0.7h3c0.3,0,0.5-0.2,0.5-0.6c0-0.4-0.2-0.7-0.5-0.7h-0.9
		c-0.4,0-0.6-0.1-0.6-0.2c0-0.1-0.2-0.1-0.6,0.1c-0.5,0.2-1.1,0.4-1.7,0.6c-0.4,0.1-0.8-0.1-0.9-0.5l-0.2-0.4
		c-0.2-0.5-0.1-0.8,0.3-0.9c0.5-0.2,1.1-0.4,1.7-0.6c0.3-0.1,0.2-0.4-0.2-0.8c-0.4-0.4-0.3-0.7,0.2-1.1l0.6-0.4
		c0.4-0.3,0.8-0.3,1.2,0l0.4,0.4c0.3,0.3,0.7,0.3,1.1,0c0.3-0.2,0.7-0.5,1-0.9c0.3-0.3,0.3-0.5,0-0.5h-4.8c-0.4,0-0.6-0.2-0.6-0.6
		v-0.9c0-0.4,0.2-0.6,0.6-0.6h7.6c0.4,0,0.6,0.1,0.6,0.4c0,0.2,0.2,0.5,0.5,0.8c0.4,0.3,0.7,0.3,1.2,0
		C101.1,181.8,101.5,181.5,101.8,181.2z M98.8,184c-0.4-0.3-0.7-0.2-1,0.1c-0.7,0.7-1.3,1.3-1.9,1.7c-0.4,0.3-0.4,0.4,0,0.4h0.3
		c0.4,0,0.6,0.2,0.6,0.6v2c0,0.3,0.2,0.4,0.6,0.1c0.6-0.5,0.9-1.4,0.8-2.5c0-0.4,0.2-0.6,0.6-0.6h2c0.4,0,0.4-0.1,0.1-0.4
		C100.2,185,99.5,184.5,98.8,184z M103.1,193.7c0.3-0.3,0.2-0.5-0.1-0.5h-2c-0.3,0-0.3,0.2,0.1,0.6l0.3,0.3c0.4,0.3,0.8,0.3,1.2-0.1
		L103.1,193.7z"/>
	<path class="st1" d="M109.3,192.9c0-0.4,0.2-0.6,0.6-0.6h16.5c0.4,0,0.6,0.2,0.6,0.6v0.9c0,0.4-0.2,0.6-0.6,0.6h-6.5
		c-0.3,0-0.5,0.2-0.5,0.5c0,0.6,0,1.2,0,1.9c0,0.6-0.3,1-0.7,1.4c-0.8,0.4-1.7,0.5-2.7,0.4c-0.4-0.1-0.6-0.4-0.7-0.8l-0.2-1
		c-0.1-0.5,0.1-0.6,0.5-0.4c0.3,0.1,0.5,0.1,0.8,0.1c0.4,0.1,0.6-0.1,0.7-0.6v-0.9c0-0.3-0.2-0.5-0.5-0.5h-6.8
		c-0.4,0-0.6-0.2-0.6-0.6V192.9z M109.4,181.6c0-0.4,0.2-0.6,0.6-0.6h16.2c0.4,0,0.6,0.2,0.6,0.6v0.9c0,0.4-0.2,0.6-0.6,0.6h-4.4
		c-0.3,0-0.5,0.1-0.5,0.4c0,0.2,0.2,0.4,0.5,0.4h3.4c0.4,0,0.6,0.2,0.6,0.6v4.1c0,0.4-0.2,0.6-0.6,0.6h-14.1c-0.4,0-0.6-0.2-0.6-0.6
		v-4.1c0-0.4,0.2-0.6,0.6-0.6h3.3c0.3,0,0.5-0.1,0.5-0.4c0-0.2-0.2-0.4-0.5-0.4H110c-0.4,0-0.6-0.2-0.6-0.6V181.6z M112.4,195
		c0.4-0.2,0.8-0.2,1.2,0.1l0.5,0.4c0.4,0.3,0.4,0.7,0,0.9c-0.8,0.5-1.8,1-3.1,1.6c-0.4,0.2-0.7,0-1-0.4l-0.4-0.7
		c-0.3-0.5-0.2-0.8,0.2-0.9C110.7,195.7,111.6,195.4,112.4,195z M111.5,190.2c0-0.4,0.2-0.6,0.5-0.6h12.3c0.4,0,0.6,0.2,0.6,0.6v0.8
		c0,0.4-0.2,0.6-0.6,0.6h-12.2c-0.4,0-0.6-0.2-0.6-0.6V190.2z M114.9,186.4c0-0.4-0.2-0.6-0.5-0.6h-1.2c-0.3,0-0.5,0.2-0.5,0.5
		c0,0.4,0.2,0.6,0.5,0.6h1.2C114.7,187,114.9,186.8,114.9,186.4z M119.2,183.4c0-0.2-0.2-0.4-0.5-0.4h-1.1c-0.3,0-0.5,0.1-0.5,0.4
		c0,0.2,0.2,0.4,0.5,0.4h1.1C119,183.7,119.2,183.6,119.2,183.4z M119.2,186.4c0-0.4-0.2-0.6-0.5-0.6h-1.1c-0.3,0-0.5,0.2-0.5,0.5
		c0,0.4,0.2,0.6,0.5,0.6h1.1C119,187,119.2,186.8,119.2,186.4z M121.9,195.2c0.3-0.3,0.7-0.3,1-0.2c0.9,0.4,1.9,0.8,3,1.1
		c0.4,0.1,0.5,0.3,0.3,0.7c-0.2,0.3-0.4,0.7-0.6,1c-0.2,0.4-0.5,0.6-0.9,0.4c-1.1-0.4-2.3-1-3.5-1.7c-0.4-0.3-0.4-0.6,0-0.9
		L121.9,195.2z M123.5,186.4c0-0.4-0.2-0.6-0.5-0.6h-1.2c-0.3,0-0.5,0.2-0.5,0.5c0,0.4,0.2,0.6,0.5,0.6h1.2
		C123.4,187,123.5,186.8,123.5,186.4z"/>
</g>
<circle class="st0" cx="239.3" cy="147.6" r="43.3"/>
<g>
	<g>
		<path class="st1" d="M223.1,139.4c0-0.4,0.2-0.6,0.5-0.6h1c0.4,0,0.6,0.2,0.6,0.6v2.1c0,0.3,0.2,0.5,0.5,0.5h0.9
			c0.4,0,0.6,0.2,0.6,0.6v0.9c0,0.4-0.2,0.6-0.6,0.6h-0.9c-0.3,0-0.5,0.2-0.5,0.5c0,0.4,0.2,0.7,0.6,1.1c0.5,0.4,0.9,0.9,1.4,1.4
			c0.4,0.5,0.5,0.9,0.2,1.3l-0.5,0.6c-0.4,0.5-0.7,0.5-0.9,0.1l-0.4-0.6c-0.3-0.4-0.4-0.4-0.4-0.1v7.7c0,0.4-0.2,0.6-0.6,0.6h-1
			c-0.4,0-0.6-0.2-0.6-0.6v-6.3c0-0.5-0.1-0.5-0.3,0c-0.2,0.6-0.5,1.2-0.8,1.8c-0.2,0.4-0.5,0.4-0.8,0l-0.5-0.6
			c-0.3-0.4-0.3-0.8-0.1-1.2c1.1-2.2,1.8-3.9,2.2-5.3c0.1-0.4,0-0.5-0.3-0.5h-1.1c-0.4,0-0.6-0.2-0.6-0.6v-0.9
			c0-0.4,0.2-0.6,0.6-0.6h1.2c0.3,0,0.5-0.2,0.5-0.5V139.4z M231.7,139.4c0-0.4,0.2-0.6,0.5-0.6h1.3c0.4,0,0.6,0.2,0.6,0.6v0.8
			c0,0.3,0.2,0.5,0.5,0.5h3.3c0.4,0,0.6,0.2,0.6,0.6v1.1c0,0.4-0.2,0.6-0.6,0.6h-4.2c-0.3,0-0.6,0.2-0.9,0.6l-1.3,1.8
			c-0.3,0.4-0.3,0.7,0.1,0.9c0.4,0.3,0.7,0.2,1.1-0.2c0.5-0.6,0.9-1.1,1.3-1.7c0.3-0.5,0.7-0.6,1.1-0.4l0.8,0.5
			c0.4,0.2,0.5,0.5,0.3,0.9c-2.1,3.1-4.6,5.5-7.3,7.2c-0.4,0.2-0.6,0.4-0.7,0.3l-0.8-1.1c-0.4-0.5-0.3-0.8,0.1-1.1
			c0.9-0.7,1.8-1.3,2.5-2c0.3-0.3,0.3-0.6-0.1-0.8l-2-1.4c-0.4-0.3-0.5-0.6-0.2-1l0.5-0.5c0.4-0.5,0.7-0.6,0.9-0.5
			c0.2,0.1,0.5,0,0.7-0.3l0.4-0.5c0.2-0.4,0.2-0.6-0.1-0.6h-2c-0.4,0-0.6-0.2-0.6-0.6v-1.1c0-0.4,0.2-0.6,0.6-0.6h3.2
			c0.3,0,0.5-0.2,0.5-0.5V139.4z M235.5,148c0.4-0.5,0.7-0.6,1.1-0.4l0.8,0.5c0.4,0.2,0.5,0.6,0.2,1c-0.4,0.5-0.9,1.2-1.7,2
			c-0.3,0.3-0.3,0.7,0.1,1.1c0.7,0.7,1.3,1.4,1.9,2.1c0.4,0.5,0.4,0.9,0,1.3l-0.7,0.7c-0.4,0.4-0.7,0.4-1,0c-0.6-0.8-1.2-1.7-2-2.5
			c-0.3-0.4-0.7-0.4-1.1,0c-1.3,1.1-2.6,2-3.9,2.8c-0.5,0.3-0.9,0.2-1.2-0.2l-0.5-0.6c-0.4-0.4-0.3-0.8,0.1-1.1
			C230.6,152.8,233.2,150.6,235.5,148z"/>
		<path class="st1" d="M242.4,148.4c0.1-0.4,0.3-0.6,0.7-0.4l0.9,0.3c0.4,0.1,0.5,0.4,0.5,0.8c-0.5,2.7-1.1,4.9-1.7,6.7
			c-0.1,0.4-0.4,0.5-0.8,0.3l-1-0.5c-0.4-0.2-0.6-0.5-0.4-0.9C241.4,152.7,242,150.6,242.4,148.4z M242.3,140c0.5-0.2,0.8-0.2,1,0.2
			c0.4,0.7,0.8,1.6,1.1,2.7c0.1,0.4,0,0.7-0.4,0.9c-0.3,0.1-0.7,0.3-1,0.4c-0.4,0.2-0.7,0.1-0.8-0.4c-0.3-1-0.7-1.8-1-2.6
			c-0.2-0.4-0.1-0.7,0.3-0.9C241.8,140.2,242,140.1,242.3,140z M247.2,139.4c0.2-0.5,0.5-0.7,0.9-0.6l1,0.3c0.5,0.1,0.6,0.4,0.5,0.8
			l-0.4,1.3c-0.1,0.3,0,0.5,0.3,0.5h2.2c0.3,0,0.5-0.2,0.7-0.6c0.2-0.5,0.3-1,0.4-1.6c0.1-0.4,0.3-0.5,0.7-0.5l1.2,0.3
			c0.4,0.1,0.6,0.4,0.5,0.8l-0.3,1.1c-0.1,0.3,0,0.5,0.3,0.5h2.8c0.4,0,0.6,0.2,0.6,0.6v1c0,0.4-0.2,0.6-0.6,0.6h-3.2
			c-0.3,0-0.5,0.2-0.5,0.5v1c0,0.3,0.2,0.5,0.5,0.5h2.7c0.4,0,0.6,0.2,0.6,0.6v0.9c0,0.4-0.2,0.6-0.6,0.6h-2.7
			c-0.3,0-0.5,0.2-0.5,0.5v1c0,0.3,0.2,0.5,0.5,0.5h2.7c0.4,0,0.6,0.2,0.6,0.6v0.9c0,0.4-0.2,0.6-0.6,0.6h-2.7
			c-0.3,0-0.5,0.2-0.5,0.5v1c0,0.3,0.2,0.5,0.5,0.5h3.3c0.4,0,0.6,0.2,0.6,0.6v1c0,0.4-0.2,0.6-0.6,0.6h-9c-0.3,0-0.5,0.1-0.5,0.4
			c0,0.3-0.2,0.4-0.6,0.4h-1c-0.4,0-0.6-0.2-0.6-0.6v-9.1c0-0.3-0.1-0.3-0.4,0.1c-0.3,0.3-0.6,0.4-0.9,0.1l-0.8-0.6
			c-0.5-0.4-0.5-0.7-0.3-1C245.2,143.8,246.3,141.7,247.2,139.4z M251.9,144.4c0-0.4-0.1-0.5-0.4-0.5h-2.6c-0.3,0-0.5,0.2-0.5,0.5v1
			c0,0.3,0.2,0.5,0.5,0.5h2.6c0.3,0,0.5-0.2,0.5-0.5V144.4z M251.9,148.4c0-0.4-0.1-0.5-0.4-0.5h-2.6c-0.3,0-0.5,0.2-0.5,0.5v1
			c0,0.3,0.2,0.5,0.5,0.5h2.6c0.3,0,0.5-0.2,0.5-0.5V148.4z M251.9,152.4c0-0.3-0.2-0.5-0.5-0.5h-2.6c-0.3,0-0.5,0.2-0.5,0.5v1
			c0,0.3,0.2,0.5,0.5,0.5h2.6c0.3,0,0.5-0.2,0.5-0.5V152.4z"/>
	</g>
</g>
<circle class="st0" cx="365.7" cy="176.1" r="43.3"/>
<g>
	<path class="st1" d="M351.7,169.1c0-0.4,0.2-0.5,0.5-0.5h0.9c0.4,0,0.5,0.2,0.5,0.5v0.6c0,0.3,0.1,0.4,0.4,0.4h1.7
		c0.4,0,0.5,0.2,0.5,0.5v0.8c0,0.4-0.2,0.5-0.5,0.5h-1.7c-0.3,0-0.4,0.1-0.4,0.4v0.4c0,0.3,0.1,0.4,0.4,0.4h2.1
		c0.4,0,0.5,0.2,0.5,0.5v0.8c0,0.4-0.1,0.5-0.4,0.5c-0.3,0-0.5,0.2-0.6,0.5c-0.1,0.3-0.2,0.5-0.3,0.8c-0.1,0.3,0,0.4,0.4,0.4
		c0.4,0,0.6,0.2,0.6,0.5v0.8c0,0.4-0.2,0.5-0.5,0.5h-1.7c-0.3,0-0.4,0.2-0.4,0.5c0,0.4,0.1,0.6,0.4,0.6h2.1c0.4,0,0.5,0.2,0.5,0.5
		v0.8c0,0.4-0.2,0.5-0.5,0.5h-2.1c-0.3,0-0.4,0.1-0.4,0.4v2.1c0,0.4-0.2,0.5-0.5,0.5h-0.9c-0.4,0-0.5-0.2-0.5-0.5v-2.1
		c0-0.3-0.1-0.4-0.4-0.4h-2c-0.4,0-0.5-0.2-0.5-0.5v-0.8c0-0.4,0.2-0.5,0.5-0.5h2c0.3,0,0.4-0.2,0.4-0.5c0-0.4-0.1-0.6-0.4-0.6h-1.6
		c-0.4,0-0.5-0.2-0.5-0.5v-0.8c0-0.4,0.2-0.5,0.5-0.5s0.5-0.2,0.4-0.5l-0.1-0.4c-0.2-0.4-0.1-0.6,0.1-0.7c0.2-0.1,0.2-0.2-0.2-0.2
		h-0.6c-0.4,0-0.5-0.2-0.5-0.5v-0.8c0-0.4,0.2-0.5,0.5-0.5h2.1c0.3,0,0.4-0.1,0.4-0.4v-0.4c0-0.3-0.1-0.4-0.4-0.4h-1.6
		c-0.4,0-0.5-0.2-0.5-0.5v-0.8c0-0.4,0.2-0.5,0.5-0.5h1.6c0.3,0,0.4-0.1,0.4-0.4V169.1z M353.6,175.5c0.1-0.3,0-0.4-0.3-0.4H352
		c-0.3,0-0.3,0.2-0.2,0.5l0.2,0.4c0.1,0.4,0.1,0.6-0.1,0.7c-0.3,0.1-0.3,0.2,0.1,0.2h0.8c0.3,0,0.5-0.2,0.6-0.5L353.6,175.5z
		 M357,169.5c0-0.4,0.2-0.6,0.5-0.6h6.3c0.4,0,0.5,0.2,0.5,0.5v3.3c0,0.5-0.2,1-0.6,1.4c-0.1,0.1-0.4,0.3-0.7,0.4
		c-0.3,0.1-0.8,0.1-1.6,0.1c-0.4,0-0.6-0.2-0.7-0.5l-0.2-0.9c-0.1-0.4,0.1-0.6,0.5-0.5c0.6,0.2,0.9,0.1,1.1-0.3c0-0.4,0-0.8,0-1.2
		c0-0.3-0.1-0.4-0.4-0.4h-2.4c-0.3,0-0.4,0.1-0.4,0.4v3.5c0,0.3,0.1,0.4,0.4,0.4h4.7c0.4,0,0.5,0.2,0.5,0.5c0,0.6,0,1-0.1,1.3
		c-0.4,1.6-0.8,3-1.3,3.9c-0.2,0.3-0.1,0.6,0.3,1c0.2,0.2,0.4,0.5,0.7,0.7c0.4,0.3,0.5,0.7,0.2,1.1l-0.5,0.6c-0.3,0.4-0.7,0.4-1,0.1
		c-0.3-0.3-0.5-0.5-0.8-0.8c-0.2-0.3-0.5-0.3-0.8,0.1c-0.2,0.3-0.6,0.5-1.1,0.9c-0.4,0.2-0.7,0.2-0.9-0.2l-0.1-0.3
		c-0.2-0.4-0.4-0.4-0.4-0.1v0.3c0,0.4-0.2,0.5-0.5,0.5h-0.9c-0.4,0-0.5-0.2-0.5-0.5V169.5z M359.2,177.4c-0.1-0.3-0.1-0.5-0.1-0.5
		c-0.1,0-0.1,0.2-0.1,0.5v4.9c0,0.3,0.2,0.3,0.5,0.1c0.2-0.2,0.5-0.4,0.8-0.7c0.2-0.3,0.3-0.6,0.1-0.9
		C359.9,179.8,359.5,178.7,359.2,177.4z M362.4,177.4c0.1-0.3,0-0.5-0.3-0.5h-0.8c-0.3,0-0.4,0.2-0.3,0.5c0.1,0.5,0.3,1,0.5,1.5
		c0.1,0.3,0.3,0.3,0.4-0.1L362.4,177.4z"/>
	<path class="st1" d="M373.7,169c0-0.4,0.2-0.6,0.5-0.6h1.1c0.4,0,0.5,0.2,0.5,0.5v1.1c0,0.3,0.1,0.4,0.4,0.4h4.7
		c0.4,0,0.5,0.2,0.5,0.5v0.9c0,0.4-0.2,0.5-0.5,0.5h-4.7c-0.3,0-0.4,0.1-0.4,0.4v1.2c0,0.3,0.1,0.4,0.4,0.4h5.8
		c0.4,0,0.5,0.2,0.5,0.5v1c0,0.4-0.2,0.5-0.5,0.5h-14.8c-0.4,0-0.5-0.2-0.5-0.5v-1c0-0.4,0.2-0.5,0.5-0.5h6c0.3,0,0.4-0.1,0.4-0.4
		V173c0-0.3-0.1-0.4-0.4-0.4h-2.8c-0.3,0-0.5,0.2-0.8,0.5c-0.2,0.3-0.4,0.6-0.6,0.9c-0.3,0.4-0.6,0.4-0.9,0.1l-0.7-0.5
		c-0.3-0.3-0.4-0.6-0.1-0.9c0.7-1,1.3-2.1,1.7-3.3c0.1-0.4,0.4-0.5,0.7-0.4l0.9,0.3c0.4,0.2,0.6,0.4,0.5,0.8c-0.1,0.4,0,0.5,0.3,0.5
		h1.9c0.3,0,0.4-0.1,0.4-0.4V169z M368.4,178.2c0-0.4,0.2-0.6,0.5-0.6h11.8c0.4,0,0.5,0.2,0.5,0.5v6c0,0.4-0.2,0.5-0.5,0.5h-1
		c-0.4,0-0.5-0.1-0.5-0.4c0-0.3-0.1-0.4-0.4-0.4h-7.8c-0.3,0-0.4,0.1-0.4,0.4c0,0.3-0.2,0.4-0.5,0.4h-1c-0.4,0-0.5-0.2-0.5-0.5
		V178.2z M379.1,180.1c0-0.3-0.1-0.4-0.4-0.4h-7.8c-0.3,0-0.4,0.1-0.4,0.4v1.5c0,0.3,0.1,0.4,0.4,0.4h7.8c0.3,0,0.4-0.1,0.4-0.4
		V180.1z"/>
</g>
<line class="st0" x1="31.8" y1="176.1" x2="64.7" y2="188.9"/>
<line class="st0" x1="282.5" y1="147.6" x2="322.5" y2="176.1"/>
<line class="st0" x1="409" y1="176.1" x2="456.6" y2="167.1"/>
<circle class="st2" cx="464" cy="161.9" r="12.6"/>
<circle class="st3" cx="21.3" cy="170.1" r="12.6"/>
<g>
	<path class="st1" d="M153.9,252.3c0-0.3,0.1-0.4,0.4-0.4h0.6c0.3,0,0.4,0.1,0.4,0.4v1.5c0,0.2,0.1,0.3,0.3,0.3h0.5
		c0.3,0,0.4,0.1,0.4,0.4v0.6c0,0.3-0.1,0.4-0.4,0.4h-0.5c-0.2,0-0.3,0.1-0.3,0.4c0,0.2,0.1,0.5,0.4,0.7c0.3,0.3,0.7,0.6,1,1
		c0.3,0.3,0.3,0.5,0.1,0.8l-0.3,0.4c-0.3,0.3-0.5,0.4-0.7,0.1l-0.3-0.4c-0.2-0.2-0.3-0.2-0.3,0v5.5c0,0.3-0.1,0.4-0.4,0.4h-0.6
		c-0.3,0-0.4-0.1-0.4-0.4V260c0-0.3-0.1-0.3-0.2,0l-0.3,0.9c-0.1,0.3-0.3,0.3-0.5,0.1l-0.3-0.4c-0.2-0.2-0.2-0.5,0-0.8
		c0.6-1.4,1-2.6,1.3-3.8c0-0.2,0-0.3-0.3-0.3h-0.6c-0.3,0-0.4-0.1-0.4-0.4v-0.6c0-0.3,0.1-0.4,0.4-0.4h0.6c0.2,0,0.3-0.1,0.3-0.3
		V252.3z M159.9,252.3c0-0.3,0.1-0.4,0.4-0.4h0.7c0.3,0,0.4,0.1,0.4,0.4v1.4c0,0.2,0.1,0.3,0.3,0.3h0.3c0.3,0,0.3-0.1,0.1-0.2
		c-0.2-0.1-0.2-0.3,0-0.6l0.3-0.5c0.1-0.3,0.3-0.5,0.6-0.4l0.6,0.2c0.3,0.1,0.4,0.3,0.3,0.5c-0.1,0.2-0.2,0.5-0.3,0.7
		c-0.1,0.2,0,0.3,0.2,0.3h0.6c0.3,0,0.4,0.1,0.4,0.4v1.7c0,0.3-0.1,0.4-0.4,0.4h-0.3c-0.2,0-0.3,0.1-0.3,0.3v1.3
		c0,0.3-0.1,0.4-0.4,0.4h-5.3c-0.3,0-0.4-0.1-0.4-0.4v-1.2c0-0.2-0.2-0.3-0.5-0.3c-0.3,0-0.5-0.1-0.5-0.4v-1.9
		c0-0.3,0.1-0.4,0.4-0.4h0.3c0.4,0.1,0.4-0.1,0-0.5c-0.3-0.3-0.2-0.6,0.1-0.8l0.5-0.3c0.3-0.2,0.5-0.1,0.8,0.1
		c0.1,0.2,0.3,0.4,0.4,0.5c0.2,0.3,0.2,0.6,0,0.7c-0.2,0.1-0.2,0.2,0.1,0.2h0.3c0.2,0,0.3-0.1,0.3-0.3V252.3z M157.2,259.4
		c0-0.3,0.1-0.4,0.4-0.4h6.3c0.3,0,0.4,0.1,0.4,0.4v4.6c0,0.3-0.1,0.4-0.4,0.4h-0.6c-0.3,0-0.4-0.1-0.4-0.2c0-0.1-0.1-0.2-0.3-0.2
		H159c-0.2,0-0.3,0.1-0.3,0.2c0,0.1-0.1,0.2-0.4,0.2h-0.6c-0.3,0-0.4-0.1-0.4-0.4V259.4z M163.4,255.6c0-0.1-0.1-0.2-0.3-0.2h-4.5
		c-0.2,0-0.3,0.1-0.3,0.2c0,0.1,0.1,0.2,0.3,0.2h4.5C163.2,255.8,163.4,255.7,163.4,255.6z M160.1,260.7c0-0.2-0.1-0.3-0.3-0.3H159
		c-0.2,0-0.3,0.1-0.3,0.3c0,0.2,0.1,0.3,0.3,0.3h0.7C160,261,160.1,260.9,160.1,260.7z M160.1,262.6c0-0.2-0.1-0.3-0.3-0.3H159
		c-0.2,0-0.3,0.1-0.3,0.3c0,0.2,0.1,0.3,0.3,0.3h0.7C160,262.9,160.1,262.8,160.1,262.6z M162.3,257.2c0-0.2-0.1-0.3-0.3-0.3h-2.5
		c-0.2,0-0.3,0.1-0.3,0.3c0,0.2,0.1,0.3,0.3,0.3h2.5C162.2,257.5,162.3,257.4,162.3,257.2z M162.9,260.7c0-0.2-0.1-0.3-0.3-0.3h-0.7
		c-0.2,0-0.3,0.1-0.3,0.3c0,0.2,0.1,0.3,0.3,0.3h0.7C162.7,261,162.9,260.9,162.9,260.7z M162.9,262.6c0-0.2-0.1-0.3-0.3-0.3h-0.7
		c-0.2,0-0.3,0.1-0.3,0.3c0,0.2,0.1,0.3,0.3,0.3h0.7C162.7,262.9,162.9,262.8,162.9,262.6z"/>
	<path class="st1" d="M171.8,259.2c0-0.3,0.1-0.5,0.4-0.5h0.8c0.3,0,0.4,0.1,0.4,0.4v0.2c0,0.2,0.1,0.3,0.3,0.3h4.6
		c0.3,0,0.4,0.1,0.4,0.4v0.6c0,0.3-0.1,0.4-0.4,0.4h-2.9c-0.3,0-0.3,0.1-0.1,0.2c0.9,0.5,1.9,0.8,3.2,1.2c0.3,0.1,0.3,0.2,0.2,0.5
		l-0.4,0.8c-0.2,0.3-0.4,0.4-0.7,0.3c-1.3-0.4-2.6-1.2-3.8-2.2c-0.3-0.2-0.4-0.2-0.4,0v2c0,0.3-0.1,0.4-0.4,0.4h-0.7
		c-0.3,0-0.4-0.1-0.4-0.4v-2c0-0.2-0.1-0.2-0.4,0c-1,0.8-2.3,1.5-3.9,2.1c-0.3,0.1-0.5,0-0.7-0.4c-0.1-0.1-0.2-0.3-0.2-0.4
		c-0.2-0.3-0.1-0.5,0.2-0.5c1-0.3,2-0.7,3.1-1.3c0.3-0.2,0.3-0.3,0-0.3H167c-0.3,0-0.4-0.1-0.4-0.4v-0.6c0-0.3,0.1-0.4,0.4-0.4h4.5
		C171.7,259.7,171.8,259.5,171.8,259.2z M171.8,252.2c0-0.2,0.1-0.4,0.4-0.4h0.9c0.3,0,0.4,0.1,0.4,0.3c0,0.2,0.1,0.4,0.3,0.4h4.4
		c0.3,0,0.4,0.1,0.4,0.4v1.1c0,0.3-0.1,0.4-0.4,0.4h-0.8c-0.3,0-0.4-0.1-0.4-0.3c0-0.2-0.1-0.3-0.3-0.3h-4.4c-0.3,0-0.3,0.1-0.1,0.2
		l0.5,0.2c0.3,0.1,0.4,0.2,0.3,0.4c-0.1,0.1-0.1,0.2,0.2,0.2h5.1c0.3,0,0.4,0.1,0.4,0.4v0.5c0,0.3-0.1,0.4-0.4,0.4h-1.8
		c-0.2,0-0.5,0.1-0.7,0.4c-0.1,0.1-0.3,0.3-0.4,0.4c-0.3,0.2-0.3,0.4,0,0.5c0.8,0.2,1.5,0.4,2.3,0.7c0.3,0.1,0.3,0.3,0.2,0.5
		l-0.2,0.4c-0.2,0.3-0.5,0.5-0.7,0.4c-1.2-0.4-2.5-0.8-3.7-1.2c-0.1,0-0.2,0-0.3,0.1c-1.4,0.5-3.1,0.9-4.9,1.1
		c-0.3,0-0.5-0.1-0.6-0.4l-0.1-0.5c-0.1-0.3,0-0.5,0.3-0.5c1-0.1,1.8-0.2,2.6-0.3c0.3-0.1,0.3-0.1,0-0.2c-0.2,0-0.4,0-0.5,0
		c-0.1,0.1-0.3,0-0.5-0.2c-0.2-0.1-0.3-0.2-0.5-0.3c-0.3-0.2-0.3-0.3,0-0.5c0.1,0,0.1,0,0.2-0.1c0.2-0.2,0.2-0.3-0.1-0.3h-1.5
		c-0.3,0-0.4-0.1-0.4-0.4v-0.5c0-0.3,0.1-0.4,0.4-0.4h3.3c0.2,0.1,0.5-0.1,0.8-0.5c0.2-0.2,0.1-0.3-0.1-0.3h-2.6
		c-0.2,0-0.3,0.1-0.3,0.3c0,0.2-0.1,0.3-0.4,0.3h-0.7c-0.3,0-0.4-0.1-0.4-0.4V253c0-0.3,0.1-0.4,0.4-0.4h4.3
		C171.6,252.6,171.8,252.5,171.8,252.2z M173.7,256.5c0.3-0.2,0.3-0.3,0.1-0.3h-2c-0.2,0-0.4,0-0.5,0.1c-0.1,0.1-0.1,0.2,0.2,0.2
		l1.2,0.2C172.9,257,173.2,256.8,173.7,256.5z"/>
	<path class="st1" d="M182.2,252.3c0.1-0.3,0.2-0.4,0.5-0.3l0.7,0.2c0.3,0.1,0.4,0.3,0.4,0.6c-0.1,0.5-0.3,1-0.5,1.5
		c-0.2,0.4-0.3,0.7-0.2,0.9v8.9c0,0.3-0.1,0.4-0.4,0.4h-0.7c-0.3,0-0.4-0.1-0.4-0.4v-5.6c0-0.3-0.1-0.4-0.2-0.2
		c-0.2,0.2-0.3,0.2-0.5-0.2l-0.3-0.7c-0.1-0.3-0.1-0.6,0-0.8C181.2,255.4,181.7,253.9,182.2,252.3z M183.5,254.4
		c0-0.3,0.1-0.4,0.4-0.4h3.1c0.3,0,0.4,0.1,0.4,0.4v0.5c0,0.3-0.1,0.4-0.4,0.4h-3.1c-0.3,0-0.4-0.1-0.4-0.4V254.4z M183.7,256.2
		c0-0.3,0.1-0.4,0.4-0.4h2.5c0.3,0,0.4,0.1,0.4,0.4v0.5c0,0.3-0.1,0.4-0.4,0.4h-2.6c-0.3,0-0.4-0.1-0.4-0.4V256.2z M183.7,260.2
		c0-0.3,0.1-0.4,0.4-0.4h2.7c0.3,0,0.4,0.1,0.4,0.4v3.7c0,0.3-0.1,0.4-0.4,0.4h-0.5c-0.3,0-0.4-0.1-0.4-0.2c0-0.2-0.1-0.2-0.4-0.2
		c-0.3,0-0.4,0.1-0.4,0.3c0,0.2-0.1,0.4-0.4,0.4h-0.5c-0.3,0-0.4-0.1-0.4-0.4V260.2z M188.7,252.3c0-0.3,0.1-0.4,0.4-0.4h0.5
		c0.3,0,0.4,0.1,0.4,0.4v0.7c0,0.2,0.1,0.3,0.3,0.3h0.2c0.3,0,0.4,0.1,0.4,0.4c0,0.3,0.1,0.3,0.3,0c0-0.1,0.1-0.2,0.2-0.3
		c0.2-0.3,0.4-0.4,0.6-0.2l0.3,0.2c0.3,0.2,0.4,0.4,0.2,0.7c-0.2,0.4-0.5,0.9-1,1.5c-0.2,0.2-0.1,0.3,0.1,0.3h0.7
		c0.3,0,0.4,0.1,0.4,0.4v0.6c0,0.3-0.1,0.4-0.4,0.4h-1.9c-0.2,0-0.5,0.1-0.7,0.4c-0.3,0.3-0.3,0.4-0.1,0.4h2.3
		c0.3,0,0.4,0.1,0.4,0.4v5.4c0,0.3-0.1,0.4-0.4,0.4h-0.6c-0.3,0-0.4-0.1-0.4-0.3c0-0.2-0.1-0.3-0.3-0.3h-1.1c-0.2,0-0.3,0.1-0.3,0.3
		c0,0.2-0.1,0.3-0.4,0.3h-0.6c-0.3,0-0.4-0.1-0.4-0.4v-4.2c0-0.2-0.1-0.3-0.2-0.2c-0.1,0.1-0.3,0-0.5-0.2c-0.2-0.3-0.4-0.4-0.6-0.4
		h-2.5c-0.3,0-0.4-0.1-0.4-0.4v-0.5c0-0.3,0.1-0.4,0.4-0.4h2.5c0.3,0,0.4,0.1,0.4,0.4c0,0.3,0.1,0.3,0.4,0l0.4-0.3
		c0.2-0.2,0.2-0.3,0-0.3h-0.2c-0.3,0-0.4-0.1-0.4-0.4v-0.6c0-0.3,0.1-0.4,0.4-0.4h0.7c0.2,0,0.3-0.1,0.3-0.3V255
		c0-0.2-0.1-0.3-0.3-0.3h-0.2c-0.3,0-0.4-0.1-0.4-0.4v-0.5c0-0.3,0.1-0.4,0.4-0.4h0.2c0.2,0,0.3-0.1,0.3-0.3V252.3z M184,252.5
		c0-0.3,0.1-0.4,0.4-0.4h2.2c0.3,0,0.4,0.1,0.4,0.4v0.5c0,0.3-0.1,0.4-0.4,0.4h-2.2c-0.3,0-0.4-0.1-0.4-0.4V252.5z M185.9,261.5
		c0-0.2-0.1-0.4-0.4-0.4c-0.3,0-0.4,0.1-0.4,0.3v0.7c0,0.2,0.1,0.3,0.4,0.3c0.3,0,0.4-0.1,0.4-0.3V261.5z M191.1,260.1
		c0-0.3-0.1-0.4-0.3-0.4h-1.1c-0.2,0-0.3,0.1-0.3,0.4c0,0.3,0.1,0.4,0.3,0.4h1.1C191,260.5,191.1,260.3,191.1,260.1z M191.1,262.2
		c0-0.3-0.1-0.5-0.3-0.5h-1.1c-0.2,0-0.3,0.1-0.3,0.4c0,0.3,0.1,0.5,0.3,0.5h1.1C191,262.7,191.1,262.5,191.1,262.2z M190.4,255.1
		c0.2-0.3,0.2-0.4,0-0.4c-0.2,0-0.3,0.1-0.3,0.4C190.1,255.4,190.2,255.4,190.4,255.1z"/>
	<path class="st1" d="M198.6,252.2c0.1-0.3,0.3-0.4,0.6-0.3l0.7,0.2c0.3,0.1,0.4,0.3,0.3,0.5c-0.1,0.3-0.1,0.4,0.1,0.4h5.9
		c0.3,0,0.4,0.1,0.4,0.4v0.7c0,0.3-0.1,0.4-0.4,0.4h-6.5c-0.2,0-0.4,0.1-0.6,0.4c-0.4,0.9-1,1.8-1.5,2.6c-0.1,0.1-0.1,0.2-0.1,0.5
		v5.9c0,0.3-0.1,0.4-0.4,0.4h-0.8c-0.3,0-0.4-0.1-0.4-0.4v-4.1c0-0.2-0.1-0.3-0.2-0.2c-0.2,0.1-0.4,0.1-0.6-0.2l-0.4-0.4
		c-0.3-0.3-0.3-0.5,0-0.8c1-1,1.8-2.1,2.6-3.4c0.2-0.3,0.1-0.4-0.1-0.4H195c-0.3,0-0.4-0.1-0.4-0.4v-0.7c0-0.3,0.1-0.4,0.4-0.4h3
		c0.2,0,0.4-0.1,0.5-0.4L198.6,252.2z M199,255.9c0-0.3,0.1-0.4,0.4-0.4h6.1c0.3,0,0.4,0.1,0.4,0.4v0.7c0,0.3-0.1,0.5-0.4,0.8
		c-0.4,0.5-0.9,0.9-1.5,1.3c-0.2,0.1-0.3,0.3-0.3,0.3c0,0.1,0.1,0.1,0.3,0.1h2.4c0.3,0,0.4,0.1,0.4,0.4v0.7c0,0.3-0.1,0.4-0.4,0.4
		h-2.4c-0.2,0-0.3,0.1-0.3,0.3v1.7c0,0.5-0.1,0.8-0.2,1.1c-0.1,0.3-0.4,0.5-0.7,0.6c-0.3,0.1-1,0.1-1.9,0c-0.3,0-0.4-0.2-0.5-0.5
		c-0.1-0.2-0.1-0.5-0.1-0.7c-0.1-0.3,0.1-0.4,0.4-0.4c0.5,0.1,1,0.1,1.3,0.1c0.1,0,0.2-0.2,0.2-0.4l0-1.4c0-0.2-0.1-0.3-0.3-0.3
		h-3.1c-0.3,0-0.4-0.1-0.4-0.4v-0.7c0-0.3,0.1-0.4,0.4-0.4h3.1c0.2,0,0.3-0.1,0.3-0.3v-0.5c0-0.3,0.1-0.4,0.3-0.4
		c0.2,0,0.4-0.1,0.7-0.4l0.2-0.2c0.2-0.2,0.3-0.4,0-0.4h-4c-0.3,0-0.4-0.1-0.4-0.4V255.9z"/>
</g>
<circle class="st3" cx="429.5" cy="87.3" r="35.1"/>
<g>
	<g>
		<path class="st1" d="M407.7,81.8c0-0.3,0.1-0.4,0.4-0.4h0.9c0.3,0,0.4,0.1,0.4,0.4c0,0.3,0.1,0.4,0.3,0.4h4.4
			c0.3,0,0.4,0.1,0.4,0.4v0.6c0,0.3-0.1,0.4-0.4,0.4H403c-0.3,0-0.4-0.1-0.4-0.4v-0.6c0-0.3,0.1-0.4,0.4-0.4h4.4
			C407.6,82.2,407.7,82.1,407.7,81.8z M402.6,88c0-0.3,0.1-0.4,0.4-0.4h11c0.3,0,0.4,0.1,0.4,0.4v4.6c-0.2,1.1-0.9,1.6-2.1,1.5
			c-0.3,0-0.5-0.2-0.5-0.5l-0.1-0.7c-0.1-0.3,0-0.4,0.3-0.4c0.2,0,0.3,0,0.5,0c0.2,0,0.3-0.2,0.3-0.5v-2.8c0-0.2-0.1-0.3-0.3-0.3
			h-7.9c-0.2,0-0.3,0.1-0.3,0.3v4.4c0,0.3-0.1,0.4-0.4,0.4h-0.8c-0.3,0-0.4-0.1-0.4-0.4V88z M404.2,84.4c0-0.3,0.1-0.4,0.4-0.4h7.8
			c0.3,0,0.4,0.1,0.4,0.4v2.4c0,0.3-0.1,0.4-0.4,0.4h-7.8c-0.3,0-0.4-0.1-0.4-0.4V84.4z M405.5,89.8c0-0.3,0.1-0.4,0.4-0.4h5.2
			c0.3,0,0.4,0.1,0.4,0.4v2.5c0,0.3-0.1,0.4-0.4,0.4h-3.8c-0.2,0-0.3,0.1-0.3,0.3c0,0.2-0.1,0.3-0.4,0.3h-0.6
			c-0.3,0-0.4-0.1-0.4-0.4V89.8z M411.3,85.6c0-0.2-0.1-0.3-0.3-0.3H406c-0.2,0-0.3,0.1-0.3,0.3c0,0.2,0.1,0.3,0.3,0.3h4.9
			C411.2,85.9,411.3,85.8,411.3,85.6z M410,91.1c0-0.2-0.1-0.4-0.3-0.4h-2.4c-0.2,0-0.3,0.1-0.3,0.3c0,0.2,0.1,0.4,0.3,0.4h2.4
			C409.9,91.4,410,91.3,410,91.1z"/>
		<path class="st1" d="M420,87.7c0.1-0.3,0.3-0.4,0.5-0.3c0.2,0.1,0.5,0.2,0.7,0.3c0.3,0.1,0.4,0.3,0.3,0.6c-0.1,0.5-0.3,1-0.5,1.5
			c-0.1,0.2,0,0.4,0.2,0.7c0.3,0.3,0.7,0.7,0.9,1c0.3,0.3,0.3,0.6,0,0.8l-0.5,0.5c-0.2,0.3-0.5,0.3-0.7,0c-0.2-0.2-0.4-0.5-0.6-0.7
			c-0.3-0.3-0.5-0.3-0.7,0c-0.5,0.7-1.2,1.2-2,1.7c-0.3,0.1-0.5,0-0.7-0.3l-0.4-0.7c-0.1-0.3-0.1-0.5,0.2-0.6
			c0.6-0.3,1.2-0.8,1.8-1.4c0.2-0.2,0.1-0.4-0.1-0.6c-0.3-0.3-0.5-0.5-0.8-0.7c-0.3-0.2-0.4-0.5-0.2-0.7c0.1-0.1,0.2-0.3,0.4-0.4
			c0.2-0.3,0.5-0.3,0.8-0.1c0.2,0.2,0.4,0.3,0.7,0.5c0.2,0.2,0.4,0.2,0.5,0L420,87.7z M417.6,85c0.2-0.3,0.4-0.3,0.6-0.1
			c0.1,0.1,0.3,0.2,0.4,0.3c0.3,0.2,0.4,0.5,0.2,0.8c-0.4,0.6-0.7,1.1-1,1.4c-0.3,0.3-0.6,0.3-0.8,0.1l-0.4-0.4
			c-0.2-0.3-0.2-0.6,0.1-0.9C417.1,85.8,417.4,85.4,417.6,85z M418.9,82c0-0.3,0.1-0.4,0.4-0.4h0.8c0.3,0,0.4,0.1,0.4,0.4v0.7
			c0,0.2,0.1,0.3,0.3,0.3h1.7c0.3,0,0.4,0.1,0.4,0.4v0.7c0,0.3-0.1,0.4-0.4,0.4h-1.2c-0.2,0-0.2,0.1,0,0.4c0.2,0.2,0.4,0.5,0.6,0.8
			c0.3,0.3,0.3,0.5,0.1,0.8l-0.4,0.5c-0.2,0.3-0.5,0.3-0.7,0.1c-0.4-0.4-0.7-0.9-1-1.4c-0.1-0.3,0-0.5,0.3-0.8
			c0.3-0.1,0.4-0.3,0.5-0.4c0,0-0.2,0-0.4,0H417c-0.3,0-0.4-0.1-0.4-0.4v-0.7c0-0.3,0.1-0.4,0.4-0.4h1.6c0.2,0,0.3-0.1,0.3-0.3V82z
			 M424.2,82c0.1-0.3,0.2-0.4,0.5-0.3c0.2,0.1,0.5,0.1,0.7,0.2c0.4,0.1,0.5,0.3,0.4,0.6l-0.2,0.7c-0.1,0.2,0,0.4,0.2,0.4h2.6
			c0.3,0,0.4,0.1,0.4,0.4v0.7c0,0.3-0.1,0.4-0.3,0.4s-0.4,0.1-0.4,0.4c-0.3,1.6-0.7,3.1-1.4,4.6c-0.1,0.2-0.1,0.4,0.1,0.7
			c0.6,0.7,1.1,1.2,1.6,1.6c0.3,0.2,0.3,0.4,0.1,0.7l-0.4,0.7c-0.2,0.3-0.5,0.4-0.8,0.1c-0.7-0.6-1.2-1.1-1.5-1.5
			c-0.2-0.3-0.4-0.2-0.7,0.1c-0.5,0.7-1.2,1.2-1.9,1.7c-0.3,0.1-0.5,0.1-0.7-0.2c-0.1-0.1-0.2-0.3-0.3-0.4c-0.2-0.3-0.2-0.5,0.1-0.7
			c0.7-0.4,1.4-1,2.1-1.9c0.2-0.2,0.2-0.5,0.1-0.7c-0.2-0.5-0.5-1.1-0.7-1.8c-0.1-0.2-0.2-0.3-0.2-0.1c-0.1,0.1-0.3,0.1-0.5-0.1
			c-0.2-0.2-0.4-0.3-0.6-0.5c-0.3-0.2-0.3-0.5-0.2-0.7C423.1,85.4,423.8,83.8,424.2,82z M426.7,85.3c0-0.2-0.1-0.4-0.3-0.4h-1
			c-0.2,0-0.4,0.1-0.5,0.4c-0.2,0.4-0.3,0.7-0.2,1c0.2,0.6,0.4,1.2,0.7,1.9c0.1,0.3,0.3,0.3,0.4,0C426.3,87.4,426.5,86.4,426.7,85.3
			z"/>
		<path class="st1" d="M433,81.9c0-0.3,0.1-0.4,0.4-0.4h0.7c0.3,0,0.4,0.1,0.4,0.4c0,0.5,0,0.9-0.1,1.4c-0.1,0.2,0,0.4,0.2,0.5
			c0.4,0.2,0.8,0.4,1.3,0.7c0.3,0.2,0.3,0.4,0.1,0.7l-0.2,0.2c-0.2,0.2-0.2,0.4,0,0.4h1.4c0.2,0,0.2-0.1,0-0.4
			c-0.2-0.3-0.2-0.5,0-0.6c0.9-0.5,1.4-1.1,1.5-1.9l0.1-0.9c0-0.3,0.1-0.5,0.4-0.5h0.6c0.3,0,0.4,0.1,0.4,0.4c0,0.4,0,0.9-0.1,1.3
			c0,0.3,0,0.4,0.2,0.5c0.4,0.2,0.8,0.5,1.3,0.8c0.3,0.2,0.3,0.4,0,0.7l-0.2,0.2c-0.2,0.2-0.2,0.3,0,0.3h0.6c0.3,0,0.4,0.1,0.4,0.4
			v1.5c0,0.3-0.1,0.4-0.4,0.4h-0.7c-0.3,0-0.4-0.1-0.4-0.4v-0.3c0-0.2-0.1-0.3-0.3-0.3h-8.2c-0.2,0-0.3,0.1-0.3,0.3v0.3
			c0,0.3-0.1,0.4-0.4,0.4h-0.7c-0.3,0-0.4-0.1-0.4-0.4v-1.6c0-0.3,0.1-0.4,0.4-0.4h0.6c0.2,0,0.2-0.1,0-0.4c-0.3-0.3-0.3-0.5,0-0.7
			c0.9-0.5,1.4-1.1,1.5-1.8C432.9,82.6,433,82.3,433,81.9z M431.1,82.5c0.1-0.3,0.2-0.4,0.5-0.3c0.1,0,0.3,0.1,0.4,0.1
			c0.3,0.1,0.5,0.3,0.4,0.6c0,0.2-0.1,0.5-0.3,0.9c-0.1,0.3-0.4,0.4-0.7,0.2l-0.3-0.1c-0.3-0.2-0.4-0.4-0.2-0.7L431.1,82.5z
			 M432.4,88c0-0.3,0.1-0.4,0.4-0.4h7.3c0.3,0,0.4,0.1,0.4,0.4v2c0,0.3-0.1,0.4-0.4,0.4h-2.6c-0.2,0-0.4,0.1-0.4,0.2
			c0,0.2,0,0.2,0.3,0.2h3.5c0.3,0,0.4,0.1,0.4,0.4v2.5c0,0.3-0.1,0.4-0.4,0.4h-0.7c-0.3,0-0.4-0.1-0.4-0.2c0-0.1-0.1-0.2-0.3-0.2
			h-5.9c-0.2,0-0.3,0.1-0.3,0.2c0,0.1-0.1,0.2-0.4,0.2h-0.7c-0.3,0-0.4-0.1-0.4-0.4v-2.5c0-0.3,0.1-0.4,0.4-0.4h2.9
			c0.2,0,0.4-0.1,0.4-0.2c0.1-0.2,0-0.2-0.2-0.2h-2.3c-0.3,0-0.4-0.1-0.4-0.4V88z M434,85.1c-0.3-0.2-0.5-0.1-0.7,0.1l-0.4,0.3
			c-0.3,0.2-0.3,0.3-0.1,0.3h1.9c0.2,0,0.2-0.1-0.1-0.3C434.5,85.3,434.2,85.2,434,85.1z M439.7,92.3c0-0.2-0.1-0.3-0.3-0.3h-5.9
			c-0.2,0-0.3,0.1-0.3,0.3c0,0.2,0.1,0.3,0.3,0.3h5.9C439.6,92.6,439.7,92.5,439.7,92.3z M438.9,88.9c0-0.2-0.1-0.3-0.3-0.3h-4.3
			c-0.2,0-0.3,0.1-0.3,0.3c0,0.2,0.1,0.3,0.3,0.3h4.3C438.8,89.2,438.9,89.1,438.9,88.9z M435,82.5c0.1-0.3,0.3-0.5,0.5-0.4
			c0.1,0,0.3,0.1,0.4,0.1c0.3,0.1,0.4,0.2,0.3,0.5c0,0.2-0.1,0.5-0.3,0.8c-0.1,0.3-0.3,0.3-0.6,0.2l-0.3-0.1
			c-0.3-0.2-0.4-0.4-0.3-0.7C434.9,82.8,435,82.6,435,82.5z M436.7,82.6c0.1-0.3,0.2-0.4,0.5-0.3l0.5,0.1c0.3,0.1,0.4,0.3,0.3,0.5
			c-0.1,0.3-0.1,0.5-0.3,0.8c-0.2,0.3-0.4,0.4-0.7,0.2l-0.3-0.2c-0.3-0.1-0.3-0.3-0.2-0.6L436.7,82.6z M439.7,85
			c-0.2-0.1-0.4-0.1-0.6,0.1c-0.1,0.1-0.3,0.3-0.4,0.4c-0.3,0.2-0.3,0.3,0,0.3h1.8c0.2,0,0.2-0.1-0.1-0.3L439.7,85z M440.8,82.5
			c0.1-0.3,0.3-0.5,0.5-0.4c0.1,0,0.3,0.1,0.4,0.1c0.3,0.1,0.4,0.2,0.3,0.5c-0.1,0.3-0.2,0.5-0.3,0.8c-0.2,0.3-0.4,0.4-0.7,0.2
			l-0.3-0.1c-0.3-0.1-0.4-0.4-0.2-0.7L440.8,82.5z"/>
		<path class="st1" d="M446.5,81.9c0.1-0.3,0.3-0.4,0.6-0.3l0.7,0.2c0.3,0.1,0.4,0.2,0.4,0.2s0.1,0.2,0.4,0.4
			c0.4,0.3,0.7,0.5,1.1,0.8c0.3,0.3,0.4,0.6,0.2,0.8l-0.4,0.4c-0.2,0.3-0.5,0.3-0.8,0.1c-0.3-0.3-0.7-0.6-1-0.8
			c-0.2-0.2-0.4-0.1-0.6,0.2c-0.2,0.3-0.4,0.5-0.6,0.8c-0.2,0.2-0.2,0.3,0.1,0.3h2.4c0.3,0,0.4,0.1,0.4,0.4v0.6
			c0,0.3-0.1,0.4-0.4,0.4h-0.4c-0.2,0-0.3,0.1-0.3,0.4c0,0.3,0.1,0.5,0.3,0.5h0.8c0.3,0,0.4,0.1,0.4,0.4v0.6c0,0.3-0.1,0.4-0.4,0.4
			h-0.8c-0.2,0-0.3,0.1-0.3,0.3v2.2c0,0.2,0.1,0.3,0.4,0.3l0.7-0.1c0.3-0.1,0.5,0.1,0.5,0.4c0,0.1,0,0.3,0.1,0.5
			c0.1,0.3-0.1,0.5-0.4,0.6c-1.3,0.3-2.6,0.6-3.9,0.8c-0.3,0-0.5-0.1-0.6-0.4l-0.2-0.7c-0.1-0.3,0-0.5,0.3-0.5l1.2-0.2
			c0.2,0,0.3-0.2,0.3-0.4v-2.5c0-0.2-0.1-0.3-0.3-0.3h-0.9c-0.3,0-0.4-0.1-0.4-0.4v-0.6c0-0.3,0.1-0.4,0.4-0.4h0.9
			c0.2,0,0.3-0.1,0.3-0.4c0-0.3-0.1-0.5-0.3-0.5H446c-0.3,0-0.4-0.1-0.4-0.4v-0.2c0-0.2,0-0.3-0.1-0.2c-0.1,0.1-0.3,0-0.6-0.2
			l-0.1-0.1c-0.4-0.3-0.4-0.6-0.2-0.8C445.3,83.8,446,82.9,446.5,81.9z M445.5,89.5c0.3-0.1,0.5,0,0.6,0.3l0.3,1.1
			c0.1,0.3-0.1,0.5-0.3,0.5l-0.5,0.2c-0.3,0.1-0.5,0-0.6-0.3c-0.1-0.4-0.1-0.8-0.2-1.1c-0.1-0.3,0-0.5,0.2-0.6L445.5,89.5z
			 M448.6,89.7c0.1-0.3,0.2-0.4,0.5-0.4l0.6,0.2c0.3,0.1,0.4,0.2,0.3,0.5l-0.2,0.9c-0.1,0.3-0.3,0.5-0.6,0.4l-0.4-0.1
			c-0.3-0.1-0.4-0.3-0.4-0.6L448.6,89.7z M450.3,82.4c0.3-0.2,0.6-0.3,0.8-0.5c0.4,0.5,0.7,1,1,1.6c0.1,0.3,0.1,0.5-0.2,0.7
			l-0.4,0.2c-0.3,0.2-0.5,0.1-0.7-0.2c-0.1-0.3-0.3-0.6-0.6-1.1C450,82.9,450,82.6,450.3,82.4z M452.6,81.9c0-0.3,0.1-0.4,0.4-0.4
			h0.7c0.3,0,0.4,0.1,0.4,0.4v2.8c0,0.2,0.1,0.3,0.3,0.3h1.8c0.3,0,0.4,0.1,0.4,0.4v7.1c0,0.4-0.2,0.8-0.5,1.1
			c-0.5,0.4-1.1,0.5-1.8,0.4c-0.3-0.1-0.5-0.2-0.6-0.5l-0.2-0.7c-0.1-0.3,0.1-0.4,0.3-0.3c0.5,0.2,0.9,0.1,1-0.1
			c0.1-0.1,0.1-0.2,0.1-0.4v-0.6c0-0.2-0.1-0.3-0.3-0.3h-2.5c-0.2,0-0.3,0.1-0.3,0.3v2.3c0,0.3-0.1,0.4-0.4,0.4h-0.8
			c-0.3,0-0.4-0.1-0.4-0.4v-8.2c0-0.3,0.1-0.4,0.4-0.4h1.5c0.2,0,0.3-0.1,0.3-0.3V81.9z M455.1,87c0-0.3-0.1-0.4-0.3-0.4h-2.5
			c-0.2,0-0.3,0.1-0.3,0.4c0,0.3,0.1,0.4,0.3,0.4h2.5C455,87.3,455.1,87.2,455.1,87z M455.1,89.2c0-0.3-0.1-0.4-0.3-0.4h-2.5
			c-0.2,0-0.3,0.1-0.3,0.4c0,0.3,0.1,0.4,0.3,0.4h2.5C455,89.6,455.1,89.5,455.1,89.2z M455.4,82.4c0.2-0.3,0.4-0.4,0.6-0.3l0.4,0.2
			c0.3,0.1,0.4,0.4,0.2,0.6c-0.2,0.5-0.5,1-0.7,1.4c-0.2,0.3-0.5,0.3-0.7,0.1c-0.1-0.1-0.2-0.1-0.3-0.2c-0.3-0.3-0.4-0.6-0.2-0.9
			C455.1,83.1,455.2,82.8,455.4,82.4z"/>
	</g>
</g>
<g>
	<g>
		<path class="st4" d="M187.9,135.6c7.6-23.7,29.2-42.5,54.2-41.6"/>
		<g>
			<polygon class="st5" points="240.3,98.9 249.3,94.7 241.1,88.9 			"/>
		</g>
	</g>
</g>
<g>
	<g>
		<path class="st4" d="M318.2,152.2c13.2-21.1,38.8-34,62.8-27"/>
		<g>
			<polygon class="st5" points="378,129.5 387.8,127.7 381.3,120.1 			"/>
		</g>
	</g>
</g>
<g>
	<g>
		<path class="st4" d="M69,152.9c18.1-17.1,46-23.2,67.6-10.4"/>
		<g>
			<polygon class="st5" points="132.6,146 142.5,146.6 138.1,137.7 			"/>
		</g>
	</g>
</g>
<g>
	<g>
		<path class="st4" d="M171.7,166.3c14.5,10.6,22.7,29.3,17.4,46.3"/>
		<g>
			<polygon class="st5" points="184.9,209.3 186.3,219.2 194.1,213 			"/>
		</g>
	</g>
</g>
<line class="st0" x1="151.3" y1="188.9" x2="196" y2="147.6"/>
<g>
	<g>
		<path class="st4" d="M422.5,173.5c11.4-7.8,18.3-23,15-37.9"/>
		<g>
			<polygon class="st5" points="442.6,135.6 435.3,128.8 433.1,138.5 			"/>
		</g>
	</g>
</g>
<g>
	<path class="st2" d="M81.1,102.8c0-0.3,0.2-0.4,0.5-0.3l0.6,0.2c0.3,0.1,0.4,0.3,0.4,0.5c-0.1,0.8-0.3,1.7-0.5,2.5
		c-0.1,0.3-0.2,0.4-0.5,0.3l-0.5-0.2c-0.3-0.1-0.4-0.3-0.4-0.6C80.8,104.4,80.9,103.6,81.1,102.8z M82.8,94.9
		c0.1-0.3,0.3-0.4,0.6-0.3c0.2,0.1,0.4,0.2,0.7,0.3c0.3,0.1,0.3,0.3,0.2,0.6c-0.3,0.6-0.7,1.2-1,1.8c-0.1,0.2-0.1,0.4,0,0.4
		c0.1,0.1,0.3,0,0.4-0.3l0.5-0.9c0.1-0.3,0.4-0.4,0.6-0.2c0.2,0.1,0.4,0.1,0.5,0.2c0.3,0.1,0.4,0.4,0.3,0.6
		c-0.4,0.7-0.9,1.6-1.6,2.6c-0.1,0.2-0.1,0.3,0.2,0.3c0.2,0,0.3-0.2,0.3-0.4c-0.1-0.2,0-0.4,0.3-0.5l0.5-0.1
		c0.3-0.1,0.5,0.1,0.5,0.3c0.2,0.6,0.3,1.1,0.4,1.7c0,0.3-0.1,0.5-0.4,0.6l-0.5,0.1c-0.3,0.1-0.4,0-0.5-0.2c0-0.2-0.1-0.3-0.3-0.2
		c-0.2,0-0.2,0.2-0.2,0.4v4.8c0,0.3-0.1,0.4-0.4,0.4h-0.7c-0.3,0-0.4-0.1-0.4-0.4V102c0-0.2-0.1-0.3-0.4-0.3l-0.9,0.1
		c-0.3,0-0.5-0.1-0.5-0.5l-0.1-0.5c-0.1-0.3,0.1-0.4,0.3-0.5l0.4,0c0.2,0,0.4-0.1,0.6-0.4c0.1-0.1,0.1-0.2,0.2-0.3
		c0.2-0.3,0.1-0.5-0.1-0.7l-1.1-0.8c-0.3-0.2-0.4-0.4-0.2-0.7c0.1-0.1,0.2-0.2,0.2-0.3c0.2-0.3,0.4-0.4,0.4-0.4c0.1,0,0.2,0,0.3-0.2
		C82.3,96,82.6,95.4,82.8,94.9z M84.9,102.4l0.5-0.1c0.3-0.1,0.5,0,0.5,0.3c0.2,0.7,0.3,1.3,0.4,1.8c0,0.4-0.1,0.6-0.3,0.6
		c-0.2,0-0.4,0.1-0.6,0.2c-0.3,0.1-0.5,0-0.5-0.4c-0.1-0.6-0.2-1.3-0.3-1.9C84.5,102.7,84.6,102.5,84.9,102.4z M88.9,95
		c0-0.3,0.1-0.4,0.4-0.4h0.8c0.3,0,0.4,0.1,0.4,0.4v0.6c0,0.2,0.1,0.3,0.3,0.3h2c0.3,0,0.4,0.1,0.4,0.4v0.6c0,0.3-0.1,0.4-0.4,0.4
		H90c-0.2,0-0.4,0.1-0.5,0.4c-0.2,0.5-0.4,1-0.6,1.4c-0.1,0.2,0,0.3,0.3,0.2l1.5-0.2c0.2,0,0.3-0.2,0.2-0.5l-0.1-0.1
		c-0.2-0.3-0.1-0.5,0.2-0.6l0.6-0.2c0.3-0.1,0.5,0,0.6,0.3c0.4,0.9,0.8,1.7,1,2.5c0.1,0.3,0,0.5-0.3,0.6c-0.2,0.1-0.5,0.1-0.7,0.2
		c-0.3,0.1-0.5,0-0.6-0.3c0-0.1,0-0.1,0-0.2c-0.1-0.3-0.1-0.4-0.2-0.4c-0.1,0-0.2,0.2-0.2,0.4v4c0,0.6,0.2,0.7,0.7,0.4
		c0.2-0.2,0.2-0.6,0.3-1.1c0-0.3,0.2-0.4,0.5-0.3c0.1,0.1,0.3,0.2,0.4,0.3c0.3,0.2,0.4,0.4,0.4,0.7c0,0.4-0.1,0.7-0.2,1.1
		c-0.1,0.5-0.4,0.8-0.8,0.9c-0.9,0.2-1.6,0.1-2.1-0.1c-0.4-0.2-0.6-0.6-0.7-1.3v-4.4c0-0.2-0.1-0.3-0.4-0.3c-0.3,0-0.4,0.2-0.4,0.5
		c0,1.3-0.2,2.4-0.4,3.3c-0.3,0.8-0.8,1.5-1.4,2.1c-0.3,0.3-0.6,0.3-0.8,0l-0.3-0.4c-0.2-0.3-0.1-0.6,0.2-1c0.3-0.3,0.5-0.7,0.7-1.1
		c0.3-0.6,0.4-1.6,0.5-2.8c0-0.2-0.1-0.3-0.4-0.3l-0.1,0c-0.3,0-0.4-0.1-0.5-0.4l-0.1-0.7c-0.1-0.3,0.1-0.4,0.4-0.5
		c0.3,0,0.5-0.1,0.6-0.3c0.3-0.5,0.5-1,0.7-1.5c0.1-0.3,0-0.4-0.2-0.4h-1.2c-0.3,0-0.4-0.1-0.4-0.4v-0.6c0-0.3,0.1-0.4,0.4-0.4h2
		c0.2,0,0.3-0.1,0.3-0.3V95z"/>
	<path class="st2" d="M95.1,100c0-0.3,0.1-0.4,0.4-0.4h10.8c0.3,0,0.4,0.1,0.4,0.4v0.8c0,0.3-0.1,0.4-0.4,0.4H95.6
		c-0.3,0-0.4-0.1-0.4-0.4V100z"/>
	<path class="st2" d="M117.7,94.9c0.3-0.3,0.6-0.3,0.8-0.1c0.1,0.1,0.3,0.2,0.4,0.3c0.2,0.2,0.2,0.5,0,0.7l-0.7,0.5
		c-0.3,0.2-0.3,0.3,0,0.5c0.2,0.1,0.5,0.1,0.8-0.1c0.2-0.2,0.5-0.4,0.7-0.6c0.3-0.3,0.5-0.3,0.8-0.1l0.4,0.3c0.3,0.2,0.3,0.5,0,0.7
		l-0.5,0.4c-0.2,0.2-0.2,0.3,0.1,0.4l0.7,0.3c0.4,0.1,0.5,0.3,0.3,0.6c-0.1,0.2-0.2,0.4-0.3,0.6c-0.2,0.3-0.4,0.4-0.6,0.3l-0.9-0.4
		c-0.2-0.1-0.4-0.1-0.4,0.1v0.3c0,0.4,0.2,0.6,0.6,0.4c0,0,0.1-0.1,0.1-0.3c0-0.1,0.2-0.2,0.4,0l0.5,0.2c0.4,0.2,0.5,0.4,0.5,0.7
		c0,0.1-0.1,0.3-0.2,0.4c-0.1,0.2-0.4,0.3-0.8,0.4c-0.8,0.1-1.4,0-1.8-0.1c-0.5-0.1-0.8-0.4-0.8-0.8c-0.1-0.3-0.1-0.5-0.1-0.8
		c0-0.2-0.1-0.3-0.3-0.3H117c-0.2,0-0.4,0.1-0.4,0.4c-0.1,0.7-0.4,1.3-1.1,1.7c-0.2,0.2-0.2,0.2,0.1,0.2h4.7c0.3,0,0.4,0.1,0.4,0.4
		c0.1,0.4,0,0.8-0.2,1c-0.3,0.5-0.6,1-1,1.4c-0.2,0.2-0.2,0.4,0.1,0.5l1.2,0.3c0.3,0.1,0.5,0.2,0.4,0.5l-0.3,0.7
		c-0.1,0.3-0.3,0.4-0.6,0.4c-0.8-0.2-1.6-0.4-2.3-0.8c-0.2-0.1-0.4-0.1-0.7,0.1c-0.6,0.3-1.3,0.6-2.1,0.8c-0.3,0.1-0.5,0-0.6-0.3
		c-0.1-0.2-0.2-0.4-0.3-0.5c-0.2-0.3-0.1-0.5,0.2-0.6c0.6-0.1,1.1-0.3,1.6-0.4c0.2-0.1,0.2-0.3,0-0.6c-0.3-0.4-0.5-0.7-0.7-1
		c-0.1-0.2-0.3-0.3-0.5-0.3c-0.2,0-0.3-0.1-0.3-0.4v-0.6c0-0.3,0-0.4,0.1-0.4c0.1,0,0.1-0.1-0.1-0.4l-0.2-0.3
		c-0.2-0.2-0.2-0.2-0.2,0.1v0.4c0,0.3-0.1,0.4-0.4,0.4h-2.2c-0.2,0-0.4,0.1-0.4,0.4c0,0.2,0.1,0.4,0.3,0.4h2.5
		c0.3,0,0.4,0.1,0.4,0.4c-0.1,1.4-0.3,2.5-0.7,3.1c-0.6,0.7-1.4,0.9-2.5,0.6l-0.2,0c-0.3-0.1-0.5-0.2-0.5-0.5
		c-0.1-0.3-0.2-0.5-0.2-0.8c-0.1-0.3,0.1-0.4,0.3-0.3c0.5,0.1,1.1,0.1,1.7,0c0.3-0.2,0.4-0.4,0.5-0.8c0.1-0.3,0-0.4-0.2-0.4h-1.3
		c-0.2,0-0.3,0-0.4,0.1c0,0.1-0.2,0.1-0.4,0.1h-0.7c-0.3,0-0.4-0.1-0.4-0.4l0.3-2.9c0.1-0.3,0.2-0.5,0.5-0.5h2.1
		c0.2,0,0.3-0.1,0.3-0.4c0-0.3-0.1-0.5-0.3-0.5h-0.6c-0.3,0-0.4,0-0.4-0.1c0-0.1-0.1-0.1-0.4,0.1c-0.4,0.2-0.8,0.3-1.2,0.4
		c-0.3,0.1-0.5,0-0.7-0.3l-0.1-0.3c-0.1-0.3-0.1-0.6,0.2-0.7c0.4-0.1,0.8-0.3,1.2-0.4c0.2-0.1,0.2-0.3-0.1-0.6
		c-0.3-0.3-0.2-0.5,0.1-0.8l0.4-0.3c0.3-0.2,0.6-0.2,0.8,0l0.3,0.2c0.2,0.2,0.5,0.2,0.7,0c0.2-0.2,0.5-0.4,0.7-0.6
		c0.2-0.2,0.2-0.3,0-0.3h-3.3c-0.3,0-0.4-0.1-0.4-0.4v-0.6c0-0.3,0.1-0.4,0.4-0.4h5.3c0.3,0,0.4,0.1,0.4,0.3c0,0.2,0.1,0.4,0.4,0.6
		c0.3,0.2,0.5,0.2,0.8,0C117.2,95.3,117.5,95.1,117.7,94.9z M115.6,96.9c-0.3-0.2-0.5-0.2-0.7,0.1c-0.5,0.5-0.9,0.9-1.3,1.2
		c-0.3,0.2-0.3,0.3,0,0.3h0.2c0.3,0,0.4,0.1,0.4,0.4v1.4c0,0.2,0.1,0.3,0.4,0.1c0.4-0.4,0.6-1,0.6-1.7c0-0.3,0.2-0.4,0.4-0.4h1.4
		c0.3,0,0.3-0.1,0.1-0.3C116.6,97.6,116.1,97.3,115.6,96.9z M118.5,103.7c0.2-0.2,0.2-0.3-0.1-0.3h-1.4c-0.2,0-0.2,0.1,0.1,0.4
		l0.2,0.2c0.3,0.2,0.5,0.2,0.8,0L118.5,103.7z"/>
	<path class="st2" d="M122.9,103.1c0-0.3,0.1-0.4,0.4-0.4h11.6c0.3,0,0.4,0.1,0.4,0.4v0.6c0,0.3-0.1,0.4-0.4,0.4h-4.6
		c-0.2,0-0.3,0.1-0.3,0.3c0,0.4,0,0.9,0,1.3c0,0.4-0.2,0.7-0.5,1c-0.6,0.3-1.2,0.4-1.9,0.3c-0.3-0.1-0.4-0.3-0.5-0.6l-0.1-0.7
		c-0.1-0.3,0.1-0.4,0.4-0.3c0.2,0.1,0.4,0.1,0.5,0.1c0.2,0.1,0.4-0.1,0.5-0.5v-0.6c0-0.2-0.1-0.3-0.3-0.3h-4.7
		c-0.3,0-0.4-0.1-0.4-0.4V103.1z M123,95.2c0-0.3,0.1-0.4,0.4-0.4h11.3c0.3,0,0.4,0.1,0.4,0.4v0.6c0,0.3-0.1,0.4-0.4,0.4h-3.1
		c-0.2,0-0.3,0.1-0.3,0.2c0,0.2,0.1,0.3,0.3,0.3h2.4c0.3,0,0.4,0.1,0.4,0.4v2.9c0,0.3-0.1,0.4-0.4,0.4h-9.9c-0.3,0-0.4-0.1-0.4-0.4
		v-2.9c0-0.3,0.1-0.4,0.4-0.4h2.3c0.2,0,0.3-0.1,0.3-0.2c0-0.2-0.1-0.3-0.3-0.3h-3.1c-0.3,0-0.4-0.1-0.4-0.4V95.2z M125,104.6
		c0.3-0.2,0.6-0.1,0.8,0.1l0.4,0.3c0.3,0.2,0.3,0.5,0,0.7c-0.5,0.4-1.3,0.7-2.2,1.1c-0.3,0.1-0.5,0-0.7-0.2l-0.3-0.5
		c-0.2-0.3-0.2-0.6,0.1-0.6C123.9,105.1,124.5,104.9,125,104.6z M124.5,101.3c0-0.3,0.1-0.4,0.4-0.4h8.6c0.3,0,0.4,0.1,0.4,0.4v0.6
		c0,0.3-0.1,0.4-0.4,0.4h-8.6c-0.3,0-0.4-0.1-0.4-0.4V101.3z M126.8,98.6c0-0.3-0.1-0.4-0.3-0.4h-0.8c-0.2,0-0.3,0.1-0.3,0.4
		c0,0.3,0.1,0.4,0.3,0.4h0.8C126.7,99,126.8,98.9,126.8,98.6z M129.8,96.5c0-0.2-0.1-0.3-0.3-0.3h-0.8c-0.2,0-0.3,0.1-0.3,0.2
		c0,0.2,0.1,0.3,0.3,0.3h0.8C129.7,96.7,129.8,96.6,129.8,96.5z M129.8,98.6c0-0.3-0.1-0.4-0.3-0.4h-0.8c-0.2,0-0.3,0.1-0.3,0.4
		c0,0.3,0.1,0.4,0.3,0.4h0.8C129.7,99,129.8,98.9,129.8,98.6z M131.8,104.7c0.2-0.2,0.5-0.2,0.7-0.1c0.6,0.3,1.4,0.5,2.1,0.8
		c0.3,0.1,0.3,0.2,0.2,0.5c-0.1,0.2-0.3,0.5-0.4,0.7c-0.2,0.3-0.4,0.4-0.6,0.3c-0.8-0.3-1.6-0.7-2.4-1.2c-0.3-0.2-0.2-0.4,0-0.6
		L131.8,104.7z M132.9,98.6c0-0.3-0.1-0.4-0.3-0.4h-0.9c-0.2,0-0.3,0.1-0.3,0.4c0,0.3,0.1,0.4,0.3,0.4h0.9
		C132.8,99,132.9,98.9,132.9,98.6z"/>
	<path class="st2" d="M92.6,111.5c0.3-0.1,0.6,0,0.8,0.2c0.1,0.1,0.2,0.3,0.4,0.4c0.2,0.3,0.2,0.5,0,0.6l-1.5,0.5
		c-0.2,0.1-0.4,0.2-0.4,0.4v1.1c0,0.2,0.1,0.3,0.3,0.3h1.5c0.3,0,0.4,0.1,0.4,0.4v0.7c0,0.3-0.1,0.4-0.4,0.4h-1.5
		c-0.2,0-0.3,0.1-0.3,0.2c0,0.1,0.1,0.3,0.4,0.5c0.5,0.4,1,0.8,1.5,1.2c0.3,0.2,0.3,0.5,0.1,0.8l-0.4,0.5c-0.2,0.3-0.4,0.3-0.7,0
		l-0.6-0.6c-0.3-0.2-0.4-0.2-0.4,0v4.3c0,0.3-0.1,0.4-0.4,0.4h-0.8c-0.3,0-0.4-0.1-0.4-0.4V120c0-0.3-0.1-0.3-0.2-0.1
		c-0.2,0.3-0.5,0.7-0.7,1c-0.3,0.3-0.5,0.4-0.7,0.1c-0.1-0.1-0.2-0.3-0.4-0.4c-0.2-0.3-0.2-0.6,0-0.8c0.7-0.9,1.3-1.8,1.8-2.8
		c0.1-0.2,0.1-0.4-0.2-0.4h-1.5c-0.3,0-0.4-0.1-0.4-0.4v-0.7c0-0.3,0.1-0.4,0.4-0.4h1.6c0.2,0,0.3-0.1,0.3-0.3V114
		c0-0.2-0.1-0.3-0.4-0.3l-0.8,0.2c-0.3,0.1-0.5,0-0.6-0.3c-0.1-0.2-0.2-0.4-0.3-0.7c-0.2-0.3-0.1-0.5,0.2-0.5
		C90,112.1,91.4,111.9,92.6,111.5z M94.5,112.9c0-0.3,0.1-0.4,0.4-0.4h4.8c0.3,0,0.4,0.1,0.4,0.4v10.3c0,0.3-0.1,0.4-0.4,0.4h-0.7
		c-0.3,0-0.4-0.1-0.4-0.4v-0.2c0-0.2-0.1-0.3-0.3-0.3h-1.8c-0.2,0-0.3,0.1-0.3,0.3v0.4c0,0.3-0.1,0.4-0.4,0.4h-0.7
		c-0.3,0-0.4-0.1-0.4-0.4V112.9z M98.5,114.3c0-0.2-0.1-0.3-0.3-0.3h-1.8c-0.2,0-0.3,0.1-0.3,0.3v6.4c0,0.2,0.1,0.3,0.3,0.3h1.8
		c0.2,0,0.3-0.1,0.3-0.3V114.3z"/>
	<path class="st2" d="M103.4,111.8c0-0.3,0.1-0.4,0.4-0.4h0.8c0.3,0,0.4,0.1,0.4,0.4v1.4c0,0.2,0.1,0.3,0.3,0.3h0.6
		c0.3,0,0.4,0.1,0.4,0.4v0.7c0,0.3-0.1,0.4-0.4,0.4h-0.6c-0.2,0-0.3,0.1-0.3,0.3v1.4c-0.1,0.4,0.1,0.4,0.5,0.2
		c0.3-0.1,0.4,0,0.5,0.3l0.1,0.5c0.1,0.3-0.1,0.5-0.4,0.6l-0.4,0.2c-0.2,0.1-0.3,0.3-0.3,0.5v3.2c0,0.3-0.1,0.7-0.2,1.1
		c-0.2,0.4-0.6,0.6-1.2,0.7c-0.3,0-0.6,0-0.9,0c-0.3,0-0.5-0.2-0.6-0.5l-0.1-0.7c-0.1-0.3,0.1-0.5,0.4-0.4l0.4,0.1
		c0.3,0,0.5,0,0.6-0.1c0.1-0.2,0.1-0.3,0.1-0.5v-2.1c0-0.2-0.1-0.3-0.4-0.2c-0.1,0-0.2,0.1-0.3,0.1c-0.3,0.1-0.5,0-0.6-0.3l-0.2-0.7
		c-0.1-0.3,0-0.6,0.2-0.6c0.3-0.1,0.6-0.2,0.9-0.2c0.2-0.1,0.3-0.2,0.3-0.4v-1.9c0-0.2-0.1-0.3-0.3-0.3h-0.8c-0.3,0-0.4-0.1-0.4-0.4
		v-0.7c0-0.3,0.1-0.4,0.4-0.4h0.8c0.2,0,0.3-0.1,0.3-0.3V111.8z M106.5,117.6c0-0.3,0.1-0.4,0.4-0.4h7.2c0.3,0,0.4,0.1,0.4,0.4v0.6
		c0,0.3-0.1,0.4-0.4,0.4h-2.5c-0.2,0-0.3,0.1-0.3,0.4c0,0.3,0.1,0.5,0.3,0.5h1.8c0.3,0,0.4,0.1,0.4,0.4v0.6c0,0.3-0.1,0.4-0.4,0.4
		h-1.8c-0.2,0-0.3,0.1-0.3,0.3v0.6c0,0.2,0.1,0.3,0.4,0.4c0.6,0,1.2,0,1.8,0l0.6-0.1c0.3,0,0.4,0.1,0.3,0.4
		c-0.1,0.3-0.2,0.5-0.2,0.8c-0.1,0.3-0.3,0.4-0.5,0.4c-1.1,0-2.2,0-3.3-0.2c-0.8-0.1-1.5-0.3-2.2-0.7c-0.2-0.1-0.4-0.1-0.6,0.2
		c-0.1,0.2-0.2,0.3-0.4,0.5c-0.2,0.3-0.5,0.3-0.7,0l-0.3-0.3c-0.3-0.3-0.3-0.5-0.1-0.8c0.7-0.9,1.1-2,1.3-3c0-0.3,0.2-0.4,0.5-0.3
		l0.5,0.1c0.3,0.1,0.4,0.2,0.4,0.5c-0.1,0.4-0.1,0.7-0.2,1.1c-0.1,0.2,0,0.4,0.3,0.6l0.5,0.2c0.2,0.1,0.4,0,0.4-0.2V119
		c0-0.2-0.1-0.3-0.3-0.3h-2.4c-0.3,0-0.4-0.1-0.4-0.4V117.6z M107.1,112c0-0.3,0.1-0.4,0.4-0.4h5.5c0.3,0,0.4,0.1,0.4,0.4v4.3
		c0,0.3-0.1,0.4-0.4,0.4h-5.5c-0.3,0-0.4-0.1-0.4-0.4V112z M111.9,113.2c0-0.2-0.1-0.3-0.3-0.3h-2.6c-0.2,0-0.3,0.1-0.3,0.3
		c0,0.2,0.1,0.3,0.3,0.3h2.6C111.8,113.5,111.9,113.4,111.9,113.2z M111.9,115c0-0.2-0.1-0.3-0.3-0.3h-2.6c-0.2,0-0.3,0.1-0.3,0.3
		c0,0.2,0.1,0.3,0.3,0.3h2.6C111.8,115.3,111.9,115.2,111.9,115z"/>
	<path class="st2" d="M115.7,112c0-0.3,0.1-0.4,0.4-0.4h5c0.3,0,0.4,0.1,0.4,0.4v0.6c0,0.3-0.1,0.4-0.4,0.4h-0.7
		c-0.2,0-0.3,0.1-0.3,0.3v0.3c0,0.2,0.1,0.3,0.3,0.3h0.6c0.3,0,0.4,0.1,0.4,0.4v4.1c0,0.2,0.1,0.2,0.3-0.1c0.3-0.5,0.5-1,0.7-1.4
		c0.1-0.2,0-0.3-0.2-0.3s-0.3-0.1-0.3-0.4V112c0-0.3,0.1-0.4,0.4-0.4h5.2c0.3,0,0.4,0.1,0.4,0.4v4.2c0,0.3-0.1,0.4-0.4,0.4h-1.3
		c-0.2,0-0.3,0.1-0.3,0.3v0.3c0,0.2,0.1,0.3,0.3,0.3h1.4c0.3,0,0.4,0.1,0.4,0.4v0.6c0,0.3-0.1,0.4-0.4,0.4h-1.4
		c-0.2,0-0.3,0.1-0.3,0.4c0,0.3,0.1,0.5,0.3,0.5h1.1c0.3,0,0.4,0.1,0.4,0.4v0.6c0,0.3-0.1,0.4-0.4,0.4h-1.1c-0.2,0-0.3,0.1-0.3,0.3
		v0.3c0,0.2,0.1,0.3,0.3,0.3h1.8c0.3,0,0.4,0.1,0.4,0.4v0.6c0,0.3-0.1,0.4-0.4,0.4h-5.7c-0.3,0-0.4-0.1-0.4-0.4v-0.6
		c0-0.3,0.1-0.4,0.4-0.4h1.7c0.2,0,0.3-0.1,0.3-0.3v-0.3c0-0.2-0.1-0.3-0.3-0.3h-1.3c-0.3,0-0.4-0.1-0.4-0.4v-0.6
		c0-0.3,0.1-0.4,0.4-0.4h1.3c0.2,0,0.3-0.1,0.3-0.4c0-0.3-0.1-0.5-0.3-0.5h-0.7c-0.2,0-0.4,0.1-0.6,0.4c-0.2,0.2-0.4,0.3-0.6,0.1
		l-0.2-0.2c-0.2-0.2-0.4-0.2-0.4,0.1v4.2c0,0.3-0.1,0.4-0.4,0.4h-0.5c-0.3,0-0.4-0.1-0.4-0.3c0-0.2-0.1-0.3-0.3-0.3h-2.3
		c-0.2,0-0.3,0.1-0.3,0.3c0,0.2-0.1,0.3-0.4,0.3h-0.5c-0.3,0-0.4-0.1-0.4-0.4v-9.2c0-0.3,0.1-0.4,0.4-0.4h0.6c0.2,0,0.3-0.1,0.3-0.3
		v-0.3c0-0.2-0.1-0.3-0.3-0.3h-0.8c-0.3,0-0.4-0.1-0.4-0.4V112z M118.8,115.7c0-0.2,0-0.3-0.1-0.3c-0.1,0-0.2,0.1-0.2,0.3
		c0.1,1.1-0.1,2.1-0.5,3c-0.2,0.3-0.3,0.4-0.5,0.2c-0.2-0.1-0.3,0-0.3,0.2c0,0.3,0.1,0.5,0.3,0.5h2.3c0.2,0,0.3-0.1,0.3-0.4
		c0-0.3-0.1-0.4-0.3-0.4c-0.6,0-0.9-0.3-1.1-1V115.7z M117.4,115.7c0-0.2,0-0.3-0.1-0.3c-0.1,0-0.1,0.1-0.1,0.3v1.5
		c0,0.2,0,0.3,0.1,0.2C117.4,116.8,117.5,116.3,117.4,115.7z M120.1,121.5c0-0.3-0.1-0.4-0.3-0.4h-2.3c-0.2,0-0.3,0.1-0.3,0.4
		c0,0.3,0.1,0.4,0.3,0.4h2.3C120,121.9,120.1,121.8,120.1,121.5z M118.8,113.3c0-0.2,0-0.4-0.1-0.4c-0.1,0-0.2,0.1-0.2,0.3v0.3
		c0,0.2,0,0.3,0.1,0.3c0.1,0,0.2-0.1,0.2-0.3V113.3z M120.1,115.7c0-0.2,0-0.3-0.1-0.3c-0.1,0-0.2,0.1-0.2,0.3v1.4
		c0,0.3,0,0.4,0.2,0.5c0.1,0.1,0.2,0,0.2-0.2V115.7z M124.3,117c0-0.2-0.1-0.3-0.3-0.3h-0.8c-0.3,0-0.3,0.1,0,0.2l0.2,0.1
		c0.4,0.1,0.5,0.3,0.4,0.5c-0.1,0.2,0,0.3,0.2,0.3c0.2,0,0.3-0.1,0.3-0.3V117z M126.4,113.2c0-0.2-0.1-0.3-0.3-0.3h-2.5
		c-0.2,0-0.3,0.1-0.3,0.2c0,0.2,0.1,0.3,0.3,0.3h2.5C126.3,113.4,126.4,113.4,126.4,113.2z M126.4,115c0-0.2-0.1-0.3-0.3-0.3h-2.5
		c-0.2,0-0.3,0.1-0.3,0.3c0,0.2,0.1,0.3,0.3,0.3h2.5C126.3,115.3,126.4,115.2,126.4,115z"/>
</g>
<g>
	<g>
		<path class="st2" d="M208.8,51.8c0-0.3,0.1-0.4,0.4-0.4h2.7c0.3,0,0.4,0.1,0.4,0.4v1.4c0,0.2,0,0.3,0,0.5c0,0.2,0.1,0.3,0.4,0.3
			h3.9c0.3,0,0.4,0.1,0.4,0.4V62c0,0.6-0.3,1.2-0.9,1.5c-0.6,0.3-1.3,0.3-2,0.2c-0.3,0-0.5-0.2-0.5-0.6l-0.1-0.7
			c-0.1-0.3,0.1-0.4,0.4-0.3c0.5,0.1,0.9,0.1,1.2,0.1c0.2-0.1,0.3-0.3,0.3-0.6v-5.7c0-0.2-0.1-0.3-0.3-0.3h-2.2
			c-0.2,0-0.3,0.1-0.2,0.4c0.3,1.3,1,2.6,2.1,3.6c0.4,0.3,0.4,0.6,0.3,0.8l-0.3,0.5c-0.2,0.4-0.5,0.4-0.8,0.2
			c-1.1-0.9-1.8-2-2.3-3.2c-0.1-0.2-0.2-0.2-0.3,0.1c-0.7,1.4-1.5,2.5-2.5,3.3c-0.3,0.2-0.5,0.2-0.7-0.1l-0.3-0.6
			c-0.2-0.3-0.1-0.6,0.1-0.8c1.2-1.1,2.1-2.4,2.6-4c0.1-0.2,0-0.4-0.2-0.4h-2.6c-0.2,0-0.3,0.1-0.3,0.3v7.5c0,0.3-0.1,0.4-0.4,0.4
			h-0.8c-0.3,0-0.4-0.1-0.4-0.4v-8.9c0-0.3,0.1-0.4,0.4-0.4h4.2c0.2,0,0.3-0.1,0.3-0.4v-0.4c0-0.2-0.1-0.3-0.3-0.3h-1.2
			c-0.3,0-0.4-0.1-0.4-0.4V51.8z"/>
		<path class="st2" d="M219.7,51.8c0-0.3,0.1-0.4,0.4-0.4h10.2c0.3,0,0.4,0.1,0.4,0.4v2.2c0,0.3-0.1,0.4-0.4,0.4h-4.2
			c-0.2,0-0.3,0.1-0.4,0.2c0,0.1,0.1,0.2,0.3,0.2h4.9c0.3,0,0.4,0.1,0.4,0.4v0.4c0,0.3-0.1,0.4-0.4,0.4h-5.1c-0.2,0-0.4,0.1-0.4,0.2
			c0,0.1,0.1,0.2,0.3,0.2h3.9c0.3,0,0.4,0.1,0.4,0.4v5.1c0,0.2,0.1,0.3,0.3,0.3h0.7c0.3,0,0.4,0.1,0.4,0.4v0.5
			c0,0.3-0.1,0.4-0.4,0.4h-11.8c-0.3,0-0.4-0.1-0.4-0.4v-0.5c0-0.3,0.1-0.4,0.4-0.4h0.5c0.2,0,0.3-0.1,0.3-0.3v-5.1
			c0-0.3,0.1-0.4,0.4-0.4h3c0.2,0,0.3-0.1,0.4-0.2c0-0.1-0.1-0.2-0.3-0.2h-4c-0.3,0-0.4-0.1-0.4-0.4v-0.4c0-0.3,0.1-0.4,0.4-0.4h4.2
			c0.2,0,0.3-0.1,0.4-0.2c0-0.1-0.1-0.2-0.3-0.2h-3.8c-0.3,0-0.4-0.1-0.4-0.4V51.8z M222.9,52.9c0-0.2-0.1-0.3-0.3-0.3h-1.1
			c-0.2,0-0.3,0.1-0.3,0.3c0,0.2,0.1,0.3,0.3,0.3h1C222.8,53.2,222.9,53.1,222.9,52.9z M228.6,57.7c0-0.1-0.1-0.2-0.3-0.2h-6.3
			c-0.2,0-0.3,0.1-0.3,0.2c0,0.1,0.1,0.2,0.3,0.2h6.2C228.5,57.9,228.6,57.8,228.6,57.7z M228.6,59.1c0-0.1-0.1-0.2-0.3-0.2h-6.2
			c-0.2,0-0.3,0.1-0.3,0.2c0,0.1,0.1,0.2,0.3,0.2h6.2C228.5,59.3,228.6,59.2,228.6,59.1z M228.6,60.5c0-0.1-0.1-0.2-0.3-0.2h-6.2
			c-0.2,0-0.3,0.1-0.3,0.2c0,0.1,0.1,0.2,0.3,0.2h6.2C228.5,60.7,228.6,60.7,228.6,60.5z M228.6,62c0-0.2-0.1-0.2-0.3-0.2h-6.2
			c-0.2,0-0.3,0.1-0.3,0.2c0,0.2,0.1,0.2,0.3,0.2h6.2C228.5,62.2,228.6,62.1,228.6,62z M226,52.9c0-0.2-0.1-0.3-0.3-0.3h-1
			c-0.2,0-0.3,0.1-0.3,0.3c0,0.2,0.1,0.3,0.3,0.3h1C225.9,53.2,226,53.1,226,52.9z M229.2,52.9c0-0.2-0.1-0.3-0.3-0.3h-1.1
			c-0.2,0-0.3,0.1-0.3,0.3c0,0.2,0.1,0.3,0.3,0.3h1C229.1,53.2,229.2,53.1,229.2,52.9z"/>
		<path class="st2" d="M239,51.5c0-0.2,0.1-0.4,0.4-0.4h0.8c0.3,0,0.4,0.1,0.4,0.3c0,0.2,0.1,0.4,0.3,0.4h4.3c0.3,0,0.4,0.1,0.4,0.4
			v0.5c0,0.3-0.1,0.4-0.4,0.4h-9.6c-0.2,0-0.3,0.1-0.3,0.3v4.6c-0.1,2-0.3,3.7-0.8,5.2c-0.1,0.3-0.3,0.4-0.6,0.2l-0.5-0.3
			c-0.3-0.2-0.4-0.4-0.3-0.7c0.4-1.4,0.7-3,0.7-4.9v-5.3c0-0.3,0.1-0.4,0.4-0.4h4.5C238.9,51.9,239,51.7,239,51.5z M235.9,58.5
			c0-0.3,0.1-0.4,0.4-0.4h8.1c0.3,0,0.4,0.1,0.4,0.4v3c0,0.3-0.1,0.4-0.4,0.4h-1.2c-0.2,0-0.2,0,0.1,0.2l1.5,0.3
			c0.3,0.1,0.4,0.2,0.2,0.5l-0.3,0.5c-0.2,0.3-0.4,0.4-0.7,0.3c-0.6-0.2-1.4-0.5-2.4-0.9c-0.3-0.1-0.4-0.3-0.2-0.5
			c0.2-0.2,0.2-0.3-0.1-0.3H239c-0.2,0-0.2,0.1,0,0.3c0.2,0.2,0.2,0.4-0.1,0.6c-0.8,0.4-1.9,0.7-3.1,0.9c0,0-0.1-0.2-0.2-0.5
			c0-0.1-0.1-0.2-0.1-0.3c-0.1-0.3-0.1-0.5,0.2-0.6c0.5-0.1,1-0.2,1.5-0.4c0.3-0.1,0.3-0.2,0-0.2h-1c-0.3,0-0.4-0.1-0.4-0.4V58.5z
			 M235.5,57.1c0-0.3,0.1-0.4,0.4-0.4h9.1c0.3,0,0.4,0.1,0.4,0.4v0.2c0,0.3-0.1,0.4-0.4,0.4h-9.1c-0.3,0-0.4-0.1-0.4-0.4V57.1z
			 M237.4,53.5c0-0.1,0.1-0.2,0.4-0.2h0.7c0.3,0,0.4,0.1,0.4,0.2c0,0.1,0.1,0.2,0.3,0.2h2.2c0.2,0,0.3-0.1,0.3-0.2
			c0-0.1,0.1-0.2,0.4-0.2h0.6c0.3,0,0.4,0.1,0.4,0.2c0,0.1,0.1,0.2,0.3,0.2h1.4c0.3,0,0.4,0.1,0.4,0.4v0.4c0,0.3-0.1,0.4-0.4,0.4
			h-1.4c-0.2,0-0.3,0.1-0.3,0.3v0.7c0,0.3-0.1,0.4-0.4,0.4h-5c-0.3,0-0.4-0.1-0.4-0.4v-0.7c0-0.2-0.1-0.3-0.3-0.3h-1.1
			c-0.3,0-0.4-0.1-0.4-0.4v-0.4c0-0.3,0.1-0.4,0.4-0.4h1.1C237.3,53.7,237.4,53.6,237.4,53.5z M239.5,59.3c0-0.1-0.1-0.2-0.3-0.2
			h-1.5c-0.2,0-0.3,0-0.3,0.1c0,0.1,0.1,0.1,0.3,0.1h1.5C239.4,59.5,239.5,59.4,239.5,59.3z M239.5,60.6c0-0.1-0.1-0.2-0.3-0.2h-1.5
			c-0.2,0-0.3,0-0.3,0.1c0,0.1,0.1,0.2,0.3,0.2h1.5C239.4,60.8,239.5,60.7,239.5,60.6z M241.7,55.1c0-0.2-0.1-0.2-0.3-0.2h-2.2
			c-0.2,0-0.3,0.1-0.3,0.2c0,0.1,0.1,0.2,0.3,0.2h2.2C241.6,55.2,241.7,55.2,241.7,55.1z M243.3,59.3c0-0.1-0.1-0.2-0.3-0.2h-1.7
			c-0.2,0-0.3,0-0.3,0.1c0,0.1,0.1,0.1,0.3,0.1h1.7C243.2,59.5,243.3,59.4,243.3,59.3z M243.3,60.6c0-0.1-0.1-0.2-0.3-0.2h-1.7
			c-0.2,0-0.3,0-0.3,0.1c0,0.1,0.1,0.2,0.3,0.2h1.7C243.2,60.8,243.3,60.7,243.3,60.6z"/>
		<path class="st2" d="M252.5,51.5c0-0.3,0.1-0.4,0.4-0.4h0.9c0.3,0,0.4,0.1,0.4,0.4v0.8c0,0.2,0.1,0.3,0.3,0.3h3.7
			c0.3,0,0.4,0.1,0.4,0.4v0.7c0,0.3-0.1,0.4-0.4,0.4h-3.7c-0.2,0-0.3,0.1-0.3,0.3v1c0,0.2,0.1,0.3,0.3,0.3h4.5
			c0.3,0,0.4,0.1,0.4,0.4v0.8c0,0.3-0.1,0.4-0.4,0.4h-11.5c-0.3,0-0.4-0.1-0.4-0.4v-0.8c0-0.3,0.1-0.4,0.4-0.4h4.7
			c0.2,0,0.3-0.1,0.3-0.3v-1c0-0.2-0.1-0.3-0.3-0.3H250c-0.2,0-0.4,0.1-0.6,0.4c-0.1,0.2-0.3,0.5-0.5,0.7c-0.2,0.3-0.4,0.3-0.7,0.1
			l-0.5-0.4c-0.3-0.2-0.3-0.4-0.1-0.7c0.5-0.8,1-1.7,1.3-2.6c0.1-0.3,0.3-0.4,0.5-0.3l0.7,0.2c0.3,0.1,0.5,0.3,0.4,0.6
			c-0.1,0.3,0,0.4,0.2,0.4h1.5c0.2,0,0.3-0.1,0.3-0.3V51.5z M248.4,58.7c0-0.3,0.1-0.4,0.4-0.4h9.2c0.3,0,0.4,0.1,0.4,0.4v4.7
			c0,0.3-0.1,0.4-0.4,0.4h-0.8c-0.3,0-0.4-0.1-0.4-0.3c0-0.2-0.1-0.3-0.3-0.3h-6.1c-0.2,0-0.3,0.1-0.3,0.3c0,0.2-0.1,0.3-0.4,0.3
			h-0.8c-0.3,0-0.4-0.1-0.4-0.4V58.7z M256.7,60.1c0-0.2-0.1-0.3-0.3-0.3h-6.1c-0.2,0-0.3,0.1-0.3,0.3v1.2c0,0.2,0.1,0.3,0.3,0.3
			h6.1c0.2,0,0.3-0.1,0.3-0.3V60.1z"/>
		<path class="st2" d="M265.8,51.3c0.3-0.1,0.6,0,0.8,0.2c0.1,0.1,0.2,0.3,0.4,0.4c0.2,0.3,0.2,0.5,0,0.6l-1.5,0.5
			c-0.2,0.1-0.4,0.2-0.4,0.4v1.1c0,0.2,0.1,0.3,0.3,0.3h1.5c0.3,0,0.4,0.1,0.4,0.4V56c0,0.3-0.1,0.4-0.4,0.4h-1.5
			c-0.2,0-0.3,0.1-0.3,0.2c0,0.1,0.1,0.3,0.4,0.5c0.5,0.4,1,0.8,1.5,1.2c0.3,0.2,0.3,0.5,0.1,0.8l-0.4,0.5c-0.2,0.3-0.4,0.3-0.7,0
			l-0.6-0.6c-0.3-0.2-0.4-0.2-0.4,0v4.3c0,0.3-0.1,0.4-0.4,0.4h-0.8c-0.3,0-0.4-0.1-0.4-0.4v-3.6c0-0.3-0.1-0.3-0.2-0.1
			c-0.2,0.3-0.5,0.7-0.7,1c-0.3,0.3-0.5,0.4-0.7,0.1c-0.1-0.1-0.2-0.3-0.4-0.4c-0.2-0.3-0.2-0.6,0-0.8c0.7-0.9,1.3-1.8,1.8-2.8
			c0.1-0.2,0.1-0.4-0.2-0.4h-1.5c-0.3,0-0.4-0.1-0.4-0.4v-0.7c0-0.3,0.1-0.4,0.4-0.4h1.6c0.2,0,0.3-0.1,0.3-0.3v-0.7
			c0-0.2-0.1-0.3-0.4-0.3l-0.8,0.2c-0.3,0.1-0.5,0-0.6-0.3c-0.1-0.2-0.2-0.4-0.3-0.7c-0.2-0.3-0.1-0.5,0.2-0.5
			C263.2,52,264.7,51.7,265.8,51.3z M267.7,52.7c0-0.3,0.1-0.4,0.4-0.4h4.8c0.3,0,0.4,0.1,0.4,0.4v10.3c0,0.3-0.1,0.4-0.4,0.4h-0.7
			c-0.3,0-0.4-0.1-0.4-0.4v-0.2c0-0.2-0.1-0.3-0.3-0.3h-1.8c-0.2,0-0.3,0.1-0.3,0.3v0.4c0,0.3-0.1,0.4-0.4,0.4h-0.7
			c-0.3,0-0.4-0.1-0.4-0.4V52.7z M271.8,54.1c0-0.2-0.1-0.3-0.3-0.3h-1.8c-0.2,0-0.3,0.1-0.3,0.3v6.4c0,0.2,0.1,0.3,0.3,0.3h1.8
			c0.2,0,0.3-0.1,0.3-0.3V54.1z"/>
		<path class="st2" d="M215.8,68.6c0-0.3,0.1-0.4,0.4-0.4h2.7c0.3,0,0.4,0.1,0.4,0.4V70c0,0.2,0,0.3,0,0.5c0,0.2,0.1,0.3,0.4,0.3
			h3.9c0.3,0,0.4,0.1,0.4,0.4v7.6c0,0.6-0.3,1.2-0.9,1.5c-0.6,0.3-1.3,0.3-2,0.2c-0.3,0-0.5-0.2-0.5-0.6l-0.1-0.7
			c-0.1-0.3,0.1-0.4,0.4-0.3c0.5,0.1,0.9,0.1,1.2,0.1c0.2-0.1,0.3-0.3,0.3-0.6v-5.7c0-0.2-0.1-0.3-0.3-0.3h-2.2
			c-0.2,0-0.3,0.1-0.2,0.4c0.3,1.3,1,2.6,2.1,3.6c0.4,0.3,0.4,0.6,0.3,0.8l-0.3,0.5c-0.2,0.4-0.5,0.4-0.8,0.2
			c-1.1-0.9-1.8-2-2.3-3.2c-0.1-0.2-0.2-0.2-0.3,0.1c-0.7,1.4-1.5,2.5-2.5,3.3c-0.3,0.2-0.5,0.2-0.7-0.1l-0.3-0.6
			c-0.2-0.3-0.1-0.6,0.1-0.8c1.2-1.1,2.1-2.4,2.6-4c0.1-0.2,0-0.4-0.2-0.4h-2.6c-0.2,0-0.3,0.1-0.3,0.3v7.5c0,0.3-0.1,0.4-0.4,0.4
			h-0.8c-0.3,0-0.4-0.1-0.4-0.4v-8.9c0-0.3,0.1-0.4,0.4-0.4h4.2c0.2,0,0.3-0.1,0.3-0.4V70c0-0.2-0.1-0.3-0.3-0.3h-1.2
			c-0.3,0-0.4-0.1-0.4-0.4V68.6z"/>
		<path class="st2" d="M231.9,72c0.3-0.2,0.6-0.2,0.8,0l0.4,0.3c0.3,0.2,0.4,0.4,0.4,0.4c-0.1,0.1,0,0.2,0.3,0.3
			c1.7,1,3.2,1.8,4.6,2.2c0.3,0.1,0.4,0.3,0.2,0.6l-0.4,0.7c-0.2,0.3-0.4,0.3-0.7,0.2l-0.2-0.1c-0.2-0.1-0.4-0.1-0.4,0.2v3.3
			c0,0.3-0.1,0.4-0.4,0.4h-0.8c-0.3,0-0.4-0.1-0.4-0.2c0-0.1-0.1-0.2-0.3-0.2h-5c-0.2,0-0.3,0-0.3,0.2c0,0.1-0.1,0.2-0.4,0.2h-0.8
			c-0.3,0-0.4-0.1-0.4-0.4v-3.6c0-0.2-0.1-0.3-0.4-0.1c-0.1,0-0.2,0.1-0.3,0.1c-0.3,0.1-0.6,0.1-0.7-0.2l-0.3-0.5
			c-0.2-0.3-0.1-0.5,0.2-0.6C228.3,74.4,230.1,73.3,231.9,72z M231.7,68.4c0-0.3,0.1-0.4,0.4-0.4h0.9c0.3,0,0.4,0.1,0.4,0.4v0.2
			c0,0.2,0.1,0.3,0.3,0.3h4.3c0.3,0,0.4,0.1,0.4,0.4v1.8c0,0.3-0.1,0.4-0.4,0.4h-0.8c-0.3,0-0.4-0.1-0.4-0.4v-0.3
			c0-0.2-0.1-0.3-0.3-0.3h-8c-0.2,0-0.3,0.1-0.3,0.3v0.3c0,0.3-0.1,0.4-0.4,0.4h-0.8c-0.3,0-0.4-0.1-0.4-0.4v-1.8
			c0-0.3,0.1-0.4,0.4-0.4h4.4c0.2,0,0.3-0.1,0.3-0.3V68.4z M229.4,71.1c0.4-0.3,0.7-0.3,0.9-0.1l0.4,0.3c0.3,0.2,0.3,0.5,0,0.7
			c-0.8,0.7-1.6,1.3-2.5,1.7c-0.3,0.1-0.5,0.1-0.7-0.2c-0.1-0.2-0.2-0.4-0.3-0.5c-0.2-0.3-0.1-0.5,0.2-0.6
			C227.9,72,228.6,71.6,229.4,71.1z M232.6,74c-0.2-0.2-0.5-0.2-0.8,0c-0.7,0.5-1.4,0.9-2.1,1.3c-0.3,0.1-0.3,0.2,0.1,0.2h4.9
			c0.3,0,0.3-0.1,0.1-0.2C234,75,233.3,74.5,232.6,74z M235.3,77.5c0-0.2-0.1-0.3-0.3-0.3h-5c-0.2,0-0.3,0.1-0.3,0.3v0.9
			c0,0.2,0.1,0.3,0.3,0.3h5c0.2,0,0.3-0.1,0.3-0.3V77.5z M234.5,71c0.3-0.2,0.6-0.3,0.8-0.1c0.6,0.5,1.4,0.9,2.2,1.3
			c0.3,0.1,0.3,0.3,0.2,0.6c-0.1,0.2-0.3,0.4-0.4,0.7c-0.2,0.3-0.4,0.4-0.7,0.2c-0.7-0.4-1.6-1-2.5-1.8c-0.3-0.3-0.3-0.5,0-0.7
			L234.5,71z"/>
		<path class="st2" d="M245.6,68.3c0-0.2,0.1-0.4,0.4-0.4h0.8c0.3,0,0.4,0.1,0.4,0.3c0,0.2,0.1,0.4,0.3,0.4h4.6
			c0.3,0,0.4,0.1,0.4,0.4v1.4c0,0.3-0.1,0.4-0.4,0.4h-0.7c-0.3,0-0.4-0.2-0.4-0.5c0-0.3-0.1-0.5-0.3-0.5h-8.4
			c-0.2,0-0.3,0.1-0.3,0.2c0,0.2,0.1,0.2,0.4,0.2c2.1,0,4.6-0.1,7.5-0.3c0.3,0,0.5,0.1,0.6,0.4l0.2,0.4c0.1,0.3,0.1,0.4-0.2,0.4
			l-1,0c-0.3,0-0.2,0.1,0.1,0.2c0,0,0.1,0,0.1,0c0.3,0.1,0.4,0.3,0.2,0.6c-0.1,0.3-0.1,0.4,0.1,0.4h1.9c0.3,0,0.4,0.1,0.4,0.4v0.5
			c0,0.3-0.1,0.4-0.4,0.4h-2.3c-0.3,0-0.3,0.1,0,0.2c0.7,0.2,1.6,0.4,2.6,0.6c0.3,0,0.5,0.2,0.3,0.5l-0.3,0.6
			c-0.1,0.3-0.4,0.4-0.6,0.3l-0.2-0.1c-0.2-0.1-0.3,0-0.3,0.2v3.8c0,0.3-0.1,0.4-0.4,0.4H250c-0.3,0-0.4-0.1-0.4-0.2
			c0-0.2-0.1-0.2-0.3-0.2h-5.9c-0.2,0-0.3,0.1-0.3,0.2c0,0.2-0.1,0.2-0.4,0.2H242c-0.3,0-0.4-0.1-0.4-0.4v-3.9
			c0-0.2-0.1-0.3-0.4-0.2c-0.3,0.1-0.6-0.1-0.8-0.4l-0.2-0.3c-0.2-0.3-0.1-0.5,0.2-0.6c0.9-0.2,1.8-0.4,2.8-0.7
			c0.2-0.1,0.2-0.2-0.1-0.2H241c-0.3,0-0.4-0.1-0.4-0.4V73c0-0.3,0.1-0.4,0.4-0.4h1.3c0.2,0,0.3-0.1,0.2-0.2c-0.1-0.1,0-0.3,0.2-0.4
			l0.2-0.1c0.3-0.1,0.2-0.2-0.2-0.2h-0.4c-0.3,0-0.5-0.1-0.5-0.4c-0.1-0.3-0.3-0.4-0.5-0.4h-0.5c-0.3,0-0.4-0.1-0.4-0.4V69
			c0-0.3,0.1-0.4,0.4-0.4h4.4C245.4,68.6,245.6,68.5,245.6,68.3z M245.5,77c0-0.2-0.1-0.2-0.3-0.2h-1.8c-0.2,0-0.3,0.1-0.3,0.2
			c0,0.2,0.1,0.2,0.3,0.2h1.8C245.4,77.2,245.5,77.1,245.5,77z M245.5,78.6c0-0.2-0.1-0.2-0.3-0.2h-1.8c-0.2,0-0.3,0.1-0.3,0.2
			c0,0.2,0.1,0.2,0.3,0.2h1.8C245.4,78.8,245.5,78.8,245.5,78.6z M247.4,74.3c-0.3-0.2-0.4-0.1-0.4,0.1v0.2c0,0.3-0.1,0.4-0.4,0.4
			h-0.7c-0.3,0-0.4-0.1-0.4-0.4c0-0.3-0.1-0.4-0.4-0.2c-0.5,0.3-1,0.6-1.4,0.7c-0.3,0.1-0.3,0.2,0,0.2h5.3c0.3,0,0.3-0.1,0-0.2
			C248.5,75,248,74.7,247.4,74.3z M245.5,71.9c0-0.2-0.1-0.4-0.3-0.4l-0.9,0c-0.2,0-0.2,0.1,0,0.4l0.2,0.3c0.1,0.2,0.3,0.3,0.6,0.3
			c0.3,0,0.5-0.1,0.5-0.3V71.9z M248.1,71.5l-0.7,0c-0.2,0-0.3,0.1-0.3,0.4v0.4c0,0.2,0.1,0.3,0.3,0.3h0.3c0.2,0,0.4-0.1,0.5-0.4
			c0-0.1,0.1-0.2,0.2-0.4C248.5,71.6,248.4,71.5,248.1,71.5z M249.6,77c0-0.2-0.1-0.2-0.3-0.2h-1.9c-0.2,0-0.3,0.1-0.3,0.2
			c0,0.2,0.1,0.2,0.3,0.2h1.9C249.5,77.2,249.6,77.1,249.6,77z M249.6,78.6c0-0.2-0.1-0.2-0.3-0.2h-1.9c-0.2,0-0.3,0.1-0.3,0.2
			c0,0.2,0.1,0.2,0.3,0.2h1.9C249.5,78.8,249.6,78.8,249.6,78.6z"/>
		<path class="st2" d="M255.5,68.4c0-0.3,0.1-0.4,0.4-0.4h0.8c0.3,0,0.4,0.1,0.4,0.4v1.7c0,0.2,0.1,0.3,0.3,0.3h0.4
			c0.3,0,0.4,0.1,0.4,0.4v0.7c0,0.3-0.1,0.4-0.4,0.4h-0.4c-0.2,0-0.3,0.1-0.3,0.3v1.2c0,0.2,0.1,0.3,0.4,0.2c0,0,0.1,0,0.2,0
			c0.3-0.1,0.4,0,0.5,0.3c0,0.2,0.1,0.3,0.1,0.5c0.1,0.3,0,0.5-0.3,0.6l-0.5,0.2c-0.2,0.1-0.4,0.2-0.4,0.4V79c0,0.4-0.1,0.8-0.3,1.1
			c-0.5,0.4-1.2,0.6-2,0.4c-0.3-0.1-0.5-0.2-0.6-0.5c-0.1-0.2-0.1-0.5-0.1-0.7c0-0.3,0.1-0.4,0.3-0.3l0.4,0.1
			c0.4,0.1,0.6-0.1,0.7-0.5v-2.2c0-0.2-0.1-0.3-0.4-0.2c-0.3,0.1-0.6,0-0.7-0.3l-0.2-0.7c-0.1-0.3,0-0.5,0.3-0.6l0.7-0.2
			c0.2-0.1,0.3-0.2,0.3-0.4v-1.6c0-0.2-0.1-0.3-0.3-0.3h-0.6c-0.3,0-0.4-0.1-0.4-0.4v-0.7c0-0.3,0.1-0.4,0.4-0.4h0.6
			c0.2,0,0.3-0.1,0.3-0.3V68.4z M258.8,68.4c0-0.3,0.1-0.4,0.4-0.4h0.8c0.3,0,0.4,0.1,0.4,0.4v2.9c0,0.2,0.1,0.3,0.3,0.3h1.1
			c0.3,0,0.4,0.1,0.4,0.4v0.7c0,0.3-0.1,0.4-0.4,0.4h-1.1c-0.2,0-0.3,0.1-0.3,0.3v4.3c0,0.2,0.1,0.3,0.4,0.3l0.8-0.2
			c0.3,0,0.4,0.1,0.5,0.4l0.1,0.6c0,0.3-0.1,0.5-0.4,0.6c-1.1,0.3-2.2,0.5-3.2,0.7c-0.3,0-0.5-0.1-0.5-0.4l-0.1-0.7
			c-0.1-0.3,0.1-0.5,0.4-0.5l0.2,0c0.2,0,0.3-0.2,0.3-0.4V68.4z M262.4,68.4c0-0.3,0.1-0.4,0.4-0.4h0.8c0.3,0,0.4,0.1,0.4,0.4v3
			c0,0.2,0.1,0.3,0.4,0.1c0.3-0.1,0.5-0.3,0.8-0.5c0.3-0.2,0.5-0.2,0.8,0c0.1,0.1,0.2,0.3,0.3,0.4c0.3,0.3,0.3,0.6,0,0.8
			c-0.6,0.4-1.3,0.8-1.9,1c-0.2,0.1-0.3,0.3-0.3,0.5v4.6c0.1,0.4,0.4,0.5,0.9,0.4c0.2,0,0.3-0.2,0.3-0.5c0-0.2,0.1-0.5,0.1-0.7
			c0-0.3,0.2-0.4,0.4-0.2l0.6,0.4c0.3,0.2,0.4,0.4,0.3,0.7c-0.1,0.6-0.2,1.2-0.5,1.6c-0.1,0.1-0.4,0.2-0.8,0.2c-0.6,0-1.2,0-1.8-0.1
			c-0.3,0-0.6-0.2-0.8-0.5c-0.1-0.3-0.2-0.6-0.2-0.9V68.4z"/>
	</g>
</g>
<g>
	<path class="st2" d="M147.4,303.4c0.1-0.3,0.4-0.4,0.6-0.3c0.2,0,0.4,0.1,0.6,0.2c0.3,0.1,0.4,0.2,0.4,0.4
		c-0.1,0.2-0.1,0.3,0.1,0.3h1.9c0.2,0,0.4-0.1,0.5-0.4l0-0.1c0.1-0.3,0.3-0.4,0.5-0.3l0.8,0.2c0.3,0.1,0.4,0.2,0.3,0.4
		c-0.1,0.2,0,0.3,0.2,0.3h3.2c0.3,0,0.4,0.1,0.4,0.4v0.5c0,0.3-0.1,0.4-0.4,0.4H153c-0.2,0-0.3,0.1-0.3,0.2c0,0.2,0.1,0.2,0.3,0.2
		h2.9c0.3,0,0.4,0.1,0.4,0.4v0.5c0,0.3-0.1,0.4-0.4,0.4H153c-0.2,0-0.3,0.1-0.3,0.2c0,0.2,0.1,0.2,0.3,0.2h2.9
		c0.3,0,0.4,0.1,0.4,0.4v0.5c0,0.3-0.1,0.4-0.4,0.4H153c-0.2,0-0.3,0.1-0.3,0.2c0,0.2,0.1,0.2,0.3,0.2h3.6c0.3,0,0.4,0.1,0.4,0.4
		v0.5c0,0.3-0.1,0.4-0.4,0.4h-3.8c-0.2,0-0.3,0.1-0.3,0.3c0,0.2,0.1,0.3,0.3,0.3h4.4c0.3,0,0.4,0.1,0.4,0.4v0.5
		c0,0.3-0.1,0.4-0.4,0.4h-2.8c-0.3,0-0.3,0.1-0.1,0.2c1,0.5,2,0.8,3.1,1c0.3,0.1,0.3,0.2,0.2,0.5l-0.4,0.8c-0.1,0.3-0.4,0.4-0.6,0.3
		c-1.2-0.4-2.4-1-3.7-1.9c-0.3-0.2-0.4-0.2-0.4,0v1.9c0,0.3-0.1,0.4-0.4,0.4h-0.7c-0.3,0-0.4-0.1-0.4-0.4v-2c0-0.2-0.1-0.2-0.4,0
		c-1.3,0.9-2.6,1.5-4,1.9c-0.3,0.1-0.6,0-0.8-0.3l-0.3-0.6c-0.2-0.3-0.1-0.5,0.2-0.5c1.2-0.3,2.3-0.7,3.3-1.2c0.3-0.1,0.3-0.2,0-0.2
		h-3.1c-0.3,0-0.4-0.1-0.4-0.4v-0.5c0-0.3,0.1-0.4,0.4-0.4h4.8c0.2,0,0.3-0.1,0.3-0.3c0-0.2-0.1-0.3-0.3-0.3h-2.2
		c-0.2,0-0.3,0-0.3,0.1c0,0.1-0.2,0.1-0.4,0.1h-0.7c-0.3,0-0.4-0.1-0.4-0.4v-3.1c0-0.2-0.1-0.2-0.3-0.1c-0.2,0.2-0.4,0.1-0.6-0.2
		c-0.1-0.2-0.2-0.4-0.3-0.5c-0.2-0.3-0.1-0.6,0.1-0.8C146.4,305,147,304.2,147.4,303.4z M151.2,305.5c0-0.2-0.1-0.2-0.3-0.2h-2.4
		c-0.2,0-0.3,0.1-0.3,0.2c0,0.2,0.1,0.2,0.3,0.2h2.3C151.1,305.7,151.2,305.7,151.2,305.5z M151.2,307.3c0-0.2-0.1-0.2-0.3-0.2h-2.4
		c-0.2,0-0.3,0.1-0.3,0.2c0,0.2,0.1,0.2,0.3,0.2h2.3C151.1,307.5,151.2,307.4,151.2,307.3z M151.2,309c0-0.2-0.1-0.2-0.3-0.2h-2.3
		c-0.2,0-0.3,0.1-0.3,0.2c0,0.2,0.1,0.2,0.3,0.2h2.3C151.1,309.2,151.2,309.2,151.2,309z"/>
	<path class="st2" d="M164.6,303.6c0-0.3,0.1-0.4,0.4-0.4h0.8c0.3,0,0.4,0.1,0.4,0.4v1.4c0,0.2,0.1,0.3,0.3,0.3h4
		c0.3,0,0.4,0.1,0.4,0.4v6.4c0,0.3-0.1,0.4-0.4,0.4h-0.8c-0.3,0-0.4-0.2-0.4-0.5c0-0.3-0.1-0.5-0.3-0.5h-2.4c-0.2,0-0.3,0.1-0.3,0.3
		v3.3c0,0.3-0.1,0.4-0.4,0.4H165c-0.3,0-0.4-0.1-0.4-0.4V312c0-0.2-0.1-0.3-0.3-0.3h-2.4c-0.2,0-0.3,0.2-0.3,0.5
		c0,0.3-0.1,0.5-0.4,0.5h-0.8c-0.3,0-0.4-0.1-0.4-0.4v-6.4c0-0.3,0.1-0.4,0.4-0.4h4c0.2,0,0.3-0.1,0.3-0.3V303.6z M164.6,307.2
		c0-0.2-0.1-0.3-0.3-0.3h-2.4c-0.2,0-0.3,0.1-0.3,0.3v2.6c0,0.2,0.1,0.3,0.3,0.3h2.4c0.2,0,0.3-0.1,0.3-0.3V307.2z M169.3,307.2
		c0-0.2-0.1-0.3-0.3-0.3h-2.4c-0.2,0-0.3,0.1-0.3,0.3v2.6c0,0.2,0.1,0.3,0.3,0.3h2.4c0.2,0,0.3-0.1,0.3-0.3V307.2z"/>
	<path class="st2" d="M175,303.5c0-0.3,0.2-0.4,0.5-0.3l0.8,0.2c0.3,0.1,0.4,0.3,0.3,0.5l-0.2,0.9c-0.1,0.2,0,0.3,0.2,0.3h1.3
		c0.3,0,0.4,0.1,0.4,0.4v1.6c0,0.3,0.1,0.3,0.2,0.1c0.6-1.2,1.1-2.4,1.4-3.6c0.1-0.3,0.3-0.4,0.6-0.3l0.7,0.2
		c0.3,0.1,0.4,0.3,0.3,0.6l-0.2,0.7c-0.1,0.2,0,0.3,0.2,0.3h3.2c0.3,0,0.4,0.1,0.4,0.4c0,0.1,0,0.1,0,0.2v1.8c0,2.5-0.1,4.5-0.3,6
		c0,0.3-0.1,0.7-0.3,1.1c-0.1,0.4-0.4,0.8-0.8,1c-0.5,0.2-1.3,0.3-2.2,0.1c-0.3-0.1-0.4-0.3-0.5-0.5l-0.2-0.8c0-0.3,0.1-0.4,0.4-0.3
		c0.6,0.1,1.1,0.2,1.6,0.2c0.2-0.1,0.3-0.2,0.4-0.4c0.1-0.3,0.2-0.7,0.2-1.1c0.1-1.4,0.1-2.6,0.1-3.5V307c0-0.2-0.1-0.3-0.3-0.3
		h-2.2c-0.2,0-0.4,0.1-0.5,0.4c-0.2,0.6-0.5,1.1-0.9,1.8c-0.2,0.3-0.4,0.3-0.7,0.1l-0.4-0.3c-0.2-0.2-0.3-0.1-0.3,0.1v5.7
		c0,0.3-0.1,0.4-0.4,0.4h-0.8c-0.3,0-0.4-0.1-0.4-0.4c0-0.3-0.1-0.4-0.3-0.4h-1.2c-0.2,0-0.3,0.1-0.3,0.3v0.6c0,0.3-0.1,0.4-0.4,0.4
		h-0.7c-0.3,0-0.4-0.1-0.4-0.4v-9.4c0-0.3,0.1-0.4,0.4-0.4h0.5c0.2,0,0.4-0.1,0.5-0.4C174.9,304.3,175,303.9,175,303.5z M176.9,307
		c0-0.2-0.1-0.4-0.3-0.4h-1.2c-0.2,0-0.3,0.1-0.3,0.3v1.7c0,0.2,0.1,0.3,0.3,0.3h1.2c0.2,0,0.3-0.1,0.3-0.3V307z M176.9,310.8
		c0-0.2-0.1-0.4-0.3-0.4h-1.2c-0.2,0-0.3,0.1-0.3,0.3v1.5c0,0.2,0.1,0.3,0.3,0.3h1.2c0.2,0,0.3-0.1,0.3-0.3V310.8z M180.5,309
		l0.7-0.2c0.3-0.1,0.5,0,0.6,0.3c0.3,0.6,0.6,1.4,0.8,2.2c0.1,0.3,0,0.6-0.3,0.7l-0.8,0.3c-0.3,0.1-0.4,0-0.5-0.3
		c-0.2-0.8-0.4-1.6-0.7-2.3C180.1,309.3,180.2,309.1,180.5,309z"/>
	<path class="st2" d="M190.2,303.6c0.1-0.3,0.3-0.4,0.5-0.3l0.8,0.2c0.3,0.1,0.4,0.3,0.3,0.5c-0.2,0.6-0.5,1.3-0.9,2.1
		c-0.1,0.2-0.1,0.3-0.1,0.6v8.6c0,0.3-0.1,0.4-0.4,0.4h-0.8c-0.3,0-0.4-0.1-0.4-0.4v-5.9c0-0.2-0.1-0.2-0.3,0.1l-0.4,0.6
		c-0.2,0.3-0.4,0.2-0.6-0.2l-0.4-0.7c-0.1-0.3-0.1-0.5,0.1-0.8C188.7,306.9,189.6,305.3,190.2,303.6z M194,303.6
		c0-0.3,0.1-0.4,0.4-0.4l0.9,0.1c0.3,0,0.4,0.2,0.4,0.5c0,0.9,0,1.8,0.1,2.7c0,0.2,0.2,0.3,0.4,0.3l3-0.4c0.3,0,0.5,0.1,0.5,0.4
		l0.1,0.6c0,0.3-0.1,0.5-0.4,0.5l-3.2,0.4c-0.2,0-0.3,0.2-0.3,0.5c0.1,1.6,0.6,3,1.3,4.3c0.3,0.5,0.6,0.8,0.9,0.8
		c0.2-0.3,0.2-0.6,0.2-1.1c0-0.3,0.2-0.4,0.5-0.2l0.7,0.4c0.3,0.2,0.5,0.4,0.4,0.7c-0.2,0.9-0.5,1.5-0.9,1.8
		c-0.6,0.5-1.3,0.4-2.1-0.3c-0.6-0.6-1.2-1.3-1.6-2.2c-0.6-1.2-1-2.6-1.1-4.1c0-0.2-0.2-0.3-0.4-0.3l-2,0.3c-0.3,0-0.4-0.1-0.5-0.4
		l-0.1-0.7c0-0.3,0.1-0.5,0.3-0.5l2.3-0.3c0.2,0,0.3-0.2,0.3-0.4C194.1,305.6,194.1,304.6,194,303.6z M197.4,303.8
		c0.3-0.2,0.6-0.2,0.9,0.2c0.2,0.3,0.4,0.5,0.6,0.8c0.2,0.3,0.2,0.6-0.1,0.8l-0.6,0.4c-0.3,0.2-0.5,0.1-0.6-0.2
		c-0.2-0.3-0.4-0.6-0.6-0.9c-0.2-0.3-0.2-0.6,0.1-0.8L197.4,303.8z"/>
	<path class="st2" d="M201.3,304.2c0-0.3,0.1-0.4,0.4-0.4h3.5c0.3,0,0.4,0.1,0.4,0.4v0.7c0,0.3-0.1,0.4-0.4,0.4h-0.7
		c-0.2,0-0.3,0.1-0.3,0.3v1.7c0,0.2,0.1,0.3,0.3,0.3h0.4c0.3,0,0.4,0.1,0.4,0.4v0.7c0,0.3-0.1,0.4-0.4,0.4h-0.4
		c-0.2,0-0.3,0.1-0.3,0.3v2.4c0,0.2,0.1,0.3,0.4,0.3l0.6-0.2c0.3-0.1,0.4,0.1,0.5,0.4l0.1,0.5c0,0.3-0.1,0.5-0.4,0.6
		c-1.1,0.3-2.2,0.6-3.3,0.8c-0.3,0.1-0.5,0-0.6-0.3c-0.1-0.2-0.1-0.5-0.1-0.7c-0.1-0.3,0.1-0.5,0.4-0.5l0.6-0.1
		c0.2-0.1,0.3-0.2,0.3-0.4v-2.7c0-0.2-0.1-0.3-0.3-0.3h-0.5c-0.3,0-0.4-0.1-0.4-0.4v-0.7c0-0.3,0.1-0.4,0.4-0.4h0.5
		c0.2,0,0.3-0.1,0.3-0.3v-1.7c0-0.2-0.1-0.3-0.3-0.3h-0.6c-0.3,0-0.4-0.1-0.4-0.4V304.2z M205.9,303.9c0-0.3,0.1-0.4,0.4-0.4h6.7
		c0.3,0,0.4,0.1,0.4,0.4v6.4c0,0.3-0.1,0.4-0.4,0.4h-2.2c-0.2,0-0.3,0.1-0.3,0.4c0,0.3,0.1,0.4,0.3,0.4h2.1c0.3,0,0.4,0.1,0.4,0.4
		v0.7c0,0.3-0.1,0.4-0.4,0.4h-2.1c-0.2,0-0.3,0.1-0.3,0.3v0.4c0,0.2,0.1,0.3,0.3,0.3h2.6c0.3,0,0.4,0.1,0.4,0.4v0.7
		c0,0.3-0.1,0.4-0.4,0.4h-7.6c-0.3,0-0.4-0.1-0.4-0.4v-0.7c0-0.3,0.1-0.4,0.4-0.4h2.7c0.2,0,0.3-0.1,0.3-0.3v-0.4
		c0-0.2-0.1-0.3-0.3-0.3h-2.3c-0.3,0-0.4-0.1-0.4-0.4v-0.7c0-0.3,0.1-0.4,0.4-0.4h2.3c0.2,0,0.3-0.1,0.3-0.4c0-0.3-0.1-0.4-0.3-0.4
		h-2.2c-0.3,0-0.4-0.1-0.4-0.4V303.9z M208.9,305.3c0-0.2-0.1-0.4-0.3-0.4h-0.7c-0.2,0-0.3,0.1-0.3,0.3v0.5c0,0.2,0.1,0.3,0.3,0.3
		h0.7c0.2,0,0.3-0.1,0.3-0.3V305.3z M208.9,308c0-0.2-0.1-0.3-0.3-0.3h-0.7c-0.2,0-0.3,0.1-0.3,0.3v0.8c0,0.2,0.1,0.3,0.3,0.3h0.7
		c0.2,0,0.3-0.1,0.3-0.3V308z M211.9,305.3c0-0.2-0.1-0.4-0.3-0.4h-0.7c-0.2,0-0.3,0.1-0.3,0.3v0.5c0,0.2,0.1,0.3,0.3,0.3h0.7
		c0.2,0,0.3-0.1,0.3-0.3V305.3z M211.9,308c0-0.2-0.1-0.3-0.3-0.3h-0.7c-0.2,0-0.3,0.1-0.3,0.3v0.8c0,0.2,0.1,0.3,0.3,0.3h0.7
		c0.2,0,0.3-0.1,0.3-0.3V308z"/>
	<path class="st2" d="M157.8,320.3c0-0.3,0.1-0.4,0.4-0.4h0.9c0.3,0,0.4,0.1,0.4,0.4v1.2c0,0.2,0.1,0.3,0.3,0.3h4.6
		c0.3,0,0.4,0.1,0.4,0.4v0.8c0,0.3-0.1,0.4-0.4,0.4H163c-0.2,0-0.4,0.1-0.4,0.4c-0.3,1.7-1.2,3.3-2.6,4.8c1.3,0.9,2.9,1.6,4.6,2
		c0.3,0.1,0.4,0.3,0.3,0.6c-0.1,0.2-0.2,0.5-0.3,0.7c-0.1,0.3-0.3,0.4-0.6,0.3c-1.8-0.3-3.4-1.1-5-2.2c-0.2-0.2-0.5-0.2-0.7,0
		c-1.1,0.8-2.6,1.7-4.5,2.4c-0.3,0.1-0.5,0-0.7-0.2c-0.2-0.2-0.4-0.5-0.5-0.7c-0.2-0.3-0.2-0.5,0.1-0.6c1.6-0.6,3.1-1.3,4.3-2.2
		c0.2-0.2,0.2-0.4,0-0.7c-1-1.2-1.8-2.7-2.5-4.4c-0.1-0.2-0.2-0.3-0.5-0.3h-1c-0.3,0-0.4-0.1-0.4-0.4v-0.8c0-0.3,0.1-0.4,0.4-0.4
		h4.5c0.2,0,0.3-0.1,0.3-0.3V320.3z M160.8,323.7c0.1-0.2,0-0.3-0.2-0.3h-4.1c-0.2,0-0.3,0.1-0.2,0.4c0.6,1.2,1.2,2.3,2,3.3
		c0.2,0.2,0.4,0.2,0.7-0.1C159.9,326,160.4,324.9,160.8,323.7z"/>
	<path class="st2" d="M169,320.4c0.1-0.3,0.3-0.4,0.5-0.3l0.8,0.2c0.3,0.1,0.4,0.3,0.3,0.6c-0.2,0.5-0.5,1.2-0.8,2.1
		c0,0.1-0.1,0.2-0.1,0.5v8.7c0,0.3-0.1,0.4-0.4,0.4h-0.8c-0.3,0-0.4-0.1-0.4-0.4v-5.9c0-0.2-0.1-0.2-0.3,0.1l-0.3,0.4
		c-0.3,0.3-0.5,0.3-0.6,0l-0.4-0.7c-0.2-0.3-0.2-0.6,0-0.8C167.7,323.7,168.5,322.1,169,320.4z M174,320.4c0-0.3,0.1-0.4,0.4-0.4
		h0.8c0.3,0,0.4,0.1,0.4,0.4v1.7c0,0.2,0.1,0.3,0.3,0.3h1.9c0.3,0,0.4,0.1,0.4,0.4v0.8c0,0.3-0.1,0.4-0.4,0.4H176
		c-0.2,0-0.3,0.1-0.3,0.3v2.1c0,0.2,0.1,0.3,0.3,0.3h2.5c0.3,0,0.4,0.1,0.4,0.4v0.7c0,0.3-0.1,0.4-0.4,0.4H176
		c-0.2,0-0.3,0.1-0.3,0.3v3.5c0,0.3-0.1,0.4-0.4,0.4h-0.8c-0.3,0-0.4-0.1-0.4-0.4v-3.5c0-0.2-0.1-0.3-0.3-0.3h-3.1
		c-0.3,0-0.4-0.1-0.4-0.4v-0.7c0-0.3,0.1-0.4,0.4-0.4h3.1c0.2,0,0.3-0.1,0.3-0.3v-2.1c0-0.2-0.1-0.3-0.3-0.3h-1
		c-0.2,0-0.4,0.1-0.5,0.4c-0.2,0.4-0.4,0.7-0.6,1.1c-0.2,0.3-0.4,0.3-0.7,0.1c-0.2-0.1-0.4-0.3-0.7-0.5c-0.2-0.2-0.3-0.4-0.1-0.7
		c0.6-1,1.1-2.2,1.4-3.5c0.1-0.3,0.3-0.4,0.6-0.3l0.7,0.2c0.3,0.1,0.4,0.3,0.3,0.5L173,322c-0.1,0.2,0,0.4,0.2,0.4h0.5
		c0.2,0,0.3-0.1,0.3-0.3V320.4z"/>
	<path class="st2" d="M184.6,320.3c0.1-0.3,0.3-0.4,0.6-0.3l0.7,0.2c0.3,0.1,0.4,0.3,0.3,0.5c-0.1,0.3-0.1,0.4,0.1,0.4h5.9
		c0.3,0,0.4,0.1,0.4,0.4v0.7c0,0.3-0.1,0.4-0.4,0.4h-6.5c-0.2,0-0.4,0.1-0.6,0.4c-0.4,0.9-1,1.8-1.5,2.6c-0.1,0.1-0.1,0.2-0.1,0.5
		v5.9c0,0.3-0.1,0.4-0.4,0.4h-0.8c-0.3,0-0.4-0.1-0.4-0.4V328c0-0.2-0.1-0.3-0.2-0.2c-0.2,0.1-0.4,0.1-0.6-0.2l-0.4-0.4
		c-0.3-0.3-0.3-0.5,0-0.8c1-1,1.8-2.1,2.6-3.4c0.2-0.3,0.1-0.4-0.1-0.4H181c-0.3,0-0.4-0.1-0.4-0.4v-0.7c0-0.3,0.1-0.4,0.4-0.4h3
		c0.2,0,0.4-0.1,0.5-0.4L184.6,320.3z M185,324c0-0.3,0.1-0.4,0.4-0.4h6.1c0.3,0,0.4,0.1,0.4,0.4v0.7c0,0.3-0.1,0.5-0.4,0.8
		c-0.4,0.5-0.9,0.9-1.5,1.3c-0.2,0.1-0.3,0.3-0.3,0.3c0,0.1,0.1,0.1,0.3,0.1h2.4c0.3,0,0.4,0.1,0.4,0.4v0.7c0,0.3-0.1,0.4-0.4,0.4
		h-2.4c-0.2,0-0.3,0.1-0.3,0.3v1.7c0,0.5-0.1,0.8-0.2,1.1c-0.1,0.3-0.4,0.5-0.7,0.6c-0.3,0.1-1,0.1-1.9,0c-0.3,0-0.4-0.2-0.5-0.5
		c-0.1-0.2-0.1-0.5-0.1-0.7c-0.1-0.3,0.1-0.4,0.4-0.4c0.5,0.1,1,0.1,1.3,0.1c0.1,0,0.2-0.2,0.2-0.4l0-1.4c0-0.2-0.1-0.3-0.3-0.3
		h-3.1c-0.3,0-0.4-0.1-0.4-0.4v-0.7c0-0.3,0.1-0.4,0.4-0.4h3.1c0.2,0,0.3-0.1,0.3-0.3v-0.5c0-0.3,0.1-0.4,0.3-0.4
		c0.2,0,0.4-0.1,0.7-0.4l0.2-0.2c0.2-0.2,0.3-0.4,0-0.4h-4c-0.3,0-0.4-0.1-0.4-0.4V324z"/>
	<path class="st2" d="M196.2,320.4c0.1-0.3,0.2-0.4,0.5-0.3l0.7,0.2c0.3,0.1,0.4,0.3,0.4,0.6c-0.1,0.5-0.3,1-0.5,1.5
		c-0.2,0.4-0.3,0.7-0.2,0.9v8.9c0,0.3-0.1,0.4-0.4,0.4h-0.7c-0.3,0-0.4-0.1-0.4-0.4v-5.6c0-0.3-0.1-0.4-0.2-0.2
		c-0.2,0.2-0.3,0.2-0.5-0.2l-0.3-0.7c-0.1-0.3-0.1-0.6,0-0.8C195.2,323.5,195.7,322,196.2,320.4z M197.5,322.5
		c0-0.3,0.1-0.4,0.4-0.4h3.1c0.3,0,0.4,0.1,0.4,0.4v0.5c0,0.3-0.1,0.4-0.4,0.4h-3.1c-0.3,0-0.4-0.1-0.4-0.4V322.5z M197.7,324.3
		c0-0.3,0.1-0.4,0.4-0.4h2.5c0.3,0,0.4,0.1,0.4,0.4v0.5c0,0.3-0.1,0.4-0.4,0.4h-2.6c-0.3,0-0.4-0.1-0.4-0.4V324.3z M197.7,328.3
		c0-0.3,0.1-0.4,0.4-0.4h2.7c0.3,0,0.4,0.1,0.4,0.4v3.7c0,0.3-0.1,0.4-0.4,0.4h-0.5c-0.3,0-0.4-0.1-0.4-0.2c0-0.2-0.1-0.2-0.4-0.2
		c-0.3,0-0.4,0.1-0.4,0.3c0,0.2-0.1,0.4-0.4,0.4h-0.5c-0.3,0-0.4-0.1-0.4-0.4V328.3z M202.7,320.4c0-0.3,0.1-0.4,0.4-0.4h0.5
		c0.3,0,0.4,0.1,0.4,0.4v0.7c0,0.2,0.1,0.3,0.3,0.3h0.2c0.3,0,0.4,0.1,0.4,0.4c0,0.3,0.1,0.3,0.3,0c0-0.1,0.1-0.2,0.2-0.3
		c0.2-0.3,0.4-0.4,0.6-0.2l0.3,0.2c0.3,0.2,0.4,0.4,0.2,0.7c-0.2,0.4-0.5,0.9-1,1.5c-0.2,0.2-0.1,0.3,0.1,0.3h0.7
		c0.3,0,0.4,0.1,0.4,0.4v0.6c0,0.3-0.1,0.4-0.4,0.4h-1.9c-0.2,0-0.5,0.1-0.7,0.4c-0.3,0.3-0.3,0.4-0.1,0.4h2.3
		c0.3,0,0.4,0.1,0.4,0.4v5.4c0,0.3-0.1,0.4-0.4,0.4h-0.6c-0.3,0-0.4-0.1-0.4-0.3c0-0.2-0.1-0.3-0.3-0.3h-1.1c-0.2,0-0.3,0.1-0.3,0.3
		c0,0.2-0.1,0.3-0.4,0.3h-0.6c-0.3,0-0.4-0.1-0.4-0.4V328c0-0.2-0.1-0.3-0.2-0.2c-0.1,0.1-0.3,0-0.5-0.2c-0.2-0.3-0.4-0.4-0.6-0.4
		h-2.5c-0.3,0-0.4-0.1-0.4-0.4v-0.5c0-0.3,0.1-0.4,0.4-0.4h2.5c0.3,0,0.4,0.1,0.4,0.4s0.1,0.3,0.4,0l0.4-0.3c0.2-0.2,0.2-0.3,0-0.3
		h-0.2c-0.3,0-0.4-0.1-0.4-0.4v-0.6c0-0.3,0.1-0.4,0.4-0.4h0.7c0.2,0,0.3-0.1,0.3-0.3v-0.7c0-0.2-0.1-0.3-0.3-0.3h-0.2
		c-0.3,0-0.4-0.1-0.4-0.4v-0.5c0-0.3,0.1-0.4,0.4-0.4h0.2c0.2,0,0.3-0.1,0.3-0.3V320.4z M198,320.6c0-0.3,0.1-0.4,0.4-0.4h2.2
		c0.3,0,0.4,0.1,0.4,0.4v0.5c0,0.3-0.1,0.4-0.4,0.4h-2.2c-0.3,0-0.4-0.1-0.4-0.4V320.6z M199.9,329.6c0-0.2-0.1-0.4-0.4-0.4
		c-0.3,0-0.4,0.1-0.4,0.3v0.7c0,0.2,0.1,0.3,0.4,0.3c0.3,0,0.4-0.1,0.4-0.3V329.6z M205.1,328.2c0-0.3-0.1-0.4-0.3-0.4h-1.1
		c-0.2,0-0.3,0.1-0.3,0.4c0,0.3,0.1,0.4,0.3,0.4h1.1C205,328.6,205.1,328.4,205.1,328.2z M205.1,330.3c0-0.3-0.1-0.5-0.3-0.5h-1.1
		c-0.2,0-0.3,0.1-0.3,0.4c0,0.3,0.1,0.5,0.3,0.5h1.1C205,330.8,205.1,330.6,205.1,330.3z M204.4,323.2c0.2-0.3,0.2-0.4,0-0.4
		c-0.2,0-0.3,0.1-0.3,0.4C204.1,323.5,204.2,323.5,204.4,323.2z"/>
</g>
<g>
	<path class="st2" d="M343.9,236.6c0-0.2,0.1-0.3,0.4-0.3h0.9c0.3,0,0.4,0.1,0.4,0.3c0,0.2,0.1,0.3,0.3,0.3h4.7
		c0.3,0,0.4,0.1,0.4,0.4v1.3c0,0.3-0.1,0.4-0.4,0.4h-0.9c-0.3,0-0.4-0.1-0.4-0.4c0-0.3-0.1-0.4-0.3-0.4h-8.3c-0.2,0-0.3,0.1-0.3,0.4
		c0,0.3-0.1,0.4-0.4,0.4h-0.8c-0.3,0-0.4-0.1-0.4-0.4v-1.3c0-0.3,0.1-0.4,0.4-0.4h4.5C343.8,236.9,343.9,236.8,343.9,236.6z
		 M339.8,242.9c0-0.3,0.1-0.4,0.4-0.4h8.7c0.3,0,0.4,0.1,0.4,0.4v4.1c0,0.3-0.1,0.4-0.2,0.4c-0.1,0-0.1,0,0.2,0.1l1.2,0.2
		c0.3,0,0.4,0.2,0.2,0.5l-0.3,0.5c-0.2,0.3-0.4,0.4-0.7,0.3c-1-0.2-2-0.5-3-0.9c-0.3-0.1-0.3-0.3-0.2-0.5c0.2-0.2,0.2-0.3,0-0.3H343
		c-0.2,0-0.3,0.1-0.1,0.3c0.2,0.2,0.2,0.4,0,0.5c-0.8,0.3-1.8,0.6-3.1,0.9c-0.3,0.1-0.5-0.1-0.7-0.3l-0.2-0.4
		c-0.2-0.3-0.1-0.5,0.1-0.5c0.5-0.1,0.9-0.1,1.4-0.2c0.2-0.1,0.2-0.1,0-0.1h-0.2c-0.3,0-0.4-0.1-0.4-0.4V242.9z M340.7,239
		c0.1-0.4,0.2-0.5,0.5-0.5h7.4c0.3,0,0.4,0.1,0.4,0.4l-0.1,0.6c0,0.2,0.1,0.3,0.3,0.3h0.7c0.3,0,0.4,0.1,0.4,0.4v0.2
		c0,0.3-0.1,0.4-0.4,0.4h-0.8c-0.2,0-0.3,0.1-0.4,0.4l-0.1,0.6c0,0.3-0.2,0.4-0.4,0.4h-7.7c-0.3,0-0.4-0.1-0.4-0.4l0.1-0.6
		c0.1-0.2,0-0.4-0.2-0.4h-0.7c-0.3,0-0.4-0.1-0.4-0.4v-0.2c0-0.3,0.1-0.4,0.4-0.4h0.9c0.2,0,0.4-0.1,0.4-0.4
		C340.7,239.3,340.7,239.1,340.7,239z M347.8,243.7c0-0.1-0.1-0.2-0.3-0.2h-5.9c-0.2,0-0.3,0.1-0.3,0.2c0,0.1,0.1,0.2,0.3,0.2h5.9
		C347.7,243.9,347.8,243.8,347.8,243.7z M347.8,245c0-0.1-0.1-0.2-0.3-0.2h-5.9c-0.2,0-0.3,0.1-0.3,0.2c0,0.1,0.1,0.2,0.3,0.2h5.9
		C347.7,245.1,347.8,245.1,347.8,245z M347.8,246.2c0-0.1-0.1-0.2-0.3-0.2h-5.9c-0.2,0-0.3,0.1-0.3,0.2c0,0.1,0.1,0.2,0.3,0.2h5.9
		C347.7,246.4,347.8,246.3,347.8,246.2z M343.6,241c0-0.1,0-0.2-0.2-0.2H342c-0.2,0-0.3,0.1-0.4,0.2c0,0.1,0.1,0.2,0.3,0.2h1.3
		C343.4,241.1,343.6,241.1,343.6,241z M343.9,239.7c0-0.1-0.1-0.2-0.3-0.2h-1.4c-0.2,0-0.3,0-0.4,0.1c0,0.1,0.1,0.1,0.3,0.1h1.3
		C343.8,239.8,343.9,239.8,343.9,239.7z M347.4,241c0-0.1-0.1-0.2-0.3-0.2h-1.7c-0.2,0-0.3,0.1-0.4,0.2c0,0.1,0.1,0.2,0.3,0.2h1.7
		C347.2,241.1,347.3,241.1,347.4,241z M347.6,239.7c0-0.1-0.1-0.2-0.3-0.2h-1.5c-0.2-0.1-0.4,0-0.4,0.2c0,0,0.1,0.1,0.3,0.1h1.5
		C347.4,239.8,347.5,239.8,347.6,239.7z"/>
	<path class="st2" d="M352.6,237.6c0-0.3,0.1-0.4,0.4-0.4h3.6c0.3,0,0.4,0.1,0.4,0.4v9.4c0,0.3-0.1,0.4-0.4,0.4h-0.7
		c-0.3,0-0.4-0.1-0.4-0.4c0-0.3-0.1-0.4-0.3-0.4h-0.6c-0.2,0-0.3,0.1-0.3,0.3v0.4c0,0.3-0.1,0.4-0.4,0.4h-0.7
		c-0.3,0-0.4-0.1-0.4-0.4V237.6z M355.5,239c0-0.2-0.1-0.4-0.3-0.4h-0.7c-0.2,0-0.3,0.1-0.3,0.3v1.8c0,0.2,0.1,0.3,0.3,0.3h0.6
		c0.2,0,0.3-0.1,0.3-0.3V239z M355.5,242.9c0-0.2-0.1-0.4-0.3-0.4h-0.7c-0.2,0-0.3,0.1-0.3,0.3v2c0,0.2,0.1,0.3,0.3,0.3h0.6
		c0.2,0,0.3-0.1,0.3-0.3V242.9z M360.3,236.7c0-0.3,0.1-0.4,0.4-0.4h0.7c0.3,0,0.4,0.1,0.4,0.4v0.5c0,0.2,0.1,0.3,0.3,0.3h1.7
		c0.3,0,0.4,0.1,0.4,0.4v0.7c0,0.3-0.1,0.4-0.4,0.4h-1.7c-0.2,0-0.3,0.1-0.3,0.3v0.7c0,0.2,0.1,0.3,0.3,0.3h2.4
		c0.3,0,0.4,0.1,0.4,0.4v0.7c0,0.3-0.1,0.4-0.4,0.4H364c-0.2,0-0.3,0.1-0.3,0.3v0.4c0,0.2,0.1,0.3,0.3,0.3h0.5
		c0.3,0,0.4,0.1,0.4,0.4v0.7c0,0.3-0.1,0.4-0.4,0.4H364c-0.2,0-0.3,0.1-0.3,0.3v2.5c0,0.3-0.1,0.6-0.1,0.8c0,0.3-0.3,0.5-0.6,0.7
		c-0.4,0.2-1.1,0.2-1.9,0.1c-0.3-0.1-0.5-0.3-0.5-0.6l-0.1-0.7c0-0.3,0.1-0.4,0.4-0.3c0.3,0.1,0.6,0.1,0.9,0.1c0.2,0,0.3,0,0.4-0.1
		c0.1-0.1,0.1-0.2,0.1-0.3v-2.1c0-0.2-0.1-0.3-0.3-0.3h-3.9c-0.3,0-0.4-0.1-0.4-0.4v-0.7c0-0.3,0.1-0.4,0.4-0.4h3.9
		c0.2,0,0.3-0.1,0.3-0.3v-0.4c0-0.2-0.1-0.3-0.3-0.3h-4c-0.3,0-0.4-0.1-0.4-0.4v-0.7c0-0.3,0.1-0.4,0.4-0.4h2.3
		c0.2,0,0.3-0.1,0.3-0.3v-0.7c0-0.2-0.1-0.3-0.3-0.3h-1.8c-0.3,0-0.4-0.1-0.4-0.4v-0.7c0-0.3,0.1-0.4,0.4-0.4h1.8
		c0.2,0,0.3-0.1,0.3-0.3V236.7z M358.8,244.9c0.3-0.1,0.5-0.1,0.7,0.2c0.2,0.3,0.3,0.6,0.4,0.9c0.1,0.3,0,0.5-0.3,0.6
		c-0.2,0.1-0.4,0.2-0.7,0.3c-0.3,0.1-0.5,0-0.6-0.2c-0.1-0.3-0.2-0.6-0.4-0.9c-0.1-0.3-0.1-0.5,0.2-0.6
		C358.5,245.1,358.6,245,358.8,244.9z"/>
	<path class="st2" d="M366.5,238.8c0-0.3,0.1-0.4,0.4-0.4h4.3c0.3,0,0.4,0.1,0.4,0.4v0.7c0,0.3-0.1,0.4-0.4,0.4h-4.3
		c-0.3,0-0.4-0.1-0.4-0.4V238.8z M374.5,236.8c0-0.3,0.1-0.4,0.4-0.4h0.9c0.3,0,0.4,0.1,0.4,0.4v1.2c0,0.2,0.1,0.3,0.3,0.3h2
		c0.3,0,0.4,0.1,0.4,0.4v0.7c0,0.3-0.1,0.4-0.4,0.4h-3.3c-0.2,0-0.3,0.1-0.3,0.3l0,0.7c0,0.2,0.1,0.3,0.3,0.3h3
		c0.3,0,0.4,0.1,0.4,0.4c0,1.3,0,2.6-0.1,3.9c0,0.9-0.2,1.6-0.3,2.2c-0.2,0.4-0.6,0.7-1,0.8c-0.3,0.1-1,0.2-2,0
		c-0.3,0-0.4-0.2-0.5-0.5l-0.2-0.8c-0.1-0.3,0-0.4,0.3-0.3c0.7,0.2,1.2,0.2,1.6,0.1c0.1-0.1,0.2-0.2,0.3-0.4
		c0.1-0.7,0.2-1.8,0.2-3.5c0-0.2-0.1-0.3-0.3-0.3h-1.5c-0.2,0-0.4,0.1-0.4,0.4c-0.1,0.3-0.1,0.6-0.1,1c-0.2,1.5-0.9,3-2.1,4.3
		c-0.3,0.3-0.6,0.3-0.9-0.1l-0.2-0.2c-0.2-0.2-0.3-0.2-0.3,0c0,0.2-0.1,0.3-0.4,0.3h-2c-0.2,0-0.3,0.1-0.3,0.2
		c0,0.2-0.1,0.3-0.4,0.3h-0.7c-0.3,0-0.4-0.1-0.4-0.4v-3.9c0-0.3,0.1-0.4,0.4-0.4h3.4c0.3,0,0.4,0.1,0.4,0.4v2.5
		c0,0.2,0.1,0.2,0.4-0.1c0.8-0.9,1.3-2,1.5-3.2c0.2-1.2,0.3-2.4,0.3-3.7c0-0.2-0.1-0.3-0.3-0.3h-0.6c-0.3,0-0.4-0.1-0.4-0.4v-0.7
		c0-0.3,0.1-0.4,0.4-0.4h1.9c0.2,0,0.3-0.1,0.3-0.3V236.8z M367,240.7c0-0.3,0.1-0.4,0.4-0.4h3.3c0.3,0,0.4,0.1,0.4,0.4v0.6
		c0,0.3-0.1,0.4-0.4,0.4h-3.3c-0.3,0-0.4-0.1-0.4-0.4V240.7z M367,242.6c0-0.3,0.1-0.4,0.4-0.4h3.2c0.3,0,0.4,0.1,0.4,0.4v0.6
		c0,0.3-0.1,0.4-0.4,0.4h-3.2c-0.3,0-0.4-0.1-0.4-0.4V242.6z M367.1,237c0-0.3,0.1-0.4,0.4-0.4h3c0.3,0,0.4,0.1,0.4,0.4v0.6
		c0,0.3-0.1,0.4-0.4,0.4h-3.1c-0.3,0-0.4-0.1-0.4-0.4V237z M369.7,246c0-0.2-0.1-0.4-0.3-0.4h-0.7c-0.2,0-0.3,0.1-0.3,0.3v0.8
		c0,0.2,0.1,0.3,0.3,0.3h0.6c0.2,0,0.3-0.1,0.3-0.3V246z"/>
	<path class="st2" d="M380.8,237c0-0.3,0.1-0.4,0.4-0.4h4.6c0.3,0,0.4,0.1,0.4,0.4v4.6c0,0.3-0.1,0.4-0.4,0.4h-3.2
		c-0.2,0-0.3,0.1-0.3,0.3v6.1c0,0.3-0.1,0.4-0.4,0.4h-0.6c-0.3,0-0.4-0.1-0.4-0.4V237z M384.7,238.3c0-0.2-0.1-0.3-0.3-0.3h-1.8
		c-0.2,0-0.3,0.1-0.3,0.3c0,0.2,0.1,0.3,0.3,0.3h1.8C384.6,238.6,384.7,238.5,384.7,238.3z M384.7,240.3c0-0.2-0.1-0.4-0.3-0.4h-1.8
		c-0.2,0-0.3,0.1-0.3,0.3c0,0.2,0.1,0.4,0.3,0.4h1.8C384.6,240.6,384.7,240.5,384.7,240.3z M383.7,243.1c0-0.3,0.1-0.4,0.4-0.4h4.9
		c0.3,0,0.4,0.1,0.4,0.4v3.3c0,0.3-0.1,0.4-0.4,0.4h-3.5c-0.2,0-0.3,0.1-0.3,0.4c0,0.3-0.1,0.4-0.4,0.4h-0.7c-0.3,0-0.4-0.1-0.4-0.4
		V243.1z M388,244.5c0-0.2-0.1-0.3-0.3-0.3h-2.1c-0.2,0-0.3,0.1-0.3,0.3v0.7c0,0.2,0.1,0.3,0.3,0.3h2.1c0.2,0,0.3-0.1,0.3-0.3V244.5
		z M387,237c0-0.3,0.1-0.4,0.4-0.4h4.7c0.3,0,0.4,0.1,0.4,0.4v10.1c0,0.4-0.1,0.7-0.3,1.1c-0.3,0.4-0.6,0.6-1.1,0.6
		c-0.5,0-1,0-1.5,0c-0.3,0-0.5-0.2-0.5-0.5l-0.1-0.7c-0.1-0.3,0.1-0.4,0.4-0.4c0.5,0.1,0.9,0.1,1.2,0.1c0.2-0.2,0.3-0.4,0.3-0.8
		v-4.1c0-0.2-0.1-0.3-0.3-0.3h-3.2c-0.3,0-0.4-0.1-0.4-0.4V237z M391,238.3c0-0.2-0.1-0.3-0.3-0.3h-1.8c-0.2,0-0.3,0.1-0.3,0.3
		c0,0.2,0.1,0.3,0.3,0.3h1.8C390.9,238.6,391,238.5,391,238.3z M391,240.3c0-0.2-0.1-0.4-0.3-0.4h-1.8c-0.2,0-0.3,0.1-0.3,0.3
		c0,0.2,0.1,0.4,0.3,0.4h1.8C390.9,240.6,391,240.5,391,240.3z"/>
	<path class="st2" d="M344.5,253.5c0-0.2,0.1-0.4,0.4-0.4h0.8c0.3,0,0.4,0.1,0.4,0.3c0,0.2,0.1,0.4,0.3,0.4h4.3
		c0.3,0,0.4,0.1,0.4,0.4v0.5c0,0.3-0.1,0.4-0.4,0.4h-9.6c-0.2,0-0.3,0.1-0.3,0.3v4.6c-0.1,2-0.3,3.7-0.8,5.2
		c-0.1,0.3-0.3,0.4-0.6,0.2l-0.5-0.3c-0.3-0.2-0.4-0.4-0.3-0.7c0.4-1.4,0.7-3,0.7-4.9v-5.3c0-0.3,0.1-0.4,0.4-0.4h4.5
		C344.3,253.8,344.5,253.7,344.5,253.5z M341.3,260.5c0-0.3,0.1-0.4,0.4-0.4h8.1c0.3,0,0.4,0.1,0.4,0.4v3c0,0.3-0.1,0.4-0.4,0.4
		h-1.2c-0.2,0-0.2,0,0.1,0.2l1.5,0.3c0.3,0.1,0.4,0.2,0.2,0.5l-0.3,0.5c-0.2,0.3-0.4,0.4-0.7,0.3c-0.6-0.2-1.4-0.5-2.4-0.9
		c-0.3-0.1-0.4-0.3-0.2-0.5c0.2-0.2,0.2-0.3-0.1-0.3h-2.4c-0.2,0-0.2,0.1,0,0.3c0.2,0.2,0.2,0.4-0.1,0.6c-0.8,0.4-1.9,0.7-3.1,0.9
		c0,0-0.1-0.2-0.2-0.5c0-0.1-0.1-0.2-0.1-0.3c-0.1-0.3-0.1-0.5,0.2-0.6c0.5-0.1,1-0.2,1.5-0.4c0.3-0.1,0.3-0.2,0-0.2h-1
		c-0.3,0-0.4-0.1-0.4-0.4V260.5z M340.9,259c0-0.3,0.1-0.4,0.4-0.4h9.1c0.3,0,0.4,0.1,0.4,0.4v0.2c0,0.3-0.1,0.4-0.4,0.4h-9.1
		c-0.3,0-0.4-0.1-0.4-0.4V259z M342.8,255.5c0-0.1,0.1-0.2,0.4-0.2h0.7c0.3,0,0.4,0.1,0.4,0.2c0,0.1,0.1,0.2,0.3,0.2h2.2
		c0.2,0,0.3-0.1,0.3-0.2c0-0.1,0.1-0.2,0.4-0.2h0.6c0.3,0,0.4,0.1,0.4,0.2c0,0.1,0.1,0.2,0.3,0.2h1.4c0.3,0,0.4,0.1,0.4,0.4v0.4
		c0,0.3-0.1,0.4-0.4,0.4H349c-0.2,0-0.3,0.1-0.3,0.3v0.7c0,0.3-0.1,0.4-0.4,0.4h-5c-0.3,0-0.4-0.1-0.4-0.4v-0.7
		c0-0.2-0.1-0.3-0.3-0.3h-1.1c-0.3,0-0.4-0.1-0.4-0.4v-0.4c0-0.3,0.1-0.4,0.4-0.4h1.1C342.7,255.6,342.8,255.6,342.8,255.5z
		 M344.9,261.3c0-0.1-0.1-0.2-0.3-0.2h-1.5c-0.2,0-0.3,0-0.3,0.1c0,0.1,0.1,0.1,0.3,0.1h1.5C344.8,261.4,344.9,261.4,344.9,261.3z
		 M344.9,262.6c0-0.1-0.1-0.2-0.3-0.2h-1.5c-0.2,0-0.3,0-0.3,0.1c0,0.1,0.1,0.2,0.3,0.2h1.5C344.8,262.7,344.9,262.7,344.9,262.6z
		 M347.1,257.1c0-0.2-0.1-0.2-0.3-0.2h-2.2c-0.2,0-0.3,0.1-0.3,0.2c0,0.1,0.1,0.2,0.3,0.2h2.2C347,257.2,347.1,257.2,347.1,257.1z
		 M348.7,261.3c0-0.1-0.1-0.2-0.3-0.2h-1.7c-0.2,0-0.3,0-0.3,0.1c0,0.1,0.1,0.1,0.3,0.1h1.7C348.6,261.4,348.7,261.4,348.7,261.3z
		 M348.7,262.6c0-0.1-0.1-0.2-0.3-0.2h-1.7c-0.2,0-0.3,0-0.3,0.1c0,0.1,0.1,0.2,0.3,0.2h1.7C348.6,262.7,348.7,262.7,348.7,262.6z"
		/>
	<path class="st2" d="M358,253.5c0-0.3,0.1-0.4,0.4-0.4h0.9c0.3,0,0.4,0.1,0.4,0.4v0.8c0,0.2,0.1,0.3,0.3,0.3h3.7
		c0.3,0,0.4,0.1,0.4,0.4v0.7c0,0.3-0.1,0.4-0.4,0.4H360c-0.2,0-0.3,0.1-0.3,0.3v1c0,0.2,0.1,0.3,0.3,0.3h4.5c0.3,0,0.4,0.1,0.4,0.4
		v0.8c0,0.3-0.1,0.4-0.4,0.4h-11.5c-0.3,0-0.4-0.1-0.4-0.4v-0.8c0-0.3,0.1-0.4,0.4-0.4h4.7c0.2,0,0.3-0.1,0.3-0.3v-1
		c0-0.2-0.1-0.3-0.3-0.3h-2.2c-0.2,0-0.4,0.1-0.6,0.4c-0.1,0.2-0.3,0.5-0.5,0.7c-0.2,0.3-0.4,0.3-0.7,0.1l-0.5-0.4
		c-0.3-0.2-0.3-0.4-0.1-0.7c0.5-0.8,1-1.7,1.3-2.6c0.1-0.3,0.3-0.4,0.5-0.3l0.7,0.2c0.3,0.1,0.5,0.3,0.4,0.6c-0.1,0.3,0,0.4,0.2,0.4
		h1.5c0.2,0,0.3-0.1,0.3-0.3V253.5z M353.8,260.7c0-0.3,0.1-0.4,0.4-0.4h9.2c0.3,0,0.4,0.1,0.4,0.4v4.7c0,0.3-0.1,0.4-0.4,0.4h-0.8
		c-0.3,0-0.4-0.1-0.4-0.3c0-0.2-0.1-0.3-0.3-0.3h-6.1c-0.2,0-0.3,0.1-0.3,0.3c0,0.2-0.1,0.3-0.4,0.3h-0.8c-0.3,0-0.4-0.1-0.4-0.4
		V260.7z M362.2,262.1c0-0.2-0.1-0.3-0.3-0.3h-6.1c-0.2,0-0.3,0.1-0.3,0.3v1.2c0,0.2,0.1,0.3,0.3,0.3h6.1c0.2,0,0.3-0.1,0.3-0.3
		V262.1z"/>
	<path class="st2" d="M366.8,261.5c0-0.3,0.2-0.4,0.5-0.4l0.5,0.1c0.3,0.1,0.4,0.2,0.4,0.5c-0.1,0.9-0.3,1.8-0.5,2.6
		c-0.1,0.3-0.3,0.5-0.5,0.4l-0.5-0.1c-0.3-0.1-0.4-0.3-0.4-0.6C366.5,263.1,366.7,262.3,366.8,261.5z M368.5,253.6
		c0.1-0.3,0.3-0.4,0.6-0.3c0.2,0.1,0.4,0.2,0.7,0.3c0.3,0.1,0.3,0.3,0.2,0.6c-0.3,0.5-0.6,1.1-0.9,1.6c-0.2,0.2-0.2,0.4,0,0.5
		c0.2,0.1,0.3,0,0.5-0.3c0.1-0.3,0.3-0.6,0.5-0.9c0.1-0.3,0.4-0.4,0.7-0.3l0.5,0.2c0.3,0.1,0.4,0.4,0.2,0.6c-0.5,0.9-1,1.7-1.6,2.6
		c-0.2,0.2-0.1,0.4,0.1,0.3c0.3,0,0.4-0.1,0.4-0.3c-0.1-0.2,0-0.4,0.4-0.5l0.3-0.1c0.3-0.2,0.5-0.1,0.7,0.2c0.2,0.5,0.3,1,0.5,1.5
		c0.1,0.3,0,0.5-0.3,0.7c-0.1,0-0.3,0.1-0.5,0.2c-0.3,0.1-0.5,0.1-0.5-0.1c0-0.2-0.2-0.3-0.5-0.2l-0.1,0c-0.2,0-0.3,0.2-0.3,0.4v4.8
		c0,0.3-0.1,0.4-0.4,0.4h-0.7c-0.3,0-0.4-0.1-0.4-0.4v-4.6c0-0.2-0.1-0.3-0.4-0.3l-0.8,0.1c-0.3,0-0.5-0.1-0.5-0.4l-0.1-0.7
		c-0.1-0.3,0.1-0.5,0.4-0.5l0.4,0c0.2,0,0.4-0.2,0.6-0.4l0.2-0.3c0.1-0.2,0.1-0.4-0.2-0.7l-1.3-1c-0.2-0.2-0.3-0.5,0-0.8l0.2-0.3
		c0.2-0.3,0.4-0.4,0.5-0.3c0.1,0.1,0.2,0,0.4-0.3C368.1,254.5,368.3,254.1,368.5,253.6z M371,261.1c0.3-0.1,0.5,0,0.6,0.3
		c0.2,0.9,0.4,1.7,0.4,2.4c0,0-0.2,0.1-0.4,0.2l-0.6,0.2c-0.3,0.1-0.4,0-0.5-0.3c-0.1-0.7-0.2-1.4-0.3-2c-0.1-0.3,0-0.5,0.3-0.6
		L371,261.1z M374.7,253.6c0-0.3,0.1-0.5,0.4-0.5h0.9c0.3,0,0.4,0.1,0.4,0.4v0.8c0,0.2,0.1,0.3,0.3,0.3h2c0.3,0,0.4,0.1,0.4,0.4v0.6
		c0,0.3-0.1,0.4-0.4,0.4h-2c-0.2,0-0.3,0.1-0.3,0.3v1c0,0.2,0.1,0.3,0.3,0.3h1.7c0.3,0,0.4,0.1,0.4,0.4v0.6c0,0.3-0.1,0.4-0.4,0.4
		h-5.7c-0.3,0-0.4-0.1-0.4-0.4v-0.6c0-0.3,0.1-0.4,0.4-0.4h1.7c0.2,0,0.3-0.1,0.3-0.3v-1c0-0.2-0.1-0.3-0.3-0.3h-2
		c-0.3,0-0.4-0.1-0.4-0.4v-0.6c0-0.3,0.1-0.4,0.4-0.4h2c0.2,0,0.3-0.1,0.3-0.3V253.6z M372.3,260.7c0-0.3,0.1-0.4,0.4-0.4h5.6
		c0.3,0,0.4,0.1,0.4,0.4v4.7c0,0.3-0.1,0.4-0.4,0.4h-0.7c-0.3,0-0.4-0.1-0.4-0.3c0-0.2-0.1-0.4-0.3-0.4h-2.6c-0.2,0-0.3,0.1-0.3,0.3
		c0,0.2-0.1,0.4-0.4,0.4h-0.7c-0.3,0-0.4-0.1-0.4-0.4V260.7z M377.1,262c0-0.2-0.1-0.3-0.3-0.3h-2.6c-0.2,0-0.3,0.1-0.3,0.3v1.1
		c0,0.2,0.1,0.3,0.3,0.3h2.6c0.2,0,0.3-0.1,0.3-0.3V262z"/>
	<path class="st2" d="M381.6,253.9c0-0.3,0.1-0.4,0.4-0.4h9.5c0.3,0,0.4,0.1,0.4,0.4v5.3c0,0.3-0.1,0.4-0.4,0.4h-3.6
		c-0.2,0-0.3,0.1-0.3,0.3c0,0.2,0.1,0.3,0.3,0.3h4.7c0.3,0,0.4,0.1,0.4,0.4v0.7c0,0.3-0.1,0.4-0.4,0.4h-3.4c-0.2,0-0.2,0.1,0.1,0.3
		c1.1,0.8,2.2,1.3,3.4,1.6c0.3,0.1,0.3,0.3,0.2,0.6l-0.4,0.7c-0.1,0.3-0.4,0.4-0.6,0.3c-1.3-0.5-2.6-1.4-3.9-2.5
		c-0.2-0.2-0.3-0.2-0.3,0v2.6c0,0.3-0.1,0.4-0.4,0.4h-0.8c-0.3,0-0.4-0.1-0.4-0.4v-2.5c0-0.2-0.1-0.2-0.4,0
		c-0.9,0.8-2.1,1.6-3.7,2.3c-0.3,0.1-0.6,0-0.7-0.3l-0.3-0.6c-0.2-0.3-0.1-0.5,0.2-0.6c1-0.4,2.2-0.9,3.4-1.8
		c0.3-0.2,0.3-0.3,0.1-0.3h-3.4c-0.3,0-0.4-0.1-0.4-0.4v-0.7c0-0.3,0.1-0.4,0.4-0.4h4.6c0.2,0,0.3-0.1,0.3-0.3
		c0-0.2-0.1-0.3-0.3-0.3H382c-0.3,0-0.4-0.1-0.4-0.4V253.9z M385.9,255.4c0-0.3-0.1-0.5-0.3-0.5h-2c-0.2,0-0.3,0.1-0.3,0.4
		c0,0.3,0.1,0.5,0.3,0.5h2C385.8,255.8,385.9,255.7,385.9,255.4z M385.9,257.7c0-0.3-0.1-0.5-0.3-0.5h-2c-0.2,0-0.3,0.1-0.3,0.4
		c0,0.3,0.1,0.5,0.3,0.5h2C385.8,258.1,385.9,258,385.9,257.7z M390.3,255.4c0-0.3-0.1-0.5-0.3-0.5h-2.1c-0.2,0-0.3,0.1-0.3,0.4
		c0,0.3,0.1,0.5,0.3,0.5h2C390.2,255.8,390.3,255.7,390.3,255.4z M390.3,257.7c0-0.3-0.1-0.5-0.3-0.5h-2.1c-0.2,0-0.3,0.1-0.3,0.4
		c0,0.3,0.1,0.5,0.3,0.5h2C390.2,258.1,390.3,258,390.3,257.7z"/>
</g>
<g>
	<path class="st2" d="M413.8,16.1c0.1-0.3,0.3-0.4,0.5-0.4c0.2,0,0.5,0.1,0.7,0.2c0.3,0.1,0.4,0.3,0.3,0.6l-0.1,0.3
		c-0.1,0.2,0,0.3,0.2,0.3h5.8c0.3,0,0.4,0.1,0.4,0.4v0.7c0,0.3-0.1,0.4-0.4,0.4h-6.5c-0.2,0-0.4,0.1-0.6,0.4l-0.2,0.4
		c-0.1,0.2-0.1,0.3,0.1,0.3h6.2c0.3,0,0.4,0.1,0.4,0.4v6.5c0,1-0.5,1.6-1.3,1.8c-0.5,0.1-1,0.1-1.5-0.1c-0.3-0.1-0.5-0.2-0.5-0.5
		l-0.2-0.8c-0.1-0.3,0.1-0.4,0.4-0.3c0.5,0.1,0.9,0.2,1.1,0.1c0.2-0.2,0.3-0.4,0.3-0.7c0-0.2-0.1-0.3-0.3-0.3H414
		c-0.2,0-0.3,0.1-0.3,0.3v1.9c0,0.3-0.1,0.4-0.4,0.4h-0.8c-0.3,0-0.4-0.1-0.4-0.4v-5.4c0-0.2-0.1-0.2-0.3,0
		c-0.2,0.3-0.5,0.5-0.7,0.8c-0.3,0.2-0.6,0.3-0.8,0c-0.1-0.2-0.3-0.3-0.4-0.4c-0.3-0.2-0.2-0.5,0-0.8c1.1-1.1,2-2.1,2.6-3.2
		c0.1-0.2,0.1-0.3-0.1-0.3h-2.1c-0.3,0-0.4-0.1-0.4-0.4v-0.7c0-0.3,0.1-0.4,0.4-0.4h2.9c0.2,0,0.4-0.1,0.5-0.4L413.8,16.1z
		 M419.2,21.6c0-0.3-0.1-0.4-0.3-0.4H414c-0.2,0-0.3,0.1-0.3,0.4c0,0.3,0.1,0.4,0.3,0.4h4.9C419,21.9,419.2,21.8,419.2,21.6z
		 M419.2,23.8c0-0.3-0.1-0.4-0.3-0.4H414c-0.2,0-0.3,0.1-0.3,0.4c0,0.3,0.1,0.4,0.3,0.4h4.9C419,24.2,419.2,24.1,419.2,23.8z"/>
	<path class="st2" d="M427,21.8c0.1-0.3,0.3-0.4,0.5-0.3c0.2,0.1,0.5,0.2,0.7,0.3c0.3,0.1,0.4,0.3,0.3,0.6c-0.1,0.5-0.3,1-0.5,1.5
		c-0.1,0.2,0,0.4,0.2,0.7c0.3,0.3,0.7,0.7,0.9,1c0.3,0.3,0.3,0.6,0,0.8l-0.5,0.5c-0.2,0.3-0.5,0.3-0.7,0c-0.2-0.2-0.4-0.5-0.6-0.7
		c-0.3-0.3-0.5-0.3-0.7,0c-0.5,0.7-1.2,1.2-2,1.7c-0.3,0.1-0.5,0-0.7-0.3l-0.4-0.7c-0.1-0.3-0.1-0.5,0.2-0.6
		c0.6-0.3,1.2-0.8,1.8-1.4c0.2-0.2,0.1-0.4-0.1-0.6c-0.3-0.3-0.5-0.5-0.8-0.7c-0.3-0.2-0.4-0.5-0.2-0.7c0.1-0.1,0.2-0.3,0.4-0.4
		c0.2-0.3,0.5-0.3,0.8-0.1c0.2,0.2,0.4,0.3,0.7,0.5c0.2,0.2,0.4,0.2,0.5,0L427,21.8z M424.6,19.2c0.2-0.3,0.4-0.3,0.6-0.1
		c0.1,0.1,0.3,0.2,0.4,0.3c0.3,0.2,0.4,0.5,0.2,0.8c-0.4,0.6-0.7,1.1-1,1.4c-0.3,0.3-0.6,0.3-0.8,0.1l-0.4-0.4
		c-0.2-0.3-0.2-0.6,0.1-0.9C424.1,20,424.4,19.6,424.6,19.2z M425.9,16.1c0-0.3,0.1-0.4,0.4-0.4h0.8c0.3,0,0.4,0.1,0.4,0.4v0.7
		c0,0.2,0.1,0.3,0.3,0.3h1.7c0.3,0,0.4,0.1,0.4,0.4v0.7c0,0.3-0.1,0.4-0.4,0.4h-1.2c-0.2,0-0.2,0.1,0,0.4c0.2,0.2,0.4,0.5,0.6,0.8
		c0.3,0.3,0.3,0.5,0.1,0.8l-0.4,0.5c-0.2,0.3-0.5,0.3-0.7,0.1c-0.4-0.4-0.7-0.9-1-1.4c-0.1-0.3,0-0.5,0.3-0.8
		c0.3-0.1,0.4-0.3,0.5-0.4c0,0-0.2,0-0.4,0H424c-0.3,0-0.4-0.1-0.4-0.4v-0.7c0-0.3,0.1-0.4,0.4-0.4h1.6c0.2,0,0.3-0.1,0.3-0.3V16.1z
		 M431.3,16.1c0.1-0.3,0.2-0.4,0.5-0.3c0.2,0.1,0.5,0.1,0.7,0.2c0.4,0.1,0.5,0.3,0.4,0.6l-0.2,0.7c-0.1,0.2,0,0.4,0.2,0.4h2.6
		c0.3,0,0.4,0.1,0.4,0.4v0.7c0,0.3-0.1,0.4-0.3,0.4c-0.2,0-0.4,0.1-0.4,0.4c-0.3,1.6-0.7,3.1-1.4,4.6c-0.1,0.2-0.1,0.4,0.1,0.7
		c0.6,0.7,1.1,1.2,1.6,1.6c0.3,0.2,0.3,0.4,0.1,0.7l-0.4,0.7c-0.2,0.3-0.5,0.4-0.8,0.1c-0.7-0.6-1.2-1.1-1.5-1.5
		c-0.2-0.3-0.4-0.2-0.7,0.1c-0.5,0.7-1.2,1.2-1.9,1.7c-0.3,0.1-0.5,0.1-0.7-0.2c-0.1-0.1-0.2-0.3-0.3-0.4c-0.2-0.3-0.2-0.5,0.1-0.7
		c0.7-0.4,1.4-1,2.1-1.9c0.2-0.2,0.2-0.5,0.1-0.7c-0.2-0.5-0.5-1.1-0.7-1.8c-0.1-0.2-0.2-0.3-0.2-0.1c-0.1,0.1-0.3,0.1-0.5-0.1
		c-0.2-0.2-0.4-0.3-0.6-0.5c-0.3-0.2-0.3-0.5-0.2-0.7C430.1,19.5,430.8,17.9,431.3,16.1z M433.7,19.5c0-0.2-0.1-0.4-0.3-0.4h-1
		c-0.2,0-0.4,0.1-0.5,0.4c-0.2,0.4-0.3,0.7-0.2,1c0.2,0.6,0.4,1.2,0.7,1.9c0.1,0.3,0.3,0.3,0.4,0C433.3,21.5,433.5,20.5,433.7,19.5z
		"/>
	<path class="st2" d="M439,16c0-0.3,0.2-0.4,0.5-0.3l0.8,0.2c0.3,0.1,0.4,0.3,0.3,0.5l-0.2,0.9c-0.1,0.2,0,0.3,0.2,0.3h1.3
		c0.3,0,0.4,0.1,0.4,0.4v1.6c0,0.3,0.1,0.3,0.2,0.1c0.6-1.2,1.1-2.4,1.4-3.6c0.1-0.3,0.3-0.4,0.6-0.3l0.7,0.2
		c0.3,0.1,0.4,0.3,0.3,0.6l-0.2,0.7c-0.1,0.2,0,0.3,0.2,0.3h3.2c0.3,0,0.4,0.1,0.4,0.4c0,0.1,0,0.1,0,0.2v1.8c0,2.5-0.1,4.5-0.3,6
		c0,0.3-0.1,0.7-0.3,1.1c-0.1,0.4-0.4,0.8-0.8,1c-0.5,0.2-1.3,0.3-2.2,0.1c-0.3-0.1-0.4-0.3-0.5-0.5l-0.2-0.8c0-0.3,0.1-0.4,0.4-0.3
		c0.6,0.1,1.1,0.2,1.6,0.2c0.2-0.1,0.3-0.2,0.4-0.4c0.1-0.3,0.2-0.7,0.2-1.1c0.1-1.4,0.1-2.6,0.1-3.5v-2.2c0-0.2-0.1-0.3-0.3-0.3
		h-2.2c-0.2,0-0.4,0.1-0.5,0.4c-0.2,0.6-0.5,1.1-0.9,1.8c-0.2,0.3-0.4,0.3-0.7,0.1l-0.4-0.3c-0.2-0.2-0.3-0.1-0.3,0.1v5.7
		c0,0.3-0.1,0.4-0.4,0.4h-0.8c-0.3,0-0.4-0.1-0.4-0.4c0-0.3-0.1-0.4-0.3-0.4h-1.2c-0.2,0-0.3,0.1-0.3,0.3v0.6c0,0.3-0.1,0.4-0.4,0.4
		h-0.7c-0.3,0-0.4-0.1-0.4-0.4v-9.4c0-0.3,0.1-0.4,0.4-0.4h0.5c0.2,0,0.4-0.1,0.5-0.4C438.9,16.8,439,16.4,439,16z M440.8,19.5
		c0-0.2-0.1-0.4-0.3-0.4h-1.2c-0.2,0-0.3,0.1-0.3,0.3v1.7c0,0.2,0.1,0.3,0.3,0.3h1.2c0.2,0,0.3-0.1,0.3-0.3V19.5z M440.8,23.3
		c0-0.2-0.1-0.4-0.3-0.4h-1.2c-0.2,0-0.3,0.1-0.3,0.3v1.5c0,0.2,0.1,0.3,0.3,0.3h1.2c0.2,0,0.3-0.1,0.3-0.3V23.3z M444.5,21.5
		l0.7-0.2c0.3-0.1,0.5,0,0.6,0.3c0.3,0.6,0.6,1.4,0.8,2.2c0.1,0.3,0,0.6-0.3,0.7l-0.8,0.3c-0.3,0.1-0.4,0-0.5-0.3
		c-0.2-0.8-0.4-1.6-0.7-2.3C444.1,21.8,444.2,21.6,444.5,21.5z"/>
	<path class="st2" d="M403.1,36.1c0.3-0.3,0.6-0.3,0.8-0.2c0.3,0.2,0.6,0.4,0.9,0.7c0.3,0.3,0.3,0.5,0.1,0.8l-0.4,0.5
		c-0.2,0.3-0.5,0.3-0.8,0c-0.3-0.3-0.7-0.6-1-0.8c-0.3-0.2-0.3-0.5-0.1-0.7L403.1,36.1z M404.2,39.7c0.1-0.3,0.2-0.4,0.5-0.3
		l0.7,0.2c0.3,0.1,0.5,0.3,0.4,0.6c-0.4,1.8-0.9,3.3-1.4,4.4c-0.1,0.3-0.3,0.3-0.6,0.2l-0.7-0.4c-0.3-0.2-0.4-0.4-0.2-0.6
		C403.4,42.6,403.8,41.3,404.2,39.7z M404.4,32.8c0.2-0.2,0.5-0.3,0.7-0.1c0.3,0.2,0.6,0.4,0.9,0.7c0.3,0.2,0.3,0.5,0.1,0.8
		c-0.2,0.2-0.3,0.4-0.5,0.5c-0.2,0.3-0.5,0.3-0.7,0c-0.3-0.3-0.6-0.5-0.8-0.7c-0.3-0.2-0.3-0.4-0.1-0.7
		C404.2,33.1,404.3,33,404.4,32.8z M413.3,32.5c0.3,0,0.5,0.1,0.7,0.4c0.1,0.2,0.1,0.3,0.2,0.5c0.2,0.3,0.1,0.5-0.2,0.6l-2.2,0.3
		c-0.2,0-0.3,0.2-0.3,0.4v1.1c0,0.2,0.1,0.3,0.3,0.3h2.9c0.3,0,0.4,0.1,0.4,0.4v0.7c0,0.3-0.1,0.4-0.4,0.4h-2.9
		c-0.2,0-0.3,0.1-0.3,0.3v1c0,0.2,0.1,0.3,0.3,0.3h2.3c0.3,0,0.4,0.1,0.4,0.4v4.8c0,0.3-0.1,0.4-0.4,0.4h-0.8
		c-0.3,0-0.4-0.1-0.4-0.2c0-0.2-0.1-0.2-0.3-0.2h-3.9c-0.2,0-0.3,0.1-0.3,0.2c0,0.2-0.1,0.3-0.4,0.3h-0.8c-0.3,0-0.4-0.1-0.4-0.4
		v-4.9c0-0.3,0.1-0.4,0.4-0.4h2.2c0.2,0,0.3-0.1,0.3-0.3v-1c0-0.2-0.1-0.3-0.3-0.3h-2.9c-0.3,0-0.4-0.1-0.4-0.4v-0.7
		c0-0.3,0.1-0.4,0.4-0.4h2.9c0.2,0,0.3-0.1,0.3-0.3v-1c0-0.2-0.1-0.3-0.4-0.3l-1.8,0.1c-0.3,0-0.5-0.1-0.6-0.4l-0.2-0.7
		c-0.1-0.3,0-0.4,0.2-0.5C409.2,33,411.3,32.8,413.3,32.5z M412.9,41.2c0-0.2-0.1-0.3-0.3-0.3h-3.9c-0.2,0-0.3,0.1-0.3,0.3v1.5
		c0,0.2,0.1,0.3,0.3,0.3h3.9c0.2,0,0.3-0.1,0.3-0.3V41.2z"/>
	<path class="st2" d="M416.6,32.9c2-0.1,3.9-0.3,5.6-0.5c0.3,0,0.5,0.1,0.6,0.4c0.1,0.1,0.1,0.3,0.2,0.4c0.2,0.3,0.1,0.5-0.2,0.5
		l-2,0.2c-0.2,0-0.3,0.2-0.3,0.4c0,0.2,0.1,0.3,0.3,0.3h2c0.3,0,0.4,0.1,0.4,0.4v0.5c0,0.3-0.1,0.4-0.4,0.4h-2
		c-0.2,0-0.3,0.1-0.3,0.2c0,0.1,0.1,0.2,0.3,0.2h1.9c0.3,0,0.4,0.1,0.4,0.4v3.9c0,0.3-0.1,0.4-0.4,0.4h-1.9c-0.2,0-0.3,0.1-0.3,0.2
		c0,0.2,0.1,0.2,0.3,0.2h1.6c0.3,0,0.4,0.1,0.4,0.4v0.5c0,0.3-0.1,0.4-0.4,0.4h-1.6c-0.2,0-0.3,0.1-0.3,0.2c0,0.2,0.1,0.2,0.4,0.2
		l1.4-0.1c0.3,0,0.5,0,0.6,0.2c0,0.2,0.1,0.1,0.4-0.2c0.5-0.6,0.8-1.4,1-2.2c0.3-1.2,0.5-2.6,0.6-4.2c0-0.2-0.1-0.3-0.3-0.3H424
		c-0.3,0-0.4-0.1-0.4-0.4v-0.6c0-0.3,0.1-0.4,0.4-0.4h0.5c0.2,0,0.3-0.1,0.3-0.3v-1.8c0-0.3,0.1-0.4,0.4-0.4h0.8
		c0.3,0,0.4,0.1,0.4,0.4v1.8c0,0.2,0.1,0.3,0.3,0.3h1.4c0.3,0,0.4,0.1,0.4,0.4c0,3.4-0.2,6.2-0.5,8.5c-0.2,0.7-0.7,1.1-1.3,1.2
		c-0.4,0-0.7,0-1-0.1c-0.3-0.1-0.5-0.2-0.5-0.5l-0.1-0.7c0-0.3,0.1-0.4,0.4-0.3c0.4,0.1,0.8,0.2,1,0.1c0.3-0.3,0.4-0.8,0.4-1.7
		c0.1-1.6,0.2-3.3,0.2-5.1c0-0.2-0.1-0.3-0.3-0.3s-0.3,0.1-0.4,0.4c-0.1,1.7-0.3,3.1-0.6,4.3c-0.4,1.3-0.9,2.5-1.7,3.4
		c-0.3,0.3-0.5,0.3-0.8,0c-0.3-0.3-0.4-0.3-0.4-0.2c0,0-0.1,0.1-0.5,0.1c-1.8,0.2-3.7,0.3-5.6,0.4c-0.3,0-0.5-0.1-0.5-0.5
		c0-0.2-0.1-0.4-0.1-0.5c-0.1-0.3,0.1-0.5,0.4-0.5l2.1-0.1c0.2,0,0.3-0.1,0.3-0.3c0-0.2-0.1-0.3-0.3-0.3h-1.9
		c-0.3,0-0.4-0.1-0.4-0.4v-0.5c0-0.3,0.1-0.4,0.4-0.4h1.9c0.2,0,0.3-0.1,0.3-0.2c0-0.2-0.1-0.2-0.3-0.2h-1.9c-0.3,0-0.4-0.1-0.4-0.4
		v-3.9c0-0.3,0.1-0.4,0.4-0.4h1.9c0.2,0,0.3-0.1,0.3-0.2c0-0.1-0.1-0.2-0.3-0.2h-2.1c-0.3,0-0.4-0.1-0.4-0.4V35
		c0-0.3,0.1-0.4,0.4-0.4h2.1c0.2,0,0.3-0.1,0.3-0.2s-0.1-0.2-0.4-0.2c-0.5,0-1,0.1-1.5,0.1c-0.3,0-0.5-0.1-0.7-0.4
		c0-0.1-0.1-0.3-0.2-0.4C416.3,33.1,416.3,32.9,416.6,32.9z M419.1,37.8c0-0.1-0.1-0.2-0.3-0.2h-0.5c-0.2,0-0.3,0.1-0.3,0.2
		c0,0.1,0.1,0.2,0.3,0.2h0.5C418.9,38,419.1,37.9,419.1,37.8z M419.1,39.4c0-0.1-0.1-0.2-0.3-0.2h-0.5c-0.2,0-0.3,0.1-0.3,0.2
		c0,0.1,0.1,0.2,0.3,0.2h0.5C418.9,39.6,419.1,39.6,419.1,39.4z M421.7,37.8c0-0.1-0.1-0.2-0.3-0.2h-0.5c-0.2,0-0.3,0.1-0.3,0.2
		c0,0.1,0.1,0.2,0.3,0.2h0.5C421.6,38,421.7,37.9,421.7,37.8z M421.7,39.4c0-0.1-0.1-0.2-0.3-0.2h-0.5c-0.2,0-0.3,0.1-0.3,0.2
		c0,0.1,0.1,0.2,0.3,0.2h0.5C421.6,39.6,421.7,39.6,421.7,39.4z"/>
	<path class="st2" d="M431.7,32.7c0.1-0.3,0.3-0.4,0.5-0.3c0.2,0,0.4,0.1,0.7,0.2c0.3,0.1,0.5,0.2,0.4,0.3c0,0.1,0.1,0.2,0.3,0.2
		h2.4c0.3,0,0.4,0.1,0.4,0.4v0.4c0,0.2,0.1,0.2,0.3-0.1c0.2-0.3,0.4-0.6,0.6-0.9c0.2-0.3,0.4-0.4,0.7-0.3l0.6,0.2
		c0.3,0.1,0.4,0.2,0.4,0.2c0,0.1,0,0.2,0.3,0.2h3c0.3,0,0.4,0.1,0.4,0.4V34c0,0.3-0.1,0.4-0.4,0.4h-1.2c-0.2,0-0.2,0.1,0,0.3
		c0.2,0.2,0.1,0.4-0.2,0.6l-0.5,0.3c-0.3,0.2-0.5,0.2-0.7-0.1c-0.2-0.2-0.4-0.5-0.6-0.7c-0.2-0.2-0.4-0.3-0.6-0.3
		c-0.2,0-0.4,0.1-0.6,0.4c-0.1,0.2-0.3,0.4-0.5,0.6c-0.2,0.2-0.3,0.3-0.3,0.4c0,0.1,0.1,0.1,0.3,0.1h4.6c0.3,0,0.4,0.1,0.4,0.4v1.7
		c0,0.3-0.1,0.4-0.4,0.4h-0.8c-0.3,0-0.4-0.1-0.4-0.4v-0.4c0-0.2-0.1-0.3-0.3-0.3h-8.5c-0.2,0-0.3,0.1-0.3,0.3v0.4
		c0,0.3-0.1,0.4-0.4,0.4h-0.8c-0.3,0-0.4-0.1-0.4-0.4v-1.7c0-0.3,0.1-0.4,0.4-0.4h0.5c0.2,0,0.2-0.1-0.1-0.3
		c-0.1-0.1-0.3-0.2-0.4-0.3c-0.3-0.2-0.3-0.4-0.1-0.7C431,34.1,431.3,33.5,431.7,32.7z M433.3,34.8c-0.2-0.2-0.3-0.4-0.4-0.4
		c-0.1,0-0.3,0.1-0.4,0.4c-0.1,0.2-0.3,0.5-0.4,0.7c-0.2,0.3-0.2,0.4,0.1,0.4h3.1c0.2,0,0.3-0.1,0.3-0.3c0-0.2,0.1-0.3,0.4-0.3h0.6
		c0.2,0,0.2-0.1-0.1-0.3l-0.1-0.1c-0.3-0.2-0.4-0.3-0.3-0.4c0.1-0.1,0-0.1-0.2-0.1h-0.7c-0.2,0-0.3,0.1-0.2,0.3
		c0.1,0.2,0,0.4-0.2,0.5l-0.6,0.3c-0.3,0.2-0.5,0.1-0.6-0.2C433.5,35.2,433.4,35,433.3,34.8z M432.2,38.2c0-0.3,0.1-0.4,0.4-0.4h7.7
		c0.3,0,0.4,0.1,0.4,0.4v2.3c0,0.3-0.1,0.4-0.4,0.4h-6.2c-0.2,0-0.3,0.1-0.3,0.3c0,0.2,0.1,0.3,0.3,0.3h6.9c0.3,0,0.4,0.1,0.4,0.4
		v2.7c0,0.3-0.1,0.4-0.4,0.4h-0.7c-0.3,0-0.4,0-0.4-0.1c0-0.1-0.1-0.2-0.3-0.2h-5.4c-0.2,0-0.3,0.1-0.3,0.2c0,0.1-0.1,0.2-0.4,0.2
		h-0.7c-0.3,0-0.4-0.1-0.4-0.4V38.2z M439.1,39.4c0-0.2-0.1-0.3-0.3-0.3h-4.7c-0.2,0-0.3,0.1-0.3,0.3c0,0.2,0.1,0.3,0.3,0.3h4.7
		C439,39.7,439.1,39.6,439.1,39.4z M439.8,43.2c0-0.2-0.1-0.3-0.3-0.3h-5.4c-0.2,0-0.3,0.1-0.3,0.3c0,0.2,0.1,0.3,0.3,0.3h5.4
		C439.7,43.5,439.8,43.4,439.8,43.2z"/>
	<path class="st2" d="M444.3,33.5c0-0.3,0.1-0.4,0.4-0.4h3.5c0.3,0,0.4,0.1,0.4,0.4v0.7c0,0.3-0.1,0.4-0.4,0.4h-0.7
		c-0.2,0-0.3,0.1-0.3,0.3v1.7c0,0.2,0.1,0.3,0.3,0.3h0.4c0.3,0,0.4,0.1,0.4,0.4v0.7c0,0.3-0.1,0.4-0.4,0.4h-0.4
		c-0.2,0-0.3,0.1-0.3,0.3v2.4c0,0.2,0.1,0.3,0.4,0.3l0.6-0.2c0.3-0.1,0.4,0.1,0.5,0.4l0.1,0.5c0,0.3-0.1,0.5-0.4,0.6
		c-1.1,0.3-2.2,0.6-3.3,0.8c-0.3,0.1-0.5,0-0.6-0.3c-0.1-0.2-0.1-0.5-0.1-0.7c-0.1-0.3,0.1-0.5,0.4-0.5l0.6-0.1
		c0.2-0.1,0.3-0.2,0.3-0.4v-2.7c0-0.2-0.1-0.3-0.3-0.3h-0.5c-0.3,0-0.4-0.1-0.4-0.4v-0.7c0-0.3,0.1-0.4,0.4-0.4h0.5
		c0.2,0,0.3-0.1,0.3-0.3v-1.7c0-0.2-0.1-0.3-0.3-0.3h-0.6c-0.3,0-0.4-0.1-0.4-0.4V33.5z M448.9,33.2c0-0.3,0.1-0.4,0.4-0.4h6.7
		c0.3,0,0.4,0.1,0.4,0.4v6.4c0,0.3-0.1,0.4-0.4,0.4h-2.2c-0.2,0-0.3,0.1-0.3,0.4c0,0.3,0.1,0.4,0.3,0.4h2.1c0.3,0,0.4,0.1,0.4,0.4
		v0.7c0,0.3-0.1,0.4-0.4,0.4h-2.1c-0.2,0-0.3,0.1-0.3,0.3V43c0,0.2,0.1,0.3,0.3,0.3h2.6c0.3,0,0.4,0.1,0.4,0.4v0.7
		c0,0.3-0.1,0.4-0.4,0.4h-7.6c-0.3,0-0.4-0.1-0.4-0.4v-0.7c0-0.3,0.1-0.4,0.4-0.4h2.7c0.2,0,0.3-0.1,0.3-0.3v-0.4
		c0-0.2-0.1-0.3-0.3-0.3h-2.3c-0.3,0-0.4-0.1-0.4-0.4v-0.7c0-0.3,0.1-0.4,0.4-0.4h2.3c0.2,0,0.3-0.1,0.3-0.4c0-0.3-0.1-0.4-0.3-0.4
		h-2.2c-0.3,0-0.4-0.1-0.4-0.4V33.2z M451.9,34.6c0-0.2-0.1-0.4-0.3-0.4h-0.7c-0.2,0-0.3,0.1-0.3,0.3v0.5c0,0.2,0.1,0.3,0.3,0.3h0.7
		c0.2,0,0.3-0.1,0.3-0.3V34.6z M451.9,37.3c0-0.2-0.1-0.3-0.3-0.3h-0.7c-0.2,0-0.3,0.1-0.3,0.3v0.8c0,0.2,0.1,0.3,0.3,0.3h0.7
		c0.2,0,0.3-0.1,0.3-0.3V37.3z M454.8,34.6c0-0.2-0.1-0.4-0.3-0.4h-0.7c-0.2,0-0.3,0.1-0.3,0.3v0.5c0,0.2,0.1,0.3,0.3,0.3h0.7
		c0.2,0,0.3-0.1,0.3-0.3V34.6z M454.8,37.3c0-0.2-0.1-0.3-0.3-0.3h-0.7c-0.2,0-0.3,0.1-0.3,0.3v0.8c0,0.2,0.1,0.3,0.3,0.3h0.7
		c0.2,0,0.3-0.1,0.3-0.3V37.3z"/>
</g>
<circle class="st3" cx="179.5" cy="257.7" r="35.1"/>
</svg>
