<svg xmlns="http://www.w3.org/2000/svg" viewBox="0 0 6463 1721"><defs><style>.cls-1{fill:#f9f9f9;}.cls-10,.cls-11,.cls-12,.cls-13,.cls-14,.cls-15,.cls-16,.cls-17,.cls-18,.cls-19,.cls-2,.cls-22,.cls-24,.cls-25,.cls-31,.cls-32,.cls-33,.cls-36,.cls-37,.cls-38,.cls-41,.cls-42,.cls-44,.cls-46,.cls-49,.cls-5,.cls-50,.cls-51,.cls-52,.cls-53,.cls-54,.cls-58,.cls-60,.cls-61,.cls-62,.cls-63,.cls-64,.cls-65,.cls-71,.cls-72,.cls-74{fill:none;}.cls-10,.cls-11,.cls-12,.cls-13,.cls-14,.cls-15,.cls-16,.cls-17,.cls-18,.cls-19,.cls-2,.cls-20,.cls-21,.cls-22,.cls-23,.cls-24,.cls-25,.cls-26,.cls-27,.cls-28,.cls-3,.cls-31,.cls-32,.cls-33,.cls-36,.cls-37,.cls-38,.cls-39,.cls-4,.cls-40,.cls-41,.cls-42,.cls-44,.cls-46,.cls-49,.cls-5,.cls-50,.cls-51,.cls-52,.cls-53,.cls-54,.cls-55,.cls-56,.cls-57,.cls-58,.cls-59,.cls-6,.cls-60,.cls-61,.cls-62,.cls-63,.cls-64,.cls-65,.cls-66,.cls-67,.cls-68,.cls-69,.cls-7,.cls-70,.cls-71,.cls-72,.cls-73,.cls-74,.cls-75,.cls-76,.cls-8{stroke:#3d4451;}.cls-10,.cls-11,.cls-12,.cls-13,.cls-14,.cls-15,.cls-16,.cls-17,.cls-18,.cls-19,.cls-2,.cls-20,.cls-21,.cls-22,.cls-23,.cls-24,.cls-25,.cls-26,.cls-27,.cls-28,.cls-3,.cls-31,.cls-32,.cls-33,.cls-36,.cls-37,.cls-38,.cls-39,.cls-4,.cls-40,.cls-41,.cls-42,.cls-43,.cls-44,.cls-45,.cls-46,.cls-47,.cls-48,.cls-49,.cls-5,.cls-50,.cls-51,.cls-52,.cls-53,.cls-54,.cls-55,.cls-56,.cls-57,.cls-58,.cls-59,.cls-6,.cls-60,.cls-61,.cls-62,.cls-63,.cls-64,.cls-65,.cls-66,.cls-67,.cls-68,.cls-69,.cls-7,.cls-70,.cls-75,.cls-76,.cls-8{stroke-miterlimit:10;}.cls-2,.cls-3{stroke-width:10px;}.cls-21,.cls-27,.cls-28,.cls-3,.cls-35,.cls-40,.cls-45,.cls-48,.cls-56,.cls-66,.cls-75{fill:#ff5254;}.cls-20,.cls-23,.cls-26,.cls-34,.cls-4,.cls-43,.cls-47,.cls-55,.cls-57,.cls-59,.cls-6,.cls-68,.cls-69,.cls-70,.cls-73,.cls-76{fill:#427fe0;}.cls-4{stroke-width:9px;}.cls-5{stroke-width:9.74px;}.cls-6,.cls-7{stroke-width:6.75px;}.cls-30,.cls-67,.cls-7,.cls-8{fill:#fdc345;}.cls-8{stroke-width:6.49px;}.cls-9{fill:#3d4451;}.cls-10,.cls-11,.cls-12,.cls-13,.cls-14,.cls-15{stroke-width:15.65px;}.cls-10{stroke-dasharray:81.48 48.89;}.cls-12{stroke-dasharray:74.15 41.71;}.cls-13{stroke-dasharray:75.9 42.69;}.cls-14{stroke-dasharray:71.5 43.7;}.cls-15{stroke-dasharray:79.04 48.3;}.cls-16{stroke-width:13.72px;stroke-dasharray:71.43 42.86;}.cls-17{stroke-width:11.34px;}.cls-18{stroke-width:12.59px;}.cls-19{stroke-width:8.82px;}.cls-20,.cls-21{stroke-width:6.08px;}.cls-22{stroke-width:10.9px;}.cls-23{stroke-width:7.39px;}.cls-24{stroke-width:6.63px;}.cls-25{stroke-width:10.36px;}.cls-26,.cls-27{stroke-width:7.89px;}.cls-28{stroke-width:7.58px;}.cls-29{fill:#fff;}.cls-31{stroke-width:7.2px;}.cls-32,.cls-33,.cls-36,.cls-41,.cls-42,.cls-43,.cls-44,.cls-45,.cls-46,.cls-47,.cls-48,.cls-49,.cls-50,.cls-51,.cls-52,.cls-53,.cls-54,.cls-71,.cls-72,.cls-73,.cls-74{stroke-linecap:round;}.cls-32{stroke-width:12.83px;}.cls-33{stroke-width:10.54px;}.cls-36,.cls-38,.cls-39{stroke-width:9.49px;}.cls-37{stroke-width:10.55px;}.cls-39{fill:#f5fafc;}.cls-40{stroke-width:6px;}.cls-41{stroke-width:8px;}.cls-42{stroke-width:8.94px;}.cls-43,.cls-47{stroke:#427fe0;}.cls-43{stroke-width:10.37px;}.cls-44,.cls-47,.cls-48{stroke-width:8.64px;}.cls-45{stroke:#f04f4c;stroke-width:12.96px;}.cls-46{stroke-width:6.48px;}.cls-48{stroke:#ff5254;}.cls-49{stroke-width:9.72px;}.cls-50{stroke-width:6.84px;}.cls-51{stroke-width:7.98px;}.cls-52{stroke-width:5.7px;}.cls-53{stroke-width:4.56px;}.cls-54{stroke-width:7px;}.cls-55{stroke-width:4.55px;}.cls-56,.cls-57{stroke-width:5px;}.cls-58{stroke-width:13.18px;}.cls-59{stroke-width:12.29px;}.cls-60{stroke-width:9.55px;}.cls-61{stroke-width:11.71px;}.cls-62{stroke-width:9.26px;}.cls-63{stroke-width:8.43px;}.cls-64{stroke-width:10.15px;}.cls-65{stroke-width:8.98px;}.cls-66{stroke-width:10.16px;}.cls-67{stroke-width:9.15px;}.cls-68{stroke-width:9.13px;}.cls-69{stroke-width:8.23px;}.cls-70,.cls-71{stroke-width:9.41px;}.cls-71,.cls-72,.cls-73,.cls-74{stroke-linejoin:round;}.cls-72,.cls-73{stroke-width:10.95px;}.cls-74{stroke-width:6.35px;}.cls-75{stroke-width:6.68px;}.cls-76{stroke-width:14px;}</style></defs><title>SENTR-graphic</title><g id="icon"><path class="cls-1" d="M2394.94,1225c0,22.13-13.3,41.4-30.43,41.4H2183.36c-17.13,0-31.62-19.27-31.62-41.4V932.66c0-22.12,14.49-39,31.62-39h181.15c17.13,0,30.43,16.91,30.43,39Z"/><path class="cls-2" d="M2363.31,1193.91c0,21.94-13.36,41-30.56,41h-181.9c-17.2,0-31.75-19.11-31.75-41V904c0-21.94,14.55-38.71,31.75-38.71h181.9c17.2,0,30.56,16.77,30.56,38.71Z"/><path class="cls-3" d="M2261.59,1179.9c0,11.16-10,20.2-22.4,20.2s-22.4-9-22.4-20.2,10-20.2,22.4-20.2S2261.59,1168.74,2261.59,1179.9Z"/><line class="cls-2" x1="2167.71" y1="865.26" x2="2167.71" y2="1234.96"/><line class="cls-2" x1="2307.91" y1="865.26" x2="2307.91" y2="1234.96"/><rect class="cls-4" x="2169.97" y="1094.84" width="137.93" height="29.79"/><rect class="cls-4" x="2169.97" y="1033.14" width="137.93" height="29.79"/><rect class="cls-4" x="2169.97" y="967.19" width="137.93" height="29.79"/><rect class="cls-4" x="2169.97" y="906.55" width="137.93" height="29.79"/><line class="cls-5" x1="2432.27" y1="943.49" x2="2368.96" y2="943.49"/><line class="cls-5" x1="2426.62" y1="1187.86" x2="2363.31" y2="1187.86"/><line class="cls-5" x1="2432.27" y1="1068.94" x2="2368.96" y2="1068.94"/><path class="cls-6" d="M2552.62,1181.3V1209c0,10.78-27.59,19.53-61.63,19.53s-61.64-8.75-61.64-19.53v-27.7"/><ellipse class="cls-6" cx="2490.99" cy="1179.96" rx="61.64" ry="19.53"/><path class="cls-7" d="M2550.62,1053.52v27.71c0,10.78-27.59,19.52-61.63,19.52s-61.64-8.74-61.64-19.52v-27.71"/><ellipse class="cls-8" cx="2488.99" cy="1053.67" rx="61.64" ry="18.05"/><path class="cls-6" d="M2550.62,929.33V957c0,10.78-27.59,19.52-61.63,19.52s-61.64-8.74-61.64-19.52v-27.7"/><ellipse class="cls-6" cx="2488.99" cy="927.99" rx="61.64" ry="19.53"/><path class="cls-9" d="M2483.77,926a8.81,8.81,0,0,1-6-2.65l-29.42-29.21a6.59,6.59,0,0,1,.64-10.06,8.82,8.82,0,0,1,11.33.54l23,22.73,47.87-53.83a8.77,8.77,0,0,1,11.27-1.21,6.52,6.52,0,0,1,1.37,9.92L2490.08,923a8.43,8.43,0,0,1-6.06,3Z"/><path class="cls-9" d="M2487.27,1056.5a8.81,8.81,0,0,1-6-2.65l-29.42-29.21a6.59,6.59,0,0,1,.64-10.06,8.82,8.82,0,0,1,11.33.54l23,22.73L2534.74,984a8.77,8.77,0,0,1,11.27-1.21,6.52,6.52,0,0,1,1.37,9.92l-53.8,60.77a8.43,8.43,0,0,1-6.06,3Z"/><path class="cls-9" d="M2488.77,1181a8.81,8.81,0,0,1-6-2.65l-29.42-29.21a6.59,6.59,0,0,1,.64-10.06,8.82,8.82,0,0,1,11.33.54l23,22.73,47.87-53.83a8.77,8.77,0,0,1,11.27-1.21,6.52,6.52,0,0,1,1.37,9.92l-53.8,60.77a8.43,8.43,0,0,1-6.06,3Z"/><line class="cls-10" x1="2281.98" y1="789.29" x2="2281.98" y2="536.44"/><line class="cls-11" x1="455.98" y1="789.29" x2="455.98" y2="749.29"/><line class="cls-12" x1="455.98" y1="707.58" x2="455.98" y2="380.85"/><polyline class="cls-11" points="455.98 360 455.98 320 495.98 320"/><line class="cls-13" x1="538.68" y1="320" x2="1584.65" y2="320"/><line class="cls-11" x1="2195" y1="320" x2="2235" y2="320"/><line class="cls-11" x1="6149" y1="789.29" x2="6149" y2="749.29"/><line class="cls-14" x1="6149" y1="705.59" x2="6149" y2="381.85"/><polyline class="cls-11" points="6149 360 6149 320 6109 320"/><line class="cls-15" x1="6060.7" y1="320" x2="5066.15" y2="320"/><line class="cls-11" x1="5042" y1="320" x2="5002" y2="320"/><line class="cls-15" x1="5420.7" y1="320" x2="4426.15" y2="320"/><line class="cls-16" x1="3337.22" y1="760.72" x2="3337.22" y2="566.44"/><line class="cls-16" x1="4347.46" y1="760.72" x2="4347.46" y2="566.44"/><line class="cls-16" x1="5235.56" y1="760.72" x2="5235.56" y2="348"/><line class="cls-10" x1="1380.98" y1="789.29" x2="1380.98" y2="320"/><line class="cls-17" x1="281.22" y1="1150.01" x2="281.22" y2="987.73"/><line class="cls-17" x1="431.21" y1="1255.36" x2="301.61" y2="1180.96"/><line class="cls-17" x1="610.06" y1="1181.05" x2="474.42" y2="1257.25"/><line class="cls-17" x1="631.61" y1="994.02" x2="631.61" y2="1150.4"/><line class="cls-17" x1="478.42" y1="876.6" x2="616.29" y2="956.02"/><line class="cls-17" x1="299.73" y1="952.19" x2="436.81" y2="874.97"/><circle class="cls-1" cx="476.77" cy="1078.02" r="103.66" transform="translate(-12.47 5.6) rotate(-0.66)"/><circle class="cls-18" cx="456.95" cy="1063.24" r="106.51" transform="translate(-12.18 5.32) rotate(-0.66)"/><line class="cls-19" x1="557.97" y1="1010.76" x2="614.35" y2="975.59"/><line class="cls-19" x1="305.81" y1="1160.95" x2="362.57" y2="1126.27"/><line class="cls-19" x1="549.57" y1="1117.95" x2="614.35" y2="1162.17"/><line class="cls-19" x1="305.81" y1="973.15" x2="358.31" y2="1004.46"/><path class="cls-9" d="M386,1007.48h-.11l-7.29,3.47-1.47-6.7,10.11-4.7h7.4v38.2H386Z"/><path class="cls-9" d="M435.43,1018.47c0,11.81-4.76,19.92-14.52,19.92s-14.22-8.87-14.28-19.68c0-11.05,4.71-19.8,14.58-19.8C431.43,998.91,435.43,1008,435.43,1018.47Zm-19.8.24c-.06,8.75,2.05,12.93,5.52,12.93s5.35-4.35,5.35-13.05c0-8.46-1.83-12.93-5.41-12.93C417.8,1005.66,415.57,1009.83,415.63,1018.71Z"/><path class="cls-9" d="M451.23,1007.48h-.12l-7.28,3.47-1.47-6.7,10.11-4.7h7.4v38.2h-8.64Z"/><path class="cls-9" d="M483.84,1007.48h-.12l-7.28,3.47-1.47-6.7,10.1-4.7h7.41v38.2h-8.64Z"/><path class="cls-9" d="M533.26,1018.47c0,11.81-4.76,19.92-14.52,19.92s-14.22-8.87-14.28-19.68c0-11.05,4.7-19.8,14.58-19.8C529.26,998.91,533.26,1008,533.26,1018.47Zm-19.81.24c-.06,8.75,2.06,12.93,5.53,12.93s5.34-4.35,5.34-13.05c0-8.46-1.82-12.93-5.4-12.93C515.63,1005.66,513.39,1009.83,513.45,1018.71Z"/><path class="cls-9" d="M390.16,1067.1c0,11.81-4.76,19.92-14.52,19.92s-14.22-8.87-14.28-19.69c0-11,4.7-19.8,14.58-19.8C386.16,1047.53,390.16,1056.64,390.16,1067.1Zm-19.81.23c-.05,8.76,2.06,12.93,5.53,12.93s5.35-4.35,5.35-13c0-8.47-1.83-12.93-5.41-12.93C372.53,1054.29,370.3,1058.46,370.35,1067.33Z"/><path class="cls-9" d="M406,1056.11h-.12l-7.28,3.47-1.47-6.7,10.1-4.7h7.41v38.19H406Z"/><path class="cls-9" d="M455.38,1067.1c0,11.81-4.76,19.92-14.52,19.92s-14.22-8.87-14.28-19.69c0-11,4.7-19.8,14.58-19.8C451.38,1047.53,455.38,1056.64,455.38,1067.1Zm-19.81.23c-.06,8.76,2.06,12.93,5.53,12.93s5.34-4.35,5.34-13c0-8.47-1.82-12.93-5.4-12.93C437.75,1054.29,435.51,1058.46,435.57,1067.33Z"/><path class="cls-9" d="M471.18,1056.11h-.12l-7.28,3.47-1.47-6.7,10.1-4.7h7.41v38.19h-8.64Z"/><path class="cls-9" d="M503.79,1056.11h-.12l-7.29,3.47-1.46-6.7,10.1-4.7h7.41v38.19h-8.64Z"/><path class="cls-9" d="M553.2,1067.1c0,11.81-4.76,19.92-14.51,19.92s-14.22-8.87-14.28-19.69c0-11,4.7-19.8,14.57-19.8C549.21,1047.53,553.2,1056.64,553.2,1067.1Zm-19.8.23c-.06,8.76,2.06,12.93,5.52,12.93s5.35-4.35,5.35-13c0-8.47-1.82-12.93-5.4-12.93C535.58,1054.29,533.34,1058.46,533.4,1067.33Z"/><path class="cls-9" d="M418.26,1115.73c0,11.81-4.76,19.92-14.52,19.92s-14.22-8.88-14.28-19.69c0-11,4.7-19.8,14.58-19.8C414.26,1096.16,418.26,1105.27,418.26,1115.73Zm-19.81.23c-.06,8.76,2.06,12.93,5.53,12.93s5.34-4.35,5.34-13.05c0-8.46-1.82-12.92-5.4-12.92C400.63,1102.92,398.39,1107.09,398.45,1116Z"/><path class="cls-9" d="M434.06,1104.74h-.12l-7.28,3.46-1.47-6.7,10.1-4.7h7.41V1135h-8.64Z"/><path class="cls-9" d="M483.47,1115.73c0,11.81-4.76,19.92-14.51,19.92s-14.22-8.88-14.28-19.69c0-11,4.7-19.8,14.57-19.8C479.48,1096.16,483.47,1105.27,483.47,1115.73Zm-19.8.23c-.06,8.76,2.06,12.93,5.53,12.93s5.34-4.35,5.34-13.05c0-8.46-1.82-12.92-5.4-12.92C465.85,1102.92,463.61,1107.09,463.67,1116Z"/><path class="cls-9" d="M516.08,1115.73c0,11.81-4.76,19.92-14.51,19.92s-14.22-8.88-14.28-19.69c0-11,4.7-19.8,14.57-19.8C512.09,1096.16,516.08,1105.27,516.08,1115.73Zm-19.8.23c-.06,8.76,2.06,12.93,5.52,12.93s5.35-4.35,5.35-13.05c0-8.46-1.82-12.92-5.4-12.92C498.46,1102.92,496.22,1107.09,496.28,1116Z"/><path class="cls-20" d="M591.75,1160.66v20.41c0,7.94,21.09,14.37,47.1,14.37S686,1189,686,1181.07v-20.41"/><ellipse class="cls-20" cx="638.85" cy="1159.68" rx="47.11" ry="14.38"/><path class="cls-21" d="M591.75,960.08v20.4c0,7.94,21.09,14.38,47.1,14.38S686,988.42,686,980.48v-20.4"/><ellipse class="cls-21" cx="638.85" cy="960.19" rx="47.11" ry="13.29"/><path class="cls-20" d="M226,1158.64V1179c0,7.94,21.09,14.38,47.11,14.38s47.1-6.44,47.1-14.38v-20.4"/><ellipse class="cls-20" cx="273.15" cy="1157.65" rx="47.11" ry="14.38"/><path class="cls-21" d="M226,958.05v20.41c0,7.94,21.09,14.38,47.11,14.38s47.1-6.44,47.1-14.38V958.05"/><ellipse class="cls-21" cx="273.15" cy="958.16" rx="47.11" ry="13.29"/><path class="cls-20" d="M411.43,856.75v20.4c0,7.94,21.09,14.38,47.1,14.38s47.11-6.44,47.11-14.38v-20.4"/><ellipse class="cls-20" cx="458.53" cy="855.77" rx="47.11" ry="14.38"/><path class="cls-21" d="M411.43,1247.78v20.41c0,7.94,21.09,14.38,47.1,14.38s47.11-6.44,47.11-14.38v-20.41"/><ellipse class="cls-21" cx="458.53" cy="1246.8" rx="47.11" ry="14.38"/><path class="cls-1" d="M1546.06,1252.4a.77.77,0,0,1-.76.79H1159.12a.77.77,0,0,1-.76-.79V988.84a.77.77,0,0,1,.76-.79H1545.3a.77.77,0,0,1,.76.79Z"/><rect class="cls-22" x="1136.77" y="954.05" width="401.88" height="264.12" rx="1.57"/><path class="cls-23" d="M1212.59,1056.87c23.68,17.79,50.28-8.84,32.49-32.51a1.42,1.42,0,0,0-.3-.3c-23.69-17.81-50.33,8.84-32.5,32.51A1.76,1.76,0,0,0,1212.59,1056.87Z"/><path class="cls-23" d="M1269.2,1110.51c-.1-22.47-17.65-45.28-39.31-45.28s-39.2,22.81-39.3,45.28Z"/><rect class="cls-24" x="1167.67" y="998.72" width="128.08" height="127.62"/><path class="cls-9" d="M1367.64,1167.07a5.62,5.62,0,0,1-5.84,5.82H1323c-3.38,0-5.46-2.42-5.46-5.82v-.28c0-3.41,2.08-5.88,5.46-5.88h38.76a5.66,5.66,0,0,1,5.84,5.88Z"/><path class="cls-9" d="M1366.75,1116a5.92,5.92,0,0,1-5.78,6.23h-38.76c-3.39,0-5.53-2.83-5.53-6.23v-.28c0-3.41,2.14-6.4,5.53-6.4H1361c3.38,0,5.78,3,5.78,6.4Z"/><path class="cls-9" d="M1365.86,1062.71a5.37,5.37,0,0,1-5.73,5.62h-38.76a5.25,5.25,0,0,1-5.58-5.62v-.28c0-3.41,2.19-6.08,5.58-6.08h38.76a5.74,5.74,0,0,1,5.73,6.08Z"/><path class="cls-9" d="M1365,1006.3a5.57,5.57,0,0,1-5.67,5.93h-38.76c-3.38,0-6.53-2.53-6.53-5.93V1006c0-3.41,3.15-5.78,6.53-5.78h38.76A5.45,5.45,0,0,1,1365,1006Z"/><rect class="cls-9" x="1396.67" y="1040.29" width="92.75" height="12.65"/><rect class="cls-9" x="1396.67" y="1087.72" width="92.75" height="12.65"/><rect class="cls-9" x="1396.67" y="1135.15" width="92.75" height="12.65"/><line class="cls-25" x1="1341.86" y1="949.91" x2="1341.86" y2="1218.17"/><path class="cls-26" d="M1600,1191.63V1224c0,12.6-32.24,22.81-72,22.81s-72-10.21-72-22.81v-32.37"/><ellipse class="cls-26" cx="1527.99" cy="1190.07" rx="72.01" ry="22.81"/><path class="cls-27" d="M1600,1138.59V1171c0,12.6-32.24,22.81-72,22.81s-72-10.21-72-22.81v-32.37"/><ellipse class="cls-28" cx="1527.99" cy="1138.76" rx="72.01" ry="21.08"/><path class="cls-26" d="M1600,1085.55v32.37c0,12.6-32.24,22.82-72,22.82s-72-10.22-72-22.82v-32.37"/><ellipse class="cls-26" cx="1527.99" cy="1083.99" rx="72.01" ry="22.81"/><path class="cls-29" d="M1532.51,900.67c-68.88-.5-104.62,78.27-64.63,122,26.9,29.4,18.24,55.6,18.24,55.6h82.68c-9.69-30.85,6.29-40,11.19-48C1632.56,972.71,1596.81,901.14,1532.51,900.67Z"/><path class="cls-30" d="M1560.63,1031.19c-4.29,5.33-20.5,13.71-14.25,38.36h-44.1s3.41-20.93-13.93-44.43c-17.2-23.29-15.86-60.77,4.44-81.8,9.78-10.13,23.3-16.06,37.23-15.66a53.33,53.33,0,0,1,25.09,7.05c12.16,7,21,20,23.67,34a76.55,76.55,0,0,1-6.19,46.15c-2.58,5.51-8.1,11.74-11.85,16.5"/><path class="cls-31" d="M1532.51,900.67c-76.1,0-104.62,78.27-64.63,122,26.9,29.4,18.24,55.6,18.24,55.6h82.68c-9.69-30.85,6.29-40,11.19-48C1632.56,972.71,1584.56,900.67,1532.51,900.67Z"/><path class="cls-9" d="M1511.23,1076.52c0-19.14.18-38.29-.34-57.42-.2-7.25.91-16.7-2.18-23.49-2.43-5.33-8.49-8.66-14.25-6.46-11.76,4.49-2.7,20.62,4.8,24.26,11,5.37,25.42,2.47,32.86-7.29,3.24-4.26,5.53-9.79,5.23-15.22-.33-5.82-5-9.61-10.88-8.27-12.35,2.84-15.42,18-7.11,26.51s22.42,10,33.06,5.93c8.8-3.32,20.29-14.07,9.3-22.58-5.62-4.35-13.51-3.57-18.73,1-5.87,5.13-6.79,12.51-6.87,19.9-.22,21.66,1.11,43.32,2,64.95.17,4.11,6.59,4.13,6.41,0-1-22.59-3.08-45.55-2-68.16.23-4.68,1.21-9.29,5.13-12.28,3.66-2.79,14.08-2.2,11.62,4.51-2.39,6.5-14,8.62-19.85,8.36-7-.31-18-3.93-18.69-12.29-.33-3.71,5-12.59,9-8.66,2.85,2.78-.37,8.94-2.28,11.69-5.1,7.34-14.34,9.48-22.74,7.14-4.06-1.13-7.4-3.67-8.79-7.77-.48-1.45-1-3.48-.17-4.86,2.59-4.08,6.91,1.4,7.57,4,1.34,5.35.81,11.61,1,17.09q.28,9.9.36,19.8c.12,13.2,0,26.4,0,39.6,0,4.13,6.41,4.13,6.42,0Z"/><line class="cls-32" x1="1526.03" y1="879.06" x2="1524.98" y2="822.35"/><line class="cls-32" x1="1594.01" y1="903.62" x2="1631.06" y2="875.41"/><line class="cls-32" x1="1460.13" y1="903.51" x2="1423.09" y2="875.34"/><line class="cls-33" x1="1435.32" y1="979.95" x2="1388.24" y2="979.17"/><line class="cls-32" x1="1622.84" y1="972.99" x2="1668.58" y2="972.84"/><path class="cls-9" d="M1173.22,1162.81h-.11l-6.42,3-1.29-5.9,8.9-4.14h6.53v33.66h-7.61Z"/><path class="cls-9" d="M1216.77,1172.49c0,10.41-4.19,17.56-12.79,17.56s-12.54-7.82-12.59-17.35c0-9.74,4.15-17.45,12.85-17.45C1213.25,1155.25,1216.77,1163.27,1216.77,1172.49Zm-17.45.21c0,7.72,1.81,11.4,4.87,11.4s4.71-3.84,4.71-11.5c0-7.46-1.61-11.4-4.77-11.4C1201.23,1161.2,1199.27,1164.88,1199.32,1172.7Z"/><path class="cls-9" d="M1230.7,1162.81h-.1l-6.42,3-1.3-5.9,8.91-4.14h6.53v33.66h-7.62Z"/><path class="cls-9" d="M1259.44,1162.81h-.1l-6.42,3-1.3-5.9,8.91-4.14h6.53v33.66h-7.62Z"/><path class="cls-9" d="M1303,1172.49c0,10.41-4.19,17.56-12.79,17.56s-12.54-7.82-12.59-17.35c0-9.74,4.14-17.45,12.85-17.45C1299.48,1155.25,1303,1163.27,1303,1172.49Zm-17.45.21c-.06,7.72,1.81,11.4,4.86,11.4s4.72-3.84,4.72-11.5c0-7.46-1.61-11.4-4.77-11.4C1287.46,1161.2,1285.49,1164.88,1285.55,1172.7Z"/><rect class="cls-34" x="4109.54" y="1186.71" width="85.18" height="81.97"/><rect class="cls-34" x="4402.68" y="1190.03" width="85.18" height="81.97"/><rect class="cls-35" x="4255.56" y="1186.71" width="85.18" height="81.97"/><path class="cls-1" d="M4266.62,859.28v254.43h196.9V859.28Z"/><path class="cls-36" d="M4230.12,890.26H4196.5a8.42,8.42,0,0,0-8.42,8.41v219.89a8.42,8.42,0,0,0,8.42,8.42h176.75a8.41,8.41,0,0,0,8.41-8.42v-29.19"/><path class="cls-37" d="M4243.39,830.53V1065a10,10,0,0,0,10,10h177a10,10,0,0,0,10-10V830.53a10,10,0,0,0-10-10h-177A10,10,0,0,0,4243.39,830.53Z"/><rect class="cls-9" x="4275.47" y="876.19" width="91.19" height="14.38" rx="6.92"/><path class="cls-9" d="M4403.24,925.89H4282.66a7.19,7.19,0,0,1-7.19-7.19h0a7.19,7.19,0,0,1,7.19-7.19h120.58a7.19,7.19,0,0,1,7.19,7.19h0A7.19,7.19,0,0,1,4403.24,925.89Z"/><rect class="cls-9" x="4375.9" y="843.56" width="38.01" height="46.22"/><rect class="cls-38" x="4380.06" y="1163.76" width="92.97" height="92.97"/><rect class="cls-38" x="4237.65" y="1163.76" width="92.97" height="92.97"/><rect class="cls-38" x="4095.23" y="1163.76" width="92.97" height="92.97"/><line class="cls-38" x1="4188.2" y1="1213.01" x2="4240.37" y2="1213.01"/><line class="cls-38" x1="4327.89" y1="1213.01" x2="4380.07" y2="1213.01"/><polyline class="cls-39" points="4133.78 1157.95 4133.78 1090.48 4183.56 1090.48"/><polyline class="cls-38" points="4477.8 1209.94 4510.98 1209.94 4510.98 995.34 4442.4 995.34"/><path class="cls-9" d="M4341.75,954.34a48.52,48.52,0,0,0-29,9.63l-7.54-12.55-3.83,20.8L4297.54,993l20-6.93,20-6.93-16.07-7a36.87,36.87,0,0,1,20.3-6.08c19.81,0,35.93,15.6,35.93,34.77s-16.12,34.77-35.93,34.77a36,36,0,0,1-31.92-18.8,33.51,33.51,0,0,1-4-14.74l-11.69.42a45.12,45.12,0,0,0,5.37,19.85,47.68,47.68,0,0,0,42.23,25c26.26,0,47.63-20.85,47.63-46.47S4368,954.34,4341.75,954.34Z"/><path class="cls-1" d="M3223.59,1160.77l-25.44,64.4a17.1,17.1,0,0,0,6.58,20.67c23.77,15.3,92,40.69,262.08,5.15a17.15,17.15,0,0,0,12.6-22.64l-24.12-66.51a17.15,17.15,0,0,0-12-10.8c-29.31-7.32-125.55-27.42-209.21-.24A17,17,0,0,0,3223.59,1160.77Z"/><circle class="cls-34" cx="3354.52" cy="957.48" r="85.32" transform="translate(305.48 2652.44) rotate(-45)"/><path class="cls-40" d="M3370.22,1176.85v16.05c0,6.25-16,11.32-35.72,11.32s-35.72-5.07-35.72-11.32v-16.05"/><ellipse class="cls-40" cx="3334.5" cy="1176.07" rx="35.72" ry="11.32"/><ellipse class="cls-41" cx="3338.11" cy="1153.82" rx="140.03" ry="28.93"/><ellipse class="cls-42" cx="3336.16" cy="1249.2" rx="172.87" ry="32.33"/><line class="cls-42" x1="3198.08" y1="1150.42" x2="3163.07" y2="1247.41"/><line class="cls-42" x1="3478.14" y1="1150.42" x2="3509.26" y2="1247.41"/><line class="cls-43" x1="3247.87" y1="1023.17" x2="3247.87" y2="1103"/><line class="cls-44" x1="3465.08" y1="890" x2="3465.08" y2="992.95"/><line class="cls-45" x1="3201.98" y1="914.36" x2="3201.98" y2="1017.31"/><line class="cls-46" x1="3243.76" y1="771.76" x2="3243.76" y2="861.64"/><line class="cls-47" x1="3418.03" y1="752.96" x2="3418.03" y2="831.45"/><line class="cls-48" x1="3426.3" y1="1024.08" x2="3426.18" y2="1109.02"/><circle class="cls-49" cx="3336.51" cy="939.16" r="97.29" transform="translate(2362.65 4265.71) rotate(-89.4)"/><path class="cls-50" d="M3301.47,908.67c-8,35.76-8.34,80.52,23.49,126"/><path class="cls-51" d="M3327.73,845.09s-7.15,10.35-14.54,27.55"/><path class="cls-52" d="M3317.19,845.09s-122.86,85.2-9,185"/><path class="cls-51" d="M3331,840.76s81.45,105.52,7.91,196.43"/><path class="cls-52" d="M3349.48,845.09s124.64,92.15,11.64,187"/><path class="cls-52" d="M3281.66,859.21s57,19.57,104.79-3.55"/><path class="cls-52" d="M3426.55,902.26s-64.07,38.26-183.21,3.81"/><path class="cls-52" d="M3408.49,963.67a234.8,234.8,0,0,0,25.41-9.87"/><path class="cls-50" d="M3271.71,965.76c26.4,7.31,66.55,13.63,112.15,4.36"/><path class="cls-52" d="M3239,953.8a150.35,150.35,0,0,0,16.38,6.78"/><path class="cls-53" d="M3252.34,992.66s93.87,51,165.43,0"/><ellipse class="cls-54" cx="3336.16" cy="1249.2" rx="172.87" ry="32.33"/><path class="cls-55" d="M3378.66,1234.54v17.77c0,6.92-19.54,12.52-43.65,12.52s-43.64-5.6-43.64-12.52v-17.77"/><ellipse class="cls-55" cx="3335.02" cy="1233.69" rx="43.65" ry="12.52"/><path class="cls-56" d="M3361.49,1074.2v12.36c0,4.81-12.31,8.71-27.5,8.71s-27.51-3.9-27.51-8.71V1074.2"/><ellipse class="cls-56" cx="3333.99" cy="1074.26" rx="27.51" ry="8.05"/><path class="cls-57" d="M3366.76,1130.63v14.43c0,5.62-14.38,10.18-32.12,10.18s-32.11-4.56-32.11-10.18v-14.43"/><ellipse class="cls-57" cx="3334.64" cy="1129.93" rx="32.12" ry="10.17"/><path class="cls-1" d="M5319,1065.41c0,30-23.47,54.32-52.42,54.32s-52.42-24.32-52.42-54.32,23.47-54.32,52.42-54.32S5319,1035.41,5319,1065.41Z"/><path class="cls-58" d="M5323.67,1061.53c0,37-28.95,67-64.68,67s-64.68-30-64.68-67,29-67,64.68-67S5323.67,1024.51,5323.67,1061.53Z"/><path class="cls-59" d="M5283,1253.75c0,16.63-13,30.11-29.06,30.11s-29.06-13.48-29.06-30.11,13-30.11,29.06-30.11S5283,1237.12,5283,1253.75Z"/><path class="cls-9" d="M5289.34,1061.52c0,17.37-13.59,31.45-30.35,31.45s-30.35-14.08-30.35-31.45,13.59-31.44,30.35-31.44S5289.34,1044.16,5289.34,1061.52Z"/><line class="cls-60" x1="5311.37" y1="1021.69" x2="5390.2" y2="970.13"/><line class="cls-61" x1="5418.13" y1="1163.63" x2="5307.06" y2="1108.13"/><line class="cls-60" x1="5202.02" y1="1029.77" x2="5088.41" y2="979.29"/><line class="cls-61" x1="5217.31" y1="1109.46" x2="5106.92" y2="1178.59"/><line class="cls-62" x1="5258.99" y1="1128.55" x2="5258.04" y2="1218.49"/><line class="cls-61" x1="5246.56" y1="904.29" x2="5254.54" y2="996.06"/><line class="cls-63" x1="5077" y1="1113.61" x2="5083.98" y2="999.98"/><line class="cls-63" x1="5099.94" y1="957.16" x2="5197.69" y2="888.34"/><line class="cls-64" x1="5250.55" y1="876.37" x2="5394.19" y2="934.22"/><line class="cls-64" x1="5430.1" y1="990.08" x2="5447.05" y2="1094.81"/><line class="cls-64" x1="5108.92" y1="1207.52" x2="5221.63" y2="1244.42"/><line class="cls-64" x1="5283.27" y1="1253.31" x2="5403.16" y2="1203.53"/><path class="cls-9" d="M5082.9,1165.6c12.43.65,22.63-10,22-23.06-.54-11.15-9.19-20.21-19.83-20.77-12.43-.66-22.64,10-22,23.07C5063.61,1156,5072.26,1165,5082.9,1165.6Z"/><path class="cls-9" d="M5119.5,1226.47c4.66,0,8.14-4.94,7.22-10.24-3.88-22.5-19.75-42.62-38.75-42.62s-34.87,20.12-38.75,42.62c-.92,5.3,2.56,10.24,7.22,10.24Z"/><path class="cls-65" d="M5076.94,1166a26.91,26.91,0,1,0-25.48-25.46A26.9,26.9,0,0,0,5076.94,1166Z"/><path class="cls-65" d="M5117.65,1224a8.86,8.86,0,0,0,8.67-10.62c-4.66-23.34-23.72-44.23-46.52-44.23s-41.85,20.89-46.51,44.23A8.86,8.86,0,0,0,5042,1224Z"/><path class="cls-9" d="M5448,1148.64c12.42.66,22.62-10,22-23.06-.54-11.15-9.19-20.21-19.83-20.77-12.44-.66-22.65,10-22,23.07C5428.67,1139,5437.32,1148.08,5448,1148.64Z"/><path class="cls-9" d="M5484.57,1209.51c4.66,0,8.13-4.94,7.22-10.23-3.88-22.5-19.76-42.63-38.76-42.63s-34.86,20.13-38.75,42.63c-.91,5.29,2.56,10.23,7.23,10.23Z"/><path class="cls-65" d="M5442,1149a26.91,26.91,0,1,0-25.48-25.46A26.91,26.91,0,0,0,5442,1149Z"/><path class="cls-65" d="M5482.71,1207a8.86,8.86,0,0,0,8.67-10.62c-4.66-23.34-23.71-44.22-46.51-44.22s-41.85,20.88-46.51,44.22A8.86,8.86,0,0,0,5407,1207Z"/><path class="cls-9" d="M5245.48,844.42c12.43.65,22.63-10,22-23.06-.54-11.15-9.18-20.21-19.83-20.77-12.43-.66-22.64,10-22,23.07C5226.19,834.8,5234.84,843.86,5245.48,844.42Z"/><path class="cls-9" d="M5282.08,905.29c4.67,0,8.14-4.94,7.23-10.23-3.88-22.5-19.76-42.63-38.76-42.63s-34.87,20.13-38.75,42.63c-.91,5.29,2.56,10.23,7.22,10.23Z"/><path class="cls-65" d="M5239.52,844.82A26.91,26.91,0,1,0,5214,819.36,26.91,26.91,0,0,0,5239.52,844.82Z"/><path class="cls-65" d="M5280.23,902.8a8.86,8.86,0,0,0,8.67-10.62c-4.66-23.34-23.71-44.22-46.51-44.22s-41.85,20.88-46.52,44.22a8.87,8.87,0,0,0,8.67,10.62Z"/><path class="cls-66" d="M5445,961.67c0,18.37-14.37,33.26-32.09,33.26s-32.09-14.89-32.09-33.26,14.37-33.25,32.09-33.25S5445,943.31,5445,961.67Z"/><path class="cls-67" d="M5110.89,978.94c0,16.16-12.65,29.26-28.25,29.26s-28.24-13.1-28.24-29.26,12.65-29.27,28.24-29.27S5110.89,962.77,5110.89,978.94Z"/><polygon class="cls-9" points="5082.45 1003.54 5105.93 1038.73 5059.54 1037.95 5082.45 1003.54"/><polygon class="cls-9" points="5284.34 1251.92 5311.67 1219.62 5323.75 1264.41 5284.34 1251.92"/><polygon class="cls-9" points="5398.62 934.34 5356.32 933.74 5383.24 895.97 5398.62 934.34"/><path class="cls-34" d="M6227.62,896.25a31.22,31.22,0,1,0-31.15-31.3A31.21,31.21,0,0,0,6227.62,896.25Z"/><path class="cls-34" d="M6079.49,957.19A31.22,31.22,0,1,0,6048.27,926,31.22,31.22,0,0,0,6079.49,957.19Z"/><path class="cls-34" d="M6080.59,1082.09a31.22,31.22,0,1,0-31.14-31.29A31.22,31.22,0,0,0,6080.59,1082.09Z"/><path class="cls-34" d="M6227.62,1013.87a31.22,31.22,0,1,0-31.15-31.29A31.21,31.21,0,0,0,6227.62,1013.87Z"/><path class="cls-34" d="M6227.62,1138.55a31.22,31.22,0,1,0-31.15-31.3A31.21,31.21,0,0,0,6227.62,1138.55Z"/><path class="cls-34" d="M6227.62,1257.35a31.22,31.22,0,1,0-31.15-31.3A31.21,31.21,0,0,0,6227.62,1257.35Z"/><path class="cls-34" d="M5943,1152.67a31.23,31.23,0,1,0-31.14-31.3A31.22,31.22,0,0,0,5943,1152.67Z"/><path class="cls-34" d="M5943,1024.46a31.22,31.22,0,1,0-31.14-31.3A31.22,31.22,0,0,0,5943,1024.46Z"/><path class="cls-34" d="M6076.71,1206.2a31.22,31.22,0,1,0-31.22-31.22A31.23,31.23,0,0,0,6076.71,1206.2Z"/><path class="cls-68" d="M5854.32,1085.39a41.09,41.09,0,1,0-41.09-41.09A41.09,41.09,0,0,0,5854.32,1085.39Z"/><path class="cls-69" d="M6087.87,954.49a36.71,36.71,0,1,0-36.71-36.71A36.7,36.7,0,0,0,6087.87,954.49Z"/><path class="cls-69" d="M6087.77,1080.59a36.71,36.71,0,1,0-36.61-36.8A36.71,36.71,0,0,0,6087.77,1080.59Z"/><path class="cls-69" d="M6086,1205.75a36.71,36.71,0,1,0-36.7-36.7A36.71,36.71,0,0,0,6086,1205.75Z"/><path class="cls-70" d="M5947.42,1019.59a36.71,36.71,0,1,0-36.71-36.71A36.71,36.71,0,0,0,5947.42,1019.59Z"/><path class="cls-70" d="M5947.42,1152.86a36.71,36.71,0,1,0-36.71-36.7A36.7,36.7,0,0,0,5947.42,1152.86Z"/><path class="cls-70" d="M6233.73,1009.07a36.71,36.71,0,1,0-36.71-36.7A36.7,36.7,0,0,0,6233.73,1009.07Z"/><path class="cls-70" d="M6233.73,895.2A36.71,36.71,0,1,0,6197,858.5,36.7,36.7,0,0,0,6233.73,895.2Z"/><path class="cls-70" d="M6233.73,1133.29a36.71,36.71,0,1,0-36.71-36.7A36.7,36.7,0,0,0,6233.73,1133.29Z"/><path class="cls-70" d="M6233.73,1257.51a36.71,36.71,0,1,0-36.71-36.7A36.7,36.7,0,0,0,6233.73,1257.51Z"/><polyline class="cls-71" points="6197.02 1217.62 6125.19 1171.19 6196.71 1096.85 6125.34 1043.23 6194.52 972.23 6125.19 915.22 6196.71 858.76"/><polyline class="cls-72" points="6048.06 1158.02 5984.34 1112.84 6050.61 1044.15 5985.66 983.92 6050.61 931.22"/><line class="cls-73" x1="5916.37" y1="1096.59" x2="5885.31" y2="1075.28"/><line class="cls-73" x1="5890.47" y1="1019.09" x2="5912.33" y2="1002.39"/><polyline class="cls-74" points="6196.87 864.88 6124.94 1043.65 6197.02 1210.77"/><path class="cls-75" d="M5875.51,1044.79c0,12.08-9.44,21.87-21.1,21.87s-21.09-9.79-21.09-21.87,9.44-21.86,21.09-21.86S5875.51,1032.72,5875.51,1044.79Z"/><line class="cls-13" x1="1128.68" y1="320" x2="2174.65" y2="320"/><line class="cls-10" x1="2281.64" y1="542.08" x2="2281.64" y2="289.24"/><circle class="cls-76" cx="2279" cy="320" r="47"/><line class="cls-16" x1="4347.46" y1="540.72" x2="4347.46" y2="346.44"/><circle class="cls-76" cx="4346" cy="321" r="47"/><line class="cls-16" x1="3337.22" y1="650.72" x2="3337.22" y2="456.44"/></g><g id="sub_text" data-name="sub text"><path class="cls-34" d="M169.69,1354.67v16.25H132.32v21.25h28.62v15.62H132.32v21.69h37.37v16.25H111.07v-91.06Z"/><path class="cls-34" d="M197.19,1412.23l-20.87-31.31h18.62a6.46,6.46,0,0,1,3,.53,4.69,4.69,0,0,1,1.72,1.78l11.56,19.19a15,15,0,0,1,.94-2.19c.38-.71.79-1.46,1.25-2.25l8.25-14.44a5.38,5.38,0,0,1,1.81-2,4.77,4.77,0,0,1,2.44-.59h17.75l-20.87,30.43,21.75,34.38H225.94a5.12,5.12,0,0,1-3.31-1,8.7,8.7,0,0,1-2.06-2.38L209,1422.48a12.51,12.51,0,0,1-.75,2,18,18,0,0,1-.93,1.75l-9.5,16.12a8.54,8.54,0,0,1-2,2.35,4.76,4.76,0,0,1-3.13,1H175.44Z"/><path class="cls-34" d="M277.32,1379.92a33.21,33.21,0,0,1,11.78,2,25.68,25.68,0,0,1,9.19,5.81,26.64,26.64,0,0,1,6,9.34,34.48,34.48,0,0,1,2.15,12.53,26.57,26.57,0,0,1-.19,3.57,5.6,5.6,0,0,1-.68,2.18,2.61,2.61,0,0,1-1.35,1.13,6.23,6.23,0,0,1-2.15.31H264.69q.94,8.13,4.94,11.78a14.68,14.68,0,0,0,10.31,3.66,18.47,18.47,0,0,0,5.81-.81,28.62,28.62,0,0,0,4.35-1.82l3.5-1.81a7.28,7.28,0,0,1,3.34-.81,4,4,0,0,1,3.5,1.69l5.63,6.93a28.75,28.75,0,0,1-6.47,5.6,33.27,33.27,0,0,1-7.13,3.37,37.68,37.68,0,0,1-7.31,1.69,55.38,55.38,0,0,1-7,.47,36.37,36.37,0,0,1-12.78-2.22,29.48,29.48,0,0,1-10.44-6.59,31.1,31.1,0,0,1-7.06-10.88,40.58,40.58,0,0,1-2.59-15.12,34.25,34.25,0,0,1,2.22-12.32A29.92,29.92,0,0,1,264,1382.48,33.22,33.22,0,0,1,277.32,1379.92Zm.37,13.37c-3.71,0-6.6,1-8.69,3.16s-3.45,5.13-4.12,9.09h24.19a17,17,0,0,0-.6-4.5,10.81,10.81,0,0,0-1.93-3.9,9.91,9.91,0,0,0-3.54-2.79A12.14,12.14,0,0,0,277.69,1393.29Z"/><path class="cls-34" d="M364.32,1396.29a11.19,11.19,0,0,1-1.69,1.69,3.69,3.69,0,0,1-2.31.62,5,5,0,0,1-2.6-.68l-2.59-1.53a19.4,19.4,0,0,0-3.38-1.54,14.73,14.73,0,0,0-4.81-.68,13.38,13.38,0,0,0-6.15,1.31,11.37,11.37,0,0,0-4.29,3.75,17.12,17.12,0,0,0-2.5,6,35.74,35.74,0,0,0-.81,8q0,9.32,3.6,14.31a11.52,11.52,0,0,0,9.9,5,14,14,0,0,0,5.35-.84,16.56,16.56,0,0,0,3.34-1.88l2.53-1.91a4.7,4.7,0,0,1,2.91-.87,4,4,0,0,1,3.5,1.69l5.62,6.93a30.42,30.42,0,0,1-6.31,5.6,31.5,31.5,0,0,1-6.78,3.37,34.36,34.36,0,0,1-7,1.69,51.88,51.88,0,0,1-6.81.47,29.28,29.28,0,0,1-11.35-2.25,27.89,27.89,0,0,1-9.5-6.53,31.48,31.48,0,0,1-6.5-10.53,39.57,39.57,0,0,1-2.4-14.25,40,40,0,0,1,2.09-13.1,29.8,29.8,0,0,1,6.19-10.56,28.77,28.77,0,0,1,10.12-7,35.46,35.46,0,0,1,14-2.56,34.21,34.21,0,0,1,13.38,2.43,32.09,32.09,0,0,1,10.37,7.13Z"/><path class="cls-34" d="M396.44,1380.92V1422q0,4.82,2.19,7.44a7.9,7.9,0,0,0,6.44,2.62,13.7,13.7,0,0,0,6-1.31,21.86,21.86,0,0,0,5.41-3.69v-46.18h19.38v64.81h-12a4.55,4.55,0,0,1-4.75-3.25l-1.19-3.75A36.85,36.85,0,0,1,414,1442a23.72,23.72,0,0,1-4.28,2.5,25.62,25.62,0,0,1-4.9,1.63,26.46,26.46,0,0,1-5.75.59,22.83,22.83,0,0,1-9.41-1.84,19.4,19.4,0,0,1-6.91-5.16,22.6,22.6,0,0,1-4.25-7.81,32.27,32.27,0,0,1-1.43-9.88v-41.12Z"/><path class="cls-34" d="M473.56,1446.73a22.94,22.94,0,0,1-8.15-1.34,16.14,16.14,0,0,1-5.94-3.82,16.31,16.31,0,0,1-3.66-6,23.14,23.14,0,0,1-1.25-7.81v-33.5h-5.5a3.49,3.49,0,0,1-3.62-3.81v-7.56l10.31-2,3.81-15.82q.75-3,4.25-3h10.13V1381h15.75v13.25H473.94v32.19a6.06,6.06,0,0,0,1.09,3.72,3.7,3.7,0,0,0,3.16,1.47,6.4,6.4,0,0,0,1.78-.22,7.06,7.06,0,0,0,1.25-.5c.35-.19.69-.36,1-.5a2.5,2.5,0,0,1,1.09-.22,2.25,2.25,0,0,1,1.41.41,4.87,4.87,0,0,1,1.09,1.28l5.88,9.18a26.44,26.44,0,0,1-8.44,4.22A33.41,33.41,0,0,1,473.56,1446.73Z"/><path class="cls-34" d="M523.06,1363.17a10.28,10.28,0,0,1-.93,4.34,11.34,11.34,0,0,1-2.57,3.56,12.41,12.41,0,0,1-3.78,2.44,11.64,11.64,0,0,1-4.59.91,10.82,10.82,0,0,1-4.44-.91,12.6,12.6,0,0,1-3.66-2.44,11.3,11.3,0,0,1-2.5-3.56,10.58,10.58,0,0,1-.9-4.34,10.94,10.94,0,0,1,.9-4.44,11.6,11.6,0,0,1,6.16-6.06,11.14,11.14,0,0,1,4.44-.88,12,12,0,0,1,4.59.88,11.73,11.73,0,0,1,6.35,6.06A10.64,10.64,0,0,1,523.06,1363.17Zm-2.25,17.75v64.81H501.44v-64.81Z"/><path class="cls-34" d="M565.31,1379.92a37.46,37.46,0,0,1,13.44,2.31,29.57,29.57,0,0,1,10.41,6.62,30.1,30.1,0,0,1,6.75,10.47,37.89,37.89,0,0,1,2.4,13.85,38.59,38.59,0,0,1-2.4,14,30.3,30.3,0,0,1-6.75,10.56,29.88,29.88,0,0,1-10.41,6.69,37,37,0,0,1-13.44,2.34,37.45,37.45,0,0,1-13.53-2.34,30.44,30.44,0,0,1-10.5-6.69,29.6,29.6,0,0,1-6.81-10.56,38.37,38.37,0,0,1-2.41-14,37.68,37.68,0,0,1,2.41-13.85,29.4,29.4,0,0,1,6.81-10.47,30.13,30.13,0,0,1,10.5-6.62A37.88,37.88,0,0,1,565.31,1379.92Zm0,52.43q6.69,0,9.85-4.71t3.15-14.35c0-6.41-1-11.19-3.15-14.31s-5.39-4.69-9.85-4.69-7.94,1.56-10.06,4.69-3.19,7.9-3.19,14.31,1.06,11.2,3.19,14.35S560.73,1432.35,565.31,1432.35Z"/><path class="cls-34" d="M608.94,1445.73v-64.81h12a5.39,5.39,0,0,1,3,.81,4.36,4.36,0,0,1,1.72,2.44l1.12,3.75a45.43,45.43,0,0,1,3.88-3.25,21.91,21.91,0,0,1,4.28-2.53,25.46,25.46,0,0,1,4.93-1.63,26.9,26.9,0,0,1,5.79-.59,22.66,22.66,0,0,1,9.4,1.84,19.56,19.56,0,0,1,6.91,5.13,22.16,22.16,0,0,1,4.25,7.81,32.32,32.32,0,0,1,1.44,9.84v41.19H648.31v-41.19q0-4.74-2.19-7.4a7.85,7.85,0,0,0-6.43-2.66,13.54,13.54,0,0,0-6,1.37,23.46,23.46,0,0,0-5.38,3.69v46.19Z"/><path class="cls-34" d="M739.56,1353.67a29.61,29.61,0,0,1,10.69,1.78,24.62,24.62,0,0,1,7.81,4.69,21.54,21.54,0,0,1,5,6.71,24.23,24.23,0,0,1,2.25,7.82l-12.5,2.5-.53.09a3.59,3.59,0,0,1-.47,0,4.09,4.09,0,0,1-3.88-2.75,14.27,14.27,0,0,0-3.34-4.94,7.33,7.33,0,0,0-5-1.68,8.42,8.42,0,0,0-3.81.81,8.22,8.22,0,0,0-2.72,2.12,9.19,9.19,0,0,0-1.66,3.07,11.86,11.86,0,0,0-.56,3.62,16.72,16.72,0,0,0,.28,3.13,14.44,14.44,0,0,0,.94,3,16.62,16.62,0,0,0,1.81,3.15,30.19,30.19,0,0,0,3,3.5l22.5,23.75a46.15,46.15,0,0,0,2.69-7.81,61.15,61.15,0,0,0,1.43-8.44,4.12,4.12,0,0,1,1.16-2.75,3.77,3.77,0,0,1,2.72-1h12.25a57.39,57.39,0,0,1-2.44,17,52.8,52.8,0,0,1-6.94,14.46l19.13,20.13H770.18a17.81,17.81,0,0,1-2.56-.16,9,9,0,0,1-2.09-.53,7.18,7.18,0,0,1-1.85-1.06,17,17,0,0,1-1.87-1.75l-3.94-4.13a48.24,48.24,0,0,1-27.94,8.63,31.25,31.25,0,0,1-10.65-1.88,29.46,29.46,0,0,1-9.28-5.34,26.83,26.83,0,0,1-6.57-8.41,24.19,24.19,0,0,1-2.5-11.06,23.73,23.73,0,0,1,1.28-7.81,26,26,0,0,1,3.6-6.84,30.3,30.3,0,0,1,5.53-5.75,40.48,40.48,0,0,1,7-4.54,35.57,35.57,0,0,1-4.25-8.93,29.7,29.7,0,0,1-1.31-8.5,24,24,0,0,1,1.78-9.22,22.07,22.07,0,0,1,5.19-7.63,25.23,25.23,0,0,1,8.37-5.22A31.29,31.29,0,0,1,739.56,1353.67Zm-18.88,64.81a15.41,15.41,0,0,0,.91,5.44,11.9,11.9,0,0,0,2.59,4.18,11.72,11.72,0,0,0,4,2.72,13.52,13.52,0,0,0,5.22,1,26.13,26.13,0,0,0,14.5-4.19L727,1405.42a16.4,16.4,0,0,0-4.88,6.12A17.23,17.23,0,0,0,720.68,1418.48Z"/><path class="cls-34" d="M166.32,1550.17a48.72,48.72,0,0,1-3.41,18.37,43.44,43.44,0,0,1-24.5,24.63,50.77,50.77,0,0,1-19.34,3.56,51,51,0,0,1-19.37-3.56,43.53,43.53,0,0,1-24.6-24.63,51.35,51.35,0,0,1,0-36.75A43.74,43.74,0,0,1,84.73,1517a44.4,44.4,0,0,1,15-9.81,50.81,50.81,0,0,1,19.37-3.56,50.4,50.4,0,0,1,19.34,3.59,44.66,44.66,0,0,1,14.91,9.84,44,44,0,0,1,9.59,14.75A48.65,48.65,0,0,1,166.32,1550.17Zm-21.62,0A39.62,39.62,0,0,0,143,1538a25.83,25.83,0,0,0-5-9.16,21.68,21.68,0,0,0-8-5.75,27.67,27.67,0,0,0-10.81-2,28.15,28.15,0,0,0-10.91,2,21.79,21.79,0,0,0-8.06,5.75,25.81,25.81,0,0,0-5,9.16,43.33,43.33,0,0,0,0,24.38,25.76,25.76,0,0,0,5,9.15,21.38,21.38,0,0,0,8.06,5.72,28.53,28.53,0,0,0,10.91,2,28,28,0,0,0,10.81-2,21.28,21.28,0,0,0,8-5.72,25.78,25.78,0,0,0,5-9.15A39.84,39.84,0,0,0,144.7,1550.17Z"/><path class="cls-34" d="M176.44,1616.29v-85.37h12a5.4,5.4,0,0,1,3,.81,4.3,4.3,0,0,1,1.71,2.44l1.44,4.75a32.33,32.33,0,0,1,4-3.75,26.12,26.12,0,0,1,4.63-2.91,25.51,25.51,0,0,1,5.31-1.91,26.94,26.94,0,0,1,6.22-.68,19.94,19.94,0,0,1,9.37,2.25,21.47,21.47,0,0,1,7.44,6.5,32.9,32.9,0,0,1,4.91,10.4,50.23,50.23,0,0,1,1.78,14,43.14,43.14,0,0,1-2,13.5A33.92,33.92,0,0,1,230.6,1587a26.24,26.24,0,0,1-8.75,7.13,24.74,24.74,0,0,1-11.28,2.56,22,22,0,0,1-8.5-1.44,23.17,23.17,0,0,1-6.25-3.87v24.87Zm31.63-71.81a16.69,16.69,0,0,0-3.84.41A14,14,0,0,0,201,1546a12,12,0,0,0-2.72,1.91,28,28,0,0,0-2.5,2.65v27.5a12.15,12.15,0,0,0,4.75,3.41,15,15,0,0,0,5.37,1,11.38,11.38,0,0,0,4.94-1.06,10.16,10.16,0,0,0,3.91-3.41,18.08,18.08,0,0,0,2.59-6.09,37.91,37.91,0,0,0,.94-9.13,42,42,0,0,0-.75-8.62,17.9,17.9,0,0,0-2.09-5.66,8.1,8.1,0,0,0-3.22-3.09A9.18,9.18,0,0,0,208.07,1544.48Z"/><path class="cls-34" d="M271.44,1596.73a22.94,22.94,0,0,1-8.15-1.34,15.78,15.78,0,0,1-9.6-9.79,23.14,23.14,0,0,1-1.25-7.81v-33.5h-5.5a3.49,3.49,0,0,1-3.62-3.81v-7.56l10.31-2,3.81-15.82q.75-3,4.25-3h10.13V1531h15.75v13.25H271.82v32.19a6.06,6.06,0,0,0,1.09,3.72,3.7,3.7,0,0,0,3.16,1.47,6.4,6.4,0,0,0,1.78-.22,7.39,7.39,0,0,0,1.25-.5c.35-.19.69-.36,1-.5a2.5,2.5,0,0,1,1.09-.22,2.27,2.27,0,0,1,1.41.41,4.87,4.87,0,0,1,1.09,1.28l5.88,9.18a26.44,26.44,0,0,1-8.44,4.22A33.41,33.41,0,0,1,271.44,1596.73Z"/><path class="cls-34" d="M320.94,1513.17a10.14,10.14,0,0,1-.94,4.34,11.31,11.31,0,0,1-2.56,3.56,12.41,12.41,0,0,1-3.78,2.44,11.64,11.64,0,0,1-4.59.91,10.79,10.79,0,0,1-4.44-.91,12.47,12.47,0,0,1-3.66-2.44,11.3,11.3,0,0,1-2.5-3.56,10.58,10.58,0,0,1-.9-4.34,10.94,10.94,0,0,1,.9-4.44,11.6,11.6,0,0,1,6.16-6.06,11.1,11.1,0,0,1,4.44-.88,12,12,0,0,1,4.59.88,11.67,11.67,0,0,1,6.34,6.06A10.49,10.49,0,0,1,320.94,1513.17Zm-2.25,17.75v64.81H299.32v-64.81Z"/><path class="cls-34" d="M334.32,1595.73v-64.81h12a5.39,5.39,0,0,1,3,.81,4.36,4.36,0,0,1,1.72,2.44l1.06,3.5a36.06,36.06,0,0,1,3.37-3.1,21.94,21.94,0,0,1,3.78-2.43,20.4,20.4,0,0,1,9.54-2.22,15.2,15.2,0,0,1,9.71,3,18.9,18.9,0,0,1,5.85,8.09,18.82,18.82,0,0,1,4-5.12,21.07,21.07,0,0,1,5.06-3.44,24.5,24.5,0,0,1,5.75-1.94,30.26,30.26,0,0,1,6-.62,27.54,27.54,0,0,1,9.88,1.65,18.77,18.77,0,0,1,7.21,4.82,20.66,20.66,0,0,1,4.41,7.75,33.43,33.43,0,0,1,1.5,10.4v41.19H408.82v-41.19q0-10.07-8.63-10.06a8.86,8.86,0,0,0-6.53,2.59q-2.6,2.6-2.59,7.47v41.19H371.69v-41.19q0-5.57-2.19-7.81t-6.43-2.25a10.87,10.87,0,0,0-5,1.19,18,18,0,0,0-4.41,3.18v46.88Z"/><path class="cls-34" d="M464.19,1513.17a10.14,10.14,0,0,1-.94,4.34,11.31,11.31,0,0,1-2.56,3.56,12.41,12.41,0,0,1-3.78,2.44,11.66,11.66,0,0,1-4.6.91,10.77,10.77,0,0,1-4.43-.91,12.34,12.34,0,0,1-3.66-2.44,11.14,11.14,0,0,1-2.5-3.56,10.58,10.58,0,0,1-.91-4.34,11,11,0,0,1,.91-4.44,11.6,11.6,0,0,1,6.16-6.06,11.09,11.09,0,0,1,4.43-.88,12,12,0,0,1,4.6.88,11.67,11.67,0,0,1,6.34,6.06A10.49,10.49,0,0,1,464.19,1513.17Zm-2.25,17.75v64.81H442.56v-64.81Z"/><path class="cls-34" d="M517.19,1545.1a4.86,4.86,0,0,1-1.6,1.69,4.1,4.1,0,0,1-2.15.5,7,7,0,0,1-2.75-.59l-3-1.28a30.88,30.88,0,0,0-3.59-1.28,16,16,0,0,0-4.57-.6,9.6,9.6,0,0,0-5.65,1.41,4.52,4.52,0,0,0-2,3.9,3.89,3.89,0,0,0,1.28,3,11.63,11.63,0,0,0,3.41,2.1,47.08,47.08,0,0,0,4.81,1.72q2.69.81,5.5,1.81a51,51,0,0,1,5.5,2.34,20.59,20.59,0,0,1,4.81,3.32,14.75,14.75,0,0,1,3.41,4.78,16.23,16.23,0,0,1,1.28,6.75,22.29,22.29,0,0,1-1.75,8.87,18.91,18.91,0,0,1-5.22,7,24.61,24.61,0,0,1-8.56,4.56,38.41,38.41,0,0,1-11.72,1.63,35.44,35.44,0,0,1-6.63-.63,44.52,44.52,0,0,1-6.4-1.68,34.7,34.7,0,0,1-5.72-2.53,25.1,25.1,0,0,1-4.5-3.16l4.5-7.13a6.48,6.48,0,0,1,1.94-2,5.34,5.34,0,0,1,2.93-.72,6.08,6.08,0,0,1,3,.75l2.91,1.62a23.37,23.37,0,0,0,3.66,1.63,15.8,15.8,0,0,0,5.28.75,13.47,13.47,0,0,0,3.81-.47,6.68,6.68,0,0,0,2.5-1.28,5.15,5.15,0,0,0,1.38-1.82,5.07,5.07,0,0,0,.43-2.06,4.21,4.21,0,0,0-1.31-3.19,11.32,11.32,0,0,0-3.44-2.15,40.34,40.34,0,0,0-4.84-1.69c-1.81-.52-3.66-1.11-5.53-1.78a44.08,44.08,0,0,1-5.53-2.41,18.75,18.75,0,0,1-4.85-3.56,16.62,16.62,0,0,1-3.43-5.28,19.38,19.38,0,0,1-1.32-7.56,19.61,19.61,0,0,1,1.6-7.85,18.15,18.15,0,0,1,4.78-6.53,23.6,23.6,0,0,1,8-4.47,34.72,34.72,0,0,1,11.25-1.65,36.77,36.77,0,0,1,6.78.62,35,35,0,0,1,6.16,1.75,30,30,0,0,1,5.25,2.66,25.21,25.21,0,0,1,4.18,3.34Z"/><path class="cls-34" d="M577.31,1595.73a9,9,0,0,1-4.15-.75,5.74,5.74,0,0,1-2.35-3.13l-1.37-3.56q-2.45,2.07-4.69,3.63a29.64,29.64,0,0,1-4.66,2.65,23.19,23.19,0,0,1-5.12,1.63,31.92,31.92,0,0,1-6,.53,26.53,26.53,0,0,1-8.07-1.16,16.74,16.74,0,0,1-6.15-3.42,15,15,0,0,1-3.91-5.61,20.25,20.25,0,0,1-1.37-7.74,16.27,16.27,0,0,1,1.75-7.09,17.34,17.34,0,0,1,6.06-6.61,38.38,38.38,0,0,1,11.62-5,71,71,0,0,1,18.44-2v-2.77c0-3.83-.78-6.59-2.34-8.3a8.58,8.58,0,0,0-6.66-2.55,17.6,17.6,0,0,0-5.62.75,25,25,0,0,0-3.91,1.69c-1.15.62-2.26,1.18-3.34,1.68a9.23,9.23,0,0,1-3.88.75,5.87,5.87,0,0,1-3.4-1,7.19,7.19,0,0,1-2.22-2.41l-3.5-6.06a39.35,39.35,0,0,1,13-7.72,45.59,45.59,0,0,1,15.34-2.53,28.11,28.11,0,0,1,10.6,1.9,22.89,22.89,0,0,1,8,5.32,23.3,23.3,0,0,1,5,8.09,29.21,29.21,0,0,1,1.75,10.25v40.5Zm-22.25-11.81a15.27,15.27,0,0,0,6.56-1.32,19.85,19.85,0,0,0,5.69-4.25v-8.87a49.27,49.27,0,0,0-9.56.76,22.83,22.83,0,0,0-5.94,1.89,7.17,7.17,0,0,0-3,2.58,6.19,6.19,0,0,0-.84,3.15q0,3.35,1.81,4.7A8.74,8.74,0,0,0,555.06,1583.92Z"/><path class="cls-34" d="M622.68,1596.73a22.94,22.94,0,0,1-8.15-1.34,16.14,16.14,0,0,1-5.94-3.82,16.31,16.31,0,0,1-3.66-6,23.14,23.14,0,0,1-1.25-7.81v-33.5h-5.5a3.49,3.49,0,0,1-3.62-3.81v-7.56l10.31-2,3.81-15.82q.75-3,4.25-3h10.13V1531h15.75v13.25H623.06v32.19a6.06,6.06,0,0,0,1.09,3.72,3.7,3.7,0,0,0,3.16,1.47,6.4,6.4,0,0,0,1.78-.22,7.06,7.06,0,0,0,1.25-.5c.35-.19.69-.36,1-.5a2.5,2.5,0,0,1,1.09-.22,2.25,2.25,0,0,1,1.41.41,4.87,4.87,0,0,1,1.09,1.28l5.88,9.18a26.44,26.44,0,0,1-8.44,4.22A33.41,33.41,0,0,1,622.68,1596.73Z"/><path class="cls-34" d="M672.18,1513.17a10.28,10.28,0,0,1-.93,4.34,11.34,11.34,0,0,1-2.57,3.56,12.41,12.41,0,0,1-3.78,2.44,11.64,11.64,0,0,1-4.59.91,10.82,10.82,0,0,1-4.44-.91,12.6,12.6,0,0,1-3.66-2.44,11.3,11.3,0,0,1-2.5-3.56,10.58,10.58,0,0,1-.9-4.34,10.94,10.94,0,0,1,.9-4.44,11.6,11.6,0,0,1,6.16-6.06,11.14,11.14,0,0,1,4.44-.88,12,12,0,0,1,4.59.88,11.73,11.73,0,0,1,6.35,6.06A10.64,10.64,0,0,1,672.18,1513.17Zm-2.25,17.75v64.81H650.56v-64.81Z"/><path class="cls-34" d="M714.43,1529.92a37.46,37.46,0,0,1,13.44,2.31,29.57,29.57,0,0,1,10.41,6.62,30.1,30.1,0,0,1,6.75,10.47,37.89,37.89,0,0,1,2.4,13.85,38.59,38.59,0,0,1-2.4,14,30.3,30.3,0,0,1-6.75,10.56,29.88,29.88,0,0,1-10.41,6.69,37,37,0,0,1-13.44,2.34,37.45,37.45,0,0,1-13.53-2.34,30.44,30.44,0,0,1-10.5-6.69,29.6,29.6,0,0,1-6.81-10.56,38.37,38.37,0,0,1-2.41-14,37.68,37.68,0,0,1,2.41-13.85,29.4,29.4,0,0,1,6.81-10.47,30.13,30.13,0,0,1,10.5-6.62A37.88,37.88,0,0,1,714.43,1529.92Zm0,52.43q6.69,0,9.85-4.71t3.15-14.35c0-6.41-1-11.19-3.15-14.31s-5.39-4.69-9.85-4.69-7.94,1.56-10.06,4.69-3.19,7.9-3.19,14.31,1.06,11.2,3.19,14.35S709.85,1582.35,714.43,1582.35Z"/><path class="cls-34" d="M758.06,1595.73v-64.81h12a5.39,5.39,0,0,1,3,.81,4.36,4.36,0,0,1,1.72,2.44l1.12,3.75a45.43,45.43,0,0,1,3.88-3.25,22.21,22.21,0,0,1,4.28-2.53,25.46,25.46,0,0,1,4.93-1.63,26.9,26.9,0,0,1,5.79-.59,22.66,22.66,0,0,1,9.4,1.84,19.56,19.56,0,0,1,6.91,5.13,22.16,22.16,0,0,1,4.25,7.81,32.32,32.32,0,0,1,1.44,9.84v41.19H797.43v-41.19q0-4.74-2.19-7.4a7.85,7.85,0,0,0-6.43-2.66,13.54,13.54,0,0,0-6,1.37,23.46,23.46,0,0,0-5.38,3.69v46.19Z"/><path class="cls-34" d="M2269.91,1355v16.75h-25.63V1446h-21.12v-74.31h-25.63V1355Z"/><path class="cls-34" d="M2308.41,1446a9.08,9.08,0,0,1-4.16-.75,5.69,5.69,0,0,1-2.34-3.12l-1.38-3.57q-2.43,2.07-4.68,3.63a30.16,30.16,0,0,1-4.66,2.66,22.74,22.74,0,0,1-5.13,1.62,31.84,31.84,0,0,1-6,.53,26.16,26.16,0,0,1-8.06-1.16,16.7,16.7,0,0,1-6.16-3.42,15,15,0,0,1-3.9-5.61,20.17,20.17,0,0,1-1.38-7.74,16.41,16.41,0,0,1,1.75-7.09,17.45,17.45,0,0,1,6.07-6.61,38.38,38.38,0,0,1,11.62-5,71.49,71.49,0,0,1,18.44-2v-2.78c0-3.82-.78-6.59-2.35-8.29a8.55,8.55,0,0,0-6.65-2.56,17.71,17.71,0,0,0-5.63.75,24.43,24.43,0,0,0-3.9,1.69c-1.15.62-2.26,1.19-3.35,1.69a9.15,9.15,0,0,1-3.87.75,5.9,5.9,0,0,1-3.41-1,7.19,7.19,0,0,1-2.22-2.41l-3.5-6.06a39.45,39.45,0,0,1,13-7.72,45.65,45.65,0,0,1,15.35-2.53,28.1,28.1,0,0,1,10.59,1.91,22.78,22.78,0,0,1,8,5.31,23.1,23.1,0,0,1,5,8.09,29,29,0,0,1,1.75,10.25V1446Zm-22.25-11.81a15.42,15.42,0,0,0,6.56-1.31,20,20,0,0,0,5.69-4.25v-8.88a49.2,49.2,0,0,0-9.56.76,22.83,22.83,0,0,0-5.94,1.89,7.18,7.18,0,0,0-3,2.59,6.05,6.05,0,0,0-.85,3.15q0,3.35,1.82,4.69A8.7,8.7,0,0,0,2286.16,1434.23Z"/><path class="cls-34" d="M2370.66,1395.42a5,5,0,0,1-1.6,1.68,4.1,4.1,0,0,1-2.15.5,6.78,6.78,0,0,1-2.75-.59l-3-1.28a31.08,31.08,0,0,0-3.6-1.28,15.84,15.84,0,0,0-4.56-.6,9.66,9.66,0,0,0-5.66,1.41,4.54,4.54,0,0,0-2,3.91,3.89,3.89,0,0,0,1.28,3,11.69,11.69,0,0,0,3.4,2.09,45,45,0,0,0,4.82,1.72c1.79.54,3.62,1.15,5.5,1.81a49.93,49.93,0,0,1,5.5,2.35,20.55,20.55,0,0,1,4.81,3.31,14.72,14.72,0,0,1,3.4,4.78,16.07,16.07,0,0,1,1.29,6.75,22.25,22.25,0,0,1-1.75,8.87,18.83,18.83,0,0,1-5.22,7,24.84,24.84,0,0,1-8.57,4.57,38.62,38.62,0,0,1-11.71,1.62,36.28,36.28,0,0,1-6.63-.62,46.4,46.4,0,0,1-6.41-1.69,35,35,0,0,1-5.71-2.53,24.61,24.61,0,0,1-4.5-3.16l4.5-7.12a6.38,6.38,0,0,1,1.93-2,5.38,5.38,0,0,1,2.94-.72,6.08,6.08,0,0,1,3,.75l2.91,1.62a23.66,23.66,0,0,0,3.65,1.63,15.91,15.91,0,0,0,5.29.75,13.47,13.47,0,0,0,3.81-.47,6.76,6.76,0,0,0,2.5-1.28,5,5,0,0,0,1.81-3.88,4.21,4.21,0,0,0-1.31-3.18,11.46,11.46,0,0,0-3.44-2.16,42.86,42.86,0,0,0-4.84-1.69q-2.73-.78-5.53-1.78a44.79,44.79,0,0,1-5.54-2.4,19.14,19.14,0,0,1-4.84-3.57,16.42,16.42,0,0,1-3.44-5.28,21.21,21.21,0,0,1,.28-15.4,18.33,18.33,0,0,1,4.79-6.54,23.41,23.41,0,0,1,8-4.46,34.36,34.36,0,0,1,11.25-1.66,36.77,36.77,0,0,1,6.78.62,34.89,34.89,0,0,1,6.15,1.75,29.32,29.32,0,0,1,5.25,2.66,25.4,25.4,0,0,1,4.19,3.34Z"/><path class="cls-34" d="M2405.4,1352.48v52.44h2.88a6.25,6.25,0,0,0,2.78-.5,5.19,5.19,0,0,0,1.84-1.82l12.25-18.25a6.72,6.72,0,0,1,2.54-2.37,8.08,8.08,0,0,1,3.71-.75h17.75l-16.75,23.06a18,18,0,0,1-2.59,2.88,22.44,22.44,0,0,1-3,2.25,19,19,0,0,1,4.87,5.62l18.25,31h-17.5a9.17,9.17,0,0,1-3.78-.72,5.64,5.64,0,0,1-2.59-2.53l-12.25-22.94a4.85,4.85,0,0,0-1.81-2,6.62,6.62,0,0,0-2.82-.47h-3.75V1446H2386v-93.56Z"/><path class="cls-34" d="M2001.82,1559.35q1.15,2.57,2.22,5.25,1.05-2.74,2.25-5.35c.79-1.73,1.6-3.4,2.43-5l23.38-46a7.26,7.26,0,0,1,1.28-1.84,4.09,4.09,0,0,1,1.47-1,5,5,0,0,1,1.84-.32h18.53v91H2036.6v-52.37q0-3.81.37-8.25l-24.12,46.81a7.93,7.93,0,0,1-3,3.31,8.39,8.39,0,0,1-4.35,1.13h-2.87a8.42,8.42,0,0,1-4.35-1.13,7.93,7.93,0,0,1-3-3.31L1971,1535.35c.17,1.46.29,2.91.38,4.35s.12,2.76.12,4V1596h-18.62v-91h18.53a5,5,0,0,1,1.84.32,4.09,4.09,0,0,1,1.47,1,7.26,7.26,0,0,1,1.28,1.84l23.44,46.24C2000.24,1556,2001.05,1557.64,2001.82,1559.35Z"/><path class="cls-34" d="M2115,1596a9,9,0,0,1-4.15-.75,5.75,5.75,0,0,1-2.35-3.12l-1.37-3.57q-2.45,2.07-4.69,3.63a29.7,29.7,0,0,1-4.66,2.66,22.66,22.66,0,0,1-5.12,1.62,31.84,31.84,0,0,1-6,.53,26.11,26.11,0,0,1-8.06-1.16,16.7,16.7,0,0,1-6.16-3.42,15,15,0,0,1-3.91-5.61,20.37,20.37,0,0,1-1.37-7.74,16.27,16.27,0,0,1,1.75-7.09,17.42,17.42,0,0,1,6.06-6.61,38.45,38.45,0,0,1,11.63-5,71.4,71.4,0,0,1,18.43-2v-2.78c0-3.82-.78-6.59-2.34-8.29a8.56,8.56,0,0,0-6.66-2.56,17.64,17.64,0,0,0-5.62.75,25,25,0,0,0-3.91,1.69c-1.14.62-2.26,1.19-3.34,1.69a9.23,9.23,0,0,1-3.88.75,5.87,5.87,0,0,1-3.4-1,7.19,7.19,0,0,1-2.22-2.41l-3.5-6.06a39.35,39.35,0,0,1,13-7.72,45.59,45.59,0,0,1,15.34-2.53,28.11,28.11,0,0,1,10.6,1.91,22.87,22.87,0,0,1,8,5.31,23.39,23.39,0,0,1,5,8.09,29.25,29.25,0,0,1,1.75,10.25V1596Zm-22.25-11.81a15.5,15.5,0,0,0,6.57-1.31,20,20,0,0,0,5.68-4.25v-8.88a49.27,49.27,0,0,0-9.56.76,22.83,22.83,0,0,0-5.94,1.89,7.18,7.18,0,0,0-3,2.59,6.14,6.14,0,0,0-.84,3.15q0,3.35,1.81,4.69A8.74,8.74,0,0,0,2092.72,1584.23Z"/><path class="cls-34" d="M2137.6,1596v-64.81h12a5.39,5.39,0,0,1,3,.81,4.4,4.4,0,0,1,1.72,2.44l1.12,3.75a45.43,45.43,0,0,1,3.88-3.25,22.73,22.73,0,0,1,4.28-2.53,25.46,25.46,0,0,1,4.93-1.63,27,27,0,0,1,5.79-.59,22.66,22.66,0,0,1,9.4,1.84,19.56,19.56,0,0,1,6.91,5.13,22.24,22.24,0,0,1,4.25,7.81,32.32,32.32,0,0,1,1.44,9.84V1596H2177v-41.19q0-4.74-2.19-7.4a7.85,7.85,0,0,0-6.43-2.66,13.41,13.41,0,0,0-6,1.38,23.09,23.09,0,0,0-5.38,3.68V1596Z"/><path class="cls-34" d="M2254.84,1596a9.06,9.06,0,0,1-4.15-.75,5.75,5.75,0,0,1-2.35-3.12l-1.37-3.57q-2.44,2.07-4.69,3.63a30.07,30.07,0,0,1-4.65,2.66,22.91,22.91,0,0,1-5.13,1.62,31.84,31.84,0,0,1-6,.53,26.11,26.11,0,0,1-8.06-1.16,16.7,16.7,0,0,1-6.16-3.42,15,15,0,0,1-3.91-5.61,20.37,20.37,0,0,1-1.37-7.74,16.27,16.27,0,0,1,1.75-7.09,17.5,17.5,0,0,1,6.06-6.61,38.45,38.45,0,0,1,11.63-5,71.4,71.4,0,0,1,18.43-2v-2.78c0-3.82-.78-6.59-2.34-8.29a8.56,8.56,0,0,0-6.66-2.56,17.64,17.64,0,0,0-5.62.75,25,25,0,0,0-3.91,1.69c-1.14.62-2.26,1.19-3.34,1.69a9.2,9.2,0,0,1-3.88.75,5.89,5.89,0,0,1-3.4-1,7.19,7.19,0,0,1-2.22-2.41l-3.5-6.06a39.45,39.45,0,0,1,13-7.72,45.63,45.63,0,0,1,15.34-2.53,28.11,28.11,0,0,1,10.6,1.91,22.87,22.87,0,0,1,8,5.31,23.24,23.24,0,0,1,5,8.09,29,29,0,0,1,1.75,10.25V1596Zm-22.25-11.81a15.5,15.5,0,0,0,6.57-1.31,20,20,0,0,0,5.68-4.25v-8.88a49.27,49.27,0,0,0-9.56.76,22.83,22.83,0,0,0-5.94,1.89,7.31,7.31,0,0,0-3,2.59,6.14,6.14,0,0,0-.84,3.15q0,3.35,1.81,4.69A8.74,8.74,0,0,0,2232.59,1584.23Z"/><path class="cls-34" d="M2300.34,1530.1a35.84,35.84,0,0,1,7.78.82,31.37,31.37,0,0,1,6.79,2.31h19.56v7.06a3.48,3.48,0,0,1-.91,2.56,6.1,6.1,0,0,1-3.09,1.44l-4.75,1.06a19.63,19.63,0,0,1,.87,5.82,18.51,18.51,0,0,1-2,8.75,19.89,19.89,0,0,1-5.56,6.59,26.14,26.14,0,0,1-8.34,4.19,35.17,35.17,0,0,1-10.32,1.47,41.63,41.63,0,0,1-5.75-.38c-1.41.84-2.12,1.81-2.12,2.9a2.45,2.45,0,0,0,1.72,2.37,16.07,16.07,0,0,0,4.53,1q2.81.29,6.44.28t7.37.35a58.44,58.44,0,0,1,7.38,1.16,19.65,19.65,0,0,1,6.43,2.63,13.66,13.66,0,0,1,4.53,4.86,15.56,15.56,0,0,1,1.72,7.74,18.89,18.89,0,0,1-2.12,8.59,22.42,22.42,0,0,1-6.25,7.46,32.58,32.58,0,0,1-10.13,5.24,43.83,43.83,0,0,1-13.75,2,53.15,53.15,0,0,1-13.15-1.43,32,32,0,0,1-9.19-3.79,16,16,0,0,1-5.41-5.41,12.78,12.78,0,0,1-1.75-6.38,10.62,10.62,0,0,1,2.63-7.29,17.35,17.35,0,0,1,7.19-4.66,10.93,10.93,0,0,1-3.5-3.69,11.05,11.05,0,0,1-1.32-5.68,10.2,10.2,0,0,1,.5-3,11.28,11.28,0,0,1,1.57-3.09,15.2,15.2,0,0,1,2.68-2.87,17.73,17.73,0,0,1,3.88-2.44,21.12,21.12,0,0,1-8-7.12,19.69,19.69,0,0,1-.84-19.09,19.77,19.77,0,0,1,5.65-6.63,26.74,26.74,0,0,1,8.47-4.19A36.42,36.42,0,0,1,2300.34,1530.1Zm14.38,68.18a3.46,3.46,0,0,0-1-2.56,6.82,6.82,0,0,0-2.63-1.53,18.3,18.3,0,0,0-3.87-.83,41.9,41.9,0,0,0-4.78-.26h-5.31a27.49,27.49,0,0,1-5.44-.53,12.86,12.86,0,0,0-3,2.79,5.63,5.63,0,0,0-1.16,3.48,5.29,5.29,0,0,0,.6,2.51,4.9,4.9,0,0,0,2.09,1.94,13.85,13.85,0,0,0,4,1.28,36.41,36.41,0,0,0,6.41.47,37.94,37.94,0,0,0,6.87-.51,14.49,14.49,0,0,0,4.28-1.4,5.17,5.17,0,0,0,2.22-2.14A5.94,5.94,0,0,0,2314.72,1598.28Zm-14.38-38q4.82,0,7-2.41a8.94,8.94,0,0,0,2.16-6.22,8.55,8.55,0,0,0-2.16-6.18q-2.16-2.25-7-2.25t-7,2.25a8.59,8.59,0,0,0-2.15,6.18,10.48,10.48,0,0,0,.53,3.44,7.11,7.11,0,0,0,1.66,2.72,7.62,7.62,0,0,0,2.84,1.81A11.39,11.39,0,0,0,2300.34,1560.23Z"/><path class="cls-34" d="M2370.59,1530.23a33.44,33.44,0,0,1,11.78,2,25.51,25.51,0,0,1,9.19,5.81,26.59,26.59,0,0,1,6,9.35,34.19,34.19,0,0,1,2.16,12.53,28.18,28.18,0,0,1-.19,3.56,5.59,5.59,0,0,1-.69,2.19,2.61,2.61,0,0,1-1.34,1.12,6.25,6.25,0,0,1-2.16.31H2358q.93,8.13,4.93,11.79a14.74,14.74,0,0,0,10.32,3.65,18.52,18.52,0,0,0,5.81-.81,30,30,0,0,0,4.34-1.81l3.5-1.82a7.32,7.32,0,0,1,3.35-.81,4,4,0,0,1,3.5,1.69l5.62,6.94a28.73,28.73,0,0,1-6.47,5.59,33.73,33.73,0,0,1-7.12,3.38,38.75,38.75,0,0,1-7.31,1.68,53.56,53.56,0,0,1-7,.47,36.33,36.33,0,0,1-12.78-2.22,29.34,29.34,0,0,1-10.44-6.59,31,31,0,0,1-7.06-10.88,40.57,40.57,0,0,1-2.6-15.12,34.19,34.19,0,0,1,2.22-12.31,30,30,0,0,1,16.44-17.13A33.17,33.17,0,0,1,2370.59,1530.23Zm.38,13.37c-3.71,0-6.61,1.06-8.69,3.16s-3.46,5.14-4.13,9.09h24.19a17.36,17.36,0,0,0-.59-4.5,10.91,10.91,0,0,0-1.94-3.9,9.85,9.85,0,0,0-3.53-2.78A12.05,12.05,0,0,0,2371,1543.6Z"/><path class="cls-34" d="M2410.84,1596v-64.81h12a5.35,5.35,0,0,1,3,.81,4.3,4.3,0,0,1,1.72,2.44l1.06,3.5a34.71,34.71,0,0,1,3.38-3.09,21.61,21.61,0,0,1,3.78-2.44,21,21,0,0,1,4.38-1.63,21.24,21.24,0,0,1,5.15-.59,15.21,15.21,0,0,1,9.72,3,18.89,18.89,0,0,1,5.84,8.09,19.38,19.38,0,0,1,4-5.12,21.42,21.42,0,0,1,5.07-3.44,24.8,24.8,0,0,1,5.75-1.94,30.26,30.26,0,0,1,6-.62,27.27,27.27,0,0,1,9.87,1.66,18.67,18.67,0,0,1,7.22,4.81,20.74,20.74,0,0,1,4.41,7.75,33.43,33.43,0,0,1,1.5,10.4V1596h-19.38v-41.19q0-10-8.62-10.06a8.83,8.83,0,0,0-6.53,2.6c-1.73,1.73-2.6,4.21-2.6,7.46V1596h-19.37v-41.19c0-3.7-.73-6.31-2.19-7.81s-3.61-2.25-6.44-2.25a10.9,10.9,0,0,0-5,1.19,17.78,17.78,0,0,0-4.4,3.19V1596Z"/><path class="cls-34" d="M2546.22,1530.23a33.48,33.48,0,0,1,11.78,2,25.55,25.55,0,0,1,9.18,5.81,26.31,26.31,0,0,1,6,9.35,34.19,34.19,0,0,1,2.16,12.53,26.41,26.41,0,0,1-.19,3.56,5.6,5.6,0,0,1-.68,2.19,2.67,2.67,0,0,1-1.35,1.12,6.23,6.23,0,0,1-2.15.31h-37.38q.94,8.13,4.94,11.79a14.7,14.7,0,0,0,10.31,3.65,18.47,18.47,0,0,0,5.81-.81,29.69,29.69,0,0,0,4.35-1.81l3.5-1.82a7.25,7.25,0,0,1,3.34-.81,4,4,0,0,1,3.5,1.69l5.63,6.94a29,29,0,0,1-6.47,5.59,34,34,0,0,1-7.13,3.38,38.57,38.57,0,0,1-7.31,1.68,53.56,53.56,0,0,1-7,.47,36.37,36.37,0,0,1-12.78-2.22,29.34,29.34,0,0,1-10.44-6.59,31.1,31.1,0,0,1-7.06-10.88,40.58,40.58,0,0,1-2.59-15.12,34.19,34.19,0,0,1,2.21-12.31,30,30,0,0,1,16.44-17.13A33.22,33.22,0,0,1,2546.22,1530.23Zm.37,13.37c-3.71,0-6.6,1.06-8.69,3.16s-3.46,5.14-4.12,9.09H2558a17,17,0,0,0-.6-4.5,10.75,10.75,0,0,0-1.94-3.9,9.76,9.76,0,0,0-3.53-2.78A12.05,12.05,0,0,0,2546.59,1543.6Z"/><path class="cls-34" d="M2586.46,1596v-64.81h12a5.4,5.4,0,0,1,3,.81,4.33,4.33,0,0,1,1.71,2.44l1.13,3.75a46.9,46.9,0,0,1,3.87-3.25,22.81,22.81,0,0,1,4.29-2.53,25.46,25.46,0,0,1,4.93-1.63,26.87,26.87,0,0,1,5.78-.59,22.67,22.67,0,0,1,9.41,1.84,19.56,19.56,0,0,1,6.91,5.13,22.24,22.24,0,0,1,4.25,7.81,32.64,32.64,0,0,1,1.43,9.84V1596h-19.37v-41.19q0-4.74-2.19-7.4a7.86,7.86,0,0,0-6.44-2.66,13.47,13.47,0,0,0-6,1.38,23.25,23.25,0,0,0-5.37,3.68V1596Z"/><path class="cls-34" d="M2681.71,1597a22.94,22.94,0,0,1-8.15-1.34,15.74,15.74,0,0,1-9.6-9.78,23.24,23.24,0,0,1-1.25-7.82v-33.5h-5.5a3.48,3.48,0,0,1-3.62-3.81v-7.56l10.31-2,3.81-15.81q.75-3,4.25-3h10.13v18.93h15.75v13.25h-15.75v32.19a6.06,6.06,0,0,0,1.09,3.72,3.7,3.7,0,0,0,3.16,1.47,6,6,0,0,0,1.78-.22,6.64,6.64,0,0,0,1.25-.5c.35-.19.69-.35,1-.5a2.65,2.65,0,0,1,1.09-.22,2.27,2.27,0,0,1,1.41.41,5,5,0,0,1,1.09,1.28l5.88,9.19a26.86,26.86,0,0,1-8.44,4.22A33.74,33.74,0,0,1,2681.71,1597Z"/><path class="cls-34" d="M3077.93,1496.35V1530H3056.8V1439h29.63a61,61,0,0,1,16.84,2,31.68,31.68,0,0,1,11.38,5.66,21.39,21.39,0,0,1,6.4,8.56,28.21,28.21,0,0,1,2,10.75,28.51,28.51,0,0,1-1.19,8.37,25.12,25.12,0,0,1-3.53,7.29,27.23,27.23,0,0,1-5.75,6,30.63,30.63,0,0,1-7.84,4.32,19.91,19.91,0,0,1,4,2.62,15.63,15.63,0,0,1,3.22,3.81L3131.3,1530h-19.12c-3.54,0-6.09-1.33-7.63-4l-15.12-26.44a6.42,6.42,0,0,0-2.35-2.5,7.81,7.81,0,0,0-3.78-.75Zm0-14.56h8.5a21.71,21.71,0,0,0,7.34-1.09,13.3,13.3,0,0,0,5-3,11.5,11.5,0,0,0,2.81-4.53,17.25,17.25,0,0,0,.88-5.6q0-6-3.91-9.37t-12.09-3.38h-8.5Z"/><path class="cls-34" d="M3167.68,1464.23a33.44,33.44,0,0,1,11.78,2,25.68,25.68,0,0,1,9.19,5.81,26.59,26.59,0,0,1,6,9.35,34.4,34.4,0,0,1,2.15,12.53,26.41,26.41,0,0,1-.19,3.56,5.6,5.6,0,0,1-.68,2.19,2.63,2.63,0,0,1-1.35,1.12,6.23,6.23,0,0,1-2.15.31h-37.38q.94,8.13,4.94,11.79a14.7,14.7,0,0,0,10.31,3.65,18.47,18.47,0,0,0,5.81-.81,29.69,29.69,0,0,0,4.35-1.81l3.5-1.82a7.25,7.25,0,0,1,3.34-.81,4,4,0,0,1,3.5,1.69l5.63,6.94a29,29,0,0,1-6.47,5.59,33.8,33.8,0,0,1-7.13,3.38,38.4,38.4,0,0,1-7.31,1.68,53.56,53.56,0,0,1-7,.47,36.37,36.37,0,0,1-12.78-2.22,29.34,29.34,0,0,1-10.44-6.59,31.1,31.1,0,0,1-7.06-10.88,40.58,40.58,0,0,1-2.59-15.12,34.19,34.19,0,0,1,2.22-12.31,29.9,29.9,0,0,1,16.43-17.13A33.22,33.22,0,0,1,3167.68,1464.23Zm.37,13.37c-3.71,0-6.6,1.06-8.69,3.16s-3.46,5.14-4.12,9.09h24.19a17,17,0,0,0-.6-4.5,10.89,10.89,0,0,0-1.93-3.9,9.88,9.88,0,0,0-3.54-2.78A12.05,12.05,0,0,0,3168.05,1477.6Z"/><path class="cls-34" d="M3207.93,1550.6v-85.37h12a5.39,5.39,0,0,1,3,.81,4.4,4.4,0,0,1,1.72,2.44l1.43,4.75a32.33,32.33,0,0,1,4-3.75,26.71,26.71,0,0,1,4.63-2.91,25.69,25.69,0,0,1,5.31-1.9,26.39,26.39,0,0,1,6.22-.69,20,20,0,0,1,9.38,2.25,21.63,21.63,0,0,1,7.43,6.5,32.64,32.64,0,0,1,4.91,10.41,50.15,50.15,0,0,1,1.78,14,43.14,43.14,0,0,1-2,13.5,33.92,33.92,0,0,1-5.69,10.75,26.12,26.12,0,0,1-8.75,7.13,24.68,24.68,0,0,1-11.28,2.56,22.06,22.06,0,0,1-8.5-1.44,23.08,23.08,0,0,1-6.25-3.87v24.87Zm31.62-71.81a16.69,16.69,0,0,0-3.84.41,14,14,0,0,0-3.19,1.15,12,12,0,0,0-2.72,1.91,28.2,28.2,0,0,0-2.5,2.66v27.5a12.22,12.22,0,0,0,4.75,3.4,15,15,0,0,0,5.38,1,11.36,11.36,0,0,0,4.93-1.06,10.07,10.07,0,0,0,3.91-3.41,18.08,18.08,0,0,0,2.59-6.09,37.91,37.91,0,0,0,.94-9.13,42,42,0,0,0-.75-8.62,18,18,0,0,0-2.09-5.66,8.16,8.16,0,0,0-3.22-3.09A9.18,9.18,0,0,0,3239.55,1478.79Z"/><path class="cls-34" d="M3309.05,1464.23a37.54,37.54,0,0,1,13.44,2.31,29.33,29.33,0,0,1,10.4,6.63,29.63,29.63,0,0,1,6.75,10.47,37.59,37.59,0,0,1,2.41,13.84,38.34,38.34,0,0,1-2.41,14,29.92,29.92,0,0,1-6.75,10.56,29.46,29.46,0,0,1-10.4,6.69,40,40,0,0,1-27,0A30.15,30.15,0,0,1,3285,1522a29.51,29.51,0,0,1-6.81-10.56,38.34,38.34,0,0,1-2.41-14,37.59,37.59,0,0,1,2.41-13.84,29.23,29.23,0,0,1,6.81-10.47,30,30,0,0,1,10.5-6.63A37.88,37.88,0,0,1,3309.05,1464.23Zm0,52.44q6.69,0,9.84-4.72t3.16-14.35q0-9.61-3.16-14.31t-9.84-4.69q-6.89,0-10.06,4.69t-3.19,14.31q0,9.63,3.19,14.35T3309.05,1516.67Z"/><path class="cls-34" d="M3352.67,1530v-64.81h11.5a9.69,9.69,0,0,1,2.41.25,4.29,4.29,0,0,1,1.62.78,3.33,3.33,0,0,1,1,1.41,12.81,12.81,0,0,1,.6,2.12l1.06,6.06a31.65,31.65,0,0,1,8-8.68,16.23,16.23,0,0,1,9.69-3.19,11.18,11.18,0,0,1,7.12,2.12l-2.5,14.25a2.77,2.77,0,0,1-1,1.85,3.41,3.41,0,0,1-2,.53,13,13,0,0,1-2.5-.28,19.12,19.12,0,0,0-3.62-.28q-7.64,0-12,8.12V1530Z"/><path class="cls-34" d="M3427.05,1531a23,23,0,0,1-8.16-1.34,15.69,15.69,0,0,1-9.59-9.78,23,23,0,0,1-1.25-7.82v-33.5h-5.5a3.48,3.48,0,0,1-3.63-3.81v-7.56l10.31-2,3.82-15.81c.5-2,1.91-3,4.25-3h10.12v18.93h15.75v13.25h-15.75v32.19a6.06,6.06,0,0,0,1.1,3.72,3.68,3.68,0,0,0,3.15,1.47,6,6,0,0,0,1.78-.22,6.38,6.38,0,0,0,1.25-.5l1-.5a2.7,2.7,0,0,1,1.1-.22,2.24,2.24,0,0,1,1.4.41,5.05,5.05,0,0,1,1.1,1.28l5.87,9.19a26.86,26.86,0,0,1-8.44,4.22A33.73,33.73,0,0,1,3427.05,1531Z"/><path class="cls-34" d="M3476.55,1447.48a10.29,10.29,0,0,1-.94,4.34,11.51,11.51,0,0,1-2.56,3.57,12.55,12.55,0,0,1-3.79,2.43,11.57,11.57,0,0,1-4.59.91,10.85,10.85,0,0,1-4.44-.91,12.39,12.39,0,0,1-3.65-2.43,11,11,0,0,1-2.5-3.57,10.42,10.42,0,0,1-.91-4.34,10.85,10.85,0,0,1,.91-4.44,11.34,11.34,0,0,1,2.5-3.62,11.69,11.69,0,0,1,3.65-2.44,11.35,11.35,0,0,1,4.44-.88,12.1,12.1,0,0,1,4.59.88,11.74,11.74,0,0,1,6.35,6.06A10.72,10.72,0,0,1,3476.55,1447.48Zm-2.25,17.75V1530h-19.38v-64.81Z"/><path class="cls-34" d="M3489.92,1530v-64.81h12a5.35,5.35,0,0,1,3,.81,4.35,4.35,0,0,1,1.72,2.44l1.12,3.75a47,47,0,0,1,3.88-3.25,22.73,22.73,0,0,1,4.28-2.53,25.56,25.56,0,0,1,4.94-1.63,26.87,26.87,0,0,1,5.78-.59,22.7,22.7,0,0,1,9.41,1.84,19.53,19.53,0,0,1,6.9,5.13,22.09,22.09,0,0,1,4.25,7.81,32.32,32.32,0,0,1,1.44,9.84V1530h-19.38v-41.19q0-4.74-2.18-7.4a7.87,7.87,0,0,0-6.44-2.66,13.41,13.41,0,0,0-6,1.38,23.09,23.09,0,0,0-5.38,3.68V1530Z"/><path class="cls-34" d="M3585.29,1464.1a35.84,35.84,0,0,1,7.78.82,31.37,31.37,0,0,1,6.79,2.31h19.56v7.06a3.48,3.48,0,0,1-.91,2.56,6.1,6.1,0,0,1-3.09,1.44l-4.75,1.06a19.63,19.63,0,0,1,.87,5.82,18.51,18.51,0,0,1-2,8.75,19.89,19.89,0,0,1-5.56,6.59,26.14,26.14,0,0,1-8.34,4.19,35.17,35.17,0,0,1-10.32,1.47,41.63,41.63,0,0,1-5.75-.38c-1.41.84-2.12,1.81-2.12,2.9a2.45,2.45,0,0,0,1.72,2.37,16.07,16.07,0,0,0,4.53,1q2.8.29,6.44.28t7.37.35a58.44,58.44,0,0,1,7.38,1.16,19.65,19.65,0,0,1,6.43,2.63,13.66,13.66,0,0,1,4.53,4.86,15.56,15.56,0,0,1,1.72,7.74,18.89,18.89,0,0,1-2.12,8.59,22.42,22.42,0,0,1-6.25,7.46,32.58,32.58,0,0,1-10.13,5.24,43.83,43.83,0,0,1-13.75,2,53.15,53.15,0,0,1-13.15-1.43,32,32,0,0,1-9.19-3.79,16,16,0,0,1-5.41-5.41,12.78,12.78,0,0,1-1.75-6.38,10.62,10.62,0,0,1,2.63-7.29,17.35,17.35,0,0,1,7.19-4.66,10.93,10.93,0,0,1-3.5-3.69,11.05,11.05,0,0,1-1.32-5.68,10.2,10.2,0,0,1,.5-3,11.28,11.28,0,0,1,1.57-3.09,15.2,15.2,0,0,1,2.68-2.87,17.73,17.73,0,0,1,3.88-2.44,21.12,21.12,0,0,1-8-7.12,19.69,19.69,0,0,1-.84-19.09,19.77,19.77,0,0,1,5.65-6.63,26.74,26.74,0,0,1,8.47-4.19A36.42,36.42,0,0,1,3585.29,1464.1Zm14.38,68.18a3.46,3.46,0,0,0-1-2.56,6.82,6.82,0,0,0-2.63-1.53,18.3,18.3,0,0,0-3.87-.83,41.9,41.9,0,0,0-4.78-.26h-5.31a27.49,27.49,0,0,1-5.44-.53,12.86,12.86,0,0,0-3,2.79,5.63,5.63,0,0,0-1.16,3.48,5.29,5.29,0,0,0,.6,2.51,4.9,4.9,0,0,0,2.09,1.94,13.85,13.85,0,0,0,4,1.28,36.41,36.41,0,0,0,6.41.47,37.94,37.94,0,0,0,6.87-.51,14.49,14.49,0,0,0,4.28-1.4A5.17,5.17,0,0,0,3599,1535,5.94,5.94,0,0,0,3599.67,1532.28Zm-14.38-38q4.82,0,7-2.41a8.94,8.94,0,0,0,2.16-6.22,8.55,8.55,0,0,0-2.16-6.18q-2.16-2.25-7-2.25t-7,2.25a8.59,8.59,0,0,0-2.15,6.18,10.48,10.48,0,0,0,.53,3.44,7.11,7.11,0,0,0,1.66,2.72,7.62,7.62,0,0,0,2.84,1.81A11.39,11.39,0,0,0,3585.29,1494.23Z"/><path class="cls-34" d="M4112.93,1530h-21.25V1439h21.25Z"/><path class="cls-34" d="M4129.8,1530v-64.81h12a5.35,5.35,0,0,1,3,.81,4.35,4.35,0,0,1,1.72,2.44l1.13,3.75a46.9,46.9,0,0,1,3.87-3.25,22.73,22.73,0,0,1,4.28-2.53,25.56,25.56,0,0,1,4.94-1.63,26.87,26.87,0,0,1,5.78-.59,22.7,22.7,0,0,1,9.41,1.84,19.44,19.44,0,0,1,6.9,5.13,22.09,22.09,0,0,1,4.25,7.81,32.32,32.32,0,0,1,1.44,9.84V1530h-19.37v-41.19q0-4.74-2.19-7.4a7.87,7.87,0,0,0-6.44-2.66,13.47,13.47,0,0,0-6,1.38,23,23,0,0,0-5.37,3.68V1530Z"/><path class="cls-34" d="M4235.68,1530h-17.63l-25.12-64.81h16.12a5.94,5.94,0,0,1,3.47,1,4.85,4.85,0,0,1,1.91,2.4l9,29.07q1,3.55,2,6.93t1.65,6.75q.69-3.37,1.69-6.75t2.13-6.93l9.37-29.07a4.84,4.84,0,0,1,1.88-2.4,5.46,5.46,0,0,1,3.25-1h15.37Z"/><path class="cls-34" d="M4295.3,1464.23a37.46,37.46,0,0,1,13.44,2.31,29.33,29.33,0,0,1,10.4,6.63,29.63,29.63,0,0,1,6.75,10.47,37.59,37.59,0,0,1,2.41,13.84,38.34,38.34,0,0,1-2.41,14,29.92,29.92,0,0,1-6.75,10.56,29.46,29.46,0,0,1-10.4,6.69,37,37,0,0,1-13.44,2.34,37.45,37.45,0,0,1-13.53-2.34,30.15,30.15,0,0,1-10.5-6.69,29.51,29.51,0,0,1-6.81-10.56,38.34,38.34,0,0,1-2.41-14,37.59,37.59,0,0,1,2.41-13.84,29.23,29.23,0,0,1,6.81-10.47,30,30,0,0,1,10.5-6.63A37.88,37.88,0,0,1,4295.3,1464.23Zm0,52.44q6.69,0,9.84-4.72t3.16-14.35q0-9.61-3.16-14.31t-9.84-4.69q-6.87,0-10.06,4.69t-3.19,14.31q0,9.63,3.19,14.35T4295.3,1516.67Z"/><path class="cls-34" d="M4361.17,1447.48a10.28,10.28,0,0,1-.93,4.34,11.38,11.38,0,0,1-2.57,3.57,12.38,12.38,0,0,1-3.78,2.43,11.61,11.61,0,0,1-4.59.91,10.82,10.82,0,0,1-4.44-.91,12.39,12.39,0,0,1-3.65-2.43,11,11,0,0,1-2.5-3.57,10.42,10.42,0,0,1-.91-4.34,10.85,10.85,0,0,1,.91-4.44,11.34,11.34,0,0,1,2.5-3.62,11.69,11.69,0,0,1,3.65-2.44,11.31,11.31,0,0,1,4.44-.88,12.14,12.14,0,0,1,4.59.88,11.83,11.83,0,0,1,6.35,6.06A10.71,10.71,0,0,1,4361.17,1447.48Zm-2.25,17.75V1530h-19.37v-64.81Z"/><path class="cls-34" d="M4421.3,1480.6a10.74,10.74,0,0,1-1.69,1.69,3.69,3.69,0,0,1-2.31.63,5,5,0,0,1-2.6-.69l-2.59-1.53a20.06,20.06,0,0,0-3.37-1.53,14.55,14.55,0,0,0-4.82-.69,13.54,13.54,0,0,0-6.15,1.31,11.44,11.44,0,0,0-4.28,3.75,17.09,17.09,0,0,0-2.5,6,35.19,35.19,0,0,0-.82,8q0,9.32,3.6,14.31a11.5,11.5,0,0,0,9.9,5,14,14,0,0,0,5.35-.84,16.09,16.09,0,0,0,3.34-1.88c.92-.68,1.76-1.32,2.53-1.9a4.64,4.64,0,0,1,2.91-.88,4,4,0,0,1,3.5,1.69l5.62,6.94a30.65,30.65,0,0,1-6.31,5.59,32,32,0,0,1-6.78,3.38,35,35,0,0,1-7,1.68,50,50,0,0,1-6.81.47,29.28,29.28,0,0,1-11.35-2.25,27.75,27.75,0,0,1-9.5-6.53,31.28,31.28,0,0,1-6.5-10.53,39.57,39.57,0,0,1-2.4-14.25,40.13,40.13,0,0,1,2.09-13.09,29.76,29.76,0,0,1,6.19-10.57,28.77,28.77,0,0,1,10.12-7,35.46,35.46,0,0,1,14-2.56,34,34,0,0,1,13.38,2.44,32.06,32.06,0,0,1,10.37,7.12Z"/><path class="cls-34" d="M4457.55,1447.48a10.29,10.29,0,0,1-.94,4.34,11.51,11.51,0,0,1-2.56,3.57,12.63,12.63,0,0,1-3.78,2.43,11.66,11.66,0,0,1-4.6.91,10.85,10.85,0,0,1-4.44-.91,12.39,12.39,0,0,1-3.65-2.43,11.18,11.18,0,0,1-2.5-3.57,10.42,10.42,0,0,1-.91-4.34,10.85,10.85,0,0,1,.91-4.44,11.5,11.5,0,0,1,2.5-3.62,11.69,11.69,0,0,1,3.65-2.44,11.35,11.35,0,0,1,4.44-.88,12.19,12.19,0,0,1,4.6.88,11.76,11.76,0,0,1,6.34,6.06A10.72,10.72,0,0,1,4457.55,1447.48Zm-2.25,17.75V1530h-19.38v-64.81Z"/><path class="cls-34" d="M4470.92,1530v-64.81h12a5.35,5.35,0,0,1,3,.81,4.35,4.35,0,0,1,1.72,2.44l1.12,3.75a47,47,0,0,1,3.88-3.25,22.73,22.73,0,0,1,4.28-2.53,25.56,25.56,0,0,1,4.94-1.63,26.87,26.87,0,0,1,5.78-.59,22.7,22.7,0,0,1,9.41,1.84,19.53,19.53,0,0,1,6.9,5.13,22.09,22.09,0,0,1,4.25,7.81,32.32,32.32,0,0,1,1.44,9.84V1530h-19.38v-41.19c0-3.16-.72-5.63-2.18-7.4a7.87,7.87,0,0,0-6.44-2.66,13.41,13.41,0,0,0-6,1.38,23.09,23.09,0,0,0-5.38,3.68V1530Z"/><path class="cls-34" d="M4566.29,1464.1a36,36,0,0,1,7.79.82,31.47,31.47,0,0,1,6.78,2.31h19.56v7.06a3.48,3.48,0,0,1-.91,2.56,6.1,6.1,0,0,1-3.09,1.44l-4.75,1.06a19.63,19.63,0,0,1,.87,5.82,18.51,18.51,0,0,1-2,8.75,19.89,19.89,0,0,1-5.56,6.59,26,26,0,0,1-8.34,4.19,35.17,35.17,0,0,1-10.32,1.47,41.63,41.63,0,0,1-5.75-.38c-1.41.84-2.12,1.81-2.12,2.9a2.45,2.45,0,0,0,1.72,2.37,16.07,16.07,0,0,0,4.53,1q2.81.29,6.44.28t7.37.35a58.44,58.44,0,0,1,7.38,1.16,19.65,19.65,0,0,1,6.43,2.63,13.77,13.77,0,0,1,4.54,4.86,15.67,15.67,0,0,1,1.71,7.74,18.89,18.89,0,0,1-2.12,8.59,22.42,22.42,0,0,1-6.25,7.46,32.58,32.58,0,0,1-10.13,5.24,43.83,43.83,0,0,1-13.75,2,53.2,53.2,0,0,1-13.15-1.43,32,32,0,0,1-9.19-3.79,16,16,0,0,1-5.41-5.41,12.78,12.78,0,0,1-1.75-6.38,10.62,10.62,0,0,1,2.63-7.29,17.35,17.35,0,0,1,7.19-4.66,10.93,10.93,0,0,1-3.5-3.69,11.05,11.05,0,0,1-1.32-5.68,10.2,10.2,0,0,1,.5-3,11.28,11.28,0,0,1,1.57-3.09,15.2,15.2,0,0,1,2.68-2.87,17.73,17.73,0,0,1,3.88-2.44,21.12,21.12,0,0,1-8-7.12,19.69,19.69,0,0,1-.84-19.09,19.77,19.77,0,0,1,5.65-6.63,26.74,26.74,0,0,1,8.47-4.19A36.42,36.42,0,0,1,4566.29,1464.1Zm14.38,68.18a3.42,3.42,0,0,0-1-2.56,6.85,6.85,0,0,0-2.62-1.53,18.55,18.55,0,0,0-3.88-.83,41.9,41.9,0,0,0-4.78-.26h-5.31a27.49,27.49,0,0,1-5.44-.53,12.86,12.86,0,0,0-3,2.79,5.63,5.63,0,0,0-1.16,3.48,5.29,5.29,0,0,0,.6,2.51,4.9,4.9,0,0,0,2.09,1.94,14,14,0,0,0,4,1.28,36.41,36.41,0,0,0,6.41.47,37.94,37.94,0,0,0,6.87-.51,14.66,14.66,0,0,0,4.29-1.4A5.2,5.2,0,0,0,4580,1535,5.94,5.94,0,0,0,4580.67,1532.28Zm-14.38-38c3.21,0,5.54-.8,7-2.41a8.94,8.94,0,0,0,2.16-6.22,8.55,8.55,0,0,0-2.16-6.18c-1.43-1.5-3.76-2.25-7-2.25s-5.53.75-7,2.25a8.55,8.55,0,0,0-2.16,6.18,10.75,10.75,0,0,0,.53,3.44,7.11,7.11,0,0,0,1.66,2.72,7.62,7.62,0,0,0,2.84,1.81A11.43,11.43,0,0,0,4566.29,1494.23Z"/><path class="cls-34" d="M4930.38,1507.29a4.2,4.2,0,0,1,1.5.29,4.08,4.08,0,0,1,1.44,1l8.38,8.82a34.82,34.82,0,0,1-13.78,10.84,48.25,48.25,0,0,1-19.6,3.66,46.72,46.72,0,0,1-18.59-3.53,40.37,40.37,0,0,1-13.94-9.75,43.06,43.06,0,0,1-8.78-14.75,54.55,54.55,0,0,1-3.06-18.54,48.66,48.66,0,0,1,3.5-18.71,43.5,43.5,0,0,1,9.78-14.72,44,44,0,0,1,15-9.63,52.4,52.4,0,0,1,19.31-3.44,49.51,49.51,0,0,1,9.66.91,47.21,47.21,0,0,1,8.47,2.5A39.85,39.85,0,0,1,4937,1446a35.45,35.45,0,0,1,5.87,4.91l-7.12,9.56a8.84,8.84,0,0,1-1.63,1.6,4.27,4.27,0,0,1-2.62.71,4.63,4.63,0,0,1-2.13-.5,24.21,24.21,0,0,1-2.12-1.21l-2.47-1.57a19.37,19.37,0,0,0-3.19-1.56,27.1,27.1,0,0,0-4.31-1.22,29.76,29.76,0,0,0-5.78-.5,26.46,26.46,0,0,0-10.5,2,23,23,0,0,0-8.16,5.82,26.94,26.94,0,0,0-5.31,9.15,36,36,0,0,0-1.91,12.06,37.5,37.5,0,0,0,1.91,12.44,27.24,27.24,0,0,0,5.19,9.16,21.84,21.84,0,0,0,7.65,5.65,22.77,22.77,0,0,0,9.38,1.94,44.51,44.51,0,0,0,5.25-.28,21.65,21.65,0,0,0,4.4-1,20.33,20.33,0,0,0,3.88-1.78,25.41,25.41,0,0,0,3.72-2.72,7.66,7.66,0,0,1,1.62-1A4.27,4.27,0,0,1,4930.38,1507.29Z"/><path class="cls-34" d="M4980.2,1465a37.45,37.45,0,0,1,13.43,2.32,28.94,28.94,0,0,1,17.16,17.09,37.84,37.84,0,0,1,2.41,13.84,38.51,38.51,0,0,1-2.41,14,29.06,29.06,0,0,1-17.16,17.25,36.81,36.81,0,0,1-13.43,2.35,37.33,37.33,0,0,1-13.54-2.35,30.27,30.27,0,0,1-10.5-6.68,29.82,29.82,0,0,1-6.81-10.57,38.51,38.51,0,0,1-2.4-14,37.84,37.84,0,0,1,2.4-13.84,29.67,29.67,0,0,1,6.81-10.47,30.13,30.13,0,0,1,10.5-6.62A38,38,0,0,1,4980.2,1465Zm0,52.44c4.45,0,7.74-1.57,9.84-4.72s3.16-7.92,3.16-14.34-1.06-11.19-3.16-14.31-5.39-4.69-9.84-4.69-7.94,1.56-10.07,4.69-3.18,7.89-3.18,14.31,1.06,11.2,3.18,14.34S4975.61,1517.48,4980.2,1517.48Z"/><path class="cls-34" d="M5043.82,1437.29v93.57h-19.38v-93.57Z"/><path class="cls-34" d="M5079.44,1437.29v93.57h-19.37v-93.57Z"/><path class="cls-34" d="M5139.82,1530.86a9.08,9.08,0,0,1-4.16-.75,5.68,5.68,0,0,1-2.34-3.13l-1.38-3.56c-1.62,1.37-3.19,2.58-4.69,3.62a29.27,29.27,0,0,1-4.65,2.66,23.28,23.28,0,0,1-5.13,1.63,31.84,31.84,0,0,1-6,.53,26.41,26.41,0,0,1-8.06-1.16,17,17,0,0,1-6.16-3.42,15.11,15.11,0,0,1-3.9-5.61,20.26,20.26,0,0,1-1.38-7.75,16.2,16.2,0,0,1,1.75-7.08,17.52,17.52,0,0,1,6.06-6.62,38.7,38.7,0,0,1,11.63-5,71,71,0,0,1,18.44-2v-2.77q0-5.74-2.35-8.3a8.58,8.58,0,0,0-6.65-2.55,17.66,17.66,0,0,0-5.63.75,25.38,25.38,0,0,0-3.9,1.68c-1.15.63-2.27,1.19-3.35,1.69a9.15,9.15,0,0,1-3.87.75,5.83,5.83,0,0,1-3.41-1,7.07,7.07,0,0,1-2.22-2.4l-3.5-6.07a39.42,39.42,0,0,1,13-7.71,45.65,45.65,0,0,1,15.35-2.54,28.1,28.1,0,0,1,10.59,1.91,22.78,22.78,0,0,1,8,5.31,23.2,23.2,0,0,1,5,8.1,29,29,0,0,1,1.75,10.25v40.5ZM5117.57,1519a15.3,15.3,0,0,0,6.56-1.31,20,20,0,0,0,5.69-4.25v-8.87a50.23,50.23,0,0,0-9.57.75,23.39,23.39,0,0,0-5.93,1.89,7.18,7.18,0,0,0-3,2.59,6.1,6.1,0,0,0-.85,3.15q0,3.35,1.81,4.7A8.83,8.83,0,0,0,5117.57,1519Z"/><path class="cls-34" d="M5162.44,1530.86v-93.57h19.37v35.63a29.61,29.61,0,0,1,8.22-5.72,25.14,25.14,0,0,1,10.78-2.16,20.43,20.43,0,0,1,9.38,2.19,21.26,21.26,0,0,1,7.44,6.41,32.33,32.33,0,0,1,4.9,10.34,49.9,49.9,0,0,1,1.78,13.94,42.94,42.94,0,0,1-2,13.5,34,34,0,0,1-5.68,10.75,26.19,26.19,0,0,1-8.75,7.12,24.76,24.76,0,0,1-11.29,2.57,21.3,21.3,0,0,1-5.15-.57,17.33,17.33,0,0,1-4.19-1.59,18,18,0,0,1-3.5-2.47,41.43,41.43,0,0,1-3.09-3.12l-.69,3.25a4.16,4.16,0,0,1-1.59,2.75,5.54,5.54,0,0,1-3,.75Zm31.62-51.25a16.84,16.84,0,0,0-3.84.4,14.05,14.05,0,0,0-3.19,1.16,12,12,0,0,0-2.72,1.91,29.38,29.38,0,0,0-2.5,2.65v27.5a12.32,12.32,0,0,0,4.75,3.41,15.22,15.22,0,0,0,5.38,1,11.41,11.41,0,0,0,4.94-1.07,10,10,0,0,0,3.9-3.4,18.14,18.14,0,0,0,2.6-6.1,38.44,38.44,0,0,0,.93-9.12,42.05,42.05,0,0,0-.75-8.63,17.68,17.68,0,0,0-2.09-5.65,8.19,8.19,0,0,0-3.22-3.1A9.28,9.28,0,0,0,5194.06,1479.61Z"/><path class="cls-34" d="M5263.81,1465a37.46,37.46,0,0,1,13.44,2.32,29.57,29.57,0,0,1,10.41,6.62,30.1,30.1,0,0,1,6.75,10.47,37.84,37.84,0,0,1,2.4,13.84,38.51,38.51,0,0,1-2.4,14,30.25,30.25,0,0,1-6.75,10.57,29.71,29.71,0,0,1-10.41,6.68,36.82,36.82,0,0,1-13.44,2.35,37.24,37.24,0,0,1-13.53-2.35,30.27,30.27,0,0,1-10.5-6.68,29.55,29.55,0,0,1-6.81-10.57,38.51,38.51,0,0,1-2.41-14,37.84,37.84,0,0,1,2.41-13.84,29.4,29.4,0,0,1,6.81-10.47,30.13,30.13,0,0,1,10.5-6.62A37.88,37.88,0,0,1,5263.81,1465Zm0,52.44q6.69,0,9.85-4.72t3.15-14.34q0-9.63-3.15-14.31t-9.85-4.69q-6.87,0-10.06,4.69t-3.19,14.31q0,9.63,3.19,14.34T5263.81,1517.48Z"/><path class="cls-34" d="M5307.44,1530.86V1466h11.5a10.1,10.1,0,0,1,2.4.25,4.21,4.21,0,0,1,1.63.79,3.29,3.29,0,0,1,1,1.4,13,13,0,0,1,.59,2.13l1.06,6.06a32,32,0,0,1,8-8.69,16.3,16.3,0,0,1,9.69-3.19,11.17,11.17,0,0,1,7.13,2.13l-2.5,14.25a2.79,2.79,0,0,1-1,1.84,3.36,3.36,0,0,1-2,.53,13,13,0,0,1-2.5-.28,20.12,20.12,0,0,0-3.63-.28q-7.62,0-12,8.13v39.75Z"/><path class="cls-34" d="M5402.56,1530.86a9,9,0,0,1-4.15-.75,5.74,5.74,0,0,1-2.35-3.13l-1.37-3.56q-2.44,2.05-4.69,3.62a28.93,28.93,0,0,1-4.66,2.66,23.19,23.19,0,0,1-5.12,1.63,31.92,31.92,0,0,1-6,.53,26.53,26.53,0,0,1-8.07-1.16,17,17,0,0,1-6.15-3.42,15.13,15.13,0,0,1-3.91-5.61,20.27,20.27,0,0,1-1.37-7.75,16.2,16.2,0,0,1,1.75-7.08,17.36,17.36,0,0,1,6.06-6.62,38.63,38.63,0,0,1,11.62-5,71,71,0,0,1,18.44-2v-2.77q0-5.74-2.34-8.3a8.58,8.58,0,0,0-6.66-2.55,17.6,17.6,0,0,0-5.62.75A26,26,0,0,0,5374,1482c-1.15.63-2.26,1.19-3.34,1.69a9.23,9.23,0,0,1-3.88.75,5.8,5.8,0,0,1-3.4-1,7.07,7.07,0,0,1-2.22-2.4l-3.5-6.07a39.32,39.32,0,0,1,13-7.71,45.59,45.59,0,0,1,15.34-2.54,28.11,28.11,0,0,1,10.6,1.91,22.87,22.87,0,0,1,8,5.31,23.34,23.34,0,0,1,5,8.1,29.21,29.21,0,0,1,1.75,10.25v40.5ZM5380.31,1519a15.27,15.27,0,0,0,6.56-1.31,19.85,19.85,0,0,0,5.69-4.25v-8.87a50.18,50.18,0,0,0-9.56.75,23.62,23.62,0,0,0-5.94,1.89,7.18,7.18,0,0,0-3,2.59,6.19,6.19,0,0,0-.84,3.15q0,3.35,1.81,4.7A8.81,8.81,0,0,0,5380.31,1519Z"/><path class="cls-34" d="M5447.93,1531.86a22.71,22.71,0,0,1-8.15-1.35,16,16,0,0,1-5.94-3.81,16.39,16.39,0,0,1-3.66-6,23.18,23.18,0,0,1-1.25-7.81v-33.5h-5.5a3.49,3.49,0,0,1-3.62-3.81V1468l10.31-2,3.81-15.81q.75-3,4.25-3h10.13v18.94h15.75v13.25h-15.75v32.19a6.06,6.06,0,0,0,1.09,3.72,3.71,3.71,0,0,0,3.16,1.46,6.43,6.43,0,0,0,1.78-.21,7.92,7.92,0,0,0,1.25-.5c.35-.19.69-.36,1-.5a2.5,2.5,0,0,1,1.09-.22,2.25,2.25,0,0,1,1.41.4,5,5,0,0,1,1.09,1.28l5.88,9.19a26.65,26.65,0,0,1-8.44,4.22A33.41,33.41,0,0,1,5447.93,1531.86Z"/><path class="cls-34" d="M5497.43,1448.29a10.33,10.33,0,0,1-.93,4.35,11.46,11.46,0,0,1-2.57,3.56,12.6,12.6,0,0,1-3.78,2.44,11.81,11.81,0,0,1-4.59.9,11,11,0,0,1-4.44-.9,12.8,12.8,0,0,1-3.66-2.44,11.41,11.41,0,0,1-2.5-3.56,10.62,10.62,0,0,1-.9-4.35,10.93,10.93,0,0,1,.9-4.43,11.6,11.6,0,0,1,2.5-3.63,12,12,0,0,1,3.66-2.44,11.31,11.31,0,0,1,4.44-.87,12.17,12.17,0,0,1,4.59.87,11.88,11.88,0,0,1,3.78,2.44,11.64,11.64,0,0,1,2.57,3.63A10.63,10.63,0,0,1,5497.43,1448.29Zm-2.25,17.75v64.82h-19.37V1466Z"/><path class="cls-34" d="M5539.68,1465a37.46,37.46,0,0,1,13.44,2.32,29.57,29.57,0,0,1,10.41,6.62,30.1,30.1,0,0,1,6.75,10.47,37.84,37.84,0,0,1,2.4,13.84,38.51,38.51,0,0,1-2.4,14,30.25,30.25,0,0,1-6.75,10.57,29.71,29.71,0,0,1-10.41,6.68,36.82,36.82,0,0,1-13.44,2.35,37.24,37.24,0,0,1-13.53-2.35,30.27,30.27,0,0,1-10.5-6.68,29.55,29.55,0,0,1-6.81-10.57,38.3,38.3,0,0,1-2.41-14,37.63,37.63,0,0,1,2.41-13.84,29.4,29.4,0,0,1,6.81-10.47,30.13,30.13,0,0,1,10.5-6.62A37.88,37.88,0,0,1,5539.68,1465Zm0,52.44q6.69,0,9.85-4.72t3.15-14.34q0-9.63-3.15-14.31t-9.85-4.69q-6.87,0-10.06,4.69t-3.19,14.31q0,9.63,3.19,14.34T5539.68,1517.48Z"/><path class="cls-34" d="M5583.31,1530.86V1466h12a5.39,5.39,0,0,1,3,.82,4.37,4.37,0,0,1,1.72,2.43l1.12,3.75a47.35,47.35,0,0,1,3.88-3.25,22.73,22.73,0,0,1,4.28-2.53,25.44,25.44,0,0,1,4.93-1.62,26.26,26.26,0,0,1,5.79-.6,22.66,22.66,0,0,1,9.4,1.85,19.66,19.66,0,0,1,6.91,5.12,22.2,22.2,0,0,1,4.25,7.82,32.32,32.32,0,0,1,1.44,9.84v41.19h-19.38v-41.19q0-4.76-2.19-7.41a7.85,7.85,0,0,0-6.43-2.65,13.54,13.54,0,0,0-6,1.37,23.46,23.46,0,0,0-5.38,3.69v46.19Z"/><path class="cls-34" d="M5870.24,1500.42v30.44h-21.13v-91.07h32.13a53,53,0,0,1,16.53,2.28,31.89,31.89,0,0,1,11.38,6.29,24.58,24.58,0,0,1,6.59,9.43,31.94,31.94,0,0,1,2.12,11.75,34.73,34.73,0,0,1-2.18,12.5,25.13,25.13,0,0,1-6.69,9.75,31.45,31.45,0,0,1-11.41,6.35,52.27,52.27,0,0,1-16.34,2.28Zm0-15.94h11q8.25,0,11.87-3.94t3.63-11a16.27,16.27,0,0,0-.94-5.68,11.52,11.52,0,0,0-2.84-4.41,12.72,12.72,0,0,0-4.81-2.84,21.22,21.22,0,0,0-6.91-1h-11Z"/><path class="cls-34" d="M5948.86,1437.29v93.57h-19.37v-93.57Z"/><path class="cls-34" d="M6009.24,1530.86a9.08,9.08,0,0,1-4.16-.75,5.72,5.72,0,0,1-2.34-3.13l-1.38-3.56c-1.62,1.37-3.19,2.58-4.69,3.62a30.07,30.07,0,0,1-4.65,2.66,22.74,22.74,0,0,1-5.13,1.62,31,31,0,0,1-6,.54,26.41,26.41,0,0,1-8.06-1.16,17,17,0,0,1-6.16-3.42,15.11,15.11,0,0,1-3.9-5.61,20.26,20.26,0,0,1-1.38-7.75,16.2,16.2,0,0,1,1.75-7.08,17.52,17.52,0,0,1,6.06-6.62,38.7,38.7,0,0,1,11.63-5,71,71,0,0,1,18.44-2v-2.77q0-5.74-2.35-8.3a8.58,8.58,0,0,0-6.65-2.55,17.66,17.66,0,0,0-5.63.75,25.38,25.38,0,0,0-3.9,1.68c-1.15.63-2.27,1.19-3.35,1.69a9.15,9.15,0,0,1-3.87.75,5.83,5.83,0,0,1-3.41-1,7.16,7.16,0,0,1-2.22-2.4l-3.5-6.07a39.45,39.45,0,0,1,13-7.72,45.9,45.9,0,0,1,15.35-2.53,28.1,28.1,0,0,1,10.59,1.91,22.87,22.87,0,0,1,8,5.31,23.2,23.2,0,0,1,5,8.1,29,29,0,0,1,1.75,10.25v40.5ZM5987,1519a15.3,15.3,0,0,0,6.56-1.31,20,20,0,0,0,5.69-4.25v-8.87a50.23,50.23,0,0,0-9.57.75,23.39,23.39,0,0,0-5.93,1.89,7.18,7.18,0,0,0-3,2.59,6.1,6.1,0,0,0-.85,3.15c0,2.23.6,3.79,1.81,4.7A8.83,8.83,0,0,0,5987,1519Z"/><path class="cls-34" d="M6031.86,1530.86V1466h12a5.27,5.27,0,0,1,3,.82,4.32,4.32,0,0,1,1.72,2.43l1.12,3.75a49.1,49.1,0,0,1,3.88-3.25,22.73,22.73,0,0,1,4.28-2.53,24.88,24.88,0,0,1,4.94-1.62,26.23,26.23,0,0,1,5.78-.6,22.7,22.7,0,0,1,9.41,1.85,19.5,19.5,0,0,1,6.9,5.12,22.09,22.09,0,0,1,4.25,7.81,32.44,32.44,0,0,1,1.44,9.85v41.19h-19.38v-41.19q0-4.76-2.18-7.41a7.87,7.87,0,0,0-6.44-2.65,13.4,13.4,0,0,0-6,1.37,23.46,23.46,0,0,0-5.38,3.69v46.19Z"/><path class="cls-34" d="M6104.36,1530.86V1466h12a5.27,5.27,0,0,1,3,.82,4.37,4.37,0,0,1,1.72,2.43l1.12,3.75a47.35,47.35,0,0,1,3.88-3.25,22.73,22.73,0,0,1,4.28-2.53,24.67,24.67,0,0,1,4.94-1.62,26.17,26.17,0,0,1,5.78-.6,22.66,22.66,0,0,1,9.4,1.85,19.54,19.54,0,0,1,6.91,5.12,22.24,22.24,0,0,1,4.25,7.81,32.44,32.44,0,0,1,1.44,9.85v41.19h-19.38v-41.19q0-4.76-2.19-7.41a7.83,7.83,0,0,0-6.43-2.65,13.4,13.4,0,0,0-6,1.37,23.46,23.46,0,0,0-5.38,3.69v46.19Z"/><path class="cls-34" d="M6199.11,1448.29a10.37,10.37,0,0,1-.94,4.35,11.59,11.59,0,0,1-2.56,3.56,12.78,12.78,0,0,1-3.79,2.44,11.74,11.74,0,0,1-4.59.9,11,11,0,0,1-4.44-.9,12.62,12.62,0,0,1-3.65-2.44,11.09,11.09,0,0,1-2.5-3.56,10.5,10.5,0,0,1-.91-4.35,10.77,10.77,0,0,1,.91-4.43,11.27,11.27,0,0,1,2.5-3.63,11.86,11.86,0,0,1,3.65-2.44,11.34,11.34,0,0,1,4.44-.87,12,12,0,0,1,8.38,3.31,11.77,11.77,0,0,1,2.56,3.63A10.64,10.64,0,0,1,6199.11,1448.29Zm-2.25,17.75v64.82h-19.38V1466Z"/><path class="cls-34" d="M6212.48,1530.86V1466h12a5.27,5.27,0,0,1,3,.82,4.32,4.32,0,0,1,1.72,2.43l1.12,3.75a49.1,49.1,0,0,1,3.88-3.25,22.73,22.73,0,0,1,4.28-2.53,24.88,24.88,0,0,1,4.94-1.62,26.23,26.23,0,0,1,5.78-.6,22.7,22.7,0,0,1,9.41,1.85,19.5,19.5,0,0,1,6.9,5.12,22.09,22.09,0,0,1,4.25,7.81,32.44,32.44,0,0,1,1.44,9.85v41.19h-19.38v-41.19q0-4.76-2.18-7.41a7.87,7.87,0,0,0-6.44-2.65,13.4,13.4,0,0,0-6,1.37,23.46,23.46,0,0,0-5.38,3.69v46.19Z"/><path class="cls-34" d="M6307.85,1464.92a35.85,35.85,0,0,1,7.78.81,31.37,31.37,0,0,1,6.79,2.31H6342v7.07a3.52,3.52,0,0,1-.91,2.56,6.27,6.27,0,0,1-3.09,1.44l-4.75,1.06a19.52,19.52,0,0,1,.87,5.81,18.48,18.48,0,0,1-2,8.75,19.89,19.89,0,0,1-5.56,6.59,25.94,25.94,0,0,1-8.34,4.19,35.17,35.17,0,0,1-10.32,1.47,41.69,41.69,0,0,1-5.75-.37c-1.41.84-2.12,1.8-2.12,2.9a2.44,2.44,0,0,0,1.72,2.36,15.73,15.73,0,0,0,4.53,1,64.35,64.35,0,0,0,6.44.29q3.61,0,7.37.34a58.44,58.44,0,0,1,7.38,1.16,19.66,19.66,0,0,1,6.43,2.64,13.58,13.58,0,0,1,4.53,4.86,15.51,15.51,0,0,1,1.72,7.74,18.93,18.93,0,0,1-2.12,8.59,22.52,22.52,0,0,1-6.25,7.46,32.57,32.57,0,0,1-10.13,5.23,43.82,43.82,0,0,1-13.75,2,52.64,52.64,0,0,1-13.15-1.44,31.7,31.7,0,0,1-9.19-3.79,15.87,15.87,0,0,1-5.41-5.41,12.75,12.75,0,0,1-1.75-6.38,10.62,10.62,0,0,1,2.63-7.29,17.44,17.44,0,0,1,7.19-4.66,10.9,10.9,0,0,1-3.5-3.68,11.08,11.08,0,0,1-1.32-5.68,10.21,10.21,0,0,1,.5-3,11.28,11.28,0,0,1,1.57-3.09,15.51,15.51,0,0,1,2.68-2.87,17.71,17.71,0,0,1,3.88-2.43,21.14,21.14,0,0,1-8-7.13,19.69,19.69,0,0,1-.84-19.09,20,20,0,0,1,5.65-6.63,26.72,26.72,0,0,1,8.47-4.18A36.42,36.42,0,0,1,6307.85,1464.92Zm14.38,68.17a3.42,3.42,0,0,0-1-2.55,7,7,0,0,0-2.63-1.54,18.3,18.3,0,0,0-3.87-.83,42,42,0,0,0-4.78-.25h-5.31a28.26,28.26,0,0,1-5.44-.53,12.62,12.62,0,0,0-3,2.78,5.67,5.67,0,0,0-1.16,3.48,5.26,5.26,0,0,0,.6,2.51,4.84,4.84,0,0,0,2.09,1.94,14.14,14.14,0,0,0,4,1.29,36.41,36.41,0,0,0,6.41.47,37.82,37.82,0,0,0,6.87-.52,14.2,14.2,0,0,0,4.28-1.4,5.17,5.17,0,0,0,2.22-2.14A5.91,5.91,0,0,0,6322.23,1533.09Zm-14.38-38q4.82,0,7-2.4a9,9,0,0,0,2.16-6.22,8.56,8.56,0,0,0-2.16-6.19q-2.16-2.25-7-2.25t-7,2.25a8.6,8.6,0,0,0-2.15,6.19,10.52,10.52,0,0,0,.53,3.44,7.07,7.07,0,0,0,1.66,2.71,7.64,7.64,0,0,0,2.84,1.82A11.62,11.62,0,0,0,6307.85,1495Z"/></g><g id="Header"><path class="cls-34" d="M2611,111.75q-2.76,5.5-6.38,7.75a16,16,0,0,1-8.62,2.25q-5,0-11.25-3.88T2570,109.25a121,121,0,0,0-19.88-8.63q-11.37-3.87-26.87-3.87a79,79,0,0,0-24.38,3.37,51.58,51.58,0,0,0-17.5,9.38,37.43,37.43,0,0,0-10.62,14.37,47.1,47.1,0,0,0-3.5,18.38q0,12.75,7.12,21.25a59.39,59.39,0,0,0,18.88,14.5A175.37,175.37,0,0,0,2520,188.75q15,4.75,30.62,10.12a296.18,296.18,0,0,1,30.63,12.5,106.25,106.25,0,0,1,26.75,18A81.64,81.64,0,0,1,2626.88,256q7.13,15.75,7.13,38.25a124.68,124.68,0,0,1-8.38,45.87,105.76,105.76,0,0,1-24.5,37.25q-16.12,15.88-39.37,25t-53.25,9.13a171.66,171.66,0,0,1-34-3.38,178.66,178.66,0,0,1-32.13-9.62,168.34,168.34,0,0,1-28.75-15,141,141,0,0,1-23.87-19.5l19.5-32.25a25.05,25.05,0,0,1,6.62-5.88,16.21,16.21,0,0,1,8.63-2.37q6.24,0,13.5,5.12T2455.13,340a130.5,130.5,0,0,0,23.25,11.37q13.38,5.13,32.13,5.13,28.74,0,44.5-13.63t15.75-39.12q0-14.25-7.13-23.25a57.63,57.63,0,0,0-18.87-15.13A141.1,141.1,0,0,0,2518,255q-15-4.25-30.5-9.25a261.35,261.35,0,0,1-30.5-12,98.83,98.83,0,0,1-26.75-18.25,83,83,0,0,1-18.88-28.13q-7.12-16.87-7.12-41.62A99.46,99.46,0,0,1,2435.13,74q15.12-14.51,37.13-23.25T2522.51,42q32,0,59,10t46,28Z"/><path class="cls-34" d="M2913.51,46V99.5H2753.26V199.75h126.25V251.5H2753.26V353.75h160.25V407.5h-228V46Z"/><path class="cls-34" d="M3014.5,46.37a17.66,17.66,0,0,1,5.38,1.5,18.23,18.23,0,0,1,4.62,3.25,52.5,52.5,0,0,1,5,5.63L3219.25,298.5q-1-8.75-1.37-17.13t-.38-15.62V46h59.25V407.5H3242q-8,0-13.25-2.5t-10.25-9l-189-240.75q.75,8,1.13,15.87t.37,14.38v222h-59.25V46H3007A62.31,62.31,0,0,1,3014.5,46.37Z"/><path class="cls-34" d="M3604.5,46v55.25H3495.75V407.5H3428.5V101.25H3319.25V46Z"/><path class="cls-34" d="M3716.75,266.25V407.5H3649.5V46h110.25q37,0,63.37,7.62T3866.37,75a82.53,82.53,0,0,1,24.75,32.87A109.65,109.65,0,0,1,3899,150a109.23,109.23,0,0,1-5.38,34.5,100,100,0,0,1-15.5,29.5,104.72,104.72,0,0,1-25,23.25,131.06,131.06,0,0,1-33.87,16,66.63,66.63,0,0,1,22,20.75l90.5,133.5h-60.5a29.57,29.57,0,0,1-14.88-3.5A30.31,30.31,0,0,1,3846,394l-76-115.75q-4.26-6.5-9.38-9.25t-15.12-2.75Zm0-48.25h42q19,0,33.12-4.75t23.25-13.13a52.69,52.69,0,0,0,13.63-19.87,68.72,68.72,0,0,0,4.5-25.25q0-27.5-18.13-42.25T3759.75,98h-43Z"/><path class="cls-34" d="M4077,46V81h-41V196.75h-42.75V81h-40.75V46Zm101.25,70.25c1.34,3,2.54,6,3.63,8.87s2,5.88,2.87,8.88q1.5-4.5,3.25-9a83.28,83.28,0,0,1,4-8.75l33.25-63.75c1.67-3.17,3.5-5,5.5-5.63A30.87,30.87,0,0,1,4239,46h36.75V196.75h-37.5v-75.5L4241,96.5,4202.74,172q-4.74,9.25-14.5,9.25h-6q-10.24,0-14.75-9.25l-37.75-74.25,2.75,23.5v75.5H4095V46h36.75a35.38,35.38,0,0,1,8.38.75c1.91.5,3.71,2.42,5.37,5.75Z"/><path class="cls-34" d="M1232.69,1440.44h-16.37a7.56,7.56,0,0,1-4.53-1.28,6.59,6.59,0,0,1-2.47-3.28l-5.38-15.88h-34.62l-5.38,15.88a7.09,7.09,0,0,1-2.44,3.15,7,7,0,0,1-4.43,1.41h-16.5l35.25-91.06h21.62Zm-58.5-34.81h24.88l-8.38-24.94c-.54-1.58-1.18-3.45-1.9-5.6s-1.45-4.46-2.16-7q-1,3.81-2.06,7.06t-2,5.62Z"/><path class="cls-34" d="M1286.82,1391a11.19,11.19,0,0,1-1.69,1.69,3.69,3.69,0,0,1-2.31.62,5.07,5.07,0,0,1-2.6-.68l-2.59-1.54a20.18,20.18,0,0,0-3.38-1.53,14.73,14.73,0,0,0-4.81-.68,13.38,13.38,0,0,0-6.15,1.31,11.37,11.37,0,0,0-4.29,3.75,17.12,17.12,0,0,0-2.5,6,35.74,35.74,0,0,0-.81,8c0,6.2,1.2,11,3.6,14.31a11.52,11.52,0,0,0,9.9,5,13.75,13.75,0,0,0,5.35-.85,16.08,16.08,0,0,0,3.34-1.87l2.53-1.91a4.7,4.7,0,0,1,2.91-.87,4,4,0,0,1,3.5,1.69l5.62,6.93a30.42,30.42,0,0,1-6.31,5.6,32,32,0,0,1-6.78,3.37,35,35,0,0,1-7,1.69,51.88,51.88,0,0,1-6.81.47,29.28,29.28,0,0,1-11.35-2.25,27.89,27.89,0,0,1-9.5-6.53,31.48,31.48,0,0,1-6.5-10.53,42.82,42.82,0,0,1-.31-27.35,29.8,29.8,0,0,1,6.19-10.56,28.77,28.77,0,0,1,10.12-7,35.46,35.46,0,0,1,14-2.56,34.21,34.21,0,0,1,13.38,2.43,32.09,32.09,0,0,1,10.37,7.13Z"/><path class="cls-34" d="M1347.57,1391a11.19,11.19,0,0,1-1.69,1.69,3.69,3.69,0,0,1-2.31.62,5.07,5.07,0,0,1-2.6-.68l-2.59-1.54a20.18,20.18,0,0,0-3.38-1.53,14.73,14.73,0,0,0-4.81-.68,13.45,13.45,0,0,0-6.16,1.31,11.34,11.34,0,0,0-4.28,3.75,17.12,17.12,0,0,0-2.5,6,35.74,35.74,0,0,0-.81,8c0,6.2,1.2,11,3.59,14.31a11.55,11.55,0,0,0,9.91,5,13.66,13.66,0,0,0,5.34-.85,15.91,15.91,0,0,0,3.35-1.87l2.53-1.91a4.7,4.7,0,0,1,2.91-.87,4,4,0,0,1,3.5,1.69l5.62,6.93a30.42,30.42,0,0,1-6.31,5.6,32,32,0,0,1-6.78,3.37,35.2,35.2,0,0,1-7,1.69,51.88,51.88,0,0,1-6.81.47,29.28,29.28,0,0,1-11.35-2.25,27.89,27.89,0,0,1-9.5-6.53,31.48,31.48,0,0,1-6.5-10.53,42.82,42.82,0,0,1-.31-27.35,29.65,29.65,0,0,1,6.19-10.56,28.77,28.77,0,0,1,10.12-7,35.46,35.46,0,0,1,14-2.56,34.21,34.21,0,0,1,13.38,2.43,32.09,32.09,0,0,1,10.37,7.13Z"/><path class="cls-34" d="M1390.44,1374.63a37.5,37.5,0,0,1,13.44,2.31,29.44,29.44,0,0,1,10.4,6.62A29.81,29.81,0,0,1,1421,1394a37.68,37.68,0,0,1,2.41,13.85,38.28,38.28,0,0,1-2.41,14,30,30,0,0,1-6.75,10.57,29.58,29.58,0,0,1-10.4,6.68,36.86,36.86,0,0,1-13.44,2.35,37.24,37.24,0,0,1-13.53-2.35,30.27,30.27,0,0,1-10.5-6.68,29.55,29.55,0,0,1-6.81-10.57,38.28,38.28,0,0,1-2.41-14,37.68,37.68,0,0,1,2.41-13.85,29.4,29.4,0,0,1,6.81-10.47,30.13,30.13,0,0,1,10.5-6.62A37.88,37.88,0,0,1,1390.44,1374.63Zm0,52.43q6.69,0,9.84-4.72t3.16-14.34q0-9.63-3.16-14.31t-9.84-4.69q-6.87,0-10.06,4.69t-3.19,14.31q0,9.63,3.19,14.34T1390.44,1427.06Z"/><path class="cls-34" d="M1452.19,1375.63v41.12q0,4.82,2.19,7.44c1.45,1.75,3.6,2.62,6.43,2.62a13.71,13.71,0,0,0,6-1.31,21.86,21.86,0,0,0,5.41-3.69v-46.18h19.37v64.81h-12a4.56,4.56,0,0,1-4.75-3.25l-1.18-3.75a37.89,37.89,0,0,1-3.88,3.28,23.72,23.72,0,0,1-4.28,2.5,25,25,0,0,1-4.91,1.62,25.77,25.77,0,0,1-5.75.6,22.66,22.66,0,0,1-9.4-1.85,19.26,19.26,0,0,1-6.91-5.15,22.6,22.6,0,0,1-4.25-7.81,32.31,32.31,0,0,1-1.44-9.88v-41.12Z"/><path class="cls-34" d="M1506.56,1440.44v-64.81h12a5.35,5.35,0,0,1,3,.81,4.27,4.27,0,0,1,1.72,2.44l1.13,3.75a46.9,46.9,0,0,1,3.87-3.25,22.78,22.78,0,0,1,4.28-2.54,25.63,25.63,0,0,1,10.72-2.21,22.7,22.7,0,0,1,9.41,1.84,19.53,19.53,0,0,1,6.9,5.12,22,22,0,0,1,4.25,7.82,32.32,32.32,0,0,1,1.44,9.84v41.19h-19.37v-41.19c0-3.17-.73-5.63-2.19-7.41a7.87,7.87,0,0,0-6.44-2.65,13.6,13.6,0,0,0-6,1.37,23.4,23.4,0,0,0-5.37,3.69v46.19Z"/><path class="cls-34" d="M1601.81,1441.44a22.81,22.81,0,0,1-8.16-1.35,15.75,15.75,0,0,1-9.59-9.78,23.14,23.14,0,0,1-1.25-7.81V1389h-5.5a3.49,3.49,0,0,1-3.62-3.81v-7.56l10.31-2,3.81-15.82q.75-3,4.25-3h10.13v18.94h15.75V1389h-15.75v32.19a6.06,6.06,0,0,0,1.09,3.72,3.7,3.7,0,0,0,3.16,1.47,6.45,6.45,0,0,0,1.78-.22,8.78,8.78,0,0,0,1.25-.5c.35-.19.68-.36,1-.5a2.47,2.47,0,0,1,1.09-.22,2.29,2.29,0,0,1,1.41.4,5.12,5.12,0,0,1,1.09,1.29l5.88,9.18a26.75,26.75,0,0,1-8.44,4.22A33.51,33.51,0,0,1,1601.81,1441.44Z"/><path class="cls-34" d="M1059.41,1553.75q1.15,2.57,2.22,5.25c.71-1.83,1.46-3.62,2.25-5.35s1.6-3.41,2.44-5l23.37-46a7.88,7.88,0,0,1,1.28-1.85,4.23,4.23,0,0,1,1.47-1,5.09,5.09,0,0,1,1.85-.31h18.53v91h-18.63v-52.38q0-3.81.38-8.25l-24.13,46.82a8,8,0,0,1-3,3.31,8.38,8.38,0,0,1-4.34,1.12h-2.88a8.38,8.38,0,0,1-4.34-1.12,8,8,0,0,1-3-3.31l-24.25-46.88c.16,1.46.29,2.91.37,4.34s.13,2.77.13,4v52.38h-18.63v-91H1029a5.09,5.09,0,0,1,1.85.31,4.23,4.23,0,0,1,1.47,1,7.88,7.88,0,0,1,1.28,1.85L1057,1548.8Q1058.25,1551.19,1059.41,1553.75Z"/><path class="cls-34" d="M1172.57,1590.44a9.08,9.08,0,0,1-4.16-.75,5.68,5.68,0,0,1-2.34-3.13l-1.38-3.56c-1.62,1.38-3.18,2.58-4.68,3.63a30.1,30.1,0,0,1-4.66,2.65,23.28,23.28,0,0,1-5.13,1.63,31.84,31.84,0,0,1-6,.53,26.46,26.46,0,0,1-8.06-1.16,16.84,16.84,0,0,1-6.16-3.42,15,15,0,0,1-3.9-5.61,20.25,20.25,0,0,1-1.38-7.74,16.38,16.38,0,0,1,1.75-7.09,17.55,17.55,0,0,1,6.07-6.62,38.63,38.63,0,0,1,11.62-5,71,71,0,0,1,18.44-2V1550c0-3.83-.78-6.59-2.35-8.3a8.58,8.58,0,0,0-6.65-2.55,17.71,17.71,0,0,0-5.63.75,24.43,24.43,0,0,0-3.9,1.69c-1.15.62-2.26,1.18-3.35,1.68a9.15,9.15,0,0,1-3.87.75,5.83,5.83,0,0,1-3.41-1,7.07,7.07,0,0,1-2.22-2.4l-3.5-6.06a39.28,39.28,0,0,1,13-7.72,45.65,45.65,0,0,1,15.35-2.53,28.06,28.06,0,0,1,10.59,1.9,22.78,22.78,0,0,1,8,5.31,23.14,23.14,0,0,1,5,8.1,29,29,0,0,1,1.75,10.25v40.5Zm-22.25-11.81a15.27,15.27,0,0,0,6.56-1.32,19.85,19.85,0,0,0,5.69-4.25v-8.87a49.2,49.2,0,0,0-9.56.76,22.83,22.83,0,0,0-5.94,1.89,7.17,7.17,0,0,0-3,2.58,6.1,6.1,0,0,0-.85,3.15q0,3.35,1.82,4.7A8.77,8.77,0,0,0,1150.32,1578.63Z"/><path class="cls-34" d="M1195.19,1590.44v-64.81h12a5.35,5.35,0,0,1,3,.81,4.31,4.31,0,0,1,1.72,2.44l1.13,3.75a46.9,46.9,0,0,1,3.87-3.25,22.78,22.78,0,0,1,4.28-2.54,25.63,25.63,0,0,1,10.72-2.21,22.7,22.7,0,0,1,9.41,1.84,19.53,19.53,0,0,1,6.9,5.12,22.13,22.13,0,0,1,4.25,7.82,32.32,32.32,0,0,1,1.44,9.84v41.19h-19.37v-41.19c0-3.17-.73-5.63-2.19-7.41a7.87,7.87,0,0,0-6.44-2.65,13.6,13.6,0,0,0-6,1.37,23.4,23.4,0,0,0-5.37,3.69v46.19Z"/><path class="cls-34" d="M1312.44,1590.44a9.11,9.11,0,0,1-4.16-.75,5.73,5.73,0,0,1-2.34-3.13l-1.38-3.56c-1.62,1.38-3.18,2.58-4.68,3.63a30.1,30.1,0,0,1-4.66,2.65,23.19,23.19,0,0,1-5.12,1.63,32,32,0,0,1-6,.53,26.51,26.51,0,0,1-8.06-1.16,16.72,16.72,0,0,1-6.15-3.42,15,15,0,0,1-3.91-5.61,20.25,20.25,0,0,1-1.38-7.74,16.38,16.38,0,0,1,1.75-7.09,17.55,17.55,0,0,1,6.07-6.62,38.63,38.63,0,0,1,11.62-5,71,71,0,0,1,18.44-2V1550c0-3.83-.78-6.59-2.34-8.3a8.61,8.61,0,0,0-6.66-2.55,17.71,17.71,0,0,0-5.63.75,24.83,24.83,0,0,0-3.9,1.69c-1.15.62-2.26,1.18-3.35,1.68a9.15,9.15,0,0,1-3.87.75,5.85,5.85,0,0,1-3.41-1,7.27,7.27,0,0,1-2.22-2.4l-3.5-6.06a39.23,39.23,0,0,1,13-7.72,45.59,45.59,0,0,1,15.34-2.53,28,28,0,0,1,10.59,1.9,22.69,22.69,0,0,1,8,5.31,23.14,23.14,0,0,1,5,8.1,29,29,0,0,1,1.75,10.25v40.5Zm-22.25-11.81a15.27,15.27,0,0,0,6.56-1.32,19.85,19.85,0,0,0,5.69-4.25v-8.87a49.2,49.2,0,0,0-9.56.76,22.83,22.83,0,0,0-5.94,1.89,7.17,7.17,0,0,0-3,2.58,6.2,6.2,0,0,0-.85,3.15q0,3.35,1.82,4.7A8.79,8.79,0,0,0,1290.19,1578.63Z"/><path class="cls-34" d="M1357.94,1524.5a35.92,35.92,0,0,1,7.78.81,31.65,31.65,0,0,1,6.78,2.32h19.56v7.06a3.54,3.54,0,0,1-.9,2.56,6.18,6.18,0,0,1-3.1,1.44l-4.75,1.06a19.25,19.25,0,0,1,.88,5.81,18.6,18.6,0,0,1-2,8.75,20,20,0,0,1-5.57,6.6,25.72,25.72,0,0,1-8.34,4.18,35.15,35.15,0,0,1-10.31,1.47,41.69,41.69,0,0,1-5.75-.37c-1.42.84-2.13,1.81-2.13,2.9a2.46,2.46,0,0,0,1.72,2.37,16.24,16.24,0,0,0,4.53,1c1.88.19,4,.28,6.44.28s4.87.12,7.37.35a56.69,56.69,0,0,1,7.38,1.16,19.71,19.71,0,0,1,6.44,2.63,13.75,13.75,0,0,1,4.53,4.86,15.67,15.67,0,0,1,1.72,7.74,18.78,18.78,0,0,1-2.13,8.59,22.3,22.3,0,0,1-6.25,7.46,32.74,32.74,0,0,1-10.12,5.24,44.17,44.17,0,0,1-13.75,2,52.72,52.72,0,0,1-13.16-1.44,32,32,0,0,1-9.19-3.78,16,16,0,0,1-5.4-5.41,12.71,12.71,0,0,1-1.75-6.39,10.61,10.61,0,0,1,2.62-7.29,17.51,17.51,0,0,1,7.19-4.66,10.81,10.81,0,0,1-3.5-3.68,11.18,11.18,0,0,1-1.31-5.68,9.83,9.83,0,0,1,.5-3,10.71,10.71,0,0,1,1.56-3.09,15.62,15.62,0,0,1,2.69-2.88,17.77,17.77,0,0,1,3.87-2.43,21.28,21.28,0,0,1-8-7.12,19.78,19.78,0,0,1-.84-19.1,19.75,19.75,0,0,1,5.66-6.62,26.33,26.33,0,0,1,8.47-4.19A36.38,36.38,0,0,1,1357.94,1524.5Zm14.37,68.17a3.41,3.41,0,0,0-1-2.55,6.78,6.78,0,0,0-2.62-1.53,17.93,17.93,0,0,0-3.88-.83,41.9,41.9,0,0,0-4.78-.26h-5.31a28.34,28.34,0,0,1-5.44-.53,12.65,12.65,0,0,0-3,2.79,5.62,5.62,0,0,0-1.15,3.48,5.24,5.24,0,0,0,.59,2.5,4.93,4.93,0,0,0,2.1,1.94,13.54,13.54,0,0,0,4,1.29,36.29,36.29,0,0,0,6.4.47,38.06,38.06,0,0,0,6.88-.51,14.18,14.18,0,0,0,4.28-1.41,5.23,5.23,0,0,0,2.22-2.14A6,6,0,0,0,1372.31,1592.67Zm-14.37-38c3.21,0,5.53-.81,7-2.41a9,9,0,0,0,2.15-6.22,8.62,8.62,0,0,0-2.15-6.19q-2.16-2.25-7-2.25t-7,2.25a8.58,8.58,0,0,0-2.16,6.19,10.75,10.75,0,0,0,.53,3.44,7.24,7.24,0,0,0,1.66,2.72,7.83,7.83,0,0,0,2.84,1.81A11.44,11.44,0,0,0,1357.94,1554.63Z"/><path class="cls-34" d="M1428.19,1524.63a33.21,33.21,0,0,1,11.78,2,25.68,25.68,0,0,1,9.19,5.81,26.55,26.55,0,0,1,6,9.34,34.48,34.48,0,0,1,2.15,12.53,26.57,26.57,0,0,1-.19,3.57,5.6,5.6,0,0,1-.68,2.18,2.61,2.61,0,0,1-1.35,1.13,6.23,6.23,0,0,1-2.15.31h-37.38q.95,8.13,4.94,11.78a14.68,14.68,0,0,0,10.31,3.66,18.47,18.47,0,0,0,5.81-.81,29.67,29.67,0,0,0,4.35-1.82l3.5-1.81a7.28,7.28,0,0,1,3.34-.81,4,4,0,0,1,3.5,1.69l5.63,6.93a28.75,28.75,0,0,1-6.47,5.6,33.76,33.76,0,0,1-7.13,3.37A38.43,38.43,0,0,1,1436,1591a55.38,55.38,0,0,1-7,.47,36.37,36.37,0,0,1-12.78-2.22,29.48,29.48,0,0,1-10.44-6.59,31.19,31.19,0,0,1-7.06-10.88,40.58,40.58,0,0,1-2.59-15.12,34.25,34.25,0,0,1,2.22-12.32,29.92,29.92,0,0,1,16.43-17.12A33.22,33.22,0,0,1,1428.19,1524.63Zm.37,13.37c-3.71,0-6.6,1-8.69,3.16s-3.45,5.13-4.12,9.09h24.19a17,17,0,0,0-.6-4.5,10.93,10.93,0,0,0-1.93-3.91,10,10,0,0,0-3.54-2.78A12.14,12.14,0,0,0,1428.56,1538Z"/><path class="cls-34" d="M1468.44,1590.44v-64.81h12a5.39,5.39,0,0,1,3,.81,4.36,4.36,0,0,1,1.72,2.44l1.06,3.5a36.06,36.06,0,0,1,3.37-3.1,21,21,0,0,1,8.16-4.06,20.78,20.78,0,0,1,5.16-.59,15.2,15.2,0,0,1,9.71,3,18.9,18.9,0,0,1,5.85,8.09,18.82,18.82,0,0,1,4-5.12,21.07,21.07,0,0,1,5.06-3.44,24.5,24.5,0,0,1,5.75-1.94,29.54,29.54,0,0,1,6-.62,27.54,27.54,0,0,1,9.88,1.65,18.86,18.86,0,0,1,7.21,4.81,20.82,20.82,0,0,1,4.41,7.75,33.54,33.54,0,0,1,1.5,10.41v41.19h-19.37v-41.19q0-10.07-8.63-10.06a8.86,8.86,0,0,0-6.53,2.59q-2.6,2.6-2.59,7.47v41.19h-19.38v-41.19q0-5.57-2.19-7.81t-6.43-2.25a10.74,10.74,0,0,0-5,1.19,18,18,0,0,0-4.41,3.18v46.88Z"/><path class="cls-34" d="M1603.81,1524.63a33.21,33.21,0,0,1,11.78,2,25.59,25.59,0,0,1,9.19,5.81,26.55,26.55,0,0,1,6,9.34,34.26,34.26,0,0,1,2.16,12.53,28.35,28.35,0,0,1-.19,3.57,5.77,5.77,0,0,1-.69,2.18,2.58,2.58,0,0,1-1.34,1.13,6.29,6.29,0,0,1-2.16.31h-37.37q.93,8.13,4.93,11.78a14.7,14.7,0,0,0,10.32,3.66,18.52,18.52,0,0,0,5.81-.81,30,30,0,0,0,4.34-1.82l3.5-1.81a7.29,7.29,0,0,1,3.35-.81,4,4,0,0,1,3.5,1.69l5.62,6.93a28.75,28.75,0,0,1-6.47,5.6,33.92,33.92,0,0,1-7.12,3.37,38.7,38.7,0,0,1-7.32,1.69,55.23,55.23,0,0,1-7,.47,36.39,36.39,0,0,1-12.79-2.22,29.35,29.35,0,0,1-10.43-6.59,31.21,31.21,0,0,1-7.07-10.88,40.58,40.58,0,0,1-2.59-15.12,34.25,34.25,0,0,1,2.22-12.32,29.89,29.89,0,0,1,16.44-17.12A33.13,33.13,0,0,1,1603.81,1524.63Zm.38,13.37q-5.57,0-8.69,3.16t-4.13,9.09h24.19a17.36,17.36,0,0,0-.59-4.5,11.12,11.12,0,0,0-1.94-3.91,10,10,0,0,0-3.53-2.78A12.2,12.2,0,0,0,1604.19,1538Z"/><path class="cls-34" d="M1644.06,1590.44v-64.81h12a5.35,5.35,0,0,1,3,.81,4.31,4.31,0,0,1,1.72,2.44l1.12,3.75a47,47,0,0,1,3.88-3.25,22.78,22.78,0,0,1,4.28-2.54,25.63,25.63,0,0,1,10.72-2.21,22.7,22.7,0,0,1,9.41,1.84,19.62,19.62,0,0,1,6.9,5.12,22.13,22.13,0,0,1,4.25,7.82,32.32,32.32,0,0,1,1.44,9.84v41.19h-19.38v-41.19c0-3.17-.73-5.63-2.18-7.41a7.87,7.87,0,0,0-6.44-2.65,13.54,13.54,0,0,0-6,1.37,23.46,23.46,0,0,0-5.38,3.69v46.19Z"/><path class="cls-34" d="M1739.31,1591.44a22.73,22.73,0,0,1-8.16-1.35,15.69,15.69,0,0,1-9.59-9.78,22.89,22.89,0,0,1-1.25-7.81V1539h-5.5a3.51,3.51,0,0,1-3.63-3.81v-7.56l10.32-2,3.81-15.82c.5-2,1.91-3,4.25-3h10.12v18.94h15.75V1539h-15.75v32.19a6.06,6.06,0,0,0,1.1,3.72,3.68,3.68,0,0,0,3.15,1.47,6.4,6.4,0,0,0,1.78-.22,7.92,7.92,0,0,0,1.25-.5c.36-.19.69-.36,1-.5a2.54,2.54,0,0,1,1.1-.22,2.24,2.24,0,0,1,1.4.4,5.13,5.13,0,0,1,1.1,1.29l5.87,9.18A26.7,26.7,0,0,1,1749,1590,33.51,33.51,0,0,1,1739.31,1591.44Z"/></g></svg>