<?xml version="1.0" encoding="utf-8"?>
<!-- Generator: Adobe Illustrator 24.1.0, SVG Export Plug-In . SVG Version: 6.00 Build 0)  -->
<svg version="1.1" id="Layer_1" xmlns="http://www.w3.org/2000/svg" xmlns:xlink="http://www.w3.org/1999/xlink" x="0px" y="0px"
	 viewBox="0 0 6463 1721" style="enable-background:new 0 0 6463 1721;" xml:space="preserve">
<style type="text/css">
	.st0{fill:#F9F9F9;}
	.st1{fill:none;stroke:#3D4451;stroke-width:10;stroke-miterlimit:10;}
	.st2{fill:#FF5254;stroke:#3D4451;stroke-width:10;stroke-miterlimit:10;}
	.st3{fill:#427FE0;stroke:#3D4451;stroke-width:9;stroke-miterlimit:10;}
	.st4{fill:none;stroke:#3D4451;stroke-width:9.7368;stroke-miterlimit:10;}
	.st5{fill:#427FE0;stroke:#3D4451;stroke-width:6.7516;stroke-miterlimit:10;}
	.st6{fill:#FDC345;stroke:#3D4451;stroke-width:6.7516;stroke-miterlimit:10;}
	.st7{fill:#FDC345;stroke:#3D4451;stroke-width:6.4907;stroke-miterlimit:10;}
	.st8{fill:#3D4451;}
	.st9{fill:none;stroke:#3D4451;stroke-width:15.6537;stroke-miterlimit:10;stroke-dasharray:81.4832,48.8899;}
	.st10{fill:none;stroke:#3D4451;stroke-width:15.6537;stroke-miterlimit:10;}
	.st11{fill:none;stroke:#3D4451;stroke-width:15.6537;stroke-miterlimit:10;stroke-dasharray:74.1503,41.7095;}
	.st12{fill:none;stroke:#3D4451;stroke-width:15.6537;stroke-miterlimit:10;stroke-dasharray:75.8986,42.693;}
	.st13{fill:none;stroke:#3D4451;stroke-width:15.6537;stroke-miterlimit:10;stroke-dasharray:71.5014,43.6962;}
	.st14{fill:none;stroke:#3D4451;stroke-width:15.6537;stroke-miterlimit:10;stroke-dasharray:79.0364,48.301;}
	.st15{fill:none;stroke:#3D4451;stroke-width:13.7214;stroke-miterlimit:10;stroke-dasharray:71.4251,42.8551;}
	.st16{fill:none;stroke:#3D4451;stroke-width:11.3352;stroke-miterlimit:10;}
	.st17{fill:none;stroke:#3D4451;stroke-width:12.5942;stroke-miterlimit:9.9997;}
	.st18{fill:none;stroke:#3D4451;stroke-width:8.8162;stroke-miterlimit:10;}
	.st19{fill:#427FE0;stroke:#3D4451;stroke-width:6.0783;stroke-miterlimit:10;}
	.st20{fill:#FF5254;stroke:#3D4451;stroke-width:6.0783;stroke-miterlimit:10;}
	.st21{fill:none;stroke:#3D4451;stroke-width:10.9003;stroke-miterlimit:10;}
	.st22{fill:#427FE0;stroke:#3D4451;stroke-width:7.3859;stroke-miterlimit:10;}
	.st23{fill:none;stroke:#3D4451;stroke-width:6.628;stroke-miterlimit:10;}
	.st24{fill:none;stroke:#3D4451;stroke-width:10.3578;stroke-miterlimit:10;}
	.st25{fill:#427FE0;stroke:#3D4451;stroke-width:7.8884;stroke-miterlimit:10;}
	.st26{fill:#FF5254;stroke:#3D4451;stroke-width:7.8884;stroke-miterlimit:10;}
	.st27{fill:#FF5254;stroke:#3D4451;stroke-width:7.5835;stroke-miterlimit:10;}
	.st28{fill:#FFFFFF;}
	.st29{fill:#FDC345;}
	.st30{fill:none;stroke:#3D4451;stroke-width:7.2009;stroke-miterlimit:10;}
	.st31{fill:none;stroke:#3D4451;stroke-width:12.8332;stroke-linecap:round;stroke-miterlimit:10;}
	.st32{fill:none;stroke:#3D4451;stroke-width:10.5394;stroke-linecap:round;stroke-miterlimit:10;}
	.st33{fill:#427FE0;}
	.st34{fill:#FF5254;}
	.st35{fill:none;stroke:#3D4451;stroke-width:9.4934;stroke-linecap:round;stroke-miterlimit:10;}
	.st36{fill:none;stroke:#3D4451;stroke-width:10.5482;stroke-miterlimit:10;}
	.st37{fill:none;stroke:#3D4451;stroke-width:9.4934;stroke-miterlimit:10;}
	.st38{fill:#F5FAFC;stroke:#3D4451;stroke-width:9.4934;stroke-miterlimit:10;}
	.st39{fill:#FF5254;stroke:#3D4451;stroke-width:6;stroke-miterlimit:10;}
	.st40{fill:none;stroke:#3D4451;stroke-width:8;stroke-linecap:round;stroke-miterlimit:10;}
	.st41{fill:none;stroke:#3D4451;stroke-width:8.9359;stroke-linecap:round;stroke-miterlimit:10;}
	.st42{fill:none;stroke:#427FE0;stroke-width:10.3705;stroke-linecap:round;stroke-miterlimit:10;}
	.st43{fill:none;stroke:#3D4451;stroke-width:8.6405;stroke-linecap:round;stroke-miterlimit:10;}
	.st44{fill:none;stroke:#F04F4C;stroke-width:12.9607;stroke-linecap:round;stroke-miterlimit:10;}
	.st45{fill:none;stroke:#3D4451;stroke-width:6.4804;stroke-linecap:round;stroke-miterlimit:10;}
	.st46{fill:none;stroke:#427FE0;stroke-width:8.6405;stroke-linecap:round;stroke-miterlimit:10;}
	.st47{fill:none;stroke:#FF5254;stroke-width:8.6405;stroke-linecap:round;stroke-miterlimit:10;}
	.st48{fill:none;stroke:#3D4451;stroke-width:9.7201;stroke-linecap:round;stroke-miterlimit:9.9995;}
	.st49{fill:none;stroke:#3D4451;stroke-width:7.9758;stroke-linecap:round;stroke-miterlimit:10;}
	.st50{fill:none;stroke:#3D4451;stroke-width:6.8364;stroke-linecap:round;stroke-miterlimit:10;}
	.st51{fill:none;stroke:#3D4451;stroke-width:5.697;stroke-linecap:round;stroke-miterlimit:10;}
	.st52{fill:none;stroke:#3D4451;stroke-width:4.5576;stroke-linecap:round;stroke-miterlimit:10;}
	.st53{fill:none;stroke:#3D4451;stroke-width:7;stroke-linecap:round;stroke-miterlimit:10;}
	.st54{fill:#427FE0;stroke:#3D4451;stroke-width:4.5501;stroke-miterlimit:10;}
	.st55{fill:#FF5254;stroke:#3D4451;stroke-width:5;stroke-miterlimit:10;}
	.st56{fill:#427FE0;stroke:#3D4451;stroke-width:5;stroke-miterlimit:10;}
	.st57{fill:none;stroke:#3D4451;stroke-width:13.1777;stroke-miterlimit:10;}
	.st58{fill:#427FE0;stroke:#3D4451;stroke-width:12.2887;stroke-miterlimit:10;}
	.st59{fill:none;stroke:#3D4451;stroke-width:9.5452;stroke-miterlimit:10;}
	.st60{fill:none;stroke:#3D4451;stroke-width:11.7135;stroke-miterlimit:10;}
	.st61{fill:none;stroke:#3D4451;stroke-width:9.2592;stroke-miterlimit:10;}
	.st62{fill:none;stroke:#3D4451;stroke-width:8.4328;stroke-miterlimit:10;}
	.st63{fill:none;stroke:#3D4451;stroke-width:10.1489;stroke-miterlimit:10;}
	.st64{fill:none;stroke:#3D4451;stroke-width:8.977;stroke-miterlimit:10;}
	.st65{fill:#FF5254;stroke:#3D4451;stroke-width:10.1616;stroke-miterlimit:10;}
	.st66{fill:#FDC345;stroke:#3D4451;stroke-width:9.1475;stroke-miterlimit:10;}
	.st67{fill:#427FE0;stroke:#3D4451;stroke-width:9.1303;stroke-miterlimit:10;}
	.st68{fill:#427FE0;stroke:#3D4451;stroke-width:8.2335;stroke-miterlimit:10;}
	.st69{fill:#427FE0;stroke:#3D4451;stroke-width:9.4106;stroke-miterlimit:10;}
	.st70{fill:none;stroke:#3D4451;stroke-width:9.4106;stroke-linecap:round;stroke-linejoin:round;stroke-miterlimit:10;}
	.st71{fill:none;stroke:#3D4451;stroke-width:10.9471;stroke-linecap:round;stroke-linejoin:round;stroke-miterlimit:10;}
	.st72{fill:none;stroke:#3D4451;stroke-width:6.3466;stroke-linecap:round;stroke-linejoin:round;stroke-miterlimit:10;}
	.st73{fill:#FF5254;stroke:#3D4451;stroke-width:6.6809;stroke-miterlimit:10;}
	.st74{fill:#427FE0;stroke:#3D4451;stroke-width:14;stroke-miterlimit:10;}
	.st75{fill:none;}
	.st76{enable-background:new    ;}
</style>
<g id="bg">
</g>
<g id="icon">
	<g>
		<path class="st0" d="M2394.9,1225c0,22.1-13.3,41.4-30.4,41.4h-181.1c-17.1,0-31.6-19.3-31.6-41.4V932.7c0-22.1,14.5-39,31.6-39
			h181.1c17.1,0,30.4,16.9,30.4,39V1225z"/>
		<path class="st1" d="M2363.3,1193.9c0,21.9-13.4,41.1-30.6,41.1h-181.9c-17.2,0-31.8-19.1-31.8-41.1V904
			c0-21.9,14.6-38.7,31.8-38.7h181.9c17.2,0,30.6,16.8,30.6,38.7V1193.9z"/>
		<path class="st2" d="M2261.6,1179.9c0,11.2-10,20.2-22.4,20.2s-22.4-9-22.4-20.2s10-20.2,22.4-20.2
			C2251.6,1159.7,2261.6,1168.7,2261.6,1179.9z"/>
		<line class="st1" x1="2167.7" y1="865.3" x2="2167.7" y2="1235"/>
		<line class="st1" x1="2307.9" y1="865.3" x2="2307.9" y2="1235"/>
		<rect x="2170" y="1094.8" class="st3" width="137.9" height="29.8"/>
		<rect x="2170" y="1033.1" class="st3" width="137.9" height="29.8"/>
		<rect x="2170" y="967.2" class="st3" width="137.9" height="29.8"/>
		<rect x="2170" y="906.6" class="st3" width="137.9" height="29.8"/>
		<line class="st4" x1="2432.3" y1="943.5" x2="2369" y2="943.5"/>
		<line class="st4" x1="2426.6" y1="1187.9" x2="2363.3" y2="1187.9"/>
		<line class="st4" x1="2432.3" y1="1068.9" x2="2369" y2="1068.9"/>
		<path class="st5" d="M2552.6,1181.3v27.7c0,10.8-27.6,19.5-61.6,19.5s-61.6-8.7-61.6-19.5v-27.7"/>
		<ellipse class="st5" cx="2491" cy="1180" rx="61.6" ry="19.5"/>
		<path class="st6" d="M2550.6,1053.5v27.7c0,10.8-27.6,19.5-61.6,19.5s-61.6-8.7-61.6-19.5v-27.7"/>
		<ellipse class="st7" cx="2489" cy="1053.7" rx="61.6" ry="18"/>
		<path class="st5" d="M2550.6,929.3V957c0,10.8-27.6,19.5-61.6,19.5s-61.6-8.7-61.6-19.5v-27.7"/>
		<ellipse class="st5" cx="2489" cy="928" rx="61.6" ry="19.5"/>
		<path class="st8" d="M2483.8,926c-2.3,0-4.5-1.1-6-2.7l-29.4-29.2c-3-2.9-2.7-7.5,0.6-10.1s8.4-2.4,11.3,0.5l23,22.7l47.9-53.8
			c2.7-3.1,7.8-3.6,11.3-1.2c3.5,2.4,4.1,6.8,1.4,9.9l-53.8,60.8c-1.5,1.7-3.7,3-6.1,3C2483.9,926,2483.9,926,2483.8,926z"/>
		<path class="st8" d="M2487.3,1056.5c-2.3,0-4.5-1.1-6-2.7l-29.4-29.2c-3-2.9-2.7-7.5,0.6-10.1s8.4-2.4,11.3,0.5l23,22.7l47.9-53.8
			c2.7-3.1,7.8-3.6,11.3-1.2c3.5,2.4,4.1,6.8,1.4,9.9l-53.8,60.8c-1.5,1.7-3.7,3-6.1,3C2487.4,1056.5,2487.4,1056.5,2487.3,1056.5z"
			/>
		<path class="st8" d="M2488.8,1181c-2.3,0-4.5-1.1-6-2.7l-29.4-29.2c-3-2.9-2.7-7.5,0.6-10.1s8.4-2.4,11.3,0.5l23,22.7l47.9-53.8
			c2.7-3.1,7.8-3.6,11.3-1.2s4.1,6.8,1.4,9.9l-53.8,60.8c-1.5,1.7-3.7,3-6.1,3C2488.9,1181,2488.9,1181,2488.8,1181z"/>
	</g>
	<line class="st9" x1="2282" y1="789.3" x2="2282" y2="536.4"/>
	<g>
		<g>
			<g>
				<line class="st10" x1="456" y1="789.3" x2="456" y2="749.3"/>
				<line class="st11" x1="456" y1="707.6" x2="456" y2="380.9"/>
				<polyline class="st10" points="456,360 456,320 496,320 				"/>
				<line class="st12" x1="538.7" y1="320" x2="1584.7" y2="320"/>
				<line class="st10" x1="2195" y1="320" x2="2235" y2="320"/>
			</g>
		</g>
	</g>
	<g>
		<g>
			<g>
				<line class="st10" x1="6149" y1="789.3" x2="6149" y2="749.3"/>
				<line class="st13" x1="6149" y1="705.6" x2="6149" y2="381.8"/>
				<polyline class="st10" points="6149,360 6149,320 6109,320 				"/>
				<line class="st14" x1="6060.7" y1="320" x2="5066.2" y2="320"/>
				<line class="st10" x1="5042" y1="320" x2="5002" y2="320"/>
				<line class="st14" x1="5420.7" y1="320" x2="4426.2" y2="320"/>
			</g>
		</g>
	</g>
	<line class="st15" x1="3337.2" y1="760.7" x2="3337.2" y2="566.4"/>
	<line class="st15" x1="4347.5" y1="760.7" x2="4347.5" y2="566.4"/>
	<line class="st15" x1="5235.6" y1="760.7" x2="5235.6" y2="348"/>
	<line class="st9" x1="1381" y1="789.3" x2="1381" y2="320"/>
	<g>
		<g>
			<g>
				<line class="st16" x1="281.2" y1="1150" x2="281.2" y2="987.7"/>
				<line class="st16" x1="431.2" y1="1255.4" x2="301.6" y2="1181"/>
				<line class="st16" x1="610.1" y1="1181.1" x2="474.4" y2="1257.2"/>
				<line class="st16" x1="631.6" y1="994" x2="631.6" y2="1150.4"/>
				<line class="st16" x1="478.4" y1="876.6" x2="616.3" y2="956"/>
				<line class="st16" x1="299.7" y1="952.2" x2="436.8" y2="875"/>
			</g>
			<g>
				<ellipse class="st0" cx="476.8" cy="1078" rx="103.7" ry="103.7"/>
				<ellipse class="st17" cx="456.9" cy="1063.2" rx="106.5" ry="106.5"/>
			</g>
			<line class="st18" x1="558" y1="1010.8" x2="614.3" y2="975.6"/>
			<line class="st18" x1="305.8" y1="1161" x2="362.6" y2="1126.3"/>
			<line class="st18" x1="549.6" y1="1118" x2="614.3" y2="1162.2"/>
			<line class="st18" x1="305.8" y1="973.1" x2="358.3" y2="1004.5"/>
		</g>
		<g>
			<g>
				<path class="st8" d="M386,1007.5h-0.1l-7.3,3.5l-1.5-6.7l10.1-4.7h7.4v38.2H386V1007.5z"/>
				<path class="st8" d="M435.4,1018.5c0,11.8-4.8,19.9-14.5,19.9c-9.9,0-14.2-8.9-14.3-19.7c0-11,4.7-19.8,14.6-19.8
					C431.4,998.9,435.4,1008,435.4,1018.5z M415.6,1018.7c-0.1,8.8,2.1,12.9,5.5,12.9c3.5,0,5.3-4.3,5.3-13c0-8.5-1.8-12.9-5.4-12.9
					C417.8,1005.7,415.6,1009.8,415.6,1018.7z"/>
				<path class="st8" d="M451.2,1007.5h-0.1l-7.3,3.5l-1.5-6.7l10.1-4.7h7.4v38.2h-8.6V1007.5z"/>
				<path class="st8" d="M483.8,1007.5h-0.1l-7.3,3.5l-1.5-6.7l10.1-4.7h7.4v38.2h-8.6V1007.5z"/>
				<path class="st8" d="M533.3,1018.5c0,11.8-4.8,19.9-14.5,19.9c-9.9,0-14.2-8.9-14.3-19.7c0-11,4.7-19.8,14.6-19.8
					C529.3,998.9,533.3,1008,533.3,1018.5z M513.5,1018.7c-0.1,8.8,2.1,12.9,5.5,12.9c3.5,0,5.3-4.3,5.3-13c0-8.5-1.8-12.9-5.4-12.9
					C515.6,1005.7,513.4,1009.8,513.5,1018.7z"/>
				<path class="st8" d="M390.2,1067.1c0,11.8-4.8,19.9-14.5,19.9c-9.9,0-14.2-8.9-14.3-19.7c0-11,4.7-19.8,14.6-19.8
					C386.2,1047.5,390.2,1056.6,390.2,1067.1z M370.4,1067.3c-0.1,8.8,2.1,12.9,5.5,12.9s5.3-4.3,5.3-13c0-8.5-1.8-12.9-5.4-12.9
					C372.5,1054.3,370.3,1058.5,370.4,1067.3z"/>
				<path class="st8" d="M406,1056.1h-0.1l-7.3,3.5l-1.5-6.7l10.1-4.7h7.4v38.2H406V1056.1z"/>
				<path class="st8" d="M455.4,1067.1c0,11.8-4.8,19.9-14.5,19.9c-9.9,0-14.2-8.9-14.3-19.7c0-11,4.7-19.8,14.6-19.8
					C451.4,1047.5,455.4,1056.6,455.4,1067.1z M435.6,1067.3c-0.1,8.8,2.1,12.9,5.5,12.9s5.3-4.3,5.3-13c0-8.5-1.8-12.9-5.4-12.9
					C437.7,1054.3,435.5,1058.5,435.6,1067.3z"/>
				<path class="st8" d="M471.2,1056.1h-0.1l-7.3,3.5l-1.5-6.7l10.1-4.7h7.4v38.2h-8.6V1056.1z"/>
				<path class="st8" d="M503.8,1056.1h-0.1l-7.3,3.5l-1.5-6.7l10.1-4.7h7.4v38.2h-8.6L503.8,1056.1L503.8,1056.1z"/>
				<path class="st8" d="M553.2,1067.1c0,11.8-4.8,19.9-14.5,19.9c-9.9,0-14.2-8.9-14.3-19.7c0-11,4.7-19.8,14.6-19.8
					C549.2,1047.5,553.2,1056.6,553.2,1067.1z M533.4,1067.3c-0.1,8.8,2.1,12.9,5.5,12.9s5.3-4.3,5.3-13c0-8.5-1.8-12.9-5.4-12.9
					C535.6,1054.3,533.3,1058.5,533.4,1067.3z"/>
				<path class="st8" d="M418.3,1115.7c0,11.8-4.8,19.9-14.5,19.9c-9.9,0-14.2-8.9-14.3-19.7c0-11,4.7-19.8,14.6-19.8
					C414.3,1096.2,418.3,1105.3,418.3,1115.7z M398.5,1116c-0.1,8.8,2.1,12.9,5.5,12.9c3.5,0,5.3-4.3,5.3-13
					c0-8.5-1.8-12.9-5.4-12.9C400.6,1102.9,398.4,1107.1,398.5,1116z"/>
				<path class="st8" d="M434.1,1104.7H434l-7.3,3.5l-1.5-6.7l10.1-4.7h7.4v38.2h-8.6V1104.7z"/>
				<path class="st8" d="M483.5,1115.7c0,11.8-4.8,19.9-14.5,19.9c-9.9,0-14.2-8.9-14.3-19.7c0-11,4.7-19.8,14.6-19.8
					C479.5,1096.2,483.5,1105.3,483.5,1115.7z M463.7,1116c-0.1,8.8,2.1,12.9,5.5,12.9s5.3-4.3,5.3-13c0-8.5-1.8-12.9-5.4-12.9
					C465.8,1102.9,463.6,1107.1,463.7,1116z"/>
				<path class="st8" d="M516.1,1115.7c0,11.8-4.8,19.9-14.5,19.9c-9.9,0-14.2-8.9-14.3-19.7c0-11,4.7-19.8,14.6-19.8
					C512.1,1096.2,516.1,1105.3,516.1,1115.7z M496.3,1116c-0.1,8.8,2.1,12.9,5.5,12.9s5.3-4.3,5.3-13c0-8.5-1.8-12.9-5.4-12.9
					C498.5,1102.9,496.2,1107.1,496.3,1116z"/>
			</g>
		</g>
		<g>
			<path class="st19" d="M591.7,1160.7v20.4c0,7.9,21.1,14.4,47.1,14.4s47.1-6.4,47.1-14.4v-20.4"/>
			<ellipse class="st19" cx="638.9" cy="1159.7" rx="47.1" ry="14.4"/>
		</g>
		<g>
			<path class="st20" d="M591.7,960.1v20.4c0,7.9,21.1,14.4,47.1,14.4s47.1-6.4,47.1-14.4v-20.4"/>
			<ellipse class="st20" cx="638.9" cy="960.2" rx="47.1" ry="13.3"/>
		</g>
		<g>
			<path class="st19" d="M226,1158.6v20.4c0,7.9,21.1,14.4,47.1,14.4s47.1-6.4,47.1-14.4v-20.4"/>
			<ellipse class="st19" cx="273.1" cy="1157.7" rx="47.1" ry="14.4"/>
		</g>
		<g>
			<path class="st20" d="M226,958.1v20.4c0,7.9,21.1,14.4,47.1,14.4s47.1-6.4,47.1-14.4v-20.4"/>
			<ellipse class="st20" cx="273.1" cy="958.2" rx="47.1" ry="13.3"/>
		</g>
		<g>
			<path class="st19" d="M411.4,856.8v20.4c0,7.9,21.1,14.4,47.1,14.4s47.1-6.4,47.1-14.4v-20.4"/>
			<ellipse class="st19" cx="458.5" cy="855.8" rx="47.1" ry="14.4"/>
		</g>
		<g>
			<path class="st20" d="M411.4,1247.8v20.4c0,7.9,21.1,14.4,47.1,14.4s47.1-6.4,47.1-14.4v-20.4"/>
			<ellipse class="st20" cx="458.5" cy="1246.8" rx="47.1" ry="14.4"/>
		</g>
	</g>
	<g>
		<path class="st0" d="M1546.1,1252.4c0,0.4-0.3,0.8-0.8,0.8h-386.2c-0.4,0-0.8-0.4-0.8-0.8V988.8c0-0.4,0.3-0.8,0.8-0.8h386.2
			c0.4,0,0.8,0.4,0.8,0.8L1546.1,1252.4L1546.1,1252.4z"/>
		<g>
			<g>
				<path class="st21" d="M1538.7,1216.6c0,0.9-0.7,1.6-1.6,1.6h-398.7c-0.9,0-1.6-0.7-1.6-1.6v-261c0-0.9,0.7-1.6,1.6-1.6h398.7
					c0.9,0,1.6,0.7,1.6,1.6L1538.7,1216.6L1538.7,1216.6z"/>
				<g>
					<g>
						<g>
							<path class="st22" d="M1212.6,1056.9c23.7,17.8,50.3-8.8,32.5-32.5c-0.1-0.1-0.2-0.2-0.3-0.3c-23.7-17.8-50.3,8.8-32.5,32.5
								C1212.4,1056.7,1212.5,1056.8,1212.6,1056.9z"/>
							<path class="st22" d="M1269.2,1110.5c-0.1-22.5-17.7-45.3-39.3-45.3c-21.6,0-39.2,22.8-39.3,45.3H1269.2z"/>
						</g>
					</g>
				</g>
				<rect x="1167.7" y="998.7" class="st23" width="128.1" height="127.6"/>
			</g>
			<g>
				<path class="st8" d="M1367.6,1167.1c0,3.4-2.5,5.8-5.8,5.8H1323c-3.4,0-5.5-2.4-5.5-5.8v-0.3c0-3.4,2.1-5.9,5.5-5.9h38.8
					c3.4,0,5.8,2.5,5.8,5.9L1367.6,1167.1L1367.6,1167.1z"/>
				<path class="st8" d="M1366.8,1116c0,3.4-2.4,6.2-5.8,6.2h-38.8c-3.4,0-5.5-2.8-5.5-6.2v-0.3c0-3.4,2.1-6.4,5.5-6.4h38.8
					c3.4,0,5.8,3,5.8,6.4V1116z"/>
				<path class="st8" d="M1365.9,1062.7c0,3.4-2.3,5.6-5.7,5.6h-38.8c-3.4,0-5.6-2.2-5.6-5.6v-0.3c0-3.4,2.2-6.1,5.6-6.1h38.8
					c3.4,0,5.7,2.7,5.7,6.1V1062.7z"/>
				<path class="st8" d="M1365,1006.3c0,3.4-2.3,5.9-5.7,5.9h-38.8c-3.4,0-6.5-2.5-6.5-5.9v-0.3c0-3.4,3.1-5.8,6.5-5.8h38.8
					c3.4,0,5.7,2.4,5.7,5.8V1006.3z"/>
				<rect x="1396.7" y="1040.3" class="st8" width="92.7" height="12.6"/>
				<rect x="1396.7" y="1087.7" class="st8" width="92.7" height="12.6"/>
				<rect x="1396.7" y="1135.1" class="st8" width="92.7" height="12.6"/>
			</g>
			<line class="st24" x1="1341.9" y1="949.9" x2="1341.9" y2="1218.2"/>
		</g>
		<path class="st25" d="M1600,1191.6v32.4c0,12.6-32.2,22.8-72,22.8s-72-10.2-72-22.8v-32.4"/>
		<ellipse class="st25" cx="1528" cy="1190.1" rx="72" ry="22.8"/>
		<path class="st26" d="M1600,1138.6v32.4c0,12.6-32.2,22.8-72,22.8s-72-10.2-72-22.8v-32.4"/>
		<ellipse class="st27" cx="1528" cy="1138.8" rx="72" ry="21.1"/>
		<path class="st25" d="M1600,1085.6v32.4c0,12.6-32.2,22.8-72,22.8s-72-10.2-72-22.8v-32.4"/>
		<ellipse class="st25" cx="1528" cy="1084" rx="72" ry="22.8"/>
		<g>
			<g>
				<g>
					<g>
						<path class="st28" d="M1532.5,900.7c-68.9-0.5-104.6,78.3-64.6,122c26.9,29.4,18.2,55.6,18.2,55.6h82.7
							c-9.7-30.9,6.3-40,11.2-48C1632.6,972.7,1596.8,901.1,1532.5,900.7z"/>
					</g>
					<g>
						<path class="st29" d="M1560.6,1031.2c-4.3,5.3-20.5,13.7-14.3,38.4h-44.1c0,0,3.4-20.9-13.9-44.4
							c-17.2-23.3-15.9-60.8,4.4-81.8c9.8-10.1,23.3-16.1,37.2-15.7c8.8,0.2,17.4,2.6,25.1,7.1c12.2,7,21,20,23.7,34
							c2.9,15.5,0.5,32-6.2,46.2c-2.6,5.5-8.1,11.7-11.8,16.5"/>
					</g>
					<g>
						<path class="st30" d="M1532.5,900.7c-76.1,0-104.6,78.3-64.6,122c26.9,29.4,18.2,55.6,18.2,55.6h82.7
							c-9.7-30.9,6.3-40,11.2-48C1632.6,972.7,1584.6,900.7,1532.5,900.7z"/>
					</g>
				</g>
			</g>
			<g>
				<g>
					<path class="st8" d="M1511.2,1076.5c0-19.1,0.2-38.3-0.3-57.4c-0.2-7.2,0.9-16.7-2.2-23.5c-2.4-5.3-8.5-8.7-14.2-6.5
						c-11.8,4.5-2.7,20.6,4.8,24.3c11,5.4,25.4,2.5,32.9-7.3c3.2-4.3,5.5-9.8,5.2-15.2c-0.3-5.8-5-9.6-10.9-8.3
						c-12.3,2.8-15.4,17.9-7.1,26.5c8.2,8.5,22.4,10,33.1,5.9c8.8-3.3,20.3-14.1,9.3-22.6c-5.6-4.3-13.5-3.6-18.7,1
						c-5.9,5.1-6.8,12.5-6.9,19.9c-0.2,21.7,1.1,43.3,2,64.9c0.2,4.1,6.6,4.1,6.4,0c-1-22.6-3.1-45.5-2-68.2
						c0.2-4.7,1.2-9.3,5.1-12.3c3.7-2.8,14.1-2.2,11.6,4.5c-2.4,6.5-14,8.6-19.8,8.4c-7-0.3-17.9-3.9-18.7-12.3
						c-0.3-3.7,5-12.6,9-8.7c2.8,2.8-0.4,8.9-2.3,11.7c-5.1,7.3-14.3,9.5-22.7,7.1c-4.1-1.1-7.4-3.7-8.8-7.8c-0.5-1.4-1-3.5-0.2-4.9
						c2.6-4.1,6.9,1.4,7.6,4c1.3,5.3,0.8,11.6,1,17.1c0.2,6.6,0.3,13.2,0.4,19.8c0.1,13.2,0,26.4,0,39.6
						C1504.8,1080.6,1511.2,1080.7,1511.2,1076.5L1511.2,1076.5z"/>
				</g>
			</g>
		</g>
		<line class="st31" x1="1526" y1="879.1" x2="1525" y2="822.3"/>
		<line class="st31" x1="1594" y1="903.6" x2="1631.1" y2="875.4"/>
		<line class="st31" x1="1460.1" y1="903.5" x2="1423.1" y2="875.3"/>
		<line class="st32" x1="1435.3" y1="979.9" x2="1388.2" y2="979.2"/>
		<line class="st31" x1="1622.8" y1="973" x2="1668.6" y2="972.8"/>
		<path class="st8" d="M1173.2,1162.8L1173.2,1162.8l-6.5,3.1l-1.3-5.9l8.9-4.1h6.5v33.7h-7.6V1162.8z"/>
		<path class="st8" d="M1216.8,1172.5c0,10.4-4.2,17.6-12.8,17.6c-8.7,0-12.5-7.8-12.6-17.4c0-9.7,4.1-17.5,12.8-17.5
			C1213.3,1155.2,1216.8,1163.3,1216.8,1172.5z M1199.3,1172.7c-0.1,7.7,1.8,11.4,4.9,11.4s4.7-3.8,4.7-11.5
			c0-7.5-1.6-11.4-4.8-11.4C1201.2,1161.2,1199.3,1164.9,1199.3,1172.7z"/>
		<path class="st8" d="M1230.7,1162.8L1230.7,1162.8l-6.5,3.1l-1.3-5.9l8.9-4.1h6.5v33.7h-7.6V1162.8z"/>
		<path class="st8" d="M1259.4,1162.8L1259.4,1162.8l-6.5,3.1l-1.3-5.9l8.9-4.1h6.5v33.7h-7.6V1162.8z"/>
		<path class="st8" d="M1303,1172.5c0,10.4-4.2,17.6-12.8,17.6c-8.7,0-12.5-7.8-12.6-17.4c0-9.7,4.1-17.5,12.8-17.5
			C1299.5,1155.2,1303,1163.3,1303,1172.5z M1285.5,1172.7c-0.1,7.7,1.8,11.4,4.9,11.4s4.7-3.8,4.7-11.5c0-7.5-1.6-11.4-4.8-11.4
			C1287.5,1161.2,1285.5,1164.9,1285.5,1172.7z"/>
	</g>
	<g>
		<g>
			<rect x="4109.5" y="1186.7" class="st33" width="85.2" height="82"/>
			<rect x="4402.7" y="1190" class="st33" width="85.2" height="82"/>
			<rect x="4255.6" y="1186.7" class="st34" width="85.2" height="82"/>
			<g>
				<g>
					<path class="st0" d="M4266.6,859.3v254.4h196.9V859.3H4266.6z"/>
					<path class="st35" d="M4230.1,890.3h-33.6c-4.6,0-8.4,3.8-8.4,8.4v219.9c0,4.6,3.8,8.4,8.4,8.4h176.7c4.6,0,8.4-3.8,8.4-8.4
						v-29.2"/>
					<path class="st36" d="M4243.4,830.5V1065c0,5.5,4.5,10,10,10h177c5.5,0,10-4.5,10-10V830.5c0-5.5-4.5-10-10-10h-177
						C4247.9,820.6,4243.4,825,4243.4,830.5z"/>
				</g>
				<path class="st8" d="M4359.7,890.6h-77.3c-3.8,0-6.9-3.1-6.9-6.9v-0.5c0-3.8,3.1-6.9,6.9-6.9h77.3c3.8,0,6.9,3.1,6.9,6.9v0.5
					C4366.7,887.5,4363.6,890.6,4359.7,890.6z"/>
				<path class="st8" d="M4403.2,925.9h-120.6c-4,0-7.2-3.2-7.2-7.2l0,0c0-4,3.2-7.2,7.2-7.2h120.6c4,0,7.2,3.2,7.2,7.2l0,0
					C4410.4,922.7,4407.2,925.9,4403.2,925.9z"/>
				<rect x="4375.9" y="843.6" class="st8" width="38" height="46.2"/>
			</g>
			<g>
				<g>
					<rect x="4380.1" y="1163.8" class="st37" width="93" height="93"/>
					<rect x="4237.6" y="1163.8" class="st37" width="93" height="93"/>
					<rect x="4095.2" y="1163.8" class="st37" width="93" height="93"/>
					<line class="st37" x1="4188.2" y1="1213" x2="4240.4" y2="1213"/>
					<line class="st37" x1="4327.9" y1="1213" x2="4380.1" y2="1213"/>
				</g>
				<polyline class="st38" points="4133.8,1158 4133.8,1090.5 4183.6,1090.5 				"/>
				<polyline class="st37" points="4477.8,1209.9 4511,1209.9 4511,995.3 4442.4,995.3 				"/>
			</g>
		</g>
		<path class="st8" d="M4341.8,954.3c-10.5,0-20.7,3.4-29,9.6l-7.5-12.6l-3.8,20.8l-3.8,20.8l20-6.9l20-6.9l-16.1-7.1
			c5.9-3.9,13-6.1,20.3-6.1c19.8,0,35.9,15.6,35.9,34.8s-16.1,34.8-35.9,34.8c-13.5,0-25.7-7.2-31.9-18.8c-2.5-4.6-3.8-9.5-4-14.7
			l-11.7,0.4c0.3,7,2.1,13.7,5.4,19.8c8.3,15.4,24.4,25,42.2,25c26.3,0,47.6-20.8,47.6-46.5C4389.4,975.2,4368,954.3,4341.8,954.3z"
			/>
	</g>
	<g>
		<path class="st0" d="M3223.6,1160.8l-25.4,64.4c-3,7.6-0.3,16.3,6.6,20.7c23.8,15.3,92,40.7,262.1,5.1
			c10.2-2.1,16.2-12.8,12.6-22.6l-24.1-66.5c-1.9-5.4-6.4-9.4-12-10.8c-29.3-7.3-125.5-27.4-209.2-0.2
			C3229.3,1152.4,3225.5,1156.1,3223.6,1160.8z"/>
		
			<ellipse transform="matrix(0.7071 -0.7071 0.7071 0.7071 305.4343 2652.4365)" class="st33" cx="3354.5" cy="957.5" rx="85.3" ry="85.3"/>
		<g>
			<path class="st39" d="M3370.2,1176.8v16.1c0,6.3-16,11.3-35.7,11.3s-35.7-5.1-35.7-11.3v-16.1"/>
			<ellipse class="st39" cx="3334.5" cy="1176.1" rx="35.7" ry="11.3"/>
		</g>
		<ellipse class="st40" cx="3338.1" cy="1153.8" rx="140" ry="28.9"/>
		<ellipse class="st41" cx="3336.2" cy="1249.2" rx="172.9" ry="32.3"/>
		<line class="st41" x1="3198.1" y1="1150.4" x2="3163.1" y2="1247.4"/>
		<line class="st41" x1="3478.1" y1="1150.4" x2="3509.3" y2="1247.4"/>
		<line class="st42" x1="3247.9" y1="1023.2" x2="3247.9" y2="1103"/>
		<line class="st43" x1="3465.1" y1="890" x2="3465.1" y2="993"/>
		<line class="st44" x1="3202" y1="914.4" x2="3202" y2="1017.3"/>
		<line class="st45" x1="3243.8" y1="771.8" x2="3243.8" y2="861.6"/>
		<line class="st46" x1="3418" y1="753" x2="3418" y2="831.4"/>
		<line class="st47" x1="3426.3" y1="1024.1" x2="3426.2" y2="1109"/>
		<g>
			<ellipse class="st48" cx="3336.5" cy="939.3" rx="97.3" ry="97.3"/>
			<path class="st49" d="M3310.6,845.1"/>
			<path class="st49" d="M3281.7,1021.3"/>
			<path class="st49" d="M3281.7,859.2"/>
			<path class="st49" d="M3336.5,845.1"/>
			<path class="st50" d="M3301.5,908.7c-8,35.8-8.3,80.5,23.5,126"/>
			<path class="st49" d="M3301.5,908.7"/>
			<path class="st49" d="M3313.2,872.6"/>
			<path class="st49" d="M3327.7,845.1c0,0-7.2,10.4-14.5,27.6"/>
			<path class="st51" d="M3317.2,845.1c0,0-122.9,85.2-9,185"/>
			<path class="st49" d="M3331,840.8c0,0,81.4,105.5,7.9,196.4"/>
			<path class="st51" d="M3349.5,845.1c0,0,124.6,92.2,11.6,187"/>
			<path class="st51" d="M3281.7,859.2c0,0,57,19.6,104.8-3.6"/>
			<path class="st51" d="M3426.5,902.3c0,0-64.1,38.3-183.2,3.8"/>
			<path class="st51" d="M3408.5,963.7c8.4-2.7,16.8-6,25.4-9.9"/>
			<path class="st50" d="M3271.7,965.8c26.4,7.3,66.5,13.6,112.1,4.4"/>
			<path class="st51" d="M3239,953.8c0,0,5.9,3,16.4,6.8"/>
			<path class="st52" d="M3252.3,992.7c0,0,93.9,51,165.4,0"/>
		</g>
		<ellipse class="st53" cx="3336.2" cy="1249.2" rx="172.9" ry="32.3"/>
		<path class="st54" d="M3378.7,1234.5v17.8c0,6.9-19.5,12.5-43.6,12.5s-43.6-5.6-43.6-12.5v-17.8"/>
		<ellipse class="st54" cx="3335" cy="1233.7" rx="43.6" ry="12.5"/>
		<path class="st55" d="M3361.5,1074.2v12.4c0,4.8-12.3,8.7-27.5,8.7s-27.5-3.9-27.5-8.7v-12.4"/>
		<ellipse class="st55" cx="3334" cy="1074.3" rx="27.5" ry="8.1"/>
		<path class="st56" d="M3366.8,1130.6v14.4c0,5.6-14.4,10.2-32.1,10.2s-32.1-4.6-32.1-10.2v-14.4"/>
		<ellipse class="st56" cx="3334.6" cy="1129.9" rx="32.1" ry="10.2"/>
	</g>
	<g>
		<g>
			<path class="st0" d="M5319,1065.4c0,30-23.5,54.3-52.4,54.3c-29,0-52.4-24.3-52.4-54.3s23.5-54.3,52.4-54.3
				C5295.5,1011.1,5319,1035.4,5319,1065.4z"/>
			<path class="st57" d="M5323.7,1061.5c0,37-29,67-64.7,67s-64.7-30-64.7-67s29-67,64.7-67S5323.7,1024.5,5323.7,1061.5z"/>
			<path class="st58" d="M5283,1253.7c0,16.6-13,30.1-29.1,30.1c-16,0-29.1-13.5-29.1-30.1s13-30.1,29.1-30.1
				S5283,1237.1,5283,1253.7z"/>
			<path class="st8" d="M5289.3,1061.5c0,17.4-13.6,31.4-30.4,31.4s-30.3-14.1-30.3-31.4c0-17.4,13.6-31.4,30.3-31.4
				C5275.8,1030.1,5289.3,1044.2,5289.3,1061.5z"/>
			<line class="st59" x1="5311.4" y1="1021.7" x2="5390.2" y2="970.1"/>
			<line class="st60" x1="5418.1" y1="1163.6" x2="5307.1" y2="1108.1"/>
			<line class="st59" x1="5202" y1="1029.8" x2="5088.4" y2="979.3"/>
			<line class="st60" x1="5217.3" y1="1109.5" x2="5106.9" y2="1178.6"/>
			<line class="st61" x1="5259" y1="1128.6" x2="5258" y2="1218.5"/>
			<line class="st60" x1="5246.6" y1="904.3" x2="5254.5" y2="996.1"/>
			<line class="st62" x1="5077" y1="1113.6" x2="5084" y2="1000"/>
			<line class="st62" x1="5099.9" y1="957.2" x2="5197.7" y2="888.3"/>
			<line class="st63" x1="5250.6" y1="876.4" x2="5394.2" y2="934.2"/>
			<line class="st63" x1="5430.1" y1="990.1" x2="5447.1" y2="1094.8"/>
			<line class="st63" x1="5108.9" y1="1207.5" x2="5221.6" y2="1244.4"/>
			<line class="st63" x1="5283.3" y1="1253.3" x2="5403.2" y2="1203.5"/>
			<g>
				<g>
					<g>
						<g>
							<path class="st8" d="M5082.9,1165.6c12.4,0.7,22.6-10,22-23.1c-0.5-11.1-9.2-20.2-19.8-20.8c-12.4-0.7-22.6,10-22,23.1
								C5063.6,1156,5072.3,1165,5082.9,1165.6z"/>
							<path class="st8" d="M5119.5,1226.5c4.7,0,8.1-4.9,7.2-10.2c-3.9-22.5-19.8-42.6-38.8-42.6s-34.9,20.1-38.8,42.6
								c-0.9,5.3,2.6,10.2,7.2,10.2H5119.5z"/>
						</g>
					</g>
				</g>
				<g>
					<g>
						<path class="st64" d="M5076.9,1166c16,0.8,29.1-12.3,28.3-28.3c-0.7-13.7-11.8-24.8-25.5-25.5c-16-0.8-29.1,12.3-28.3,28.3
							C5052.2,1154.2,5063.3,1165.3,5076.9,1166z"/>
						<path class="st64" d="M5117.6,1224c5.6,0,9.8-5.1,8.7-10.6c-4.7-23.3-23.7-44.2-46.5-44.2s-41.9,20.9-46.5,44.2
							c-1.1,5.5,3.1,10.6,8.7,10.6H5117.6z"/>
					</g>
				</g>
			</g>
			<g>
				<g>
					<g>
						<g>
							<path class="st8" d="M5448,1148.6c12.4,0.7,22.6-10,22-23.1c-0.5-11.1-9.2-20.2-19.8-20.8c-12.4-0.7-22.6,10-22,23.1
								C5428.7,1139,5437.3,1148.1,5448,1148.6z"/>
							<path class="st8" d="M5484.6,1209.5c4.7,0,8.1-4.9,7.2-10.2c-3.9-22.5-19.8-42.6-38.8-42.6s-34.9,20.1-38.8,42.6
								c-0.9,5.3,2.6,10.2,7.2,10.2H5484.6z"/>
						</g>
					</g>
				</g>
				<g>
					<g>
						<path class="st64" d="M5442,1149c16,0.8,29.1-12.3,28.3-28.3c-0.7-13.7-11.8-24.8-25.5-25.5c-16-0.8-29.1,12.3-28.3,28.3
							C5417.2,1137.3,5428.3,1148.4,5442,1149z"/>
						<path class="st64" d="M5482.7,1207c5.6,0,9.8-5.1,8.7-10.6c-4.7-23.3-23.7-44.2-46.5-44.2s-41.9,20.9-46.5,44.2
							c-1.1,5.5,3.1,10.6,8.7,10.6H5482.7z"/>
					</g>
				</g>
			</g>
			<g>
				<g>
					<g>
						<g>
							<path class="st8" d="M5245.5,844.4c12.4,0.7,22.6-10,22-23.1c-0.5-11.1-9.2-20.2-19.8-20.8c-12.4-0.7-22.6,10-22,23.1
								C5226.2,834.8,5234.8,843.9,5245.5,844.4z"/>
							<path class="st8" d="M5282.1,905.3c4.7,0,8.1-4.9,7.2-10.2c-3.9-22.5-19.8-42.6-38.8-42.6s-34.9,20.1-38.8,42.6
								c-0.9,5.3,2.6,10.2,7.2,10.2H5282.1z"/>
						</g>
					</g>
				</g>
				<g>
					<g>
						<path class="st64" d="M5239.5,844.8c16,0.8,29.1-12.3,28.3-28.3c-0.7-13.7-11.8-24.8-25.5-25.5c-16-0.8-29.1,12.3-28.3,28.3
							C5214.7,833,5225.9,844.1,5239.5,844.8z"/>
						<path class="st64" d="M5280.2,902.8c5.6,0,9.8-5.1,8.7-10.6c-4.7-23.3-23.7-44.2-46.5-44.2s-41.9,20.9-46.5,44.2
							c-1.1,5.5,3.1,10.6,8.7,10.6H5280.2z"/>
					</g>
				</g>
			</g>
			<path class="st65" d="M5445,961.7c0,18.4-14.4,33.3-32.1,33.3s-32.1-14.9-32.1-33.3c0-18.4,14.4-33.3,32.1-33.3
				S5445,943.3,5445,961.7z"/>
			<path class="st66" d="M5110.9,978.9c0,16.2-12.6,29.3-28.2,29.3s-28.2-13.1-28.2-29.3s12.6-29.3,28.2-29.3
				C5098.2,949.7,5110.9,962.8,5110.9,978.9z"/>
		</g>
		<polygon class="st8" points="5082.4,1003.5 5105.9,1038.7 5059.5,1038 		"/>
		<polygon class="st8" points="5284.3,1251.9 5311.7,1219.6 5323.8,1264.4 		"/>
		<polygon class="st8" points="5398.6,934.3 5356.3,933.7 5383.2,896 		"/>
	</g>
	<g>
		<path class="st33" d="M6227.6,896.3c17.2,0,31.3-13.9,31.3-31.1c0-17.2-13.9-31.3-31.1-31.3s-31.3,13.9-31.3,31.1
			C6196.4,882.2,6210.4,896.2,6227.6,896.3z"/>
		<path class="st33" d="M6079.5,957.2c17.2,0,31.2-14,31.2-31.2s-14-31.2-31.2-31.2s-31.2,14-31.2,31.2S6062.2,957.2,6079.5,957.2z"
			/>
		<path class="st33" d="M6080.6,1082.1c17.2,0,31.3-13.9,31.3-31.1s-13.9-31.3-31.1-31.3s-31.3,13.9-31.3,31.1
			C6049.4,1068,6063.3,1082.1,6080.6,1082.1z"/>
		<path class="st33" d="M6227.6,1013.9c17.2,0,31.3-13.9,31.3-31.1c0-17.2-13.9-31.3-31.1-31.3s-31.3,13.9-31.3,31.1
			C6196.4,999.8,6210.4,1013.8,6227.6,1013.9z"/>
		<path class="st33" d="M6227.6,1138.6c17.2,0,31.3-13.9,31.3-31.1s-13.9-31.3-31.1-31.3s-31.3,13.9-31.3,31.1
			C6196.4,1124.5,6210.4,1138.5,6227.6,1138.6z"/>
		<path class="st33" d="M6227.6,1257.3c17.2,0,31.3-13.9,31.3-31.1s-13.9-31.3-31.1-31.3s-31.3,13.9-31.3,31.1
			C6196.4,1243.3,6210.4,1257.3,6227.6,1257.3z"/>
		<path class="st33" d="M5943,1152.7c17.2,0,31.3-13.9,31.3-31.1s-13.9-31.3-31.1-31.3s-31.3,13.9-31.3,31.1
			C5911.8,1138.6,5925.7,1152.6,5943,1152.7z"/>
		<path class="st33" d="M5943,1024.5c17.2,0,31.3-13.9,31.3-31.1c0-17.2-13.9-31.3-31.1-31.3s-31.3,13.9-31.3,31.1
			C5911.8,1010.4,5925.7,1024.4,5943,1024.5z"/>
		<path class="st33" d="M6076.7,1206.2c17.2,0,31.2-14,31.2-31.2s-14-31.2-31.2-31.2s-31.2,14-31.2,31.2
			S6059.5,1206.2,6076.7,1206.2z"/>
		<path class="st67" d="M5854.3,1085.4c22.7,0,41.1-18.4,41.1-41.1c0-22.7-18.4-41.1-41.1-41.1s-41.1,18.4-41.1,41.1
			C5813.2,1067,5831.6,1085.4,5854.3,1085.4z"/>
		<path class="st68" d="M6087.9,954.5c20.3,0,36.7-16.4,36.7-36.7s-16.4-36.7-36.7-36.7s-36.7,16.4-36.7,36.7
			C6051.2,938.1,6067.6,954.5,6087.9,954.5z"/>
		<path class="st68" d="M6087.8,1080.6c20.3,0.1,36.7-16.3,36.8-36.6c0.1-20.3-16.3-36.7-36.6-36.8c-20.3-0.1-36.7,16.3-36.8,36.6
			C6051.1,1064.1,6067.5,1080.5,6087.8,1080.6z"/>
		<path class="st68" d="M6086,1205.8c20.3,0,36.7-16.4,36.7-36.7c0-20.3-16.4-36.7-36.7-36.7s-36.7,16.4-36.7,36.7
			C6049.3,1189.3,6065.7,1205.8,6086,1205.8z"/>
		<path class="st69" d="M5947.4,1019.6c20.3,0,36.7-16.4,36.7-36.7s-16.4-36.7-36.7-36.7s-36.7,16.4-36.7,36.7
			C5910.7,1003.2,5927.1,1019.6,5947.4,1019.6z"/>
		<path class="st69" d="M5947.4,1152.9c20.3,0,36.7-16.4,36.7-36.7c0-20.3-16.4-36.7-36.7-36.7s-36.7,16.4-36.7,36.7
			C5910.7,1136.4,5927.1,1152.9,5947.4,1152.9z"/>
		<path class="st69" d="M6233.7,1009.1c20.3,0,36.7-16.4,36.7-36.7s-16.4-36.7-36.7-36.7c-20.3,0-36.7,16.4-36.7,36.7
			C6197,992.6,6213.5,1009.1,6233.7,1009.1z"/>
		<path class="st69" d="M6233.7,895.2c20.3,0,36.7-16.4,36.7-36.7s-16.4-36.7-36.7-36.7c-20.3,0-36.7,16.4-36.7,36.7
			S6213.5,895.2,6233.7,895.2z"/>
		<path class="st69" d="M6233.7,1133.3c20.3,0,36.7-16.4,36.7-36.7c0-20.3-16.4-36.7-36.7-36.7c-20.3,0-36.7,16.4-36.7,36.7
			S6213.5,1133.3,6233.7,1133.3z"/>
		<path class="st69" d="M6233.7,1257.5c20.3,0,36.7-16.4,36.7-36.7c0-20.3-16.4-36.7-36.7-36.7c-20.3,0-36.7,16.4-36.7,36.7
			S6213.5,1257.5,6233.7,1257.5z"/>
		<polyline class="st70" points="6197,1217.6 6125.2,1171.2 6196.7,1096.8 6125.3,1043.2 6194.5,972.2 6125.2,915.2 6196.7,858.8 		
			"/>
		<polyline class="st71" points="6048.1,1158 5984.3,1112.8 6050.6,1044.1 5985.7,983.9 6050.6,931.2 		"/>
		<line class="st71" x1="5916.4" y1="1096.6" x2="5885.3" y2="1075.3"/>
		<line class="st71" x1="5890.5" y1="1019.1" x2="5912.3" y2="1002.4"/>
		<polyline class="st72" points="6196.9,864.9 6124.9,1043.6 6197,1210.8 		"/>
		<path class="st73" d="M5875.5,1044.8c0,12.1-9.4,21.9-21.1,21.9s-21.1-9.8-21.1-21.9s9.4-21.9,21.1-21.9
			S5875.5,1032.7,5875.5,1044.8z"/>
	</g>
	<line class="st12" x1="1128.7" y1="320" x2="2174.7" y2="320"/>
	<line class="st9" x1="2281.6" y1="542.1" x2="2281.6" y2="289.2"/>
	<circle class="st74" cx="2279" cy="320" r="47"/>
	<line class="st15" x1="4347.5" y1="540.7" x2="4347.5" y2="346.4"/>
	<circle class="st74" cx="4346" cy="321" r="47"/>
	<line class="st15" x1="3337.2" y1="650.7" x2="3337.2" y2="456.4"/>
</g>
<g id="header_logo">
</g>
<g id="sub_text">
	<g>
		<path class="st33" d="M160.7,1346.1c0-2.6,1.1-3.9,3.4-3.9h6.5c2.5,0,3.8,1.2,3.8,3.7v2.2c0,2,1,3.1,2.9,3.1H189
			c2.5,0,3.8,1.2,3.8,3.7v5c0,2.5-1.2,3.8-3.7,3.8h-11.7c-2,0-3.1,1.3-3.1,3.9c0,2.8,1,4.2,2.9,4.2H192c2.5,0,3.8,1.2,3.8,3.7v5
			c0,2.5-1.1,3.8-3.4,3.8c-2.4,0-4,1.2-4.9,3.7l-2.1,6.8c-0.5,2,0.2,2.9,2.2,2.9h2.1c2.5,0,3.8,1.2,3.8,3.7v5c0,2.5-1.2,3.8-3.7,3.8
			h-12.5c-2,0-3.1,1-3.1,2.9v2.6c0,2,1,3.1,2.9,3.1h13.8c2.5,0,3.8,1.2,3.8,3.7v5c0,2.5-1.2,3.8-3.7,3.8h-13.8c-2,0-3.1,1-3.1,2.9
			v17.3c0,2.5-1.2,3.8-3.7,3.8h-6.2c-2.5,0-3.8-1.2-3.8-3.7V1434c0-2-1-3.1-2.9-3.1h-13.3c-2.5,0-3.8-1.2-3.8-3.7v-5
			c0-2.5,1.2-3.8,3.7-3.8h13.3c2,0,3.1-1,3.1-2.9v-2.6c0-2-1-3.1-2.9-3.1h-11.2c-2.5,0-3.8-1.2-3.8-3.7v-5c0-2.5,1.1-3.8,3.2-3.8
			c2.1,0,2.9-1.2,2.4-3.7l-1.7-6.8c-0.7-2-2-2.9-3.9-2.9c-2,0-3.1-1.2-3.1-3.7v-5c0-2.5,1.2-3.8,3.7-3.8h14.3c2,0,3.1-1.3,3.1-3.9
			c0-2.8-1-4.2-2.9-4.2H146c-2.5,0-3.8-1.2-3.8-3.7v-5c0-2.5,1.2-3.8,3.7-3.8h11.7c2,0,3.1-1,3.1-2.9L160.7,1346.1L160.7,1346.1z
			 M173.2,1387.1c0.4-2-0.4-3.1-2.3-3.1h-7.4c-2,0-2.6,1.3-1.8,3.8l1.7,6.7c0.5,2,1.7,2.9,3.8,2.9c2,0,3.5-1.2,4.3-3.7
			C171.8,1391.7,172.4,1389.4,173.2,1387.1z M206.7,1346.1c0-2.6,1.1-3.9,3.4-3.9h6c2.5,0,3.8,1.2,3.8,3.7v12.8c0,2,1,3.1,2.9,3.1
			h16.7c2.4,0,3.6,1.2,3.4,3.7c-0.9,11.8-1.6,23.5-2.1,35v22.3l0.5,14c0.5,2.5,1.1,2.7,1.8,0.6c0.7-4,1-8.3,1-12.8
			c0-2.4,1.2-3.2,3.7-2.2c1.2,0.4,2.4,0.9,3.7,1.6c2.5,1.2,3.7,3.1,3.4,5.5c-0.2,7.2-1.8,13.7-4.8,19.4c-2.7,3.7-5.9,5.2-9.5,4.6
			c-3.4-0.4-6.3-2.8-8.7-7.1c-3-7.5-4.6-16.6-4.6-27.2c-0.1-2.1-1.1-1.9-3.2,0.7c-2.2,2.8-4.2,3.1-6.1,0.9c-1.8-2-3.1-1.7-3.8,1
			c-2.4,10.4-7.3,20.3-14.8,29.8c-2.4,2.6-4.8,2.8-7.1,0.5l-3.1-3.1c-2.4-2.4-2.6-4.9-0.4-7.3c7.2-9.5,12-20.5,14.4-32.8
			c0.4-2.2-0.2-4.1-2-5.7c-2.1-2-4.3-3.9-6.5-5.7c-2.3-2-2.2-4.3,0.2-6.8c0.8-1,1.8-2,2.9-3.1c2.1-2.2,4-2.6,5.6-1.3
			c1.4,1.1,2.2,0.5,2.4-2c0-1.5,0.1-3.1,0.4-4.8c0-2.7-1-4-2.9-4h-2.1c-2.5,0-3.8-1.2-3.8-3.7v-6.2c0-2.5,1.2-3.8,3.7-3.8h2.2
			c2,0,3.1-1,3.1-2.9v-12.8H206.7z M228.6,1378.5c0.2-2-0.7-3.1-2.7-3.1H223c-2,0-3,1.2-3.2,3.7c-0.2,5.6-0.5,11.2-1.1,16.8
			c-0.2,2,0.9,4.2,3.3,6.7l2,2.1c2.2,2.2,3.3,2.3,3.3,0.2C227.5,1396.6,227.9,1387.8,228.6,1378.5z"/>
		<path class="st33" d="M285.4,1345c1.8-2.8,3.9-3.5,6.2-2.2l5.2,2.9c2.7,1.5,3.2,3.7,1.5,6.6c-4.2,7-10.9,14.3-20,22
			c-2.7,2-5.1,1.7-7.3-1.1l-2.9-3.9c-2-2.7-2-4.9,0.2-6.7C276.2,1356.3,281.9,1350.4,285.4,1345z M294.3,1371.4
			c1.5-2.4,3.5-3,5.9-1.7c1.7,0.9,3.4,1.9,5.1,3.1c2.5,1.5,3.1,3.4,1.7,5.9c-2.4,4.3-5.5,8.6-9.2,12.9c-1.8,2.1-2.7,4.1-2.7,5.9
			v53.8c0,2.5-1.2,3.8-3.7,3.8h-6.7c-2.5,0-3.8-1.2-3.8-3.7v-40c0-2-0.9-2.5-2.6-1.3c-1.9,1.4-3.7,0.9-5.6-1.3l-4.5-5.9
			c-1.7-2.2-1.2-4.3,1.5-6.2C280.1,1388.5,288.3,1380.1,294.3,1371.4z M308.2,1382.7c0-2.6,1.1-3.9,3.4-3.9h63.6
			c2.5,0,3.8,1.2,3.8,3.7v6.7c0,2.5-1.2,3.8-3.7,3.8H358c-2,0-3.1,1-3.1,2.9v44.6c-0.2,7.9-3.7,12.4-10.4,13.5
			c-4.1,1.3-11.5,1.3-22.3,0.1c-2.6-0.3-4.1-2-4.5-5l-1-6.5c-0.4-2.8,0.8-3.8,3.5-3.2c6,1.2,11.6,1.6,16.7,1.2
			c2-0.8,3.1-2.4,3.4-4.9v-39.8c0-2-1-3.1-2.9-3.1H312c-2.5,0-3.8-1.2-3.8-3.7V1382.7z M314.5,1349.9c0-2.5,1.2-3.8,3.7-3.8h51.3
			c2.5,0,3.8,1.2,3.8,3.7v6.2c0,2.5-1.2,3.8-3.7,3.8h-51.4c-2.4,0-3.7-1.2-3.7-3.7L314.5,1349.9L314.5,1349.9z"/>
		<path class="st33" d="M416.7,1343.6c2.5-0.9,4.5-0.2,5.9,2.2l2.8,4.9c1.7,2.8,1.2,4.7-1.5,5.7c-2.9,1-5.9,1.8-8.8,2.4
			c-2.3,0.6-3.4,1.9-3.3,4v3.7c0,2,1,3.1,2.9,3.1h7.8c2.5,0,3.8,1.2,3.8,3.7v5.2c0,2.5-1.2,3.8-3.7,3.8H415c-2,0-3.1,1-3.1,2.9
			l0.1,3.8c0.2,2.1,1.2,3.2,3.1,3.2h7.3c2.5,0,3.8,1.2,3.8,3.7v5c0,2.5-1.2,3.8-3.7,3.8h-7.1c-2,0-3.1,1-3.1,2.9v4.3
			c0.2,2.4,1.2,3.7,3.2,3.7h10.4c2,0,3.1-1.2,3.5-3.7c0.6-6,1.3-12,2.1-18.1c0.4-2.4,1.8-3.7,4.3-3.7h5.6c2.4,0,3.5,1.2,3.3,3.7
			l-2.3,18.3c-0.2,2.3,0.7,3.4,2.9,3.4c2.4,0,3.8-1.2,4-3.7c0.4-8.2,0.9-16.5,1.6-24.8c0.1-2-0.9-2.9-2.8-2.9H445c-2,0-3,0.3-3.2,1
			s-1.5,1.1-3.9,1.1h-5c-2.4,0-3.6-1.2-3.5-3.7c0.8-12.2,1.7-24.4,2.8-36.6c0.2-2.4,1.6-3.7,4-3.7h5.1c2.4,0,3.6,1.2,3.5,3.7
			l-0.2,2.3c0,2,1,2.9,2.9,2.9h10.9c2.5,0,3.8,1.2,3.8,3.7v5c0,2.5-1.2,3.8-3.7,3.8h-12c-2,0-3.1,1.2-3.4,3.7l-0.1,1.1
			c-0.2,2.2,0.6,3.3,2.4,3.3h15c2.4,0,3.6,1.2,3.5,3.7l-2.2,37.2c0,2,1,2.9,2.9,2.9h12.2c2,0,3.1-1.2,3.1-3.7l0.2-4.2
			c0-2-1-3.1-2.9-3.1h-6c-2.5,0-3.8-1.2-3.8-3.7v-5c0-2.5,1.2-3.8,3.7-3.8h6.2c2,0,3-1.2,3.2-3.7v-3.3c0-2-1-2.9-2.9-2.9h-6.7
			c-2.5,0-3.8-1.2-3.8-3.7v-5.2c0-2.5,1.2-3.8,3.7-3.8h7.1c2,0,3.1-1,3.1-2.9l0.1-4.5c0-2-1-2.9-2.9-2.9H470c-2.5,0-3.8-1.2-3.8-3.7
			v-6c0-2.5,1.2-3.8,3.7-3.8H491c2.4,0,3.7,1.2,3.8,3.7l-1.1,63c0,2,1,3.1,2.9,3.1h1.8c2.5,0,3.8,1.2,3.8,3.7v5.7
			c0,2.5-1.2,3.8-3.7,3.8h-105c-2.5,0-3.8-1.2-3.8-3.7v-5.7c0-2.5,1.2-3.8,3.7-3.8h2.4c2,0,2.9-1.2,2.9-3.7l-1.5-59.9
			c-0.1-2.4,1.1-3.9,3.5-4.4C405.6,1346.8,410.9,1345.5,416.7,1343.6z M416.8,1431.8c3-1.5,5.9-1.1,8.7,1.2l3.8,3.1
			c2.6,2.2,2.8,4,0.5,5.5c-7.5,4.6-16.8,8.6-27.8,12.2c-2.4,0.8-4.4,0-6-2.6l-3.5-6.3c-1.4-2.7-0.9-4.3,1.5-4.9
			C401,1438.2,408.7,1435.5,416.8,1431.8z M464.3,1432.5c2.3-1.9,4.6-2.4,6.8-1.5c7.8,3.2,16.3,5.9,25.5,8.2c2.4,0.5,3.1,2,1.8,4.4
			c-1.5,2.4-2.9,4.9-4.2,7.3c-1.4,2.4-3.3,3.2-5.7,2.4c-9.7-3.3-18.7-7.2-27-11.7c-3.3-1.9-3.7-3.8-1.2-5.9
			C461.7,1434.6,463,1433.5,464.3,1432.5z"/>
		<path class="st33" d="M533.4,1345.6c0.7-2.6,2.2-3.5,4.5-2.8l6,1.7c2.6,0.8,3.5,2.4,2.8,4.9c-1.6,6.1-3.5,11.7-5.7,16.8
			c-0.9,2.3-1.3,4.2-1.3,5.6v78.9c0,2.5-1.2,3.8-3.7,3.8h-5.7c-2.5,0-3.8-1.2-3.8-3.7v-51.3c0-2.5-0.8-2.8-2.3-0.9
			c-1.4,2-2.8,1.7-4.2-0.7l-3.3-6.1c-1.3-2.4-1.2-4.9,0.2-7.3C524.5,1371.7,530,1358.7,533.4,1345.6z M549,1347
			c0-2.5,1.2-3.8,3.5-3.8h67.9c2.5,0,3.8,1.2,3.8,3.7v2.7c0,2.5-1.2,3.8-3.7,3.8h-27.2c-1.9,0-3,0.5-3.3,1.6s0.4,1.6,2.2,1.6H614
			c2.5,0,3.8,1.2,3.8,3.7v25.4c0,2,1,3.1,2.9,3.1h3.5c2.5,0,3.8,1.2,3.8,3.7v10c0,2.5-1.2,3.8-3.7,3.8H621c-2,0-2.7,0.7-2,2
			s-0.1,2.6-2.6,4l-2.2,1.2c-2.5,1.4-4.5,0.9-5.9-1.5c-0.7-1.3-1.5-2.6-2.6-3.9c-2.1-2.7-2-4.8,0.2-6.3l1-0.7c2.9-2,5-2.4,6.1-1
			c1.1,1.1,1.6,1.1,1.6-0.2c0-1.5-1-2.2-2.9-2.2h-18.1c-2.4,0-3.3,0.4-2.7,1.1c0.3,0.5-0.5,2-2.6,4.4c-2,2.4-4.2,2.8-6.6,1.1
			c-2.8-1.7-3.5-3.2-2.2-4.5c1.1-1.4,0.7-2.1-1.2-2.1H559c-2,0-3.1,0.6-3.1,1.8c0,1.3,1.1,2.2,3.2,2.8c2.1,0.7,2.9,2.2,2.4,4.6
			c-0.4,2-1.1,4-2.2,6.2c-1.3,2.7-3.4,3.3-6.3,1.8l-1.5-0.7c-2.7-1.2-3.5-2.8-2.3-4.8c0.8-2.1,0-3.2-2.6-3.2s-3.9-1.2-3.9-3.7v-10
			c0-2.5,1.2-3.8,3.7-3.8h3.5c2,0,3.1-1,3.1-2.9v-25.4c0-2.5,1.2-3.8,3.7-3.8h16.2c2,0,3.1-0.4,3.5-1.3c0.4-1.2-0.3-1.8-2.1-1.8
			h-21.9c-2.5,0-3.8-1.2-3.8-3.7v-2.8H549z M564,1402.3c0-2.6,1.1-3.9,3.4-3.9h4.6c2.5,0,3.8,1.1,3.8,3.2c-0.3,2.2,0,3.9,1.1,5.1
			c3.1,1.2,7,1.5,11.7,0.9c2,0.3,3.3-0.9,3.8-3.8c0.3-1.9,1.8-2.2,4.4-1.1c0.8,0.5,1.6,0.9,2.4,1.1c2.5,1.3,3.5,3.2,3.1,5.6
			c-0.3,4.1-2.6,6.4-6.8,7c-3.7,0.7-8.3,0.9-13.8,0.6c-2,0-3.3,0.4-4,1.3c-0.8,1.1-0.3,1.7,1.6,1.7h31.4c2.5,0,3.8,1.3,3.8,3.8
			c0,2.4-1.3,4.9-3.8,7.4c-2,2-4.5,4.1-7.7,6.2c-2,1.2-1.6,2.1,1,2.7c6.5,1.5,13.2,2.3,20.1,2.6c2.6,0.2,3.6,1.4,3.1,3.8
			c-0.4,1.1-0.7,2.3-0.9,3.4c-0.7,3.1-2.3,4.6-4.8,4.5c-10.9-0.2-21.9-2.3-33.1-6.3c-2.5-1.1-5-1.2-7.4-0.4
			c-9.3,3.1-19,5.4-29.3,6.8c-2.4,0.3-4.4-0.7-5.7-3.1l-2-3.8c-1.3-2.5-0.7-3.9,1.7-4.2c7.9-0.7,15.5-1.9,22.8-3.5
			c2.1-0.5,1.8-1.7-0.9-3.7c-0.3-0.2-0.7-0.4-1-0.9c-2.3-2-4.7-2.2-7.3-0.5l-2.4,1.5c-3.1,1.7-5.4,1.3-6.8-1.3l-1.6-2.9
			c-1.4-2.6-0.9-4.5,1.5-5.6c3.9-1.8,8.7-4.8,14.3-9.2c2-1.9,2.5-3.3,1.6-4.4C564.1,1410.1,563.5,1406.5,564,1402.3z M605.1,1366.5
			c0-0.9-1-1.3-2.9-1.3H569c-2,0-3,0.4-3.1,1.2c0.1,0.8,1.1,1.2,3.1,1.2h33C604,1367.6,605,1367.2,605.1,1366.5z M604.9,1376.8
			c0-0.9-1-1.3-2.9-1.3h-33c-2,0-3,0.4-3.1,1.2c0,0.9,1,1.3,2.9,1.3H602C604,1378,604.9,1377.6,604.9,1376.8z M605.1,1387.3
			c0-1.1-0.9-1.6-2.8-1.6H569c-2,0-3.1,0.4-3.1,1.3c0,1.1,1,1.6,2.9,1.6H602C604,1388.6,605,1388.2,605.1,1387.3z M595.7,1430.2
			c0.2-0.4-0.7-0.6-2.9-0.6h-10.5c-4.3-0.2-4,0.8,0.9,3.2C585.9,1435.5,590.1,1434.6,595.7,1430.2z"/>
		<path class="st33" d="M664.8,1346.6c1-2.9,2.6-4.1,4.9-3.4l7.1,2.2c2.4,0.9,3.3,2.6,2.4,5c-2.4,6.4-5,12.5-7.8,18.3
			c-0.5,0.9-0.7,2.3-0.7,4.3v78.2c0,2.5-1.2,3.8-3.7,3.8h-6.7c-2.5,0-3.8-1.2-3.8-3.7V1397c0-2.1-1-1.8-2.9,1
			c-1,1.1-1.8,2.3-2.6,3.4c-1.8,2.1-3.5,1.8-5-1.1l-3.2-6.1c-1.3-2.4-1.1-4.9,0.7-7.3C652.9,1374.3,659.9,1360.9,664.8,1346.6z
			 M690.8,1346.1c0-2.6,1.1-3.9,3.4-3.9h6.7c2.5,0,3.8,1.2,3.8,3.7v32.7c0,2.1,1.3,2.5,3.8,1.2c10.7-5.5,19.7-11,27-16.5
			c2.7-2,4.9-1.8,6.6,0.4c1.3,2,2.7,3.9,4.3,5.9c2.1,2.8,1.8,5.1-1,6.8c-10.8,7-23.4,13.5-37.7,19.5c-2,0.9-2.9,2.3-2.9,4.3v31.1
			c-0.8,4.2,1.3,6.5,6.3,6.8c2.8,0.5,8.3,0.5,16.4,0.1c4.3,0.2,7.4-1.5,9.2-4.9c1.4-3.3,2.3-6.5,2.8-9.6c0.4-2.4,1.9-3,4.4-1.6
			l6.2,3.5c2.5,1.4,3.5,3.3,2.9,5.7c-1.3,5.5-2.9,10-4.8,13.3c-2.2,3.7-5.2,5.9-9,6.6c-8.5,1.3-18.8,1.5-31.1,0.5
			c-8.2-0.5-13.5-3.3-15.7-8.3c-0.8-1.7-1.3-3.7-1.5-6v-91.3H690.8z"/>
	</g>
	<g>
		<path class="st33" d="M1154.9,1346.4c0-2.6,1.1-3.9,3.4-3.9h5.5c2.5,0,3.8,1.2,3.8,3.7v10.3c0,2,1,3.1,2.9,3.1h9.8
			c2.5,0,3.8,1.2,3.8,3.7v51.4c0.2,8.1-4.2,12.7-13.1,13.9c-2.3,0-3.4,0.9-3.4,2.6v20c0,2.5-1.2,3.8-3.7,3.8h-5.2
			c-2.5,0-3.8-1.2-3.8-3.7V1376c0-2-0.7-3.1-2-3.1c-1.4,0-2.1,1-2.1,2.9v49.9c0,2.5-1.2,3.8-3.7,3.8h-5.2c-2.5,0-3.8-1.2-3.8-3.7
			v-62.5c0-2.5,1.2-3.8,3.7-3.8h10c2,0,3.1-1,3.1-2.9L1154.9,1346.4L1154.9,1346.4z M1171.5,1375.9c0-2-0.6-3.1-1.8-3.1
			c-1.4,0-2.1,1-2.1,2.9v37c0,2,0.4,3,1.2,3.1c1.7-0.2,2.6-1.5,2.7-3.9L1171.5,1375.9L1171.5,1375.9z M1190.4,1349.5
			c0-2.6,1.1-3.9,3.4-3.9h49.3c2.5,0,3.8,1.2,3.8,3.7v5.5c0,2.5-1.2,3.8-3.7,3.8h-36.6c-2,0-3.1,0.7-3.1,2.2s1,2.3,2.9,2.3h32.2
			c2.5,0,3.8,1.2,3.8,3.7v4.6c0,2.5-1.2,3.8-3.7,3.8h-32.2c-2,0-3.1,0.8-3.1,2.4c0,1.7,1,2.6,2.9,2.6h32.2c2.5,0,3.8,1.2,3.8,3.7
			v4.8c0,2.5-1.2,3.8-3.7,3.8h-32.2c-2,0-3.1,0.8-3.1,2.4c0,1.7,1,2.6,2.9,2.6h39.2c2.5,0,3.8,1.2,3.8,3.7v5c0,2.5-1.2,3.8-3.7,3.8
			h-18.1c-2,0-2.6,1.2-1.8,3.7l1.1,2.8c0.9,1.7,2.7,1.8,5.4,0.1l3.1-2.2c2.6-2.2,5-2.4,7.3-0.5l3.4,2.8c2.4,2.2,2.5,4.3,0.1,6.3
			c-2.4,1.8-4.9,3.4-7.3,4.9c-2.4,1.4-2.6,3.3-0.4,5.7c2.4,2.4,5,4.4,8.1,6.1c2.5,1.3,3.1,3.2,1.8,5.6c-1.1,2-2.2,3.9-3.1,5.9
			c-1.5,2.8-3.6,3.5-6.2,2c-7.6-5.2-13.3-11.4-17.3-18.4c-4.3-7.2-7.5-14.4-9.5-21.6c-0.6-2.1-2-3.2-4.4-3.2c-2.5,0-3.8,1-3.8,2.9
			v21.6c0,2,1.2,2.7,3.7,2.2l7.7-2c2.6-0.7,4.1,0.4,4.5,3.4l0.4,2.4c0.4,2.8-0.7,4.8-3.4,5.7c-8.5,3-17.7,5.7-27.6,8.2
			c-2.6,0.7-4.4-0.5-5.4-3.4l-1.6-4.9c-0.8-2.6,0-4.2,2.4-4.6l2.2-0.4c2.6-0.7,3.9-2,3.9-3.9v-24.3c0-2-0.9-3.1-2.7-3.1
			c-1.9,0-2.8-1.2-2.8-3.7v-5c0-2.5,0.8-3.8,2.3-3.8c1.7,0,2.6-1,2.6-2.9v-44.9H1190.4z"/>
		<path class="st33" d="M1284.3,1352.2c24.8-0.3,49.2-3.3,73-8.8c2.6-0.7,4.6,0.2,6.1,2.6l3.7,5.6c1.7,2.7,1.2,4.4-1.6,5.2
			c-20.3,4.7-42.9,7.7-67.7,8.9c-2,0.2-2.9,1.5-2.9,4c0,2.7,1,4,2.9,4h66.9c2.5,0,3.8,1.2,3.8,3.7v46.8c0,2.5-1.2,3.8-3.7,3.8h-7
			c-2.5,0-3.8-1.2-3.8-3.7v-1.6c0-2-1-3.1-2.9-3.1h-55.7c-2,0-3.3,1.2-4.2,3.7c-2.7,9.6-7,19.4-12.9,29.3c-1.7,2.4-3.8,2.6-6.2,0.6
			l-3.7-3.1c-2.5-2.2-3.1-4.5-1.6-6.8c8.8-13.1,13.4-27.5,13.8-43.2V1356C1280.7,1353.6,1281.9,1352.3,1284.3,1352.2z M1354,1391
			c0-2-1-3.1-2.9-3.1h-53.2c-2,0-3.1,1-3.1,2.9c0.1,3.9,0,7.8-0.2,11.7c0,2,1,2.9,2.9,2.9h53.5c2,0,3.1-1,3.1-2.9V1391H1354z"/>
		<path class="st33" d="M1401.3,1344.6c1-2.6,2.6-3.6,4.9-2.9c2,0.4,3.9,0.9,5.9,1.6c2.8,0.9,4.2,1.8,3.9,2.8
			c-0.2,0.9,0.7,1.3,2.7,1.3h21.4c2.5,0,3.8,1.2,3.8,3.7v3.4c0,2.1,0.9,1.9,2.8-0.7c1.9-2.8,3.6-5.6,5.1-8.4
			c1.4-2.8,3.4-3.8,6.1-3.1l5.4,1.6c2.6,0.8,3.8,1.5,3.7,2.2c-0.4,0.9,0.4,1.3,2.3,1.3h26.6c2.5,0,3.8,1.2,3.8,3.7v5.2
			c0,2.5-1.2,3.8-3.7,3.8h-10.5c-2,0-2,0.8,0.1,2.4c1.8,1.7,1.3,3.4-1.5,5l-4.9,2.8c-2.7,1.6-4.9,1.3-6.6-0.9
			c-1.5-2.1-3.1-4.3-5-6.5c-1.7-2-3.4-2.9-5-2.9s-3.3,1.2-5,3.7c-1.1,1.6-2.5,3.4-4,5.2c-1.7,1.5-2.6,2.6-2.6,3.3
			c0.1,0.7,1.1,1,3.1,1h41.3c2.5,0,3.8,1.2,3.8,3.7v15.5c0,2.5-1.2,3.8-3.7,3.8h-6.7c-2.5,0-3.8-1.2-3.8-3.7v-3.5c0-2-1-3.1-2.9-3.1
			h-75.7c-2,0-3.1,1-3.1,2.9v3.5c0,2.5-1.2,3.8-3.7,3.8h-6.7c-2.5,0-3.8-1.2-3.8-3.7v-15.5c0-2.5,1.2-3.8,3.7-3.8h4
			c2.1,0,1.8-1-1-2.9c-1.1-1-2.3-1.8-3.4-2.6c-2.4-1.8-2.7-3.9-0.7-6.3C1394.6,1357.5,1397.8,1351.8,1401.3,1344.6z M1415.1,1363.4
			c-1.4-2.2-2.5-3.3-3.4-3.3c-1.1,0-2.3,1.2-3.7,3.7c-1.1,2-2.4,4.1-3.9,6.1c-1.5,2.3-1.3,3.4,0.6,3.4h27.7c2,0,3.1-0.8,3.1-2.3
			c0-1.7,1.2-2.6,3.7-2.6h5.7c2.2,0,1.9-1-1-2.9l-1-0.7c-2.3-1.8-3.1-3-2.6-3.5c0.7-0.7,0.1-1.1-1.8-1.1h-6.3c-2,0-2.4,0.8-1.3,2.4
			s0.4,3.2-2.1,4.6l-5.1,2.9c-2.5,1.5-4.4,1.1-5.6-1.3C1417.2,1367,1416.2,1365.2,1415.1,1363.4z M1405.3,1394.2
			c0-2.5,1.2-3.8,3.5-3.8h68.7c2.5,0,3.8,1.2,3.8,3.7v20.9c0,2.5-1.2,3.8-3.7,3.8h-55.4c-2,0-3.1,0.8-3.1,2.4c0,1.7,1,2.6,2.9,2.6
			h61.6c2.5,0,3.8,1.2,3.8,3.7v23.7c0,2.5-1.2,3.8-3.7,3.8h-6.5c-2.4,0-3.7-0.4-3.8-1.2c0-0.9-1-1.3-2.9-1.3H1422
			c-2,0-3.1,0.5-3.1,1.5c0,1.1-1.2,1.6-3.7,1.6h-6.5c-2.5,0-3.8-1.2-3.8-3.7v-57.7H1405.3z M1467.2,1404.7c-0.1-1.7-1.1-2.6-3.1-2.6
			h-41.9c-2,0-3.1,0.8-3.1,2.4c0,1.7,1,2.6,2.9,2.6h42C1466.2,1407.1,1467.2,1406.3,1467.2,1404.7z M1473.7,1438.2
			c0-2-0.9-2.9-2.8-2.9h-48.6c-2,0-3.1,0.9-3.1,2.7c0,1.9,1,2.8,2.9,2.8h48.5C1472.6,1440.8,1473.7,1439.9,1473.7,1438.2z"/>
		<path class="st33" d="M1513.2,1351.6c0-2.4,1.2-3.7,3.7-3.7h31.2c2.5,0,3.8,1.2,3.8,3.7v6.2c0,2.5-1.2,3.8-3.7,3.8h-6.2
			c-2,0-3.1,1-3.1,2.9v15.5c0,2,1,3.1,2.9,3.1h3.7c2.5,0,3.8,1.2,3.8,3.7v6.2c0,2.5-1.2,3.8-3.7,3.8h-3.7c-2,0-3.1,1-3.1,2.9v21
			c0,2,1.2,2.7,3.7,2.3l5.2-1.3c2.4-0.7,3.8,0.6,4,3.8l0.5,4.6c0.2,2.4-0.9,4.1-3.5,5c-9.6,2.8-19.4,5.4-29.3,7.6
			c-2.8,0.7-4.5-0.4-5-3.1c-0.5-2.1-0.9-4.3-1.1-6.5c-0.5-2.8,0.6-4.4,3.3-4.9l5.4-1c2-0.5,2.9-1.7,2.9-3.7v-23.8c0-2-1-3.1-2.9-3.1
			h-4.2c-2.5,0-3.8-1.2-3.8-3.7v-6.2c0-2.5,1.2-3.8,3.7-3.8h4.2c2,0,3.1-1,3.1-2.9v-15.5c0-2-1-3.1-2.9-3.1h-5.1
			c-2.5,0-3.8-1.2-3.8-3.7V1351.6z M1554.7,1349c0-2.6,1.1-3.9,3.4-3.9h59.8c2.5,0,3.8,1.2,3.8,3.7v56.9c0,2.5-1.2,3.8-3.7,3.8
			h-19.7c-2,0-3.1,1.1-3.1,3.3c0,2.4,1,3.5,2.9,3.5h19.2c2.5,0,3.8,1.2,3.8,3.7v6.2c0,2.5-1.2,3.8-3.7,3.8h-19.2c-2,0-3.1,1-3.1,2.9
			v3.4c0,2,1,3.1,2.9,3.1h23.4c2.5,0,3.8,1.2,3.8,3.7v6c0,2.5-1.2,3.8-3.7,3.8h-68.2c-2.5,0-3.8-1.2-3.8-3.7v-6
			c0-2.5,1.2-3.8,3.7-3.8h24.5c2,0,3.1-1,3.1-2.9v-3.4c0-2-1-3.1-2.9-3.1H1558c-2.5,0-3.8-1.2-3.8-3.7v-6.2c0-2.5,1.2-3.8,3.7-3.8
			h20.1c2,0,3.1-1.1,3.1-3.3c0-2.4-1-3.5-2.9-3.5h-19.7c-2.5,0-3.8-1.2-3.8-3.7L1554.7,1349L1554.7,1349z M1581.1,1361.7
			c0-2.1-0.9-3.2-2.8-3.2h-6.3c-2,0-3.1,1-3.1,2.9v4.9c0,2,1,3.1,2.9,3.1h6.2c2,0,3.1-1,3.1-2.9L1581.1,1361.7L1581.1,1361.7z
			 M1581.1,1386.1c0-2-1-3.1-2.9-3.1h-6.2c-2,0-3.1,1-3.1,2.9v6.7c0,2,1,3.1,2.9,3.1h6.2c2,0,3.1-1,3.1-2.9V1386.1z M1607.4,1361.7
			c0-2.1-0.9-3.2-2.8-3.2h-6.2c-2,0-3.1,1-3.1,2.9v4.9c0,2,1,3.1,2.9,3.1h6.1c2,0,3.1-1,3.1-2.9V1361.7z M1607.4,1386.1
			c0-2-1-3.1-2.9-3.1h-6.1c-2,0-3.1,1-3.1,2.9v6.7c0,2,1,3.1,2.9,3.1h6.1c2,0,3.1-1,3.1-2.9V1386.1z"/>
	</g>
	<g>
		<path class="st33" d="M2085.5,1354.6c0-2.4,1.2-3.7,3.7-3.7h93.3c2.5,0,3.8,1.2,3.8,3.7v6.6c0,2.5-1.2,3.8-3.7,3.8H2146
			c-2,0-3.1,1-3.1,2.9v64.5c0,2,1,3.1,2.9,3.1h41.4c2.5,0,3.8,1.2,3.8,3.7v6.6c0,2.5-1.2,3.8-3.7,3.8h-103c-2.5,0-3.8-1.2-3.8-3.7
			v-6.6c0-2.5,1.2-3.8,3.7-3.8h40.6c2,0,3.1-1,3.1-2.9V1368c0-2-1-3.1-2.9-3.1h-35.8c-2.5,0-3.8-1.2-3.8-3.7v-6.6H2085.5z"/>
		<path class="st33" d="M2227.6,1346.4c0.7-2.6,2.2-3.5,4.5-2.8l5.9,1.8c3.1,1,4.3,2.7,3.5,5.2c-1.6,5.5-3.9,11.7-6.7,18.6
			c-0.8,1.8-1.2,3.6-1.2,5.5v76.3c0,2.5-1.2,3.8-3.7,3.8h-6.7c-2.5,0-3.8-1.2-3.8-3.7v-49.7c0-2.1-0.9-1.8-2.8,1
			c-0.1,0.3-0.3,0.7-0.6,1c-2,2.6-3.6,2.7-5,0.2l-3.9-7.1c-1.3-2.4-1.1-4.9,0.5-7.3C2216.3,1375.9,2223,1361.7,2227.6,1346.4z
			 M2255.3,1347c0.8-2.7,2.3-3.8,4.4-3.4l6.5,1.7c3,0.7,4.1,2.4,3.3,4.9c-0.3,1.4-0.8,2.9-1.5,4.5c-0.6,2,0.1,2.9,2.1,2.9h44.1
			c2.5,0,3.8,1.2,3.8,3.7v6.2c0,2.5-1.2,3.8-3.7,3.8h-35.2c-2,0-3.1,1-3.1,2.9v7.7c0,2,1,3.1,2.9,3.1h28.9c2.5,0,3.8,1.2,3.8,3.7
			v6.2c0,2.5-1.2,3.8-3.7,3.8H2279c-2,0-3.1,1-3.1,2.9v8.8c0,2,1,3.1,2.9,3.1h30.3c2.5,0,3.8,1.2,3.8,3.7v6c0,2.5-1.2,3.8-3.7,3.8
			h-30.3c-2,0-3.1,1-3.1,2.9v21.2c0,2.5-1.2,3.8-3.7,3.8h-6.7c-2.5,0-3.8-1.2-3.8-3.7v-77c0-2.7-0.7-2.8-2.2-0.2
			c-2.8,5.6-6.5,11.4-11.2,17.5c-2.1,2.4-4.4,2.4-6.7,0l-3.3-3.7c-2-2.2-1.9-4.6,0.2-7.3C2245.8,1370,2251.4,1358.9,2255.3,1347z"/>
		<path class="st33" d="M2343.7,1344.6c1-2.6,2.6-3.6,4.9-2.9c2,0.4,3.9,0.9,5.9,1.6c2.8,0.9,4.2,1.8,3.9,2.8
			c-0.2,0.9,0.7,1.3,2.7,1.3h21.4c2.5,0,3.8,1.2,3.8,3.7v3.4c0,2.1,0.9,1.9,2.8-0.7c1.9-2.8,3.6-5.6,5.1-8.4
			c1.4-2.8,3.4-3.8,6.1-3.1l5.4,1.6c2.6,0.8,3.8,1.5,3.7,2.2c-0.4,0.9,0.4,1.3,2.3,1.3h26.6c2.5,0,3.8,1.2,3.8,3.7v5.2
			c0,2.5-1.2,3.8-3.7,3.8h-10.5c-2,0-2,0.8,0.1,2.4c1.8,1.7,1.3,3.4-1.5,5l-4.9,2.8c-2.7,1.6-4.9,1.3-6.6-0.9
			c-1.5-2.1-3.1-4.3-5-6.5c-1.7-2-3.4-2.9-5-2.9s-3.3,1.2-5,3.7c-1.1,1.6-2.5,3.4-4,5.2c-1.7,1.5-2.6,2.6-2.6,3.3
			c0.1,0.7,1.1,1,3.1,1h41.3c2.5,0,3.8,1.2,3.8,3.7v15.5c0,2.5-1.2,3.8-3.7,3.8h-6.7c-2.5,0-3.8-1.2-3.8-3.7v-3.5c0-2-1-3.1-2.9-3.1
			h-75.7c-2,0-3.1,1-3.1,2.9v3.5c0,2.5-1.2,3.8-3.7,3.8h-6.7c-2.5,0-3.8-1.2-3.8-3.7v-15.5c0-2.5,1.2-3.8,3.7-3.8h4
			c2.1,0,1.8-1-1-2.9c-1.1-1-2.3-1.8-3.4-2.6c-2.4-1.8-2.7-3.9-0.7-6.3C2337,1357.5,2340.3,1351.8,2343.7,1344.6z M2357.5,1363.4
			c-1.4-2.2-2.5-3.3-3.4-3.3c-1.1,0-2.3,1.2-3.7,3.7c-1.1,2-2.4,4.1-3.9,6.1c-1.5,2.3-1.3,3.4,0.6,3.4h27.7c2,0,3.1-0.8,3.1-2.3
			c0-1.7,1.2-2.6,3.7-2.6h5.7c2.2,0,1.9-1-1-2.9l-1-0.7c-2.3-1.8-3.1-3-2.6-3.5c0.7-0.7,0.1-1.1-1.8-1.1h-6.3c-2,0-2.4,0.8-1.3,2.4
			c1.1,1.6,0.4,3.2-2.1,4.6l-5.1,2.9c-2.5,1.5-4.4,1.1-5.6-1.3C2359.6,1367,2358.6,1365.2,2357.5,1363.4z M2347.7,1394.2
			c0-2.5,1.2-3.8,3.5-3.8h68.7c2.5,0,3.8,1.2,3.8,3.7v20.9c0,2.5-1.2,3.8-3.7,3.8h-55.4c-2,0-3.1,0.8-3.1,2.4c0,1.7,1,2.6,2.9,2.6
			h61.6c2.5,0,3.8,1.2,3.8,3.7v23.7c0,2.5-1.2,3.8-3.7,3.8h-6.5c-2.4,0-3.7-0.4-3.8-1.2c0-0.9-1-1.3-2.9-1.3h-48.5
			c-2,0-3.1,0.5-3.1,1.5c0,1.1-1.2,1.6-3.7,1.6h-6.5c-2.5,0-3.8-1.2-3.8-3.7v-57.7H2347.7z M2409.6,1404.7c-0.1-1.7-1.1-2.6-3.1-2.6
			h-41.9c-2,0-3.1,0.8-3.1,2.4c0,1.7,1,2.6,2.9,2.6h42C2408.6,1407.1,2409.6,1406.3,2409.6,1404.7z M2416.1,1438.2
			c0-2-0.9-2.9-2.8-2.9h-48.6c-2,0-3.1,0.9-3.1,2.7c0,1.9,1,2.8,2.9,2.8h48.5C2415,1440.8,2416.1,1439.9,2416.1,1438.2z"/>
		<path class="st33" d="M2455.6,1351.6c0-2.4,1.2-3.7,3.7-3.7h31.2c2.5,0,3.8,1.2,3.8,3.7v6.2c0,2.5-1.2,3.8-3.7,3.8h-6.2
			c-2,0-3.1,1-3.1,2.9v15.5c0,2,1,3.1,2.9,3.1h3.7c2.5,0,3.8,1.2,3.8,3.7v6.2c0,2.5-1.2,3.8-3.7,3.8h-3.7c-2,0-3.1,1-3.1,2.9v21
			c0,2,1.2,2.7,3.7,2.3l5.2-1.3c2.4-0.7,3.8,0.6,4,3.8l0.5,4.6c0.2,2.4-0.9,4.1-3.5,5c-9.6,2.8-19.4,5.4-29.3,7.6
			c-2.8,0.7-4.5-0.4-5-3.1c-0.5-2.1-0.9-4.3-1.1-6.5c-0.5-2.8,0.6-4.4,3.3-4.9l5.4-1c2-0.5,2.9-1.7,2.9-3.7v-23.8c0-2-1-3.1-2.9-3.1
			h-4.2c-2.5,0-3.8-1.2-3.8-3.7v-6.2c0-2.5,1.2-3.8,3.7-3.8h4.2c2,0,3.1-1,3.1-2.9v-15.5c0-2-1-3.1-2.9-3.1h-5.1
			c-2.5,0-3.8-1.2-3.8-3.7L2455.6,1351.6L2455.6,1351.6z M2497.1,1349c0-2.6,1.1-3.9,3.4-3.9h59.8c2.5,0,3.8,1.2,3.8,3.7v56.9
			c0,2.5-1.2,3.8-3.7,3.8h-19.7c-2,0-3.1,1.1-3.1,3.3c0,2.4,1,3.5,2.9,3.5h19.2c2.5,0,3.8,1.2,3.8,3.7v6.2c0,2.5-1.2,3.8-3.7,3.8
			h-19.2c-2,0-3.1,1-3.1,2.9v3.4c0,2,1,3.1,2.9,3.1h23.4c2.5,0,3.8,1.2,3.8,3.7v6c0,2.5-1.2,3.8-3.7,3.8H2496
			c-2.5,0-3.8-1.2-3.8-3.7v-6c0-2.5,1.2-3.8,3.7-3.8h24.5c2,0,3.1-1,3.1-2.9v-3.4c0-2-1-3.1-2.9-3.1h-20.1c-2.5,0-3.8-1.2-3.8-3.7
			v-6.2c0-2.5,1.2-3.8,3.7-3.8h20.1c2,0,3.1-1.1,3.1-3.3c0-2.4-1-3.5-2.9-3.5H2501c-2.5,0-3.8-1.2-3.8-3.7V1349H2497.1z
			 M2523.5,1361.7c0-2.1-0.9-3.2-2.8-3.2h-6.3c-2,0-3.1,1-3.1,2.9v4.9c0,2,1,3.1,2.9,3.1h6.2c2,0,3.1-1,3.1-2.9L2523.5,1361.7
			L2523.5,1361.7z M2523.5,1386.1c0-2-1-3.1-2.9-3.1h-6.2c-2,0-3.1,1-3.1,2.9v6.7c0,2,1,3.1,2.9,3.1h6.2c2,0,3.1-1,3.1-2.9V1386.1z
			 M2549.8,1361.7c0-2.1-0.9-3.2-2.8-3.2h-6.2c-2,0-3.1,1-3.1,2.9v4.9c0,2,1,3.1,2.9,3.1h6.1c2,0,3.1-1,3.1-2.9V1361.7z
			 M2549.8,1386.1c0-2-1-3.1-2.9-3.1h-6.1c-2,0-3.1,1-3.1,2.9v6.7c0,2,1,3.1,2.9,3.1h6.1c2,0,3.1-1,3.1-2.9V1386.1z"/>
	</g>
	<g>
		<path class="st33" d="M3237.5,1346.7c0-2.4,1.2-3.7,3.7-3.7h6.2c2.5,0,3.8,1.2,3.8,3.7v4c0,2,1,3.1,2.9,3.1h12
			c2.5,0,3.8,1.2,3.8,3.7v5.2c0,2.5-1.2,3.8-3.7,3.8h-12c-2,0-3.1,1-3.1,2.9v2.7c0,2,1,3.1,2.9,3.1h14.3c2.5,0,3.8,1.2,3.8,3.7v5.4
			c0,2.5-1,3.8-2.9,3.8c-2,0-3.5,1.2-4.4,3.7c-0.5,1.9-1.1,3.7-2,5.6c-0.7,2,0.3,2.9,2.9,2.9c2.7,0,4,1.2,4,3.7v5.2
			c0,2.5-1.2,3.8-3.7,3.8h-12c-2,0-3.1,1.3-3.1,3.8c0,2.7,1,4,2.9,4h14.3c2.5,0,3.8,1.2,3.8,3.7v5.2c0,2.5-1.2,3.8-3.7,3.8h-14.3
			c-2,0-3.1,1-3.1,2.9v14.8c0,2.5-1.2,3.8-3.7,3.8h-6.2c-2.5,0-3.8-1.2-3.8-3.7v-14.8c0-2-1-3.1-2.9-3.1h-13.8
			c-2.5,0-3.8-1.2-3.8-3.7v-5.2c0-2.5,1.2-3.8,3.7-3.8h13.8c2,0,3.1-1.3,3.1-3.8c0-2.7-1-4-2.9-4h-11.2c-2.5,0-3.8-1.2-3.8-3.7v-5.2
			c0-2.5,1.2-3.8,3.7-3.8s3.3-1.2,2.7-3.7l-0.9-2.4c-1.1-2.4-0.9-4,0.5-4.6c1.5-1,1.1-1.5-1.2-1.5h-4c-2.5,0-3.8-1.2-3.8-3.7v-5.4
			c0-2.5,1.2-3.8,3.7-3.8h14.3c2,0,3.1-1,3.1-2.9v-2.7c0-2-1-3.1-2.9-3.1h-11.2c-2.5,0-3.8-1.2-3.8-3.7v-5.2c0-2.5,1.2-3.8,3.7-3.8
			h11.2c2,0,3.1-1,3.1-2.9L3237.5,1346.7L3237.5,1346.7z M3250.9,1391c0.6-2-0.1-3.1-2.1-3.1h-9.5c-2,0-2.4,1.2-1.3,3.7l1.1,2.4
			c0.8,2.4,0.5,4-1,4.8c-2,0.9-1.8,1.3,0.7,1.3h5.9c2,0,3.4-1.2,4.4-3.7L3250.9,1391z M3274.1,1349.5c0-2.6,1.1-3.9,3.4-3.9h43.7
			c2.5,0,3.8,1.2,3.8,3.7v23.2c-0.2,3.6-1.6,6.8-4.3,9.8c-1,1-2.6,1.8-4.9,2.6c-2,0.7-5.7,0.9-11.1,0.6c-2.5,0-4-1.3-4.5-3.8l-1.2-6
			c-0.6-2.8,0.5-3.9,3.2-3.5c3.9,1.1,6.5,0.4,7.8-2.1c0.2-2.8,0.3-5.6,0.2-8.4c0-2-1-3.1-2.9-3.1h-16.5c-2,0-3.1,1-3.1,2.9v24
			c0,2,1,3.1,2.9,3.1h33c2.5,0,3.8,1.2,3.8,3.7c0.2,4.2,0,7.2-0.6,8.8c-2.6,11.4-5.7,20.5-9.2,27.3c-1.1,2-0.4,4.2,2,6.8
			c1.5,1.7,3.1,3.3,4.8,4.6c2.9,2.4,3.3,4.8,1.2,7.3l-3.3,4c-2.2,2.7-4.5,3-7,0.9c-1.9-1.8-3.6-3.6-5.2-5.4c-1.5-2-3.3-1.8-5.4,0.4
			c-1.6,1.8-4.1,3.8-7.3,6c-2.7,1.5-4.7,1.1-6.1-1.3l-1-2.1c-1.7-2.7-2.6-2.8-2.6-0.4v2.3c0,2.5-1.2,3.8-3.7,3.8h-6.2
			c-2.5,0-3.8-1.2-3.8-3.7v-102.1H3274.1z M3289.4,1404.3c-0.4-2.2-0.7-3.3-1-3.3c-0.4,0.2-0.6,1.2-0.6,3.2v34.2
			c0,2,1.3,2.2,3.8,0.6c1.7-1.2,3.5-2.8,5.5-4.6c1.6-2,1.8-4.2,0.5-6.6C3294.1,1421.1,3291.4,1413.3,3289.4,1404.3z M3312.1,1404.3
			c0.6-2.2,0-3.3-1.8-3.3h-5.5c-2,0-2.7,1.2-2.2,3.7c0.9,3.4,2.1,6.8,3.5,10.3c1,2.2,2,2,2.9-0.5L3312.1,1404.3z"/>
		<path class="st33" d="M3390.5,1345.9c0-2.6,1.2-3.9,3.5-3.9h7.8c2.5,0,3.8,1.2,3.8,3.7v7.6c0,2,1,3.1,2.9,3.1h32.8
			c2.5,0,3.8,1.2,3.8,3.7v6.6c0,2.5-1.2,3.8-3.7,3.8h-32.8c-2,0-3.1,1-3.1,2.9v8.7c0,2,1,3.1,2.9,3.1h40.2c2.5,0,3.8,1.2,3.8,3.7
			v6.7c0,2.5-1.2,3.8-3.7,3.8h-103c-2.5,0-3.8-1.2-3.8-3.7v-6.7c0-2.5,1.2-3.8,3.7-3.8h41.7c2,0,3.1-1,3.1-2.9v-8.7
			c0-2-1-3.1-2.9-3.1h-19.8c-2,0-3.7,1.2-5.2,3.7c-1.1,2-2.5,4.1-4,6.1c-1.8,2.4-3.9,2.8-6.3,1l-4.9-3.8c-2.4-1.8-2.7-3.9-1-6.5
			c4.9-7.1,8.8-14.8,11.7-23.2c0.8-2.4,2.4-3.3,4.9-2.6l6.1,2.1c3.1,1.1,4.2,2.8,3.3,5.4c-0.7,2.5-0.1,3.8,1.8,3.8h13.3
			c2,0,3.1-1,3.1-2.9L3390.5,1345.9L3390.5,1345.9z M3353.4,1409.9c0-2.6,1.1-3.9,3.4-3.9h82.2c2.5,0,3.8,1.2,3.8,3.7v41.9
			c0,2.5-1.2,3.8-3.7,3.8h-7.2c-2.5,0-3.8-0.9-3.8-2.6c0-1.9-1-2.8-2.9-2.8h-54.3c-2,0-3.1,0.9-3.1,2.6c0,1.9-1.2,2.8-3.7,2.8h-7
			c-2.5,0-3.8-1.2-3.8-3.7v-41.8H3353.4z M3428.1,1422.7c0-2-1-3.1-2.9-3.1h-54.3c-2,0-3.1,1-3.1,2.9v10.6c0,2,1,3.1,2.9,3.1h54.3
			c2,0,3.1-1,3.1-2.9V1422.7z"/>
	</g>
	<g>
		<path class="st33" d="M4303.3,1345.9c2.7-2.3,5.1-2.5,7.3-0.7c1.1,0.8,2.3,1.8,3.4,2.8c2.2,2,2.1,4.1-0.4,6.3l-6.2,4.8
			c-2.3,1.5-2.4,2.8-0.4,4c2,1.1,4.3,0.8,6.7-0.7c2.1-1.5,4.2-3.1,6.3-5c2.4-2.4,4.8-2.7,7.2-0.9l3.8,3.1c2.5,2,2.6,4.1,0.4,6.3
			l-4.5,3.5c-2,1.4-1.8,2.6,0.7,3.7l6,2.4c3.2,1.1,4.1,2.9,2.7,5.4c-1.1,1.8-2.2,3.6-3.1,5.4c-1.4,2.6-3.3,3.5-5.6,2.6l-8.1-3.5
			c-2.1-1.1-3.2-0.7-3.2,1.2v3.1c0,4,1.7,5.2,5,3.7c0.2-0.3,0.5-1.1,0.7-2.3c0.2-1.3,1.5-1.4,3.9-0.4l4.8,2.2c3.2,1.5,4.6,3.5,4.2,6
			c-0.3,1.3-0.9,2.6-1.6,3.9c-1.2,2-3.6,3.1-7.1,3.4c-7.3,0.5-12.7,0.3-16-0.5c-4.5-1.2-6.8-3.7-7-7.4c-0.5-2.4-0.7-4.8-0.6-7.2
			c0-2-1-3.1-2.9-3.1h-3.1c-2,0-3.2,1.2-3.7,3.7c-0.7,6.3-3.9,11.3-9.4,14.8c-2,1.5-1.8,2.2,0.6,2.2h42.1c2.5,0,3.8,1.2,3.8,3.7
			c0.5,4,0,6.8-1.3,8.5c-2.4,4.3-5.5,8.5-9.2,12.6c-2,2-1.7,3.3,0.9,4.2l10.9,2.6c3.1,0.5,4.2,2,3.2,4.5l-2.4,6.3
			c-1.1,2.6-2.8,3.7-5.2,3.2c-7.2-1.4-14.1-3.7-20.9-7c-1.7-0.9-3.9-0.7-6.6,0.6c-5.6,2.8-11.9,5.1-18.8,6.7
			c-2.4,0.6-4.3-0.3-5.6-2.7c-1-1.6-1.8-3.3-2.6-4.9c-1.6-2.9-1.1-4.6,1.6-5c5-1,9.8-2.3,14.4-3.9c2-0.8,1.8-2.5-0.4-5
			c-2.8-3.5-4.8-6.5-6.2-9c-1.2-2-2.7-2.9-4.5-2.9c-1.9,0-2.8-1.2-2.8-3.7v-5c0-2.4,0.4-3.7,1.1-3.8c0.8,0,0.5-1.3-0.9-3.8l-1.3-2.6
			c-1.4-2.2-2.1-2-2.1,0.5v3.8c0,2.5-1.2,3.8-3.7,3.8h-19.5c-2,0-3.1,1.1-3.5,3.2c-0.2,2.2,0.7,3.3,2.7,3.3h22
			c2.4,0,3.6,1.2,3.5,3.7c-0.8,12.6-2.9,22-6.3,28.1c-5.2,5.9-12.7,7.9-22.3,5.7l-1.5-0.1c-2.5-0.6-4.1-2.1-4.6-4.5
			c-0.7-2.4-1.3-4.7-1.8-7.1s0.5-3.5,2.9-3.1c4.7,1,9.8,1,15.3,0.1c2.4-1.5,3.9-3.7,4.4-6.7c0.5-2.3-0.2-3.4-2-3.4h-11.2
			c-2,0-3.1,0.4-3.2,1.2c-0.2,0.7-1.5,1.1-3.9,1.1h-6.2c-2.4,0-3.5-1.2-3.3-3.7l2.9-25.6c0.5-3.1,2-4.6,4.4-4.6h18.6
			c2,0,3.1-1.3,3.1-3.9c0-2.8-1-4.2-2.9-4.2h-5.6c-2.4,0-3.7-0.4-3.8-1.1c0-0.7-1.3-0.6-3.8,0.5c-3.4,1.4-6.9,2.6-10.4,3.7
			c-2.8,0.6-4.7-0.4-5.9-3.1l-1-2.4c-1.2-3.1-0.6-5,2-5.9c3.3-1.1,6.8-2.4,10.4-3.9c1.8-0.8,1.4-2.6-1.1-5.2
			c-2.5-2.4-2.2-4.6,1.1-6.8l3.8-2.7c2.6-1.7,5-1.6,7.3,0.2l2.6,2.2c2,2,4.2,2,6.6,0.1c2.1-1.5,4.2-3.4,6.3-5.6c2-2,2-3.1,0-3.1
			h-29.8c-2.5,0-3.8-1.2-3.8-3.7v-5.4c0-2.5,1.2-3.8,3.7-3.8h47.2c2.5,0,3.8,0.8,3.8,2.3s1.1,3.2,3.4,5c2.3,1.6,4.7,1.7,7.2,0.2
			C4298.7,1349.6,4301.3,1347.7,4303.3,1345.9z M4284.3,1363.6c-2.4-1.7-4.5-1.5-6.3,0.6c-4.2,4.5-8.1,8-11.6,10.6
			c-2.3,1.6-2.4,2.4-0.2,2.4h1.6c2.5,0,3.8,1.2,3.8,3.7v12.6c0,2,1.3,2.3,3.8,0.7c3.7-3.4,5.4-8.6,5.1-15.5c0.2-2.4,1.5-3.7,3.9-3.7
			h12.7c2.5,0,2.8-0.8,0.7-2.3C4293.3,1370,4288.8,1366.9,4284.3,1363.6z M4310.9,1424.1c1.7-2,1.5-3.1-0.5-3.1h-12.2
			c-2,0-1.8,1.3,0.6,3.9l2.1,2.1c2.3,1.8,4.8,1.7,7.4-0.4L4310.9,1424.1z"/>
		<path class="st33" d="M4350.1,1419.2c0-2.6,1.2-3.9,3.5-3.9h103.1c2.5,0,3.8,1.2,3.8,3.7v5.7c0,2.5-1.2,3.8-3.7,3.8H4416
			c-2,0-3.1,1-3.1,2.9c0.1,3.9,0,7.8-0.2,11.7c-0.2,3.6-1.6,6.5-4.2,8.9c-5,2.6-10.6,3.4-16.6,2.4c-2.4-0.9-3.9-2.6-4.4-5l-1.1-6.5
			c-0.6-2.8,0.6-3.7,3.4-2.6c1.6,0.5,3.3,0.8,4.9,0.9c2.2,0.6,3.6-0.8,4.3-4v-5.7c0-2-1-3.1-2.9-3.1h-42.4c-2.4,0-3.7-1.2-3.7-3.7
			v-5.5H4350.1z M4350.6,1348.4c0-2.5,1.2-3.8,3.7-3.8h101.3c2.5,0,3.8,1.2,3.8,3.7v5.5c0,2.5-1.2,3.8-3.7,3.8h-27.3
			c-2,0-3.1,0.7-3.1,2.2s1,2.3,2.9,2.3h21.2c2.5,0,3.8,1.2,3.8,3.7v25.6c0,2.5-1.2,3.8-3.7,3.8h-88.3c-2.5,0-3.8-1.2-3.8-3.7v-25.6
			c0-2.5,1.2-3.8,3.7-3.8h20.6c2,0,3.1-0.7,3.1-2.2s-1-2.3-2.9-2.3h-27.7c-2.4,0-3.7-1.2-3.7-3.7v-5.5H4350.6z M4369,1432.3
			c2.7-1.5,5.2-1.3,7.4,0.6l3.4,2.7c2.5,2.1,2.6,4.1,0.2,5.9c-4.7,3.3-11.2,6.5-19.5,9.9c-2.6,1-4.7,0.2-6.2-2.2l-2.6-4.6
			c-1.9-3.1-1.5-5,1.1-5.7C4358.8,1437,4364.1,1434.9,4369,1432.3z M4363.9,1402.6c0-2.6,1.1-3.9,3.4-3.9h76.8
			c2.5,0,3.8,1.2,3.8,3.7v5.1c0,2.5-1.2,3.8-3.7,3.8h-76.5c-2.5,0-3.8-1.2-3.8-3.7L4363.9,1402.6L4363.9,1402.6z M4384.9,1378.8
			c0-2.4-1-3.7-2.9-3.7h-7.2c-2,0-3.1,1.1-3.1,3.4c0,2.4,1,3.7,2.9,3.7h7.2C4383.9,1382.2,4384.9,1381.1,4384.9,1378.8z
			 M4411.6,1359.9c0-1.5-1-2.3-2.9-2.3h-7.1c-2,0-3.1,0.7-3.1,2.2s1,2.3,2.9,2.3h7.1C4410.6,1362.1,4411.6,1361.3,4411.6,1359.9z
			 M4411.6,1378.8c0-2.4-1-3.7-2.9-3.7h-7.1c-2,0-3.1,1.1-3.1,3.4c0,2.4,1,3.7,2.9,3.7h7.1
			C4410.6,1382.2,4411.6,1381.1,4411.6,1378.8z M4429,1433.6c2.1-1.8,4.3-2.2,6.5-1.1c5.8,2.6,12.1,4.9,18.9,6.8
			c2.4,0.6,3,2.1,1.7,4.5c-1.3,2-2.5,4.1-3.5,6.1c-1.5,2.6-3.4,3.5-5.7,2.8c-6.9-2.4-14.2-6-21.7-10.7c-2.3-1.6-2.2-3.5,0.2-5.5
			L4429,1433.6z M4439,1378.8c0-2.4-1-3.7-2.9-3.7h-7.7c-2,0-3.1,1.1-3.1,3.4c0,2.4,1,3.7,2.9,3.7h7.7
			C4437.9,1382.2,4439,1381.1,4439,1378.8z"/>
	</g>
	<g>
		<path class="st33" d="M5189.4,1345c2.8-2.5,5.4-2.8,7.8-1l3.7,2.9c2.5,2,3.4,3.4,2.7,4.2s0.2,2,2.7,3.8c12.2,8.3,26,15.3,41.5,21
			c2.5,0.9,3.1,2.5,1.8,4.9l-4,7c-1.5,2.4-3.5,3.1-6.2,2l-6.1-2.9c-2-0.9-2.9-0.1-2.9,2.3c0,2.5-1.2,3.8-3.7,3.8h-66.3
			c-2.5,0-3.8-1.2-3.8-3.5c0-2.5-1.3-3.1-3.8-1.7l-5.7,2.9c-2.4,1.2-4.4,0.5-6-2.1l-3.4-6.1c-1.3-2.4-0.7-4.2,1.7-5.2
			C5156.4,1369.8,5173.1,1359.1,5189.4,1345z M5149.2,1406.5c0-2.5,1.2-3.8,3.7-3.8h80.3c2.5,0,3.8,1.2,3.8,3.7v44.7
			c0,2.5-1.2,3.8-3.7,3.8h-7c-2.5,0-3.8-0.9-3.8-2.8c0-2-1-3.1-2.9-3.1h-52.9c-2,0-3.1,0.9-3.1,2.8c0,2-1.2,3.1-3.7,3.1h-7.2
			c-2.4,0-3.7-1.2-3.7-3.7v-44.7H5149.2z M5222.5,1419.2c0-2-1-3.1-2.9-3.1h-52.9c-2,0-3.1,1-3.1,2.9v13.3c0,2,1,3.1,2.9,3.1h52.9
			c2,0,3.1-1,3.1-2.9V1419.2z M5196.5,1364.3c-2.7-2-5.2-2.1-7.6-0.1c-5.2,4.5-11,8.7-17.5,12.6c-2,1.4-2.8,2.2-2.4,2.3l3.3,0.1
			h42.1c2.6,0,2.8-0.7,0.7-2.2C5208,1372.4,5201.7,1368.2,5196.5,1364.3z"/>
		<path class="st33" d="M5284.2,1346.4c0.7-2.6,2.2-3.5,4.5-2.8l5.9,1.8c3.1,1,4.3,2.7,3.5,5.2c-1.6,5.5-3.9,11.7-6.7,18.6
			c-0.8,1.8-1.2,3.6-1.2,5.5v76.3c0,2.5-1.2,3.8-3.7,3.8h-6.7c-2.5,0-3.8-1.2-3.8-3.7v-49.7c0-2.1-0.9-1.8-2.8,1
			c-0.1,0.3-0.3,0.7-0.6,1c-2,2.6-3.6,2.7-5,0.2l-3.9-7.1c-1.3-2.4-1.1-4.9,0.5-7.3C5272.9,1375.9,5279.6,1361.7,5284.2,1346.4z
			 M5311.9,1347c0.8-2.7,2.3-3.8,4.4-3.4l6.5,1.7c3,0.7,4.1,2.4,3.3,4.9c-0.3,1.4-0.8,2.9-1.5,4.5c-0.6,2,0.1,2.9,2.1,2.9h44.1
			c2.5,0,3.8,1.2,3.8,3.7v6.2c0,2.5-1.2,3.8-3.7,3.8h-35.2c-2,0-3.1,1-3.1,2.9v7.7c0,2,1,3.1,2.9,3.1h28.9c2.5,0,3.8,1.2,3.8,3.7
			v6.2c0,2.5-1.2,3.8-3.7,3.8h-28.9c-2,0-3.1,1-3.1,2.9v8.8c0,2,1,3.1,2.9,3.1h30.3c2.5,0,3.8,1.2,3.8,3.7v6c0,2.5-1.2,3.8-3.7,3.8
			h-30.3c-2,0-3.1,1-3.1,2.9v21.2c0,2.5-1.2,3.8-3.7,3.8h-6.7c-2.5,0-3.8-1.2-3.8-3.7v-77c0-2.7-0.7-2.8-2.2-0.2
			c-2.8,5.6-6.5,11.4-11.2,17.5c-2.1,2.4-4.4,2.4-6.7,0l-3.3-3.7c-2-2.2-1.9-4.6,0.2-7.3C5302.4,1370,5308,1358.9,5311.9,1347z"/>
	</g>
	<g>
		<path class="st33" d="M5991.5,1346.4c0-2.6,1.1-3.9,3.4-3.9h7c2.5,0,3.8,1.2,3.8,3.7v11.5c0,2,1,3.1,2.9,3.1h7.9
			c2.5,0,3.8,1.2,3.8,3.7v6c0,2.5-1.2,3.8-3.7,3.8h-7.9c-2,0-3.1,1-3.1,2.9v10.3c0,2,1,3.1,2.9,3.1h8.9c2.5,0,3.8,1.2,3.8,3.7v6.2
			c0,2.5-1.2,3.8-3.7,3.8h-9.3c-2,0-3,0.4-3.2,1.2c-0.2,1.1,0.8,2.5,3.2,4.3c4.6,3.5,9,7.7,13.3,12.5c2,2.4,2,4.8,0,7.3l-3.1,3.8
			c-2.4,2.9-4.8,3.1-7,0.5c-2-2.4-4.3-4.8-6.7-7.2c-2-2-3.3-1.7-4.2,0.7c-2.4,8.2-6.3,16.4-12,24.7c-2.1,2.7-4.3,3.2-6.5,1.5
			l-4.6-3.7c-2.4-2-2.8-4.3-1-6.7c8-11.1,12.6-22.9,13.8-35.4c0.2-2.3-0.5-3.4-2.2-3.4h-8.7c-2.5,0-3.8-1.2-3.8-3.7v-6.2
			c0-2.5,1.2-3.8,3.7-3.8h8.9c2,0,3.1-1,3.1-2.9v-10.3c0-2-1-3.1-2.9-3.1h-7.3c-2.5,0-3.8-1.2-3.8-3.7v-6c0-2.5,1.2-3.8,3.7-3.8h7.3
			c2,0,3.1-1,3.1-2.9v-11.6H5991.5z M6024.4,1349.5c0-2.6,1.1-3.9,3.4-3.9h49.9c2.5,0,3.8,1.2,3.8,3.7v64.7c0,2.5-1.2,3.8-3.7,3.8
			h-6.5c-2,0-3.1,1-3.1,2.9v17.8c0.3,1.9,1.3,2.6,3.1,2.3c1,0.4,2.2,0,3.5-1.1c0.7-0.8,1.2-2.6,1.3-5.4c0.2-2.8,1.7-3.4,4.4-2l4,2.2
			c3.1,1.8,4.4,3.9,3.9,6.5c-0.6,4-1.9,7.4-4,10.1c-1,0.9-2.2,1.5-3.5,1.8c-8.5,1.7-15.7,1.2-21.9-1.6c-2.8-2.4-4.4-5.8-4.6-10.1
			v-20.5c0-2-1.1-3.1-3.3-3.1c-2.3,0-3.6,1.2-3.9,3.7c-0.7,11.2-8,21.5-21.7,30.8c-3.1,1.8-5.5,1.4-7.2-1.1l-2.7-3.9
			c-2.2-3.1-2-5.3,0.6-6.7c9.3-5.5,15-11.9,17.1-19.3c0.5-2.3-0.2-3.4-2-3.4h-3.3c-2.5,0-3.8-1.2-3.8-3.7v-64.5H6024.4z
			 M6067.8,1361.7c0-2.4-1-3.7-2.9-3.7h-24c-2,0-3.1,1.1-3.1,3.4c0,2.4,1,3.7,2.9,3.7h24C6066.8,1365.1,6067.8,1364,6067.8,1361.7z
			 M6067.8,1381.7c0-2.7-1-4-2.9-4h-24c-2,0-3.1,1.3-3.1,3.8c0,2.7,1,4,2.9,4h24C6066.8,1385.5,6067.8,1384.2,6067.8,1381.7z
			 M6067.8,1401.7c0-2.4-0.9-3.5-2.8-3.5h-24.2c-2,0-3.1,1.1-3.1,3.3c0,2.4,1,3.5,2.9,3.5h24
			C6066.8,1405,6067.8,1403.9,6067.8,1401.7z"/>
		<path class="st33" d="M6127.4,1343.6c0-1.5,1.2-2.2,3.5-2.2h6.1c2.5,0,3.8,0.7,3.8,2c0,1.5,1,2.2,2.9,2.2h16.8
			c2.5,0,3.8,1.2,3.8,3.7v5c0,2,1.2,3.1,3.5,3.1c2.4,0,3.7,1.2,3.7,3.7v2.2c0,2.5-1.2,3.8-3.5,3.8c-2.4,0-3.7,1-3.7,2.9v4.9
			c0,2.5-1.2,3.8-3.7,3.8h-16.8c-2,0-3,0.4-3.1,1.2c0,1,1,1.5,2.9,1.5h19.7c2.5,0,3.8,1.2,3.8,3.7v1.6c0,2.5-1.2,3.8-3.7,3.8h-19.7
			c-2,0-3,0.4-3.1,1.2c0,1,1,1.5,2.9,1.5h24c2.5,0,3.8,1.2,3.8,3.7v2.2c0,2.5-1.2,3.8-3.7,3.8h-64.7c-2.5,0-3.8-1.2-3.8-3.7v-2.2
			c0-2.5,1.2-3.8,3.7-3.8h21.2c2,0,3-0.4,3.1-1.2c0-1-1-1.5-2.9-1.5h-17.3c-2.5,0-3.8-1.2-3.8-3.7v-1.6c0-2.5,1.2-3.8,3.7-3.8h17.3
			c2,0,3-0.4,3.1-1.2c0-1-1-1.5-2.9-1.5h-15.9c-2.5,0-3.8-1.2-3.8-3.7v-1.7c0-2.5,1.2-3.8,3.7-3.8h15.9c2,0,3-0.4,3.1-1.2
			c-0.1-0.8-1.1-1.2-3.1-1.2h-21.1c-2.5,0-3.8-1.2-3.8-3.7v-2.2c0-2.5,1.2-3.8,3.7-3.8h21.2c2,0,3-0.4,3.1-1.2c0-0.9-1-1.3-2.9-1.3
			h-15.9c-2.5,0-3.8-1.2-3.8-3.7v-1.7c0-2.5,1.2-3.8,3.7-3.8h15.9C6126.4,1345.6,6127.4,1344.9,6127.4,1343.6z M6100,1443.2
			c21.9-0.7,43.8-1.6,65.7-2.7c2.7-0.2,4.2,1.2,4.5,4l0.4,2.6c0.3,2.4-0.7,3.8-3.2,4c-19.9,1.5-40.5,2.6-61.8,3.5
			c-2.7,0.1-4.3-1.1-4.9-3.5l-0.6-3.9C6099.7,1444.6,6099.6,1443.2,6100,1443.2z M6103.3,1408.8c0-2.5,1.2-3.8,3.5-3.8h55.2
			c2.5,0,3.8,1.2,3.8,3.7v26.7c0,2.5-1.2,3.8-3.7,3.8H6107c-2.5,0-3.8-1.2-3.8-3.7v-26.7H6103.3z M6128.4,1416.4
			c0-1.1-1-1.6-2.9-1.6h-7c-2,0-3.1,0.5-3.1,1.5c0,1.1,1,1.6,2.9,1.6h7C6127.3,1417.8,6128.4,1417.4,6128.4,1416.4z M6128.4,1428.2
			c-0.1-1.2-1-1.8-2.7-1.8h-7.2c-2,0-3.1,0.5-3.1,1.5c0,1.1,1,1.7,2.9,1.7h7C6127.3,1429.6,6128.3,1429.1,6128.4,1428.2z
			 M6153.8,1416.4c0-1.1-1-1.6-2.9-1.6h-7.4c-2,0-3.1,0.5-3.1,1.5c0,1.1,1,1.6,2.9,1.6h7.4
			C6152.7,1417.8,6153.8,1417.4,6153.8,1416.4z M6153.8,1428.2c-0.1-1.2-1-1.8-2.7-1.8h-7.7c-2,0-3.1,0.5-3.1,1.5
			c0,1.1,1,1.7,2.9,1.7h7.4C6152.7,1429.6,6153.7,1429.1,6153.8,1428.2z M6151.7,1356.2c0-1-0.9-1.5-2.8-1.5h-5c-2,0-3,0.4-3.1,1.2
			c0,0.9,1,1.3,2.9,1.3h4.9C6150.6,1357.3,6151.6,1356.9,6151.7,1356.2z M6151.6,1368.3c0-0.9-0.9-1.3-2.8-1.3h-4.9
			c-2,0-3,0.4-3.1,1.2c0.1,0.8,1.1,1.2,3.1,1.2h4.8C6150.6,1369.4,6151.6,1369,6151.6,1368.3z M6174.8,1355.7c0-2.6,1.1-3.9,3.4-3.9
			h6.2c2.5,0,3.8,1.2,3.8,3.7v69.7c0,2.5-1.2,3.8-3.7,3.8h-6c-2.5,0-3.8-1.2-3.8-3.7v-69.6H6174.8z M6195.3,1346.7
			c0-2.4,1.2-3.7,3.7-3.7h6c2.5,0,3.8,1.2,3.8,3.7v93.5c-0.2,3.7-0.9,7-2.3,9.8c-4.5,4.8-11.2,6.2-20.1,4.3
			c-2.6-0.7-4.1-2.5-4.5-5.5l-0.7-4.9c-0.6-3,0.4-4.2,3.1-3.4c3.3,0.8,6.2,1,8.9,0.6c1.5-0.7,2.3-2.4,2.3-5.2v-89.2H6195.3z"/>
	</g>
</g>
<g id="Header">
	<rect x="1937" y="36" class="st75" width="2808" height="440"/>
	<g class="st76">
		<path class="st33" d="M2597.9,111.7c-1.8,3.7-4,6.2-6.4,7.8c-2.4,1.5-5.3,2.2-8.6,2.2c-3.3,0-7.1-1.3-11.2-3.9
			c-4.2-2.6-9.1-5.5-14.8-8.6c-5.7-3.2-12.3-6-19.9-8.6c-7.6-2.6-16.5-3.9-26.9-3.9c-9.3,0-17.5,1.1-24.4,3.4
			c-6.9,2.2-12.8,5.4-17.5,9.4s-8.3,8.8-10.6,14.4c-2.3,5.6-3.5,11.7-3.5,18.4c0,8.5,2.4,15.6,7.1,21.2c4.8,5.7,11,10.5,18.9,14.5
			c7.8,4,16.8,7.6,26.8,10.8c10,3.2,20.2,6.5,30.6,10.1c10.4,3.6,20.6,7.8,30.6,12.5s18.9,10.8,26.8,18c7.8,7.2,14.1,16.1,18.9,26.6
			s7.1,23.2,7.1,38.2c0,16.3-2.8,31.6-8.4,45.9c-5.6,14.2-13.8,26.7-24.5,37.2c-10.8,10.6-23.9,18.9-39.4,25s-33.2,9.1-53.2,9.1
			c-11.5,0-22.8-1.1-34-3.4c-11.2-2.2-21.9-5.5-32.1-9.6c-10.2-4.2-19.8-9.2-28.8-15c-8.9-5.8-16.9-12.3-23.9-19.5l19.5-32.2
			c1.8-2.3,4-4.3,6.6-5.9c2.6-1.6,5.5-2.4,8.6-2.4c4.2,0,8.7,1.7,13.5,5.1c4.8,3.4,10.5,7.2,17.1,11.4c6.6,4.2,14.3,8,23.2,11.4
			c8.9,3.4,19.6,5.1,32.1,5.1c19.2,0,34-4.5,44.5-13.6c10.5-9.1,15.8-22.1,15.8-39.1c0-9.5-2.4-17.2-7.1-23.2s-11-11-18.9-15.1
			c-7.8-4.1-16.8-7.5-26.8-10.4c-10-2.8-20.2-5.9-30.5-9.2c-10.3-3.3-20.5-7.3-30.5-12c-10-4.7-18.9-10.8-26.8-18.2
			c-7.8-7.5-14.1-16.9-18.9-28.1s-7.1-25.1-7.1-41.6c0-13.2,2.6-26,7.9-38.5s12.9-23.6,23-33.2c10.1-9.7,22.5-17.4,37.1-23.2
			c14.7-5.8,31.4-8.8,50.2-8.8c21.3,0,41,3.3,59,10c18,6.7,33.3,16,46,28L2597.9,111.7z"/>
		<path class="st33" d="M2900.4,46v53.5h-160.2v100.2h126.2v51.8h-126.2v102.2h160.2v53.8h-228V46H2900.4z"/>
		<path class="st33" d="M3001.4,46.4c2,0.2,3.8,0.8,5.4,1.5c1.6,0.8,3.1,1.8,4.6,3.2c1.5,1.4,3.2,3.3,5,5.6l189.8,241.8
			c-0.7-5.8-1.1-11.5-1.4-17.1c-0.2-5.6-0.4-10.8-0.4-15.6V46h59.2v361.5h-34.7c-5.3,0-9.8-0.8-13.2-2.5c-3.5-1.7-6.9-4.7-10.2-9
			l-189-240.8c0.5,5.3,0.9,10.6,1.1,15.9s0.4,10,0.4,14.4v222h-59.2V46h35.2C2996.9,46,2999.4,46.1,3001.4,46.4z"/>
		<path class="st33" d="M3591.4,46v55.2h-108.8v306.2h-67.2V101.2h-109.2V46H3591.4z"/>
		<path class="st33" d="M3703.6,266.2v141.2h-67.2V46h110.2c24.7,0,45.8,2.5,63.4,7.6c17.6,5.1,32,12.2,43.2,21.4
			c11.2,9.2,19.5,20.1,24.8,32.9s7.9,26.8,7.9,42.1c0,12.2-1.8,23.7-5.4,34.5c-3.6,10.8-8.8,20.7-15.5,29.5
			c-6.8,8.8-15.1,16.6-25,23.2c-9.9,6.7-21.2,12-33.9,16c8.5,4.8,15.8,11.8,22,20.8l90.5,133.5h-60.5c-5.8,0-10.8-1.2-14.9-3.5
			c-4.1-2.3-7.5-5.7-10.4-10l-76-115.8c-2.8-4.3-6-7.4-9.4-9.2c-3.4-1.8-8.5-2.8-15.1-2.8H3703.6z M3703.6,218h42
			c12.7,0,23.7-1.6,33.1-4.8c9.4-3.2,17.2-7.5,23.2-13.1c6.1-5.6,10.6-12.2,13.6-19.9c3-7.7,4.5-16.1,4.5-25.2
			c0-18.3-6-32.4-18.1-42.2c-12.1-9.8-30.5-14.8-55.4-14.8h-43V218z"/>
		<path class="st33" d="M4063.9,46v35h-41v115.8h-42.8V81h-40.8V46H4063.9z M4165.1,116.2c1.3,3,2.5,6,3.6,8.9
			c1.1,2.9,2,5.9,2.9,8.9c1-3,2.1-6,3.2-9c1.2-3,2.5-5.9,4-8.8l33.2-63.8c1.7-3.2,3.5-5,5.5-5.6c2-0.6,4.8-0.9,8.2-0.9h36.8v150.8
			h-37.5v-75.5l2.8-24.8l-38.2,75.5c-3.2,6.2-8,9.2-14.5,9.2h-6c-6.8,0-11.8-3.1-14.8-9.2l-37.8-74.2l2.8,23.5v75.5h-37.5V46h36.8
			c3.7,0,6.5,0.2,8.4,0.8c1.9,0.5,3.7,2.4,5.4,5.8L4165.1,116.2z"/>
	</g>
</g>
</svg>
