<svg width="198" height="45" viewBox="0 0 198 45" fill="none" xmlns="http://www.w3.org/2000/svg">
<path d="M28.288 15.436C28.288 15.696 28.964 16.216 29.276 16.216C30.212 16.216 40.04 8.468 40.04 4.36C40.04 2.436 38.532 0.199998 35.464 0.199998C23.348 0.199998 0 15.592 0 25.472C0 27.864 2.652 29.632 5.044 29.632C10.088 29.632 19.76 24.848 24.232 24.848C26.312 24.848 27.04 26.148 27.04 27.5C27.04 28.228 26.884 28.956 26.572 29.736C17.628 32.076 5.772 37.744 5.772 41.644C5.772 43.672 7.904 44.764 9.516 44.764C14.768 44.764 28.132 35.352 29.952 29.996C31.304 29.84 32.656 29.736 34.06 29.736C34.268 29.736 34.372 29.684 34.372 29.528C34.372 29.32 33.904 28.696 33.176 28.696C32.292 28.696 31.252 28.8 30.16 29.008C30.16 26.564 27.612 24.12 24.908 24.12C19.292 24.12 12.064 28.384 6.084 28.384C4.316 28.384 3.276 27.188 3.276 25.888C3.276 16.944 25.584 2.28 36.972 2.28C38.584 2.28 39.312 3.424 39.312 4.568C39.312 7.584 33.02 13.044 28.548 15.176C28.392 15.228 28.288 15.332 28.288 15.436ZM9.724 44.14C8.58 44.14 8.008 43.412 8.008 42.684C8.008 38.108 16.536 32.7 26.26 30.568C23.4 36.652 13.572 44.14 9.724 44.14ZM53.8391 28.592C53.9951 28.436 54.4111 28.072 54.4111 27.968C54.4111 27.916 54.3071 27.76 54.2031 27.76C54.0471 27.76 53.8391 27.968 53.8391 27.968C53.8391 27.968 49.0031 32.752 46.3511 32.752C45.8831 32.752 45.5711 32.44 45.5711 31.816C45.5711 29.632 49.6791 26.304 49.6791 24.796C49.6791 23.288 47.4951 21.884 46.8191 21.884C45.6751 21.884 37.8751 26.824 35.4311 31.608C35.5351 30.568 35.8991 29.268 36.4711 27.864C38.7071 25.68 52.1231 14.656 52.1231 9.612C52.1231 8.624 50.7711 7.48 49.5231 7.48C44.5831 7.48 32.6751 23.912 32.6751 33.792C32.6751 34.676 33.5071 35.768 34.1831 35.768C34.4951 35.768 34.7551 34.572 35.7951 32.44C38.3951 27.292 45.4671 22.82 46.6111 22.82C46.8711 22.82 46.9751 22.976 46.9751 23.132C46.9751 23.444 43.3351 26.98 43.3351 30.776C43.3351 32.076 45.1031 33.584 46.0911 33.584C48.8991 33.584 53.8391 28.592 53.8391 28.592ZM51.1351 9.976C51.1351 14.24 38.3431 25.212 36.9391 26.668C40.0071 19.388 46.9231 9.508 50.7191 9.508C50.9791 9.508 51.1351 9.664 51.1351 9.976ZM73.3281 28.592C73.4841 28.436 73.8481 28.072 73.8481 27.968C73.8481 27.916 73.7961 27.76 73.6401 27.76C73.5361 27.76 73.4321 27.864 73.3281 27.968C73.3281 27.968 68.3881 32.908 65.8401 32.908C65.2161 32.908 64.6961 32.596 64.6961 31.92C64.6961 30.308 66.9841 28.592 66.9841 27.968C66.9841 27.136 65.5801 25.784 65.1121 25.784C64.6441 25.784 63.5001 26.824 61.9401 28.384C59.4441 30.88 55.7001 34.468 54.7121 34.468C54.2441 34.468 54.0361 34.208 54.0361 33.792C54.0361 30.204 60.7961 22.924 65.6841 22.924C66.0481 22.924 66.6201 23.392 66.6201 23.756C66.6201 24.38 66.3601 24.536 66.3601 24.744C66.3601 24.952 66.6721 25.264 66.8281 25.264C66.9841 25.264 67.2441 24.744 67.2441 23.912C67.2441 22.768 65.2681 20.948 63.2401 20.948C58.7681 20.948 51.6961 28.124 51.6961 32.284C51.6961 33.896 53.5161 35.3 54.7121 35.3C55.9081 35.3 59.5481 31.556 62.1481 29.008C62.1481 29.008 61.9921 29.892 61.9921 30.88C61.9921 32.856 63.4481 34 65.1121 34C68.0241 34 73.3281 28.592 73.3281 28.592ZM76.7601 21.156C76.5001 21.156 76.2401 21.208 76.2401 21.624C75.5121 25.628 70.2081 31.972 70.2081 33.012C70.2081 34.104 71.0921 35.404 71.6121 35.404C72.0801 35.404 72.4961 32.856 75.8241 29.788C78.6841 27.136 82.6881 25.16 83.2601 25.16C83.3641 25.16 83.4161 25.212 83.4161 25.264C83.4161 25.628 80.9721 28.904 80.9721 31.192C80.9721 32.908 82.6361 34.52 83.9361 34.52C86.6921 34.52 92.6721 28.592 92.6721 28.592C92.6721 28.592 93.2441 28.072 93.2441 27.968C93.2441 27.916 93.1401 27.76 92.9841 27.76C92.8801 27.76 92.6721 27.968 92.6721 27.968C92.6721 27.968 87.1081 33.48 83.9361 33.48C83.5201 33.48 83.2081 33.272 83.2081 32.804C83.2081 30.048 87.1601 26.148 87.1601 25.576C87.1601 24.9 86.5361 23.392 85.7041 23.392C83.7281 23.392 78.1641 27.084 76.2401 28.592C77.3841 26.616 78.7881 24.64 78.7881 23.704C78.7881 22.352 77.2801 21.156 76.7601 21.156ZM94.5478 27.968C96.1078 24.172 98.3958 22.144 99.2798 22.144C99.5398 22.144 99.6958 22.3 99.6958 22.716C99.6958 23.912 96.8878 26.408 94.5478 27.968ZM96.6798 33.22C95.2758 33.22 94.3398 32.024 94.3398 30.256C94.3398 29.892 94.3918 28.956 94.4958 28.644C97.3558 26.876 100.788 24.12 100.788 22.664C100.788 22.04 99.9038 20.272 98.4998 20.272C96.2118 20.272 91.5318 25.16 91.5318 29.84C91.5318 32.544 93.4558 34.208 95.5878 34.208C97.7198 34.208 98.9158 32.908 99.9558 31.868C100.32 31.504 100.476 31.244 100.476 31.088C100.476 30.984 100.372 30.88 100.268 30.88C100.164 30.88 100.008 31.036 99.7478 31.296C98.9158 32.076 97.7718 33.22 96.6798 33.22ZM111.617 40.344C111.617 40.552 111.721 40.812 111.929 40.812C112.033 40.812 112.137 40.708 112.137 40.552C112.137 38.056 117.389 35.352 124.149 34.572C121.237 38.732 118.013 41.592 113.905 41.592C113.697 41.592 113.593 41.696 113.593 41.852C113.593 42.008 113.905 42.112 114.321 42.112C119.157 42.112 122.953 38.94 126.333 34.416C126.905 34.364 127.425 34.364 127.997 34.364C137.565 34.364 144.689 40.5 145.053 40.5C145.625 40.5 147.081 37.848 147.081 37.38C147.081 36.6 139.073 33.272 130.337 33.272C129.193 33.272 128.153 33.324 127.061 33.428C135.277 21.728 141.309 2.228 154.153 2.228C154.881 2.228 155.401 2.332 155.713 2.592C154.049 4.36 151.657 6.908 151.657 9.456C151.657 9.664 151.761 9.872 151.917 9.872C152.073 9.872 152.125 9.716 152.177 9.56C153.009 5.4 159.301 3.684 159.301 2.488C159.301 1.968 157.793 0.199998 157.481 0.199998C157.325 0.199998 157.273 0.304 157.273 0.407999C157.273 0.875999 156.753 1.5 156.025 2.28C155.765 1.708 154.361 0.199998 151.761 0.199998C138.189 0.199998 132.677 21.624 124.825 33.636C117.181 34.624 111.617 37.588 111.617 40.344ZM152.45 20.792C152.19 20.792 151.982 21 151.826 21.312C150.838 23.756 146.314 29.528 146.314 31.816C146.314 33.48 147.978 34.676 148.81 34.676C152.19 34.676 158.534 28.592 158.534 28.592C158.69 28.436 159.106 28.072 159.106 27.968C159.106 27.916 159.002 27.76 158.898 27.76C158.742 27.76 158.534 27.968 158.534 27.968C158.534 27.968 152.502 33.688 149.538 33.688C149.07 33.688 148.706 33.428 148.706 32.804C148.706 30.568 154.634 23.86 154.634 22.924C154.634 21.988 153.49 20.792 152.45 20.792ZM157.598 11.328C157.494 11.328 157.39 11.38 157.39 11.536C157.39 12.784 155.414 15.384 155.414 16.632C155.414 16.84 155.57 16.944 155.726 16.944C155.934 16.944 156.246 16.372 157.234 16.06C157.702 15.904 158.378 15.696 158.69 15.54C159.106 15.332 159.782 14.24 159.782 13.876C159.782 13.148 158.43 11.328 157.598 11.328ZM162.647 21.312C162.335 21.312 162.231 21.416 162.231 21.676C162.231 23.756 156.719 29.008 156.719 32.544C156.719 34.468 158.591 35.612 159.631 35.612C161.347 35.612 167.483 27.864 168.315 27.864C168.471 27.864 168.523 27.968 168.523 28.02C168.523 28.748 168.003 29.632 168.003 30.932C168.003 32.7 169.303 33.376 170.447 33.376C173.567 33.376 178.507 28.592 178.507 28.592C178.663 28.436 179.079 28.072 179.079 27.968C179.079 27.916 178.975 27.76 178.871 27.76C178.715 27.76 178.507 27.968 178.507 27.968C178.507 27.968 173.775 32.44 171.331 32.44C170.863 32.44 170.655 32.232 170.655 31.868C170.655 30.516 172.423 28.176 172.423 27.292C172.423 26.46 171.487 25.108 170.759 25.108C168.991 25.108 161.659 34.572 159.735 34.572C159.475 34.572 159.267 34.312 159.267 34.052C159.267 31.556 164.727 25.628 164.727 24.224C164.727 22.82 163.427 21.312 162.647 21.312ZM181.772 21.364C181.772 24.38 177.144 28.28 177.144 31.556C177.144 33.532 178.756 34.988 180.056 34.988C181.616 34.988 186.816 28.176 186.816 28.176C186.816 28.176 186.608 29.58 186.608 30.152C186.608 32.18 188.116 33.376 189.936 33.376C192.9 33.376 197.424 26.096 197.424 22.352C197.424 20.428 195.864 19.596 195.344 19.596C195.24 19.596 195.188 19.648 195.188 19.752C195.188 20.116 195.76 20.48 195.76 22.768C195.76 26.408 192.796 32.7 190.04 32.7C189.468 32.7 189 32.232 189 31.452C189 29.736 190.664 27.708 190.664 26.876C190.664 25.992 188.896 24.796 188.532 24.796C188.116 24.796 187.7 25.888 186.764 27.136C184.06 31.192 180.576 34.26 179.692 34.26C179.432 34.26 179.224 34.052 179.224 33.74C179.224 30.36 184.112 25.732 184.112 23.496C184.112 22.144 182.968 21 182.188 21C181.876 21 181.772 21.104 181.772 21.364Z" fill="#00225D"/>
</svg>
