<svg width="145" height="33" viewBox="0 0 145 33" fill="none" xmlns="http://www.w3.org/2000/svg">
<path d="M21.1603 11.434C21.1603 11.624 21.6543 12.004 21.8823 12.004C22.5663 12.004 29.7483 6.342 29.7483 3.34C29.7483 1.934 28.6463 0.299999 26.4043 0.299999C17.5503 0.299999 0.488281 11.548 0.488281 18.768C0.488281 20.516 2.42628 21.808 4.17428 21.808C7.86028 21.808 14.9283 18.312 18.1963 18.312C19.7163 18.312 20.2483 19.262 20.2483 20.25C20.2483 20.782 20.1343 21.314 19.9063 21.884C13.3703 23.594 4.70628 27.736 4.70628 30.586C4.70628 32.068 6.26428 32.866 7.44228 32.866C11.2803 32.866 21.0463 25.988 22.3763 22.074C23.3643 21.96 24.3523 21.884 25.3783 21.884C25.5303 21.884 25.6063 21.846 25.6063 21.732C25.6063 21.58 25.2643 21.124 24.7323 21.124C24.0863 21.124 23.3263 21.2 22.5283 21.352C22.5283 19.566 20.6663 17.78 18.6903 17.78C14.5863 17.78 9.30428 20.896 4.93428 20.896C3.64228 20.896 2.88228 20.022 2.88228 19.072C2.88228 12.536 19.1843 1.82 27.5063 1.82C28.6843 1.82 29.2163 2.656 29.2163 3.492C29.2163 5.696 24.6183 9.686 21.3503 11.244C21.2363 11.282 21.1603 11.358 21.1603 11.434ZM7.59428 32.41C6.75828 32.41 6.34028 31.878 6.34028 31.346C6.34028 28.002 12.5723 24.05 19.6783 22.492C17.5883 26.938 10.4063 32.41 7.59428 32.41ZM39.8322 21.048C39.9462 20.934 40.2502 20.668 40.2502 20.592C40.2502 20.554 40.1742 20.44 40.0982 20.44C39.9842 20.44 39.8322 20.592 39.8322 20.592C39.8322 20.592 36.2982 24.088 34.3602 24.088C34.0182 24.088 33.7902 23.86 33.7902 23.404C33.7902 21.808 36.7922 19.376 36.7922 18.274C36.7922 17.172 35.1962 16.146 34.7022 16.146C33.8662 16.146 28.1662 19.756 26.3802 23.252C26.4562 22.492 26.7222 21.542 27.1402 20.516C28.7742 18.92 38.5782 10.864 38.5782 7.178C38.5782 6.456 37.5902 5.62 36.6782 5.62C33.0682 5.62 24.3662 17.628 24.3662 24.848C24.3662 25.494 24.9742 26.292 25.4682 26.292C25.6962 26.292 25.8862 25.418 26.6462 23.86C28.5462 20.098 33.7142 16.83 34.5502 16.83C34.7402 16.83 34.8162 16.944 34.8162 17.058C34.8162 17.286 32.1562 19.87 32.1562 22.644C32.1562 23.594 33.4482 24.696 34.1702 24.696C36.2222 24.696 39.8322 21.048 39.8322 21.048ZM37.8562 7.444C37.8562 10.56 28.5082 18.578 27.4822 19.642C29.7242 14.322 34.7782 7.102 37.5522 7.102C37.7422 7.102 37.8562 7.216 37.8562 7.444ZM54.0742 21.048C54.1882 20.934 54.4542 20.668 54.4542 20.592C54.4542 20.554 54.4162 20.44 54.3022 20.44C54.2262 20.44 54.1502 20.516 54.0742 20.592C54.0742 20.592 50.4642 24.202 48.6022 24.202C48.1462 24.202 47.7662 23.974 47.7662 23.48C47.7662 22.302 49.4382 21.048 49.4382 20.592C49.4382 19.984 48.4122 18.996 48.0702 18.996C47.7282 18.996 46.8922 19.756 45.7522 20.896C43.9282 22.72 41.1922 25.342 40.4702 25.342C40.1282 25.342 39.9762 25.152 39.9762 24.848C39.9762 22.226 44.9162 16.906 48.4882 16.906C48.7542 16.906 49.1722 17.248 49.1722 17.514C49.1722 17.97 48.9822 18.084 48.9822 18.236C48.9822 18.388 49.2102 18.616 49.3242 18.616C49.4382 18.616 49.6282 18.236 49.6282 17.628C49.6282 16.792 48.1842 15.462 46.7022 15.462C43.4342 15.462 38.2662 20.706 38.2662 23.746C38.2662 24.924 39.5962 25.95 40.4702 25.95C41.3442 25.95 44.0042 23.214 45.9042 21.352C45.9042 21.352 45.7902 21.998 45.7902 22.72C45.7902 24.164 46.8542 25 48.0702 25C50.1982 25 54.0742 21.048 54.0742 21.048ZM56.5822 15.614C56.3922 15.614 56.2022 15.652 56.2022 15.956C55.6702 18.882 51.7942 23.518 51.7942 24.278C51.7942 25.076 52.4402 26.026 52.8202 26.026C53.1622 26.026 53.4662 24.164 55.8982 21.922C57.9882 19.984 60.9142 18.54 61.3322 18.54C61.4082 18.54 61.4462 18.578 61.4462 18.616C61.4462 18.882 59.6602 21.276 59.6602 22.948C59.6602 24.202 60.8762 25.38 61.8262 25.38C63.8402 25.38 68.2102 21.048 68.2102 21.048C68.2102 21.048 68.6282 20.668 68.6282 20.592C68.6282 20.554 68.5522 20.44 68.4382 20.44C68.3622 20.44 68.2102 20.592 68.2102 20.592C68.2102 20.592 64.1442 24.62 61.8262 24.62C61.5222 24.62 61.2942 24.468 61.2942 24.126C61.2942 22.112 64.1822 19.262 64.1822 18.844C64.1822 18.35 63.7262 17.248 63.1182 17.248C61.6742 17.248 57.6082 19.946 56.2022 21.048C57.0382 19.604 58.0642 18.16 58.0642 17.476C58.0642 16.488 56.9622 15.614 56.5822 15.614ZM69.5809 20.592C70.7209 17.818 72.3929 16.336 73.0389 16.336C73.2289 16.336 73.3429 16.45 73.3429 16.754C73.3429 17.628 71.2909 19.452 69.5809 20.592ZM71.1389 24.43C70.1129 24.43 69.4289 23.556 69.4289 22.264C69.4289 21.998 69.4669 21.314 69.5429 21.086C71.6329 19.794 74.1409 17.78 74.1409 16.716C74.1409 16.26 73.4949 14.968 72.4689 14.968C70.7969 14.968 67.3769 18.54 67.3769 21.96C67.3769 23.936 68.7829 25.152 70.3409 25.152C71.8989 25.152 72.7729 24.202 73.5329 23.442C73.7989 23.176 73.9129 22.986 73.9129 22.872C73.9129 22.796 73.8369 22.72 73.7609 22.72C73.6849 22.72 73.5709 22.834 73.3809 23.024C72.7729 23.594 71.9369 24.43 71.1389 24.43ZM82.0547 29.636C82.0547 29.788 82.1307 29.978 82.2827 29.978C82.3587 29.978 82.4347 29.902 82.4347 29.788C82.4347 27.964 86.2727 25.988 91.2127 25.418C89.0847 28.458 86.7287 30.548 83.7267 30.548C83.5747 30.548 83.4987 30.624 83.4987 30.738C83.4987 30.852 83.7267 30.928 84.0307 30.928C87.5647 30.928 90.3387 28.61 92.8087 25.304C93.2267 25.266 93.6067 25.266 94.0247 25.266C101.017 25.266 106.223 29.75 106.489 29.75C106.907 29.75 107.971 27.812 107.971 27.47C107.971 26.9 102.119 24.468 95.7347 24.468C94.8987 24.468 94.1387 24.506 93.3407 24.582C99.3447 16.032 103.753 1.782 113.139 1.782C113.671 1.782 114.051 1.858 114.279 2.048C113.063 3.34 111.315 5.202 111.315 7.064C111.315 7.216 111.391 7.368 111.505 7.368C111.619 7.368 111.657 7.254 111.695 7.14C112.303 4.1 116.901 2.846 116.901 1.972C116.901 1.592 115.799 0.299999 115.571 0.299999C115.457 0.299999 115.419 0.376 115.419 0.451999C115.419 0.793999 115.039 1.25 114.507 1.82C114.317 1.402 113.291 0.299999 111.391 0.299999C101.473 0.299999 97.4447 15.956 91.7067 24.734C86.1207 25.456 82.0547 27.622 82.0547 29.636ZM111.894 15.348C111.704 15.348 111.552 15.5 111.438 15.728C110.716 17.514 107.41 21.732 107.41 23.404C107.41 24.62 108.626 25.494 109.234 25.494C111.704 25.494 116.34 21.048 116.34 21.048C116.454 20.934 116.758 20.668 116.758 20.592C116.758 20.554 116.682 20.44 116.606 20.44C116.492 20.44 116.34 20.592 116.34 20.592C116.34 20.592 111.932 24.772 109.766 24.772C109.424 24.772 109.158 24.582 109.158 24.126C109.158 22.492 113.49 17.59 113.49 16.906C113.49 16.222 112.654 15.348 111.894 15.348ZM115.656 8.432C115.58 8.432 115.504 8.47 115.504 8.584C115.504 9.496 114.06 11.396 114.06 12.308C114.06 12.46 114.174 12.536 114.288 12.536C114.44 12.536 114.668 12.118 115.39 11.89C115.732 11.776 116.226 11.624 116.454 11.51C116.758 11.358 117.252 10.56 117.252 10.294C117.252 9.762 116.264 8.432 115.656 8.432ZM119.346 15.728C119.118 15.728 119.042 15.804 119.042 15.994C119.042 17.514 115.014 21.352 115.014 23.936C115.014 25.342 116.382 26.178 117.142 26.178C118.396 26.178 122.88 20.516 123.488 20.516C123.602 20.516 123.64 20.592 123.64 20.63C123.64 21.162 123.26 21.808 123.26 22.758C123.26 24.05 124.21 24.544 125.046 24.544C127.326 24.544 130.936 21.048 130.936 21.048C131.05 20.934 131.354 20.668 131.354 20.592C131.354 20.554 131.278 20.44 131.202 20.44C131.088 20.44 130.936 20.592 130.936 20.592C130.936 20.592 127.478 23.86 125.692 23.86C125.35 23.86 125.198 23.708 125.198 23.442C125.198 22.454 126.49 20.744 126.49 20.098C126.49 19.49 125.806 18.502 125.274 18.502C123.982 18.502 118.624 25.418 117.218 25.418C117.028 25.418 116.876 25.228 116.876 25.038C116.876 23.214 120.866 18.882 120.866 17.856C120.866 16.83 119.916 15.728 119.346 15.728ZM133.322 15.766C133.322 17.97 129.94 20.82 129.94 23.214C129.94 24.658 131.118 25.722 132.068 25.722C133.208 25.722 137.008 20.744 137.008 20.744C137.008 20.744 136.856 21.77 136.856 22.188C136.856 23.67 137.958 24.544 139.288 24.544C141.454 24.544 144.76 19.224 144.76 16.488C144.76 15.082 143.62 14.474 143.24 14.474C143.164 14.474 143.126 14.512 143.126 14.588C143.126 14.854 143.544 15.12 143.544 16.792C143.544 19.452 141.378 24.05 139.364 24.05C138.946 24.05 138.604 23.708 138.604 23.138C138.604 21.884 139.82 20.402 139.82 19.794C139.82 19.148 138.528 18.274 138.262 18.274C137.958 18.274 137.654 19.072 136.97 19.984C134.994 22.948 132.448 25.19 131.802 25.19C131.612 25.19 131.46 25.038 131.46 24.81C131.46 22.34 135.032 18.958 135.032 17.324C135.032 16.336 134.196 15.5 133.626 15.5C133.398 15.5 133.322 15.576 133.322 15.766Z" fill="#00225D"/>
</svg>
