<svg width="74" height="56" viewBox="0 0 74 56" fill="none" xmlns="http://www.w3.org/2000/svg">
<path fill-rule="evenodd" clip-rule="evenodd" d="M15.9082 27.907H17.2499C20.8915 27.907 24.1658 29.2603 27.0727 31.967C29.9796 34.6737 31.4331 38.0492 31.4331 42.0937C31.4331 46.0759 29.9796 49.3581 27.0727 51.9403C24.1658 54.5226 20.5721 55.8137 16.2915 55.8137C11.6277 55.8137 7.74648 53.9937 4.64788 50.3537C1.54928 46.7137 0 41.5337 0 34.8137C0 28.6536 1.35761 22.8826 4.07289 17.5003C6.78816 12.1181 10.1103 7.8559 14.0395 4.71367C17.9686 1.57143 21.4665 0.000332605 24.5331 0.000332605C26.5776 0.000332605 28.1748 0.591438 29.3248 1.77367C30.4748 2.95589 31.0498 4.48032 31.0498 6.347C31.0498 9.08479 29.804 11.107 27.3123 12.4137C23.9262 14.2181 21.2429 16.3337 19.2624 18.7603C17.2818 21.187 16.1638 24.2359 15.9082 27.907ZM58.2663 27.9067H59.5121C63.0899 27.9067 66.3322 29.26 69.2391 31.9667C72.1461 34.6733 73.5995 38.0489 73.5995 42.0933C73.5995 46.0134 72.1461 49.3111 69.2391 51.9867C66.3322 54.6622 62.7385 56 58.458 56C53.7302 56 49.833 54.1334 46.7664 50.4C43.6997 46.6666 42.1664 41.4711 42.1664 34.8133C42.1664 30.0222 42.965 25.5111 44.5622 21.28C46.1595 17.0489 48.2198 13.3622 50.7434 10.22C53.267 7.07776 55.9823 4.5889 58.8892 2.75333C61.7961 0.917769 64.3996 0 66.6996 0C68.8079 0 70.4211 0.57555 71.5391 1.72667C72.6572 2.87778 73.2162 4.41777 73.2162 6.34667C73.2162 9.14668 71.9704 11.1689 69.4787 12.4133C65.9648 14.3422 63.3135 16.4733 61.5246 18.8067C59.7357 21.14 58.6496 24.1733 58.2663 27.9067Z" fill="#427FE0"/>
</svg>
