<?xml version="1.0" encoding="UTF-8"?>
<svg width="447px" height="447px" viewBox="0 0 447 447" version="1.1" xmlns="http://www.w3.org/2000/svg" xmlns:xlink="http://www.w3.org/1999/xlink">
    <!-- Generator: sketchtool 59.1 (101010) - https://sketch.com -->
    <title>B11C6788-08F6-4260-B5A4-BA309013949F</title>
    <desc>Created with sketchtool.</desc>
    <defs>
        <linearGradient x1="46.7060004%" y1="-48.5963542%" x2="50.824924%" y2="29.7356771%" id="linearGradient-1">
            <stop stop-color="#80C3F3" offset="0%"></stop>
            <stop stop-color="#4A90E2" offset="100%"></stop>
        </linearGradient>
        <linearGradient x1="46.7239269%" y1="-48.5963542%" x2="50.8204347%" y2="29.7356771%" id="linearGradient-2">
            <stop stop-color="#80C3F3" offset="0%"></stop>
            <stop stop-color="#4A90E2" offset="100%"></stop>
        </linearGradient>
    </defs>
    <g id="Website" stroke="none" stroke-width="1" fill="none" fill-rule="evenodd">
        <g id="Organic-Social-Media" transform="translate(-187.000000, -4215.000000)" fill-rule="nonzero">
            <g id="img_analytics" transform="translate(187.000000, 4215.000000)">
                <path d="M97.6511057,266 C96.7223587,266 96,265.368421 96,264.736842 L96,157.263158 C96,156.526316 96.7223587,156 97.6511057,156 L136.348894,156 C137.277641,156 138,156.526316 138,157.263158 L138,264.736842 C138,265.473684 137.277641,266 136.348894,266 L97.6511057,266 Z" id="Path" fill="#FF5254"></path>
                <path d="M160.651106,266 C159.825553,266 159.103194,264.73726 159,263.47452 L159,109.52548 C159,108.052283 159.722359,107 160.651106,107 L199.348894,107 C200.277641,107 201,108.052283 201,109.52548 L201,263.47452 C201,264.947717 200.277641,266 199.348894,266 L160.651106,266 Z" id="Path" fill="#FF5254"></path>
                <path d="M222.651106,265 C221.722359,265 221,264.477534 221,263.955068 L221,166.044932 C221,165.417973 221.722359,165 222.651106,165 L261.348894,165 C262.277641,165 263,165.417973 263,166.044932 L263,263.850575 C263,264.477534 262.277641,264.895507 261.348894,264.895507 L222.651106,264.895507 L222.651106,265 Z" id="Path" fill="#FF5254"></path>
                <path d="M93,123.75673 C93,136.633101 103.469314,147.206381 116.451264,147.206381 C129.32852,147.206381 139.902527,136.737787 139.902527,123.75673 C139.902527,120.511466 139.274368,117.370887 138.018051,114.544367 L165.971119,92.2462612 C170.054152,95.7008973 175.288809,97.8993021 181.046931,97.8993021 C185.967509,97.8993021 190.574007,96.329013 194.34296,93.7118644 L223.028881,121.453639 C221.249097,124.803589 220.097473,128.572283 220.097473,132.550349 C220.097473,145.42672 230.566787,156 243.548736,156 C256.425993,156 267,145.531406 267,132.550349 C267,119.673978 256.530686,109.100698 243.548736,109.100698 C239.256318,109.100698 235.277978,110.356929 231.823105,112.345962 L202.509025,83.9760718 C203.870036,81.0448654 204.602888,77.7996012 204.602888,74.449651 C204.602888,61.5732802 194.133574,51 181.151625,51 C168.274368,51 157.700361,61.4685942 157.700361,74.449651 C157.700361,77.0667996 158.223827,79.4745763 158.956679,81.777667 L130.166065,104.808574 C126.292419,101.982054 121.581227,100.307079 116.451264,100.307079 C103.469314,100.307079 93,110.775673 93,123.75673 Z M229.833935,132.550349 C229.833935,125.012961 235.906137,118.941176 243.444043,118.941176 C250.981949,118.941176 257.054152,125.012961 257.054152,132.550349 C257.054152,140.087737 250.981949,146.159521 243.444043,146.159521 C235.906137,146.159521 229.833935,140.087737 229.833935,132.550349 Z M167.436823,74.449651 C167.436823,66.9122632 173.509025,60.8404786 181.046931,60.8404786 C188.584838,60.8404786 194.65704,66.9122632 194.65704,74.449651 C194.65704,81.9870389 188.584838,88.0588235 181.046931,88.0588235 C173.509025,88.0588235 167.436823,81.9870389 167.436823,74.449651 Z M102.841155,123.75673 C102.841155,116.219342 108.913357,110.147557 116.451264,110.147557 C123.98917,110.147557 130.061372,116.219342 130.061372,123.75673 C130.061372,131.294118 123.98917,137.365902 116.451264,137.365902 C108.913357,137.365902 102.841155,131.294118 102.841155,123.75673 Z" id="Shape" fill="#427FE0"></path>
                <path d="M94.2574197,277 L264.74258,277 C265.37129,277 266,277.507812 266,278.21875 L266,288.78125 C266,289.390625 265.476075,290 264.74258,290 L94.2574197,290 C93.6287099,290 93,289.492188 93,288.78125 L93,278.21875 C93,277.507812 93.6287099,277 94.2574197,277 Z" id="Path" fill="#427FE0"></path>
                <polygon id="Path" fill="url(#linearGradient-1)" points="433 382.860795 383.034188 433 322 372.139205 371.860399 322"></polygon>
                <path d="M442.93985,392.509934 C448.353383,397.913907 448.353383,406.708609 442.93985,412.112583 L412.050862,442.94702 C406.637329,448.350993 397.827068,448.350993 392.413534,442.94702 L387,437.543046 L437.31402,387 L442.93985,392.509934 Z" id="Path" fill="url(#linearGradient-1)"></path>
                <path d="M53.0224287,309.820183 C87.262531,344.128073 132.706581,363.01315 181.082506,363.01315 C225.793587,363.01315 268.096344,346.855918 301.184638,317.269297 L319.299432,335.419954 L311.760327,342.973985 C306.420128,348.324757 306.420128,357.032876 311.760327,362.383648 L316.367558,367 L366,316.954545 L361.497479,312.44311 C356.157279,307.092338 347.466367,307.092338 342.126167,312.44311 L334.587062,319.997141 L316.472268,301.846484 C346.00043,268.587764 362.125738,226.306175 362.125738,181.506575 C362.125738,133.034877 343.277975,87.5008576 309.037873,53.1929674 C274.79777,18.8850772 229.35372,0 180.977796,0 C132.601871,0 87.1578212,18.8850772 52.9177189,53.1929674 C-17.6566816,123.90709 -17.6566816,239.001144 53.0224287,309.820183 Z M24.541365,181.506575 C24.541365,139.644654 40.7713829,100.195826 70.4042543,70.6092053 C131.450064,9.44253859 230.714947,9.44253859 291.760757,70.6092053 C352.806566,131.775872 352.806566,231.237278 291.760757,292.403945 C261.290207,322.93482 221.186356,338.252716 181.082506,338.252716 C140.978655,338.252716 100.874804,322.93482 70.4042543,292.403945 C40.8760927,262.817324 24.541365,223.473413 24.541365,181.506575 Z" id="Shape" fill="url(#linearGradient-2)"></path>
            </g>
        </g>
    </g>
</svg>