<?xml version="1.0" encoding="UTF-8"?>
<svg width="526px" height="361px" viewBox="0 0 526 361" version="1.1" xmlns="http://www.w3.org/2000/svg" xmlns:xlink="http://www.w3.org/1999/xlink">
    <!-- Generator: sketchtool 59.1 (101010) - https://sketch.com -->
    <title>9C408142-8140-4587-8673-D1FCFC04CD01</title>
    <desc>Created with sketchtool.</desc>
    <g id="Website" stroke="none" stroke-width="1" fill="none" fill-rule="evenodd">
        <g id="Social---LinkedIn-Ads" transform="translate(-145.000000, -1829.000000)" fill-rule="nonzero">
            <g id="img_network" transform="translate(145.000000, 1829.000000)">
                <g id="Group" transform="translate(183.000000, 116.000000)" fill="#FF5254">
                    <ellipse id="Oval" transform="translate(80.449273, 68.127972) rotate(-87.154215) translate(-80.449273, -68.127972) " cx="80.4492731" cy="68.1279719" rx="25.3406468" ry="25.3774196"></ellipse>
                    <path d="M80.5,0 C36.4933333,0 0.613333333,35.7511962 0.613333333,79.7703349 C0.613333333,123.712919 36.4166667,159.54067 80.5,159.54067 C124.506667,159.54067 160.386667,123.789474 160.386667,79.7703349 C160.31,35.7511962 124.506667,0 80.5,0 Z M122.436667,125.397129 L122.436667,121.569378 C122.436667,108.401914 111.703333,97.6842105 98.5166667,97.6842105 L62.4833333,97.6842105 C49.2966667,97.6842105 38.5633333,108.401914 38.5633333,121.569378 L38.5633333,125.397129 C26.1433333,114.066986 18.4,97.7607656 18.4,79.6937799 C18.4,45.4736842 46.23,17.6842105 80.5,17.6842105 C114.77,17.6842105 142.6,45.4736842 142.6,79.6937799 C142.6,97.7607656 134.78,114.066986 122.436667,125.397129 Z" id="Shape"></path>
                </g>
                <g id="Group" transform="translate(356.000000, 100.000000)" fill="#427FE0">
                    <path d="M44.4226087,26.6315789 C37.8443478,26.6315789 32.5817391,31.9578947 32.5817391,38.4421053 C32.5817391,45.0035088 37.9217391,50.2526316 44.4226087,50.2526316 C51.0008696,50.2526316 56.2634783,44.9263158 56.2634783,38.4421053 C56.2634783,31.8807018 50.9234783,26.6315789 44.4226087,26.6315789 Z" id="Path"></path>
                    <path d="M44.4226087,0 C20.1991304,0 0.464347826,19.6842105 0.464347826,43.845614 C0.464347826,68.0070175 20.1991304,87.6912281 44.4226087,87.6912281 C68.646087,87.6912281 88.3808696,68.0070175 88.3808696,43.845614 C88.3808696,19.6842105 68.5686957,0 44.4226087,0 Z M64.0026087,70.554386 L64.0026087,63.3754386 C64.0026087,57.2 58.9721739,52.2596491 52.8582609,52.2596491 L35.9869565,52.2596491 C29.7956522,52.2596491 24.8426087,57.277193 24.8426087,63.3754386 L24.8426087,70.554386 C16.6391304,64.5333333 11.2991304,54.8070175 11.2991304,43.845614 C11.2991304,25.5508772 26.1582609,10.7298246 44.5,10.7298246 C62.8417391,10.7298246 77.7008696,25.5508772 77.7008696,43.845614 C77.546087,54.8070175 72.206087,64.5333333 64.0026087,70.554386 Z" id="Shape"></path>
                </g>
                <g id="Group" transform="translate(334.000000, 257.000000)" fill="#427FE0">
                    <path d="M52.8088235,30.2823529 C44.625,30.2823529 37.9852941,36.8588235 37.9852941,44.9647059 C37.9852941,53.0705882 44.625,59.6470588 52.8088235,59.6470588 C60.9926471,59.6470588 67.6323529,53.0705882 67.6323529,44.9647059 C67.6323529,36.8588235 60.9926471,30.2823529 52.8088235,30.2823529 Z" id="Path"></path>
                    <path d="M52.8088235,0 C24.0110294,0 0.617647059,23.1705882 0.617647059,51.6941176 C0.617647059,80.2176471 24.0110294,103.388235 52.8088235,103.388235 C81.6066176,103.388235 105,80.2176471 105,51.6941176 C105,23.1705882 81.6066176,0 52.8088235,0 Z M77.2830882,84.8058824 L77.2830882,75.9352941 C77.2830882,68.2882353 71.0294118,62.0941176 63.3088235,62.0941176 L42.2316176,62.0941176 C34.5110294,62.0941176 28.2573529,68.2882353 28.2573529,75.9352941 L28.2573529,84.8058824 C17.9889706,77.3117647 11.2720588,65.3058824 11.2720588,51.6941176 C11.2720588,28.9823529 29.8014706,10.6294118 52.7316176,10.6294118 C75.6617647,10.6294118 94.1918426,28.9823529 94.1918426,51.6941176 C94.2683824,65.3058824 87.6286765,77.3117647 77.2830882,84.8058824 Z" id="Shape"></path>
                </g>
                <g id="Group" transform="translate(454.000000, 179.000000)" fill="#427FE0">
                    <path d="M36.1531915,23.2085106 C31.2510638,23.2085106 27.2680851,27.1914894 27.2680851,32.093617 C27.2680851,36.9957447 31.2510638,40.9787234 36.1531915,40.9787234 C41.0553191,40.9787234 45.0382979,36.9957447 45.0382979,32.093617 C45.0382979,27.1914894 41.0553191,23.2085106 36.1531915,23.2085106 Z" id="Path"></path>
                    <path d="M36.1531915,0.689361702 C16.6212766,0.689361702 0.689361702,16.6212766 0.689361702,36.1531915 C0.689361702,55.6851064 16.6212766,71.6170213 36.1531915,71.6170213 C55.6851064,71.6170213 71.6170213,55.6851064 71.6170213,36.1531915 C71.6170213,16.6212766 55.6851064,0.689361702 36.1531915,0.689361702 Z M50.7829787,56.1446809 L50.7829787,50.7829787 C50.7829787,46.187234 47.0297872,42.4340426 42.4340426,42.4340426 L29.8723404,42.4340426 C25.2765957,42.4340426 21.5234043,46.187234 21.5234043,50.7829787 L21.5234043,56.1446809 C15.3957447,51.6255319 11.412766,44.3489362 11.412766,36.1531915 C11.412766,22.4425532 22.5191489,11.3361702 36.2297872,11.3361702 C49.9404255,11.3361702 61.0468085,22.4425532 61.0468085,36.1531915 C60.9702128,44.3489362 56.987234,51.6255319 50.7829787,56.1446809 Z" id="Shape"></path>
                </g>
                <g id="Group" transform="translate(98.000000, 25.000000)" fill="#427FE0">
                    <path d="M54.8450704,32.013986 C46.1690141,32.013986 39.1971831,38.9503497 39.1971831,47.4111888 C39.1971831,55.9482517 46.2464789,62.8083916 54.8450704,62.8083916 C63.5211268,62.8083916 70.4929577,55.872028 70.4929577,47.4111888 C70.5704225,38.9503497 63.5211268,32.013986 54.8450704,32.013986 Z" id="Path"></path>
                    <path d="M54.8450704,0.686013986 C24.7112676,0.686013986 0.154929577,24.7727273 0.154929577,54.5 C0.154929577,84.151049 24.6338028,108.313986 54.8450704,108.313986 C85.056338,108.313986 109.535211,84.2272727 109.535211,54.5 C109.535211,24.848951 84.9788732,0.686013986 54.8450704,0.686013986 Z M80.7957746,89.3342657 L80.7957746,80.034965 C80.7957746,72.0314685 74.2112676,65.4762238 66,65.4762238 L43.6901408,65.4762238 C35.556338,65.4762238 28.8943662,71.9552448 28.8943662,80.034965 L28.8943662,89.3342657 C18.0492958,81.4832168 10.9225352,68.8300699 10.9225352,54.5 C10.9225352,30.641958 30.5985915,11.2811189 54.8450704,11.2811189 C79.0915493,11.2811189 98.7676056,30.641958 98.7676056,54.5 C98.7676056,68.7538462 91.7183099,81.406993 80.7957746,89.3342657 Z" id="Shape"></path>
                </g>
                <g id="Group" transform="translate(44.000000, 164.000000)" fill="#427FE0">
                    <path d="M49.7709924,29.4656489 C42.0610687,29.4656489 35.8778626,35.7251908 35.8778626,43.3587786 C35.8778626,51.0687023 42.1374046,57.2519084 49.7709924,57.2519084 C57.480916,57.2519084 63.6641221,50.9923664 63.6641221,43.3587786 C63.6641221,35.7251908 57.480916,29.4656489 49.7709924,29.4656489 Z" id="Path"></path>
                    <path d="M49.7709924,0.152671756 C22.4427481,0.152671756 0.152671756,22.3664122 0.152671756,49.7709924 C0.152671756,77.1755725 22.3664122,99.389313 49.7709924,99.389313 C77.1755725,99.389313 99.389313,77.1755725 99.389313,49.7709924 C99.389313,22.3664122 77.0992366,0.152671756 49.7709924,0.152671756 Z M72.8244275,81.1450382 L72.8244275,72.7480916 C72.8244275,65.4961832 66.9465649,59.6183206 59.6946565,59.6183206 L39.9236641,59.6183206 C32.6717557,59.6183206 26.7938931,65.4961832 26.7938931,72.7480916 L26.7938931,81.1450382 C17.0992366,74.0458015 10.8396947,62.5954198 10.8396947,49.6946565 C10.8396947,28.1679389 28.3206107,10.6870229 49.8473282,10.6870229 C71.3740458,10.6870229 88.8549618,28.1679389 88.8549618,49.6946565 C88.7022901,62.6717557 82.4427481,74.0458015 72.8244275,81.1450382 Z" id="Shape"></path>
                </g>
                <g id="Group" transform="translate(127.000000, 276.000000)" fill="#427FE0">
                    <circle id="Oval" transform="translate(38.752624, 34.274096) rotate(-13.356665) translate(-38.752624, -34.274096) " cx="38.7526242" cy="34.2740958" r="9.88463156"></circle>
                    <path d="M38.7683168,0.308910891 C17.5306931,0.308910891 0.231683168,17.6079208 0.231683168,38.8455446 C0.231683168,60.0831683 17.5306931,77.3821782 38.7683168,77.3821782 C60.0059406,77.3821782 77.3049505,60.0831683 77.3049505,38.8455446 C77.3049505,17.5306931 60.0059406,0.308910891 38.7683168,0.308910891 Z M55.2178218,61.1643564 L55.2178218,55.1405941 C55.2178218,49.9663366 51.0475248,45.7960396 45.8732673,45.7960396 L31.7405941,45.7960396 C26.5663366,45.7960396 22.3960396,49.9663366 22.3960396,55.1405941 L22.3960396,61.1643564 C15.5227723,56.1445545 11.0435644,47.9584158 11.0435644,38.7683168 C11.0435644,23.4 23.4772277,10.9663366 38.8455446,10.9663366 C54.2138614,10.9663366 66.6475248,23.4 66.6475248,38.7683168 C66.570297,47.9584158 62.0910891,56.1445545 55.2178218,61.1643564 Z" id="Shape"></path>
                </g>
                <g id="Group" transform="translate(0.000000, 82.000000)" fill="#427FE0">
                    <path d="M35.7677419,22.9795699 C30.8903226,22.9795699 26.9419355,26.8731183 26.9419355,31.6827957 C26.9419355,36.4924731 30.8903226,40.3860215 35.7677419,40.3860215 C40.6451613,40.3860215 44.5935484,36.4924731 44.5935484,31.6827957 C44.5935484,26.8731183 40.6451613,22.9795699 35.7677419,22.9795699 Z" id="Path"></path>
                    <path d="M35.7677419,0.610752688 C16.1806452,0.610752688 0.232258065,16.3376344 0.232258065,35.6526882 C0.232258065,54.9677419 16.1806452,70.6946237 35.7677419,70.6946237 C55.3548387,70.6946237 71.3032258,54.9677419 71.3032258,35.6526882 C71.3032258,16.3376344 55.3548387,0.610752688 35.7677419,0.610752688 Z M50.4,55.3494624 L50.4,50.0817204 C50.4,45.5010753 46.683871,41.8365591 42.0387097,41.8365591 L29.4193548,41.8365591 C24.7741935,41.8365591 21.0580645,45.5010753 21.0580645,50.0817204 L21.0580645,55.3494624 C14.9419355,50.9215054 10.916129,43.7451613 10.916129,35.6526882 C10.916129,22.1397849 21.9870968,11.2225806 35.6903226,11.2225806 C49.3935484,11.2225806 60.4645161,22.1397849 60.4645161,35.6526882 C60.5419355,43.7451613 56.5935484,50.9215054 50.4,55.3494624 Z" id="Shape"></path>
                </g>
                <g id="Group" transform="translate(439.000000, 37.000000)" fill="#427FE0">
                    <circle id="Oval" transform="translate(31.200392, 27.922545) rotate(-7.279237) translate(-31.200392, -27.922545) " cx="31.2003917" cy="27.9225448" r="7.0522126"></circle>
                    <path d="M31.2325,0.62 C14.415,0.62 0.6975,14.3375 0.6975,31.155 C0.6975,47.9725 14.415,61.69 31.2325,61.69 C48.05,61.69 61.7675,47.9725 61.7675,31.155 C61.7675,14.3375 48.1275,0.62 31.2325,0.62 Z M42.935,47.0425 L42.935,42.78 C42.935,39.1375 39.99,36.115 36.27,36.115 L26.2725,36.115 C22.63,36.115 19.6075,39.06 19.6075,42.78 L19.6075,47.0425 C14.725,43.4775 11.5475,37.665 11.5475,31.155 C11.5475,20.2275 20.3825,11.3925 31.31,11.3925 C42.2375,11.3925 51.0725,20.2275 51.0725,31.155 C50.995,37.665 47.8175,43.4775 42.935,47.0425 Z" id="Shape"></path>
                </g>
                <g id="Group" transform="translate(28.000000, 296.000000)" fill="#427FE0">
                    <ellipse id="Oval" cx="30.7675" cy="27.3341772" rx="7.0525" ry="7.02658228"></ellipse>
                    <path d="M30.7675,0.15443038 C13.95,0.15443038 0.2325,13.821519 0.2325,30.5772152 C0.2325,47.3329114 13.95,61 30.7675,61 C47.585,61 61.3025,47.3329114 61.3025,30.5772152 C61.3025,13.821519 47.585,0.15443038 30.7675,0.15443038 Z M42.47,46.4063291 L42.47,42.1594937 C42.47,38.5303797 39.525,35.5189873 35.805,35.5189873 L25.8075,35.5189873 C22.165,35.5189873 19.1425,38.4531646 19.1425,42.1594937 L19.1425,46.4063291 C14.26,42.8544304 11.0825,37.0632911 11.0825,30.5772152 C11.0825,19.6898734 19.9175,10.8873418 30.845,10.8873418 C41.7725,10.8873418 50.6075,19.6898734 50.6075,30.5772152 C50.53,37.0632911 47.3525,42.8544304 42.47,46.4063291 Z" id="Shape"></path>
                </g>
                <g id="Group" transform="translate(288.000000, 0.000000)" fill="#427FE0">
                    <path d="M35.6903226,23.055914 C30.8129032,23.055914 26.8645161,26.9494624 26.8645161,31.7591398 C26.8645161,36.5688172 30.8129032,40.4623656 35.6903226,40.4623656 C40.5677419,40.4623656 44.516129,36.5688172 44.516129,31.7591398 C44.5935484,26.9494624 40.5677419,23.055914 35.6903226,23.055914 Z" id="Path"></path>
                    <path d="M35.6903226,0.687096774 C16.1032258,0.687096774 0.15483871,16.4139785 0.15483871,35.7290323 C0.15483871,55.044086 16.1032258,70.7709677 35.6903226,70.7709677 C55.2774194,70.7709677 71.2260871,55.044086 71.2260871,35.7290323 C71.3032258,16.4139785 55.3548387,0.687096774 35.6903226,0.687096774 Z M50.4,55.4258065 L50.4,50.1580645 C50.4,45.5774194 46.683871,41.9129032 42.0387097,41.9129032 L29.4193548,41.9129032 C24.7741935,41.9129032 21.0580645,45.5774194 21.0580645,50.1580645 L21.0580645,55.4258065 C14.9419355,50.9978495 10.916129,43.8215054 10.916129,35.7290323 C10.916129,22.216129 21.9870968,11.2989247 35.6903226,11.2989247 C49.3935484,11.2989247 60.4645161,22.216129 60.4645161,35.7290323 C60.5419355,43.8215054 56.516129,50.9978495 50.4,55.4258065 Z" id="Shape"></path>
                </g>
                <polygon id="Rectangle" fill="#427FE0" transform="translate(194.152191, 129.647950) rotate(-45.040515) translate(-194.152191, -129.647950) " points="191.182893 112.23877 197.100633 112.242315 197.121488 147.05713 191.203748 147.053585"></polygon>
                <polygon id="Rectangle" fill="#427FE0" transform="translate(120.837007, 150.812885) rotate(-63.978191) translate(-120.837007, -150.812885) " points="94.5234192 147.840552 147.1478 147.865416 147.150595 153.785218 94.5262142 153.760353"></polygon>
                <polygon id="Rectangle" fill="#427FE0" transform="translate(161.584189, 210.258686) rotate(-7.048261) translate(-161.584189, -210.258686) " points="137.169324 207.298073 185.998192 207.305193 185.999055 213.219298 137.170187 213.212178"></polygon>
                <polygon id="Rectangle" fill="#427FE0" transform="translate(348.421062, 163.709848) rotate(-21.137473) translate(-348.421062, -163.709848) " points="333.119329 160.746153 363.72041 160.758478 363.722795 166.673542 333.121714 166.661217"></polygon>
                <polygon id="Rectangle" fill="#427FE0" transform="translate(300.001036, 94.859782) rotate(-66.865356) translate(-300.001036, -94.859782) " points="270.460907 91.8868143 329.538603 91.9123964 329.541164 97.8327494 270.463468 97.8071672"></polygon>
                <polygon id="Rectangle" fill="#427FE0" transform="translate(398.283005, 51.782497) rotate(-76.555746) translate(-398.283005, -51.782497) " points="395.312756 4.06780334 401.227416 4.06940653 401.253254 99.4971901 395.338595 99.4955869"></polygon>
                <path d="M430.39801,123 L425,120.466951 C426.850746,116.705757 447.363184,91.91258 451.450249,87 L456,90.761194 C444.432836,104.731343 431.477612,120.773987 430.39801,123 Z" id="Path" fill="#427FE0"></path>
                <polygon id="Rectangle" fill="#427FE0" transform="translate(336.286292, 263.926359) rotate(-46.576179) translate(-336.286292, -263.926359) " points="333.31455 242.36585 339.232246 242.36939 339.258034 285.486868 333.340338 285.483328"></polygon>
                <path d="M187.839024,292 L183,288.512295 C184.717073,286.313525 209.22439,256.288934 210.317073,255 L215,258.639344 C214.765854,259.018443 189.556098,289.877049 187.839024,292 Z" id="Path" fill="#427FE0"></path>
                <polygon id="Rectangle" fill="#427FE0" transform="translate(399.869037, 208.685928) rotate(-83.696505) translate(-399.869037, -208.685928) " points="396.904024 149.700929 402.818637 149.701703 402.834051 267.670926 396.919438 267.670152"></polygon>
                <polygon id="Rectangle" fill="#427FE0" transform="translate(56.696571, 160.913772) rotate(-34.533900) translate(-56.696571, -160.913772) " points="53.7278463 144.545421 59.6469781 144.548732 59.6652958 177.282123 53.746164 177.278813"></polygon>
                <polygon id="Rectangle" fill="#427FE0" transform="translate(70.669565, 278.250923) rotate(-70.037453) translate(-70.669565, -278.250923) " points="47.5846378 275.281836 93.7522171 275.299593 93.7544921 281.220011 47.5869128 281.202254"></polygon>
                <polygon id="Rectangle" fill="#427FE0" transform="translate(130.654190, 269.915533) rotate(-39.933216) translate(-130.654190, -269.915533) " points="127.681831 247.666543 133.600308 247.670033 133.626548 292.164523 127.708071 292.161034"></polygon>
            </g>
        </g>
    </g>
</svg>