<?xml version="1.0" encoding="UTF-8"?>
<svg width="266px" height="402px" viewBox="0 0 266 402" version="1.1" xmlns="http://www.w3.org/2000/svg" xmlns:xlink="http://www.w3.org/1999/xlink">
    <!-- Generator: sketchtool 59.1 (101010) - https://sketch.com -->
    <title>12B5E46D-7088-41E2-98B4-BFE027BF69B7</title>
    <desc>Created with sketchtool.</desc>
    <g id="Website" stroke="none" stroke-width="1" fill="none" fill-rule="evenodd">
        <g id="Organic-Social-Media" transform="translate(-876.000000, -1149.000000)">
            <g id="img_leading_company" transform="translate(876.000000, 1149.000000)">
                <path d="M18.8551593,52.9220439 L18.8551593,62.7771959 C18.8551593,120.840118 70.0599604,168.077956 132.999621,168.077956 C195.938525,168.077956 247.144841,120.840118 247.144841,62.7771959 L247.144841,52.9220439 L18.8551593,52.9220439 Z M132.999621,187 C59.6635656,187 0,131.273733 0,62.7771959 L0,34 L266,34 L266,62.7771959 C266,131.273733 206.336434,187 132.999621,187 L132.999621,187 Z" id="Fill-1" fill="#F4CD0C"></path>
                <polygon id="Fill-4" fill="#F4CD0C" points="29 21 238 21 238 0 29 0"></polygon>
                <polygon id="Fill-6" fill="#427FE0" points="31 402 237 402 237 388 31 388"></polygon>
                <path d="M198.537225,299 L68.4627751,299 C59.8687642,299 52.5111433,304.477212 51,312 L216,312 C214.489616,304.477212 207.131236,299 198.537225,299" id="Fill-7" fill="#427FE0"></path>
                <path d="M225.201458,311 L41.7985419,311 C39.7006693,311 38,312.692133 38,314.779476 L38,388 L229,388 L229,314.779476 C229,312.692133 227.299331,311 225.201458,311" id="Fill-8" fill="#427FE0"></path>
                <path d="M53,370.069168 L53,329.930832 C53,327.759963 54.7892845,326 56.9963215,326 L211.004437,326 C213.211474,326 215,327.759963 215,329.930832 L215,370.069168 C215,372.240037 213.211474,374 211.004437,374 L56.9963215,374 C54.7892845,374 53,372.240037 53,370.069168" id="Fill-9" fill="#E3E3E3"></path>
                <path d="M142.249852,179 L133.000378,179 L123.750148,179 C121.848578,215.985597 110.980843,272.554073 70,287 L133.000378,287 L196,287 C155.019157,272.554073 144.151422,215.985597 142.249852,179" id="Fill-10" fill="#F4CD0C"></path>
                <path d="M146,205.85658 C144.778151,205.957858 143.53651,206 142.295629,206 C139.907505,206 137.529277,205.839587 135.179217,205.509244 C135.179217,205.509244 135.160947,205.509244 135.160947,205.492931 C130.70748,204.875068 126.301973,203.623029 122,201.88907 C122.047199,201.592713 122.094398,201.296357 122.141597,201 C123.667195,201.355492 125.192793,201.643692 126.737423,201.855084 C126.737423,201.872077 126.746558,201.872077 126.746558,201.872077 C129.096619,202.20174 131.474846,202.362153 133.862209,202.362153 C137.671636,202.362153 141.442999,201.939369 145.165641,201.101958 C145.422191,202.675503 145.697012,204.257205 146,205.85658" id="Fill-11" fill="#F4CD0C"></path>
                <path d="M145.639868,205.438991 C145.462903,204.358805 145.294935,203.288515 145.126219,202.226599 C145.024238,201.516371 144.921509,200.815278 144.818029,200.114185 C144.445352,200.208577 144.071925,200.303731 143.698498,200.379854 C140.394646,201.147174 137.05405,201.525506 133.684211,201.525506 C131.332671,201.525506 128.99013,201.345855 126.675334,200.976659 C126.675334,200.976659 126.666336,200.976659 126.666336,200.957628 C125.144884,200.720885 123.642178,200.398123 122.139473,200 C122.092982,200.331896 122.046491,200.663793 122,200.995689 C126.23742,202.937588 130.576819,204.339774 134.96346,205.031733 C134.96346,205.050002 134.981456,205.050002 134.981456,205.050002 C137.296253,205.41996 139.638794,205.599611 141.991083,205.599611 C142.71844,205.599611 143.446548,205.581341 144.174655,205.543279 C147.394524,236.524594 157.2131,270.348343 182.056482,286 L196,286 C164.707132,274.810675 151.109296,238.533481 145.639868,205.438991" id="Fill-12" fill="#BE8217"></path>
                <path d="M38,11 C38.1427323,117.639792 81.0671944,204 133.99962,204 C186.932046,204 229.856508,117.639792 230,11 L38,11 Z" id="Fill-13" fill="#F4CD0C"></path>
                <path d="M38,11 C38.1427323,117.639792 81.0671944,204 133.99962,204 C186.932046,204 229.856508,117.639792 230,11 L38,11 Z" id="Fill-14" fill="#F4CD0C"></path>
                <path d="M126,203.160457 C125.811229,234.845033 115.631888,270.855164 91.2638917,289.48021 L74,290 C106.594197,277.139347 121.038558,237.859813 125.274999,203 C125.46377,203.028626 125.981198,203.150664 126,203.160457" id="Fill-15" fill="#FAED1D"></path>
                <path d="M59,329.999663 C59,331.104528 58.1043771,332 57,332 C55.8949495,332 55,331.104528 55,329.999663 C55,328.894799 55.8949495,328 57,328 C58.1043771,328 59,328.894799 59,329.999663" id="Fill-16" fill="#427FE0"></path>
                <path d="M59,368.999663 C59,370.104528 58.1043771,371 57,371 C55.8949495,371 55,370.104528 55,368.999663 C55,367.895472 55.8949495,367 57,367 C58.1043771,367 59,367.895472 59,368.999663" id="Fill-17" fill="#427FE0"></path>
                <path d="M207,329.999663 C207,331.104528 207.895623,332 209.000673,332 C210.105051,332 211,331.104528 211,329.999663 C211,328.894799 210.105051,328 209.000673,328 C207.895623,328 207,328.894799 207,329.999663" id="Fill-18" fill="#427FE0"></path>
                <path d="M207,368.999663 C207,370.104528 207.895623,371 209.000673,371 C210.105051,371 211,370.104528 211,368.999663 C211,367.895472 210.105051,367 209.000673,367 C207.895623,367 207,367.895472 207,368.999663" id="Fill-19" fill="#427FE0"></path>
                <polygon id="Fill-20" fill="#E39C22" points="70 298 196 298 196 285 70 285"></polygon>
                <polygon id="Fill-21" fill="#BE8217" points="183 298 197 298 197 285 183 285"></polygon>
                <polygon id="Fill-22" fill="#FAED1D" points="83 298 96 298 96 285 83 285"></polygon>
                <path d="M118.533538,198.22056 C113.036435,194.431119 108.193804,189.858624 103.930652,184.890432 C99.1372571,179.302921 95.0551452,173.20525 91.5100935,166.872586 C87.5256978,159.757625 84.210923,152.328836 81.3900314,144.756778 C78.264629,136.367552 75.7444609,127.790333 73.6886339,119.128213 C71.4502519,109.695925 69.7640798,100.155996 68.5248267,90.5728577 C67.1984623,80.3135484 66.3864334,70.0011763 66.0160209,59.6797077 C65.6266712,48.7988058 65.7001477,37.8944047 66.2818998,27.0271475 C66.4000682,24.8167038 66.5227815,22.6039859 66.7038215,20.3973323 C66.7038215,20.3973323 64.7085937,20.3040934 63.5738742,20.2517887 L63.5738742,0 L47,0 L47,23.5401649 L53.4045752,23.5401649 C53.3970003,23.7721251 53.384123,24.0056013 53.3773056,24.2375614 C53.3697307,24.4043302 53.3613983,24.5794373 53.3636708,24.7462061 C53.312919,26.2281737 53.272772,27.7025609 53.2515623,29.1769481 C53.2250502,30.5543063 53.2083854,31.924084 53.2008105,33.2938617 C53.1917206,33.4955003 53.1917206,33.6971389 53.201568,33.891197 C52.8947847,119.883979 81.8710374,196.633983 127,203 C124.175321,201.63098 121.093095,199.985276 118.533538,198.22056" id="Fill-23" fill="#FAED1D"></path>
                <path d="M211.826269,0 L211.826269,21.2025417 L206.982142,21.2025417 C203.467329,111.026885 173.005876,184.395399 133,203.990882 C133.236188,204 133.480703,204 133.725976,204 C134.140062,204 134.545064,203.990882 134.959907,203.981004 C185.499621,202.695357 226.598624,122.270979 229.31176,21.2025417 L238,21.2025417 L238,0 L211.826269,0 Z" id="Fill-24" fill="#BE8217"></path>
                <path d="M134.537314,62.0960133 L141.795417,83.0320737 C142.018838,83.6772161 142.619471,84.1137036 143.299679,84.1275117 L165.403764,84.5793415 C166.945518,84.6107931 167.582113,86.5761378 166.353301,87.510482 L148.735988,100.901214 C148.193505,101.313921 147.964728,102.020433 148.161369,102.674014 L154.563282,123.889303 C155.010123,125.369832 153.342887,126.584173 152.076582,125.701225 L133.929794,113.040785 C133.371243,112.650324 132.629824,112.650324 132.070507,113.040785 L113.923719,125.701225 C112.657415,126.584173 110.990178,125.369832 111.437019,123.889303 L117.838932,102.674014 C118.036338,102.020433 117.806797,101.313921 117.265079,100.901214 L99.6470007,87.510482 C98.4174232,86.5761378 99.0547835,84.6107931 100.597303,84.5793415 L122.700622,84.1275117 C123.38083,84.1137036 123.981464,83.6772161 124.204884,83.0320737 L131.462988,62.0960133 C131.970274,60.6346622 134.030792,60.6346622 134.537314,62.0960133" id="Fill-25" fill="#E58B0A"></path>
            </g>
        </g>
    </g>
</svg>