<?xml version="1.0" encoding="UTF-8"?>
<svg width="333px" height="236px" viewBox="0 0 333 236" version="1.1" xmlns="http://www.w3.org/2000/svg" xmlns:xlink="http://www.w3.org/1999/xlink">
    <!-- Generator: Sketch 63.1 (92452) - https://sketch.com -->
    <title>img_natural_backlinks_tc_mob</title>
    <desc>Created with Sketch.</desc>
    <defs>
        <filter x="-9.4%" y="-13.7%" width="118.8%" height="127.7%" filterUnits="objectBoundingBox" id="filter-1">
            <feOffset dx="0" dy="5" in="SourceAlpha" result="shadowOffsetOuter1"></feOffset>
            <feGaussianBlur stdDeviation="5" in="shadowOffsetOuter1" result="shadowBlurOuter1"></feGaussianBlur>
            <feColorMatrix values="0 0 0 0 0   0 0 0 0 0   0 0 0 0 0  0 0 0 0.25 0" type="matrix" in="shadowBlurOuter1" result="shadowMatrixOuter1"></feColorMatrix>
            <feMerge>
                <feMergeNode in="shadowMatrixOuter1"></feMergeNode>
                <feMergeNode in="SourceGraphic"></feMergeNode>
            </feMerge>
        </filter>
    </defs>
    <g id="Page-1" stroke="none" stroke-width="1" fill="none" fill-rule="evenodd">
        <g id="Chinese-Graphics" transform="translate(-2179.000000, -1004.000000)">
            <g id="img_natural_backlinks_tc_mob" transform="translate(2189.000000, 1009.000000)">
                <g id="img_google_my_business_listing">
                    <g id="img_blogs" filter="url(#filter-1)">
                        <rect id="Rectangle" fill="#FFFFFF" x="0" y="0" width="312.446018" height="215.267347" rx="13"></rect>
                        <path d="M13,0 L300,0 C307.179702,-3.09524665e-15 313,5.82029825 313,13 L313,36.5235087 L313,36.5235087 L0,36.5235087 L0,13 C-8.79259876e-16,5.82029825 5.82029825,-4.0101807e-15 13,0 Z" id="Rectangle-2" fill="#FF5254"></path>
                        <polygon id="Fill-5" fill="#E9ECED" points="0 55.8920361 312.446018 55.8920361 312.446018 36.5235087 0 36.5235087"></polygon>
                        <path d="M55.3982301,19.9226774 C55.3982301,22.6728971 53.1663345,24.9023923 50.4131537,24.9023923 C47.6599729,24.9023923 45.4265487,22.6728971 45.4265487,19.9226774 C45.4265487,17.1724576 47.6599729,14.9414354 50.4131537,14.9414354 C53.1663345,14.9414354 55.3982301,17.1724576 55.3982301,19.9226774" id="Fill-6" fill="#FFFFFF"></path>
                        <path d="M40.9946903,19.9226774 C40.9946903,22.6728971 38.761266,24.9023923 36.0080852,24.9023923 C33.2549044,24.9023923 31.0230088,22.6728971 31.0230088,19.9226774 C31.0230088,17.1724576 33.2549044,14.9414354 36.0080852,14.9414354 C38.761266,14.9414354 40.9946903,17.1724576 40.9946903,19.9226774" id="Fill-7" fill="#FFFFFF"></path>
                        <path d="M27.1451327,19.9226774 C27.1451327,22.6728971 24.9132372,24.9023923 22.1585277,24.9023923 C19.4053469,24.9023923 17.1734513,22.6728971 17.1734513,19.9226774 C17.1734513,17.1724576 19.4053469,14.9414354 22.1585277,14.9414354 C24.9132372,14.9414354 27.1451327,17.1724576 27.1451327,19.9226774" id="Fill-8" fill="#FFFFFF"></path>
                        <path d="M67.8699115,16.0482084 L263.965487,16.0482084 C265.346199,16.0482084 266.465487,17.1674965 266.465487,18.5482084 L266.465487,19.0820733 C266.465487,20.4627852 265.346199,21.5820733 263.965487,21.5820733 L67.8699115,21.5820733 C66.4891996,21.5820733 65.3699115,20.4627852 65.3699115,19.0820733 L65.3699115,18.5482084 C65.3699115,17.1674965 66.4891996,16.0482084 67.8699115,16.0482084 Z" id="Rectangle-3" fill="#FFFFFF"></path>
                        <polygon id="Fill-10" fill="#FFFFFF" points="285.576267 12.7278894 286.687923 16.1098504 290.286726 16.1098504 287.374864 18.2001123 288.488129 21.5820733 285.576267 19.4918115 282.666015 21.5820733 283.77767 18.2001123 280.869027 16.1098504 284.466221 16.1098504"></polygon>
                        <g id="Group-7" transform="translate(133.204479, 81.262426)" fill="#DADFE1">
                            <polygon id="Fill-16" points="0.299602673 39.4661455 170.213888 39.4661455 170.213888 32.4396149 0.299602673 32.4396149"></polygon>
                            <polygon id="Fill-16" points="0.299602673 56.0743088 170.213888 56.0743088 170.213888 49.0477782 0.299602673 49.0477782"></polygon>
                            <polygon id="Fill-17" points="0.299602673 22.8579823 170.213888 22.8579823 170.213888 15.8314517 0.299602673 15.8314517"></polygon>
                            <polygon id="Fill-18" points="0.299602673 7.52737002 170.213888 7.52737002 170.213888 0.50083941 0.299602673 0.50083941"></polygon>
                        </g>
                        <g id="Group-7-Copy" transform="translate(20.141214, 152.667347)" fill="#DADFE1">
                            <polygon id="Fill-16" points="0.299602673 38.9653061 257.087358 38.9653061 257.087358 31.9387755 0.299602673 31.9387755"></polygon>
                            <polygon id="Fill-17" points="1.57715369 23.6346939 283.277154 23.6346939 283.277154 15.3306122 1.57715369 15.3306122"></polygon>
                            <polygon id="Fill-18" points="0.299602673 7.02653061 147.856746 7.02653061 147.856746 0 0.299602673 0"></polygon>
                        </g>
                        <rect id="Rectangle-4-Copy" fill="#427FE0" x="19.9433628" y="71.5428571" width="104.759184" height="70.9040816"></rect>
                        <path d="M40.1342653,104.663367 C40.9582857,103.896837 41.7248163,103.015327 42.4338571,101.98051 L48.9876939,101.98051 C48.7960612,102.632061 48.5469388,103.226122 48.2786531,103.743531 L50.0416735,104.241776 C50.4249388,103.302776 50.731551,102.363776 50.9806735,101.405612 L50.9806735,100.179163 L43.5261633,100.179163 C43.7177959,99.795898 43.9094286,99.4126327 44.1010612,99.0102041 L42.203898,98.569449 C41.264898,100.543265 40.1725918,102.076327 38.9078163,103.168633 L40.1342653,104.663367 Z M38.160449,109.358367 L38.160449,102.057163 C38.7545102,101.137327 39.3102449,100.121673 39.8276531,99.0293673 L37.873,98.5886122 C36.6848776,101.022347 35.3242857,102.900347 33.752898,104.203449 L35.0176735,105.73651 C35.4009388,105.372408 35.8033673,104.989143 36.2057959,104.567551 L36.2057959,109.358367 L38.160449,109.358367 Z M44.3501837,109.415857 C45.5383061,109.415857 46.1323673,108.745143 46.1323673,107.442041 L46.1323673,102.670388 L44.1393878,102.670388 L44.1393878,106.962959 C44.1393878,107.461204 43.9860816,107.710327 43.6986327,107.710327 C43.2962041,107.710327 42.8746122,107.652837 42.4146939,107.576184 L42.855449,109.415857 L44.3501837,109.415857 Z M49.3134694,108.898449 L51.019,108.016939 C50.3099592,106.637184 49.505102,105.391571 48.5852653,104.260939 L46.9372245,105.008306 C47.7995714,106.138939 48.5852653,107.442041 49.3134694,108.898449 Z M40.8241429,108.840959 C41.7823061,107.767816 42.5871633,106.522204 43.2770408,105.065796 L41.6864898,104.280102 C41.0349388,105.621531 40.2300816,106.79049 39.3102449,107.767816 L40.8241429,108.840959 Z M50.1758163,115.030694 L51.8430204,113.861735 C51.1914694,112.596959 50.2716327,111.140551 49.0643469,109.454184 L47.4354694,110.469837 C48.5852653,112.137041 49.4859388,113.650939 50.1758163,115.030694 Z M43.8327755,113.344327 L45.385,112.271184 C44.9250816,111.466327 44.2352041,110.54649 43.3536939,109.511673 L41.8206327,110.469837 C42.6638163,111.523816 43.3345306,112.48198 43.8327755,113.344327 Z M45.5766327,116.06551 C46.3623265,116.06551 46.9372245,115.893041 47.3204898,115.586429 C47.7420816,115.260653 48.0295306,114.225837 48.1828367,112.462816 L46.2856735,111.849592 C46.2281837,112.961061 46.1132041,113.612612 45.9215714,113.842571 C45.749102,114.053367 45.5191429,114.168347 45.2125306,114.168347 L41.3607143,114.168347 C40.9391224,114.168347 40.7283265,113.919224 40.7283265,113.42098 L40.7283265,110.009918 L38.6970204,110.009918 L38.6970204,113.842571 C38.6970204,115.318143 39.3677347,116.06551 40.7474898,116.06551 L45.5766327,116.06551 Z M35.8225306,115.528939 C36.6657143,114.110857 37.3172653,112.462816 37.7771837,110.54649 L35.8416939,110.163224 C35.4967551,111.657959 34.9410204,113.095204 34.1361633,114.436633 L35.8225306,115.528939 Z M67.1927959,116.142163 C68.8408367,116.142163 69.7606735,115.471449 69.9523061,114.13002 C70.1439388,112.558633 70.2397551,108.419367 70.2397551,101.712224 L64.4141224,101.712224 C64.7015714,100.792388 64.9506939,99.8150612 65.1423265,98.7802449 L63.1685102,98.5311224 C62.7085918,101.15649 61.8654082,103.379429 60.6006327,105.180776 L61.8079184,106.771327 C62.5169592,105.85149 63.1301837,104.816673 63.6475918,103.666878 L68.285102,103.666878 C68.2467755,109.090082 68.1892857,112.25202 68.0743061,113.171857 C67.9593265,113.919224 67.556898,114.30249 66.8670204,114.30249 C66.2346327,114.30249 65.4872653,114.264163 64.6440816,114.206673 L65.1231633,116.027184 C66.1196531,116.103837 66.8095306,116.142163 67.1927959,116.142163 Z M55.6181837,115.701408 L55.6181837,114.18751 L58.4543469,114.18751 L58.4543469,115.145673 L60.3706735,115.145673 L60.3706735,101.712224 L57.4578571,101.712224 C57.8027959,100.830714 58.0902449,99.8533878 58.3010408,98.8185714 L56.288898,98.5502857 C56.1355918,99.6425918 55.8864694,100.696571 55.5415306,101.712224 L53.7018571,101.712224 L53.7018571,115.701408 L55.6181837,115.701408 Z M58.4543469,106.943796 L55.6181837,106.943796 L55.6181837,103.590224 L58.4543469,103.590224 L58.4543469,106.943796 Z M65.0848367,111.581306 L66.694551,110.469837 C66.0238367,109.281714 65.0848367,107.921122 63.8583878,106.368898 L62.2295102,107.384551 C63.4176327,108.917612 64.3757959,110.316531 65.0848367,111.581306 Z M58.4543469,112.347837 L55.6181837,112.347837 L55.6181837,108.72598 L58.4543469,108.72598 L58.4543469,112.347837 Z M73.8232857,116.391286 C74.7239592,114.858224 75.2988571,112.941898 75.5288163,110.623143 L76.6977755,111.638796 C77.2343469,111.198041 77.7325918,110.661469 78.1925102,110.029082 L81.8526939,110.029082 L81.8526939,111.274694 L77.5217959,111.274694 L77.5217959,112.999388 L81.8526939,112.999388 L81.8526939,114.225837 L75.5671429,114.225837 L75.5671429,115.931367 L89.518,115.931367 L89.518,114.225837 L83.8073469,114.225837 L83.8073469,112.999388 L88.1574082,112.999388 L88.1574082,111.274694 L83.8073469,111.274694 L83.8073469,110.029082 L88.5215102,110.029082 L88.5215102,108.304388 L83.8073469,108.304388 L83.8073469,107.020449 L81.8526939,107.020449 L81.8526939,108.304388 L79.189,108.304388 L79.4956122,107.576184 L77.9433878,106.943796 C77.4068163,108.285224 76.6211224,109.377531 75.5671429,110.239878 C75.6054694,109.703306 75.6246327,109.166735 75.6437959,108.611 L75.6437959,106.694673 L89.0389184,106.694673 L89.0389184,105.008306 L86.8351429,105.008306 L87.7166531,104.126796 C86.6243469,103.762694 85.4362245,103.398592 84.1522857,103.053653 C85.0337959,102.708714 85.8769796,102.306286 86.701,101.884694 L86.0111224,101.424776 L88.943102,101.424776 L88.943102,99.7767347 L82.5042449,99.7767347 C82.3317755,99.2784898 82.1593061,98.8377347 81.9676735,98.4353061 L79.9172041,98.7802449 C80.1088367,99.0868571 80.2813061,99.4126327 80.4537755,99.7767347 L73.3442041,99.7767347 L73.3442041,101.424776 L76.7935918,101.424776 L75.9120816,102.267959 C77.1002041,102.536245 78.2116735,102.823694 79.2656531,103.09198 C77.9050612,103.379429 76.4103265,103.609388 74.781449,103.781857 L75.6821224,105.008306 L73.7274694,105.008306 L73.7274694,108.611 C73.6891429,111.37051 73.2100612,113.516796 72.328551,115.049857 L73.8232857,116.391286 Z M81.8526939,102.440429 C80.5687551,102.09549 79.189,101.769714 77.7134286,101.424776 L84.6313673,101.424776 C83.7881837,101.788878 82.8683469,102.133816 81.8526939,102.440429 Z M85.7428367,105.008306 L75.8545918,105.008306 C78.0200408,104.759184 80.0513469,104.356755 81.9293469,103.820184 C83.3474286,104.222612 84.6313673,104.625041 85.7428367,105.008306 Z M105.806776,106.043122 L105.806776,99.2018367 L94.787898,99.2018367 L94.787898,106.043122 L105.806776,106.043122 Z M103.794633,104.165122 L96.8000408,104.165122 L96.8000408,101.079837 L103.794633,101.079837 L103.794633,104.165122 Z M94.1555102,116.046347 L94.1555102,115.145673 L97.4899184,115.145673 L97.4899184,116.046347 L99.4254082,116.046347 L99.4254082,107.307898 L92.2008571,107.307898 L92.2008571,116.046347 L94.1555102,116.046347 Z M102.874796,116.046347 L102.874796,115.145673 L106.381673,115.145673 L106.381673,116.046347 L108.374653,116.046347 L108.374653,107.307898 L100.920143,107.307898 L100.920143,116.046347 L102.874796,116.046347 Z M97.4899184,113.286837 L94.1555102,113.286837 L94.1555102,109.185898 L97.4899184,109.185898 L97.4899184,113.286837 Z M106.381673,113.286837 L102.874796,113.286837 L102.874796,109.185898 L106.381673,109.185898 L106.381673,113.286837 Z" id="您的產品" fill="#FFFFFF" fill-rule="nonzero"></path>
                        <path d="M173.606408,151.223714 L174.858408,151.223714 C174.977647,151.223714 175.077721,151.251394 175.158633,151.306755 C175.239545,151.362116 175.290646,151.432381 175.311939,151.517551 L176.250939,155.018041 C176.302041,155.209674 176.343561,155.397047 176.3755,155.580163 L176.468122,156.12951 L176.468122,156.12951 C176.514966,155.946394 176.565003,155.76328 176.618235,155.580163 L176.700477,155.302296 L176.700477,155.302296 L177.873429,151.504776 C177.89898,151.419605 177.950081,151.34934 178.026735,151.29398 C178.103388,151.238619 178.192816,151.210939 178.29502,151.210939 L178.991286,151.210939 C179.106266,151.210939 179.202081,151.238619 179.278735,151.29398 C179.355388,151.34934 179.40649,151.419605 179.432041,151.504776 L180.505184,155.081918 L180.608807,155.441052 C180.624895,155.499725 180.640391,155.557806 180.655296,155.615296 L180.786245,156.135898 L180.786245,156.135898 C180.816055,155.952781 180.849058,155.769668 180.885255,155.586551 C180.921453,155.403434 180.967231,155.213933 181.022592,155.018041 L181.993531,151.517551 C182.014823,151.432381 182.065925,151.362116 182.146837,151.306755 C182.227749,151.251394 182.321435,151.223714 182.427898,151.223714 L183.622408,151.223714 L181.546388,157.777551 L180.275224,157.777551 C180.138952,157.777551 180.041007,157.683865 179.981388,157.49649 L178.799653,153.708551 C178.761326,153.585054 178.726194,153.460494 178.694255,153.334867 C178.662316,153.209241 178.635701,153.084681 178.614408,152.961184 C178.588857,153.088939 178.561177,153.215629 178.531367,153.341255 C178.501558,153.466882 178.46749,153.593571 178.429163,153.721327 L177.234653,157.49649 C177.175034,157.683865 177.060055,157.777551 176.889714,157.777551 L175.682429,157.777551 L173.606408,151.223714 Z M183.711837,151.223714 L184.963837,151.223714 C185.083075,151.223714 185.183149,151.251394 185.264061,151.306755 C185.344973,151.362116 185.396075,151.432381 185.417367,151.517551 L186.356367,155.018041 C186.40747,155.209674 186.44899,155.397047 186.480929,155.580163 L186.573551,156.12951 L186.573551,156.12951 C186.620395,155.946394 186.670432,155.76328 186.723663,155.580163 L186.805906,155.302296 L186.805906,155.302296 L187.978857,151.504776 C188.004408,151.419605 188.05551,151.34934 188.132163,151.29398 C188.208817,151.238619 188.298244,151.210939 188.400449,151.210939 L189.096714,151.210939 C189.211694,151.210939 189.30751,151.238619 189.384163,151.29398 C189.460816,151.34934 189.511918,151.419605 189.537469,151.504776 L190.610612,155.081918 L190.714236,155.441052 C190.730323,155.499725 190.74582,155.557806 190.760724,155.615296 L190.891673,156.135898 L190.891673,156.135898 C190.921483,155.952781 190.954486,155.769668 190.990684,155.586551 C191.026881,155.403434 191.07266,155.213933 191.12802,155.018041 L192.098959,151.517551 C192.120252,151.432381 192.171353,151.362116 192.252265,151.306755 C192.333177,151.251394 192.426863,151.223714 192.533327,151.223714 L193.727837,151.223714 L191.651816,157.777551 L190.380653,157.777551 C190.24438,157.777551 190.146436,157.683865 190.086816,157.49649 L188.905082,153.708551 C188.866755,153.585054 188.831623,153.460494 188.799684,153.334867 C188.767745,153.209241 188.741129,153.084681 188.719837,152.961184 C188.694286,153.088939 188.666606,153.215629 188.636796,153.341255 C188.606986,153.466882 188.572919,153.593571 188.534592,153.721327 L187.340082,157.49649 C187.280462,157.683865 187.165484,157.777551 186.995143,157.777551 L185.787857,157.777551 L183.711837,151.223714 Z M193.817265,151.223714 L195.069265,151.223714 C195.188504,151.223714 195.288578,151.251394 195.36949,151.306755 C195.450402,151.362116 195.501503,151.432381 195.522796,151.517551 L196.461796,155.018041 C196.512898,155.209674 196.554418,155.397047 196.586357,155.580163 L196.67898,156.12951 L196.67898,156.12951 C196.725823,155.946394 196.77586,155.76328 196.829092,155.580163 L196.911334,155.302296 L196.911334,155.302296 L198.084286,151.504776 C198.109837,151.419605 198.160938,151.34934 198.237592,151.29398 C198.314245,151.238619 198.403673,151.210939 198.505878,151.210939 L199.202143,151.210939 C199.317123,151.210939 199.412938,151.238619 199.489592,151.29398 C199.566245,151.34934 199.617347,151.419605 199.642898,151.504776 L200.716041,155.081918 L200.819664,155.441052 C200.835752,155.499725 200.851248,155.557806 200.866153,155.615296 L200.997102,156.135898 L200.997102,156.135898 C201.026912,155.952781 201.059915,155.769668 201.096112,155.586551 C201.13231,155.403434 201.178088,155.213933 201.233449,155.018041 L202.204388,151.517551 C202.22568,151.432381 202.276782,151.362116 202.357694,151.306755 C202.438606,151.251394 202.532292,151.223714 202.638755,151.223714 L203.833265,151.223714 L201.757245,157.777551 L200.486082,157.777551 C200.349809,157.777551 200.251864,157.683865 200.192245,157.49649 L199.01051,153.708551 C198.972183,153.585054 198.937051,153.460494 198.905112,153.334867 C198.873173,153.209241 198.846558,153.084681 198.825265,152.961184 C198.799714,153.088939 198.772034,153.215629 198.742224,153.341255 C198.712415,153.466882 198.678347,153.593571 198.64002,153.721327 L197.44551,157.49649 C197.385891,157.683865 197.270912,157.777551 197.100571,157.777551 L195.893286,157.777551 L193.817265,151.223714 Z M204.344286,156.908816 C204.344286,156.776802 204.368772,156.651177 204.417745,156.531939 C204.466718,156.4127 204.534853,156.310497 204.622153,156.225327 C204.709453,156.140156 204.81272,156.072021 204.931959,156.020918 C205.051198,155.969816 205.178952,155.944265 205.315224,155.944265 C205.447239,155.944265 205.572863,155.969816 205.692102,156.020918 C205.811341,156.072021 205.913544,156.140156 205.998714,156.225327 C206.083885,156.310497 206.15202,156.4127 206.203122,156.531939 C206.254225,156.651177 206.279776,156.776802 206.279776,156.908816 C206.279776,157.045089 206.254225,157.171778 206.203122,157.288888 C206.15202,157.405997 206.083885,157.507136 205.998714,157.592306 C205.913544,157.677477 205.811341,157.744547 205.692102,157.79352 C205.572863,157.842493 205.447239,157.86698 205.315224,157.86698 C205.178952,157.86698 205.051198,157.842493 204.931959,157.79352 C204.81272,157.744547 204.709453,157.677477 204.622153,157.592306 C204.534853,157.507136 204.466718,157.405997 204.417745,157.288888 C204.368772,157.171778 204.344286,157.045089 204.344286,156.908816 Z M209.920796,159.578898 C209.873952,159.68962 209.813269,159.773724 209.738745,159.831214 C209.664221,159.888704 209.550307,159.917449 209.397,159.917449 L208.221653,159.917449 L209.448102,157.292082 L206.797184,151.223714 L208.176939,151.223714 C208.304695,151.223714 208.402639,151.253524 208.470776,151.313143 C208.538912,151.372762 208.590013,151.440898 208.624082,151.517551 L210.023,154.915837 C210.069844,155.026558 210.110299,155.141537 210.144367,155.260776 C210.178436,155.380014 210.208245,155.499251 210.233796,155.61849 C210.267864,155.494993 210.305126,155.375755 210.345582,155.260776 L210.408661,155.086709 L210.408661,155.086709 L211.792408,151.517551 C211.826476,151.432381 211.882901,151.362116 211.961684,151.306755 C212.040466,151.251394 212.128829,151.223714 212.226776,151.223714 L213.491551,151.223714 L209.920796,159.578898 Z M217.209224,151.12151 C217.698955,151.12151 218.142899,151.200292 218.541071,151.357857 C218.939243,151.515423 219.278856,151.738992 219.559918,152.028571 C219.840981,152.318151 220.058162,152.671603 220.211469,153.088939 C220.364776,153.506274 220.441429,153.972576 220.441429,154.487857 C220.441429,155.007397 220.364776,155.475828 220.211469,155.893163 C220.058162,156.310499 219.840981,156.66608 219.559918,156.959918 C219.278856,157.253757 218.939243,157.479455 218.541071,157.63702 C218.142899,157.794586 217.698955,157.873367 217.209224,157.873367 C216.719494,157.873367 216.274485,157.794586 215.874184,157.63702 C215.473882,157.479455 215.132141,157.253757 214.848949,156.959918 C214.565757,156.66608 214.346446,156.310499 214.19101,155.893163 C214.035574,155.475828 213.957857,155.007397 213.957857,154.487857 C213.957857,153.972576 214.035574,153.506274 214.19101,153.088939 C214.346446,152.671603 214.565757,152.318151 214.848949,152.028571 C215.132141,151.738992 215.473882,151.515423 215.874184,151.357857 C216.274485,151.200292 216.719494,151.12151 217.209224,151.12151 Z M217.209224,156.659694 C217.754316,156.659694 218.157805,156.47658 218.419704,156.110347 C218.681603,155.744114 218.812551,155.207548 218.812551,154.500633 C218.812551,153.793718 218.681603,153.255022 218.419704,152.884531 C218.157805,152.514039 217.754316,152.328796 217.209224,152.328796 C216.655616,152.328796 216.246804,152.515104 215.982776,152.887724 C215.718747,153.260345 215.586735,153.797976 215.586735,154.500633 C215.586735,155.203286 215.718747,155.738791 215.982776,156.107153 C216.246804,156.475515 216.655616,156.659694 217.209224,156.659694 Z M223.117898,151.223714 L223.117898,155.388531 C223.117898,155.788832 223.210519,156.098635 223.395765,156.317949 C223.581011,156.537263 223.858876,156.646918 224.229367,156.646918 C224.501913,156.646918 224.757421,156.586235 224.995898,156.464867 C225.234375,156.343499 225.460074,156.176355 225.673,155.963429 L225.673,151.223714 L227.250776,151.223714 L227.250776,157.777551 L226.286224,157.777551 C226.081815,157.777551 225.947674,157.681736 225.883796,157.490102 L225.775204,156.966306 C225.638931,157.102579 225.498402,157.227139 225.353612,157.33999 C225.208822,157.452841 225.054453,157.548656 224.8905,157.627439 C224.726547,157.706221 224.549821,157.767969 224.360316,157.812684 C224.170812,157.857398 223.96747,157.879755 223.750286,157.879755 C223.39257,157.879755 223.076379,157.819072 222.801704,157.697704 C222.527029,157.576336 222.296008,157.404933 222.108633,157.18349 C221.921258,156.962047 221.779664,156.699087 221.683847,156.394602 C221.58803,156.090118 221.540122,155.754764 221.540122,155.388531 L221.540122,151.223714 L223.117898,151.223714 Z M228.937143,157.777551 L228.937143,151.223714 L229.863367,151.223714 C230.025191,151.223714 230.13804,151.253524 230.201918,151.313143 C230.265796,151.372762 230.308381,151.474965 230.329673,151.619755 L230.42549,152.411837 C230.659709,152.007277 230.934379,151.687892 231.24951,151.453673 C231.564641,151.219455 231.918093,151.102347 232.309878,151.102347 C232.633525,151.102347 232.901808,151.17687 233.114735,151.325918 L232.910327,152.507653 C232.897551,152.584307 232.869871,152.638602 232.827286,152.670541 C232.7847,152.70248 232.727211,152.718449 232.654816,152.718449 C232.606908,152.718449 232.545825,152.710065 232.471568,152.693297 L232.392918,152.673735 C232.282197,152.643925 232.13528,152.62902 231.952163,152.62902 C231.624257,152.62902 231.343198,152.719513 231.10898,152.9005 C230.874761,153.081487 230.676742,153.346576 230.514918,153.695776 L230.514918,157.777551 L228.937143,157.777551 Z M233.357469,151.223714 L234.609469,151.223714 C234.728708,151.223714 234.828782,151.251394 234.909694,151.306755 C234.990606,151.362116 235.041707,151.432381 235.063,151.517551 L236.002,155.018041 C236.053102,155.209674 236.094622,155.397047 236.126561,155.580163 L236.219184,156.12951 L236.219184,156.12951 C236.266027,155.946394 236.316064,155.76328 236.369296,155.580163 L236.451538,155.302296 L236.451538,155.302296 L237.62449,151.504776 C237.650041,151.419605 237.701142,151.34934 237.777796,151.29398 C237.854449,151.238619 237.943877,151.210939 238.046082,151.210939 L238.742347,151.210939 C238.857327,151.210939 238.953142,151.238619 239.029796,151.29398 C239.106449,151.34934 239.157551,151.419605 239.183102,151.504776 L240.256245,155.081918 L240.359868,155.441052 C240.375956,155.499725 240.391452,155.557806 240.406357,155.615296 L240.537306,156.135898 L240.537306,156.135898 C240.567116,155.952781 240.600119,155.769668 240.636316,155.586551 C240.672514,155.403434 240.718292,155.213933 240.773653,155.018041 L241.744592,151.517551 C241.765884,151.432381 241.816986,151.362116 241.897898,151.306755 C241.97881,151.251394 242.072496,151.223714 242.178959,151.223714 L243.373469,151.223714 L241.297449,157.777551 L240.026286,157.777551 C239.890013,157.777551 239.792068,157.683865 239.732449,157.49649 L238.550714,153.708551 C238.512388,153.585054 238.477255,153.460494 238.445316,153.334867 C238.413377,153.209241 238.386762,153.084681 238.365469,152.961184 C238.339918,153.088939 238.312238,153.215629 238.282429,153.341255 C238.252619,153.466882 238.218551,153.593571 238.180224,153.721327 L236.985714,157.49649 C236.926095,157.683865 236.811116,157.777551 236.640776,157.777551 L235.43349,157.777551 L233.357469,151.223714 Z M246.969776,151.12151 C247.382852,151.12151 247.76292,151.187516 248.10999,151.319531 C248.45706,151.451545 248.756216,151.64424 249.007469,151.897622 C249.258722,152.151005 249.454612,152.461872 249.595143,152.830235 C249.735674,153.198597 249.805939,153.61912 249.805939,154.091816 C249.805939,154.211055 249.800616,154.310064 249.789969,154.388847 C249.779323,154.46763 249.76016,154.529377 249.73248,154.574092 C249.704799,154.618806 249.667538,154.650745 249.620694,154.669908 C249.57385,154.689072 249.514232,154.698653 249.441837,154.698653 L245.392,154.698653 C245.438844,155.3715 245.619828,155.865481 245.934959,156.180612 C246.25009,156.495743 246.667419,156.653306 247.186959,156.653306 C247.442471,156.653306 247.662846,156.623497 247.848092,156.563878 C248.033338,156.504258 248.195159,156.438252 248.333561,156.365857 L248.587652,156.229585 C248.626215,156.208293 248.662885,156.18771 248.697663,156.167837 C248.801997,156.108217 248.903136,156.078408 249.001082,156.078408 C249.06496,156.078408 249.120319,156.091184 249.167163,156.116735 C249.214007,156.142286 249.254462,156.178483 249.288531,156.225327 L249.748449,156.800224 C249.573849,157.004634 249.37796,157.176037 249.160776,157.314439 C248.943591,157.452841 248.716828,157.563561 248.48048,157.646602 C248.244131,157.729643 248.003528,157.788197 247.758663,157.822265 C247.513798,157.856334 247.276389,157.873367 247.046429,157.873367 C246.590766,157.873367 246.16705,157.79778 245.775265,157.646602 C245.383481,157.495424 245.042804,157.271855 244.753224,156.975888 C244.463645,156.67992 244.235817,156.313693 244.069735,155.877194 C243.903652,155.440695 243.820612,154.935003 243.820612,154.360102 C243.820612,153.912957 243.893006,153.492434 244.037796,153.09852 C244.182586,152.704607 244.390186,152.361801 244.660602,152.070092 C244.931018,151.778383 245.261049,151.547361 245.650704,151.37702 C246.040359,151.206679 246.480045,151.12151 246.969776,151.12151 Z M247.001714,152.252143 C246.541794,152.252143 246.181954,152.382026 245.922184,152.641796 C245.662414,152.901566 245.496334,153.269923 245.423939,153.746878 L248.387857,153.746878 C248.387857,153.542468 248.360177,153.349773 248.304816,153.168786 C248.249456,152.987798 248.164286,152.829171 248.049306,152.692898 C247.934326,152.556625 247.789538,152.449099 247.614939,152.370316 C247.440339,152.291534 247.235933,152.252143 247.001714,152.252143 Z M251.109041,157.777551 L251.109041,148.285347 L252.686816,148.285347 L252.686816,152.028571 C252.946586,151.751767 253.24042,151.531392 253.568327,151.367439 C253.896233,151.203486 254.279494,151.12151 254.718122,151.12151 C255.075839,151.12151 255.402675,151.194969 255.698643,151.341888 C255.99461,151.488807 256.250118,151.702795 256.465173,151.983857 C256.680229,152.26492 256.846309,152.611984 256.963418,153.025061 C257.080528,153.438138 257.139082,153.912957 257.139082,154.449531 C257.139082,154.939261 257.073075,155.392787 256.941061,155.810122 C256.809047,156.227458 256.62061,156.589429 256.375745,156.896041 C256.13088,157.202655 255.834917,157.442193 255.487847,157.614663 C255.140777,157.787134 254.752193,157.873367 254.322082,157.873367 C254.121931,157.873367 253.938817,157.85314 253.772735,157.812684 C253.606652,157.772228 253.455477,157.715803 253.319204,157.643408 C253.182931,157.571013 253.056242,157.48265 252.939133,157.378316 C252.822023,157.273982 252.710239,157.157939 252.603776,157.030184 L252.53351,157.470939 C252.507959,157.58166 252.46431,157.660442 252.402561,157.707286 C252.340813,157.754129 252.256708,157.777551 252.150245,157.777551 L251.109041,157.777551 Z M254.175163,152.347959 C253.847257,152.347959 253.567263,152.417159 253.335173,152.555561 C253.103084,152.693963 252.886967,152.888788 252.686816,153.140041 L252.686816,156.078408 C252.865674,156.299851 253.060499,156.454221 253.271296,156.54152 C253.482093,156.62882 253.710985,156.672469 253.95798,156.672469 C254.196457,156.672469 254.411509,156.627756 254.603143,156.538327 C254.794776,156.448898 254.957663,156.312627 255.091806,156.12951 C255.22595,155.946394 255.329217,155.715372 255.401612,155.436439 C255.474007,155.157505 255.510204,154.828539 255.510204,154.449531 C255.510204,154.066263 255.47933,153.741556 255.417582,153.475398 C255.355833,153.20924 255.26747,152.993123 255.15249,152.827041 C255.03751,152.660958 254.898045,152.539592 254.734092,152.462939 C254.570139,152.386285 254.383831,152.347959 254.175163,152.347959 Z M262.262061,152.501265 C262.219476,152.569402 262.174762,152.617309 262.127918,152.64499 C262.081075,152.67267 262.021456,152.68651 261.949061,152.68651 C261.872408,152.68651 261.790432,152.665218 261.703133,152.622633 L261.399714,152.478908 L261.399714,152.478908 C261.284734,152.425677 261.153786,152.377769 261.006867,152.335184 C260.859948,152.292598 260.686416,152.271306 260.486265,152.271306 C260.175393,152.271306 259.930532,152.337312 259.751673,152.469327 C259.572815,152.601341 259.483388,152.773808 259.483388,152.986735 C259.483388,153.127266 259.529166,153.245438 259.620724,153.341255 C259.712283,153.437072 259.833649,153.521177 259.984827,153.593571 C260.09821,153.647868 260.22297,153.697971 260.359109,153.743883 L260.499041,153.788398 C260.690674,153.845888 260.886564,153.9087 261.086714,153.976837 C261.286865,154.044973 261.482754,154.12269 261.674388,154.20999 C261.866021,154.29729 262.037424,154.40801 262.188602,154.542153 C262.33978,154.676297 262.461146,154.837053 262.552704,155.024429 C262.644262,155.211804 262.690041,155.437502 262.690041,155.701531 C262.690041,156.016661 262.632552,156.307301 262.517571,156.573459 C262.402591,156.839617 262.234382,157.069574 262.012939,157.263337 C261.791495,157.4571 261.517889,157.608275 261.192112,157.716867 C260.866335,157.82546 260.492655,157.879755 260.071061,157.879755 C259.845359,157.879755 259.624984,157.859527 259.409929,157.819071 C259.194873,157.778615 258.988338,157.722191 258.790316,157.649796 C258.592295,157.577401 258.409181,157.492232 258.240969,157.394286 C258.072758,157.29634 257.924776,157.189878 257.79702,157.074898 L258.161122,156.474449 C258.207966,156.402054 258.263326,156.346694 258.327204,156.308367 C258.391082,156.270041 258.471993,156.250878 258.569939,156.250878 C258.667885,156.250878 258.760506,156.278558 258.847806,156.333918 C258.935106,156.389279 259.036244,156.448898 259.151224,156.512776 C259.266205,156.576653 259.401411,156.636272 259.556847,156.691633 C259.712283,156.746993 259.909237,156.774673 260.147714,156.774673 C260.335089,156.774673 260.495846,156.752317 260.62999,156.707602 C260.764133,156.662888 260.874853,156.604334 260.962153,156.531939 C261.049453,156.459544 261.11333,156.375439 261.153786,156.279622 C261.194242,156.183806 261.214469,156.084796 261.214469,155.982592 C261.214469,155.829285 261.168691,155.70366 261.077133,155.605714 C260.985574,155.507768 260.864208,155.422599 260.713031,155.350204 C260.599647,155.295908 260.474289,155.245804 260.336952,155.199892 L260.195622,155.155378 C260.00186,155.097887 259.803841,155.035075 259.601561,154.966939 C259.399281,154.898802 259.201263,154.818956 259.0075,154.727398 C258.813737,154.63584 258.641269,154.519797 258.490092,154.379265 C258.338914,154.238734 258.217548,154.066266 258.12599,153.861857 C258.034432,153.657448 257.988653,153.410457 257.988653,153.120878 C257.988653,152.85259 258.041884,152.597083 258.148347,152.354347 C258.25481,152.111611 258.411308,151.899753 258.617847,151.718765 C258.824385,151.537778 259.082022,151.39299 259.390765,151.284398 C259.699508,151.175806 260.056154,151.12151 260.460714,151.12151 C260.912118,151.12151 261.323059,151.196033 261.693551,151.345082 C262.064043,151.49413 262.372781,151.690019 262.619776,151.932755 L262.262061,152.501265 Z M265.634796,151.223714 L265.634796,157.777551 L264.05702,157.777551 L264.05702,151.223714 L265.634796,151.223714 Z M265.871143,149.313776 C265.871143,149.450048 265.843463,149.577802 265.788102,149.697041 C265.732741,149.81628 265.659283,149.920612 265.567724,150.010041 C265.476166,150.09947 265.36864,150.170799 265.245143,150.224031 C265.121646,150.277262 264.989633,150.303878 264.849102,150.303878 C264.712829,150.303878 264.584011,150.277262 264.462643,150.224031 C264.341275,150.170799 264.235878,150.09947 264.146449,150.010041 C264.05702,149.920612 263.985691,149.81628 263.932459,149.697041 C263.879228,149.577802 263.852612,149.450048 263.852612,149.313776 C263.852612,149.173244 263.879228,149.041232 263.932459,148.917735 C263.985691,148.794237 264.05702,148.687776 264.146449,148.598347 C264.235878,148.508918 264.341275,148.437589 264.462643,148.384357 C264.584011,148.331126 264.712829,148.30451 264.849102,148.30451 C264.989633,148.30451 265.121646,148.331126 265.245143,148.384357 C265.36864,148.437589 265.476166,148.508918 265.567724,148.598347 C265.659283,148.687776 265.732741,148.794237 265.788102,148.917735 C265.843463,149.041232 265.871143,149.173244 265.871143,149.313776 Z M269.569653,157.879755 C269.003269,157.879755 268.566777,157.718998 268.260163,157.39748 C267.953549,157.075961 267.800245,156.632016 267.800245,156.065633 L267.800245,152.405449 L267.135918,152.405449 C267.050748,152.405449 266.977289,152.377769 266.915541,152.322408 C266.853792,152.267047 266.822918,152.184007 266.822918,152.073286 L266.822918,151.447286 L267.876898,151.274816 L268.209061,149.486245 C268.226095,149.401074 268.265486,149.335068 268.327235,149.288224 C268.388983,149.241381 268.4667,149.217959 268.560388,149.217959 L269.37802,149.217959 L269.37802,151.281204 L271.102714,151.281204 L271.102714,152.405449 L269.37802,152.405449 L269.37802,155.957041 C269.37802,156.16145 269.429122,156.321142 269.531327,156.436122 C269.633531,156.551103 269.769802,156.608592 269.940143,156.608592 C270.038089,156.608592 270.120064,156.596881 270.186071,156.573459 C270.252079,156.550037 270.309568,156.525551 270.358541,156.5 L270.48949,156.426541 L270.48949,156.426541 C270.527817,156.403119 270.566143,156.391408 270.604469,156.391408 C270.651313,156.391408 270.689639,156.403119 270.719449,156.426541 C270.749259,156.449963 270.781197,156.485095 270.815265,156.531939 L271.287959,157.298469 C271.057999,157.490103 270.793974,157.634891 270.495878,157.732837 C270.197781,157.830783 269.889042,157.879755 269.569653,157.879755 Z M275.06951,151.12151 C275.482587,151.12151 275.862655,151.187516 276.209724,151.319531 C276.556794,151.451545 276.855951,151.64424 277.107204,151.897622 C277.358457,152.151005 277.554346,152.461872 277.694878,152.830235 C277.835409,153.198597 277.905673,153.61912 277.905673,154.091816 C277.905673,154.211055 277.90035,154.310064 277.889704,154.388847 C277.879058,154.46763 277.859895,154.529377 277.832214,154.574092 C277.804534,154.618806 277.767272,154.650745 277.720429,154.669908 C277.673585,154.689072 277.613966,154.698653 277.541571,154.698653 L273.491735,154.698653 C273.538578,155.3715 273.719563,155.865481 274.034694,156.180612 C274.349825,156.495743 274.767154,156.653306 275.286694,156.653306 C275.542205,156.653306 275.762581,156.623497 275.947827,156.563878 C276.133072,156.504258 276.294894,156.438252 276.433296,156.365857 L276.687387,156.229585 C276.72595,156.208293 276.76262,156.18771 276.797398,156.167837 C276.901732,156.108217 277.00287,156.078408 277.100816,156.078408 C277.164694,156.078408 277.220054,156.091184 277.266898,156.116735 C277.313742,156.142286 277.354197,156.178483 277.388265,156.225327 L277.848184,156.800224 C277.673584,157.004634 277.477695,157.176037 277.26051,157.314439 C277.043325,157.452841 276.816562,157.563561 276.580214,157.646602 C276.343866,157.729643 276.103263,157.788197 275.858398,157.822265 C275.613533,157.856334 275.376124,157.873367 275.146163,157.873367 C274.690501,157.873367 274.266784,157.79778 273.875,157.646602 C273.483216,157.495424 273.142539,157.271855 272.852959,156.975888 C272.56338,156.67992 272.335552,156.313693 272.169469,155.877194 C272.003387,155.440695 271.920347,154.935003 271.920347,154.360102 C271.920347,153.912957 271.992741,153.492434 272.137531,153.09852 C272.28232,152.704607 272.48992,152.361801 272.760337,152.070092 C273.030753,151.778383 273.360784,151.547361 273.750439,151.37702 C274.140094,151.206679 274.57978,151.12151 275.06951,151.12151 Z M275.101449,152.252143 C274.641528,152.252143 274.281688,152.382026 274.021918,152.641796 C273.762148,152.901566 273.596068,153.269923 273.523673,153.746878 L276.487592,153.746878 C276.487592,153.542468 276.459912,153.349773 276.404551,153.168786 C276.34919,152.987798 276.264021,152.829171 276.149041,152.692898 C276.034061,152.556625 275.889273,152.449099 275.714673,152.370316 C275.540074,152.291534 275.335668,152.252143 275.101449,152.252143 Z M278.812735,156.908816 C278.812735,156.776802 278.837221,156.651177 278.886194,156.531939 C278.935167,156.4127 279.003302,156.310497 279.090602,156.225327 C279.177902,156.140156 279.281169,156.072021 279.400408,156.020918 C279.519647,155.969816 279.647401,155.944265 279.783673,155.944265 C279.915688,155.944265 280.041312,155.969816 280.160551,156.020918 C280.27979,156.072021 280.381993,156.140156 280.467163,156.225327 C280.552334,156.310497 280.620469,156.4127 280.671571,156.531939 C280.722674,156.651177 280.748224,156.776802 280.748224,156.908816 C280.748224,157.045089 280.722674,157.171778 280.671571,157.288888 C280.620469,157.405997 280.552334,157.507136 280.467163,157.592306 C280.381993,157.677477 280.27979,157.744547 280.160551,157.79352 C280.041312,157.842493 279.915688,157.86698 279.783673,157.86698 C279.647401,157.86698 279.519647,157.842493 279.400408,157.79352 C279.281169,157.744547 279.177902,157.677477 279.090602,157.592306 C279.003302,157.507136 278.935167,157.405997 278.886194,157.288888 C278.837221,157.171778 278.812735,157.045089 278.812735,156.908816 Z M286.669673,152.609857 C286.62283,152.669476 286.577051,152.71632 286.532337,152.750388 C286.487622,152.784456 286.422681,152.80149 286.33751,152.80149 C286.256598,152.80149 286.177817,152.777004 286.101163,152.728031 C286.02451,152.679058 285.932953,152.623698 285.82649,152.561949 C285.720027,152.5002 285.593337,152.44484 285.446418,152.395867 C285.299499,152.346894 285.11745,152.322408 284.900265,152.322408 C284.623461,152.322408 284.380729,152.372445 284.172061,152.47252 C283.963394,152.572596 283.789861,152.716319 283.651459,152.903694 C283.513057,153.091069 283.409789,153.317832 283.341653,153.58399 C283.273517,153.850148 283.239449,154.151434 283.239449,154.487857 C283.239449,154.837056 283.276711,155.147924 283.351235,155.420469 C283.425759,155.693015 283.533285,155.921907 283.673816,156.107153 C283.814348,156.292399 283.984686,156.432928 284.184837,156.528745 C284.384987,156.624562 284.610686,156.672469 284.861939,156.672469 C285.113192,156.672469 285.316533,156.641596 285.471969,156.579847 C285.627406,156.518098 285.758353,156.449963 285.864816,156.375439 L286.059288,156.234908 C286.088624,156.212906 286.116423,156.191613 286.142684,156.171031 C286.221466,156.109282 286.309829,156.078408 286.407776,156.078408 C286.514239,156.078408 286.598521,156.112417 286.660624,156.180435 L287.148755,156.800224 C286.974156,157.004634 286.784654,157.176037 286.580245,157.314439 C286.375836,157.452841 286.163977,157.563561 285.944663,157.646602 C285.725349,157.729643 285.498586,157.788197 285.264367,157.822265 C285.030148,157.856334 284.798062,157.873367 284.568102,157.873367 C284.163542,157.873367 283.78241,157.79778 283.424694,157.646602 C283.066978,157.495424 282.755046,157.275049 282.488888,156.985469 C282.22273,156.69589 282.011936,156.341373 281.8565,155.921908 C281.701064,155.502443 281.623347,155.024431 281.623347,154.487857 C281.623347,154.006644 281.692547,153.56057 281.830949,153.149622 C281.969351,152.738675 282.172693,152.383093 282.44098,152.082867 C282.709267,151.782641 283.041427,151.547361 283.437469,151.37702 C283.833512,151.206679 284.289167,151.12151 284.804449,151.12151 C285.294179,151.12151 285.723219,151.200292 286.091582,151.357857 C286.459944,151.515423 286.791039,151.741121 287.084878,152.034959 L286.669673,152.609857 Z M290.955857,151.12151 C291.445587,151.12151 291.889532,151.200292 292.287704,151.357857 C292.685876,151.515423 293.025488,151.738992 293.306551,152.028571 C293.587614,152.318151 293.804795,152.671603 293.958102,153.088939 C294.111409,153.506274 294.188061,153.972576 294.188061,154.487857 C294.188061,155.007397 294.111409,155.475828 293.958102,155.893163 C293.804795,156.310499 293.587614,156.66608 293.306551,156.959918 C293.025488,157.253757 292.685876,157.479455 292.287704,157.63702 C291.889532,157.794586 291.445587,157.873367 290.955857,157.873367 C290.466127,157.873367 290.021118,157.794586 289.620816,157.63702 C289.220515,157.479455 288.878774,157.253757 288.595582,156.959918 C288.31239,156.66608 288.093079,156.310499 287.937643,155.893163 C287.782207,155.475828 287.70449,155.007397 287.70449,154.487857 C287.70449,153.972576 287.782207,153.506274 287.937643,153.088939 C288.093079,152.671603 288.31239,152.318151 288.595582,152.028571 C288.878774,151.738992 289.220515,151.515423 289.620816,151.357857 C290.021118,151.200292 290.466127,151.12151 290.955857,151.12151 Z M290.955857,156.659694 C291.500948,156.659694 291.904437,156.47658 292.166337,156.110347 C292.428236,155.744114 292.559184,155.207548 292.559184,154.500633 C292.559184,153.793718 292.428236,153.255022 292.166337,152.884531 C291.904437,152.514039 291.500948,152.328796 290.955857,152.328796 C290.402249,152.328796 289.993437,152.515104 289.729408,152.887724 C289.46538,153.260345 289.333367,153.797976 289.333367,154.500633 C289.333367,155.203286 289.46538,155.738791 289.729408,156.107153 C289.993437,156.475515 290.402249,156.659694 290.955857,156.659694 Z M295.420898,157.777551 L295.420898,151.223714 L296.385449,151.223714 C296.589858,151.223714 296.724,151.31953 296.787878,151.511163 L296.890082,151.996633 C297.005062,151.868877 297.125363,151.751769 297.25099,151.645306 C297.376616,151.538843 297.510758,151.447286 297.653418,151.370633 C297.796079,151.293979 297.949384,151.233296 298.113337,151.188582 C298.27729,151.143867 298.45721,151.12151 298.653102,151.12151 C299.066179,151.12151 299.405791,151.233295 299.671949,151.456867 C299.938107,151.68044 300.13719,151.977468 300.269204,152.347959 C300.371409,152.130774 300.499162,151.944467 300.652469,151.789031 C300.805776,151.633594 300.973985,151.506905 301.157102,151.408959 C301.340219,151.311013 301.535043,151.238619 301.741582,151.191776 C301.94812,151.144932 302.15572,151.12151 302.364388,151.12151 C302.726362,151.12151 303.047876,151.17687 303.328939,151.287592 C303.610001,151.398313 303.846346,151.560135 304.03798,151.773061 C304.229613,151.985987 304.375465,152.245754 304.475541,152.552367 C304.575616,152.858981 304.625653,153.210304 304.625653,153.606347 L304.625653,157.777551 L303.047878,157.777551 L303.047878,153.606347 C303.047878,153.189012 302.956321,152.87495 302.773204,152.664153 C302.590088,152.453356 302.321804,152.347959 301.968347,152.347959 C301.806523,152.347959 301.656412,152.375639 301.51801,152.431 C301.379608,152.486361 301.258242,152.566207 301.153908,152.670541 C301.049574,152.774875 300.967599,152.905822 300.90798,153.063388 C300.84836,153.220953 300.818551,153.401938 300.818551,153.606347 L300.818551,157.777551 L299.234388,157.777551 L299.234388,153.606347 C299.234388,153.167719 299.146025,152.848334 298.969296,152.648184 C298.792567,152.448033 298.531736,152.347959 298.186796,152.347959 C297.961094,152.347959 297.749236,152.404384 297.551214,152.517235 C297.353193,152.630086 297.169014,152.784455 296.998673,152.980347 L296.998673,157.777551 L295.420898,157.777551 Z" id="www.yourwebsite.com" fill="#427FE0" fill-rule="nonzero"></path>
                    </g>
                </g>
            </g>
        </g>
    </g>
</svg>