<?xml version="1.0" encoding="UTF-8"?>
<svg width="124px" height="124px" viewBox="0 0 124 124" version="1.1" xmlns="http://www.w3.org/2000/svg" xmlns:xlink="http://www.w3.org/1999/xlink">
    <title>icn_no+blog_posts_found</title>
    <g id="Main-Pages" stroke="none" stroke-width="1" fill="none" fill-rule="evenodd">
        <g id="First-Page-Learning-Centre" transform="translate(-880.000000, -494.000000)">
            <g id="Copy" transform="translate(540.000000, 497.000000)">
                <g id="icn_no+blog_posts_found" transform="translate(343.000000, 0.000000)">
                    <circle id="Oval" stroke="#8D8D8D" stroke-width="5" cx="59" cy="59" r="59"></circle>
                    <g id="blogging" transform="translate(28.000000, 29.000000)" fill="#8D8D8D" fill-rule="nonzero">
                        <path d="M54.734375,0 L7.265625,0 C3.2591247,0 0,3.28238511 0,7.31747986 L0,47.8075351 C0,53.1875025 4.34565738,57.5641749 9.6875,57.5641749 L37.0546875,57.5641749 C38.392395,57.5641749 39.4765625,56.4722697 39.4765625,55.1250149 C39.4765625,53.7777602 38.392395,52.685855 37.0546875,52.685855 L9.6875,52.685855 C7.01681512,52.685855 4.84375,50.4972806 4.84375,47.8075351 L4.84375,14.7569177 L57.15625,14.7569177 L57.15625,37.1971893 C57.15625,38.544444 58.2404175,39.6363492 59.578125,39.6363492 C60.9158325,39.6363492 62,38.544444 62,37.1971893 L62,7.31747986 C62,3.28238511 58.7408753,0 54.734375,0 Z M44.9257812,4.8783199 C46.2611237,4.8783199 47.3476562,5.97260706 47.3476562,7.31747986 C47.3476562,8.66235265 46.2611237,9.75663981 44.9257812,9.75663981 C43.5904388,9.75663981 42.5039062,8.66235265 42.5039062,7.31747986 C42.5039062,5.97260706 43.5904388,4.8783199 44.9257812,4.8783199 Z M57.0351562,7.31747986 C57.0351562,8.66235265 55.9486237,9.75663981 54.6132812,9.75663981 C53.2779388,9.75663981 52.1914062,8.66235265 52.1914062,7.31747986 C52.1914062,5.97260706 53.2779388,4.8783199 54.6132812,4.8783199 C55.9486237,4.8783199 57.0351562,5.97260706 57.0351562,7.31747986 Z M4.84375,7.31747986 C4.84375,5.97260706 5.93028256,4.8783199 7.265625,4.8783199 L38.076889,4.8783199 C37.8077393,5.64198661 37.6601563,6.46234465 37.6601563,7.31747986 C37.6601563,8.21834931 37.823349,9.0811069 38.1204071,9.87859781 L4.84375,9.87859781 L4.84375,7.31747986 Z M46.606903,34.1220374 C46.3249817,33.8376276 45.9777832,33.6275359 45.596054,33.5108183 L36.0632324,30.5947834 C35.2179413,30.3360992 34.3002777,30.5614356 33.6678467,31.1826591 C33.0358887,31.8038827 32.789444,32.7223789 33.0254821,33.579896 L35.7330628,43.4246695 C35.844696,43.8300846 36.0580291,44.1992933 36.3531952,44.4965659 L49.5968781,57.8600183 C51.0131073,59.2863552 52.8739777,60 54.734375,60 C56.5947723,60 58.4551696,59.2863552 59.8718719,57.8600183 C62.7048034,55.0068681 62.7048034,50.3648418 59.873764,47.5135973 L46.606903,34.1220374 Z M38.8687287,36.551193 L43.6069946,38.0008734 L52.5589447,47.0367225 L49.1333161,50.4867998 L40.2310334,41.5043074 L38.8687287,36.551193 Z M56.4467163,54.4104173 C55.5025635,55.3617849 53.9661865,55.3617849 53.0234528,54.4123229 L52.5551605,53.9397356 L55.9803161,50.4901346 L56.4471893,50.9612927 C57.3913421,51.9121839 57.3913421,53.459526 56.4467163,54.4104173 L56.4467163,54.4104173 Z" id="Shape"></path>
                    </g>
                </g>
            </g>
        </g>
    </g>
</svg>